<?xml version="1.0" encoding="utf-8" standalone="no"?>
<!DOCTYPE svg PUBLIC "-//W3C//DTD SVG 1.1//EN"
  "http://www.w3.org/Graphics/SVG/1.1/DTD/svg11.dtd">
<svg xmlns:xlink="http://www.w3.org/1999/xlink" width="394.074375pt" height="287.4075pt" viewBox="0 0 394.074375 287.4075" xmlns="http://www.w3.org/2000/svg" version="1.1">
 <metadata>
  <rdf:RDF xmlns:dc="http://purl.org/dc/elements/1.1/" xmlns:cc="http://creativecommons.org/ns#" xmlns:rdf="http://www.w3.org/1999/02/22-rdf-syntax-ns#">
   <cc:Work>
    <dc:type rdf:resource="http://purl.org/dc/dcmitype/StillImage"/>
    <dc:date>2024-06-04T10:36:07.598433</dc:date>
    <dc:format>image/svg+xml</dc:format>
    <dc:creator>
     <cc:Agent>
      <dc:title>Matplotlib v3.9.0, https://matplotlib.org/</dc:title>
     </cc:Agent>
    </dc:creator>
   </cc:Work>
  </rdf:RDF>
 </metadata>
 <defs>
  <style type="text/css">*{stroke-linejoin: round; stroke-linecap: butt}</style>
 </defs>
 <g id="figure_1">
  <g id="patch_1">
   <path d="M 0 287.4075 
L 394.074375 287.4075 
L 394.074375 0 
L 0 0 
z
" style="fill: #ffffff"/>
  </g>
  <g id="axes_1">
   <g id="patch_2">
    <path d="M 55.674375 253.08 
L 390.474375 253.08 
L 390.474375 3.6 
L 55.674375 3.6 
z
" style="fill: #ffffff"/>
   </g>
   <g id="PolyCollection_1">
    <defs>
     <path id="m4c85431f98" d="M 70.892557 -254.713738 
L 70.892557 -195.611772 
L 71.502504 -182.570948 
L 72.112451 -187.519337 
L 72.722398 -189.973531 
L 73.332345 -200.287952 
L 73.942293 -172.675999 
L 74.55224 -171.213884 
L 75.162187 -200.908199 
L 75.772134 -186.880503 
L 76.382081 -192.259587 
L 76.992028 -200.706702 
L 77.601976 -211.796078 
L 78.211923 -213.696498 
L 78.82187 -209.193445 
L 79.431817 -206.412798 
L 80.041764 -204.296483 
L 80.651711 -213.148222 
L 81.261659 -206.627528 
L 81.871606 -210.80284 
L 82.481553 -196.031017 
L 83.0915 -205.562679 
L 83.701447 -204.752498 
L 84.311394 -206.099434 
L 84.921342 -215.82926 
L 85.531289 -214.215698 
L 86.141236 -215.524732 
L 86.751183 -212.615706 
L 87.36113 -200.052982 
L 87.971077 -217.70004 
L 88.581025 -217.70004 
L 89.190972 -219.312702 
L 89.800919 -221.502899 
L 90.410866 -220.661207 
L 91.020813 -221.357569 
L 91.63076 -221.357569 
L 92.240708 -223.279636 
L 92.850655 -223.190271 
L 93.460602 -224.472886 
L 94.070549 -239.161945 
L 94.680496 -244.504567 
L 95.290444 -246.113696 
L 95.900391 -225.837869 
L 96.510338 -244.919905 
L 97.120285 -246.639642 
L 97.730232 -247.569329 
L 98.340179 -246.373944 
L 98.950127 -242.848508 
L 99.560074 -247.459344 
L 100.170021 -248.866643 
L 100.779968 -250.052637 
L 101.389915 -250.052602 
L 101.999862 -248.127019 
L 102.60981 -251.721102 
L 103.219757 -243.684844 
L 103.829704 -249.237478 
L 104.439651 -249.190926 
L 105.049598 -247.313729 
L 105.659545 -244.859743 
L 106.269493 -245.928191 
L 106.87944 -249.887186 
L 107.489387 -244.554024 
L 108.099334 -244.750867 
L 108.709281 -251.050446 
L 109.319228 -259.892661 
L 109.929176 -248.351015 
L 110.539123 -258.536683 
L 111.14907 -246.150678 
L 111.759017 -246.843895 
L 112.368964 -246.771131 
L 112.978911 -246.920632 
L 113.588859 -253.158486 
L 114.198806 -259.981188 
L 114.808753 -261.793181 
L 115.4187 -260.435134 
L 116.028647 -262.654859 
L 116.638594 -262.654889 
L 117.248542 -262.022582 
L 117.858489 -262.586657 
L 118.468436 -263.009932 
L 119.078383 -261.84577 
L 119.68833 -262.649572 
L 120.298277 -262.777642 
L 120.908225 -263.210938 
L 121.518172 -263.991933 
L 122.128119 -264.318894 
L 122.738066 -264.423395 
L 123.348013 -264.423399 
L 123.95796 -263.939124 
L 124.567908 -264.478161 
L 125.177855 -264.814604 
L 125.787802 -266.967477 
L 126.397749 -266.967456 
L 127.007696 -265.946222 
L 127.617643 -267.938567 
L 128.227591 -265.332399 
L 128.837538 -263.436021 
L 129.447485 -264.412065 
L 130.057432 -267.532553 
L 130.667379 -267.677594 
L 131.277326 -269.866927 
L 131.887274 -269.887486 
L 132.497221 -267.493618 
L 133.107168 -265.446504 
L 133.717115 -267.858099 
L 134.327062 -265.446521 
L 134.937009 -268.016958 
L 135.546957 -269.769743 
L 136.156904 -265.490147 
L 136.766851 -264.523896 
L 137.376798 -265.015204 
L 137.986745 -264.662561 
L 138.596692 -264.124284 
L 139.20664 -261.9056 
L 139.816587 -264.330116 
L 140.426534 -263.251177 
L 141.036481 -263.744361 
L 141.646428 -263.381587 
L 142.256375 -263.762304 
L 142.866323 -264.992112 
L 143.47627 -265.587619 
L 144.086217 -264.004267 
L 144.696164 -265.587595 
L 145.306111 -265.542575 
L 145.916058 -263.121215 
L 146.526006 -265.039757 
L 147.135953 -265.289329 
L 147.7459 -266.199784 
L 148.355847 -266.003534 
L 148.965794 -267.267176 
L 149.575741 -267.154786 
L 150.185689 -266.012196 
L 150.795636 -267.817316 
L 151.405583 -265.356425 
L 152.01553 -266.018195 
L 152.625477 -265.576768 
L 153.235424 -265.985344 
L 153.845372 -264.87525 
L 154.455319 -266.170617 
L 155.065266 -266.486955 
L 155.675213 -266.123102 
L 156.28516 -263.79494 
L 156.895107 -264.121415 
L 157.505055 -264.124408 
L 158.115002 -264.987572 
L 158.724949 -264.121398 
L 159.334896 -266.085482 
L 159.944843 -269.342995 
L 160.55479 -269.343003 
L 161.164738 -269.991935 
L 161.774685 -269.183046 
L 162.384632 -269.427159 
L 162.994579 -269.991907 
L 163.604526 -270.119724 
L 164.214473 -270.1198 
L 164.824421 -265.497089 
L 165.434368 -264.58301 
L 166.044315 -267.195385 
L 166.654262 -270.176686 
L 167.264209 -264.630034 
L 167.874156 -270.020219 
L 168.484104 -264.183536 
L 169.094051 -263.43962 
L 169.703998 -262.198078 
L 170.313945 -263.642413 
L 170.923892 -263.813855 
L 171.533839 -263.579183 
L 172.143787 -263.731606 
L 172.753734 -263.856685 
L 173.363681 -266.765398 
L 173.973628 -265.065565 
L 174.583575 -264.271095 
L 175.193522 -264.440803 
L 175.80347 -266.327213 
L 176.413417 -264.794185 
L 177.023364 -265.35755 
L 177.633311 -266.766187 
L 178.243258 -267.64746 
L 178.853205 -267.647505 
L 179.463153 -268.303765 
L 180.0731 -267.973267 
L 180.683047 -263.931604 
L 181.292994 -265.35013 
L 181.902941 -265.434844 
L 182.512888 -265.562809 
L 183.122836 -265.641178 
L 183.732783 -267.313751 
L 184.34273 -264.422288 
L 184.952677 -265.501835 
L 185.562624 -267.107537 
L 186.172571 -265.885832 
L 186.782519 -266.656801 
L 187.392466 -267.141758 
L 188.002413 -266.995294 
L 188.61236 -268.324449 
L 189.222307 -268.324438 
L 189.832254 -269.013108 
L 190.442202 -269.181734 
L 191.052149 -269.013153 
L 191.662096 -269.93515 
L 192.272043 -269.968262 
L 192.88199 -270.094071 
L 193.491937 -267.096909 
L 194.101885 -265.888253 
L 194.711832 -265.257695 
L 195.321779 -268.256302 
L 195.931726 -265.257781 
L 196.541673 -265.479334 
L 197.15162 -269.004572 
L 197.761568 -268.882823 
L 198.371515 -268.661504 
L 198.981462 -267.176376 
L 199.591409 -267.176326 
L 200.201356 -267.176331 
L 200.811303 -267.17641 
L 201.421251 -263.875965 
L 202.031198 -264.114897 
L 202.641145 -264.114919 
L 203.251092 -269.868783 
L 203.861039 -270.471569 
L 204.470986 -270.180525 
L 205.080934 -268.970202 
L 205.690881 -266.738674 
L 206.300828 -267.677151 
L 206.910775 -268.613187 
L 207.520722 -266.740253 
L 208.130669 -268.45218 
L 208.740617 -268.874526 
L 209.350564 -268.874513 
L 209.960511 -266.74024 
L 210.570458 -266.740202 
L 211.180405 -265.878521 
L 211.790352 -266.740266 
L 212.4003 -267.192076 
L 213.010247 -264.849924 
L 213.620194 -264.169965 
L 214.230141 -263.603571 
L 214.840088 -263.603558 
L 215.450035 -264.784856 
L 216.059983 -264.627834 
L 216.66993 -264.563112 
L 217.279877 -264.563126 
L 217.889824 -264.563157 
L 218.499771 -268.308382 
L 219.109718 -264.7358 
L 219.719666 -266.689691 
L 220.329613 -268.064916 
L 220.93956 -268.064949 
L 221.549507 -266.568258 
L 222.159454 -265.094734 
L 222.769401 -266.568204 
L 223.379349 -263.856349 
L 223.989296 -266.689718 
L 224.599243 -270.324922 
L 225.20919 -264.360567 
L 225.819137 -264.452836 
L 226.429084 -265.841007 
L 227.039032 -265.469639 
L 227.648979 -264.1119 
L 228.258926 -264.045488 
L 228.868873 -263.320855 
L 229.47882 -264.045488 
L 230.088767 -264.392422 
L 230.698715 -262.746075 
L 231.308662 -266.327399 
L 231.918609 -266.49627 
L 232.528556 -265.509836 
L 233.138503 -264.80573 
L 233.74845 -265.996958 
L 234.358398 -264.425346 
L 234.968345 -261.213427 
L 235.578292 -263.581377 
L 236.188239 -265.474879 
L 236.798186 -265.596753 
L 237.408133 -265.461574 
L 238.018081 -266.549546 
L 238.628028 -268.428473 
L 239.237975 -268.226761 
L 239.847922 -266.719703 
L 240.457869 -268.776262 
L 241.067816 -264.707157 
L 241.677764 -269.342867 
L 242.287711 -270.200292 
L 242.897658 -270.200329 
L 243.507605 -270.200331 
L 244.117552 -270.200318 
L 244.727499 -265.154104 
L 245.337447 -267.844199 
L 245.947394 -268.789037 
L 246.557341 -268.084679 
L 247.167288 -267.18637 
L 247.777235 -264.217068 
L 248.387182 -264.217075 
L 248.99713 -265.09421 
L 249.607077 -270.178215 
L 250.217024 -270.157752 
L 250.826971 -263.687886 
L 251.436918 -269.11107 
L 252.046865 -265.309184 
L 252.656813 -265.309207 
L 253.26676 -261.687737 
L 253.876707 -262.088732 
L 254.486654 -262.942506 
L 255.096601 -266.280343 
L 255.706548 -269.648251 
L 256.316496 -269.648174 
L 256.926443 -266.316716 
L 257.53639 -264.803152 
L 258.146337 -264.803158 
L 258.756284 -264.273028 
L 259.366231 -264.92232 
L 259.976179 -268.837579 
L 260.586126 -270.446653 
L 261.196073 -270.446657 
L 261.80602 -266.120504 
L 262.415967 -266.120538 
L 263.025914 -265.70942 
L 263.635862 -264.342043 
L 264.245809 -263.449516 
L 264.855756 -262.127445 
L 265.465703 -264.780946 
L 266.07565 -264.780935 
L 266.685597 -264.780914 
L 267.295545 -265.038385 
L 267.905492 -266.284869 
L 268.515439 -268.742018 
L 269.125386 -268.741985 
L 269.735333 -267.700114 
L 270.34528 -264.04771 
L 270.955228 -267.087757 
L 271.565175 -267.087794 
L 272.175122 -267.429506 
L 272.785069 -267.429517 
L 273.395016 -267.429513 
L 274.004963 -265.824104 
L 274.614911 -267.059561 
L 275.224858 -269.764155 
L 275.834805 -269.472811 
L 276.444752 -269.472777 
L 277.054699 -266.632527 
L 277.664646 -266.525201 
L 278.274594 -265.573938 
L 278.884541 -265.574087 
L 279.494488 -266.524991 
L 280.104435 -266.525078 
L 280.714382 -266.52947 
L 281.324329 -265.210891 
L 281.934277 -264.749979 
L 282.544224 -264.504829 
L 283.154171 -263.2288 
L 283.764118 -263.228596 
L 284.374065 -265.561424 
L 284.984012 -265.871832 
L 285.59396 -267.434075 
L 286.203907 -267.471981 
L 286.813854 -267.535112 
L 287.423801 -269.8352 
L 288.033748 -270.492675 
L 288.643695 -271.045669 
L 289.253643 -270.493458 
L 289.86359 -269.659166 
L 290.473537 -268.826883 
L 291.083484 -268.080087 
L 291.693431 -268.82466 
L 292.303378 -268.824619 
L 292.913326 -270.893828 
L 293.523273 -270.425686 
L 294.13322 -270.425702 
L 294.743167 -270.89379 
L 295.353114 -268.824677 
L 295.963061 -268.737964 
L 296.573009 -268.738015 
L 297.182956 -264.367126 
L 297.792903 -263.054474 
L 298.40285 -263.888817 
L 299.012797 -264.13405 
L 299.622744 -264.459431 
L 300.232692 -264.174729 
L 300.842639 -263.875979 
L 301.452586 -265.904674 
L 302.062533 -262.573753 
L 302.67248 -264.458253 
L 303.282427 -265.887101 
L 303.892375 -266.922507 
L 304.502322 -266.092748 
L 305.112269 -263.96731 
L 305.722216 -264.947483 
L 306.332163 -266.003855 
L 306.94211 -263.729287 
L 307.552058 -266.112276 
L 308.162005 -267.035105 
L 308.771952 -266.79936 
L 309.381899 -266.24372 
L 309.991846 -265.990252 
L 310.601793 -263.22795 
L 311.211741 -266.715267 
L 311.821688 -264.766036 
L 312.431635 -264.389514 
L 313.041582 -263.168179 
L 313.651529 -265.571924 
L 314.261476 -264.874949 
L 314.871424 -265.339716 
L 315.481371 -266.740626 
L 316.091318 -267.216041 
L 316.701265 -265.287142 
L 317.311212 -266.024133 
L 317.921159 -264.763937 
L 318.531107 -265.3399 
L 319.141054 -265.539933 
L 319.751001 -263.020051 
L 320.360948 -264.841525 
L 320.970895 -264.84159 
L 321.580842 -265.902676 
L 322.19079 -262.129986 
L 322.800737 -249.44903 
L 323.410684 -263.351357 
L 324.020631 -264.167174 
L 324.630578 -264.402574 
L 325.240525 -266.66647 
L 325.850473 -265.884841 
L 326.46042 -266.799543 
L 327.070367 -266.799778 
L 327.680314 -267.426299 
L 328.290261 -265.508708 
L 328.900208 -263.753527 
L 329.510156 -263.753539 
L 330.120103 -263.753547 
L 330.73005 -266.443035 
L 331.339997 -268.061502 
L 331.949944 -266.443064 
L 332.559891 -266.443092 
L 333.169839 -261.341397 
L 333.779786 -265.476473 
L 334.389733 -265.47646 
L 334.99968 -266.63545 
L 335.609627 -266.467735 
L 336.219574 -266.592157 
L 336.829522 -268.38181 
L 337.439469 -266.467753 
L 338.049416 -251.482504 
L 338.659363 -264.470351 
L 339.26931 -249.167883 
L 339.879257 -255.067035 
L 340.489205 -261.897667 
L 341.099152 -252.997559 
L 341.709099 -252.985732 
L 342.319046 -257.199219 
L 342.928993 -262.561139 
L 343.53894 -262.375351 
L 344.148888 -261.8063 
L 344.758835 -247.880848 
L 345.368782 -255.513194 
L 345.978729 -246.8657 
L 346.588676 -261.897686 
L 347.198623 -262.89607 
L 347.808571 -261.273044 
L 348.418518 -259.776505 
L 349.028465 -255.427784 
L 349.638412 -260.479119 
L 350.248359 -261.85189 
L 350.858306 -260.479132 
L 351.468254 -258.123549 
L 352.078201 -261.849999 
L 352.688148 -263.165473 
L 353.298095 -262.785254 
L 353.908042 -263.165464 
L 354.51799 -266.60096 
L 355.127937 -263.165446 
L 355.737884 -266.377305 
L 356.347831 -265.133622 
L 356.957778 -260.689576 
L 357.567725 -249.403612 
L 358.177673 -260.689565 
L 358.78762 -260.689577 
L 359.397567 -260.689563 
L 360.007514 -260.854319 
L 360.617461 -260.689576 
L 361.227408 -261.996096 
L 361.837356 -266.379617 
L 362.447303 -266.379645 
L 363.05725 -270.564884 
L 363.667197 -268.58345 
L 364.277144 -264.696368 
L 364.887091 -264.319215 
L 365.497039 -270.209608 
L 366.106986 -270.209256 
L 366.716933 -270.209547 
L 367.32688 -263.522723 
L 367.936827 -263.778894 
L 368.546774 -270.643905 
L 369.156722 -267.15993 
L 369.766669 -264.528676 
L 370.376616 -267.001434 
L 370.986563 -269.9911 
L 371.59651 -270.695236 
L 372.206457 -271.122998 
L 372.816405 -271.449829 
L 373.426352 -263.729372 
L 374.036299 -262.414761 
L 374.646246 -247.47105 
L 375.256193 -251.98849 
L 375.256193 -272.467458 
L 375.256193 -272.467458 
L 374.646246 -272.467068 
L 374.036299 -272.466611 
L 373.426352 -272.4675 
L 372.816405 -272.396837 
L 372.206457 -272.396826 
L 371.59651 -272.396744 
L 370.986563 -272.396792 
L 370.376616 -272.396815 
L 369.766669 -272.396786 
L 369.156722 -272.396835 
L 368.546774 -272.39675 
L 367.936827 -272.396799 
L 367.32688 -272.396807 
L 366.716933 -272.396785 
L 366.106986 -272.396785 
L 365.497039 -272.396798 
L 364.887091 -272.39673 
L 364.277144 -272.396768 
L 363.667197 -272.396733 
L 363.05725 -272.396733 
L 362.447303 -272.396789 
L 361.837356 -272.396766 
L 361.227408 -272.396792 
L 360.617461 -272.396716 
L 360.007514 -272.396784 
L 359.397567 -272.396835 
L 358.78762 -272.396843 
L 358.177673 -272.396819 
L 357.567725 -272.396736 
L 356.957778 -272.396751 
L 356.347831 -272.396702 
L 355.737884 -272.396747 
L 355.127937 -272.395887 
L 354.51799 -272.396254 
L 353.908042 -272.395878 
L 353.298095 -272.365531 
L 352.688148 -272.365411 
L 352.078201 -272.365635 
L 351.468254 -272.364679 
L 350.858306 -271.753044 
L 350.248359 -271.753406 
L 349.638412 -271.738734 
L 349.028465 -271.738663 
L 348.418518 -271.738313 
L 347.808571 -271.738571 
L 347.198623 -271.738153 
L 346.588676 -271.738231 
L 345.978729 -271.674347 
L 345.368782 -271.674246 
L 344.758835 -271.674197 
L 344.148888 -271.674116 
L 343.53894 -271.674319 
L 342.928993 -271.674232 
L 342.319046 -271.674351 
L 341.709099 -271.674239 
L 341.099152 -271.674245 
L 340.489205 -271.674246 
L 339.879257 -271.674378 
L 339.26931 -271.674247 
L 338.659363 -271.674183 
L 338.049416 -271.673914 
L 337.439469 -271.674202 
L 336.829522 -271.674177 
L 336.219574 -271.674275 
L 335.609627 -271.6742 
L 334.99968 -271.673961 
L 334.389733 -271.673498 
L 333.779786 -271.674013 
L 333.169839 -271.673749 
L 332.559891 -271.500058 
L 331.949944 -271.500062 
L 331.339997 -271.500108 
L 330.73005 -271.500109 
L 330.120103 -271.500119 
L 329.510156 -271.500063 
L 328.900208 -271.500061 
L 328.290261 -271.50006 
L 327.680314 -271.500073 
L 327.070367 -271.50006 
L 326.46042 -271.50008 
L 325.850473 -271.500062 
L 325.240525 -271.500125 
L 324.630578 -271.500086 
L 324.020631 -271.500075 
L 323.410684 -271.500065 
L 322.800737 -271.500064 
L 322.19079 -271.500073 
L 321.580842 -271.500094 
L 320.970895 -271.500064 
L 320.360948 -271.500079 
L 319.751001 -271.500061 
L 319.141054 -271.500063 
L 318.531107 -271.500072 
L 317.921159 -271.500113 
L 317.311212 -271.500107 
L 316.701265 -271.500072 
L 316.091318 -271.500073 
L 315.481371 -271.500086 
L 314.871424 -271.500115 
L 314.261476 -271.500109 
L 313.651529 -271.500065 
L 313.041582 -271.500091 
L 312.431635 -271.500083 
L 311.821688 -271.500097 
L 311.211741 -271.50009 
L 310.601793 -271.500128 
L 309.991846 -271.500082 
L 309.381899 -271.500085 
L 308.771952 -271.500103 
L 308.162005 -271.500062 
L 307.552058 -271.500066 
L 306.94211 -271.500097 
L 306.332163 -271.500094 
L 305.722216 -271.500117 
L 305.112269 -271.500066 
L 304.502322 -271.500087 
L 303.892375 -271.500101 
L 303.282427 -271.500064 
L 302.67248 -271.500116 
L 302.062533 -271.500066 
L 301.452586 -271.500073 
L 300.842639 -271.500078 
L 300.232692 -271.50009 
L 299.622744 -271.500084 
L 299.012797 -271.500056 
L 298.40285 -271.50008 
L 297.792903 -271.500074 
L 297.182956 -271.500065 
L 296.573009 -271.500075 
L 295.963061 -271.500114 
L 295.353114 -271.500079 
L 294.743167 -271.50011 
L 294.13322 -271.500091 
L 293.523273 -271.50011 
L 292.913326 -271.500102 
L 292.303378 -271.500084 
L 291.693431 -271.500106 
L 291.083484 -271.500107 
L 290.473537 -271.500114 
L 289.86359 -271.500061 
L 289.253643 -271.500083 
L 288.643695 -271.500105 
L 288.033748 -271.500087 
L 287.423801 -271.500115 
L 286.813854 -271.500103 
L 286.203907 -271.500062 
L 285.59396 -271.500068 
L 284.984012 -271.500108 
L 284.374065 -271.500142 
L 283.764118 -271.500064 
L 283.154171 -271.500058 
L 282.544224 -271.500089 
L 281.934277 -271.500105 
L 281.324329 -271.500052 
L 280.714382 -271.500085 
L 280.104435 -271.500053 
L 279.494488 -271.500055 
L 278.884541 -271.500068 
L 278.274594 -271.500055 
L 277.664646 -271.500102 
L 277.054699 -271.50005 
L 276.444752 -271.500059 
L 275.834805 -271.500039 
L 275.224858 -271.500056 
L 274.614911 -271.50002 
L 274.004963 -271.498055 
L 273.395016 -271.498088 
L 272.785069 -271.498077 
L 272.175122 -271.498063 
L 271.565175 -271.498067 
L 270.955228 -271.498064 
L 270.34528 -271.49808 
L 269.735333 -271.498104 
L 269.125386 -271.498096 
L 268.515439 -271.498058 
L 267.905492 -271.498072 
L 267.295545 -271.498067 
L 266.685597 -271.498092 
L 266.07565 -271.498131 
L 265.465703 -271.498122 
L 264.855756 -271.498056 
L 264.245809 -271.498086 
L 263.635862 -271.498092 
L 263.025914 -271.498108 
L 262.415967 -271.498079 
L 261.80602 -271.498059 
L 261.196073 -271.498061 
L 260.586126 -271.498099 
L 259.976179 -271.498044 
L 259.366231 -271.498052 
L 258.756284 -271.498099 
L 258.146337 -271.498053 
L 257.53639 -271.498075 
L 256.926443 -271.498064 
L 256.316496 -271.498061 
L 255.706548 -271.498094 
L 255.096601 -271.498061 
L 254.486654 -271.498057 
L 253.876707 -271.498061 
L 253.26676 -271.498056 
L 252.656813 -271.498058 
L 252.046865 -271.49805 
L 251.436918 -271.498057 
L 250.826971 -271.49806 
L 250.217024 -271.498074 
L 249.607077 -271.498041 
L 248.99713 -271.498026 
L 248.387182 -271.498023 
L 247.777235 -271.497601 
L 247.167288 -271.49766 
L 246.557341 -271.497586 
L 245.947394 -271.497616 
L 245.337447 -271.497619 
L 244.727499 -271.497628 
L 244.117552 -271.497639 
L 243.507605 -271.497597 
L 242.897658 -271.497602 
L 242.287711 -271.497562 
L 241.677764 -271.497598 
L 241.067816 -271.497607 
L 240.457869 -271.497609 
L 239.847922 -271.497629 
L 239.237975 -271.497615 
L 238.628028 -271.497605 
L 238.018081 -271.497582 
L 237.408133 -271.497556 
L 236.798186 -271.497548 
L 236.188239 -271.497577 
L 235.578292 -271.497541 
L 234.968345 -271.497579 
L 234.358398 -271.497447 
L 233.74845 -271.497445 
L 233.138503 -271.491029 
L 232.528556 -271.491019 
L 231.918609 -271.490977 
L 231.308662 -271.49096 
L 230.698715 -271.490955 
L 230.088767 -271.490977 
L 229.47882 -271.486345 
L 228.868873 -271.486332 
L 228.258926 -271.486334 
L 227.648979 -271.486343 
L 227.039032 -271.486345 
L 226.429084 -271.486346 
L 225.819137 -271.486359 
L 225.20919 -271.486344 
L 224.599243 -271.486343 
L 223.989296 -271.486348 
L 223.379349 -271.486349 
L 222.769401 -271.48635 
L 222.159454 -271.486346 
L 221.549507 -271.486342 
L 220.93956 -271.486371 
L 220.329613 -271.486339 
L 219.719666 -271.48634 
L 219.109718 -271.486328 
L 218.499771 -271.486338 
L 217.889824 -271.486372 
L 217.279877 -271.486316 
L 216.66993 -271.486332 
L 216.059983 -271.486326 
L 215.450035 -271.486322 
L 214.840088 -271.486254 
L 214.230141 -271.41721 
L 213.620194 -271.417197 
L 213.010247 -271.417227 
L 212.4003 -271.417202 
L 211.790352 -271.417198 
L 211.180405 -271.417194 
L 210.570458 -271.417191 
L 209.960511 -271.417197 
L 209.350564 -271.417196 
L 208.740617 -271.417197 
L 208.130669 -271.417187 
L 207.520722 -271.417195 
L 206.910775 -271.417198 
L 206.300828 -271.417197 
L 205.690881 -271.417192 
L 205.080934 -271.417197 
L 204.470986 -271.417188 
L 203.861039 -271.417193 
L 203.251092 -271.417192 
L 202.641145 -271.417213 
L 202.031198 -271.417188 
L 201.421251 -271.417189 
L 200.811303 -271.417182 
L 200.201356 -271.417192 
L 199.591409 -271.417182 
L 198.981462 -271.417191 
L 198.371515 -271.417196 
L 197.761568 -271.417198 
L 197.15162 -271.417195 
L 196.541673 -271.41719 
L 195.931726 -271.417152 
L 195.321779 -271.417194 
L 194.711832 -271.417156 
L 194.101885 -271.417084 
L 193.491937 -271.40102 
L 192.88199 -271.401023 
L 192.272043 -271.401005 
L 191.662096 -271.401012 
L 191.052149 -271.400968 
L 190.442202 -271.401028 
L 189.832254 -271.400916 
L 189.222307 -271.401017 
L 188.61236 -271.400965 
L 188.002413 -271.400959 
L 187.392466 -271.37396 
L 186.782519 -271.373922 
L 186.172571 -271.373915 
L 185.562624 -271.373935 
L 184.952677 -271.373871 
L 184.34273 -271.373916 
L 183.732783 -271.362361 
L 183.122836 -271.362362 
L 182.512888 -271.362364 
L 181.902941 -271.362404 
L 181.292994 -271.362342 
L 180.683047 -271.362355 
L 180.0731 -271.362377 
L 179.463153 -271.362354 
L 178.853205 -271.362358 
L 178.243258 -271.36236 
L 177.633311 -271.362357 
L 177.023364 -271.362359 
L 176.413417 -271.362342 
L 175.80347 -271.362338 
L 175.193522 -271.362346 
L 174.583575 -271.362361 
L 173.973628 -271.36229 
L 173.363681 -271.362305 
L 172.753734 -271.362292 
L 172.143787 -271.362314 
L 171.533839 -271.192817 
L 170.923892 -271.192863 
L 170.313945 -271.192797 
L 169.703998 -271.192807 
L 169.094051 -271.192807 
L 168.484104 -271.192774 
L 167.874156 -271.192798 
L 167.264209 -271.192797 
L 166.654262 -271.192832 
L 166.044315 -271.192798 
L 165.434368 -271.192737 
L 164.824421 -271.16698 
L 164.214473 -271.166999 
L 163.604526 -271.166944 
L 162.994579 -271.166958 
L 162.384632 -271.166942 
L 161.774685 -271.166943 
L 161.164738 -271.166943 
L 160.55479 -271.166935 
L 159.944843 -271.166936 
L 159.334896 -271.166908 
L 158.724949 -271.166919 
L 158.115002 -271.166907 
L 157.505055 -271.110758 
L 156.895107 -271.110772 
L 156.28516 -271.110757 
L 155.675213 -271.110796 
L 155.065266 -271.110775 
L 154.455319 -271.110801 
L 153.845372 -271.110762 
L 153.235424 -271.110753 
L 152.625477 -271.110784 
L 152.01553 -271.110762 
L 151.405583 -271.110756 
L 150.795636 -271.110761 
L 150.185689 -271.11076 
L 149.575741 -271.11076 
L 148.965794 -271.11076 
L 148.355847 -271.110756 
L 147.7459 -271.110761 
L 147.135953 -271.110781 
L 146.526006 -271.110785 
L 145.916058 -271.110758 
L 145.306111 -271.110761 
L 144.696164 -271.110759 
L 144.086217 -271.11076 
L 143.47627 -271.110757 
L 142.866323 -271.110762 
L 142.256375 -271.110758 
L 141.646428 -271.110763 
L 141.036481 -271.110761 
L 140.426534 -271.110749 
L 139.816587 -271.110775 
L 139.20664 -271.110748 
L 138.596692 -271.110755 
L 137.986745 -271.110756 
L 137.376798 -271.110755 
L 136.766851 -271.110769 
L 136.156904 -271.110749 
L 135.546957 -271.110785 
L 134.937009 -271.11076 
L 134.327062 -271.110756 
L 133.717115 -271.110761 
L 133.107168 -271.110779 
L 132.497221 -271.110772 
L 131.887274 -271.110757 
L 131.277326 -271.110767 
L 130.667379 -271.110762 
L 130.057432 -271.110757 
L 129.447485 -271.110765 
L 128.837538 -271.110746 
L 128.227591 -271.110799 
L 127.617643 -271.110777 
L 127.007696 -271.110762 
L 126.397749 -271.110762 
L 125.787802 -271.110755 
L 125.177855 -271.110728 
L 124.567908 -271.110732 
L 123.95796 -271.110746 
L 123.348013 -270.901352 
L 122.738066 -270.901351 
L 122.128119 -270.884017 
L 121.518172 -270.884008 
L 120.908225 -270.883998 
L 120.298277 -270.884009 
L 119.68833 -270.883988 
L 119.078383 -270.883982 
L 118.468436 -270.88397 
L 117.858489 -270.884003 
L 117.248542 -270.81893 
L 116.638594 -270.818924 
L 116.028647 -270.818897 
L 115.4187 -270.818933 
L 114.808753 -270.818914 
L 114.198806 -270.818851 
L 113.588859 -270.808521 
L 112.978911 -270.808522 
L 112.368964 -270.808519 
L 111.759017 -270.808532 
L 111.14907 -270.808524 
L 110.539123 -270.808494 
L 109.929176 -270.808504 
L 109.319228 -270.808469 
L 108.709281 -269.889916 
L 108.099334 -269.765595 
L 107.489387 -269.765577 
L 106.87944 -269.765503 
L 106.269493 -268.932522 
L 105.659545 -268.932514 
L 105.049598 -268.932528 
L 104.439651 -268.932519 
L 103.829704 -268.93252 
L 103.219757 -268.93245 
L 102.60981 -268.932527 
L 101.999862 -268.113876 
L 101.389915 -268.113947 
L 100.779968 -268.113859 
L 100.170021 -268.113954 
L 99.560074 -268.113903 
L 98.950127 -267.51277 
L 98.340179 -267.512783 
L 97.730232 -267.512793 
L 97.120285 -267.512827 
L 96.510338 -267.512713 
L 95.900391 -266.771339 
L 95.290444 -266.381167 
L 94.680496 -266.381183 
L 94.070549 -266.381153 
L 93.460602 -266.381133 
L 92.850655 -265.760212 
L 92.240708 -265.760162 
L 91.63076 -265.760112 
L 91.020813 -265.760148 
L 90.410866 -265.76023 
L 89.800919 -265.760141 
L 89.190972 -265.760215 
L 88.581025 -265.760109 
L 87.971077 -265.759959 
L 87.36113 -263.812299 
L 86.751183 -263.812252 
L 86.141236 -263.812213 
L 85.531289 -263.812267 
L 84.921342 -263.812233 
L 84.311394 -263.812212 
L 83.701447 -263.812284 
L 83.0915 -263.812266 
L 82.481553 -263.812257 
L 81.871606 -263.812216 
L 81.261659 -263.812275 
L 80.651711 -263.81233 
L 80.041764 -260.575314 
L 79.431817 -260.575327 
L 78.82187 -260.575279 
L 78.211923 -260.062442 
L 77.601976 -260.062517 
L 76.992028 -260.029538 
L 76.382081 -260.029564 
L 75.772134 -260.029539 
L 75.162187 -260.029569 
L 74.55224 -260.029537 
L 73.942293 -260.029546 
L 73.332345 -260.029544 
L 72.722398 -260.029548 
L 72.112451 -258.215945 
L 71.502504 -258.215964 
L 70.892557 -254.713738 
z
" style="stroke: #0000ff; stroke-opacity: 0.2"/>
    </defs>
    <g clip-path="url(#pf318183043)">
     <use xlink:href="#m4c85431f98" x="0" y="287.4075" style="fill: #0000ff; fill-opacity: 0.2; stroke: #0000ff; stroke-opacity: 0.2"/>
    </g>
   </g>
   <g id="matplotlib.axis_1">
    <g id="xtick_1">
     <g id="line2d_1">
      <path d="M 70.892557 253.08 
L 70.892557 3.6 
" clip-path="url(#pf318183043)" style="fill: none; stroke: #b0b0b0; stroke-width: 0.5; stroke-linecap: square"/>
     </g>
     <g id="line2d_2">
      <defs>
       <path id="m101bf6a5c4" d="M 0 0 
L 0 -3 
" style="stroke: #000000; stroke-width: 0.5"/>
      </defs>
      <g>
       <use xlink:href="#m101bf6a5c4" x="70.892557" y="253.08" style="stroke: #000000; stroke-width: 0.5"/>
      </g>
     </g>
     <g id="line2d_3">
      <defs>
       <path id="m100498040d" d="M 0 0 
L 0 3 
" style="stroke: #000000; stroke-width: 0.5"/>
      </defs>
      <g>
       <use xlink:href="#m100498040d" x="70.892557" y="3.6" style="stroke: #000000; stroke-width: 0.5"/>
      </g>
     </g>
     <g id="text_1">
      <!-- 0 -->
      <g transform="translate(67.075057 265.698125) scale(0.12 -0.12)">
       <defs>
        <path id="DejaVuSans-30" d="M 2034 4250 
Q 1547 4250 1301 3770 
Q 1056 3291 1056 2328 
Q 1056 1369 1301 889 
Q 1547 409 2034 409 
Q 2525 409 2770 889 
Q 3016 1369 3016 2328 
Q 3016 3291 2770 3770 
Q 2525 4250 2034 4250 
z
M 2034 4750 
Q 2819 4750 3233 4129 
Q 3647 3509 3647 2328 
Q 3647 1150 3233 529 
Q 2819 -91 2034 -91 
Q 1250 -91 836 529 
Q 422 1150 422 2328 
Q 422 3509 836 4129 
Q 1250 4750 2034 4750 
z
" transform="scale(0.015625)"/>
       </defs>
       <use xlink:href="#DejaVuSans-30"/>
      </g>
     </g>
    </g>
    <g id="xtick_2">
     <g id="line2d_4">
      <path d="M 131.887274 253.08 
L 131.887274 3.6 
" clip-path="url(#pf318183043)" style="fill: none; stroke: #b0b0b0; stroke-width: 0.5; stroke-linecap: square"/>
     </g>
     <g id="line2d_5">
      <g>
       <use xlink:href="#m101bf6a5c4" x="131.887274" y="253.08" style="stroke: #000000; stroke-width: 0.5"/>
      </g>
     </g>
     <g id="line2d_6">
      <g>
       <use xlink:href="#m100498040d" x="131.887274" y="3.6" style="stroke: #000000; stroke-width: 0.5"/>
      </g>
     </g>
     <g id="text_2">
      <!-- 100 -->
      <g transform="translate(120.434774 265.698125) scale(0.12 -0.12)">
       <defs>
        <path id="DejaVuSans-31" d="M 794 531 
L 1825 531 
L 1825 4091 
L 703 3866 
L 703 4441 
L 1819 4666 
L 2450 4666 
L 2450 531 
L 3481 531 
L 3481 0 
L 794 0 
L 794 531 
z
" transform="scale(0.015625)"/>
       </defs>
       <use xlink:href="#DejaVuSans-31"/>
       <use xlink:href="#DejaVuSans-30" x="63.623047"/>
       <use xlink:href="#DejaVuSans-30" x="127.246094"/>
      </g>
     </g>
    </g>
    <g id="xtick_3">
     <g id="line2d_7">
      <path d="M 192.88199 253.08 
L 192.88199 3.6 
" clip-path="url(#pf318183043)" style="fill: none; stroke: #b0b0b0; stroke-width: 0.5; stroke-linecap: square"/>
     </g>
     <g id="line2d_8">
      <g>
       <use xlink:href="#m101bf6a5c4" x="192.88199" y="253.08" style="stroke: #000000; stroke-width: 0.5"/>
      </g>
     </g>
     <g id="line2d_9">
      <g>
       <use xlink:href="#m100498040d" x="192.88199" y="3.6" style="stroke: #000000; stroke-width: 0.5"/>
      </g>
     </g>
     <g id="text_3">
      <!-- 200 -->
      <g transform="translate(181.42949 265.698125) scale(0.12 -0.12)">
       <defs>
        <path id="DejaVuSans-32" d="M 1228 531 
L 3431 531 
L 3431 0 
L 469 0 
L 469 531 
Q 828 903 1448 1529 
Q 2069 2156 2228 2338 
Q 2531 2678 2651 2914 
Q 2772 3150 2772 3378 
Q 2772 3750 2511 3984 
Q 2250 4219 1831 4219 
Q 1534 4219 1204 4116 
Q 875 4013 500 3803 
L 500 4441 
Q 881 4594 1212 4672 
Q 1544 4750 1819 4750 
Q 2544 4750 2975 4387 
Q 3406 4025 3406 3419 
Q 3406 3131 3298 2873 
Q 3191 2616 2906 2266 
Q 2828 2175 2409 1742 
Q 1991 1309 1228 531 
z
" transform="scale(0.015625)"/>
       </defs>
       <use xlink:href="#DejaVuSans-32"/>
       <use xlink:href="#DejaVuSans-30" x="63.623047"/>
       <use xlink:href="#DejaVuSans-30" x="127.246094"/>
      </g>
     </g>
    </g>
    <g id="xtick_4">
     <g id="line2d_10">
      <path d="M 253.876707 253.08 
L 253.876707 3.6 
" clip-path="url(#pf318183043)" style="fill: none; stroke: #b0b0b0; stroke-width: 0.5; stroke-linecap: square"/>
     </g>
     <g id="line2d_11">
      <g>
       <use xlink:href="#m101bf6a5c4" x="253.876707" y="253.08" style="stroke: #000000; stroke-width: 0.5"/>
      </g>
     </g>
     <g id="line2d_12">
      <g>
       <use xlink:href="#m100498040d" x="253.876707" y="3.6" style="stroke: #000000; stroke-width: 0.5"/>
      </g>
     </g>
     <g id="text_4">
      <!-- 300 -->
      <g transform="translate(242.424207 265.698125) scale(0.12 -0.12)">
       <defs>
        <path id="DejaVuSans-33" d="M 2597 2516 
Q 3050 2419 3304 2112 
Q 3559 1806 3559 1356 
Q 3559 666 3084 287 
Q 2609 -91 1734 -91 
Q 1441 -91 1130 -33 
Q 819 25 488 141 
L 488 750 
Q 750 597 1062 519 
Q 1375 441 1716 441 
Q 2309 441 2620 675 
Q 2931 909 2931 1356 
Q 2931 1769 2642 2001 
Q 2353 2234 1838 2234 
L 1294 2234 
L 1294 2753 
L 1863 2753 
Q 2328 2753 2575 2939 
Q 2822 3125 2822 3475 
Q 2822 3834 2567 4026 
Q 2313 4219 1838 4219 
Q 1578 4219 1281 4162 
Q 984 4106 628 3988 
L 628 4550 
Q 988 4650 1302 4700 
Q 1616 4750 1894 4750 
Q 2613 4750 3031 4423 
Q 3450 4097 3450 3541 
Q 3450 3153 3228 2886 
Q 3006 2619 2597 2516 
z
" transform="scale(0.015625)"/>
       </defs>
       <use xlink:href="#DejaVuSans-33"/>
       <use xlink:href="#DejaVuSans-30" x="63.623047"/>
       <use xlink:href="#DejaVuSans-30" x="127.246094"/>
      </g>
     </g>
    </g>
    <g id="xtick_5">
     <g id="line2d_13">
      <path d="M 314.871424 253.08 
L 314.871424 3.6 
" clip-path="url(#pf318183043)" style="fill: none; stroke: #b0b0b0; stroke-width: 0.5; stroke-linecap: square"/>
     </g>
     <g id="line2d_14">
      <g>
       <use xlink:href="#m101bf6a5c4" x="314.871424" y="253.08" style="stroke: #000000; stroke-width: 0.5"/>
      </g>
     </g>
     <g id="line2d_15">
      <g>
       <use xlink:href="#m100498040d" x="314.871424" y="3.6" style="stroke: #000000; stroke-width: 0.5"/>
      </g>
     </g>
     <g id="text_5">
      <!-- 400 -->
      <g transform="translate(303.418924 265.698125) scale(0.12 -0.12)">
       <defs>
        <path id="DejaVuSans-34" d="M 2419 4116 
L 825 1625 
L 2419 1625 
L 2419 4116 
z
M 2253 4666 
L 3047 4666 
L 3047 1625 
L 3713 1625 
L 3713 1100 
L 3047 1100 
L 3047 0 
L 2419 0 
L 2419 1100 
L 313 1100 
L 313 1709 
L 2253 4666 
z
" transform="scale(0.015625)"/>
       </defs>
       <use xlink:href="#DejaVuSans-34"/>
       <use xlink:href="#DejaVuSans-30" x="63.623047"/>
       <use xlink:href="#DejaVuSans-30" x="127.246094"/>
      </g>
     </g>
    </g>
    <g id="xtick_6">
     <g id="line2d_16">
      <path d="M 375.86614 253.08 
L 375.86614 3.6 
" clip-path="url(#pf318183043)" style="fill: none; stroke: #b0b0b0; stroke-width: 0.5; stroke-linecap: square"/>
     </g>
     <g id="line2d_17">
      <g>
       <use xlink:href="#m101bf6a5c4" x="375.86614" y="253.08" style="stroke: #000000; stroke-width: 0.5"/>
      </g>
     </g>
     <g id="line2d_18">
      <g>
       <use xlink:href="#m100498040d" x="375.86614" y="3.6" style="stroke: #000000; stroke-width: 0.5"/>
      </g>
     </g>
     <g id="text_6">
      <!-- 500 -->
      <g transform="translate(364.41364 265.698125) scale(0.12 -0.12)">
       <defs>
        <path id="DejaVuSans-35" d="M 691 4666 
L 3169 4666 
L 3169 4134 
L 1269 4134 
L 1269 2991 
Q 1406 3038 1543 3061 
Q 1681 3084 1819 3084 
Q 2600 3084 3056 2656 
Q 3513 2228 3513 1497 
Q 3513 744 3044 326 
Q 2575 -91 1722 -91 
Q 1428 -91 1123 -41 
Q 819 9 494 109 
L 494 744 
Q 775 591 1075 516 
Q 1375 441 1709 441 
Q 2250 441 2565 725 
Q 2881 1009 2881 1497 
Q 2881 1984 2565 2268 
Q 2250 2553 1709 2553 
Q 1456 2553 1204 2497 
Q 953 2441 691 2322 
L 691 4666 
z
" transform="scale(0.015625)"/>
       </defs>
       <use xlink:href="#DejaVuSans-35"/>
       <use xlink:href="#DejaVuSans-30" x="63.623047"/>
       <use xlink:href="#DejaVuSans-30" x="127.246094"/>
      </g>
     </g>
    </g>
    <g id="xtick_7">
     <g id="line2d_19">
      <defs>
       <path id="m8a069ec85d" d="M 0 0 
L 0 -1.5 
" style="stroke: #000000; stroke-width: 0.5"/>
      </defs>
      <g>
       <use xlink:href="#m8a069ec85d" x="58.693613" y="253.08" style="stroke: #000000; stroke-width: 0.5"/>
      </g>
     </g>
     <g id="line2d_20">
      <defs>
       <path id="m4f6cf06941" d="M 0 0 
L 0 1.5 
" style="stroke: #000000; stroke-width: 0.5"/>
      </defs>
      <g>
       <use xlink:href="#m4f6cf06941" x="58.693613" y="3.6" style="stroke: #000000; stroke-width: 0.5"/>
      </g>
     </g>
    </g>
    <g id="xtick_8">
     <g id="line2d_21">
      <g>
       <use xlink:href="#m8a069ec85d" x="83.0915" y="253.08" style="stroke: #000000; stroke-width: 0.5"/>
      </g>
     </g>
     <g id="line2d_22">
      <g>
       <use xlink:href="#m4f6cf06941" x="83.0915" y="3.6" style="stroke: #000000; stroke-width: 0.5"/>
      </g>
     </g>
    </g>
    <g id="xtick_9">
     <g id="line2d_23">
      <g>
       <use xlink:href="#m8a069ec85d" x="95.290444" y="253.08" style="stroke: #000000; stroke-width: 0.5"/>
      </g>
     </g>
     <g id="line2d_24">
      <g>
       <use xlink:href="#m4f6cf06941" x="95.290444" y="3.6" style="stroke: #000000; stroke-width: 0.5"/>
      </g>
     </g>
    </g>
    <g id="xtick_10">
     <g id="line2d_25">
      <g>
       <use xlink:href="#m8a069ec85d" x="107.489387" y="253.08" style="stroke: #000000; stroke-width: 0.5"/>
      </g>
     </g>
     <g id="line2d_26">
      <g>
       <use xlink:href="#m4f6cf06941" x="107.489387" y="3.6" style="stroke: #000000; stroke-width: 0.5"/>
      </g>
     </g>
    </g>
    <g id="xtick_11">
     <g id="line2d_27">
      <g>
       <use xlink:href="#m8a069ec85d" x="119.68833" y="253.08" style="stroke: #000000; stroke-width: 0.5"/>
      </g>
     </g>
     <g id="line2d_28">
      <g>
       <use xlink:href="#m4f6cf06941" x="119.68833" y="3.6" style="stroke: #000000; stroke-width: 0.5"/>
      </g>
     </g>
    </g>
    <g id="xtick_12">
     <g id="line2d_29">
      <g>
       <use xlink:href="#m8a069ec85d" x="144.086217" y="253.08" style="stroke: #000000; stroke-width: 0.5"/>
      </g>
     </g>
     <g id="line2d_30">
      <g>
       <use xlink:href="#m4f6cf06941" x="144.086217" y="3.6" style="stroke: #000000; stroke-width: 0.5"/>
      </g>
     </g>
    </g>
    <g id="xtick_13">
     <g id="line2d_31">
      <g>
       <use xlink:href="#m8a069ec85d" x="156.28516" y="253.08" style="stroke: #000000; stroke-width: 0.5"/>
      </g>
     </g>
     <g id="line2d_32">
      <g>
       <use xlink:href="#m4f6cf06941" x="156.28516" y="3.6" style="stroke: #000000; stroke-width: 0.5"/>
      </g>
     </g>
    </g>
    <g id="xtick_14">
     <g id="line2d_33">
      <g>
       <use xlink:href="#m8a069ec85d" x="168.484104" y="253.08" style="stroke: #000000; stroke-width: 0.5"/>
      </g>
     </g>
     <g id="line2d_34">
      <g>
       <use xlink:href="#m4f6cf06941" x="168.484104" y="3.6" style="stroke: #000000; stroke-width: 0.5"/>
      </g>
     </g>
    </g>
    <g id="xtick_15">
     <g id="line2d_35">
      <g>
       <use xlink:href="#m8a069ec85d" x="180.683047" y="253.08" style="stroke: #000000; stroke-width: 0.5"/>
      </g>
     </g>
     <g id="line2d_36">
      <g>
       <use xlink:href="#m4f6cf06941" x="180.683047" y="3.6" style="stroke: #000000; stroke-width: 0.5"/>
      </g>
     </g>
    </g>
    <g id="xtick_16">
     <g id="line2d_37">
      <g>
       <use xlink:href="#m8a069ec85d" x="205.080934" y="253.08" style="stroke: #000000; stroke-width: 0.5"/>
      </g>
     </g>
     <g id="line2d_38">
      <g>
       <use xlink:href="#m4f6cf06941" x="205.080934" y="3.6" style="stroke: #000000; stroke-width: 0.5"/>
      </g>
     </g>
    </g>
    <g id="xtick_17">
     <g id="line2d_39">
      <g>
       <use xlink:href="#m8a069ec85d" x="217.279877" y="253.08" style="stroke: #000000; stroke-width: 0.5"/>
      </g>
     </g>
     <g id="line2d_40">
      <g>
       <use xlink:href="#m4f6cf06941" x="217.279877" y="3.6" style="stroke: #000000; stroke-width: 0.5"/>
      </g>
     </g>
    </g>
    <g id="xtick_18">
     <g id="line2d_41">
      <g>
       <use xlink:href="#m8a069ec85d" x="229.47882" y="253.08" style="stroke: #000000; stroke-width: 0.5"/>
      </g>
     </g>
     <g id="line2d_42">
      <g>
       <use xlink:href="#m4f6cf06941" x="229.47882" y="3.6" style="stroke: #000000; stroke-width: 0.5"/>
      </g>
     </g>
    </g>
    <g id="xtick_19">
     <g id="line2d_43">
      <g>
       <use xlink:href="#m8a069ec85d" x="241.677764" y="253.08" style="stroke: #000000; stroke-width: 0.5"/>
      </g>
     </g>
     <g id="line2d_44">
      <g>
       <use xlink:href="#m4f6cf06941" x="241.677764" y="3.6" style="stroke: #000000; stroke-width: 0.5"/>
      </g>
     </g>
    </g>
    <g id="xtick_20">
     <g id="line2d_45">
      <g>
       <use xlink:href="#m8a069ec85d" x="266.07565" y="253.08" style="stroke: #000000; stroke-width: 0.5"/>
      </g>
     </g>
     <g id="line2d_46">
      <g>
       <use xlink:href="#m4f6cf06941" x="266.07565" y="3.6" style="stroke: #000000; stroke-width: 0.5"/>
      </g>
     </g>
    </g>
    <g id="xtick_21">
     <g id="line2d_47">
      <g>
       <use xlink:href="#m8a069ec85d" x="278.274594" y="253.08" style="stroke: #000000; stroke-width: 0.5"/>
      </g>
     </g>
     <g id="line2d_48">
      <g>
       <use xlink:href="#m4f6cf06941" x="278.274594" y="3.6" style="stroke: #000000; stroke-width: 0.5"/>
      </g>
     </g>
    </g>
    <g id="xtick_22">
     <g id="line2d_49">
      <g>
       <use xlink:href="#m8a069ec85d" x="290.473537" y="253.08" style="stroke: #000000; stroke-width: 0.5"/>
      </g>
     </g>
     <g id="line2d_50">
      <g>
       <use xlink:href="#m4f6cf06941" x="290.473537" y="3.6" style="stroke: #000000; stroke-width: 0.5"/>
      </g>
     </g>
    </g>
    <g id="xtick_23">
     <g id="line2d_51">
      <g>
       <use xlink:href="#m8a069ec85d" x="302.67248" y="253.08" style="stroke: #000000; stroke-width: 0.5"/>
      </g>
     </g>
     <g id="line2d_52">
      <g>
       <use xlink:href="#m4f6cf06941" x="302.67248" y="3.6" style="stroke: #000000; stroke-width: 0.5"/>
      </g>
     </g>
    </g>
    <g id="xtick_24">
     <g id="line2d_53">
      <g>
       <use xlink:href="#m8a069ec85d" x="327.070367" y="253.08" style="stroke: #000000; stroke-width: 0.5"/>
      </g>
     </g>
     <g id="line2d_54">
      <g>
       <use xlink:href="#m4f6cf06941" x="327.070367" y="3.6" style="stroke: #000000; stroke-width: 0.5"/>
      </g>
     </g>
    </g>
    <g id="xtick_25">
     <g id="line2d_55">
      <g>
       <use xlink:href="#m8a069ec85d" x="339.26931" y="253.08" style="stroke: #000000; stroke-width: 0.5"/>
      </g>
     </g>
     <g id="line2d_56">
      <g>
       <use xlink:href="#m4f6cf06941" x="339.26931" y="3.6" style="stroke: #000000; stroke-width: 0.5"/>
      </g>
     </g>
    </g>
    <g id="xtick_26">
     <g id="line2d_57">
      <g>
       <use xlink:href="#m8a069ec85d" x="351.468254" y="253.08" style="stroke: #000000; stroke-width: 0.5"/>
      </g>
     </g>
     <g id="line2d_58">
      <g>
       <use xlink:href="#m4f6cf06941" x="351.468254" y="3.6" style="stroke: #000000; stroke-width: 0.5"/>
      </g>
     </g>
    </g>
    <g id="xtick_27">
     <g id="line2d_59">
      <g>
       <use xlink:href="#m8a069ec85d" x="363.667197" y="253.08" style="stroke: #000000; stroke-width: 0.5"/>
      </g>
     </g>
     <g id="line2d_60">
      <g>
       <use xlink:href="#m4f6cf06941" x="363.667197" y="3.6" style="stroke: #000000; stroke-width: 0.5"/>
      </g>
     </g>
    </g>
    <g id="xtick_28">
     <g id="line2d_61">
      <g>
       <use xlink:href="#m8a069ec85d" x="388.065084" y="253.08" style="stroke: #000000; stroke-width: 0.5"/>
      </g>
     </g>
     <g id="line2d_62">
      <g>
       <use xlink:href="#m4f6cf06941" x="388.065084" y="3.6" style="stroke: #000000; stroke-width: 0.5"/>
      </g>
     </g>
    </g>
    <g id="text_7">
     <!-- Generations -->
     <g transform="translate(186.477188 281.311875) scale(0.12 -0.12)">
      <defs>
       <path id="DejaVuSans-47" d="M 3809 666 
L 3809 1919 
L 2778 1919 
L 2778 2438 
L 4434 2438 
L 4434 434 
Q 4069 175 3628 42 
Q 3188 -91 2688 -91 
Q 1594 -91 976 548 
Q 359 1188 359 2328 
Q 359 3472 976 4111 
Q 1594 4750 2688 4750 
Q 3144 4750 3555 4637 
Q 3966 4525 4313 4306 
L 4313 3634 
Q 3963 3931 3569 4081 
Q 3175 4231 2741 4231 
Q 1884 4231 1454 3753 
Q 1025 3275 1025 2328 
Q 1025 1384 1454 906 
Q 1884 428 2741 428 
Q 3075 428 3337 486 
Q 3600 544 3809 666 
z
" transform="scale(0.015625)"/>
       <path id="DejaVuSans-65" d="M 3597 1894 
L 3597 1613 
L 953 1613 
Q 991 1019 1311 708 
Q 1631 397 2203 397 
Q 2534 397 2845 478 
Q 3156 559 3463 722 
L 3463 178 
Q 3153 47 2828 -22 
Q 2503 -91 2169 -91 
Q 1331 -91 842 396 
Q 353 884 353 1716 
Q 353 2575 817 3079 
Q 1281 3584 2069 3584 
Q 2775 3584 3186 3129 
Q 3597 2675 3597 1894 
z
M 3022 2063 
Q 3016 2534 2758 2815 
Q 2500 3097 2075 3097 
Q 1594 3097 1305 2825 
Q 1016 2553 972 2059 
L 3022 2063 
z
" transform="scale(0.015625)"/>
       <path id="DejaVuSans-6e" d="M 3513 2113 
L 3513 0 
L 2938 0 
L 2938 2094 
Q 2938 2591 2744 2837 
Q 2550 3084 2163 3084 
Q 1697 3084 1428 2787 
Q 1159 2491 1159 1978 
L 1159 0 
L 581 0 
L 581 3500 
L 1159 3500 
L 1159 2956 
Q 1366 3272 1645 3428 
Q 1925 3584 2291 3584 
Q 2894 3584 3203 3211 
Q 3513 2838 3513 2113 
z
" transform="scale(0.015625)"/>
       <path id="DejaVuSans-72" d="M 2631 2963 
Q 2534 3019 2420 3045 
Q 2306 3072 2169 3072 
Q 1681 3072 1420 2755 
Q 1159 2438 1159 1844 
L 1159 0 
L 581 0 
L 581 3500 
L 1159 3500 
L 1159 2956 
Q 1341 3275 1631 3429 
Q 1922 3584 2338 3584 
Q 2397 3584 2469 3576 
Q 2541 3569 2628 3553 
L 2631 2963 
z
" transform="scale(0.015625)"/>
       <path id="DejaVuSans-61" d="M 2194 1759 
Q 1497 1759 1228 1600 
Q 959 1441 959 1056 
Q 959 750 1161 570 
Q 1363 391 1709 391 
Q 2188 391 2477 730 
Q 2766 1069 2766 1631 
L 2766 1759 
L 2194 1759 
z
M 3341 1997 
L 3341 0 
L 2766 0 
L 2766 531 
Q 2569 213 2275 61 
Q 1981 -91 1556 -91 
Q 1019 -91 701 211 
Q 384 513 384 1019 
Q 384 1609 779 1909 
Q 1175 2209 1959 2209 
L 2766 2209 
L 2766 2266 
Q 2766 2663 2505 2880 
Q 2244 3097 1772 3097 
Q 1472 3097 1187 3025 
Q 903 2953 641 2809 
L 641 3341 
Q 956 3463 1253 3523 
Q 1550 3584 1831 3584 
Q 2591 3584 2966 3190 
Q 3341 2797 3341 1997 
z
" transform="scale(0.015625)"/>
       <path id="DejaVuSans-74" d="M 1172 4494 
L 1172 3500 
L 2356 3500 
L 2356 3053 
L 1172 3053 
L 1172 1153 
Q 1172 725 1289 603 
Q 1406 481 1766 481 
L 2356 481 
L 2356 0 
L 1766 0 
Q 1100 0 847 248 
Q 594 497 594 1153 
L 594 3053 
L 172 3053 
L 172 3500 
L 594 3500 
L 594 4494 
L 1172 4494 
z
" transform="scale(0.015625)"/>
       <path id="DejaVuSans-69" d="M 603 3500 
L 1178 3500 
L 1178 0 
L 603 0 
L 603 3500 
z
M 603 4863 
L 1178 4863 
L 1178 4134 
L 603 4134 
L 603 4863 
z
" transform="scale(0.015625)"/>
       <path id="DejaVuSans-6f" d="M 1959 3097 
Q 1497 3097 1228 2736 
Q 959 2375 959 1747 
Q 959 1119 1226 758 
Q 1494 397 1959 397 
Q 2419 397 2687 759 
Q 2956 1122 2956 1747 
Q 2956 2369 2687 2733 
Q 2419 3097 1959 3097 
z
M 1959 3584 
Q 2709 3584 3137 3096 
Q 3566 2609 3566 1747 
Q 3566 888 3137 398 
Q 2709 -91 1959 -91 
Q 1206 -91 779 398 
Q 353 888 353 1747 
Q 353 2609 779 3096 
Q 1206 3584 1959 3584 
z
" transform="scale(0.015625)"/>
       <path id="DejaVuSans-73" d="M 2834 3397 
L 2834 2853 
Q 2591 2978 2328 3040 
Q 2066 3103 1784 3103 
Q 1356 3103 1142 2972 
Q 928 2841 928 2578 
Q 928 2378 1081 2264 
Q 1234 2150 1697 2047 
L 1894 2003 
Q 2506 1872 2764 1633 
Q 3022 1394 3022 966 
Q 3022 478 2636 193 
Q 2250 -91 1575 -91 
Q 1294 -91 989 -36 
Q 684 19 347 128 
L 347 722 
Q 666 556 975 473 
Q 1284 391 1588 391 
Q 1994 391 2212 530 
Q 2431 669 2431 922 
Q 2431 1156 2273 1281 
Q 2116 1406 1581 1522 
L 1381 1569 
Q 847 1681 609 1914 
Q 372 2147 372 2553 
Q 372 3047 722 3315 
Q 1072 3584 1716 3584 
Q 2034 3584 2315 3537 
Q 2597 3491 2834 3397 
z
" transform="scale(0.015625)"/>
      </defs>
      <use xlink:href="#DejaVuSans-47"/>
      <use xlink:href="#DejaVuSans-65" x="77.490234"/>
      <use xlink:href="#DejaVuSans-6e" x="139.013672"/>
      <use xlink:href="#DejaVuSans-65" x="202.392578"/>
      <use xlink:href="#DejaVuSans-72" x="263.916016"/>
      <use xlink:href="#DejaVuSans-61" x="305.029297"/>
      <use xlink:href="#DejaVuSans-74" x="366.308594"/>
      <use xlink:href="#DejaVuSans-69" x="405.517578"/>
      <use xlink:href="#DejaVuSans-6f" x="433.300781"/>
      <use xlink:href="#DejaVuSans-6e" x="494.482422"/>
      <use xlink:href="#DejaVuSans-73" x="557.861328"/>
     </g>
    </g>
   </g>
   <g id="matplotlib.axis_2">
    <g id="ytick_1">
     <g id="line2d_63">
      <path d="M 55.674375 238.165443 
L 390.474375 238.165443 
" clip-path="url(#pf318183043)" style="fill: none; stroke: #b0b0b0; stroke-width: 0.5; stroke-linecap: square"/>
     </g>
     <g id="line2d_64">
      <defs>
       <path id="m9cee638052" d="M 0 0 
L 3 0 
" style="stroke: #000000; stroke-width: 0.5"/>
      </defs>
      <g>
       <use xlink:href="#m9cee638052" x="55.674375" y="238.165443" style="stroke: #000000; stroke-width: 0.5"/>
      </g>
     </g>
     <g id="line2d_65">
      <defs>
       <path id="m97eee49db4" d="M 0 0 
L -3 0 
" style="stroke: #000000; stroke-width: 0.5"/>
      </defs>
      <g>
       <use xlink:href="#m97eee49db4" x="390.474375" y="238.165443" style="stroke: #000000; stroke-width: 0.5"/>
      </g>
     </g>
     <g id="text_8">
      <!-- −120 -->
      <g transform="translate(19.21375 242.724505) scale(0.12 -0.12)">
       <defs>
        <path id="DejaVuSans-2212" d="M 678 2272 
L 4684 2272 
L 4684 1741 
L 678 1741 
L 678 2272 
z
" transform="scale(0.015625)"/>
       </defs>
       <use xlink:href="#DejaVuSans-2212"/>
       <use xlink:href="#DejaVuSans-31" x="83.789062"/>
       <use xlink:href="#DejaVuSans-32" x="147.412109"/>
       <use xlink:href="#DejaVuSans-30" x="211.035156"/>
      </g>
     </g>
    </g>
    <g id="ytick_2">
     <g id="line2d_66">
      <path d="M 55.674375 205.913187 
L 390.474375 205.913187 
" clip-path="url(#pf318183043)" style="fill: none; stroke: #b0b0b0; stroke-width: 0.5; stroke-linecap: square"/>
     </g>
     <g id="line2d_67">
      <g>
       <use xlink:href="#m9cee638052" x="55.674375" y="205.913187" style="stroke: #000000; stroke-width: 0.5"/>
      </g>
     </g>
     <g id="line2d_68">
      <g>
       <use xlink:href="#m97eee49db4" x="390.474375" y="205.913187" style="stroke: #000000; stroke-width: 0.5"/>
      </g>
     </g>
     <g id="text_9">
      <!-- −100 -->
      <g transform="translate(19.21375 210.47225) scale(0.12 -0.12)">
       <use xlink:href="#DejaVuSans-2212"/>
       <use xlink:href="#DejaVuSans-31" x="83.789062"/>
       <use xlink:href="#DejaVuSans-30" x="147.412109"/>
       <use xlink:href="#DejaVuSans-30" x="211.035156"/>
      </g>
     </g>
    </g>
    <g id="ytick_3">
     <g id="line2d_69">
      <path d="M 55.674375 173.660932 
L 390.474375 173.660932 
" clip-path="url(#pf318183043)" style="fill: none; stroke: #b0b0b0; stroke-width: 0.5; stroke-linecap: square"/>
     </g>
     <g id="line2d_70">
      <g>
       <use xlink:href="#m9cee638052" x="55.674375" y="173.660932" style="stroke: #000000; stroke-width: 0.5"/>
      </g>
     </g>
     <g id="line2d_71">
      <g>
       <use xlink:href="#m97eee49db4" x="390.474375" y="173.660932" style="stroke: #000000; stroke-width: 0.5"/>
      </g>
     </g>
     <g id="text_10">
      <!-- −80 -->
      <g transform="translate(26.84875 178.219995) scale(0.12 -0.12)">
       <defs>
        <path id="DejaVuSans-38" d="M 2034 2216 
Q 1584 2216 1326 1975 
Q 1069 1734 1069 1313 
Q 1069 891 1326 650 
Q 1584 409 2034 409 
Q 2484 409 2743 651 
Q 3003 894 3003 1313 
Q 3003 1734 2745 1975 
Q 2488 2216 2034 2216 
z
M 1403 2484 
Q 997 2584 770 2862 
Q 544 3141 544 3541 
Q 544 4100 942 4425 
Q 1341 4750 2034 4750 
Q 2731 4750 3128 4425 
Q 3525 4100 3525 3541 
Q 3525 3141 3298 2862 
Q 3072 2584 2669 2484 
Q 3125 2378 3379 2068 
Q 3634 1759 3634 1313 
Q 3634 634 3220 271 
Q 2806 -91 2034 -91 
Q 1263 -91 848 271 
Q 434 634 434 1313 
Q 434 1759 690 2068 
Q 947 2378 1403 2484 
z
M 1172 3481 
Q 1172 3119 1398 2916 
Q 1625 2713 2034 2713 
Q 2441 2713 2670 2916 
Q 2900 3119 2900 3481 
Q 2900 3844 2670 4047 
Q 2441 4250 2034 4250 
Q 1625 4250 1398 4047 
Q 1172 3844 1172 3481 
z
" transform="scale(0.015625)"/>
       </defs>
       <use xlink:href="#DejaVuSans-2212"/>
       <use xlink:href="#DejaVuSans-38" x="83.789062"/>
       <use xlink:href="#DejaVuSans-30" x="147.412109"/>
      </g>
     </g>
    </g>
    <g id="ytick_4">
     <g id="line2d_72">
      <path d="M 55.674375 141.408677 
L 390.474375 141.408677 
" clip-path="url(#pf318183043)" style="fill: none; stroke: #b0b0b0; stroke-width: 0.5; stroke-linecap: square"/>
     </g>
     <g id="line2d_73">
      <g>
       <use xlink:href="#m9cee638052" x="55.674375" y="141.408677" style="stroke: #000000; stroke-width: 0.5"/>
      </g>
     </g>
     <g id="line2d_74">
      <g>
       <use xlink:href="#m97eee49db4" x="390.474375" y="141.408677" style="stroke: #000000; stroke-width: 0.5"/>
      </g>
     </g>
     <g id="text_11">
      <!-- −60 -->
      <g transform="translate(26.84875 145.967739) scale(0.12 -0.12)">
       <defs>
        <path id="DejaVuSans-36" d="M 2113 2584 
Q 1688 2584 1439 2293 
Q 1191 2003 1191 1497 
Q 1191 994 1439 701 
Q 1688 409 2113 409 
Q 2538 409 2786 701 
Q 3034 994 3034 1497 
Q 3034 2003 2786 2293 
Q 2538 2584 2113 2584 
z
M 3366 4563 
L 3366 3988 
Q 3128 4100 2886 4159 
Q 2644 4219 2406 4219 
Q 1781 4219 1451 3797 
Q 1122 3375 1075 2522 
Q 1259 2794 1537 2939 
Q 1816 3084 2150 3084 
Q 2853 3084 3261 2657 
Q 3669 2231 3669 1497 
Q 3669 778 3244 343 
Q 2819 -91 2113 -91 
Q 1303 -91 875 529 
Q 447 1150 447 2328 
Q 447 3434 972 4092 
Q 1497 4750 2381 4750 
Q 2619 4750 2861 4703 
Q 3103 4656 3366 4563 
z
" transform="scale(0.015625)"/>
       </defs>
       <use xlink:href="#DejaVuSans-2212"/>
       <use xlink:href="#DejaVuSans-36" x="83.789062"/>
       <use xlink:href="#DejaVuSans-30" x="147.412109"/>
      </g>
     </g>
    </g>
    <g id="ytick_5">
     <g id="line2d_75">
      <path d="M 55.674375 109.156421 
L 390.474375 109.156421 
" clip-path="url(#pf318183043)" style="fill: none; stroke: #b0b0b0; stroke-width: 0.5; stroke-linecap: square"/>
     </g>
     <g id="line2d_76">
      <g>
       <use xlink:href="#m9cee638052" x="55.674375" y="109.156421" style="stroke: #000000; stroke-width: 0.5"/>
      </g>
     </g>
     <g id="line2d_77">
      <g>
       <use xlink:href="#m97eee49db4" x="390.474375" y="109.156421" style="stroke: #000000; stroke-width: 0.5"/>
      </g>
     </g>
     <g id="text_12">
      <!-- −40 -->
      <g transform="translate(26.84875 113.715484) scale(0.12 -0.12)">
       <use xlink:href="#DejaVuSans-2212"/>
       <use xlink:href="#DejaVuSans-34" x="83.789062"/>
       <use xlink:href="#DejaVuSans-30" x="147.412109"/>
      </g>
     </g>
    </g>
    <g id="ytick_6">
     <g id="line2d_78">
      <path d="M 55.674375 76.904166 
L 390.474375 76.904166 
" clip-path="url(#pf318183043)" style="fill: none; stroke: #b0b0b0; stroke-width: 0.5; stroke-linecap: square"/>
     </g>
     <g id="line2d_79">
      <g>
       <use xlink:href="#m9cee638052" x="55.674375" y="76.904166" style="stroke: #000000; stroke-width: 0.5"/>
      </g>
     </g>
     <g id="line2d_80">
      <g>
       <use xlink:href="#m97eee49db4" x="390.474375" y="76.904166" style="stroke: #000000; stroke-width: 0.5"/>
      </g>
     </g>
     <g id="text_13">
      <!-- −20 -->
      <g transform="translate(26.84875 81.463229) scale(0.12 -0.12)">
       <use xlink:href="#DejaVuSans-2212"/>
       <use xlink:href="#DejaVuSans-32" x="83.789062"/>
       <use xlink:href="#DejaVuSans-30" x="147.412109"/>
      </g>
     </g>
    </g>
    <g id="ytick_7">
     <g id="line2d_81">
      <path d="M 55.674375 44.651911 
L 390.474375 44.651911 
" clip-path="url(#pf318183043)" style="fill: none; stroke: #b0b0b0; stroke-width: 0.5; stroke-linecap: square"/>
     </g>
     <g id="line2d_82">
      <g>
       <use xlink:href="#m9cee638052" x="55.674375" y="44.651911" style="stroke: #000000; stroke-width: 0.5"/>
      </g>
     </g>
     <g id="line2d_83">
      <g>
       <use xlink:href="#m97eee49db4" x="390.474375" y="44.651911" style="stroke: #000000; stroke-width: 0.5"/>
      </g>
     </g>
     <g id="text_14">
      <!-- 0 -->
      <g transform="translate(44.539375 49.210973) scale(0.12 -0.12)">
       <use xlink:href="#DejaVuSans-30"/>
      </g>
     </g>
    </g>
    <g id="ytick_8">
     <g id="line2d_84">
      <path d="M 55.674375 12.399655 
L 390.474375 12.399655 
" clip-path="url(#pf318183043)" style="fill: none; stroke: #b0b0b0; stroke-width: 0.5; stroke-linecap: square"/>
     </g>
     <g id="line2d_85">
      <g>
       <use xlink:href="#m9cee638052" x="55.674375" y="12.399655" style="stroke: #000000; stroke-width: 0.5"/>
      </g>
     </g>
     <g id="line2d_86">
      <g>
       <use xlink:href="#m97eee49db4" x="390.474375" y="12.399655" style="stroke: #000000; stroke-width: 0.5"/>
      </g>
     </g>
     <g id="text_15">
      <!-- 20 -->
      <g transform="translate(36.904375 16.958718) scale(0.12 -0.12)">
       <use xlink:href="#DejaVuSans-32"/>
       <use xlink:href="#DejaVuSans-30" x="63.623047"/>
      </g>
     </g>
    </g>
    <g id="ytick_9">
     <g id="line2d_87">
      <defs>
       <path id="m754ca8f6f2" d="M 0 0 
L 1.5 0 
" style="stroke: #000000; stroke-width: 0.5"/>
      </defs>
      <g>
       <use xlink:href="#m754ca8f6f2" x="55.674375" y="246.228507" style="stroke: #000000; stroke-width: 0.5"/>
      </g>
     </g>
     <g id="line2d_88">
      <defs>
       <path id="m8c51d2b651" d="M 0 0 
L -1.5 0 
" style="stroke: #000000; stroke-width: 0.5"/>
      </defs>
      <g>
       <use xlink:href="#m8c51d2b651" x="390.474375" y="246.228507" style="stroke: #000000; stroke-width: 0.5"/>
      </g>
     </g>
    </g>
    <g id="ytick_10">
     <g id="line2d_89">
      <g>
       <use xlink:href="#m754ca8f6f2" x="55.674375" y="230.102379" style="stroke: #000000; stroke-width: 0.5"/>
      </g>
     </g>
     <g id="line2d_90">
      <g>
       <use xlink:href="#m8c51d2b651" x="390.474375" y="230.102379" style="stroke: #000000; stroke-width: 0.5"/>
      </g>
     </g>
    </g>
    <g id="ytick_11">
     <g id="line2d_91">
      <g>
       <use xlink:href="#m754ca8f6f2" x="55.674375" y="222.039315" style="stroke: #000000; stroke-width: 0.5"/>
      </g>
     </g>
     <g id="line2d_92">
      <g>
       <use xlink:href="#m8c51d2b651" x="390.474375" y="222.039315" style="stroke: #000000; stroke-width: 0.5"/>
      </g>
     </g>
    </g>
    <g id="ytick_12">
     <g id="line2d_93">
      <g>
       <use xlink:href="#m754ca8f6f2" x="55.674375" y="213.976251" style="stroke: #000000; stroke-width: 0.5"/>
      </g>
     </g>
     <g id="line2d_94">
      <g>
       <use xlink:href="#m8c51d2b651" x="390.474375" y="213.976251" style="stroke: #000000; stroke-width: 0.5"/>
      </g>
     </g>
    </g>
    <g id="ytick_13">
     <g id="line2d_95">
      <g>
       <use xlink:href="#m754ca8f6f2" x="55.674375" y="197.850124" style="stroke: #000000; stroke-width: 0.5"/>
      </g>
     </g>
     <g id="line2d_96">
      <g>
       <use xlink:href="#m8c51d2b651" x="390.474375" y="197.850124" style="stroke: #000000; stroke-width: 0.5"/>
      </g>
     </g>
    </g>
    <g id="ytick_14">
     <g id="line2d_97">
      <g>
       <use xlink:href="#m754ca8f6f2" x="55.674375" y="189.78706" style="stroke: #000000; stroke-width: 0.5"/>
      </g>
     </g>
     <g id="line2d_98">
      <g>
       <use xlink:href="#m8c51d2b651" x="390.474375" y="189.78706" style="stroke: #000000; stroke-width: 0.5"/>
      </g>
     </g>
    </g>
    <g id="ytick_15">
     <g id="line2d_99">
      <g>
       <use xlink:href="#m754ca8f6f2" x="55.674375" y="181.723996" style="stroke: #000000; stroke-width: 0.5"/>
      </g>
     </g>
     <g id="line2d_100">
      <g>
       <use xlink:href="#m8c51d2b651" x="390.474375" y="181.723996" style="stroke: #000000; stroke-width: 0.5"/>
      </g>
     </g>
    </g>
    <g id="ytick_16">
     <g id="line2d_101">
      <g>
       <use xlink:href="#m754ca8f6f2" x="55.674375" y="165.597868" style="stroke: #000000; stroke-width: 0.5"/>
      </g>
     </g>
     <g id="line2d_102">
      <g>
       <use xlink:href="#m8c51d2b651" x="390.474375" y="165.597868" style="stroke: #000000; stroke-width: 0.5"/>
      </g>
     </g>
    </g>
    <g id="ytick_17">
     <g id="line2d_103">
      <g>
       <use xlink:href="#m754ca8f6f2" x="55.674375" y="157.534804" style="stroke: #000000; stroke-width: 0.5"/>
      </g>
     </g>
     <g id="line2d_104">
      <g>
       <use xlink:href="#m8c51d2b651" x="390.474375" y="157.534804" style="stroke: #000000; stroke-width: 0.5"/>
      </g>
     </g>
    </g>
    <g id="ytick_18">
     <g id="line2d_105">
      <g>
       <use xlink:href="#m754ca8f6f2" x="55.674375" y="149.471741" style="stroke: #000000; stroke-width: 0.5"/>
      </g>
     </g>
     <g id="line2d_106">
      <g>
       <use xlink:href="#m8c51d2b651" x="390.474375" y="149.471741" style="stroke: #000000; stroke-width: 0.5"/>
      </g>
     </g>
    </g>
    <g id="ytick_19">
     <g id="line2d_107">
      <g>
       <use xlink:href="#m754ca8f6f2" x="55.674375" y="133.345613" style="stroke: #000000; stroke-width: 0.5"/>
      </g>
     </g>
     <g id="line2d_108">
      <g>
       <use xlink:href="#m8c51d2b651" x="390.474375" y="133.345613" style="stroke: #000000; stroke-width: 0.5"/>
      </g>
     </g>
    </g>
    <g id="ytick_20">
     <g id="line2d_109">
      <g>
       <use xlink:href="#m754ca8f6f2" x="55.674375" y="125.282549" style="stroke: #000000; stroke-width: 0.5"/>
      </g>
     </g>
     <g id="line2d_110">
      <g>
       <use xlink:href="#m8c51d2b651" x="390.474375" y="125.282549" style="stroke: #000000; stroke-width: 0.5"/>
      </g>
     </g>
    </g>
    <g id="ytick_21">
     <g id="line2d_111">
      <g>
       <use xlink:href="#m754ca8f6f2" x="55.674375" y="117.219485" style="stroke: #000000; stroke-width: 0.5"/>
      </g>
     </g>
     <g id="line2d_112">
      <g>
       <use xlink:href="#m8c51d2b651" x="390.474375" y="117.219485" style="stroke: #000000; stroke-width: 0.5"/>
      </g>
     </g>
    </g>
    <g id="ytick_22">
     <g id="line2d_113">
      <g>
       <use xlink:href="#m754ca8f6f2" x="55.674375" y="101.093358" style="stroke: #000000; stroke-width: 0.5"/>
      </g>
     </g>
     <g id="line2d_114">
      <g>
       <use xlink:href="#m8c51d2b651" x="390.474375" y="101.093358" style="stroke: #000000; stroke-width: 0.5"/>
      </g>
     </g>
    </g>
    <g id="ytick_23">
     <g id="line2d_115">
      <g>
       <use xlink:href="#m754ca8f6f2" x="55.674375" y="93.030294" style="stroke: #000000; stroke-width: 0.5"/>
      </g>
     </g>
     <g id="line2d_116">
      <g>
       <use xlink:href="#m8c51d2b651" x="390.474375" y="93.030294" style="stroke: #000000; stroke-width: 0.5"/>
      </g>
     </g>
    </g>
    <g id="ytick_24">
     <g id="line2d_117">
      <g>
       <use xlink:href="#m754ca8f6f2" x="55.674375" y="84.96723" style="stroke: #000000; stroke-width: 0.5"/>
      </g>
     </g>
     <g id="line2d_118">
      <g>
       <use xlink:href="#m8c51d2b651" x="390.474375" y="84.96723" style="stroke: #000000; stroke-width: 0.5"/>
      </g>
     </g>
    </g>
    <g id="ytick_25">
     <g id="line2d_119">
      <g>
       <use xlink:href="#m754ca8f6f2" x="55.674375" y="68.841102" style="stroke: #000000; stroke-width: 0.5"/>
      </g>
     </g>
     <g id="line2d_120">
      <g>
       <use xlink:href="#m8c51d2b651" x="390.474375" y="68.841102" style="stroke: #000000; stroke-width: 0.5"/>
      </g>
     </g>
    </g>
    <g id="ytick_26">
     <g id="line2d_121">
      <g>
       <use xlink:href="#m754ca8f6f2" x="55.674375" y="60.778038" style="stroke: #000000; stroke-width: 0.5"/>
      </g>
     </g>
     <g id="line2d_122">
      <g>
       <use xlink:href="#m8c51d2b651" x="390.474375" y="60.778038" style="stroke: #000000; stroke-width: 0.5"/>
      </g>
     </g>
    </g>
    <g id="ytick_27">
     <g id="line2d_123">
      <g>
       <use xlink:href="#m754ca8f6f2" x="55.674375" y="52.714975" style="stroke: #000000; stroke-width: 0.5"/>
      </g>
     </g>
     <g id="line2d_124">
      <g>
       <use xlink:href="#m8c51d2b651" x="390.474375" y="52.714975" style="stroke: #000000; stroke-width: 0.5"/>
      </g>
     </g>
    </g>
    <g id="ytick_28">
     <g id="line2d_125">
      <g>
       <use xlink:href="#m754ca8f6f2" x="55.674375" y="36.588847" style="stroke: #000000; stroke-width: 0.5"/>
      </g>
     </g>
     <g id="line2d_126">
      <g>
       <use xlink:href="#m8c51d2b651" x="390.474375" y="36.588847" style="stroke: #000000; stroke-width: 0.5"/>
      </g>
     </g>
    </g>
    <g id="ytick_29">
     <g id="line2d_127">
      <g>
       <use xlink:href="#m754ca8f6f2" x="55.674375" y="28.525783" style="stroke: #000000; stroke-width: 0.5"/>
      </g>
     </g>
     <g id="line2d_128">
      <g>
       <use xlink:href="#m8c51d2b651" x="390.474375" y="28.525783" style="stroke: #000000; stroke-width: 0.5"/>
      </g>
     </g>
    </g>
    <g id="ytick_30">
     <g id="line2d_129">
      <g>
       <use xlink:href="#m754ca8f6f2" x="55.674375" y="20.462719" style="stroke: #000000; stroke-width: 0.5"/>
      </g>
     </g>
     <g id="line2d_130">
      <g>
       <use xlink:href="#m8c51d2b651" x="390.474375" y="20.462719" style="stroke: #000000; stroke-width: 0.5"/>
      </g>
     </g>
    </g>
    <g id="ytick_31">
     <g id="line2d_131">
      <g>
       <use xlink:href="#m754ca8f6f2" x="55.674375" y="4.336592" style="stroke: #000000; stroke-width: 0.5"/>
      </g>
     </g>
     <g id="line2d_132">
      <g>
       <use xlink:href="#m8c51d2b651" x="390.474375" y="4.336592" style="stroke: #000000; stroke-width: 0.5"/>
      </g>
     </g>
    </g>
    <g id="text_16">
     <!-- Fitness -->
     <g transform="translate(12.718125 149.120625) rotate(-90) scale(0.12 -0.12)">
      <defs>
       <path id="DejaVuSans-46" d="M 628 4666 
L 3309 4666 
L 3309 4134 
L 1259 4134 
L 1259 2759 
L 3109 2759 
L 3109 2228 
L 1259 2228 
L 1259 0 
L 628 0 
L 628 4666 
z
" transform="scale(0.015625)"/>
      </defs>
      <use xlink:href="#DejaVuSans-46"/>
      <use xlink:href="#DejaVuSans-69" x="50.269531"/>
      <use xlink:href="#DejaVuSans-74" x="78.052734"/>
      <use xlink:href="#DejaVuSans-6e" x="117.261719"/>
      <use xlink:href="#DejaVuSans-65" x="180.640625"/>
      <use xlink:href="#DejaVuSans-73" x="242.164062"/>
      <use xlink:href="#DejaVuSans-73" x="294.263672"/>
     </g>
    </g>
   </g>
   <g id="line2d_133">
    <path d="M 70.892557 32.693762 
L 71.502504 29.191536 
L 72.112451 29.191555 
L 72.722398 27.377952 
L 78.211923 27.345058 
L 78.82187 26.832221 
L 80.041764 26.832186 
L 80.651711 23.59517 
L 87.36113 23.595201 
L 87.971077 21.647541 
L 92.850655 21.647288 
L 93.460602 21.026367 
L 95.290444 21.026333 
L 95.900391 20.636161 
L 96.510338 19.894787 
L 98.950127 19.89473 
L 99.560074 19.293597 
L 101.999862 19.293624 
L 102.60981 18.474973 
L 106.269493 18.474978 
L 106.87944 17.641997 
L 108.099334 17.641905 
L 108.709281 17.517584 
L 109.319228 16.599031 
L 123.348013 16.506148 
L 123.95796 16.296754 
L 171.533839 16.214683 
L 172.143787 16.045186 
L 214.230141 15.99029 
L 215.450035 15.921178 
L 332.559891 15.907442 
L 333.169839 15.733751 
L 350.858306 15.654456 
L 351.468254 15.042821 
L 375.256193 14.940042 
L 375.256193 14.940042 
" clip-path="url(#pf318183043)" style="fill: none; stroke: #000000; stroke-linecap: square"/>
   </g>
   <g id="line2d_134">
    <path d="M 70.892557 78.855389 
L 71.502504 71.261186 
L 72.112451 73.462688 
L 72.722398 116.60716 
L 73.332345 66.418778 
L 73.942293 94.852558 
L 74.55224 72.770574 
L 75.162187 64.532916 
L 75.772134 111.08711 
L 76.382081 98.875332 
L 76.992028 67.824245 
L 77.601976 58.580637 
L 78.211923 55.005874 
L 78.82187 77.323809 
L 79.431817 63.442915 
L 80.041764 69.739818 
L 80.651711 241.74 
L 81.261659 88.083091 
L 82.481553 69.199644 
L 83.0915 64.939551 
L 83.701447 66.95484 
L 84.921342 54.938052 
L 85.531289 55.193753 
L 86.141236 59.97151 
L 86.751183 60.878928 
L 87.36113 65.801716 
L 87.971077 55.540761 
L 88.581025 53.47084 
L 89.190972 54.140724 
L 89.800919 49.198917 
L 90.410866 49.852915 
L 91.020813 48.430384 
L 91.63076 43.891297 
L 92.240708 42.618184 
L 92.850655 40.648192 
L 94.070549 31.258558 
L 94.680496 29.872635 
L 95.290444 27.235837 
L 95.900391 30.633946 
L 96.510338 28.461263 
L 97.120285 27.55663 
L 97.730232 26.945375 
L 98.340179 26.527415 
L 98.950127 27.858283 
L 99.560074 25.7198 
L 100.170021 25.110016 
L 100.779968 24.736389 
L 101.389915 24.921188 
L 101.999862 25.234906 
L 102.60981 24.109836 
L 103.219757 27.594271 
L 103.829704 25.55651 
L 104.439651 26.016421 
L 105.659545 27.389303 
L 106.269493 26.802722 
L 106.87944 25.436503 
L 107.489387 27.22537 
L 108.099334 27.574761 
L 108.709281 25.853687 
L 109.319228 23.397039 
L 109.929176 25.869308 
L 110.539123 24.110764 
L 111.14907 26.201521 
L 111.759017 25.965801 
L 112.368964 25.370551 
L 112.978911 25.203952 
L 113.588859 22.762834 
L 114.198806 22.781907 
L 114.808753 21.138244 
L 115.4187 22.3229 
L 116.028647 20.837822 
L 117.248542 20.870084 
L 117.858489 21.072914 
L 118.468436 20.174596 
L 119.078383 21.786284 
L 119.68833 20.685429 
L 120.298277 19.942904 
L 120.908225 19.484891 
L 121.518172 19.965907 
L 122.128119 19.820923 
L 122.738066 18.78575 
L 123.348013 18.661199 
L 123.95796 19.637019 
L 125.177855 19.183762 
L 125.787802 18.020241 
L 127.007696 17.878853 
L 127.617643 18.428207 
L 128.227591 17.962271 
L 128.837538 19.08144 
L 129.447485 19.120313 
L 130.057432 18.035776 
L 130.667379 18.342676 
L 131.277326 17.46484 
L 131.887274 17.538462 
L 132.497221 18.778272 
L 133.107168 18.742218 
L 133.717115 17.698366 
L 134.327062 18.098015 
L 134.937009 17.356393 
L 135.546957 17.692881 
L 136.156904 18.222243 
L 136.766851 18.465498 
L 137.376798 18.536235 
L 137.986745 18.066988 
L 138.596692 18.953586 
L 139.20664 20.739143 
L 139.816587 19.081563 
L 140.426534 19.494291 
L 141.036481 18.766961 
L 141.646428 19.754314 
L 142.256375 19.786795 
L 142.866323 18.85266 
L 143.47627 18.162715 
L 144.086217 19.922817 
L 144.696164 18.450708 
L 145.306111 19.08543 
L 145.916058 19.903427 
L 146.526006 19.192185 
L 147.135953 19.158829 
L 147.7459 18.160059 
L 148.355847 18.280733 
L 148.965794 17.97797 
L 150.185689 18.427115 
L 150.795636 17.477203 
L 151.405583 18.021696 
L 152.01553 17.96656 
L 152.625477 18.499962 
L 153.235424 18.10768 
L 153.845372 19.02481 
L 154.455319 17.627212 
L 155.065266 17.767886 
L 155.675213 18.645837 
L 156.28516 20.060656 
L 156.895107 18.542293 
L 157.505055 18.191492 
L 158.115002 18.559563 
L 158.724949 19.173919 
L 159.334896 17.445227 
L 159.944843 17.376449 
L 160.55479 18.055324 
L 161.164738 16.94532 
L 161.774685 19.161108 
L 162.994579 17.337532 
L 163.604526 17.218429 
L 164.214473 17.556753 
L 164.824421 18.361278 
L 165.434368 18.664785 
L 166.044315 17.55041 
L 166.654262 17.705868 
L 167.264209 18.548102 
L 167.874156 17.7771 
L 169.094051 19.553937 
L 169.703998 19.439622 
L 170.313945 18.678769 
L 170.923892 18.334628 
L 171.533839 20.324994 
L 172.753734 18.863081 
L 173.363681 18.193812 
L 173.973628 18.37744 
L 174.583575 18.781294 
L 175.193522 18.198452 
L 175.80347 17.823893 
L 176.413417 18.38612 
L 177.023364 18.138393 
L 177.633311 17.739095 
L 178.243258 18.89054 
L 178.853205 18.530879 
L 179.463153 17.66691 
L 180.0731 17.788115 
L 180.683047 19.342949 
L 181.292994 18.787022 
L 181.902941 18.877441 
L 182.512888 19.450266 
L 183.122836 18.321539 
L 183.732783 17.661094 
L 184.34273 19.032689 
L 185.562624 18.1242 
L 186.172571 18.285764 
L 186.782519 19.851945 
L 187.392466 18.141511 
L 188.002413 18.229931 
L 188.61236 17.357558 
L 189.222307 17.640738 
L 189.832254 17.798543 
L 190.442202 17.183206 
L 191.052149 17.872449 
L 192.272043 16.80813 
L 192.88199 17.18258 
L 193.491937 18.481837 
L 194.101885 17.804065 
L 194.711832 17.493445 
L 195.321779 18.429793 
L 195.931726 17.972392 
L 196.541673 17.958799 
L 197.15162 16.936127 
L 198.371515 17.551948 
L 198.981462 18.102955 
L 199.591409 18.299664 
L 200.201356 17.605901 
L 200.811303 17.687455 
L 201.421251 19.739853 
L 202.031198 19.674887 
L 203.251092 17.182946 
L 203.861039 17.62197 
L 204.470986 17.016954 
L 205.080934 17.445828 
L 205.690881 17.054233 
L 206.300828 17.934146 
L 206.910775 17.690279 
L 207.520722 17.939231 
L 208.130669 17.219478 
L 208.740617 17.818383 
L 209.350564 17.224185 
L 209.960511 18.437366 
L 210.570458 18.615138 
L 211.180405 18.65908 
L 211.790352 18.958374 
L 212.4003 17.543927 
L 213.010247 17.876138 
L 213.620194 18.549545 
L 214.230141 18.4801 
L 214.840088 19.553481 
L 215.450035 18.458554 
L 216.059983 18.503371 
L 216.66993 18.736404 
L 217.279877 18.032188 
L 217.889824 17.737021 
L 218.499771 17.885702 
L 219.109718 17.798228 
L 220.329613 17.088275 
L 220.93956 17.262207 
L 221.549507 19.03888 
L 222.159454 19.159686 
L 222.769401 17.429542 
L 223.379349 18.26174 
L 223.989296 17.896987 
L 224.599243 18.051533 
L 225.20919 19.22286 
L 225.819137 17.73739 
L 226.429084 17.838457 
L 227.039032 18.573135 
L 227.648979 18.07562 
L 228.258926 18.748609 
L 229.47882 18.145465 
L 230.088767 17.94725 
L 230.698715 18.277013 
L 231.308662 17.42088 
L 231.918609 19.233557 
L 232.528556 18.800902 
L 233.138503 19.014081 
L 233.74845 18.389323 
L 234.358398 19.424158 
L 234.968345 19.770883 
L 235.578292 18.60698 
L 236.188239 18.540984 
L 237.408133 17.57542 
L 238.018081 16.830761 
L 239.237975 17.591495 
L 240.457869 17.629231 
L 241.067816 19.165175 
L 241.677764 16.753532 
L 242.287711 17.622272 
L 242.897658 16.951907 
L 243.507605 16.800783 
L 244.117552 16.86488 
L 244.727499 18.156514 
L 245.337447 17.411291 
L 245.947394 18.011633 
L 246.557341 17.574038 
L 247.167288 18.469199 
L 247.777235 18.519441 
L 248.387182 18.043278 
L 248.99713 18.204188 
L 249.607077 17.24429 
L 250.217024 17.232455 
L 250.826971 19.501971 
L 251.436918 18.275718 
L 252.046865 18.447517 
L 252.656813 19.09865 
L 253.26676 19.542948 
L 253.876707 19.158641 
L 255.096601 18.799485 
L 255.706548 17.556263 
L 256.316496 17.310199 
L 256.926443 18.185839 
L 257.53639 17.895171 
L 258.756284 18.343566 
L 259.366231 17.4418 
L 259.976179 16.840621 
L 260.586126 16.645698 
L 261.196073 17.02083 
L 261.80602 18.757315 
L 262.415967 18.842535 
L 263.025914 18.291657 
L 263.635862 18.233524 
L 264.245809 18.687676 
L 264.855756 19.977 
L 266.07565 18.044126 
L 266.685597 18.429004 
L 267.905492 17.11037 
L 268.515439 17.20345 
L 269.735333 18.108869 
L 270.34528 19.512816 
L 270.955228 17.760501 
L 271.565175 17.759265 
L 272.175122 18.396726 
L 272.785069 17.984424 
L 273.395016 17.956851 
L 274.004963 18.850744 
L 274.614911 18.732459 
L 275.224858 17.46479 
L 275.834805 16.817331 
L 276.444752 18.09832 
L 277.054699 17.636785 
L 278.274594 18.863018 
L 278.884541 18.953963 
L 279.494488 18.359173 
L 280.104435 17.334433 
L 280.714382 17.469649 
L 281.324329 18.836761 
L 281.934277 19.798728 
L 282.544224 19.287933 
L 283.154171 20.70578 
L 283.764118 19.924171 
L 284.374065 17.956208 
L 284.984012 17.38592 
L 285.59396 17.234809 
L 286.203907 17.538691 
L 287.423801 16.93225 
L 288.033748 16.380668 
L 288.643695 16.549812 
L 289.253643 18.211718 
L 289.86359 16.987525 
L 290.473537 17.319024 
L 291.693431 17.136614 
L 292.303378 16.979876 
L 292.913326 16.262423 
L 293.523273 17.163147 
L 294.13322 16.194111 
L 294.743167 17.187553 
L 295.353114 17.877992 
L 295.963061 17.321071 
L 297.182956 18.44775 
L 297.792903 19.97127 
L 298.40285 20.25951 
L 299.012797 18.844752 
L 299.622744 18.861537 
L 300.232692 19.392817 
L 300.842639 19.03617 
L 301.452586 18.474772 
L 302.062533 18.564862 
L 302.67248 17.942366 
L 303.282427 17.599669 
L 303.892375 18.421711 
L 304.502322 17.404091 
L 305.112269 18.130563 
L 305.722216 18.28621 
L 306.332163 19.02358 
L 306.94211 18.897584 
L 308.162005 16.788558 
L 308.771952 17.480306 
L 309.381899 17.728981 
L 309.991846 17.637368 
L 310.601793 20.637923 
L 311.211741 17.73872 
L 311.821688 18.748146 
L 312.431635 18.017741 
L 313.041582 19.123489 
L 313.651529 18.226682 
L 314.261476 17.643105 
L 314.871424 18.26837 
L 315.481371 17.489155 
L 316.091318 17.965574 
L 316.701265 19.339594 
L 317.311212 18.621353 
L 317.921159 18.984955 
L 318.531107 17.939157 
L 319.751001 19.879211 
L 320.360948 19.009932 
L 320.970895 18.708631 
L 321.580842 17.819829 
L 322.800737 21.527885 
L 323.410684 18.993916 
L 324.020631 19.371548 
L 324.630578 20.118352 
L 325.240525 17.838612 
L 325.850473 17.915774 
L 326.46042 17.64258 
L 327.070367 18.596434 
L 327.680314 17.651672 
L 329.510156 19.787658 
L 330.120103 18.353573 
L 330.73005 17.691996 
L 331.339997 18.011686 
L 331.949944 17.641861 
L 332.559891 17.99241 
L 333.169839 19.765028 
L 333.779786 19.416324 
L 334.99968 17.410486 
L 335.609627 18.860017 
L 336.219574 17.733857 
L 336.829522 17.759793 
L 337.439469 18.101929 
L 338.049416 20.756248 
L 338.659363 19.122114 
L 339.26931 21.292443 
L 339.879257 20.75617 
L 341.099152 21.284192 
L 341.709099 21.770785 
L 342.319046 21.744724 
L 342.928993 20.834838 
L 343.53894 20.474335 
L 344.148888 20.879247 
L 344.758835 22.969628 
L 345.368782 21.91312 
L 345.978729 22.08459 
L 346.588676 20.885177 
L 347.198623 20.458198 
L 347.808571 21.207841 
L 348.418518 22.364375 
L 349.028465 22.319643 
L 349.638412 21.048135 
L 350.248359 20.281921 
L 350.858306 21.425777 
L 351.468254 21.344164 
L 352.078201 19.401421 
L 352.688148 19.79219 
L 353.908042 18.298653 
L 354.51799 17.886592 
L 355.127937 19.082983 
L 355.737884 18.889243 
L 356.347831 18.425858 
L 356.957778 19.260933 
L 357.567725 21.905166 
L 358.177673 19.283829 
L 358.78762 19.12052 
L 359.397567 19.757417 
L 360.617461 19.78749 
L 361.227408 17.38076 
L 362.447303 16.899902 
L 363.667197 16.350496 
L 364.277144 18.372681 
L 364.887091 19.088553 
L 365.497039 16.205899 
L 366.106986 16.769206 
L 366.716933 17.051901 
L 367.32688 18.531088 
L 368.546774 16.489391 
L 369.156722 16.959635 
L 369.766669 18.895324 
L 370.376616 18.233204 
L 370.986563 17.810865 
L 371.59651 17.611282 
L 372.206457 16.384239 
L 372.816405 16.343255 
L 373.426352 17.979758 
L 374.036299 18.946842 
L 374.646246 21.101415 
L 375.256193 19.670179 
L 375.256193 19.670179 
" clip-path="url(#pf318183043)" style="fill: none; stroke-dasharray: 3.7,1.6; stroke-dashoffset: 0; stroke: #000000"/>
   </g>
   <g id="patch_3">
    <path d="M 55.674375 253.08 
L 55.674375 3.6 
" style="fill: none; stroke: #000000; stroke-width: 0.5; stroke-linejoin: miter; stroke-linecap: square"/>
   </g>
   <g id="patch_4">
    <path d="M 390.474375 253.08 
L 390.474375 3.6 
" style="fill: none; stroke: #000000; stroke-width: 0.5; stroke-linejoin: miter; stroke-linecap: square"/>
   </g>
   <g id="patch_5">
    <path d="M 55.674375 253.08 
L 390.474375 253.08 
" style="fill: none; stroke: #000000; stroke-width: 0.5; stroke-linejoin: miter; stroke-linecap: square"/>
   </g>
   <g id="patch_6">
    <path d="M 55.674375 3.6 
L 390.474375 3.6 
" style="fill: none; stroke: #000000; stroke-width: 0.5; stroke-linejoin: miter; stroke-linecap: square"/>
   </g>
   <g id="legend_1">
    <g id="patch_7">
     <path d="M 264.268125 247.08 
L 382.074375 247.08 
Q 384.474375 247.08 384.474375 244.68 
L 384.474375 193.03875 
Q 384.474375 190.63875 382.074375 190.63875 
L 264.268125 190.63875 
Q 261.868125 190.63875 261.868125 193.03875 
L 261.868125 244.68 
Q 261.868125 247.08 264.268125 247.08 
z
" style="fill: #ffffff; opacity: 0.8; stroke: #cccccc; stroke-linejoin: miter"/>
    </g>
    <g id="line2d_135">
     <path d="M 266.668125 200.356875 
L 278.668125 200.356875 
L 290.668125 200.356875 
" style="fill: none; stroke: #000000; stroke-linecap: square"/>
    </g>
    <g id="text_17">
     <!-- Max fitness -->
     <g transform="translate(300.268125 204.556875) scale(0.12 -0.12)">
      <defs>
       <path id="DejaVuSans-4d" d="M 628 4666 
L 1569 4666 
L 2759 1491 
L 3956 4666 
L 4897 4666 
L 4897 0 
L 4281 0 
L 4281 4097 
L 3078 897 
L 2444 897 
L 1241 4097 
L 1241 0 
L 628 0 
L 628 4666 
z
" transform="scale(0.015625)"/>
       <path id="DejaVuSans-78" d="M 3513 3500 
L 2247 1797 
L 3578 0 
L 2900 0 
L 1881 1375 
L 863 0 
L 184 0 
L 1544 1831 
L 300 3500 
L 978 3500 
L 1906 2253 
L 2834 3500 
L 3513 3500 
z
" transform="scale(0.015625)"/>
       <path id="DejaVuSans-20" transform="scale(0.015625)"/>
       <path id="DejaVuSans-66" d="M 2375 4863 
L 2375 4384 
L 1825 4384 
Q 1516 4384 1395 4259 
Q 1275 4134 1275 3809 
L 1275 3500 
L 2222 3500 
L 2222 3053 
L 1275 3053 
L 1275 0 
L 697 0 
L 697 3053 
L 147 3053 
L 147 3500 
L 697 3500 
L 697 3744 
Q 697 4328 969 4595 
Q 1241 4863 1831 4863 
L 2375 4863 
z
" transform="scale(0.015625)"/>
      </defs>
      <use xlink:href="#DejaVuSans-4d"/>
      <use xlink:href="#DejaVuSans-61" x="86.279297"/>
      <use xlink:href="#DejaVuSans-78" x="147.558594"/>
      <use xlink:href="#DejaVuSans-20" x="206.738281"/>
      <use xlink:href="#DejaVuSans-66" x="238.525391"/>
      <use xlink:href="#DejaVuSans-69" x="273.730469"/>
      <use xlink:href="#DejaVuSans-74" x="301.513672"/>
      <use xlink:href="#DejaVuSans-6e" x="340.722656"/>
      <use xlink:href="#DejaVuSans-65" x="404.101562"/>
      <use xlink:href="#DejaVuSans-73" x="465.625"/>
      <use xlink:href="#DejaVuSans-73" x="517.724609"/>
     </g>
    </g>
    <g id="patch_8">
     <path d="M 266.668125 222.170625 
L 290.668125 222.170625 
L 290.668125 213.770625 
L 266.668125 213.770625 
z
" style="fill: #0000ff; fill-opacity: 0.2; stroke: #0000ff; stroke-opacity: 0.2; stroke-linejoin: miter"/>
    </g>
    <g id="text_18">
     <!-- Top 90% -->
     <g transform="translate(300.268125 222.170625) scale(0.12 -0.12)">
      <defs>
       <path id="DejaVuSans-54" d="M -19 4666 
L 3928 4666 
L 3928 4134 
L 2272 4134 
L 2272 0 
L 1638 0 
L 1638 4134 
L -19 4134 
L -19 4666 
z
" transform="scale(0.015625)"/>
       <path id="DejaVuSans-70" d="M 1159 525 
L 1159 -1331 
L 581 -1331 
L 581 3500 
L 1159 3500 
L 1159 2969 
Q 1341 3281 1617 3432 
Q 1894 3584 2278 3584 
Q 2916 3584 3314 3078 
Q 3713 2572 3713 1747 
Q 3713 922 3314 415 
Q 2916 -91 2278 -91 
Q 1894 -91 1617 61 
Q 1341 213 1159 525 
z
M 3116 1747 
Q 3116 2381 2855 2742 
Q 2594 3103 2138 3103 
Q 1681 3103 1420 2742 
Q 1159 2381 1159 1747 
Q 1159 1113 1420 752 
Q 1681 391 2138 391 
Q 2594 391 2855 752 
Q 3116 1113 3116 1747 
z
" transform="scale(0.015625)"/>
       <path id="DejaVuSans-39" d="M 703 97 
L 703 672 
Q 941 559 1184 500 
Q 1428 441 1663 441 
Q 2288 441 2617 861 
Q 2947 1281 2994 2138 
Q 2813 1869 2534 1725 
Q 2256 1581 1919 1581 
Q 1219 1581 811 2004 
Q 403 2428 403 3163 
Q 403 3881 828 4315 
Q 1253 4750 1959 4750 
Q 2769 4750 3195 4129 
Q 3622 3509 3622 2328 
Q 3622 1225 3098 567 
Q 2575 -91 1691 -91 
Q 1453 -91 1209 -44 
Q 966 3 703 97 
z
M 1959 2075 
Q 2384 2075 2632 2365 
Q 2881 2656 2881 3163 
Q 2881 3666 2632 3958 
Q 2384 4250 1959 4250 
Q 1534 4250 1286 3958 
Q 1038 3666 1038 3163 
Q 1038 2656 1286 2365 
Q 1534 2075 1959 2075 
z
" transform="scale(0.015625)"/>
       <path id="DejaVuSans-25" d="M 4653 2053 
Q 4381 2053 4226 1822 
Q 4072 1591 4072 1178 
Q 4072 772 4226 539 
Q 4381 306 4653 306 
Q 4919 306 5073 539 
Q 5228 772 5228 1178 
Q 5228 1588 5073 1820 
Q 4919 2053 4653 2053 
z
M 4653 2450 
Q 5147 2450 5437 2106 
Q 5728 1763 5728 1178 
Q 5728 594 5436 251 
Q 5144 -91 4653 -91 
Q 4153 -91 3862 251 
Q 3572 594 3572 1178 
Q 3572 1766 3864 2108 
Q 4156 2450 4653 2450 
z
M 1428 4353 
Q 1159 4353 1004 4120 
Q 850 3888 850 3481 
Q 850 3069 1003 2837 
Q 1156 2606 1428 2606 
Q 1700 2606 1854 2837 
Q 2009 3069 2009 3481 
Q 2009 3884 1853 4118 
Q 1697 4353 1428 4353 
z
M 4250 4750 
L 4750 4750 
L 1831 -91 
L 1331 -91 
L 4250 4750 
z
M 1428 4750 
Q 1922 4750 2215 4408 
Q 2509 4066 2509 3481 
Q 2509 2891 2217 2550 
Q 1925 2209 1428 2209 
Q 931 2209 642 2551 
Q 353 2894 353 3481 
Q 353 4063 643 4406 
Q 934 4750 1428 4750 
z
" transform="scale(0.015625)"/>
      </defs>
      <use xlink:href="#DejaVuSans-54"/>
      <use xlink:href="#DejaVuSans-6f" x="44.083984"/>
      <use xlink:href="#DejaVuSans-70" x="105.265625"/>
      <use xlink:href="#DejaVuSans-20" x="168.742188"/>
      <use xlink:href="#DejaVuSans-39" x="200.529297"/>
      <use xlink:href="#DejaVuSans-30" x="264.152344"/>
      <use xlink:href="#DejaVuSans-25" x="327.775391"/>
     </g>
    </g>
    <g id="line2d_136">
     <path d="M 266.668125 235.584375 
L 278.668125 235.584375 
L 290.668125 235.584375 
" style="fill: none; stroke-dasharray: 3.7,1.6; stroke-dashoffset: 0; stroke: #000000"/>
    </g>
    <g id="text_19">
     <!-- Fitness mean -->
     <g transform="translate(300.268125 239.784375) scale(0.12 -0.12)">
      <defs>
       <path id="DejaVuSans-6d" d="M 3328 2828 
Q 3544 3216 3844 3400 
Q 4144 3584 4550 3584 
Q 5097 3584 5394 3201 
Q 5691 2819 5691 2113 
L 5691 0 
L 5113 0 
L 5113 2094 
Q 5113 2597 4934 2840 
Q 4756 3084 4391 3084 
Q 3944 3084 3684 2787 
Q 3425 2491 3425 1978 
L 3425 0 
L 2847 0 
L 2847 2094 
Q 2847 2600 2669 2842 
Q 2491 3084 2119 3084 
Q 1678 3084 1418 2786 
Q 1159 2488 1159 1978 
L 1159 0 
L 581 0 
L 581 3500 
L 1159 3500 
L 1159 2956 
Q 1356 3278 1631 3431 
Q 1906 3584 2284 3584 
Q 2666 3584 2933 3390 
Q 3200 3197 3328 2828 
z
" transform="scale(0.015625)"/>
      </defs>
      <use xlink:href="#DejaVuSans-46"/>
      <use xlink:href="#DejaVuSans-69" x="50.269531"/>
      <use xlink:href="#DejaVuSans-74" x="78.052734"/>
      <use xlink:href="#DejaVuSans-6e" x="117.261719"/>
      <use xlink:href="#DejaVuSans-65" x="180.640625"/>
      <use xlink:href="#DejaVuSans-73" x="242.164062"/>
      <use xlink:href="#DejaVuSans-73" x="294.263672"/>
      <use xlink:href="#DejaVuSans-20" x="346.363281"/>
      <use xlink:href="#DejaVuSans-6d" x="378.150391"/>
      <use xlink:href="#DejaVuSans-65" x="475.5625"/>
      <use xlink:href="#DejaVuSans-61" x="537.085938"/>
      <use xlink:href="#DejaVuSans-6e" x="598.365234"/>
     </g>
    </g>
   </g>
  </g>
 </g>
 <defs>
  <clipPath id="pf318183043">
   <rect x="55.674375" y="3.6" width="334.8" height="249.48"/>
  </clipPath>
 </defs>
</svg>
