<?xml version="1.0" encoding="utf-8" standalone="no"?>
<!DOCTYPE svg PUBLIC "-//W3C//DTD SVG 1.1//EN"
  "http://www.w3.org/Graphics/SVG/1.1/DTD/svg11.dtd">
<svg xmlns:xlink="http://www.w3.org/1999/xlink" width="394.074375pt" height="287.4075pt" viewBox="0 0 394.074375 287.4075" xmlns="http://www.w3.org/2000/svg" version="1.1">
 <metadata>
  <rdf:RDF xmlns:dc="http://purl.org/dc/elements/1.1/" xmlns:cc="http://creativecommons.org/ns#" xmlns:rdf="http://www.w3.org/1999/02/22-rdf-syntax-ns#">
   <cc:Work>
    <dc:type rdf:resource="http://purl.org/dc/dcmitype/StillImage"/>
    <dc:date>2024-06-05T09:16:36.288140</dc:date>
    <dc:format>image/svg+xml</dc:format>
    <dc:creator>
     <cc:Agent>
      <dc:title>Matplotlib v3.9.0, https://matplotlib.org/</dc:title>
     </cc:Agent>
    </dc:creator>
   </cc:Work>
  </rdf:RDF>
 </metadata>
 <defs>
  <style type="text/css">*{stroke-linejoin: round; stroke-linecap: butt}</style>
 </defs>
 <g id="figure_1">
  <g id="patch_1">
   <path d="M 0 287.4075 
L 394.074375 287.4075 
L 394.074375 0 
L 0 0 
z
" style="fill: #ffffff"/>
  </g>
  <g id="axes_1">
   <g id="patch_2">
    <path d="M 55.674375 253.08 
L 390.474375 253.08 
L 390.474375 3.6 
L 55.674375 3.6 
z
" style="fill: #ffffff"/>
   </g>
   <g id="PolyCollection_1">
    <defs>
     <path id="mf4404d9750" d="M 70.892557 -254.212383 
L 70.892557 -134.029882 
L 71.502504 -126.874513 
L 72.112451 -121.595021 
L 72.722398 -155.788365 
L 73.332345 -180.690482 
L 73.942293 -183.840942 
L 74.55224 -164.877153 
L 75.162187 -165.564967 
L 75.772134 -161.995403 
L 76.382081 -166.607342 
L 76.992028 -163.096089 
L 77.601976 -165.566096 
L 78.211923 -153.832094 
L 78.82187 -147.239749 
L 79.431817 -174.74804 
L 80.041764 -169.281612 
L 80.651711 -169.281836 
L 81.261659 -161.924285 
L 81.871606 -170.688793 
L 82.481553 -180.109936 
L 83.0915 -176.333486 
L 83.701447 -187.88004 
L 84.311394 -186.842823 
L 84.921342 -185.408356 
L 85.531289 -188.59105 
L 86.141236 -188.59105 
L 86.751183 -190.450479 
L 87.36113 -197.049971 
L 87.971077 -198.001091 
L 88.581025 -201.491229 
L 89.190972 -199.982436 
L 89.800919 -200.97373 
L 90.410866 -197.442384 
L 91.020813 -202.08659 
L 91.63076 -204.322877 
L 92.240708 -204.892504 
L 92.850655 -205.446312 
L 93.460602 -208.714457 
L 94.070549 -208.084372 
L 94.680496 -209.185119 
L 95.290444 -228.387641 
L 95.900391 -232.567048 
L 96.510338 -241.402455 
L 97.120285 -247.818062 
L 97.730232 -256.273089 
L 98.340179 -259.435587 
L 98.950127 -259.10873 
L 99.560074 -258.281095 
L 100.170021 -262.117182 
L 100.779968 -261.078484 
L 101.389915 -261.396103 
L 101.999862 -261.755687 
L 102.60981 -262.011978 
L 103.219757 -262.434029 
L 103.829704 -263.515257 
L 104.439651 -263.064839 
L 105.049598 -260.679882 
L 105.659545 -262.104828 
L 106.269493 -260.452374 
L 106.87944 -261.281558 
L 107.489387 -262.936239 
L 108.099334 -263.529674 
L 108.709281 -263.648927 
L 109.319228 -263.243339 
L 109.929176 -262.78286 
L 110.539123 -262.283178 
L 111.14907 -261.841253 
L 111.759017 -262.893237 
L 112.368964 -263.351543 
L 112.978911 -263.346321 
L 113.588859 -262.893241 
L 114.198806 -263.346325 
L 114.808753 -263.658603 
L 115.4187 -263.449189 
L 116.028647 -263.717728 
L 116.638594 -263.629768 
L 117.248542 -263.739614 
L 117.858489 -264.051845 
L 118.468436 -263.235513 
L 119.078383 -262.286403 
L 119.68833 -263.372358 
L 120.298277 -264.125889 
L 120.908225 -263.329363 
L 121.518172 -263.748753 
L 122.128119 -263.329353 
L 122.738066 -262.763318 
L 123.348013 -262.763318 
L 123.95796 -259.088691 
L 124.567908 -263.69304 
L 125.177855 -264.131958 
L 125.787802 -263.475941 
L 126.397749 -260.681534 
L 127.007696 -260.707628 
L 127.617643 -262.492345 
L 128.227591 -262.900315 
L 128.837538 -262.438718 
L 129.447485 -262.82914 
L 130.057432 -263.686616 
L 130.667379 -265.066955 
L 131.277326 -263.880832 
L 131.887274 -263.492362 
L 132.497221 -263.749999 
L 133.107168 -264.56351 
L 133.717115 -264.074891 
L 134.327062 -262.816533 
L 134.937009 -262.788197 
L 135.546957 -263.397374 
L 136.156904 -263.229044 
L 136.766851 -263.106354 
L 137.376798 -263.978761 
L 137.986745 -264.55537 
L 138.596692 -263.805816 
L 139.20664 -265.05365 
L 139.816587 -265.068487 
L 140.426534 -264.138432 
L 141.036481 -263.944864 
L 141.646428 -262.65755 
L 142.256375 -262.750707 
L 142.866323 -263.178994 
L 143.47627 -263.968957 
L 144.086217 -264.447502 
L 144.696164 -263.183389 
L 145.306111 -263.183384 
L 145.916058 -263.044253 
L 146.526006 -264.124548 
L 147.135953 -265.706907 
L 147.7459 -265.593805 
L 148.355847 -264.957165 
L 148.965794 -262.955179 
L 149.575741 -265.304756 
L 150.185689 -266.594983 
L 150.795636 -265.809973 
L 151.405583 -265.868195 
L 152.01553 -265.758331 
L 152.625477 -264.642955 
L 153.235424 -265.758327 
L 153.845372 -264.552101 
L 154.455319 -263.792128 
L 155.065266 -263.022915 
L 155.675213 -263.206604 
L 156.28516 -262.46471 
L 156.895107 -263.625584 
L 157.505055 -263.022199 
L 158.115002 -263.251554 
L 158.724949 -263.12718 
L 159.334896 -263.074124 
L 159.944843 -263.231867 
L 160.55479 -265.31926 
L 161.164738 -264.491104 
L 161.774685 -264.867151 
L 162.384632 -265.998245 
L 162.994579 -265.865993 
L 163.604526 -265.919155 
L 164.214473 -264.572305 
L 164.824421 -265.919209 
L 165.434368 -265.686348 
L 166.044315 -264.81548 
L 166.654262 -265.919147 
L 167.264209 -266.842998 
L 167.874156 -266.822844 
L 168.484104 -265.416772 
L 169.094051 -266.532242 
L 169.703998 -267.30165 
L 170.313945 -266.494068 
L 170.923892 -265.832502 
L 171.533839 -266.461982 
L 172.143787 -264.762183 
L 172.753734 -266.007498 
L 173.363681 -264.762174 
L 173.973628 -265.537485 
L 174.583575 -265.198448 
L 175.193522 -265.19845 
L 175.80347 -266.045026 
L 176.413417 -266.069939 
L 177.023364 -266.441796 
L 177.633311 -265.444618 
L 178.243258 -265.026044 
L 178.853205 -264.714197 
L 179.463153 -263.391911 
L 180.0731 -264.746945 
L 180.683047 -264.714209 
L 181.292994 -264.714215 
L 181.902941 -262.701688 
L 182.512888 -264.884099 
L 183.122836 -266.108377 
L 183.732783 -266.297941 
L 184.34273 -265.627325 
L 184.952677 -265.735006 
L 185.562624 -264.568619 
L 186.172571 -264.640123 
L 186.782519 -266.353733 
L 187.392466 -264.484164 
L 188.002413 -265.595443 
L 188.61236 -267.553462 
L 189.222307 -267.742632 
L 189.832254 -267.5571 
L 190.442202 -265.365734 
L 191.052149 -265.273013 
L 191.662096 -265.344751 
L 192.272043 -265.700154 
L 192.88199 -266.077273 
L 193.491937 -265.801008 
L 194.101885 -265.739993 
L 194.711832 -265.55868 
L 195.321779 -265.405975 
L 195.931726 -265.405974 
L 196.541673 -265.255634 
L 197.15162 -264.008077 
L 197.761568 -265.315073 
L 198.371515 -265.843721 
L 198.981462 -265.987146 
L 199.591409 -265.843724 
L 200.201356 -265.843723 
L 200.811303 -266.160651 
L 201.421251 -268.413988 
L 202.031198 -267.724282 
L 202.641145 -266.810269 
L 203.251092 -266.591575 
L 203.861039 -266.029822 
L 204.470986 -265.636522 
L 205.080934 -264.657731 
L 205.690881 -265.493651 
L 206.300828 -265.665072 
L 206.910775 -266.90796 
L 207.520722 -265.754354 
L 208.130669 -266.127815 
L 208.740617 -266.089896 
L 209.350564 -266.083416 
L 209.960511 -266.383042 
L 210.570458 -266.439667 
L 211.180405 -267.36166 
L 211.790352 -266.852331 
L 212.4003 -268.267059 
L 213.010247 -267.295813 
L 213.620194 -267.674438 
L 214.230141 -267.295835 
L 214.840088 -267.982429 
L 215.450035 -269.131587 
L 216.059983 -267.589961 
L 216.66993 -268.140517 
L 217.279877 -267.49371 
L 217.889824 -267.396659 
L 218.499771 -266.380365 
L 219.109718 -266.394881 
L 219.719666 -267.030526 
L 220.329613 -266.514294 
L 220.93956 -263.704728 
L 221.549507 -265.187121 
L 222.159454 -264.763158 
L 222.769401 -265.363629 
L 223.379349 -266.413512 
L 223.989296 -265.79512 
L 224.599243 -265.795117 
L 225.20919 -265.699725 
L 225.819137 -264.296121 
L 226.429084 -265.699721 
L 227.039032 -265.437395 
L 227.648979 -267.941265 
L 228.258926 -267.073787 
L 228.868873 -267.60653 
L 229.47882 -267.39508 
L 230.088767 -266.937566 
L 230.698715 -267.239739 
L 231.308662 -267.436765 
L 231.918609 -268.12664 
L 232.528556 -268.126623 
L 233.138503 -267.203966 
L 233.74845 -267.931091 
L 234.358398 -267.359888 
L 234.968345 -265.555783 
L 235.578292 -266.870082 
L 236.188239 -267.446904 
L 236.798186 -265.624997 
L 237.408133 -266.990645 
L 238.018081 -267.684745 
L 238.628028 -266.146715 
L 239.237975 -266.481328 
L 239.847922 -266.267515 
L 240.457869 -265.784336 
L 241.067816 -266.365374 
L 241.677764 -266.290553 
L 242.287711 -266.365371 
L 242.897658 -266.365372 
L 243.507605 -266.73116 
L 244.117552 -266.330588 
L 244.727499 -268.180758 
L 245.337447 -268.515508 
L 245.947394 -268.421955 
L 246.557341 -268.75372 
L 247.167288 -268.20864 
L 247.777235 -267.814151 
L 248.387182 -267.814149 
L 248.99713 -266.761713 
L 249.607077 -264.894558 
L 250.217024 -264.757758 
L 250.826971 -266.840892 
L 251.436918 -267.486425 
L 252.046865 -267.363897 
L 252.656813 -266.724426 
L 253.26676 -267.826305 
L 253.876707 -268.220576 
L 254.486654 -268.220606 
L 255.096601 -268.838867 
L 255.706548 -268.804796 
L 256.316496 -269.304474 
L 256.926443 -269.007348 
L 257.53639 -269.3697 
L 258.146337 -269.214249 
L 258.756284 -269.304443 
L 259.366231 -269.055447 
L 259.976179 -267.515846 
L 260.586126 -267.119616 
L 261.196073 -267.119611 
L 261.80602 -266.14664 
L 262.415967 -266.011767 
L 263.025914 -264.563521 
L 263.635862 -265.152649 
L 264.245809 -264.794208 
L 264.855756 -265.995299 
L 265.465703 -265.180565 
L 266.07565 -265.01587 
L 266.685597 -267.000577 
L 267.295545 -265.464773 
L 267.905492 -265.464777 
L 268.515439 -265.464777 
L 269.125386 -265.168427 
L 269.735333 -265.647657 
L 270.34528 -265.805242 
L 270.955228 -263.820756 
L 271.565175 -264.232895 
L 272.175122 -266.572 
L 272.785069 -266.341465 
L 273.395016 -265.880352 
L 274.004963 -266.811558 
L 274.614911 -266.96574 
L 275.224858 -268.438044 
L 275.834805 -266.691404 
L 276.444752 -266.7775 
L 277.054699 -266.677368 
L 277.664646 -266.748763 
L 278.274594 -266.748764 
L 278.884541 -266.609866 
L 279.494488 -269.096794 
L 280.104435 -268.484053 
L 280.714382 -268.344959 
L 281.324329 -268.497095 
L 281.934277 -268.344947 
L 282.544224 -267.144879 
L 283.154171 -265.087296 
L 283.764118 -266.865839 
L 284.374065 -266.735092 
L 284.984012 -265.079552 
L 285.59396 -267.29211 
L 286.203907 -268.165164 
L 286.813854 -268.065384 
L 287.423801 -268.065354 
L 288.033748 -269.015594 
L 288.643695 -269.015568 
L 289.253643 -267.54445 
L 289.86359 -267.181805 
L 290.473537 -267.527481 
L 291.083484 -267.049044 
L 291.693431 -266.524483 
L 292.303378 -267.613884 
L 292.913326 -265.768456 
L 293.523273 -265.768483 
L 294.13322 -265.768464 
L 294.743167 -265.774824 
L 295.353114 -266.115601 
L 295.963061 -266.099536 
L 296.573009 -266.099536 
L 297.182956 -265.357572 
L 297.792903 -264.086782 
L 298.40285 -265.046651 
L 299.012797 -265.046637 
L 299.622744 -265.046641 
L 300.232692 -266.327092 
L 300.842639 -267.580695 
L 301.452586 -267.580696 
L 302.062533 -265.817528 
L 302.67248 -267.720294 
L 303.282427 -268.059449 
L 303.892375 -267.76872 
L 304.502322 -267.768723 
L 305.112269 -268.171322 
L 305.722216 -265.541054 
L 306.332163 -265.920797 
L 306.94211 -266.701591 
L 307.552058 -265.911402 
L 308.162005 -266.615015 
L 308.771952 -265.637324 
L 309.381899 -267.147323 
L 309.991846 -267.868133 
L 310.601793 -267.299888 
L 311.211741 -266.839997 
L 311.821688 -266.130184 
L 312.431635 -266.714711 
L 313.041582 -268.201147 
L 313.651529 -267.49076 
L 314.261476 -266.250663 
L 314.871424 -266.169226 
L 315.481371 -265.464471 
L 316.091318 -266.085154 
L 316.701265 -267.213586 
L 317.311212 -267.737421 
L 317.921159 -268.7301 
L 318.531107 -268.888192 
L 319.141054 -270.099199 
L 319.751001 -269.404971 
L 320.360948 -268.757022 
L 320.970895 -267.202923 
L 321.580842 -266.625604 
L 322.19079 -265.389838 
L 322.800737 -267.388345 
L 323.410684 -267.388344 
L 324.020631 -267.29233 
L 324.630578 -267.803174 
L 325.240525 -267.85265 
L 325.850473 -268.02387 
L 326.46042 -268.023855 
L 327.070367 -268.651735 
L 327.680314 -269.524583 
L 328.290261 -267.299033 
L 328.900208 -267.439593 
L 329.510156 -268.849971 
L 330.120103 -268.530105 
L 330.73005 -269.527084 
L 331.339997 -269.905159 
L 331.949944 -269.527082 
L 332.559891 -269.525942 
L 333.169839 -269.527067 
L 333.779786 -270.063748 
L 334.389733 -270.711044 
L 334.99968 -270.530379 
L 335.609627 -270.828844 
L 336.219574 -270.189209 
L 336.829522 -269.387452 
L 337.439469 -268.589346 
L 338.049416 -267.928993 
L 338.659363 -267.841872 
L 339.26931 -266.672281 
L 339.879257 -267.841869 
L 340.489205 -267.112946 
L 341.099152 -267.928994 
L 341.709099 -267.333372 
L 342.319046 -266.707339 
L 342.928993 -266.878241 
L 343.53894 -266.932301 
L 344.148888 -267.194451 
L 344.758835 -266.374974 
L 345.368782 -268.835369 
L 345.978729 -268.113047 
L 346.588676 -268.33566 
L 347.198623 -268.460179 
L 347.808571 -269.34723 
L 348.418518 -268.6076 
L 349.028465 -268.132641 
L 349.638412 -267.404857 
L 350.248359 -266.310898 
L 350.858306 -268.201267 
L 351.468254 -268.094014 
L 352.078201 -267.930771 
L 352.688148 -268.285916 
L 353.298095 -268.730898 
L 353.908042 -268.45656 
L 354.51799 -268.824929 
L 355.127937 -267.401851 
L 355.737884 -267.711001 
L 356.347831 -269.092163 
L 356.957778 -268.549488 
L 357.567725 -268.439455 
L 358.177673 -267.72133 
L 358.78762 -269.016922 
L 359.397567 -269.307298 
L 360.007514 -266.777412 
L 360.617461 -266.851143 
L 361.227408 -264.718597 
L 361.837356 -265.917198 
L 362.447303 -266.720612 
L 363.05725 -266.851129 
L 363.667197 -266.548668 
L 364.277144 -267.285133 
L 364.887091 -268.65567 
L 365.497039 -268.649216 
L 366.106986 -268.486873 
L 366.716933 -267.810256 
L 367.32688 -265.990416 
L 367.936827 -267.478264 
L 368.546774 -265.66501 
L 369.156722 -264.643179 
L 369.766669 -264.670706 
L 370.376616 -263.833315 
L 370.986563 -263.734864 
L 371.59651 -264.760546 
L 372.206457 -265.337695 
L 372.816405 -265.876339 
L 373.426352 -265.463565 
L 374.036299 -266.556005 
L 374.646246 -266.521007 
L 375.256193 -266.713809 
L 375.256193 -272.4675 
L 375.256193 -272.4675 
L 374.646246 -272.467496 
L 374.036299 -272.467464 
L 373.426352 -272.467477 
L 372.816405 -272.467495 
L 372.206457 -272.445484 
L 371.59651 -272.445485 
L 370.986563 -272.445485 
L 370.376616 -272.445485 
L 369.766669 -272.445485 
L 369.156722 -272.445484 
L 368.546774 -272.445485 
L 367.936827 -272.445485 
L 367.32688 -272.445485 
L 366.716933 -272.445485 
L 366.106986 -272.445485 
L 365.497039 -272.445484 
L 364.887091 -272.445485 
L 364.277144 -272.445485 
L 363.667197 -272.445485 
L 363.05725 -272.445485 
L 362.447303 -272.445485 
L 361.837356 -272.445485 
L 361.227408 -272.445485 
L 360.617461 -272.445485 
L 360.007514 -272.445485 
L 359.397567 -272.445484 
L 358.78762 -272.445485 
L 358.177673 -272.445485 
L 357.567725 -272.445485 
L 356.957778 -272.445485 
L 356.347831 -272.445485 
L 355.737884 -272.445484 
L 355.127937 -272.445485 
L 354.51799 -272.445485 
L 353.908042 -272.445485 
L 353.298095 -272.445485 
L 352.688148 -272.445485 
L 352.078201 -272.445485 
L 351.468254 -272.445485 
L 350.858306 -272.445485 
L 350.248359 -272.445485 
L 349.638412 -272.445485 
L 349.028465 -272.445485 
L 348.418518 -272.445484 
L 347.808571 -272.445485 
L 347.198623 -272.445485 
L 346.588676 -272.445485 
L 345.978729 -272.445485 
L 345.368782 -272.445485 
L 344.758835 -272.445484 
L 344.148888 -272.445485 
L 343.53894 -272.445485 
L 342.928993 -272.445485 
L 342.319046 -272.445485 
L 341.709099 -272.445485 
L 341.099152 -272.445485 
L 340.489205 -272.445485 
L 339.879257 -272.445485 
L 339.26931 -272.445484 
L 338.659363 -272.445485 
L 338.049416 -272.445485 
L 337.439469 -272.445485 
L 336.829522 -272.445485 
L 336.219574 -272.445485 
L 335.609627 -272.445485 
L 334.99968 -272.445485 
L 334.389733 -272.445485 
L 333.779786 -272.445485 
L 333.169839 -272.445485 
L 332.559891 -272.445485 
L 331.949944 -272.445485 
L 331.339997 -272.445485 
L 330.73005 -272.445485 
L 330.120103 -272.445485 
L 329.510156 -272.445485 
L 328.900208 -272.445485 
L 328.290261 -272.445485 
L 327.680314 -272.445485 
L 327.070367 -272.445485 
L 326.46042 -272.445485 
L 325.850473 -272.445485 
L 325.240525 -272.445485 
L 324.630578 -272.445485 
L 324.020631 -272.445485 
L 323.410684 -272.445485 
L 322.800737 -272.445485 
L 322.19079 -272.445485 
L 321.580842 -272.445485 
L 320.970895 -272.445484 
L 320.360948 -272.445485 
L 319.751001 -272.445485 
L 319.141054 -272.445484 
L 318.531107 -272.445485 
L 317.921159 -272.445485 
L 317.311212 -272.445484 
L 316.701265 -272.445485 
L 316.091318 -272.445485 
L 315.481371 -272.445484 
L 314.871424 -272.445485 
L 314.261476 -272.445485 
L 313.651529 -272.445485 
L 313.041582 -272.445485 
L 312.431635 -272.445485 
L 311.821688 -272.445485 
L 311.211741 -272.445485 
L 310.601793 -272.445485 
L 309.991846 -272.445485 
L 309.381899 -272.445485 
L 308.771952 -272.445485 
L 308.162005 -272.445485 
L 307.552058 -272.445485 
L 306.94211 -272.445485 
L 306.332163 -272.445484 
L 305.722216 -272.445485 
L 305.112269 -272.445485 
L 304.502322 -272.445485 
L 303.892375 -272.445485 
L 303.282427 -272.445484 
L 302.67248 -272.445485 
L 302.062533 -272.445484 
L 301.452586 -272.445485 
L 300.842639 -272.445485 
L 300.232692 -272.445484 
L 299.622744 -272.445484 
L 299.012797 -272.445485 
L 298.40285 -272.445484 
L 297.792903 -272.445484 
L 297.182956 -272.445483 
L 296.573009 -272.445483 
L 295.963061 -272.445483 
L 295.353114 -272.445485 
L 294.743167 -272.442527 
L 294.13322 -272.442528 
L 293.523273 -272.442527 
L 292.913326 -272.442528 
L 292.303378 -272.442528 
L 291.693431 -272.442528 
L 291.083484 -272.442528 
L 290.473537 -272.442528 
L 289.86359 -272.442527 
L 289.253643 -272.442528 
L 288.643695 -272.442527 
L 288.033748 -272.442527 
L 287.423801 -272.442528 
L 286.813854 -272.442528 
L 286.203907 -272.442528 
L 285.59396 -272.442528 
L 284.984012 -272.442527 
L 284.374065 -272.442528 
L 283.764118 -272.442528 
L 283.154171 -272.442528 
L 282.544224 -272.442528 
L 281.934277 -272.442527 
L 281.324329 -272.442528 
L 280.714382 -272.442528 
L 280.104435 -272.442527 
L 279.494488 -272.442528 
L 278.884541 -272.442528 
L 278.274594 -272.442527 
L 277.664646 -272.442527 
L 277.054699 -272.442528 
L 276.444752 -272.442528 
L 275.834805 -272.442528 
L 275.224858 -272.442528 
L 274.614911 -272.442527 
L 274.004963 -272.442528 
L 273.395016 -272.442528 
L 272.785069 -272.442528 
L 272.175122 -272.442527 
L 271.565175 -272.442527 
L 270.955228 -272.442527 
L 270.34528 -272.442528 
L 269.735333 -272.442528 
L 269.125386 -272.442528 
L 268.515439 -272.442528 
L 267.905492 -272.442527 
L 267.295545 -272.442528 
L 266.685597 -272.442527 
L 266.07565 -272.442528 
L 265.465703 -272.442527 
L 264.855756 -272.442527 
L 264.245809 -272.442528 
L 263.635862 -272.442527 
L 263.025914 -272.442528 
L 262.415967 -272.442527 
L 261.80602 -272.442527 
L 261.196073 -272.442528 
L 260.586126 -272.442526 
L 259.976179 -272.442526 
L 259.366231 -272.442527 
L 258.756284 -272.442524 
L 258.146337 -272.442527 
L 257.53639 -272.442524 
L 256.926443 -272.442527 
L 256.316496 -272.435567 
L 255.706548 -272.435566 
L 255.096601 -272.435567 
L 254.486654 -272.435567 
L 253.876707 -272.435567 
L 253.26676 -272.435567 
L 252.656813 -272.435567 
L 252.046865 -272.435567 
L 251.436918 -272.435567 
L 250.826971 -272.435567 
L 250.217024 -272.435566 
L 249.607077 -272.435568 
L 248.99713 -272.435567 
L 248.387182 -272.435567 
L 247.777235 -272.435567 
L 247.167288 -272.435567 
L 246.557341 -272.435566 
L 245.947394 -272.435566 
L 245.337447 -272.435567 
L 244.727499 -272.435566 
L 244.117552 -272.435567 
L 243.507605 -272.435567 
L 242.897658 -272.435566 
L 242.287711 -272.435567 
L 241.677764 -272.435567 
L 241.067816 -272.435567 
L 240.457869 -272.435567 
L 239.847922 -272.435567 
L 239.237975 -272.435566 
L 238.628028 -272.435566 
L 238.018081 -272.435565 
L 237.408133 -272.435566 
L 236.798186 -272.435566 
L 236.188239 -272.435566 
L 235.578292 -272.435564 
L 234.968345 -272.435565 
L 234.358398 -272.435566 
L 233.74845 -272.435564 
L 233.138503 -272.435565 
L 232.528556 -272.435565 
L 231.918609 -272.435564 
L 231.308662 -272.435564 
L 230.698715 -272.435557 
L 230.088767 -272.435564 
L 229.47882 -272.435563 
L 228.868873 -272.433022 
L 228.258926 -272.433026 
L 227.648979 -272.433022 
L 227.039032 -272.433022 
L 226.429084 -272.433022 
L 225.819137 -272.433021 
L 225.20919 -272.43302 
L 224.599243 -272.433022 
L 223.989296 -272.433021 
L 223.379349 -272.429728 
L 222.769401 -272.429728 
L 222.159454 -272.429727 
L 221.549507 -272.429727 
L 220.93956 -272.429727 
L 220.329613 -272.429729 
L 219.719666 -272.429728 
L 219.109718 -272.429728 
L 218.499771 -272.429728 
L 217.889824 -272.429728 
L 217.279877 -272.429728 
L 216.66993 -272.429728 
L 216.059983 -272.429728 
L 215.450035 -272.429728 
L 214.840088 -272.429728 
L 214.230141 -272.429728 
L 213.620194 -272.429727 
L 213.010247 -272.429723 
L 212.4003 -272.429727 
L 211.790352 -272.429725 
L 211.180405 -272.429727 
L 210.570458 -272.401521 
L 209.960511 -272.401517 
L 209.350564 -272.401515 
L 208.740617 -272.401515 
L 208.130669 -272.357694 
L 207.520722 -272.357696 
L 206.910775 -272.3483 
L 206.300828 -272.341995 
L 205.690881 -272.342004 
L 205.080934 -272.341998 
L 204.470986 -272.341985 
L 203.861039 -272.341966 
L 203.251092 -272.341969 
L 202.641145 -272.341978 
L 202.031198 -272.341966 
L 201.421251 -272.341945 
L 200.811303 -272.303773 
L 200.201356 -272.303781 
L 199.591409 -272.303787 
L 198.981462 -272.303763 
L 198.371515 -272.209197 
L 197.761568 -272.209143 
L 197.15162 -272.209171 
L 196.541673 -272.209147 
L 195.931726 -272.209148 
L 195.321779 -272.209165 
L 194.711832 -272.191917 
L 194.101885 -272.191915 
L 193.491937 -272.191915 
L 192.88199 -272.191915 
L 192.272043 -272.191916 
L 191.662096 -272.191915 
L 191.052149 -272.191917 
L 190.442202 -272.191916 
L 189.832254 -272.191915 
L 189.222307 -272.191915 
L 188.61236 -272.191916 
L 188.002413 -272.191915 
L 187.392466 -272.191915 
L 186.782519 -272.191916 
L 186.172571 -272.191915 
L 185.562624 -272.191916 
L 184.952677 -272.191916 
L 184.34273 -272.191916 
L 183.732783 -272.191915 
L 183.122836 -272.191916 
L 182.512888 -272.191917 
L 181.902941 -272.191915 
L 181.292994 -272.191916 
L 180.683047 -272.191916 
L 180.0731 -272.191916 
L 179.463153 -272.191915 
L 178.853205 -272.191915 
L 178.243258 -272.191915 
L 177.633311 -272.191915 
L 177.023364 -272.191916 
L 176.413417 -272.191915 
L 175.80347 -272.191915 
L 175.193522 -272.191914 
L 174.583575 -272.191914 
L 173.973628 -272.191915 
L 173.363681 -272.19191 
L 172.753734 -272.179351 
L 172.143787 -272.179351 
L 171.533839 -272.179351 
L 170.923892 -272.179351 
L 170.313945 -272.179352 
L 169.703998 -272.179351 
L 169.094051 -272.179351 
L 168.484104 -272.179351 
L 167.874156 -272.179351 
L 167.264209 -272.179351 
L 166.654262 -272.179351 
L 166.044315 -272.179344 
L 165.434368 -272.179351 
L 164.824421 -272.179349 
L 164.214473 -272.159165 
L 163.604526 -272.157764 
L 162.994579 -272.157768 
L 162.384632 -272.157763 
L 161.774685 -272.157764 
L 161.164738 -272.157763 
L 160.55479 -272.157763 
L 159.944843 -272.157166 
L 159.334896 -272.157167 
L 158.724949 -272.157167 
L 158.115002 -272.157161 
L 157.505055 -272.157161 
L 156.895107 -272.122048 
L 156.28516 -272.122048 
L 155.675213 -272.122048 
L 155.065266 -272.122048 
L 154.455319 -272.122046 
L 153.845372 -272.122048 
L 153.235424 -272.122048 
L 152.625477 -272.122048 
L 152.01553 -272.122046 
L 151.405583 -272.122048 
L 150.795636 -272.122047 
L 150.185689 -271.869299 
L 149.575741 -271.844137 
L 148.965794 -271.844136 
L 148.355847 -271.844136 
L 147.7459 -271.844136 
L 147.135953 -271.844137 
L 146.526006 -271.797997 
L 145.916058 -271.797996 
L 145.306111 -271.797994 
L 144.696164 -271.751985 
L 144.086217 -271.751986 
L 143.47627 -271.751983 
L 142.866323 -271.751985 
L 142.256375 -271.585922 
L 141.646428 -271.58592 
L 141.036481 -271.390688 
L 140.426534 -271.322892 
L 139.816587 -271.322887 
L 139.20664 -271.32289 
L 138.596692 -271.239096 
L 137.986745 -271.239091 
L 137.376798 -271.23909 
L 136.766851 -271.239098 
L 136.156904 -271.20223 
L 135.546957 -271.20223 
L 134.937009 -270.691221 
L 134.327062 -270.69122 
L 133.717115 -270.691221 
L 133.107168 -270.691217 
L 132.497221 -270.691219 
L 131.887274 -270.580213 
L 131.277326 -270.580225 
L 130.667379 -270.57569 
L 130.057432 -270.575691 
L 129.447485 -270.506744 
L 128.837538 -270.498453 
L 128.227591 -270.498461 
L 127.617643 -270.498454 
L 127.007696 -270.460658 
L 126.397749 -270.460643 
L 125.787802 -270.460656 
L 125.177855 -270.460651 
L 124.567908 -270.460656 
L 123.95796 -270.460637 
L 123.348013 -270.460642 
L 122.738066 -270.267194 
L 122.128119 -270.267194 
L 121.518172 -270.267195 
L 120.908225 -270.267195 
L 120.298277 -270.267193 
L 119.68833 -270.267192 
L 119.078383 -270.078578 
L 118.468436 -270.078578 
L 117.858489 -270.078578 
L 117.248542 -270.078578 
L 116.638594 -270.078578 
L 116.028647 -270.078578 
L 115.4187 -270.078577 
L 114.808753 -270.078578 
L 114.198806 -270.078577 
L 113.588859 -269.600556 
L 112.978911 -269.600556 
L 112.368964 -269.600556 
L 111.759017 -269.600555 
L 111.14907 -269.600555 
L 110.539123 -269.600556 
L 109.929176 -269.600555 
L 109.319228 -269.600556 
L 108.709281 -269.472029 
L 108.099334 -269.472029 
L 107.489387 -269.472025 
L 106.87944 -269.472031 
L 106.269493 -269.472028 
L 105.659545 -269.472028 
L 105.049598 -269.418616 
L 104.439651 -269.385293 
L 103.829704 -268.932875 
L 103.219757 -268.699224 
L 102.60981 -268.606633 
L 101.999862 -268.60663 
L 101.389915 -268.606632 
L 100.779968 -268.60663 
L 100.170021 -268.554401 
L 99.560074 -268.5544 
L 98.950127 -268.554398 
L 98.340179 -268.554399 
L 97.730232 -268.554401 
L 97.120285 -268.554399 
L 96.510338 -268.554396 
L 95.900391 -268.554396 
L 95.290444 -268.554395 
L 94.680496 -267.87812 
L 94.070549 -267.878118 
L 93.460602 -267.87812 
L 92.850655 -267.624627 
L 92.240708 -267.624628 
L 91.63076 -267.624629 
L 91.020813 -267.624629 
L 90.410866 -266.752761 
L 89.800919 -266.752763 
L 89.190972 -266.752765 
L 88.581025 -266.752739 
L 87.971077 -266.752718 
L 87.36113 -266.752738 
L 86.751183 -265.49941 
L 86.141236 -265.499382 
L 85.531289 -264.994786 
L 84.921342 -264.994785 
L 84.311394 -264.994786 
L 83.701447 -264.994788 
L 83.0915 -264.994787 
L 82.481553 -264.994784 
L 81.871606 -264.994785 
L 81.261659 -264.994789 
L 80.651711 -264.994761 
L 80.041764 -263.53533 
L 79.431817 -263.535328 
L 78.82187 -263.535321 
L 78.211923 -263.535331 
L 77.601976 -263.53532 
L 76.992028 -263.535318 
L 76.382081 -258.754473 
L 75.772134 -258.754525 
L 75.162187 -258.754509 
L 74.55224 -257.333386 
L 73.942293 -257.333389 
L 73.332345 -257.333358 
L 72.722398 -257.333353 
L 72.112451 -257.333351 
L 71.502504 -257.333357 
L 70.892557 -254.212383 
z
" style="stroke: #0000ff; stroke-opacity: 0.2"/>
    </defs>
    <g clip-path="url(#pdc422650e9)">
     <use xlink:href="#mf4404d9750" x="0" y="287.4075" style="fill: #0000ff; fill-opacity: 0.2; stroke: #0000ff; stroke-opacity: 0.2"/>
    </g>
   </g>
   <g id="matplotlib.axis_1">
    <g id="xtick_1">
     <g id="line2d_1">
      <path d="M 70.892557 253.08 
L 70.892557 3.6 
" clip-path="url(#pdc422650e9)" style="fill: none; stroke: #b0b0b0; stroke-width: 0.5; stroke-linecap: square"/>
     </g>
     <g id="line2d_2">
      <defs>
       <path id="m4fd6691641" d="M 0 0 
L 0 -3 
" style="stroke: #000000; stroke-width: 0.5"/>
      </defs>
      <g>
       <use xlink:href="#m4fd6691641" x="70.892557" y="253.08" style="stroke: #000000; stroke-width: 0.5"/>
      </g>
     </g>
     <g id="line2d_3">
      <defs>
       <path id="m820241c10f" d="M 0 0 
L 0 3 
" style="stroke: #000000; stroke-width: 0.5"/>
      </defs>
      <g>
       <use xlink:href="#m820241c10f" x="70.892557" y="3.6" style="stroke: #000000; stroke-width: 0.5"/>
      </g>
     </g>
     <g id="text_1">
      <!-- 0 -->
      <g transform="translate(67.075057 265.698125) scale(0.12 -0.12)">
       <defs>
        <path id="DejaVuSans-30" d="M 2034 4250 
Q 1547 4250 1301 3770 
Q 1056 3291 1056 2328 
Q 1056 1369 1301 889 
Q 1547 409 2034 409 
Q 2525 409 2770 889 
Q 3016 1369 3016 2328 
Q 3016 3291 2770 3770 
Q 2525 4250 2034 4250 
z
M 2034 4750 
Q 2819 4750 3233 4129 
Q 3647 3509 3647 2328 
Q 3647 1150 3233 529 
Q 2819 -91 2034 -91 
Q 1250 -91 836 529 
Q 422 1150 422 2328 
Q 422 3509 836 4129 
Q 1250 4750 2034 4750 
z
" transform="scale(0.015625)"/>
       </defs>
       <use xlink:href="#DejaVuSans-30"/>
      </g>
     </g>
    </g>
    <g id="xtick_2">
     <g id="line2d_4">
      <path d="M 131.887274 253.08 
L 131.887274 3.6 
" clip-path="url(#pdc422650e9)" style="fill: none; stroke: #b0b0b0; stroke-width: 0.5; stroke-linecap: square"/>
     </g>
     <g id="line2d_5">
      <g>
       <use xlink:href="#m4fd6691641" x="131.887274" y="253.08" style="stroke: #000000; stroke-width: 0.5"/>
      </g>
     </g>
     <g id="line2d_6">
      <g>
       <use xlink:href="#m820241c10f" x="131.887274" y="3.6" style="stroke: #000000; stroke-width: 0.5"/>
      </g>
     </g>
     <g id="text_2">
      <!-- 100 -->
      <g transform="translate(120.434774 265.698125) scale(0.12 -0.12)">
       <defs>
        <path id="DejaVuSans-31" d="M 794 531 
L 1825 531 
L 1825 4091 
L 703 3866 
L 703 4441 
L 1819 4666 
L 2450 4666 
L 2450 531 
L 3481 531 
L 3481 0 
L 794 0 
L 794 531 
z
" transform="scale(0.015625)"/>
       </defs>
       <use xlink:href="#DejaVuSans-31"/>
       <use xlink:href="#DejaVuSans-30" x="63.623047"/>
       <use xlink:href="#DejaVuSans-30" x="127.246094"/>
      </g>
     </g>
    </g>
    <g id="xtick_3">
     <g id="line2d_7">
      <path d="M 192.88199 253.08 
L 192.88199 3.6 
" clip-path="url(#pdc422650e9)" style="fill: none; stroke: #b0b0b0; stroke-width: 0.5; stroke-linecap: square"/>
     </g>
     <g id="line2d_8">
      <g>
       <use xlink:href="#m4fd6691641" x="192.88199" y="253.08" style="stroke: #000000; stroke-width: 0.5"/>
      </g>
     </g>
     <g id="line2d_9">
      <g>
       <use xlink:href="#m820241c10f" x="192.88199" y="3.6" style="stroke: #000000; stroke-width: 0.5"/>
      </g>
     </g>
     <g id="text_3">
      <!-- 200 -->
      <g transform="translate(181.42949 265.698125) scale(0.12 -0.12)">
       <defs>
        <path id="DejaVuSans-32" d="M 1228 531 
L 3431 531 
L 3431 0 
L 469 0 
L 469 531 
Q 828 903 1448 1529 
Q 2069 2156 2228 2338 
Q 2531 2678 2651 2914 
Q 2772 3150 2772 3378 
Q 2772 3750 2511 3984 
Q 2250 4219 1831 4219 
Q 1534 4219 1204 4116 
Q 875 4013 500 3803 
L 500 4441 
Q 881 4594 1212 4672 
Q 1544 4750 1819 4750 
Q 2544 4750 2975 4387 
Q 3406 4025 3406 3419 
Q 3406 3131 3298 2873 
Q 3191 2616 2906 2266 
Q 2828 2175 2409 1742 
Q 1991 1309 1228 531 
z
" transform="scale(0.015625)"/>
       </defs>
       <use xlink:href="#DejaVuSans-32"/>
       <use xlink:href="#DejaVuSans-30" x="63.623047"/>
       <use xlink:href="#DejaVuSans-30" x="127.246094"/>
      </g>
     </g>
    </g>
    <g id="xtick_4">
     <g id="line2d_10">
      <path d="M 253.876707 253.08 
L 253.876707 3.6 
" clip-path="url(#pdc422650e9)" style="fill: none; stroke: #b0b0b0; stroke-width: 0.5; stroke-linecap: square"/>
     </g>
     <g id="line2d_11">
      <g>
       <use xlink:href="#m4fd6691641" x="253.876707" y="253.08" style="stroke: #000000; stroke-width: 0.5"/>
      </g>
     </g>
     <g id="line2d_12">
      <g>
       <use xlink:href="#m820241c10f" x="253.876707" y="3.6" style="stroke: #000000; stroke-width: 0.5"/>
      </g>
     </g>
     <g id="text_4">
      <!-- 300 -->
      <g transform="translate(242.424207 265.698125) scale(0.12 -0.12)">
       <defs>
        <path id="DejaVuSans-33" d="M 2597 2516 
Q 3050 2419 3304 2112 
Q 3559 1806 3559 1356 
Q 3559 666 3084 287 
Q 2609 -91 1734 -91 
Q 1441 -91 1130 -33 
Q 819 25 488 141 
L 488 750 
Q 750 597 1062 519 
Q 1375 441 1716 441 
Q 2309 441 2620 675 
Q 2931 909 2931 1356 
Q 2931 1769 2642 2001 
Q 2353 2234 1838 2234 
L 1294 2234 
L 1294 2753 
L 1863 2753 
Q 2328 2753 2575 2939 
Q 2822 3125 2822 3475 
Q 2822 3834 2567 4026 
Q 2313 4219 1838 4219 
Q 1578 4219 1281 4162 
Q 984 4106 628 3988 
L 628 4550 
Q 988 4650 1302 4700 
Q 1616 4750 1894 4750 
Q 2613 4750 3031 4423 
Q 3450 4097 3450 3541 
Q 3450 3153 3228 2886 
Q 3006 2619 2597 2516 
z
" transform="scale(0.015625)"/>
       </defs>
       <use xlink:href="#DejaVuSans-33"/>
       <use xlink:href="#DejaVuSans-30" x="63.623047"/>
       <use xlink:href="#DejaVuSans-30" x="127.246094"/>
      </g>
     </g>
    </g>
    <g id="xtick_5">
     <g id="line2d_13">
      <path d="M 314.871424 253.08 
L 314.871424 3.6 
" clip-path="url(#pdc422650e9)" style="fill: none; stroke: #b0b0b0; stroke-width: 0.5; stroke-linecap: square"/>
     </g>
     <g id="line2d_14">
      <g>
       <use xlink:href="#m4fd6691641" x="314.871424" y="253.08" style="stroke: #000000; stroke-width: 0.5"/>
      </g>
     </g>
     <g id="line2d_15">
      <g>
       <use xlink:href="#m820241c10f" x="314.871424" y="3.6" style="stroke: #000000; stroke-width: 0.5"/>
      </g>
     </g>
     <g id="text_5">
      <!-- 400 -->
      <g transform="translate(303.418924 265.698125) scale(0.12 -0.12)">
       <defs>
        <path id="DejaVuSans-34" d="M 2419 4116 
L 825 1625 
L 2419 1625 
L 2419 4116 
z
M 2253 4666 
L 3047 4666 
L 3047 1625 
L 3713 1625 
L 3713 1100 
L 3047 1100 
L 3047 0 
L 2419 0 
L 2419 1100 
L 313 1100 
L 313 1709 
L 2253 4666 
z
" transform="scale(0.015625)"/>
       </defs>
       <use xlink:href="#DejaVuSans-34"/>
       <use xlink:href="#DejaVuSans-30" x="63.623047"/>
       <use xlink:href="#DejaVuSans-30" x="127.246094"/>
      </g>
     </g>
    </g>
    <g id="xtick_6">
     <g id="line2d_16">
      <path d="M 375.86614 253.08 
L 375.86614 3.6 
" clip-path="url(#pdc422650e9)" style="fill: none; stroke: #b0b0b0; stroke-width: 0.5; stroke-linecap: square"/>
     </g>
     <g id="line2d_17">
      <g>
       <use xlink:href="#m4fd6691641" x="375.86614" y="253.08" style="stroke: #000000; stroke-width: 0.5"/>
      </g>
     </g>
     <g id="line2d_18">
      <g>
       <use xlink:href="#m820241c10f" x="375.86614" y="3.6" style="stroke: #000000; stroke-width: 0.5"/>
      </g>
     </g>
     <g id="text_6">
      <!-- 500 -->
      <g transform="translate(364.41364 265.698125) scale(0.12 -0.12)">
       <defs>
        <path id="DejaVuSans-35" d="M 691 4666 
L 3169 4666 
L 3169 4134 
L 1269 4134 
L 1269 2991 
Q 1406 3038 1543 3061 
Q 1681 3084 1819 3084 
Q 2600 3084 3056 2656 
Q 3513 2228 3513 1497 
Q 3513 744 3044 326 
Q 2575 -91 1722 -91 
Q 1428 -91 1123 -41 
Q 819 9 494 109 
L 494 744 
Q 775 591 1075 516 
Q 1375 441 1709 441 
Q 2250 441 2565 725 
Q 2881 1009 2881 1497 
Q 2881 1984 2565 2268 
Q 2250 2553 1709 2553 
Q 1456 2553 1204 2497 
Q 953 2441 691 2322 
L 691 4666 
z
" transform="scale(0.015625)"/>
       </defs>
       <use xlink:href="#DejaVuSans-35"/>
       <use xlink:href="#DejaVuSans-30" x="63.623047"/>
       <use xlink:href="#DejaVuSans-30" x="127.246094"/>
      </g>
     </g>
    </g>
    <g id="xtick_7">
     <g id="line2d_19">
      <defs>
       <path id="m58de6a84b6" d="M 0 0 
L 0 -1.5 
" style="stroke: #000000; stroke-width: 0.5"/>
      </defs>
      <g>
       <use xlink:href="#m58de6a84b6" x="58.693613" y="253.08" style="stroke: #000000; stroke-width: 0.5"/>
      </g>
     </g>
     <g id="line2d_20">
      <defs>
       <path id="mbe44eb41f5" d="M 0 0 
L 0 1.5 
" style="stroke: #000000; stroke-width: 0.5"/>
      </defs>
      <g>
       <use xlink:href="#mbe44eb41f5" x="58.693613" y="3.6" style="stroke: #000000; stroke-width: 0.5"/>
      </g>
     </g>
    </g>
    <g id="xtick_8">
     <g id="line2d_21">
      <g>
       <use xlink:href="#m58de6a84b6" x="83.0915" y="253.08" style="stroke: #000000; stroke-width: 0.5"/>
      </g>
     </g>
     <g id="line2d_22">
      <g>
       <use xlink:href="#mbe44eb41f5" x="83.0915" y="3.6" style="stroke: #000000; stroke-width: 0.5"/>
      </g>
     </g>
    </g>
    <g id="xtick_9">
     <g id="line2d_23">
      <g>
       <use xlink:href="#m58de6a84b6" x="95.290444" y="253.08" style="stroke: #000000; stroke-width: 0.5"/>
      </g>
     </g>
     <g id="line2d_24">
      <g>
       <use xlink:href="#mbe44eb41f5" x="95.290444" y="3.6" style="stroke: #000000; stroke-width: 0.5"/>
      </g>
     </g>
    </g>
    <g id="xtick_10">
     <g id="line2d_25">
      <g>
       <use xlink:href="#m58de6a84b6" x="107.489387" y="253.08" style="stroke: #000000; stroke-width: 0.5"/>
      </g>
     </g>
     <g id="line2d_26">
      <g>
       <use xlink:href="#mbe44eb41f5" x="107.489387" y="3.6" style="stroke: #000000; stroke-width: 0.5"/>
      </g>
     </g>
    </g>
    <g id="xtick_11">
     <g id="line2d_27">
      <g>
       <use xlink:href="#m58de6a84b6" x="119.68833" y="253.08" style="stroke: #000000; stroke-width: 0.5"/>
      </g>
     </g>
     <g id="line2d_28">
      <g>
       <use xlink:href="#mbe44eb41f5" x="119.68833" y="3.6" style="stroke: #000000; stroke-width: 0.5"/>
      </g>
     </g>
    </g>
    <g id="xtick_12">
     <g id="line2d_29">
      <g>
       <use xlink:href="#m58de6a84b6" x="144.086217" y="253.08" style="stroke: #000000; stroke-width: 0.5"/>
      </g>
     </g>
     <g id="line2d_30">
      <g>
       <use xlink:href="#mbe44eb41f5" x="144.086217" y="3.6" style="stroke: #000000; stroke-width: 0.5"/>
      </g>
     </g>
    </g>
    <g id="xtick_13">
     <g id="line2d_31">
      <g>
       <use xlink:href="#m58de6a84b6" x="156.28516" y="253.08" style="stroke: #000000; stroke-width: 0.5"/>
      </g>
     </g>
     <g id="line2d_32">
      <g>
       <use xlink:href="#mbe44eb41f5" x="156.28516" y="3.6" style="stroke: #000000; stroke-width: 0.5"/>
      </g>
     </g>
    </g>
    <g id="xtick_14">
     <g id="line2d_33">
      <g>
       <use xlink:href="#m58de6a84b6" x="168.484104" y="253.08" style="stroke: #000000; stroke-width: 0.5"/>
      </g>
     </g>
     <g id="line2d_34">
      <g>
       <use xlink:href="#mbe44eb41f5" x="168.484104" y="3.6" style="stroke: #000000; stroke-width: 0.5"/>
      </g>
     </g>
    </g>
    <g id="xtick_15">
     <g id="line2d_35">
      <g>
       <use xlink:href="#m58de6a84b6" x="180.683047" y="253.08" style="stroke: #000000; stroke-width: 0.5"/>
      </g>
     </g>
     <g id="line2d_36">
      <g>
       <use xlink:href="#mbe44eb41f5" x="180.683047" y="3.6" style="stroke: #000000; stroke-width: 0.5"/>
      </g>
     </g>
    </g>
    <g id="xtick_16">
     <g id="line2d_37">
      <g>
       <use xlink:href="#m58de6a84b6" x="205.080934" y="253.08" style="stroke: #000000; stroke-width: 0.5"/>
      </g>
     </g>
     <g id="line2d_38">
      <g>
       <use xlink:href="#mbe44eb41f5" x="205.080934" y="3.6" style="stroke: #000000; stroke-width: 0.5"/>
      </g>
     </g>
    </g>
    <g id="xtick_17">
     <g id="line2d_39">
      <g>
       <use xlink:href="#m58de6a84b6" x="217.279877" y="253.08" style="stroke: #000000; stroke-width: 0.5"/>
      </g>
     </g>
     <g id="line2d_40">
      <g>
       <use xlink:href="#mbe44eb41f5" x="217.279877" y="3.6" style="stroke: #000000; stroke-width: 0.5"/>
      </g>
     </g>
    </g>
    <g id="xtick_18">
     <g id="line2d_41">
      <g>
       <use xlink:href="#m58de6a84b6" x="229.47882" y="253.08" style="stroke: #000000; stroke-width: 0.5"/>
      </g>
     </g>
     <g id="line2d_42">
      <g>
       <use xlink:href="#mbe44eb41f5" x="229.47882" y="3.6" style="stroke: #000000; stroke-width: 0.5"/>
      </g>
     </g>
    </g>
    <g id="xtick_19">
     <g id="line2d_43">
      <g>
       <use xlink:href="#m58de6a84b6" x="241.677764" y="253.08" style="stroke: #000000; stroke-width: 0.5"/>
      </g>
     </g>
     <g id="line2d_44">
      <g>
       <use xlink:href="#mbe44eb41f5" x="241.677764" y="3.6" style="stroke: #000000; stroke-width: 0.5"/>
      </g>
     </g>
    </g>
    <g id="xtick_20">
     <g id="line2d_45">
      <g>
       <use xlink:href="#m58de6a84b6" x="266.07565" y="253.08" style="stroke: #000000; stroke-width: 0.5"/>
      </g>
     </g>
     <g id="line2d_46">
      <g>
       <use xlink:href="#mbe44eb41f5" x="266.07565" y="3.6" style="stroke: #000000; stroke-width: 0.5"/>
      </g>
     </g>
    </g>
    <g id="xtick_21">
     <g id="line2d_47">
      <g>
       <use xlink:href="#m58de6a84b6" x="278.274594" y="253.08" style="stroke: #000000; stroke-width: 0.5"/>
      </g>
     </g>
     <g id="line2d_48">
      <g>
       <use xlink:href="#mbe44eb41f5" x="278.274594" y="3.6" style="stroke: #000000; stroke-width: 0.5"/>
      </g>
     </g>
    </g>
    <g id="xtick_22">
     <g id="line2d_49">
      <g>
       <use xlink:href="#m58de6a84b6" x="290.473537" y="253.08" style="stroke: #000000; stroke-width: 0.5"/>
      </g>
     </g>
     <g id="line2d_50">
      <g>
       <use xlink:href="#mbe44eb41f5" x="290.473537" y="3.6" style="stroke: #000000; stroke-width: 0.5"/>
      </g>
     </g>
    </g>
    <g id="xtick_23">
     <g id="line2d_51">
      <g>
       <use xlink:href="#m58de6a84b6" x="302.67248" y="253.08" style="stroke: #000000; stroke-width: 0.5"/>
      </g>
     </g>
     <g id="line2d_52">
      <g>
       <use xlink:href="#mbe44eb41f5" x="302.67248" y="3.6" style="stroke: #000000; stroke-width: 0.5"/>
      </g>
     </g>
    </g>
    <g id="xtick_24">
     <g id="line2d_53">
      <g>
       <use xlink:href="#m58de6a84b6" x="327.070367" y="253.08" style="stroke: #000000; stroke-width: 0.5"/>
      </g>
     </g>
     <g id="line2d_54">
      <g>
       <use xlink:href="#mbe44eb41f5" x="327.070367" y="3.6" style="stroke: #000000; stroke-width: 0.5"/>
      </g>
     </g>
    </g>
    <g id="xtick_25">
     <g id="line2d_55">
      <g>
       <use xlink:href="#m58de6a84b6" x="339.26931" y="253.08" style="stroke: #000000; stroke-width: 0.5"/>
      </g>
     </g>
     <g id="line2d_56">
      <g>
       <use xlink:href="#mbe44eb41f5" x="339.26931" y="3.6" style="stroke: #000000; stroke-width: 0.5"/>
      </g>
     </g>
    </g>
    <g id="xtick_26">
     <g id="line2d_57">
      <g>
       <use xlink:href="#m58de6a84b6" x="351.468254" y="253.08" style="stroke: #000000; stroke-width: 0.5"/>
      </g>
     </g>
     <g id="line2d_58">
      <g>
       <use xlink:href="#mbe44eb41f5" x="351.468254" y="3.6" style="stroke: #000000; stroke-width: 0.5"/>
      </g>
     </g>
    </g>
    <g id="xtick_27">
     <g id="line2d_59">
      <g>
       <use xlink:href="#m58de6a84b6" x="363.667197" y="253.08" style="stroke: #000000; stroke-width: 0.5"/>
      </g>
     </g>
     <g id="line2d_60">
      <g>
       <use xlink:href="#mbe44eb41f5" x="363.667197" y="3.6" style="stroke: #000000; stroke-width: 0.5"/>
      </g>
     </g>
    </g>
    <g id="xtick_28">
     <g id="line2d_61">
      <g>
       <use xlink:href="#m58de6a84b6" x="388.065084" y="253.08" style="stroke: #000000; stroke-width: 0.5"/>
      </g>
     </g>
     <g id="line2d_62">
      <g>
       <use xlink:href="#mbe44eb41f5" x="388.065084" y="3.6" style="stroke: #000000; stroke-width: 0.5"/>
      </g>
     </g>
    </g>
    <g id="text_7">
     <!-- Generations -->
     <g transform="translate(186.477188 281.311875) scale(0.12 -0.12)">
      <defs>
       <path id="DejaVuSans-47" d="M 3809 666 
L 3809 1919 
L 2778 1919 
L 2778 2438 
L 4434 2438 
L 4434 434 
Q 4069 175 3628 42 
Q 3188 -91 2688 -91 
Q 1594 -91 976 548 
Q 359 1188 359 2328 
Q 359 3472 976 4111 
Q 1594 4750 2688 4750 
Q 3144 4750 3555 4637 
Q 3966 4525 4313 4306 
L 4313 3634 
Q 3963 3931 3569 4081 
Q 3175 4231 2741 4231 
Q 1884 4231 1454 3753 
Q 1025 3275 1025 2328 
Q 1025 1384 1454 906 
Q 1884 428 2741 428 
Q 3075 428 3337 486 
Q 3600 544 3809 666 
z
" transform="scale(0.015625)"/>
       <path id="DejaVuSans-65" d="M 3597 1894 
L 3597 1613 
L 953 1613 
Q 991 1019 1311 708 
Q 1631 397 2203 397 
Q 2534 397 2845 478 
Q 3156 559 3463 722 
L 3463 178 
Q 3153 47 2828 -22 
Q 2503 -91 2169 -91 
Q 1331 -91 842 396 
Q 353 884 353 1716 
Q 353 2575 817 3079 
Q 1281 3584 2069 3584 
Q 2775 3584 3186 3129 
Q 3597 2675 3597 1894 
z
M 3022 2063 
Q 3016 2534 2758 2815 
Q 2500 3097 2075 3097 
Q 1594 3097 1305 2825 
Q 1016 2553 972 2059 
L 3022 2063 
z
" transform="scale(0.015625)"/>
       <path id="DejaVuSans-6e" d="M 3513 2113 
L 3513 0 
L 2938 0 
L 2938 2094 
Q 2938 2591 2744 2837 
Q 2550 3084 2163 3084 
Q 1697 3084 1428 2787 
Q 1159 2491 1159 1978 
L 1159 0 
L 581 0 
L 581 3500 
L 1159 3500 
L 1159 2956 
Q 1366 3272 1645 3428 
Q 1925 3584 2291 3584 
Q 2894 3584 3203 3211 
Q 3513 2838 3513 2113 
z
" transform="scale(0.015625)"/>
       <path id="DejaVuSans-72" d="M 2631 2963 
Q 2534 3019 2420 3045 
Q 2306 3072 2169 3072 
Q 1681 3072 1420 2755 
Q 1159 2438 1159 1844 
L 1159 0 
L 581 0 
L 581 3500 
L 1159 3500 
L 1159 2956 
Q 1341 3275 1631 3429 
Q 1922 3584 2338 3584 
Q 2397 3584 2469 3576 
Q 2541 3569 2628 3553 
L 2631 2963 
z
" transform="scale(0.015625)"/>
       <path id="DejaVuSans-61" d="M 2194 1759 
Q 1497 1759 1228 1600 
Q 959 1441 959 1056 
Q 959 750 1161 570 
Q 1363 391 1709 391 
Q 2188 391 2477 730 
Q 2766 1069 2766 1631 
L 2766 1759 
L 2194 1759 
z
M 3341 1997 
L 3341 0 
L 2766 0 
L 2766 531 
Q 2569 213 2275 61 
Q 1981 -91 1556 -91 
Q 1019 -91 701 211 
Q 384 513 384 1019 
Q 384 1609 779 1909 
Q 1175 2209 1959 2209 
L 2766 2209 
L 2766 2266 
Q 2766 2663 2505 2880 
Q 2244 3097 1772 3097 
Q 1472 3097 1187 3025 
Q 903 2953 641 2809 
L 641 3341 
Q 956 3463 1253 3523 
Q 1550 3584 1831 3584 
Q 2591 3584 2966 3190 
Q 3341 2797 3341 1997 
z
" transform="scale(0.015625)"/>
       <path id="DejaVuSans-74" d="M 1172 4494 
L 1172 3500 
L 2356 3500 
L 2356 3053 
L 1172 3053 
L 1172 1153 
Q 1172 725 1289 603 
Q 1406 481 1766 481 
L 2356 481 
L 2356 0 
L 1766 0 
Q 1100 0 847 248 
Q 594 497 594 1153 
L 594 3053 
L 172 3053 
L 172 3500 
L 594 3500 
L 594 4494 
L 1172 4494 
z
" transform="scale(0.015625)"/>
       <path id="DejaVuSans-69" d="M 603 3500 
L 1178 3500 
L 1178 0 
L 603 0 
L 603 3500 
z
M 603 4863 
L 1178 4863 
L 1178 4134 
L 603 4134 
L 603 4863 
z
" transform="scale(0.015625)"/>
       <path id="DejaVuSans-6f" d="M 1959 3097 
Q 1497 3097 1228 2736 
Q 959 2375 959 1747 
Q 959 1119 1226 758 
Q 1494 397 1959 397 
Q 2419 397 2687 759 
Q 2956 1122 2956 1747 
Q 2956 2369 2687 2733 
Q 2419 3097 1959 3097 
z
M 1959 3584 
Q 2709 3584 3137 3096 
Q 3566 2609 3566 1747 
Q 3566 888 3137 398 
Q 2709 -91 1959 -91 
Q 1206 -91 779 398 
Q 353 888 353 1747 
Q 353 2609 779 3096 
Q 1206 3584 1959 3584 
z
" transform="scale(0.015625)"/>
       <path id="DejaVuSans-73" d="M 2834 3397 
L 2834 2853 
Q 2591 2978 2328 3040 
Q 2066 3103 1784 3103 
Q 1356 3103 1142 2972 
Q 928 2841 928 2578 
Q 928 2378 1081 2264 
Q 1234 2150 1697 2047 
L 1894 2003 
Q 2506 1872 2764 1633 
Q 3022 1394 3022 966 
Q 3022 478 2636 193 
Q 2250 -91 1575 -91 
Q 1294 -91 989 -36 
Q 684 19 347 128 
L 347 722 
Q 666 556 975 473 
Q 1284 391 1588 391 
Q 1994 391 2212 530 
Q 2431 669 2431 922 
Q 2431 1156 2273 1281 
Q 2116 1406 1581 1522 
L 1381 1569 
Q 847 1681 609 1914 
Q 372 2147 372 2553 
Q 372 3047 722 3315 
Q 1072 3584 1716 3584 
Q 2034 3584 2315 3537 
Q 2597 3491 2834 3397 
z
" transform="scale(0.015625)"/>
      </defs>
      <use xlink:href="#DejaVuSans-47"/>
      <use xlink:href="#DejaVuSans-65" x="77.490234"/>
      <use xlink:href="#DejaVuSans-6e" x="139.013672"/>
      <use xlink:href="#DejaVuSans-65" x="202.392578"/>
      <use xlink:href="#DejaVuSans-72" x="263.916016"/>
      <use xlink:href="#DejaVuSans-61" x="305.029297"/>
      <use xlink:href="#DejaVuSans-74" x="366.308594"/>
      <use xlink:href="#DejaVuSans-69" x="405.517578"/>
      <use xlink:href="#DejaVuSans-6f" x="433.300781"/>
      <use xlink:href="#DejaVuSans-6e" x="494.482422"/>
      <use xlink:href="#DejaVuSans-73" x="557.861328"/>
     </g>
    </g>
   </g>
   <g id="matplotlib.axis_2">
    <g id="ytick_1">
     <g id="line2d_63">
      <path d="M 55.674375 230.900571 
L 390.474375 230.900571 
" clip-path="url(#pdc422650e9)" style="fill: none; stroke: #b0b0b0; stroke-width: 0.5; stroke-linecap: square"/>
     </g>
     <g id="line2d_64">
      <defs>
       <path id="ma936e9597d" d="M 0 0 
L 3 0 
" style="stroke: #000000; stroke-width: 0.5"/>
      </defs>
      <g>
       <use xlink:href="#ma936e9597d" x="55.674375" y="230.900571" style="stroke: #000000; stroke-width: 0.5"/>
      </g>
     </g>
     <g id="line2d_65">
      <defs>
       <path id="m4d00bfdb87" d="M 0 0 
L -3 0 
" style="stroke: #000000; stroke-width: 0.5"/>
      </defs>
      <g>
       <use xlink:href="#m4d00bfdb87" x="390.474375" y="230.900571" style="stroke: #000000; stroke-width: 0.5"/>
      </g>
     </g>
     <g id="text_8">
      <!-- −100 -->
      <g transform="translate(19.21375 235.459634) scale(0.12 -0.12)">
       <defs>
        <path id="DejaVuSans-2212" d="M 678 2272 
L 4684 2272 
L 4684 1741 
L 678 1741 
L 678 2272 
z
" transform="scale(0.015625)"/>
       </defs>
       <use xlink:href="#DejaVuSans-2212"/>
       <use xlink:href="#DejaVuSans-31" x="83.789062"/>
       <use xlink:href="#DejaVuSans-30" x="147.412109"/>
       <use xlink:href="#DejaVuSans-30" x="211.035156"/>
      </g>
     </g>
    </g>
    <g id="ytick_2">
     <g id="line2d_66">
      <path d="M 55.674375 195.990295 
L 390.474375 195.990295 
" clip-path="url(#pdc422650e9)" style="fill: none; stroke: #b0b0b0; stroke-width: 0.5; stroke-linecap: square"/>
     </g>
     <g id="line2d_67">
      <g>
       <use xlink:href="#ma936e9597d" x="55.674375" y="195.990295" style="stroke: #000000; stroke-width: 0.5"/>
      </g>
     </g>
     <g id="line2d_68">
      <g>
       <use xlink:href="#m4d00bfdb87" x="390.474375" y="195.990295" style="stroke: #000000; stroke-width: 0.5"/>
      </g>
     </g>
     <g id="text_9">
      <!-- −80 -->
      <g transform="translate(26.84875 200.549358) scale(0.12 -0.12)">
       <defs>
        <path id="DejaVuSans-38" d="M 2034 2216 
Q 1584 2216 1326 1975 
Q 1069 1734 1069 1313 
Q 1069 891 1326 650 
Q 1584 409 2034 409 
Q 2484 409 2743 651 
Q 3003 894 3003 1313 
Q 3003 1734 2745 1975 
Q 2488 2216 2034 2216 
z
M 1403 2484 
Q 997 2584 770 2862 
Q 544 3141 544 3541 
Q 544 4100 942 4425 
Q 1341 4750 2034 4750 
Q 2731 4750 3128 4425 
Q 3525 4100 3525 3541 
Q 3525 3141 3298 2862 
Q 3072 2584 2669 2484 
Q 3125 2378 3379 2068 
Q 3634 1759 3634 1313 
Q 3634 634 3220 271 
Q 2806 -91 2034 -91 
Q 1263 -91 848 271 
Q 434 634 434 1313 
Q 434 1759 690 2068 
Q 947 2378 1403 2484 
z
M 1172 3481 
Q 1172 3119 1398 2916 
Q 1625 2713 2034 2713 
Q 2441 2713 2670 2916 
Q 2900 3119 2900 3481 
Q 2900 3844 2670 4047 
Q 2441 4250 2034 4250 
Q 1625 4250 1398 4047 
Q 1172 3844 1172 3481 
z
" transform="scale(0.015625)"/>
       </defs>
       <use xlink:href="#DejaVuSans-2212"/>
       <use xlink:href="#DejaVuSans-38" x="83.789062"/>
       <use xlink:href="#DejaVuSans-30" x="147.412109"/>
      </g>
     </g>
    </g>
    <g id="ytick_3">
     <g id="line2d_69">
      <path d="M 55.674375 161.080019 
L 390.474375 161.080019 
" clip-path="url(#pdc422650e9)" style="fill: none; stroke: #b0b0b0; stroke-width: 0.5; stroke-linecap: square"/>
     </g>
     <g id="line2d_70">
      <g>
       <use xlink:href="#ma936e9597d" x="55.674375" y="161.080019" style="stroke: #000000; stroke-width: 0.5"/>
      </g>
     </g>
     <g id="line2d_71">
      <g>
       <use xlink:href="#m4d00bfdb87" x="390.474375" y="161.080019" style="stroke: #000000; stroke-width: 0.5"/>
      </g>
     </g>
     <g id="text_10">
      <!-- −60 -->
      <g transform="translate(26.84875 165.639082) scale(0.12 -0.12)">
       <defs>
        <path id="DejaVuSans-36" d="M 2113 2584 
Q 1688 2584 1439 2293 
Q 1191 2003 1191 1497 
Q 1191 994 1439 701 
Q 1688 409 2113 409 
Q 2538 409 2786 701 
Q 3034 994 3034 1497 
Q 3034 2003 2786 2293 
Q 2538 2584 2113 2584 
z
M 3366 4563 
L 3366 3988 
Q 3128 4100 2886 4159 
Q 2644 4219 2406 4219 
Q 1781 4219 1451 3797 
Q 1122 3375 1075 2522 
Q 1259 2794 1537 2939 
Q 1816 3084 2150 3084 
Q 2853 3084 3261 2657 
Q 3669 2231 3669 1497 
Q 3669 778 3244 343 
Q 2819 -91 2113 -91 
Q 1303 -91 875 529 
Q 447 1150 447 2328 
Q 447 3434 972 4092 
Q 1497 4750 2381 4750 
Q 2619 4750 2861 4703 
Q 3103 4656 3366 4563 
z
" transform="scale(0.015625)"/>
       </defs>
       <use xlink:href="#DejaVuSans-2212"/>
       <use xlink:href="#DejaVuSans-36" x="83.789062"/>
       <use xlink:href="#DejaVuSans-30" x="147.412109"/>
      </g>
     </g>
    </g>
    <g id="ytick_4">
     <g id="line2d_72">
      <path d="M 55.674375 126.169744 
L 390.474375 126.169744 
" clip-path="url(#pdc422650e9)" style="fill: none; stroke: #b0b0b0; stroke-width: 0.5; stroke-linecap: square"/>
     </g>
     <g id="line2d_73">
      <g>
       <use xlink:href="#ma936e9597d" x="55.674375" y="126.169744" style="stroke: #000000; stroke-width: 0.5"/>
      </g>
     </g>
     <g id="line2d_74">
      <g>
       <use xlink:href="#m4d00bfdb87" x="390.474375" y="126.169744" style="stroke: #000000; stroke-width: 0.5"/>
      </g>
     </g>
     <g id="text_11">
      <!-- −40 -->
      <g transform="translate(26.84875 130.728806) scale(0.12 -0.12)">
       <use xlink:href="#DejaVuSans-2212"/>
       <use xlink:href="#DejaVuSans-34" x="83.789062"/>
       <use xlink:href="#DejaVuSans-30" x="147.412109"/>
      </g>
     </g>
    </g>
    <g id="ytick_5">
     <g id="line2d_75">
      <path d="M 55.674375 91.259468 
L 390.474375 91.259468 
" clip-path="url(#pdc422650e9)" style="fill: none; stroke: #b0b0b0; stroke-width: 0.5; stroke-linecap: square"/>
     </g>
     <g id="line2d_76">
      <g>
       <use xlink:href="#ma936e9597d" x="55.674375" y="91.259468" style="stroke: #000000; stroke-width: 0.5"/>
      </g>
     </g>
     <g id="line2d_77">
      <g>
       <use xlink:href="#m4d00bfdb87" x="390.474375" y="91.259468" style="stroke: #000000; stroke-width: 0.5"/>
      </g>
     </g>
     <g id="text_12">
      <!-- −20 -->
      <g transform="translate(26.84875 95.81853) scale(0.12 -0.12)">
       <use xlink:href="#DejaVuSans-2212"/>
       <use xlink:href="#DejaVuSans-32" x="83.789062"/>
       <use xlink:href="#DejaVuSans-30" x="147.412109"/>
      </g>
     </g>
    </g>
    <g id="ytick_6">
     <g id="line2d_78">
      <path d="M 55.674375 56.349192 
L 390.474375 56.349192 
" clip-path="url(#pdc422650e9)" style="fill: none; stroke: #b0b0b0; stroke-width: 0.5; stroke-linecap: square"/>
     </g>
     <g id="line2d_79">
      <g>
       <use xlink:href="#ma936e9597d" x="55.674375" y="56.349192" style="stroke: #000000; stroke-width: 0.5"/>
      </g>
     </g>
     <g id="line2d_80">
      <g>
       <use xlink:href="#m4d00bfdb87" x="390.474375" y="56.349192" style="stroke: #000000; stroke-width: 0.5"/>
      </g>
     </g>
     <g id="text_13">
      <!-- 0 -->
      <g transform="translate(44.539375 60.908254) scale(0.12 -0.12)">
       <use xlink:href="#DejaVuSans-30"/>
      </g>
     </g>
    </g>
    <g id="ytick_7">
     <g id="line2d_81">
      <path d="M 55.674375 21.438916 
L 390.474375 21.438916 
" clip-path="url(#pdc422650e9)" style="fill: none; stroke: #b0b0b0; stroke-width: 0.5; stroke-linecap: square"/>
     </g>
     <g id="line2d_82">
      <g>
       <use xlink:href="#ma936e9597d" x="55.674375" y="21.438916" style="stroke: #000000; stroke-width: 0.5"/>
      </g>
     </g>
     <g id="line2d_83">
      <g>
       <use xlink:href="#m4d00bfdb87" x="390.474375" y="21.438916" style="stroke: #000000; stroke-width: 0.5"/>
      </g>
     </g>
     <g id="text_14">
      <!-- 20 -->
      <g transform="translate(36.904375 25.997978) scale(0.12 -0.12)">
       <use xlink:href="#DejaVuSans-32"/>
       <use xlink:href="#DejaVuSans-30" x="63.623047"/>
      </g>
     </g>
    </g>
    <g id="ytick_8">
     <g id="line2d_84">
      <defs>
       <path id="m3a91a45a17" d="M 0 0 
L 1.5 0 
" style="stroke: #000000; stroke-width: 0.5"/>
      </defs>
      <g>
       <use xlink:href="#m3a91a45a17" x="55.674375" y="248.355709" style="stroke: #000000; stroke-width: 0.5"/>
      </g>
     </g>
     <g id="line2d_85">
      <defs>
       <path id="m549a163b3a" d="M 0 0 
L -1.5 0 
" style="stroke: #000000; stroke-width: 0.5"/>
      </defs>
      <g>
       <use xlink:href="#m549a163b3a" x="390.474375" y="248.355709" style="stroke: #000000; stroke-width: 0.5"/>
      </g>
     </g>
    </g>
    <g id="ytick_9">
     <g id="line2d_86">
      <g>
       <use xlink:href="#m3a91a45a17" x="55.674375" y="239.62814" style="stroke: #000000; stroke-width: 0.5"/>
      </g>
     </g>
     <g id="line2d_87">
      <g>
       <use xlink:href="#m549a163b3a" x="390.474375" y="239.62814" style="stroke: #000000; stroke-width: 0.5"/>
      </g>
     </g>
    </g>
    <g id="ytick_10">
     <g id="line2d_88">
      <g>
       <use xlink:href="#m3a91a45a17" x="55.674375" y="222.173002" style="stroke: #000000; stroke-width: 0.5"/>
      </g>
     </g>
     <g id="line2d_89">
      <g>
       <use xlink:href="#m549a163b3a" x="390.474375" y="222.173002" style="stroke: #000000; stroke-width: 0.5"/>
      </g>
     </g>
    </g>
    <g id="ytick_11">
     <g id="line2d_90">
      <g>
       <use xlink:href="#m3a91a45a17" x="55.674375" y="213.445433" style="stroke: #000000; stroke-width: 0.5"/>
      </g>
     </g>
     <g id="line2d_91">
      <g>
       <use xlink:href="#m549a163b3a" x="390.474375" y="213.445433" style="stroke: #000000; stroke-width: 0.5"/>
      </g>
     </g>
    </g>
    <g id="ytick_12">
     <g id="line2d_92">
      <g>
       <use xlink:href="#m3a91a45a17" x="55.674375" y="204.717864" style="stroke: #000000; stroke-width: 0.5"/>
      </g>
     </g>
     <g id="line2d_93">
      <g>
       <use xlink:href="#m549a163b3a" x="390.474375" y="204.717864" style="stroke: #000000; stroke-width: 0.5"/>
      </g>
     </g>
    </g>
    <g id="ytick_13">
     <g id="line2d_94">
      <g>
       <use xlink:href="#m3a91a45a17" x="55.674375" y="187.262726" style="stroke: #000000; stroke-width: 0.5"/>
      </g>
     </g>
     <g id="line2d_95">
      <g>
       <use xlink:href="#m549a163b3a" x="390.474375" y="187.262726" style="stroke: #000000; stroke-width: 0.5"/>
      </g>
     </g>
    </g>
    <g id="ytick_14">
     <g id="line2d_96">
      <g>
       <use xlink:href="#m3a91a45a17" x="55.674375" y="178.535157" style="stroke: #000000; stroke-width: 0.5"/>
      </g>
     </g>
     <g id="line2d_97">
      <g>
       <use xlink:href="#m549a163b3a" x="390.474375" y="178.535157" style="stroke: #000000; stroke-width: 0.5"/>
      </g>
     </g>
    </g>
    <g id="ytick_15">
     <g id="line2d_98">
      <g>
       <use xlink:href="#m3a91a45a17" x="55.674375" y="169.807588" style="stroke: #000000; stroke-width: 0.5"/>
      </g>
     </g>
     <g id="line2d_99">
      <g>
       <use xlink:href="#m549a163b3a" x="390.474375" y="169.807588" style="stroke: #000000; stroke-width: 0.5"/>
      </g>
     </g>
    </g>
    <g id="ytick_16">
     <g id="line2d_100">
      <g>
       <use xlink:href="#m3a91a45a17" x="55.674375" y="152.35245" style="stroke: #000000; stroke-width: 0.5"/>
      </g>
     </g>
     <g id="line2d_101">
      <g>
       <use xlink:href="#m549a163b3a" x="390.474375" y="152.35245" style="stroke: #000000; stroke-width: 0.5"/>
      </g>
     </g>
    </g>
    <g id="ytick_17">
     <g id="line2d_102">
      <g>
       <use xlink:href="#m3a91a45a17" x="55.674375" y="143.624881" style="stroke: #000000; stroke-width: 0.5"/>
      </g>
     </g>
     <g id="line2d_103">
      <g>
       <use xlink:href="#m549a163b3a" x="390.474375" y="143.624881" style="stroke: #000000; stroke-width: 0.5"/>
      </g>
     </g>
    </g>
    <g id="ytick_18">
     <g id="line2d_104">
      <g>
       <use xlink:href="#m3a91a45a17" x="55.674375" y="134.897312" style="stroke: #000000; stroke-width: 0.5"/>
      </g>
     </g>
     <g id="line2d_105">
      <g>
       <use xlink:href="#m549a163b3a" x="390.474375" y="134.897312" style="stroke: #000000; stroke-width: 0.5"/>
      </g>
     </g>
    </g>
    <g id="ytick_19">
     <g id="line2d_106">
      <g>
       <use xlink:href="#m3a91a45a17" x="55.674375" y="117.442175" style="stroke: #000000; stroke-width: 0.5"/>
      </g>
     </g>
     <g id="line2d_107">
      <g>
       <use xlink:href="#m549a163b3a" x="390.474375" y="117.442175" style="stroke: #000000; stroke-width: 0.5"/>
      </g>
     </g>
    </g>
    <g id="ytick_20">
     <g id="line2d_108">
      <g>
       <use xlink:href="#m3a91a45a17" x="55.674375" y="108.714606" style="stroke: #000000; stroke-width: 0.5"/>
      </g>
     </g>
     <g id="line2d_109">
      <g>
       <use xlink:href="#m549a163b3a" x="390.474375" y="108.714606" style="stroke: #000000; stroke-width: 0.5"/>
      </g>
     </g>
    </g>
    <g id="ytick_21">
     <g id="line2d_110">
      <g>
       <use xlink:href="#m3a91a45a17" x="55.674375" y="99.987037" style="stroke: #000000; stroke-width: 0.5"/>
      </g>
     </g>
     <g id="line2d_111">
      <g>
       <use xlink:href="#m549a163b3a" x="390.474375" y="99.987037" style="stroke: #000000; stroke-width: 0.5"/>
      </g>
     </g>
    </g>
    <g id="ytick_22">
     <g id="line2d_112">
      <g>
       <use xlink:href="#m3a91a45a17" x="55.674375" y="82.531899" style="stroke: #000000; stroke-width: 0.5"/>
      </g>
     </g>
     <g id="line2d_113">
      <g>
       <use xlink:href="#m549a163b3a" x="390.474375" y="82.531899" style="stroke: #000000; stroke-width: 0.5"/>
      </g>
     </g>
    </g>
    <g id="ytick_23">
     <g id="line2d_114">
      <g>
       <use xlink:href="#m3a91a45a17" x="55.674375" y="73.80433" style="stroke: #000000; stroke-width: 0.5"/>
      </g>
     </g>
     <g id="line2d_115">
      <g>
       <use xlink:href="#m549a163b3a" x="390.474375" y="73.80433" style="stroke: #000000; stroke-width: 0.5"/>
      </g>
     </g>
    </g>
    <g id="ytick_24">
     <g id="line2d_116">
      <g>
       <use xlink:href="#m3a91a45a17" x="55.674375" y="65.076761" style="stroke: #000000; stroke-width: 0.5"/>
      </g>
     </g>
     <g id="line2d_117">
      <g>
       <use xlink:href="#m549a163b3a" x="390.474375" y="65.076761" style="stroke: #000000; stroke-width: 0.5"/>
      </g>
     </g>
    </g>
    <g id="ytick_25">
     <g id="line2d_118">
      <g>
       <use xlink:href="#m3a91a45a17" x="55.674375" y="47.621623" style="stroke: #000000; stroke-width: 0.5"/>
      </g>
     </g>
     <g id="line2d_119">
      <g>
       <use xlink:href="#m549a163b3a" x="390.474375" y="47.621623" style="stroke: #000000; stroke-width: 0.5"/>
      </g>
     </g>
    </g>
    <g id="ytick_26">
     <g id="line2d_120">
      <g>
       <use xlink:href="#m3a91a45a17" x="55.674375" y="38.894054" style="stroke: #000000; stroke-width: 0.5"/>
      </g>
     </g>
     <g id="line2d_121">
      <g>
       <use xlink:href="#m549a163b3a" x="390.474375" y="38.894054" style="stroke: #000000; stroke-width: 0.5"/>
      </g>
     </g>
    </g>
    <g id="ytick_27">
     <g id="line2d_122">
      <g>
       <use xlink:href="#m3a91a45a17" x="55.674375" y="30.166485" style="stroke: #000000; stroke-width: 0.5"/>
      </g>
     </g>
     <g id="line2d_123">
      <g>
       <use xlink:href="#m549a163b3a" x="390.474375" y="30.166485" style="stroke: #000000; stroke-width: 0.5"/>
      </g>
     </g>
    </g>
    <g id="ytick_28">
     <g id="line2d_124">
      <g>
       <use xlink:href="#m3a91a45a17" x="55.674375" y="12.711347" style="stroke: #000000; stroke-width: 0.5"/>
      </g>
     </g>
     <g id="line2d_125">
      <g>
       <use xlink:href="#m549a163b3a" x="390.474375" y="12.711347" style="stroke: #000000; stroke-width: 0.5"/>
      </g>
     </g>
    </g>
    <g id="ytick_29">
     <g id="line2d_126">
      <g>
       <use xlink:href="#m3a91a45a17" x="55.674375" y="3.983778" style="stroke: #000000; stroke-width: 0.5"/>
      </g>
     </g>
     <g id="line2d_127">
      <g>
       <use xlink:href="#m549a163b3a" x="390.474375" y="3.983778" style="stroke: #000000; stroke-width: 0.5"/>
      </g>
     </g>
    </g>
    <g id="text_15">
     <!-- Fitness -->
     <g transform="translate(12.718125 149.120625) rotate(-90) scale(0.12 -0.12)">
      <defs>
       <path id="DejaVuSans-46" d="M 628 4666 
L 3309 4666 
L 3309 4134 
L 1259 4134 
L 1259 2759 
L 3109 2759 
L 3109 2228 
L 1259 2228 
L 1259 0 
L 628 0 
L 628 4666 
z
" transform="scale(0.015625)"/>
      </defs>
      <use xlink:href="#DejaVuSans-46"/>
      <use xlink:href="#DejaVuSans-69" x="50.269531"/>
      <use xlink:href="#DejaVuSans-74" x="78.052734"/>
      <use xlink:href="#DejaVuSans-6e" x="117.261719"/>
      <use xlink:href="#DejaVuSans-65" x="180.640625"/>
      <use xlink:href="#DejaVuSans-73" x="242.164062"/>
      <use xlink:href="#DejaVuSans-73" x="294.263672"/>
     </g>
    </g>
   </g>
   <g id="line2d_128">
    <path d="M 70.892557 33.195117 
L 71.502504 30.074143 
L 74.55224 30.074114 
L 75.162187 28.652991 
L 76.382081 28.653027 
L 76.992028 23.872182 
L 80.041764 23.87217 
L 80.651711 22.412739 
L 85.531289 22.412714 
L 86.141236 21.908118 
L 86.751183 21.90809 
L 87.36113 20.654762 
L 90.410866 20.654739 
L 91.020813 19.782871 
L 92.850655 19.782873 
L 93.460602 19.52938 
L 94.680496 19.52938 
L 95.290444 18.853105 
L 102.60981 18.800867 
L 103.219757 18.708276 
L 103.829704 18.474625 
L 104.439651 18.022207 
L 107.489387 17.935475 
L 108.709281 17.935471 
L 109.319228 17.806944 
L 113.588859 17.806944 
L 114.198806 17.328923 
L 119.078383 17.328922 
L 119.68833 17.140308 
L 122.738066 17.140306 
L 123.348013 16.946858 
L 129.447485 16.900756 
L 130.667379 16.83181 
L 134.937009 16.716279 
L 135.546957 16.20527 
L 138.596692 16.168404 
L 139.816587 16.084613 
L 141.036481 16.016812 
L 141.646428 15.82158 
L 142.256375 15.821578 
L 142.866323 15.655515 
L 149.575741 15.563363 
L 150.185689 15.538201 
L 150.795636 15.285453 
L 198.371515 15.198303 
L 199.591409 15.103713 
L 210.570458 15.005979 
L 213.010247 14.977777 
L 375.256193 14.94 
L 375.256193 14.94 
" clip-path="url(#pdc422650e9)" style="fill: none; stroke: #000000; stroke-linecap: square"/>
   </g>
   <g id="line2d_129">
    <path d="M 70.892557 111.220609 
L 71.502504 115.732779 
L 72.112451 111.849141 
L 73.332345 86.759024 
L 73.942293 90.76558 
L 74.55224 83.892635 
L 75.162187 128.662375 
L 75.772134 90.589689 
L 76.382081 91.623702 
L 76.992028 90.232704 
L 77.601976 87.139371 
L 78.211923 234.769081 
L 78.82187 88.131235 
L 79.431817 193.227251 
L 80.041764 241.74 
L 80.651711 224.837616 
L 81.261659 90.36662 
L 81.871606 87.882701 
L 82.481553 79.69939 
L 83.0915 76.925169 
L 83.701447 78.519983 
L 84.311394 76.509583 
L 84.921342 77.312791 
L 85.531289 72.595232 
L 86.141236 81.693923 
L 87.36113 69.040463 
L 87.971077 67.497455 
L 88.581025 62.840597 
L 89.190972 64.585186 
L 89.800919 63.077661 
L 90.410866 63.951595 
L 91.020813 59.207017 
L 92.240708 54.733103 
L 92.850655 49.995487 
L 93.460602 42.183316 
L 94.070549 42.486159 
L 94.680496 41.491853 
L 95.290444 32.768683 
L 96.510338 27.431445 
L 97.120285 26.442551 
L 97.730232 25.909249 
L 98.340179 23.278994 
L 98.950127 23.737096 
L 99.560074 23.12275 
L 100.170021 23.094046 
L 100.779968 22.410769 
L 101.389915 22.33407 
L 101.999862 23.261083 
L 102.60981 21.819479 
L 103.219757 22.13796 
L 103.829704 21.757608 
L 104.439651 22.405553 
L 105.049598 24.036054 
L 106.269493 23.440853 
L 106.87944 23.011938 
L 107.489387 22.383831 
L 108.709281 21.865398 
L 109.319228 22.168931 
L 109.929176 21.441252 
L 110.539123 23.249251 
L 111.759017 23.189046 
L 112.368964 21.208031 
L 112.978911 21.831286 
L 113.588859 22.777602 
L 114.198806 22.262211 
L 114.808753 22.169016 
L 115.4187 23.037331 
L 116.028647 22.473155 
L 116.638594 23.622064 
L 117.248542 22.30841 
L 117.858489 21.620695 
L 118.468436 23.023882 
L 119.078383 23.834129 
L 119.68833 22.138264 
L 120.298277 21.47652 
L 120.908225 22.315041 
L 121.518172 22.454062 
L 122.128119 22.337853 
L 122.738066 23.274223 
L 123.348013 22.480872 
L 123.95796 23.895973 
L 124.567908 21.43556 
L 125.177855 21.548112 
L 125.787802 21.405565 
L 126.397749 23.006994 
L 127.007696 23.877066 
L 127.617643 20.932863 
L 128.227591 20.572902 
L 128.837538 21.467538 
L 129.447485 21.941337 
L 130.667379 19.485148 
L 131.277326 20.750864 
L 131.887274 22.668154 
L 132.497221 21.308045 
L 133.107168 20.843918 
L 133.717115 19.982813 
L 134.327062 20.071654 
L 134.937009 19.896556 
L 135.546957 20.593634 
L 136.156904 20.375465 
L 136.766851 21.256362 
L 137.376798 19.403775 
L 137.986745 19.722002 
L 138.596692 20.268382 
L 139.20664 19.290025 
L 139.816587 18.93203 
L 140.426534 20.180941 
L 141.036481 20.431856 
L 141.646428 19.969956 
L 142.256375 20.77599 
L 142.866323 20.055363 
L 143.47627 20.05059 
L 144.086217 20.728486 
L 144.696164 20.91291 
L 145.916058 19.645329 
L 146.526006 19.168765 
L 147.7459 19.692743 
L 148.355847 19.84485 
L 148.965794 20.807459 
L 149.575741 20.045842 
L 150.185689 18.402875 
L 150.795636 18.94943 
L 151.405583 18.998606 
L 152.625477 19.565295 
L 153.235424 18.965102 
L 153.845372 18.657821 
L 154.455319 19.362872 
L 155.065266 20.375527 
L 155.675213 20.541925 
L 156.28516 19.572675 
L 156.895107 19.453029 
L 157.505055 19.488087 
L 158.115002 20.448183 
L 159.334896 18.94618 
L 159.944843 20.976784 
L 160.55479 17.912956 
L 161.164738 19.984639 
L 161.774685 18.328109 
L 162.994579 18.217151 
L 163.604526 18.45003 
L 164.214473 19.101662 
L 164.824421 18.108763 
L 165.434368 18.663143 
L 166.044315 18.944665 
L 166.654262 17.499297 
L 167.874156 17.278431 
L 168.484104 18.978312 
L 169.094051 18.386891 
L 169.703998 17.976333 
L 170.313945 19.672819 
L 170.923892 18.480173 
L 171.533839 19.021494 
L 172.143787 18.968749 
L 172.753734 18.628857 
L 173.363681 18.783768 
L 173.973628 18.266118 
L 174.583575 18.747239 
L 175.193522 18.193352 
L 175.80347 18.708861 
L 176.413417 18.016447 
L 177.633311 18.628973 
L 178.243258 18.590624 
L 178.853205 18.294663 
L 179.463153 18.929297 
L 180.683047 18.843121 
L 181.292994 18.338198 
L 181.902941 19.569343 
L 182.512888 19.424829 
L 183.122836 18.990672 
L 183.732783 18.241527 
L 184.34273 18.551571 
L 185.562624 18.072269 
L 186.172571 18.148041 
L 186.782519 17.509666 
L 187.392466 18.70121 
L 188.002413 17.829777 
L 188.61236 17.997196 
L 189.222307 17.645582 
L 189.832254 17.712466 
L 190.442202 18.930324 
L 191.052149 17.899633 
L 191.662096 18.949655 
L 192.272043 18.039366 
L 192.88199 17.870409 
L 193.491937 18.100709 
L 194.711832 17.987515 
L 195.321779 18.217392 
L 195.931726 17.682484 
L 196.541673 19.05147 
L 197.15162 19.513672 
L 197.761568 17.957064 
L 198.371515 17.569743 
L 198.981462 17.903881 
L 199.591409 24.787201 
L 200.201356 17.840657 
L 200.811303 16.901428 
L 201.421251 16.65759 
L 202.031198 17.514047 
L 202.641145 16.822461 
L 203.251092 17.251481 
L 203.861039 17.336802 
L 204.470986 18.454477 
L 205.080934 19.265524 
L 205.690881 18.637312 
L 206.300828 17.629142 
L 206.910775 17.004945 
L 207.520722 17.916497 
L 208.130669 17.46901 
L 208.740617 17.264285 
L 209.350564 17.914471 
L 209.960511 17.463723 
L 210.570458 16.811857 
L 211.180405 17.2585 
L 211.790352 16.897342 
L 212.4003 16.941139 
L 213.010247 18.176121 
L 213.620194 16.571918 
L 214.230141 16.816417 
L 214.840088 17.677859 
L 216.059983 17.380109 
L 216.66993 17.697773 
L 217.279877 18.318301 
L 217.889824 17.676041 
L 218.499771 17.681687 
L 219.109718 17.316612 
L 219.719666 17.248351 
L 220.329613 19.969271 
L 221.549507 18.452651 
L 222.159454 17.67925 
L 222.769401 17.500246 
L 223.379349 17.57724 
L 223.989296 18.168225 
L 224.599243 17.93798 
L 225.20919 18.319009 
L 225.819137 18.34832 
L 226.429084 17.693223 
L 227.648979 16.725647 
L 228.258926 17.764879 
L 228.868873 17.268336 
L 229.47882 17.017718 
L 230.088767 17.516089 
L 230.698715 17.242385 
L 231.308662 17.275971 
L 231.918609 17.841839 
L 232.528556 18.012802 
L 233.138503 17.698082 
L 233.74845 17.241579 
L 234.968345 18.581276 
L 235.578292 17.734371 
L 236.798186 18.18452 
L 237.408133 16.909861 
L 238.018081 17.675938 
L 238.628028 18.183891 
L 239.237975 17.841551 
L 239.847922 17.657146 
L 240.457869 17.208219 
L 241.067816 17.545778 
L 241.677764 18.062276 
L 242.287711 17.859513 
L 242.897658 17.279959 
L 243.507605 17.241445 
L 245.337447 16.61557 
L 245.947394 16.721793 
L 246.557341 16.381037 
L 247.167288 17.033419 
L 247.777235 17.302124 
L 248.387182 17.376481 
L 248.99713 17.8215 
L 249.607077 17.642856 
L 250.217024 18.687337 
L 250.826971 17.80996 
L 251.436918 17.190971 
L 252.046865 17.451983 
L 252.656813 17.499067 
L 253.26676 17.2952 
L 253.876707 16.959579 
L 254.486654 16.479578 
L 255.096601 16.200599 
L 255.706548 17.220593 
L 256.316496 16.311896 
L 256.926443 16.474018 
L 257.53639 16.518488 
L 258.146337 17.061843 
L 258.756284 16.48568 
L 259.366231 16.381328 
L 259.976179 17.004903 
L 260.586126 17.205554 
L 261.196073 16.817953 
L 261.80602 17.860038 
L 263.025914 18.571369 
L 263.635862 18.293376 
L 264.245809 18.873972 
L 264.855756 17.763828 
L 265.465703 18.052544 
L 266.07565 18.109173 
L 266.685597 17.283347 
L 267.295545 17.7251 
L 267.905492 17.187974 
L 268.515439 17.485409 
L 269.125386 17.619344 
L 269.735333 17.390274 
L 270.34528 17.530393 
L 270.955228 18.260826 
L 271.565175 18.272815 
L 272.175122 17.463282 
L 272.785069 17.354453 
L 273.395016 17.632662 
L 274.004963 16.948317 
L 274.614911 16.816719 
L 275.224858 16.429883 
L 275.834805 16.832929 
L 276.444752 16.656992 
L 277.054699 16.9007 
L 277.664646 17.370015 
L 278.274594 17.041655 
L 278.884541 16.937125 
L 279.494488 16.419411 
L 280.714382 16.970535 
L 281.324329 17.040017 
L 281.934277 17.521311 
L 282.544224 17.205671 
L 283.154171 17.541309 
L 283.764118 17.134088 
L 284.374065 17.950589 
L 284.984012 17.458309 
L 285.59396 16.675408 
L 286.203907 16.664916 
L 286.813854 17.091493 
L 287.423801 16.385875 
L 288.033748 16.310613 
L 289.253643 17.001916 
L 289.86359 16.989 
L 290.473537 16.82943 
L 291.083484 16.965567 
L 291.693431 17.859964 
L 292.303378 17.08985 
L 292.913326 18.097467 
L 293.523273 17.952699 
L 294.13322 18.573861 
L 294.743167 17.473143 
L 295.353114 17.394907 
L 295.963061 17.470312 
L 296.573009 18.430525 
L 297.182956 18.103158 
L 297.792903 19.2699 
L 298.40285 18.396632 
L 299.012797 19.349686 
L 299.622744 17.963924 
L 300.842639 16.925368 
L 301.452586 17.047972 
L 302.062533 18.086234 
L 302.67248 17.932857 
L 303.282427 16.807303 
L 303.892375 17.2986 
L 304.502322 16.820373 
L 305.112269 16.819679 
L 305.722216 18.0502 
L 306.332163 17.183774 
L 306.94211 17.003566 
L 307.552058 17.435761 
L 308.162005 16.84338 
L 308.771952 16.789486 
L 309.381899 16.523783 
L 309.991846 16.380844 
L 310.601793 17.041046 
L 311.211741 16.818035 
L 311.821688 17.728049 
L 312.431635 17.778254 
L 313.041582 17.416647 
L 313.651529 18.603148 
L 314.261476 17.235176 
L 314.871424 17.577663 
L 316.091318 17.511136 
L 317.311212 16.592594 
L 317.921159 16.758061 
L 318.531107 16.101846 
L 319.141054 16.122973 
L 320.360948 16.439198 
L 320.970895 16.884961 
L 321.580842 17.110641 
L 322.19079 17.638235 
L 323.410684 17.09394 
L 324.020631 17.065056 
L 325.240525 16.462875 
L 325.850473 16.529026 
L 326.46042 16.423128 
L 327.070367 16.081854 
L 327.680314 16.087982 
L 328.290261 17.018244 
L 328.900208 16.390962 
L 329.510156 15.983325 
L 330.120103 15.810914 
L 331.949944 16.277334 
L 332.559891 16.303341 
L 333.169839 15.926724 
L 333.779786 15.682863 
L 335.609627 15.659599 
L 336.219574 16.133166 
L 337.439469 16.55381 
L 338.049416 16.786091 
L 338.659363 16.864215 
L 339.26931 17.485616 
L 339.879257 16.700296 
L 340.489205 18.317706 
L 341.099152 16.83058 
L 341.709099 16.80599 
L 342.928993 17.129198 
L 343.53894 16.903312 
L 344.148888 17.502661 
L 344.758835 16.728718 
L 346.588676 16.299458 
L 347.808571 16.640181 
L 348.418518 16.403621 
L 349.638412 16.988695 
L 350.248359 17.603842 
L 350.858306 16.977871 
L 352.078201 17.882738 
L 352.688148 17.331885 
L 353.298095 17.145233 
L 353.908042 16.805493 
L 354.51799 17.468239 
L 356.347831 16.111964 
L 356.957778 16.617277 
L 357.567725 16.582567 
L 358.177673 16.424659 
L 358.78762 16.106743 
L 359.397567 16.142162 
L 360.007514 17.478785 
L 360.617461 17.172923 
L 361.227408 18.283043 
L 361.837356 18.421381 
L 362.447303 17.433085 
L 363.05725 17.190141 
L 363.667197 17.40938 
L 364.277144 16.91694 
L 365.497039 16.375221 
L 366.106986 17.141382 
L 366.716933 17.385555 
L 367.936827 17.043686 
L 368.546774 17.556937 
L 369.156722 17.743175 
L 369.766669 17.691868 
L 370.376616 18.417473 
L 372.206457 17.540374 
L 372.816405 17.849432 
L 374.036299 17.233924 
L 375.256193 17.168808 
L 375.256193 17.168808 
" clip-path="url(#pdc422650e9)" style="fill: none; stroke-dasharray: 3.7,1.6; stroke-dashoffset: 0; stroke: #000000"/>
   </g>
   <g id="patch_3">
    <path d="M 55.674375 253.08 
L 55.674375 3.6 
" style="fill: none; stroke: #000000; stroke-width: 0.5; stroke-linejoin: miter; stroke-linecap: square"/>
   </g>
   <g id="patch_4">
    <path d="M 390.474375 253.08 
L 390.474375 3.6 
" style="fill: none; stroke: #000000; stroke-width: 0.5; stroke-linejoin: miter; stroke-linecap: square"/>
   </g>
   <g id="patch_5">
    <path d="M 55.674375 253.08 
L 390.474375 253.08 
" style="fill: none; stroke: #000000; stroke-width: 0.5; stroke-linejoin: miter; stroke-linecap: square"/>
   </g>
   <g id="patch_6">
    <path d="M 55.674375 3.6 
L 390.474375 3.6 
" style="fill: none; stroke: #000000; stroke-width: 0.5; stroke-linejoin: miter; stroke-linecap: square"/>
   </g>
   <g id="legend_1">
    <g id="patch_7">
     <path d="M 264.268125 247.08 
L 382.074375 247.08 
Q 384.474375 247.08 384.474375 244.68 
L 384.474375 193.03875 
Q 384.474375 190.63875 382.074375 190.63875 
L 264.268125 190.63875 
Q 261.868125 190.63875 261.868125 193.03875 
L 261.868125 244.68 
Q 261.868125 247.08 264.268125 247.08 
z
" style="fill: #ffffff; opacity: 0.8; stroke: #cccccc; stroke-linejoin: miter"/>
    </g>
    <g id="line2d_130">
     <path d="M 266.668125 200.356875 
L 278.668125 200.356875 
L 290.668125 200.356875 
" style="fill: none; stroke: #000000; stroke-linecap: square"/>
    </g>
    <g id="text_16">
     <!-- Max fitness -->
     <g transform="translate(300.268125 204.556875) scale(0.12 -0.12)">
      <defs>
       <path id="DejaVuSans-4d" d="M 628 4666 
L 1569 4666 
L 2759 1491 
L 3956 4666 
L 4897 4666 
L 4897 0 
L 4281 0 
L 4281 4097 
L 3078 897 
L 2444 897 
L 1241 4097 
L 1241 0 
L 628 0 
L 628 4666 
z
" transform="scale(0.015625)"/>
       <path id="DejaVuSans-78" d="M 3513 3500 
L 2247 1797 
L 3578 0 
L 2900 0 
L 1881 1375 
L 863 0 
L 184 0 
L 1544 1831 
L 300 3500 
L 978 3500 
L 1906 2253 
L 2834 3500 
L 3513 3500 
z
" transform="scale(0.015625)"/>
       <path id="DejaVuSans-20" transform="scale(0.015625)"/>
       <path id="DejaVuSans-66" d="M 2375 4863 
L 2375 4384 
L 1825 4384 
Q 1516 4384 1395 4259 
Q 1275 4134 1275 3809 
L 1275 3500 
L 2222 3500 
L 2222 3053 
L 1275 3053 
L 1275 0 
L 697 0 
L 697 3053 
L 147 3053 
L 147 3500 
L 697 3500 
L 697 3744 
Q 697 4328 969 4595 
Q 1241 4863 1831 4863 
L 2375 4863 
z
" transform="scale(0.015625)"/>
      </defs>
      <use xlink:href="#DejaVuSans-4d"/>
      <use xlink:href="#DejaVuSans-61" x="86.279297"/>
      <use xlink:href="#DejaVuSans-78" x="147.558594"/>
      <use xlink:href="#DejaVuSans-20" x="206.738281"/>
      <use xlink:href="#DejaVuSans-66" x="238.525391"/>
      <use xlink:href="#DejaVuSans-69" x="273.730469"/>
      <use xlink:href="#DejaVuSans-74" x="301.513672"/>
      <use xlink:href="#DejaVuSans-6e" x="340.722656"/>
      <use xlink:href="#DejaVuSans-65" x="404.101562"/>
      <use xlink:href="#DejaVuSans-73" x="465.625"/>
      <use xlink:href="#DejaVuSans-73" x="517.724609"/>
     </g>
    </g>
    <g id="patch_8">
     <path d="M 266.668125 222.170625 
L 290.668125 222.170625 
L 290.668125 213.770625 
L 266.668125 213.770625 
z
" style="fill: #0000ff; fill-opacity: 0.2; stroke: #0000ff; stroke-opacity: 0.2; stroke-linejoin: miter"/>
    </g>
    <g id="text_17">
     <!-- Top 90% -->
     <g transform="translate(300.268125 222.170625) scale(0.12 -0.12)">
      <defs>
       <path id="DejaVuSans-54" d="M -19 4666 
L 3928 4666 
L 3928 4134 
L 2272 4134 
L 2272 0 
L 1638 0 
L 1638 4134 
L -19 4134 
L -19 4666 
z
" transform="scale(0.015625)"/>
       <path id="DejaVuSans-70" d="M 1159 525 
L 1159 -1331 
L 581 -1331 
L 581 3500 
L 1159 3500 
L 1159 2969 
Q 1341 3281 1617 3432 
Q 1894 3584 2278 3584 
Q 2916 3584 3314 3078 
Q 3713 2572 3713 1747 
Q 3713 922 3314 415 
Q 2916 -91 2278 -91 
Q 1894 -91 1617 61 
Q 1341 213 1159 525 
z
M 3116 1747 
Q 3116 2381 2855 2742 
Q 2594 3103 2138 3103 
Q 1681 3103 1420 2742 
Q 1159 2381 1159 1747 
Q 1159 1113 1420 752 
Q 1681 391 2138 391 
Q 2594 391 2855 752 
Q 3116 1113 3116 1747 
z
" transform="scale(0.015625)"/>
       <path id="DejaVuSans-39" d="M 703 97 
L 703 672 
Q 941 559 1184 500 
Q 1428 441 1663 441 
Q 2288 441 2617 861 
Q 2947 1281 2994 2138 
Q 2813 1869 2534 1725 
Q 2256 1581 1919 1581 
Q 1219 1581 811 2004 
Q 403 2428 403 3163 
Q 403 3881 828 4315 
Q 1253 4750 1959 4750 
Q 2769 4750 3195 4129 
Q 3622 3509 3622 2328 
Q 3622 1225 3098 567 
Q 2575 -91 1691 -91 
Q 1453 -91 1209 -44 
Q 966 3 703 97 
z
M 1959 2075 
Q 2384 2075 2632 2365 
Q 2881 2656 2881 3163 
Q 2881 3666 2632 3958 
Q 2384 4250 1959 4250 
Q 1534 4250 1286 3958 
Q 1038 3666 1038 3163 
Q 1038 2656 1286 2365 
Q 1534 2075 1959 2075 
z
" transform="scale(0.015625)"/>
       <path id="DejaVuSans-25" d="M 4653 2053 
Q 4381 2053 4226 1822 
Q 4072 1591 4072 1178 
Q 4072 772 4226 539 
Q 4381 306 4653 306 
Q 4919 306 5073 539 
Q 5228 772 5228 1178 
Q 5228 1588 5073 1820 
Q 4919 2053 4653 2053 
z
M 4653 2450 
Q 5147 2450 5437 2106 
Q 5728 1763 5728 1178 
Q 5728 594 5436 251 
Q 5144 -91 4653 -91 
Q 4153 -91 3862 251 
Q 3572 594 3572 1178 
Q 3572 1766 3864 2108 
Q 4156 2450 4653 2450 
z
M 1428 4353 
Q 1159 4353 1004 4120 
Q 850 3888 850 3481 
Q 850 3069 1003 2837 
Q 1156 2606 1428 2606 
Q 1700 2606 1854 2837 
Q 2009 3069 2009 3481 
Q 2009 3884 1853 4118 
Q 1697 4353 1428 4353 
z
M 4250 4750 
L 4750 4750 
L 1831 -91 
L 1331 -91 
L 4250 4750 
z
M 1428 4750 
Q 1922 4750 2215 4408 
Q 2509 4066 2509 3481 
Q 2509 2891 2217 2550 
Q 1925 2209 1428 2209 
Q 931 2209 642 2551 
Q 353 2894 353 3481 
Q 353 4063 643 4406 
Q 934 4750 1428 4750 
z
" transform="scale(0.015625)"/>
      </defs>
      <use xlink:href="#DejaVuSans-54"/>
      <use xlink:href="#DejaVuSans-6f" x="44.083984"/>
      <use xlink:href="#DejaVuSans-70" x="105.265625"/>
      <use xlink:href="#DejaVuSans-20" x="168.742188"/>
      <use xlink:href="#DejaVuSans-39" x="200.529297"/>
      <use xlink:href="#DejaVuSans-30" x="264.152344"/>
      <use xlink:href="#DejaVuSans-25" x="327.775391"/>
     </g>
    </g>
    <g id="line2d_131">
     <path d="M 266.668125 235.584375 
L 278.668125 235.584375 
L 290.668125 235.584375 
" style="fill: none; stroke-dasharray: 3.7,1.6; stroke-dashoffset: 0; stroke: #000000"/>
    </g>
    <g id="text_18">
     <!-- Fitness mean -->
     <g transform="translate(300.268125 239.784375) scale(0.12 -0.12)">
      <defs>
       <path id="DejaVuSans-6d" d="M 3328 2828 
Q 3544 3216 3844 3400 
Q 4144 3584 4550 3584 
Q 5097 3584 5394 3201 
Q 5691 2819 5691 2113 
L 5691 0 
L 5113 0 
L 5113 2094 
Q 5113 2597 4934 2840 
Q 4756 3084 4391 3084 
Q 3944 3084 3684 2787 
Q 3425 2491 3425 1978 
L 3425 0 
L 2847 0 
L 2847 2094 
Q 2847 2600 2669 2842 
Q 2491 3084 2119 3084 
Q 1678 3084 1418 2786 
Q 1159 2488 1159 1978 
L 1159 0 
L 581 0 
L 581 3500 
L 1159 3500 
L 1159 2956 
Q 1356 3278 1631 3431 
Q 1906 3584 2284 3584 
Q 2666 3584 2933 3390 
Q 3200 3197 3328 2828 
z
" transform="scale(0.015625)"/>
      </defs>
      <use xlink:href="#DejaVuSans-46"/>
      <use xlink:href="#DejaVuSans-69" x="50.269531"/>
      <use xlink:href="#DejaVuSans-74" x="78.052734"/>
      <use xlink:href="#DejaVuSans-6e" x="117.261719"/>
      <use xlink:href="#DejaVuSans-65" x="180.640625"/>
      <use xlink:href="#DejaVuSans-73" x="242.164062"/>
      <use xlink:href="#DejaVuSans-73" x="294.263672"/>
      <use xlink:href="#DejaVuSans-20" x="346.363281"/>
      <use xlink:href="#DejaVuSans-6d" x="378.150391"/>
      <use xlink:href="#DejaVuSans-65" x="475.5625"/>
      <use xlink:href="#DejaVuSans-61" x="537.085938"/>
      <use xlink:href="#DejaVuSans-6e" x="598.365234"/>
     </g>
    </g>
   </g>
  </g>
 </g>
 <defs>
  <clipPath id="pdc422650e9">
   <rect x="55.674375" y="3.6" width="334.8" height="249.48"/>
  </clipPath>
 </defs>
</svg>
