<?xml version="1.0" encoding="utf-8" standalone="no"?>
<!DOCTYPE svg PUBLIC "-//W3C//DTD SVG 1.1//EN"
  "http://www.w3.org/Graphics/SVG/1.1/DTD/svg11.dtd">
<svg xmlns:xlink="http://www.w3.org/1999/xlink" width="386.439375pt" height="287.4075pt" viewBox="0 0 386.439375 287.4075" xmlns="http://www.w3.org/2000/svg" version="1.1">
 <metadata>
  <rdf:RDF xmlns:dc="http://purl.org/dc/elements/1.1/" xmlns:cc="http://creativecommons.org/ns#" xmlns:rdf="http://www.w3.org/1999/02/22-rdf-syntax-ns#">
   <cc:Work>
    <dc:type rdf:resource="http://purl.org/dc/dcmitype/StillImage"/>
    <dc:date>2024-06-25T10:20:43.314448</dc:date>
    <dc:format>image/svg+xml</dc:format>
    <dc:creator>
     <cc:Agent>
      <dc:title>Matplotlib v3.9.0, https://matplotlib.org/</dc:title>
     </cc:Agent>
    </dc:creator>
   </cc:Work>
  </rdf:RDF>
 </metadata>
 <defs>
  <style type="text/css">*{stroke-linejoin: round; stroke-linecap: butt}</style>
 </defs>
 <g id="figure_1">
  <g id="patch_1">
   <path d="M 0 287.4075 
L 386.439375 287.4075 
L 386.439375 0 
L 0 0 
z
" style="fill: #ffffff"/>
  </g>
  <g id="axes_1">
   <g id="patch_2">
    <path d="M 48.039375 253.08 
L 382.839375 253.08 
L 382.839375 3.6 
L 48.039375 3.6 
z
" style="fill: #ffffff"/>
   </g>
   <g id="PolyCollection_1">
    <defs>
     <path id="me315759d73" d="M 63.257557 -245.025381 
L 63.257557 -64.360282 
L 63.867504 -53.603929 
L 64.477451 -45.6675 
L 65.087398 -97.068859 
L 65.697345 -134.503121 
L 66.307293 -139.239071 
L 66.91724 -110.731636 
L 67.527187 -111.765596 
L 68.137134 -106.399628 
L 68.747081 -113.332553 
L 69.357028 -108.05424 
L 69.966976 -111.767293 
L 70.576923 -94.128081 
L 71.18687 -84.218099 
L 71.796817 -125.570108 
L 72.406764 -117.352666 
L 73.016711 -117.353004 
L 73.626659 -106.292719 
L 74.236606 -119.468021 
L 74.846553 -133.630412 
L 75.4565 -127.95344 
L 76.066447 -145.310871 
L 76.676394 -143.751667 
L 77.286342 -141.595296 
L 77.896289 -146.379701 
L 78.506236 -146.379701 
L 79.116183 -149.174899 
L 79.72613 -159.095627 
L 80.336077 -160.525403 
L 80.946025 -165.771976 
L 81.555972 -163.503872 
L 82.165919 -164.994042 
L 82.775866 -159.685524 
L 83.385813 -166.666955 
L 83.99576 -170.028669 
L 84.605708 -170.884963 
L 85.215655 -171.717479 
L 85.825602 -176.630338 
L 86.435549 -175.683159 
L 87.045496 -177.337864 
L 87.655444 -206.204176 
L 88.265391 -212.486895 
L 88.875338 -225.768777 
L 89.485285 -235.413077 
L 90.095232 -248.12315 
L 90.705179 -252.877195 
L 91.315127 -252.385845 
L 91.925074 -251.141698 
L 92.535021 -256.90832 
L 93.144968 -255.34689 
L 93.754915 -255.824352 
L 94.364862 -256.3649 
L 94.97481 -256.750171 
L 95.584757 -257.384621 
L 96.194704 -259.009984 
L 96.804651 -258.332891 
L 97.414598 -254.747689 
L 98.024545 -256.889749 
L 98.634493 -254.405686 
L 99.24444 -255.652163 
L 99.854387 -258.139573 
L 100.464334 -259.031658 
L 101.074281 -259.210925 
L 101.684228 -258.601223 
L 102.294176 -257.909005 
L 102.904123 -257.157854 
L 103.51407 -256.493527 
L 104.124017 -258.074929 
L 104.733964 -258.763881 
L 105.343911 -258.756031 
L 105.953859 -258.074935 
L 106.563806 -258.756036 
L 107.173753 -259.22547 
L 107.7837 -258.910667 
L 108.393647 -259.314351 
L 109.003594 -259.182123 
L 109.613542 -259.347251 
L 110.223489 -259.816614 
L 110.833436 -258.589458 
L 111.443383 -257.162702 
L 112.05333 -258.795171 
L 112.663277 -259.927922 
L 113.273225 -258.730538 
L 113.883172 -259.360989 
L 114.493119 -258.730524 
L 115.103066 -257.879628 
L 115.713013 -257.879628 
L 116.32296 -252.355721 
L 116.932908 -259.277238 
L 117.542855 -259.937044 
L 118.152802 -258.950883 
L 118.762749 -254.750172 
L 119.372696 -254.789398 
L 119.982643 -257.472286 
L 120.592591 -258.085569 
L 121.202538 -257.391671 
L 121.812485 -257.978575 
L 122.422432 -259.267581 
L 123.032379 -261.342584 
L 123.642326 -259.559537 
L 124.252274 -258.975568 
L 124.862221 -259.362862 
L 125.472168 -260.585778 
L 126.082115 -259.851259 
L 126.692062 -257.959623 
L 127.302009 -257.917027 
L 127.911957 -258.832777 
L 128.521904 -258.579734 
L 129.131851 -258.395299 
L 129.741798 -259.70675 
L 130.351745 -260.573541 
L 130.961692 -259.446768 
L 131.57164 -261.322584 
L 132.181587 -261.344888 
L 132.791534 -259.946777 
L 133.401481 -259.655795 
L 134.011428 -257.720631 
L 134.621375 -257.860669 
L 135.231323 -258.504495 
L 135.84127 -259.692011 
L 136.451217 -260.411387 
L 137.061164 -258.511102 
L 137.671111 -258.511094 
L 138.281058 -258.301945 
L 138.891006 -259.925906 
L 139.500953 -262.304596 
L 140.1109 -262.134575 
L 140.720847 -261.177542 
L 141.330794 -258.168044 
L 141.940741 -261.70006 
L 142.550689 -263.639602 
L 143.160636 -262.459531 
L 143.770583 -262.547053 
L 144.38053 -262.3819 
L 144.990477 -260.705204 
L 145.600424 -262.381893 
L 146.210372 -260.568626 
L 146.820319 -259.426193 
L 147.430266 -258.269868 
L 148.040213 -258.545999 
L 148.65016 -257.430743 
L 149.260107 -259.175834 
L 149.870055 -258.268792 
L 150.480002 -258.613571 
L 151.089949 -258.426605 
L 151.699896 -258.346849 
L 152.309843 -258.583977 
L 152.91979 -261.721864 
L 153.529738 -260.476932 
L 154.139685 -261.042228 
L 154.749632 -262.742552 
L 155.359579 -262.543744 
L 155.969526 -262.623659 
L 156.579473 -260.598999 
L 157.189421 -262.62374 
L 157.799368 -262.273691 
L 158.409315 -260.964553 
L 159.019262 -262.623647 
L 159.629209 -264.012431 
L 160.239156 -263.982136 
L 160.849104 -261.868449 
L 161.459051 -263.545287 
L 162.068998 -264.701903 
L 162.678945 -263.4879 
L 163.288892 -262.493398 
L 163.898839 -263.439667 
L 164.508787 -260.884434 
L 165.118734 -262.756461 
L 165.728681 -260.884421 
L 166.338628 -262.049912 
L 166.948575 -261.540252 
L 167.558522 -261.540255 
L 168.16847 -262.812876 
L 168.778417 -262.850327 
L 169.388364 -263.409323 
L 169.998311 -261.910308 
L 170.608258 -261.281085 
L 171.218205 -260.812299 
L 171.828153 -258.824563 
L 172.4381 -260.861527 
L 173.048047 -260.812317 
L 173.657994 -260.812325 
L 174.267941 -257.786982 
L 174.877888 -261.067704 
L 175.487836 -262.908108 
L 176.097783 -263.193072 
L 176.70773 -262.184965 
L 177.317677 -262.346836 
L 177.927624 -260.593458 
L 178.537571 -260.700946 
L 179.147519 -263.276941 
L 179.757466 -260.4665 
L 180.367413 -262.137037 
L 180.97736 -265.080442 
L 181.587307 -265.364813 
L 182.197254 -265.08591 
L 182.807202 -261.791725 
L 183.417149 -261.652343 
L 184.027096 -261.760183 
L 184.637043 -262.294444 
L 185.24699 -262.861351 
L 185.856937 -262.446054 
L 186.466885 -262.354333 
L 187.076832 -262.081774 
L 187.686779 -261.852219 
L 188.296726 -261.852217 
L 188.906673 -261.626217 
L 189.51662 -259.75082 
L 190.126568 -261.715569 
L 190.736515 -262.510263 
L 191.346462 -262.725867 
L 191.956409 -262.510267 
L 192.566356 -262.510266 
L 193.176303 -262.986689 
L 193.786251 -266.374033 
L 194.396198 -265.337228 
L 195.006145 -263.963232 
L 195.616092 -263.634479 
L 196.226039 -262.79002 
L 196.835986 -262.198789 
L 197.445934 -260.727416 
L 198.055881 -261.984018 
L 198.665828 -262.241708 
L 199.275775 -264.110086 
L 199.885722 -262.375921 
L 200.495669 -262.937328 
L 201.105617 -262.880326 
L 201.715564 -262.870586 
L 202.325511 -263.321 
L 202.935458 -263.406123 
L 203.545405 -264.792114 
L 204.155352 -264.026462 
L 204.7653 -266.15316 
L 205.375247 -264.69313 
L 205.985194 -265.262299 
L 206.595141 -264.693162 
L 207.205088 -265.725289 
L 207.815035 -267.452768 
L 208.424983 -265.13531 
L 209.03493 -265.962936 
L 209.644877 -264.990619 
L 210.254824 -264.844727 
L 210.864771 -263.316977 
L 211.474718 -263.338797 
L 212.084666 -264.294335 
L 212.694613 -263.518305 
L 213.30456 -259.294808 
L 213.914507 -261.523224 
L 214.524454 -260.8859 
L 215.134401 -261.788562 
L 215.744349 -263.366804 
L 216.354296 -262.437203 
L 216.964243 -262.437198 
L 217.57419 -262.2938 
L 218.184137 -260.183823 
L 218.794084 -262.293794 
L 219.404032 -261.89945 
L 220.013979 -265.663409 
L 220.623926 -264.359367 
L 221.233873 -265.160217 
L 221.84382 -264.842353 
L 222.453767 -264.154593 
L 223.063715 -264.608835 
L 223.673662 -264.905017 
L 224.283609 -265.942075 
L 224.893556 -265.94205 
L 225.503503 -264.555059 
L 226.11345 -265.648114 
L 226.723398 -264.78945 
L 227.333345 -262.077418 
L 227.943292 -264.053147 
L 228.553239 -264.920257 
L 229.163186 -262.181464 
L 229.773133 -264.234384 
L 230.383081 -265.277793 
L 230.993028 -262.96574 
L 231.602975 -263.468749 
L 232.212922 -263.147334 
L 232.822869 -262.420992 
L 233.432816 -263.294441 
L 234.042764 -263.181966 
L 234.652711 -263.294436 
L 235.262658 -263.294438 
L 235.872605 -263.844312 
L 236.482552 -263.242149 
L 237.092499 -266.023428 
L 237.702447 -266.526643 
L 238.312394 -266.386009 
L 238.922341 -266.884736 
L 239.532288 -266.065342 
L 240.142235 -265.472324 
L 240.752182 -265.47232 
L 241.36213 -263.89024 
L 241.972077 -261.083427 
L 242.582024 -260.877782 
L 243.191971 -264.009266 
L 243.801918 -264.979668 
L 244.411865 -264.795477 
L 245.021813 -263.834188 
L 245.63176 -265.490595 
L 246.241707 -266.083285 
L 246.851654 -266.08333 
L 247.461601 -267.012735 
L 248.071548 -266.961518 
L 248.681496 -267.712662 
L 249.291443 -267.266004 
L 249.90139 -267.810712 
L 250.511337 -267.57703 
L 251.121284 -267.712615 
L 251.731231 -267.33831 
L 252.341179 -265.023895 
L 252.951126 -264.428259 
L 253.561073 -264.428252 
L 254.17102 -262.965627 
L 254.780967 -262.762878 
L 255.390914 -260.585794 
L 256.000862 -261.471405 
L 256.610809 -260.932575 
L 257.220756 -262.738123 
L 257.830703 -261.51337 
L 258.44065 -261.265791 
L 259.050597 -264.249314 
L 259.660545 -261.940607 
L 260.270492 -261.940612 
L 260.880439 -261.940613 
L 261.490386 -261.495122 
L 262.100333 -262.215528 
L 262.71028 -262.45242 
L 263.320228 -259.469227 
L 263.930175 -260.088778 
L 264.540122 -263.605052 
L 265.150069 -263.258499 
L 265.760016 -262.565328 
L 266.369963 -263.96517 
L 266.979911 -264.196945 
L 267.589858 -266.410194 
L 268.199805 -263.784547 
L 268.809752 -263.913972 
L 269.419699 -263.763448 
L 270.029646 -263.870772 
L 270.639594 -263.870775 
L 271.249541 -263.661974 
L 271.859488 -267.400465 
L 272.469435 -266.479359 
L 273.079382 -266.270264 
L 273.689329 -266.498964 
L 274.299277 -266.270246 
L 274.909224 -264.466237 
L 275.519171 -261.373161 
L 276.129118 -264.046768 
L 276.739065 -263.850222 
L 277.349012 -261.361521 
L 277.95896 -264.687562 
L 278.568907 -265.999987 
L 279.178854 -265.849992 
L 279.788801 -265.849946 
L 280.398748 -267.2784 
L 281.008695 -267.278361 
L 281.618643 -265.066894 
L 282.22859 -264.521746 
L 282.838537 -265.041386 
L 283.448484 -264.322173 
L 284.058431 -263.533622 
L 284.668378 -265.171271 
L 285.278326 -262.39712 
L 285.888273 -262.39716 
L 286.49822 -262.397132 
L 287.108167 -262.406693 
L 287.718114 -262.918967 
L 288.328061 -262.894818 
L 288.938009 -262.894819 
L 289.547956 -261.779457 
L 290.157903 -259.869133 
L 290.76785 -261.312062 
L 291.377797 -261.312042 
L 291.987744 -261.312047 
L 292.597692 -263.236894 
L 293.207639 -265.12138 
L 293.817586 -265.121381 
L 294.427533 -262.470889 
L 295.03748 -265.331233 
L 295.647427 -265.84107 
L 296.257375 -265.40403 
L 296.867322 -265.404034 
L 297.477269 -266.009244 
L 298.087216 -262.055276 
L 298.697163 -262.626127 
L 299.30711 -263.799862 
L 299.917058 -262.612004 
L 300.527005 -263.669716 
L 301.136952 -262.199995 
L 301.746899 -264.469911 
L 302.356846 -265.553473 
L 302.966793 -264.699255 
L 303.576741 -264.007921 
L 304.186688 -262.94089 
L 304.796635 -263.819583 
L 305.406582 -266.054078 
L 306.016529 -264.986184 
L 306.626476 -263.122001 
L 307.236424 -262.99958 
L 307.846371 -261.940152 
L 308.456318 -262.873199 
L 309.066265 -264.56952 
L 309.676212 -265.35698 
L 310.286159 -266.84923 
L 310.896107 -267.086882 
L 311.506054 -268.907337 
L 312.116001 -267.863734 
L 312.725948 -266.889701 
L 313.335895 -264.553492 
L 313.945842 -263.685633 
L 314.55579 -261.82796 
L 315.165737 -264.832229 
L 315.775684 -264.832228 
L 316.385631 -264.687894 
L 316.995578 -265.455823 
L 317.605525 -265.530198 
L 318.215473 -265.787585 
L 318.82542 -265.787562 
L 319.435367 -266.731428 
L 320.045314 -268.043542 
L 320.655261 -264.697969 
L 321.265208 -264.909268 
L 321.875156 -267.029427 
L 322.485103 -266.548586 
L 323.09505 -268.047302 
L 323.704997 -268.615645 
L 324.314944 -268.047298 
L 324.924891 -268.045584 
L 325.534839 -268.047275 
L 326.144786 -268.854045 
L 326.754733 -269.827097 
L 327.36468 -269.555511 
L 327.974627 -270.004181 
L 328.584574 -269.042645 
L 329.194522 -267.837399 
L 329.804469 -266.637641 
L 330.414416 -265.644961 
L 331.024363 -265.513996 
L 331.63431 -263.755801 
L 332.244257 -265.513991 
L 332.854205 -264.418233 
L 333.464152 -265.644963 
L 334.074099 -264.749589 
L 334.684046 -263.808502 
L 335.293993 -264.065412 
L 335.90394 -264.146678 
L 336.513888 -264.540756 
L 337.123835 -263.308872 
L 337.733782 -267.007476 
L 338.343729 -265.921641 
L 338.953676 -266.256286 
L 339.563623 -266.44347 
L 340.173571 -267.776935 
L 340.783518 -266.66508 
L 341.393465 -265.951096 
L 342.003412 -264.85705 
L 342.613359 -263.212549 
L 343.223306 -266.054259 
L 343.833254 -265.89303 
L 344.443201 -265.647634 
L 345.053148 -266.181507 
L 345.663095 -266.85043 
L 346.273042 -266.438029 
L 346.88299 -266.991782 
L 347.492937 -264.852532 
L 348.102884 -265.317262 
L 348.712831 -267.393503 
L 349.322778 -266.577724 
L 349.932725 -266.412317 
L 350.542673 -265.33279 
L 351.15262 -267.280397 
L 351.762567 -267.716906 
L 352.372514 -263.913839 
L 352.982461 -264.024677 
L 353.592408 -260.818913 
L 354.202356 -262.620718 
L 354.812303 -263.828455 
L 355.42225 -264.024655 
L 356.032197 -263.569978 
L 356.642144 -264.677074 
L 357.252091 -266.737343 
L 357.862039 -266.72764 
L 358.471986 -266.483597 
L 359.081933 -265.466469 
L 359.69188 -262.730783 
L 360.301827 -264.9674 
L 360.911774 -262.241614 
L 361.521722 -260.70554 
L 362.131669 -260.74692 
L 362.741616 -259.488107 
L 363.351563 -259.34011 
L 363.96151 -260.881973 
L 364.571457 -261.749575 
L 365.181405 -262.559295 
L 365.791352 -261.938791 
L 366.401299 -263.581008 
L 367.011246 -263.528397 
L 367.621193 -263.818228 
L 367.621193 -272.4675 
L 367.621193 -272.4675 
L 367.011246 -272.467494 
L 366.401299 -272.467446 
L 365.791352 -272.467465 
L 365.181405 -272.467493 
L 364.571457 -272.434405 
L 363.96151 -272.434405 
L 363.351563 -272.434405 
L 362.741616 -272.434405 
L 362.131669 -272.434405 
L 361.521722 -272.434405 
L 360.911774 -272.434405 
L 360.301827 -272.434405 
L 359.69188 -272.434406 
L 359.081933 -272.434405 
L 358.471986 -272.434405 
L 357.862039 -272.434405 
L 357.252091 -272.434406 
L 356.642144 -272.434405 
L 356.032197 -272.434405 
L 355.42225 -272.434405 
L 354.812303 -272.434405 
L 354.202356 -272.434405 
L 353.592408 -272.434405 
L 352.982461 -272.434406 
L 352.372514 -272.434405 
L 351.762567 -272.434405 
L 351.15262 -272.434406 
L 350.542673 -272.434405 
L 349.932725 -272.434406 
L 349.322778 -272.434405 
L 348.712831 -272.434405 
L 348.102884 -272.434405 
L 347.492937 -272.434406 
L 346.88299 -272.434405 
L 346.273042 -272.434405 
L 345.663095 -272.434406 
L 345.053148 -272.434406 
L 344.443201 -272.434405 
L 343.833254 -272.434405 
L 343.223306 -272.434405 
L 342.613359 -272.434406 
L 342.003412 -272.434405 
L 341.393465 -272.434405 
L 340.783518 -272.434405 
L 340.173571 -272.434406 
L 339.563623 -272.434405 
L 338.953676 -272.434405 
L 338.343729 -272.434406 
L 337.733782 -272.434406 
L 337.123835 -272.434404 
L 336.513888 -272.434405 
L 335.90394 -272.434405 
L 335.293993 -272.434405 
L 334.684046 -272.434406 
L 334.074099 -272.434405 
L 333.464152 -272.434406 
L 332.854205 -272.434405 
L 332.244257 -272.434406 
L 331.63431 -272.434405 
L 331.024363 -272.434406 
L 330.414416 -272.434405 
L 329.804469 -272.434405 
L 329.194522 -272.434405 
L 328.584574 -272.434405 
L 327.974627 -272.434405 
L 327.36468 -272.434405 
L 326.754733 -272.434405 
L 326.144786 -272.434406 
L 325.534839 -272.434406 
L 324.924891 -272.434406 
L 324.314944 -272.434406 
L 323.704997 -272.434405 
L 323.09505 -272.434405 
L 322.485103 -272.434406 
L 321.875156 -272.434405 
L 321.265208 -272.434405 
L 320.655261 -272.434406 
L 320.045314 -272.434406 
L 319.435367 -272.434406 
L 318.82542 -272.434405 
L 318.215473 -272.434405 
L 317.605525 -272.434406 
L 316.995578 -272.434405 
L 316.385631 -272.434406 
L 315.775684 -272.434405 
L 315.165737 -272.434406 
L 314.55579 -272.434405 
L 313.945842 -272.434406 
L 313.335895 -272.434405 
L 312.725948 -272.434405 
L 312.116001 -272.434406 
L 311.506054 -272.434405 
L 310.896107 -272.434406 
L 310.286159 -272.434405 
L 309.676212 -272.434404 
L 309.066265 -272.434405 
L 308.456318 -272.434405 
L 307.846371 -272.434405 
L 307.236424 -272.434405 
L 306.626476 -272.434405 
L 306.016529 -272.434405 
L 305.406582 -272.434406 
L 304.796635 -272.434406 
L 304.186688 -272.434405 
L 303.576741 -272.434405 
L 302.966793 -272.434406 
L 302.356846 -272.434405 
L 301.746899 -272.434406 
L 301.136952 -272.434406 
L 300.527005 -272.434406 
L 299.917058 -272.434405 
L 299.30711 -272.434405 
L 298.697163 -272.434405 
L 298.087216 -272.434405 
L 297.477269 -272.434406 
L 296.867322 -272.434406 
L 296.257375 -272.434405 
L 295.647427 -272.434405 
L 295.03748 -272.434405 
L 294.427533 -272.434405 
L 293.817586 -272.434406 
L 293.207639 -272.434405 
L 292.597692 -272.434405 
L 291.987744 -272.434404 
L 291.377797 -272.434405 
L 290.76785 -272.434405 
L 290.157903 -272.434404 
L 289.547956 -272.434404 
L 288.938009 -272.434402 
L 288.328061 -272.434402 
L 287.718114 -272.434406 
L 287.108167 -272.42996 
L 286.49822 -272.42996 
L 285.888273 -272.42996 
L 285.278326 -272.42996 
L 284.668378 -272.42996 
L 284.058431 -272.42996 
L 283.448484 -272.42996 
L 282.838537 -272.429961 
L 282.22859 -272.42996 
L 281.618643 -272.42996 
L 281.008695 -272.42996 
L 280.398748 -272.42996 
L 279.788801 -272.42996 
L 279.178854 -272.42996 
L 278.568907 -272.42996 
L 277.95896 -272.429961 
L 277.349012 -272.42996 
L 276.739065 -272.42996 
L 276.129118 -272.42996 
L 275.519171 -272.429961 
L 274.909224 -272.42996 
L 274.299277 -272.42996 
L 273.689329 -272.42996 
L 273.079382 -272.42996 
L 272.469435 -272.42996 
L 271.859488 -272.429961 
L 271.249541 -272.42996 
L 270.639594 -272.42996 
L 270.029646 -272.42996 
L 269.419699 -272.429961 
L 268.809752 -272.42996 
L 268.199805 -272.42996 
L 267.589858 -272.42996 
L 266.979911 -272.429959 
L 266.369963 -272.42996 
L 265.760016 -272.42996 
L 265.150069 -272.42996 
L 264.540122 -272.42996 
L 263.930175 -272.42996 
L 263.320228 -272.42996 
L 262.71028 -272.429961 
L 262.100333 -272.42996 
L 261.490386 -272.42996 
L 260.880439 -272.42996 
L 260.270492 -272.429959 
L 259.660545 -272.429961 
L 259.050597 -272.42996 
L 258.44065 -272.42996 
L 257.830703 -272.429959 
L 257.220756 -272.42996 
L 256.610809 -272.429961 
L 256.000862 -272.42996 
L 255.390914 -272.42996 
L 254.780967 -272.429959 
L 254.17102 -272.429959 
L 253.561073 -272.42996 
L 252.951126 -272.429958 
L 252.341179 -272.429958 
L 251.731231 -272.42996 
L 251.121284 -272.429955 
L 250.511337 -272.429959 
L 249.90139 -272.429954 
L 249.291443 -272.429959 
L 248.681496 -272.419497 
L 248.071548 -272.419496 
L 247.461601 -272.419496 
L 246.851654 -272.419496 
L 246.241707 -272.419496 
L 245.63176 -272.419497 
L 245.021813 -272.419496 
L 244.411865 -272.419496 
L 243.801918 -272.419497 
L 243.191971 -272.419496 
L 242.582024 -272.419496 
L 241.972077 -272.419497 
L 241.36213 -272.419496 
L 240.752182 -272.419496 
L 240.142235 -272.419496 
L 239.532288 -272.419497 
L 238.922341 -272.419495 
L 238.312394 -272.419496 
L 237.702447 -272.419496 
L 237.092499 -272.419495 
L 236.482552 -272.419496 
L 235.872605 -272.419497 
L 235.262658 -272.419496 
L 234.652711 -272.419496 
L 234.042764 -272.419497 
L 233.432816 -272.419496 
L 232.822869 -272.419497 
L 232.212922 -272.419496 
L 231.602975 -272.419496 
L 230.993028 -272.419495 
L 230.383081 -272.419493 
L 229.773133 -272.419495 
L 229.163186 -272.419495 
L 228.553239 -272.419495 
L 227.943292 -272.419492 
L 227.333345 -272.419493 
L 226.723398 -272.419496 
L 226.11345 -272.419493 
L 225.503503 -272.419493 
L 224.893556 -272.419494 
L 224.283609 -272.419492 
L 223.673662 -272.419491 
L 223.063715 -272.419482 
L 222.453767 -272.419492 
L 221.84382 -272.419491 
L 221.233873 -272.41567 
L 220.623926 -272.415676 
L 220.013979 -272.415671 
L 219.404032 -272.41567 
L 218.794084 -272.41567 
L 218.184137 -272.41567 
L 217.57419 -272.415667 
L 216.964243 -272.41567 
L 216.354296 -272.415669 
L 215.744349 -272.410719 
L 215.134401 -272.410719 
L 214.524454 -272.410718 
L 213.914507 -272.410718 
L 213.30456 -272.410718 
L 212.694613 -272.41072 
L 212.084666 -272.410718 
L 211.474718 -272.410719 
L 210.864771 -272.410719 
L 210.254824 -272.410719 
L 209.644877 -272.410719 
L 209.03493 -272.410719 
L 208.424983 -272.410719 
L 207.815035 -272.410719 
L 207.205088 -272.410719 
L 206.595141 -272.410719 
L 205.985194 -272.410717 
L 205.375247 -272.410712 
L 204.7653 -272.410717 
L 204.155352 -272.410715 
L 203.545405 -272.410718 
L 202.935458 -272.368316 
L 202.325511 -272.368311 
L 201.715564 -272.368308 
L 201.105617 -272.368308 
L 200.495669 -272.302433 
L 199.885722 -272.302436 
L 199.275775 -272.288311 
L 198.665828 -272.278833 
L 198.055881 -272.278848 
L 197.445934 -272.278838 
L 196.835986 -272.278818 
L 196.226039 -272.27879 
L 195.616092 -272.278795 
L 195.006145 -272.278808 
L 194.396198 -272.278791 
L 193.786251 -272.278759 
L 193.176303 -272.221376 
L 192.566356 -272.221388 
L 191.956409 -272.221398 
L 191.346462 -272.221361 
L 190.736515 -272.079204 
L 190.126568 -272.079123 
L 189.51662 -272.079165 
L 188.906673 -272.07913 
L 188.296726 -272.079131 
L 187.686779 -272.079156 
L 187.076832 -272.053228 
L 186.466885 -272.053226 
L 185.856937 -272.053226 
L 185.24699 -272.053226 
L 184.637043 -272.053226 
L 184.027096 -272.053226 
L 183.417149 -272.053228 
L 182.807202 -272.053226 
L 182.197254 -272.053226 
L 181.587307 -272.053226 
L 180.97736 -272.053226 
L 180.367413 -272.053226 
L 179.757466 -272.053225 
L 179.147519 -272.053226 
L 178.537571 -272.053226 
L 177.927624 -272.053226 
L 177.317677 -272.053226 
L 176.70773 -272.053226 
L 176.097783 -272.053226 
L 175.487836 -272.053226 
L 174.877888 -272.053228 
L 174.267941 -272.053225 
L 173.657994 -272.053226 
L 173.048047 -272.053226 
L 172.4381 -272.053226 
L 171.828153 -272.053226 
L 171.218205 -272.053226 
L 170.608258 -272.053226 
L 169.998311 -272.053225 
L 169.388364 -272.053226 
L 168.778417 -272.053225 
L 168.16847 -272.053225 
L 167.558522 -272.053223 
L 166.948575 -272.053224 
L 166.338628 -272.053225 
L 165.728681 -272.053217 
L 165.118734 -272.034338 
L 164.508787 -272.034339 
L 163.898839 -272.034338 
L 163.288892 -272.034339 
L 162.678945 -272.034339 
L 162.068998 -272.034338 
L 161.459051 -272.034338 
L 160.849104 -272.034338 
L 160.239156 -272.034338 
L 159.629209 -272.034339 
L 159.019262 -272.034338 
L 158.409315 -272.034328 
L 157.799368 -272.034338 
L 157.189421 -272.034335 
L 156.579473 -272.003993 
L 155.969526 -272.001887 
L 155.359579 -272.001893 
L 154.749632 -272.001886 
L 154.139685 -272.001887 
L 153.529738 -272.001886 
L 152.91979 -272.001886 
L 152.309843 -272.000988 
L 151.699896 -272.000989 
L 151.089949 -272.00099 
L 150.480002 -272.000981 
L 149.870055 -272.000981 
L 149.260107 -271.948197 
L 148.65016 -271.948197 
L 148.040213 -271.948197 
L 147.430266 -271.948197 
L 146.820319 -271.948195 
L 146.210372 -271.948198 
L 145.600424 -271.948196 
L 144.990477 -271.948197 
L 144.38053 -271.948194 
L 143.770583 -271.948197 
L 143.160636 -271.948196 
L 142.550689 -271.56825 
L 141.940741 -271.530426 
L 141.330794 -271.530425 
L 140.720847 -271.530425 
L 140.1109 -271.530425 
L 139.500953 -271.530425 
L 138.891006 -271.461065 
L 138.281058 -271.461064 
L 137.671111 -271.461061 
L 137.061164 -271.391898 
L 136.451217 -271.391899 
L 135.84127 -271.391895 
L 135.231323 -271.391897 
L 134.621375 -271.142262 
L 134.011428 -271.14226 
L 133.401481 -270.848775 
L 132.791534 -270.746861 
L 132.181587 -270.746854 
L 131.57164 -270.746858 
L 130.961692 -270.620894 
L 130.351745 -270.620887 
L 129.741798 -270.620884 
L 129.131851 -270.620898 
L 128.521904 -270.565475 
L 127.911957 -270.565474 
L 127.302009 -269.797297 
L 126.692062 -269.797296 
L 126.082115 -269.797298 
L 125.472168 -269.797291 
L 124.862221 -269.797295 
L 124.252274 -269.630424 
L 123.642326 -269.630442 
L 123.032379 -269.623625 
L 122.422432 -269.623626 
L 121.812485 -269.519982 
L 121.202538 -269.507518 
L 120.592591 -269.50753 
L 119.982643 -269.507519 
L 119.372696 -269.450703 
L 118.762749 -269.45068 
L 118.152802 -269.450699 
L 117.542855 -269.450692 
L 116.932908 -269.450699 
L 116.32296 -269.450671 
L 115.713013 -269.450678 
L 115.103066 -269.159877 
L 114.493119 -269.159877 
L 113.883172 -269.159877 
L 113.273225 -269.159878 
L 112.663277 -269.159875 
L 112.05333 -269.159873 
L 111.443383 -268.876337 
L 110.833436 -268.876338 
L 110.223489 -268.876337 
L 109.613542 -268.876338 
L 109.003594 -268.876338 
L 108.393647 -268.876338 
L 107.7837 -268.876337 
L 107.173753 -268.876338 
L 106.563806 -268.876337 
L 105.953859 -268.157749 
L 105.343911 -268.157748 
L 104.733964 -268.157748 
L 104.124017 -268.157748 
L 103.51407 -268.157747 
L 102.904123 -268.157748 
L 102.294176 -268.157747 
L 101.684228 -268.157749 
L 101.074281 -267.964539 
L 100.464334 -267.96454 
L 99.854387 -267.964533 
L 99.24444 -267.964542 
L 98.634493 -267.964537 
L 98.024545 -267.964537 
L 97.414598 -267.884246 
L 96.804651 -267.834152 
L 96.194704 -267.154053 
L 95.584757 -266.802815 
L 94.97481 -266.663627 
L 94.364862 -266.663624 
L 93.754915 -266.663626 
L 93.144968 -266.663624 
L 92.535021 -266.585109 
L 91.925074 -266.585108 
L 91.315127 -266.585104 
L 90.705179 -266.585106 
L 90.095232 -266.585109 
L 89.485285 -266.585107 
L 88.875338 -266.585101 
L 88.265391 -266.585103 
L 87.655444 -266.5851 
L 87.045496 -265.568486 
L 86.435549 -265.568483 
L 85.825602 -265.568486 
L 85.215655 -265.187421 
L 84.605708 -265.187422 
L 83.99576 -265.187423 
L 83.385813 -265.187423 
L 82.775866 -263.876783 
L 82.165919 -263.876786 
L 81.555972 -263.876789 
L 80.946025 -263.876749 
L 80.336077 -263.876719 
L 79.72613 -263.876749 
L 79.116183 -261.992675 
L 78.506236 -261.992633 
L 77.896289 -261.234095 
L 77.286342 -261.234094 
L 76.676394 -261.234096 
L 76.066447 -261.234099 
L 75.4565 -261.234097 
L 74.846553 -261.234092 
L 74.236606 -261.234094 
L 73.626659 -261.2341 
L 73.016711 -261.234059 
L 72.406764 -259.040159 
L 71.796817 -259.040157 
L 71.18687 -259.040146 
L 70.576923 -259.040161 
L 69.966976 -259.040145 
L 69.357028 -259.040142 
L 68.747081 -251.853306 
L 68.137134 -251.853384 
L 67.527187 -251.85336 
L 66.91724 -249.717048 
L 66.307293 -249.717052 
L 65.697345 -249.717006 
L 65.087398 -249.716998 
L 64.477451 -249.716996 
L 63.867504 -249.717005 
L 63.257557 -245.025381 
z
" style="stroke: #0000ff; stroke-opacity: 0.2"/>
    </defs>
    <g clip-path="url(#p7da771d719)">
     <use xlink:href="#me315759d73" x="0" y="287.4075" style="fill: #0000ff; fill-opacity: 0.2; stroke: #0000ff; stroke-opacity: 0.2"/>
    </g>
   </g>
   <g id="matplotlib.axis_1">
    <g id="xtick_1">
     <g id="line2d_1">
      <path d="M 63.257557 253.08 
L 63.257557 3.6 
" clip-path="url(#p7da771d719)" style="fill: none; stroke: #b0b0b0; stroke-width: 0.5; stroke-linecap: square"/>
     </g>
     <g id="line2d_2">
      <defs>
       <path id="mb1cb7e5f43" d="M 0 0 
L 0 -3 
" style="stroke: #000000; stroke-width: 0.5"/>
      </defs>
      <g>
       <use xlink:href="#mb1cb7e5f43" x="63.257557" y="253.08" style="stroke: #000000; stroke-width: 0.5"/>
      </g>
     </g>
     <g id="line2d_3">
      <defs>
       <path id="m88d240da68" d="M 0 0 
L 0 3 
" style="stroke: #000000; stroke-width: 0.5"/>
      </defs>
      <g>
       <use xlink:href="#m88d240da68" x="63.257557" y="3.6" style="stroke: #000000; stroke-width: 0.5"/>
      </g>
     </g>
     <g id="text_1">
      <!-- 0 -->
      <g transform="translate(59.440057 265.698125) scale(0.12 -0.12)">
       <defs>
        <path id="DejaVuSans-30" d="M 2034 4250 
Q 1547 4250 1301 3770 
Q 1056 3291 1056 2328 
Q 1056 1369 1301 889 
Q 1547 409 2034 409 
Q 2525 409 2770 889 
Q 3016 1369 3016 2328 
Q 3016 3291 2770 3770 
Q 2525 4250 2034 4250 
z
M 2034 4750 
Q 2819 4750 3233 4129 
Q 3647 3509 3647 2328 
Q 3647 1150 3233 529 
Q 2819 -91 2034 -91 
Q 1250 -91 836 529 
Q 422 1150 422 2328 
Q 422 3509 836 4129 
Q 1250 4750 2034 4750 
z
" transform="scale(0.015625)"/>
       </defs>
       <use xlink:href="#DejaVuSans-30"/>
      </g>
     </g>
    </g>
    <g id="xtick_2">
     <g id="line2d_4">
      <path d="M 124.252274 253.08 
L 124.252274 3.6 
" clip-path="url(#p7da771d719)" style="fill: none; stroke: #b0b0b0; stroke-width: 0.5; stroke-linecap: square"/>
     </g>
     <g id="line2d_5">
      <g>
       <use xlink:href="#mb1cb7e5f43" x="124.252274" y="253.08" style="stroke: #000000; stroke-width: 0.5"/>
      </g>
     </g>
     <g id="line2d_6">
      <g>
       <use xlink:href="#m88d240da68" x="124.252274" y="3.6" style="stroke: #000000; stroke-width: 0.5"/>
      </g>
     </g>
     <g id="text_2">
      <!-- 100 -->
      <g transform="translate(112.799774 265.698125) scale(0.12 -0.12)">
       <defs>
        <path id="DejaVuSans-31" d="M 794 531 
L 1825 531 
L 1825 4091 
L 703 3866 
L 703 4441 
L 1819 4666 
L 2450 4666 
L 2450 531 
L 3481 531 
L 3481 0 
L 794 0 
L 794 531 
z
" transform="scale(0.015625)"/>
       </defs>
       <use xlink:href="#DejaVuSans-31"/>
       <use xlink:href="#DejaVuSans-30" x="63.623047"/>
       <use xlink:href="#DejaVuSans-30" x="127.246094"/>
      </g>
     </g>
    </g>
    <g id="xtick_3">
     <g id="line2d_7">
      <path d="M 185.24699 253.08 
L 185.24699 3.6 
" clip-path="url(#p7da771d719)" style="fill: none; stroke: #b0b0b0; stroke-width: 0.5; stroke-linecap: square"/>
     </g>
     <g id="line2d_8">
      <g>
       <use xlink:href="#mb1cb7e5f43" x="185.24699" y="253.08" style="stroke: #000000; stroke-width: 0.5"/>
      </g>
     </g>
     <g id="line2d_9">
      <g>
       <use xlink:href="#m88d240da68" x="185.24699" y="3.6" style="stroke: #000000; stroke-width: 0.5"/>
      </g>
     </g>
     <g id="text_3">
      <!-- 200 -->
      <g transform="translate(173.79449 265.698125) scale(0.12 -0.12)">
       <defs>
        <path id="DejaVuSans-32" d="M 1228 531 
L 3431 531 
L 3431 0 
L 469 0 
L 469 531 
Q 828 903 1448 1529 
Q 2069 2156 2228 2338 
Q 2531 2678 2651 2914 
Q 2772 3150 2772 3378 
Q 2772 3750 2511 3984 
Q 2250 4219 1831 4219 
Q 1534 4219 1204 4116 
Q 875 4013 500 3803 
L 500 4441 
Q 881 4594 1212 4672 
Q 1544 4750 1819 4750 
Q 2544 4750 2975 4387 
Q 3406 4025 3406 3419 
Q 3406 3131 3298 2873 
Q 3191 2616 2906 2266 
Q 2828 2175 2409 1742 
Q 1991 1309 1228 531 
z
" transform="scale(0.015625)"/>
       </defs>
       <use xlink:href="#DejaVuSans-32"/>
       <use xlink:href="#DejaVuSans-30" x="63.623047"/>
       <use xlink:href="#DejaVuSans-30" x="127.246094"/>
      </g>
     </g>
    </g>
    <g id="xtick_4">
     <g id="line2d_10">
      <path d="M 246.241707 253.08 
L 246.241707 3.6 
" clip-path="url(#p7da771d719)" style="fill: none; stroke: #b0b0b0; stroke-width: 0.5; stroke-linecap: square"/>
     </g>
     <g id="line2d_11">
      <g>
       <use xlink:href="#mb1cb7e5f43" x="246.241707" y="253.08" style="stroke: #000000; stroke-width: 0.5"/>
      </g>
     </g>
     <g id="line2d_12">
      <g>
       <use xlink:href="#m88d240da68" x="246.241707" y="3.6" style="stroke: #000000; stroke-width: 0.5"/>
      </g>
     </g>
     <g id="text_4">
      <!-- 300 -->
      <g transform="translate(234.789207 265.698125) scale(0.12 -0.12)">
       <defs>
        <path id="DejaVuSans-33" d="M 2597 2516 
Q 3050 2419 3304 2112 
Q 3559 1806 3559 1356 
Q 3559 666 3084 287 
Q 2609 -91 1734 -91 
Q 1441 -91 1130 -33 
Q 819 25 488 141 
L 488 750 
Q 750 597 1062 519 
Q 1375 441 1716 441 
Q 2309 441 2620 675 
Q 2931 909 2931 1356 
Q 2931 1769 2642 2001 
Q 2353 2234 1838 2234 
L 1294 2234 
L 1294 2753 
L 1863 2753 
Q 2328 2753 2575 2939 
Q 2822 3125 2822 3475 
Q 2822 3834 2567 4026 
Q 2313 4219 1838 4219 
Q 1578 4219 1281 4162 
Q 984 4106 628 3988 
L 628 4550 
Q 988 4650 1302 4700 
Q 1616 4750 1894 4750 
Q 2613 4750 3031 4423 
Q 3450 4097 3450 3541 
Q 3450 3153 3228 2886 
Q 3006 2619 2597 2516 
z
" transform="scale(0.015625)"/>
       </defs>
       <use xlink:href="#DejaVuSans-33"/>
       <use xlink:href="#DejaVuSans-30" x="63.623047"/>
       <use xlink:href="#DejaVuSans-30" x="127.246094"/>
      </g>
     </g>
    </g>
    <g id="xtick_5">
     <g id="line2d_13">
      <path d="M 307.236424 253.08 
L 307.236424 3.6 
" clip-path="url(#p7da771d719)" style="fill: none; stroke: #b0b0b0; stroke-width: 0.5; stroke-linecap: square"/>
     </g>
     <g id="line2d_14">
      <g>
       <use xlink:href="#mb1cb7e5f43" x="307.236424" y="253.08" style="stroke: #000000; stroke-width: 0.5"/>
      </g>
     </g>
     <g id="line2d_15">
      <g>
       <use xlink:href="#m88d240da68" x="307.236424" y="3.6" style="stroke: #000000; stroke-width: 0.5"/>
      </g>
     </g>
     <g id="text_5">
      <!-- 400 -->
      <g transform="translate(295.783924 265.698125) scale(0.12 -0.12)">
       <defs>
        <path id="DejaVuSans-34" d="M 2419 4116 
L 825 1625 
L 2419 1625 
L 2419 4116 
z
M 2253 4666 
L 3047 4666 
L 3047 1625 
L 3713 1625 
L 3713 1100 
L 3047 1100 
L 3047 0 
L 2419 0 
L 2419 1100 
L 313 1100 
L 313 1709 
L 2253 4666 
z
" transform="scale(0.015625)"/>
       </defs>
       <use xlink:href="#DejaVuSans-34"/>
       <use xlink:href="#DejaVuSans-30" x="63.623047"/>
       <use xlink:href="#DejaVuSans-30" x="127.246094"/>
      </g>
     </g>
    </g>
    <g id="xtick_6">
     <g id="line2d_16">
      <path d="M 368.23114 253.08 
L 368.23114 3.6 
" clip-path="url(#p7da771d719)" style="fill: none; stroke: #b0b0b0; stroke-width: 0.5; stroke-linecap: square"/>
     </g>
     <g id="line2d_17">
      <g>
       <use xlink:href="#mb1cb7e5f43" x="368.23114" y="253.08" style="stroke: #000000; stroke-width: 0.5"/>
      </g>
     </g>
     <g id="line2d_18">
      <g>
       <use xlink:href="#m88d240da68" x="368.23114" y="3.6" style="stroke: #000000; stroke-width: 0.5"/>
      </g>
     </g>
     <g id="text_6">
      <!-- 500 -->
      <g transform="translate(356.77864 265.698125) scale(0.12 -0.12)">
       <defs>
        <path id="DejaVuSans-35" d="M 691 4666 
L 3169 4666 
L 3169 4134 
L 1269 4134 
L 1269 2991 
Q 1406 3038 1543 3061 
Q 1681 3084 1819 3084 
Q 2600 3084 3056 2656 
Q 3513 2228 3513 1497 
Q 3513 744 3044 326 
Q 2575 -91 1722 -91 
Q 1428 -91 1123 -41 
Q 819 9 494 109 
L 494 744 
Q 775 591 1075 516 
Q 1375 441 1709 441 
Q 2250 441 2565 725 
Q 2881 1009 2881 1497 
Q 2881 1984 2565 2268 
Q 2250 2553 1709 2553 
Q 1456 2553 1204 2497 
Q 953 2441 691 2322 
L 691 4666 
z
" transform="scale(0.015625)"/>
       </defs>
       <use xlink:href="#DejaVuSans-35"/>
       <use xlink:href="#DejaVuSans-30" x="63.623047"/>
       <use xlink:href="#DejaVuSans-30" x="127.246094"/>
      </g>
     </g>
    </g>
    <g id="xtick_7">
     <g id="line2d_19">
      <defs>
       <path id="m9b222eb9ad" d="M 0 0 
L 0 -1.5 
" style="stroke: #000000; stroke-width: 0.5"/>
      </defs>
      <g>
       <use xlink:href="#m9b222eb9ad" x="51.058613" y="253.08" style="stroke: #000000; stroke-width: 0.5"/>
      </g>
     </g>
     <g id="line2d_20">
      <defs>
       <path id="m1d3adc3ddc" d="M 0 0 
L 0 1.5 
" style="stroke: #000000; stroke-width: 0.5"/>
      </defs>
      <g>
       <use xlink:href="#m1d3adc3ddc" x="51.058613" y="3.6" style="stroke: #000000; stroke-width: 0.5"/>
      </g>
     </g>
    </g>
    <g id="xtick_8">
     <g id="line2d_21">
      <g>
       <use xlink:href="#m9b222eb9ad" x="75.4565" y="253.08" style="stroke: #000000; stroke-width: 0.5"/>
      </g>
     </g>
     <g id="line2d_22">
      <g>
       <use xlink:href="#m1d3adc3ddc" x="75.4565" y="3.6" style="stroke: #000000; stroke-width: 0.5"/>
      </g>
     </g>
    </g>
    <g id="xtick_9">
     <g id="line2d_23">
      <g>
       <use xlink:href="#m9b222eb9ad" x="87.655444" y="253.08" style="stroke: #000000; stroke-width: 0.5"/>
      </g>
     </g>
     <g id="line2d_24">
      <g>
       <use xlink:href="#m1d3adc3ddc" x="87.655444" y="3.6" style="stroke: #000000; stroke-width: 0.5"/>
      </g>
     </g>
    </g>
    <g id="xtick_10">
     <g id="line2d_25">
      <g>
       <use xlink:href="#m9b222eb9ad" x="99.854387" y="253.08" style="stroke: #000000; stroke-width: 0.5"/>
      </g>
     </g>
     <g id="line2d_26">
      <g>
       <use xlink:href="#m1d3adc3ddc" x="99.854387" y="3.6" style="stroke: #000000; stroke-width: 0.5"/>
      </g>
     </g>
    </g>
    <g id="xtick_11">
     <g id="line2d_27">
      <g>
       <use xlink:href="#m9b222eb9ad" x="112.05333" y="253.08" style="stroke: #000000; stroke-width: 0.5"/>
      </g>
     </g>
     <g id="line2d_28">
      <g>
       <use xlink:href="#m1d3adc3ddc" x="112.05333" y="3.6" style="stroke: #000000; stroke-width: 0.5"/>
      </g>
     </g>
    </g>
    <g id="xtick_12">
     <g id="line2d_29">
      <g>
       <use xlink:href="#m9b222eb9ad" x="136.451217" y="253.08" style="stroke: #000000; stroke-width: 0.5"/>
      </g>
     </g>
     <g id="line2d_30">
      <g>
       <use xlink:href="#m1d3adc3ddc" x="136.451217" y="3.6" style="stroke: #000000; stroke-width: 0.5"/>
      </g>
     </g>
    </g>
    <g id="xtick_13">
     <g id="line2d_31">
      <g>
       <use xlink:href="#m9b222eb9ad" x="148.65016" y="253.08" style="stroke: #000000; stroke-width: 0.5"/>
      </g>
     </g>
     <g id="line2d_32">
      <g>
       <use xlink:href="#m1d3adc3ddc" x="148.65016" y="3.6" style="stroke: #000000; stroke-width: 0.5"/>
      </g>
     </g>
    </g>
    <g id="xtick_14">
     <g id="line2d_33">
      <g>
       <use xlink:href="#m9b222eb9ad" x="160.849104" y="253.08" style="stroke: #000000; stroke-width: 0.5"/>
      </g>
     </g>
     <g id="line2d_34">
      <g>
       <use xlink:href="#m1d3adc3ddc" x="160.849104" y="3.6" style="stroke: #000000; stroke-width: 0.5"/>
      </g>
     </g>
    </g>
    <g id="xtick_15">
     <g id="line2d_35">
      <g>
       <use xlink:href="#m9b222eb9ad" x="173.048047" y="253.08" style="stroke: #000000; stroke-width: 0.5"/>
      </g>
     </g>
     <g id="line2d_36">
      <g>
       <use xlink:href="#m1d3adc3ddc" x="173.048047" y="3.6" style="stroke: #000000; stroke-width: 0.5"/>
      </g>
     </g>
    </g>
    <g id="xtick_16">
     <g id="line2d_37">
      <g>
       <use xlink:href="#m9b222eb9ad" x="197.445934" y="253.08" style="stroke: #000000; stroke-width: 0.5"/>
      </g>
     </g>
     <g id="line2d_38">
      <g>
       <use xlink:href="#m1d3adc3ddc" x="197.445934" y="3.6" style="stroke: #000000; stroke-width: 0.5"/>
      </g>
     </g>
    </g>
    <g id="xtick_17">
     <g id="line2d_39">
      <g>
       <use xlink:href="#m9b222eb9ad" x="209.644877" y="253.08" style="stroke: #000000; stroke-width: 0.5"/>
      </g>
     </g>
     <g id="line2d_40">
      <g>
       <use xlink:href="#m1d3adc3ddc" x="209.644877" y="3.6" style="stroke: #000000; stroke-width: 0.5"/>
      </g>
     </g>
    </g>
    <g id="xtick_18">
     <g id="line2d_41">
      <g>
       <use xlink:href="#m9b222eb9ad" x="221.84382" y="253.08" style="stroke: #000000; stroke-width: 0.5"/>
      </g>
     </g>
     <g id="line2d_42">
      <g>
       <use xlink:href="#m1d3adc3ddc" x="221.84382" y="3.6" style="stroke: #000000; stroke-width: 0.5"/>
      </g>
     </g>
    </g>
    <g id="xtick_19">
     <g id="line2d_43">
      <g>
       <use xlink:href="#m9b222eb9ad" x="234.042764" y="253.08" style="stroke: #000000; stroke-width: 0.5"/>
      </g>
     </g>
     <g id="line2d_44">
      <g>
       <use xlink:href="#m1d3adc3ddc" x="234.042764" y="3.6" style="stroke: #000000; stroke-width: 0.5"/>
      </g>
     </g>
    </g>
    <g id="xtick_20">
     <g id="line2d_45">
      <g>
       <use xlink:href="#m9b222eb9ad" x="258.44065" y="253.08" style="stroke: #000000; stroke-width: 0.5"/>
      </g>
     </g>
     <g id="line2d_46">
      <g>
       <use xlink:href="#m1d3adc3ddc" x="258.44065" y="3.6" style="stroke: #000000; stroke-width: 0.5"/>
      </g>
     </g>
    </g>
    <g id="xtick_21">
     <g id="line2d_47">
      <g>
       <use xlink:href="#m9b222eb9ad" x="270.639594" y="253.08" style="stroke: #000000; stroke-width: 0.5"/>
      </g>
     </g>
     <g id="line2d_48">
      <g>
       <use xlink:href="#m1d3adc3ddc" x="270.639594" y="3.6" style="stroke: #000000; stroke-width: 0.5"/>
      </g>
     </g>
    </g>
    <g id="xtick_22">
     <g id="line2d_49">
      <g>
       <use xlink:href="#m9b222eb9ad" x="282.838537" y="253.08" style="stroke: #000000; stroke-width: 0.5"/>
      </g>
     </g>
     <g id="line2d_50">
      <g>
       <use xlink:href="#m1d3adc3ddc" x="282.838537" y="3.6" style="stroke: #000000; stroke-width: 0.5"/>
      </g>
     </g>
    </g>
    <g id="xtick_23">
     <g id="line2d_51">
      <g>
       <use xlink:href="#m9b222eb9ad" x="295.03748" y="253.08" style="stroke: #000000; stroke-width: 0.5"/>
      </g>
     </g>
     <g id="line2d_52">
      <g>
       <use xlink:href="#m1d3adc3ddc" x="295.03748" y="3.6" style="stroke: #000000; stroke-width: 0.5"/>
      </g>
     </g>
    </g>
    <g id="xtick_24">
     <g id="line2d_53">
      <g>
       <use xlink:href="#m9b222eb9ad" x="319.435367" y="253.08" style="stroke: #000000; stroke-width: 0.5"/>
      </g>
     </g>
     <g id="line2d_54">
      <g>
       <use xlink:href="#m1d3adc3ddc" x="319.435367" y="3.6" style="stroke: #000000; stroke-width: 0.5"/>
      </g>
     </g>
    </g>
    <g id="xtick_25">
     <g id="line2d_55">
      <g>
       <use xlink:href="#m9b222eb9ad" x="331.63431" y="253.08" style="stroke: #000000; stroke-width: 0.5"/>
      </g>
     </g>
     <g id="line2d_56">
      <g>
       <use xlink:href="#m1d3adc3ddc" x="331.63431" y="3.6" style="stroke: #000000; stroke-width: 0.5"/>
      </g>
     </g>
    </g>
    <g id="xtick_26">
     <g id="line2d_57">
      <g>
       <use xlink:href="#m9b222eb9ad" x="343.833254" y="253.08" style="stroke: #000000; stroke-width: 0.5"/>
      </g>
     </g>
     <g id="line2d_58">
      <g>
       <use xlink:href="#m1d3adc3ddc" x="343.833254" y="3.6" style="stroke: #000000; stroke-width: 0.5"/>
      </g>
     </g>
    </g>
    <g id="xtick_27">
     <g id="line2d_59">
      <g>
       <use xlink:href="#m9b222eb9ad" x="356.032197" y="253.08" style="stroke: #000000; stroke-width: 0.5"/>
      </g>
     </g>
     <g id="line2d_60">
      <g>
       <use xlink:href="#m1d3adc3ddc" x="356.032197" y="3.6" style="stroke: #000000; stroke-width: 0.5"/>
      </g>
     </g>
    </g>
    <g id="xtick_28">
     <g id="line2d_61">
      <g>
       <use xlink:href="#m9b222eb9ad" x="380.430084" y="253.08" style="stroke: #000000; stroke-width: 0.5"/>
      </g>
     </g>
     <g id="line2d_62">
      <g>
       <use xlink:href="#m1d3adc3ddc" x="380.430084" y="3.6" style="stroke: #000000; stroke-width: 0.5"/>
      </g>
     </g>
    </g>
    <g id="text_7">
     <!-- Generations -->
     <g transform="translate(178.842188 281.311875) scale(0.12 -0.12)">
      <defs>
       <path id="DejaVuSans-47" d="M 3809 666 
L 3809 1919 
L 2778 1919 
L 2778 2438 
L 4434 2438 
L 4434 434 
Q 4069 175 3628 42 
Q 3188 -91 2688 -91 
Q 1594 -91 976 548 
Q 359 1188 359 2328 
Q 359 3472 976 4111 
Q 1594 4750 2688 4750 
Q 3144 4750 3555 4637 
Q 3966 4525 4313 4306 
L 4313 3634 
Q 3963 3931 3569 4081 
Q 3175 4231 2741 4231 
Q 1884 4231 1454 3753 
Q 1025 3275 1025 2328 
Q 1025 1384 1454 906 
Q 1884 428 2741 428 
Q 3075 428 3337 486 
Q 3600 544 3809 666 
z
" transform="scale(0.015625)"/>
       <path id="DejaVuSans-65" d="M 3597 1894 
L 3597 1613 
L 953 1613 
Q 991 1019 1311 708 
Q 1631 397 2203 397 
Q 2534 397 2845 478 
Q 3156 559 3463 722 
L 3463 178 
Q 3153 47 2828 -22 
Q 2503 -91 2169 -91 
Q 1331 -91 842 396 
Q 353 884 353 1716 
Q 353 2575 817 3079 
Q 1281 3584 2069 3584 
Q 2775 3584 3186 3129 
Q 3597 2675 3597 1894 
z
M 3022 2063 
Q 3016 2534 2758 2815 
Q 2500 3097 2075 3097 
Q 1594 3097 1305 2825 
Q 1016 2553 972 2059 
L 3022 2063 
z
" transform="scale(0.015625)"/>
       <path id="DejaVuSans-6e" d="M 3513 2113 
L 3513 0 
L 2938 0 
L 2938 2094 
Q 2938 2591 2744 2837 
Q 2550 3084 2163 3084 
Q 1697 3084 1428 2787 
Q 1159 2491 1159 1978 
L 1159 0 
L 581 0 
L 581 3500 
L 1159 3500 
L 1159 2956 
Q 1366 3272 1645 3428 
Q 1925 3584 2291 3584 
Q 2894 3584 3203 3211 
Q 3513 2838 3513 2113 
z
" transform="scale(0.015625)"/>
       <path id="DejaVuSans-72" d="M 2631 2963 
Q 2534 3019 2420 3045 
Q 2306 3072 2169 3072 
Q 1681 3072 1420 2755 
Q 1159 2438 1159 1844 
L 1159 0 
L 581 0 
L 581 3500 
L 1159 3500 
L 1159 2956 
Q 1341 3275 1631 3429 
Q 1922 3584 2338 3584 
Q 2397 3584 2469 3576 
Q 2541 3569 2628 3553 
L 2631 2963 
z
" transform="scale(0.015625)"/>
       <path id="DejaVuSans-61" d="M 2194 1759 
Q 1497 1759 1228 1600 
Q 959 1441 959 1056 
Q 959 750 1161 570 
Q 1363 391 1709 391 
Q 2188 391 2477 730 
Q 2766 1069 2766 1631 
L 2766 1759 
L 2194 1759 
z
M 3341 1997 
L 3341 0 
L 2766 0 
L 2766 531 
Q 2569 213 2275 61 
Q 1981 -91 1556 -91 
Q 1019 -91 701 211 
Q 384 513 384 1019 
Q 384 1609 779 1909 
Q 1175 2209 1959 2209 
L 2766 2209 
L 2766 2266 
Q 2766 2663 2505 2880 
Q 2244 3097 1772 3097 
Q 1472 3097 1187 3025 
Q 903 2953 641 2809 
L 641 3341 
Q 956 3463 1253 3523 
Q 1550 3584 1831 3584 
Q 2591 3584 2966 3190 
Q 3341 2797 3341 1997 
z
" transform="scale(0.015625)"/>
       <path id="DejaVuSans-74" d="M 1172 4494 
L 1172 3500 
L 2356 3500 
L 2356 3053 
L 1172 3053 
L 1172 1153 
Q 1172 725 1289 603 
Q 1406 481 1766 481 
L 2356 481 
L 2356 0 
L 1766 0 
Q 1100 0 847 248 
Q 594 497 594 1153 
L 594 3053 
L 172 3053 
L 172 3500 
L 594 3500 
L 594 4494 
L 1172 4494 
z
" transform="scale(0.015625)"/>
       <path id="DejaVuSans-69" d="M 603 3500 
L 1178 3500 
L 1178 0 
L 603 0 
L 603 3500 
z
M 603 4863 
L 1178 4863 
L 1178 4134 
L 603 4134 
L 603 4863 
z
" transform="scale(0.015625)"/>
       <path id="DejaVuSans-6f" d="M 1959 3097 
Q 1497 3097 1228 2736 
Q 959 2375 959 1747 
Q 959 1119 1226 758 
Q 1494 397 1959 397 
Q 2419 397 2687 759 
Q 2956 1122 2956 1747 
Q 2956 2369 2687 2733 
Q 2419 3097 1959 3097 
z
M 1959 3584 
Q 2709 3584 3137 3096 
Q 3566 2609 3566 1747 
Q 3566 888 3137 398 
Q 2709 -91 1959 -91 
Q 1206 -91 779 398 
Q 353 888 353 1747 
Q 353 2609 779 3096 
Q 1206 3584 1959 3584 
z
" transform="scale(0.015625)"/>
       <path id="DejaVuSans-73" d="M 2834 3397 
L 2834 2853 
Q 2591 2978 2328 3040 
Q 2066 3103 1784 3103 
Q 1356 3103 1142 2972 
Q 928 2841 928 2578 
Q 928 2378 1081 2264 
Q 1234 2150 1697 2047 
L 1894 2003 
Q 2506 1872 2764 1633 
Q 3022 1394 3022 966 
Q 3022 478 2636 193 
Q 2250 -91 1575 -91 
Q 1294 -91 989 -36 
Q 684 19 347 128 
L 347 722 
Q 666 556 975 473 
Q 1284 391 1588 391 
Q 1994 391 2212 530 
Q 2431 669 2431 922 
Q 2431 1156 2273 1281 
Q 2116 1406 1581 1522 
L 1381 1569 
Q 847 1681 609 1914 
Q 372 2147 372 2553 
Q 372 3047 722 3315 
Q 1072 3584 1716 3584 
Q 2034 3584 2315 3537 
Q 2597 3491 2834 3397 
z
" transform="scale(0.015625)"/>
      </defs>
      <use xlink:href="#DejaVuSans-47"/>
      <use xlink:href="#DejaVuSans-65" x="77.490234"/>
      <use xlink:href="#DejaVuSans-6e" x="139.013672"/>
      <use xlink:href="#DejaVuSans-65" x="202.392578"/>
      <use xlink:href="#DejaVuSans-72" x="263.916016"/>
      <use xlink:href="#DejaVuSans-61" x="305.029297"/>
      <use xlink:href="#DejaVuSans-74" x="366.308594"/>
      <use xlink:href="#DejaVuSans-69" x="405.517578"/>
      <use xlink:href="#DejaVuSans-6f" x="433.300781"/>
      <use xlink:href="#DejaVuSans-6e" x="494.482422"/>
      <use xlink:href="#DejaVuSans-73" x="557.861328"/>
     </g>
    </g>
   </g>
   <g id="matplotlib.axis_2">
    <g id="ytick_1">
     <g id="line2d_63">
      <path d="M 48.039375 234.625901 
L 382.839375 234.625901 
" clip-path="url(#p7da771d719)" style="fill: none; stroke: #b0b0b0; stroke-width: 0.5; stroke-linecap: square"/>
     </g>
     <g id="line2d_64">
      <defs>
       <path id="m408175d812" d="M 0 0 
L 3 0 
" style="stroke: #000000; stroke-width: 0.5"/>
      </defs>
      <g>
       <use xlink:href="#m408175d812" x="48.039375" y="234.625901" style="stroke: #000000; stroke-width: 0.5"/>
      </g>
     </g>
     <g id="line2d_65">
      <defs>
       <path id="md0c6a0167e" d="M 0 0 
L -3 0 
" style="stroke: #000000; stroke-width: 0.5"/>
      </defs>
      <g>
       <use xlink:href="#md0c6a0167e" x="382.839375" y="234.625901" style="stroke: #000000; stroke-width: 0.5"/>
      </g>
     </g>
     <g id="text_8">
      <!-- −60 -->
      <g transform="translate(19.21375 239.184963) scale(0.12 -0.12)">
       <defs>
        <path id="DejaVuSans-2212" d="M 678 2272 
L 4684 2272 
L 4684 1741 
L 678 1741 
L 678 2272 
z
" transform="scale(0.015625)"/>
        <path id="DejaVuSans-36" d="M 2113 2584 
Q 1688 2584 1439 2293 
Q 1191 2003 1191 1497 
Q 1191 994 1439 701 
Q 1688 409 2113 409 
Q 2538 409 2786 701 
Q 3034 994 3034 1497 
Q 3034 2003 2786 2293 
Q 2538 2584 2113 2584 
z
M 3366 4563 
L 3366 3988 
Q 3128 4100 2886 4159 
Q 2644 4219 2406 4219 
Q 1781 4219 1451 3797 
Q 1122 3375 1075 2522 
Q 1259 2794 1537 2939 
Q 1816 3084 2150 3084 
Q 2853 3084 3261 2657 
Q 3669 2231 3669 1497 
Q 3669 778 3244 343 
Q 2819 -91 2113 -91 
Q 1303 -91 875 529 
Q 447 1150 447 2328 
Q 447 3434 972 4092 
Q 1497 4750 2381 4750 
Q 2619 4750 2861 4703 
Q 3103 4656 3366 4563 
z
" transform="scale(0.015625)"/>
       </defs>
       <use xlink:href="#DejaVuSans-2212"/>
       <use xlink:href="#DejaVuSans-36" x="83.789062"/>
       <use xlink:href="#DejaVuSans-30" x="147.412109"/>
      </g>
     </g>
    </g>
    <g id="ytick_2">
     <g id="line2d_66">
      <path d="M 48.039375 182.14681 
L 382.839375 182.14681 
" clip-path="url(#p7da771d719)" style="fill: none; stroke: #b0b0b0; stroke-width: 0.5; stroke-linecap: square"/>
     </g>
     <g id="line2d_67">
      <g>
       <use xlink:href="#m408175d812" x="48.039375" y="182.14681" style="stroke: #000000; stroke-width: 0.5"/>
      </g>
     </g>
     <g id="line2d_68">
      <g>
       <use xlink:href="#md0c6a0167e" x="382.839375" y="182.14681" style="stroke: #000000; stroke-width: 0.5"/>
      </g>
     </g>
     <g id="text_9">
      <!-- −40 -->
      <g transform="translate(19.21375 186.705872) scale(0.12 -0.12)">
       <use xlink:href="#DejaVuSans-2212"/>
       <use xlink:href="#DejaVuSans-34" x="83.789062"/>
       <use xlink:href="#DejaVuSans-30" x="147.412109"/>
      </g>
     </g>
    </g>
    <g id="ytick_3">
     <g id="line2d_69">
      <path d="M 48.039375 129.667718 
L 382.839375 129.667718 
" clip-path="url(#p7da771d719)" style="fill: none; stroke: #b0b0b0; stroke-width: 0.5; stroke-linecap: square"/>
     </g>
     <g id="line2d_70">
      <g>
       <use xlink:href="#m408175d812" x="48.039375" y="129.667718" style="stroke: #000000; stroke-width: 0.5"/>
      </g>
     </g>
     <g id="line2d_71">
      <g>
       <use xlink:href="#md0c6a0167e" x="382.839375" y="129.667718" style="stroke: #000000; stroke-width: 0.5"/>
      </g>
     </g>
     <g id="text_10">
      <!-- −20 -->
      <g transform="translate(19.21375 134.226781) scale(0.12 -0.12)">
       <use xlink:href="#DejaVuSans-2212"/>
       <use xlink:href="#DejaVuSans-32" x="83.789062"/>
       <use xlink:href="#DejaVuSans-30" x="147.412109"/>
      </g>
     </g>
    </g>
    <g id="ytick_4">
     <g id="line2d_72">
      <path d="M 48.039375 77.188627 
L 382.839375 77.188627 
" clip-path="url(#p7da771d719)" style="fill: none; stroke: #b0b0b0; stroke-width: 0.5; stroke-linecap: square"/>
     </g>
     <g id="line2d_73">
      <g>
       <use xlink:href="#m408175d812" x="48.039375" y="77.188627" style="stroke: #000000; stroke-width: 0.5"/>
      </g>
     </g>
     <g id="line2d_74">
      <g>
       <use xlink:href="#md0c6a0167e" x="382.839375" y="77.188627" style="stroke: #000000; stroke-width: 0.5"/>
      </g>
     </g>
     <g id="text_11">
      <!-- 0 -->
      <g transform="translate(36.904375 81.74769) scale(0.12 -0.12)">
       <use xlink:href="#DejaVuSans-30"/>
      </g>
     </g>
    </g>
    <g id="ytick_5">
     <g id="line2d_75">
      <path d="M 48.039375 24.709536 
L 382.839375 24.709536 
" clip-path="url(#p7da771d719)" style="fill: none; stroke: #b0b0b0; stroke-width: 0.5; stroke-linecap: square"/>
     </g>
     <g id="line2d_76">
      <g>
       <use xlink:href="#m408175d812" x="48.039375" y="24.709536" style="stroke: #000000; stroke-width: 0.5"/>
      </g>
     </g>
     <g id="line2d_77">
      <g>
       <use xlink:href="#md0c6a0167e" x="382.839375" y="24.709536" style="stroke: #000000; stroke-width: 0.5"/>
      </g>
     </g>
     <g id="text_12">
      <!-- 20 -->
      <g transform="translate(29.269375 29.268599) scale(0.12 -0.12)">
       <use xlink:href="#DejaVuSans-32"/>
       <use xlink:href="#DejaVuSans-30" x="63.623047"/>
      </g>
     </g>
    </g>
    <g id="ytick_6">
     <g id="line2d_78">
      <defs>
       <path id="m0032628ddf" d="M 0 0 
L 1.5 0 
" style="stroke: #000000; stroke-width: 0.5"/>
      </defs>
      <g>
       <use xlink:href="#m0032628ddf" x="48.039375" y="247.745674" style="stroke: #000000; stroke-width: 0.5"/>
      </g>
     </g>
     <g id="line2d_79">
      <defs>
       <path id="ma40a84d537" d="M 0 0 
L -1.5 0 
" style="stroke: #000000; stroke-width: 0.5"/>
      </defs>
      <g>
       <use xlink:href="#ma40a84d537" x="382.839375" y="247.745674" style="stroke: #000000; stroke-width: 0.5"/>
      </g>
     </g>
    </g>
    <g id="ytick_7">
     <g id="line2d_80">
      <g>
       <use xlink:href="#m0032628ddf" x="48.039375" y="221.506128" style="stroke: #000000; stroke-width: 0.5"/>
      </g>
     </g>
     <g id="line2d_81">
      <g>
       <use xlink:href="#ma40a84d537" x="382.839375" y="221.506128" style="stroke: #000000; stroke-width: 0.5"/>
      </g>
     </g>
    </g>
    <g id="ytick_8">
     <g id="line2d_82">
      <g>
       <use xlink:href="#m0032628ddf" x="48.039375" y="208.386355" style="stroke: #000000; stroke-width: 0.5"/>
      </g>
     </g>
     <g id="line2d_83">
      <g>
       <use xlink:href="#ma40a84d537" x="382.839375" y="208.386355" style="stroke: #000000; stroke-width: 0.5"/>
      </g>
     </g>
    </g>
    <g id="ytick_9">
     <g id="line2d_84">
      <g>
       <use xlink:href="#m0032628ddf" x="48.039375" y="195.266582" style="stroke: #000000; stroke-width: 0.5"/>
      </g>
     </g>
     <g id="line2d_85">
      <g>
       <use xlink:href="#ma40a84d537" x="382.839375" y="195.266582" style="stroke: #000000; stroke-width: 0.5"/>
      </g>
     </g>
    </g>
    <g id="ytick_10">
     <g id="line2d_86">
      <g>
       <use xlink:href="#m0032628ddf" x="48.039375" y="169.027037" style="stroke: #000000; stroke-width: 0.5"/>
      </g>
     </g>
     <g id="line2d_87">
      <g>
       <use xlink:href="#ma40a84d537" x="382.839375" y="169.027037" style="stroke: #000000; stroke-width: 0.5"/>
      </g>
     </g>
    </g>
    <g id="ytick_11">
     <g id="line2d_88">
      <g>
       <use xlink:href="#m0032628ddf" x="48.039375" y="155.907264" style="stroke: #000000; stroke-width: 0.5"/>
      </g>
     </g>
     <g id="line2d_89">
      <g>
       <use xlink:href="#ma40a84d537" x="382.839375" y="155.907264" style="stroke: #000000; stroke-width: 0.5"/>
      </g>
     </g>
    </g>
    <g id="ytick_12">
     <g id="line2d_90">
      <g>
       <use xlink:href="#m0032628ddf" x="48.039375" y="142.787491" style="stroke: #000000; stroke-width: 0.5"/>
      </g>
     </g>
     <g id="line2d_91">
      <g>
       <use xlink:href="#ma40a84d537" x="382.839375" y="142.787491" style="stroke: #000000; stroke-width: 0.5"/>
      </g>
     </g>
    </g>
    <g id="ytick_13">
     <g id="line2d_92">
      <g>
       <use xlink:href="#m0032628ddf" x="48.039375" y="116.547946" style="stroke: #000000; stroke-width: 0.5"/>
      </g>
     </g>
     <g id="line2d_93">
      <g>
       <use xlink:href="#ma40a84d537" x="382.839375" y="116.547946" style="stroke: #000000; stroke-width: 0.5"/>
      </g>
     </g>
    </g>
    <g id="ytick_14">
     <g id="line2d_94">
      <g>
       <use xlink:href="#m0032628ddf" x="48.039375" y="103.428173" style="stroke: #000000; stroke-width: 0.5"/>
      </g>
     </g>
     <g id="line2d_95">
      <g>
       <use xlink:href="#ma40a84d537" x="382.839375" y="103.428173" style="stroke: #000000; stroke-width: 0.5"/>
      </g>
     </g>
    </g>
    <g id="ytick_15">
     <g id="line2d_96">
      <g>
       <use xlink:href="#m0032628ddf" x="48.039375" y="90.3084" style="stroke: #000000; stroke-width: 0.5"/>
      </g>
     </g>
     <g id="line2d_97">
      <g>
       <use xlink:href="#ma40a84d537" x="382.839375" y="90.3084" style="stroke: #000000; stroke-width: 0.5"/>
      </g>
     </g>
    </g>
    <g id="ytick_16">
     <g id="line2d_98">
      <g>
       <use xlink:href="#m0032628ddf" x="48.039375" y="64.068854" style="stroke: #000000; stroke-width: 0.5"/>
      </g>
     </g>
     <g id="line2d_99">
      <g>
       <use xlink:href="#ma40a84d537" x="382.839375" y="64.068854" style="stroke: #000000; stroke-width: 0.5"/>
      </g>
     </g>
    </g>
    <g id="ytick_17">
     <g id="line2d_100">
      <g>
       <use xlink:href="#m0032628ddf" x="48.039375" y="50.949082" style="stroke: #000000; stroke-width: 0.5"/>
      </g>
     </g>
     <g id="line2d_101">
      <g>
       <use xlink:href="#ma40a84d537" x="382.839375" y="50.949082" style="stroke: #000000; stroke-width: 0.5"/>
      </g>
     </g>
    </g>
    <g id="ytick_18">
     <g id="line2d_102">
      <g>
       <use xlink:href="#m0032628ddf" x="48.039375" y="37.829309" style="stroke: #000000; stroke-width: 0.5"/>
      </g>
     </g>
     <g id="line2d_103">
      <g>
       <use xlink:href="#ma40a84d537" x="382.839375" y="37.829309" style="stroke: #000000; stroke-width: 0.5"/>
      </g>
     </g>
    </g>
    <g id="ytick_19">
     <g id="line2d_104">
      <g>
       <use xlink:href="#m0032628ddf" x="48.039375" y="11.589763" style="stroke: #000000; stroke-width: 0.5"/>
      </g>
     </g>
     <g id="line2d_105">
      <g>
       <use xlink:href="#ma40a84d537" x="382.839375" y="11.589763" style="stroke: #000000; stroke-width: 0.5"/>
      </g>
     </g>
    </g>
    <g id="text_13">
     <!-- Fitness -->
     <g transform="translate(12.718125 149.120625) rotate(-90) scale(0.12 -0.12)">
      <defs>
       <path id="DejaVuSans-46" d="M 628 4666 
L 3309 4666 
L 3309 4134 
L 1259 4134 
L 1259 2759 
L 3109 2759 
L 3109 2228 
L 1259 2228 
L 1259 0 
L 628 0 
L 628 4666 
z
" transform="scale(0.015625)"/>
      </defs>
      <use xlink:href="#DejaVuSans-46"/>
      <use xlink:href="#DejaVuSans-69" x="50.269531"/>
      <use xlink:href="#DejaVuSans-74" x="78.052734"/>
      <use xlink:href="#DejaVuSans-6e" x="117.261719"/>
      <use xlink:href="#DejaVuSans-65" x="180.640625"/>
      <use xlink:href="#DejaVuSans-73" x="242.164062"/>
      <use xlink:href="#DejaVuSans-73" x="294.263672"/>
     </g>
    </g>
   </g>
   <g id="line2d_106">
    <path d="M 63.257557 42.382119 
L 63.867504 37.690495 
L 66.91724 37.690452 
L 67.527187 35.55414 
L 68.747081 35.554194 
L 69.357028 28.367358 
L 72.406764 28.367341 
L 73.016711 26.173441 
L 77.896289 26.173405 
L 78.506236 25.414867 
L 79.116183 25.414825 
L 79.72613 23.530751 
L 82.775866 23.530717 
L 83.385813 22.220077 
L 85.215655 22.220079 
L 85.825602 21.839014 
L 87.045496 21.839014 
L 87.655444 20.8224 
L 94.97481 20.743873 
L 95.584757 20.604685 
L 96.194704 20.253447 
L 96.804651 19.573348 
L 99.24444 19.442958 
L 101.074281 19.442961 
L 101.684228 19.249751 
L 105.953859 19.249751 
L 106.563806 18.531163 
L 111.443383 18.531163 
L 112.05333 18.247627 
L 115.103066 18.247623 
L 115.713013 17.956822 
L 121.812485 17.887518 
L 123.032379 17.783875 
L 124.252274 17.777076 
L 124.862221 17.610205 
L 127.302009 17.610203 
L 127.911957 16.842026 
L 130.961692 16.786606 
L 131.57164 16.660642 
L 133.401481 16.558725 
L 134.011428 16.26524 
L 134.621375 16.265238 
L 135.231323 16.015603 
L 138.891006 15.946435 
L 140.1109 15.877075 
L 142.550689 15.83925 
L 143.160636 15.459304 
L 187.076832 15.354272 
L 190.126568 15.328377 
L 190.736515 15.328296 
L 191.346462 15.186139 
L 200.495669 15.105067 
L 201.715564 15.039192 
L 367.621193 14.94 
L 367.621193 14.94 
" clip-path="url(#p7da771d719)" style="fill: none; stroke: #000000; stroke-linecap: square"/>
   </g>
   <g id="line2d_107">
    <path d="M 63.257557 26.587215 
L 367.621193 26.587215 
L 367.621193 26.587215 
" clip-path="url(#p7da771d719)" style="fill: none; stroke-dasharray: 3.7,1.6; stroke-dashoffset: 0; stroke: #000000"/>
   </g>
   <g id="patch_3">
    <path d="M 48.039375 253.08 
L 48.039375 3.6 
" style="fill: none; stroke: #000000; stroke-width: 0.5; stroke-linejoin: miter; stroke-linecap: square"/>
   </g>
   <g id="patch_4">
    <path d="M 382.839375 253.08 
L 382.839375 3.6 
" style="fill: none; stroke: #000000; stroke-width: 0.5; stroke-linejoin: miter; stroke-linecap: square"/>
   </g>
   <g id="patch_5">
    <path d="M 48.039375 253.08 
L 382.839375 253.08 
" style="fill: none; stroke: #000000; stroke-width: 0.5; stroke-linejoin: miter; stroke-linecap: square"/>
   </g>
   <g id="patch_6">
    <path d="M 48.039375 3.6 
L 382.839375 3.6 
" style="fill: none; stroke: #000000; stroke-width: 0.5; stroke-linejoin: miter; stroke-linecap: square"/>
   </g>
   <g id="legend_1">
    <g id="patch_7">
     <path d="M 253.92 247.08 
L 374.439375 247.08 
Q 376.839375 247.08 376.839375 244.68 
L 376.839375 193.03875 
Q 376.839375 190.63875 374.439375 190.63875 
L 253.92 190.63875 
Q 251.52 190.63875 251.52 193.03875 
L 251.52 244.68 
Q 251.52 247.08 253.92 247.08 
z
" style="fill: #ffffff; opacity: 0.8; stroke: #cccccc; stroke-linejoin: miter"/>
    </g>
    <g id="line2d_108">
     <path d="M 256.32 200.356875 
L 268.32 200.356875 
L 280.32 200.356875 
" style="fill: none; stroke: #000000; stroke-linecap: square"/>
    </g>
    <g id="text_14">
     <!-- Best fitness -->
     <g transform="translate(289.92 204.556875) scale(0.12 -0.12)">
      <defs>
       <path id="DejaVuSans-42" d="M 1259 2228 
L 1259 519 
L 2272 519 
Q 2781 519 3026 730 
Q 3272 941 3272 1375 
Q 3272 1813 3026 2020 
Q 2781 2228 2272 2228 
L 1259 2228 
z
M 1259 4147 
L 1259 2741 
L 2194 2741 
Q 2656 2741 2882 2914 
Q 3109 3088 3109 3444 
Q 3109 3797 2882 3972 
Q 2656 4147 2194 4147 
L 1259 4147 
z
M 628 4666 
L 2241 4666 
Q 2963 4666 3353 4366 
Q 3744 4066 3744 3513 
Q 3744 3084 3544 2831 
Q 3344 2578 2956 2516 
Q 3422 2416 3680 2098 
Q 3938 1781 3938 1306 
Q 3938 681 3513 340 
Q 3088 0 2303 0 
L 628 0 
L 628 4666 
z
" transform="scale(0.015625)"/>
       <path id="DejaVuSans-20" transform="scale(0.015625)"/>
       <path id="DejaVuSans-66" d="M 2375 4863 
L 2375 4384 
L 1825 4384 
Q 1516 4384 1395 4259 
Q 1275 4134 1275 3809 
L 1275 3500 
L 2222 3500 
L 2222 3053 
L 1275 3053 
L 1275 0 
L 697 0 
L 697 3053 
L 147 3053 
L 147 3500 
L 697 3500 
L 697 3744 
Q 697 4328 969 4595 
Q 1241 4863 1831 4863 
L 2375 4863 
z
" transform="scale(0.015625)"/>
      </defs>
      <use xlink:href="#DejaVuSans-42"/>
      <use xlink:href="#DejaVuSans-65" x="68.603516"/>
      <use xlink:href="#DejaVuSans-73" x="130.126953"/>
      <use xlink:href="#DejaVuSans-74" x="182.226562"/>
      <use xlink:href="#DejaVuSans-20" x="221.435547"/>
      <use xlink:href="#DejaVuSans-66" x="253.222656"/>
      <use xlink:href="#DejaVuSans-69" x="288.427734"/>
      <use xlink:href="#DejaVuSans-74" x="316.210938"/>
      <use xlink:href="#DejaVuSans-6e" x="355.419922"/>
      <use xlink:href="#DejaVuSans-65" x="418.798828"/>
      <use xlink:href="#DejaVuSans-73" x="480.322266"/>
      <use xlink:href="#DejaVuSans-73" x="532.421875"/>
     </g>
    </g>
    <g id="patch_8">
     <path d="M 256.32 222.170625 
L 280.32 222.170625 
L 280.32 213.770625 
L 256.32 213.770625 
z
" style="fill: #0000ff; fill-opacity: 0.2; stroke: #0000ff; stroke-opacity: 0.2; stroke-linejoin: miter"/>
    </g>
    <g id="text_15">
     <!-- Top 90% -->
     <g transform="translate(289.92 222.170625) scale(0.12 -0.12)">
      <defs>
       <path id="DejaVuSans-54" d="M -19 4666 
L 3928 4666 
L 3928 4134 
L 2272 4134 
L 2272 0 
L 1638 0 
L 1638 4134 
L -19 4134 
L -19 4666 
z
" transform="scale(0.015625)"/>
       <path id="DejaVuSans-70" d="M 1159 525 
L 1159 -1331 
L 581 -1331 
L 581 3500 
L 1159 3500 
L 1159 2969 
Q 1341 3281 1617 3432 
Q 1894 3584 2278 3584 
Q 2916 3584 3314 3078 
Q 3713 2572 3713 1747 
Q 3713 922 3314 415 
Q 2916 -91 2278 -91 
Q 1894 -91 1617 61 
Q 1341 213 1159 525 
z
M 3116 1747 
Q 3116 2381 2855 2742 
Q 2594 3103 2138 3103 
Q 1681 3103 1420 2742 
Q 1159 2381 1159 1747 
Q 1159 1113 1420 752 
Q 1681 391 2138 391 
Q 2594 391 2855 752 
Q 3116 1113 3116 1747 
z
" transform="scale(0.015625)"/>
       <path id="DejaVuSans-39" d="M 703 97 
L 703 672 
Q 941 559 1184 500 
Q 1428 441 1663 441 
Q 2288 441 2617 861 
Q 2947 1281 2994 2138 
Q 2813 1869 2534 1725 
Q 2256 1581 1919 1581 
Q 1219 1581 811 2004 
Q 403 2428 403 3163 
Q 403 3881 828 4315 
Q 1253 4750 1959 4750 
Q 2769 4750 3195 4129 
Q 3622 3509 3622 2328 
Q 3622 1225 3098 567 
Q 2575 -91 1691 -91 
Q 1453 -91 1209 -44 
Q 966 3 703 97 
z
M 1959 2075 
Q 2384 2075 2632 2365 
Q 2881 2656 2881 3163 
Q 2881 3666 2632 3958 
Q 2384 4250 1959 4250 
Q 1534 4250 1286 3958 
Q 1038 3666 1038 3163 
Q 1038 2656 1286 2365 
Q 1534 2075 1959 2075 
z
" transform="scale(0.015625)"/>
       <path id="DejaVuSans-25" d="M 4653 2053 
Q 4381 2053 4226 1822 
Q 4072 1591 4072 1178 
Q 4072 772 4226 539 
Q 4381 306 4653 306 
Q 4919 306 5073 539 
Q 5228 772 5228 1178 
Q 5228 1588 5073 1820 
Q 4919 2053 4653 2053 
z
M 4653 2450 
Q 5147 2450 5437 2106 
Q 5728 1763 5728 1178 
Q 5728 594 5436 251 
Q 5144 -91 4653 -91 
Q 4153 -91 3862 251 
Q 3572 594 3572 1178 
Q 3572 1766 3864 2108 
Q 4156 2450 4653 2450 
z
M 1428 4353 
Q 1159 4353 1004 4120 
Q 850 3888 850 3481 
Q 850 3069 1003 2837 
Q 1156 2606 1428 2606 
Q 1700 2606 1854 2837 
Q 2009 3069 2009 3481 
Q 2009 3884 1853 4118 
Q 1697 4353 1428 4353 
z
M 4250 4750 
L 4750 4750 
L 1831 -91 
L 1331 -91 
L 4250 4750 
z
M 1428 4750 
Q 1922 4750 2215 4408 
Q 2509 4066 2509 3481 
Q 2509 2891 2217 2550 
Q 1925 2209 1428 2209 
Q 931 2209 642 2551 
Q 353 2894 353 3481 
Q 353 4063 643 4406 
Q 934 4750 1428 4750 
z
" transform="scale(0.015625)"/>
      </defs>
      <use xlink:href="#DejaVuSans-54"/>
      <use xlink:href="#DejaVuSans-6f" x="44.083984"/>
      <use xlink:href="#DejaVuSans-70" x="105.265625"/>
      <use xlink:href="#DejaVuSans-20" x="168.742188"/>
      <use xlink:href="#DejaVuSans-39" x="200.529297"/>
      <use xlink:href="#DejaVuSans-30" x="264.152344"/>
      <use xlink:href="#DejaVuSans-25" x="327.775391"/>
     </g>
    </g>
    <g id="line2d_109">
     <path d="M 256.32 235.584375 
L 268.32 235.584375 
L 280.32 235.584375 
" style="fill: none; stroke-dasharray: 3.7,1.6; stroke-dashoffset: 0; stroke: #000000"/>
    </g>
    <g id="text_16">
     <!-- 180mm Quad -->
     <g transform="translate(289.92 239.784375) scale(0.12 -0.12)">
      <defs>
       <path id="DejaVuSans-38" d="M 2034 2216 
Q 1584 2216 1326 1975 
Q 1069 1734 1069 1313 
Q 1069 891 1326 650 
Q 1584 409 2034 409 
Q 2484 409 2743 651 
Q 3003 894 3003 1313 
Q 3003 1734 2745 1975 
Q 2488 2216 2034 2216 
z
M 1403 2484 
Q 997 2584 770 2862 
Q 544 3141 544 3541 
Q 544 4100 942 4425 
Q 1341 4750 2034 4750 
Q 2731 4750 3128 4425 
Q 3525 4100 3525 3541 
Q 3525 3141 3298 2862 
Q 3072 2584 2669 2484 
Q 3125 2378 3379 2068 
Q 3634 1759 3634 1313 
Q 3634 634 3220 271 
Q 2806 -91 2034 -91 
Q 1263 -91 848 271 
Q 434 634 434 1313 
Q 434 1759 690 2068 
Q 947 2378 1403 2484 
z
M 1172 3481 
Q 1172 3119 1398 2916 
Q 1625 2713 2034 2713 
Q 2441 2713 2670 2916 
Q 2900 3119 2900 3481 
Q 2900 3844 2670 4047 
Q 2441 4250 2034 4250 
Q 1625 4250 1398 4047 
Q 1172 3844 1172 3481 
z
" transform="scale(0.015625)"/>
       <path id="DejaVuSans-6d" d="M 3328 2828 
Q 3544 3216 3844 3400 
Q 4144 3584 4550 3584 
Q 5097 3584 5394 3201 
Q 5691 2819 5691 2113 
L 5691 0 
L 5113 0 
L 5113 2094 
Q 5113 2597 4934 2840 
Q 4756 3084 4391 3084 
Q 3944 3084 3684 2787 
Q 3425 2491 3425 1978 
L 3425 0 
L 2847 0 
L 2847 2094 
Q 2847 2600 2669 2842 
Q 2491 3084 2119 3084 
Q 1678 3084 1418 2786 
Q 1159 2488 1159 1978 
L 1159 0 
L 581 0 
L 581 3500 
L 1159 3500 
L 1159 2956 
Q 1356 3278 1631 3431 
Q 1906 3584 2284 3584 
Q 2666 3584 2933 3390 
Q 3200 3197 3328 2828 
z
" transform="scale(0.015625)"/>
       <path id="DejaVuSans-51" d="M 2522 4238 
Q 1834 4238 1429 3725 
Q 1025 3213 1025 2328 
Q 1025 1447 1429 934 
Q 1834 422 2522 422 
Q 3209 422 3611 934 
Q 4013 1447 4013 2328 
Q 4013 3213 3611 3725 
Q 3209 4238 2522 4238 
z
M 3406 84 
L 4238 -825 
L 3475 -825 
L 2784 -78 
Q 2681 -84 2626 -87 
Q 2572 -91 2522 -91 
Q 1538 -91 948 567 
Q 359 1225 359 2328 
Q 359 3434 948 4092 
Q 1538 4750 2522 4750 
Q 3503 4750 4090 4092 
Q 4678 3434 4678 2328 
Q 4678 1516 4351 937 
Q 4025 359 3406 84 
z
" transform="scale(0.015625)"/>
       <path id="DejaVuSans-75" d="M 544 1381 
L 544 3500 
L 1119 3500 
L 1119 1403 
Q 1119 906 1312 657 
Q 1506 409 1894 409 
Q 2359 409 2629 706 
Q 2900 1003 2900 1516 
L 2900 3500 
L 3475 3500 
L 3475 0 
L 2900 0 
L 2900 538 
Q 2691 219 2414 64 
Q 2138 -91 1772 -91 
Q 1169 -91 856 284 
Q 544 659 544 1381 
z
M 1991 3584 
L 1991 3584 
z
" transform="scale(0.015625)"/>
       <path id="DejaVuSans-64" d="M 2906 2969 
L 2906 4863 
L 3481 4863 
L 3481 0 
L 2906 0 
L 2906 525 
Q 2725 213 2448 61 
Q 2172 -91 1784 -91 
Q 1150 -91 751 415 
Q 353 922 353 1747 
Q 353 2572 751 3078 
Q 1150 3584 1784 3584 
Q 2172 3584 2448 3432 
Q 2725 3281 2906 2969 
z
M 947 1747 
Q 947 1113 1208 752 
Q 1469 391 1925 391 
Q 2381 391 2643 752 
Q 2906 1113 2906 1747 
Q 2906 2381 2643 2742 
Q 2381 3103 1925 3103 
Q 1469 3103 1208 2742 
Q 947 2381 947 1747 
z
" transform="scale(0.015625)"/>
      </defs>
      <use xlink:href="#DejaVuSans-31"/>
      <use xlink:href="#DejaVuSans-38" x="63.623047"/>
      <use xlink:href="#DejaVuSans-30" x="127.246094"/>
      <use xlink:href="#DejaVuSans-6d" x="190.869141"/>
      <use xlink:href="#DejaVuSans-6d" x="288.28125"/>
      <use xlink:href="#DejaVuSans-20" x="385.693359"/>
      <use xlink:href="#DejaVuSans-51" x="417.480469"/>
      <use xlink:href="#DejaVuSans-75" x="496.191406"/>
      <use xlink:href="#DejaVuSans-61" x="559.570312"/>
      <use xlink:href="#DejaVuSans-64" x="620.849609"/>
     </g>
    </g>
   </g>
  </g>
 </g>
 <defs>
  <clipPath id="p7da771d719">
   <rect x="48.039375" y="3.6" width="334.8" height="249.48"/>
  </clipPath>
 </defs>
</svg>
