<?xml version="1.0" encoding="utf-8" standalone="no"?>
<!DOCTYPE svg PUBLIC "-//W3C//DTD SVG 1.1//EN"
  "http://www.w3.org/Graphics/SVG/1.1/DTD/svg11.dtd">
<svg xmlns:xlink="http://www.w3.org/1999/xlink" width="401.709375pt" height="287.4075pt" viewBox="0 0 401.709375 287.4075" xmlns="http://www.w3.org/2000/svg" version="1.1">
 <metadata>
  <rdf:RDF xmlns:dc="http://purl.org/dc/elements/1.1/" xmlns:cc="http://creativecommons.org/ns#" xmlns:rdf="http://www.w3.org/1999/02/22-rdf-syntax-ns#">
   <cc:Work>
    <dc:type rdf:resource="http://purl.org/dc/dcmitype/StillImage"/>
    <dc:date>2024-06-05T09:17:07.866474</dc:date>
    <dc:format>image/svg+xml</dc:format>
    <dc:creator>
     <cc:Agent>
      <dc:title>Matplotlib v3.9.0, https://matplotlib.org/</dc:title>
     </cc:Agent>
    </dc:creator>
   </cc:Work>
  </rdf:RDF>
 </metadata>
 <defs>
  <style type="text/css">*{stroke-linejoin: round; stroke-linecap: butt}</style>
 </defs>
 <g id="figure_1">
  <g id="patch_1">
   <path d="M 0 287.4075 
L 401.709375 287.4075 
L 401.709375 0 
L 0 0 
z
" style="fill: #ffffff"/>
  </g>
  <g id="axes_1">
   <g id="patch_2">
    <path d="M 63.309375 253.08 
L 398.109375 253.08 
L 398.109375 3.6 
L 63.309375 3.6 
z
" style="fill: #ffffff"/>
   </g>
   <g id="PolyCollection_1">
    <defs>
     <path id="mc0fbaf31b1" d="M 78.527557 -271.03308 
L 78.527557 -262.541686 
L 79.137504 -261.867237 
L 79.747451 -263.320925 
L 80.357398 -265.101832 
L 80.967345 -265.918068 
L 81.577293 -266.211041 
L 82.18724 -266.372597 
L 82.797187 -265.772726 
L 83.407134 -265.772726 
L 84.017081 -266.510462 
L 84.627028 -267.175959 
L 85.236976 -266.981925 
L 85.846923 -267.435486 
L 86.45687 -267.53941 
L 87.066817 -267.231297 
L 87.676764 -267.190708 
L 88.286711 -266.748001 
L 88.896659 -267.158755 
L 89.506606 -267.504227 
L 90.116553 -267.155311 
L 90.7265 -266.186965 
L 91.336447 -266.350359 
L 91.946394 -265.973226 
L 92.556342 -266.843992 
L 93.166289 -267.125648 
L 93.776236 -266.816274 
L 94.386183 -267.149277 
L 94.99613 -266.985946 
L 95.606077 -267.52087 
L 96.216025 -267.083187 
L 96.825972 -267.200297 
L 97.435919 -267.380873 
L 98.045866 -267.127688 
L 98.655813 -267.422292 
L 99.26576 -267.293532 
L 99.875708 -267.174111 
L 100.485655 -267.338057 
L 101.095602 -266.343972 
L 101.705549 -267.119089 
L 102.315496 -267.069356 
L 102.925444 -266.726179 
L 103.535391 -267.281642 
L 104.145338 -267.874196 
L 104.755285 -267.983122 
L 105.365232 -267.743205 
L 105.975179 -267.692765 
L 106.585127 -267.876675 
L 107.195074 -267.836808 
L 107.805021 -267.92942 
L 108.414968 -268.101058 
L 109.024915 -268.253561 
L 109.634862 -268.217231 
L 110.24481 -268.232703 
L 110.854757 -268.236719 
L 111.464704 -268.309022 
L 112.074651 -268.423572 
L 112.684598 -268.316551 
L 113.294545 -268.441537 
L 113.904493 -268.251624 
L 114.51444 -268.352692 
L 115.124387 -268.438832 
L 115.734334 -268.692928 
L 116.344281 -269.630987 
L 116.954228 -270.174892 
L 117.564176 -270.290128 
L 118.174123 -270.038695 
L 118.78407 -270.962675 
L 119.394017 -270.705216 
L 120.003964 -271.075726 
L 120.613911 -271.203064 
L 121.223859 -271.261142 
L 121.833806 -271.545533 
L 122.443753 -271.57838 
L 123.0537 -271.501565 
L 123.663647 -271.434105 
L 124.273594 -271.434102 
L 124.883542 -271.503571 
L 125.493489 -271.506113 
L 126.103436 -271.60422 
L 126.713383 -271.64069 
L 127.32333 -271.650129 
L 127.933277 -271.712559 
L 128.543225 -271.789815 
L 129.153172 -271.860984 
L 129.763119 -271.673187 
L 130.373066 -271.793919 
L 130.983013 -271.741495 
L 131.59296 -271.623534 
L 132.202908 -271.80358 
L 132.812855 -271.848131 
L 133.422802 -271.857053 
L 134.032749 -271.847111 
L 134.642696 -271.869366 
L 135.252643 -271.851574 
L 135.862591 -271.859137 
L 136.472538 -271.854216 
L 137.082485 -271.917255 
L 137.692432 -271.860732 
L 138.302379 -271.896918 
L 138.912326 -271.846311 
L 139.522274 -271.859664 
L 140.132221 -271.875843 
L 140.742168 -271.867426 
L 141.352115 -271.903172 
L 141.962062 -271.936013 
L 142.572009 -271.907606 
L 143.181957 -271.971377 
L 143.791904 -271.930115 
L 144.401851 -271.960936 
L 145.011798 -271.950594 
L 145.621745 -271.928903 
L 146.231692 -271.865359 
L 146.84164 -271.949426 
L 147.451587 -271.980509 
L 148.061534 -271.923996 
L 148.671481 -271.898408 
L 149.281428 -271.888598 
L 149.891375 -271.863267 
L 150.501323 -271.811043 
L 151.11127 -271.846617 
L 151.721217 -271.914525 
L 152.331164 -271.889556 
L 152.941111 -271.998272 
L 153.551058 -271.998272 
L 154.161006 -271.976713 
L 154.770953 -271.965146 
L 155.3809 -271.929927 
L 155.990847 -271.929309 
L 156.600794 -271.946863 
L 157.210741 -271.881217 
L 157.820689 -271.85732 
L 158.430636 -271.85732 
L 159.040583 -271.796203 
L 159.65053 -271.843151 
L 160.260477 -271.873216 
L 160.870424 -271.93654 
L 161.480372 -271.883157 
L 162.090319 -271.865952 
L 162.700266 -271.866138 
L 163.310213 -271.849498 
L 163.92016 -271.920787 
L 164.530107 -271.922987 
L 165.140055 -271.85429 
L 165.750002 -271.832299 
L 166.359949 -271.766749 
L 166.969896 -271.825521 
L 167.579843 -271.874504 
L 168.18979 -271.801933 
L 168.799738 -271.757919 
L 169.409685 -271.716674 
L 170.019632 -271.760017 
L 170.629579 -271.780429 
L 171.239526 -271.837357 
L 171.849473 -271.837858 
L 172.459421 -271.841779 
L 173.069368 -271.963837 
L 173.679315 -272.018056 
L 174.289262 -272.01653 
L 174.899209 -272.00672 
L 175.509156 -271.860433 
L 176.119104 -271.720324 
L 176.729051 -271.908086 
L 177.338998 -271.900448 
L 177.948945 -271.997104 
L 178.558892 -271.969728 
L 179.168839 -271.967641 
L 179.778787 -271.946061 
L 180.388734 -271.948813 
L 180.998681 -272.019914 
L 181.608628 -271.93334 
L 182.218575 -271.926721 
L 182.828522 -271.877998 
L 183.43847 -271.837552 
L 184.048417 -271.831792 
L 184.658364 -271.840796 
L 185.268311 -271.922677 
L 185.878258 -271.905316 
L 186.488205 -271.884599 
L 187.098153 -271.864918 
L 187.7081 -271.86918 
L 188.318047 -271.87236 
L 188.927994 -271.834593 
L 189.537941 -271.891823 
L 190.147888 -271.899433 
L 190.757836 -271.921969 
L 191.367783 -271.933014 
L 191.97773 -271.980184 
L 192.587677 -271.950031 
L 193.197624 -271.976563 
L 193.807571 -272.015183 
L 194.417519 -271.98648 
L 195.027466 -271.963822 
L 195.637413 -271.916081 
L 196.24736 -271.89568 
L 196.857307 -271.830156 
L 197.467254 -271.876427 
L 198.077202 -271.895679 
L 198.687149 -271.967066 
L 199.297096 -271.967067 
L 199.907043 -272.032863 
L 200.51699 -272.056731 
L 201.126937 -272.035562 
L 201.736885 -271.925527 
L 202.346832 -271.909881 
L 202.956779 -271.992753 
L 203.566726 -271.987387 
L 204.176673 -272.038719 
L 204.78662 -272.000044 
L 205.396568 -272.027941 
L 206.006515 -272.040172 
L 206.616462 -272.024162 
L 207.226409 -272.048065 
L 207.836356 -272.056761 
L 208.446303 -272.027942 
L 209.056251 -271.990543 
L 209.666198 -272.022991 
L 210.276145 -272.038162 
L 210.886092 -272.034955 
L 211.496039 -272.000349 
L 212.105986 -272.05676 
L 212.715934 -272.024875 
L 213.325881 -271.925353 
L 213.935828 -271.854587 
L 214.545775 -271.927296 
L 215.155722 -271.934925 
L 215.765669 -271.94108 
L 216.375617 -271.909621 
L 216.985564 -271.874889 
L 217.595511 -271.94802 
L 218.205458 -272.01841 
L 218.815405 -272.016981 
L 219.425352 -271.984687 
L 220.0353 -272.02907 
L 220.645247 -272.034592 
L 221.255194 -272.07413 
L 221.865141 -272.124464 
L 222.475088 -272.144202 
L 223.085035 -272.124258 
L 223.694983 -272.108474 
L 224.30493 -272.06787 
L 224.914877 -272.100339 
L 225.524824 -272.104028 
L 226.134771 -272.056279 
L 226.744718 -272.056281 
L 227.354666 -271.981103 
L 227.964613 -271.992612 
L 228.57456 -271.963408 
L 229.184507 -272.001375 
L 229.794454 -272.079336 
L 230.404401 -272.106935 
L 231.014349 -272.03258 
L 231.624296 -272.103191 
L 232.234243 -272.103191 
L 232.84419 -272.072028 
L 233.454137 -272.099299 
L 234.064084 -272.079483 
L 234.674032 -272.068959 
L 235.283979 -272.0225 
L 235.893926 -272.094271 
L 236.503873 -272.103186 
L 237.11382 -272.101379 
L 237.723767 -272.084698 
L 238.333715 -272.10319 
L 238.943662 -272.096765 
L 239.553609 -272.165884 
L 240.163556 -272.179602 
L 240.773503 -272.156857 
L 241.38345 -272.120465 
L 241.993398 -272.112314 
L 242.603345 -271.998534 
L 243.213292 -272.020479 
L 243.823239 -272.024064 
L 244.433186 -272.086639 
L 245.043133 -272.050822 
L 245.653081 -272.069043 
L 246.263028 -272.099712 
L 246.872975 -272.138907 
L 247.482922 -272.19028 
L 248.092869 -272.206981 
L 248.702816 -272.202558 
L 249.312764 -272.218399 
L 249.922711 -272.224202 
L 250.532658 -272.196823 
L 251.142605 -272.127165 
L 251.752552 -272.064589 
L 252.362499 -272.064589 
L 252.972447 -272.117637 
L 253.582394 -272.06459 
L 254.192341 -272.168816 
L 254.802288 -272.118846 
L 255.412235 -272.168425 
L 256.022182 -272.16889 
L 256.63213 -272.106483 
L 257.242077 -272.174387 
L 257.852024 -272.174543 
L 258.461971 -272.205191 
L 259.071918 -272.214393 
L 259.681865 -272.238511 
L 260.291813 -272.214562 
L 260.90176 -272.16471 
L 261.511707 -272.087759 
L 262.121654 -272.101208 
L 262.731601 -272.114629 
L 263.341548 -272.159559 
L 263.951496 -272.182546 
L 264.561443 -272.20681 
L 265.17139 -272.206811 
L 265.781337 -272.206811 
L 266.391284 -272.153027 
L 267.001231 -272.15397 
L 267.611179 -272.062358 
L 268.221126 -272.110342 
L 268.831073 -272.068451 
L 269.44102 -272.064649 
L 270.050967 -272.019374 
L 270.660914 -272.036757 
L 271.270862 -272.022673 
L 271.880809 -272.067608 
L 272.490756 -272.122675 
L 273.100703 -272.188927 
L 273.71065 -272.188927 
L 274.320597 -272.152783 
L 274.930545 -272.161258 
L 275.540492 -272.200403 
L 276.150439 -272.165582 
L 276.760386 -272.168511 
L 277.370333 -272.037144 
L 277.98028 -272.045891 
L 278.590228 -272.127846 
L 279.200175 -272.141563 
L 279.810122 -272.158274 
L 280.420069 -272.099267 
L 281.030016 -271.964481 
L 281.639963 -272.146645 
L 282.249911 -272.153146 
L 282.859858 -272.147512 
L 283.469805 -272.166971 
L 284.079752 -272.17778 
L 284.689699 -272.173605 
L 285.299646 -272.134788 
L 285.909594 -272.273407 
L 286.519541 -272.270514 
L 287.129488 -272.187625 
L 287.739435 -272.17719 
L 288.349382 -272.249961 
L 288.959329 -272.138193 
L 289.569277 -272.099186 
L 290.179224 -272.035532 
L 290.789171 -272.063013 
L 291.399118 -272.085022 
L 292.009065 -272.00839 
L 292.619012 -271.991429 
L 293.22896 -271.911884 
L 293.838907 -271.886307 
L 294.448854 -271.954444 
L 295.058801 -271.915042 
L 295.668748 -271.967692 
L 296.278695 -272.016785 
L 296.888643 -272.089993 
L 297.49859 -272.100394 
L 298.108537 -271.991292 
L 298.718484 -272.052633 
L 299.328431 -272.004819 
L 299.938378 -272.002925 
L 300.548326 -271.93228 
L 301.158273 -271.987504 
L 301.76822 -271.988905 
L 302.378167 -271.993149 
L 302.988114 -272.038921 
L 303.598061 -272.048174 
L 304.208009 -271.973066 
L 304.817956 -271.964129 
L 305.427903 -271.907964 
L 306.03785 -271.973888 
L 306.647797 -271.969172 
L 307.257744 -271.975951 
L 307.867692 -271.975951 
L 308.477639 -271.975951 
L 309.087586 -271.963499 
L 309.697533 -272.076793 
L 310.30748 -272.079365 
L 310.917427 -272.079368 
L 311.527375 -272.178809 
L 312.137322 -272.1908 
L 312.747269 -272.166965 
L 313.357216 -272.11029 
L 313.967163 -272.196125 
L 314.57711 -272.222336 
L 315.187058 -272.209282 
L 315.797005 -272.209282 
L 316.406952 -272.20928 
L 317.016899 -272.193078 
L 317.626846 -272.137597 
L 318.236793 -272.135981 
L 318.846741 -272.205848 
L 319.456688 -272.16444 
L 320.066635 -272.138105 
L 320.676582 -271.960089 
L 321.286529 -272.219144 
L 321.896476 -272.221989 
L 322.506424 -272.157931 
L 323.116371 -272.146856 
L 323.726318 -272.065495 
L 324.336265 -272.079556 
L 324.946212 -272.133865 
L 325.556159 -272.077076 
L 326.166107 -272.081595 
L 326.776054 -272.128762 
L 327.386001 -272.149386 
L 327.995948 -272.134935 
L 328.605895 -272.101592 
L 329.215842 -272.180255 
L 329.82579 -272.180256 
L 330.435737 -272.190438 
L 331.045684 -272.145049 
L 331.655631 -272.198754 
L 332.265578 -272.179647 
L 332.875525 -272.203852 
L 333.485473 -272.118427 
L 334.09542 -272.136794 
L 334.705367 -272.172718 
L 335.315314 -272.080364 
L 335.925261 -272.043047 
L 336.535208 -272.104546 
L 337.145156 -272.053007 
L 337.755103 -272.091991 
L 338.36505 -272.132992 
L 338.974997 -272.117222 
L 339.584944 -272.104514 
L 340.194891 -272.042186 
L 340.804839 -272.141997 
L 341.414786 -272.04642 
L 342.024733 -272.07041 
L 342.63468 -272.070779 
L 343.244627 -272.04013 
L 343.854574 -272.122749 
L 344.464522 -272.111512 
L 345.074469 -272.100719 
L 345.684416 -272.127436 
L 346.294363 -272.060031 
L 346.90431 -272.114181 
L 347.514257 -272.073519 
L 348.124205 -272.149013 
L 348.734152 -272.002385 
L 349.344099 -272.001136 
L 349.954046 -272.062388 
L 350.563993 -272.073518 
L 351.17394 -272.127209 
L 351.783888 -272.106951 
L 352.393835 -272.115486 
L 353.003782 -272.139677 
L 353.613729 -272.152972 
L 354.223676 -272.112463 
L 354.833623 -272.139677 
L 355.443571 -272.117056 
L 356.053518 -272.117055 
L 356.663465 -272.124389 
L 357.273412 -272.189601 
L 357.883359 -272.184036 
L 358.493306 -272.0754 
L 359.103254 -272.120018 
L 359.713201 -272.12968 
L 360.323148 -272.120397 
L 360.933095 -272.124132 
L 361.543042 -272.066065 
L 362.15299 -271.917335 
L 362.762937 -271.999353 
L 363.372884 -271.90645 
L 363.982831 -271.983269 
L 364.592778 -272.076838 
L 365.202725 -272.105634 
L 365.812673 -272.154672 
L 366.42262 -272.146143 
L 367.032567 -272.193513 
L 367.642514 -272.226593 
L 368.252461 -272.235091 
L 368.862408 -272.225786 
L 369.472356 -272.216221 
L 370.082303 -272.20528 
L 370.69225 -272.21912 
L 371.302197 -272.092084 
L 371.912144 -272.070299 
L 372.522091 -272.105294 
L 373.132039 -272.10177 
L 373.741986 -272.022089 
L 374.351933 -272.058189 
L 374.96188 -272.123808 
L 375.571827 -272.115451 
L 376.181774 -272.137346 
L 376.791722 -272.149409 
L 377.401669 -272.159193 
L 378.011616 -272.208777 
L 378.621563 -272.155158 
L 379.23151 -272.167982 
L 379.841457 -272.19495 
L 380.451405 -272.163221 
L 381.061352 -272.272819 
L 381.671299 -272.264427 
L 382.281246 -272.264427 
L 382.891193 -272.242765 
L 382.891193 -272.4675 
L 382.891193 -272.4675 
L 382.281246 -272.4675 
L 381.671299 -272.4675 
L 381.061352 -272.4675 
L 380.451405 -272.4675 
L 379.841457 -272.4675 
L 379.23151 -272.4675 
L 378.621563 -272.4675 
L 378.011616 -272.4675 
L 377.401669 -272.4675 
L 376.791722 -272.467499 
L 376.181774 -272.4675 
L 375.571827 -272.4675 
L 374.96188 -272.467499 
L 374.351933 -272.4675 
L 373.741986 -272.467499 
L 373.132039 -272.4675 
L 372.522091 -272.467499 
L 371.912144 -272.4675 
L 371.302197 -272.4675 
L 370.69225 -272.467499 
L 370.082303 -272.467499 
L 369.472356 -272.467499 
L 368.862408 -272.467497 
L 368.252461 -272.467498 
L 367.642514 -272.467497 
L 367.032567 -272.467478 
L 366.42262 -272.467475 
L 365.812673 -272.467474 
L 365.202725 -272.467474 
L 364.592778 -272.467474 
L 363.982831 -272.467472 
L 363.372884 -272.467304 
L 362.762937 -272.467304 
L 362.15299 -272.467302 
L 361.543042 -272.467304 
L 360.933095 -272.467303 
L 360.323148 -272.467303 
L 359.713201 -272.467303 
L 359.103254 -272.467304 
L 358.493306 -272.467304 
L 357.883359 -272.467303 
L 357.273412 -272.467302 
L 356.663465 -272.467302 
L 356.053518 -272.467304 
L 355.443571 -272.467303 
L 354.833623 -272.467304 
L 354.223676 -272.467304 
L 353.613729 -272.467303 
L 353.003782 -272.467303 
L 352.393835 -272.467302 
L 351.783888 -272.467302 
L 351.17394 -272.467301 
L 350.563993 -272.467298 
L 349.954046 -272.467302 
L 349.344099 -272.466765 
L 348.734152 -272.466766 
L 348.124205 -272.466766 
L 347.514257 -272.466766 
L 346.90431 -272.466766 
L 346.294363 -272.466764 
L 345.684416 -272.466764 
L 345.074469 -272.466764 
L 344.464522 -272.466765 
L 343.854574 -272.466763 
L 343.244627 -272.466766 
L 342.63468 -272.466765 
L 342.024733 -272.466765 
L 341.414786 -272.466763 
L 340.804839 -272.466766 
L 340.194891 -272.466763 
L 339.584944 -272.466763 
L 338.974997 -272.466764 
L 338.36505 -272.466764 
L 337.755103 -272.466762 
L 337.145156 -272.466763 
L 336.535208 -272.466761 
L 335.925261 -272.466761 
L 335.315314 -272.466766 
L 334.705367 -272.466759 
L 334.09542 -272.466759 
L 333.485473 -272.461923 
L 332.875525 -272.461923 
L 332.265578 -272.461923 
L 331.655631 -272.461923 
L 331.045684 -272.461923 
L 330.435737 -272.461923 
L 329.82579 -272.461923 
L 329.215842 -272.461923 
L 328.605895 -272.461923 
L 327.995948 -272.461923 
L 327.386001 -272.461923 
L 326.776054 -272.461923 
L 326.166107 -272.461923 
L 325.556159 -272.461923 
L 324.946212 -272.461923 
L 324.336265 -272.461923 
L 323.726318 -272.461923 
L 323.116371 -272.461923 
L 322.506424 -272.461923 
L 321.896476 -272.461923 
L 321.286529 -272.461923 
L 320.676582 -272.461923 
L 320.066635 -272.461923 
L 319.456688 -272.461923 
L 318.846741 -272.461923 
L 318.236793 -272.461923 
L 317.626846 -272.461923 
L 317.016899 -272.461923 
L 316.406952 -272.461923 
L 315.797005 -272.461923 
L 315.187058 -272.461922 
L 314.57711 -272.46192 
L 313.967163 -272.460102 
L 313.357216 -272.460102 
L 312.747269 -272.460102 
L 312.137322 -272.460102 
L 311.527375 -272.460102 
L 310.917427 -272.460102 
L 310.30748 -272.460102 
L 309.697533 -272.460102 
L 309.087586 -272.460102 
L 308.477639 -272.460102 
L 307.867692 -272.460102 
L 307.257744 -272.460102 
L 306.647797 -272.460102 
L 306.03785 -272.460102 
L 305.427903 -272.460102 
L 304.817956 -272.460102 
L 304.208009 -272.460102 
L 303.598061 -272.460102 
L 302.988114 -272.460102 
L 302.378167 -272.460102 
L 301.76822 -272.460102 
L 301.158273 -272.460102 
L 300.548326 -272.460102 
L 299.938378 -272.460102 
L 299.328431 -272.460102 
L 298.718484 -272.460101 
L 298.108537 -272.460101 
L 297.49859 -272.4601 
L 296.888643 -272.460096 
L 296.278695 -272.460099 
L 295.668748 -272.460101 
L 295.058801 -272.460101 
L 294.448854 -272.460094 
L 293.838907 -272.458773 
L 293.22896 -272.458775 
L 292.619012 -272.458773 
L 292.009065 -272.458776 
L 291.399118 -272.458774 
L 290.789171 -272.458773 
L 290.179224 -272.458774 
L 289.569277 -272.458774 
L 288.959329 -272.458774 
L 288.349382 -272.458772 
L 287.739435 -272.458774 
L 287.129488 -272.458771 
L 286.519541 -272.458771 
L 285.909594 -272.458773 
L 285.299646 -272.458371 
L 284.689699 -272.458372 
L 284.079752 -272.458372 
L 283.469805 -272.458231 
L 282.859858 -272.458231 
L 282.249911 -272.456166 
L 281.639963 -272.456166 
L 281.030016 -272.456162 
L 280.420069 -272.455075 
L 279.810122 -272.452851 
L 279.200175 -272.452852 
L 278.590228 -272.452852 
L 277.98028 -272.452852 
L 277.370333 -272.452852 
L 276.760386 -272.448192 
L 276.150439 -272.448195 
L 275.540492 -272.44618 
L 274.930545 -272.446178 
L 274.320597 -272.446174 
L 273.71065 -272.43957 
L 273.100703 -272.439569 
L 272.490756 -272.439565 
L 271.880809 -272.439569 
L 271.270862 -272.439569 
L 270.660914 -272.439008 
L 270.050967 -272.439008 
L 269.44102 -272.439008 
L 268.831073 -272.439008 
L 268.221126 -272.439009 
L 267.611179 -272.439008 
L 267.001231 -272.439008 
L 266.391284 -272.439008 
L 265.781337 -272.439009 
L 265.17139 -272.439008 
L 264.561443 -272.439008 
L 263.951496 -272.439008 
L 263.341548 -272.439008 
L 262.731601 -272.439008 
L 262.121654 -272.439007 
L 261.511707 -272.439009 
L 260.90176 -272.439008 
L 260.291813 -272.439008 
L 259.681865 -272.439007 
L 259.071918 -272.439007 
L 258.461971 -272.439006 
L 257.852024 -272.439007 
L 257.242077 -272.439005 
L 256.63213 -272.439004 
L 256.022182 -272.427782 
L 255.412235 -272.427781 
L 254.802288 -272.427783 
L 254.192341 -272.427781 
L 253.582394 -272.427782 
L 252.972447 -272.427782 
L 252.362499 -272.427781 
L 251.752552 -272.427782 
L 251.142605 -272.427776 
L 250.532658 -272.421471 
L 249.922711 -272.421472 
L 249.312764 -272.421472 
L 248.702816 -272.421471 
L 248.092869 -272.42147 
L 247.482922 -272.421471 
L 246.872975 -272.421463 
L 246.263028 -272.421471 
L 245.653081 -272.418236 
L 245.043133 -272.418235 
L 244.433186 -272.418235 
L 243.823239 -272.418235 
L 243.213292 -272.418236 
L 242.603345 -272.418234 
L 241.993398 -272.418236 
L 241.38345 -272.418236 
L 240.773503 -272.418234 
L 240.163556 -272.418235 
L 239.553609 -272.418235 
L 238.943662 -272.418235 
L 238.333715 -272.418234 
L 237.723767 -272.391115 
L 237.11382 -272.391114 
L 236.503873 -272.391115 
L 235.893926 -272.391114 
L 235.283979 -272.391113 
L 234.674032 -272.391113 
L 234.064084 -272.391108 
L 233.454137 -272.391113 
L 232.84419 -272.391107 
L 232.234243 -272.3763 
L 231.624296 -272.376297 
L 231.014349 -272.376296 
L 230.404401 -272.376296 
L 229.794454 -272.376298 
L 229.184507 -272.376293 
L 228.57456 -272.3763 
L 227.964613 -272.376296 
L 227.354666 -272.376295 
L 226.744718 -272.376296 
L 226.134771 -272.376031 
L 225.524824 -272.37603 
L 224.914877 -272.376031 
L 224.30493 -272.376026 
L 223.694983 -272.376032 
L 223.085035 -272.37603 
L 222.475088 -272.376032 
L 221.865141 -272.376032 
L 221.255194 -272.376028 
L 220.645247 -272.376027 
L 220.0353 -272.376025 
L 219.425352 -272.376025 
L 218.815405 -272.376031 
L 218.205458 -272.376026 
L 217.595511 -272.360691 
L 216.985564 -272.360693 
L 216.375617 -272.360691 
L 215.765669 -272.360691 
L 215.155722 -272.36069 
L 214.545775 -272.36069 
L 213.935828 -272.360691 
L 213.325881 -272.357608 
L 212.715934 -272.35396 
L 212.105986 -272.353959 
L 211.496039 -272.35396 
L 210.886092 -272.35396 
L 210.276145 -272.35396 
L 209.666198 -272.353959 
L 209.056251 -272.35396 
L 208.446303 -272.353957 
L 207.836356 -272.353956 
L 207.226409 -272.353956 
L 206.616462 -272.352967 
L 206.006515 -272.352965 
L 205.396568 -272.352965 
L 204.78662 -272.352958 
L 204.176673 -272.34025 
L 203.566726 -272.340251 
L 202.956779 -272.34025 
L 202.346832 -272.340253 
L 201.736885 -272.340248 
L 201.126937 -272.340249 
L 200.51699 -272.340249 
L 199.907043 -272.340249 
L 199.297096 -272.340249 
L 198.687149 -272.336427 
L 198.077202 -272.332827 
L 197.467254 -272.332826 
L 196.857307 -272.332825 
L 196.24736 -272.332827 
L 195.637413 -272.332827 
L 195.027466 -272.332826 
L 194.417519 -272.332821 
L 193.807571 -272.332821 
L 193.197624 -272.332822 
L 192.587677 -272.332823 
L 191.97773 -272.332825 
L 191.367783 -272.332825 
L 190.757836 -272.332822 
L 190.147888 -272.332823 
L 189.537941 -272.324648 
L 188.927994 -272.324648 
L 188.318047 -272.324647 
L 187.7081 -272.324647 
L 187.098153 -272.324648 
L 186.488205 -272.324647 
L 185.878258 -272.324647 
L 185.268311 -272.324645 
L 184.658364 -272.324647 
L 184.048417 -272.324645 
L 183.43847 -272.324644 
L 182.828522 -272.324647 
L 182.218575 -272.324647 
L 181.608628 -272.324646 
L 180.998681 -272.324647 
L 180.388734 -272.324646 
L 179.778787 -272.324647 
L 179.168839 -272.324644 
L 178.558892 -272.324648 
L 177.948945 -272.324644 
L 177.338998 -272.324645 
L 176.729051 -272.324643 
L 176.119104 -272.324644 
L 175.509156 -272.323756 
L 174.899209 -272.323755 
L 174.289262 -272.323755 
L 173.679315 -272.323755 
L 173.069368 -272.323753 
L 172.459421 -272.323753 
L 171.849473 -272.323753 
L 171.239526 -272.323752 
L 170.629579 -272.323753 
L 170.019632 -272.322456 
L 169.409685 -272.322456 
L 168.799738 -272.322455 
L 168.18979 -272.322456 
L 167.579843 -272.322456 
L 166.969896 -272.322456 
L 166.359949 -272.322456 
L 165.750002 -272.322455 
L 165.140055 -272.322456 
L 164.530107 -272.322455 
L 163.92016 -272.322454 
L 163.310213 -272.322448 
L 162.700266 -272.321373 
L 162.090319 -272.321373 
L 161.480372 -272.321373 
L 160.870424 -272.321373 
L 160.260477 -272.321372 
L 159.65053 -272.321372 
L 159.040583 -272.321373 
L 158.430636 -272.321371 
L 157.820689 -272.321191 
L 157.210741 -272.321193 
L 156.600794 -272.321188 
L 155.990847 -272.316122 
L 155.3809 -272.316121 
L 154.770953 -272.316121 
L 154.161006 -272.31612 
L 153.551058 -272.316122 
L 152.941111 -272.316118 
L 152.331164 -272.316118 
L 151.721217 -272.315943 
L 151.11127 -272.315944 
L 150.501323 -272.315944 
L 149.891375 -272.315943 
L 149.281428 -272.315943 
L 148.671481 -272.315942 
L 148.061534 -272.315942 
L 147.451587 -272.31594 
L 146.84164 -272.315939 
L 146.231692 -272.30518 
L 145.621745 -272.305182 
L 145.011798 -272.305182 
L 144.401851 -272.305184 
L 143.791904 -272.297025 
L 143.181957 -272.297024 
L 142.572009 -272.297025 
L 141.962062 -272.297024 
L 141.352115 -272.297019 
L 140.742168 -272.297015 
L 140.132221 -272.291002 
L 139.522274 -272.290075 
L 138.912326 -272.290078 
L 138.302379 -272.289657 
L 137.692432 -272.289658 
L 137.082485 -272.289657 
L 136.472538 -272.289658 
L 135.862591 -272.289656 
L 135.252643 -272.288385 
L 134.642696 -272.288386 
L 134.032749 -272.288385 
L 133.422802 -272.288382 
L 132.812855 -272.283716 
L 132.202908 -272.283715 
L 131.59296 -272.283714 
L 130.983013 -272.283711 
L 130.373066 -272.283714 
L 129.763119 -272.273523 
L 129.153172 -272.273521 
L 128.543225 -272.273525 
L 127.933277 -272.273523 
L 127.32333 -272.273522 
L 126.713383 -272.265548 
L 126.103436 -272.265547 
L 125.493489 -272.265547 
L 124.883542 -272.265545 
L 124.273594 -272.265546 
L 123.663647 -272.265543 
L 123.0537 -272.24522 
L 122.443753 -272.245219 
L 121.833806 -272.245219 
L 121.223859 -272.245219 
L 120.613911 -272.245219 
L 120.003964 -272.245219 
L 119.394017 -272.24522 
L 118.78407 -272.245219 
L 118.174123 -272.245219 
L 117.564176 -272.245219 
L 116.954228 -272.245219 
L 116.344281 -272.245218 
L 115.734334 -272.245219 
L 115.124387 -272.245218 
L 114.51444 -272.245218 
L 113.904493 -272.245219 
L 113.294545 -272.245218 
L 112.684598 -272.245216 
L 112.074651 -272.162696 
L 111.464704 -272.162681 
L 110.854757 -272.162703 
L 110.24481 -272.128605 
L 109.634862 -272.128607 
L 109.024915 -272.106576 
L 108.414968 -272.106566 
L 107.805021 -272.106572 
L 107.195074 -272.10658 
L 106.585127 -272.106577 
L 105.975179 -272.106568 
L 105.365232 -272.106573 
L 104.755285 -272.106568 
L 104.145338 -272.106577 
L 103.535391 -272.10657 
L 102.925444 -272.10657 
L 102.315496 -272.106574 
L 101.705549 -272.106572 
L 101.095602 -272.106574 
L 100.485655 -272.106572 
L 99.875708 -272.106573 
L 99.26576 -272.106572 
L 98.655813 -272.106567 
L 98.045866 -271.921236 
L 97.435919 -271.921272 
L 96.825972 -271.921241 
L 96.216025 -271.921264 
L 95.606077 -271.921259 
L 94.99613 -271.921242 
L 94.386183 -271.825469 
L 93.776236 -271.825469 
L 93.166289 -271.821467 
L 92.556342 -271.821465 
L 91.946394 -271.772583 
L 91.336447 -271.772562 
L 90.7265 -271.772577 
L 90.116553 -271.772578 
L 89.506606 -271.772579 
L 88.896659 -271.772587 
L 88.286711 -271.772573 
L 87.676764 -271.772548 
L 87.066817 -271.772582 
L 86.45687 -271.682392 
L 85.846923 -271.682371 
L 85.236976 -271.682381 
L 84.627028 -271.682392 
L 84.017081 -271.664333 
L 83.407134 -271.664338 
L 82.797187 -271.664334 
L 82.18724 -271.627511 
L 81.577293 -271.627511 
L 80.967345 -271.627511 
L 80.357398 -271.287641 
L 79.747451 -271.16865 
L 79.137504 -271.075076 
L 78.527557 -271.03308 
z
" style="stroke: #0000ff; stroke-opacity: 0.2"/>
    </defs>
    <g clip-path="url(#p7ce5c9b30e)">
     <use xlink:href="#mc0fbaf31b1" x="0" y="287.4075" style="fill: #0000ff; fill-opacity: 0.2; stroke: #0000ff; stroke-opacity: 0.2"/>
    </g>
   </g>
   <g id="matplotlib.axis_1">
    <g id="xtick_1">
     <g id="line2d_1">
      <path d="M 78.527557 253.08 
L 78.527557 3.6 
" clip-path="url(#p7ce5c9b30e)" style="fill: none; stroke: #b0b0b0; stroke-width: 0.5; stroke-linecap: square"/>
     </g>
     <g id="line2d_2">
      <defs>
       <path id="m86a6649240" d="M 0 0 
L 0 -3 
" style="stroke: #000000; stroke-width: 0.5"/>
      </defs>
      <g>
       <use xlink:href="#m86a6649240" x="78.527557" y="253.08" style="stroke: #000000; stroke-width: 0.5"/>
      </g>
     </g>
     <g id="line2d_3">
      <defs>
       <path id="m4ab0c38937" d="M 0 0 
L 0 3 
" style="stroke: #000000; stroke-width: 0.5"/>
      </defs>
      <g>
       <use xlink:href="#m4ab0c38937" x="78.527557" y="3.6" style="stroke: #000000; stroke-width: 0.5"/>
      </g>
     </g>
     <g id="text_1">
      <!-- 0 -->
      <g transform="translate(74.710057 265.698125) scale(0.12 -0.12)">
       <defs>
        <path id="DejaVuSans-30" d="M 2034 4250 
Q 1547 4250 1301 3770 
Q 1056 3291 1056 2328 
Q 1056 1369 1301 889 
Q 1547 409 2034 409 
Q 2525 409 2770 889 
Q 3016 1369 3016 2328 
Q 3016 3291 2770 3770 
Q 2525 4250 2034 4250 
z
M 2034 4750 
Q 2819 4750 3233 4129 
Q 3647 3509 3647 2328 
Q 3647 1150 3233 529 
Q 2819 -91 2034 -91 
Q 1250 -91 836 529 
Q 422 1150 422 2328 
Q 422 3509 836 4129 
Q 1250 4750 2034 4750 
z
" transform="scale(0.015625)"/>
       </defs>
       <use xlink:href="#DejaVuSans-30"/>
      </g>
     </g>
    </g>
    <g id="xtick_2">
     <g id="line2d_4">
      <path d="M 139.522274 253.08 
L 139.522274 3.6 
" clip-path="url(#p7ce5c9b30e)" style="fill: none; stroke: #b0b0b0; stroke-width: 0.5; stroke-linecap: square"/>
     </g>
     <g id="line2d_5">
      <g>
       <use xlink:href="#m86a6649240" x="139.522274" y="253.08" style="stroke: #000000; stroke-width: 0.5"/>
      </g>
     </g>
     <g id="line2d_6">
      <g>
       <use xlink:href="#m4ab0c38937" x="139.522274" y="3.6" style="stroke: #000000; stroke-width: 0.5"/>
      </g>
     </g>
     <g id="text_2">
      <!-- 100 -->
      <g transform="translate(128.069774 265.698125) scale(0.12 -0.12)">
       <defs>
        <path id="DejaVuSans-31" d="M 794 531 
L 1825 531 
L 1825 4091 
L 703 3866 
L 703 4441 
L 1819 4666 
L 2450 4666 
L 2450 531 
L 3481 531 
L 3481 0 
L 794 0 
L 794 531 
z
" transform="scale(0.015625)"/>
       </defs>
       <use xlink:href="#DejaVuSans-31"/>
       <use xlink:href="#DejaVuSans-30" x="63.623047"/>
       <use xlink:href="#DejaVuSans-30" x="127.246094"/>
      </g>
     </g>
    </g>
    <g id="xtick_3">
     <g id="line2d_7">
      <path d="M 200.51699 253.08 
L 200.51699 3.6 
" clip-path="url(#p7ce5c9b30e)" style="fill: none; stroke: #b0b0b0; stroke-width: 0.5; stroke-linecap: square"/>
     </g>
     <g id="line2d_8">
      <g>
       <use xlink:href="#m86a6649240" x="200.51699" y="253.08" style="stroke: #000000; stroke-width: 0.5"/>
      </g>
     </g>
     <g id="line2d_9">
      <g>
       <use xlink:href="#m4ab0c38937" x="200.51699" y="3.6" style="stroke: #000000; stroke-width: 0.5"/>
      </g>
     </g>
     <g id="text_3">
      <!-- 200 -->
      <g transform="translate(189.06449 265.698125) scale(0.12 -0.12)">
       <defs>
        <path id="DejaVuSans-32" d="M 1228 531 
L 3431 531 
L 3431 0 
L 469 0 
L 469 531 
Q 828 903 1448 1529 
Q 2069 2156 2228 2338 
Q 2531 2678 2651 2914 
Q 2772 3150 2772 3378 
Q 2772 3750 2511 3984 
Q 2250 4219 1831 4219 
Q 1534 4219 1204 4116 
Q 875 4013 500 3803 
L 500 4441 
Q 881 4594 1212 4672 
Q 1544 4750 1819 4750 
Q 2544 4750 2975 4387 
Q 3406 4025 3406 3419 
Q 3406 3131 3298 2873 
Q 3191 2616 2906 2266 
Q 2828 2175 2409 1742 
Q 1991 1309 1228 531 
z
" transform="scale(0.015625)"/>
       </defs>
       <use xlink:href="#DejaVuSans-32"/>
       <use xlink:href="#DejaVuSans-30" x="63.623047"/>
       <use xlink:href="#DejaVuSans-30" x="127.246094"/>
      </g>
     </g>
    </g>
    <g id="xtick_4">
     <g id="line2d_10">
      <path d="M 261.511707 253.08 
L 261.511707 3.6 
" clip-path="url(#p7ce5c9b30e)" style="fill: none; stroke: #b0b0b0; stroke-width: 0.5; stroke-linecap: square"/>
     </g>
     <g id="line2d_11">
      <g>
       <use xlink:href="#m86a6649240" x="261.511707" y="253.08" style="stroke: #000000; stroke-width: 0.5"/>
      </g>
     </g>
     <g id="line2d_12">
      <g>
       <use xlink:href="#m4ab0c38937" x="261.511707" y="3.6" style="stroke: #000000; stroke-width: 0.5"/>
      </g>
     </g>
     <g id="text_4">
      <!-- 300 -->
      <g transform="translate(250.059207 265.698125) scale(0.12 -0.12)">
       <defs>
        <path id="DejaVuSans-33" d="M 2597 2516 
Q 3050 2419 3304 2112 
Q 3559 1806 3559 1356 
Q 3559 666 3084 287 
Q 2609 -91 1734 -91 
Q 1441 -91 1130 -33 
Q 819 25 488 141 
L 488 750 
Q 750 597 1062 519 
Q 1375 441 1716 441 
Q 2309 441 2620 675 
Q 2931 909 2931 1356 
Q 2931 1769 2642 2001 
Q 2353 2234 1838 2234 
L 1294 2234 
L 1294 2753 
L 1863 2753 
Q 2328 2753 2575 2939 
Q 2822 3125 2822 3475 
Q 2822 3834 2567 4026 
Q 2313 4219 1838 4219 
Q 1578 4219 1281 4162 
Q 984 4106 628 3988 
L 628 4550 
Q 988 4650 1302 4700 
Q 1616 4750 1894 4750 
Q 2613 4750 3031 4423 
Q 3450 4097 3450 3541 
Q 3450 3153 3228 2886 
Q 3006 2619 2597 2516 
z
" transform="scale(0.015625)"/>
       </defs>
       <use xlink:href="#DejaVuSans-33"/>
       <use xlink:href="#DejaVuSans-30" x="63.623047"/>
       <use xlink:href="#DejaVuSans-30" x="127.246094"/>
      </g>
     </g>
    </g>
    <g id="xtick_5">
     <g id="line2d_13">
      <path d="M 322.506424 253.08 
L 322.506424 3.6 
" clip-path="url(#p7ce5c9b30e)" style="fill: none; stroke: #b0b0b0; stroke-width: 0.5; stroke-linecap: square"/>
     </g>
     <g id="line2d_14">
      <g>
       <use xlink:href="#m86a6649240" x="322.506424" y="253.08" style="stroke: #000000; stroke-width: 0.5"/>
      </g>
     </g>
     <g id="line2d_15">
      <g>
       <use xlink:href="#m4ab0c38937" x="322.506424" y="3.6" style="stroke: #000000; stroke-width: 0.5"/>
      </g>
     </g>
     <g id="text_5">
      <!-- 400 -->
      <g transform="translate(311.053924 265.698125) scale(0.12 -0.12)">
       <defs>
        <path id="DejaVuSans-34" d="M 2419 4116 
L 825 1625 
L 2419 1625 
L 2419 4116 
z
M 2253 4666 
L 3047 4666 
L 3047 1625 
L 3713 1625 
L 3713 1100 
L 3047 1100 
L 3047 0 
L 2419 0 
L 2419 1100 
L 313 1100 
L 313 1709 
L 2253 4666 
z
" transform="scale(0.015625)"/>
       </defs>
       <use xlink:href="#DejaVuSans-34"/>
       <use xlink:href="#DejaVuSans-30" x="63.623047"/>
       <use xlink:href="#DejaVuSans-30" x="127.246094"/>
      </g>
     </g>
    </g>
    <g id="xtick_6">
     <g id="line2d_16">
      <path d="M 383.50114 253.08 
L 383.50114 3.6 
" clip-path="url(#p7ce5c9b30e)" style="fill: none; stroke: #b0b0b0; stroke-width: 0.5; stroke-linecap: square"/>
     </g>
     <g id="line2d_17">
      <g>
       <use xlink:href="#m86a6649240" x="383.50114" y="253.08" style="stroke: #000000; stroke-width: 0.5"/>
      </g>
     </g>
     <g id="line2d_18">
      <g>
       <use xlink:href="#m4ab0c38937" x="383.50114" y="3.6" style="stroke: #000000; stroke-width: 0.5"/>
      </g>
     </g>
     <g id="text_6">
      <!-- 500 -->
      <g transform="translate(372.04864 265.698125) scale(0.12 -0.12)">
       <defs>
        <path id="DejaVuSans-35" d="M 691 4666 
L 3169 4666 
L 3169 4134 
L 1269 4134 
L 1269 2991 
Q 1406 3038 1543 3061 
Q 1681 3084 1819 3084 
Q 2600 3084 3056 2656 
Q 3513 2228 3513 1497 
Q 3513 744 3044 326 
Q 2575 -91 1722 -91 
Q 1428 -91 1123 -41 
Q 819 9 494 109 
L 494 744 
Q 775 591 1075 516 
Q 1375 441 1709 441 
Q 2250 441 2565 725 
Q 2881 1009 2881 1497 
Q 2881 1984 2565 2268 
Q 2250 2553 1709 2553 
Q 1456 2553 1204 2497 
Q 953 2441 691 2322 
L 691 4666 
z
" transform="scale(0.015625)"/>
       </defs>
       <use xlink:href="#DejaVuSans-35"/>
       <use xlink:href="#DejaVuSans-30" x="63.623047"/>
       <use xlink:href="#DejaVuSans-30" x="127.246094"/>
      </g>
     </g>
    </g>
    <g id="xtick_7">
     <g id="line2d_19">
      <defs>
       <path id="m8b0357ec9c" d="M 0 0 
L 0 -1.5 
" style="stroke: #000000; stroke-width: 0.5"/>
      </defs>
      <g>
       <use xlink:href="#m8b0357ec9c" x="66.328613" y="253.08" style="stroke: #000000; stroke-width: 0.5"/>
      </g>
     </g>
     <g id="line2d_20">
      <defs>
       <path id="m774de8a07e" d="M 0 0 
L 0 1.5 
" style="stroke: #000000; stroke-width: 0.5"/>
      </defs>
      <g>
       <use xlink:href="#m774de8a07e" x="66.328613" y="3.6" style="stroke: #000000; stroke-width: 0.5"/>
      </g>
     </g>
    </g>
    <g id="xtick_8">
     <g id="line2d_21">
      <g>
       <use xlink:href="#m8b0357ec9c" x="90.7265" y="253.08" style="stroke: #000000; stroke-width: 0.5"/>
      </g>
     </g>
     <g id="line2d_22">
      <g>
       <use xlink:href="#m774de8a07e" x="90.7265" y="3.6" style="stroke: #000000; stroke-width: 0.5"/>
      </g>
     </g>
    </g>
    <g id="xtick_9">
     <g id="line2d_23">
      <g>
       <use xlink:href="#m8b0357ec9c" x="102.925444" y="253.08" style="stroke: #000000; stroke-width: 0.5"/>
      </g>
     </g>
     <g id="line2d_24">
      <g>
       <use xlink:href="#m774de8a07e" x="102.925444" y="3.6" style="stroke: #000000; stroke-width: 0.5"/>
      </g>
     </g>
    </g>
    <g id="xtick_10">
     <g id="line2d_25">
      <g>
       <use xlink:href="#m8b0357ec9c" x="115.124387" y="253.08" style="stroke: #000000; stroke-width: 0.5"/>
      </g>
     </g>
     <g id="line2d_26">
      <g>
       <use xlink:href="#m774de8a07e" x="115.124387" y="3.6" style="stroke: #000000; stroke-width: 0.5"/>
      </g>
     </g>
    </g>
    <g id="xtick_11">
     <g id="line2d_27">
      <g>
       <use xlink:href="#m8b0357ec9c" x="127.32333" y="253.08" style="stroke: #000000; stroke-width: 0.5"/>
      </g>
     </g>
     <g id="line2d_28">
      <g>
       <use xlink:href="#m774de8a07e" x="127.32333" y="3.6" style="stroke: #000000; stroke-width: 0.5"/>
      </g>
     </g>
    </g>
    <g id="xtick_12">
     <g id="line2d_29">
      <g>
       <use xlink:href="#m8b0357ec9c" x="151.721217" y="253.08" style="stroke: #000000; stroke-width: 0.5"/>
      </g>
     </g>
     <g id="line2d_30">
      <g>
       <use xlink:href="#m774de8a07e" x="151.721217" y="3.6" style="stroke: #000000; stroke-width: 0.5"/>
      </g>
     </g>
    </g>
    <g id="xtick_13">
     <g id="line2d_31">
      <g>
       <use xlink:href="#m8b0357ec9c" x="163.92016" y="253.08" style="stroke: #000000; stroke-width: 0.5"/>
      </g>
     </g>
     <g id="line2d_32">
      <g>
       <use xlink:href="#m774de8a07e" x="163.92016" y="3.6" style="stroke: #000000; stroke-width: 0.5"/>
      </g>
     </g>
    </g>
    <g id="xtick_14">
     <g id="line2d_33">
      <g>
       <use xlink:href="#m8b0357ec9c" x="176.119104" y="253.08" style="stroke: #000000; stroke-width: 0.5"/>
      </g>
     </g>
     <g id="line2d_34">
      <g>
       <use xlink:href="#m774de8a07e" x="176.119104" y="3.6" style="stroke: #000000; stroke-width: 0.5"/>
      </g>
     </g>
    </g>
    <g id="xtick_15">
     <g id="line2d_35">
      <g>
       <use xlink:href="#m8b0357ec9c" x="188.318047" y="253.08" style="stroke: #000000; stroke-width: 0.5"/>
      </g>
     </g>
     <g id="line2d_36">
      <g>
       <use xlink:href="#m774de8a07e" x="188.318047" y="3.6" style="stroke: #000000; stroke-width: 0.5"/>
      </g>
     </g>
    </g>
    <g id="xtick_16">
     <g id="line2d_37">
      <g>
       <use xlink:href="#m8b0357ec9c" x="212.715934" y="253.08" style="stroke: #000000; stroke-width: 0.5"/>
      </g>
     </g>
     <g id="line2d_38">
      <g>
       <use xlink:href="#m774de8a07e" x="212.715934" y="3.6" style="stroke: #000000; stroke-width: 0.5"/>
      </g>
     </g>
    </g>
    <g id="xtick_17">
     <g id="line2d_39">
      <g>
       <use xlink:href="#m8b0357ec9c" x="224.914877" y="253.08" style="stroke: #000000; stroke-width: 0.5"/>
      </g>
     </g>
     <g id="line2d_40">
      <g>
       <use xlink:href="#m774de8a07e" x="224.914877" y="3.6" style="stroke: #000000; stroke-width: 0.5"/>
      </g>
     </g>
    </g>
    <g id="xtick_18">
     <g id="line2d_41">
      <g>
       <use xlink:href="#m8b0357ec9c" x="237.11382" y="253.08" style="stroke: #000000; stroke-width: 0.5"/>
      </g>
     </g>
     <g id="line2d_42">
      <g>
       <use xlink:href="#m774de8a07e" x="237.11382" y="3.6" style="stroke: #000000; stroke-width: 0.5"/>
      </g>
     </g>
    </g>
    <g id="xtick_19">
     <g id="line2d_43">
      <g>
       <use xlink:href="#m8b0357ec9c" x="249.312764" y="253.08" style="stroke: #000000; stroke-width: 0.5"/>
      </g>
     </g>
     <g id="line2d_44">
      <g>
       <use xlink:href="#m774de8a07e" x="249.312764" y="3.6" style="stroke: #000000; stroke-width: 0.5"/>
      </g>
     </g>
    </g>
    <g id="xtick_20">
     <g id="line2d_45">
      <g>
       <use xlink:href="#m8b0357ec9c" x="273.71065" y="253.08" style="stroke: #000000; stroke-width: 0.5"/>
      </g>
     </g>
     <g id="line2d_46">
      <g>
       <use xlink:href="#m774de8a07e" x="273.71065" y="3.6" style="stroke: #000000; stroke-width: 0.5"/>
      </g>
     </g>
    </g>
    <g id="xtick_21">
     <g id="line2d_47">
      <g>
       <use xlink:href="#m8b0357ec9c" x="285.909594" y="253.08" style="stroke: #000000; stroke-width: 0.5"/>
      </g>
     </g>
     <g id="line2d_48">
      <g>
       <use xlink:href="#m774de8a07e" x="285.909594" y="3.6" style="stroke: #000000; stroke-width: 0.5"/>
      </g>
     </g>
    </g>
    <g id="xtick_22">
     <g id="line2d_49">
      <g>
       <use xlink:href="#m8b0357ec9c" x="298.108537" y="253.08" style="stroke: #000000; stroke-width: 0.5"/>
      </g>
     </g>
     <g id="line2d_50">
      <g>
       <use xlink:href="#m774de8a07e" x="298.108537" y="3.6" style="stroke: #000000; stroke-width: 0.5"/>
      </g>
     </g>
    </g>
    <g id="xtick_23">
     <g id="line2d_51">
      <g>
       <use xlink:href="#m8b0357ec9c" x="310.30748" y="253.08" style="stroke: #000000; stroke-width: 0.5"/>
      </g>
     </g>
     <g id="line2d_52">
      <g>
       <use xlink:href="#m774de8a07e" x="310.30748" y="3.6" style="stroke: #000000; stroke-width: 0.5"/>
      </g>
     </g>
    </g>
    <g id="xtick_24">
     <g id="line2d_53">
      <g>
       <use xlink:href="#m8b0357ec9c" x="334.705367" y="253.08" style="stroke: #000000; stroke-width: 0.5"/>
      </g>
     </g>
     <g id="line2d_54">
      <g>
       <use xlink:href="#m774de8a07e" x="334.705367" y="3.6" style="stroke: #000000; stroke-width: 0.5"/>
      </g>
     </g>
    </g>
    <g id="xtick_25">
     <g id="line2d_55">
      <g>
       <use xlink:href="#m8b0357ec9c" x="346.90431" y="253.08" style="stroke: #000000; stroke-width: 0.5"/>
      </g>
     </g>
     <g id="line2d_56">
      <g>
       <use xlink:href="#m774de8a07e" x="346.90431" y="3.6" style="stroke: #000000; stroke-width: 0.5"/>
      </g>
     </g>
    </g>
    <g id="xtick_26">
     <g id="line2d_57">
      <g>
       <use xlink:href="#m8b0357ec9c" x="359.103254" y="253.08" style="stroke: #000000; stroke-width: 0.5"/>
      </g>
     </g>
     <g id="line2d_58">
      <g>
       <use xlink:href="#m774de8a07e" x="359.103254" y="3.6" style="stroke: #000000; stroke-width: 0.5"/>
      </g>
     </g>
    </g>
    <g id="xtick_27">
     <g id="line2d_59">
      <g>
       <use xlink:href="#m8b0357ec9c" x="371.302197" y="253.08" style="stroke: #000000; stroke-width: 0.5"/>
      </g>
     </g>
     <g id="line2d_60">
      <g>
       <use xlink:href="#m774de8a07e" x="371.302197" y="3.6" style="stroke: #000000; stroke-width: 0.5"/>
      </g>
     </g>
    </g>
    <g id="xtick_28">
     <g id="line2d_61">
      <g>
       <use xlink:href="#m8b0357ec9c" x="395.700084" y="253.08" style="stroke: #000000; stroke-width: 0.5"/>
      </g>
     </g>
     <g id="line2d_62">
      <g>
       <use xlink:href="#m774de8a07e" x="395.700084" y="3.6" style="stroke: #000000; stroke-width: 0.5"/>
      </g>
     </g>
    </g>
    <g id="text_7">
     <!-- Generations -->
     <g transform="translate(194.112188 281.311875) scale(0.12 -0.12)">
      <defs>
       <path id="DejaVuSans-47" d="M 3809 666 
L 3809 1919 
L 2778 1919 
L 2778 2438 
L 4434 2438 
L 4434 434 
Q 4069 175 3628 42 
Q 3188 -91 2688 -91 
Q 1594 -91 976 548 
Q 359 1188 359 2328 
Q 359 3472 976 4111 
Q 1594 4750 2688 4750 
Q 3144 4750 3555 4637 
Q 3966 4525 4313 4306 
L 4313 3634 
Q 3963 3931 3569 4081 
Q 3175 4231 2741 4231 
Q 1884 4231 1454 3753 
Q 1025 3275 1025 2328 
Q 1025 1384 1454 906 
Q 1884 428 2741 428 
Q 3075 428 3337 486 
Q 3600 544 3809 666 
z
" transform="scale(0.015625)"/>
       <path id="DejaVuSans-65" d="M 3597 1894 
L 3597 1613 
L 953 1613 
Q 991 1019 1311 708 
Q 1631 397 2203 397 
Q 2534 397 2845 478 
Q 3156 559 3463 722 
L 3463 178 
Q 3153 47 2828 -22 
Q 2503 -91 2169 -91 
Q 1331 -91 842 396 
Q 353 884 353 1716 
Q 353 2575 817 3079 
Q 1281 3584 2069 3584 
Q 2775 3584 3186 3129 
Q 3597 2675 3597 1894 
z
M 3022 2063 
Q 3016 2534 2758 2815 
Q 2500 3097 2075 3097 
Q 1594 3097 1305 2825 
Q 1016 2553 972 2059 
L 3022 2063 
z
" transform="scale(0.015625)"/>
       <path id="DejaVuSans-6e" d="M 3513 2113 
L 3513 0 
L 2938 0 
L 2938 2094 
Q 2938 2591 2744 2837 
Q 2550 3084 2163 3084 
Q 1697 3084 1428 2787 
Q 1159 2491 1159 1978 
L 1159 0 
L 581 0 
L 581 3500 
L 1159 3500 
L 1159 2956 
Q 1366 3272 1645 3428 
Q 1925 3584 2291 3584 
Q 2894 3584 3203 3211 
Q 3513 2838 3513 2113 
z
" transform="scale(0.015625)"/>
       <path id="DejaVuSans-72" d="M 2631 2963 
Q 2534 3019 2420 3045 
Q 2306 3072 2169 3072 
Q 1681 3072 1420 2755 
Q 1159 2438 1159 1844 
L 1159 0 
L 581 0 
L 581 3500 
L 1159 3500 
L 1159 2956 
Q 1341 3275 1631 3429 
Q 1922 3584 2338 3584 
Q 2397 3584 2469 3576 
Q 2541 3569 2628 3553 
L 2631 2963 
z
" transform="scale(0.015625)"/>
       <path id="DejaVuSans-61" d="M 2194 1759 
Q 1497 1759 1228 1600 
Q 959 1441 959 1056 
Q 959 750 1161 570 
Q 1363 391 1709 391 
Q 2188 391 2477 730 
Q 2766 1069 2766 1631 
L 2766 1759 
L 2194 1759 
z
M 3341 1997 
L 3341 0 
L 2766 0 
L 2766 531 
Q 2569 213 2275 61 
Q 1981 -91 1556 -91 
Q 1019 -91 701 211 
Q 384 513 384 1019 
Q 384 1609 779 1909 
Q 1175 2209 1959 2209 
L 2766 2209 
L 2766 2266 
Q 2766 2663 2505 2880 
Q 2244 3097 1772 3097 
Q 1472 3097 1187 3025 
Q 903 2953 641 2809 
L 641 3341 
Q 956 3463 1253 3523 
Q 1550 3584 1831 3584 
Q 2591 3584 2966 3190 
Q 3341 2797 3341 1997 
z
" transform="scale(0.015625)"/>
       <path id="DejaVuSans-74" d="M 1172 4494 
L 1172 3500 
L 2356 3500 
L 2356 3053 
L 1172 3053 
L 1172 1153 
Q 1172 725 1289 603 
Q 1406 481 1766 481 
L 2356 481 
L 2356 0 
L 1766 0 
Q 1100 0 847 248 
Q 594 497 594 1153 
L 594 3053 
L 172 3053 
L 172 3500 
L 594 3500 
L 594 4494 
L 1172 4494 
z
" transform="scale(0.015625)"/>
       <path id="DejaVuSans-69" d="M 603 3500 
L 1178 3500 
L 1178 0 
L 603 0 
L 603 3500 
z
M 603 4863 
L 1178 4863 
L 1178 4134 
L 603 4134 
L 603 4863 
z
" transform="scale(0.015625)"/>
       <path id="DejaVuSans-6f" d="M 1959 3097 
Q 1497 3097 1228 2736 
Q 959 2375 959 1747 
Q 959 1119 1226 758 
Q 1494 397 1959 397 
Q 2419 397 2687 759 
Q 2956 1122 2956 1747 
Q 2956 2369 2687 2733 
Q 2419 3097 1959 3097 
z
M 1959 3584 
Q 2709 3584 3137 3096 
Q 3566 2609 3566 1747 
Q 3566 888 3137 398 
Q 2709 -91 1959 -91 
Q 1206 -91 779 398 
Q 353 888 353 1747 
Q 353 2609 779 3096 
Q 1206 3584 1959 3584 
z
" transform="scale(0.015625)"/>
       <path id="DejaVuSans-73" d="M 2834 3397 
L 2834 2853 
Q 2591 2978 2328 3040 
Q 2066 3103 1784 3103 
Q 1356 3103 1142 2972 
Q 928 2841 928 2578 
Q 928 2378 1081 2264 
Q 1234 2150 1697 2047 
L 1894 2003 
Q 2506 1872 2764 1633 
Q 3022 1394 3022 966 
Q 3022 478 2636 193 
Q 2250 -91 1575 -91 
Q 1294 -91 989 -36 
Q 684 19 347 128 
L 347 722 
Q 666 556 975 473 
Q 1284 391 1588 391 
Q 1994 391 2212 530 
Q 2431 669 2431 922 
Q 2431 1156 2273 1281 
Q 2116 1406 1581 1522 
L 1381 1569 
Q 847 1681 609 1914 
Q 372 2147 372 2553 
Q 372 3047 722 3315 
Q 1072 3584 1716 3584 
Q 2034 3584 2315 3537 
Q 2597 3491 2834 3397 
z
" transform="scale(0.015625)"/>
      </defs>
      <use xlink:href="#DejaVuSans-47"/>
      <use xlink:href="#DejaVuSans-65" x="77.490234"/>
      <use xlink:href="#DejaVuSans-6e" x="139.013672"/>
      <use xlink:href="#DejaVuSans-65" x="202.392578"/>
      <use xlink:href="#DejaVuSans-72" x="263.916016"/>
      <use xlink:href="#DejaVuSans-61" x="305.029297"/>
      <use xlink:href="#DejaVuSans-74" x="366.308594"/>
      <use xlink:href="#DejaVuSans-69" x="405.517578"/>
      <use xlink:href="#DejaVuSans-6f" x="433.300781"/>
      <use xlink:href="#DejaVuSans-6e" x="494.482422"/>
      <use xlink:href="#DejaVuSans-73" x="557.861328"/>
     </g>
    </g>
   </g>
   <g id="matplotlib.axis_2">
    <g id="ytick_1">
     <g id="line2d_63">
      <path d="M 63.309375 239.149704 
L 398.109375 239.149704 
" clip-path="url(#p7ce5c9b30e)" style="fill: none; stroke: #b0b0b0; stroke-width: 0.5; stroke-linecap: square"/>
     </g>
     <g id="line2d_64">
      <defs>
       <path id="ma7f40c55e0" d="M 0 0 
L 3 0 
" style="stroke: #000000; stroke-width: 0.5"/>
      </defs>
      <g>
       <use xlink:href="#ma7f40c55e0" x="63.309375" y="239.149704" style="stroke: #000000; stroke-width: 0.5"/>
      </g>
     </g>
     <g id="line2d_65">
      <defs>
       <path id="m4b74a76968" d="M 0 0 
L -3 0 
" style="stroke: #000000; stroke-width: 0.5"/>
      </defs>
      <g>
       <use xlink:href="#m4b74a76968" x="398.109375" y="239.149704" style="stroke: #000000; stroke-width: 0.5"/>
      </g>
     </g>
     <g id="text_8">
      <!-- −2000 -->
      <g transform="translate(19.21375 243.708766) scale(0.12 -0.12)">
       <defs>
        <path id="DejaVuSans-2212" d="M 678 2272 
L 4684 2272 
L 4684 1741 
L 678 1741 
L 678 2272 
z
" transform="scale(0.015625)"/>
       </defs>
       <use xlink:href="#DejaVuSans-2212"/>
       <use xlink:href="#DejaVuSans-32" x="83.789062"/>
       <use xlink:href="#DejaVuSans-30" x="147.412109"/>
       <use xlink:href="#DejaVuSans-30" x="211.035156"/>
       <use xlink:href="#DejaVuSans-30" x="274.658203"/>
      </g>
     </g>
    </g>
    <g id="ytick_2">
     <g id="line2d_66">
      <path d="M 63.309375 183.789698 
L 398.109375 183.789698 
" clip-path="url(#p7ce5c9b30e)" style="fill: none; stroke: #b0b0b0; stroke-width: 0.5; stroke-linecap: square"/>
     </g>
     <g id="line2d_67">
      <g>
       <use xlink:href="#ma7f40c55e0" x="63.309375" y="183.789698" style="stroke: #000000; stroke-width: 0.5"/>
      </g>
     </g>
     <g id="line2d_68">
      <g>
       <use xlink:href="#m4b74a76968" x="398.109375" y="183.789698" style="stroke: #000000; stroke-width: 0.5"/>
      </g>
     </g>
     <g id="text_9">
      <!-- −1500 -->
      <g transform="translate(19.21375 188.34876) scale(0.12 -0.12)">
       <use xlink:href="#DejaVuSans-2212"/>
       <use xlink:href="#DejaVuSans-31" x="83.789062"/>
       <use xlink:href="#DejaVuSans-35" x="147.412109"/>
       <use xlink:href="#DejaVuSans-30" x="211.035156"/>
       <use xlink:href="#DejaVuSans-30" x="274.658203"/>
      </g>
     </g>
    </g>
    <g id="ytick_3">
     <g id="line2d_69">
      <path d="M 63.309375 128.429692 
L 398.109375 128.429692 
" clip-path="url(#p7ce5c9b30e)" style="fill: none; stroke: #b0b0b0; stroke-width: 0.5; stroke-linecap: square"/>
     </g>
     <g id="line2d_70">
      <g>
       <use xlink:href="#ma7f40c55e0" x="63.309375" y="128.429692" style="stroke: #000000; stroke-width: 0.5"/>
      </g>
     </g>
     <g id="line2d_71">
      <g>
       <use xlink:href="#m4b74a76968" x="398.109375" y="128.429692" style="stroke: #000000; stroke-width: 0.5"/>
      </g>
     </g>
     <g id="text_10">
      <!-- −1000 -->
      <g transform="translate(19.21375 132.988755) scale(0.12 -0.12)">
       <use xlink:href="#DejaVuSans-2212"/>
       <use xlink:href="#DejaVuSans-31" x="83.789062"/>
       <use xlink:href="#DejaVuSans-30" x="147.412109"/>
       <use xlink:href="#DejaVuSans-30" x="211.035156"/>
       <use xlink:href="#DejaVuSans-30" x="274.658203"/>
      </g>
     </g>
    </g>
    <g id="ytick_4">
     <g id="line2d_72">
      <path d="M 63.309375 73.069686 
L 398.109375 73.069686 
" clip-path="url(#p7ce5c9b30e)" style="fill: none; stroke: #b0b0b0; stroke-width: 0.5; stroke-linecap: square"/>
     </g>
     <g id="line2d_73">
      <g>
       <use xlink:href="#ma7f40c55e0" x="63.309375" y="73.069686" style="stroke: #000000; stroke-width: 0.5"/>
      </g>
     </g>
     <g id="line2d_74">
      <g>
       <use xlink:href="#m4b74a76968" x="398.109375" y="73.069686" style="stroke: #000000; stroke-width: 0.5"/>
      </g>
     </g>
     <g id="text_11">
      <!-- −500 -->
      <g transform="translate(26.84875 77.628749) scale(0.12 -0.12)">
       <use xlink:href="#DejaVuSans-2212"/>
       <use xlink:href="#DejaVuSans-35" x="83.789062"/>
       <use xlink:href="#DejaVuSans-30" x="147.412109"/>
       <use xlink:href="#DejaVuSans-30" x="211.035156"/>
      </g>
     </g>
    </g>
    <g id="ytick_5">
     <g id="line2d_75">
      <path d="M 63.309375 17.709681 
L 398.109375 17.709681 
" clip-path="url(#p7ce5c9b30e)" style="fill: none; stroke: #b0b0b0; stroke-width: 0.5; stroke-linecap: square"/>
     </g>
     <g id="line2d_76">
      <g>
       <use xlink:href="#ma7f40c55e0" x="63.309375" y="17.709681" style="stroke: #000000; stroke-width: 0.5"/>
      </g>
     </g>
     <g id="line2d_77">
      <g>
       <use xlink:href="#m4b74a76968" x="398.109375" y="17.709681" style="stroke: #000000; stroke-width: 0.5"/>
      </g>
     </g>
     <g id="text_12">
      <!-- 0 -->
      <g transform="translate(52.174375 22.268743) scale(0.12 -0.12)">
       <use xlink:href="#DejaVuSans-30"/>
      </g>
     </g>
    </g>
    <g id="ytick_6">
     <g id="line2d_78">
      <defs>
       <path id="mffdce8e9d3" d="M 0 0 
L 1.5 0 
" style="stroke: #000000; stroke-width: 0.5"/>
      </defs>
      <g>
       <use xlink:href="#mffdce8e9d3" x="63.309375" y="250.221705" style="stroke: #000000; stroke-width: 0.5"/>
      </g>
     </g>
     <g id="line2d_79">
      <defs>
       <path id="m9ffd065edd" d="M 0 0 
L -1.5 0 
" style="stroke: #000000; stroke-width: 0.5"/>
      </defs>
      <g>
       <use xlink:href="#m9ffd065edd" x="398.109375" y="250.221705" style="stroke: #000000; stroke-width: 0.5"/>
      </g>
     </g>
    </g>
    <g id="ytick_7">
     <g id="line2d_80">
      <g>
       <use xlink:href="#mffdce8e9d3" x="63.309375" y="228.077703" style="stroke: #000000; stroke-width: 0.5"/>
      </g>
     </g>
     <g id="line2d_81">
      <g>
       <use xlink:href="#m9ffd065edd" x="398.109375" y="228.077703" style="stroke: #000000; stroke-width: 0.5"/>
      </g>
     </g>
    </g>
    <g id="ytick_8">
     <g id="line2d_82">
      <g>
       <use xlink:href="#mffdce8e9d3" x="63.309375" y="217.005701" style="stroke: #000000; stroke-width: 0.5"/>
      </g>
     </g>
     <g id="line2d_83">
      <g>
       <use xlink:href="#m9ffd065edd" x="398.109375" y="217.005701" style="stroke: #000000; stroke-width: 0.5"/>
      </g>
     </g>
    </g>
    <g id="ytick_9">
     <g id="line2d_84">
      <g>
       <use xlink:href="#mffdce8e9d3" x="63.309375" y="205.9337" style="stroke: #000000; stroke-width: 0.5"/>
      </g>
     </g>
     <g id="line2d_85">
      <g>
       <use xlink:href="#m9ffd065edd" x="398.109375" y="205.9337" style="stroke: #000000; stroke-width: 0.5"/>
      </g>
     </g>
    </g>
    <g id="ytick_10">
     <g id="line2d_86">
      <g>
       <use xlink:href="#mffdce8e9d3" x="63.309375" y="194.861699" style="stroke: #000000; stroke-width: 0.5"/>
      </g>
     </g>
     <g id="line2d_87">
      <g>
       <use xlink:href="#m9ffd065edd" x="398.109375" y="194.861699" style="stroke: #000000; stroke-width: 0.5"/>
      </g>
     </g>
    </g>
    <g id="ytick_11">
     <g id="line2d_88">
      <g>
       <use xlink:href="#mffdce8e9d3" x="63.309375" y="172.717697" style="stroke: #000000; stroke-width: 0.5"/>
      </g>
     </g>
     <g id="line2d_89">
      <g>
       <use xlink:href="#m9ffd065edd" x="398.109375" y="172.717697" style="stroke: #000000; stroke-width: 0.5"/>
      </g>
     </g>
    </g>
    <g id="ytick_12">
     <g id="line2d_90">
      <g>
       <use xlink:href="#mffdce8e9d3" x="63.309375" y="161.645696" style="stroke: #000000; stroke-width: 0.5"/>
      </g>
     </g>
     <g id="line2d_91">
      <g>
       <use xlink:href="#m9ffd065edd" x="398.109375" y="161.645696" style="stroke: #000000; stroke-width: 0.5"/>
      </g>
     </g>
    </g>
    <g id="ytick_13">
     <g id="line2d_92">
      <g>
       <use xlink:href="#mffdce8e9d3" x="63.309375" y="150.573694" style="stroke: #000000; stroke-width: 0.5"/>
      </g>
     </g>
     <g id="line2d_93">
      <g>
       <use xlink:href="#m9ffd065edd" x="398.109375" y="150.573694" style="stroke: #000000; stroke-width: 0.5"/>
      </g>
     </g>
    </g>
    <g id="ytick_14">
     <g id="line2d_94">
      <g>
       <use xlink:href="#mffdce8e9d3" x="63.309375" y="139.501693" style="stroke: #000000; stroke-width: 0.5"/>
      </g>
     </g>
     <g id="line2d_95">
      <g>
       <use xlink:href="#m9ffd065edd" x="398.109375" y="139.501693" style="stroke: #000000; stroke-width: 0.5"/>
      </g>
     </g>
    </g>
    <g id="ytick_15">
     <g id="line2d_96">
      <g>
       <use xlink:href="#mffdce8e9d3" x="63.309375" y="117.357691" style="stroke: #000000; stroke-width: 0.5"/>
      </g>
     </g>
     <g id="line2d_97">
      <g>
       <use xlink:href="#m9ffd065edd" x="398.109375" y="117.357691" style="stroke: #000000; stroke-width: 0.5"/>
      </g>
     </g>
    </g>
    <g id="ytick_16">
     <g id="line2d_98">
      <g>
       <use xlink:href="#mffdce8e9d3" x="63.309375" y="106.28569" style="stroke: #000000; stroke-width: 0.5"/>
      </g>
     </g>
     <g id="line2d_99">
      <g>
       <use xlink:href="#m9ffd065edd" x="398.109375" y="106.28569" style="stroke: #000000; stroke-width: 0.5"/>
      </g>
     </g>
    </g>
    <g id="ytick_17">
     <g id="line2d_100">
      <g>
       <use xlink:href="#mffdce8e9d3" x="63.309375" y="95.213689" style="stroke: #000000; stroke-width: 0.5"/>
      </g>
     </g>
     <g id="line2d_101">
      <g>
       <use xlink:href="#m9ffd065edd" x="398.109375" y="95.213689" style="stroke: #000000; stroke-width: 0.5"/>
      </g>
     </g>
    </g>
    <g id="ytick_18">
     <g id="line2d_102">
      <g>
       <use xlink:href="#mffdce8e9d3" x="63.309375" y="84.141687" style="stroke: #000000; stroke-width: 0.5"/>
      </g>
     </g>
     <g id="line2d_103">
      <g>
       <use xlink:href="#m9ffd065edd" x="398.109375" y="84.141687" style="stroke: #000000; stroke-width: 0.5"/>
      </g>
     </g>
    </g>
    <g id="ytick_19">
     <g id="line2d_104">
      <g>
       <use xlink:href="#mffdce8e9d3" x="63.309375" y="61.997685" style="stroke: #000000; stroke-width: 0.5"/>
      </g>
     </g>
     <g id="line2d_105">
      <g>
       <use xlink:href="#m9ffd065edd" x="398.109375" y="61.997685" style="stroke: #000000; stroke-width: 0.5"/>
      </g>
     </g>
    </g>
    <g id="ytick_20">
     <g id="line2d_106">
      <g>
       <use xlink:href="#mffdce8e9d3" x="63.309375" y="50.925684" style="stroke: #000000; stroke-width: 0.5"/>
      </g>
     </g>
     <g id="line2d_107">
      <g>
       <use xlink:href="#m9ffd065edd" x="398.109375" y="50.925684" style="stroke: #000000; stroke-width: 0.5"/>
      </g>
     </g>
    </g>
    <g id="ytick_21">
     <g id="line2d_108">
      <g>
       <use xlink:href="#mffdce8e9d3" x="63.309375" y="39.853683" style="stroke: #000000; stroke-width: 0.5"/>
      </g>
     </g>
     <g id="line2d_109">
      <g>
       <use xlink:href="#m9ffd065edd" x="398.109375" y="39.853683" style="stroke: #000000; stroke-width: 0.5"/>
      </g>
     </g>
    </g>
    <g id="ytick_22">
     <g id="line2d_110">
      <g>
       <use xlink:href="#mffdce8e9d3" x="63.309375" y="28.781682" style="stroke: #000000; stroke-width: 0.5"/>
      </g>
     </g>
     <g id="line2d_111">
      <g>
       <use xlink:href="#m9ffd065edd" x="398.109375" y="28.781682" style="stroke: #000000; stroke-width: 0.5"/>
      </g>
     </g>
    </g>
    <g id="ytick_23">
     <g id="line2d_112">
      <g>
       <use xlink:href="#mffdce8e9d3" x="63.309375" y="6.637679" style="stroke: #000000; stroke-width: 0.5"/>
      </g>
     </g>
     <g id="line2d_113">
      <g>
       <use xlink:href="#m9ffd065edd" x="398.109375" y="6.637679" style="stroke: #000000; stroke-width: 0.5"/>
      </g>
     </g>
    </g>
    <g id="text_13">
     <!-- Fitness -->
     <g transform="translate(12.718125 149.120625) rotate(-90) scale(0.12 -0.12)">
      <defs>
       <path id="DejaVuSans-46" d="M 628 4666 
L 3309 4666 
L 3309 4134 
L 1259 4134 
L 1259 2759 
L 3109 2759 
L 3109 2228 
L 1259 2228 
L 1259 0 
L 628 0 
L 628 4666 
z
" transform="scale(0.015625)"/>
      </defs>
      <use xlink:href="#DejaVuSans-46"/>
      <use xlink:href="#DejaVuSans-69" x="50.269531"/>
      <use xlink:href="#DejaVuSans-74" x="78.052734"/>
      <use xlink:href="#DejaVuSans-6e" x="117.261719"/>
      <use xlink:href="#DejaVuSans-65" x="180.640625"/>
      <use xlink:href="#DejaVuSans-73" x="242.164062"/>
      <use xlink:href="#DejaVuSans-73" x="294.263672"/>
     </g>
    </g>
   </g>
   <g id="line2d_114">
    <path d="M 78.527557 16.37442 
L 79.747451 16.23885 
L 80.357398 16.119859 
L 80.967345 15.779989 
L 86.45687 15.725108 
L 87.676764 15.634952 
L 94.386183 15.582031 
L 95.606077 15.486241 
L 98.045866 15.486264 
L 98.655813 15.300933 
L 112.074651 15.244804 
L 113.294545 15.162282 
L 212.715934 15.05354 
L 237.11382 15.016386 
L 382.891193 14.94 
L 382.891193 14.94 
" clip-path="url(#p7ce5c9b30e)" style="fill: none; stroke: #000000; stroke-linecap: square"/>
   </g>
   <g id="line2d_115">
    <path d="M 78.527557 22.968275 
L 79.137504 22.698005 
L 79.747451 20.993401 
L 80.357398 20.629643 
L 80.967345 19.791068 
L 81.577293 20.678296 
L 82.18724 19.339706 
L 82.797187 19.05287 
L 83.407134 20.053308 
L 84.627028 19.191471 
L 85.236976 20.191315 
L 85.846923 18.850985 
L 86.45687 18.6779 
L 87.676764 19.061672 
L 88.286711 26.061735 
L 88.896659 19.196918 
L 89.506606 18.766961 
L 90.7265 19.137212 
L 91.336447 18.903668 
L 91.946394 241.74 
L 92.556342 19.895423 
L 93.166289 19.050599 
L 95.606077 18.400632 
L 96.216025 18.744019 
L 96.825972 18.489123 
L 97.435919 23.151316 
L 98.045866 18.514164 
L 98.655813 19.084855 
L 99.875708 18.590813 
L 100.485655 18.613344 
L 101.095602 19.005435 
L 101.705549 18.735233 
L 102.315496 19.37451 
L 103.535391 18.43297 
L 104.145338 17.961004 
L 104.755285 18.024264 
L 105.365232 18.244435 
L 105.975179 17.912255 
L 106.585127 18.565626 
L 107.195074 17.727608 
L 107.805021 17.683767 
L 108.414968 17.2931 
L 109.024915 17.158428 
L 109.634862 17.282811 
L 110.24481 16.929536 
L 110.854757 16.88758 
L 112.074651 16.646054 
L 112.684598 16.695414 
L 113.904493 17.062756 
L 114.51444 16.673772 
L 116.954228 15.907857 
L 118.78407 15.900139 
L 120.003964 15.740043 
L 122.443753 15.69264 
L 123.0537 15.813389 
L 125.493489 15.565443 
L 126.713383 15.415015 
L 130.373066 15.387842 
L 130.983013 16.016585 
L 131.59296 15.424123 
L 133.422802 15.377647 
L 137.082485 15.298946 
L 140.132221 15.316442 
L 143.181957 15.244375 
L 145.011798 15.278022 
L 152.941111 15.266319 
L 154.770953 15.286067 
L 156.600794 15.290901 
L 157.210741 15.401801 
L 158.430636 15.320678 
L 160.870424 15.357756 
L 162.090319 15.335899 
L 163.92016 15.273722 
L 168.799738 15.319338 
L 170.629579 15.291094 
L 174.289262 15.205661 
L 176.119104 15.366013 
L 177.338998 15.239549 
L 180.998681 15.222788 
L 184.048417 15.284167 
L 185.878258 15.292885 
L 194.417519 15.23677 
L 197.467254 15.254837 
L 203.566726 15.223398 
L 204.176673 15.438483 
L 204.78662 15.217149 
L 206.616462 15.204592 
L 210.276145 15.188815 
L 219.425352 15.228967 
L 221.865141 15.147819 
L 229.184507 15.196572 
L 230.404401 15.170261 
L 231.014349 15.248822 
L 232.234243 15.222162 
L 241.993398 15.124889 
L 244.433186 15.164683 
L 268.831073 15.146263 
L 270.660914 15.163689 
L 279.200175 15.099961 
L 283.469805 15.109901 
L 285.299646 15.056958 
L 287.129488 15.080166 
L 290.179224 15.181451 
L 292.009065 15.117888 
L 293.22896 15.180392 
L 295.058801 15.195114 
L 299.938378 15.172041 
L 301.158273 15.237129 
L 302.988114 15.151505 
L 303.598061 15.267415 
L 305.427903 15.209299 
L 312.137322 15.075494 
L 318.236793 15.093173 
L 319.456688 15.059419 
L 324.336265 15.114388 
L 325.556159 15.108136 
L 328.605895 15.132806 
L 329.215842 15.036702 
L 330.435737 15.05967 
L 340.194891 15.148606 
L 341.414786 15.129662 
L 380.451405 15.030871 
L 382.281246 15.018495 
L 382.891193 15.021784 
L 382.891193 15.021784 
" clip-path="url(#p7ce5c9b30e)" style="fill: none; stroke-dasharray: 3.7,1.6; stroke-dashoffset: 0; stroke: #000000"/>
   </g>
   <g id="patch_3">
    <path d="M 63.309375 253.08 
L 63.309375 3.6 
" style="fill: none; stroke: #000000; stroke-width: 0.5; stroke-linejoin: miter; stroke-linecap: square"/>
   </g>
   <g id="patch_4">
    <path d="M 398.109375 253.08 
L 398.109375 3.6 
" style="fill: none; stroke: #000000; stroke-width: 0.5; stroke-linejoin: miter; stroke-linecap: square"/>
   </g>
   <g id="patch_5">
    <path d="M 63.309375 253.08 
L 398.109375 253.08 
" style="fill: none; stroke: #000000; stroke-width: 0.5; stroke-linejoin: miter; stroke-linecap: square"/>
   </g>
   <g id="patch_6">
    <path d="M 63.309375 3.6 
L 398.109375 3.6 
" style="fill: none; stroke: #000000; stroke-width: 0.5; stroke-linejoin: miter; stroke-linecap: square"/>
   </g>
   <g id="legend_1">
    <g id="patch_7">
     <path d="M 271.903125 247.08 
L 389.709375 247.08 
Q 392.109375 247.08 392.109375 244.68 
L 392.109375 193.03875 
Q 392.109375 190.63875 389.709375 190.63875 
L 271.903125 190.63875 
Q 269.503125 190.63875 269.503125 193.03875 
L 269.503125 244.68 
Q 269.503125 247.08 271.903125 247.08 
z
" style="fill: #ffffff; opacity: 0.8; stroke: #cccccc; stroke-linejoin: miter"/>
    </g>
    <g id="line2d_116">
     <path d="M 274.303125 200.356875 
L 286.303125 200.356875 
L 298.303125 200.356875 
" style="fill: none; stroke: #000000; stroke-linecap: square"/>
    </g>
    <g id="text_14">
     <!-- Max fitness -->
     <g transform="translate(307.903125 204.556875) scale(0.12 -0.12)">
      <defs>
       <path id="DejaVuSans-4d" d="M 628 4666 
L 1569 4666 
L 2759 1491 
L 3956 4666 
L 4897 4666 
L 4897 0 
L 4281 0 
L 4281 4097 
L 3078 897 
L 2444 897 
L 1241 4097 
L 1241 0 
L 628 0 
L 628 4666 
z
" transform="scale(0.015625)"/>
       <path id="DejaVuSans-78" d="M 3513 3500 
L 2247 1797 
L 3578 0 
L 2900 0 
L 1881 1375 
L 863 0 
L 184 0 
L 1544 1831 
L 300 3500 
L 978 3500 
L 1906 2253 
L 2834 3500 
L 3513 3500 
z
" transform="scale(0.015625)"/>
       <path id="DejaVuSans-20" transform="scale(0.015625)"/>
       <path id="DejaVuSans-66" d="M 2375 4863 
L 2375 4384 
L 1825 4384 
Q 1516 4384 1395 4259 
Q 1275 4134 1275 3809 
L 1275 3500 
L 2222 3500 
L 2222 3053 
L 1275 3053 
L 1275 0 
L 697 0 
L 697 3053 
L 147 3053 
L 147 3500 
L 697 3500 
L 697 3744 
Q 697 4328 969 4595 
Q 1241 4863 1831 4863 
L 2375 4863 
z
" transform="scale(0.015625)"/>
      </defs>
      <use xlink:href="#DejaVuSans-4d"/>
      <use xlink:href="#DejaVuSans-61" x="86.279297"/>
      <use xlink:href="#DejaVuSans-78" x="147.558594"/>
      <use xlink:href="#DejaVuSans-20" x="206.738281"/>
      <use xlink:href="#DejaVuSans-66" x="238.525391"/>
      <use xlink:href="#DejaVuSans-69" x="273.730469"/>
      <use xlink:href="#DejaVuSans-74" x="301.513672"/>
      <use xlink:href="#DejaVuSans-6e" x="340.722656"/>
      <use xlink:href="#DejaVuSans-65" x="404.101562"/>
      <use xlink:href="#DejaVuSans-73" x="465.625"/>
      <use xlink:href="#DejaVuSans-73" x="517.724609"/>
     </g>
    </g>
    <g id="patch_8">
     <path d="M 274.303125 222.170625 
L 298.303125 222.170625 
L 298.303125 213.770625 
L 274.303125 213.770625 
z
" style="fill: #0000ff; fill-opacity: 0.2; stroke: #0000ff; stroke-opacity: 0.2; stroke-linejoin: miter"/>
    </g>
    <g id="text_15">
     <!-- Top 90% -->
     <g transform="translate(307.903125 222.170625) scale(0.12 -0.12)">
      <defs>
       <path id="DejaVuSans-54" d="M -19 4666 
L 3928 4666 
L 3928 4134 
L 2272 4134 
L 2272 0 
L 1638 0 
L 1638 4134 
L -19 4134 
L -19 4666 
z
" transform="scale(0.015625)"/>
       <path id="DejaVuSans-70" d="M 1159 525 
L 1159 -1331 
L 581 -1331 
L 581 3500 
L 1159 3500 
L 1159 2969 
Q 1341 3281 1617 3432 
Q 1894 3584 2278 3584 
Q 2916 3584 3314 3078 
Q 3713 2572 3713 1747 
Q 3713 922 3314 415 
Q 2916 -91 2278 -91 
Q 1894 -91 1617 61 
Q 1341 213 1159 525 
z
M 3116 1747 
Q 3116 2381 2855 2742 
Q 2594 3103 2138 3103 
Q 1681 3103 1420 2742 
Q 1159 2381 1159 1747 
Q 1159 1113 1420 752 
Q 1681 391 2138 391 
Q 2594 391 2855 752 
Q 3116 1113 3116 1747 
z
" transform="scale(0.015625)"/>
       <path id="DejaVuSans-39" d="M 703 97 
L 703 672 
Q 941 559 1184 500 
Q 1428 441 1663 441 
Q 2288 441 2617 861 
Q 2947 1281 2994 2138 
Q 2813 1869 2534 1725 
Q 2256 1581 1919 1581 
Q 1219 1581 811 2004 
Q 403 2428 403 3163 
Q 403 3881 828 4315 
Q 1253 4750 1959 4750 
Q 2769 4750 3195 4129 
Q 3622 3509 3622 2328 
Q 3622 1225 3098 567 
Q 2575 -91 1691 -91 
Q 1453 -91 1209 -44 
Q 966 3 703 97 
z
M 1959 2075 
Q 2384 2075 2632 2365 
Q 2881 2656 2881 3163 
Q 2881 3666 2632 3958 
Q 2384 4250 1959 4250 
Q 1534 4250 1286 3958 
Q 1038 3666 1038 3163 
Q 1038 2656 1286 2365 
Q 1534 2075 1959 2075 
z
" transform="scale(0.015625)"/>
       <path id="DejaVuSans-25" d="M 4653 2053 
Q 4381 2053 4226 1822 
Q 4072 1591 4072 1178 
Q 4072 772 4226 539 
Q 4381 306 4653 306 
Q 4919 306 5073 539 
Q 5228 772 5228 1178 
Q 5228 1588 5073 1820 
Q 4919 2053 4653 2053 
z
M 4653 2450 
Q 5147 2450 5437 2106 
Q 5728 1763 5728 1178 
Q 5728 594 5436 251 
Q 5144 -91 4653 -91 
Q 4153 -91 3862 251 
Q 3572 594 3572 1178 
Q 3572 1766 3864 2108 
Q 4156 2450 4653 2450 
z
M 1428 4353 
Q 1159 4353 1004 4120 
Q 850 3888 850 3481 
Q 850 3069 1003 2837 
Q 1156 2606 1428 2606 
Q 1700 2606 1854 2837 
Q 2009 3069 2009 3481 
Q 2009 3884 1853 4118 
Q 1697 4353 1428 4353 
z
M 4250 4750 
L 4750 4750 
L 1831 -91 
L 1331 -91 
L 4250 4750 
z
M 1428 4750 
Q 1922 4750 2215 4408 
Q 2509 4066 2509 3481 
Q 2509 2891 2217 2550 
Q 1925 2209 1428 2209 
Q 931 2209 642 2551 
Q 353 2894 353 3481 
Q 353 4063 643 4406 
Q 934 4750 1428 4750 
z
" transform="scale(0.015625)"/>
      </defs>
      <use xlink:href="#DejaVuSans-54"/>
      <use xlink:href="#DejaVuSans-6f" x="44.083984"/>
      <use xlink:href="#DejaVuSans-70" x="105.265625"/>
      <use xlink:href="#DejaVuSans-20" x="168.742188"/>
      <use xlink:href="#DejaVuSans-39" x="200.529297"/>
      <use xlink:href="#DejaVuSans-30" x="264.152344"/>
      <use xlink:href="#DejaVuSans-25" x="327.775391"/>
     </g>
    </g>
    <g id="line2d_117">
     <path d="M 274.303125 235.584375 
L 286.303125 235.584375 
L 298.303125 235.584375 
" style="fill: none; stroke-dasharray: 3.7,1.6; stroke-dashoffset: 0; stroke: #000000"/>
    </g>
    <g id="text_16">
     <!-- Fitness mean -->
     <g transform="translate(307.903125 239.784375) scale(0.12 -0.12)">
      <defs>
       <path id="DejaVuSans-6d" d="M 3328 2828 
Q 3544 3216 3844 3400 
Q 4144 3584 4550 3584 
Q 5097 3584 5394 3201 
Q 5691 2819 5691 2113 
L 5691 0 
L 5113 0 
L 5113 2094 
Q 5113 2597 4934 2840 
Q 4756 3084 4391 3084 
Q 3944 3084 3684 2787 
Q 3425 2491 3425 1978 
L 3425 0 
L 2847 0 
L 2847 2094 
Q 2847 2600 2669 2842 
Q 2491 3084 2119 3084 
Q 1678 3084 1418 2786 
Q 1159 2488 1159 1978 
L 1159 0 
L 581 0 
L 581 3500 
L 1159 3500 
L 1159 2956 
Q 1356 3278 1631 3431 
Q 1906 3584 2284 3584 
Q 2666 3584 2933 3390 
Q 3200 3197 3328 2828 
z
" transform="scale(0.015625)"/>
      </defs>
      <use xlink:href="#DejaVuSans-46"/>
      <use xlink:href="#DejaVuSans-69" x="50.269531"/>
      <use xlink:href="#DejaVuSans-74" x="78.052734"/>
      <use xlink:href="#DejaVuSans-6e" x="117.261719"/>
      <use xlink:href="#DejaVuSans-65" x="180.640625"/>
      <use xlink:href="#DejaVuSans-73" x="242.164062"/>
      <use xlink:href="#DejaVuSans-73" x="294.263672"/>
      <use xlink:href="#DejaVuSans-20" x="346.363281"/>
      <use xlink:href="#DejaVuSans-6d" x="378.150391"/>
      <use xlink:href="#DejaVuSans-65" x="475.5625"/>
      <use xlink:href="#DejaVuSans-61" x="537.085938"/>
      <use xlink:href="#DejaVuSans-6e" x="598.365234"/>
     </g>
    </g>
   </g>
  </g>
 </g>
 <defs>
  <clipPath id="p7ce5c9b30e">
   <rect x="63.309375" y="3.6" width="334.8" height="249.48"/>
  </clipPath>
 </defs>
</svg>
