<?xml version="1.0" encoding="utf-8" standalone="no"?>
<!DOCTYPE svg PUBLIC "-//W3C//DTD SVG 1.1//EN"
  "http://www.w3.org/Graphics/SVG/1.1/DTD/svg11.dtd">
<svg xmlns:xlink="http://www.w3.org/1999/xlink" width="386.439375pt" height="287.4075pt" viewBox="0 0 386.439375 287.4075" xmlns="http://www.w3.org/2000/svg" version="1.1">
 <metadata>
  <rdf:RDF xmlns:dc="http://purl.org/dc/elements/1.1/" xmlns:cc="http://creativecommons.org/ns#" xmlns:rdf="http://www.w3.org/1999/02/22-rdf-syntax-ns#">
   <cc:Work>
    <dc:type rdf:resource="http://purl.org/dc/dcmitype/StillImage"/>
    <dc:date>2024-06-25T10:21:43.348267</dc:date>
    <dc:format>image/svg+xml</dc:format>
    <dc:creator>
     <cc:Agent>
      <dc:title>Matplotlib v3.9.0, https://matplotlib.org/</dc:title>
     </cc:Agent>
    </dc:creator>
   </cc:Work>
  </rdf:RDF>
 </metadata>
 <defs>
  <style type="text/css">*{stroke-linejoin: round; stroke-linecap: butt}</style>
 </defs>
 <g id="figure_1">
  <g id="patch_1">
   <path d="M 0 287.4075 
L 386.439375 287.4075 
L 386.439375 0 
L 0 0 
z
" style="fill: #ffffff"/>
  </g>
  <g id="axes_1">
   <g id="patch_2">
    <path d="M 48.039375 253.08 
L 382.839375 253.08 
L 382.839375 3.6 
L 48.039375 3.6 
z
" style="fill: #ffffff"/>
   </g>
   <g id="PolyCollection_1">
    <defs>
     <path id="mc55d4c3dea" d="M 63.257557 -241.777075 
L 63.257557 -60.097811 
L 63.867504 -45.6675 
L 64.477451 -76.770155 
L 65.087398 -114.873899 
L 65.697345 -132.337845 
L 66.307293 -138.606215 
L 66.91724 -142.062816 
L 67.527187 -129.228142 
L 68.137134 -129.228142 
L 68.747081 -145.012523 
L 69.357028 -159.25129 
L 69.966976 -155.099808 
L 70.576923 -164.804064 
L 71.18687 -167.027582 
L 71.796817 -160.435296 
L 72.406764 -159.566868 
L 73.016711 -150.094848 
L 73.626659 -158.883216 
L 74.236606 -166.274814 
L 74.846553 -158.809519 
L 75.4565 -138.091088 
L 76.066447 -141.587008 
L 76.676394 -133.517993 
L 77.286342 -152.148628 
L 77.896289 -158.174868 
L 78.506236 -151.55558 
L 79.116183 -158.680425 
L 79.72613 -155.185846 
L 80.336077 -166.630904 
L 80.946025 -157.266373 
L 81.555972 -159.77203 
L 82.165919 -163.635579 
L 82.775866 -158.218499 
L 83.385813 -164.521767 
L 83.99576 -161.766853 
L 84.605708 -159.211759 
L 85.215655 -162.719488 
L 85.825602 -141.450352 
L 86.435549 -158.034522 
L 87.045496 -156.970463 
L 87.655444 -149.627945 
L 88.265391 -161.512469 
L 88.875338 -174.190572 
L 89.485285 -176.52112 
L 90.095232 -171.387929 
L 90.705179 -170.308722 
L 91.315127 -174.243606 
L 91.925074 -173.390621 
L 92.535021 -175.372126 
L 93.144968 -179.044438 
L 93.754915 -182.307336 
L 94.364862 -181.530032 
L 94.97481 -181.861068 
L 95.584757 -181.946996 
L 96.194704 -183.493977 
L 96.804651 -185.944845 
L 97.414598 -183.655063 
L 98.024545 -186.329216 
L 98.634493 -182.26591 
L 99.24444 -184.428317 
L 99.854387 -186.271341 
L 100.464334 -191.7079 
L 101.074281 -211.778337 
L 101.684228 -223.415553 
L 102.294176 -225.881106 
L 102.904123 -220.501521 
L 103.51407 -240.270718 
L 104.124017 -234.762203 
L 104.733964 -242.689521 
L 105.343911 -245.414006 
L 105.953859 -246.656624 
L 106.563806 -252.741368 
L 107.173753 -253.444163 
L 107.7837 -251.800646 
L 108.393647 -250.357296 
L 109.003594 -250.357224 
L 109.613542 -251.843563 
L 110.223489 -251.897964 
L 110.833436 -253.997024 
L 111.443383 -254.777326 
L 112.05333 -254.979282 
L 112.663277 -256.315003 
L 113.273225 -257.967967 
L 113.883172 -259.490662 
L 114.493119 -255.472619 
L 115.103066 -258.055775 
L 115.713013 -256.934123 
L 116.32296 -254.410255 
L 116.932908 -258.262466 
L 117.542855 -259.215673 
L 118.152802 -259.40657 
L 118.762749 -259.193838 
L 119.372696 -259.670016 
L 119.982643 -259.289334 
L 120.592591 -259.451149 
L 121.202538 -259.345871 
L 121.812485 -260.69463 
L 122.422432 -259.485274 
L 123.032379 -260.259507 
L 123.642326 -259.176723 
L 124.252274 -259.462425 
L 124.862221 -259.808579 
L 125.472168 -259.6285 
L 126.082115 -260.393315 
L 126.692062 -261.095957 
L 127.302009 -260.488186 
L 127.911957 -261.852594 
L 128.521904 -260.969772 
L 129.131851 -261.629201 
L 129.741798 -261.407933 
L 130.351745 -260.94384 
L 130.961692 -259.584264 
L 131.57164 -261.382946 
L 132.181587 -262.047978 
L 132.791534 -260.838857 
L 133.401481 -260.291378 
L 134.011428 -260.081493 
L 134.621375 -259.539508 
L 135.231323 -258.422147 
L 135.84127 -259.183274 
L 136.451217 -260.63621 
L 137.061164 -260.101985 
L 137.671111 -262.428039 
L 138.281058 -262.428043 
L 138.891006 -261.966778 
L 139.500953 -261.719281 
L 140.1109 -260.965757 
L 140.720847 -260.952523 
L 141.330794 -261.328104 
L 141.940741 -259.923557 
L 142.550689 -259.412273 
L 143.160636 -259.412266 
L 143.770583 -258.104638 
L 144.38053 -259.10911 
L 144.990477 -259.752385 
L 145.600424 -261.107245 
L 146.210372 -259.965077 
L 146.820319 -259.596953 
L 147.430266 -259.600935 
L 148.040213 -259.244916 
L 148.65016 -260.770188 
L 149.260107 -260.817263 
L 149.870055 -259.347451 
L 150.480002 -258.876928 
L 151.089949 -257.474448 
L 151.699896 -258.731902 
L 152.309843 -259.779945 
L 152.91979 -258.227223 
L 153.529738 -257.285513 
L 154.139685 -256.403048 
L 154.749632 -257.330401 
L 155.359579 -257.767147 
L 155.969526 -258.985148 
L 156.579473 -258.995882 
L 157.189421 -259.07976 
L 157.799368 -261.691285 
L 158.409315 -262.851337 
L 159.019262 -262.818677 
L 159.629209 -262.608788 
L 160.239156 -259.478881 
L 160.849104 -256.481158 
L 161.459051 -260.498454 
L 162.068998 -260.335022 
L 162.678945 -262.403045 
L 163.288892 -261.817329 
L 163.898839 -261.772674 
L 164.508787 -261.31096 
L 165.118734 -261.369839 
L 165.728681 -262.891089 
L 166.338628 -261.038769 
L 166.948575 -260.897152 
L 167.558522 -259.854689 
L 168.16847 -258.989317 
L 168.778417 -258.86608 
L 169.388364 -259.058732 
L 169.998311 -260.810642 
L 170.608258 -260.439183 
L 171.218205 -259.995917 
L 171.828153 -259.574846 
L 172.4381 -259.66602 
L 173.048047 -259.73406 
L 173.657994 -258.92601 
L 174.267941 -260.150489 
L 174.877888 -260.313309 
L 175.487836 -260.795479 
L 176.097783 -261.031806 
L 176.70773 -262.041038 
L 177.317677 -261.395896 
L 177.927624 -261.963563 
L 178.537571 -262.789872 
L 179.147519 -262.175737 
L 179.757466 -261.690963 
L 180.367413 -260.669505 
L 180.97736 -260.233005 
L 181.587307 -258.831074 
L 182.197254 -259.821072 
L 182.807202 -260.232997 
L 183.417149 -261.760371 
L 184.027096 -261.760387 
L 184.637043 -263.168142 
L 185.24699 -263.678817 
L 185.856937 -263.225884 
L 186.466885 -260.871611 
L 187.076832 -260.536853 
L 187.686779 -262.309952 
L 188.296726 -262.195148 
L 188.906673 -263.293423 
L 189.51662 -262.465943 
L 190.126568 -263.06284 
L 190.736515 -263.324524 
L 191.346462 -262.981983 
L 191.956409 -263.493388 
L 192.566356 -263.679444 
L 193.176303 -263.062861 
L 193.786251 -262.262664 
L 194.396198 -262.956915 
L 195.006145 -263.281508 
L 195.616092 -263.212899 
L 196.226039 -262.47247 
L 196.835986 -263.679439 
L 197.445934 -262.997226 
L 198.055881 -260.867883 
L 198.665828 -259.353806 
L 199.275775 -260.909463 
L 199.885722 -261.072697 
L 200.495669 -261.20438 
L 201.105617 -260.531299 
L 201.715564 -259.788166 
L 202.325511 -261.352874 
L 202.935458 -262.858898 
L 203.545405 -262.828341 
L 204.155352 -262.137371 
L 204.7653 -263.086989 
L 205.375247 -263.205136 
L 205.985194 -264.051085 
L 206.595141 -265.128011 
L 207.205088 -265.550316 
L 207.815035 -265.123594 
L 208.424983 -264.785896 
L 209.03493 -263.917135 
L 209.644877 -264.611825 
L 210.254824 -264.69077 
L 210.864771 -263.669143 
L 211.474718 -263.669182 
L 212.084666 -262.060702 
L 212.694613 -262.306931 
L 213.30456 -261.682102 
L 213.914507 -262.49444 
L 214.524454 -264.162455 
L 215.134401 -264.752965 
L 215.744349 -263.16208 
L 216.354296 -264.672846 
L 216.964243 -264.672851 
L 217.57419 -264.006091 
L 218.184137 -264.589578 
L 218.794084 -264.165607 
L 219.404032 -263.940441 
L 220.013979 -262.946407 
L 220.623926 -264.482007 
L 221.233873 -264.672745 
L 221.84382 -264.634091 
L 222.453767 -264.277186 
L 223.063715 -264.672843 
L 223.673662 -264.535376 
L 224.283609 -266.014224 
L 224.893556 -266.307718 
L 225.503503 -265.821085 
L 226.11345 -265.042447 
L 226.723398 -264.868056 
L 227.333345 -262.433649 
L 227.943292 -262.903172 
L 228.553239 -262.979878 
L 229.163186 -264.318711 
L 229.773133 -263.552379 
L 230.383081 -263.942229 
L 230.993028 -264.598418 
L 231.602975 -265.437031 
L 232.212922 -266.536192 
L 232.822869 -266.893519 
L 233.432816 -266.798873 
L 234.042764 -267.137813 
L 234.652711 -267.261977 
L 235.262658 -266.676178 
L 235.872605 -265.185791 
L 236.482552 -263.846944 
L 237.092499 -263.846943 
L 237.702447 -264.981946 
L 238.312394 -263.84695 
L 238.922341 -266.076948 
L 239.532288 -265.007797 
L 240.142235 -266.068579 
L 240.752182 -266.078536 
L 241.36213 -264.743282 
L 241.972077 -266.196153 
L 242.582024 -266.199486 
L 243.191971 -266.855214 
L 243.801918 -267.052108 
L 244.411865 -267.568127 
L 245.021813 -267.055721 
L 245.63176 -265.989094 
L 246.241707 -264.342687 
L 246.851654 -264.630429 
L 247.461601 -264.917569 
L 248.071548 -265.878889 
L 248.681496 -266.37071 
L 249.291443 -266.889846 
L 249.90139 -266.889878 
L 250.511337 -266.889879 
L 251.121284 -265.739125 
L 251.731231 -265.759297 
L 252.341179 -263.799204 
L 252.951126 -264.825859 
L 253.561073 -263.929563 
L 254.17102 -263.848228 
L 254.780967 -262.879542 
L 255.390914 -263.251456 
L 256.000862 -262.950125 
L 256.610809 -263.911535 
L 257.220756 -265.089732 
L 257.830703 -266.507231 
L 258.44065 -266.507242 
L 259.050597 -265.733913 
L 259.660545 -265.915237 
L 260.270492 -266.752768 
L 260.880439 -266.007759 
L 261.490386 -266.070419 
L 262.100333 -263.259739 
L 262.71028 -263.446877 
L 263.320228 -265.200373 
L 263.930175 -265.493848 
L 264.540122 -265.851388 
L 265.150069 -264.588889 
L 265.760016 -261.705069 
L 266.369963 -265.602577 
L 266.979911 -265.741669 
L 267.589858 -265.621124 
L 268.199805 -266.037477 
L 268.809752 -266.268731 
L 269.419699 -266.179416 
L 270.029646 -265.348896 
L 270.639594 -268.314756 
L 271.249541 -268.252837 
L 271.859488 -266.47937 
L 272.469435 -266.256109 
L 273.079382 -267.813108 
L 273.689329 -265.421758 
L 274.299277 -264.587165 
L 274.909224 -263.225241 
L 275.519171 -263.81321 
L 276.129118 -264.284114 
L 276.739065 -262.644523 
L 277.349012 -262.281627 
L 277.95896 -260.579701 
L 278.568907 -260.032475 
L 279.178854 -261.490306 
L 279.788801 -260.647286 
L 280.398748 -261.773758 
L 281.008695 -262.824141 
L 281.618643 -264.390475 
L 282.22859 -264.613004 
L 282.838537 -262.278703 
L 283.448484 -263.591136 
L 284.058431 -262.568122 
L 284.668378 -262.527585 
L 285.278326 -261.016105 
L 285.888273 -262.197644 
L 286.49822 -262.227633 
L 287.108167 -262.318423 
L 287.718114 -263.297754 
L 288.328061 -263.495735 
L 288.938009 -261.888748 
L 289.547956 -261.697523 
L 290.157903 -260.495848 
L 290.76785 -261.906322 
L 291.377797 -261.80543 
L 291.987744 -261.950467 
L 292.597692 -261.950475 
L 293.207639 -261.950468 
L 293.817586 -261.684039 
L 294.427533 -264.108042 
L 295.03748 -264.163083 
L 295.647427 -264.163137 
L 296.257375 -266.290761 
L 296.867322 -266.547302 
L 297.477269 -266.037342 
L 298.087216 -264.824753 
L 298.697163 -266.661236 
L 299.30711 -267.222038 
L 299.917058 -266.942749 
L 300.527005 -266.942744 
L 301.136952 -266.942711 
L 301.746899 -266.596048 
L 302.356846 -265.409004 
L 302.966793 -265.374425 
L 303.576741 -266.86927 
L 304.186688 -265.983325 
L 304.796635 -265.419871 
L 305.406582 -261.611079 
L 306.016529 -267.153752 
L 306.626476 -267.214616 
L 307.236424 -265.844047 
L 307.846371 -265.607094 
L 308.456318 -263.866324 
L 309.066265 -264.167158 
L 309.676212 -265.329143 
L 310.286159 -264.114105 
L 310.896107 -264.210798 
L 311.506054 -265.219955 
L 312.116001 -265.661223 
L 312.725948 -265.352042 
L 313.335895 -264.638652 
L 313.945842 -266.321702 
L 314.55579 -266.321713 
L 315.165737 -266.539564 
L 315.775684 -265.56843 
L 316.385631 -266.7175 
L 316.995578 -266.308676 
L 317.605525 -266.826576 
L 318.215473 -264.998832 
L 318.82542 -265.391812 
L 319.435367 -266.160424 
L 320.045314 -264.184461 
L 320.655261 -263.386041 
L 321.265208 -264.701856 
L 321.875156 -263.599141 
L 322.485103 -264.433228 
L 323.09505 -265.310461 
L 323.704997 -264.973065 
L 324.314944 -264.701159 
L 324.924891 -263.367612 
L 325.534839 -265.503146 
L 326.144786 -263.458195 
L 326.754733 -263.971479 
L 327.36468 -263.979375 
L 327.974627 -263.323615 
L 328.584574 -265.091309 
L 329.194522 -264.850888 
L 329.804469 -264.619969 
L 330.414416 -265.191593 
L 331.024363 -263.749427 
L 331.63431 -264.907996 
L 332.244257 -264.037992 
L 332.854205 -265.653246 
L 333.464152 -262.516045 
L 334.074099 -262.489315 
L 334.684046 -263.799855 
L 335.293993 -264.037986 
L 335.90394 -265.186739 
L 336.513888 -264.753304 
L 337.123835 -264.935925 
L 337.733782 -265.453491 
L 338.343729 -265.737951 
L 338.953676 -264.871234 
L 339.563623 -265.453499 
L 340.173571 -264.969507 
L 340.783518 -264.969486 
L 341.393465 -265.126411 
L 342.003412 -266.521652 
L 342.613359 -266.402594 
L 343.223306 -264.078246 
L 343.833254 -265.032889 
L 344.443201 -265.239612 
L 345.053148 -265.04099 
L 345.663095 -265.120897 
L 346.273042 -263.878524 
L 346.88299 -260.696327 
L 347.492937 -262.451176 
L 348.102884 -260.463435 
L 348.712831 -262.10705 
L 349.322778 -264.109016 
L 349.932725 -264.725127 
L 350.542673 -265.774334 
L 351.15262 -265.59184 
L 351.762567 -266.605348 
L 352.372514 -267.313127 
L 352.982461 -267.494943 
L 353.592408 -267.295865 
L 354.202356 -267.091216 
L 354.812303 -266.857126 
L 355.42225 -267.153238 
L 356.032197 -264.435221 
L 356.642144 -263.969111 
L 357.252091 -264.71785 
L 357.862039 -264.642454 
L 358.471986 -262.937616 
L 359.081933 -263.710003 
L 359.69188 -265.113975 
L 360.301827 -264.935168 
L 360.911774 -265.403615 
L 361.521722 -265.661724 
L 362.131669 -265.871061 
L 362.741616 -266.931931 
L 363.351563 -265.784722 
L 363.96151 -266.059094 
L 364.571457 -266.636105 
L 365.181405 -265.957239 
L 365.791352 -268.302163 
L 366.401299 -268.122613 
L 367.011246 -268.122614 
L 367.621193 -267.659141 
L 367.621193 -272.467497 
L 367.621193 -272.467497 
L 367.011246 -272.467499 
L 366.401299 -272.467493 
L 365.791352 -272.467496 
L 365.181405 -272.4675 
L 364.571457 -272.467497 
L 363.96151 -272.467494 
L 363.351563 -272.467493 
L 362.741616 -272.4675 
L 362.131669 -272.467497 
L 361.521722 -272.467489 
L 360.911774 -272.467498 
L 360.301827 -272.467496 
L 359.69188 -272.467489 
L 359.081933 -272.467499 
L 358.471986 -272.467489 
L 357.862039 -272.467499 
L 357.252091 -272.467487 
L 356.642144 -272.467494 
L 356.032197 -272.467495 
L 355.42225 -272.467482 
L 354.812303 -272.467485 
L 354.202356 -272.467483 
L 353.592408 -272.467444 
L 352.982461 -272.467449 
L 352.372514 -272.467431 
L 351.762567 -272.467034 
L 351.15262 -272.466957 
L 350.542673 -272.466944 
L 349.932725 -272.466933 
L 349.322778 -272.466952 
L 348.712831 -272.466908 
L 348.102884 -272.463305 
L 347.492937 -272.463297 
L 346.88299 -272.463272 
L 346.273042 -272.4633 
L 345.663095 -272.463286 
L 345.053148 -272.463293 
L 344.443201 -272.463294 
L 343.833254 -272.463304 
L 343.223306 -272.463309 
L 342.613359 -272.463295 
L 342.003412 -272.463266 
L 341.393465 -272.463272 
L 340.783518 -272.463299 
L 340.173571 -272.463295 
L 339.563623 -272.463308 
L 338.953676 -272.4633 
L 338.343729 -272.463294 
L 337.733782 -272.463275 
L 337.123835 -272.463264 
L 336.513888 -272.463254 
L 335.90394 -272.463244 
L 335.293993 -272.463187 
L 334.684046 -272.46327 
L 334.074099 -272.451772 
L 333.464152 -272.451787 
L 332.854205 -272.451802 
L 332.244257 -272.451794 
L 331.63431 -272.451791 
L 331.024363 -272.451761 
L 330.414416 -272.451762 
L 329.804469 -272.451758 
L 329.194522 -272.451777 
L 328.584574 -272.451736 
L 327.974627 -272.451797 
L 327.36468 -272.451767 
L 326.754733 -272.451783 
L 326.144786 -272.451732 
L 325.534839 -272.451789 
L 324.924891 -272.451739 
L 324.314944 -272.451741 
L 323.704997 -272.451746 
L 323.09505 -272.451757 
L 322.485103 -272.451702 
L 321.875156 -272.451724 
L 321.265208 -272.451695 
L 320.655261 -272.45169 
L 320.045314 -272.451786 
L 319.435367 -272.451636 
L 318.82542 -272.45165 
L 318.215473 -272.348184 
L 317.605525 -272.348185 
L 316.995578 -272.348182 
L 316.385631 -272.34818 
L 315.775684 -272.348185 
L 315.165737 -272.348186 
L 314.55579 -272.348177 
L 313.945842 -272.348183 
L 313.335895 -272.348176 
L 312.725948 -272.348177 
L 312.116001 -272.348173 
L 311.506054 -272.34818 
L 310.896107 -272.348185 
L 310.286159 -272.348175 
L 309.676212 -272.348183 
L 309.066265 -272.348183 
L 308.456318 -272.348185 
L 307.846371 -272.348186 
L 307.236424 -272.348182 
L 306.626476 -272.348186 
L 306.016529 -272.348186 
L 305.406582 -272.348184 
L 304.796635 -272.348176 
L 304.186688 -272.348186 
L 303.576741 -272.348185 
L 302.966793 -272.348183 
L 302.356846 -272.348178 
L 301.746899 -272.348179 
L 301.136952 -272.348168 
L 300.527005 -272.348175 
L 299.917058 -272.348149 
L 299.30711 -272.348112 
L 298.697163 -272.309217 
L 298.087216 -272.309215 
L 297.477269 -272.309221 
L 296.867322 -272.309215 
L 296.257375 -272.309217 
L 295.647427 -272.309221 
L 295.03748 -272.309216 
L 294.427533 -272.309223 
L 293.817586 -272.309218 
L 293.207639 -272.309212 
L 292.597692 -272.309212 
L 291.987744 -272.309218 
L 291.377797 -272.309217 
L 290.76785 -272.309218 
L 290.157903 -272.309217 
L 289.547956 -272.309208 
L 288.938009 -272.309207 
L 288.328061 -272.30922 
L 287.718114 -272.309225 
L 287.108167 -272.309212 
L 286.49822 -272.309218 
L 285.888273 -272.309212 
L 285.278326 -272.309219 
L 284.668378 -272.309219 
L 284.058431 -272.309214 
L 283.448484 -272.309203 
L 282.838537 -272.309184 
L 282.22859 -272.309181 
L 281.618643 -272.30909 
L 281.008695 -272.309148 
L 280.398748 -272.309194 
L 279.788801 -272.3092 
L 279.178854 -272.309043 
L 278.568907 -272.280781 
L 277.95896 -272.280827 
L 277.349012 -272.280789 
L 276.739065 -272.280845 
L 276.129118 -272.280808 
L 275.519171 -272.280774 
L 274.909224 -272.280795 
L 274.299277 -272.280793 
L 273.689329 -272.280793 
L 273.079382 -272.280757 
L 272.469435 -272.280796 
L 271.859488 -272.280745 
L 271.249541 -272.280731 
L 270.639594 -272.280769 
L 270.029646 -272.272187 
L 269.419699 -272.272194 
L 268.809752 -272.272209 
L 268.199805 -272.269194 
L 267.589858 -272.269188 
L 266.979911 -272.224999 
L 266.369963 -272.225007 
L 265.760016 -272.224914 
L 265.150069 -272.201662 
L 264.540122 -272.154085 
L 263.930175 -272.154099 
L 263.320228 -272.154104 
L 262.71028 -272.154089 
L 262.100333 -272.154091 
L 261.490386 -272.054393 
L 260.880439 -272.054453 
L 260.270492 -272.011351 
L 259.660545 -272.01131 
L 259.050597 -272.011222 
L 258.44065 -271.869918 
L 257.830703 -271.869906 
L 257.220756 -271.869809 
L 256.610809 -271.869901 
L 256.000862 -271.869896 
L 255.390914 -271.857889 
L 254.780967 -271.857899 
L 254.17102 -271.857889 
L 253.561073 -271.857901 
L 252.951126 -271.857923 
L 252.341179 -271.857902 
L 251.731231 -271.857894 
L 251.121284 -271.857885 
L 250.511337 -271.85792 
L 249.90139 -271.857895 
L 249.291443 -271.857888 
L 248.681496 -271.857891 
L 248.071548 -271.857887 
L 247.461601 -271.857899 
L 246.851654 -271.857865 
L 246.241707 -271.857907 
L 245.63176 -271.857892 
L 245.021813 -271.857885 
L 244.411865 -271.857879 
L 243.801918 -271.857865 
L 243.191971 -271.857841 
L 242.582024 -271.857878 
L 241.972077 -271.857821 
L 241.36213 -271.857805 
L 240.752182 -271.617704 
L 240.142235 -271.617691 
L 239.532288 -271.617722 
L 238.922341 -271.617674 
L 238.312394 -271.617696 
L 237.702447 -271.617702 
L 237.092499 -271.617689 
L 236.482552 -271.617699 
L 235.872605 -271.617579 
L 235.262658 -271.482685 
L 234.652711 -271.482689 
L 234.042764 -271.482691 
L 233.432816 -271.482673 
L 232.822869 -271.48266 
L 232.212922 -271.482682 
L 231.602975 -271.482512 
L 230.993028 -271.482681 
L 230.383081 -271.413465 
L 229.773133 -271.413447 
L 229.163186 -271.413447 
L 228.553239 -271.413451 
L 227.943292 -271.413469 
L 227.333345 -271.41343 
L 226.723398 -271.413461 
L 226.11345 -271.413463 
L 225.503503 -271.413426 
L 224.893556 -271.413451 
L 224.283609 -271.413436 
L 223.673662 -271.413447 
L 223.063715 -271.413427 
L 222.453767 -270.833185 
L 221.84382 -270.833168 
L 221.233873 -270.833189 
L 220.623926 -270.833168 
L 220.013979 -270.833157 
L 219.404032 -270.833154 
L 218.794084 -270.833048 
L 218.184137 -270.83315 
L 217.57419 -270.83302 
L 216.964243 -270.516215 
L 216.354296 -270.516146 
L 215.744349 -270.516123 
L 215.134401 -270.516129 
L 214.524454 -270.516172 
L 213.914507 -270.516073 
L 213.30456 -270.516205 
L 212.694613 -270.516123 
L 212.084666 -270.516108 
L 211.474718 -270.516121 
L 210.864771 -270.51046 
L 210.254824 -270.510438 
L 209.644877 -270.51045 
L 209.03493 -270.510359 
L 208.424983 -270.510469 
L 207.815035 -270.510446 
L 207.205088 -270.510474 
L 206.595141 -270.510476 
L 205.985194 -270.510397 
L 205.375247 -270.510371 
L 204.7653 -270.510339 
L 204.155352 -270.510319 
L 203.545405 -270.51045 
L 202.935458 -270.510348 
L 202.325511 -270.182257 
L 201.715564 -270.182286 
L 201.105617 -270.182257 
L 200.495669 -270.182253 
L 199.885722 -270.182235 
L 199.275775 -270.182236 
L 198.665828 -270.182245 
L 198.055881 -270.116292 
L 197.445934 -270.038231 
L 196.835986 -270.038221 
L 196.226039 -270.038226 
L 195.616092 -270.038222 
L 195.006145 -270.038222 
L 194.396198 -270.038216 
L 193.786251 -270.038224 
L 193.176303 -270.038163 
L 192.566356 -270.038146 
L 191.956409 -270.038141 
L 191.346462 -270.016978 
L 190.736515 -270.016941 
L 190.126568 -270.016944 
L 189.51662 -270.016785 
L 188.906673 -269.7449 
L 188.296726 -269.744914 
L 187.686779 -269.744897 
L 187.076832 -269.744955 
L 186.466885 -269.744854 
L 185.856937 -269.744869 
L 185.24699 -269.744886 
L 184.637043 -269.744881 
L 184.027096 -269.744886 
L 183.417149 -269.663094 
L 182.807202 -269.586072 
L 182.197254 -269.586061 
L 181.587307 -269.586043 
L 180.97736 -269.58607 
L 180.367413 -269.586074 
L 179.757466 -269.586061 
L 179.147519 -269.585956 
L 178.537571 -269.585955 
L 177.927624 -269.585974 
L 177.317677 -269.585999 
L 176.70773 -269.586031 
L 176.097783 -269.586034 
L 175.487836 -269.585976 
L 174.877888 -269.585994 
L 174.267941 -269.411081 
L 173.657994 -269.41108 
L 173.048047 -269.411056 
L 172.4381 -269.411068 
L 171.828153 -269.411084 
L 171.218205 -269.411052 
L 170.608258 -269.411059 
L 169.998311 -269.411017 
L 169.388364 -269.411069 
L 168.778417 -269.411015 
L 168.16847 -269.411007 
L 167.558522 -269.41107 
L 166.948575 -269.411054 
L 166.338628 -269.411037 
L 165.728681 -269.41107 
L 165.118734 -269.41103 
L 164.508787 -269.411068 
L 163.898839 -269.410999 
L 163.288892 -269.411079 
L 162.678945 -269.410996 
L 162.068998 -269.411013 
L 161.459051 -269.410973 
L 160.849104 -269.411002 
L 160.239156 -269.39199 
L 159.629209 -269.391972 
L 159.019262 -269.39198 
L 158.409315 -269.391965 
L 157.799368 -269.391926 
L 157.189421 -269.391929 
L 156.579473 -269.391935 
L 155.969526 -269.391922 
L 155.359579 -269.391937 
L 154.749632 -269.364183 
L 154.139685 -269.364184 
L 153.529738 -269.364169 
L 152.91979 -269.364181 
L 152.309843 -269.364179 
L 151.699896 -269.364179 
L 151.089949 -269.364176 
L 150.480002 -269.364169 
L 149.870055 -269.364184 
L 149.260107 -269.364169 
L 148.65016 -269.364145 
L 148.040213 -269.364012 
L 147.430266 -269.34101 
L 146.820319 -269.341013 
L 146.210372 -269.341011 
L 145.600424 -269.341005 
L 144.990477 -269.340997 
L 144.38053 -269.340987 
L 143.770583 -269.341005 
L 143.160636 -269.340972 
L 142.550689 -269.337118 
L 141.940741 -269.337155 
L 141.330794 -269.33706 
L 140.720847 -269.228667 
L 140.1109 -269.22864 
L 139.500953 -269.228637 
L 138.891006 -269.228622 
L 138.281058 -269.228665 
L 137.671111 -269.228585 
L 137.061164 -269.228585 
L 136.451217 -269.22484 
L 135.84127 -269.224862 
L 135.231323 -269.224863 
L 134.621375 -269.224835 
L 134.011428 -269.224832 
L 133.401481 -269.224803 
L 132.791534 -269.224802 
L 132.181587 -269.224774 
L 131.57164 -269.22475 
L 130.961692 -268.994542 
L 130.351745 -268.994601 
L 129.741798 -268.994597 
L 129.131851 -268.994629 
L 128.521904 -268.820066 
L 127.911957 -268.820051 
L 127.302009 -268.820061 
L 126.692062 -268.820047 
L 126.082115 -268.819949 
L 125.472168 -268.819859 
L 124.862221 -268.69121 
L 124.252274 -268.671369 
L 123.642326 -268.67143 
L 123.032379 -268.662434 
L 122.422432 -268.662444 
L 121.812485 -268.662427 
L 121.202538 -268.662451 
L 120.592591 -268.662397 
L 119.982643 -268.635209 
L 119.372696 -268.635231 
L 118.762749 -268.635219 
L 118.152802 -268.635149 
L 117.542855 -268.535318 
L 116.932908 -268.535294 
L 116.32296 -268.535272 
L 115.713013 -268.535208 
L 115.103066 -268.535276 
L 114.493119 -268.317225 
L 113.883172 -268.317178 
L 113.273225 -268.317262 
L 112.663277 -268.317225 
L 112.05333 -268.317196 
L 111.443383 -268.146587 
L 110.833436 -268.146586 
L 110.223489 -268.146576 
L 109.613542 -268.146525 
L 109.003594 -268.146551 
L 108.393647 -268.146482 
L 107.7837 -267.711655 
L 107.173753 -267.711647 
L 106.563806 -267.711646 
L 105.953859 -267.711644 
L 105.343911 -267.711645 
L 104.733964 -267.711646 
L 104.124017 -267.711655 
L 103.51407 -267.711653 
L 102.904123 -267.711639 
L 102.294176 -267.711637 
L 101.684228 -267.711645 
L 101.074281 -267.711621 
L 100.464334 -267.711645 
L 99.854387 -267.711624 
L 99.24444 -267.711619 
L 98.634493 -267.711633 
L 98.024545 -267.71162 
L 97.414598 -267.711586 
L 96.804651 -265.94601 
L 96.194704 -265.945695 
L 95.584757 -265.946164 
L 94.97481 -265.216607 
L 94.364862 -265.216658 
L 93.754915 -264.74529 
L 93.144968 -264.745066 
L 92.535021 -264.745189 
L 91.925074 -264.745358 
L 91.315127 -264.745309 
L 90.705179 -264.74511 
L 90.095232 -264.745216 
L 89.485285 -264.745116 
L 88.875338 -264.74531 
L 88.265391 -264.745148 
L 87.655444 -264.745146 
L 87.045496 -264.745239 
L 86.435549 -264.745199 
L 85.825602 -264.745228 
L 85.215655 -264.745189 
L 84.605708 -264.745212 
L 83.99576 -264.745184 
L 83.385813 -264.74508 
L 82.775866 -260.779793 
L 82.165919 -260.780573 
L 81.555972 -260.779919 
L 80.946025 -260.780395 
L 80.336077 -260.780299 
L 79.72613 -260.77993 
L 79.116183 -258.730792 
L 78.506236 -258.730795 
L 77.896289 -258.645178 
L 77.286342 -258.645141 
L 76.676394 -257.599265 
L 76.066447 -257.598818 
L 75.4565 -257.599147 
L 74.846553 -257.599154 
L 74.236606 -257.599186 
L 73.626659 -257.599363 
L 73.016711 -257.599043 
L 72.406764 -257.598508 
L 71.796817 -257.599243 
L 71.18687 -255.669571 
L 70.576923 -255.669115 
L 69.966976 -255.669338 
L 69.357028 -255.66957 
L 68.747081 -255.28319 
L 68.137134 -255.283285 
L 67.527187 -255.283201 
L 66.91724 -254.495355 
L 66.307293 -254.495355 
L 65.697345 -254.495356 
L 65.087398 -247.223597 
L 64.477451 -244.677696 
L 63.867504 -242.67562 
L 63.257557 -241.777075 
z
" style="stroke: #0000ff; stroke-opacity: 0.2"/>
    </defs>
    <g clip-path="url(#pe931643008)">
     <use xlink:href="#mc55d4c3dea" x="0" y="287.4075" style="fill: #0000ff; fill-opacity: 0.2; stroke: #0000ff; stroke-opacity: 0.2"/>
    </g>
   </g>
   <g id="matplotlib.axis_1">
    <g id="xtick_1">
     <g id="line2d_1">
      <path d="M 63.257557 253.08 
L 63.257557 3.6 
" clip-path="url(#pe931643008)" style="fill: none; stroke: #b0b0b0; stroke-width: 0.5; stroke-linecap: square"/>
     </g>
     <g id="line2d_2">
      <defs>
       <path id="m680d84f6c1" d="M 0 0 
L 0 -3 
" style="stroke: #000000; stroke-width: 0.5"/>
      </defs>
      <g>
       <use xlink:href="#m680d84f6c1" x="63.257557" y="253.08" style="stroke: #000000; stroke-width: 0.5"/>
      </g>
     </g>
     <g id="line2d_3">
      <defs>
       <path id="m961a8ee616" d="M 0 0 
L 0 3 
" style="stroke: #000000; stroke-width: 0.5"/>
      </defs>
      <g>
       <use xlink:href="#m961a8ee616" x="63.257557" y="3.6" style="stroke: #000000; stroke-width: 0.5"/>
      </g>
     </g>
     <g id="text_1">
      <!-- 0 -->
      <g transform="translate(59.440057 265.698125) scale(0.12 -0.12)">
       <defs>
        <path id="DejaVuSans-30" d="M 2034 4250 
Q 1547 4250 1301 3770 
Q 1056 3291 1056 2328 
Q 1056 1369 1301 889 
Q 1547 409 2034 409 
Q 2525 409 2770 889 
Q 3016 1369 3016 2328 
Q 3016 3291 2770 3770 
Q 2525 4250 2034 4250 
z
M 2034 4750 
Q 2819 4750 3233 4129 
Q 3647 3509 3647 2328 
Q 3647 1150 3233 529 
Q 2819 -91 2034 -91 
Q 1250 -91 836 529 
Q 422 1150 422 2328 
Q 422 3509 836 4129 
Q 1250 4750 2034 4750 
z
" transform="scale(0.015625)"/>
       </defs>
       <use xlink:href="#DejaVuSans-30"/>
      </g>
     </g>
    </g>
    <g id="xtick_2">
     <g id="line2d_4">
      <path d="M 124.252274 253.08 
L 124.252274 3.6 
" clip-path="url(#pe931643008)" style="fill: none; stroke: #b0b0b0; stroke-width: 0.5; stroke-linecap: square"/>
     </g>
     <g id="line2d_5">
      <g>
       <use xlink:href="#m680d84f6c1" x="124.252274" y="253.08" style="stroke: #000000; stroke-width: 0.5"/>
      </g>
     </g>
     <g id="line2d_6">
      <g>
       <use xlink:href="#m961a8ee616" x="124.252274" y="3.6" style="stroke: #000000; stroke-width: 0.5"/>
      </g>
     </g>
     <g id="text_2">
      <!-- 100 -->
      <g transform="translate(112.799774 265.698125) scale(0.12 -0.12)">
       <defs>
        <path id="DejaVuSans-31" d="M 794 531 
L 1825 531 
L 1825 4091 
L 703 3866 
L 703 4441 
L 1819 4666 
L 2450 4666 
L 2450 531 
L 3481 531 
L 3481 0 
L 794 0 
L 794 531 
z
" transform="scale(0.015625)"/>
       </defs>
       <use xlink:href="#DejaVuSans-31"/>
       <use xlink:href="#DejaVuSans-30" x="63.623047"/>
       <use xlink:href="#DejaVuSans-30" x="127.246094"/>
      </g>
     </g>
    </g>
    <g id="xtick_3">
     <g id="line2d_7">
      <path d="M 185.24699 253.08 
L 185.24699 3.6 
" clip-path="url(#pe931643008)" style="fill: none; stroke: #b0b0b0; stroke-width: 0.5; stroke-linecap: square"/>
     </g>
     <g id="line2d_8">
      <g>
       <use xlink:href="#m680d84f6c1" x="185.24699" y="253.08" style="stroke: #000000; stroke-width: 0.5"/>
      </g>
     </g>
     <g id="line2d_9">
      <g>
       <use xlink:href="#m961a8ee616" x="185.24699" y="3.6" style="stroke: #000000; stroke-width: 0.5"/>
      </g>
     </g>
     <g id="text_3">
      <!-- 200 -->
      <g transform="translate(173.79449 265.698125) scale(0.12 -0.12)">
       <defs>
        <path id="DejaVuSans-32" d="M 1228 531 
L 3431 531 
L 3431 0 
L 469 0 
L 469 531 
Q 828 903 1448 1529 
Q 2069 2156 2228 2338 
Q 2531 2678 2651 2914 
Q 2772 3150 2772 3378 
Q 2772 3750 2511 3984 
Q 2250 4219 1831 4219 
Q 1534 4219 1204 4116 
Q 875 4013 500 3803 
L 500 4441 
Q 881 4594 1212 4672 
Q 1544 4750 1819 4750 
Q 2544 4750 2975 4387 
Q 3406 4025 3406 3419 
Q 3406 3131 3298 2873 
Q 3191 2616 2906 2266 
Q 2828 2175 2409 1742 
Q 1991 1309 1228 531 
z
" transform="scale(0.015625)"/>
       </defs>
       <use xlink:href="#DejaVuSans-32"/>
       <use xlink:href="#DejaVuSans-30" x="63.623047"/>
       <use xlink:href="#DejaVuSans-30" x="127.246094"/>
      </g>
     </g>
    </g>
    <g id="xtick_4">
     <g id="line2d_10">
      <path d="M 246.241707 253.08 
L 246.241707 3.6 
" clip-path="url(#pe931643008)" style="fill: none; stroke: #b0b0b0; stroke-width: 0.5; stroke-linecap: square"/>
     </g>
     <g id="line2d_11">
      <g>
       <use xlink:href="#m680d84f6c1" x="246.241707" y="253.08" style="stroke: #000000; stroke-width: 0.5"/>
      </g>
     </g>
     <g id="line2d_12">
      <g>
       <use xlink:href="#m961a8ee616" x="246.241707" y="3.6" style="stroke: #000000; stroke-width: 0.5"/>
      </g>
     </g>
     <g id="text_4">
      <!-- 300 -->
      <g transform="translate(234.789207 265.698125) scale(0.12 -0.12)">
       <defs>
        <path id="DejaVuSans-33" d="M 2597 2516 
Q 3050 2419 3304 2112 
Q 3559 1806 3559 1356 
Q 3559 666 3084 287 
Q 2609 -91 1734 -91 
Q 1441 -91 1130 -33 
Q 819 25 488 141 
L 488 750 
Q 750 597 1062 519 
Q 1375 441 1716 441 
Q 2309 441 2620 675 
Q 2931 909 2931 1356 
Q 2931 1769 2642 2001 
Q 2353 2234 1838 2234 
L 1294 2234 
L 1294 2753 
L 1863 2753 
Q 2328 2753 2575 2939 
Q 2822 3125 2822 3475 
Q 2822 3834 2567 4026 
Q 2313 4219 1838 4219 
Q 1578 4219 1281 4162 
Q 984 4106 628 3988 
L 628 4550 
Q 988 4650 1302 4700 
Q 1616 4750 1894 4750 
Q 2613 4750 3031 4423 
Q 3450 4097 3450 3541 
Q 3450 3153 3228 2886 
Q 3006 2619 2597 2516 
z
" transform="scale(0.015625)"/>
       </defs>
       <use xlink:href="#DejaVuSans-33"/>
       <use xlink:href="#DejaVuSans-30" x="63.623047"/>
       <use xlink:href="#DejaVuSans-30" x="127.246094"/>
      </g>
     </g>
    </g>
    <g id="xtick_5">
     <g id="line2d_13">
      <path d="M 307.236424 253.08 
L 307.236424 3.6 
" clip-path="url(#pe931643008)" style="fill: none; stroke: #b0b0b0; stroke-width: 0.5; stroke-linecap: square"/>
     </g>
     <g id="line2d_14">
      <g>
       <use xlink:href="#m680d84f6c1" x="307.236424" y="253.08" style="stroke: #000000; stroke-width: 0.5"/>
      </g>
     </g>
     <g id="line2d_15">
      <g>
       <use xlink:href="#m961a8ee616" x="307.236424" y="3.6" style="stroke: #000000; stroke-width: 0.5"/>
      </g>
     </g>
     <g id="text_5">
      <!-- 400 -->
      <g transform="translate(295.783924 265.698125) scale(0.12 -0.12)">
       <defs>
        <path id="DejaVuSans-34" d="M 2419 4116 
L 825 1625 
L 2419 1625 
L 2419 4116 
z
M 2253 4666 
L 3047 4666 
L 3047 1625 
L 3713 1625 
L 3713 1100 
L 3047 1100 
L 3047 0 
L 2419 0 
L 2419 1100 
L 313 1100 
L 313 1709 
L 2253 4666 
z
" transform="scale(0.015625)"/>
       </defs>
       <use xlink:href="#DejaVuSans-34"/>
       <use xlink:href="#DejaVuSans-30" x="63.623047"/>
       <use xlink:href="#DejaVuSans-30" x="127.246094"/>
      </g>
     </g>
    </g>
    <g id="xtick_6">
     <g id="line2d_16">
      <path d="M 368.23114 253.08 
L 368.23114 3.6 
" clip-path="url(#pe931643008)" style="fill: none; stroke: #b0b0b0; stroke-width: 0.5; stroke-linecap: square"/>
     </g>
     <g id="line2d_17">
      <g>
       <use xlink:href="#m680d84f6c1" x="368.23114" y="253.08" style="stroke: #000000; stroke-width: 0.5"/>
      </g>
     </g>
     <g id="line2d_18">
      <g>
       <use xlink:href="#m961a8ee616" x="368.23114" y="3.6" style="stroke: #000000; stroke-width: 0.5"/>
      </g>
     </g>
     <g id="text_6">
      <!-- 500 -->
      <g transform="translate(356.77864 265.698125) scale(0.12 -0.12)">
       <defs>
        <path id="DejaVuSans-35" d="M 691 4666 
L 3169 4666 
L 3169 4134 
L 1269 4134 
L 1269 2991 
Q 1406 3038 1543 3061 
Q 1681 3084 1819 3084 
Q 2600 3084 3056 2656 
Q 3513 2228 3513 1497 
Q 3513 744 3044 326 
Q 2575 -91 1722 -91 
Q 1428 -91 1123 -41 
Q 819 9 494 109 
L 494 744 
Q 775 591 1075 516 
Q 1375 441 1709 441 
Q 2250 441 2565 725 
Q 2881 1009 2881 1497 
Q 2881 1984 2565 2268 
Q 2250 2553 1709 2553 
Q 1456 2553 1204 2497 
Q 953 2441 691 2322 
L 691 4666 
z
" transform="scale(0.015625)"/>
       </defs>
       <use xlink:href="#DejaVuSans-35"/>
       <use xlink:href="#DejaVuSans-30" x="63.623047"/>
       <use xlink:href="#DejaVuSans-30" x="127.246094"/>
      </g>
     </g>
    </g>
    <g id="xtick_7">
     <g id="line2d_19">
      <defs>
       <path id="m680913c253" d="M 0 0 
L 0 -1.5 
" style="stroke: #000000; stroke-width: 0.5"/>
      </defs>
      <g>
       <use xlink:href="#m680913c253" x="51.058613" y="253.08" style="stroke: #000000; stroke-width: 0.5"/>
      </g>
     </g>
     <g id="line2d_20">
      <defs>
       <path id="mdc4d631918" d="M 0 0 
L 0 1.5 
" style="stroke: #000000; stroke-width: 0.5"/>
      </defs>
      <g>
       <use xlink:href="#mdc4d631918" x="51.058613" y="3.6" style="stroke: #000000; stroke-width: 0.5"/>
      </g>
     </g>
    </g>
    <g id="xtick_8">
     <g id="line2d_21">
      <g>
       <use xlink:href="#m680913c253" x="75.4565" y="253.08" style="stroke: #000000; stroke-width: 0.5"/>
      </g>
     </g>
     <g id="line2d_22">
      <g>
       <use xlink:href="#mdc4d631918" x="75.4565" y="3.6" style="stroke: #000000; stroke-width: 0.5"/>
      </g>
     </g>
    </g>
    <g id="xtick_9">
     <g id="line2d_23">
      <g>
       <use xlink:href="#m680913c253" x="87.655444" y="253.08" style="stroke: #000000; stroke-width: 0.5"/>
      </g>
     </g>
     <g id="line2d_24">
      <g>
       <use xlink:href="#mdc4d631918" x="87.655444" y="3.6" style="stroke: #000000; stroke-width: 0.5"/>
      </g>
     </g>
    </g>
    <g id="xtick_10">
     <g id="line2d_25">
      <g>
       <use xlink:href="#m680913c253" x="99.854387" y="253.08" style="stroke: #000000; stroke-width: 0.5"/>
      </g>
     </g>
     <g id="line2d_26">
      <g>
       <use xlink:href="#mdc4d631918" x="99.854387" y="3.6" style="stroke: #000000; stroke-width: 0.5"/>
      </g>
     </g>
    </g>
    <g id="xtick_11">
     <g id="line2d_27">
      <g>
       <use xlink:href="#m680913c253" x="112.05333" y="253.08" style="stroke: #000000; stroke-width: 0.5"/>
      </g>
     </g>
     <g id="line2d_28">
      <g>
       <use xlink:href="#mdc4d631918" x="112.05333" y="3.6" style="stroke: #000000; stroke-width: 0.5"/>
      </g>
     </g>
    </g>
    <g id="xtick_12">
     <g id="line2d_29">
      <g>
       <use xlink:href="#m680913c253" x="136.451217" y="253.08" style="stroke: #000000; stroke-width: 0.5"/>
      </g>
     </g>
     <g id="line2d_30">
      <g>
       <use xlink:href="#mdc4d631918" x="136.451217" y="3.6" style="stroke: #000000; stroke-width: 0.5"/>
      </g>
     </g>
    </g>
    <g id="xtick_13">
     <g id="line2d_31">
      <g>
       <use xlink:href="#m680913c253" x="148.65016" y="253.08" style="stroke: #000000; stroke-width: 0.5"/>
      </g>
     </g>
     <g id="line2d_32">
      <g>
       <use xlink:href="#mdc4d631918" x="148.65016" y="3.6" style="stroke: #000000; stroke-width: 0.5"/>
      </g>
     </g>
    </g>
    <g id="xtick_14">
     <g id="line2d_33">
      <g>
       <use xlink:href="#m680913c253" x="160.849104" y="253.08" style="stroke: #000000; stroke-width: 0.5"/>
      </g>
     </g>
     <g id="line2d_34">
      <g>
       <use xlink:href="#mdc4d631918" x="160.849104" y="3.6" style="stroke: #000000; stroke-width: 0.5"/>
      </g>
     </g>
    </g>
    <g id="xtick_15">
     <g id="line2d_35">
      <g>
       <use xlink:href="#m680913c253" x="173.048047" y="253.08" style="stroke: #000000; stroke-width: 0.5"/>
      </g>
     </g>
     <g id="line2d_36">
      <g>
       <use xlink:href="#mdc4d631918" x="173.048047" y="3.6" style="stroke: #000000; stroke-width: 0.5"/>
      </g>
     </g>
    </g>
    <g id="xtick_16">
     <g id="line2d_37">
      <g>
       <use xlink:href="#m680913c253" x="197.445934" y="253.08" style="stroke: #000000; stroke-width: 0.5"/>
      </g>
     </g>
     <g id="line2d_38">
      <g>
       <use xlink:href="#mdc4d631918" x="197.445934" y="3.6" style="stroke: #000000; stroke-width: 0.5"/>
      </g>
     </g>
    </g>
    <g id="xtick_17">
     <g id="line2d_39">
      <g>
       <use xlink:href="#m680913c253" x="209.644877" y="253.08" style="stroke: #000000; stroke-width: 0.5"/>
      </g>
     </g>
     <g id="line2d_40">
      <g>
       <use xlink:href="#mdc4d631918" x="209.644877" y="3.6" style="stroke: #000000; stroke-width: 0.5"/>
      </g>
     </g>
    </g>
    <g id="xtick_18">
     <g id="line2d_41">
      <g>
       <use xlink:href="#m680913c253" x="221.84382" y="253.08" style="stroke: #000000; stroke-width: 0.5"/>
      </g>
     </g>
     <g id="line2d_42">
      <g>
       <use xlink:href="#mdc4d631918" x="221.84382" y="3.6" style="stroke: #000000; stroke-width: 0.5"/>
      </g>
     </g>
    </g>
    <g id="xtick_19">
     <g id="line2d_43">
      <g>
       <use xlink:href="#m680913c253" x="234.042764" y="253.08" style="stroke: #000000; stroke-width: 0.5"/>
      </g>
     </g>
     <g id="line2d_44">
      <g>
       <use xlink:href="#mdc4d631918" x="234.042764" y="3.6" style="stroke: #000000; stroke-width: 0.5"/>
      </g>
     </g>
    </g>
    <g id="xtick_20">
     <g id="line2d_45">
      <g>
       <use xlink:href="#m680913c253" x="258.44065" y="253.08" style="stroke: #000000; stroke-width: 0.5"/>
      </g>
     </g>
     <g id="line2d_46">
      <g>
       <use xlink:href="#mdc4d631918" x="258.44065" y="3.6" style="stroke: #000000; stroke-width: 0.5"/>
      </g>
     </g>
    </g>
    <g id="xtick_21">
     <g id="line2d_47">
      <g>
       <use xlink:href="#m680913c253" x="270.639594" y="253.08" style="stroke: #000000; stroke-width: 0.5"/>
      </g>
     </g>
     <g id="line2d_48">
      <g>
       <use xlink:href="#mdc4d631918" x="270.639594" y="3.6" style="stroke: #000000; stroke-width: 0.5"/>
      </g>
     </g>
    </g>
    <g id="xtick_22">
     <g id="line2d_49">
      <g>
       <use xlink:href="#m680913c253" x="282.838537" y="253.08" style="stroke: #000000; stroke-width: 0.5"/>
      </g>
     </g>
     <g id="line2d_50">
      <g>
       <use xlink:href="#mdc4d631918" x="282.838537" y="3.6" style="stroke: #000000; stroke-width: 0.5"/>
      </g>
     </g>
    </g>
    <g id="xtick_23">
     <g id="line2d_51">
      <g>
       <use xlink:href="#m680913c253" x="295.03748" y="253.08" style="stroke: #000000; stroke-width: 0.5"/>
      </g>
     </g>
     <g id="line2d_52">
      <g>
       <use xlink:href="#mdc4d631918" x="295.03748" y="3.6" style="stroke: #000000; stroke-width: 0.5"/>
      </g>
     </g>
    </g>
    <g id="xtick_24">
     <g id="line2d_53">
      <g>
       <use xlink:href="#m680913c253" x="319.435367" y="253.08" style="stroke: #000000; stroke-width: 0.5"/>
      </g>
     </g>
     <g id="line2d_54">
      <g>
       <use xlink:href="#mdc4d631918" x="319.435367" y="3.6" style="stroke: #000000; stroke-width: 0.5"/>
      </g>
     </g>
    </g>
    <g id="xtick_25">
     <g id="line2d_55">
      <g>
       <use xlink:href="#m680913c253" x="331.63431" y="253.08" style="stroke: #000000; stroke-width: 0.5"/>
      </g>
     </g>
     <g id="line2d_56">
      <g>
       <use xlink:href="#mdc4d631918" x="331.63431" y="3.6" style="stroke: #000000; stroke-width: 0.5"/>
      </g>
     </g>
    </g>
    <g id="xtick_26">
     <g id="line2d_57">
      <g>
       <use xlink:href="#m680913c253" x="343.833254" y="253.08" style="stroke: #000000; stroke-width: 0.5"/>
      </g>
     </g>
     <g id="line2d_58">
      <g>
       <use xlink:href="#mdc4d631918" x="343.833254" y="3.6" style="stroke: #000000; stroke-width: 0.5"/>
      </g>
     </g>
    </g>
    <g id="xtick_27">
     <g id="line2d_59">
      <g>
       <use xlink:href="#m680913c253" x="356.032197" y="253.08" style="stroke: #000000; stroke-width: 0.5"/>
      </g>
     </g>
     <g id="line2d_60">
      <g>
       <use xlink:href="#mdc4d631918" x="356.032197" y="3.6" style="stroke: #000000; stroke-width: 0.5"/>
      </g>
     </g>
    </g>
    <g id="xtick_28">
     <g id="line2d_61">
      <g>
       <use xlink:href="#m680913c253" x="380.430084" y="253.08" style="stroke: #000000; stroke-width: 0.5"/>
      </g>
     </g>
     <g id="line2d_62">
      <g>
       <use xlink:href="#mdc4d631918" x="380.430084" y="3.6" style="stroke: #000000; stroke-width: 0.5"/>
      </g>
     </g>
    </g>
    <g id="text_7">
     <!-- Generations -->
     <g transform="translate(178.842188 281.311875) scale(0.12 -0.12)">
      <defs>
       <path id="DejaVuSans-47" d="M 3809 666 
L 3809 1919 
L 2778 1919 
L 2778 2438 
L 4434 2438 
L 4434 434 
Q 4069 175 3628 42 
Q 3188 -91 2688 -91 
Q 1594 -91 976 548 
Q 359 1188 359 2328 
Q 359 3472 976 4111 
Q 1594 4750 2688 4750 
Q 3144 4750 3555 4637 
Q 3966 4525 4313 4306 
L 4313 3634 
Q 3963 3931 3569 4081 
Q 3175 4231 2741 4231 
Q 1884 4231 1454 3753 
Q 1025 3275 1025 2328 
Q 1025 1384 1454 906 
Q 1884 428 2741 428 
Q 3075 428 3337 486 
Q 3600 544 3809 666 
z
" transform="scale(0.015625)"/>
       <path id="DejaVuSans-65" d="M 3597 1894 
L 3597 1613 
L 953 1613 
Q 991 1019 1311 708 
Q 1631 397 2203 397 
Q 2534 397 2845 478 
Q 3156 559 3463 722 
L 3463 178 
Q 3153 47 2828 -22 
Q 2503 -91 2169 -91 
Q 1331 -91 842 396 
Q 353 884 353 1716 
Q 353 2575 817 3079 
Q 1281 3584 2069 3584 
Q 2775 3584 3186 3129 
Q 3597 2675 3597 1894 
z
M 3022 2063 
Q 3016 2534 2758 2815 
Q 2500 3097 2075 3097 
Q 1594 3097 1305 2825 
Q 1016 2553 972 2059 
L 3022 2063 
z
" transform="scale(0.015625)"/>
       <path id="DejaVuSans-6e" d="M 3513 2113 
L 3513 0 
L 2938 0 
L 2938 2094 
Q 2938 2591 2744 2837 
Q 2550 3084 2163 3084 
Q 1697 3084 1428 2787 
Q 1159 2491 1159 1978 
L 1159 0 
L 581 0 
L 581 3500 
L 1159 3500 
L 1159 2956 
Q 1366 3272 1645 3428 
Q 1925 3584 2291 3584 
Q 2894 3584 3203 3211 
Q 3513 2838 3513 2113 
z
" transform="scale(0.015625)"/>
       <path id="DejaVuSans-72" d="M 2631 2963 
Q 2534 3019 2420 3045 
Q 2306 3072 2169 3072 
Q 1681 3072 1420 2755 
Q 1159 2438 1159 1844 
L 1159 0 
L 581 0 
L 581 3500 
L 1159 3500 
L 1159 2956 
Q 1341 3275 1631 3429 
Q 1922 3584 2338 3584 
Q 2397 3584 2469 3576 
Q 2541 3569 2628 3553 
L 2631 2963 
z
" transform="scale(0.015625)"/>
       <path id="DejaVuSans-61" d="M 2194 1759 
Q 1497 1759 1228 1600 
Q 959 1441 959 1056 
Q 959 750 1161 570 
Q 1363 391 1709 391 
Q 2188 391 2477 730 
Q 2766 1069 2766 1631 
L 2766 1759 
L 2194 1759 
z
M 3341 1997 
L 3341 0 
L 2766 0 
L 2766 531 
Q 2569 213 2275 61 
Q 1981 -91 1556 -91 
Q 1019 -91 701 211 
Q 384 513 384 1019 
Q 384 1609 779 1909 
Q 1175 2209 1959 2209 
L 2766 2209 
L 2766 2266 
Q 2766 2663 2505 2880 
Q 2244 3097 1772 3097 
Q 1472 3097 1187 3025 
Q 903 2953 641 2809 
L 641 3341 
Q 956 3463 1253 3523 
Q 1550 3584 1831 3584 
Q 2591 3584 2966 3190 
Q 3341 2797 3341 1997 
z
" transform="scale(0.015625)"/>
       <path id="DejaVuSans-74" d="M 1172 4494 
L 1172 3500 
L 2356 3500 
L 2356 3053 
L 1172 3053 
L 1172 1153 
Q 1172 725 1289 603 
Q 1406 481 1766 481 
L 2356 481 
L 2356 0 
L 1766 0 
Q 1100 0 847 248 
Q 594 497 594 1153 
L 594 3053 
L 172 3053 
L 172 3500 
L 594 3500 
L 594 4494 
L 1172 4494 
z
" transform="scale(0.015625)"/>
       <path id="DejaVuSans-69" d="M 603 3500 
L 1178 3500 
L 1178 0 
L 603 0 
L 603 3500 
z
M 603 4863 
L 1178 4863 
L 1178 4134 
L 603 4134 
L 603 4863 
z
" transform="scale(0.015625)"/>
       <path id="DejaVuSans-6f" d="M 1959 3097 
Q 1497 3097 1228 2736 
Q 959 2375 959 1747 
Q 959 1119 1226 758 
Q 1494 397 1959 397 
Q 2419 397 2687 759 
Q 2956 1122 2956 1747 
Q 2956 2369 2687 2733 
Q 2419 3097 1959 3097 
z
M 1959 3584 
Q 2709 3584 3137 3096 
Q 3566 2609 3566 1747 
Q 3566 888 3137 398 
Q 2709 -91 1959 -91 
Q 1206 -91 779 398 
Q 353 888 353 1747 
Q 353 2609 779 3096 
Q 1206 3584 1959 3584 
z
" transform="scale(0.015625)"/>
       <path id="DejaVuSans-73" d="M 2834 3397 
L 2834 2853 
Q 2591 2978 2328 3040 
Q 2066 3103 1784 3103 
Q 1356 3103 1142 2972 
Q 928 2841 928 2578 
Q 928 2378 1081 2264 
Q 1234 2150 1697 2047 
L 1894 2003 
Q 2506 1872 2764 1633 
Q 3022 1394 3022 966 
Q 3022 478 2636 193 
Q 2250 -91 1575 -91 
Q 1294 -91 989 -36 
Q 684 19 347 128 
L 347 722 
Q 666 556 975 473 
Q 1284 391 1588 391 
Q 1994 391 2212 530 
Q 2431 669 2431 922 
Q 2431 1156 2273 1281 
Q 2116 1406 1581 1522 
L 1381 1569 
Q 847 1681 609 1914 
Q 372 2147 372 2553 
Q 372 3047 722 3315 
Q 1072 3584 1716 3584 
Q 2034 3584 2315 3537 
Q 2597 3491 2834 3397 
z
" transform="scale(0.015625)"/>
      </defs>
      <use xlink:href="#DejaVuSans-47"/>
      <use xlink:href="#DejaVuSans-65" x="77.490234"/>
      <use xlink:href="#DejaVuSans-6e" x="139.013672"/>
      <use xlink:href="#DejaVuSans-65" x="202.392578"/>
      <use xlink:href="#DejaVuSans-72" x="263.916016"/>
      <use xlink:href="#DejaVuSans-61" x="305.029297"/>
      <use xlink:href="#DejaVuSans-74" x="366.308594"/>
      <use xlink:href="#DejaVuSans-69" x="405.517578"/>
      <use xlink:href="#DejaVuSans-6f" x="433.300781"/>
      <use xlink:href="#DejaVuSans-6e" x="494.482422"/>
      <use xlink:href="#DejaVuSans-73" x="557.861328"/>
     </g>
    </g>
   </g>
   <g id="matplotlib.axis_2">
    <g id="ytick_1">
     <g id="line2d_63">
      <path d="M 48.039375 216.335144 
L 382.839375 216.335144 
" clip-path="url(#pe931643008)" style="fill: none; stroke: #b0b0b0; stroke-width: 0.5; stroke-linecap: square"/>
     </g>
     <g id="line2d_64">
      <defs>
       <path id="m05ee8fe800" d="M 0 0 
L 3 0 
" style="stroke: #000000; stroke-width: 0.5"/>
      </defs>
      <g>
       <use xlink:href="#m05ee8fe800" x="48.039375" y="216.335144" style="stroke: #000000; stroke-width: 0.5"/>
      </g>
     </g>
     <g id="line2d_65">
      <defs>
       <path id="m3780208d26" d="M 0 0 
L -3 0 
" style="stroke: #000000; stroke-width: 0.5"/>
      </defs>
      <g>
       <use xlink:href="#m3780208d26" x="382.839375" y="216.335144" style="stroke: #000000; stroke-width: 0.5"/>
      </g>
     </g>
     <g id="text_8">
      <!-- −60 -->
      <g transform="translate(19.21375 220.894206) scale(0.12 -0.12)">
       <defs>
        <path id="DejaVuSans-2212" d="M 678 2272 
L 4684 2272 
L 4684 1741 
L 678 1741 
L 678 2272 
z
" transform="scale(0.015625)"/>
        <path id="DejaVuSans-36" d="M 2113 2584 
Q 1688 2584 1439 2293 
Q 1191 2003 1191 1497 
Q 1191 994 1439 701 
Q 1688 409 2113 409 
Q 2538 409 2786 701 
Q 3034 994 3034 1497 
Q 3034 2003 2786 2293 
Q 2538 2584 2113 2584 
z
M 3366 4563 
L 3366 3988 
Q 3128 4100 2886 4159 
Q 2644 4219 2406 4219 
Q 1781 4219 1451 3797 
Q 1122 3375 1075 2522 
Q 1259 2794 1537 2939 
Q 1816 3084 2150 3084 
Q 2853 3084 3261 2657 
Q 3669 2231 3669 1497 
Q 3669 778 3244 343 
Q 2819 -91 2113 -91 
Q 1303 -91 875 529 
Q 447 1150 447 2328 
Q 447 3434 972 4092 
Q 1497 4750 2381 4750 
Q 2619 4750 2861 4703 
Q 3103 4656 3366 4563 
z
" transform="scale(0.015625)"/>
       </defs>
       <use xlink:href="#DejaVuSans-2212"/>
       <use xlink:href="#DejaVuSans-36" x="83.789062"/>
       <use xlink:href="#DejaVuSans-30" x="147.412109"/>
      </g>
     </g>
    </g>
    <g id="ytick_2">
     <g id="line2d_66">
      <path d="M 48.039375 168.95651 
L 382.839375 168.95651 
" clip-path="url(#pe931643008)" style="fill: none; stroke: #b0b0b0; stroke-width: 0.5; stroke-linecap: square"/>
     </g>
     <g id="line2d_67">
      <g>
       <use xlink:href="#m05ee8fe800" x="48.039375" y="168.95651" style="stroke: #000000; stroke-width: 0.5"/>
      </g>
     </g>
     <g id="line2d_68">
      <g>
       <use xlink:href="#m3780208d26" x="382.839375" y="168.95651" style="stroke: #000000; stroke-width: 0.5"/>
      </g>
     </g>
     <g id="text_9">
      <!-- −40 -->
      <g transform="translate(19.21375 173.515572) scale(0.12 -0.12)">
       <use xlink:href="#DejaVuSans-2212"/>
       <use xlink:href="#DejaVuSans-34" x="83.789062"/>
       <use xlink:href="#DejaVuSans-30" x="147.412109"/>
      </g>
     </g>
    </g>
    <g id="ytick_3">
     <g id="line2d_69">
      <path d="M 48.039375 121.577876 
L 382.839375 121.577876 
" clip-path="url(#pe931643008)" style="fill: none; stroke: #b0b0b0; stroke-width: 0.5; stroke-linecap: square"/>
     </g>
     <g id="line2d_70">
      <g>
       <use xlink:href="#m05ee8fe800" x="48.039375" y="121.577876" style="stroke: #000000; stroke-width: 0.5"/>
      </g>
     </g>
     <g id="line2d_71">
      <g>
       <use xlink:href="#m3780208d26" x="382.839375" y="121.577876" style="stroke: #000000; stroke-width: 0.5"/>
      </g>
     </g>
     <g id="text_10">
      <!-- −20 -->
      <g transform="translate(19.21375 126.136938) scale(0.12 -0.12)">
       <use xlink:href="#DejaVuSans-2212"/>
       <use xlink:href="#DejaVuSans-32" x="83.789062"/>
       <use xlink:href="#DejaVuSans-30" x="147.412109"/>
      </g>
     </g>
    </g>
    <g id="ytick_4">
     <g id="line2d_72">
      <path d="M 48.039375 74.199242 
L 382.839375 74.199242 
" clip-path="url(#pe931643008)" style="fill: none; stroke: #b0b0b0; stroke-width: 0.5; stroke-linecap: square"/>
     </g>
     <g id="line2d_73">
      <g>
       <use xlink:href="#m05ee8fe800" x="48.039375" y="74.199242" style="stroke: #000000; stroke-width: 0.5"/>
      </g>
     </g>
     <g id="line2d_74">
      <g>
       <use xlink:href="#m3780208d26" x="382.839375" y="74.199242" style="stroke: #000000; stroke-width: 0.5"/>
      </g>
     </g>
     <g id="text_11">
      <!-- 0 -->
      <g transform="translate(36.904375 78.758304) scale(0.12 -0.12)">
       <use xlink:href="#DejaVuSans-30"/>
      </g>
     </g>
    </g>
    <g id="ytick_5">
     <g id="line2d_75">
      <path d="M 48.039375 26.820608 
L 382.839375 26.820608 
" clip-path="url(#pe931643008)" style="fill: none; stroke: #b0b0b0; stroke-width: 0.5; stroke-linecap: square"/>
     </g>
     <g id="line2d_76">
      <g>
       <use xlink:href="#m05ee8fe800" x="48.039375" y="26.820608" style="stroke: #000000; stroke-width: 0.5"/>
      </g>
     </g>
     <g id="line2d_77">
      <g>
       <use xlink:href="#m3780208d26" x="382.839375" y="26.820608" style="stroke: #000000; stroke-width: 0.5"/>
      </g>
     </g>
     <g id="text_12">
      <!-- 20 -->
      <g transform="translate(29.269375 31.37967) scale(0.12 -0.12)">
       <use xlink:href="#DejaVuSans-32"/>
       <use xlink:href="#DejaVuSans-30" x="63.623047"/>
      </g>
     </g>
    </g>
    <g id="ytick_6">
     <g id="line2d_78">
      <defs>
       <path id="m700d42066a" d="M 0 0 
L 1.5 0 
" style="stroke: #000000; stroke-width: 0.5"/>
      </defs>
      <g>
       <use xlink:href="#m700d42066a" x="48.039375" y="251.869119" style="stroke: #000000; stroke-width: 0.5"/>
      </g>
     </g>
     <g id="line2d_79">
      <defs>
       <path id="md8632739af" d="M 0 0 
L -1.5 0 
" style="stroke: #000000; stroke-width: 0.5"/>
      </defs>
      <g>
       <use xlink:href="#md8632739af" x="382.839375" y="251.869119" style="stroke: #000000; stroke-width: 0.5"/>
      </g>
     </g>
    </g>
    <g id="ytick_7">
     <g id="line2d_80">
      <g>
       <use xlink:href="#m700d42066a" x="48.039375" y="240.024461" style="stroke: #000000; stroke-width: 0.5"/>
      </g>
     </g>
     <g id="line2d_81">
      <g>
       <use xlink:href="#md8632739af" x="382.839375" y="240.024461" style="stroke: #000000; stroke-width: 0.5"/>
      </g>
     </g>
    </g>
    <g id="ytick_8">
     <g id="line2d_82">
      <g>
       <use xlink:href="#m700d42066a" x="48.039375" y="228.179802" style="stroke: #000000; stroke-width: 0.5"/>
      </g>
     </g>
     <g id="line2d_83">
      <g>
       <use xlink:href="#md8632739af" x="382.839375" y="228.179802" style="stroke: #000000; stroke-width: 0.5"/>
      </g>
     </g>
    </g>
    <g id="ytick_9">
     <g id="line2d_84">
      <g>
       <use xlink:href="#m700d42066a" x="48.039375" y="204.490485" style="stroke: #000000; stroke-width: 0.5"/>
      </g>
     </g>
     <g id="line2d_85">
      <g>
       <use xlink:href="#md8632739af" x="382.839375" y="204.490485" style="stroke: #000000; stroke-width: 0.5"/>
      </g>
     </g>
    </g>
    <g id="ytick_10">
     <g id="line2d_86">
      <g>
       <use xlink:href="#m700d42066a" x="48.039375" y="192.645827" style="stroke: #000000; stroke-width: 0.5"/>
      </g>
     </g>
     <g id="line2d_87">
      <g>
       <use xlink:href="#md8632739af" x="382.839375" y="192.645827" style="stroke: #000000; stroke-width: 0.5"/>
      </g>
     </g>
    </g>
    <g id="ytick_11">
     <g id="line2d_88">
      <g>
       <use xlink:href="#m700d42066a" x="48.039375" y="180.801168" style="stroke: #000000; stroke-width: 0.5"/>
      </g>
     </g>
     <g id="line2d_89">
      <g>
       <use xlink:href="#md8632739af" x="382.839375" y="180.801168" style="stroke: #000000; stroke-width: 0.5"/>
      </g>
     </g>
    </g>
    <g id="ytick_12">
     <g id="line2d_90">
      <g>
       <use xlink:href="#m700d42066a" x="48.039375" y="157.111851" style="stroke: #000000; stroke-width: 0.5"/>
      </g>
     </g>
     <g id="line2d_91">
      <g>
       <use xlink:href="#md8632739af" x="382.839375" y="157.111851" style="stroke: #000000; stroke-width: 0.5"/>
      </g>
     </g>
    </g>
    <g id="ytick_13">
     <g id="line2d_92">
      <g>
       <use xlink:href="#m700d42066a" x="48.039375" y="145.267193" style="stroke: #000000; stroke-width: 0.5"/>
      </g>
     </g>
     <g id="line2d_93">
      <g>
       <use xlink:href="#md8632739af" x="382.839375" y="145.267193" style="stroke: #000000; stroke-width: 0.5"/>
      </g>
     </g>
    </g>
    <g id="ytick_14">
     <g id="line2d_94">
      <g>
       <use xlink:href="#m700d42066a" x="48.039375" y="133.422534" style="stroke: #000000; stroke-width: 0.5"/>
      </g>
     </g>
     <g id="line2d_95">
      <g>
       <use xlink:href="#md8632739af" x="382.839375" y="133.422534" style="stroke: #000000; stroke-width: 0.5"/>
      </g>
     </g>
    </g>
    <g id="ytick_15">
     <g id="line2d_96">
      <g>
       <use xlink:href="#m700d42066a" x="48.039375" y="109.733217" style="stroke: #000000; stroke-width: 0.5"/>
      </g>
     </g>
     <g id="line2d_97">
      <g>
       <use xlink:href="#md8632739af" x="382.839375" y="109.733217" style="stroke: #000000; stroke-width: 0.5"/>
      </g>
     </g>
    </g>
    <g id="ytick_16">
     <g id="line2d_98">
      <g>
       <use xlink:href="#m700d42066a" x="48.039375" y="97.888559" style="stroke: #000000; stroke-width: 0.5"/>
      </g>
     </g>
     <g id="line2d_99">
      <g>
       <use xlink:href="#md8632739af" x="382.839375" y="97.888559" style="stroke: #000000; stroke-width: 0.5"/>
      </g>
     </g>
    </g>
    <g id="ytick_17">
     <g id="line2d_100">
      <g>
       <use xlink:href="#m700d42066a" x="48.039375" y="86.0439" style="stroke: #000000; stroke-width: 0.5"/>
      </g>
     </g>
     <g id="line2d_101">
      <g>
       <use xlink:href="#md8632739af" x="382.839375" y="86.0439" style="stroke: #000000; stroke-width: 0.5"/>
      </g>
     </g>
    </g>
    <g id="ytick_18">
     <g id="line2d_102">
      <g>
       <use xlink:href="#m700d42066a" x="48.039375" y="62.354583" style="stroke: #000000; stroke-width: 0.5"/>
      </g>
     </g>
     <g id="line2d_103">
      <g>
       <use xlink:href="#md8632739af" x="382.839375" y="62.354583" style="stroke: #000000; stroke-width: 0.5"/>
      </g>
     </g>
    </g>
    <g id="ytick_19">
     <g id="line2d_104">
      <g>
       <use xlink:href="#m700d42066a" x="48.039375" y="50.509925" style="stroke: #000000; stroke-width: 0.5"/>
      </g>
     </g>
     <g id="line2d_105">
      <g>
       <use xlink:href="#md8632739af" x="382.839375" y="50.509925" style="stroke: #000000; stroke-width: 0.5"/>
      </g>
     </g>
    </g>
    <g id="ytick_20">
     <g id="line2d_106">
      <g>
       <use xlink:href="#m700d42066a" x="48.039375" y="38.665266" style="stroke: #000000; stroke-width: 0.5"/>
      </g>
     </g>
     <g id="line2d_107">
      <g>
       <use xlink:href="#md8632739af" x="382.839375" y="38.665266" style="stroke: #000000; stroke-width: 0.5"/>
      </g>
     </g>
    </g>
    <g id="ytick_21">
     <g id="line2d_108">
      <g>
       <use xlink:href="#m700d42066a" x="48.039375" y="14.97595" style="stroke: #000000; stroke-width: 0.5"/>
      </g>
     </g>
     <g id="line2d_109">
      <g>
       <use xlink:href="#md8632739af" x="382.839375" y="14.97595" style="stroke: #000000; stroke-width: 0.5"/>
      </g>
     </g>
    </g>
    <g id="text_13">
     <!-- Fitness -->
     <g transform="translate(12.718125 149.120625) rotate(-90) scale(0.12 -0.12)">
      <defs>
       <path id="DejaVuSans-46" d="M 628 4666 
L 3309 4666 
L 3309 4134 
L 1259 4134 
L 1259 2759 
L 3109 2759 
L 3109 2228 
L 1259 2228 
L 1259 0 
L 628 0 
L 628 4666 
z
" transform="scale(0.015625)"/>
      </defs>
      <use xlink:href="#DejaVuSans-46"/>
      <use xlink:href="#DejaVuSans-69" x="50.269531"/>
      <use xlink:href="#DejaVuSans-74" x="78.052734"/>
      <use xlink:href="#DejaVuSans-6e" x="117.261719"/>
      <use xlink:href="#DejaVuSans-65" x="180.640625"/>
      <use xlink:href="#DejaVuSans-73" x="242.164062"/>
      <use xlink:href="#DejaVuSans-73" x="294.263672"/>
     </g>
    </g>
   </g>
   <g id="line2d_110">
    <path d="M 63.257557 45.630425 
L 63.867504 44.73188 
L 64.477451 42.729804 
L 65.087398 40.183903 
L 65.697345 32.912144 
L 66.91724 32.912145 
L 67.527187 32.124299 
L 68.747081 32.12431 
L 69.357028 31.73793 
L 71.18687 31.737929 
L 71.796817 29.808257 
L 76.676394 29.808235 
L 77.286342 28.762359 
L 79.116183 28.676708 
L 79.72613 26.62757 
L 82.775866 26.627707 
L 83.385813 22.66242 
L 93.754915 22.66221 
L 94.364862 22.190842 
L 94.97481 22.190893 
L 95.584757 21.461336 
L 96.804651 21.46149 
L 97.414598 19.695914 
L 107.7837 19.695845 
L 108.393647 19.261018 
L 111.443383 19.260913 
L 112.05333 19.090304 
L 114.493119 19.090275 
L 115.103066 18.872224 
L 119.982643 18.772291 
L 123.032379 18.745066 
L 124.862221 18.71629 
L 125.472168 18.587641 
L 128.521904 18.587434 
L 129.131851 18.412871 
L 130.961692 18.412958 
L 131.57164 18.18275 
L 140.720847 18.178833 
L 141.940741 18.070345 
L 174.267941 17.996419 
L 174.877888 17.821506 
L 183.417149 17.744406 
L 184.637043 17.662619 
L 188.906673 17.6626 
L 189.51662 17.390715 
L 198.055881 17.291208 
L 199.275775 17.225264 
L 202.325511 17.225243 
L 202.935458 16.897152 
L 216.964243 16.891285 
L 217.57419 16.57448 
L 222.453767 16.574315 
L 223.063715 15.994073 
L 235.262658 15.924815 
L 235.872605 15.789921 
L 240.752182 15.789796 
L 241.36213 15.549695 
L 258.44065 15.537582 
L 259.050597 15.396278 
L 261.490386 15.353107 
L 262.71028 15.253411 
L 266.979911 15.182501 
L 268.809752 15.135291 
L 318.215473 15.059316 
L 319.435367 14.955864 
L 367.621193 14.940003 
L 367.621193 14.940003 
" clip-path="url(#pe931643008)" style="fill: none; stroke: #000000; stroke-linecap: square"/>
   </g>
   <g id="line2d_111">
    <path d="M 63.257557 28.514851 
L 367.621193 28.514851 
L 367.621193 28.514851 
" clip-path="url(#pe931643008)" style="fill: none; stroke-dasharray: 3.7,1.6; stroke-dashoffset: 0; stroke: #000000"/>
   </g>
   <g id="patch_3">
    <path d="M 48.039375 253.08 
L 48.039375 3.6 
" style="fill: none; stroke: #000000; stroke-width: 0.5; stroke-linejoin: miter; stroke-linecap: square"/>
   </g>
   <g id="patch_4">
    <path d="M 382.839375 253.08 
L 382.839375 3.6 
" style="fill: none; stroke: #000000; stroke-width: 0.5; stroke-linejoin: miter; stroke-linecap: square"/>
   </g>
   <g id="patch_5">
    <path d="M 48.039375 253.08 
L 382.839375 253.08 
" style="fill: none; stroke: #000000; stroke-width: 0.5; stroke-linejoin: miter; stroke-linecap: square"/>
   </g>
   <g id="patch_6">
    <path d="M 48.039375 3.6 
L 382.839375 3.6 
" style="fill: none; stroke: #000000; stroke-width: 0.5; stroke-linejoin: miter; stroke-linecap: square"/>
   </g>
   <g id="legend_1">
    <g id="patch_7">
     <path d="M 253.92 247.08 
L 374.439375 247.08 
Q 376.839375 247.08 376.839375 244.68 
L 376.839375 193.03875 
Q 376.839375 190.63875 374.439375 190.63875 
L 253.92 190.63875 
Q 251.52 190.63875 251.52 193.03875 
L 251.52 244.68 
Q 251.52 247.08 253.92 247.08 
z
" style="fill: #ffffff; opacity: 0.8; stroke: #cccccc; stroke-linejoin: miter"/>
    </g>
    <g id="line2d_112">
     <path d="M 256.32 200.356875 
L 268.32 200.356875 
L 280.32 200.356875 
" style="fill: none; stroke: #000000; stroke-linecap: square"/>
    </g>
    <g id="text_14">
     <!-- Best fitness -->
     <g transform="translate(289.92 204.556875) scale(0.12 -0.12)">
      <defs>
       <path id="DejaVuSans-42" d="M 1259 2228 
L 1259 519 
L 2272 519 
Q 2781 519 3026 730 
Q 3272 941 3272 1375 
Q 3272 1813 3026 2020 
Q 2781 2228 2272 2228 
L 1259 2228 
z
M 1259 4147 
L 1259 2741 
L 2194 2741 
Q 2656 2741 2882 2914 
Q 3109 3088 3109 3444 
Q 3109 3797 2882 3972 
Q 2656 4147 2194 4147 
L 1259 4147 
z
M 628 4666 
L 2241 4666 
Q 2963 4666 3353 4366 
Q 3744 4066 3744 3513 
Q 3744 3084 3544 2831 
Q 3344 2578 2956 2516 
Q 3422 2416 3680 2098 
Q 3938 1781 3938 1306 
Q 3938 681 3513 340 
Q 3088 0 2303 0 
L 628 0 
L 628 4666 
z
" transform="scale(0.015625)"/>
       <path id="DejaVuSans-20" transform="scale(0.015625)"/>
       <path id="DejaVuSans-66" d="M 2375 4863 
L 2375 4384 
L 1825 4384 
Q 1516 4384 1395 4259 
Q 1275 4134 1275 3809 
L 1275 3500 
L 2222 3500 
L 2222 3053 
L 1275 3053 
L 1275 0 
L 697 0 
L 697 3053 
L 147 3053 
L 147 3500 
L 697 3500 
L 697 3744 
Q 697 4328 969 4595 
Q 1241 4863 1831 4863 
L 2375 4863 
z
" transform="scale(0.015625)"/>
      </defs>
      <use xlink:href="#DejaVuSans-42"/>
      <use xlink:href="#DejaVuSans-65" x="68.603516"/>
      <use xlink:href="#DejaVuSans-73" x="130.126953"/>
      <use xlink:href="#DejaVuSans-74" x="182.226562"/>
      <use xlink:href="#DejaVuSans-20" x="221.435547"/>
      <use xlink:href="#DejaVuSans-66" x="253.222656"/>
      <use xlink:href="#DejaVuSans-69" x="288.427734"/>
      <use xlink:href="#DejaVuSans-74" x="316.210938"/>
      <use xlink:href="#DejaVuSans-6e" x="355.419922"/>
      <use xlink:href="#DejaVuSans-65" x="418.798828"/>
      <use xlink:href="#DejaVuSans-73" x="480.322266"/>
      <use xlink:href="#DejaVuSans-73" x="532.421875"/>
     </g>
    </g>
    <g id="patch_8">
     <path d="M 256.32 222.170625 
L 280.32 222.170625 
L 280.32 213.770625 
L 256.32 213.770625 
z
" style="fill: #0000ff; fill-opacity: 0.2; stroke: #0000ff; stroke-opacity: 0.2; stroke-linejoin: miter"/>
    </g>
    <g id="text_15">
     <!-- Top 90% -->
     <g transform="translate(289.92 222.170625) scale(0.12 -0.12)">
      <defs>
       <path id="DejaVuSans-54" d="M -19 4666 
L 3928 4666 
L 3928 4134 
L 2272 4134 
L 2272 0 
L 1638 0 
L 1638 4134 
L -19 4134 
L -19 4666 
z
" transform="scale(0.015625)"/>
       <path id="DejaVuSans-70" d="M 1159 525 
L 1159 -1331 
L 581 -1331 
L 581 3500 
L 1159 3500 
L 1159 2969 
Q 1341 3281 1617 3432 
Q 1894 3584 2278 3584 
Q 2916 3584 3314 3078 
Q 3713 2572 3713 1747 
Q 3713 922 3314 415 
Q 2916 -91 2278 -91 
Q 1894 -91 1617 61 
Q 1341 213 1159 525 
z
M 3116 1747 
Q 3116 2381 2855 2742 
Q 2594 3103 2138 3103 
Q 1681 3103 1420 2742 
Q 1159 2381 1159 1747 
Q 1159 1113 1420 752 
Q 1681 391 2138 391 
Q 2594 391 2855 752 
Q 3116 1113 3116 1747 
z
" transform="scale(0.015625)"/>
       <path id="DejaVuSans-39" d="M 703 97 
L 703 672 
Q 941 559 1184 500 
Q 1428 441 1663 441 
Q 2288 441 2617 861 
Q 2947 1281 2994 2138 
Q 2813 1869 2534 1725 
Q 2256 1581 1919 1581 
Q 1219 1581 811 2004 
Q 403 2428 403 3163 
Q 403 3881 828 4315 
Q 1253 4750 1959 4750 
Q 2769 4750 3195 4129 
Q 3622 3509 3622 2328 
Q 3622 1225 3098 567 
Q 2575 -91 1691 -91 
Q 1453 -91 1209 -44 
Q 966 3 703 97 
z
M 1959 2075 
Q 2384 2075 2632 2365 
Q 2881 2656 2881 3163 
Q 2881 3666 2632 3958 
Q 2384 4250 1959 4250 
Q 1534 4250 1286 3958 
Q 1038 3666 1038 3163 
Q 1038 2656 1286 2365 
Q 1534 2075 1959 2075 
z
" transform="scale(0.015625)"/>
       <path id="DejaVuSans-25" d="M 4653 2053 
Q 4381 2053 4226 1822 
Q 4072 1591 4072 1178 
Q 4072 772 4226 539 
Q 4381 306 4653 306 
Q 4919 306 5073 539 
Q 5228 772 5228 1178 
Q 5228 1588 5073 1820 
Q 4919 2053 4653 2053 
z
M 4653 2450 
Q 5147 2450 5437 2106 
Q 5728 1763 5728 1178 
Q 5728 594 5436 251 
Q 5144 -91 4653 -91 
Q 4153 -91 3862 251 
Q 3572 594 3572 1178 
Q 3572 1766 3864 2108 
Q 4156 2450 4653 2450 
z
M 1428 4353 
Q 1159 4353 1004 4120 
Q 850 3888 850 3481 
Q 850 3069 1003 2837 
Q 1156 2606 1428 2606 
Q 1700 2606 1854 2837 
Q 2009 3069 2009 3481 
Q 2009 3884 1853 4118 
Q 1697 4353 1428 4353 
z
M 4250 4750 
L 4750 4750 
L 1831 -91 
L 1331 -91 
L 4250 4750 
z
M 1428 4750 
Q 1922 4750 2215 4408 
Q 2509 4066 2509 3481 
Q 2509 2891 2217 2550 
Q 1925 2209 1428 2209 
Q 931 2209 642 2551 
Q 353 2894 353 3481 
Q 353 4063 643 4406 
Q 934 4750 1428 4750 
z
" transform="scale(0.015625)"/>
      </defs>
      <use xlink:href="#DejaVuSans-54"/>
      <use xlink:href="#DejaVuSans-6f" x="44.083984"/>
      <use xlink:href="#DejaVuSans-70" x="105.265625"/>
      <use xlink:href="#DejaVuSans-20" x="168.742188"/>
      <use xlink:href="#DejaVuSans-39" x="200.529297"/>
      <use xlink:href="#DejaVuSans-30" x="264.152344"/>
      <use xlink:href="#DejaVuSans-25" x="327.775391"/>
     </g>
    </g>
    <g id="line2d_113">
     <path d="M 256.32 235.584375 
L 268.32 235.584375 
L 280.32 235.584375 
" style="fill: none; stroke-dasharray: 3.7,1.6; stroke-dashoffset: 0; stroke: #000000"/>
    </g>
    <g id="text_16">
     <!-- 180mm Quad -->
     <g transform="translate(289.92 239.784375) scale(0.12 -0.12)">
      <defs>
       <path id="DejaVuSans-38" d="M 2034 2216 
Q 1584 2216 1326 1975 
Q 1069 1734 1069 1313 
Q 1069 891 1326 650 
Q 1584 409 2034 409 
Q 2484 409 2743 651 
Q 3003 894 3003 1313 
Q 3003 1734 2745 1975 
Q 2488 2216 2034 2216 
z
M 1403 2484 
Q 997 2584 770 2862 
Q 544 3141 544 3541 
Q 544 4100 942 4425 
Q 1341 4750 2034 4750 
Q 2731 4750 3128 4425 
Q 3525 4100 3525 3541 
Q 3525 3141 3298 2862 
Q 3072 2584 2669 2484 
Q 3125 2378 3379 2068 
Q 3634 1759 3634 1313 
Q 3634 634 3220 271 
Q 2806 -91 2034 -91 
Q 1263 -91 848 271 
Q 434 634 434 1313 
Q 434 1759 690 2068 
Q 947 2378 1403 2484 
z
M 1172 3481 
Q 1172 3119 1398 2916 
Q 1625 2713 2034 2713 
Q 2441 2713 2670 2916 
Q 2900 3119 2900 3481 
Q 2900 3844 2670 4047 
Q 2441 4250 2034 4250 
Q 1625 4250 1398 4047 
Q 1172 3844 1172 3481 
z
" transform="scale(0.015625)"/>
       <path id="DejaVuSans-6d" d="M 3328 2828 
Q 3544 3216 3844 3400 
Q 4144 3584 4550 3584 
Q 5097 3584 5394 3201 
Q 5691 2819 5691 2113 
L 5691 0 
L 5113 0 
L 5113 2094 
Q 5113 2597 4934 2840 
Q 4756 3084 4391 3084 
Q 3944 3084 3684 2787 
Q 3425 2491 3425 1978 
L 3425 0 
L 2847 0 
L 2847 2094 
Q 2847 2600 2669 2842 
Q 2491 3084 2119 3084 
Q 1678 3084 1418 2786 
Q 1159 2488 1159 1978 
L 1159 0 
L 581 0 
L 581 3500 
L 1159 3500 
L 1159 2956 
Q 1356 3278 1631 3431 
Q 1906 3584 2284 3584 
Q 2666 3584 2933 3390 
Q 3200 3197 3328 2828 
z
" transform="scale(0.015625)"/>
       <path id="DejaVuSans-51" d="M 2522 4238 
Q 1834 4238 1429 3725 
Q 1025 3213 1025 2328 
Q 1025 1447 1429 934 
Q 1834 422 2522 422 
Q 3209 422 3611 934 
Q 4013 1447 4013 2328 
Q 4013 3213 3611 3725 
Q 3209 4238 2522 4238 
z
M 3406 84 
L 4238 -825 
L 3475 -825 
L 2784 -78 
Q 2681 -84 2626 -87 
Q 2572 -91 2522 -91 
Q 1538 -91 948 567 
Q 359 1225 359 2328 
Q 359 3434 948 4092 
Q 1538 4750 2522 4750 
Q 3503 4750 4090 4092 
Q 4678 3434 4678 2328 
Q 4678 1516 4351 937 
Q 4025 359 3406 84 
z
" transform="scale(0.015625)"/>
       <path id="DejaVuSans-75" d="M 544 1381 
L 544 3500 
L 1119 3500 
L 1119 1403 
Q 1119 906 1312 657 
Q 1506 409 1894 409 
Q 2359 409 2629 706 
Q 2900 1003 2900 1516 
L 2900 3500 
L 3475 3500 
L 3475 0 
L 2900 0 
L 2900 538 
Q 2691 219 2414 64 
Q 2138 -91 1772 -91 
Q 1169 -91 856 284 
Q 544 659 544 1381 
z
M 1991 3584 
L 1991 3584 
z
" transform="scale(0.015625)"/>
       <path id="DejaVuSans-64" d="M 2906 2969 
L 2906 4863 
L 3481 4863 
L 3481 0 
L 2906 0 
L 2906 525 
Q 2725 213 2448 61 
Q 2172 -91 1784 -91 
Q 1150 -91 751 415 
Q 353 922 353 1747 
Q 353 2572 751 3078 
Q 1150 3584 1784 3584 
Q 2172 3584 2448 3432 
Q 2725 3281 2906 2969 
z
M 947 1747 
Q 947 1113 1208 752 
Q 1469 391 1925 391 
Q 2381 391 2643 752 
Q 2906 1113 2906 1747 
Q 2906 2381 2643 2742 
Q 2381 3103 1925 3103 
Q 1469 3103 1208 2742 
Q 947 2381 947 1747 
z
" transform="scale(0.015625)"/>
      </defs>
      <use xlink:href="#DejaVuSans-31"/>
      <use xlink:href="#DejaVuSans-38" x="63.623047"/>
      <use xlink:href="#DejaVuSans-30" x="127.246094"/>
      <use xlink:href="#DejaVuSans-6d" x="190.869141"/>
      <use xlink:href="#DejaVuSans-6d" x="288.28125"/>
      <use xlink:href="#DejaVuSans-20" x="385.693359"/>
      <use xlink:href="#DejaVuSans-51" x="417.480469"/>
      <use xlink:href="#DejaVuSans-75" x="496.191406"/>
      <use xlink:href="#DejaVuSans-61" x="559.570312"/>
      <use xlink:href="#DejaVuSans-64" x="620.849609"/>
     </g>
    </g>
   </g>
  </g>
 </g>
 <defs>
  <clipPath id="pe931643008">
   <rect x="48.039375" y="3.6" width="334.8" height="249.48"/>
  </clipPath>
 </defs>
</svg>
