<?xml version="1.0" encoding="utf-8" standalone="no"?>
<!DOCTYPE svg PUBLIC "-//W3C//DTD SVG 1.1//EN"
  "http://www.w3.org/Graphics/SVG/1.1/DTD/svg11.dtd">
<svg xmlns:xlink="http://www.w3.org/1999/xlink" width="386.439375pt" height="287.4075pt" viewBox="0 0 386.439375 287.4075" xmlns="http://www.w3.org/2000/svg" version="1.1">
 <metadata>
  <rdf:RDF xmlns:dc="http://purl.org/dc/elements/1.1/" xmlns:cc="http://creativecommons.org/ns#" xmlns:rdf="http://www.w3.org/1999/02/22-rdf-syntax-ns#">
   <cc:Work>
    <dc:type rdf:resource="http://purl.org/dc/dcmitype/StillImage"/>
    <dc:date>2024-06-04T10:39:12.564072</dc:date>
    <dc:format>image/svg+xml</dc:format>
    <dc:creator>
     <cc:Agent>
      <dc:title>Matplotlib v3.9.0, https://matplotlib.org/</dc:title>
     </cc:Agent>
    </dc:creator>
   </cc:Work>
  </rdf:RDF>
 </metadata>
 <defs>
  <style type="text/css">*{stroke-linejoin: round; stroke-linecap: butt}</style>
 </defs>
 <g id="figure_1">
  <g id="patch_1">
   <path d="M 0 287.4075 
L 386.439375 287.4075 
L 386.439375 0 
L 0 0 
z
" style="fill: #ffffff"/>
  </g>
  <g id="axes_1">
   <g id="patch_2">
    <path d="M 48.039375 253.08 
L 382.839375 253.08 
L 382.839375 3.6 
L 48.039375 3.6 
z
" style="fill: #ffffff"/>
   </g>
   <g id="PolyCollection_1">
    <defs>
     <path id="m17cf9754fe" d="M 63.257557 -243.186113 
L 63.257557 -95.957539 
L 63.867504 -134.389645 
L 64.477451 -127.040293 
L 65.087398 -118.252985 
L 65.697345 -168.300986 
L 66.307293 -162.174282 
L 66.91724 -128.049937 
L 67.527187 -145.253908 
L 68.137134 -151.922339 
L 68.747081 -163.646414 
L 69.357028 -176.344066 
L 69.966976 -170.786018 
L 70.576923 -167.173799 
L 71.18687 -170.97893 
L 71.796817 -177.90265 
L 72.406764 -177.72942 
L 73.016711 -181.843722 
L 73.626659 -182.83222 
L 74.236606 -182.933303 
L 74.846553 -181.533505 
L 75.4565 -185.427976 
L 76.066447 -190.560885 
L 76.676394 -208.964539 
L 77.286342 -227.628422 
L 77.896289 -241.332997 
L 78.506236 -241.328826 
L 79.116183 -241.173314 
L 79.72613 -236.45048 
L 80.336077 -239.73848 
L 80.946025 -240.310382 
L 81.555972 -240.888728 
L 82.165919 -241.352081 
L 82.775866 -241.01294 
L 83.385813 -239.366679 
L 83.99576 -237.510355 
L 84.605708 -238.62255 
L 85.215655 -237.504574 
L 85.825602 -234.719516 
L 86.435549 -238.063933 
L 87.045496 -232.398387 
L 87.655444 -234.886754 
L 88.265391 -232.657786 
L 88.875338 -232.57144 
L 89.485285 -234.768535 
L 90.095232 -238.813442 
L 90.705179 -236.51905 
L 91.315127 -239.236696 
L 91.925074 -241.399411 
L 92.535021 -238.995151 
L 93.144968 -239.588637 
L 93.754915 -239.581667 
L 94.364862 -245.601405 
L 94.97481 -244.431497 
L 95.584757 -261.716699 
L 96.194704 -261.940562 
L 96.804651 -241.21927 
L 97.414598 -242.944398 
L 98.024545 -242.953748 
L 98.634493 -245.574765 
L 99.24444 -243.559977 
L 99.854387 -245.514847 
L 100.464334 -259.739482 
L 101.074281 -245.563245 
L 101.684228 -245.572402 
L 102.294176 -244.576799 
L 102.904123 -244.660994 
L 103.51407 -240.836106 
L 104.124017 -257.683461 
L 104.733964 -266.952393 
L 105.343911 -264.820458 
L 105.953859 -264.693732 
L 106.563806 -245.684821 
L 107.173753 -245.623605 
L 107.7837 -266.776445 
L 108.393647 -267.111742 
L 109.003594 -253.692093 
L 109.613542 -262.400364 
L 110.223489 -257.408995 
L 110.833436 -266.566256 
L 111.443383 -240.398841 
L 112.05333 -262.845826 
L 112.663277 -267.646456 
L 113.273225 -267.770509 
L 113.883172 -267.903677 
L 114.493119 -267.466444 
L 115.103066 -263.35286 
L 115.713013 -261.023553 
L 116.32296 -262.394832 
L 116.932908 -259.441381 
L 117.542855 -257.316556 
L 118.152802 -238.110465 
L 118.762749 -239.659114 
L 119.372696 -238.738382 
L 119.982643 -252.871736 
L 120.592591 -262.963103 
L 121.202538 -266.979185 
L 121.812485 -266.918977 
L 122.422432 -265.354391 
L 123.032379 -257.296027 
L 123.642326 -242.161905 
L 124.252274 -245.989205 
L 124.862221 -244.415365 
L 125.472168 -259.26117 
L 126.082115 -266.421257 
L 126.692062 -266.555369 
L 127.302009 -266.559921 
L 127.911957 -266.304116 
L 128.521904 -244.267993 
L 129.131851 -268.843326 
L 129.741798 -235.772433 
L 130.351745 -243.527765 
L 130.961692 -245.671008 
L 131.57164 -259.769409 
L 132.181587 -243.703455 
L 132.791534 -244.607467 
L 133.401481 -259.216469 
L 134.011428 -246.006844 
L 134.621375 -245.32024 
L 135.231323 -244.990872 
L 135.84127 -264.488989 
L 136.451217 -261.379432 
L 137.061164 -244.5008 
L 137.671111 -244.868439 
L 138.281058 -259.826898 
L 138.891006 -261.68211 
L 139.500953 -257.973638 
L 140.1109 -258.614291 
L 140.720847 -264.26258 
L 141.330794 -266.482137 
L 141.940741 -237.718417 
L 142.550689 -242.478787 
L 143.160636 -245.460647 
L 143.770583 -246.412269 
L 144.38053 -265.87614 
L 144.990477 -257.891378 
L 145.600424 -264.077459 
L 146.210372 -264.249063 
L 146.820319 -257.726827 
L 147.430266 -265.862481 
L 148.040213 -267.867069 
L 148.65016 -267.722748 
L 149.260107 -246.418509 
L 149.870055 -246.418808 
L 150.480002 -246.509976 
L 151.089949 -241.628254 
L 151.699896 -240.448522 
L 152.309843 -243.059159 
L 152.91979 -232.84283 
L 153.529738 -238.039171 
L 154.139685 -246.359215 
L 154.749632 -241.489785 
L 155.359579 -246.375836 
L 155.969526 -259.077267 
L 156.579473 -262.848091 
L 157.189421 -259.070169 
L 157.799368 -246.550844 
L 158.409315 -246.506738 
L 159.019262 -259.070159 
L 159.629209 -262.831665 
L 160.239156 -241.635867 
L 160.849104 -244.610581 
L 161.459051 -261.341401 
L 162.068998 -238.474608 
L 162.678945 -244.882908 
L 163.288892 -245.070325 
L 163.898839 -245.06739 
L 164.508787 -238.968637 
L 165.118734 -243.793143 
L 165.728681 -245.954053 
L 166.338628 -246.557007 
L 166.948575 -259.696848 
L 167.558522 -245.940285 
L 168.16847 -246.527114 
L 168.778417 -246.415001 
L 169.388364 -244.779013 
L 169.998311 -246.556962 
L 170.608258 -246.55608 
L 171.218205 -246.557677 
L 171.828153 -264.477067 
L 172.4381 -267.954922 
L 173.048047 -258.823168 
L 173.657994 -267.0588 
L 174.267941 -270.897229 
L 174.877888 -242.81554 
L 175.487836 -250.441701 
L 176.097783 -243.01933 
L 176.70773 -236.908037 
L 177.317677 -246.506408 
L 177.927624 -246.50912 
L 178.537571 -246.403417 
L 179.147519 -246.405807 
L 179.757466 -243.998624 
L 180.367413 -246.499308 
L 180.97736 -245.494656 
L 181.587307 -241.911591 
L 182.197254 -228.958251 
L 182.807202 -239.205642 
L 183.417149 -241.20335 
L 184.027096 -238.519679 
L 184.637043 -246.521209 
L 185.24699 -246.510068 
L 185.856937 -246.542371 
L 186.466885 -260.245663 
L 187.076832 -270.56724 
L 187.686779 -269.488406 
L 188.296726 -267.8034 
L 188.906673 -267.545552 
L 189.51662 -266.87005 
L 190.126568 -267.375924 
L 190.736515 -267.425801 
L 191.346462 -265.492321 
L 191.956409 -266.614588 
L 192.566356 -246.421078 
L 193.176303 -246.532082 
L 193.786251 -241.44111 
L 194.396198 -246.483211 
L 195.006145 -246.518912 
L 195.616092 -270.139634 
L 196.226039 -258.222418 
L 196.835986 -266.860386 
L 197.445934 -269.522572 
L 198.055881 -269.952134 
L 198.665828 -269.403115 
L 199.275775 -270.140869 
L 199.885722 -270.236842 
L 200.495669 -270.142467 
L 201.105617 -270.139605 
L 201.715564 -270.139353 
L 202.325511 -267.25159 
L 202.935458 -268.583084 
L 203.545405 -254.852127 
L 204.155352 -245.362658 
L 204.7653 -244.029207 
L 205.375247 -260.476126 
L 205.985194 -244.857646 
L 206.595141 -240.539355 
L 207.205088 -246.506052 
L 207.815035 -246.548288 
L 208.424983 -246.544266 
L 209.03493 -246.508517 
L 209.644877 -246.545324 
L 210.254824 -246.546036 
L 210.864771 -246.498678 
L 211.474718 -244.818871 
L 212.084666 -246.45505 
L 212.694613 -244.14281 
L 213.30456 -246.545461 
L 213.914507 -244.819889 
L 214.524454 -246.211933 
L 215.134401 -246.57326 
L 215.744349 -246.411625 
L 216.354296 -246.546495 
L 216.964243 -246.508055 
L 217.57419 -246.547718 
L 218.184137 -268.171143 
L 218.794084 -265.643034 
L 219.404032 -268.95902 
L 220.013979 -246.611695 
L 220.623926 -269.018389 
L 221.233873 -269.107711 
L 221.84382 -269.107897 
L 222.453767 -268.895836 
L 223.063715 -268.653418 
L 223.673662 -264.396009 
L 224.283609 -264.396437 
L 224.893556 -268.209281 
L 225.503503 -264.396344 
L 226.11345 -254.342163 
L 226.723398 -264.396225 
L 227.333345 -261.599417 
L 227.943292 -260.841778 
L 228.553239 -246.24306 
L 229.163186 -256.284863 
L 229.773133 -244.842891 
L 230.383081 -248.232815 
L 230.993028 -245.530324 
L 231.602975 -243.758617 
L 232.212922 -246.54282 
L 232.822869 -245.186805 
L 233.432816 -269.146915 
L 234.042764 -270.950053 
L 234.652711 -270.929488 
L 235.262658 -270.016246 
L 235.872605 -246.542748 
L 236.482552 -246.534409 
L 237.092499 -258.294106 
L 237.702447 -266.891384 
L 238.312394 -245.862847 
L 238.922341 -245.748286 
L 239.532288 -266.649472 
L 240.142235 -243.217873 
L 240.752182 -243.244926 
L 241.36213 -246.54306 
L 241.972077 -244.478125 
L 242.582024 -246.477358 
L 243.191971 -246.545424 
L 243.801918 -246.545521 
L 244.411865 -265.802693 
L 245.021813 -252.579841 
L 245.63176 -270.432011 
L 246.241707 -270.432801 
L 246.851654 -270.431143 
L 247.461601 -255.085324 
L 248.071548 -265.361022 
L 248.681496 -263.800561 
L 249.291443 -269.641781 
L 249.90139 -271.658572 
L 250.511337 -265.749885 
L 251.121284 -268.277522 
L 251.731231 -263.800508 
L 252.341179 -271.785815 
L 252.951126 -268.277707 
L 253.561073 -257.059073 
L 254.17102 -246.514336 
L 254.780967 -246.514483 
L 255.390914 -259.500313 
L 256.000862 -246.540237 
L 256.610809 -246.538922 
L 257.220756 -246.047072 
L 257.830703 -246.53378 
L 258.44065 -264.678622 
L 259.050597 -264.399271 
L 259.660545 -264.922413 
L 260.270492 -269.137572 
L 260.880439 -245.739397 
L 261.490386 -246.570029 
L 262.100333 -260.699526 
L 262.71028 -269.289125 
L 263.320228 -269.289274 
L 263.930175 -246.545441 
L 264.540122 -269.637853 
L 265.150069 -269.689452 
L 265.760016 -269.689517 
L 266.369963 -269.689764 
L 266.979911 -251.000095 
L 267.589858 -269.007228 
L 268.199805 -269.637838 
L 268.809752 -246.110671 
L 269.419699 -262.705939 
L 270.029646 -267.498431 
L 270.639594 -246.548091 
L 271.249541 -264.768666 
L 271.859488 -271.627301 
L 272.469435 -271.431846 
L 273.079382 -269.524808 
L 273.689329 -269.524828 
L 274.299277 -246.552959 
L 274.909224 -245.557028 
L 275.519171 -242.036287 
L 276.129118 -246.526147 
L 276.739065 -266.838496 
L 277.349012 -254.876546 
L 277.95896 -256.207671 
L 278.568907 -246.586901 
L 279.178854 -239.420026 
L 279.788801 -240.795175 
L 280.398748 -240.078767 
L 281.008695 -238.85523 
L 281.618643 -244.109496 
L 282.22859 -246.546853 
L 282.838537 -245.510171 
L 283.448484 -246.569092 
L 284.058431 -261.863971 
L 284.668378 -266.249027 
L 285.278326 -269.940585 
L 285.888273 -269.881086 
L 286.49822 -242.723544 
L 287.108167 -243.199873 
L 287.718114 -269.886604 
L 288.328061 -243.591561 
L 288.938009 -269.940578 
L 289.547956 -268.779203 
L 290.157903 -237.943349 
L 290.76785 -246.575706 
L 291.377797 -269.940638 
L 291.987744 -269.94037 
L 292.597692 -269.728349 
L 293.207639 -264.577413 
L 293.817586 -262.462383 
L 294.427533 -246.401007 
L 295.03748 -246.580678 
L 295.647427 -241.719811 
L 296.257375 -245.450863 
L 296.867322 -240.447342 
L 297.477269 -265.62821 
L 298.087216 -265.078971 
L 298.697163 -243.94777 
L 299.30711 -240.748239 
L 299.917058 -268.40893 
L 300.527005 -244.436099 
L 301.136952 -246.578532 
L 301.746899 -266.414569 
L 302.356846 -246.577857 
L 302.966793 -262.347113 
L 303.576741 -268.36119 
L 304.186688 -266.730333 
L 304.796635 -237.398272 
L 305.406582 -235.095467 
L 306.016529 -239.448137 
L 306.626476 -240.258884 
L 307.236424 -240.819458 
L 307.846371 -243.513792 
L 308.456318 -240.831969 
L 309.066265 -240.825699 
L 309.676212 -240.835912 
L 310.286159 -242.942043 
L 310.896107 -242.93344 
L 311.506054 -244.805478 
L 312.116001 -237.74245 
L 312.725948 -237.724477 
L 313.335895 -237.265897 
L 313.945842 -236.49105 
L 314.55579 -238.549866 
L 315.165737 -244.658945 
L 315.775684 -238.084189 
L 316.385631 -240.264971 
L 316.995578 -243.816033 
L 317.605525 -240.282983 
L 318.215473 -239.810977 
L 318.82542 -243.866449 
L 319.435367 -256.410636 
L 320.045314 -236.87705 
L 320.655261 -243.092662 
L 321.265208 -260.648521 
L 321.875156 -266.438102 
L 322.485103 -270.037692 
L 323.09505 -259.320737 
L 323.704997 -262.155996 
L 324.314944 -265.559259 
L 324.924891 -246.588728 
L 325.534839 -266.51293 
L 326.144786 -245.028196 
L 326.754733 -264.891548 
L 327.36468 -268.978209 
L 327.974627 -268.977849 
L 328.584574 -269.82174 
L 329.194522 -246.263633 
L 329.804469 -244.399778 
L 330.414416 -243.209058 
L 331.024363 -246.59006 
L 331.63431 -241.819188 
L 332.244257 -262.384892 
L 332.854205 -270.64876 
L 333.464152 -270.648784 
L 334.074099 -272.168478 
L 334.684046 -266.180717 
L 335.293993 -271.389158 
L 335.90394 -267.329503 
L 336.513888 -259.041028 
L 337.123835 -259.132235 
L 337.733782 -269.563735 
L 338.343729 -269.563733 
L 338.953676 -269.239647 
L 339.563623 -269.240725 
L 340.173571 -269.23997 
L 340.783518 -254.597707 
L 341.393465 -268.877864 
L 342.003412 -241.024793 
L 342.613359 -269.045903 
L 343.223306 -266.766485 
L 343.833254 -246.569144 
L 344.443201 -244.776905 
L 345.053148 -246.592778 
L 345.663095 -246.597424 
L 346.273042 -269.240855 
L 346.88299 -269.239288 
L 347.492937 -270.125053 
L 348.102884 -270.12557 
L 348.712831 -271.19921 
L 349.322778 -270.12581 
L 349.932725 -265.765366 
L 350.542673 -265.76542 
L 351.15262 -244.412014 
L 351.762567 -262.899928 
L 352.372514 -246.604207 
L 352.982461 -270.155686 
L 353.592408 -267.005927 
L 354.202356 -263.771852 
L 354.812303 -270.104287 
L 355.42225 -271.544721 
L 356.032197 -270.606056 
L 356.642144 -268.051598 
L 357.252091 -270.606603 
L 357.862039 -271.544125 
L 358.471986 -246.832333 
L 359.081933 -270.180351 
L 359.69188 -250.817545 
L 360.301827 -263.780742 
L 360.911774 -264.965694 
L 361.521722 -270.180609 
L 362.131669 -267.886868 
L 362.741616 -265.401399 
L 363.351563 -246.587985 
L 363.96151 -265.40145 
L 364.571457 -264.494966 
L 365.181405 -250.492855 
L 365.791352 -246.571577 
L 366.401299 -239.631207 
L 367.011246 -236.110264 
L 367.621193 -262.986145 
L 367.621193 -272.465785 
L 367.621193 -272.465785 
L 367.011246 -272.465601 
L 366.401299 -272.465401 
L 365.791352 -272.467334 
L 365.181405 -272.465982 
L 364.571457 -272.467425 
L 363.96151 -272.467005 
L 363.351563 -272.465595 
L 362.741616 -272.466756 
L 362.131669 -272.466236 
L 361.521722 -272.467283 
L 360.911774 -272.466455 
L 360.301827 -272.467173 
L 359.69188 -272.466097 
L 359.081933 -272.465943 
L 358.471986 -272.465408 
L 357.862039 -272.465575 
L 357.252091 -272.467469 
L 356.642144 -272.465561 
L 356.032197 -272.466078 
L 355.42225 -272.466186 
L 354.812303 -272.465442 
L 354.202356 -272.466767 
L 353.592408 -272.465626 
L 352.982461 -272.466577 
L 352.372514 -272.465198 
L 351.762567 -272.465695 
L 351.15262 -272.4675 
L 350.542673 -272.466552 
L 349.932725 -272.46653 
L 349.322778 -272.466684 
L 348.712831 -272.466281 
L 348.102884 -272.465632 
L 347.492937 -272.466262 
L 346.88299 -272.466008 
L 346.273042 -272.466354 
L 345.663095 -272.465744 
L 345.053148 -272.466519 
L 344.443201 -272.465787 
L 343.833254 -272.465647 
L 343.223306 -272.465973 
L 342.613359 -272.465531 
L 342.003412 -272.465369 
L 341.393465 -272.465627 
L 340.783518 -272.465801 
L 340.173571 -272.466535 
L 339.563623 -272.467385 
L 338.953676 -272.465275 
L 338.343729 -272.465688 
L 337.733782 -272.467418 
L 337.123835 -272.467402 
L 336.513888 -272.466058 
L 335.90394 -272.46626 
L 335.293993 -272.465603 
L 334.684046 -272.466637 
L 334.074099 -272.465392 
L 333.464152 -272.465585 
L 332.854205 -272.465886 
L 332.244257 -272.465588 
L 331.63431 -272.466148 
L 331.024363 -272.46556 
L 330.414416 -272.465842 
L 329.804469 -272.466282 
L 329.194522 -272.467103 
L 328.584574 -272.465964 
L 327.974627 -272.466539 
L 327.36468 -272.465801 
L 326.754733 -272.466032 
L 326.144786 -272.466374 
L 325.534839 -272.466275 
L 324.924891 -272.466693 
L 324.314944 -272.467318 
L 323.704997 -272.465399 
L 323.09505 -272.465236 
L 322.485103 -272.465861 
L 321.875156 -272.465578 
L 321.265208 -272.466261 
L 320.655261 -272.466734 
L 320.045314 -272.467463 
L 319.435367 -272.466855 
L 318.82542 -272.465622 
L 318.215473 -272.466823 
L 317.605525 -272.465207 
L 316.995578 -272.466515 
L 316.385631 -272.465131 
L 315.775684 -272.465367 
L 315.165737 -272.465159 
L 314.55579 -272.465224 
L 313.945842 -272.466735 
L 313.335895 -272.46735 
L 312.725948 -272.46586 
L 312.116001 -272.465311 
L 311.506054 -272.465276 
L 310.896107 -272.465784 
L 310.286159 -272.465569 
L 309.676212 -272.466681 
L 309.066265 -272.46539 
L 308.456318 -272.465082 
L 307.846371 -272.466771 
L 307.236424 -272.465567 
L 306.626476 -272.465225 
L 306.016529 -272.465196 
L 305.406582 -272.465119 
L 304.796635 -272.465492 
L 304.186688 -272.4659 
L 303.576741 -272.465153 
L 302.966793 -272.465129 
L 302.356846 -272.465188 
L 301.746899 -272.465084 
L 301.136952 -272.465091 
L 300.527005 -272.465704 
L 299.917058 -272.465478 
L 299.30711 -272.465104 
L 298.697163 -272.465518 
L 298.087216 -272.465068 
L 297.477269 -272.464889 
L 296.867322 -272.46511 
L 296.257375 -272.424561 
L 295.647427 -272.425012 
L 295.03748 -272.424499 
L 294.427533 -272.423792 
L 293.817586 -272.423604 
L 293.207639 -272.423881 
L 292.597692 -272.423985 
L 291.987744 -272.423792 
L 291.377797 -272.424603 
L 290.76785 -272.423662 
L 290.157903 -272.423715 
L 289.547956 -272.423436 
L 288.938009 -272.423655 
L 288.328061 -272.423494 
L 287.718114 -272.423563 
L 287.108167 -272.423525 
L 286.49822 -272.423693 
L 285.888273 -272.424014 
L 285.278326 -272.423708 
L 284.668378 -272.423562 
L 284.058431 -272.424633 
L 283.448484 -272.423413 
L 282.838537 -272.423418 
L 282.22859 -272.423433 
L 281.618643 -272.423424 
L 281.008695 -272.423409 
L 280.398748 -272.423434 
L 279.788801 -272.403769 
L 279.178854 -272.403862 
L 278.568907 -272.403777 
L 277.95896 -272.403754 
L 277.349012 -272.403773 
L 276.739065 -272.403754 
L 276.129118 -272.403975 
L 275.519171 -272.404978 
L 274.909224 -272.408133 
L 274.299277 -272.404774 
L 273.689329 -272.403764 
L 273.079382 -272.404717 
L 272.469435 -272.403782 
L 271.859488 -272.403745 
L 271.249541 -272.403722 
L 270.639594 -272.403689 
L 270.029646 -272.403696 
L 269.419699 -272.40007 
L 268.809752 -272.399699 
L 268.199805 -272.399694 
L 267.589858 -272.399701 
L 266.979911 -272.399696 
L 266.369963 -272.399697 
L 265.760016 -272.399694 
L 265.150069 -272.400051 
L 264.540122 -272.399693 
L 263.930175 -272.3997 
L 263.320228 -272.399672 
L 262.71028 -272.399673 
L 262.100333 -272.399636 
L 261.490386 -272.399662 
L 260.880439 -272.399666 
L 260.270492 -272.392462 
L 259.660545 -272.39251 
L 259.050597 -272.39245 
L 258.44065 -272.392463 
L 257.830703 -272.392466 
L 257.220756 -272.392498 
L 256.610809 -272.392474 
L 256.000862 -272.392481 
L 255.390914 -272.392415 
L 254.780967 -272.392255 
L 254.17102 -272.392421 
L 253.561073 -272.39132 
L 252.951126 -272.391345 
L 252.341179 -272.391342 
L 251.731231 -272.391345 
L 251.121284 -272.391301 
L 250.511337 -272.391341 
L 249.90139 -272.391341 
L 249.291443 -272.391342 
L 248.681496 -272.391317 
L 248.071548 -272.391337 
L 247.461601 -272.391337 
L 246.851654 -272.391339 
L 246.241707 -272.39134 
L 245.63176 -272.391339 
L 245.021813 -272.391341 
L 244.411865 -272.391311 
L 243.801918 -272.391304 
L 243.191971 -272.391344 
L 242.582024 -272.391331 
L 241.972077 -272.391316 
L 241.36213 -272.391323 
L 240.752182 -272.391329 
L 240.142235 -272.391262 
L 239.532288 -272.391337 
L 238.922341 -272.39199 
L 238.312394 -272.39134 
L 237.702447 -272.391333 
L 237.092499 -272.391345 
L 236.482552 -272.391237 
L 235.872605 -272.391336 
L 235.262658 -272.391337 
L 234.652711 -272.391272 
L 234.042764 -272.391248 
L 233.432816 -272.391316 
L 232.822869 -272.391332 
L 232.212922 -272.391333 
L 231.602975 -272.391337 
L 230.993028 -272.391285 
L 230.383081 -272.391322 
L 229.773133 -272.391247 
L 229.163186 -272.3913 
L 228.553239 -272.391346 
L 227.943292 -272.391336 
L 227.333345 -272.391331 
L 226.723398 -272.39134 
L 226.11345 -272.391313 
L 225.503503 -272.391325 
L 224.893556 -272.391342 
L 224.283609 -272.391345 
L 223.673662 -272.391345 
L 223.063715 -272.391317 
L 222.453767 -272.391309 
L 221.84382 -272.391309 
L 221.233873 -272.391265 
L 220.623926 -272.391285 
L 220.013979 -272.391319 
L 219.404032 -272.391323 
L 218.794084 -272.391352 
L 218.184137 -272.391303 
L 217.57419 -272.391327 
L 216.964243 -272.391322 
L 216.354296 -272.391357 
L 215.744349 -272.391312 
L 215.134401 -272.391336 
L 214.524454 -272.391318 
L 213.914507 -272.391327 
L 213.30456 -272.391232 
L 212.694613 -272.39133 
L 212.084666 -272.391316 
L 211.474718 -272.39136 
L 210.864771 -272.391332 
L 210.254824 -272.391342 
L 209.644877 -272.391348 
L 209.03493 -272.391336 
L 208.424983 -272.391341 
L 207.815035 -272.39133 
L 207.205088 -272.391336 
L 206.595141 -272.391319 
L 205.985194 -272.391298 
L 205.375247 -272.391349 
L 204.7653 -272.391336 
L 204.155352 -272.39129 
L 203.545405 -272.391355 
L 202.935458 -272.391365 
L 202.325511 -272.391349 
L 201.715564 -272.391313 
L 201.105617 -272.391336 
L 200.495669 -272.391305 
L 199.885722 -272.391275 
L 199.275775 -272.391348 
L 198.665828 -272.391327 
L 198.055881 -272.391321 
L 197.445934 -272.391346 
L 196.835986 -272.391338 
L 196.226039 -272.391275 
L 195.616092 -272.391324 
L 195.006145 -272.391316 
L 194.396198 -272.391324 
L 193.786251 -272.391271 
L 193.176303 -272.391349 
L 192.566356 -272.391314 
L 191.956409 -272.391304 
L 191.346462 -272.391263 
L 190.736515 -272.391321 
L 190.126568 -272.391231 
L 189.51662 -272.391287 
L 188.906673 -272.391282 
L 188.296726 -272.391246 
L 187.686779 -272.391368 
L 187.076832 -272.391287 
L 186.466885 -272.391336 
L 185.856937 -272.391267 
L 185.24699 -272.391306 
L 184.637043 -272.391342 
L 184.027096 -272.391337 
L 183.417149 -272.391338 
L 182.807202 -272.391235 
L 182.197254 -272.391342 
L 181.587307 -272.391356 
L 180.97736 -272.391317 
L 180.367413 -272.391313 
L 179.757466 -272.391328 
L 179.147519 -272.391299 
L 178.537571 -272.391229 
L 177.927624 -272.391335 
L 177.317677 -272.391255 
L 176.70773 -272.391224 
L 176.097783 -272.391275 
L 175.487836 -272.391343 
L 174.877888 -272.391305 
L 174.267941 -272.391232 
L 173.657994 -272.391252 
L 173.048047 -272.391198 
L 172.4381 -272.391308 
L 171.828153 -272.391193 
L 171.218205 -272.385728 
L 170.608258 -272.385716 
L 169.998311 -272.385776 
L 169.388364 -272.385814 
L 168.778417 -272.385704 
L 168.16847 -272.385719 
L 167.558522 -272.385779 
L 166.948575 -272.385672 
L 166.338628 -272.382212 
L 165.728681 -272.382607 
L 165.118734 -272.382535 
L 164.508787 -272.382221 
L 163.898839 -272.382704 
L 163.288892 -272.381969 
L 162.678945 -272.382745 
L 162.068998 -272.382139 
L 161.459051 -272.382093 
L 160.849104 -272.382142 
L 160.239156 -272.381938 
L 159.629209 -272.382294 
L 159.019262 -272.382293 
L 158.409315 -272.382248 
L 157.799368 -272.382739 
L 157.189421 -272.382171 
L 156.579473 -272.381989 
L 155.969526 -272.381819 
L 155.359579 -272.381797 
L 154.749632 -272.381448 
L 154.139685 -272.381272 
L 153.529738 -272.362119 
L 152.91979 -272.363104 
L 152.309843 -272.251649 
L 151.699896 -272.251328 
L 151.089949 -272.25095 
L 150.480002 -272.251536 
L 149.870055 -272.251463 
L 149.260107 -272.251382 
L 148.65016 -272.231858 
L 148.040213 -272.231226 
L 147.430266 -272.215418 
L 146.820319 -272.215053 
L 146.210372 -272.214361 
L 145.600424 -272.214691 
L 144.990477 -272.214974 
L 144.38053 -272.214794 
L 143.770583 -272.214914 
L 143.160636 -272.214474 
L 142.550689 -272.214186 
L 141.940741 -272.214382 
L 141.330794 -272.213165 
L 140.720847 -272.19646 
L 140.1109 -272.195507 
L 139.500953 -272.196729 
L 138.891006 -272.196373 
L 138.281058 -272.196305 
L 137.671111 -272.196381 
L 137.061164 -272.195697 
L 136.451217 -272.195701 
L 135.84127 -272.194839 
L 135.231323 -272.195692 
L 134.621375 -272.195356 
L 134.011428 -272.047651 
L 133.401481 -272.005932 
L 132.791534 -272.005833 
L 132.181587 -272.196061 
L 131.57164 -271.563277 
L 130.961692 -271.562202 
L 130.351745 -271.562222 
L 129.741798 -271.562216 
L 129.131851 -271.562202 
L 128.521904 -271.562226 
L 127.911957 -271.56217 
L 127.302009 -271.562253 
L 126.692062 -271.561873 
L 126.082115 -271.562176 
L 125.472168 -271.550971 
L 124.862221 -271.550985 
L 124.252274 -271.550966 
L 123.642326 -271.551943 
L 123.032379 -271.550946 
L 122.422432 -271.550907 
L 121.812485 -271.550967 
L 121.202538 -271.550966 
L 120.592591 -271.553133 
L 119.982643 -271.548349 
L 119.372696 -271.54833 
L 118.762749 -271.548569 
L 118.152802 -271.54823 
L 117.542855 -271.54863 
L 116.932908 -271.548475 
L 116.32296 -271.548293 
L 115.713013 -271.550955 
L 115.103066 -271.54813 
L 114.493119 -271.548318 
L 113.883172 -271.548244 
L 113.273225 -271.548241 
L 112.663277 -271.548654 
L 112.05333 -271.551285 
L 111.443383 -271.548406 
L 110.833436 -271.548247 
L 110.223489 -271.548234 
L 109.613542 -271.548273 
L 109.003594 -271.548344 
L 108.393647 -271.548241 
L 107.7837 -271.548266 
L 107.173753 -271.548235 
L 106.563806 -271.548156 
L 105.953859 -271.54806 
L 105.343911 -271.548062 
L 104.733964 -271.548328 
L 104.124017 -271.548211 
L 103.51407 -271.547987 
L 102.904123 -271.548246 
L 102.294176 -271.547984 
L 101.684228 -271.548058 
L 101.074281 -271.548357 
L 100.464334 -271.508905 
L 99.854387 -271.508915 
L 99.24444 -271.508947 
L 98.634493 -271.508864 
L 98.024545 -271.508947 
L 97.414598 -271.508946 
L 96.804651 -271.508647 
L 96.194704 -271.508839 
L 95.584757 -271.508819 
L 94.97481 -271.508766 
L 94.364862 -271.416436 
L 93.754915 -271.416489 
L 93.144968 -271.301352 
L 92.535021 -271.300695 
L 91.925074 -271.300733 
L 91.315127 -271.30071 
L 90.705179 -271.300694 
L 90.095232 -270.627298 
L 89.485285 -270.614455 
L 88.875338 -270.614776 
L 88.265391 -270.431512 
L 87.655444 -270.43134 
L 87.045496 -270.431191 
L 86.435549 -270.427367 
L 85.825602 -270.42735 
L 85.215655 -270.427352 
L 84.605708 -270.427357 
L 83.99576 -270.42734 
L 83.385813 -270.123551 
L 82.775866 -269.745692 
L 82.165919 -269.53285 
L 81.555972 -269.531893 
L 80.946025 -269.532258 
L 80.336077 -269.519233 
L 79.72613 -269.520331 
L 79.116183 -269.519634 
L 78.506236 -269.519995 
L 77.896289 -268.348079 
L 77.286342 -268.347719 
L 76.676394 -268.218968 
L 76.066447 -268.218879 
L 75.4565 -267.779076 
L 74.846553 -267.779122 
L 74.236606 -267.779038 
L 73.626659 -267.779164 
L 73.016711 -267.778996 
L 72.406764 -267.778958 
L 71.796817 -267.779134 
L 71.18687 -262.086811 
L 70.576923 -262.086893 
L 69.966976 -261.215059 
L 69.357028 -261.215151 
L 68.747081 -258.204042 
L 68.137134 -258.204049 
L 67.527187 -258.204022 
L 66.91724 -258.204057 
L 66.307293 -258.204051 
L 65.697345 -258.204043 
L 65.087398 -256.990315 
L 64.477451 -250.823136 
L 63.867504 -250.822892 
L 63.257557 -243.186113 
z
" style="stroke: #0000ff; stroke-opacity: 0.2"/>
    </defs>
    <g clip-path="url(#pffc482b69a)">
     <use xlink:href="#m17cf9754fe" x="0" y="287.4075" style="fill: #0000ff; fill-opacity: 0.2; stroke: #0000ff; stroke-opacity: 0.2"/>
    </g>
   </g>
   <g id="matplotlib.axis_1">
    <g id="xtick_1">
     <g id="line2d_1">
      <path d="M 63.257557 253.08 
L 63.257557 3.6 
" clip-path="url(#pffc482b69a)" style="fill: none; stroke: #b0b0b0; stroke-width: 0.5; stroke-linecap: square"/>
     </g>
     <g id="line2d_2">
      <defs>
       <path id="mee9cea1fa9" d="M 0 0 
L 0 -3 
" style="stroke: #000000; stroke-width: 0.5"/>
      </defs>
      <g>
       <use xlink:href="#mee9cea1fa9" x="63.257557" y="253.08" style="stroke: #000000; stroke-width: 0.5"/>
      </g>
     </g>
     <g id="line2d_3">
      <defs>
       <path id="m6470d87a49" d="M 0 0 
L 0 3 
" style="stroke: #000000; stroke-width: 0.5"/>
      </defs>
      <g>
       <use xlink:href="#m6470d87a49" x="63.257557" y="3.6" style="stroke: #000000; stroke-width: 0.5"/>
      </g>
     </g>
     <g id="text_1">
      <!-- 0 -->
      <g transform="translate(59.440057 265.698125) scale(0.12 -0.12)">
       <defs>
        <path id="DejaVuSans-30" d="M 2034 4250 
Q 1547 4250 1301 3770 
Q 1056 3291 1056 2328 
Q 1056 1369 1301 889 
Q 1547 409 2034 409 
Q 2525 409 2770 889 
Q 3016 1369 3016 2328 
Q 3016 3291 2770 3770 
Q 2525 4250 2034 4250 
z
M 2034 4750 
Q 2819 4750 3233 4129 
Q 3647 3509 3647 2328 
Q 3647 1150 3233 529 
Q 2819 -91 2034 -91 
Q 1250 -91 836 529 
Q 422 1150 422 2328 
Q 422 3509 836 4129 
Q 1250 4750 2034 4750 
z
" transform="scale(0.015625)"/>
       </defs>
       <use xlink:href="#DejaVuSans-30"/>
      </g>
     </g>
    </g>
    <g id="xtick_2">
     <g id="line2d_4">
      <path d="M 124.252274 253.08 
L 124.252274 3.6 
" clip-path="url(#pffc482b69a)" style="fill: none; stroke: #b0b0b0; stroke-width: 0.5; stroke-linecap: square"/>
     </g>
     <g id="line2d_5">
      <g>
       <use xlink:href="#mee9cea1fa9" x="124.252274" y="253.08" style="stroke: #000000; stroke-width: 0.5"/>
      </g>
     </g>
     <g id="line2d_6">
      <g>
       <use xlink:href="#m6470d87a49" x="124.252274" y="3.6" style="stroke: #000000; stroke-width: 0.5"/>
      </g>
     </g>
     <g id="text_2">
      <!-- 100 -->
      <g transform="translate(112.799774 265.698125) scale(0.12 -0.12)">
       <defs>
        <path id="DejaVuSans-31" d="M 794 531 
L 1825 531 
L 1825 4091 
L 703 3866 
L 703 4441 
L 1819 4666 
L 2450 4666 
L 2450 531 
L 3481 531 
L 3481 0 
L 794 0 
L 794 531 
z
" transform="scale(0.015625)"/>
       </defs>
       <use xlink:href="#DejaVuSans-31"/>
       <use xlink:href="#DejaVuSans-30" x="63.623047"/>
       <use xlink:href="#DejaVuSans-30" x="127.246094"/>
      </g>
     </g>
    </g>
    <g id="xtick_3">
     <g id="line2d_7">
      <path d="M 185.24699 253.08 
L 185.24699 3.6 
" clip-path="url(#pffc482b69a)" style="fill: none; stroke: #b0b0b0; stroke-width: 0.5; stroke-linecap: square"/>
     </g>
     <g id="line2d_8">
      <g>
       <use xlink:href="#mee9cea1fa9" x="185.24699" y="253.08" style="stroke: #000000; stroke-width: 0.5"/>
      </g>
     </g>
     <g id="line2d_9">
      <g>
       <use xlink:href="#m6470d87a49" x="185.24699" y="3.6" style="stroke: #000000; stroke-width: 0.5"/>
      </g>
     </g>
     <g id="text_3">
      <!-- 200 -->
      <g transform="translate(173.79449 265.698125) scale(0.12 -0.12)">
       <defs>
        <path id="DejaVuSans-32" d="M 1228 531 
L 3431 531 
L 3431 0 
L 469 0 
L 469 531 
Q 828 903 1448 1529 
Q 2069 2156 2228 2338 
Q 2531 2678 2651 2914 
Q 2772 3150 2772 3378 
Q 2772 3750 2511 3984 
Q 2250 4219 1831 4219 
Q 1534 4219 1204 4116 
Q 875 4013 500 3803 
L 500 4441 
Q 881 4594 1212 4672 
Q 1544 4750 1819 4750 
Q 2544 4750 2975 4387 
Q 3406 4025 3406 3419 
Q 3406 3131 3298 2873 
Q 3191 2616 2906 2266 
Q 2828 2175 2409 1742 
Q 1991 1309 1228 531 
z
" transform="scale(0.015625)"/>
       </defs>
       <use xlink:href="#DejaVuSans-32"/>
       <use xlink:href="#DejaVuSans-30" x="63.623047"/>
       <use xlink:href="#DejaVuSans-30" x="127.246094"/>
      </g>
     </g>
    </g>
    <g id="xtick_4">
     <g id="line2d_10">
      <path d="M 246.241707 253.08 
L 246.241707 3.6 
" clip-path="url(#pffc482b69a)" style="fill: none; stroke: #b0b0b0; stroke-width: 0.5; stroke-linecap: square"/>
     </g>
     <g id="line2d_11">
      <g>
       <use xlink:href="#mee9cea1fa9" x="246.241707" y="253.08" style="stroke: #000000; stroke-width: 0.5"/>
      </g>
     </g>
     <g id="line2d_12">
      <g>
       <use xlink:href="#m6470d87a49" x="246.241707" y="3.6" style="stroke: #000000; stroke-width: 0.5"/>
      </g>
     </g>
     <g id="text_4">
      <!-- 300 -->
      <g transform="translate(234.789207 265.698125) scale(0.12 -0.12)">
       <defs>
        <path id="DejaVuSans-33" d="M 2597 2516 
Q 3050 2419 3304 2112 
Q 3559 1806 3559 1356 
Q 3559 666 3084 287 
Q 2609 -91 1734 -91 
Q 1441 -91 1130 -33 
Q 819 25 488 141 
L 488 750 
Q 750 597 1062 519 
Q 1375 441 1716 441 
Q 2309 441 2620 675 
Q 2931 909 2931 1356 
Q 2931 1769 2642 2001 
Q 2353 2234 1838 2234 
L 1294 2234 
L 1294 2753 
L 1863 2753 
Q 2328 2753 2575 2939 
Q 2822 3125 2822 3475 
Q 2822 3834 2567 4026 
Q 2313 4219 1838 4219 
Q 1578 4219 1281 4162 
Q 984 4106 628 3988 
L 628 4550 
Q 988 4650 1302 4700 
Q 1616 4750 1894 4750 
Q 2613 4750 3031 4423 
Q 3450 4097 3450 3541 
Q 3450 3153 3228 2886 
Q 3006 2619 2597 2516 
z
" transform="scale(0.015625)"/>
       </defs>
       <use xlink:href="#DejaVuSans-33"/>
       <use xlink:href="#DejaVuSans-30" x="63.623047"/>
       <use xlink:href="#DejaVuSans-30" x="127.246094"/>
      </g>
     </g>
    </g>
    <g id="xtick_5">
     <g id="line2d_13">
      <path d="M 307.236424 253.08 
L 307.236424 3.6 
" clip-path="url(#pffc482b69a)" style="fill: none; stroke: #b0b0b0; stroke-width: 0.5; stroke-linecap: square"/>
     </g>
     <g id="line2d_14">
      <g>
       <use xlink:href="#mee9cea1fa9" x="307.236424" y="253.08" style="stroke: #000000; stroke-width: 0.5"/>
      </g>
     </g>
     <g id="line2d_15">
      <g>
       <use xlink:href="#m6470d87a49" x="307.236424" y="3.6" style="stroke: #000000; stroke-width: 0.5"/>
      </g>
     </g>
     <g id="text_5">
      <!-- 400 -->
      <g transform="translate(295.783924 265.698125) scale(0.12 -0.12)">
       <defs>
        <path id="DejaVuSans-34" d="M 2419 4116 
L 825 1625 
L 2419 1625 
L 2419 4116 
z
M 2253 4666 
L 3047 4666 
L 3047 1625 
L 3713 1625 
L 3713 1100 
L 3047 1100 
L 3047 0 
L 2419 0 
L 2419 1100 
L 313 1100 
L 313 1709 
L 2253 4666 
z
" transform="scale(0.015625)"/>
       </defs>
       <use xlink:href="#DejaVuSans-34"/>
       <use xlink:href="#DejaVuSans-30" x="63.623047"/>
       <use xlink:href="#DejaVuSans-30" x="127.246094"/>
      </g>
     </g>
    </g>
    <g id="xtick_6">
     <g id="line2d_16">
      <path d="M 368.23114 253.08 
L 368.23114 3.6 
" clip-path="url(#pffc482b69a)" style="fill: none; stroke: #b0b0b0; stroke-width: 0.5; stroke-linecap: square"/>
     </g>
     <g id="line2d_17">
      <g>
       <use xlink:href="#mee9cea1fa9" x="368.23114" y="253.08" style="stroke: #000000; stroke-width: 0.5"/>
      </g>
     </g>
     <g id="line2d_18">
      <g>
       <use xlink:href="#m6470d87a49" x="368.23114" y="3.6" style="stroke: #000000; stroke-width: 0.5"/>
      </g>
     </g>
     <g id="text_6">
      <!-- 500 -->
      <g transform="translate(356.77864 265.698125) scale(0.12 -0.12)">
       <defs>
        <path id="DejaVuSans-35" d="M 691 4666 
L 3169 4666 
L 3169 4134 
L 1269 4134 
L 1269 2991 
Q 1406 3038 1543 3061 
Q 1681 3084 1819 3084 
Q 2600 3084 3056 2656 
Q 3513 2228 3513 1497 
Q 3513 744 3044 326 
Q 2575 -91 1722 -91 
Q 1428 -91 1123 -41 
Q 819 9 494 109 
L 494 744 
Q 775 591 1075 516 
Q 1375 441 1709 441 
Q 2250 441 2565 725 
Q 2881 1009 2881 1497 
Q 2881 1984 2565 2268 
Q 2250 2553 1709 2553 
Q 1456 2553 1204 2497 
Q 953 2441 691 2322 
L 691 4666 
z
" transform="scale(0.015625)"/>
       </defs>
       <use xlink:href="#DejaVuSans-35"/>
       <use xlink:href="#DejaVuSans-30" x="63.623047"/>
       <use xlink:href="#DejaVuSans-30" x="127.246094"/>
      </g>
     </g>
    </g>
    <g id="xtick_7">
     <g id="line2d_19">
      <defs>
       <path id="md6e773a98b" d="M 0 0 
L 0 -1.5 
" style="stroke: #000000; stroke-width: 0.5"/>
      </defs>
      <g>
       <use xlink:href="#md6e773a98b" x="51.058613" y="253.08" style="stroke: #000000; stroke-width: 0.5"/>
      </g>
     </g>
     <g id="line2d_20">
      <defs>
       <path id="m4e8b80c625" d="M 0 0 
L 0 1.5 
" style="stroke: #000000; stroke-width: 0.5"/>
      </defs>
      <g>
       <use xlink:href="#m4e8b80c625" x="51.058613" y="3.6" style="stroke: #000000; stroke-width: 0.5"/>
      </g>
     </g>
    </g>
    <g id="xtick_8">
     <g id="line2d_21">
      <g>
       <use xlink:href="#md6e773a98b" x="75.4565" y="253.08" style="stroke: #000000; stroke-width: 0.5"/>
      </g>
     </g>
     <g id="line2d_22">
      <g>
       <use xlink:href="#m4e8b80c625" x="75.4565" y="3.6" style="stroke: #000000; stroke-width: 0.5"/>
      </g>
     </g>
    </g>
    <g id="xtick_9">
     <g id="line2d_23">
      <g>
       <use xlink:href="#md6e773a98b" x="87.655444" y="253.08" style="stroke: #000000; stroke-width: 0.5"/>
      </g>
     </g>
     <g id="line2d_24">
      <g>
       <use xlink:href="#m4e8b80c625" x="87.655444" y="3.6" style="stroke: #000000; stroke-width: 0.5"/>
      </g>
     </g>
    </g>
    <g id="xtick_10">
     <g id="line2d_25">
      <g>
       <use xlink:href="#md6e773a98b" x="99.854387" y="253.08" style="stroke: #000000; stroke-width: 0.5"/>
      </g>
     </g>
     <g id="line2d_26">
      <g>
       <use xlink:href="#m4e8b80c625" x="99.854387" y="3.6" style="stroke: #000000; stroke-width: 0.5"/>
      </g>
     </g>
    </g>
    <g id="xtick_11">
     <g id="line2d_27">
      <g>
       <use xlink:href="#md6e773a98b" x="112.05333" y="253.08" style="stroke: #000000; stroke-width: 0.5"/>
      </g>
     </g>
     <g id="line2d_28">
      <g>
       <use xlink:href="#m4e8b80c625" x="112.05333" y="3.6" style="stroke: #000000; stroke-width: 0.5"/>
      </g>
     </g>
    </g>
    <g id="xtick_12">
     <g id="line2d_29">
      <g>
       <use xlink:href="#md6e773a98b" x="136.451217" y="253.08" style="stroke: #000000; stroke-width: 0.5"/>
      </g>
     </g>
     <g id="line2d_30">
      <g>
       <use xlink:href="#m4e8b80c625" x="136.451217" y="3.6" style="stroke: #000000; stroke-width: 0.5"/>
      </g>
     </g>
    </g>
    <g id="xtick_13">
     <g id="line2d_31">
      <g>
       <use xlink:href="#md6e773a98b" x="148.65016" y="253.08" style="stroke: #000000; stroke-width: 0.5"/>
      </g>
     </g>
     <g id="line2d_32">
      <g>
       <use xlink:href="#m4e8b80c625" x="148.65016" y="3.6" style="stroke: #000000; stroke-width: 0.5"/>
      </g>
     </g>
    </g>
    <g id="xtick_14">
     <g id="line2d_33">
      <g>
       <use xlink:href="#md6e773a98b" x="160.849104" y="253.08" style="stroke: #000000; stroke-width: 0.5"/>
      </g>
     </g>
     <g id="line2d_34">
      <g>
       <use xlink:href="#m4e8b80c625" x="160.849104" y="3.6" style="stroke: #000000; stroke-width: 0.5"/>
      </g>
     </g>
    </g>
    <g id="xtick_15">
     <g id="line2d_35">
      <g>
       <use xlink:href="#md6e773a98b" x="173.048047" y="253.08" style="stroke: #000000; stroke-width: 0.5"/>
      </g>
     </g>
     <g id="line2d_36">
      <g>
       <use xlink:href="#m4e8b80c625" x="173.048047" y="3.6" style="stroke: #000000; stroke-width: 0.5"/>
      </g>
     </g>
    </g>
    <g id="xtick_16">
     <g id="line2d_37">
      <g>
       <use xlink:href="#md6e773a98b" x="197.445934" y="253.08" style="stroke: #000000; stroke-width: 0.5"/>
      </g>
     </g>
     <g id="line2d_38">
      <g>
       <use xlink:href="#m4e8b80c625" x="197.445934" y="3.6" style="stroke: #000000; stroke-width: 0.5"/>
      </g>
     </g>
    </g>
    <g id="xtick_17">
     <g id="line2d_39">
      <g>
       <use xlink:href="#md6e773a98b" x="209.644877" y="253.08" style="stroke: #000000; stroke-width: 0.5"/>
      </g>
     </g>
     <g id="line2d_40">
      <g>
       <use xlink:href="#m4e8b80c625" x="209.644877" y="3.6" style="stroke: #000000; stroke-width: 0.5"/>
      </g>
     </g>
    </g>
    <g id="xtick_18">
     <g id="line2d_41">
      <g>
       <use xlink:href="#md6e773a98b" x="221.84382" y="253.08" style="stroke: #000000; stroke-width: 0.5"/>
      </g>
     </g>
     <g id="line2d_42">
      <g>
       <use xlink:href="#m4e8b80c625" x="221.84382" y="3.6" style="stroke: #000000; stroke-width: 0.5"/>
      </g>
     </g>
    </g>
    <g id="xtick_19">
     <g id="line2d_43">
      <g>
       <use xlink:href="#md6e773a98b" x="234.042764" y="253.08" style="stroke: #000000; stroke-width: 0.5"/>
      </g>
     </g>
     <g id="line2d_44">
      <g>
       <use xlink:href="#m4e8b80c625" x="234.042764" y="3.6" style="stroke: #000000; stroke-width: 0.5"/>
      </g>
     </g>
    </g>
    <g id="xtick_20">
     <g id="line2d_45">
      <g>
       <use xlink:href="#md6e773a98b" x="258.44065" y="253.08" style="stroke: #000000; stroke-width: 0.5"/>
      </g>
     </g>
     <g id="line2d_46">
      <g>
       <use xlink:href="#m4e8b80c625" x="258.44065" y="3.6" style="stroke: #000000; stroke-width: 0.5"/>
      </g>
     </g>
    </g>
    <g id="xtick_21">
     <g id="line2d_47">
      <g>
       <use xlink:href="#md6e773a98b" x="270.639594" y="253.08" style="stroke: #000000; stroke-width: 0.5"/>
      </g>
     </g>
     <g id="line2d_48">
      <g>
       <use xlink:href="#m4e8b80c625" x="270.639594" y="3.6" style="stroke: #000000; stroke-width: 0.5"/>
      </g>
     </g>
    </g>
    <g id="xtick_22">
     <g id="line2d_49">
      <g>
       <use xlink:href="#md6e773a98b" x="282.838537" y="253.08" style="stroke: #000000; stroke-width: 0.5"/>
      </g>
     </g>
     <g id="line2d_50">
      <g>
       <use xlink:href="#m4e8b80c625" x="282.838537" y="3.6" style="stroke: #000000; stroke-width: 0.5"/>
      </g>
     </g>
    </g>
    <g id="xtick_23">
     <g id="line2d_51">
      <g>
       <use xlink:href="#md6e773a98b" x="295.03748" y="253.08" style="stroke: #000000; stroke-width: 0.5"/>
      </g>
     </g>
     <g id="line2d_52">
      <g>
       <use xlink:href="#m4e8b80c625" x="295.03748" y="3.6" style="stroke: #000000; stroke-width: 0.5"/>
      </g>
     </g>
    </g>
    <g id="xtick_24">
     <g id="line2d_53">
      <g>
       <use xlink:href="#md6e773a98b" x="319.435367" y="253.08" style="stroke: #000000; stroke-width: 0.5"/>
      </g>
     </g>
     <g id="line2d_54">
      <g>
       <use xlink:href="#m4e8b80c625" x="319.435367" y="3.6" style="stroke: #000000; stroke-width: 0.5"/>
      </g>
     </g>
    </g>
    <g id="xtick_25">
     <g id="line2d_55">
      <g>
       <use xlink:href="#md6e773a98b" x="331.63431" y="253.08" style="stroke: #000000; stroke-width: 0.5"/>
      </g>
     </g>
     <g id="line2d_56">
      <g>
       <use xlink:href="#m4e8b80c625" x="331.63431" y="3.6" style="stroke: #000000; stroke-width: 0.5"/>
      </g>
     </g>
    </g>
    <g id="xtick_26">
     <g id="line2d_57">
      <g>
       <use xlink:href="#md6e773a98b" x="343.833254" y="253.08" style="stroke: #000000; stroke-width: 0.5"/>
      </g>
     </g>
     <g id="line2d_58">
      <g>
       <use xlink:href="#m4e8b80c625" x="343.833254" y="3.6" style="stroke: #000000; stroke-width: 0.5"/>
      </g>
     </g>
    </g>
    <g id="xtick_27">
     <g id="line2d_59">
      <g>
       <use xlink:href="#md6e773a98b" x="356.032197" y="253.08" style="stroke: #000000; stroke-width: 0.5"/>
      </g>
     </g>
     <g id="line2d_60">
      <g>
       <use xlink:href="#m4e8b80c625" x="356.032197" y="3.6" style="stroke: #000000; stroke-width: 0.5"/>
      </g>
     </g>
    </g>
    <g id="xtick_28">
     <g id="line2d_61">
      <g>
       <use xlink:href="#md6e773a98b" x="380.430084" y="253.08" style="stroke: #000000; stroke-width: 0.5"/>
      </g>
     </g>
     <g id="line2d_62">
      <g>
       <use xlink:href="#m4e8b80c625" x="380.430084" y="3.6" style="stroke: #000000; stroke-width: 0.5"/>
      </g>
     </g>
    </g>
    <g id="text_7">
     <!-- Generations -->
     <g transform="translate(178.842188 281.311875) scale(0.12 -0.12)">
      <defs>
       <path id="DejaVuSans-47" d="M 3809 666 
L 3809 1919 
L 2778 1919 
L 2778 2438 
L 4434 2438 
L 4434 434 
Q 4069 175 3628 42 
Q 3188 -91 2688 -91 
Q 1594 -91 976 548 
Q 359 1188 359 2328 
Q 359 3472 976 4111 
Q 1594 4750 2688 4750 
Q 3144 4750 3555 4637 
Q 3966 4525 4313 4306 
L 4313 3634 
Q 3963 3931 3569 4081 
Q 3175 4231 2741 4231 
Q 1884 4231 1454 3753 
Q 1025 3275 1025 2328 
Q 1025 1384 1454 906 
Q 1884 428 2741 428 
Q 3075 428 3337 486 
Q 3600 544 3809 666 
z
" transform="scale(0.015625)"/>
       <path id="DejaVuSans-65" d="M 3597 1894 
L 3597 1613 
L 953 1613 
Q 991 1019 1311 708 
Q 1631 397 2203 397 
Q 2534 397 2845 478 
Q 3156 559 3463 722 
L 3463 178 
Q 3153 47 2828 -22 
Q 2503 -91 2169 -91 
Q 1331 -91 842 396 
Q 353 884 353 1716 
Q 353 2575 817 3079 
Q 1281 3584 2069 3584 
Q 2775 3584 3186 3129 
Q 3597 2675 3597 1894 
z
M 3022 2063 
Q 3016 2534 2758 2815 
Q 2500 3097 2075 3097 
Q 1594 3097 1305 2825 
Q 1016 2553 972 2059 
L 3022 2063 
z
" transform="scale(0.015625)"/>
       <path id="DejaVuSans-6e" d="M 3513 2113 
L 3513 0 
L 2938 0 
L 2938 2094 
Q 2938 2591 2744 2837 
Q 2550 3084 2163 3084 
Q 1697 3084 1428 2787 
Q 1159 2491 1159 1978 
L 1159 0 
L 581 0 
L 581 3500 
L 1159 3500 
L 1159 2956 
Q 1366 3272 1645 3428 
Q 1925 3584 2291 3584 
Q 2894 3584 3203 3211 
Q 3513 2838 3513 2113 
z
" transform="scale(0.015625)"/>
       <path id="DejaVuSans-72" d="M 2631 2963 
Q 2534 3019 2420 3045 
Q 2306 3072 2169 3072 
Q 1681 3072 1420 2755 
Q 1159 2438 1159 1844 
L 1159 0 
L 581 0 
L 581 3500 
L 1159 3500 
L 1159 2956 
Q 1341 3275 1631 3429 
Q 1922 3584 2338 3584 
Q 2397 3584 2469 3576 
Q 2541 3569 2628 3553 
L 2631 2963 
z
" transform="scale(0.015625)"/>
       <path id="DejaVuSans-61" d="M 2194 1759 
Q 1497 1759 1228 1600 
Q 959 1441 959 1056 
Q 959 750 1161 570 
Q 1363 391 1709 391 
Q 2188 391 2477 730 
Q 2766 1069 2766 1631 
L 2766 1759 
L 2194 1759 
z
M 3341 1997 
L 3341 0 
L 2766 0 
L 2766 531 
Q 2569 213 2275 61 
Q 1981 -91 1556 -91 
Q 1019 -91 701 211 
Q 384 513 384 1019 
Q 384 1609 779 1909 
Q 1175 2209 1959 2209 
L 2766 2209 
L 2766 2266 
Q 2766 2663 2505 2880 
Q 2244 3097 1772 3097 
Q 1472 3097 1187 3025 
Q 903 2953 641 2809 
L 641 3341 
Q 956 3463 1253 3523 
Q 1550 3584 1831 3584 
Q 2591 3584 2966 3190 
Q 3341 2797 3341 1997 
z
" transform="scale(0.015625)"/>
       <path id="DejaVuSans-74" d="M 1172 4494 
L 1172 3500 
L 2356 3500 
L 2356 3053 
L 1172 3053 
L 1172 1153 
Q 1172 725 1289 603 
Q 1406 481 1766 481 
L 2356 481 
L 2356 0 
L 1766 0 
Q 1100 0 847 248 
Q 594 497 594 1153 
L 594 3053 
L 172 3053 
L 172 3500 
L 594 3500 
L 594 4494 
L 1172 4494 
z
" transform="scale(0.015625)"/>
       <path id="DejaVuSans-69" d="M 603 3500 
L 1178 3500 
L 1178 0 
L 603 0 
L 603 3500 
z
M 603 4863 
L 1178 4863 
L 1178 4134 
L 603 4134 
L 603 4863 
z
" transform="scale(0.015625)"/>
       <path id="DejaVuSans-6f" d="M 1959 3097 
Q 1497 3097 1228 2736 
Q 959 2375 959 1747 
Q 959 1119 1226 758 
Q 1494 397 1959 397 
Q 2419 397 2687 759 
Q 2956 1122 2956 1747 
Q 2956 2369 2687 2733 
Q 2419 3097 1959 3097 
z
M 1959 3584 
Q 2709 3584 3137 3096 
Q 3566 2609 3566 1747 
Q 3566 888 3137 398 
Q 2709 -91 1959 -91 
Q 1206 -91 779 398 
Q 353 888 353 1747 
Q 353 2609 779 3096 
Q 1206 3584 1959 3584 
z
" transform="scale(0.015625)"/>
       <path id="DejaVuSans-73" d="M 2834 3397 
L 2834 2853 
Q 2591 2978 2328 3040 
Q 2066 3103 1784 3103 
Q 1356 3103 1142 2972 
Q 928 2841 928 2578 
Q 928 2378 1081 2264 
Q 1234 2150 1697 2047 
L 1894 2003 
Q 2506 1872 2764 1633 
Q 3022 1394 3022 966 
Q 3022 478 2636 193 
Q 2250 -91 1575 -91 
Q 1294 -91 989 -36 
Q 684 19 347 128 
L 347 722 
Q 666 556 975 473 
Q 1284 391 1588 391 
Q 1994 391 2212 530 
Q 2431 669 2431 922 
Q 2431 1156 2273 1281 
Q 2116 1406 1581 1522 
L 1381 1569 
Q 847 1681 609 1914 
Q 372 2147 372 2553 
Q 372 3047 722 3315 
Q 1072 3584 1716 3584 
Q 2034 3584 2315 3537 
Q 2597 3491 2834 3397 
z
" transform="scale(0.015625)"/>
      </defs>
      <use xlink:href="#DejaVuSans-47"/>
      <use xlink:href="#DejaVuSans-65" x="77.490234"/>
      <use xlink:href="#DejaVuSans-6e" x="139.013672"/>
      <use xlink:href="#DejaVuSans-65" x="202.392578"/>
      <use xlink:href="#DejaVuSans-72" x="263.916016"/>
      <use xlink:href="#DejaVuSans-61" x="305.029297"/>
      <use xlink:href="#DejaVuSans-74" x="366.308594"/>
      <use xlink:href="#DejaVuSans-69" x="405.517578"/>
      <use xlink:href="#DejaVuSans-6f" x="433.300781"/>
      <use xlink:href="#DejaVuSans-6e" x="494.482422"/>
      <use xlink:href="#DejaVuSans-73" x="557.861328"/>
     </g>
    </g>
   </g>
   <g id="matplotlib.axis_2">
    <g id="ytick_1">
     <g id="line2d_63">
      <path d="M 48.039375 219.159445 
L 382.839375 219.159445 
" clip-path="url(#pffc482b69a)" style="fill: none; stroke: #b0b0b0; stroke-width: 0.5; stroke-linecap: square"/>
     </g>
     <g id="line2d_64">
      <defs>
       <path id="m65549e7965" d="M 0 0 
L 3 0 
" style="stroke: #000000; stroke-width: 0.5"/>
      </defs>
      <g>
       <use xlink:href="#m65549e7965" x="48.039375" y="219.159445" style="stroke: #000000; stroke-width: 0.5"/>
      </g>
     </g>
     <g id="line2d_65">
      <defs>
       <path id="m646fbcc67b" d="M 0 0 
L -3 0 
" style="stroke: #000000; stroke-width: 0.5"/>
      </defs>
      <g>
       <use xlink:href="#m646fbcc67b" x="382.839375" y="219.159445" style="stroke: #000000; stroke-width: 0.5"/>
      </g>
     </g>
     <g id="text_8">
      <!-- −60 -->
      <g transform="translate(19.21375 223.718508) scale(0.12 -0.12)">
       <defs>
        <path id="DejaVuSans-2212" d="M 678 2272 
L 4684 2272 
L 4684 1741 
L 678 1741 
L 678 2272 
z
" transform="scale(0.015625)"/>
        <path id="DejaVuSans-36" d="M 2113 2584 
Q 1688 2584 1439 2293 
Q 1191 2003 1191 1497 
Q 1191 994 1439 701 
Q 1688 409 2113 409 
Q 2538 409 2786 701 
Q 3034 994 3034 1497 
Q 3034 2003 2786 2293 
Q 2538 2584 2113 2584 
z
M 3366 4563 
L 3366 3988 
Q 3128 4100 2886 4159 
Q 2644 4219 2406 4219 
Q 1781 4219 1451 3797 
Q 1122 3375 1075 2522 
Q 1259 2794 1537 2939 
Q 1816 3084 2150 3084 
Q 2853 3084 3261 2657 
Q 3669 2231 3669 1497 
Q 3669 778 3244 343 
Q 2819 -91 2113 -91 
Q 1303 -91 875 529 
Q 447 1150 447 2328 
Q 447 3434 972 4092 
Q 1497 4750 2381 4750 
Q 2619 4750 2861 4703 
Q 3103 4656 3366 4563 
z
" transform="scale(0.015625)"/>
       </defs>
       <use xlink:href="#DejaVuSans-2212"/>
       <use xlink:href="#DejaVuSans-36" x="83.789062"/>
       <use xlink:href="#DejaVuSans-30" x="147.412109"/>
      </g>
     </g>
    </g>
    <g id="ytick_2">
     <g id="line2d_66">
      <path d="M 48.039375 167.48395 
L 382.839375 167.48395 
" clip-path="url(#pffc482b69a)" style="fill: none; stroke: #b0b0b0; stroke-width: 0.5; stroke-linecap: square"/>
     </g>
     <g id="line2d_67">
      <g>
       <use xlink:href="#m65549e7965" x="48.039375" y="167.48395" style="stroke: #000000; stroke-width: 0.5"/>
      </g>
     </g>
     <g id="line2d_68">
      <g>
       <use xlink:href="#m646fbcc67b" x="382.839375" y="167.48395" style="stroke: #000000; stroke-width: 0.5"/>
      </g>
     </g>
     <g id="text_9">
      <!-- −40 -->
      <g transform="translate(19.21375 172.043013) scale(0.12 -0.12)">
       <use xlink:href="#DejaVuSans-2212"/>
       <use xlink:href="#DejaVuSans-34" x="83.789062"/>
       <use xlink:href="#DejaVuSans-30" x="147.412109"/>
      </g>
     </g>
    </g>
    <g id="ytick_3">
     <g id="line2d_69">
      <path d="M 48.039375 115.808456 
L 382.839375 115.808456 
" clip-path="url(#pffc482b69a)" style="fill: none; stroke: #b0b0b0; stroke-width: 0.5; stroke-linecap: square"/>
     </g>
     <g id="line2d_70">
      <g>
       <use xlink:href="#m65549e7965" x="48.039375" y="115.808456" style="stroke: #000000; stroke-width: 0.5"/>
      </g>
     </g>
     <g id="line2d_71">
      <g>
       <use xlink:href="#m646fbcc67b" x="382.839375" y="115.808456" style="stroke: #000000; stroke-width: 0.5"/>
      </g>
     </g>
     <g id="text_10">
      <!-- −20 -->
      <g transform="translate(19.21375 120.367518) scale(0.12 -0.12)">
       <use xlink:href="#DejaVuSans-2212"/>
       <use xlink:href="#DejaVuSans-32" x="83.789062"/>
       <use xlink:href="#DejaVuSans-30" x="147.412109"/>
      </g>
     </g>
    </g>
    <g id="ytick_4">
     <g id="line2d_72">
      <path d="M 48.039375 64.132961 
L 382.839375 64.132961 
" clip-path="url(#pffc482b69a)" style="fill: none; stroke: #b0b0b0; stroke-width: 0.5; stroke-linecap: square"/>
     </g>
     <g id="line2d_73">
      <g>
       <use xlink:href="#m65549e7965" x="48.039375" y="64.132961" style="stroke: #000000; stroke-width: 0.5"/>
      </g>
     </g>
     <g id="line2d_74">
      <g>
       <use xlink:href="#m646fbcc67b" x="382.839375" y="64.132961" style="stroke: #000000; stroke-width: 0.5"/>
      </g>
     </g>
     <g id="text_11">
      <!-- 0 -->
      <g transform="translate(36.904375 68.692023) scale(0.12 -0.12)">
       <use xlink:href="#DejaVuSans-30"/>
      </g>
     </g>
    </g>
    <g id="ytick_5">
     <g id="line2d_75">
      <path d="M 48.039375 12.457466 
L 382.839375 12.457466 
" clip-path="url(#pffc482b69a)" style="fill: none; stroke: #b0b0b0; stroke-width: 0.5; stroke-linecap: square"/>
     </g>
     <g id="line2d_76">
      <g>
       <use xlink:href="#m65549e7965" x="48.039375" y="12.457466" style="stroke: #000000; stroke-width: 0.5"/>
      </g>
     </g>
     <g id="line2d_77">
      <g>
       <use xlink:href="#m646fbcc67b" x="382.839375" y="12.457466" style="stroke: #000000; stroke-width: 0.5"/>
      </g>
     </g>
     <g id="text_12">
      <!-- 20 -->
      <g transform="translate(29.269375 17.016529) scale(0.12 -0.12)">
       <use xlink:href="#DejaVuSans-32"/>
       <use xlink:href="#DejaVuSans-30" x="63.623047"/>
      </g>
     </g>
    </g>
    <g id="ytick_6">
     <g id="line2d_78">
      <defs>
       <path id="m89772ba4ca" d="M 0 0 
L 1.5 0 
" style="stroke: #000000; stroke-width: 0.5"/>
      </defs>
      <g>
       <use xlink:href="#m89772ba4ca" x="48.039375" y="244.997192" style="stroke: #000000; stroke-width: 0.5"/>
      </g>
     </g>
     <g id="line2d_79">
      <defs>
       <path id="m3ab483a42b" d="M 0 0 
L -1.5 0 
" style="stroke: #000000; stroke-width: 0.5"/>
      </defs>
      <g>
       <use xlink:href="#m3ab483a42b" x="382.839375" y="244.997192" style="stroke: #000000; stroke-width: 0.5"/>
      </g>
     </g>
    </g>
    <g id="ytick_7">
     <g id="line2d_80">
      <g>
       <use xlink:href="#m89772ba4ca" x="48.039375" y="232.078319" style="stroke: #000000; stroke-width: 0.5"/>
      </g>
     </g>
     <g id="line2d_81">
      <g>
       <use xlink:href="#m3ab483a42b" x="382.839375" y="232.078319" style="stroke: #000000; stroke-width: 0.5"/>
      </g>
     </g>
    </g>
    <g id="ytick_8">
     <g id="line2d_82">
      <g>
       <use xlink:href="#m89772ba4ca" x="48.039375" y="206.240571" style="stroke: #000000; stroke-width: 0.5"/>
      </g>
     </g>
     <g id="line2d_83">
      <g>
       <use xlink:href="#m3ab483a42b" x="382.839375" y="206.240571" style="stroke: #000000; stroke-width: 0.5"/>
      </g>
     </g>
    </g>
    <g id="ytick_9">
     <g id="line2d_84">
      <g>
       <use xlink:href="#m89772ba4ca" x="48.039375" y="193.321698" style="stroke: #000000; stroke-width: 0.5"/>
      </g>
     </g>
     <g id="line2d_85">
      <g>
       <use xlink:href="#m3ab483a42b" x="382.839375" y="193.321698" style="stroke: #000000; stroke-width: 0.5"/>
      </g>
     </g>
    </g>
    <g id="ytick_10">
     <g id="line2d_86">
      <g>
       <use xlink:href="#m89772ba4ca" x="48.039375" y="180.402824" style="stroke: #000000; stroke-width: 0.5"/>
      </g>
     </g>
     <g id="line2d_87">
      <g>
       <use xlink:href="#m3ab483a42b" x="382.839375" y="180.402824" style="stroke: #000000; stroke-width: 0.5"/>
      </g>
     </g>
    </g>
    <g id="ytick_11">
     <g id="line2d_88">
      <g>
       <use xlink:href="#m89772ba4ca" x="48.039375" y="154.565077" style="stroke: #000000; stroke-width: 0.5"/>
      </g>
     </g>
     <g id="line2d_89">
      <g>
       <use xlink:href="#m3ab483a42b" x="382.839375" y="154.565077" style="stroke: #000000; stroke-width: 0.5"/>
      </g>
     </g>
    </g>
    <g id="ytick_12">
     <g id="line2d_90">
      <g>
       <use xlink:href="#m89772ba4ca" x="48.039375" y="141.646203" style="stroke: #000000; stroke-width: 0.5"/>
      </g>
     </g>
     <g id="line2d_91">
      <g>
       <use xlink:href="#m3ab483a42b" x="382.839375" y="141.646203" style="stroke: #000000; stroke-width: 0.5"/>
      </g>
     </g>
    </g>
    <g id="ytick_13">
     <g id="line2d_92">
      <g>
       <use xlink:href="#m89772ba4ca" x="48.039375" y="128.727329" style="stroke: #000000; stroke-width: 0.5"/>
      </g>
     </g>
     <g id="line2d_93">
      <g>
       <use xlink:href="#m3ab483a42b" x="382.839375" y="128.727329" style="stroke: #000000; stroke-width: 0.5"/>
      </g>
     </g>
    </g>
    <g id="ytick_14">
     <g id="line2d_94">
      <g>
       <use xlink:href="#m89772ba4ca" x="48.039375" y="102.889582" style="stroke: #000000; stroke-width: 0.5"/>
      </g>
     </g>
     <g id="line2d_95">
      <g>
       <use xlink:href="#m3ab483a42b" x="382.839375" y="102.889582" style="stroke: #000000; stroke-width: 0.5"/>
      </g>
     </g>
    </g>
    <g id="ytick_15">
     <g id="line2d_96">
      <g>
       <use xlink:href="#m89772ba4ca" x="48.039375" y="89.970708" style="stroke: #000000; stroke-width: 0.5"/>
      </g>
     </g>
     <g id="line2d_97">
      <g>
       <use xlink:href="#m3ab483a42b" x="382.839375" y="89.970708" style="stroke: #000000; stroke-width: 0.5"/>
      </g>
     </g>
    </g>
    <g id="ytick_16">
     <g id="line2d_98">
      <g>
       <use xlink:href="#m89772ba4ca" x="48.039375" y="77.051835" style="stroke: #000000; stroke-width: 0.5"/>
      </g>
     </g>
     <g id="line2d_99">
      <g>
       <use xlink:href="#m3ab483a42b" x="382.839375" y="77.051835" style="stroke: #000000; stroke-width: 0.5"/>
      </g>
     </g>
    </g>
    <g id="ytick_17">
     <g id="line2d_100">
      <g>
       <use xlink:href="#m89772ba4ca" x="48.039375" y="51.214087" style="stroke: #000000; stroke-width: 0.5"/>
      </g>
     </g>
     <g id="line2d_101">
      <g>
       <use xlink:href="#m3ab483a42b" x="382.839375" y="51.214087" style="stroke: #000000; stroke-width: 0.5"/>
      </g>
     </g>
    </g>
    <g id="ytick_18">
     <g id="line2d_102">
      <g>
       <use xlink:href="#m89772ba4ca" x="48.039375" y="38.295214" style="stroke: #000000; stroke-width: 0.5"/>
      </g>
     </g>
     <g id="line2d_103">
      <g>
       <use xlink:href="#m3ab483a42b" x="382.839375" y="38.295214" style="stroke: #000000; stroke-width: 0.5"/>
      </g>
     </g>
    </g>
    <g id="ytick_19">
     <g id="line2d_104">
      <g>
       <use xlink:href="#m89772ba4ca" x="48.039375" y="25.37634" style="stroke: #000000; stroke-width: 0.5"/>
      </g>
     </g>
     <g id="line2d_105">
      <g>
       <use xlink:href="#m3ab483a42b" x="382.839375" y="25.37634" style="stroke: #000000; stroke-width: 0.5"/>
      </g>
     </g>
    </g>
    <g id="text_13">
     <!-- Fitness -->
     <g transform="translate(12.718125 149.120625) rotate(-90) scale(0.12 -0.12)">
      <defs>
       <path id="DejaVuSans-46" d="M 628 4666 
L 3309 4666 
L 3309 4134 
L 1259 4134 
L 1259 2759 
L 3109 2759 
L 3109 2228 
L 1259 2228 
L 1259 0 
L 628 0 
L 628 4666 
z
" transform="scale(0.015625)"/>
      </defs>
      <use xlink:href="#DejaVuSans-46"/>
      <use xlink:href="#DejaVuSans-69" x="50.269531"/>
      <use xlink:href="#DejaVuSans-74" x="78.052734"/>
      <use xlink:href="#DejaVuSans-6e" x="117.261719"/>
      <use xlink:href="#DejaVuSans-65" x="180.640625"/>
      <use xlink:href="#DejaVuSans-73" x="242.164062"/>
      <use xlink:href="#DejaVuSans-73" x="294.263672"/>
     </g>
    </g>
   </g>
   <g id="line2d_106">
    <path d="M 63.257557 44.221387 
L 63.867504 36.584608 
L 64.477451 36.584364 
L 65.087398 30.417185 
L 65.697345 29.203457 
L 68.747081 29.203458 
L 69.357028 26.192349 
L 69.966976 26.192441 
L 70.576923 25.320607 
L 71.18687 25.320689 
L 71.796817 19.628366 
L 75.4565 19.628424 
L 76.066447 19.188621 
L 76.676394 19.188532 
L 77.286342 19.059781 
L 77.896289 19.059421 
L 78.506236 17.887505 
L 82.165919 17.87465 
L 82.775866 17.661808 
L 83.99576 16.98016 
L 88.265391 16.975988 
L 88.875338 16.792724 
L 90.095232 16.780202 
L 90.705179 16.106806 
L 93.144968 16.106148 
L 93.754915 15.991011 
L 100.464334 15.898595 
L 102.294176 15.859516 
L 131.57164 15.844223 
L 132.181587 15.211439 
L 132.791534 15.401667 
L 134.011428 15.359849 
L 134.621375 15.212144 
L 152.309843 15.155851 
L 153.529738 15.045381 
L 157.189421 15.025329 
L 365.791352 14.940166 
L 367.621193 14.941715 
L 367.621193 14.941715 
" clip-path="url(#pffc482b69a)" style="fill: none; stroke: #000000; stroke-linecap: square"/>
   </g>
   <g id="line2d_107">
    <path d="M 63.257557 121.828432 
L 63.867504 139.122553 
L 64.477451 241.74 
L 65.087398 119.972995 
L 65.697345 91.222288 
L 66.307293 101.967202 
L 66.91724 143.555245 
L 67.527187 94.618564 
L 68.137134 87.924519 
L 69.357028 87.055761 
L 69.966976 99.231212 
L 70.576923 85.800683 
L 71.18687 82.341403 
L 71.796817 70.247992 
L 72.406764 71.937536 
L 73.016711 70.978653 
L 73.626659 68.572191 
L 74.236606 69.197119 
L 76.676394 38.742799 
L 77.286342 32.234034 
L 77.896289 31.608388 
L 78.506236 30.708545 
L 79.116183 28.849836 
L 79.72613 30.672129 
L 80.336077 29.413015 
L 80.946025 34.004322 
L 82.165919 28.633497 
L 82.775866 27.708714 
L 83.385813 30.769469 
L 83.99576 30.962499 
L 84.605708 29.143752 
L 85.215655 30.353171 
L 85.825602 31.279012 
L 86.435549 32.41379 
L 87.045496 32.540021 
L 88.265391 28.947357 
L 88.875338 30.696478 
L 89.485285 29.784291 
L 90.095232 26.66398 
L 90.705179 27.738551 
L 91.925074 25.254366 
L 92.535021 26.30569 
L 93.144968 29.273253 
L 93.754915 26.713474 
L 94.364862 22.724294 
L 94.97481 23.837001 
L 95.584757 21.176813 
L 96.194704 21.4421 
L 96.804651 26.108705 
L 97.414598 24.357273 
L 98.024545 24.553433 
L 98.634493 22.521013 
L 99.24444 25.261405 
L 99.854387 21.036379 
L 100.464334 20.276002 
L 101.074281 21.104553 
L 101.684228 20.805084 
L 102.294176 25.072097 
L 102.904123 25.5373 
L 103.51407 23.694052 
L 104.733964 18.302928 
L 105.343911 19.476143 
L 105.953859 20.291773 
L 106.563806 20.518468 
L 107.173753 21.962651 
L 107.7837 21.037235 
L 108.393647 20.659382 
L 109.003594 22.271682 
L 109.613542 19.879557 
L 110.223489 22.769803 
L 110.833436 19.739958 
L 111.443383 22.843862 
L 112.05333 19.194102 
L 112.663277 19.942259 
L 113.273225 19.093155 
L 113.883172 18.591373 
L 114.493119 19.132149 
L 115.103066 20.957811 
L 115.713013 19.494516 
L 116.32296 19.970165 
L 116.932908 50.15853 
L 117.542855 24.505051 
L 118.152802 25.160658 
L 118.762749 25.379407 
L 119.372696 22.787647 
L 119.982643 21.59096 
L 120.592591 19.528965 
L 121.202538 18.909703 
L 122.422432 19.893154 
L 123.032379 21.550326 
L 123.642326 22.418682 
L 124.252274 21.829686 
L 124.862221 23.475819 
L 126.082115 18.400535 
L 126.692062 17.152391 
L 127.302009 20.849706 
L 127.911957 19.245754 
L 128.521904 20.835505 
L 129.131851 19.157753 
L 129.741798 31.560172 
L 130.351745 22.267088 
L 130.961692 22.705389 
L 131.57164 21.024113 
L 132.181587 22.200356 
L 132.791534 22.227594 
L 133.401481 20.363138 
L 134.011428 22.337854 
L 134.621375 21.537546 
L 135.231323 21.909258 
L 135.84127 20.305715 
L 136.451217 20.482206 
L 137.061164 22.250406 
L 137.671111 22.332945 
L 138.281058 21.148401 
L 138.891006 20.521953 
L 139.500953 20.681917 
L 140.1109 20.69514 
L 140.720847 19.830237 
L 141.330794 19.67702 
L 141.940741 23.00827 
L 142.550689 24.44327 
L 143.160636 21.348983 
L 143.770583 20.222513 
L 144.38053 46.948913 
L 144.990477 21.081297 
L 145.600424 19.06162 
L 146.210372 19.188615 
L 146.820319 18.72932 
L 147.430266 20.242533 
L 148.040213 17.25744 
L 149.260107 20.590634 
L 149.870055 19.152957 
L 150.480002 19.872962 
L 151.089949 22.370514 
L 151.699896 23.076569 
L 152.309843 23.512251 
L 152.91979 28.430973 
L 153.529738 26.011501 
L 154.139685 21.675573 
L 154.749632 22.926357 
L 155.359579 21.75755 
L 156.579473 18.5907 
L 157.189421 20.094697 
L 157.799368 22.060868 
L 158.409315 20.874125 
L 159.019262 20.351593 
L 159.629209 20.644258 
L 160.239156 23.629806 
L 160.849104 20.838117 
L 161.459051 20.477663 
L 162.068998 25.79836 
L 162.678945 22.156277 
L 163.288892 23.862592 
L 163.898839 23.293931 
L 165.118734 22.893707 
L 165.728681 21.974734 
L 166.338628 20.590619 
L 166.948575 19.959538 
L 167.558522 20.6132 
L 168.16847 20.514144 
L 169.388364 22.476345 
L 169.998311 20.073271 
L 170.608258 21.114883 
L 171.218205 19.846731 
L 171.828153 18.075273 
L 172.4381 18.634515 
L 173.657994 18.743073 
L 174.267941 17.821849 
L 174.877888 21.159088 
L 175.487836 20.702339 
L 176.097783 26.098176 
L 176.70773 23.750401 
L 177.317677 20.0013 
L 177.927624 20.855998 
L 178.537571 20.56906 
L 179.147519 21.912184 
L 179.757466 24.183714 
L 180.367413 22.209788 
L 181.587307 24.713824 
L 182.197254 28.463496 
L 182.807202 25.764372 
L 183.417149 27.872748 
L 184.027096 28.338395 
L 184.637043 22.113125 
L 185.24699 22.318125 
L 185.856937 20.582622 
L 186.466885 20.146677 
L 187.076832 17.133452 
L 187.686779 16.762878 
L 188.296726 19.45182 
L 188.906673 18.030143 
L 189.51662 19.329695 
L 190.126568 18.045841 
L 190.736515 17.196115 
L 191.346462 17.273003 
L 191.956409 18.562126 
L 192.566356 20.253551 
L 193.176303 20.663393 
L 193.786251 24.329515 
L 194.396198 22.328749 
L 195.006145 19.486211 
L 195.616092 21.918234 
L 196.226039 20.053321 
L 196.835986 18.889702 
L 197.445934 19.342868 
L 198.055881 18.78298 
L 198.665828 19.699264 
L 199.275775 16.78712 
L 199.885722 17.211526 
L 200.495669 16.196949 
L 201.105617 16.552851 
L 202.325511 19.066368 
L 202.935458 18.964634 
L 203.545405 19.632014 
L 204.155352 20.703562 
L 204.7653 20.777748 
L 205.375247 19.510198 
L 205.985194 21.257581 
L 206.595141 23.679704 
L 207.205088 21.146148 
L 207.815035 20.198451 
L 208.424983 21.902376 
L 209.03493 21.964326 
L 209.644877 21.412052 
L 210.254824 21.807196 
L 210.864771 21.118123 
L 211.474718 22.680903 
L 212.084666 22.249929 
L 212.694613 22.472991 
L 213.30456 22.102644 
L 213.914507 24.529123 
L 214.524454 21.710272 
L 215.134401 20.524576 
L 215.744349 29.284671 
L 216.354296 21.373078 
L 216.964243 22.263659 
L 217.57419 21.814359 
L 218.184137 18.52836 
L 218.794084 18.032683 
L 220.013979 20.110753 
L 220.623926 18.460572 
L 221.233873 18.240102 
L 221.84382 17.319269 
L 222.453767 18.942425 
L 223.063715 18.69054 
L 223.673662 19.867951 
L 224.283609 19.681668 
L 224.893556 17.330135 
L 225.503503 19.161561 
L 226.11345 20.145427 
L 227.333345 20.08011 
L 227.943292 19.625812 
L 228.553239 22.408836 
L 229.163186 20.769016 
L 229.773133 22.885578 
L 230.383081 21.314761 
L 230.993028 20.651858 
L 231.602975 23.39302 
L 232.212922 20.653541 
L 232.822869 20.210838 
L 233.432816 18.861812 
L 234.042764 16.528386 
L 234.652711 19.927919 
L 235.262658 18.307794 
L 236.482552 20.437994 
L 237.092499 20.902511 
L 237.702447 18.453029 
L 238.312394 20.535691 
L 238.922341 21.719466 
L 239.532288 18.21725 
L 240.142235 21.111705 
L 240.752182 22.57167 
L 241.36213 20.162871 
L 241.972077 22.628575 
L 242.582024 20.934238 
L 243.191971 19.956828 
L 243.801918 19.370063 
L 244.411865 18.595789 
L 245.63176 18.412746 
L 246.241707 18.601267 
L 246.851654 19.481184 
L 247.461601 20.754987 
L 248.071548 18.781822 
L 248.681496 18.983616 
L 249.291443 16.832451 
L 249.90139 16.578517 
L 250.511337 20.382452 
L 251.121284 18.522905 
L 251.731231 19.076872 
L 252.341179 16.339647 
L 252.951126 18.237274 
L 253.561073 21.175304 
L 254.17102 21.86446 
L 254.780967 22.258223 
L 255.390914 19.455476 
L 256.000862 20.392889 
L 256.610809 20.596934 
L 257.220756 22.143179 
L 257.830703 21.589606 
L 258.44065 19.191208 
L 259.660545 17.715637 
L 260.270492 18.218272 
L 260.880439 23.678124 
L 261.490386 20.274084 
L 262.100333 20.186738 
L 262.71028 18.221222 
L 263.930175 19.961839 
L 264.540122 18.976458 
L 265.150069 19.091561 
L 265.760016 18.246167 
L 266.369963 16.945758 
L 266.979911 19.385333 
L 267.589858 18.559585 
L 268.199805 18.888937 
L 268.809752 19.867105 
L 269.419699 19.191895 
L 270.029646 19.887656 
L 270.639594 19.028743 
L 271.249541 18.8123 
L 271.859488 16.737547 
L 272.469435 16.298982 
L 273.079382 16.90409 
L 273.689329 17.711519 
L 274.299277 19.627421 
L 274.909224 23.034662 
L 275.519171 24.756982 
L 276.129118 21.028693 
L 276.739065 19.676407 
L 277.349012 20.551427 
L 277.95896 19.429098 
L 278.568907 22.284463 
L 279.178854 24.106199 
L 279.788801 25.550785 
L 280.398748 25.883438 
L 281.008695 29.812391 
L 281.618643 22.455173 
L 282.22859 21.972772 
L 282.838537 21.696776 
L 283.448484 20.433099 
L 284.058431 19.607142 
L 284.668378 19.486095 
L 285.278326 18.750371 
L 285.888273 18.95596 
L 286.49822 20.753436 
L 287.108167 21.773909 
L 287.718114 18.834378 
L 288.328061 21.090782 
L 288.938009 19.787214 
L 289.547956 19.765423 
L 290.157903 22.744705 
L 291.377797 18.718122 
L 291.987744 18.681781 
L 292.597692 19.136071 
L 293.207639 19.315868 
L 293.817586 19.847689 
L 294.427533 20.691564 
L 295.03748 20.569601 
L 295.647427 23.641174 
L 296.257375 21.083971 
L 296.867322 23.610491 
L 297.477269 17.890557 
L 298.087216 19.329156 
L 298.697163 21.214786 
L 299.30711 24.875062 
L 299.917058 18.849012 
L 300.527005 23.607087 
L 301.136952 22.464827 
L 301.746899 18.067277 
L 302.356846 20.618093 
L 302.966793 19.019274 
L 303.576741 19.39097 
L 304.186688 18.872852 
L 304.796635 22.158973 
L 305.406582 27.0736 
L 306.016529 24.303671 
L 306.626476 24.376493 
L 307.236424 25.614116 
L 307.846371 25.615304 
L 308.456318 24.3774 
L 309.066265 25.554235 
L 309.676212 25.609797 
L 310.896107 24.782496 
L 311.506054 23.495204 
L 312.116001 24.373698 
L 312.725948 26.06138 
L 313.335895 28.365256 
L 313.945842 28.958827 
L 314.55579 28.377821 
L 315.165737 24.386614 
L 315.775684 27.17895 
L 316.385631 26.132195 
L 316.995578 24.691208 
L 317.605525 26.729631 
L 318.215473 26.942752 
L 318.82542 22.422847 
L 319.435367 20.65271 
L 320.045314 27.243504 
L 320.655261 21.836306 
L 321.875156 18.995996 
L 322.485103 18.423315 
L 323.09505 20.235506 
L 323.704997 21.579288 
L 324.314944 18.996278 
L 324.924891 20.919213 
L 325.534839 21.186745 
L 326.144786 19.99511 
L 326.754733 18.175499 
L 327.36468 16.856107 
L 327.974627 16.744099 
L 328.584574 17.743371 
L 329.194522 21.388866 
L 329.804469 19.975146 
L 330.414416 21.926097 
L 331.024363 19.933651 
L 331.63431 23.971669 
L 332.244257 18.565849 
L 332.854205 16.827879 
L 333.464152 18.422243 
L 334.074099 16.777286 
L 334.684046 19.047174 
L 335.293993 16.315134 
L 336.513888 20.200718 
L 337.123835 18.688788 
L 337.733782 16.288325 
L 338.343729 17.512545 
L 338.953676 19.45552 
L 339.563623 18.037763 
L 340.173571 17.796098 
L 340.783518 21.152944 
L 341.393465 20.005866 
L 342.003412 22.068505 
L 342.613359 18.366338 
L 343.223306 18.647982 
L 343.833254 19.820098 
L 344.443201 21.882072 
L 346.273042 17.965974 
L 346.88299 18.54147 
L 347.492937 19.806773 
L 348.102884 18.74864 
L 348.712831 17.198711 
L 349.322778 18.665439 
L 349.932725 18.313971 
L 350.542673 18.682322 
L 351.15262 23.010754 
L 351.762567 18.935346 
L 352.372514 19.461455 
L 352.982461 17.442047 
L 353.592408 19.380976 
L 354.202356 19.706975 
L 354.812303 18.106786 
L 355.42225 15.710004 
L 356.032197 19.663523 
L 356.642144 18.621763 
L 357.252091 18.047826 
L 357.862039 18.473543 
L 358.471986 21.090943 
L 359.081933 19.62996 
L 359.69188 19.796864 
L 360.301827 19.535296 
L 360.911774 17.914637 
L 361.521722 17.542097 
L 362.131669 16.385836 
L 363.351563 19.551169 
L 363.96151 18.537858 
L 364.571457 19.095852 
L 365.181405 19.816107 
L 365.791352 20.271263 
L 366.401299 21.568496 
L 367.011246 24.878919 
L 367.621193 18.640219 
L 367.621193 18.640219 
" clip-path="url(#pffc482b69a)" style="fill: none; stroke-dasharray: 3.7,1.6; stroke-dashoffset: 0; stroke: #000000"/>
   </g>
   <g id="patch_3">
    <path d="M 48.039375 253.08 
L 48.039375 3.6 
" style="fill: none; stroke: #000000; stroke-width: 0.5; stroke-linejoin: miter; stroke-linecap: square"/>
   </g>
   <g id="patch_4">
    <path d="M 382.839375 253.08 
L 382.839375 3.6 
" style="fill: none; stroke: #000000; stroke-width: 0.5; stroke-linejoin: miter; stroke-linecap: square"/>
   </g>
   <g id="patch_5">
    <path d="M 48.039375 253.08 
L 382.839375 253.08 
" style="fill: none; stroke: #000000; stroke-width: 0.5; stroke-linejoin: miter; stroke-linecap: square"/>
   </g>
   <g id="patch_6">
    <path d="M 48.039375 3.6 
L 382.839375 3.6 
" style="fill: none; stroke: #000000; stroke-width: 0.5; stroke-linejoin: miter; stroke-linecap: square"/>
   </g>
   <g id="legend_1">
    <g id="patch_7">
     <path d="M 256.633125 247.08 
L 374.439375 247.08 
Q 376.839375 247.08 376.839375 244.68 
L 376.839375 193.03875 
Q 376.839375 190.63875 374.439375 190.63875 
L 256.633125 190.63875 
Q 254.233125 190.63875 254.233125 193.03875 
L 254.233125 244.68 
Q 254.233125 247.08 256.633125 247.08 
z
" style="fill: #ffffff; opacity: 0.8; stroke: #cccccc; stroke-linejoin: miter"/>
    </g>
    <g id="line2d_108">
     <path d="M 259.033125 200.356875 
L 271.033125 200.356875 
L 283.033125 200.356875 
" style="fill: none; stroke: #000000; stroke-linecap: square"/>
    </g>
    <g id="text_14">
     <!-- Max fitness -->
     <g transform="translate(292.633125 204.556875) scale(0.12 -0.12)">
      <defs>
       <path id="DejaVuSans-4d" d="M 628 4666 
L 1569 4666 
L 2759 1491 
L 3956 4666 
L 4897 4666 
L 4897 0 
L 4281 0 
L 4281 4097 
L 3078 897 
L 2444 897 
L 1241 4097 
L 1241 0 
L 628 0 
L 628 4666 
z
" transform="scale(0.015625)"/>
       <path id="DejaVuSans-78" d="M 3513 3500 
L 2247 1797 
L 3578 0 
L 2900 0 
L 1881 1375 
L 863 0 
L 184 0 
L 1544 1831 
L 300 3500 
L 978 3500 
L 1906 2253 
L 2834 3500 
L 3513 3500 
z
" transform="scale(0.015625)"/>
       <path id="DejaVuSans-20" transform="scale(0.015625)"/>
       <path id="DejaVuSans-66" d="M 2375 4863 
L 2375 4384 
L 1825 4384 
Q 1516 4384 1395 4259 
Q 1275 4134 1275 3809 
L 1275 3500 
L 2222 3500 
L 2222 3053 
L 1275 3053 
L 1275 0 
L 697 0 
L 697 3053 
L 147 3053 
L 147 3500 
L 697 3500 
L 697 3744 
Q 697 4328 969 4595 
Q 1241 4863 1831 4863 
L 2375 4863 
z
" transform="scale(0.015625)"/>
      </defs>
      <use xlink:href="#DejaVuSans-4d"/>
      <use xlink:href="#DejaVuSans-61" x="86.279297"/>
      <use xlink:href="#DejaVuSans-78" x="147.558594"/>
      <use xlink:href="#DejaVuSans-20" x="206.738281"/>
      <use xlink:href="#DejaVuSans-66" x="238.525391"/>
      <use xlink:href="#DejaVuSans-69" x="273.730469"/>
      <use xlink:href="#DejaVuSans-74" x="301.513672"/>
      <use xlink:href="#DejaVuSans-6e" x="340.722656"/>
      <use xlink:href="#DejaVuSans-65" x="404.101562"/>
      <use xlink:href="#DejaVuSans-73" x="465.625"/>
      <use xlink:href="#DejaVuSans-73" x="517.724609"/>
     </g>
    </g>
    <g id="patch_8">
     <path d="M 259.033125 222.170625 
L 283.033125 222.170625 
L 283.033125 213.770625 
L 259.033125 213.770625 
z
" style="fill: #0000ff; fill-opacity: 0.2; stroke: #0000ff; stroke-opacity: 0.2; stroke-linejoin: miter"/>
    </g>
    <g id="text_15">
     <!-- Top 90% -->
     <g transform="translate(292.633125 222.170625) scale(0.12 -0.12)">
      <defs>
       <path id="DejaVuSans-54" d="M -19 4666 
L 3928 4666 
L 3928 4134 
L 2272 4134 
L 2272 0 
L 1638 0 
L 1638 4134 
L -19 4134 
L -19 4666 
z
" transform="scale(0.015625)"/>
       <path id="DejaVuSans-70" d="M 1159 525 
L 1159 -1331 
L 581 -1331 
L 581 3500 
L 1159 3500 
L 1159 2969 
Q 1341 3281 1617 3432 
Q 1894 3584 2278 3584 
Q 2916 3584 3314 3078 
Q 3713 2572 3713 1747 
Q 3713 922 3314 415 
Q 2916 -91 2278 -91 
Q 1894 -91 1617 61 
Q 1341 213 1159 525 
z
M 3116 1747 
Q 3116 2381 2855 2742 
Q 2594 3103 2138 3103 
Q 1681 3103 1420 2742 
Q 1159 2381 1159 1747 
Q 1159 1113 1420 752 
Q 1681 391 2138 391 
Q 2594 391 2855 752 
Q 3116 1113 3116 1747 
z
" transform="scale(0.015625)"/>
       <path id="DejaVuSans-39" d="M 703 97 
L 703 672 
Q 941 559 1184 500 
Q 1428 441 1663 441 
Q 2288 441 2617 861 
Q 2947 1281 2994 2138 
Q 2813 1869 2534 1725 
Q 2256 1581 1919 1581 
Q 1219 1581 811 2004 
Q 403 2428 403 3163 
Q 403 3881 828 4315 
Q 1253 4750 1959 4750 
Q 2769 4750 3195 4129 
Q 3622 3509 3622 2328 
Q 3622 1225 3098 567 
Q 2575 -91 1691 -91 
Q 1453 -91 1209 -44 
Q 966 3 703 97 
z
M 1959 2075 
Q 2384 2075 2632 2365 
Q 2881 2656 2881 3163 
Q 2881 3666 2632 3958 
Q 2384 4250 1959 4250 
Q 1534 4250 1286 3958 
Q 1038 3666 1038 3163 
Q 1038 2656 1286 2365 
Q 1534 2075 1959 2075 
z
" transform="scale(0.015625)"/>
       <path id="DejaVuSans-25" d="M 4653 2053 
Q 4381 2053 4226 1822 
Q 4072 1591 4072 1178 
Q 4072 772 4226 539 
Q 4381 306 4653 306 
Q 4919 306 5073 539 
Q 5228 772 5228 1178 
Q 5228 1588 5073 1820 
Q 4919 2053 4653 2053 
z
M 4653 2450 
Q 5147 2450 5437 2106 
Q 5728 1763 5728 1178 
Q 5728 594 5436 251 
Q 5144 -91 4653 -91 
Q 4153 -91 3862 251 
Q 3572 594 3572 1178 
Q 3572 1766 3864 2108 
Q 4156 2450 4653 2450 
z
M 1428 4353 
Q 1159 4353 1004 4120 
Q 850 3888 850 3481 
Q 850 3069 1003 2837 
Q 1156 2606 1428 2606 
Q 1700 2606 1854 2837 
Q 2009 3069 2009 3481 
Q 2009 3884 1853 4118 
Q 1697 4353 1428 4353 
z
M 4250 4750 
L 4750 4750 
L 1831 -91 
L 1331 -91 
L 4250 4750 
z
M 1428 4750 
Q 1922 4750 2215 4408 
Q 2509 4066 2509 3481 
Q 2509 2891 2217 2550 
Q 1925 2209 1428 2209 
Q 931 2209 642 2551 
Q 353 2894 353 3481 
Q 353 4063 643 4406 
Q 934 4750 1428 4750 
z
" transform="scale(0.015625)"/>
      </defs>
      <use xlink:href="#DejaVuSans-54"/>
      <use xlink:href="#DejaVuSans-6f" x="44.083984"/>
      <use xlink:href="#DejaVuSans-70" x="105.265625"/>
      <use xlink:href="#DejaVuSans-20" x="168.742188"/>
      <use xlink:href="#DejaVuSans-39" x="200.529297"/>
      <use xlink:href="#DejaVuSans-30" x="264.152344"/>
      <use xlink:href="#DejaVuSans-25" x="327.775391"/>
     </g>
    </g>
    <g id="line2d_109">
     <path d="M 259.033125 235.584375 
L 271.033125 235.584375 
L 283.033125 235.584375 
" style="fill: none; stroke-dasharray: 3.7,1.6; stroke-dashoffset: 0; stroke: #000000"/>
    </g>
    <g id="text_16">
     <!-- Fitness mean -->
     <g transform="translate(292.633125 239.784375) scale(0.12 -0.12)">
      <defs>
       <path id="DejaVuSans-6d" d="M 3328 2828 
Q 3544 3216 3844 3400 
Q 4144 3584 4550 3584 
Q 5097 3584 5394 3201 
Q 5691 2819 5691 2113 
L 5691 0 
L 5113 0 
L 5113 2094 
Q 5113 2597 4934 2840 
Q 4756 3084 4391 3084 
Q 3944 3084 3684 2787 
Q 3425 2491 3425 1978 
L 3425 0 
L 2847 0 
L 2847 2094 
Q 2847 2600 2669 2842 
Q 2491 3084 2119 3084 
Q 1678 3084 1418 2786 
Q 1159 2488 1159 1978 
L 1159 0 
L 581 0 
L 581 3500 
L 1159 3500 
L 1159 2956 
Q 1356 3278 1631 3431 
Q 1906 3584 2284 3584 
Q 2666 3584 2933 3390 
Q 3200 3197 3328 2828 
z
" transform="scale(0.015625)"/>
      </defs>
      <use xlink:href="#DejaVuSans-46"/>
      <use xlink:href="#DejaVuSans-69" x="50.269531"/>
      <use xlink:href="#DejaVuSans-74" x="78.052734"/>
      <use xlink:href="#DejaVuSans-6e" x="117.261719"/>
      <use xlink:href="#DejaVuSans-65" x="180.640625"/>
      <use xlink:href="#DejaVuSans-73" x="242.164062"/>
      <use xlink:href="#DejaVuSans-73" x="294.263672"/>
      <use xlink:href="#DejaVuSans-20" x="346.363281"/>
      <use xlink:href="#DejaVuSans-6d" x="378.150391"/>
      <use xlink:href="#DejaVuSans-65" x="475.5625"/>
      <use xlink:href="#DejaVuSans-61" x="537.085938"/>
      <use xlink:href="#DejaVuSans-6e" x="598.365234"/>
     </g>
    </g>
   </g>
  </g>
 </g>
 <defs>
  <clipPath id="pffc482b69a">
   <rect x="48.039375" y="3.6" width="334.8" height="249.48"/>
  </clipPath>
 </defs>
</svg>
