<?xml version="1.0" encoding="utf-8" standalone="no"?>
<!DOCTYPE svg PUBLIC "-//W3C//DTD SVG 1.1//EN"
  "http://www.w3.org/Graphics/SVG/1.1/DTD/svg11.dtd">
<svg xmlns:xlink="http://www.w3.org/1999/xlink" width="386.439375pt" height="287.4075pt" viewBox="0 0 386.439375 287.4075" xmlns="http://www.w3.org/2000/svg" version="1.1">
 <metadata>
  <rdf:RDF xmlns:dc="http://purl.org/dc/elements/1.1/" xmlns:cc="http://creativecommons.org/ns#" xmlns:rdf="http://www.w3.org/1999/02/22-rdf-syntax-ns#">
   <cc:Work>
    <dc:type rdf:resource="http://purl.org/dc/dcmitype/StillImage"/>
    <dc:date>2024-06-04T12:14:14.800045</dc:date>
    <dc:format>image/svg+xml</dc:format>
    <dc:creator>
     <cc:Agent>
      <dc:title>Matplotlib v3.9.0, https://matplotlib.org/</dc:title>
     </cc:Agent>
    </dc:creator>
   </cc:Work>
  </rdf:RDF>
 </metadata>
 <defs>
  <style type="text/css">*{stroke-linejoin: round; stroke-linecap: butt}</style>
 </defs>
 <g id="figure_1">
  <g id="patch_1">
   <path d="M 0 287.4075 
L 386.439375 287.4075 
L 386.439375 0 
L 0 0 
z
" style="fill: #ffffff"/>
  </g>
  <g id="axes_1">
   <g id="patch_2">
    <path d="M 48.039375 253.08 
L 382.839375 253.08 
L 382.839375 3.6 
L 48.039375 3.6 
z
" style="fill: #ffffff"/>
   </g>
   <g id="PolyCollection_1">
    <defs>
     <path id="mb2c466a302" d="M 63.257557 -202.515012 
L 63.257557 -45.6675 
L 63.867504 -45.817591 
L 64.477451 -46.635027 
L 65.087398 -47.771962 
L 65.697345 -47.533176 
L 66.307293 -46.956956 
L 66.91724 -47.073378 
L 67.527187 -47.924418 
L 68.137134 -50.144696 
L 68.747081 -46.46071 
L 69.357028 -47.151665 
L 69.966976 -47.8444 
L 70.576923 -48.419207 
L 71.18687 -47.770676 
L 71.796817 -47.859687 
L 72.406764 -47.727862 
L 73.016711 -97.625561 
L 73.626659 -99.771983 
L 74.236606 -155.299099 
L 74.846553 -153.734529 
L 75.4565 -150.594416 
L 76.066447 -154.747499 
L 76.676394 -139.544812 
L 77.286342 -148.617992 
L 77.896289 -161.166362 
L 78.506236 -144.798956 
L 79.116183 -163.736732 
L 79.72613 -159.135786 
L 80.336077 -52.407271 
L 80.946025 -132.015691 
L 81.555972 -125.100334 
L 82.165919 -157.974766 
L 82.775866 -160.779594 
L 83.385813 -160.586971 
L 83.99576 -158.386659 
L 84.605708 -162.645436 
L 85.215655 -166.344074 
L 85.825602 -164.7018 
L 86.435549 -164.709 
L 87.045496 -165.247223 
L 87.655444 -156.031372 
L 88.265391 -161.859401 
L 88.875338 -168.47691 
L 89.485285 -172.161622 
L 90.095232 -171.7501 
L 90.705179 -179.369995 
L 91.315127 -177.607965 
L 91.925074 -178.703463 
L 92.535021 -167.926341 
L 93.144968 -191.392342 
L 93.754915 -192.758488 
L 94.364862 -190.679942 
L 94.97481 -186.370514 
L 95.584757 -188.543662 
L 96.194704 -188.925221 
L 96.804651 -192.783862 
L 97.414598 -192.854974 
L 98.024545 -227.102801 
L 98.634493 -216.946267 
L 99.24444 -197.51169 
L 99.854387 -188.115953 
L 100.464334 -196.126487 
L 101.074281 -187.52283 
L 101.684228 -239.574087 
L 102.294176 -256.837253 
L 102.904123 -197.695089 
L 103.51407 -196.128747 
L 104.124017 -194.872089 
L 104.733964 -189.734816 
L 105.343911 -253.194175 
L 105.953859 -256.444964 
L 106.563806 -189.192907 
L 107.173753 -191.194588 
L 107.7837 -252.213347 
L 108.393647 -191.401303 
L 109.003594 -197.844091 
L 109.613542 -191.107322 
L 110.223489 -191.117086 
L 110.833436 -183.443951 
L 111.443383 -184.357997 
L 112.05333 -187.718517 
L 112.663277 -186.859778 
L 113.273225 -191.045375 
L 113.883172 -191.093809 
L 114.493119 -234.91486 
L 115.103066 -264.69808 
L 115.713013 -265.273041 
L 116.32296 -191.81392 
L 116.932908 -187.279508 
L 117.542855 -192.714732 
L 118.152802 -242.034891 
L 118.762749 -263.32763 
L 119.372696 -246.883376 
L 119.982643 -196.454817 
L 120.592591 -246.88527 
L 121.202538 -196.442134 
L 121.812485 -196.442725 
L 122.422432 -194.601172 
L 123.032379 -245.970478 
L 123.642326 -255.609329 
L 124.252274 -258.068789 
L 124.862221 -258.066755 
L 125.472168 -257.183864 
L 126.082115 -258.210841 
L 126.692062 -258.285198 
L 127.302009 -263.109251 
L 127.911957 -263.107274 
L 128.521904 -261.764312 
L 129.131851 -254.170201 
L 129.741798 -189.035183 
L 130.351745 -191.976704 
L 130.961692 -196.856516 
L 131.57164 -266.688175 
L 132.181587 -266.719581 
L 132.791534 -267.895334 
L 133.401481 -267.848006 
L 134.011428 -267.848994 
L 134.621375 -267.848551 
L 135.231323 -267.502875 
L 135.84127 -215.347391 
L 136.451217 -190.575927 
L 137.061164 -192.820872 
L 137.671111 -257.418074 
L 138.281058 -262.120354 
L 138.891006 -257.417038 
L 139.500953 -257.465387 
L 140.1109 -197.072324 
L 140.720847 -257.635524 
L 141.330794 -254.872007 
L 141.940741 -195.6985 
L 142.550689 -255.743444 
L 143.160636 -259.278032 
L 143.770583 -194.010695 
L 144.38053 -198.165975 
L 144.990477 -264.502116 
L 145.600424 -265.270157 
L 146.210372 -265.742045 
L 146.820319 -265.612829 
L 147.430266 -252.155773 
L 148.040213 -220.122838 
L 148.65016 -183.499801 
L 149.260107 -251.654504 
L 149.870055 -257.552269 
L 150.480002 -260.694437 
L 151.089949 -197.749557 
L 151.699896 -197.730782 
L 152.309843 -194.608208 
L 152.91979 -259.908709 
L 153.529738 -261.28642 
L 154.139685 -194.81259 
L 154.749632 -193.180346 
L 155.359579 -190.408264 
L 155.969526 -260.148205 
L 156.579473 -259.991877 
L 157.189421 -257.111937 
L 157.799368 -244.494563 
L 158.409315 -258.807878 
L 159.019262 -198.015713 
L 159.629209 -258.808969 
L 160.239156 -196.996914 
L 160.849104 -196.448101 
L 161.459051 -197.473091 
L 162.068998 -252.991304 
L 162.678945 -193.761441 
L 163.288892 -198.654297 
L 163.898839 -252.988712 
L 164.508787 -254.100407 
L 165.118734 -240.076928 
L 165.728681 -251.380069 
L 166.338628 -198.649359 
L 166.948575 -196.898024 
L 167.558522 -194.0933 
L 168.16847 -194.056612 
L 168.778417 -194.298401 
L 169.388364 -194.298223 
L 169.998311 -182.912217 
L 170.608258 -186.678331 
L 171.218205 -186.211754 
L 171.828153 -193.647438 
L 172.4381 -251.808878 
L 173.048047 -253.505819 
L 173.657994 -240.111756 
L 174.267941 -249.501674 
L 174.877888 -240.040293 
L 175.487836 -240.040271 
L 176.097783 -195.731096 
L 176.70773 -183.889287 
L 177.317677 -188.39019 
L 177.927624 -195.730786 
L 178.537571 -198.567386 
L 179.147519 -196.757074 
L 179.757466 -196.643529 
L 180.367413 -181.599571 
L 180.97736 -189.234083 
L 181.587307 -189.277483 
L 182.197254 -183.111974 
L 182.807202 -183.982532 
L 183.417149 -190.187527 
L 184.027096 -195.16925 
L 184.637043 -192.95008 
L 185.24699 -189.927124 
L 185.856937 -191.629688 
L 186.466885 -189.892713 
L 187.076832 -190.16399 
L 187.686779 -189.917219 
L 188.296726 -195.991174 
L 188.906673 -195.238026 
L 189.51662 -193.120553 
L 190.126568 -195.652966 
L 190.736515 -257.744257 
L 191.346462 -257.744162 
L 191.956409 -257.789546 
L 192.566356 -258.044958 
L 193.176303 -258.046025 
L 193.786251 -258.045454 
L 194.396198 -196.202313 
L 195.006145 -183.969027 
L 195.616092 -238.031199 
L 196.226039 -257.914211 
L 196.835986 -191.086968 
L 197.445934 -194.962342 
L 198.055881 -197.258917 
L 198.665828 -195.551646 
L 199.275775 -248.744171 
L 199.885722 -258.957909 
L 200.495669 -259.279012 
L 201.105617 -258.961296 
L 201.715564 -188.542146 
L 202.325511 -191.51655 
L 202.935458 -196.278251 
L 203.545405 -245.470494 
L 204.155352 -188.669983 
L 204.7653 -179.151422 
L 205.375247 -186.420429 
L 205.985194 -188.147011 
L 206.595141 -193.468809 
L 207.205088 -196.233761 
L 207.815035 -258.518315 
L 208.424983 -251.865532 
L 209.03493 -257.153185 
L 209.644877 -258.930899 
L 210.254824 -258.468963 
L 210.864771 -197.627312 
L 211.474718 -260.235554 
L 212.084666 -261.424123 
L 212.694613 -192.023859 
L 213.30456 -189.085888 
L 213.914507 -176.94229 
L 214.524454 -192.207786 
L 215.134401 -191.073919 
L 215.744349 -191.732328 
L 216.354296 -169.227753 
L 216.964243 -193.753028 
L 217.57419 -194.251382 
L 218.184137 -194.202049 
L 218.794084 -192.743813 
L 219.404032 -191.743295 
L 220.013979 -193.085451 
L 220.623926 -188.481417 
L 221.233873 -263.521417 
L 221.84382 -237.032729 
L 222.453767 -262.677877 
L 223.063715 -262.632473 
L 223.673662 -262.682222 
L 224.283609 -262.966732 
L 224.893556 -262.965791 
L 225.503503 -263.39995 
L 226.11345 -260.688675 
L 226.723398 -197.693929 
L 227.333345 -196.281096 
L 227.943292 -258.378196 
L 228.553239 -261.800262 
L 229.163186 -191.248803 
L 229.773133 -196.313176 
L 230.383081 -197.43552 
L 230.993028 -261.707173 
L 231.602975 -258.038581 
L 232.212922 -194.658939 
L 232.822869 -261.968837 
L 233.432816 -263.055538 
L 234.042764 -260.809783 
L 234.652711 -263.119389 
L 235.262658 -261.931269 
L 235.872605 -261.234819 
L 236.482552 -257.351766 
L 237.092499 -194.466009 
L 237.702447 -191.804423 
L 238.312394 -195.410008 
L 238.922341 -195.309406 
L 239.532288 -191.843739 
L 240.142235 -193.025 
L 240.752182 -195.661777 
L 241.36213 -194.422911 
L 241.972077 -194.791807 
L 242.582024 -196.740421 
L 243.191971 -194.447845 
L 243.801918 -242.15093 
L 244.411865 -196.817474 
L 245.021813 -183.923596 
L 245.63176 -194.912129 
L 246.241707 -195.772551 
L 246.851654 -197.92425 
L 247.461601 -196.836755 
L 248.071548 -193.197422 
L 248.681496 -188.662833 
L 249.291443 -191.196361 
L 249.90139 -191.972034 
L 250.511337 -189.374468 
L 251.121284 -186.480469 
L 251.731231 -192.498093 
L 252.341179 -194.066735 
L 252.951126 -194.435974 
L 253.561073 -196.382378 
L 254.17102 -190.751941 
L 254.780967 -197.855956 
L 255.390914 -199.138543 
L 256.000862 -264.265119 
L 256.610809 -262.553487 
L 257.220756 -199.918335 
L 257.830703 -200.343995 
L 258.44065 -198.513392 
L 259.050597 -197.206025 
L 259.660545 -200.726124 
L 260.270492 -201.154893 
L 260.880439 -201.31793 
L 261.490386 -202.426952 
L 262.100333 -199.89806 
L 262.71028 -201.091458 
L 263.320228 -199.961714 
L 263.930175 -199.935092 
L 264.540122 -199.958618 
L 265.150069 -201.467558 
L 265.760016 -201.480418 
L 266.369963 -198.628227 
L 266.979911 -194.189472 
L 267.589858 -190.9448 
L 268.199805 -182.293351 
L 268.809752 -195.151947 
L 269.419699 -198.527507 
L 270.029646 -189.902337 
L 270.639594 -182.058294 
L 271.249541 -195.260815 
L 271.859488 -192.046176 
L 272.469435 -195.486549 
L 273.079382 -200.51952 
L 273.689329 -262.272959 
L 274.299277 -201.391794 
L 274.909224 -269.59006 
L 275.519171 -269.673722 
L 276.129118 -269.568001 
L 276.739065 -199.638975 
L 277.349012 -201.911556 
L 277.95896 -266.223216 
L 278.568907 -192.255945 
L 279.178854 -191.838108 
L 279.788801 -201.520263 
L 280.398748 -199.559063 
L 281.008695 -270.026362 
L 281.618643 -269.275553 
L 282.22859 -270.336143 
L 282.838537 -269.903592 
L 283.448484 -270.203335 
L 284.058431 -270.226466 
L 284.668378 -269.531219 
L 285.278326 -270.331046 
L 285.888273 -269.303959 
L 286.49822 -200.772657 
L 287.108167 -189.205889 
L 287.718114 -196.87812 
L 288.328061 -195.580634 
L 288.938009 -199.836789 
L 289.547956 -197.080607 
L 290.157903 -198.905066 
L 290.76785 -198.872706 
L 291.377797 -194.602314 
L 291.987744 -265.341714 
L 292.597692 -265.36192 
L 293.207639 -265.358094 
L 293.817586 -265.359969 
L 294.427533 -266.241829 
L 295.03748 -266.155723 
L 295.647427 -266.430978 
L 296.257375 -266.42902 
L 296.867322 -261.839701 
L 297.477269 -271.435955 
L 298.087216 -195.205571 
L 298.697163 -199.708304 
L 299.30711 -199.932468 
L 299.917058 -194.183736 
L 300.527005 -200.206813 
L 301.136952 -190.975851 
L 301.746899 -195.493852 
L 302.356846 -270.060322 
L 302.966793 -270.106374 
L 303.576741 -195.20445 
L 304.186688 -267.947434 
L 304.796635 -195.556801 
L 305.406582 -190.630828 
L 306.016529 -201.197432 
L 306.626476 -196.35353 
L 307.236424 -189.594703 
L 307.846371 -266.497981 
L 308.456318 -200.789136 
L 309.066265 -271.66543 
L 309.676212 -272.224076 
L 310.286159 -272.223261 
L 310.896107 -272.222553 
L 311.506054 -271.509618 
L 312.116001 -201.115916 
L 312.725948 -272.221849 
L 313.335895 -272.222757 
L 313.945842 -272.209033 
L 314.55579 -198.102598 
L 315.165737 -199.538069 
L 315.775684 -192.389879 
L 316.385631 -195.35093 
L 316.995578 -195.332022 
L 317.605525 -194.412226 
L 318.215473 -196.152107 
L 318.82542 -196.078178 
L 319.435367 -193.782856 
L 320.045314 -197.663987 
L 320.655261 -191.621635 
L 321.265208 -191.97122 
L 321.875156 -198.488765 
L 322.485103 -200.890008 
L 323.09505 -201.000366 
L 323.704997 -202.329467 
L 324.314944 -196.615601 
L 324.924891 -188.503889 
L 325.534839 -196.665957 
L 326.144786 -197.746714 
L 326.754733 -198.783326 
L 327.36468 -196.764611 
L 327.974627 -202.354665 
L 328.584574 -264.644927 
L 329.194522 -264.320951 
L 329.804469 -193.587035 
L 330.414416 -195.002763 
L 331.024363 -196.569905 
L 331.63431 -194.540388 
L 332.244257 -199.22744 
L 332.854205 -198.630105 
L 333.464152 -188.62711 
L 334.074099 -264.264188 
L 334.684046 -196.947179 
L 335.293993 -190.503688 
L 335.90394 -191.460815 
L 336.513888 -189.813369 
L 337.123835 -191.933844 
L 337.733782 -195.916774 
L 338.343729 -193.936438 
L 338.953676 -192.039398 
L 339.563623 -200.618118 
L 340.173571 -195.823228 
L 340.783518 -195.014621 
L 341.393465 -197.450802 
L 342.003412 -266.554313 
L 342.613359 -198.093875 
L 343.223306 -269.851812 
L 343.833254 -269.068817 
L 344.443201 -199.740569 
L 345.053148 -188.195465 
L 345.663095 -192.291737 
L 346.273042 -198.44998 
L 346.88299 -202.055163 
L 347.492937 -202.026387 
L 348.102884 -202.047115 
L 348.712831 -198.35764 
L 349.322778 -266.305495 
L 349.932725 -266.837551 
L 350.542673 -266.840362 
L 351.15262 -266.822796 
L 351.762567 -198.685311 
L 352.372514 -268.894571 
L 352.982461 -268.895536 
L 353.592408 -269.850532 
L 354.202356 -200.987088 
L 354.812303 -200.204549 
L 355.42225 -200.986682 
L 356.032197 -268.082385 
L 356.642144 -269.850718 
L 357.252091 -269.789513 
L 357.862039 -201.117023 
L 358.471986 -198.428642 
L 359.081933 -191.238648 
L 359.69188 -189.400816 
L 360.301827 -196.530082 
L 360.911774 -201.856635 
L 361.521722 -197.443255 
L 362.131669 -201.866108 
L 362.741616 -269.85307 
L 363.351563 -270.733641 
L 363.96151 -269.854876 
L 364.571457 -202.063728 
L 365.181405 -197.319336 
L 365.791352 -199.125081 
L 366.401299 -272.002121 
L 367.011246 -272.306303 
L 367.621193 -272.003826 
L 367.621193 -272.392127 
L 367.621193 -272.392127 
L 367.011246 -272.390573 
L 366.401299 -272.462675 
L 365.791352 -272.39479 
L 365.181405 -272.402898 
L 364.571457 -272.390846 
L 363.96151 -272.39565 
L 363.351563 -272.407541 
L 362.741616 -272.394609 
L 362.131669 -272.396671 
L 361.521722 -272.437191 
L 360.911774 -272.424668 
L 360.301827 -272.394961 
L 359.69188 -272.393882 
L 359.081933 -272.400537 
L 358.471986 -272.438733 
L 357.862039 -272.388368 
L 357.252091 -272.394735 
L 356.642144 -272.387776 
L 356.032197 -272.389916 
L 355.42225 -272.391246 
L 354.812303 -272.385747 
L 354.202356 -272.414574 
L 353.592408 -272.385657 
L 352.982461 -272.39378 
L 352.372514 -272.382788 
L 351.762567 -272.379945 
L 351.15262 -272.380181 
L 350.542673 -272.44625 
L 349.932725 -272.380348 
L 349.322778 -272.379175 
L 348.712831 -272.380672 
L 348.102884 -272.400083 
L 347.492937 -272.383296 
L 346.88299 -272.378283 
L 346.273042 -272.380501 
L 345.663095 -272.383036 
L 345.053148 -272.383073 
L 344.443201 -272.37915 
L 343.833254 -272.39948 
L 343.223306 -272.382695 
L 342.613359 -272.379759 
L 342.003412 -272.382163 
L 341.393465 -272.38071 
L 340.783518 -272.390098 
L 340.173571 -272.389454 
L 339.563623 -272.385825 
L 338.953676 -272.397153 
L 338.343729 -272.381274 
L 337.733782 -272.4675 
L 337.123835 -272.381665 
L 336.513888 -272.381317 
L 335.90394 -272.3799 
L 335.293993 -272.379848 
L 334.684046 -272.388034 
L 334.074099 -272.380339 
L 333.464152 -272.378363 
L 332.854205 -272.376696 
L 332.244257 -272.376274 
L 331.63431 -272.376409 
L 331.024363 -272.376416 
L 330.414416 -272.351307 
L 329.804469 -272.301039 
L 329.194522 -272.301013 
L 328.584574 -272.301239 
L 327.974627 -272.300578 
L 327.36468 -272.301918 
L 326.754733 -272.301336 
L 326.144786 -272.300753 
L 325.534839 -272.302441 
L 324.924891 -272.300909 
L 324.314944 -272.301416 
L 323.704997 -272.300991 
L 323.09505 -272.302999 
L 322.485103 -272.300306 
L 321.875156 -272.303494 
L 321.265208 -272.298755 
L 320.655261 -272.300516 
L 320.045314 -272.299579 
L 319.435367 -272.298498 
L 318.82542 -272.298223 
L 318.215473 -272.301997 
L 317.605525 -272.29801 
L 316.995578 -272.298523 
L 316.385631 -272.231027 
L 315.775684 -272.2332 
L 315.165737 -272.286829 
L 314.55579 -272.238077 
L 313.945842 -272.275733 
L 313.335895 -272.23626 
L 312.725948 -272.24416 
L 312.116001 -272.312547 
L 311.506054 -272.258391 
L 310.896107 -272.276627 
L 310.286159 -272.244345 
L 309.676212 -272.288402 
L 309.066265 -272.288711 
L 308.456318 -272.25058 
L 307.846371 -272.287214 
L 307.236424 -272.234253 
L 306.626476 -272.232847 
L 306.016529 -272.243251 
L 305.406582 -272.248412 
L 304.796635 -272.355447 
L 304.186688 -272.239087 
L 303.576741 -272.241298 
L 302.966793 -272.243234 
L 302.356846 -272.235206 
L 301.746899 -272.23411 
L 301.136952 -272.233248 
L 300.527005 -272.24052 
L 299.917058 -272.265564 
L 299.30711 -272.424227 
L 298.697163 -272.247606 
L 298.087216 -272.248253 
L 297.477269 -272.234671 
L 296.867322 -272.228728 
L 296.257375 -272.230268 
L 295.647427 -272.235156 
L 295.03748 -272.233803 
L 294.427533 -272.230905 
L 293.817586 -272.234048 
L 293.207639 -272.236302 
L 292.597692 -272.255058 
L 291.987744 -272.228119 
L 291.377797 -272.231199 
L 290.76785 -272.226778 
L 290.157903 -272.23131 
L 289.547956 -272.226923 
L 288.938009 -272.226729 
L 288.328061 -272.164176 
L 287.718114 -272.062019 
L 287.108167 -272.058004 
L 286.49822 -272.060961 
L 285.888273 -272.059663 
L 285.278326 -272.059385 
L 284.668378 -272.051221 
L 284.058431 -272.057779 
L 283.448484 -271.823291 
L 282.838537 -271.759102 
L 282.22859 -271.771073 
L 281.618643 -271.772448 
L 281.008695 -271.75803 
L 280.398748 -271.757331 
L 279.788801 -271.722367 
L 279.178854 -271.736317 
L 278.568907 -271.705345 
L 277.95896 -271.80212 
L 277.349012 -271.71602 
L 276.739065 -271.703476 
L 276.129118 -271.697364 
L 275.519171 -271.697779 
L 274.909224 -271.704881 
L 274.299277 -271.697759 
L 273.689329 -271.758415 
L 273.079382 -271.705366 
L 272.469435 -271.694555 
L 271.859488 -271.704479 
L 271.249541 -271.706389 
L 270.639594 -271.695362 
L 270.029646 -271.698895 
L 269.419699 -271.623274 
L 268.809752 -271.615781 
L 268.199805 -271.615859 
L 267.589858 -271.609108 
L 266.979911 -271.609103 
L 266.369963 -271.70244 
L 265.760016 -271.600688 
L 265.150069 -271.673722 
L 264.540122 -271.610383 
L 263.930175 -271.606169 
L 263.320228 -271.612609 
L 262.71028 -271.602714 
L 262.100333 -271.60353 
L 261.490386 -271.604597 
L 260.880439 -271.598589 
L 260.270492 -271.635879 
L 259.660545 -271.60248 
L 259.050597 -271.599738 
L 258.44065 -271.60413 
L 257.830703 -271.602913 
L 257.220756 -271.599017 
L 256.610809 -271.601062 
L 256.000862 -271.650664 
L 255.390914 -271.599103 
L 254.780967 -271.603808 
L 254.17102 -271.597568 
L 253.561073 -271.222189 
L 252.951126 -271.185091 
L 252.341179 -271.183107 
L 251.731231 -271.18474 
L 251.121284 -271.129826 
L 250.511337 -271.132848 
L 249.90139 -270.936484 
L 249.291443 -270.934117 
L 248.681496 -270.934511 
L 248.071548 -270.61271 
L 247.461601 -270.613063 
L 246.851654 -270.613009 
L 246.241707 -270.6137 
L 245.63176 -270.611389 
L 245.021813 -270.285055 
L 244.411865 -270.268048 
L 243.801918 -270.274824 
L 243.191971 -270.26384 
L 242.582024 -270.265033 
L 241.972077 -270.265499 
L 241.36213 -270.264863 
L 240.752182 -270.263429 
L 240.142235 -269.984339 
L 239.532288 -269.984805 
L 238.922341 -269.985874 
L 238.312394 -269.985023 
L 237.702447 -269.985164 
L 237.092499 -270.008632 
L 236.482552 -269.984809 
L 235.872605 -269.984683 
L 235.262658 -269.984983 
L 234.652711 -269.984603 
L 234.042764 -269.984386 
L 233.432816 -269.984152 
L 232.822869 -269.985218 
L 232.212922 -269.984426 
L 231.602975 -269.984181 
L 230.993028 -269.982166 
L 230.383081 -269.984465 
L 229.773133 -269.986141 
L 229.163186 -269.984042 
L 228.553239 -269.983747 
L 227.943292 -269.98465 
L 227.333345 -269.984179 
L 226.723398 -269.98316 
L 226.11345 -269.245916 
L 225.503503 -269.246215 
L 224.893556 -269.246197 
L 224.283609 -269.212206 
L 223.673662 -269.15792 
L 223.063715 -269.157714 
L 222.453767 -269.157403 
L 221.84382 -269.158348 
L 221.233873 -269.158152 
L 220.623926 -269.141547 
L 220.013979 -269.150682 
L 219.404032 -269.140155 
L 218.794084 -269.142137 
L 218.184137 -269.140296 
L 217.57419 -269.15022 
L 216.964243 -269.141496 
L 216.354296 -269.147072 
L 215.744349 -269.139776 
L 215.134401 -269.140378 
L 214.524454 -269.140687 
L 213.914507 -269.140611 
L 213.30456 -269.14205 
L 212.694613 -269.139352 
L 212.084666 -269.139669 
L 211.474718 -269.139505 
L 210.864771 -269.140031 
L 210.254824 -269.102384 
L 209.644877 -269.102528 
L 209.03493 -269.103098 
L 208.424983 -269.102497 
L 207.815035 -269.102637 
L 207.205088 -269.022556 
L 206.595141 -269.023761 
L 205.985194 -269.016444 
L 205.375247 -269.0123 
L 204.7653 -269.012592 
L 204.155352 -268.909071 
L 203.545405 -268.908725 
L 202.935458 -268.886881 
L 202.325511 -268.878348 
L 201.715564 -268.903691 
L 201.105617 -268.8835 
L 200.495669 -268.889549 
L 199.885722 -268.877125 
L 199.275775 -268.873297 
L 198.665828 -268.930632 
L 198.055881 -268.879531 
L 197.445934 -268.874692 
L 196.835986 -268.884741 
L 196.226039 -268.882332 
L 195.616092 -268.87793 
L 195.006145 -268.873419 
L 194.396198 -268.897433 
L 193.786251 -268.873546 
L 193.176303 -268.87529 
L 192.566356 -268.878357 
L 191.956409 -268.872284 
L 191.346462 -268.872813 
L 190.736515 -268.87299 
L 190.126568 -268.874163 
L 189.51662 -268.873022 
L 188.906673 -268.872533 
L 188.296726 -268.871584 
L 187.686779 -268.871675 
L 187.076832 -268.877462 
L 186.466885 -268.872665 
L 185.856937 -268.894162 
L 185.24699 -268.881777 
L 184.637043 -268.876805 
L 184.027096 -268.871499 
L 183.417149 -268.87154 
L 182.807202 -268.872726 
L 182.197254 -268.872794 
L 181.587307 -268.871518 
L 180.97736 -268.871635 
L 180.367413 -268.870433 
L 179.757466 -268.869454 
L 179.147519 -268.699083 
L 178.537571 -268.691241 
L 177.927624 -268.717774 
L 177.317677 -268.690467 
L 176.70773 -268.698737 
L 176.097783 -268.677686 
L 175.487836 -268.689007 
L 174.877888 -268.675779 
L 174.267941 -268.676428 
L 173.657994 -268.684424 
L 173.048047 -268.676694 
L 172.4381 -268.680405 
L 171.828153 -268.680754 
L 171.218205 -268.701209 
L 170.608258 -268.677781 
L 169.998311 -268.708241 
L 169.388364 -268.679093 
L 168.778417 -268.679905 
L 168.16847 -268.715014 
L 167.558522 -268.689212 
L 166.948575 -268.694856 
L 166.338628 -268.698839 
L 165.728681 -268.689115 
L 165.118734 -268.674841 
L 164.508787 -268.678337 
L 163.898839 -268.683636 
L 163.288892 -268.679698 
L 162.678945 -268.679131 
L 162.068998 -268.675726 
L 161.459051 -268.676337 
L 160.849104 -268.676243 
L 160.239156 -268.686907 
L 159.629209 -268.694797 
L 159.019262 -268.67729 
L 158.409315 -268.691603 
L 157.799368 -268.676399 
L 157.189421 -268.699226 
L 156.579473 -268.680196 
L 155.969526 -268.689518 
L 155.359579 -268.675492 
L 154.749632 -268.674812 
L 154.139685 -268.681795 
L 153.529738 -268.680986 
L 152.91979 -268.674017 
L 152.309843 -268.674549 
L 151.699896 -268.676326 
L 151.089949 -268.731252 
L 150.480002 -268.676257 
L 149.870055 -268.676393 
L 149.260107 -268.674461 
L 148.65016 -268.695104 
L 148.040213 -268.677105 
L 147.430266 -268.679842 
L 146.820319 -268.67771 
L 146.210372 -268.708101 
L 145.600424 -268.674429 
L 144.990477 -268.676093 
L 144.38053 -268.67419 
L 143.770583 -268.674418 
L 143.160636 -268.673909 
L 142.550689 -268.67235 
L 141.940741 -268.6733 
L 141.330794 -268.599573 
L 140.720847 -268.599524 
L 140.1109 -268.601859 
L 139.500953 -268.601574 
L 138.891006 -268.59916 
L 138.281058 -268.602559 
L 137.671111 -268.600025 
L 137.061164 -268.599726 
L 136.451217 -268.600707 
L 135.84127 -268.610468 
L 135.231323 -268.60071 
L 134.621375 -268.599065 
L 134.011428 -268.5977 
L 133.401481 -268.5973 
L 132.791534 -268.597857 
L 132.181587 -268.543432 
L 131.57164 -268.543642 
L 130.961692 -268.542971 
L 130.351745 -268.54236 
L 129.741798 -268.50394 
L 129.131851 -268.506076 
L 128.521904 -268.502 
L 127.911957 -268.503179 
L 127.302009 -268.468612 
L 126.692062 -268.46893 
L 126.082115 -268.489307 
L 125.472168 -268.471345 
L 124.862221 -268.468252 
L 124.252274 -268.475352 
L 123.642326 -268.479472 
L 123.032379 -268.467137 
L 122.422432 -268.469872 
L 121.812485 -268.470205 
L 121.202538 -268.468987 
L 120.592591 -268.465845 
L 119.982643 -268.439268 
L 119.372696 -268.436548 
L 118.762749 -268.436905 
L 118.152802 -268.435955 
L 117.542855 -268.439381 
L 116.932908 -268.46474 
L 116.32296 -268.43421 
L 115.713013 -268.438435 
L 115.103066 -268.435394 
L 114.493119 -268.432463 
L 113.883172 -268.433364 
L 113.273225 -268.43357 
L 112.663277 -268.435122 
L 112.05333 -268.439372 
L 111.443383 -268.441059 
L 110.833436 -268.431863 
L 110.223489 -268.431788 
L 109.613542 -268.436483 
L 109.003594 -268.4404 
L 108.393647 -268.434316 
L 107.7837 -268.433261 
L 107.173753 -268.433271 
L 106.563806 -268.433321 
L 105.953859 -268.431657 
L 105.343911 -268.433707 
L 104.733964 -268.436226 
L 104.124017 -268.432316 
L 103.51407 -268.440178 
L 102.904123 -268.43441 
L 102.294176 -268.434833 
L 101.684228 -268.431062 
L 101.074281 -268.430867 
L 100.464334 -268.429933 
L 99.854387 -268.429744 
L 99.24444 -267.982379 
L 98.634493 -267.983416 
L 98.024545 -267.984051 
L 97.414598 -268.018032 
L 96.804651 -267.979686 
L 96.194704 -267.979932 
L 95.584757 -267.989429 
L 94.97481 -267.979735 
L 94.364862 -267.979644 
L 93.754915 -267.981762 
L 93.144968 -267.979843 
L 92.535021 -267.979498 
L 91.925074 -267.980344 
L 91.315127 -267.978953 
L 90.705179 -267.979784 
L 90.095232 -267.979898 
L 89.485285 -267.979423 
L 88.875338 -267.981075 
L 88.265391 -267.979008 
L 87.655444 -267.615719 
L 87.045496 -267.612938 
L 86.435549 -267.613483 
L 85.825602 -267.617217 
L 85.215655 -267.615039 
L 84.605708 -267.612041 
L 83.99576 -266.961251 
L 83.385813 -266.961217 
L 82.775866 -266.611993 
L 82.165919 -265.386843 
L 81.555972 -265.386742 
L 80.946025 -265.085377 
L 80.336077 -265.081975 
L 79.72613 -265.083391 
L 79.116183 -265.083854 
L 78.506236 -265.082428 
L 77.896289 -265.082532 
L 77.286342 -265.080392 
L 76.676394 -265.080782 
L 76.066447 -265.076243 
L 75.4565 -265.081648 
L 74.846553 -265.083963 
L 74.236606 -265.078763 
L 73.626659 -257.28188 
L 73.016711 -250.918027 
L 72.406764 -250.916278 
L 71.796817 -250.918299 
L 71.18687 -250.920161 
L 70.576923 -250.91851 
L 69.966976 -245.033657 
L 69.357028 -245.034603 
L 68.747081 -245.033644 
L 68.137134 -245.034509 
L 67.527187 -245.034398 
L 66.91724 -245.03458 
L 66.307293 -245.034315 
L 65.697345 -245.034135 
L 65.087398 -230.79624 
L 64.477451 -230.795308 
L 63.867504 -225.892236 
L 63.257557 -202.515012 
z
" style="stroke: #0000ff; stroke-opacity: 0.2"/>
    </defs>
    <g clip-path="url(#pa9aa604047)">
     <use xlink:href="#mb2c466a302" x="0" y="287.4075" style="fill: #0000ff; fill-opacity: 0.2; stroke: #0000ff; stroke-opacity: 0.2"/>
    </g>
   </g>
   <g id="matplotlib.axis_1">
    <g id="xtick_1">
     <g id="line2d_1">
      <path d="M 63.257557 253.08 
L 63.257557 3.6 
" clip-path="url(#pa9aa604047)" style="fill: none; stroke: #b0b0b0; stroke-width: 0.5; stroke-linecap: square"/>
     </g>
     <g id="line2d_2">
      <defs>
       <path id="m0a5d63e7f7" d="M 0 0 
L 0 -3 
" style="stroke: #000000; stroke-width: 0.5"/>
      </defs>
      <g>
       <use xlink:href="#m0a5d63e7f7" x="63.257557" y="253.08" style="stroke: #000000; stroke-width: 0.5"/>
      </g>
     </g>
     <g id="line2d_3">
      <defs>
       <path id="mcc05f1b046" d="M 0 0 
L 0 3 
" style="stroke: #000000; stroke-width: 0.5"/>
      </defs>
      <g>
       <use xlink:href="#mcc05f1b046" x="63.257557" y="3.6" style="stroke: #000000; stroke-width: 0.5"/>
      </g>
     </g>
     <g id="text_1">
      <!-- 0 -->
      <g transform="translate(59.440057 265.698125) scale(0.12 -0.12)">
       <defs>
        <path id="DejaVuSans-30" d="M 2034 4250 
Q 1547 4250 1301 3770 
Q 1056 3291 1056 2328 
Q 1056 1369 1301 889 
Q 1547 409 2034 409 
Q 2525 409 2770 889 
Q 3016 1369 3016 2328 
Q 3016 3291 2770 3770 
Q 2525 4250 2034 4250 
z
M 2034 4750 
Q 2819 4750 3233 4129 
Q 3647 3509 3647 2328 
Q 3647 1150 3233 529 
Q 2819 -91 2034 -91 
Q 1250 -91 836 529 
Q 422 1150 422 2328 
Q 422 3509 836 4129 
Q 1250 4750 2034 4750 
z
" transform="scale(0.015625)"/>
       </defs>
       <use xlink:href="#DejaVuSans-30"/>
      </g>
     </g>
    </g>
    <g id="xtick_2">
     <g id="line2d_4">
      <path d="M 124.252274 253.08 
L 124.252274 3.6 
" clip-path="url(#pa9aa604047)" style="fill: none; stroke: #b0b0b0; stroke-width: 0.5; stroke-linecap: square"/>
     </g>
     <g id="line2d_5">
      <g>
       <use xlink:href="#m0a5d63e7f7" x="124.252274" y="253.08" style="stroke: #000000; stroke-width: 0.5"/>
      </g>
     </g>
     <g id="line2d_6">
      <g>
       <use xlink:href="#mcc05f1b046" x="124.252274" y="3.6" style="stroke: #000000; stroke-width: 0.5"/>
      </g>
     </g>
     <g id="text_2">
      <!-- 100 -->
      <g transform="translate(112.799774 265.698125) scale(0.12 -0.12)">
       <defs>
        <path id="DejaVuSans-31" d="M 794 531 
L 1825 531 
L 1825 4091 
L 703 3866 
L 703 4441 
L 1819 4666 
L 2450 4666 
L 2450 531 
L 3481 531 
L 3481 0 
L 794 0 
L 794 531 
z
" transform="scale(0.015625)"/>
       </defs>
       <use xlink:href="#DejaVuSans-31"/>
       <use xlink:href="#DejaVuSans-30" x="63.623047"/>
       <use xlink:href="#DejaVuSans-30" x="127.246094"/>
      </g>
     </g>
    </g>
    <g id="xtick_3">
     <g id="line2d_7">
      <path d="M 185.24699 253.08 
L 185.24699 3.6 
" clip-path="url(#pa9aa604047)" style="fill: none; stroke: #b0b0b0; stroke-width: 0.5; stroke-linecap: square"/>
     </g>
     <g id="line2d_8">
      <g>
       <use xlink:href="#m0a5d63e7f7" x="185.24699" y="253.08" style="stroke: #000000; stroke-width: 0.5"/>
      </g>
     </g>
     <g id="line2d_9">
      <g>
       <use xlink:href="#mcc05f1b046" x="185.24699" y="3.6" style="stroke: #000000; stroke-width: 0.5"/>
      </g>
     </g>
     <g id="text_3">
      <!-- 200 -->
      <g transform="translate(173.79449 265.698125) scale(0.12 -0.12)">
       <defs>
        <path id="DejaVuSans-32" d="M 1228 531 
L 3431 531 
L 3431 0 
L 469 0 
L 469 531 
Q 828 903 1448 1529 
Q 2069 2156 2228 2338 
Q 2531 2678 2651 2914 
Q 2772 3150 2772 3378 
Q 2772 3750 2511 3984 
Q 2250 4219 1831 4219 
Q 1534 4219 1204 4116 
Q 875 4013 500 3803 
L 500 4441 
Q 881 4594 1212 4672 
Q 1544 4750 1819 4750 
Q 2544 4750 2975 4387 
Q 3406 4025 3406 3419 
Q 3406 3131 3298 2873 
Q 3191 2616 2906 2266 
Q 2828 2175 2409 1742 
Q 1991 1309 1228 531 
z
" transform="scale(0.015625)"/>
       </defs>
       <use xlink:href="#DejaVuSans-32"/>
       <use xlink:href="#DejaVuSans-30" x="63.623047"/>
       <use xlink:href="#DejaVuSans-30" x="127.246094"/>
      </g>
     </g>
    </g>
    <g id="xtick_4">
     <g id="line2d_10">
      <path d="M 246.241707 253.08 
L 246.241707 3.6 
" clip-path="url(#pa9aa604047)" style="fill: none; stroke: #b0b0b0; stroke-width: 0.5; stroke-linecap: square"/>
     </g>
     <g id="line2d_11">
      <g>
       <use xlink:href="#m0a5d63e7f7" x="246.241707" y="253.08" style="stroke: #000000; stroke-width: 0.5"/>
      </g>
     </g>
     <g id="line2d_12">
      <g>
       <use xlink:href="#mcc05f1b046" x="246.241707" y="3.6" style="stroke: #000000; stroke-width: 0.5"/>
      </g>
     </g>
     <g id="text_4">
      <!-- 300 -->
      <g transform="translate(234.789207 265.698125) scale(0.12 -0.12)">
       <defs>
        <path id="DejaVuSans-33" d="M 2597 2516 
Q 3050 2419 3304 2112 
Q 3559 1806 3559 1356 
Q 3559 666 3084 287 
Q 2609 -91 1734 -91 
Q 1441 -91 1130 -33 
Q 819 25 488 141 
L 488 750 
Q 750 597 1062 519 
Q 1375 441 1716 441 
Q 2309 441 2620 675 
Q 2931 909 2931 1356 
Q 2931 1769 2642 2001 
Q 2353 2234 1838 2234 
L 1294 2234 
L 1294 2753 
L 1863 2753 
Q 2328 2753 2575 2939 
Q 2822 3125 2822 3475 
Q 2822 3834 2567 4026 
Q 2313 4219 1838 4219 
Q 1578 4219 1281 4162 
Q 984 4106 628 3988 
L 628 4550 
Q 988 4650 1302 4700 
Q 1616 4750 1894 4750 
Q 2613 4750 3031 4423 
Q 3450 4097 3450 3541 
Q 3450 3153 3228 2886 
Q 3006 2619 2597 2516 
z
" transform="scale(0.015625)"/>
       </defs>
       <use xlink:href="#DejaVuSans-33"/>
       <use xlink:href="#DejaVuSans-30" x="63.623047"/>
       <use xlink:href="#DejaVuSans-30" x="127.246094"/>
      </g>
     </g>
    </g>
    <g id="xtick_5">
     <g id="line2d_13">
      <path d="M 307.236424 253.08 
L 307.236424 3.6 
" clip-path="url(#pa9aa604047)" style="fill: none; stroke: #b0b0b0; stroke-width: 0.5; stroke-linecap: square"/>
     </g>
     <g id="line2d_14">
      <g>
       <use xlink:href="#m0a5d63e7f7" x="307.236424" y="253.08" style="stroke: #000000; stroke-width: 0.5"/>
      </g>
     </g>
     <g id="line2d_15">
      <g>
       <use xlink:href="#mcc05f1b046" x="307.236424" y="3.6" style="stroke: #000000; stroke-width: 0.5"/>
      </g>
     </g>
     <g id="text_5">
      <!-- 400 -->
      <g transform="translate(295.783924 265.698125) scale(0.12 -0.12)">
       <defs>
        <path id="DejaVuSans-34" d="M 2419 4116 
L 825 1625 
L 2419 1625 
L 2419 4116 
z
M 2253 4666 
L 3047 4666 
L 3047 1625 
L 3713 1625 
L 3713 1100 
L 3047 1100 
L 3047 0 
L 2419 0 
L 2419 1100 
L 313 1100 
L 313 1709 
L 2253 4666 
z
" transform="scale(0.015625)"/>
       </defs>
       <use xlink:href="#DejaVuSans-34"/>
       <use xlink:href="#DejaVuSans-30" x="63.623047"/>
       <use xlink:href="#DejaVuSans-30" x="127.246094"/>
      </g>
     </g>
    </g>
    <g id="xtick_6">
     <g id="line2d_16">
      <path d="M 368.23114 253.08 
L 368.23114 3.6 
" clip-path="url(#pa9aa604047)" style="fill: none; stroke: #b0b0b0; stroke-width: 0.5; stroke-linecap: square"/>
     </g>
     <g id="line2d_17">
      <g>
       <use xlink:href="#m0a5d63e7f7" x="368.23114" y="253.08" style="stroke: #000000; stroke-width: 0.5"/>
      </g>
     </g>
     <g id="line2d_18">
      <g>
       <use xlink:href="#mcc05f1b046" x="368.23114" y="3.6" style="stroke: #000000; stroke-width: 0.5"/>
      </g>
     </g>
     <g id="text_6">
      <!-- 500 -->
      <g transform="translate(356.77864 265.698125) scale(0.12 -0.12)">
       <defs>
        <path id="DejaVuSans-35" d="M 691 4666 
L 3169 4666 
L 3169 4134 
L 1269 4134 
L 1269 2991 
Q 1406 3038 1543 3061 
Q 1681 3084 1819 3084 
Q 2600 3084 3056 2656 
Q 3513 2228 3513 1497 
Q 3513 744 3044 326 
Q 2575 -91 1722 -91 
Q 1428 -91 1123 -41 
Q 819 9 494 109 
L 494 744 
Q 775 591 1075 516 
Q 1375 441 1709 441 
Q 2250 441 2565 725 
Q 2881 1009 2881 1497 
Q 2881 1984 2565 2268 
Q 2250 2553 1709 2553 
Q 1456 2553 1204 2497 
Q 953 2441 691 2322 
L 691 4666 
z
" transform="scale(0.015625)"/>
       </defs>
       <use xlink:href="#DejaVuSans-35"/>
       <use xlink:href="#DejaVuSans-30" x="63.623047"/>
       <use xlink:href="#DejaVuSans-30" x="127.246094"/>
      </g>
     </g>
    </g>
    <g id="xtick_7">
     <g id="line2d_19">
      <defs>
       <path id="me392bb7bc7" d="M 0 0 
L 0 -1.5 
" style="stroke: #000000; stroke-width: 0.5"/>
      </defs>
      <g>
       <use xlink:href="#me392bb7bc7" x="51.058613" y="253.08" style="stroke: #000000; stroke-width: 0.5"/>
      </g>
     </g>
     <g id="line2d_20">
      <defs>
       <path id="m811bb931e8" d="M 0 0 
L 0 1.5 
" style="stroke: #000000; stroke-width: 0.5"/>
      </defs>
      <g>
       <use xlink:href="#m811bb931e8" x="51.058613" y="3.6" style="stroke: #000000; stroke-width: 0.5"/>
      </g>
     </g>
    </g>
    <g id="xtick_8">
     <g id="line2d_21">
      <g>
       <use xlink:href="#me392bb7bc7" x="75.4565" y="253.08" style="stroke: #000000; stroke-width: 0.5"/>
      </g>
     </g>
     <g id="line2d_22">
      <g>
       <use xlink:href="#m811bb931e8" x="75.4565" y="3.6" style="stroke: #000000; stroke-width: 0.5"/>
      </g>
     </g>
    </g>
    <g id="xtick_9">
     <g id="line2d_23">
      <g>
       <use xlink:href="#me392bb7bc7" x="87.655444" y="253.08" style="stroke: #000000; stroke-width: 0.5"/>
      </g>
     </g>
     <g id="line2d_24">
      <g>
       <use xlink:href="#m811bb931e8" x="87.655444" y="3.6" style="stroke: #000000; stroke-width: 0.5"/>
      </g>
     </g>
    </g>
    <g id="xtick_10">
     <g id="line2d_25">
      <g>
       <use xlink:href="#me392bb7bc7" x="99.854387" y="253.08" style="stroke: #000000; stroke-width: 0.5"/>
      </g>
     </g>
     <g id="line2d_26">
      <g>
       <use xlink:href="#m811bb931e8" x="99.854387" y="3.6" style="stroke: #000000; stroke-width: 0.5"/>
      </g>
     </g>
    </g>
    <g id="xtick_11">
     <g id="line2d_27">
      <g>
       <use xlink:href="#me392bb7bc7" x="112.05333" y="253.08" style="stroke: #000000; stroke-width: 0.5"/>
      </g>
     </g>
     <g id="line2d_28">
      <g>
       <use xlink:href="#m811bb931e8" x="112.05333" y="3.6" style="stroke: #000000; stroke-width: 0.5"/>
      </g>
     </g>
    </g>
    <g id="xtick_12">
     <g id="line2d_29">
      <g>
       <use xlink:href="#me392bb7bc7" x="136.451217" y="253.08" style="stroke: #000000; stroke-width: 0.5"/>
      </g>
     </g>
     <g id="line2d_30">
      <g>
       <use xlink:href="#m811bb931e8" x="136.451217" y="3.6" style="stroke: #000000; stroke-width: 0.5"/>
      </g>
     </g>
    </g>
    <g id="xtick_13">
     <g id="line2d_31">
      <g>
       <use xlink:href="#me392bb7bc7" x="148.65016" y="253.08" style="stroke: #000000; stroke-width: 0.5"/>
      </g>
     </g>
     <g id="line2d_32">
      <g>
       <use xlink:href="#m811bb931e8" x="148.65016" y="3.6" style="stroke: #000000; stroke-width: 0.5"/>
      </g>
     </g>
    </g>
    <g id="xtick_14">
     <g id="line2d_33">
      <g>
       <use xlink:href="#me392bb7bc7" x="160.849104" y="253.08" style="stroke: #000000; stroke-width: 0.5"/>
      </g>
     </g>
     <g id="line2d_34">
      <g>
       <use xlink:href="#m811bb931e8" x="160.849104" y="3.6" style="stroke: #000000; stroke-width: 0.5"/>
      </g>
     </g>
    </g>
    <g id="xtick_15">
     <g id="line2d_35">
      <g>
       <use xlink:href="#me392bb7bc7" x="173.048047" y="253.08" style="stroke: #000000; stroke-width: 0.5"/>
      </g>
     </g>
     <g id="line2d_36">
      <g>
       <use xlink:href="#m811bb931e8" x="173.048047" y="3.6" style="stroke: #000000; stroke-width: 0.5"/>
      </g>
     </g>
    </g>
    <g id="xtick_16">
     <g id="line2d_37">
      <g>
       <use xlink:href="#me392bb7bc7" x="197.445934" y="253.08" style="stroke: #000000; stroke-width: 0.5"/>
      </g>
     </g>
     <g id="line2d_38">
      <g>
       <use xlink:href="#m811bb931e8" x="197.445934" y="3.6" style="stroke: #000000; stroke-width: 0.5"/>
      </g>
     </g>
    </g>
    <g id="xtick_17">
     <g id="line2d_39">
      <g>
       <use xlink:href="#me392bb7bc7" x="209.644877" y="253.08" style="stroke: #000000; stroke-width: 0.5"/>
      </g>
     </g>
     <g id="line2d_40">
      <g>
       <use xlink:href="#m811bb931e8" x="209.644877" y="3.6" style="stroke: #000000; stroke-width: 0.5"/>
      </g>
     </g>
    </g>
    <g id="xtick_18">
     <g id="line2d_41">
      <g>
       <use xlink:href="#me392bb7bc7" x="221.84382" y="253.08" style="stroke: #000000; stroke-width: 0.5"/>
      </g>
     </g>
     <g id="line2d_42">
      <g>
       <use xlink:href="#m811bb931e8" x="221.84382" y="3.6" style="stroke: #000000; stroke-width: 0.5"/>
      </g>
     </g>
    </g>
    <g id="xtick_19">
     <g id="line2d_43">
      <g>
       <use xlink:href="#me392bb7bc7" x="234.042764" y="253.08" style="stroke: #000000; stroke-width: 0.5"/>
      </g>
     </g>
     <g id="line2d_44">
      <g>
       <use xlink:href="#m811bb931e8" x="234.042764" y="3.6" style="stroke: #000000; stroke-width: 0.5"/>
      </g>
     </g>
    </g>
    <g id="xtick_20">
     <g id="line2d_45">
      <g>
       <use xlink:href="#me392bb7bc7" x="258.44065" y="253.08" style="stroke: #000000; stroke-width: 0.5"/>
      </g>
     </g>
     <g id="line2d_46">
      <g>
       <use xlink:href="#m811bb931e8" x="258.44065" y="3.6" style="stroke: #000000; stroke-width: 0.5"/>
      </g>
     </g>
    </g>
    <g id="xtick_21">
     <g id="line2d_47">
      <g>
       <use xlink:href="#me392bb7bc7" x="270.639594" y="253.08" style="stroke: #000000; stroke-width: 0.5"/>
      </g>
     </g>
     <g id="line2d_48">
      <g>
       <use xlink:href="#m811bb931e8" x="270.639594" y="3.6" style="stroke: #000000; stroke-width: 0.5"/>
      </g>
     </g>
    </g>
    <g id="xtick_22">
     <g id="line2d_49">
      <g>
       <use xlink:href="#me392bb7bc7" x="282.838537" y="253.08" style="stroke: #000000; stroke-width: 0.5"/>
      </g>
     </g>
     <g id="line2d_50">
      <g>
       <use xlink:href="#m811bb931e8" x="282.838537" y="3.6" style="stroke: #000000; stroke-width: 0.5"/>
      </g>
     </g>
    </g>
    <g id="xtick_23">
     <g id="line2d_51">
      <g>
       <use xlink:href="#me392bb7bc7" x="295.03748" y="253.08" style="stroke: #000000; stroke-width: 0.5"/>
      </g>
     </g>
     <g id="line2d_52">
      <g>
       <use xlink:href="#m811bb931e8" x="295.03748" y="3.6" style="stroke: #000000; stroke-width: 0.5"/>
      </g>
     </g>
    </g>
    <g id="xtick_24">
     <g id="line2d_53">
      <g>
       <use xlink:href="#me392bb7bc7" x="319.435367" y="253.08" style="stroke: #000000; stroke-width: 0.5"/>
      </g>
     </g>
     <g id="line2d_54">
      <g>
       <use xlink:href="#m811bb931e8" x="319.435367" y="3.6" style="stroke: #000000; stroke-width: 0.5"/>
      </g>
     </g>
    </g>
    <g id="xtick_25">
     <g id="line2d_55">
      <g>
       <use xlink:href="#me392bb7bc7" x="331.63431" y="253.08" style="stroke: #000000; stroke-width: 0.5"/>
      </g>
     </g>
     <g id="line2d_56">
      <g>
       <use xlink:href="#m811bb931e8" x="331.63431" y="3.6" style="stroke: #000000; stroke-width: 0.5"/>
      </g>
     </g>
    </g>
    <g id="xtick_26">
     <g id="line2d_57">
      <g>
       <use xlink:href="#me392bb7bc7" x="343.833254" y="253.08" style="stroke: #000000; stroke-width: 0.5"/>
      </g>
     </g>
     <g id="line2d_58">
      <g>
       <use xlink:href="#m811bb931e8" x="343.833254" y="3.6" style="stroke: #000000; stroke-width: 0.5"/>
      </g>
     </g>
    </g>
    <g id="xtick_27">
     <g id="line2d_59">
      <g>
       <use xlink:href="#me392bb7bc7" x="356.032197" y="253.08" style="stroke: #000000; stroke-width: 0.5"/>
      </g>
     </g>
     <g id="line2d_60">
      <g>
       <use xlink:href="#m811bb931e8" x="356.032197" y="3.6" style="stroke: #000000; stroke-width: 0.5"/>
      </g>
     </g>
    </g>
    <g id="xtick_28">
     <g id="line2d_61">
      <g>
       <use xlink:href="#me392bb7bc7" x="380.430084" y="253.08" style="stroke: #000000; stroke-width: 0.5"/>
      </g>
     </g>
     <g id="line2d_62">
      <g>
       <use xlink:href="#m811bb931e8" x="380.430084" y="3.6" style="stroke: #000000; stroke-width: 0.5"/>
      </g>
     </g>
    </g>
    <g id="text_7">
     <!-- Generations -->
     <g transform="translate(178.842188 281.311875) scale(0.12 -0.12)">
      <defs>
       <path id="DejaVuSans-47" d="M 3809 666 
L 3809 1919 
L 2778 1919 
L 2778 2438 
L 4434 2438 
L 4434 434 
Q 4069 175 3628 42 
Q 3188 -91 2688 -91 
Q 1594 -91 976 548 
Q 359 1188 359 2328 
Q 359 3472 976 4111 
Q 1594 4750 2688 4750 
Q 3144 4750 3555 4637 
Q 3966 4525 4313 4306 
L 4313 3634 
Q 3963 3931 3569 4081 
Q 3175 4231 2741 4231 
Q 1884 4231 1454 3753 
Q 1025 3275 1025 2328 
Q 1025 1384 1454 906 
Q 1884 428 2741 428 
Q 3075 428 3337 486 
Q 3600 544 3809 666 
z
" transform="scale(0.015625)"/>
       <path id="DejaVuSans-65" d="M 3597 1894 
L 3597 1613 
L 953 1613 
Q 991 1019 1311 708 
Q 1631 397 2203 397 
Q 2534 397 2845 478 
Q 3156 559 3463 722 
L 3463 178 
Q 3153 47 2828 -22 
Q 2503 -91 2169 -91 
Q 1331 -91 842 396 
Q 353 884 353 1716 
Q 353 2575 817 3079 
Q 1281 3584 2069 3584 
Q 2775 3584 3186 3129 
Q 3597 2675 3597 1894 
z
M 3022 2063 
Q 3016 2534 2758 2815 
Q 2500 3097 2075 3097 
Q 1594 3097 1305 2825 
Q 1016 2553 972 2059 
L 3022 2063 
z
" transform="scale(0.015625)"/>
       <path id="DejaVuSans-6e" d="M 3513 2113 
L 3513 0 
L 2938 0 
L 2938 2094 
Q 2938 2591 2744 2837 
Q 2550 3084 2163 3084 
Q 1697 3084 1428 2787 
Q 1159 2491 1159 1978 
L 1159 0 
L 581 0 
L 581 3500 
L 1159 3500 
L 1159 2956 
Q 1366 3272 1645 3428 
Q 1925 3584 2291 3584 
Q 2894 3584 3203 3211 
Q 3513 2838 3513 2113 
z
" transform="scale(0.015625)"/>
       <path id="DejaVuSans-72" d="M 2631 2963 
Q 2534 3019 2420 3045 
Q 2306 3072 2169 3072 
Q 1681 3072 1420 2755 
Q 1159 2438 1159 1844 
L 1159 0 
L 581 0 
L 581 3500 
L 1159 3500 
L 1159 2956 
Q 1341 3275 1631 3429 
Q 1922 3584 2338 3584 
Q 2397 3584 2469 3576 
Q 2541 3569 2628 3553 
L 2631 2963 
z
" transform="scale(0.015625)"/>
       <path id="DejaVuSans-61" d="M 2194 1759 
Q 1497 1759 1228 1600 
Q 959 1441 959 1056 
Q 959 750 1161 570 
Q 1363 391 1709 391 
Q 2188 391 2477 730 
Q 2766 1069 2766 1631 
L 2766 1759 
L 2194 1759 
z
M 3341 1997 
L 3341 0 
L 2766 0 
L 2766 531 
Q 2569 213 2275 61 
Q 1981 -91 1556 -91 
Q 1019 -91 701 211 
Q 384 513 384 1019 
Q 384 1609 779 1909 
Q 1175 2209 1959 2209 
L 2766 2209 
L 2766 2266 
Q 2766 2663 2505 2880 
Q 2244 3097 1772 3097 
Q 1472 3097 1187 3025 
Q 903 2953 641 2809 
L 641 3341 
Q 956 3463 1253 3523 
Q 1550 3584 1831 3584 
Q 2591 3584 2966 3190 
Q 3341 2797 3341 1997 
z
" transform="scale(0.015625)"/>
       <path id="DejaVuSans-74" d="M 1172 4494 
L 1172 3500 
L 2356 3500 
L 2356 3053 
L 1172 3053 
L 1172 1153 
Q 1172 725 1289 603 
Q 1406 481 1766 481 
L 2356 481 
L 2356 0 
L 1766 0 
Q 1100 0 847 248 
Q 594 497 594 1153 
L 594 3053 
L 172 3053 
L 172 3500 
L 594 3500 
L 594 4494 
L 1172 4494 
z
" transform="scale(0.015625)"/>
       <path id="DejaVuSans-69" d="M 603 3500 
L 1178 3500 
L 1178 0 
L 603 0 
L 603 3500 
z
M 603 4863 
L 1178 4863 
L 1178 4134 
L 603 4134 
L 603 4863 
z
" transform="scale(0.015625)"/>
       <path id="DejaVuSans-6f" d="M 1959 3097 
Q 1497 3097 1228 2736 
Q 959 2375 959 1747 
Q 959 1119 1226 758 
Q 1494 397 1959 397 
Q 2419 397 2687 759 
Q 2956 1122 2956 1747 
Q 2956 2369 2687 2733 
Q 2419 3097 1959 3097 
z
M 1959 3584 
Q 2709 3584 3137 3096 
Q 3566 2609 3566 1747 
Q 3566 888 3137 398 
Q 2709 -91 1959 -91 
Q 1206 -91 779 398 
Q 353 888 353 1747 
Q 353 2609 779 3096 
Q 1206 3584 1959 3584 
z
" transform="scale(0.015625)"/>
       <path id="DejaVuSans-73" d="M 2834 3397 
L 2834 2853 
Q 2591 2978 2328 3040 
Q 2066 3103 1784 3103 
Q 1356 3103 1142 2972 
Q 928 2841 928 2578 
Q 928 2378 1081 2264 
Q 1234 2150 1697 2047 
L 1894 2003 
Q 2506 1872 2764 1633 
Q 3022 1394 3022 966 
Q 3022 478 2636 193 
Q 2250 -91 1575 -91 
Q 1294 -91 989 -36 
Q 684 19 347 128 
L 347 722 
Q 666 556 975 473 
Q 1284 391 1588 391 
Q 1994 391 2212 530 
Q 2431 669 2431 922 
Q 2431 1156 2273 1281 
Q 2116 1406 1581 1522 
L 1381 1569 
Q 847 1681 609 1914 
Q 372 2147 372 2553 
Q 372 3047 722 3315 
Q 1072 3584 1716 3584 
Q 2034 3584 2315 3537 
Q 2597 3491 2834 3397 
z
" transform="scale(0.015625)"/>
      </defs>
      <use xlink:href="#DejaVuSans-47"/>
      <use xlink:href="#DejaVuSans-65" x="77.490234"/>
      <use xlink:href="#DejaVuSans-6e" x="139.013672"/>
      <use xlink:href="#DejaVuSans-65" x="202.392578"/>
      <use xlink:href="#DejaVuSans-72" x="263.916016"/>
      <use xlink:href="#DejaVuSans-61" x="305.029297"/>
      <use xlink:href="#DejaVuSans-74" x="366.308594"/>
      <use xlink:href="#DejaVuSans-69" x="405.517578"/>
      <use xlink:href="#DejaVuSans-6f" x="433.300781"/>
      <use xlink:href="#DejaVuSans-6e" x="494.482422"/>
      <use xlink:href="#DejaVuSans-73" x="557.861328"/>
     </g>
    </g>
   </g>
   <g id="matplotlib.axis_2">
    <g id="ytick_1">
     <g id="line2d_63">
      <path d="M 48.039375 244.102853 
L 382.839375 244.102853 
" clip-path="url(#pa9aa604047)" style="fill: none; stroke: #b0b0b0; stroke-width: 0.5; stroke-linecap: square"/>
     </g>
     <g id="line2d_64">
      <defs>
       <path id="me138c0d27e" d="M 0 0 
L 3 0 
" style="stroke: #000000; stroke-width: 0.5"/>
      </defs>
      <g>
       <use xlink:href="#me138c0d27e" x="48.039375" y="244.102853" style="stroke: #000000; stroke-width: 0.5"/>
      </g>
     </g>
     <g id="line2d_65">
      <defs>
       <path id="m23c9393c31" d="M 0 0 
L -3 0 
" style="stroke: #000000; stroke-width: 0.5"/>
      </defs>
      <g>
       <use xlink:href="#m23c9393c31" x="382.839375" y="244.102853" style="stroke: #000000; stroke-width: 0.5"/>
      </g>
     </g>
     <g id="text_8">
      <!-- −10 -->
      <g transform="translate(19.21375 248.661915) scale(0.12 -0.12)">
       <defs>
        <path id="DejaVuSans-2212" d="M 678 2272 
L 4684 2272 
L 4684 1741 
L 678 1741 
L 678 2272 
z
" transform="scale(0.015625)"/>
       </defs>
       <use xlink:href="#DejaVuSans-2212"/>
       <use xlink:href="#DejaVuSans-31" x="83.789062"/>
       <use xlink:href="#DejaVuSans-30" x="147.412109"/>
      </g>
     </g>
    </g>
    <g id="ytick_2">
     <g id="line2d_66">
      <path d="M 48.039375 209.020187 
L 382.839375 209.020187 
" clip-path="url(#pa9aa604047)" style="fill: none; stroke: #b0b0b0; stroke-width: 0.5; stroke-linecap: square"/>
     </g>
     <g id="line2d_67">
      <g>
       <use xlink:href="#me138c0d27e" x="48.039375" y="209.020187" style="stroke: #000000; stroke-width: 0.5"/>
      </g>
     </g>
     <g id="line2d_68">
      <g>
       <use xlink:href="#m23c9393c31" x="382.839375" y="209.020187" style="stroke: #000000; stroke-width: 0.5"/>
      </g>
     </g>
     <g id="text_9">
      <!-- −5 -->
      <g transform="translate(26.84875 213.57925) scale(0.12 -0.12)">
       <use xlink:href="#DejaVuSans-2212"/>
       <use xlink:href="#DejaVuSans-35" x="83.789062"/>
      </g>
     </g>
    </g>
    <g id="ytick_3">
     <g id="line2d_69">
      <path d="M 48.039375 173.937522 
L 382.839375 173.937522 
" clip-path="url(#pa9aa604047)" style="fill: none; stroke: #b0b0b0; stroke-width: 0.5; stroke-linecap: square"/>
     </g>
     <g id="line2d_70">
      <g>
       <use xlink:href="#me138c0d27e" x="48.039375" y="173.937522" style="stroke: #000000; stroke-width: 0.5"/>
      </g>
     </g>
     <g id="line2d_71">
      <g>
       <use xlink:href="#m23c9393c31" x="382.839375" y="173.937522" style="stroke: #000000; stroke-width: 0.5"/>
      </g>
     </g>
     <g id="text_10">
      <!-- 0 -->
      <g transform="translate(36.904375 178.496584) scale(0.12 -0.12)">
       <use xlink:href="#DejaVuSans-30"/>
      </g>
     </g>
    </g>
    <g id="ytick_4">
     <g id="line2d_72">
      <path d="M 48.039375 138.854856 
L 382.839375 138.854856 
" clip-path="url(#pa9aa604047)" style="fill: none; stroke: #b0b0b0; stroke-width: 0.5; stroke-linecap: square"/>
     </g>
     <g id="line2d_73">
      <g>
       <use xlink:href="#me138c0d27e" x="48.039375" y="138.854856" style="stroke: #000000; stroke-width: 0.5"/>
      </g>
     </g>
     <g id="line2d_74">
      <g>
       <use xlink:href="#m23c9393c31" x="382.839375" y="138.854856" style="stroke: #000000; stroke-width: 0.5"/>
      </g>
     </g>
     <g id="text_11">
      <!-- 5 -->
      <g transform="translate(36.904375 143.413919) scale(0.12 -0.12)">
       <use xlink:href="#DejaVuSans-35"/>
      </g>
     </g>
    </g>
    <g id="ytick_5">
     <g id="line2d_75">
      <path d="M 48.039375 103.772191 
L 382.839375 103.772191 
" clip-path="url(#pa9aa604047)" style="fill: none; stroke: #b0b0b0; stroke-width: 0.5; stroke-linecap: square"/>
     </g>
     <g id="line2d_76">
      <g>
       <use xlink:href="#me138c0d27e" x="48.039375" y="103.772191" style="stroke: #000000; stroke-width: 0.5"/>
      </g>
     </g>
     <g id="line2d_77">
      <g>
       <use xlink:href="#m23c9393c31" x="382.839375" y="103.772191" style="stroke: #000000; stroke-width: 0.5"/>
      </g>
     </g>
     <g id="text_12">
      <!-- 10 -->
      <g transform="translate(29.269375 108.331253) scale(0.12 -0.12)">
       <use xlink:href="#DejaVuSans-31"/>
       <use xlink:href="#DejaVuSans-30" x="63.623047"/>
      </g>
     </g>
    </g>
    <g id="ytick_6">
     <g id="line2d_78">
      <path d="M 48.039375 68.689525 
L 382.839375 68.689525 
" clip-path="url(#pa9aa604047)" style="fill: none; stroke: #b0b0b0; stroke-width: 0.5; stroke-linecap: square"/>
     </g>
     <g id="line2d_79">
      <g>
       <use xlink:href="#me138c0d27e" x="48.039375" y="68.689525" style="stroke: #000000; stroke-width: 0.5"/>
      </g>
     </g>
     <g id="line2d_80">
      <g>
       <use xlink:href="#m23c9393c31" x="382.839375" y="68.689525" style="stroke: #000000; stroke-width: 0.5"/>
      </g>
     </g>
     <g id="text_13">
      <!-- 15 -->
      <g transform="translate(29.269375 73.248588) scale(0.12 -0.12)">
       <use xlink:href="#DejaVuSans-31"/>
       <use xlink:href="#DejaVuSans-35" x="63.623047"/>
      </g>
     </g>
    </g>
    <g id="ytick_7">
     <g id="line2d_81">
      <path d="M 48.039375 33.60686 
L 382.839375 33.60686 
" clip-path="url(#pa9aa604047)" style="fill: none; stroke: #b0b0b0; stroke-width: 0.5; stroke-linecap: square"/>
     </g>
     <g id="line2d_82">
      <g>
       <use xlink:href="#me138c0d27e" x="48.039375" y="33.60686" style="stroke: #000000; stroke-width: 0.5"/>
      </g>
     </g>
     <g id="line2d_83">
      <g>
       <use xlink:href="#m23c9393c31" x="382.839375" y="33.60686" style="stroke: #000000; stroke-width: 0.5"/>
      </g>
     </g>
     <g id="text_14">
      <!-- 20 -->
      <g transform="translate(29.269375 38.165922) scale(0.12 -0.12)">
       <use xlink:href="#DejaVuSans-32"/>
       <use xlink:href="#DejaVuSans-30" x="63.623047"/>
      </g>
     </g>
    </g>
    <g id="ytick_8">
     <g id="line2d_84">
      <defs>
       <path id="m501df2535a" d="M 0 0 
L 1.5 0 
" style="stroke: #000000; stroke-width: 0.5"/>
      </defs>
      <g>
       <use xlink:href="#m501df2535a" x="48.039375" y="251.119386" style="stroke: #000000; stroke-width: 0.5"/>
      </g>
     </g>
     <g id="line2d_85">
      <defs>
       <path id="mea85f31964" d="M 0 0 
L -1.5 0 
" style="stroke: #000000; stroke-width: 0.5"/>
      </defs>
      <g>
       <use xlink:href="#mea85f31964" x="382.839375" y="251.119386" style="stroke: #000000; stroke-width: 0.5"/>
      </g>
     </g>
    </g>
    <g id="ytick_9">
     <g id="line2d_86">
      <g>
       <use xlink:href="#m501df2535a" x="48.039375" y="237.08632" style="stroke: #000000; stroke-width: 0.5"/>
      </g>
     </g>
     <g id="line2d_87">
      <g>
       <use xlink:href="#mea85f31964" x="382.839375" y="237.08632" style="stroke: #000000; stroke-width: 0.5"/>
      </g>
     </g>
    </g>
    <g id="ytick_10">
     <g id="line2d_88">
      <g>
       <use xlink:href="#m501df2535a" x="48.039375" y="230.069786" style="stroke: #000000; stroke-width: 0.5"/>
      </g>
     </g>
     <g id="line2d_89">
      <g>
       <use xlink:href="#mea85f31964" x="382.839375" y="230.069786" style="stroke: #000000; stroke-width: 0.5"/>
      </g>
     </g>
    </g>
    <g id="ytick_11">
     <g id="line2d_90">
      <g>
       <use xlink:href="#m501df2535a" x="48.039375" y="223.053253" style="stroke: #000000; stroke-width: 0.5"/>
      </g>
     </g>
     <g id="line2d_91">
      <g>
       <use xlink:href="#mea85f31964" x="382.839375" y="223.053253" style="stroke: #000000; stroke-width: 0.5"/>
      </g>
     </g>
    </g>
    <g id="ytick_12">
     <g id="line2d_92">
      <g>
       <use xlink:href="#m501df2535a" x="48.039375" y="216.03672" style="stroke: #000000; stroke-width: 0.5"/>
      </g>
     </g>
     <g id="line2d_93">
      <g>
       <use xlink:href="#mea85f31964" x="382.839375" y="216.03672" style="stroke: #000000; stroke-width: 0.5"/>
      </g>
     </g>
    </g>
    <g id="ytick_13">
     <g id="line2d_94">
      <g>
       <use xlink:href="#m501df2535a" x="48.039375" y="202.003654" style="stroke: #000000; stroke-width: 0.5"/>
      </g>
     </g>
     <g id="line2d_95">
      <g>
       <use xlink:href="#mea85f31964" x="382.839375" y="202.003654" style="stroke: #000000; stroke-width: 0.5"/>
      </g>
     </g>
    </g>
    <g id="ytick_14">
     <g id="line2d_96">
      <g>
       <use xlink:href="#m501df2535a" x="48.039375" y="194.987121" style="stroke: #000000; stroke-width: 0.5"/>
      </g>
     </g>
     <g id="line2d_97">
      <g>
       <use xlink:href="#mea85f31964" x="382.839375" y="194.987121" style="stroke: #000000; stroke-width: 0.5"/>
      </g>
     </g>
    </g>
    <g id="ytick_15">
     <g id="line2d_98">
      <g>
       <use xlink:href="#m501df2535a" x="48.039375" y="187.970588" style="stroke: #000000; stroke-width: 0.5"/>
      </g>
     </g>
     <g id="line2d_99">
      <g>
       <use xlink:href="#mea85f31964" x="382.839375" y="187.970588" style="stroke: #000000; stroke-width: 0.5"/>
      </g>
     </g>
    </g>
    <g id="ytick_16">
     <g id="line2d_100">
      <g>
       <use xlink:href="#m501df2535a" x="48.039375" y="180.954055" style="stroke: #000000; stroke-width: 0.5"/>
      </g>
     </g>
     <g id="line2d_101">
      <g>
       <use xlink:href="#mea85f31964" x="382.839375" y="180.954055" style="stroke: #000000; stroke-width: 0.5"/>
      </g>
     </g>
    </g>
    <g id="ytick_17">
     <g id="line2d_102">
      <g>
       <use xlink:href="#m501df2535a" x="48.039375" y="166.920989" style="stroke: #000000; stroke-width: 0.5"/>
      </g>
     </g>
     <g id="line2d_103">
      <g>
       <use xlink:href="#mea85f31964" x="382.839375" y="166.920989" style="stroke: #000000; stroke-width: 0.5"/>
      </g>
     </g>
    </g>
    <g id="ytick_18">
     <g id="line2d_104">
      <g>
       <use xlink:href="#m501df2535a" x="48.039375" y="159.904455" style="stroke: #000000; stroke-width: 0.5"/>
      </g>
     </g>
     <g id="line2d_105">
      <g>
       <use xlink:href="#mea85f31964" x="382.839375" y="159.904455" style="stroke: #000000; stroke-width: 0.5"/>
      </g>
     </g>
    </g>
    <g id="ytick_19">
     <g id="line2d_106">
      <g>
       <use xlink:href="#m501df2535a" x="48.039375" y="152.887922" style="stroke: #000000; stroke-width: 0.5"/>
      </g>
     </g>
     <g id="line2d_107">
      <g>
       <use xlink:href="#mea85f31964" x="382.839375" y="152.887922" style="stroke: #000000; stroke-width: 0.5"/>
      </g>
     </g>
    </g>
    <g id="ytick_20">
     <g id="line2d_108">
      <g>
       <use xlink:href="#m501df2535a" x="48.039375" y="145.871389" style="stroke: #000000; stroke-width: 0.5"/>
      </g>
     </g>
     <g id="line2d_109">
      <g>
       <use xlink:href="#mea85f31964" x="382.839375" y="145.871389" style="stroke: #000000; stroke-width: 0.5"/>
      </g>
     </g>
    </g>
    <g id="ytick_21">
     <g id="line2d_110">
      <g>
       <use xlink:href="#m501df2535a" x="48.039375" y="131.838323" style="stroke: #000000; stroke-width: 0.5"/>
      </g>
     </g>
     <g id="line2d_111">
      <g>
       <use xlink:href="#mea85f31964" x="382.839375" y="131.838323" style="stroke: #000000; stroke-width: 0.5"/>
      </g>
     </g>
    </g>
    <g id="ytick_22">
     <g id="line2d_112">
      <g>
       <use xlink:href="#m501df2535a" x="48.039375" y="124.82179" style="stroke: #000000; stroke-width: 0.5"/>
      </g>
     </g>
     <g id="line2d_113">
      <g>
       <use xlink:href="#mea85f31964" x="382.839375" y="124.82179" style="stroke: #000000; stroke-width: 0.5"/>
      </g>
     </g>
    </g>
    <g id="ytick_23">
     <g id="line2d_114">
      <g>
       <use xlink:href="#m501df2535a" x="48.039375" y="117.805257" style="stroke: #000000; stroke-width: 0.5"/>
      </g>
     </g>
     <g id="line2d_115">
      <g>
       <use xlink:href="#mea85f31964" x="382.839375" y="117.805257" style="stroke: #000000; stroke-width: 0.5"/>
      </g>
     </g>
    </g>
    <g id="ytick_24">
     <g id="line2d_116">
      <g>
       <use xlink:href="#m501df2535a" x="48.039375" y="110.788724" style="stroke: #000000; stroke-width: 0.5"/>
      </g>
     </g>
     <g id="line2d_117">
      <g>
       <use xlink:href="#mea85f31964" x="382.839375" y="110.788724" style="stroke: #000000; stroke-width: 0.5"/>
      </g>
     </g>
    </g>
    <g id="ytick_25">
     <g id="line2d_118">
      <g>
       <use xlink:href="#m501df2535a" x="48.039375" y="96.755657" style="stroke: #000000; stroke-width: 0.5"/>
      </g>
     </g>
     <g id="line2d_119">
      <g>
       <use xlink:href="#mea85f31964" x="382.839375" y="96.755657" style="stroke: #000000; stroke-width: 0.5"/>
      </g>
     </g>
    </g>
    <g id="ytick_26">
     <g id="line2d_120">
      <g>
       <use xlink:href="#m501df2535a" x="48.039375" y="89.739124" style="stroke: #000000; stroke-width: 0.5"/>
      </g>
     </g>
     <g id="line2d_121">
      <g>
       <use xlink:href="#mea85f31964" x="382.839375" y="89.739124" style="stroke: #000000; stroke-width: 0.5"/>
      </g>
     </g>
    </g>
    <g id="ytick_27">
     <g id="line2d_122">
      <g>
       <use xlink:href="#m501df2535a" x="48.039375" y="82.722591" style="stroke: #000000; stroke-width: 0.5"/>
      </g>
     </g>
     <g id="line2d_123">
      <g>
       <use xlink:href="#mea85f31964" x="382.839375" y="82.722591" style="stroke: #000000; stroke-width: 0.5"/>
      </g>
     </g>
    </g>
    <g id="ytick_28">
     <g id="line2d_124">
      <g>
       <use xlink:href="#m501df2535a" x="48.039375" y="75.706058" style="stroke: #000000; stroke-width: 0.5"/>
      </g>
     </g>
     <g id="line2d_125">
      <g>
       <use xlink:href="#mea85f31964" x="382.839375" y="75.706058" style="stroke: #000000; stroke-width: 0.5"/>
      </g>
     </g>
    </g>
    <g id="ytick_29">
     <g id="line2d_126">
      <g>
       <use xlink:href="#m501df2535a" x="48.039375" y="61.672992" style="stroke: #000000; stroke-width: 0.5"/>
      </g>
     </g>
     <g id="line2d_127">
      <g>
       <use xlink:href="#mea85f31964" x="382.839375" y="61.672992" style="stroke: #000000; stroke-width: 0.5"/>
      </g>
     </g>
    </g>
    <g id="ytick_30">
     <g id="line2d_128">
      <g>
       <use xlink:href="#m501df2535a" x="48.039375" y="54.656459" style="stroke: #000000; stroke-width: 0.5"/>
      </g>
     </g>
     <g id="line2d_129">
      <g>
       <use xlink:href="#mea85f31964" x="382.839375" y="54.656459" style="stroke: #000000; stroke-width: 0.5"/>
      </g>
     </g>
    </g>
    <g id="ytick_31">
     <g id="line2d_130">
      <g>
       <use xlink:href="#m501df2535a" x="48.039375" y="47.639926" style="stroke: #000000; stroke-width: 0.5"/>
      </g>
     </g>
     <g id="line2d_131">
      <g>
       <use xlink:href="#mea85f31964" x="382.839375" y="47.639926" style="stroke: #000000; stroke-width: 0.5"/>
      </g>
     </g>
    </g>
    <g id="ytick_32">
     <g id="line2d_132">
      <g>
       <use xlink:href="#m501df2535a" x="48.039375" y="40.623393" style="stroke: #000000; stroke-width: 0.5"/>
      </g>
     </g>
     <g id="line2d_133">
      <g>
       <use xlink:href="#mea85f31964" x="382.839375" y="40.623393" style="stroke: #000000; stroke-width: 0.5"/>
      </g>
     </g>
    </g>
    <g id="ytick_33">
     <g id="line2d_134">
      <g>
       <use xlink:href="#m501df2535a" x="48.039375" y="26.590326" style="stroke: #000000; stroke-width: 0.5"/>
      </g>
     </g>
     <g id="line2d_135">
      <g>
       <use xlink:href="#mea85f31964" x="382.839375" y="26.590326" style="stroke: #000000; stroke-width: 0.5"/>
      </g>
     </g>
    </g>
    <g id="ytick_34">
     <g id="line2d_136">
      <g>
       <use xlink:href="#m501df2535a" x="48.039375" y="19.573793" style="stroke: #000000; stroke-width: 0.5"/>
      </g>
     </g>
     <g id="line2d_137">
      <g>
       <use xlink:href="#mea85f31964" x="382.839375" y="19.573793" style="stroke: #000000; stroke-width: 0.5"/>
      </g>
     </g>
    </g>
    <g id="ytick_35">
     <g id="line2d_138">
      <g>
       <use xlink:href="#m501df2535a" x="48.039375" y="12.55726" style="stroke: #000000; stroke-width: 0.5"/>
      </g>
     </g>
     <g id="line2d_139">
      <g>
       <use xlink:href="#mea85f31964" x="382.839375" y="12.55726" style="stroke: #000000; stroke-width: 0.5"/>
      </g>
     </g>
    </g>
    <g id="ytick_36">
     <g id="line2d_140">
      <g>
       <use xlink:href="#m501df2535a" x="48.039375" y="5.540727" style="stroke: #000000; stroke-width: 0.5"/>
      </g>
     </g>
     <g id="line2d_141">
      <g>
       <use xlink:href="#mea85f31964" x="382.839375" y="5.540727" style="stroke: #000000; stroke-width: 0.5"/>
      </g>
     </g>
    </g>
    <g id="text_15">
     <!-- Fitness -->
     <g transform="translate(12.718125 149.120625) rotate(-90) scale(0.12 -0.12)">
      <defs>
       <path id="DejaVuSans-46" d="M 628 4666 
L 3309 4666 
L 3309 4134 
L 1259 4134 
L 1259 2759 
L 3109 2759 
L 3109 2228 
L 1259 2228 
L 1259 0 
L 628 0 
L 628 4666 
z
" transform="scale(0.015625)"/>
      </defs>
      <use xlink:href="#DejaVuSans-46"/>
      <use xlink:href="#DejaVuSans-69" x="50.269531"/>
      <use xlink:href="#DejaVuSans-74" x="78.052734"/>
      <use xlink:href="#DejaVuSans-6e" x="117.261719"/>
      <use xlink:href="#DejaVuSans-65" x="180.640625"/>
      <use xlink:href="#DejaVuSans-73" x="242.164062"/>
      <use xlink:href="#DejaVuSans-73" x="294.263672"/>
     </g>
    </g>
   </g>
   <g id="line2d_142">
    <path d="M 63.257557 84.892488 
L 63.867504 61.515264 
L 64.477451 56.612192 
L 65.087398 56.61126 
L 65.697345 42.373365 
L 69.966976 42.373843 
L 70.576923 36.48899 
L 73.016711 36.489473 
L 73.626659 30.12562 
L 74.236606 22.328737 
L 80.946025 22.322123 
L 81.555972 22.020758 
L 82.165919 22.020657 
L 82.775866 20.795507 
L 83.385813 20.446283 
L 83.99576 20.446249 
L 84.605708 19.795459 
L 87.655444 19.791781 
L 88.265391 19.428492 
L 99.24444 19.425121 
L 99.854387 18.977756 
L 132.181587 18.864068 
L 134.011428 18.8098 
L 179.147519 18.708417 
L 179.757466 18.538046 
L 205.985194 18.391056 
L 226.11345 18.161584 
L 226.723398 17.42434 
L 240.142235 17.423161 
L 240.752182 17.144071 
L 245.021813 17.122445 
L 245.63176 16.796111 
L 248.071548 16.79479 
L 248.681496 16.472989 
L 249.90139 16.471016 
L 250.511337 16.274652 
L 253.561073 16.185311 
L 254.17102 15.809932 
L 265.150069 15.733778 
L 265.760016 15.806812 
L 266.369963 15.70506 
L 267.589858 15.798392 
L 283.448484 15.584209 
L 284.058431 15.349721 
L 287.718114 15.345481 
L 288.938009 15.180771 
L 298.697163 15.159894 
L 299.30711 14.983273 
L 299.917058 15.141936 
L 302.966793 15.164266 
L 304.186688 15.168413 
L 304.796635 15.052053 
L 306.016529 15.164249 
L 310.286159 15.163155 
L 312.116001 15.094953 
L 313.335895 15.17124 
L 315.165737 15.120671 
L 316.385631 15.176473 
L 317.605525 15.10949 
L 348.102884 15.007417 
L 349.932725 15.027152 
L 350.542673 14.96125 
L 351.762567 15.027555 
L 367.621193 15.015373 
L 367.621193 15.015373 
" clip-path="url(#pa9aa604047)" style="fill: none; stroke: #000000; stroke-linecap: square"/>
   </g>
   <g id="line2d_143">
    <path d="M 63.257557 186.596246 
L 63.867504 165.675802 
L 64.477451 158.213084 
L 65.087398 156.808757 
L 66.91724 143.883521 
L 67.527187 132.587338 
L 68.137134 136.841415 
L 68.747081 157.642221 
L 69.357028 155.721927 
L 69.966976 143.444284 
L 70.576923 140.230555 
L 71.18687 139.803751 
L 71.796817 131.398582 
L 72.406764 129.330808 
L 73.016711 109.135331 
L 73.626659 97.228416 
L 74.236606 87.815009 
L 74.846553 89.719825 
L 75.4565 87.088318 
L 76.066447 79.380779 
L 76.676394 90.626637 
L 77.896289 73.360736 
L 78.506236 88.523158 
L 79.116183 74.866738 
L 79.72613 77.032988 
L 80.336077 97.284792 
L 80.946025 86.663309 
L 81.555972 93.529058 
L 82.165919 81.689052 
L 82.775866 77.781132 
L 83.385813 78.514403 
L 83.99576 80.690303 
L 84.605708 74.587667 
L 85.215655 65.204578 
L 85.825602 60.330973 
L 86.435549 71.091101 
L 87.045496 64.079163 
L 87.655444 65.442224 
L 88.265391 63.472128 
L 88.875338 64.030638 
L 89.485285 57.138874 
L 90.095232 53.869188 
L 90.705179 44.993184 
L 91.315127 40.536795 
L 92.535021 54.397681 
L 93.144968 38.678769 
L 93.754915 33.422371 
L 94.364862 37.263466 
L 94.97481 46.438176 
L 95.584757 37.698214 
L 96.194704 38.890543 
L 96.804651 36.014492 
L 97.414598 33.911131 
L 98.024545 28.533788 
L 99.24444 37.884239 
L 99.854387 39.603387 
L 100.464334 33.463997 
L 101.074281 42.505763 
L 101.684228 29.584774 
L 102.294176 29.907622 
L 102.904123 30.530712 
L 103.51407 32.989293 
L 104.124017 33.619633 
L 104.733964 39.12797 
L 105.343911 27.511644 
L 105.953859 27.352371 
L 106.563806 36.435164 
L 107.173753 32.582653 
L 107.7837 27.920954 
L 108.393647 36.31749 
L 109.003594 34.567553 
L 109.613542 37.680256 
L 110.223489 37.724945 
L 110.833436 47.227143 
L 111.443383 46.807057 
L 112.05333 41.966607 
L 112.663277 47.01989 
L 113.273225 41.368146 
L 113.883172 33.434258 
L 115.103066 23.049118 
L 115.713013 26.186943 
L 116.932908 43.193663 
L 117.542855 34.500121 
L 118.762749 27.575137 
L 119.372696 29.389132 
L 119.982643 30.140771 
L 120.592591 30.097668 
L 121.202538 30.741415 
L 121.812485 32.547732 
L 122.422432 31.093557 
L 123.032379 32.760319 
L 123.642326 27.409956 
L 124.252274 26.382602 
L 124.862221 25.798661 
L 125.472168 27.664674 
L 126.082115 26.336865 
L 126.692062 28.512605 
L 127.302009 22.341474 
L 127.911957 23.188323 
L 128.521904 28.303466 
L 129.131851 30.17789 
L 129.741798 33.393591 
L 130.351745 33.467067 
L 130.961692 31.490372 
L 131.57164 26.226921 
L 132.181587 26.858361 
L 132.791534 24.22126 
L 133.401481 25.982867 
L 134.011428 22.386884 
L 134.621375 27.24657 
L 135.231323 26.660398 
L 135.84127 28.470073 
L 136.451217 32.760756 
L 137.061164 31.990327 
L 138.281058 27.564756 
L 138.891006 33.340495 
L 139.500953 27.004885 
L 140.1109 28.745839 
L 140.720847 24.886908 
L 141.330794 31.924127 
L 141.940741 30.360578 
L 142.550689 27.919509 
L 143.160636 26.407668 
L 143.770583 31.515559 
L 144.38053 30.366838 
L 144.990477 23.574796 
L 145.600424 21.391757 
L 146.210372 20.730602 
L 146.820319 27.361385 
L 147.430266 30.074036 
L 148.040213 34.123813 
L 148.65016 39.639128 
L 149.260107 27.079071 
L 149.870055 30.179985 
L 150.480002 26.784101 
L 151.089949 31.730502 
L 151.699896 32.388459 
L 152.309843 36.24195 
L 152.91979 27.892853 
L 153.529738 27.124376 
L 154.139685 29.824779 
L 154.749632 36.999133 
L 155.359579 38.940462 
L 155.969526 27.536069 
L 156.579473 24.935063 
L 157.189421 29.010226 
L 157.799368 34.58752 
L 158.409315 26.621924 
L 159.019262 29.541365 
L 159.629209 26.851365 
L 160.239156 34.261107 
L 160.849104 34.550677 
L 161.459051 36.268091 
L 162.068998 29.032764 
L 162.678945 34.417095 
L 163.288892 32.739152 
L 163.898839 27.822014 
L 164.508787 27.501611 
L 165.118734 30.195368 
L 165.728681 30.969224 
L 166.338628 32.412058 
L 166.948575 35.967982 
L 167.558522 40.192432 
L 168.16847 39.973023 
L 168.778417 40.763835 
L 169.388364 42.091338 
L 169.998311 47.217752 
L 170.608258 43.086146 
L 171.218205 42.076776 
L 172.4381 29.200707 
L 173.048047 32.064212 
L 173.657994 32.266794 
L 174.267941 30.459916 
L 174.877888 31.449003 
L 175.487836 29.795388 
L 176.097783 34.439558 
L 176.70773 41.595107 
L 177.927624 35.128666 
L 178.537571 35.153236 
L 179.147519 33.783617 
L 179.757466 32.904745 
L 180.367413 37.391968 
L 180.97736 32.424852 
L 181.587307 34.760842 
L 182.197254 50.221171 
L 182.807202 46.274308 
L 183.417149 43.631448 
L 184.027096 34.210991 
L 184.637043 37.74374 
L 185.24699 42.971585 
L 185.856937 45.29614 
L 187.076832 54.505027 
L 187.686779 49.865299 
L 188.296726 35.805191 
L 188.906673 34.034097 
L 189.51662 34.446537 
L 190.126568 31.23241 
L 190.736515 25.630079 
L 191.346462 27.733191 
L 191.956409 25.075655 
L 192.566356 24.071631 
L 193.176303 23.749988 
L 193.786251 26.271957 
L 194.396198 33.793596 
L 195.006145 37.159959 
L 195.616092 33.554164 
L 196.226039 27.353457 
L 196.835986 38.920373 
L 197.445934 31.899995 
L 198.055881 30.06988 
L 198.665828 31.120696 
L 199.275775 26.212386 
L 199.885722 28.515009 
L 200.495669 26.474405 
L 201.105617 27.329021 
L 201.715564 36.917202 
L 202.325511 33.322013 
L 202.935458 34.44568 
L 203.545405 28.973069 
L 204.155352 36.559075 
L 204.7653 46.534 
L 205.375247 42.128841 
L 205.985194 42.172095 
L 206.595141 35.682499 
L 207.205088 31.306169 
L 207.815035 30.333034 
L 208.424983 29.012822 
L 209.03493 30.582424 
L 209.644877 29.461788 
L 210.254824 30.242155 
L 210.864771 32.076736 
L 211.474718 26.184758 
L 212.084666 25.118667 
L 212.694613 33.470987 
L 213.30456 35.827464 
L 213.914507 46.556474 
L 214.524454 37.816836 
L 215.134401 41.101995 
L 215.744349 43.374197 
L 216.354296 52.004969 
L 216.964243 39.821954 
L 217.57419 41.146621 
L 218.184137 38.435866 
L 218.794084 36.912228 
L 219.404032 36.117408 
L 220.013979 35.069757 
L 220.623926 40.220301 
L 221.233873 28.45479 
L 221.84382 30.92965 
L 222.453767 26.449912 
L 223.673662 24.048619 
L 224.283609 26.624078 
L 224.893556 28.020437 
L 225.503503 23.634781 
L 226.11345 30.477322 
L 226.723398 32.116126 
L 227.333345 32.871005 
L 227.943292 30.195465 
L 228.553239 31.544445 
L 229.163186 36.402534 
L 229.773133 34.832587 
L 230.383081 32.885028 
L 230.993028 26.461908 
L 232.212922 31.582881 
L 232.822869 26.535278 
L 233.432816 25.293225 
L 234.042764 29.103994 
L 234.652711 24.347314 
L 235.262658 28.762562 
L 235.872605 29.60258 
L 236.482552 28.184205 
L 237.092499 32.661932 
L 237.702447 40.507037 
L 238.312394 39.764859 
L 238.922341 37.04597 
L 239.532288 42.956755 
L 240.142235 41.185361 
L 240.752182 36.615217 
L 241.36213 42.694766 
L 241.972077 36.771879 
L 242.582024 36.682022 
L 243.191971 38.47687 
L 243.801918 29.872759 
L 244.411865 33.353405 
L 245.021813 41.555743 
L 245.63176 37.13746 
L 246.241707 39.231859 
L 246.851654 32.349179 
L 247.461601 34.122791 
L 248.071548 37.06745 
L 248.681496 47.759486 
L 250.511337 41.392229 
L 251.121284 47.521724 
L 251.731231 47.599663 
L 252.341179 48.356103 
L 252.951126 42.774779 
L 253.561073 40.175862 
L 254.17102 53.858339 
L 254.780967 41.177884 
L 255.390914 34.730027 
L 256.000862 24.736636 
L 256.610809 29.791202 
L 257.220756 30.633865 
L 257.830703 30.298861 
L 258.44065 32.450813 
L 259.050597 35.848213 
L 259.660545 34.94931 
L 260.270492 29.690269 
L 260.880439 27.783592 
L 261.490386 28.741776 
L 262.100333 34.049038 
L 262.71028 34.313377 
L 263.320228 36.308246 
L 263.930175 39.435918 
L 265.150069 27.807422 
L 265.760016 27.906524 
L 266.369963 34.353735 
L 266.979911 37.757066 
L 267.589858 37.414255 
L 268.199805 46.216709 
L 268.809752 36.944694 
L 269.419699 30.553414 
L 270.029646 37.856309 
L 270.639594 39.955114 
L 271.249541 34.175054 
L 271.859488 34.621554 
L 272.469435 32.307279 
L 273.079382 27.372362 
L 273.689329 24.0732 
L 274.299277 31.296167 
L 274.909224 20.967086 
L 275.519171 20.440364 
L 276.739065 27.796396 
L 277.349012 28.091275 
L 277.95896 29.751695 
L 278.568907 30.373625 
L 279.178854 36.438657 
L 279.788801 28.389204 
L 280.398748 27.992564 
L 281.618643 22.942145 
L 282.22859 20.489373 
L 282.838537 20.825132 
L 283.448484 19.9396 
L 284.058431 19.774923 
L 284.668378 23.274837 
L 285.278326 21.868696 
L 286.49822 28.602013 
L 287.108167 37.4247 
L 287.718114 33.421322 
L 288.328061 37.215128 
L 288.938009 35.86399 
L 289.547956 37.048461 
L 290.157903 31.910865 
L 290.76785 35.896292 
L 291.377797 33.015344 
L 291.987744 24.789451 
L 292.597692 26.270148 
L 293.207639 28.240851 
L 293.817586 24.036645 
L 294.427533 23.127853 
L 295.03748 19.10045 
L 295.647427 18.860746 
L 296.257375 27.63164 
L 296.867322 28.178131 
L 297.477269 24.157581 
L 298.087216 28.426609 
L 298.697163 31.155376 
L 299.30711 28.822009 
L 299.917058 31.61571 
L 300.527005 28.652159 
L 301.136952 29.731804 
L 301.746899 36.053723 
L 302.356846 23.847558 
L 302.966793 21.272058 
L 303.576741 35.676444 
L 304.186688 28.514649 
L 304.796635 33.507997 
L 305.406582 35.129703 
L 306.016529 26.547279 
L 306.626476 29.906952 
L 307.236424 35.756036 
L 307.846371 24.692588 
L 308.456318 31.949342 
L 309.066265 19.80262 
L 309.676212 19.435514 
L 310.286159 22.953196 
L 310.896107 22.554734 
L 311.506054 27.393283 
L 312.116001 29.713945 
L 312.725948 20.538512 
L 313.335895 19.404517 
L 313.945842 23.613183 
L 314.55579 28.837679 
L 315.165737 27.596742 
L 315.775684 33.220008 
L 316.385631 29.762545 
L 316.995578 32.494579 
L 317.605525 38.28691 
L 318.215473 34.408139 
L 318.82542 31.384413 
L 319.435367 35.548995 
L 320.045314 38.572137 
L 320.655261 37.62082 
L 321.265208 42.125794 
L 322.485103 26.850084 
L 323.09505 26.141433 
L 323.704997 28.736545 
L 324.314944 31.954604 
L 324.924891 41.932638 
L 325.534839 34.921282 
L 326.144786 30.031801 
L 326.754733 31.912475 
L 327.36468 30.621019 
L 327.974627 26.550145 
L 328.584574 27.315507 
L 329.194522 26.241516 
L 329.804469 29.084811 
L 330.414416 33.205442 
L 331.024363 30.641196 
L 331.63431 35.065717 
L 332.244257 30.637447 
L 332.854205 28.289923 
L 333.464152 28.340261 
L 334.074099 26.045448 
L 334.684046 31.623851 
L 335.293993 34.943616 
L 335.90394 41.037771 
L 336.513888 38.613756 
L 337.123835 42.009346 
L 337.733782 35.861025 
L 338.343729 31.646862 
L 338.953676 38.26367 
L 339.563623 29.331774 
L 340.173571 33.298203 
L 340.783518 33.141659 
L 341.393465 28.708026 
L 342.003412 25.690409 
L 342.613359 29.157691 
L 343.223306 16.598261 
L 343.833254 22.881824 
L 344.443201 27.744292 
L 345.053148 40.803038 
L 345.663095 38.231348 
L 346.273042 28.978729 
L 347.492937 25.110163 
L 348.102884 26.592154 
L 348.712831 36.06146 
L 349.322778 25.126823 
L 349.932725 20.962 
L 350.542673 21.872153 
L 351.15262 23.311102 
L 351.762567 27.866248 
L 352.372514 24.344489 
L 352.982461 23.327803 
L 353.592408 20.377129 
L 354.202356 26.158475 
L 354.812303 28.436913 
L 355.42225 25.634199 
L 356.032197 27.512724 
L 356.642144 24.2886 
L 357.252091 24.610609 
L 357.862039 27.498477 
L 358.471986 28.401347 
L 359.081933 39.000884 
L 359.69188 31.127395 
L 360.301827 30.770794 
L 360.911774 25.496408 
L 361.521722 27.634843 
L 362.131669 24.883034 
L 362.741616 19.327746 
L 363.351563 20.161193 
L 363.96151 21.325401 
L 364.571457 26.261606 
L 365.181405 36.140473 
L 366.401299 25.167028 
L 367.011246 17.917374 
L 367.621193 20.160897 
L 367.621193 20.160897 
" clip-path="url(#pa9aa604047)" style="fill: none; stroke-dasharray: 3.7,1.6; stroke-dashoffset: 0; stroke: #000000"/>
   </g>
   <g id="patch_3">
    <path d="M 48.039375 253.08 
L 48.039375 3.6 
" style="fill: none; stroke: #000000; stroke-width: 0.5; stroke-linejoin: miter; stroke-linecap: square"/>
   </g>
   <g id="patch_4">
    <path d="M 382.839375 253.08 
L 382.839375 3.6 
" style="fill: none; stroke: #000000; stroke-width: 0.5; stroke-linejoin: miter; stroke-linecap: square"/>
   </g>
   <g id="patch_5">
    <path d="M 48.039375 253.08 
L 382.839375 253.08 
" style="fill: none; stroke: #000000; stroke-width: 0.5; stroke-linejoin: miter; stroke-linecap: square"/>
   </g>
   <g id="patch_6">
    <path d="M 48.039375 3.6 
L 382.839375 3.6 
" style="fill: none; stroke: #000000; stroke-width: 0.5; stroke-linejoin: miter; stroke-linecap: square"/>
   </g>
   <g id="legend_1">
    <g id="patch_7">
     <path d="M 256.633125 247.08 
L 374.439375 247.08 
Q 376.839375 247.08 376.839375 244.68 
L 376.839375 193.03875 
Q 376.839375 190.63875 374.439375 190.63875 
L 256.633125 190.63875 
Q 254.233125 190.63875 254.233125 193.03875 
L 254.233125 244.68 
Q 254.233125 247.08 256.633125 247.08 
z
" style="fill: #ffffff; opacity: 0.8; stroke: #cccccc; stroke-linejoin: miter"/>
    </g>
    <g id="line2d_144">
     <path d="M 259.033125 200.356875 
L 271.033125 200.356875 
L 283.033125 200.356875 
" style="fill: none; stroke: #000000; stroke-linecap: square"/>
    </g>
    <g id="text_16">
     <!-- Max fitness -->
     <g transform="translate(292.633125 204.556875) scale(0.12 -0.12)">
      <defs>
       <path id="DejaVuSans-4d" d="M 628 4666 
L 1569 4666 
L 2759 1491 
L 3956 4666 
L 4897 4666 
L 4897 0 
L 4281 0 
L 4281 4097 
L 3078 897 
L 2444 897 
L 1241 4097 
L 1241 0 
L 628 0 
L 628 4666 
z
" transform="scale(0.015625)"/>
       <path id="DejaVuSans-78" d="M 3513 3500 
L 2247 1797 
L 3578 0 
L 2900 0 
L 1881 1375 
L 863 0 
L 184 0 
L 1544 1831 
L 300 3500 
L 978 3500 
L 1906 2253 
L 2834 3500 
L 3513 3500 
z
" transform="scale(0.015625)"/>
       <path id="DejaVuSans-20" transform="scale(0.015625)"/>
       <path id="DejaVuSans-66" d="M 2375 4863 
L 2375 4384 
L 1825 4384 
Q 1516 4384 1395 4259 
Q 1275 4134 1275 3809 
L 1275 3500 
L 2222 3500 
L 2222 3053 
L 1275 3053 
L 1275 0 
L 697 0 
L 697 3053 
L 147 3053 
L 147 3500 
L 697 3500 
L 697 3744 
Q 697 4328 969 4595 
Q 1241 4863 1831 4863 
L 2375 4863 
z
" transform="scale(0.015625)"/>
      </defs>
      <use xlink:href="#DejaVuSans-4d"/>
      <use xlink:href="#DejaVuSans-61" x="86.279297"/>
      <use xlink:href="#DejaVuSans-78" x="147.558594"/>
      <use xlink:href="#DejaVuSans-20" x="206.738281"/>
      <use xlink:href="#DejaVuSans-66" x="238.525391"/>
      <use xlink:href="#DejaVuSans-69" x="273.730469"/>
      <use xlink:href="#DejaVuSans-74" x="301.513672"/>
      <use xlink:href="#DejaVuSans-6e" x="340.722656"/>
      <use xlink:href="#DejaVuSans-65" x="404.101562"/>
      <use xlink:href="#DejaVuSans-73" x="465.625"/>
      <use xlink:href="#DejaVuSans-73" x="517.724609"/>
     </g>
    </g>
    <g id="patch_8">
     <path d="M 259.033125 222.170625 
L 283.033125 222.170625 
L 283.033125 213.770625 
L 259.033125 213.770625 
z
" style="fill: #0000ff; fill-opacity: 0.2; stroke: #0000ff; stroke-opacity: 0.2; stroke-linejoin: miter"/>
    </g>
    <g id="text_17">
     <!-- Top 90% -->
     <g transform="translate(292.633125 222.170625) scale(0.12 -0.12)">
      <defs>
       <path id="DejaVuSans-54" d="M -19 4666 
L 3928 4666 
L 3928 4134 
L 2272 4134 
L 2272 0 
L 1638 0 
L 1638 4134 
L -19 4134 
L -19 4666 
z
" transform="scale(0.015625)"/>
       <path id="DejaVuSans-70" d="M 1159 525 
L 1159 -1331 
L 581 -1331 
L 581 3500 
L 1159 3500 
L 1159 2969 
Q 1341 3281 1617 3432 
Q 1894 3584 2278 3584 
Q 2916 3584 3314 3078 
Q 3713 2572 3713 1747 
Q 3713 922 3314 415 
Q 2916 -91 2278 -91 
Q 1894 -91 1617 61 
Q 1341 213 1159 525 
z
M 3116 1747 
Q 3116 2381 2855 2742 
Q 2594 3103 2138 3103 
Q 1681 3103 1420 2742 
Q 1159 2381 1159 1747 
Q 1159 1113 1420 752 
Q 1681 391 2138 391 
Q 2594 391 2855 752 
Q 3116 1113 3116 1747 
z
" transform="scale(0.015625)"/>
       <path id="DejaVuSans-39" d="M 703 97 
L 703 672 
Q 941 559 1184 500 
Q 1428 441 1663 441 
Q 2288 441 2617 861 
Q 2947 1281 2994 2138 
Q 2813 1869 2534 1725 
Q 2256 1581 1919 1581 
Q 1219 1581 811 2004 
Q 403 2428 403 3163 
Q 403 3881 828 4315 
Q 1253 4750 1959 4750 
Q 2769 4750 3195 4129 
Q 3622 3509 3622 2328 
Q 3622 1225 3098 567 
Q 2575 -91 1691 -91 
Q 1453 -91 1209 -44 
Q 966 3 703 97 
z
M 1959 2075 
Q 2384 2075 2632 2365 
Q 2881 2656 2881 3163 
Q 2881 3666 2632 3958 
Q 2384 4250 1959 4250 
Q 1534 4250 1286 3958 
Q 1038 3666 1038 3163 
Q 1038 2656 1286 2365 
Q 1534 2075 1959 2075 
z
" transform="scale(0.015625)"/>
       <path id="DejaVuSans-25" d="M 4653 2053 
Q 4381 2053 4226 1822 
Q 4072 1591 4072 1178 
Q 4072 772 4226 539 
Q 4381 306 4653 306 
Q 4919 306 5073 539 
Q 5228 772 5228 1178 
Q 5228 1588 5073 1820 
Q 4919 2053 4653 2053 
z
M 4653 2450 
Q 5147 2450 5437 2106 
Q 5728 1763 5728 1178 
Q 5728 594 5436 251 
Q 5144 -91 4653 -91 
Q 4153 -91 3862 251 
Q 3572 594 3572 1178 
Q 3572 1766 3864 2108 
Q 4156 2450 4653 2450 
z
M 1428 4353 
Q 1159 4353 1004 4120 
Q 850 3888 850 3481 
Q 850 3069 1003 2837 
Q 1156 2606 1428 2606 
Q 1700 2606 1854 2837 
Q 2009 3069 2009 3481 
Q 2009 3884 1853 4118 
Q 1697 4353 1428 4353 
z
M 4250 4750 
L 4750 4750 
L 1831 -91 
L 1331 -91 
L 4250 4750 
z
M 1428 4750 
Q 1922 4750 2215 4408 
Q 2509 4066 2509 3481 
Q 2509 2891 2217 2550 
Q 1925 2209 1428 2209 
Q 931 2209 642 2551 
Q 353 2894 353 3481 
Q 353 4063 643 4406 
Q 934 4750 1428 4750 
z
" transform="scale(0.015625)"/>
      </defs>
      <use xlink:href="#DejaVuSans-54"/>
      <use xlink:href="#DejaVuSans-6f" x="44.083984"/>
      <use xlink:href="#DejaVuSans-70" x="105.265625"/>
      <use xlink:href="#DejaVuSans-20" x="168.742188"/>
      <use xlink:href="#DejaVuSans-39" x="200.529297"/>
      <use xlink:href="#DejaVuSans-30" x="264.152344"/>
      <use xlink:href="#DejaVuSans-25" x="327.775391"/>
     </g>
    </g>
    <g id="line2d_145">
     <path d="M 259.033125 235.584375 
L 271.033125 235.584375 
L 283.033125 235.584375 
" style="fill: none; stroke-dasharray: 3.7,1.6; stroke-dashoffset: 0; stroke: #000000"/>
    </g>
    <g id="text_18">
     <!-- Fitness mean -->
     <g transform="translate(292.633125 239.784375) scale(0.12 -0.12)">
      <defs>
       <path id="DejaVuSans-6d" d="M 3328 2828 
Q 3544 3216 3844 3400 
Q 4144 3584 4550 3584 
Q 5097 3584 5394 3201 
Q 5691 2819 5691 2113 
L 5691 0 
L 5113 0 
L 5113 2094 
Q 5113 2597 4934 2840 
Q 4756 3084 4391 3084 
Q 3944 3084 3684 2787 
Q 3425 2491 3425 1978 
L 3425 0 
L 2847 0 
L 2847 2094 
Q 2847 2600 2669 2842 
Q 2491 3084 2119 3084 
Q 1678 3084 1418 2786 
Q 1159 2488 1159 1978 
L 1159 0 
L 581 0 
L 581 3500 
L 1159 3500 
L 1159 2956 
Q 1356 3278 1631 3431 
Q 1906 3584 2284 3584 
Q 2666 3584 2933 3390 
Q 3200 3197 3328 2828 
z
" transform="scale(0.015625)"/>
      </defs>
      <use xlink:href="#DejaVuSans-46"/>
      <use xlink:href="#DejaVuSans-69" x="50.269531"/>
      <use xlink:href="#DejaVuSans-74" x="78.052734"/>
      <use xlink:href="#DejaVuSans-6e" x="117.261719"/>
      <use xlink:href="#DejaVuSans-65" x="180.640625"/>
      <use xlink:href="#DejaVuSans-73" x="242.164062"/>
      <use xlink:href="#DejaVuSans-73" x="294.263672"/>
      <use xlink:href="#DejaVuSans-20" x="346.363281"/>
      <use xlink:href="#DejaVuSans-6d" x="378.150391"/>
      <use xlink:href="#DejaVuSans-65" x="475.5625"/>
      <use xlink:href="#DejaVuSans-61" x="537.085938"/>
      <use xlink:href="#DejaVuSans-6e" x="598.365234"/>
     </g>
    </g>
   </g>
  </g>
 </g>
 <defs>
  <clipPath id="pa9aa604047">
   <rect x="48.039375" y="3.6" width="334.8" height="249.48"/>
  </clipPath>
 </defs>
</svg>
