<?xml version="1.0" encoding="utf-8" standalone="no"?>
<!DOCTYPE svg PUBLIC "-//W3C//DTD SVG 1.1//EN"
  "http://www.w3.org/Graphics/SVG/1.1/DTD/svg11.dtd">
<svg xmlns:xlink="http://www.w3.org/1999/xlink" width="386.439375pt" height="287.4075pt" viewBox="0 0 386.439375 287.4075" xmlns="http://www.w3.org/2000/svg" version="1.1">
 <metadata>
  <rdf:RDF xmlns:dc="http://purl.org/dc/elements/1.1/" xmlns:cc="http://creativecommons.org/ns#" xmlns:rdf="http://www.w3.org/1999/02/22-rdf-syntax-ns#">
   <cc:Work>
    <dc:type rdf:resource="http://purl.org/dc/dcmitype/StillImage"/>
    <dc:date>2024-06-25T10:22:02.240117</dc:date>
    <dc:format>image/svg+xml</dc:format>
    <dc:creator>
     <cc:Agent>
      <dc:title>Matplotlib v3.9.0, https://matplotlib.org/</dc:title>
     </cc:Agent>
    </dc:creator>
   </cc:Work>
  </rdf:RDF>
 </metadata>
 <defs>
  <style type="text/css">*{stroke-linejoin: round; stroke-linecap: butt}</style>
 </defs>
 <g id="figure_1">
  <g id="patch_1">
   <path d="M 0 287.4075 
L 386.439375 287.4075 
L 386.439375 0 
L 0 0 
z
" style="fill: #ffffff"/>
  </g>
  <g id="axes_1">
   <g id="patch_2">
    <path d="M 48.039375 253.08 
L 382.839375 253.08 
L 382.839375 3.6 
L 48.039375 3.6 
z
" style="fill: #ffffff"/>
   </g>
   <g id="PolyCollection_1">
    <defs>
     <path id="m1ab9de3d64" d="M 63.257557 -246.212025 
L 63.257557 -79.126534 
L 63.867504 -45.6675 
L 64.477451 -65.118525 
L 65.087398 -132.6644 
L 65.697345 -138.733823 
L 66.307293 -130.732902 
L 66.91724 -118.750527 
L 67.527187 -128.568583 
L 68.137134 -117.505466 
L 68.747081 -104.189886 
L 69.357028 -106.816769 
L 69.966976 -113.248119 
L 70.576923 -117.343419 
L 71.18687 -116.620176 
L 71.796817 -127.251077 
L 72.406764 -113.25973 
L 73.016711 -122.604884 
L 73.626659 -117.255938 
L 74.236606 -131.790159 
L 74.846553 -131.790159 
L 75.4565 -131.790159 
L 76.066447 -138.914755 
L 76.676394 -145.75272 
L 77.286342 -142.232521 
L 77.896289 -144.176198 
L 78.506236 -151.794958 
L 79.116183 -148.796243 
L 79.72613 -149.864744 
L 80.336077 -155.702853 
L 80.946025 -153.565569 
L 81.555972 -153.249817 
L 82.165919 -152.916734 
L 82.775866 -139.011981 
L 83.385813 -147.834074 
L 83.99576 -153.142678 
L 84.605708 -154.475105 
L 85.215655 -153.88002 
L 85.825602 -156.593807 
L 86.435549 -159.581287 
L 87.045496 -162.810095 
L 87.655444 -154.828387 
L 88.265391 -158.694326 
L 88.875338 -161.268066 
L 89.485285 -165.548128 
L 90.095232 -165.272298 
L 90.705179 -165.450214 
L 91.315127 -160.322859 
L 91.925074 -158.43661 
L 92.535021 -162.177052 
L 93.144968 -165.370267 
L 93.754915 -165.964536 
L 94.364862 -170.317741 
L 94.97481 -170.005276 
L 95.584757 -171.323325 
L 96.194704 -171.323325 
L 96.804651 -166.551734 
L 97.414598 -169.272391 
L 98.024545 -167.358886 
L 98.634493 -170.397629 
L 99.24444 -169.881708 
L 99.854387 -165.979512 
L 100.464334 -168.898487 
L 101.074281 -171.530254 
L 101.684228 -170.089 
L 102.294176 -171.443905 
L 102.904123 -174.880754 
L 103.51407 -213.654833 
L 104.124017 -215.046238 
L 104.733964 -244.81799 
L 105.343911 -217.019199 
L 105.953859 -250.927443 
L 106.563806 -256.621091 
L 107.173753 -257.610823 
L 107.7837 -256.774743 
L 108.393647 -258.905951 
L 109.003594 -258.390733 
L 109.613542 -258.408177 
L 110.223489 -256.343224 
L 110.833436 -256.720353 
L 111.443383 -254.587504 
L 112.05333 -254.111854 
L 112.663277 -256.102159 
L 113.273225 -258.927491 
L 113.883172 -255.854978 
L 114.493119 -258.034795 
L 115.103066 -256.668091 
L 115.713013 -256.580847 
L 116.32296 -255.921456 
L 116.932908 -257.667989 
L 117.542855 -259.455078 
L 118.152802 -258.380295 
L 118.762749 -257.140933 
L 119.372696 -258.918062 
L 119.982643 -259.101686 
L 120.592591 -260.185191 
L 121.202538 -260.050819 
L 121.812485 -260.604175 
L 122.422432 -260.151901 
L 123.032379 -260.633112 
L 123.642326 -259.974288 
L 124.252274 -258.161321 
L 124.862221 -259.327289 
L 125.472168 -259.230094 
L 126.082115 -259.595379 
L 126.692062 -259.710078 
L 127.302009 -260.873109 
L 127.911957 -261.487561 
L 128.521904 -259.831038 
L 129.131851 -260.473631 
L 129.741798 -260.636384 
L 130.351745 -260.830815 
L 130.961692 -261.826111 
L 131.57164 -261.21418 
L 132.181587 -261.854274 
L 132.791534 -262.084892 
L 133.401481 -262.029798 
L 134.011428 -263.124363 
L 134.621375 -263.785654 
L 135.231323 -264.034936 
L 135.84127 -265.036002 
L 136.451217 -264.147664 
L 137.061164 -264.561368 
L 137.671111 -263.565596 
L 138.281058 -263.585613 
L 138.891006 -263.524852 
L 139.500953 -262.662929 
L 140.1109 -262.478227 
L 140.720847 -262.743561 
L 141.330794 -262.980384 
L 141.940741 -264.373668 
L 142.550689 -263.725933 
L 143.160636 -264.076971 
L 143.770583 -264.370396 
L 144.38053 -264.199226 
L 144.990477 -262.619932 
L 145.600424 -263.963371 
L 146.210372 -263.527993 
L 146.820319 -264.498692 
L 147.430266 -264.942766 
L 148.040213 -264.554776 
L 148.65016 -264.764549 
L 149.260107 -262.789157 
L 149.870055 -265.198035 
L 150.480002 -264.956916 
L 151.089949 -266.420933 
L 151.699896 -267.641301 
L 152.309843 -266.120296 
L 152.91979 -263.075561 
L 153.529738 -265.69602 
L 154.139685 -266.716934 
L 154.749632 -267.859249 
L 155.359579 -265.870958 
L 155.969526 -265.62123 
L 156.579473 -265.252877 
L 157.189421 -265.235636 
L 157.799368 -266.346189 
L 158.409315 -267.826665 
L 159.019262 -267.878392 
L 159.629209 -267.471254 
L 160.239156 -267.405931 
L 160.849104 -267.34023 
L 161.459051 -267.215808 
L 162.068998 -266.614599 
L 162.678945 -266.354832 
L 163.288892 -265.994513 
L 163.898839 -267.134496 
L 164.508787 -267.377695 
L 165.118734 -268.967076 
L 165.728681 -266.770603 
L 166.338628 -267.070894 
L 166.948575 -265.483392 
L 167.558522 -265.125672 
L 168.16847 -263.1286 
L 168.778417 -264.252447 
L 169.388364 -267.457492 
L 169.998311 -266.265427 
L 170.608258 -265.359506 
L 171.218205 -265.697195 
L 171.828153 -265.031076 
L 172.4381 -264.89411 
L 173.048047 -265.383051 
L 173.657994 -266.95462 
L 174.267941 -267.200476 
L 174.877888 -266.865677 
L 175.487836 -266.935243 
L 176.097783 -265.797717 
L 176.70773 -264.391152 
L 177.317677 -266.853793 
L 177.927624 -266.699839 
L 178.537571 -265.45838 
L 179.147519 -265.150376 
L 179.757466 -266.709414 
L 180.367413 -267.837047 
L 180.97736 -266.318614 
L 181.587307 -265.416472 
L 182.197254 -264.781238 
L 182.807202 -264.831144 
L 183.417149 -265.254225 
L 184.027096 -264.901058 
L 184.637043 -264.570686 
L 185.24699 -264.570689 
L 185.856937 -263.756241 
L 186.466885 -262.844341 
L 187.076832 -264.903278 
L 187.686779 -264.903282 
L 188.296726 -266.685801 
L 188.906673 -265.345591 
L 189.51662 -265.361572 
L 190.126568 -265.607754 
L 190.736515 -265.75815 
L 191.346462 -265.647336 
L 191.956409 -265.598681 
L 192.566356 -264.537228 
L 193.176303 -267.588324 
L 193.786251 -266.094962 
L 194.396198 -263.426189 
L 195.006145 -263.426199 
L 195.616092 -263.193864 
L 196.226039 -262.461013 
L 196.835986 -262.937931 
L 197.445934 -262.937926 
L 198.055881 -263.335415 
L 198.665828 -262.150129 
L 199.275775 -263.519471 
L 199.885722 -265.569842 
L 200.495669 -264.927345 
L 201.105617 -264.491989 
L 201.715564 -264.575895 
L 202.325511 -264.927369 
L 202.935458 -263.99511 
L 203.545405 -263.902645 
L 204.155352 -265.790758 
L 204.7653 -266.451804 
L 205.375247 -265.724132 
L 205.985194 -265.186647 
L 206.595141 -265.920209 
L 207.205088 -266.330011 
L 207.815035 -267.168746 
L 208.424983 -267.205533 
L 209.03493 -264.569934 
L 209.644877 -266.389963 
L 210.254824 -264.24522 
L 210.864771 -265.293459 
L 211.474718 -266.291523 
L 212.084666 -266.966614 
L 212.694613 -266.839076 
L 213.30456 -266.850105 
L 213.914507 -266.542165 
L 214.524454 -266.012756 
L 215.134401 -266.518498 
L 215.744349 -266.915207 
L 216.354296 -266.801877 
L 216.964243 -266.674807 
L 217.57419 -265.395177 
L 218.184137 -265.66833 
L 218.794084 -265.728863 
L 219.404032 -266.012774 
L 220.013979 -265.134901 
L 220.623926 -265.462821 
L 221.233873 -264.874741 
L 221.84382 -264.997882 
L 222.453767 -263.712744 
L 223.063715 -265.536976 
L 223.673662 -263.93996 
L 224.283609 -263.101989 
L 224.893556 -265.756007 
L 225.503503 -264.306601 
L 226.11345 -263.464175 
L 226.723398 -265.391747 
L 227.333345 -264.718963 
L 227.943292 -265.758566 
L 228.553239 -265.348906 
L 229.163186 -266.017695 
L 229.773133 -264.276385 
L 230.383081 -264.066742 
L 230.993028 -264.116739 
L 231.602975 -263.757266 
L 232.212922 -263.17456 
L 232.822869 -263.485251 
L 233.432816 -263.540181 
L 234.042764 -263.485249 
L 234.652711 -262.906342 
L 235.262658 -262.867522 
L 235.872605 -262.747707 
L 236.482552 -261.292305 
L 237.092499 -264.565303 
L 237.702447 -265.387924 
L 238.312394 -265.226361 
L 238.922341 -266.030347 
L 239.532288 -266.141651 
L 240.142235 -263.115954 
L 240.752182 -262.938791 
L 241.36213 -262.816379 
L 241.972077 -262.938791 
L 242.582024 -263.929002 
L 243.191971 -263.275139 
L 243.801918 -264.481962 
L 244.411865 -264.518313 
L 245.021813 -263.459484 
L 245.63176 -264.869224 
L 246.241707 -264.638066 
L 246.851654 -265.329107 
L 247.461601 -265.775356 
L 248.071548 -263.618644 
L 248.681496 -265.478357 
L 249.291443 -266.645116 
L 249.90139 -265.975656 
L 250.511337 -264.349324 
L 251.121284 -265.690787 
L 251.731231 -267.739702 
L 252.341179 -267.754414 
L 252.951126 -267.346527 
L 253.561073 -266.956058 
L 254.17102 -266.233751 
L 254.780967 -265.495768 
L 255.390914 -263.953431 
L 256.000862 -264.016278 
L 256.610809 -263.619199 
L 257.220756 -263.345195 
L 257.830703 -263.646514 
L 258.44065 -264.506549 
L 259.050597 -265.737276 
L 259.660545 -264.497254 
L 260.270492 -264.42883 
L 260.880439 -263.721581 
L 261.490386 -264.399464 
L 262.100333 -263.143081 
L 262.71028 -263.149107 
L 263.320228 -259.367319 
L 263.930175 -258.588491 
L 264.540122 -263.646515 
L 265.150069 -263.646529 
L 265.760016 -264.376482 
L 266.369963 -263.646538 
L 266.979911 -263.702932 
L 267.589858 -263.494286 
L 268.199805 -264.10107 
L 268.809752 -263.873829 
L 269.419699 -262.751454 
L 270.029646 -263.376938 
L 270.639594 -263.454405 
L 271.249541 -264.016517 
L 271.859488 -266.249655 
L 272.469435 -264.678832 
L 273.079382 -265.739209 
L 273.689329 -266.855047 
L 274.299277 -265.22039 
L 274.909224 -263.412761 
L 275.519171 -263.699217 
L 276.129118 -264.95929 
L 276.739065 -264.076471 
L 277.349012 -264.959212 
L 277.95896 -264.253673 
L 278.568907 -265.725712 
L 279.178854 -265.346791 
L 279.788801 -265.362477 
L 280.398748 -266.151984 
L 281.008695 -266.920461 
L 281.618643 -266.004512 
L 282.22859 -266.676209 
L 282.838537 -265.970823 
L 283.448484 -266.736703 
L 284.058431 -267.884168 
L 284.668378 -268.78671 
L 285.278326 -269.064574 
L 285.888273 -268.915342 
L 286.49822 -267.906278 
L 287.108167 -266.679822 
L 287.718114 -266.974617 
L 288.328061 -266.588414 
L 288.938009 -266.988294 
L 289.547956 -267.315126 
L 290.157903 -266.813047 
L 290.76785 -266.163913 
L 291.377797 -265.729603 
L 291.987744 -265.729609 
L 292.597692 -265.642613 
L 293.207639 -266.027847 
L 293.817586 -267.002022 
L 294.427533 -267.11727 
L 295.03748 -266.138622 
L 295.647427 -266.927523 
L 296.257375 -265.886646 
L 296.867322 -265.622889 
L 297.477269 -265.845555 
L 298.087216 -266.307498 
L 298.697163 -265.808768 
L 299.30711 -267.062476 
L 299.917058 -267.062474 
L 300.527005 -267.386818 
L 301.136952 -268.011857 
L 301.746899 -268.604284 
L 302.356846 -267.126477 
L 302.966793 -266.132074 
L 303.576741 -266.441749 
L 304.186688 -266.849154 
L 304.796635 -266.37022 
L 305.406582 -265.91147 
L 306.016529 -266.835221 
L 306.626476 -267.997996 
L 307.236424 -268.278279 
L 307.846371 -268.036716 
L 308.456318 -268.03934 
L 309.066265 -268.026544 
L 309.676212 -267.007708 
L 310.286159 -267.680189 
L 310.896107 -266.059819 
L 311.506054 -265.853757 
L 312.116001 -265.80928 
L 312.725948 -265.713952 
L 313.335895 -264.643866 
L 313.945842 -265.31673 
L 314.55579 -264.685942 
L 315.165737 -267.128317 
L 315.775684 -266.506416 
L 316.385631 -266.065359 
L 316.995578 -266.003595 
L 317.605525 -265.365343 
L 318.215473 -263.579117 
L 318.82542 -264.207471 
L 319.435367 -265.181727 
L 320.045314 -266.127524 
L 320.655261 -266.113449 
L 321.265208 -267.059667 
L 321.875156 -266.970169 
L 322.485103 -265.796059 
L 323.09505 -267.15191 
L 323.704997 -267.916119 
L 324.314944 -267.634733 
L 324.924891 -268.200818 
L 325.534839 -268.606934 
L 326.144786 -268.158343 
L 326.754733 -266.436639 
L 327.36468 -264.885452 
L 327.974627 -264.885453 
L 328.584574 -264.756769 
L 329.194522 -266.878309 
L 329.804469 -267.061171 
L 330.414416 -266.60507 
L 331.024363 -265.518364 
L 331.63431 -265.439219 
L 332.244257 -265.516583 
L 332.854205 -265.336803 
L 333.464152 -266.354756 
L 334.074099 -265.47357 
L 334.684046 -265.123503 
L 335.293993 -265.536892 
L 335.90394 -265.26123 
L 336.513888 -265.896227 
L 337.123835 -265.536881 
L 337.733782 -266.261975 
L 338.343729 -266.261979 
L 338.953676 -266.261987 
L 339.563623 -265.206971 
L 340.173571 -264.887933 
L 340.783518 -264.232964 
L 341.393465 -265.053883 
L 342.003412 -265.314243 
L 342.613359 -265.053885 
L 343.223306 -265.459443 
L 343.833254 -266.019193 
L 344.443201 -266.252559 
L 345.053148 -268.040031 
L 345.663095 -267.116494 
L 346.273042 -267.343423 
L 346.88299 -266.460627 
L 347.492937 -267.038264 
L 348.102884 -266.49688 
L 348.712831 -266.293713 
L 349.322778 -267.728768 
L 349.932725 -265.837598 
L 350.542673 -267.776509 
L 351.15262 -267.54519 
L 351.762567 -267.833637 
L 352.372514 -266.602853 
L 352.982461 -266.485995 
L 353.592408 -266.234321 
L 354.202356 -265.481046 
L 354.812303 -263.263566 
L 355.42225 -263.263564 
L 356.032197 -264.424776 
L 356.642144 -264.891592 
L 357.252091 -265.104128 
L 357.862039 -264.846709 
L 358.471986 -264.846705 
L 359.081933 -264.475254 
L 359.69188 -263.894626 
L 360.301827 -263.135623 
L 360.911774 -264.475234 
L 361.521722 -263.834969 
L 362.131669 -265.050733 
L 362.741616 -265.902825 
L 363.351563 -267.043387 
L 363.96151 -267.102739 
L 364.571457 -266.485531 
L 365.181405 -265.645717 
L 365.791352 -265.181368 
L 366.401299 -265.923144 
L 367.011246 -265.653032 
L 367.621193 -265.750598 
L 367.621193 -272.467486 
L 367.621193 -272.467486 
L 367.011246 -272.46747 
L 366.401299 -272.467499 
L 365.791352 -272.46748 
L 365.181405 -272.467494 
L 364.571457 -272.467492 
L 363.96151 -272.467475 
L 363.351563 -272.467473 
L 362.741616 -272.467459 
L 362.131669 -272.4675 
L 361.521722 -272.467499 
L 360.911774 -272.467468 
L 360.301827 -272.467485 
L 359.69188 -272.467491 
L 359.081933 -272.467477 
L 358.471986 -272.467488 
L 357.862039 -272.467485 
L 357.252091 -272.467484 
L 356.642144 -272.467489 
L 356.032197 -272.467498 
L 355.42225 -272.467474 
L 354.812303 -272.467497 
L 354.202356 -272.467498 
L 353.592408 -272.467483 
L 352.982461 -272.467484 
L 352.372514 -272.467481 
L 351.762567 -272.46747 
L 351.15262 -272.467488 
L 350.542673 -272.467488 
L 349.932725 -272.467488 
L 349.322778 -272.467474 
L 348.712831 -272.467458 
L 348.102884 -272.467487 
L 347.492937 -272.46749 
L 346.88299 -272.4675 
L 346.273042 -272.467469 
L 345.663095 -272.467496 
L 345.053148 -272.467485 
L 344.443201 -272.467475 
L 343.833254 -272.467468 
L 343.223306 -272.467462 
L 342.613359 -272.467479 
L 342.003412 -272.467475 
L 341.393465 -272.467468 
L 340.783518 -272.467455 
L 340.173571 -272.467469 
L 339.563623 -272.467491 
L 338.953676 -272.467466 
L 338.343729 -272.467489 
L 337.733782 -272.467467 
L 337.123835 -272.467442 
L 336.513888 -272.46743 
L 335.90394 -272.46743 
L 335.293993 -272.46745 
L 334.684046 -272.466604 
L 334.074099 -272.466577 
L 333.464152 -272.466588 
L 332.854205 -272.466597 
L 332.244257 -272.466594 
L 331.63431 -272.466591 
L 331.024363 -272.466601 
L 330.414416 -272.466606 
L 329.804469 -272.466605 
L 329.194522 -272.466587 
L 328.584574 -272.466588 
L 327.974627 -272.466603 
L 327.36468 -272.466597 
L 326.754733 -272.466588 
L 326.144786 -272.466603 
L 325.534839 -272.466585 
L 324.924891 -272.466596 
L 324.314944 -272.466592 
L 323.704997 -272.466579 
L 323.09505 -272.466579 
L 322.485103 -272.466575 
L 321.875156 -272.466577 
L 321.265208 -272.466547 
L 320.655261 -272.426115 
L 320.045314 -272.426105 
L 319.435367 -272.426114 
L 318.82542 -272.426104 
L 318.215473 -272.42612 
L 317.605525 -272.426109 
L 316.995578 -272.426114 
L 316.385631 -272.426112 
L 315.775684 -272.426118 
L 315.165737 -272.426116 
L 314.55579 -272.426105 
L 313.945842 -272.426117 
L 313.335895 -272.426113 
L 312.725948 -272.426121 
L 312.116001 -272.426115 
L 311.506054 -272.426116 
L 310.896107 -272.426111 
L 310.286159 -272.426118 
L 309.676212 -272.426121 
L 309.066265 -272.426112 
L 308.456318 -272.426115 
L 307.846371 -272.426108 
L 307.236424 -272.426121 
L 306.626476 -272.426108 
L 306.016529 -272.426123 
L 305.406582 -272.426106 
L 304.796635 -272.426115 
L 304.186688 -272.426108 
L 303.576741 -272.426116 
L 302.966793 -272.42612 
L 302.356846 -272.42611 
L 301.746899 -272.426107 
L 301.136952 -272.426109 
L 300.527005 -272.426103 
L 299.917058 -272.426105 
L 299.30711 -272.426111 
L 298.697163 -272.423628 
L 298.087216 -272.423611 
L 297.477269 -272.423596 
L 296.867322 -272.423617 
L 296.257375 -272.423626 
L 295.647427 -272.423622 
L 295.03748 -272.42362 
L 294.427533 -272.423627 
L 293.817586 -272.423601 
L 293.207639 -272.423622 
L 292.597692 -272.423611 
L 291.987744 -272.423618 
L 291.377797 -272.423606 
L 290.76785 -272.423586 
L 290.157903 -272.42362 
L 289.547956 -272.423615 
L 288.938009 -272.423564 
L 288.328061 -272.423557 
L 287.718114 -272.423582 
L 287.108167 -272.423586 
L 286.49822 -272.423616 
L 285.888273 -272.423548 
L 285.278326 -272.423594 
L 284.668378 -272.423607 
L 284.058431 -272.423559 
L 283.448484 -272.423549 
L 282.838537 -272.423541 
L 282.22859 -272.423573 
L 281.618643 -272.42355 
L 281.008695 -272.423542 
L 280.398748 -272.423536 
L 279.788801 -272.423532 
L 279.178854 -272.423541 
L 278.568907 -272.42351 
L 277.95896 -272.423544 
L 277.349012 -272.423533 
L 276.739065 -272.423259 
L 276.129118 -272.423258 
L 275.519171 -272.423262 
L 274.909224 -272.423255 
L 274.299277 -272.423259 
L 273.689329 -272.423261 
L 273.079382 -272.423265 
L 272.469435 -272.423264 
L 271.859488 -272.423258 
L 271.249541 -272.423259 
L 270.639594 -272.423259 
L 270.029646 -272.423252 
L 269.419699 -272.423263 
L 268.809752 -272.42326 
L 268.199805 -272.423258 
L 267.589858 -272.423262 
L 266.979911 -272.423262 
L 266.369963 -272.423269 
L 265.760016 -272.423259 
L 265.150069 -272.423261 
L 264.540122 -272.423263 
L 263.930175 -272.42326 
L 263.320228 -272.423262 
L 262.71028 -272.423259 
L 262.100333 -272.42326 
L 261.490386 -272.423258 
L 260.880439 -272.42326 
L 260.270492 -272.423252 
L 259.660545 -272.423261 
L 259.050597 -272.423259 
L 258.44065 -272.423258 
L 257.830703 -272.423262 
L 257.220756 -272.423259 
L 256.610809 -272.423255 
L 256.000862 -272.423259 
L 255.390914 -272.42326 
L 254.780967 -272.423259 
L 254.17102 -272.42326 
L 253.561073 -272.42326 
L 252.951126 -272.423257 
L 252.341179 -272.42326 
L 251.731231 -272.423254 
L 251.121284 -272.42326 
L 250.511337 -272.42326 
L 249.90139 -272.423262 
L 249.291443 -272.423258 
L 248.681496 -272.423257 
L 248.071548 -272.42326 
L 247.461601 -272.423262 
L 246.851654 -272.423261 
L 246.241707 -272.423259 
L 245.63176 -272.423257 
L 245.021813 -272.423254 
L 244.411865 -272.423258 
L 243.801918 -272.423246 
L 243.191971 -272.423249 
L 242.582024 -272.423231 
L 241.972077 -272.423233 
L 241.36213 -272.423238 
L 240.752182 -272.423209 
L 240.142235 -272.419501 
L 239.532288 -272.419547 
L 238.922341 -272.419549 
L 238.312394 -272.419539 
L 237.702447 -272.419545 
L 237.092499 -272.419541 
L 236.482552 -272.419543 
L 235.872605 -272.419522 
L 235.262658 -272.41955 
L 234.652711 -272.419549 
L 234.042764 -272.419535 
L 233.432816 -272.419524 
L 232.822869 -272.419516 
L 232.212922 -272.419538 
L 231.602975 -272.419527 
L 230.993028 -272.419478 
L 230.383081 -272.419545 
L 229.773133 -272.419492 
L 229.163186 -272.419499 
L 228.553239 -272.419453 
L 227.943292 -272.419437 
L 227.333345 -272.418486 
L 226.723398 -272.418448 
L 226.11345 -272.418498 
L 225.503503 -272.418515 
L 224.893556 -272.413879 
L 224.283609 -272.413938 
L 223.673662 -272.413936 
L 223.063715 -272.413926 
L 222.453767 -272.413959 
L 221.84382 -272.413932 
L 221.233873 -272.402393 
L 220.623926 -272.402382 
L 220.013979 -272.402403 
L 219.404032 -272.402363 
L 218.794084 -272.40239 
L 218.184137 -272.402402 
L 217.57419 -272.4024 
L 216.964243 -272.402404 
L 216.354296 -272.402399 
L 215.744349 -272.402376 
L 215.134401 -272.402365 
L 214.524454 -272.402367 
L 213.914507 -272.402355 
L 213.30456 -272.401117 
L 212.694613 -272.401108 
L 212.084666 -272.401109 
L 211.474718 -272.401105 
L 210.864771 -272.401096 
L 210.254824 -272.401107 
L 209.644877 -272.401103 
L 209.03493 -272.401116 
L 208.424983 -272.40108 
L 207.815035 -272.401078 
L 207.205088 -272.401083 
L 206.595141 -272.400148 
L 205.985194 -272.400133 
L 205.375247 -272.400153 
L 204.7653 -272.399673 
L 204.155352 -272.399691 
L 203.545405 -272.399678 
L 202.935458 -272.399654 
L 202.325511 -272.399686 
L 201.715564 -272.399653 
L 201.105617 -272.399681 
L 200.495669 -272.399655 
L 199.885722 -272.399689 
L 199.275775 -272.399679 
L 198.665828 -272.399654 
L 198.055881 -272.399653 
L 197.445934 -272.39965 
L 196.835986 -272.399665 
L 196.226039 -272.399648 
L 195.616092 -272.399654 
L 195.006145 -272.399652 
L 194.396198 -272.399634 
L 193.786251 -272.399633 
L 193.176303 -272.399653 
L 192.566356 -272.399668 
L 191.956409 -272.399625 
L 191.346462 -272.399626 
L 190.736515 -272.399604 
L 190.126568 -272.399654 
L 189.51662 -272.369642 
L 188.906673 -272.369638 
L 188.296726 -272.369638 
L 187.686779 -272.36964 
L 187.076832 -272.369639 
L 186.466885 -272.369638 
L 185.856937 -272.369639 
L 185.24699 -272.369639 
L 184.637043 -272.369638 
L 184.027096 -272.369639 
L 183.417149 -272.369639 
L 182.807202 -272.369639 
L 182.197254 -272.36964 
L 181.587307 -272.369636 
L 180.97736 -272.369639 
L 180.367413 -272.36964 
L 179.757466 -272.369639 
L 179.147519 -272.369638 
L 178.537571 -272.369629 
L 177.927624 -272.36964 
L 177.317677 -272.369632 
L 176.70773 -272.369629 
L 176.097783 -272.369633 
L 175.487836 -272.36962 
L 174.877888 -272.369636 
L 174.267941 -272.369595 
L 173.657994 -272.369622 
L 173.048047 -272.369591 
L 172.4381 -272.368041 
L 171.828153 -272.368043 
L 171.218205 -272.368041 
L 170.608258 -272.36805 
L 169.998311 -272.368043 
L 169.388364 -272.36804 
L 168.778417 -272.368032 
L 168.16847 -272.368023 
L 167.558522 -272.36803 
L 166.948575 -272.368027 
L 166.338628 -272.368028 
L 165.728681 -272.368046 
L 165.118734 -272.36803 
L 164.508787 -272.367941 
L 163.898839 -272.368027 
L 163.288892 -272.367994 
L 162.678945 -272.368012 
L 162.068998 -272.368027 
L 161.459051 -272.36804 
L 160.849104 -272.368032 
L 160.239156 -272.368019 
L 159.629209 -272.368031 
L 159.019262 -272.368032 
L 158.409315 -272.367989 
L 157.799368 -272.368037 
L 157.189421 -272.367997 
L 156.579473 -272.368017 
L 155.969526 -272.221952 
L 155.359579 -272.221913 
L 154.749632 -272.221891 
L 154.139685 -272.221906 
L 153.529738 -272.22191 
L 152.91979 -272.221904 
L 152.309843 -272.221897 
L 151.699896 -272.221899 
L 151.089949 -272.221885 
L 150.480002 -272.221904 
L 149.870055 -272.221876 
L 149.260107 -272.221866 
L 148.65016 -272.221287 
L 148.040213 -272.221306 
L 147.430266 -272.211516 
L 146.820319 -272.209744 
L 146.210372 -272.209717 
L 145.600424 -272.209732 
L 144.990477 -272.209755 
L 144.38053 -272.209746 
L 143.770583 -272.209727 
L 143.160636 -272.209734 
L 142.550689 -272.209722 
L 141.940741 -272.20972 
L 141.330794 -272.209718 
L 140.720847 -272.209735 
L 140.1109 -272.209717 
L 139.500953 -272.209715 
L 138.891006 -272.209726 
L 138.281058 -272.14233 
L 137.671111 -272.142326 
L 137.061164 -272.142335 
L 136.451217 -272.142328 
L 135.84127 -272.142326 
L 135.231323 -272.14234 
L 134.621375 -272.142312 
L 134.011428 -272.142318 
L 133.401481 -272.142306 
L 132.791534 -272.036375 
L 132.181587 -272.036371 
L 131.57164 -272.036351 
L 130.961692 -272.036376 
L 130.351745 -272.036368 
L 129.741798 -271.93978 
L 129.131851 -271.939781 
L 128.521904 -271.939784 
L 127.911957 -271.939724 
L 127.302009 -271.939769 
L 126.692062 -271.93974 
L 126.082115 -271.939738 
L 125.472168 -271.939699 
L 124.862221 -271.886232 
L 124.252274 -271.886224 
L 123.642326 -271.886224 
L 123.032379 -271.886222 
L 122.422432 -271.886229 
L 121.812485 -271.886216 
L 121.202538 -271.886224 
L 120.592591 -271.886224 
L 119.982643 -271.886225 
L 119.372696 -271.886213 
L 118.762749 -271.289274 
L 118.152802 -271.289278 
L 117.542855 -271.282526 
L 116.932908 -271.146275 
L 116.32296 -271.121004 
L 115.713013 -271.121017 
L 115.103066 -270.818894 
L 114.493119 -270.818898 
L 113.883172 -270.818865 
L 113.273225 -270.818883 
L 112.663277 -269.851164 
L 112.05333 -269.851138 
L 111.443383 -269.85117 
L 110.833436 -269.453227 
L 110.223489 -269.453247 
L 109.613542 -269.453222 
L 109.003594 -269.453225 
L 108.393647 -269.453246 
L 107.7837 -269.453246 
L 107.173753 -269.453224 
L 106.563806 -269.453186 
L 105.953859 -268.995947 
L 105.343911 -268.995938 
L 104.733964 -268.570698 
L 104.124017 -268.570671 
L 103.51407 -268.531759 
L 102.904123 -268.380377 
L 102.294176 -268.380366 
L 101.684228 -268.29812 
L 101.074281 -268.298113 
L 100.464334 -268.298123 
L 99.854387 -268.298115 
L 99.24444 -268.298075 
L 98.634493 -266.75929 
L 98.024545 -266.759275 
L 97.414598 -265.195931 
L 96.804651 -265.195915 
L 96.194704 -265.195908 
L 95.584757 -265.195912 
L 94.97481 -264.88665 
L 94.364862 -264.886644 
L 93.754915 -264.88658 
L 93.144968 -264.886648 
L 92.535021 -264.88662 
L 91.925074 -264.886688 
L 91.315127 -264.886672 
L 90.705179 -264.886671 
L 90.095232 -264.886615 
L 89.485285 -264.886611 
L 88.875338 -264.886632 
L 88.265391 -264.886528 
L 87.655444 -264.886654 
L 87.045496 -264.886563 
L 86.435549 -264.886468 
L 85.825602 -264.886577 
L 85.215655 -264.886555 
L 84.605708 -261.194348 
L 83.99576 -257.372325 
L 83.385813 -257.372368 
L 82.775866 -257.372355 
L 82.165919 -257.372379 
L 81.555972 -257.372415 
L 80.946025 -257.372319 
L 80.336077 -257.372337 
L 79.72613 -255.475568 
L 79.116183 -255.475572 
L 78.506236 -255.475578 
L 77.896289 -255.475582 
L 77.286342 -255.475569 
L 76.676394 -255.475577 
L 76.066447 -255.47557 
L 75.4565 -255.475575 
L 74.846553 -255.475564 
L 74.236606 -255.475566 
L 73.626659 -255.475566 
L 73.016711 -255.475564 
L 72.406764 -255.47556 
L 71.796817 -255.475576 
L 71.18687 -255.475562 
L 70.576923 -246.881316 
L 69.966976 -246.881347 
L 69.357028 -246.881346 
L 68.747081 -246.881367 
L 68.137134 -246.881328 
L 67.527187 -246.881331 
L 66.91724 -246.881366 
L 66.307293 -246.881328 
L 65.697345 -246.881348 
L 65.087398 -246.881273 
L 64.477451 -246.881287 
L 63.867504 -246.881207 
L 63.257557 -246.212025 
z
" style="stroke: #0000ff; stroke-opacity: 0.2"/>
    </defs>
    <g clip-path="url(#p02615a8ac9)">
     <use xlink:href="#m1ab9de3d64" x="0" y="287.4075" style="fill: #0000ff; fill-opacity: 0.2; stroke: #0000ff; stroke-opacity: 0.2"/>
    </g>
   </g>
   <g id="matplotlib.axis_1">
    <g id="xtick_1">
     <g id="line2d_1">
      <path d="M 63.257557 253.08 
L 63.257557 3.6 
" clip-path="url(#p02615a8ac9)" style="fill: none; stroke: #b0b0b0; stroke-width: 0.5; stroke-linecap: square"/>
     </g>
     <g id="line2d_2">
      <defs>
       <path id="m86bcca1a51" d="M 0 0 
L 0 -3 
" style="stroke: #000000; stroke-width: 0.5"/>
      </defs>
      <g>
       <use xlink:href="#m86bcca1a51" x="63.257557" y="253.08" style="stroke: #000000; stroke-width: 0.5"/>
      </g>
     </g>
     <g id="line2d_3">
      <defs>
       <path id="m7fd80ef001" d="M 0 0 
L 0 3 
" style="stroke: #000000; stroke-width: 0.5"/>
      </defs>
      <g>
       <use xlink:href="#m7fd80ef001" x="63.257557" y="3.6" style="stroke: #000000; stroke-width: 0.5"/>
      </g>
     </g>
     <g id="text_1">
      <!-- 0 -->
      <g transform="translate(59.440057 265.698125) scale(0.12 -0.12)">
       <defs>
        <path id="DejaVuSans-30" d="M 2034 4250 
Q 1547 4250 1301 3770 
Q 1056 3291 1056 2328 
Q 1056 1369 1301 889 
Q 1547 409 2034 409 
Q 2525 409 2770 889 
Q 3016 1369 3016 2328 
Q 3016 3291 2770 3770 
Q 2525 4250 2034 4250 
z
M 2034 4750 
Q 2819 4750 3233 4129 
Q 3647 3509 3647 2328 
Q 3647 1150 3233 529 
Q 2819 -91 2034 -91 
Q 1250 -91 836 529 
Q 422 1150 422 2328 
Q 422 3509 836 4129 
Q 1250 4750 2034 4750 
z
" transform="scale(0.015625)"/>
       </defs>
       <use xlink:href="#DejaVuSans-30"/>
      </g>
     </g>
    </g>
    <g id="xtick_2">
     <g id="line2d_4">
      <path d="M 124.252274 253.08 
L 124.252274 3.6 
" clip-path="url(#p02615a8ac9)" style="fill: none; stroke: #b0b0b0; stroke-width: 0.5; stroke-linecap: square"/>
     </g>
     <g id="line2d_5">
      <g>
       <use xlink:href="#m86bcca1a51" x="124.252274" y="253.08" style="stroke: #000000; stroke-width: 0.5"/>
      </g>
     </g>
     <g id="line2d_6">
      <g>
       <use xlink:href="#m7fd80ef001" x="124.252274" y="3.6" style="stroke: #000000; stroke-width: 0.5"/>
      </g>
     </g>
     <g id="text_2">
      <!-- 100 -->
      <g transform="translate(112.799774 265.698125) scale(0.12 -0.12)">
       <defs>
        <path id="DejaVuSans-31" d="M 794 531 
L 1825 531 
L 1825 4091 
L 703 3866 
L 703 4441 
L 1819 4666 
L 2450 4666 
L 2450 531 
L 3481 531 
L 3481 0 
L 794 0 
L 794 531 
z
" transform="scale(0.015625)"/>
       </defs>
       <use xlink:href="#DejaVuSans-31"/>
       <use xlink:href="#DejaVuSans-30" x="63.623047"/>
       <use xlink:href="#DejaVuSans-30" x="127.246094"/>
      </g>
     </g>
    </g>
    <g id="xtick_3">
     <g id="line2d_7">
      <path d="M 185.24699 253.08 
L 185.24699 3.6 
" clip-path="url(#p02615a8ac9)" style="fill: none; stroke: #b0b0b0; stroke-width: 0.5; stroke-linecap: square"/>
     </g>
     <g id="line2d_8">
      <g>
       <use xlink:href="#m86bcca1a51" x="185.24699" y="253.08" style="stroke: #000000; stroke-width: 0.5"/>
      </g>
     </g>
     <g id="line2d_9">
      <g>
       <use xlink:href="#m7fd80ef001" x="185.24699" y="3.6" style="stroke: #000000; stroke-width: 0.5"/>
      </g>
     </g>
     <g id="text_3">
      <!-- 200 -->
      <g transform="translate(173.79449 265.698125) scale(0.12 -0.12)">
       <defs>
        <path id="DejaVuSans-32" d="M 1228 531 
L 3431 531 
L 3431 0 
L 469 0 
L 469 531 
Q 828 903 1448 1529 
Q 2069 2156 2228 2338 
Q 2531 2678 2651 2914 
Q 2772 3150 2772 3378 
Q 2772 3750 2511 3984 
Q 2250 4219 1831 4219 
Q 1534 4219 1204 4116 
Q 875 4013 500 3803 
L 500 4441 
Q 881 4594 1212 4672 
Q 1544 4750 1819 4750 
Q 2544 4750 2975 4387 
Q 3406 4025 3406 3419 
Q 3406 3131 3298 2873 
Q 3191 2616 2906 2266 
Q 2828 2175 2409 1742 
Q 1991 1309 1228 531 
z
" transform="scale(0.015625)"/>
       </defs>
       <use xlink:href="#DejaVuSans-32"/>
       <use xlink:href="#DejaVuSans-30" x="63.623047"/>
       <use xlink:href="#DejaVuSans-30" x="127.246094"/>
      </g>
     </g>
    </g>
    <g id="xtick_4">
     <g id="line2d_10">
      <path d="M 246.241707 253.08 
L 246.241707 3.6 
" clip-path="url(#p02615a8ac9)" style="fill: none; stroke: #b0b0b0; stroke-width: 0.5; stroke-linecap: square"/>
     </g>
     <g id="line2d_11">
      <g>
       <use xlink:href="#m86bcca1a51" x="246.241707" y="253.08" style="stroke: #000000; stroke-width: 0.5"/>
      </g>
     </g>
     <g id="line2d_12">
      <g>
       <use xlink:href="#m7fd80ef001" x="246.241707" y="3.6" style="stroke: #000000; stroke-width: 0.5"/>
      </g>
     </g>
     <g id="text_4">
      <!-- 300 -->
      <g transform="translate(234.789207 265.698125) scale(0.12 -0.12)">
       <defs>
        <path id="DejaVuSans-33" d="M 2597 2516 
Q 3050 2419 3304 2112 
Q 3559 1806 3559 1356 
Q 3559 666 3084 287 
Q 2609 -91 1734 -91 
Q 1441 -91 1130 -33 
Q 819 25 488 141 
L 488 750 
Q 750 597 1062 519 
Q 1375 441 1716 441 
Q 2309 441 2620 675 
Q 2931 909 2931 1356 
Q 2931 1769 2642 2001 
Q 2353 2234 1838 2234 
L 1294 2234 
L 1294 2753 
L 1863 2753 
Q 2328 2753 2575 2939 
Q 2822 3125 2822 3475 
Q 2822 3834 2567 4026 
Q 2313 4219 1838 4219 
Q 1578 4219 1281 4162 
Q 984 4106 628 3988 
L 628 4550 
Q 988 4650 1302 4700 
Q 1616 4750 1894 4750 
Q 2613 4750 3031 4423 
Q 3450 4097 3450 3541 
Q 3450 3153 3228 2886 
Q 3006 2619 2597 2516 
z
" transform="scale(0.015625)"/>
       </defs>
       <use xlink:href="#DejaVuSans-33"/>
       <use xlink:href="#DejaVuSans-30" x="63.623047"/>
       <use xlink:href="#DejaVuSans-30" x="127.246094"/>
      </g>
     </g>
    </g>
    <g id="xtick_5">
     <g id="line2d_13">
      <path d="M 307.236424 253.08 
L 307.236424 3.6 
" clip-path="url(#p02615a8ac9)" style="fill: none; stroke: #b0b0b0; stroke-width: 0.5; stroke-linecap: square"/>
     </g>
     <g id="line2d_14">
      <g>
       <use xlink:href="#m86bcca1a51" x="307.236424" y="253.08" style="stroke: #000000; stroke-width: 0.5"/>
      </g>
     </g>
     <g id="line2d_15">
      <g>
       <use xlink:href="#m7fd80ef001" x="307.236424" y="3.6" style="stroke: #000000; stroke-width: 0.5"/>
      </g>
     </g>
     <g id="text_5">
      <!-- 400 -->
      <g transform="translate(295.783924 265.698125) scale(0.12 -0.12)">
       <defs>
        <path id="DejaVuSans-34" d="M 2419 4116 
L 825 1625 
L 2419 1625 
L 2419 4116 
z
M 2253 4666 
L 3047 4666 
L 3047 1625 
L 3713 1625 
L 3713 1100 
L 3047 1100 
L 3047 0 
L 2419 0 
L 2419 1100 
L 313 1100 
L 313 1709 
L 2253 4666 
z
" transform="scale(0.015625)"/>
       </defs>
       <use xlink:href="#DejaVuSans-34"/>
       <use xlink:href="#DejaVuSans-30" x="63.623047"/>
       <use xlink:href="#DejaVuSans-30" x="127.246094"/>
      </g>
     </g>
    </g>
    <g id="xtick_6">
     <g id="line2d_16">
      <path d="M 368.23114 253.08 
L 368.23114 3.6 
" clip-path="url(#p02615a8ac9)" style="fill: none; stroke: #b0b0b0; stroke-width: 0.5; stroke-linecap: square"/>
     </g>
     <g id="line2d_17">
      <g>
       <use xlink:href="#m86bcca1a51" x="368.23114" y="253.08" style="stroke: #000000; stroke-width: 0.5"/>
      </g>
     </g>
     <g id="line2d_18">
      <g>
       <use xlink:href="#m7fd80ef001" x="368.23114" y="3.6" style="stroke: #000000; stroke-width: 0.5"/>
      </g>
     </g>
     <g id="text_6">
      <!-- 500 -->
      <g transform="translate(356.77864 265.698125) scale(0.12 -0.12)">
       <defs>
        <path id="DejaVuSans-35" d="M 691 4666 
L 3169 4666 
L 3169 4134 
L 1269 4134 
L 1269 2991 
Q 1406 3038 1543 3061 
Q 1681 3084 1819 3084 
Q 2600 3084 3056 2656 
Q 3513 2228 3513 1497 
Q 3513 744 3044 326 
Q 2575 -91 1722 -91 
Q 1428 -91 1123 -41 
Q 819 9 494 109 
L 494 744 
Q 775 591 1075 516 
Q 1375 441 1709 441 
Q 2250 441 2565 725 
Q 2881 1009 2881 1497 
Q 2881 1984 2565 2268 
Q 2250 2553 1709 2553 
Q 1456 2553 1204 2497 
Q 953 2441 691 2322 
L 691 4666 
z
" transform="scale(0.015625)"/>
       </defs>
       <use xlink:href="#DejaVuSans-35"/>
       <use xlink:href="#DejaVuSans-30" x="63.623047"/>
       <use xlink:href="#DejaVuSans-30" x="127.246094"/>
      </g>
     </g>
    </g>
    <g id="xtick_7">
     <g id="line2d_19">
      <defs>
       <path id="meaf312633e" d="M 0 0 
L 0 -1.5 
" style="stroke: #000000; stroke-width: 0.5"/>
      </defs>
      <g>
       <use xlink:href="#meaf312633e" x="51.058613" y="253.08" style="stroke: #000000; stroke-width: 0.5"/>
      </g>
     </g>
     <g id="line2d_20">
      <defs>
       <path id="m3278aa6774" d="M 0 0 
L 0 1.5 
" style="stroke: #000000; stroke-width: 0.5"/>
      </defs>
      <g>
       <use xlink:href="#m3278aa6774" x="51.058613" y="3.6" style="stroke: #000000; stroke-width: 0.5"/>
      </g>
     </g>
    </g>
    <g id="xtick_8">
     <g id="line2d_21">
      <g>
       <use xlink:href="#meaf312633e" x="75.4565" y="253.08" style="stroke: #000000; stroke-width: 0.5"/>
      </g>
     </g>
     <g id="line2d_22">
      <g>
       <use xlink:href="#m3278aa6774" x="75.4565" y="3.6" style="stroke: #000000; stroke-width: 0.5"/>
      </g>
     </g>
    </g>
    <g id="xtick_9">
     <g id="line2d_23">
      <g>
       <use xlink:href="#meaf312633e" x="87.655444" y="253.08" style="stroke: #000000; stroke-width: 0.5"/>
      </g>
     </g>
     <g id="line2d_24">
      <g>
       <use xlink:href="#m3278aa6774" x="87.655444" y="3.6" style="stroke: #000000; stroke-width: 0.5"/>
      </g>
     </g>
    </g>
    <g id="xtick_10">
     <g id="line2d_25">
      <g>
       <use xlink:href="#meaf312633e" x="99.854387" y="253.08" style="stroke: #000000; stroke-width: 0.5"/>
      </g>
     </g>
     <g id="line2d_26">
      <g>
       <use xlink:href="#m3278aa6774" x="99.854387" y="3.6" style="stroke: #000000; stroke-width: 0.5"/>
      </g>
     </g>
    </g>
    <g id="xtick_11">
     <g id="line2d_27">
      <g>
       <use xlink:href="#meaf312633e" x="112.05333" y="253.08" style="stroke: #000000; stroke-width: 0.5"/>
      </g>
     </g>
     <g id="line2d_28">
      <g>
       <use xlink:href="#m3278aa6774" x="112.05333" y="3.6" style="stroke: #000000; stroke-width: 0.5"/>
      </g>
     </g>
    </g>
    <g id="xtick_12">
     <g id="line2d_29">
      <g>
       <use xlink:href="#meaf312633e" x="136.451217" y="253.08" style="stroke: #000000; stroke-width: 0.5"/>
      </g>
     </g>
     <g id="line2d_30">
      <g>
       <use xlink:href="#m3278aa6774" x="136.451217" y="3.6" style="stroke: #000000; stroke-width: 0.5"/>
      </g>
     </g>
    </g>
    <g id="xtick_13">
     <g id="line2d_31">
      <g>
       <use xlink:href="#meaf312633e" x="148.65016" y="253.08" style="stroke: #000000; stroke-width: 0.5"/>
      </g>
     </g>
     <g id="line2d_32">
      <g>
       <use xlink:href="#m3278aa6774" x="148.65016" y="3.6" style="stroke: #000000; stroke-width: 0.5"/>
      </g>
     </g>
    </g>
    <g id="xtick_14">
     <g id="line2d_33">
      <g>
       <use xlink:href="#meaf312633e" x="160.849104" y="253.08" style="stroke: #000000; stroke-width: 0.5"/>
      </g>
     </g>
     <g id="line2d_34">
      <g>
       <use xlink:href="#m3278aa6774" x="160.849104" y="3.6" style="stroke: #000000; stroke-width: 0.5"/>
      </g>
     </g>
    </g>
    <g id="xtick_15">
     <g id="line2d_35">
      <g>
       <use xlink:href="#meaf312633e" x="173.048047" y="253.08" style="stroke: #000000; stroke-width: 0.5"/>
      </g>
     </g>
     <g id="line2d_36">
      <g>
       <use xlink:href="#m3278aa6774" x="173.048047" y="3.6" style="stroke: #000000; stroke-width: 0.5"/>
      </g>
     </g>
    </g>
    <g id="xtick_16">
     <g id="line2d_37">
      <g>
       <use xlink:href="#meaf312633e" x="197.445934" y="253.08" style="stroke: #000000; stroke-width: 0.5"/>
      </g>
     </g>
     <g id="line2d_38">
      <g>
       <use xlink:href="#m3278aa6774" x="197.445934" y="3.6" style="stroke: #000000; stroke-width: 0.5"/>
      </g>
     </g>
    </g>
    <g id="xtick_17">
     <g id="line2d_39">
      <g>
       <use xlink:href="#meaf312633e" x="209.644877" y="253.08" style="stroke: #000000; stroke-width: 0.5"/>
      </g>
     </g>
     <g id="line2d_40">
      <g>
       <use xlink:href="#m3278aa6774" x="209.644877" y="3.6" style="stroke: #000000; stroke-width: 0.5"/>
      </g>
     </g>
    </g>
    <g id="xtick_18">
     <g id="line2d_41">
      <g>
       <use xlink:href="#meaf312633e" x="221.84382" y="253.08" style="stroke: #000000; stroke-width: 0.5"/>
      </g>
     </g>
     <g id="line2d_42">
      <g>
       <use xlink:href="#m3278aa6774" x="221.84382" y="3.6" style="stroke: #000000; stroke-width: 0.5"/>
      </g>
     </g>
    </g>
    <g id="xtick_19">
     <g id="line2d_43">
      <g>
       <use xlink:href="#meaf312633e" x="234.042764" y="253.08" style="stroke: #000000; stroke-width: 0.5"/>
      </g>
     </g>
     <g id="line2d_44">
      <g>
       <use xlink:href="#m3278aa6774" x="234.042764" y="3.6" style="stroke: #000000; stroke-width: 0.5"/>
      </g>
     </g>
    </g>
    <g id="xtick_20">
     <g id="line2d_45">
      <g>
       <use xlink:href="#meaf312633e" x="258.44065" y="253.08" style="stroke: #000000; stroke-width: 0.5"/>
      </g>
     </g>
     <g id="line2d_46">
      <g>
       <use xlink:href="#m3278aa6774" x="258.44065" y="3.6" style="stroke: #000000; stroke-width: 0.5"/>
      </g>
     </g>
    </g>
    <g id="xtick_21">
     <g id="line2d_47">
      <g>
       <use xlink:href="#meaf312633e" x="270.639594" y="253.08" style="stroke: #000000; stroke-width: 0.5"/>
      </g>
     </g>
     <g id="line2d_48">
      <g>
       <use xlink:href="#m3278aa6774" x="270.639594" y="3.6" style="stroke: #000000; stroke-width: 0.5"/>
      </g>
     </g>
    </g>
    <g id="xtick_22">
     <g id="line2d_49">
      <g>
       <use xlink:href="#meaf312633e" x="282.838537" y="253.08" style="stroke: #000000; stroke-width: 0.5"/>
      </g>
     </g>
     <g id="line2d_50">
      <g>
       <use xlink:href="#m3278aa6774" x="282.838537" y="3.6" style="stroke: #000000; stroke-width: 0.5"/>
      </g>
     </g>
    </g>
    <g id="xtick_23">
     <g id="line2d_51">
      <g>
       <use xlink:href="#meaf312633e" x="295.03748" y="253.08" style="stroke: #000000; stroke-width: 0.5"/>
      </g>
     </g>
     <g id="line2d_52">
      <g>
       <use xlink:href="#m3278aa6774" x="295.03748" y="3.6" style="stroke: #000000; stroke-width: 0.5"/>
      </g>
     </g>
    </g>
    <g id="xtick_24">
     <g id="line2d_53">
      <g>
       <use xlink:href="#meaf312633e" x="319.435367" y="253.08" style="stroke: #000000; stroke-width: 0.5"/>
      </g>
     </g>
     <g id="line2d_54">
      <g>
       <use xlink:href="#m3278aa6774" x="319.435367" y="3.6" style="stroke: #000000; stroke-width: 0.5"/>
      </g>
     </g>
    </g>
    <g id="xtick_25">
     <g id="line2d_55">
      <g>
       <use xlink:href="#meaf312633e" x="331.63431" y="253.08" style="stroke: #000000; stroke-width: 0.5"/>
      </g>
     </g>
     <g id="line2d_56">
      <g>
       <use xlink:href="#m3278aa6774" x="331.63431" y="3.6" style="stroke: #000000; stroke-width: 0.5"/>
      </g>
     </g>
    </g>
    <g id="xtick_26">
     <g id="line2d_57">
      <g>
       <use xlink:href="#meaf312633e" x="343.833254" y="253.08" style="stroke: #000000; stroke-width: 0.5"/>
      </g>
     </g>
     <g id="line2d_58">
      <g>
       <use xlink:href="#m3278aa6774" x="343.833254" y="3.6" style="stroke: #000000; stroke-width: 0.5"/>
      </g>
     </g>
    </g>
    <g id="xtick_27">
     <g id="line2d_59">
      <g>
       <use xlink:href="#meaf312633e" x="356.032197" y="253.08" style="stroke: #000000; stroke-width: 0.5"/>
      </g>
     </g>
     <g id="line2d_60">
      <g>
       <use xlink:href="#m3278aa6774" x="356.032197" y="3.6" style="stroke: #000000; stroke-width: 0.5"/>
      </g>
     </g>
    </g>
    <g id="xtick_28">
     <g id="line2d_61">
      <g>
       <use xlink:href="#meaf312633e" x="380.430084" y="253.08" style="stroke: #000000; stroke-width: 0.5"/>
      </g>
     </g>
     <g id="line2d_62">
      <g>
       <use xlink:href="#m3278aa6774" x="380.430084" y="3.6" style="stroke: #000000; stroke-width: 0.5"/>
      </g>
     </g>
    </g>
    <g id="text_7">
     <!-- Generations -->
     <g transform="translate(178.842188 281.311875) scale(0.12 -0.12)">
      <defs>
       <path id="DejaVuSans-47" d="M 3809 666 
L 3809 1919 
L 2778 1919 
L 2778 2438 
L 4434 2438 
L 4434 434 
Q 4069 175 3628 42 
Q 3188 -91 2688 -91 
Q 1594 -91 976 548 
Q 359 1188 359 2328 
Q 359 3472 976 4111 
Q 1594 4750 2688 4750 
Q 3144 4750 3555 4637 
Q 3966 4525 4313 4306 
L 4313 3634 
Q 3963 3931 3569 4081 
Q 3175 4231 2741 4231 
Q 1884 4231 1454 3753 
Q 1025 3275 1025 2328 
Q 1025 1384 1454 906 
Q 1884 428 2741 428 
Q 3075 428 3337 486 
Q 3600 544 3809 666 
z
" transform="scale(0.015625)"/>
       <path id="DejaVuSans-65" d="M 3597 1894 
L 3597 1613 
L 953 1613 
Q 991 1019 1311 708 
Q 1631 397 2203 397 
Q 2534 397 2845 478 
Q 3156 559 3463 722 
L 3463 178 
Q 3153 47 2828 -22 
Q 2503 -91 2169 -91 
Q 1331 -91 842 396 
Q 353 884 353 1716 
Q 353 2575 817 3079 
Q 1281 3584 2069 3584 
Q 2775 3584 3186 3129 
Q 3597 2675 3597 1894 
z
M 3022 2063 
Q 3016 2534 2758 2815 
Q 2500 3097 2075 3097 
Q 1594 3097 1305 2825 
Q 1016 2553 972 2059 
L 3022 2063 
z
" transform="scale(0.015625)"/>
       <path id="DejaVuSans-6e" d="M 3513 2113 
L 3513 0 
L 2938 0 
L 2938 2094 
Q 2938 2591 2744 2837 
Q 2550 3084 2163 3084 
Q 1697 3084 1428 2787 
Q 1159 2491 1159 1978 
L 1159 0 
L 581 0 
L 581 3500 
L 1159 3500 
L 1159 2956 
Q 1366 3272 1645 3428 
Q 1925 3584 2291 3584 
Q 2894 3584 3203 3211 
Q 3513 2838 3513 2113 
z
" transform="scale(0.015625)"/>
       <path id="DejaVuSans-72" d="M 2631 2963 
Q 2534 3019 2420 3045 
Q 2306 3072 2169 3072 
Q 1681 3072 1420 2755 
Q 1159 2438 1159 1844 
L 1159 0 
L 581 0 
L 581 3500 
L 1159 3500 
L 1159 2956 
Q 1341 3275 1631 3429 
Q 1922 3584 2338 3584 
Q 2397 3584 2469 3576 
Q 2541 3569 2628 3553 
L 2631 2963 
z
" transform="scale(0.015625)"/>
       <path id="DejaVuSans-61" d="M 2194 1759 
Q 1497 1759 1228 1600 
Q 959 1441 959 1056 
Q 959 750 1161 570 
Q 1363 391 1709 391 
Q 2188 391 2477 730 
Q 2766 1069 2766 1631 
L 2766 1759 
L 2194 1759 
z
M 3341 1997 
L 3341 0 
L 2766 0 
L 2766 531 
Q 2569 213 2275 61 
Q 1981 -91 1556 -91 
Q 1019 -91 701 211 
Q 384 513 384 1019 
Q 384 1609 779 1909 
Q 1175 2209 1959 2209 
L 2766 2209 
L 2766 2266 
Q 2766 2663 2505 2880 
Q 2244 3097 1772 3097 
Q 1472 3097 1187 3025 
Q 903 2953 641 2809 
L 641 3341 
Q 956 3463 1253 3523 
Q 1550 3584 1831 3584 
Q 2591 3584 2966 3190 
Q 3341 2797 3341 1997 
z
" transform="scale(0.015625)"/>
       <path id="DejaVuSans-74" d="M 1172 4494 
L 1172 3500 
L 2356 3500 
L 2356 3053 
L 1172 3053 
L 1172 1153 
Q 1172 725 1289 603 
Q 1406 481 1766 481 
L 2356 481 
L 2356 0 
L 1766 0 
Q 1100 0 847 248 
Q 594 497 594 1153 
L 594 3053 
L 172 3053 
L 172 3500 
L 594 3500 
L 594 4494 
L 1172 4494 
z
" transform="scale(0.015625)"/>
       <path id="DejaVuSans-69" d="M 603 3500 
L 1178 3500 
L 1178 0 
L 603 0 
L 603 3500 
z
M 603 4863 
L 1178 4863 
L 1178 4134 
L 603 4134 
L 603 4863 
z
" transform="scale(0.015625)"/>
       <path id="DejaVuSans-6f" d="M 1959 3097 
Q 1497 3097 1228 2736 
Q 959 2375 959 1747 
Q 959 1119 1226 758 
Q 1494 397 1959 397 
Q 2419 397 2687 759 
Q 2956 1122 2956 1747 
Q 2956 2369 2687 2733 
Q 2419 3097 1959 3097 
z
M 1959 3584 
Q 2709 3584 3137 3096 
Q 3566 2609 3566 1747 
Q 3566 888 3137 398 
Q 2709 -91 1959 -91 
Q 1206 -91 779 398 
Q 353 888 353 1747 
Q 353 2609 779 3096 
Q 1206 3584 1959 3584 
z
" transform="scale(0.015625)"/>
       <path id="DejaVuSans-73" d="M 2834 3397 
L 2834 2853 
Q 2591 2978 2328 3040 
Q 2066 3103 1784 3103 
Q 1356 3103 1142 2972 
Q 928 2841 928 2578 
Q 928 2378 1081 2264 
Q 1234 2150 1697 2047 
L 1894 2003 
Q 2506 1872 2764 1633 
Q 3022 1394 3022 966 
Q 3022 478 2636 193 
Q 2250 -91 1575 -91 
Q 1294 -91 989 -36 
Q 684 19 347 128 
L 347 722 
Q 666 556 975 473 
Q 1284 391 1588 391 
Q 1994 391 2212 530 
Q 2431 669 2431 922 
Q 2431 1156 2273 1281 
Q 2116 1406 1581 1522 
L 1381 1569 
Q 847 1681 609 1914 
Q 372 2147 372 2553 
Q 372 3047 722 3315 
Q 1072 3584 1716 3584 
Q 2034 3584 2315 3537 
Q 2597 3491 2834 3397 
z
" transform="scale(0.015625)"/>
      </defs>
      <use xlink:href="#DejaVuSans-47"/>
      <use xlink:href="#DejaVuSans-65" x="77.490234"/>
      <use xlink:href="#DejaVuSans-6e" x="139.013672"/>
      <use xlink:href="#DejaVuSans-65" x="202.392578"/>
      <use xlink:href="#DejaVuSans-72" x="263.916016"/>
      <use xlink:href="#DejaVuSans-61" x="305.029297"/>
      <use xlink:href="#DejaVuSans-74" x="366.308594"/>
      <use xlink:href="#DejaVuSans-69" x="405.517578"/>
      <use xlink:href="#DejaVuSans-6f" x="433.300781"/>
      <use xlink:href="#DejaVuSans-6e" x="494.482422"/>
      <use xlink:href="#DejaVuSans-73" x="557.861328"/>
     </g>
    </g>
   </g>
   <g id="matplotlib.axis_2">
    <g id="ytick_1">
     <g id="line2d_63">
      <path d="M 48.039375 246.790621 
L 382.839375 246.790621 
" clip-path="url(#p02615a8ac9)" style="fill: none; stroke: #b0b0b0; stroke-width: 0.5; stroke-linecap: square"/>
     </g>
     <g id="line2d_64">
      <defs>
       <path id="mc0bb91a81a" d="M 0 0 
L 3 0 
" style="stroke: #000000; stroke-width: 0.5"/>
      </defs>
      <g>
       <use xlink:href="#mc0bb91a81a" x="48.039375" y="246.790621" style="stroke: #000000; stroke-width: 0.5"/>
      </g>
     </g>
     <g id="line2d_65">
      <defs>
       <path id="mf82f5fed9d" d="M 0 0 
L -3 0 
" style="stroke: #000000; stroke-width: 0.5"/>
      </defs>
      <g>
       <use xlink:href="#mf82f5fed9d" x="382.839375" y="246.790621" style="stroke: #000000; stroke-width: 0.5"/>
      </g>
     </g>
     <g id="text_8">
      <!-- −60 -->
      <g transform="translate(19.21375 251.349683) scale(0.12 -0.12)">
       <defs>
        <path id="DejaVuSans-2212" d="M 678 2272 
L 4684 2272 
L 4684 1741 
L 678 1741 
L 678 2272 
z
" transform="scale(0.015625)"/>
        <path id="DejaVuSans-36" d="M 2113 2584 
Q 1688 2584 1439 2293 
Q 1191 2003 1191 1497 
Q 1191 994 1439 701 
Q 1688 409 2113 409 
Q 2538 409 2786 701 
Q 3034 994 3034 1497 
Q 3034 2003 2786 2293 
Q 2538 2584 2113 2584 
z
M 3366 4563 
L 3366 3988 
Q 3128 4100 2886 4159 
Q 2644 4219 2406 4219 
Q 1781 4219 1451 3797 
Q 1122 3375 1075 2522 
Q 1259 2794 1537 2939 
Q 1816 3084 2150 3084 
Q 2853 3084 3261 2657 
Q 3669 2231 3669 1497 
Q 3669 778 3244 343 
Q 2819 -91 2113 -91 
Q 1303 -91 875 529 
Q 447 1150 447 2328 
Q 447 3434 972 4092 
Q 1497 4750 2381 4750 
Q 2619 4750 2861 4703 
Q 3103 4656 3366 4563 
z
" transform="scale(0.015625)"/>
       </defs>
       <use xlink:href="#DejaVuSans-2212"/>
       <use xlink:href="#DejaVuSans-36" x="83.789062"/>
       <use xlink:href="#DejaVuSans-30" x="147.412109"/>
      </g>
     </g>
    </g>
    <g id="ytick_2">
     <g id="line2d_66">
      <path d="M 48.039375 192.228442 
L 382.839375 192.228442 
" clip-path="url(#p02615a8ac9)" style="fill: none; stroke: #b0b0b0; stroke-width: 0.5; stroke-linecap: square"/>
     </g>
     <g id="line2d_67">
      <g>
       <use xlink:href="#mc0bb91a81a" x="48.039375" y="192.228442" style="stroke: #000000; stroke-width: 0.5"/>
      </g>
     </g>
     <g id="line2d_68">
      <g>
       <use xlink:href="#mf82f5fed9d" x="382.839375" y="192.228442" style="stroke: #000000; stroke-width: 0.5"/>
      </g>
     </g>
     <g id="text_9">
      <!-- −40 -->
      <g transform="translate(19.21375 196.787505) scale(0.12 -0.12)">
       <use xlink:href="#DejaVuSans-2212"/>
       <use xlink:href="#DejaVuSans-34" x="83.789062"/>
       <use xlink:href="#DejaVuSans-30" x="147.412109"/>
      </g>
     </g>
    </g>
    <g id="ytick_3">
     <g id="line2d_69">
      <path d="M 48.039375 137.666264 
L 382.839375 137.666264 
" clip-path="url(#p02615a8ac9)" style="fill: none; stroke: #b0b0b0; stroke-width: 0.5; stroke-linecap: square"/>
     </g>
     <g id="line2d_70">
      <g>
       <use xlink:href="#mc0bb91a81a" x="48.039375" y="137.666264" style="stroke: #000000; stroke-width: 0.5"/>
      </g>
     </g>
     <g id="line2d_71">
      <g>
       <use xlink:href="#mf82f5fed9d" x="382.839375" y="137.666264" style="stroke: #000000; stroke-width: 0.5"/>
      </g>
     </g>
     <g id="text_10">
      <!-- −20 -->
      <g transform="translate(19.21375 142.225326) scale(0.12 -0.12)">
       <use xlink:href="#DejaVuSans-2212"/>
       <use xlink:href="#DejaVuSans-32" x="83.789062"/>
       <use xlink:href="#DejaVuSans-30" x="147.412109"/>
      </g>
     </g>
    </g>
    <g id="ytick_4">
     <g id="line2d_72">
      <path d="M 48.039375 83.104085 
L 382.839375 83.104085 
" clip-path="url(#p02615a8ac9)" style="fill: none; stroke: #b0b0b0; stroke-width: 0.5; stroke-linecap: square"/>
     </g>
     <g id="line2d_73">
      <g>
       <use xlink:href="#mc0bb91a81a" x="48.039375" y="83.104085" style="stroke: #000000; stroke-width: 0.5"/>
      </g>
     </g>
     <g id="line2d_74">
      <g>
       <use xlink:href="#mf82f5fed9d" x="382.839375" y="83.104085" style="stroke: #000000; stroke-width: 0.5"/>
      </g>
     </g>
     <g id="text_11">
      <!-- 0 -->
      <g transform="translate(36.904375 87.663148) scale(0.12 -0.12)">
       <use xlink:href="#DejaVuSans-30"/>
      </g>
     </g>
    </g>
    <g id="ytick_5">
     <g id="line2d_75">
      <path d="M 48.039375 28.541907 
L 382.839375 28.541907 
" clip-path="url(#p02615a8ac9)" style="fill: none; stroke: #b0b0b0; stroke-width: 0.5; stroke-linecap: square"/>
     </g>
     <g id="line2d_76">
      <g>
       <use xlink:href="#mc0bb91a81a" x="48.039375" y="28.541907" style="stroke: #000000; stroke-width: 0.5"/>
      </g>
     </g>
     <g id="line2d_77">
      <g>
       <use xlink:href="#mf82f5fed9d" x="382.839375" y="28.541907" style="stroke: #000000; stroke-width: 0.5"/>
      </g>
     </g>
     <g id="text_12">
      <!-- 20 -->
      <g transform="translate(29.269375 33.100969) scale(0.12 -0.12)">
       <use xlink:href="#DejaVuSans-32"/>
       <use xlink:href="#DejaVuSans-30" x="63.623047"/>
      </g>
     </g>
    </g>
    <g id="ytick_6">
     <g id="line2d_78">
      <defs>
       <path id="m8c6d6cee11" d="M 0 0 
L 1.5 0 
" style="stroke: #000000; stroke-width: 0.5"/>
      </defs>
      <g>
       <use xlink:href="#m8c6d6cee11" x="48.039375" y="233.150076" style="stroke: #000000; stroke-width: 0.5"/>
      </g>
     </g>
     <g id="line2d_79">
      <defs>
       <path id="me63ccdb18d" d="M 0 0 
L -1.5 0 
" style="stroke: #000000; stroke-width: 0.5"/>
      </defs>
      <g>
       <use xlink:href="#me63ccdb18d" x="382.839375" y="233.150076" style="stroke: #000000; stroke-width: 0.5"/>
      </g>
     </g>
    </g>
    <g id="ytick_7">
     <g id="line2d_80">
      <g>
       <use xlink:href="#m8c6d6cee11" x="48.039375" y="219.509532" style="stroke: #000000; stroke-width: 0.5"/>
      </g>
     </g>
     <g id="line2d_81">
      <g>
       <use xlink:href="#me63ccdb18d" x="382.839375" y="219.509532" style="stroke: #000000; stroke-width: 0.5"/>
      </g>
     </g>
    </g>
    <g id="ytick_8">
     <g id="line2d_82">
      <g>
       <use xlink:href="#m8c6d6cee11" x="48.039375" y="205.868987" style="stroke: #000000; stroke-width: 0.5"/>
      </g>
     </g>
     <g id="line2d_83">
      <g>
       <use xlink:href="#me63ccdb18d" x="382.839375" y="205.868987" style="stroke: #000000; stroke-width: 0.5"/>
      </g>
     </g>
    </g>
    <g id="ytick_9">
     <g id="line2d_84">
      <g>
       <use xlink:href="#m8c6d6cee11" x="48.039375" y="178.587898" style="stroke: #000000; stroke-width: 0.5"/>
      </g>
     </g>
     <g id="line2d_85">
      <g>
       <use xlink:href="#me63ccdb18d" x="382.839375" y="178.587898" style="stroke: #000000; stroke-width: 0.5"/>
      </g>
     </g>
    </g>
    <g id="ytick_10">
     <g id="line2d_86">
      <g>
       <use xlink:href="#m8c6d6cee11" x="48.039375" y="164.947353" style="stroke: #000000; stroke-width: 0.5"/>
      </g>
     </g>
     <g id="line2d_87">
      <g>
       <use xlink:href="#me63ccdb18d" x="382.839375" y="164.947353" style="stroke: #000000; stroke-width: 0.5"/>
      </g>
     </g>
    </g>
    <g id="ytick_11">
     <g id="line2d_88">
      <g>
       <use xlink:href="#m8c6d6cee11" x="48.039375" y="151.306808" style="stroke: #000000; stroke-width: 0.5"/>
      </g>
     </g>
     <g id="line2d_89">
      <g>
       <use xlink:href="#me63ccdb18d" x="382.839375" y="151.306808" style="stroke: #000000; stroke-width: 0.5"/>
      </g>
     </g>
    </g>
    <g id="ytick_12">
     <g id="line2d_90">
      <g>
       <use xlink:href="#m8c6d6cee11" x="48.039375" y="124.025719" style="stroke: #000000; stroke-width: 0.5"/>
      </g>
     </g>
     <g id="line2d_91">
      <g>
       <use xlink:href="#me63ccdb18d" x="382.839375" y="124.025719" style="stroke: #000000; stroke-width: 0.5"/>
      </g>
     </g>
    </g>
    <g id="ytick_13">
     <g id="line2d_92">
      <g>
       <use xlink:href="#m8c6d6cee11" x="48.039375" y="110.385174" style="stroke: #000000; stroke-width: 0.5"/>
      </g>
     </g>
     <g id="line2d_93">
      <g>
       <use xlink:href="#me63ccdb18d" x="382.839375" y="110.385174" style="stroke: #000000; stroke-width: 0.5"/>
      </g>
     </g>
    </g>
    <g id="ytick_14">
     <g id="line2d_94">
      <g>
       <use xlink:href="#m8c6d6cee11" x="48.039375" y="96.74463" style="stroke: #000000; stroke-width: 0.5"/>
      </g>
     </g>
     <g id="line2d_95">
      <g>
       <use xlink:href="#me63ccdb18d" x="382.839375" y="96.74463" style="stroke: #000000; stroke-width: 0.5"/>
      </g>
     </g>
    </g>
    <g id="ytick_15">
     <g id="line2d_96">
      <g>
       <use xlink:href="#m8c6d6cee11" x="48.039375" y="69.463541" style="stroke: #000000; stroke-width: 0.5"/>
      </g>
     </g>
     <g id="line2d_97">
      <g>
       <use xlink:href="#me63ccdb18d" x="382.839375" y="69.463541" style="stroke: #000000; stroke-width: 0.5"/>
      </g>
     </g>
    </g>
    <g id="ytick_16">
     <g id="line2d_98">
      <g>
       <use xlink:href="#m8c6d6cee11" x="48.039375" y="55.822996" style="stroke: #000000; stroke-width: 0.5"/>
      </g>
     </g>
     <g id="line2d_99">
      <g>
       <use xlink:href="#me63ccdb18d" x="382.839375" y="55.822996" style="stroke: #000000; stroke-width: 0.5"/>
      </g>
     </g>
    </g>
    <g id="ytick_17">
     <g id="line2d_100">
      <g>
       <use xlink:href="#m8c6d6cee11" x="48.039375" y="42.182451" style="stroke: #000000; stroke-width: 0.5"/>
      </g>
     </g>
     <g id="line2d_101">
      <g>
       <use xlink:href="#me63ccdb18d" x="382.839375" y="42.182451" style="stroke: #000000; stroke-width: 0.5"/>
      </g>
     </g>
    </g>
    <g id="ytick_18">
     <g id="line2d_102">
      <g>
       <use xlink:href="#m8c6d6cee11" x="48.039375" y="14.901362" style="stroke: #000000; stroke-width: 0.5"/>
      </g>
     </g>
     <g id="line2d_103">
      <g>
       <use xlink:href="#me63ccdb18d" x="382.839375" y="14.901362" style="stroke: #000000; stroke-width: 0.5"/>
      </g>
     </g>
    </g>
    <g id="text_13">
     <!-- Fitness -->
     <g transform="translate(12.718125 149.120625) rotate(-90) scale(0.12 -0.12)">
      <defs>
       <path id="DejaVuSans-46" d="M 628 4666 
L 3309 4666 
L 3309 4134 
L 1259 4134 
L 1259 2759 
L 3109 2759 
L 3109 2228 
L 1259 2228 
L 1259 0 
L 628 0 
L 628 4666 
z
" transform="scale(0.015625)"/>
      </defs>
      <use xlink:href="#DejaVuSans-46"/>
      <use xlink:href="#DejaVuSans-69" x="50.269531"/>
      <use xlink:href="#DejaVuSans-74" x="78.052734"/>
      <use xlink:href="#DejaVuSans-6e" x="117.261719"/>
      <use xlink:href="#DejaVuSans-65" x="180.640625"/>
      <use xlink:href="#DejaVuSans-73" x="242.164062"/>
      <use xlink:href="#DejaVuSans-73" x="294.263672"/>
     </g>
    </g>
   </g>
   <g id="line2d_104">
    <path d="M 63.257557 41.195475 
L 63.867504 40.526293 
L 70.576923 40.526184 
L 71.18687 31.931938 
L 79.72613 31.931932 
L 80.336077 30.035163 
L 83.99576 30.035175 
L 85.215655 22.520945 
L 94.97481 22.52085 
L 95.584757 22.211588 
L 97.414598 22.211569 
L 98.024545 20.648225 
L 98.634493 20.64821 
L 99.24444 19.109425 
L 102.904123 19.027123 
L 104.124017 18.836829 
L 104.733964 18.836802 
L 105.343911 18.411562 
L 105.953859 18.411553 
L 106.563806 17.954314 
L 110.833436 17.954273 
L 111.443383 17.55633 
L 112.663277 17.556336 
L 113.273225 16.588617 
L 115.103066 16.588606 
L 115.713013 16.286483 
L 116.932908 16.261225 
L 117.542855 16.124974 
L 118.762749 16.118226 
L 119.372696 15.521287 
L 129.741798 15.46772 
L 130.961692 15.371124 
L 138.281058 15.26517 
L 139.500953 15.197785 
L 155.969526 15.185548 
L 156.579473 15.039483 
L 367.621193 14.940014 
L 367.621193 14.940014 
" clip-path="url(#p02615a8ac9)" style="fill: none; stroke: #000000; stroke-linecap: square"/>
   </g>
   <g id="line2d_105">
    <path d="M 63.257557 30.495773 
L 367.621193 30.495773 
L 367.621193 30.495773 
" clip-path="url(#p02615a8ac9)" style="fill: none; stroke-dasharray: 3.7,1.6; stroke-dashoffset: 0; stroke: #000000"/>
   </g>
   <g id="patch_3">
    <path d="M 48.039375 253.08 
L 48.039375 3.6 
" style="fill: none; stroke: #000000; stroke-width: 0.5; stroke-linejoin: miter; stroke-linecap: square"/>
   </g>
   <g id="patch_4">
    <path d="M 382.839375 253.08 
L 382.839375 3.6 
" style="fill: none; stroke: #000000; stroke-width: 0.5; stroke-linejoin: miter; stroke-linecap: square"/>
   </g>
   <g id="patch_5">
    <path d="M 48.039375 253.08 
L 382.839375 253.08 
" style="fill: none; stroke: #000000; stroke-width: 0.5; stroke-linejoin: miter; stroke-linecap: square"/>
   </g>
   <g id="patch_6">
    <path d="M 48.039375 3.6 
L 382.839375 3.6 
" style="fill: none; stroke: #000000; stroke-width: 0.5; stroke-linejoin: miter; stroke-linecap: square"/>
   </g>
   <g id="legend_1">
    <g id="patch_7">
     <path d="M 253.92 247.08 
L 374.439375 247.08 
Q 376.839375 247.08 376.839375 244.68 
L 376.839375 193.03875 
Q 376.839375 190.63875 374.439375 190.63875 
L 253.92 190.63875 
Q 251.52 190.63875 251.52 193.03875 
L 251.52 244.68 
Q 251.52 247.08 253.92 247.08 
z
" style="fill: #ffffff; opacity: 0.8; stroke: #cccccc; stroke-linejoin: miter"/>
    </g>
    <g id="line2d_106">
     <path d="M 256.32 200.356875 
L 268.32 200.356875 
L 280.32 200.356875 
" style="fill: none; stroke: #000000; stroke-linecap: square"/>
    </g>
    <g id="text_14">
     <!-- Best fitness -->
     <g transform="translate(289.92 204.556875) scale(0.12 -0.12)">
      <defs>
       <path id="DejaVuSans-42" d="M 1259 2228 
L 1259 519 
L 2272 519 
Q 2781 519 3026 730 
Q 3272 941 3272 1375 
Q 3272 1813 3026 2020 
Q 2781 2228 2272 2228 
L 1259 2228 
z
M 1259 4147 
L 1259 2741 
L 2194 2741 
Q 2656 2741 2882 2914 
Q 3109 3088 3109 3444 
Q 3109 3797 2882 3972 
Q 2656 4147 2194 4147 
L 1259 4147 
z
M 628 4666 
L 2241 4666 
Q 2963 4666 3353 4366 
Q 3744 4066 3744 3513 
Q 3744 3084 3544 2831 
Q 3344 2578 2956 2516 
Q 3422 2416 3680 2098 
Q 3938 1781 3938 1306 
Q 3938 681 3513 340 
Q 3088 0 2303 0 
L 628 0 
L 628 4666 
z
" transform="scale(0.015625)"/>
       <path id="DejaVuSans-20" transform="scale(0.015625)"/>
       <path id="DejaVuSans-66" d="M 2375 4863 
L 2375 4384 
L 1825 4384 
Q 1516 4384 1395 4259 
Q 1275 4134 1275 3809 
L 1275 3500 
L 2222 3500 
L 2222 3053 
L 1275 3053 
L 1275 0 
L 697 0 
L 697 3053 
L 147 3053 
L 147 3500 
L 697 3500 
L 697 3744 
Q 697 4328 969 4595 
Q 1241 4863 1831 4863 
L 2375 4863 
z
" transform="scale(0.015625)"/>
      </defs>
      <use xlink:href="#DejaVuSans-42"/>
      <use xlink:href="#DejaVuSans-65" x="68.603516"/>
      <use xlink:href="#DejaVuSans-73" x="130.126953"/>
      <use xlink:href="#DejaVuSans-74" x="182.226562"/>
      <use xlink:href="#DejaVuSans-20" x="221.435547"/>
      <use xlink:href="#DejaVuSans-66" x="253.222656"/>
      <use xlink:href="#DejaVuSans-69" x="288.427734"/>
      <use xlink:href="#DejaVuSans-74" x="316.210938"/>
      <use xlink:href="#DejaVuSans-6e" x="355.419922"/>
      <use xlink:href="#DejaVuSans-65" x="418.798828"/>
      <use xlink:href="#DejaVuSans-73" x="480.322266"/>
      <use xlink:href="#DejaVuSans-73" x="532.421875"/>
     </g>
    </g>
    <g id="patch_8">
     <path d="M 256.32 222.170625 
L 280.32 222.170625 
L 280.32 213.770625 
L 256.32 213.770625 
z
" style="fill: #0000ff; fill-opacity: 0.2; stroke: #0000ff; stroke-opacity: 0.2; stroke-linejoin: miter"/>
    </g>
    <g id="text_15">
     <!-- Top 90% -->
     <g transform="translate(289.92 222.170625) scale(0.12 -0.12)">
      <defs>
       <path id="DejaVuSans-54" d="M -19 4666 
L 3928 4666 
L 3928 4134 
L 2272 4134 
L 2272 0 
L 1638 0 
L 1638 4134 
L -19 4134 
L -19 4666 
z
" transform="scale(0.015625)"/>
       <path id="DejaVuSans-70" d="M 1159 525 
L 1159 -1331 
L 581 -1331 
L 581 3500 
L 1159 3500 
L 1159 2969 
Q 1341 3281 1617 3432 
Q 1894 3584 2278 3584 
Q 2916 3584 3314 3078 
Q 3713 2572 3713 1747 
Q 3713 922 3314 415 
Q 2916 -91 2278 -91 
Q 1894 -91 1617 61 
Q 1341 213 1159 525 
z
M 3116 1747 
Q 3116 2381 2855 2742 
Q 2594 3103 2138 3103 
Q 1681 3103 1420 2742 
Q 1159 2381 1159 1747 
Q 1159 1113 1420 752 
Q 1681 391 2138 391 
Q 2594 391 2855 752 
Q 3116 1113 3116 1747 
z
" transform="scale(0.015625)"/>
       <path id="DejaVuSans-39" d="M 703 97 
L 703 672 
Q 941 559 1184 500 
Q 1428 441 1663 441 
Q 2288 441 2617 861 
Q 2947 1281 2994 2138 
Q 2813 1869 2534 1725 
Q 2256 1581 1919 1581 
Q 1219 1581 811 2004 
Q 403 2428 403 3163 
Q 403 3881 828 4315 
Q 1253 4750 1959 4750 
Q 2769 4750 3195 4129 
Q 3622 3509 3622 2328 
Q 3622 1225 3098 567 
Q 2575 -91 1691 -91 
Q 1453 -91 1209 -44 
Q 966 3 703 97 
z
M 1959 2075 
Q 2384 2075 2632 2365 
Q 2881 2656 2881 3163 
Q 2881 3666 2632 3958 
Q 2384 4250 1959 4250 
Q 1534 4250 1286 3958 
Q 1038 3666 1038 3163 
Q 1038 2656 1286 2365 
Q 1534 2075 1959 2075 
z
" transform="scale(0.015625)"/>
       <path id="DejaVuSans-25" d="M 4653 2053 
Q 4381 2053 4226 1822 
Q 4072 1591 4072 1178 
Q 4072 772 4226 539 
Q 4381 306 4653 306 
Q 4919 306 5073 539 
Q 5228 772 5228 1178 
Q 5228 1588 5073 1820 
Q 4919 2053 4653 2053 
z
M 4653 2450 
Q 5147 2450 5437 2106 
Q 5728 1763 5728 1178 
Q 5728 594 5436 251 
Q 5144 -91 4653 -91 
Q 4153 -91 3862 251 
Q 3572 594 3572 1178 
Q 3572 1766 3864 2108 
Q 4156 2450 4653 2450 
z
M 1428 4353 
Q 1159 4353 1004 4120 
Q 850 3888 850 3481 
Q 850 3069 1003 2837 
Q 1156 2606 1428 2606 
Q 1700 2606 1854 2837 
Q 2009 3069 2009 3481 
Q 2009 3884 1853 4118 
Q 1697 4353 1428 4353 
z
M 4250 4750 
L 4750 4750 
L 1831 -91 
L 1331 -91 
L 4250 4750 
z
M 1428 4750 
Q 1922 4750 2215 4408 
Q 2509 4066 2509 3481 
Q 2509 2891 2217 2550 
Q 1925 2209 1428 2209 
Q 931 2209 642 2551 
Q 353 2894 353 3481 
Q 353 4063 643 4406 
Q 934 4750 1428 4750 
z
" transform="scale(0.015625)"/>
      </defs>
      <use xlink:href="#DejaVuSans-54"/>
      <use xlink:href="#DejaVuSans-6f" x="44.083984"/>
      <use xlink:href="#DejaVuSans-70" x="105.265625"/>
      <use xlink:href="#DejaVuSans-20" x="168.742188"/>
      <use xlink:href="#DejaVuSans-39" x="200.529297"/>
      <use xlink:href="#DejaVuSans-30" x="264.152344"/>
      <use xlink:href="#DejaVuSans-25" x="327.775391"/>
     </g>
    </g>
    <g id="line2d_107">
     <path d="M 256.32 235.584375 
L 268.32 235.584375 
L 280.32 235.584375 
" style="fill: none; stroke-dasharray: 3.7,1.6; stroke-dashoffset: 0; stroke: #000000"/>
    </g>
    <g id="text_16">
     <!-- 180mm Quad -->
     <g transform="translate(289.92 239.784375) scale(0.12 -0.12)">
      <defs>
       <path id="DejaVuSans-38" d="M 2034 2216 
Q 1584 2216 1326 1975 
Q 1069 1734 1069 1313 
Q 1069 891 1326 650 
Q 1584 409 2034 409 
Q 2484 409 2743 651 
Q 3003 894 3003 1313 
Q 3003 1734 2745 1975 
Q 2488 2216 2034 2216 
z
M 1403 2484 
Q 997 2584 770 2862 
Q 544 3141 544 3541 
Q 544 4100 942 4425 
Q 1341 4750 2034 4750 
Q 2731 4750 3128 4425 
Q 3525 4100 3525 3541 
Q 3525 3141 3298 2862 
Q 3072 2584 2669 2484 
Q 3125 2378 3379 2068 
Q 3634 1759 3634 1313 
Q 3634 634 3220 271 
Q 2806 -91 2034 -91 
Q 1263 -91 848 271 
Q 434 634 434 1313 
Q 434 1759 690 2068 
Q 947 2378 1403 2484 
z
M 1172 3481 
Q 1172 3119 1398 2916 
Q 1625 2713 2034 2713 
Q 2441 2713 2670 2916 
Q 2900 3119 2900 3481 
Q 2900 3844 2670 4047 
Q 2441 4250 2034 4250 
Q 1625 4250 1398 4047 
Q 1172 3844 1172 3481 
z
" transform="scale(0.015625)"/>
       <path id="DejaVuSans-6d" d="M 3328 2828 
Q 3544 3216 3844 3400 
Q 4144 3584 4550 3584 
Q 5097 3584 5394 3201 
Q 5691 2819 5691 2113 
L 5691 0 
L 5113 0 
L 5113 2094 
Q 5113 2597 4934 2840 
Q 4756 3084 4391 3084 
Q 3944 3084 3684 2787 
Q 3425 2491 3425 1978 
L 3425 0 
L 2847 0 
L 2847 2094 
Q 2847 2600 2669 2842 
Q 2491 3084 2119 3084 
Q 1678 3084 1418 2786 
Q 1159 2488 1159 1978 
L 1159 0 
L 581 0 
L 581 3500 
L 1159 3500 
L 1159 2956 
Q 1356 3278 1631 3431 
Q 1906 3584 2284 3584 
Q 2666 3584 2933 3390 
Q 3200 3197 3328 2828 
z
" transform="scale(0.015625)"/>
       <path id="DejaVuSans-51" d="M 2522 4238 
Q 1834 4238 1429 3725 
Q 1025 3213 1025 2328 
Q 1025 1447 1429 934 
Q 1834 422 2522 422 
Q 3209 422 3611 934 
Q 4013 1447 4013 2328 
Q 4013 3213 3611 3725 
Q 3209 4238 2522 4238 
z
M 3406 84 
L 4238 -825 
L 3475 -825 
L 2784 -78 
Q 2681 -84 2626 -87 
Q 2572 -91 2522 -91 
Q 1538 -91 948 567 
Q 359 1225 359 2328 
Q 359 3434 948 4092 
Q 1538 4750 2522 4750 
Q 3503 4750 4090 4092 
Q 4678 3434 4678 2328 
Q 4678 1516 4351 937 
Q 4025 359 3406 84 
z
" transform="scale(0.015625)"/>
       <path id="DejaVuSans-75" d="M 544 1381 
L 544 3500 
L 1119 3500 
L 1119 1403 
Q 1119 906 1312 657 
Q 1506 409 1894 409 
Q 2359 409 2629 706 
Q 2900 1003 2900 1516 
L 2900 3500 
L 3475 3500 
L 3475 0 
L 2900 0 
L 2900 538 
Q 2691 219 2414 64 
Q 2138 -91 1772 -91 
Q 1169 -91 856 284 
Q 544 659 544 1381 
z
M 1991 3584 
L 1991 3584 
z
" transform="scale(0.015625)"/>
       <path id="DejaVuSans-64" d="M 2906 2969 
L 2906 4863 
L 3481 4863 
L 3481 0 
L 2906 0 
L 2906 525 
Q 2725 213 2448 61 
Q 2172 -91 1784 -91 
Q 1150 -91 751 415 
Q 353 922 353 1747 
Q 353 2572 751 3078 
Q 1150 3584 1784 3584 
Q 2172 3584 2448 3432 
Q 2725 3281 2906 2969 
z
M 947 1747 
Q 947 1113 1208 752 
Q 1469 391 1925 391 
Q 2381 391 2643 752 
Q 2906 1113 2906 1747 
Q 2906 2381 2643 2742 
Q 2381 3103 1925 3103 
Q 1469 3103 1208 2742 
Q 947 2381 947 1747 
z
" transform="scale(0.015625)"/>
      </defs>
      <use xlink:href="#DejaVuSans-31"/>
      <use xlink:href="#DejaVuSans-38" x="63.623047"/>
      <use xlink:href="#DejaVuSans-30" x="127.246094"/>
      <use xlink:href="#DejaVuSans-6d" x="190.869141"/>
      <use xlink:href="#DejaVuSans-6d" x="288.28125"/>
      <use xlink:href="#DejaVuSans-20" x="385.693359"/>
      <use xlink:href="#DejaVuSans-51" x="417.480469"/>
      <use xlink:href="#DejaVuSans-75" x="496.191406"/>
      <use xlink:href="#DejaVuSans-61" x="559.570312"/>
      <use xlink:href="#DejaVuSans-64" x="620.849609"/>
     </g>
    </g>
   </g>
  </g>
 </g>
 <defs>
  <clipPath id="p02615a8ac9">
   <rect x="48.039375" y="3.6" width="334.8" height="249.48"/>
  </clipPath>
 </defs>
</svg>
