<?xml version="1.0" encoding="utf-8" standalone="no"?>
<!DOCTYPE svg PUBLIC "-//W3C//DTD SVG 1.1//EN"
  "http://www.w3.org/Graphics/SVG/1.1/DTD/svg11.dtd">
<svg xmlns:xlink="http://www.w3.org/1999/xlink" width="394.074375pt" height="287.4075pt" viewBox="0 0 394.074375 287.4075" xmlns="http://www.w3.org/2000/svg" version="1.1">
 <metadata>
  <rdf:RDF xmlns:dc="http://purl.org/dc/elements/1.1/" xmlns:cc="http://creativecommons.org/ns#" xmlns:rdf="http://www.w3.org/1999/02/22-rdf-syntax-ns#">
   <cc:Work>
    <dc:type rdf:resource="http://purl.org/dc/dcmitype/StillImage"/>
    <dc:date>2024-06-05T09:17:18.952212</dc:date>
    <dc:format>image/svg+xml</dc:format>
    <dc:creator>
     <cc:Agent>
      <dc:title>Matplotlib v3.9.0, https://matplotlib.org/</dc:title>
     </cc:Agent>
    </dc:creator>
   </cc:Work>
  </rdf:RDF>
 </metadata>
 <defs>
  <style type="text/css">*{stroke-linejoin: round; stroke-linecap: butt}</style>
 </defs>
 <g id="figure_1">
  <g id="patch_1">
   <path d="M 0 287.4075 
L 394.074375 287.4075 
L 394.074375 0 
L 0 0 
z
" style="fill: #ffffff"/>
  </g>
  <g id="axes_1">
   <g id="patch_2">
    <path d="M 55.674375 253.08 
L 390.474375 253.08 
L 390.474375 3.6 
L 55.674375 3.6 
z
" style="fill: #ffffff"/>
   </g>
   <g id="PolyCollection_1">
    <defs>
     <path id="mfa26693528" d="M 70.892557 -258.438781 
L 70.892557 -169.162334 
L 71.502504 -151.284638 
L 72.112451 -161.677632 
L 72.722398 -197.768471 
L 73.332345 -201.011461 
L 73.942293 -196.736441 
L 74.55224 -190.334067 
L 75.162187 -195.580011 
L 75.772134 -189.668811 
L 76.382081 -182.554084 
L 76.992028 -183.957669 
L 77.601976 -187.394042 
L 78.211923 -189.582227 
L 78.82187 -189.195786 
L 79.431817 -194.876046 
L 80.041764 -187.400246 
L 80.651711 -192.393511 
L 81.261659 -189.535484 
L 81.871606 -197.30135 
L 82.481553 -197.30135 
L 83.0915 -197.30135 
L 83.701447 -201.108135 
L 84.311394 -204.76177 
L 84.921342 -202.880871 
L 85.531289 -203.919408 
L 86.141236 -207.990234 
L 86.751183 -206.387972 
L 87.36113 -206.95889 
L 87.971077 -210.078284 
L 88.581025 -208.9363 
L 89.190972 -208.767588 
L 89.800919 -208.589616 
L 90.410866 -201.160085 
L 91.020813 -205.87387 
L 91.63076 -208.710342 
L 92.240708 -209.422279 
L 92.850655 -209.104316 
L 93.460602 -210.554335 
L 94.070549 -212.150594 
L 94.680496 -213.875797 
L 95.290444 -209.611043 
L 95.900391 -211.676677 
L 96.510338 -213.051867 
L 97.120285 -215.338772 
L 97.730232 -215.191392 
L 98.340179 -215.286455 
L 98.950127 -212.546828 
L 99.560074 -211.538975 
L 100.170021 -213.537553 
L 100.779968 -215.243738 
L 101.389915 -215.561265 
L 101.999862 -217.887253 
L 102.60981 -217.720297 
L 103.219757 -218.424552 
L 103.829704 -218.424552 
L 104.439651 -215.875015 
L 105.049598 -217.328706 
L 105.659545 -216.306289 
L 106.269493 -217.929938 
L 106.87944 -217.654273 
L 107.489387 -215.569267 
L 108.099334 -217.128922 
L 108.709281 -218.535118 
L 109.319228 -217.765033 
L 109.929176 -218.48898 
L 110.539123 -220.325343 
L 111.14907 -241.042953 
L 111.759017 -241.786403 
L 112.368964 -257.693925 
L 112.978911 -242.840587 
L 113.588859 -260.958304 
L 114.198806 -264.00051 
L 114.808753 -264.529341 
L 115.4187 -264.082609 
L 116.028647 -265.221348 
L 116.638594 -264.946059 
L 117.248542 -264.955379 
L 117.858489 -263.852042 
L 118.468436 -264.053548 
L 119.078383 -262.913933 
L 119.68833 -262.659785 
L 120.298277 -263.723237 
L 120.908225 -265.232857 
L 121.518172 -263.591164 
L 122.128119 -264.755875 
L 122.738066 -264.025624 
L 123.348013 -263.979007 
L 123.95796 -263.626685 
L 124.567908 -264.559885 
L 125.177855 -265.514755 
L 125.787802 -264.940482 
L 126.397749 -264.278271 
L 127.007696 -265.227819 
L 127.617643 -265.325932 
L 128.227591 -265.904866 
L 128.837538 -265.833069 
L 129.447485 -266.128736 
L 130.057432 -265.887079 
L 130.667379 -266.144198 
L 131.277326 -265.792177 
L 131.887274 -264.82348 
L 132.497221 -265.446475 
L 133.107168 -265.394543 
L 133.717115 -265.58972 
L 134.327062 -265.651006 
L 134.937009 -266.272432 
L 135.546957 -266.600743 
L 136.156904 -265.715636 
L 136.766851 -266.058984 
L 137.376798 -266.145946 
L 137.986745 -266.249833 
L 138.596692 -266.781636 
L 139.20664 -266.454671 
L 139.816587 -266.796684 
L 140.426534 -266.919907 
L 141.036481 -266.890469 
L 141.646428 -267.475313 
L 142.256375 -267.828651 
L 142.866323 -267.961846 
L 143.47627 -268.496732 
L 144.086217 -268.022079 
L 144.696164 -268.243127 
L 145.306111 -267.711071 
L 145.916058 -267.721766 
L 146.526006 -267.689301 
L 147.135953 -267.228761 
L 147.7459 -267.130072 
L 148.355847 -267.271844 
L 148.965794 -267.398382 
L 149.575741 -268.142837 
L 150.185689 -267.796741 
L 150.795636 -267.984306 
L 151.405583 -268.141088 
L 152.01553 -268.049629 
L 152.625477 -267.205787 
L 153.235424 -267.923608 
L 153.845372 -267.690979 
L 154.455319 -268.209639 
L 155.065266 -268.446915 
L 155.675213 -268.239605 
L 156.28516 -268.35169 
L 156.895107 -267.296207 
L 157.505055 -268.583309 
L 158.115002 -268.454475 
L 158.724949 -269.236723 
L 159.334896 -269.888785 
L 159.944843 -269.076087 
L 160.55479 -267.449237 
L 161.164738 -268.84939 
L 161.774685 -269.394881 
L 162.384632 -270.005238 
L 162.994579 -268.942862 
L 163.604526 -268.809429 
L 164.214473 -268.612612 
L 164.824421 -268.603399 
L 165.434368 -269.196786 
L 166.044315 -269.987828 
L 166.654262 -270.015466 
L 167.264209 -269.797926 
L 167.874156 -269.763023 
L 168.484104 -269.727918 
L 169.094051 -269.661437 
L 169.703998 -269.340202 
L 170.313945 -269.201404 
L 170.923892 -269.008879 
L 171.533839 -269.617991 
L 172.143787 -269.747936 
L 172.753734 -270.597168 
L 173.363681 -269.423557 
L 173.973628 -269.584007 
L 174.583575 -268.735779 
L 175.193522 -268.544644 
L 175.80347 -267.477576 
L 176.413417 -268.078066 
L 177.023364 -269.790573 
L 177.633311 -269.153634 
L 178.243258 -268.669585 
L 178.853205 -268.850018 
L 179.463153 -268.4941 
L 180.0731 -268.420917 
L 180.683047 -268.682166 
L 181.292994 -269.52188 
L 181.902941 -269.653245 
L 182.512888 -269.474357 
L 183.122836 -269.511527 
L 183.732783 -268.903729 
L 184.34273 -268.152178 
L 184.952677 -269.468007 
L 185.562624 -269.385747 
L 186.172571 -268.722415 
L 186.782519 -268.557844 
L 187.392466 -269.390863 
L 188.002413 -269.993375 
L 188.61236 -269.182052 
L 189.222307 -268.700023 
L 189.832254 -268.360608 
L 190.442202 -268.387273 
L 191.052149 -268.613332 
L 191.662096 -268.424629 
L 192.272043 -268.248106 
L 192.88199 -268.248108 
L 193.491937 -267.812935 
L 194.101885 -267.325692 
L 194.711832 -268.425815 
L 195.321779 -268.425818 
L 195.931726 -269.378246 
L 196.541673 -268.66215 
L 197.15162 -268.670689 
L 197.761568 -268.802228 
L 198.371515 -268.882587 
L 198.981462 -268.823377 
L 199.591409 -268.79738 
L 200.201356 -268.230229 
L 200.811303 -269.860479 
L 201.421251 -269.062551 
L 202.031198 -267.636583 
L 202.641145 -267.636588 
L 203.251092 -267.512448 
L 203.861039 -267.120874 
L 204.470986 -267.375699 
L 205.080934 -267.375696 
L 205.690881 -267.588081 
L 206.300828 -266.954764 
L 206.910775 -267.686425 
L 207.520722 -268.781971 
L 208.130669 -268.438675 
L 208.740617 -268.206057 
L 209.350564 -268.250889 
L 209.960511 -268.438688 
L 210.570458 -267.940567 
L 211.180405 -267.891161 
L 211.790352 -268.90001 
L 212.4003 -269.253218 
L 213.010247 -268.864411 
L 213.620194 -268.577224 
L 214.230141 -268.969178 
L 214.840088 -269.188142 
L 215.450035 -269.636291 
L 216.059983 -269.655947 
L 216.66993 -268.247705 
L 217.279877 -269.220175 
L 217.889824 -268.074205 
L 218.499771 -268.634296 
L 219.109718 -269.167577 
L 219.719666 -269.528289 
L 220.329613 -269.460143 
L 220.93956 -269.466036 
L 221.549507 -269.301499 
L 222.159454 -269.018627 
L 222.769401 -269.288853 
L 223.379349 -269.500821 
L 223.989296 -269.440267 
L 224.599243 -269.372372 
L 225.20919 -268.688645 
L 225.819137 -268.834595 
L 226.429084 -268.866939 
L 227.039032 -269.018637 
L 227.648979 -268.549575 
L 228.258926 -268.724788 
L 228.868873 -268.410567 
L 229.47882 -268.476364 
L 230.088767 -267.789694 
L 230.698715 -268.76441 
L 231.308662 -267.911099 
L 231.918609 -267.463358 
L 232.528556 -268.881442 
L 233.138503 -268.107001 
L 233.74845 -267.656879 
L 234.358398 -268.686812 
L 234.968345 -268.327333 
L 235.578292 -268.882809 
L 236.188239 -268.663921 
L 236.798186 -269.021266 
L 237.408133 -268.090856 
L 238.018081 -267.978841 
L 238.628028 -268.005555 
L 239.237975 -267.813483 
L 239.847922 -267.502134 
L 240.457869 -267.668141 
L 241.067816 -267.697491 
L 241.677764 -267.66814 
L 242.287711 -267.35882 
L 242.897658 -267.338078 
L 243.507605 -267.27406 
L 244.117552 -266.496415 
L 244.727499 -268.24523 
L 245.337447 -268.68477 
L 245.947394 -268.598444 
L 246.557341 -269.028026 
L 247.167288 -269.087498 
L 247.777235 -267.47082 
L 248.387182 -267.376159 
L 248.99713 -267.310752 
L 249.607077 -267.376158 
L 250.217024 -267.905244 
L 250.826971 -267.555875 
L 251.436918 -268.2007 
L 252.046865 -268.220122 
L 252.656813 -267.654373 
L 253.26676 -268.40762 
L 253.876707 -268.284108 
L 254.486654 -268.653343 
L 255.096601 -268.89178 
L 255.706548 -267.739415 
L 256.316496 -268.733089 
L 256.926443 -269.356507 
L 257.53639 -268.998804 
L 258.146337 -268.129829 
L 258.756284 -268.846594 
L 259.366231 -269.941362 
L 259.976179 -269.949223 
L 260.586126 -269.731282 
L 261.196073 -269.522649 
L 261.80602 -269.136709 
L 262.415967 -268.742392 
L 263.025914 -267.918297 
L 263.635862 -267.951877 
L 264.245809 -267.739712 
L 264.855756 -267.593307 
L 265.465703 -267.754306 
L 266.07565 -268.213837 
L 266.685597 -268.871434 
L 267.295545 -268.20887 
L 267.905492 -268.17231 
L 268.515439 -267.794416 
L 269.125386 -268.15662 
L 269.735333 -267.485314 
L 270.34528 -267.488534 
L 270.955228 -265.467864 
L 271.565175 -265.051724 
L 272.175122 -267.754307 
L 272.785069 -267.754314 
L 273.395016 -268.14434 
L 274.004963 -267.754319 
L 274.614911 -267.784451 
L 275.224858 -267.672968 
L 275.834805 -267.997183 
L 276.444752 -267.875765 
L 277.054699 -267.276062 
L 277.664646 -267.610268 
L 278.274594 -267.651659 
L 278.884541 -267.952005 
L 279.494488 -269.145206 
L 280.104435 -268.30589 
L 280.714382 -268.872467 
L 281.324329 -269.468677 
L 281.934277 -268.595253 
L 282.544224 -267.629408 
L 283.154171 -267.782466 
L 283.764118 -268.455744 
L 284.374065 -267.984039 
L 284.984012 -268.455702 
L 285.59396 -268.078721 
L 286.203907 -268.865255 
L 286.813854 -268.662791 
L 287.423801 -268.671173 
L 288.033748 -269.093019 
L 288.643695 -269.503629 
L 289.253643 -269.014222 
L 289.86359 -269.373121 
L 290.473537 -268.996222 
L 291.083484 -269.405444 
L 291.693431 -270.018553 
L 292.303378 -270.500795 
L 292.913326 -270.649262 
L 293.523273 -270.569526 
L 294.13322 -270.030366 
L 294.743167 -269.375051 
L 295.353114 -269.532565 
L 295.963061 -269.326211 
L 296.573009 -269.539873 
L 297.182956 -269.714504 
L 297.792903 -269.446236 
L 298.40285 -269.099393 
L 299.012797 -268.867334 
L 299.622744 -268.867337 
L 300.232692 -268.820854 
L 300.842639 -269.026691 
L 301.452586 -269.547208 
L 302.062533 -269.608787 
L 302.67248 -269.085879 
L 303.282427 -269.507402 
L 303.892375 -268.951244 
L 304.502322 -268.810315 
L 305.112269 -268.929289 
L 305.722216 -269.176113 
L 306.332163 -268.909633 
L 306.94211 -269.579509 
L 307.552058 -269.579508 
L 308.162005 -269.752811 
L 308.771952 -270.086779 
L 309.381899 -270.403322 
L 309.991846 -269.613706 
L 310.601793 -269.082381 
L 311.211741 -269.247845 
L 311.821688 -269.465528 
L 312.431635 -269.209626 
L 313.041582 -268.964508 
L 313.651529 -269.458083 
L 314.261476 -270.079372 
L 314.871424 -270.229132 
L 315.481371 -270.100061 
L 316.091318 -270.101464 
L 316.701265 -270.094626 
L 317.311212 -269.550246 
L 317.921159 -269.909563 
L 318.531107 -269.043774 
L 319.141054 -268.933672 
L 319.751001 -268.909906 
L 320.360948 -268.858972 
L 320.970895 -268.287207 
L 321.580842 -268.64673 
L 322.19079 -268.30969 
L 322.800737 -269.614689 
L 323.410684 -269.282397 
L 324.020631 -269.046734 
L 324.630578 -269.013732 
L 325.240525 -268.672704 
L 325.850473 -267.718295 
L 326.46042 -268.054035 
L 327.070367 -268.574595 
L 327.680314 -269.07995 
L 328.290261 -269.072429 
L 328.900208 -269.578009 
L 329.510156 -269.530188 
L 330.120103 -268.902842 
L 330.73005 -269.627296 
L 331.339997 -270.035625 
L 331.949944 -269.885275 
L 332.559891 -270.187744 
L 333.169839 -270.404738 
L 333.779786 -270.165048 
L 334.389733 -269.245115 
L 334.99968 -268.416291 
L 335.609627 -268.416291 
L 336.219574 -268.347533 
L 336.829522 -269.481106 
L 337.439469 -269.578812 
L 338.049416 -269.33511 
L 338.659363 -268.754466 
L 339.26931 -268.712177 
L 339.879257 -268.753514 
L 340.489205 -268.657455 
L 341.099152 -269.201363 
L 341.709099 -268.730531 
L 342.319046 -268.543485 
L 342.928993 -268.764365 
L 343.53894 -268.617075 
L 344.148888 -268.956364 
L 344.758835 -268.764359 
L 345.368782 -269.151789 
L 345.978729 -269.151791 
L 346.588676 -269.151795 
L 347.198623 -268.588083 
L 347.808571 -268.417616 
L 348.418518 -268.067656 
L 349.028465 -268.506286 
L 349.638412 -268.645401 
L 350.248359 -268.506287 
L 350.858306 -268.722983 
L 351.468254 -269.022066 
L 352.078201 -269.146758 
L 352.688148 -270.101833 
L 353.298095 -269.608372 
L 353.908042 -269.729624 
L 354.51799 -269.257932 
L 355.127937 -269.566573 
L 355.737884 -269.277302 
L 356.347831 -269.168747 
L 356.957778 -269.93552 
L 357.567725 -268.925038 
L 358.177673 -269.961029 
L 358.78762 -269.837431 
L 359.397567 -269.991553 
L 360.007514 -269.333925 
L 360.617461 -269.271486 
L 361.227408 -269.137013 
L 361.837356 -268.734526 
L 362.447303 -267.549691 
L 363.05725 -267.54969 
L 363.667197 -268.170144 
L 364.277144 -268.419571 
L 364.887091 -268.533133 
L 365.497039 -268.39559 
L 366.106986 -268.395588 
L 366.716933 -268.197115 
L 367.32688 -267.886877 
L 367.936827 -267.481329 
L 368.546774 -268.197105 
L 369.156722 -267.855001 
L 369.766669 -268.504603 
L 370.376616 -268.959889 
L 370.986563 -269.56931 
L 371.59651 -269.601023 
L 372.206457 -269.271239 
L 372.816405 -268.822513 
L 373.426352 -268.574403 
L 374.036299 -268.970746 
L 374.646246 -268.826421 
L 375.256193 -268.878552 
L 375.256193 -272.467492 
L 375.256193 -272.467492 
L 374.646246 -272.467484 
L 374.036299 -272.467499 
L 373.426352 -272.467489 
L 372.816405 -272.467497 
L 372.206457 -272.467496 
L 371.59651 -272.467487 
L 370.986563 -272.467485 
L 370.376616 -272.467478 
L 369.766669 -272.4675 
L 369.156722 -272.4675 
L 368.546774 -272.467483 
L 367.936827 -272.467492 
L 367.32688 -272.467495 
L 366.716933 -272.467488 
L 366.106986 -272.467494 
L 365.497039 -272.467492 
L 364.887091 -272.467491 
L 364.277144 -272.467494 
L 363.667197 -272.467499 
L 363.05725 -272.467486 
L 362.447303 -272.467499 
L 361.837356 -272.467499 
L 361.227408 -272.467491 
L 360.617461 -272.467491 
L 360.007514 -272.46749 
L 359.397567 -272.467484 
L 358.78762 -272.467494 
L 358.177673 -272.467494 
L 357.567725 -272.467494 
L 356.957778 -272.467486 
L 356.347831 -272.467478 
L 355.737884 -272.467493 
L 355.127937 -272.467494 
L 354.51799 -272.4675 
L 353.908042 -272.467483 
L 353.298095 -272.467498 
L 352.688148 -272.467492 
L 352.078201 -272.467486 
L 351.468254 -272.467483 
L 350.858306 -272.46748 
L 350.248359 -272.467489 
L 349.638412 -272.467487 
L 349.028465 -272.467483 
L 348.418518 -272.467476 
L 347.808571 -272.467484 
L 347.198623 -272.467495 
L 346.588676 -272.467482 
L 345.978729 -272.467494 
L 345.368782 -272.467482 
L 344.758835 -272.467469 
L 344.148888 -272.467463 
L 343.53894 -272.467462 
L 342.928993 -272.467473 
L 342.319046 -272.467021 
L 341.709099 -272.467007 
L 341.099152 -272.467013 
L 340.489205 -272.467018 
L 339.879257 -272.467016 
L 339.26931 -272.467015 
L 338.659363 -272.46702 
L 338.049416 -272.467022 
L 337.439469 -272.467022 
L 336.829522 -272.467012 
L 336.219574 -272.467013 
L 335.609627 -272.467021 
L 334.99968 -272.467018 
L 334.389733 -272.467013 
L 333.779786 -272.46702 
L 333.169839 -272.467011 
L 332.559891 -272.467017 
L 331.949944 -272.467015 
L 331.339997 -272.467008 
L 330.73005 -272.467008 
L 330.120103 -272.467006 
L 329.510156 -272.467007 
L 328.900208 -272.466991 
L 328.290261 -272.445387 
L 327.680314 -272.445382 
L 327.070367 -272.445387 
L 326.46042 -272.445381 
L 325.850473 -272.44539 
L 325.240525 -272.445384 
L 324.630578 -272.445387 
L 324.020631 -272.445386 
L 323.410684 -272.445389 
L 322.800737 -272.445388 
L 322.19079 -272.445382 
L 321.580842 -272.445389 
L 320.970895 -272.445386 
L 320.360948 -272.445391 
L 319.751001 -272.445388 
L 319.141054 -272.445388 
L 318.531107 -272.445385 
L 317.921159 -272.445389 
L 317.311212 -272.44539 
L 316.701265 -272.445386 
L 316.091318 -272.445387 
L 315.481371 -272.445383 
L 314.871424 -272.44539 
L 314.261476 -272.445384 
L 313.651529 -272.445391 
L 313.041582 -272.445383 
L 312.431635 -272.445387 
L 311.821688 -272.445383 
L 311.211741 -272.445388 
L 310.601793 -272.44539 
L 309.991846 -272.445384 
L 309.381899 -272.445383 
L 308.771952 -272.445384 
L 308.162005 -272.445381 
L 307.552058 -272.445382 
L 306.94211 -272.445385 
L 306.332163 -272.444059 
L 305.722216 -272.444049 
L 305.112269 -272.444041 
L 304.502322 -272.444053 
L 303.892375 -272.444058 
L 303.282427 -272.444055 
L 302.67248 -272.444054 
L 302.062533 -272.444058 
L 301.452586 -272.444044 
L 300.842639 -272.444055 
L 300.232692 -272.444049 
L 299.622744 -272.444053 
L 299.012797 -272.444047 
L 298.40285 -272.444036 
L 297.792903 -272.444054 
L 297.182956 -272.444052 
L 296.573009 -272.444024 
L 295.963061 -272.444021 
L 295.353114 -272.444034 
L 294.743167 -272.444036 
L 294.13322 -272.444052 
L 293.523273 -272.444016 
L 292.913326 -272.44404 
L 292.303378 -272.444047 
L 291.693431 -272.444022 
L 291.083484 -272.444016 
L 290.473537 -272.444012 
L 289.86359 -272.444029 
L 289.253643 -272.444017 
L 288.643695 -272.444012 
L 288.033748 -272.444009 
L 287.423801 -272.444007 
L 286.813854 -272.444012 
L 286.203907 -272.443996 
L 285.59396 -272.444014 
L 284.984012 -272.444008 
L 284.374065 -272.443862 
L 283.764118 -272.443861 
L 283.154171 -272.443863 
L 282.544224 -272.443859 
L 281.934277 -272.443861 
L 281.324329 -272.443862 
L 280.714382 -272.443865 
L 280.104435 -272.443864 
L 279.494488 -272.443861 
L 278.884541 -272.443861 
L 278.274594 -272.443862 
L 277.664646 -272.443857 
L 277.054699 -272.443863 
L 276.444752 -272.443862 
L 275.834805 -272.443861 
L 275.224858 -272.443863 
L 274.614911 -272.443863 
L 274.004963 -272.443866 
L 273.395016 -272.443861 
L 272.785069 -272.443863 
L 272.175122 -272.443863 
L 271.565175 -272.443862 
L 270.955228 -272.443863 
L 270.34528 -272.443861 
L 269.735333 -272.443862 
L 269.125386 -272.443861 
L 268.515439 -272.443862 
L 267.905492 -272.443858 
L 267.295545 -272.443862 
L 266.685597 -272.443861 
L 266.07565 -272.443861 
L 265.465703 -272.443863 
L 264.855756 -272.443861 
L 264.245809 -272.443859 
L 263.635862 -272.443861 
L 263.025914 -272.443862 
L 262.415967 -272.443861 
L 261.80602 -272.443862 
L 261.196073 -272.443862 
L 260.586126 -272.44386 
L 259.976179 -272.443862 
L 259.366231 -272.443859 
L 258.756284 -272.443862 
L 258.146337 -272.443862 
L 257.53639 -272.443863 
L 256.926443 -272.443861 
L 256.316496 -272.44386 
L 255.706548 -272.443862 
L 255.096601 -272.443863 
L 254.486654 -272.443862 
L 253.876707 -272.443862 
L 253.26676 -272.44386 
L 252.656813 -272.443859 
L 252.046865 -272.443861 
L 251.436918 -272.443854 
L 250.826971 -272.443856 
L 250.217024 -272.443846 
L 249.607077 -272.443847 
L 248.99713 -272.44385 
L 248.387182 -272.443835 
L 247.777235 -272.441853 
L 247.167288 -272.441878 
L 246.557341 -272.441879 
L 245.947394 -272.441873 
L 245.337447 -272.441877 
L 244.727499 -272.441875 
L 244.117552 -272.441876 
L 243.507605 -272.441864 
L 242.897658 -272.44188 
L 242.287711 -272.441879 
L 241.677764 -272.441871 
L 241.067816 -272.441866 
L 240.457869 -272.441862 
L 239.847922 -272.441873 
L 239.237975 -272.441867 
L 238.628028 -272.441841 
L 238.018081 -272.441877 
L 237.408133 -272.441848 
L 236.798186 -272.441852 
L 236.188239 -272.441828 
L 235.578292 -272.441819 
L 234.968345 -272.441311 
L 234.358398 -272.441291 
L 233.74845 -272.441318 
L 233.138503 -272.441326 
L 232.528556 -272.438849 
L 231.918609 -272.438881 
L 231.308662 -272.43888 
L 230.698715 -272.438875 
L 230.088767 -272.438892 
L 229.47882 -272.438878 
L 228.868873 -272.432712 
L 228.258926 -272.432707 
L 227.648979 -272.432718 
L 227.039032 -272.432696 
L 226.429084 -272.432711 
L 225.819137 -272.432717 
L 225.20919 -272.432716 
L 224.599243 -272.432718 
L 223.989296 -272.432715 
L 223.379349 -272.432703 
L 222.769401 -272.432697 
L 222.159454 -272.432698 
L 221.549507 -272.432692 
L 220.93956 -272.432031 
L 220.329613 -272.432026 
L 219.719666 -272.432026 
L 219.109718 -272.432024 
L 218.499771 -272.432019 
L 217.889824 -272.432025 
L 217.279877 -272.432023 
L 216.66993 -272.43203 
L 216.059983 -272.432011 
L 215.450035 -272.432009 
L 214.840088 -272.432013 
L 214.230141 -272.431513 
L 213.620194 -272.431505 
L 213.010247 -272.431516 
L 212.4003 -272.431259 
L 211.790352 -272.431268 
L 211.180405 -272.431262 
L 210.570458 -272.431249 
L 209.960511 -272.431266 
L 209.350564 -272.431248 
L 208.740617 -272.431263 
L 208.130669 -272.431249 
L 207.520722 -272.431268 
L 206.910775 -272.431262 
L 206.300828 -272.431249 
L 205.690881 -272.431248 
L 205.080934 -272.431247 
L 204.470986 -272.431254 
L 203.861039 -272.431246 
L 203.251092 -272.431249 
L 202.641145 -272.431248 
L 202.031198 -272.431238 
L 201.421251 -272.431238 
L 200.811303 -272.431248 
L 200.201356 -272.431256 
L 199.591409 -272.431233 
L 198.981462 -272.431234 
L 198.371515 -272.431222 
L 197.761568 -272.431249 
L 197.15162 -272.415213 
L 196.541673 -272.415211 
L 195.931726 -272.415211 
L 195.321779 -272.415212 
L 194.711832 -272.415211 
L 194.101885 -272.415211 
L 193.491937 -272.415211 
L 192.88199 -272.415211 
L 192.272043 -272.415211 
L 191.662096 -272.415211 
L 191.052149 -272.415211 
L 190.442202 -272.415212 
L 189.832254 -272.415212 
L 189.222307 -272.41521 
L 188.61236 -272.415211 
L 188.002413 -272.415212 
L 187.392466 -272.415211 
L 186.782519 -272.415211 
L 186.172571 -272.415206 
L 185.562624 -272.415212 
L 184.952677 -272.415208 
L 184.34273 -272.415206 
L 183.732783 -272.415208 
L 183.122836 -272.415201 
L 182.512888 -272.41521 
L 181.902941 -272.415188 
L 181.292994 -272.415202 
L 180.683047 -272.415186 
L 180.0731 -272.414358 
L 179.463153 -272.414358 
L 178.853205 -272.414357 
L 178.243258 -272.414362 
L 177.633311 -272.414358 
L 177.023364 -272.414357 
L 176.413417 -272.414352 
L 175.80347 -272.414348 
L 175.193522 -272.414352 
L 174.583575 -272.41435 
L 173.973628 -272.41435 
L 173.363681 -272.41436 
L 172.753734 -272.414352 
L 172.143787 -272.414304 
L 171.533839 -272.41435 
L 170.923892 -272.414333 
L 170.313945 -272.414342 
L 169.703998 -272.41435 
L 169.094051 -272.414357 
L 168.484104 -272.414353 
L 167.874156 -272.414346 
L 167.264209 -272.414352 
L 166.654262 -272.414353 
L 166.044315 -272.41433 
L 165.434368 -272.414355 
L 164.824421 -272.414334 
L 164.214473 -272.414344 
L 163.604526 -272.3363 
L 162.994579 -272.336279 
L 162.384632 -272.336267 
L 161.774685 -272.336275 
L 161.164738 -272.336277 
L 160.55479 -272.336274 
L 159.944843 -272.33627 
L 159.334896 -272.336271 
L 158.724949 -272.336264 
L 158.115002 -272.336274 
L 157.505055 -272.336259 
L 156.895107 -272.336254 
L 156.28516 -272.335945 
L 155.675213 -272.335955 
L 155.065266 -272.330724 
L 154.455319 -272.329777 
L 153.845372 -272.329762 
L 153.235424 -272.329771 
L 152.625477 -272.329783 
L 152.01553 -272.329778 
L 151.405583 -272.329768 
L 150.795636 -272.329771 
L 150.185689 -272.329765 
L 149.575741 -272.329764 
L 148.965794 -272.329763 
L 148.355847 -272.329772 
L 147.7459 -272.329763 
L 147.135953 -272.329761 
L 146.526006 -272.329767 
L 145.916058 -272.293757 
L 145.306111 -272.293754 
L 144.696164 -272.293759 
L 144.086217 -272.293756 
L 143.47627 -272.293754 
L 142.866323 -272.293762 
L 142.256375 -272.293747 
L 141.646428 -272.29375 
L 141.036481 -272.293744 
L 140.426534 -272.237143 
L 139.816587 -272.237141 
L 139.20664 -272.23713 
L 138.596692 -272.237143 
L 137.986745 -272.237139 
L 137.376798 -272.185531 
L 136.766851 -272.185531 
L 136.156904 -272.185533 
L 135.546957 -272.185501 
L 134.937009 -272.185525 
L 134.327062 -272.185509 
L 133.717115 -272.185508 
L 133.107168 -272.185487 
L 132.497221 -272.156919 
L 131.887274 -272.156915 
L 131.277326 -272.156915 
L 130.667379 -272.156914 
L 130.057432 -272.156918 
L 129.447485 -272.156911 
L 128.837538 -272.156915 
L 128.227591 -272.156915 
L 127.617643 -272.156915 
L 127.007696 -272.156909 
L 126.397749 -271.837955 
L 125.787802 -271.837957 
L 125.177855 -271.834349 
L 124.567908 -271.761548 
L 123.95796 -271.748046 
L 123.348013 -271.748052 
L 122.738066 -271.586623 
L 122.128119 -271.586626 
L 121.518172 -271.586608 
L 120.908225 -271.586618 
L 120.298277 -271.06955 
L 119.68833 -271.069536 
L 119.078383 -271.069553 
L 118.468436 -270.856926 
L 117.858489 -270.856936 
L 117.248542 -270.856923 
L 116.638594 -270.856925 
L 116.028647 -270.856936 
L 115.4187 -270.856936 
L 114.808753 -270.856924 
L 114.198806 -270.856904 
L 113.588859 -270.612594 
L 112.978911 -270.612589 
L 112.368964 -270.385377 
L 111.759017 -270.385362 
L 111.14907 -270.364571 
L 110.539123 -270.283685 
L 109.929176 -270.283679 
L 109.319228 -270.239734 
L 108.709281 -270.23973 
L 108.099334 -270.239735 
L 107.489387 -270.239731 
L 106.87944 -270.23971 
L 106.269493 -269.417512 
L 105.659545 -269.417504 
L 105.049598 -268.582185 
L 104.439651 -268.582176 
L 103.829704 -268.582172 
L 103.219757 -268.582174 
L 102.60981 -268.416931 
L 101.999862 -268.416927 
L 101.389915 -268.416893 
L 100.779968 -268.41693 
L 100.170021 -268.416915 
L 99.560074 -268.416951 
L 98.950127 -268.416942 
L 98.340179 -268.416942 
L 97.730232 -268.416912 
L 97.120285 -268.41691 
L 96.510338 -268.416921 
L 95.900391 -268.416866 
L 95.290444 -268.416933 
L 94.680496 -268.416884 
L 94.070549 -268.416834 
L 93.460602 -268.416892 
L 92.850655 -268.41688 
L 92.240708 -266.444075 
L 91.63076 -264.401907 
L 91.020813 -264.40193 
L 90.410866 -264.401923 
L 89.800919 -264.401936 
L 89.190972 -264.401955 
L 88.581025 -264.401904 
L 87.971077 -264.401913 
L 87.36113 -263.388439 
L 86.751183 -263.388442 
L 86.141236 -263.388444 
L 85.531289 -263.388447 
L 84.921342 -263.38844 
L 84.311394 -263.388444 
L 83.701447 -263.388441 
L 83.0915 -263.388443 
L 82.481553 -263.388437 
L 81.871606 -263.388438 
L 81.261659 -263.388438 
L 80.651711 -263.388437 
L 80.041764 -263.388435 
L 79.431817 -263.388444 
L 78.82187 -263.388436 
L 78.211923 -258.796393 
L 77.601976 -258.79641 
L 76.992028 -258.796409 
L 76.382081 -258.79642 
L 75.772134 -258.7964 
L 75.162187 -258.796402 
L 74.55224 -258.79642 
L 73.942293 -258.7964 
L 73.332345 -258.796411 
L 72.722398 -258.79637 
L 72.112451 -258.796378 
L 71.502504 -258.796335 
L 70.892557 -258.438781 
z
" style="stroke: #0000ff; stroke-opacity: 0.2"/>
    </defs>
    <g clip-path="url(#p7a654a7a1d)">
     <use xlink:href="#mfa26693528" x="0" y="287.4075" style="fill: #0000ff; fill-opacity: 0.2; stroke: #0000ff; stroke-opacity: 0.2"/>
    </g>
   </g>
   <g id="matplotlib.axis_1">
    <g id="xtick_1">
     <g id="line2d_1">
      <path d="M 70.892557 253.08 
L 70.892557 3.6 
" clip-path="url(#p7a654a7a1d)" style="fill: none; stroke: #b0b0b0; stroke-width: 0.5; stroke-linecap: square"/>
     </g>
     <g id="line2d_2">
      <defs>
       <path id="m504f15ca3d" d="M 0 0 
L 0 -3 
" style="stroke: #000000; stroke-width: 0.5"/>
      </defs>
      <g>
       <use xlink:href="#m504f15ca3d" x="70.892557" y="253.08" style="stroke: #000000; stroke-width: 0.5"/>
      </g>
     </g>
     <g id="line2d_3">
      <defs>
       <path id="m6ae37e8278" d="M 0 0 
L 0 3 
" style="stroke: #000000; stroke-width: 0.5"/>
      </defs>
      <g>
       <use xlink:href="#m6ae37e8278" x="70.892557" y="3.6" style="stroke: #000000; stroke-width: 0.5"/>
      </g>
     </g>
     <g id="text_1">
      <!-- 0 -->
      <g transform="translate(67.075057 265.698125) scale(0.12 -0.12)">
       <defs>
        <path id="DejaVuSans-30" d="M 2034 4250 
Q 1547 4250 1301 3770 
Q 1056 3291 1056 2328 
Q 1056 1369 1301 889 
Q 1547 409 2034 409 
Q 2525 409 2770 889 
Q 3016 1369 3016 2328 
Q 3016 3291 2770 3770 
Q 2525 4250 2034 4250 
z
M 2034 4750 
Q 2819 4750 3233 4129 
Q 3647 3509 3647 2328 
Q 3647 1150 3233 529 
Q 2819 -91 2034 -91 
Q 1250 -91 836 529 
Q 422 1150 422 2328 
Q 422 3509 836 4129 
Q 1250 4750 2034 4750 
z
" transform="scale(0.015625)"/>
       </defs>
       <use xlink:href="#DejaVuSans-30"/>
      </g>
     </g>
    </g>
    <g id="xtick_2">
     <g id="line2d_4">
      <path d="M 131.887274 253.08 
L 131.887274 3.6 
" clip-path="url(#p7a654a7a1d)" style="fill: none; stroke: #b0b0b0; stroke-width: 0.5; stroke-linecap: square"/>
     </g>
     <g id="line2d_5">
      <g>
       <use xlink:href="#m504f15ca3d" x="131.887274" y="253.08" style="stroke: #000000; stroke-width: 0.5"/>
      </g>
     </g>
     <g id="line2d_6">
      <g>
       <use xlink:href="#m6ae37e8278" x="131.887274" y="3.6" style="stroke: #000000; stroke-width: 0.5"/>
      </g>
     </g>
     <g id="text_2">
      <!-- 100 -->
      <g transform="translate(120.434774 265.698125) scale(0.12 -0.12)">
       <defs>
        <path id="DejaVuSans-31" d="M 794 531 
L 1825 531 
L 1825 4091 
L 703 3866 
L 703 4441 
L 1819 4666 
L 2450 4666 
L 2450 531 
L 3481 531 
L 3481 0 
L 794 0 
L 794 531 
z
" transform="scale(0.015625)"/>
       </defs>
       <use xlink:href="#DejaVuSans-31"/>
       <use xlink:href="#DejaVuSans-30" x="63.623047"/>
       <use xlink:href="#DejaVuSans-30" x="127.246094"/>
      </g>
     </g>
    </g>
    <g id="xtick_3">
     <g id="line2d_7">
      <path d="M 192.88199 253.08 
L 192.88199 3.6 
" clip-path="url(#p7a654a7a1d)" style="fill: none; stroke: #b0b0b0; stroke-width: 0.5; stroke-linecap: square"/>
     </g>
     <g id="line2d_8">
      <g>
       <use xlink:href="#m504f15ca3d" x="192.88199" y="253.08" style="stroke: #000000; stroke-width: 0.5"/>
      </g>
     </g>
     <g id="line2d_9">
      <g>
       <use xlink:href="#m6ae37e8278" x="192.88199" y="3.6" style="stroke: #000000; stroke-width: 0.5"/>
      </g>
     </g>
     <g id="text_3">
      <!-- 200 -->
      <g transform="translate(181.42949 265.698125) scale(0.12 -0.12)">
       <defs>
        <path id="DejaVuSans-32" d="M 1228 531 
L 3431 531 
L 3431 0 
L 469 0 
L 469 531 
Q 828 903 1448 1529 
Q 2069 2156 2228 2338 
Q 2531 2678 2651 2914 
Q 2772 3150 2772 3378 
Q 2772 3750 2511 3984 
Q 2250 4219 1831 4219 
Q 1534 4219 1204 4116 
Q 875 4013 500 3803 
L 500 4441 
Q 881 4594 1212 4672 
Q 1544 4750 1819 4750 
Q 2544 4750 2975 4387 
Q 3406 4025 3406 3419 
Q 3406 3131 3298 2873 
Q 3191 2616 2906 2266 
Q 2828 2175 2409 1742 
Q 1991 1309 1228 531 
z
" transform="scale(0.015625)"/>
       </defs>
       <use xlink:href="#DejaVuSans-32"/>
       <use xlink:href="#DejaVuSans-30" x="63.623047"/>
       <use xlink:href="#DejaVuSans-30" x="127.246094"/>
      </g>
     </g>
    </g>
    <g id="xtick_4">
     <g id="line2d_10">
      <path d="M 253.876707 253.08 
L 253.876707 3.6 
" clip-path="url(#p7a654a7a1d)" style="fill: none; stroke: #b0b0b0; stroke-width: 0.5; stroke-linecap: square"/>
     </g>
     <g id="line2d_11">
      <g>
       <use xlink:href="#m504f15ca3d" x="253.876707" y="253.08" style="stroke: #000000; stroke-width: 0.5"/>
      </g>
     </g>
     <g id="line2d_12">
      <g>
       <use xlink:href="#m6ae37e8278" x="253.876707" y="3.6" style="stroke: #000000; stroke-width: 0.5"/>
      </g>
     </g>
     <g id="text_4">
      <!-- 300 -->
      <g transform="translate(242.424207 265.698125) scale(0.12 -0.12)">
       <defs>
        <path id="DejaVuSans-33" d="M 2597 2516 
Q 3050 2419 3304 2112 
Q 3559 1806 3559 1356 
Q 3559 666 3084 287 
Q 2609 -91 1734 -91 
Q 1441 -91 1130 -33 
Q 819 25 488 141 
L 488 750 
Q 750 597 1062 519 
Q 1375 441 1716 441 
Q 2309 441 2620 675 
Q 2931 909 2931 1356 
Q 2931 1769 2642 2001 
Q 2353 2234 1838 2234 
L 1294 2234 
L 1294 2753 
L 1863 2753 
Q 2328 2753 2575 2939 
Q 2822 3125 2822 3475 
Q 2822 3834 2567 4026 
Q 2313 4219 1838 4219 
Q 1578 4219 1281 4162 
Q 984 4106 628 3988 
L 628 4550 
Q 988 4650 1302 4700 
Q 1616 4750 1894 4750 
Q 2613 4750 3031 4423 
Q 3450 4097 3450 3541 
Q 3450 3153 3228 2886 
Q 3006 2619 2597 2516 
z
" transform="scale(0.015625)"/>
       </defs>
       <use xlink:href="#DejaVuSans-33"/>
       <use xlink:href="#DejaVuSans-30" x="63.623047"/>
       <use xlink:href="#DejaVuSans-30" x="127.246094"/>
      </g>
     </g>
    </g>
    <g id="xtick_5">
     <g id="line2d_13">
      <path d="M 314.871424 253.08 
L 314.871424 3.6 
" clip-path="url(#p7a654a7a1d)" style="fill: none; stroke: #b0b0b0; stroke-width: 0.5; stroke-linecap: square"/>
     </g>
     <g id="line2d_14">
      <g>
       <use xlink:href="#m504f15ca3d" x="314.871424" y="253.08" style="stroke: #000000; stroke-width: 0.5"/>
      </g>
     </g>
     <g id="line2d_15">
      <g>
       <use xlink:href="#m6ae37e8278" x="314.871424" y="3.6" style="stroke: #000000; stroke-width: 0.5"/>
      </g>
     </g>
     <g id="text_5">
      <!-- 400 -->
      <g transform="translate(303.418924 265.698125) scale(0.12 -0.12)">
       <defs>
        <path id="DejaVuSans-34" d="M 2419 4116 
L 825 1625 
L 2419 1625 
L 2419 4116 
z
M 2253 4666 
L 3047 4666 
L 3047 1625 
L 3713 1625 
L 3713 1100 
L 3047 1100 
L 3047 0 
L 2419 0 
L 2419 1100 
L 313 1100 
L 313 1709 
L 2253 4666 
z
" transform="scale(0.015625)"/>
       </defs>
       <use xlink:href="#DejaVuSans-34"/>
       <use xlink:href="#DejaVuSans-30" x="63.623047"/>
       <use xlink:href="#DejaVuSans-30" x="127.246094"/>
      </g>
     </g>
    </g>
    <g id="xtick_6">
     <g id="line2d_16">
      <path d="M 375.86614 253.08 
L 375.86614 3.6 
" clip-path="url(#p7a654a7a1d)" style="fill: none; stroke: #b0b0b0; stroke-width: 0.5; stroke-linecap: square"/>
     </g>
     <g id="line2d_17">
      <g>
       <use xlink:href="#m504f15ca3d" x="375.86614" y="253.08" style="stroke: #000000; stroke-width: 0.5"/>
      </g>
     </g>
     <g id="line2d_18">
      <g>
       <use xlink:href="#m6ae37e8278" x="375.86614" y="3.6" style="stroke: #000000; stroke-width: 0.5"/>
      </g>
     </g>
     <g id="text_6">
      <!-- 500 -->
      <g transform="translate(364.41364 265.698125) scale(0.12 -0.12)">
       <defs>
        <path id="DejaVuSans-35" d="M 691 4666 
L 3169 4666 
L 3169 4134 
L 1269 4134 
L 1269 2991 
Q 1406 3038 1543 3061 
Q 1681 3084 1819 3084 
Q 2600 3084 3056 2656 
Q 3513 2228 3513 1497 
Q 3513 744 3044 326 
Q 2575 -91 1722 -91 
Q 1428 -91 1123 -41 
Q 819 9 494 109 
L 494 744 
Q 775 591 1075 516 
Q 1375 441 1709 441 
Q 2250 441 2565 725 
Q 2881 1009 2881 1497 
Q 2881 1984 2565 2268 
Q 2250 2553 1709 2553 
Q 1456 2553 1204 2497 
Q 953 2441 691 2322 
L 691 4666 
z
" transform="scale(0.015625)"/>
       </defs>
       <use xlink:href="#DejaVuSans-35"/>
       <use xlink:href="#DejaVuSans-30" x="63.623047"/>
       <use xlink:href="#DejaVuSans-30" x="127.246094"/>
      </g>
     </g>
    </g>
    <g id="xtick_7">
     <g id="line2d_19">
      <defs>
       <path id="m52193428e1" d="M 0 0 
L 0 -1.5 
" style="stroke: #000000; stroke-width: 0.5"/>
      </defs>
      <g>
       <use xlink:href="#m52193428e1" x="58.693613" y="253.08" style="stroke: #000000; stroke-width: 0.5"/>
      </g>
     </g>
     <g id="line2d_20">
      <defs>
       <path id="mdc9b8a3fff" d="M 0 0 
L 0 1.5 
" style="stroke: #000000; stroke-width: 0.5"/>
      </defs>
      <g>
       <use xlink:href="#mdc9b8a3fff" x="58.693613" y="3.6" style="stroke: #000000; stroke-width: 0.5"/>
      </g>
     </g>
    </g>
    <g id="xtick_8">
     <g id="line2d_21">
      <g>
       <use xlink:href="#m52193428e1" x="83.0915" y="253.08" style="stroke: #000000; stroke-width: 0.5"/>
      </g>
     </g>
     <g id="line2d_22">
      <g>
       <use xlink:href="#mdc9b8a3fff" x="83.0915" y="3.6" style="stroke: #000000; stroke-width: 0.5"/>
      </g>
     </g>
    </g>
    <g id="xtick_9">
     <g id="line2d_23">
      <g>
       <use xlink:href="#m52193428e1" x="95.290444" y="253.08" style="stroke: #000000; stroke-width: 0.5"/>
      </g>
     </g>
     <g id="line2d_24">
      <g>
       <use xlink:href="#mdc9b8a3fff" x="95.290444" y="3.6" style="stroke: #000000; stroke-width: 0.5"/>
      </g>
     </g>
    </g>
    <g id="xtick_10">
     <g id="line2d_25">
      <g>
       <use xlink:href="#m52193428e1" x="107.489387" y="253.08" style="stroke: #000000; stroke-width: 0.5"/>
      </g>
     </g>
     <g id="line2d_26">
      <g>
       <use xlink:href="#mdc9b8a3fff" x="107.489387" y="3.6" style="stroke: #000000; stroke-width: 0.5"/>
      </g>
     </g>
    </g>
    <g id="xtick_11">
     <g id="line2d_27">
      <g>
       <use xlink:href="#m52193428e1" x="119.68833" y="253.08" style="stroke: #000000; stroke-width: 0.5"/>
      </g>
     </g>
     <g id="line2d_28">
      <g>
       <use xlink:href="#mdc9b8a3fff" x="119.68833" y="3.6" style="stroke: #000000; stroke-width: 0.5"/>
      </g>
     </g>
    </g>
    <g id="xtick_12">
     <g id="line2d_29">
      <g>
       <use xlink:href="#m52193428e1" x="144.086217" y="253.08" style="stroke: #000000; stroke-width: 0.5"/>
      </g>
     </g>
     <g id="line2d_30">
      <g>
       <use xlink:href="#mdc9b8a3fff" x="144.086217" y="3.6" style="stroke: #000000; stroke-width: 0.5"/>
      </g>
     </g>
    </g>
    <g id="xtick_13">
     <g id="line2d_31">
      <g>
       <use xlink:href="#m52193428e1" x="156.28516" y="253.08" style="stroke: #000000; stroke-width: 0.5"/>
      </g>
     </g>
     <g id="line2d_32">
      <g>
       <use xlink:href="#mdc9b8a3fff" x="156.28516" y="3.6" style="stroke: #000000; stroke-width: 0.5"/>
      </g>
     </g>
    </g>
    <g id="xtick_14">
     <g id="line2d_33">
      <g>
       <use xlink:href="#m52193428e1" x="168.484104" y="253.08" style="stroke: #000000; stroke-width: 0.5"/>
      </g>
     </g>
     <g id="line2d_34">
      <g>
       <use xlink:href="#mdc9b8a3fff" x="168.484104" y="3.6" style="stroke: #000000; stroke-width: 0.5"/>
      </g>
     </g>
    </g>
    <g id="xtick_15">
     <g id="line2d_35">
      <g>
       <use xlink:href="#m52193428e1" x="180.683047" y="253.08" style="stroke: #000000; stroke-width: 0.5"/>
      </g>
     </g>
     <g id="line2d_36">
      <g>
       <use xlink:href="#mdc9b8a3fff" x="180.683047" y="3.6" style="stroke: #000000; stroke-width: 0.5"/>
      </g>
     </g>
    </g>
    <g id="xtick_16">
     <g id="line2d_37">
      <g>
       <use xlink:href="#m52193428e1" x="205.080934" y="253.08" style="stroke: #000000; stroke-width: 0.5"/>
      </g>
     </g>
     <g id="line2d_38">
      <g>
       <use xlink:href="#mdc9b8a3fff" x="205.080934" y="3.6" style="stroke: #000000; stroke-width: 0.5"/>
      </g>
     </g>
    </g>
    <g id="xtick_17">
     <g id="line2d_39">
      <g>
       <use xlink:href="#m52193428e1" x="217.279877" y="253.08" style="stroke: #000000; stroke-width: 0.5"/>
      </g>
     </g>
     <g id="line2d_40">
      <g>
       <use xlink:href="#mdc9b8a3fff" x="217.279877" y="3.6" style="stroke: #000000; stroke-width: 0.5"/>
      </g>
     </g>
    </g>
    <g id="xtick_18">
     <g id="line2d_41">
      <g>
       <use xlink:href="#m52193428e1" x="229.47882" y="253.08" style="stroke: #000000; stroke-width: 0.5"/>
      </g>
     </g>
     <g id="line2d_42">
      <g>
       <use xlink:href="#mdc9b8a3fff" x="229.47882" y="3.6" style="stroke: #000000; stroke-width: 0.5"/>
      </g>
     </g>
    </g>
    <g id="xtick_19">
     <g id="line2d_43">
      <g>
       <use xlink:href="#m52193428e1" x="241.677764" y="253.08" style="stroke: #000000; stroke-width: 0.5"/>
      </g>
     </g>
     <g id="line2d_44">
      <g>
       <use xlink:href="#mdc9b8a3fff" x="241.677764" y="3.6" style="stroke: #000000; stroke-width: 0.5"/>
      </g>
     </g>
    </g>
    <g id="xtick_20">
     <g id="line2d_45">
      <g>
       <use xlink:href="#m52193428e1" x="266.07565" y="253.08" style="stroke: #000000; stroke-width: 0.5"/>
      </g>
     </g>
     <g id="line2d_46">
      <g>
       <use xlink:href="#mdc9b8a3fff" x="266.07565" y="3.6" style="stroke: #000000; stroke-width: 0.5"/>
      </g>
     </g>
    </g>
    <g id="xtick_21">
     <g id="line2d_47">
      <g>
       <use xlink:href="#m52193428e1" x="278.274594" y="253.08" style="stroke: #000000; stroke-width: 0.5"/>
      </g>
     </g>
     <g id="line2d_48">
      <g>
       <use xlink:href="#mdc9b8a3fff" x="278.274594" y="3.6" style="stroke: #000000; stroke-width: 0.5"/>
      </g>
     </g>
    </g>
    <g id="xtick_22">
     <g id="line2d_49">
      <g>
       <use xlink:href="#m52193428e1" x="290.473537" y="253.08" style="stroke: #000000; stroke-width: 0.5"/>
      </g>
     </g>
     <g id="line2d_50">
      <g>
       <use xlink:href="#mdc9b8a3fff" x="290.473537" y="3.6" style="stroke: #000000; stroke-width: 0.5"/>
      </g>
     </g>
    </g>
    <g id="xtick_23">
     <g id="line2d_51">
      <g>
       <use xlink:href="#m52193428e1" x="302.67248" y="253.08" style="stroke: #000000; stroke-width: 0.5"/>
      </g>
     </g>
     <g id="line2d_52">
      <g>
       <use xlink:href="#mdc9b8a3fff" x="302.67248" y="3.6" style="stroke: #000000; stroke-width: 0.5"/>
      </g>
     </g>
    </g>
    <g id="xtick_24">
     <g id="line2d_53">
      <g>
       <use xlink:href="#m52193428e1" x="327.070367" y="253.08" style="stroke: #000000; stroke-width: 0.5"/>
      </g>
     </g>
     <g id="line2d_54">
      <g>
       <use xlink:href="#mdc9b8a3fff" x="327.070367" y="3.6" style="stroke: #000000; stroke-width: 0.5"/>
      </g>
     </g>
    </g>
    <g id="xtick_25">
     <g id="line2d_55">
      <g>
       <use xlink:href="#m52193428e1" x="339.26931" y="253.08" style="stroke: #000000; stroke-width: 0.5"/>
      </g>
     </g>
     <g id="line2d_56">
      <g>
       <use xlink:href="#mdc9b8a3fff" x="339.26931" y="3.6" style="stroke: #000000; stroke-width: 0.5"/>
      </g>
     </g>
    </g>
    <g id="xtick_26">
     <g id="line2d_57">
      <g>
       <use xlink:href="#m52193428e1" x="351.468254" y="253.08" style="stroke: #000000; stroke-width: 0.5"/>
      </g>
     </g>
     <g id="line2d_58">
      <g>
       <use xlink:href="#mdc9b8a3fff" x="351.468254" y="3.6" style="stroke: #000000; stroke-width: 0.5"/>
      </g>
     </g>
    </g>
    <g id="xtick_27">
     <g id="line2d_59">
      <g>
       <use xlink:href="#m52193428e1" x="363.667197" y="253.08" style="stroke: #000000; stroke-width: 0.5"/>
      </g>
     </g>
     <g id="line2d_60">
      <g>
       <use xlink:href="#mdc9b8a3fff" x="363.667197" y="3.6" style="stroke: #000000; stroke-width: 0.5"/>
      </g>
     </g>
    </g>
    <g id="xtick_28">
     <g id="line2d_61">
      <g>
       <use xlink:href="#m52193428e1" x="388.065084" y="253.08" style="stroke: #000000; stroke-width: 0.5"/>
      </g>
     </g>
     <g id="line2d_62">
      <g>
       <use xlink:href="#mdc9b8a3fff" x="388.065084" y="3.6" style="stroke: #000000; stroke-width: 0.5"/>
      </g>
     </g>
    </g>
    <g id="text_7">
     <!-- Generations -->
     <g transform="translate(186.477188 281.311875) scale(0.12 -0.12)">
      <defs>
       <path id="DejaVuSans-47" d="M 3809 666 
L 3809 1919 
L 2778 1919 
L 2778 2438 
L 4434 2438 
L 4434 434 
Q 4069 175 3628 42 
Q 3188 -91 2688 -91 
Q 1594 -91 976 548 
Q 359 1188 359 2328 
Q 359 3472 976 4111 
Q 1594 4750 2688 4750 
Q 3144 4750 3555 4637 
Q 3966 4525 4313 4306 
L 4313 3634 
Q 3963 3931 3569 4081 
Q 3175 4231 2741 4231 
Q 1884 4231 1454 3753 
Q 1025 3275 1025 2328 
Q 1025 1384 1454 906 
Q 1884 428 2741 428 
Q 3075 428 3337 486 
Q 3600 544 3809 666 
z
" transform="scale(0.015625)"/>
       <path id="DejaVuSans-65" d="M 3597 1894 
L 3597 1613 
L 953 1613 
Q 991 1019 1311 708 
Q 1631 397 2203 397 
Q 2534 397 2845 478 
Q 3156 559 3463 722 
L 3463 178 
Q 3153 47 2828 -22 
Q 2503 -91 2169 -91 
Q 1331 -91 842 396 
Q 353 884 353 1716 
Q 353 2575 817 3079 
Q 1281 3584 2069 3584 
Q 2775 3584 3186 3129 
Q 3597 2675 3597 1894 
z
M 3022 2063 
Q 3016 2534 2758 2815 
Q 2500 3097 2075 3097 
Q 1594 3097 1305 2825 
Q 1016 2553 972 2059 
L 3022 2063 
z
" transform="scale(0.015625)"/>
       <path id="DejaVuSans-6e" d="M 3513 2113 
L 3513 0 
L 2938 0 
L 2938 2094 
Q 2938 2591 2744 2837 
Q 2550 3084 2163 3084 
Q 1697 3084 1428 2787 
Q 1159 2491 1159 1978 
L 1159 0 
L 581 0 
L 581 3500 
L 1159 3500 
L 1159 2956 
Q 1366 3272 1645 3428 
Q 1925 3584 2291 3584 
Q 2894 3584 3203 3211 
Q 3513 2838 3513 2113 
z
" transform="scale(0.015625)"/>
       <path id="DejaVuSans-72" d="M 2631 2963 
Q 2534 3019 2420 3045 
Q 2306 3072 2169 3072 
Q 1681 3072 1420 2755 
Q 1159 2438 1159 1844 
L 1159 0 
L 581 0 
L 581 3500 
L 1159 3500 
L 1159 2956 
Q 1341 3275 1631 3429 
Q 1922 3584 2338 3584 
Q 2397 3584 2469 3576 
Q 2541 3569 2628 3553 
L 2631 2963 
z
" transform="scale(0.015625)"/>
       <path id="DejaVuSans-61" d="M 2194 1759 
Q 1497 1759 1228 1600 
Q 959 1441 959 1056 
Q 959 750 1161 570 
Q 1363 391 1709 391 
Q 2188 391 2477 730 
Q 2766 1069 2766 1631 
L 2766 1759 
L 2194 1759 
z
M 3341 1997 
L 3341 0 
L 2766 0 
L 2766 531 
Q 2569 213 2275 61 
Q 1981 -91 1556 -91 
Q 1019 -91 701 211 
Q 384 513 384 1019 
Q 384 1609 779 1909 
Q 1175 2209 1959 2209 
L 2766 2209 
L 2766 2266 
Q 2766 2663 2505 2880 
Q 2244 3097 1772 3097 
Q 1472 3097 1187 3025 
Q 903 2953 641 2809 
L 641 3341 
Q 956 3463 1253 3523 
Q 1550 3584 1831 3584 
Q 2591 3584 2966 3190 
Q 3341 2797 3341 1997 
z
" transform="scale(0.015625)"/>
       <path id="DejaVuSans-74" d="M 1172 4494 
L 1172 3500 
L 2356 3500 
L 2356 3053 
L 1172 3053 
L 1172 1153 
Q 1172 725 1289 603 
Q 1406 481 1766 481 
L 2356 481 
L 2356 0 
L 1766 0 
Q 1100 0 847 248 
Q 594 497 594 1153 
L 594 3053 
L 172 3053 
L 172 3500 
L 594 3500 
L 594 4494 
L 1172 4494 
z
" transform="scale(0.015625)"/>
       <path id="DejaVuSans-69" d="M 603 3500 
L 1178 3500 
L 1178 0 
L 603 0 
L 603 3500 
z
M 603 4863 
L 1178 4863 
L 1178 4134 
L 603 4134 
L 603 4863 
z
" transform="scale(0.015625)"/>
       <path id="DejaVuSans-6f" d="M 1959 3097 
Q 1497 3097 1228 2736 
Q 959 2375 959 1747 
Q 959 1119 1226 758 
Q 1494 397 1959 397 
Q 2419 397 2687 759 
Q 2956 1122 2956 1747 
Q 2956 2369 2687 2733 
Q 2419 3097 1959 3097 
z
M 1959 3584 
Q 2709 3584 3137 3096 
Q 3566 2609 3566 1747 
Q 3566 888 3137 398 
Q 2709 -91 1959 -91 
Q 1206 -91 779 398 
Q 353 888 353 1747 
Q 353 2609 779 3096 
Q 1206 3584 1959 3584 
z
" transform="scale(0.015625)"/>
       <path id="DejaVuSans-73" d="M 2834 3397 
L 2834 2853 
Q 2591 2978 2328 3040 
Q 2066 3103 1784 3103 
Q 1356 3103 1142 2972 
Q 928 2841 928 2578 
Q 928 2378 1081 2264 
Q 1234 2150 1697 2047 
L 1894 2003 
Q 2506 1872 2764 1633 
Q 3022 1394 3022 966 
Q 3022 478 2636 193 
Q 2250 -91 1575 -91 
Q 1294 -91 989 -36 
Q 684 19 347 128 
L 347 722 
Q 666 556 975 473 
Q 1284 391 1588 391 
Q 1994 391 2212 530 
Q 2431 669 2431 922 
Q 2431 1156 2273 1281 
Q 2116 1406 1581 1522 
L 1381 1569 
Q 847 1681 609 1914 
Q 372 2147 372 2553 
Q 372 3047 722 3315 
Q 1072 3584 1716 3584 
Q 2034 3584 2315 3537 
Q 2597 3491 2834 3397 
z
" transform="scale(0.015625)"/>
      </defs>
      <use xlink:href="#DejaVuSans-47"/>
      <use xlink:href="#DejaVuSans-65" x="77.490234"/>
      <use xlink:href="#DejaVuSans-6e" x="139.013672"/>
      <use xlink:href="#DejaVuSans-65" x="202.392578"/>
      <use xlink:href="#DejaVuSans-72" x="263.916016"/>
      <use xlink:href="#DejaVuSans-61" x="305.029297"/>
      <use xlink:href="#DejaVuSans-74" x="366.308594"/>
      <use xlink:href="#DejaVuSans-69" x="405.517578"/>
      <use xlink:href="#DejaVuSans-6f" x="433.300781"/>
      <use xlink:href="#DejaVuSans-6e" x="494.482422"/>
      <use xlink:href="#DejaVuSans-73" x="557.861328"/>
     </g>
    </g>
   </g>
   <g id="matplotlib.axis_2">
    <g id="ytick_1">
     <g id="line2d_63">
      <path d="M 55.674375 226.281819 
L 390.474375 226.281819 
" clip-path="url(#p7a654a7a1d)" style="fill: none; stroke: #b0b0b0; stroke-width: 0.5; stroke-linecap: square"/>
     </g>
     <g id="line2d_64">
      <defs>
       <path id="m979bf24471" d="M 0 0 
L 3 0 
" style="stroke: #000000; stroke-width: 0.5"/>
      </defs>
      <g>
       <use xlink:href="#m979bf24471" x="55.674375" y="226.281819" style="stroke: #000000; stroke-width: 0.5"/>
      </g>
     </g>
     <g id="line2d_65">
      <defs>
       <path id="m176aea0790" d="M 0 0 
L -3 0 
" style="stroke: #000000; stroke-width: 0.5"/>
      </defs>
      <g>
       <use xlink:href="#m176aea0790" x="390.474375" y="226.281819" style="stroke: #000000; stroke-width: 0.5"/>
      </g>
     </g>
     <g id="text_8">
      <!-- −120 -->
      <g transform="translate(19.21375 230.840881) scale(0.12 -0.12)">
       <defs>
        <path id="DejaVuSans-2212" d="M 678 2272 
L 4684 2272 
L 4684 1741 
L 678 1741 
L 678 2272 
z
" transform="scale(0.015625)"/>
       </defs>
       <use xlink:href="#DejaVuSans-2212"/>
       <use xlink:href="#DejaVuSans-31" x="83.789062"/>
       <use xlink:href="#DejaVuSans-32" x="147.412109"/>
       <use xlink:href="#DejaVuSans-30" x="211.035156"/>
      </g>
     </g>
    </g>
    <g id="ytick_2">
     <g id="line2d_66">
      <path d="M 55.674375 197.128376 
L 390.474375 197.128376 
" clip-path="url(#p7a654a7a1d)" style="fill: none; stroke: #b0b0b0; stroke-width: 0.5; stroke-linecap: square"/>
     </g>
     <g id="line2d_67">
      <g>
       <use xlink:href="#m979bf24471" x="55.674375" y="197.128376" style="stroke: #000000; stroke-width: 0.5"/>
      </g>
     </g>
     <g id="line2d_68">
      <g>
       <use xlink:href="#m176aea0790" x="390.474375" y="197.128376" style="stroke: #000000; stroke-width: 0.5"/>
      </g>
     </g>
     <g id="text_9">
      <!-- −100 -->
      <g transform="translate(19.21375 201.687438) scale(0.12 -0.12)">
       <use xlink:href="#DejaVuSans-2212"/>
       <use xlink:href="#DejaVuSans-31" x="83.789062"/>
       <use xlink:href="#DejaVuSans-30" x="147.412109"/>
       <use xlink:href="#DejaVuSans-30" x="211.035156"/>
      </g>
     </g>
    </g>
    <g id="ytick_3">
     <g id="line2d_69">
      <path d="M 55.674375 167.974932 
L 390.474375 167.974932 
" clip-path="url(#p7a654a7a1d)" style="fill: none; stroke: #b0b0b0; stroke-width: 0.5; stroke-linecap: square"/>
     </g>
     <g id="line2d_70">
      <g>
       <use xlink:href="#m979bf24471" x="55.674375" y="167.974932" style="stroke: #000000; stroke-width: 0.5"/>
      </g>
     </g>
     <g id="line2d_71">
      <g>
       <use xlink:href="#m176aea0790" x="390.474375" y="167.974932" style="stroke: #000000; stroke-width: 0.5"/>
      </g>
     </g>
     <g id="text_10">
      <!-- −80 -->
      <g transform="translate(26.84875 172.533995) scale(0.12 -0.12)">
       <defs>
        <path id="DejaVuSans-38" d="M 2034 2216 
Q 1584 2216 1326 1975 
Q 1069 1734 1069 1313 
Q 1069 891 1326 650 
Q 1584 409 2034 409 
Q 2484 409 2743 651 
Q 3003 894 3003 1313 
Q 3003 1734 2745 1975 
Q 2488 2216 2034 2216 
z
M 1403 2484 
Q 997 2584 770 2862 
Q 544 3141 544 3541 
Q 544 4100 942 4425 
Q 1341 4750 2034 4750 
Q 2731 4750 3128 4425 
Q 3525 4100 3525 3541 
Q 3525 3141 3298 2862 
Q 3072 2584 2669 2484 
Q 3125 2378 3379 2068 
Q 3634 1759 3634 1313 
Q 3634 634 3220 271 
Q 2806 -91 2034 -91 
Q 1263 -91 848 271 
Q 434 634 434 1313 
Q 434 1759 690 2068 
Q 947 2378 1403 2484 
z
M 1172 3481 
Q 1172 3119 1398 2916 
Q 1625 2713 2034 2713 
Q 2441 2713 2670 2916 
Q 2900 3119 2900 3481 
Q 2900 3844 2670 4047 
Q 2441 4250 2034 4250 
Q 1625 4250 1398 4047 
Q 1172 3844 1172 3481 
z
" transform="scale(0.015625)"/>
       </defs>
       <use xlink:href="#DejaVuSans-2212"/>
       <use xlink:href="#DejaVuSans-38" x="83.789062"/>
       <use xlink:href="#DejaVuSans-30" x="147.412109"/>
      </g>
     </g>
    </g>
    <g id="ytick_4">
     <g id="line2d_72">
      <path d="M 55.674375 138.821489 
L 390.474375 138.821489 
" clip-path="url(#p7a654a7a1d)" style="fill: none; stroke: #b0b0b0; stroke-width: 0.5; stroke-linecap: square"/>
     </g>
     <g id="line2d_73">
      <g>
       <use xlink:href="#m979bf24471" x="55.674375" y="138.821489" style="stroke: #000000; stroke-width: 0.5"/>
      </g>
     </g>
     <g id="line2d_74">
      <g>
       <use xlink:href="#m176aea0790" x="390.474375" y="138.821489" style="stroke: #000000; stroke-width: 0.5"/>
      </g>
     </g>
     <g id="text_11">
      <!-- −60 -->
      <g transform="translate(26.84875 143.380552) scale(0.12 -0.12)">
       <defs>
        <path id="DejaVuSans-36" d="M 2113 2584 
Q 1688 2584 1439 2293 
Q 1191 2003 1191 1497 
Q 1191 994 1439 701 
Q 1688 409 2113 409 
Q 2538 409 2786 701 
Q 3034 994 3034 1497 
Q 3034 2003 2786 2293 
Q 2538 2584 2113 2584 
z
M 3366 4563 
L 3366 3988 
Q 3128 4100 2886 4159 
Q 2644 4219 2406 4219 
Q 1781 4219 1451 3797 
Q 1122 3375 1075 2522 
Q 1259 2794 1537 2939 
Q 1816 3084 2150 3084 
Q 2853 3084 3261 2657 
Q 3669 2231 3669 1497 
Q 3669 778 3244 343 
Q 2819 -91 2113 -91 
Q 1303 -91 875 529 
Q 447 1150 447 2328 
Q 447 3434 972 4092 
Q 1497 4750 2381 4750 
Q 2619 4750 2861 4703 
Q 3103 4656 3366 4563 
z
" transform="scale(0.015625)"/>
       </defs>
       <use xlink:href="#DejaVuSans-2212"/>
       <use xlink:href="#DejaVuSans-36" x="83.789062"/>
       <use xlink:href="#DejaVuSans-30" x="147.412109"/>
      </g>
     </g>
    </g>
    <g id="ytick_5">
     <g id="line2d_75">
      <path d="M 55.674375 109.668046 
L 390.474375 109.668046 
" clip-path="url(#p7a654a7a1d)" style="fill: none; stroke: #b0b0b0; stroke-width: 0.5; stroke-linecap: square"/>
     </g>
     <g id="line2d_76">
      <g>
       <use xlink:href="#m979bf24471" x="55.674375" y="109.668046" style="stroke: #000000; stroke-width: 0.5"/>
      </g>
     </g>
     <g id="line2d_77">
      <g>
       <use xlink:href="#m176aea0790" x="390.474375" y="109.668046" style="stroke: #000000; stroke-width: 0.5"/>
      </g>
     </g>
     <g id="text_12">
      <!-- −40 -->
      <g transform="translate(26.84875 114.227108) scale(0.12 -0.12)">
       <use xlink:href="#DejaVuSans-2212"/>
       <use xlink:href="#DejaVuSans-34" x="83.789062"/>
       <use xlink:href="#DejaVuSans-30" x="147.412109"/>
      </g>
     </g>
    </g>
    <g id="ytick_6">
     <g id="line2d_78">
      <path d="M 55.674375 80.514602 
L 390.474375 80.514602 
" clip-path="url(#p7a654a7a1d)" style="fill: none; stroke: #b0b0b0; stroke-width: 0.5; stroke-linecap: square"/>
     </g>
     <g id="line2d_79">
      <g>
       <use xlink:href="#m979bf24471" x="55.674375" y="80.514602" style="stroke: #000000; stroke-width: 0.5"/>
      </g>
     </g>
     <g id="line2d_80">
      <g>
       <use xlink:href="#m176aea0790" x="390.474375" y="80.514602" style="stroke: #000000; stroke-width: 0.5"/>
      </g>
     </g>
     <g id="text_13">
      <!-- −20 -->
      <g transform="translate(26.84875 85.073665) scale(0.12 -0.12)">
       <use xlink:href="#DejaVuSans-2212"/>
       <use xlink:href="#DejaVuSans-32" x="83.789062"/>
       <use xlink:href="#DejaVuSans-30" x="147.412109"/>
      </g>
     </g>
    </g>
    <g id="ytick_7">
     <g id="line2d_81">
      <path d="M 55.674375 51.361159 
L 390.474375 51.361159 
" clip-path="url(#p7a654a7a1d)" style="fill: none; stroke: #b0b0b0; stroke-width: 0.5; stroke-linecap: square"/>
     </g>
     <g id="line2d_82">
      <g>
       <use xlink:href="#m979bf24471" x="55.674375" y="51.361159" style="stroke: #000000; stroke-width: 0.5"/>
      </g>
     </g>
     <g id="line2d_83">
      <g>
       <use xlink:href="#m176aea0790" x="390.474375" y="51.361159" style="stroke: #000000; stroke-width: 0.5"/>
      </g>
     </g>
     <g id="text_14">
      <!-- 0 -->
      <g transform="translate(44.539375 55.920222) scale(0.12 -0.12)">
       <use xlink:href="#DejaVuSans-30"/>
      </g>
     </g>
    </g>
    <g id="ytick_8">
     <g id="line2d_84">
      <path d="M 55.674375 22.207716 
L 390.474375 22.207716 
" clip-path="url(#p7a654a7a1d)" style="fill: none; stroke: #b0b0b0; stroke-width: 0.5; stroke-linecap: square"/>
     </g>
     <g id="line2d_85">
      <g>
       <use xlink:href="#m979bf24471" x="55.674375" y="22.207716" style="stroke: #000000; stroke-width: 0.5"/>
      </g>
     </g>
     <g id="line2d_86">
      <g>
       <use xlink:href="#m176aea0790" x="390.474375" y="22.207716" style="stroke: #000000; stroke-width: 0.5"/>
      </g>
     </g>
     <g id="text_15">
      <!-- 20 -->
      <g transform="translate(36.904375 26.766778) scale(0.12 -0.12)">
       <use xlink:href="#DejaVuSans-32"/>
       <use xlink:href="#DejaVuSans-30" x="63.623047"/>
      </g>
     </g>
    </g>
    <g id="ytick_9">
     <g id="line2d_87">
      <defs>
       <path id="m659bff181d" d="M 0 0 
L 1.5 0 
" style="stroke: #000000; stroke-width: 0.5"/>
      </defs>
      <g>
       <use xlink:href="#m659bff181d" x="55.674375" y="248.146901" style="stroke: #000000; stroke-width: 0.5"/>
      </g>
     </g>
     <g id="line2d_88">
      <defs>
       <path id="m98f3a7e1f7" d="M 0 0 
L -1.5 0 
" style="stroke: #000000; stroke-width: 0.5"/>
      </defs>
      <g>
       <use xlink:href="#m98f3a7e1f7" x="390.474375" y="248.146901" style="stroke: #000000; stroke-width: 0.5"/>
      </g>
     </g>
    </g>
    <g id="ytick_10">
     <g id="line2d_89">
      <g>
       <use xlink:href="#m659bff181d" x="55.674375" y="240.858541" style="stroke: #000000; stroke-width: 0.5"/>
      </g>
     </g>
     <g id="line2d_90">
      <g>
       <use xlink:href="#m98f3a7e1f7" x="390.474375" y="240.858541" style="stroke: #000000; stroke-width: 0.5"/>
      </g>
     </g>
    </g>
    <g id="ytick_11">
     <g id="line2d_91">
      <g>
       <use xlink:href="#m659bff181d" x="55.674375" y="233.57018" style="stroke: #000000; stroke-width: 0.5"/>
      </g>
     </g>
     <g id="line2d_92">
      <g>
       <use xlink:href="#m98f3a7e1f7" x="390.474375" y="233.57018" style="stroke: #000000; stroke-width: 0.5"/>
      </g>
     </g>
    </g>
    <g id="ytick_12">
     <g id="line2d_93">
      <g>
       <use xlink:href="#m659bff181d" x="55.674375" y="218.993458" style="stroke: #000000; stroke-width: 0.5"/>
      </g>
     </g>
     <g id="line2d_94">
      <g>
       <use xlink:href="#m98f3a7e1f7" x="390.474375" y="218.993458" style="stroke: #000000; stroke-width: 0.5"/>
      </g>
     </g>
    </g>
    <g id="ytick_13">
     <g id="line2d_95">
      <g>
       <use xlink:href="#m659bff181d" x="55.674375" y="211.705097" style="stroke: #000000; stroke-width: 0.5"/>
      </g>
     </g>
     <g id="line2d_96">
      <g>
       <use xlink:href="#m98f3a7e1f7" x="390.474375" y="211.705097" style="stroke: #000000; stroke-width: 0.5"/>
      </g>
     </g>
    </g>
    <g id="ytick_14">
     <g id="line2d_97">
      <g>
       <use xlink:href="#m659bff181d" x="55.674375" y="204.416736" style="stroke: #000000; stroke-width: 0.5"/>
      </g>
     </g>
     <g id="line2d_98">
      <g>
       <use xlink:href="#m98f3a7e1f7" x="390.474375" y="204.416736" style="stroke: #000000; stroke-width: 0.5"/>
      </g>
     </g>
    </g>
    <g id="ytick_15">
     <g id="line2d_99">
      <g>
       <use xlink:href="#m659bff181d" x="55.674375" y="189.840015" style="stroke: #000000; stroke-width: 0.5"/>
      </g>
     </g>
     <g id="line2d_100">
      <g>
       <use xlink:href="#m98f3a7e1f7" x="390.474375" y="189.840015" style="stroke: #000000; stroke-width: 0.5"/>
      </g>
     </g>
    </g>
    <g id="ytick_16">
     <g id="line2d_101">
      <g>
       <use xlink:href="#m659bff181d" x="55.674375" y="182.551654" style="stroke: #000000; stroke-width: 0.5"/>
      </g>
     </g>
     <g id="line2d_102">
      <g>
       <use xlink:href="#m98f3a7e1f7" x="390.474375" y="182.551654" style="stroke: #000000; stroke-width: 0.5"/>
      </g>
     </g>
    </g>
    <g id="ytick_17">
     <g id="line2d_103">
      <g>
       <use xlink:href="#m659bff181d" x="55.674375" y="175.263293" style="stroke: #000000; stroke-width: 0.5"/>
      </g>
     </g>
     <g id="line2d_104">
      <g>
       <use xlink:href="#m98f3a7e1f7" x="390.474375" y="175.263293" style="stroke: #000000; stroke-width: 0.5"/>
      </g>
     </g>
    </g>
    <g id="ytick_18">
     <g id="line2d_105">
      <g>
       <use xlink:href="#m659bff181d" x="55.674375" y="160.686572" style="stroke: #000000; stroke-width: 0.5"/>
      </g>
     </g>
     <g id="line2d_106">
      <g>
       <use xlink:href="#m98f3a7e1f7" x="390.474375" y="160.686572" style="stroke: #000000; stroke-width: 0.5"/>
      </g>
     </g>
    </g>
    <g id="ytick_19">
     <g id="line2d_107">
      <g>
       <use xlink:href="#m659bff181d" x="55.674375" y="153.398211" style="stroke: #000000; stroke-width: 0.5"/>
      </g>
     </g>
     <g id="line2d_108">
      <g>
       <use xlink:href="#m98f3a7e1f7" x="390.474375" y="153.398211" style="stroke: #000000; stroke-width: 0.5"/>
      </g>
     </g>
    </g>
    <g id="ytick_20">
     <g id="line2d_109">
      <g>
       <use xlink:href="#m659bff181d" x="55.674375" y="146.10985" style="stroke: #000000; stroke-width: 0.5"/>
      </g>
     </g>
     <g id="line2d_110">
      <g>
       <use xlink:href="#m98f3a7e1f7" x="390.474375" y="146.10985" style="stroke: #000000; stroke-width: 0.5"/>
      </g>
     </g>
    </g>
    <g id="ytick_21">
     <g id="line2d_111">
      <g>
       <use xlink:href="#m659bff181d" x="55.674375" y="131.533128" style="stroke: #000000; stroke-width: 0.5"/>
      </g>
     </g>
     <g id="line2d_112">
      <g>
       <use xlink:href="#m98f3a7e1f7" x="390.474375" y="131.533128" style="stroke: #000000; stroke-width: 0.5"/>
      </g>
     </g>
    </g>
    <g id="ytick_22">
     <g id="line2d_113">
      <g>
       <use xlink:href="#m659bff181d" x="55.674375" y="124.244767" style="stroke: #000000; stroke-width: 0.5"/>
      </g>
     </g>
     <g id="line2d_114">
      <g>
       <use xlink:href="#m98f3a7e1f7" x="390.474375" y="124.244767" style="stroke: #000000; stroke-width: 0.5"/>
      </g>
     </g>
    </g>
    <g id="ytick_23">
     <g id="line2d_115">
      <g>
       <use xlink:href="#m659bff181d" x="55.674375" y="116.956407" style="stroke: #000000; stroke-width: 0.5"/>
      </g>
     </g>
     <g id="line2d_116">
      <g>
       <use xlink:href="#m98f3a7e1f7" x="390.474375" y="116.956407" style="stroke: #000000; stroke-width: 0.5"/>
      </g>
     </g>
    </g>
    <g id="ytick_24">
     <g id="line2d_117">
      <g>
       <use xlink:href="#m659bff181d" x="55.674375" y="102.379685" style="stroke: #000000; stroke-width: 0.5"/>
      </g>
     </g>
     <g id="line2d_118">
      <g>
       <use xlink:href="#m98f3a7e1f7" x="390.474375" y="102.379685" style="stroke: #000000; stroke-width: 0.5"/>
      </g>
     </g>
    </g>
    <g id="ytick_25">
     <g id="line2d_119">
      <g>
       <use xlink:href="#m659bff181d" x="55.674375" y="95.091324" style="stroke: #000000; stroke-width: 0.5"/>
      </g>
     </g>
     <g id="line2d_120">
      <g>
       <use xlink:href="#m98f3a7e1f7" x="390.474375" y="95.091324" style="stroke: #000000; stroke-width: 0.5"/>
      </g>
     </g>
    </g>
    <g id="ytick_26">
     <g id="line2d_121">
      <g>
       <use xlink:href="#m659bff181d" x="55.674375" y="87.802963" style="stroke: #000000; stroke-width: 0.5"/>
      </g>
     </g>
     <g id="line2d_122">
      <g>
       <use xlink:href="#m98f3a7e1f7" x="390.474375" y="87.802963" style="stroke: #000000; stroke-width: 0.5"/>
      </g>
     </g>
    </g>
    <g id="ytick_27">
     <g id="line2d_123">
      <g>
       <use xlink:href="#m659bff181d" x="55.674375" y="73.226242" style="stroke: #000000; stroke-width: 0.5"/>
      </g>
     </g>
     <g id="line2d_124">
      <g>
       <use xlink:href="#m98f3a7e1f7" x="390.474375" y="73.226242" style="stroke: #000000; stroke-width: 0.5"/>
      </g>
     </g>
    </g>
    <g id="ytick_28">
     <g id="line2d_125">
      <g>
       <use xlink:href="#m659bff181d" x="55.674375" y="65.937881" style="stroke: #000000; stroke-width: 0.5"/>
      </g>
     </g>
     <g id="line2d_126">
      <g>
       <use xlink:href="#m98f3a7e1f7" x="390.474375" y="65.937881" style="stroke: #000000; stroke-width: 0.5"/>
      </g>
     </g>
    </g>
    <g id="ytick_29">
     <g id="line2d_127">
      <g>
       <use xlink:href="#m659bff181d" x="55.674375" y="58.64952" style="stroke: #000000; stroke-width: 0.5"/>
      </g>
     </g>
     <g id="line2d_128">
      <g>
       <use xlink:href="#m98f3a7e1f7" x="390.474375" y="58.64952" style="stroke: #000000; stroke-width: 0.5"/>
      </g>
     </g>
    </g>
    <g id="ytick_30">
     <g id="line2d_129">
      <g>
       <use xlink:href="#m659bff181d" x="55.674375" y="44.072798" style="stroke: #000000; stroke-width: 0.5"/>
      </g>
     </g>
     <g id="line2d_130">
      <g>
       <use xlink:href="#m98f3a7e1f7" x="390.474375" y="44.072798" style="stroke: #000000; stroke-width: 0.5"/>
      </g>
     </g>
    </g>
    <g id="ytick_31">
     <g id="line2d_131">
      <g>
       <use xlink:href="#m659bff181d" x="55.674375" y="36.784438" style="stroke: #000000; stroke-width: 0.5"/>
      </g>
     </g>
     <g id="line2d_132">
      <g>
       <use xlink:href="#m98f3a7e1f7" x="390.474375" y="36.784438" style="stroke: #000000; stroke-width: 0.5"/>
      </g>
     </g>
    </g>
    <g id="ytick_32">
     <g id="line2d_133">
      <g>
       <use xlink:href="#m659bff181d" x="55.674375" y="29.496077" style="stroke: #000000; stroke-width: 0.5"/>
      </g>
     </g>
     <g id="line2d_134">
      <g>
       <use xlink:href="#m98f3a7e1f7" x="390.474375" y="29.496077" style="stroke: #000000; stroke-width: 0.5"/>
      </g>
     </g>
    </g>
    <g id="ytick_33">
     <g id="line2d_135">
      <g>
       <use xlink:href="#m659bff181d" x="55.674375" y="14.919355" style="stroke: #000000; stroke-width: 0.5"/>
      </g>
     </g>
     <g id="line2d_136">
      <g>
       <use xlink:href="#m98f3a7e1f7" x="390.474375" y="14.919355" style="stroke: #000000; stroke-width: 0.5"/>
      </g>
     </g>
    </g>
    <g id="ytick_34">
     <g id="line2d_137">
      <g>
       <use xlink:href="#m659bff181d" x="55.674375" y="7.630994" style="stroke: #000000; stroke-width: 0.5"/>
      </g>
     </g>
     <g id="line2d_138">
      <g>
       <use xlink:href="#m98f3a7e1f7" x="390.474375" y="7.630994" style="stroke: #000000; stroke-width: 0.5"/>
      </g>
     </g>
    </g>
    <g id="text_16">
     <!-- Fitness -->
     <g transform="translate(12.718125 149.120625) rotate(-90) scale(0.12 -0.12)">
      <defs>
       <path id="DejaVuSans-46" d="M 628 4666 
L 3309 4666 
L 3309 4134 
L 1259 4134 
L 1259 2759 
L 3109 2759 
L 3109 2228 
L 1259 2228 
L 1259 0 
L 628 0 
L 628 4666 
z
" transform="scale(0.015625)"/>
      </defs>
      <use xlink:href="#DejaVuSans-46"/>
      <use xlink:href="#DejaVuSans-69" x="50.269531"/>
      <use xlink:href="#DejaVuSans-74" x="78.052734"/>
      <use xlink:href="#DejaVuSans-6e" x="117.261719"/>
      <use xlink:href="#DejaVuSans-65" x="180.640625"/>
      <use xlink:href="#DejaVuSans-73" x="242.164062"/>
      <use xlink:href="#DejaVuSans-73" x="294.263672"/>
     </g>
    </g>
   </g>
   <g id="line2d_139">
    <path d="M 70.892557 28.968719 
L 71.502504 28.611165 
L 78.211923 28.611107 
L 78.82187 24.019064 
L 87.36113 24.019061 
L 87.971077 23.005587 
L 91.63076 23.005593 
L 92.850655 18.99062 
L 102.60981 18.990569 
L 103.219757 18.825326 
L 105.049598 18.825315 
L 105.659545 17.989996 
L 106.269493 17.989988 
L 106.87944 17.16779 
L 110.539123 17.123815 
L 111.759017 17.022138 
L 112.368964 17.022123 
L 112.978911 16.794911 
L 113.588859 16.794906 
L 114.198806 16.550596 
L 118.468436 16.550574 
L 119.078383 16.337947 
L 120.298277 16.33795 
L 120.908225 15.820882 
L 122.738066 15.820877 
L 123.348013 15.659448 
L 126.397749 15.569545 
L 127.007696 15.250591 
L 140.426534 15.170357 
L 141.646428 15.11375 
L 163.604526 15.0712 
L 164.824421 14.993166 
L 375.256193 14.940008 
L 375.256193 14.940008 
" clip-path="url(#p7a654a7a1d)" style="fill: none; stroke: #000000; stroke-linecap: square"/>
   </g>
   <g id="line2d_140">
    <path d="M 70.892557 102.297368 
L 71.502504 94.252663 
L 72.112451 80.34737 
L 72.722398 70.280026 
L 73.332345 71.017144 
L 73.942293 102.54152 
L 74.55224 241.74 
L 75.162187 118.985175 
L 75.772134 119.06754 
L 76.382081 82.180501 
L 76.992028 78.400844 
L 77.601976 87.778294 
L 78.211923 77.656441 
L 78.82187 73.260092 
L 79.431817 77.968129 
L 80.041764 72.084071 
L 80.651711 73.828067 
L 81.261659 77.211993 
L 81.871606 74.499007 
L 82.481553 78.310106 
L 83.0915 75.753457 
L 83.701447 115.909691 
L 84.311394 67.490689 
L 84.921342 66.443828 
L 85.531289 64.560626 
L 86.141236 70.940382 
L 86.751183 62.607071 
L 87.36113 69.393331 
L 87.971077 59.733802 
L 88.581025 59.373134 
L 89.190972 64.255539 
L 89.800919 63.237521 
L 90.410866 70.406588 
L 91.020813 64.975825 
L 91.63076 62.131519 
L 92.240708 61.336016 
L 94.070549 55.457168 
L 94.680496 55.312623 
L 95.290444 54.880253 
L 95.900391 52.936662 
L 96.510338 55.282126 
L 97.120285 53.498646 
L 97.730232 53.338857 
L 98.950127 55.062392 
L 99.560074 53.904269 
L 100.170021 53.756191 
L 100.779968 52.347099 
L 101.999862 45.704016 
L 102.60981 43.816094 
L 103.829704 44.14608 
L 104.439651 48.654577 
L 105.049598 44.427528 
L 105.659545 44.74774 
L 106.269493 43.44641 
L 106.87944 47.20233 
L 107.489387 47.17712 
L 108.709281 39.51556 
L 109.319228 38.947342 
L 109.929176 36.170501 
L 111.14907 27.425688 
L 111.759017 34.331684 
L 112.368964 25.027692 
L 113.588859 23.675684 
L 114.198806 21.639444 
L 114.808753 20.301037 
L 115.4187 20.829498 
L 116.028647 20.124038 
L 116.638594 20.978414 
L 117.858489 20.659418 
L 118.468436 20.762852 
L 119.078383 20.415876 
L 119.68833 20.766334 
L 120.298277 19.826623 
L 120.908225 19.840423 
L 121.518172 20.43419 
L 122.128119 19.961339 
L 122.738066 20.275902 
L 123.348013 20.21058 
L 123.95796 20.620264 
L 124.567908 20.121745 
L 125.177855 19.281026 
L 125.787802 19.748189 
L 126.397749 20.45775 
L 127.007696 20.07472 
L 127.617643 19.529311 
L 128.227591 19.771593 
L 128.837538 19.33842 
L 129.447485 19.057145 
L 130.057432 19.296174 
L 130.667379 18.838966 
L 131.277326 19.135328 
L 131.887274 20.439284 
L 132.497221 19.417707 
L 133.107168 19.30134 
L 133.717115 18.731255 
L 134.327062 18.838698 
L 134.937009 18.599774 
L 135.546957 20.035583 
L 136.156904 18.148811 
L 136.766851 17.850585 
L 137.376798 17.84545 
L 137.986745 18.094717 
L 138.596692 18.058494 
L 139.20664 18.349453 
L 139.816587 18.189477 
L 140.426534 18.592468 
L 142.256375 17.037801 
L 142.866323 16.876122 
L 145.306111 16.969903 
L 145.916058 17.256277 
L 146.526006 17.295082 
L 147.135953 17.752542 
L 147.7459 17.394 
L 148.355847 17.398016 
L 148.965794 17.254452 
L 149.575741 16.911908 
L 150.795636 16.912073 
L 151.405583 17.214606 
L 152.01553 17.032755 
L 153.235424 17.589046 
L 153.845372 16.931699 
L 154.455319 16.713613 
L 155.065266 16.679068 
L 155.675213 16.883317 
L 156.28516 16.686052 
L 156.895107 16.68548 
L 157.505055 16.463987 
L 158.115002 17.41522 
L 158.724949 16.229326 
L 159.334896 16.295334 
L 159.944843 16.485685 
L 160.55479 16.400097 
L 161.164738 16.444088 
L 161.774685 16.085902 
L 162.384632 15.992232 
L 162.994579 16.086485 
L 164.214473 16.581903 
L 165.434368 16.326442 
L 166.044315 15.936601 
L 166.654262 16.042974 
L 167.264209 16.398782 
L 167.874156 16.169777 
L 168.484104 16.132287 
L 169.094051 16.341064 
L 169.703998 16.145044 
L 170.313945 16.583635 
L 170.923892 16.249 
L 171.533839 16.074327 
L 172.143787 16.210763 
L 172.753734 16.148987 
L 173.363681 16.525322 
L 173.973628 16.305877 
L 174.583575 16.326365 
L 175.193522 16.693449 
L 175.80347 16.75057 
L 177.023364 16.12772 
L 178.853205 16.33289 
L 179.463153 16.299305 
L 180.0731 17.052115 
L 180.683047 16.712084 
L 181.292994 16.230911 
L 181.902941 16.568461 
L 182.512888 16.362512 
L 183.122836 16.685558 
L 183.732783 16.820927 
L 184.34273 16.595152 
L 184.952677 16.120644 
L 185.562624 16.307528 
L 186.172571 16.622196 
L 186.782519 16.420149 
L 187.392466 16.034176 
L 188.002413 15.967849 
L 188.61236 16.190555 
L 189.832254 16.776649 
L 190.442202 16.420485 
L 191.052149 16.417174 
L 192.272043 16.819686 
L 192.88199 16.606313 
L 194.101885 16.858572 
L 194.711832 16.548289 
L 195.321779 17.273461 
L 195.931726 16.310596 
L 196.541673 16.996468 
L 197.15162 16.726975 
L 198.981462 16.476912 
L 200.201356 16.75195 
L 200.811303 16.422797 
L 201.421251 16.31556 
L 202.031198 17.119792 
L 202.641145 16.979921 
L 203.251092 17.264475 
L 204.470986 16.696091 
L 205.080934 17.257676 
L 205.690881 17.173117 
L 206.300828 17.379308 
L 206.910775 16.78878 
L 207.520722 17.007862 
L 208.130669 16.791331 
L 208.740617 16.997037 
L 209.350564 16.716725 
L 209.960511 16.852126 
L 210.570458 17.208606 
L 211.180405 16.931771 
L 211.790352 16.447963 
L 212.4003 16.544623 
L 213.010247 16.86773 
L 215.450035 16.363921 
L 216.059983 16.435725 
L 216.66993 17.01373 
L 217.279877 16.651531 
L 218.499771 16.549259 
L 219.109718 16.306454 
L 220.329613 16.040125 
L 221.549507 15.897118 
L 222.159454 16.332009 
L 222.769401 16.040957 
L 223.379349 16.005453 
L 223.989296 16.334108 
L 224.599243 16.198442 
L 225.20919 16.416651 
L 227.648979 16.663198 
L 228.868873 16.423689 
L 229.47882 16.554075 
L 230.088767 17.466042 
L 230.698715 17.33614 
L 231.918609 17.436157 
L 233.74845 16.830369 
L 234.968345 16.898689 
L 235.578292 16.598852 
L 236.188239 16.506807 
L 236.798186 16.861951 
L 237.408133 16.765047 
L 238.018081 17.776737 
L 238.628028 16.91461 
L 239.237975 17.176342 
L 239.847922 18.022419 
L 241.067816 17.23866 
L 241.677764 17.214257 
L 242.287711 17.338249 
L 242.897658 17.889513 
L 243.507605 17.320055 
L 244.117552 17.352399 
L 244.727499 17.219467 
L 245.337447 17.319162 
L 245.947394 16.654819 
L 247.167288 17.041685 
L 248.387182 18.128316 
L 248.99713 18.252002 
L 249.607077 17.059313 
L 250.217024 16.654283 
L 250.826971 17.378383 
L 251.436918 17.156242 
L 252.046865 17.188821 
L 252.656813 16.859733 
L 253.26676 17.299059 
L 253.876707 17.035135 
L 254.486654 17.164314 
L 255.096601 16.704594 
L 255.706548 17.295273 
L 256.316496 16.73314 
L 256.926443 16.541568 
L 258.146337 16.662602 
L 259.366231 16.006236 
L 259.976179 15.979414 
L 260.586126 16.471487 
L 261.196073 16.388971 
L 261.80602 16.602409 
L 262.415967 16.963704 
L 263.635862 16.665989 
L 264.245809 16.652643 
L 264.855756 16.970833 
L 265.465703 16.667054 
L 266.07565 16.838016 
L 266.685597 16.645942 
L 267.295545 17.445791 
L 267.905492 17.093299 
L 268.515439 17.248358 
L 269.125386 17.203898 
L 269.735333 17.714055 
L 270.34528 17.196135 
L 270.955228 18.443095 
L 271.565175 17.427102 
L 272.175122 17.781492 
L 272.785069 17.120543 
L 273.395016 16.71713 
L 274.004963 16.897809 
L 274.614911 16.720927 
L 275.224858 16.799891 
L 275.834805 17.019752 
L 276.444752 16.995506 
L 277.054699 17.210506 
L 277.664646 17.284606 
L 278.274594 16.876311 
L 278.884541 17.359047 
L 279.494488 16.664773 
L 280.104435 16.875109 
L 280.714382 16.565685 
L 281.934277 16.596938 
L 282.544224 17.17701 
L 283.154171 16.884886 
L 283.764118 16.997391 
L 284.374065 16.510842 
L 284.984012 17.059152 
L 285.59396 16.402128 
L 286.813854 16.568277 
L 288.033748 16.113027 
L 288.643695 16.412342 
L 289.253643 16.058786 
L 289.86359 16.072237 
L 290.473537 16.404849 
L 291.083484 15.974575 
L 291.693431 15.744586 
L 292.303378 15.693498 
L 292.913326 16.243426 
L 293.523273 15.761814 
L 294.13322 16.039392 
L 294.743167 16.066463 
L 295.353114 15.945249 
L 295.963061 16.267595 
L 296.573009 16.158807 
L 297.792903 16.13143 
L 298.40285 16.639235 
L 299.012797 16.361983 
L 299.622744 16.74358 
L 300.232692 16.462927 
L 300.842639 16.949914 
L 301.452586 16.323208 
L 302.062533 16.530492 
L 302.67248 16.372328 
L 303.892375 16.436332 
L 304.502322 16.307932 
L 305.112269 16.357446 
L 305.722216 16.180745 
L 308.162005 16.198325 
L 309.381899 15.822995 
L 309.991846 15.957996 
L 310.601793 15.976965 
L 311.211741 16.134275 
L 311.821688 15.889396 
L 312.431635 15.798495 
L 313.041582 16.10254 
L 313.651529 15.801724 
L 314.261476 16.119063 
L 314.871424 15.8083 
L 315.481371 15.95361 
L 316.091318 15.760576 
L 317.921159 16.19819 
L 318.531107 16.084004 
L 319.141054 16.565305 
L 319.751001 16.402627 
L 320.360948 16.511252 
L 320.970895 16.937774 
L 321.580842 16.502492 
L 322.19079 16.474243 
L 322.800737 16.132528 
L 324.020631 16.333138 
L 324.630578 16.854835 
L 325.240525 16.979264 
L 326.46042 16.725492 
L 327.070367 16.403211 
L 327.680314 16.938272 
L 328.290261 16.248047 
L 328.900208 15.981918 
L 329.510156 15.914686 
L 330.120103 16.749134 
L 330.73005 16.092913 
L 331.339997 16.018615 
L 331.949944 16.065087 
L 332.559891 15.932855 
L 333.169839 16.103846 
L 333.779786 15.86885 
L 334.389733 16.443255 
L 336.829522 16.196821 
L 337.439469 16.520648 
L 338.049416 16.246362 
L 338.659363 17.173615 
L 339.26931 16.70966 
L 339.879257 16.631203 
L 340.489205 16.394687 
L 341.709099 16.530958 
L 342.319046 16.373336 
L 342.928993 16.740372 
L 343.53894 17.408508 
L 344.148888 16.682979 
L 344.758835 16.392892 
L 345.368782 16.496902 
L 345.978729 16.293114 
L 346.588676 16.301139 
L 347.198623 16.697306 
L 347.808571 16.661835 
L 348.418518 17.054593 
L 349.028465 16.567059 
L 349.638412 16.688105 
L 350.248359 16.444645 
L 351.468254 16.263406 
L 352.078201 16.043681 
L 352.688148 15.95401 
L 353.908042 16.079588 
L 354.51799 15.909085 
L 355.127937 16.303649 
L 355.737884 16.111727 
L 356.347831 16.069501 
L 356.957778 16.293527 
L 357.567725 16.016413 
L 358.177673 15.87746 
L 360.007514 15.902562 
L 360.617461 16.181268 
L 361.227408 16.103256 
L 361.837356 16.220935 
L 362.447303 16.779035 
L 363.05725 16.787151 
L 363.667197 16.609203 
L 364.887091 16.617369 
L 365.497039 16.663164 
L 366.106986 16.535772 
L 367.32688 16.759006 
L 367.936827 16.860237 
L 369.766669 16.219513 
L 372.206457 16.097168 
L 372.816405 16.557309 
L 373.426352 16.608784 
L 374.036299 16.783458 
L 375.256193 16.281108 
L 375.256193 16.281108 
" clip-path="url(#p7a654a7a1d)" style="fill: none; stroke-dasharray: 3.7,1.6; stroke-dashoffset: 0; stroke: #000000"/>
   </g>
   <g id="patch_3">
    <path d="M 55.674375 253.08 
L 55.674375 3.6 
" style="fill: none; stroke: #000000; stroke-width: 0.5; stroke-linejoin: miter; stroke-linecap: square"/>
   </g>
   <g id="patch_4">
    <path d="M 390.474375 253.08 
L 390.474375 3.6 
" style="fill: none; stroke: #000000; stroke-width: 0.5; stroke-linejoin: miter; stroke-linecap: square"/>
   </g>
   <g id="patch_5">
    <path d="M 55.674375 253.08 
L 390.474375 253.08 
" style="fill: none; stroke: #000000; stroke-width: 0.5; stroke-linejoin: miter; stroke-linecap: square"/>
   </g>
   <g id="patch_6">
    <path d="M 55.674375 3.6 
L 390.474375 3.6 
" style="fill: none; stroke: #000000; stroke-width: 0.5; stroke-linejoin: miter; stroke-linecap: square"/>
   </g>
   <g id="legend_1">
    <g id="patch_7">
     <path d="M 264.268125 247.08 
L 382.074375 247.08 
Q 384.474375 247.08 384.474375 244.68 
L 384.474375 193.03875 
Q 384.474375 190.63875 382.074375 190.63875 
L 264.268125 190.63875 
Q 261.868125 190.63875 261.868125 193.03875 
L 261.868125 244.68 
Q 261.868125 247.08 264.268125 247.08 
z
" style="fill: #ffffff; opacity: 0.8; stroke: #cccccc; stroke-linejoin: miter"/>
    </g>
    <g id="line2d_141">
     <path d="M 266.668125 200.356875 
L 278.668125 200.356875 
L 290.668125 200.356875 
" style="fill: none; stroke: #000000; stroke-linecap: square"/>
    </g>
    <g id="text_17">
     <!-- Max fitness -->
     <g transform="translate(300.268125 204.556875) scale(0.12 -0.12)">
      <defs>
       <path id="DejaVuSans-4d" d="M 628 4666 
L 1569 4666 
L 2759 1491 
L 3956 4666 
L 4897 4666 
L 4897 0 
L 4281 0 
L 4281 4097 
L 3078 897 
L 2444 897 
L 1241 4097 
L 1241 0 
L 628 0 
L 628 4666 
z
" transform="scale(0.015625)"/>
       <path id="DejaVuSans-78" d="M 3513 3500 
L 2247 1797 
L 3578 0 
L 2900 0 
L 1881 1375 
L 863 0 
L 184 0 
L 1544 1831 
L 300 3500 
L 978 3500 
L 1906 2253 
L 2834 3500 
L 3513 3500 
z
" transform="scale(0.015625)"/>
       <path id="DejaVuSans-20" transform="scale(0.015625)"/>
       <path id="DejaVuSans-66" d="M 2375 4863 
L 2375 4384 
L 1825 4384 
Q 1516 4384 1395 4259 
Q 1275 4134 1275 3809 
L 1275 3500 
L 2222 3500 
L 2222 3053 
L 1275 3053 
L 1275 0 
L 697 0 
L 697 3053 
L 147 3053 
L 147 3500 
L 697 3500 
L 697 3744 
Q 697 4328 969 4595 
Q 1241 4863 1831 4863 
L 2375 4863 
z
" transform="scale(0.015625)"/>
      </defs>
      <use xlink:href="#DejaVuSans-4d"/>
      <use xlink:href="#DejaVuSans-61" x="86.279297"/>
      <use xlink:href="#DejaVuSans-78" x="147.558594"/>
      <use xlink:href="#DejaVuSans-20" x="206.738281"/>
      <use xlink:href="#DejaVuSans-66" x="238.525391"/>
      <use xlink:href="#DejaVuSans-69" x="273.730469"/>
      <use xlink:href="#DejaVuSans-74" x="301.513672"/>
      <use xlink:href="#DejaVuSans-6e" x="340.722656"/>
      <use xlink:href="#DejaVuSans-65" x="404.101562"/>
      <use xlink:href="#DejaVuSans-73" x="465.625"/>
      <use xlink:href="#DejaVuSans-73" x="517.724609"/>
     </g>
    </g>
    <g id="patch_8">
     <path d="M 266.668125 222.170625 
L 290.668125 222.170625 
L 290.668125 213.770625 
L 266.668125 213.770625 
z
" style="fill: #0000ff; fill-opacity: 0.2; stroke: #0000ff; stroke-opacity: 0.2; stroke-linejoin: miter"/>
    </g>
    <g id="text_18">
     <!-- Top 90% -->
     <g transform="translate(300.268125 222.170625) scale(0.12 -0.12)">
      <defs>
       <path id="DejaVuSans-54" d="M -19 4666 
L 3928 4666 
L 3928 4134 
L 2272 4134 
L 2272 0 
L 1638 0 
L 1638 4134 
L -19 4134 
L -19 4666 
z
" transform="scale(0.015625)"/>
       <path id="DejaVuSans-70" d="M 1159 525 
L 1159 -1331 
L 581 -1331 
L 581 3500 
L 1159 3500 
L 1159 2969 
Q 1341 3281 1617 3432 
Q 1894 3584 2278 3584 
Q 2916 3584 3314 3078 
Q 3713 2572 3713 1747 
Q 3713 922 3314 415 
Q 2916 -91 2278 -91 
Q 1894 -91 1617 61 
Q 1341 213 1159 525 
z
M 3116 1747 
Q 3116 2381 2855 2742 
Q 2594 3103 2138 3103 
Q 1681 3103 1420 2742 
Q 1159 2381 1159 1747 
Q 1159 1113 1420 752 
Q 1681 391 2138 391 
Q 2594 391 2855 752 
Q 3116 1113 3116 1747 
z
" transform="scale(0.015625)"/>
       <path id="DejaVuSans-39" d="M 703 97 
L 703 672 
Q 941 559 1184 500 
Q 1428 441 1663 441 
Q 2288 441 2617 861 
Q 2947 1281 2994 2138 
Q 2813 1869 2534 1725 
Q 2256 1581 1919 1581 
Q 1219 1581 811 2004 
Q 403 2428 403 3163 
Q 403 3881 828 4315 
Q 1253 4750 1959 4750 
Q 2769 4750 3195 4129 
Q 3622 3509 3622 2328 
Q 3622 1225 3098 567 
Q 2575 -91 1691 -91 
Q 1453 -91 1209 -44 
Q 966 3 703 97 
z
M 1959 2075 
Q 2384 2075 2632 2365 
Q 2881 2656 2881 3163 
Q 2881 3666 2632 3958 
Q 2384 4250 1959 4250 
Q 1534 4250 1286 3958 
Q 1038 3666 1038 3163 
Q 1038 2656 1286 2365 
Q 1534 2075 1959 2075 
z
" transform="scale(0.015625)"/>
       <path id="DejaVuSans-25" d="M 4653 2053 
Q 4381 2053 4226 1822 
Q 4072 1591 4072 1178 
Q 4072 772 4226 539 
Q 4381 306 4653 306 
Q 4919 306 5073 539 
Q 5228 772 5228 1178 
Q 5228 1588 5073 1820 
Q 4919 2053 4653 2053 
z
M 4653 2450 
Q 5147 2450 5437 2106 
Q 5728 1763 5728 1178 
Q 5728 594 5436 251 
Q 5144 -91 4653 -91 
Q 4153 -91 3862 251 
Q 3572 594 3572 1178 
Q 3572 1766 3864 2108 
Q 4156 2450 4653 2450 
z
M 1428 4353 
Q 1159 4353 1004 4120 
Q 850 3888 850 3481 
Q 850 3069 1003 2837 
Q 1156 2606 1428 2606 
Q 1700 2606 1854 2837 
Q 2009 3069 2009 3481 
Q 2009 3884 1853 4118 
Q 1697 4353 1428 4353 
z
M 4250 4750 
L 4750 4750 
L 1831 -91 
L 1331 -91 
L 4250 4750 
z
M 1428 4750 
Q 1922 4750 2215 4408 
Q 2509 4066 2509 3481 
Q 2509 2891 2217 2550 
Q 1925 2209 1428 2209 
Q 931 2209 642 2551 
Q 353 2894 353 3481 
Q 353 4063 643 4406 
Q 934 4750 1428 4750 
z
" transform="scale(0.015625)"/>
      </defs>
      <use xlink:href="#DejaVuSans-54"/>
      <use xlink:href="#DejaVuSans-6f" x="44.083984"/>
      <use xlink:href="#DejaVuSans-70" x="105.265625"/>
      <use xlink:href="#DejaVuSans-20" x="168.742188"/>
      <use xlink:href="#DejaVuSans-39" x="200.529297"/>
      <use xlink:href="#DejaVuSans-30" x="264.152344"/>
      <use xlink:href="#DejaVuSans-25" x="327.775391"/>
     </g>
    </g>
    <g id="line2d_142">
     <path d="M 266.668125 235.584375 
L 278.668125 235.584375 
L 290.668125 235.584375 
" style="fill: none; stroke-dasharray: 3.7,1.6; stroke-dashoffset: 0; stroke: #000000"/>
    </g>
    <g id="text_19">
     <!-- Fitness mean -->
     <g transform="translate(300.268125 239.784375) scale(0.12 -0.12)">
      <defs>
       <path id="DejaVuSans-6d" d="M 3328 2828 
Q 3544 3216 3844 3400 
Q 4144 3584 4550 3584 
Q 5097 3584 5394 3201 
Q 5691 2819 5691 2113 
L 5691 0 
L 5113 0 
L 5113 2094 
Q 5113 2597 4934 2840 
Q 4756 3084 4391 3084 
Q 3944 3084 3684 2787 
Q 3425 2491 3425 1978 
L 3425 0 
L 2847 0 
L 2847 2094 
Q 2847 2600 2669 2842 
Q 2491 3084 2119 3084 
Q 1678 3084 1418 2786 
Q 1159 2488 1159 1978 
L 1159 0 
L 581 0 
L 581 3500 
L 1159 3500 
L 1159 2956 
Q 1356 3278 1631 3431 
Q 1906 3584 2284 3584 
Q 2666 3584 2933 3390 
Q 3200 3197 3328 2828 
z
" transform="scale(0.015625)"/>
      </defs>
      <use xlink:href="#DejaVuSans-46"/>
      <use xlink:href="#DejaVuSans-69" x="50.269531"/>
      <use xlink:href="#DejaVuSans-74" x="78.052734"/>
      <use xlink:href="#DejaVuSans-6e" x="117.261719"/>
      <use xlink:href="#DejaVuSans-65" x="180.640625"/>
      <use xlink:href="#DejaVuSans-73" x="242.164062"/>
      <use xlink:href="#DejaVuSans-73" x="294.263672"/>
      <use xlink:href="#DejaVuSans-20" x="346.363281"/>
      <use xlink:href="#DejaVuSans-6d" x="378.150391"/>
      <use xlink:href="#DejaVuSans-65" x="475.5625"/>
      <use xlink:href="#DejaVuSans-61" x="537.085938"/>
      <use xlink:href="#DejaVuSans-6e" x="598.365234"/>
     </g>
    </g>
   </g>
  </g>
 </g>
 <defs>
  <clipPath id="p7a654a7a1d">
   <rect x="55.674375" y="3.6" width="334.8" height="249.48"/>
  </clipPath>
 </defs>
</svg>
