<?xml version="1.0" encoding="utf-8" standalone="no"?>
<!DOCTYPE svg PUBLIC "-//W3C//DTD SVG 1.1//EN"
  "http://www.w3.org/Graphics/SVG/1.1/DTD/svg11.dtd">
<svg xmlns:xlink="http://www.w3.org/1999/xlink" width="386.439375pt" height="288.129373pt" viewBox="0 0 386.439375 288.129373" xmlns="http://www.w3.org/2000/svg" version="1.1">
 <metadata>
  <rdf:RDF xmlns:dc="http://purl.org/dc/elements/1.1/" xmlns:cc="http://creativecommons.org/ns#" xmlns:rdf="http://www.w3.org/1999/02/22-rdf-syntax-ns#">
   <cc:Work>
    <dc:type rdf:resource="http://purl.org/dc/dcmitype/StillImage"/>
    <dc:date>2024-06-04T10:26:34.816545</dc:date>
    <dc:format>image/svg+xml</dc:format>
    <dc:creator>
     <cc:Agent>
      <dc:title>Matplotlib v3.9.0, https://matplotlib.org/</dc:title>
     </cc:Agent>
    </dc:creator>
   </cc:Work>
  </rdf:RDF>
 </metadata>
 <defs>
  <style type="text/css">*{stroke-linejoin: round; stroke-linecap: butt}</style>
 </defs>
 <g id="figure_1">
  <g id="patch_1">
   <path d="M 0 288.129373 
L 386.439375 288.129373 
L 386.439375 0 
L 0 0 
z
" style="fill: #ffffff"/>
  </g>
  <g id="axes_1">
   <g id="patch_2">
    <path d="M 48.039375 253.801873 
L 382.839375 253.801873 
L 382.839375 4.321873 
L 48.039375 4.321873 
z
" style="fill: #ffffff"/>
   </g>
   <g id="PolyCollection_1">
    <defs>
     <path id="macc9d55d26" d="M 63.257557 -256.211399 
L 63.257557 -71.487793 
L 63.867504 -45.6675 
L 64.477451 -82.147398 
L 65.087398 -85.21057 
L 65.697345 -103.04137 
L 66.307293 -139.304891 
L 66.91724 -114.579769 
L 67.527187 -133.242954 
L 68.137134 -83.480582 
L 68.747081 -115.217175 
L 69.357028 -139.400842 
L 69.966976 -144.228874 
L 70.576923 -137.40663 
L 71.18687 -142.201925 
L 71.796817 -162.539054 
L 72.406764 -166.002641 
L 73.016711 -152.029768 
L 73.626659 -159.991238 
L 74.236606 -160.870384 
L 74.846553 -160.052903 
L 75.4565 -166.957026 
L 76.066447 -172.371635 
L 76.676394 -172.371635 
L 77.286342 -169.366255 
L 77.896289 -165.515134 
L 78.506236 -163.173645 
L 79.116183 -172.56252 
L 79.72613 -173.617841 
L 80.336077 -176.218598 
L 80.946025 -208.454423 
L 81.555972 -221.117718 
L 82.165919 -223.345462 
L 82.775866 -250.065328 
L 83.385813 -258.578844 
L 83.99576 -252.910421 
L 84.605708 -252.262885 
L 85.215655 -252.876686 
L 85.825602 -252.910397 
L 86.435549 -255.870641 
L 87.045496 -255.840994 
L 87.655444 -252.890171 
L 88.265391 -255.624302 
L 88.875338 -253.974957 
L 89.485285 -255.447038 
L 90.095232 -254.793679 
L 90.705179 -255.901555 
L 91.315127 -255.847073 
L 91.925074 -254.523015 
L 92.535021 -254.36675 
L 93.144968 -254.483274 
L 93.754915 -255.570823 
L 94.364862 -255.528018 
L 94.97481 -254.426214 
L 95.584757 -256.308691 
L 96.194704 -257.759742 
L 96.804651 -257.93941 
L 97.414598 -258.347266 
L 98.024545 -254.341875 
L 98.634493 -258.34739 
L 99.24444 -259.847922 
L 99.854387 -259.848089 
L 100.464334 -259.848075 
L 101.074281 -259.806011 
L 101.684228 -258.168019 
L 102.294176 -260.657021 
L 102.904123 -259.980849 
L 103.51407 -259.994704 
L 104.124017 -258.638405 
L 104.733964 -261.079178 
L 105.343911 -261.647651 
L 105.953859 -262.189268 
L 106.563806 -261.082006 
L 107.173753 -261.664665 
L 107.7837 -261.482349 
L 108.393647 -258.22336 
L 109.003594 -256.954532 
L 109.613542 -256.954525 
L 110.223489 -263.445107 
L 110.833436 -263.171734 
L 111.443383 -263.656849 
L 112.05333 -263.444998 
L 112.663277 -263.570211 
L 113.273225 -264.544114 
L 113.883172 -264.544559 
L 114.493119 -262.363101 
L 115.103066 -258.823019 
L 115.713013 -258.612292 
L 116.32296 -258.724996 
L 116.932908 -257.712235 
L 117.542855 -262.968403 
L 118.152802 -264.06523 
L 118.762749 -265.359741 
L 119.372696 -265.359665 
L 119.982643 -266.908174 
L 120.592591 -264.231661 
L 121.202538 -261.205717 
L 121.812485 -260.304646 
L 122.422432 -257.583347 
L 123.032379 -259.023083 
L 123.642326 -261.648407 
L 124.252274 -265.750374 
L 124.862221 -265.888188 
L 125.472168 -265.352621 
L 126.082115 -266.118803 
L 126.692062 -264.065613 
L 127.302009 -264.445333 
L 127.911957 -264.445367 
L 128.521904 -265.088774 
L 129.131851 -264.671289 
L 129.741798 -263.434675 
L 130.351745 -263.382081 
L 130.961692 -263.490949 
L 131.57164 -265.342474 
L 132.181587 -263.934305 
L 132.791534 -260.111376 
L 133.401481 -258.190095 
L 134.011428 -259.635765 
L 134.621375 -268.537965 
L 135.231323 -265.366163 
L 135.84127 -265.366182 
L 136.451217 -265.444014 
L 137.061164 -265.366191 
L 137.671111 -267.398431 
L 138.281058 -267.398391 
L 138.891006 -267.398175 
L 139.500953 -267.398253 
L 140.1109 -267.398383 
L 140.720847 -265.269699 
L 141.330794 -267.398428 
L 141.940741 -267.398189 
L 142.550689 -261.8968 
L 143.160636 -266.719795 
L 143.770583 -264.467992 
L 144.38053 -256.315728 
L 144.990477 -258.205269 
L 145.600424 -257.717827 
L 146.210372 -260.542093 
L 146.820319 -259.875639 
L 147.430266 -261.232207 
L 148.040213 -261.298726 
L 148.65016 -261.298705 
L 149.260107 -260.012577 
L 149.870055 -260.012557 
L 150.480002 -261.29871 
L 151.089949 -262.067043 
L 151.699896 -266.742845 
L 152.309843 -261.298808 
L 152.91979 -261.298741 
L 153.529738 -261.298724 
L 154.139685 -261.232161 
L 154.749632 -261.143406 
L 155.359579 -261.298749 
L 155.969526 -261.298799 
L 156.579473 -264.377428 
L 157.189421 -268.170477 
L 157.799368 -268.170597 
L 158.409315 -269.121308 
L 159.019262 -268.142166 
L 159.629209 -268.22692 
L 160.239156 -266.144387 
L 160.849104 -267.853853 
L 161.459051 -267.068311 
L 162.068998 -264.611422 
L 162.678945 -262.427709 
L 163.288892 -263.725161 
L 163.898839 -263.632103 
L 164.508787 -261.993933 
L 165.118734 -263.246237 
L 165.728681 -263.246291 
L 166.338628 -262.001353 
L 166.948575 -259.865379 
L 167.558522 -264.012551 
L 168.16847 -263.677418 
L 168.778417 -262.729877 
L 169.388364 -262.729897 
L 169.998311 -264.066658 
L 170.608258 -268.982909 
L 171.218205 -268.982886 
L 171.828153 -262.431788 
L 172.4381 -259.917113 
L 173.048047 -261.776564 
L 173.657994 -261.430295 
L 174.267941 -261.182727 
L 174.877888 -258.991047 
L 175.487836 -259.441749 
L 176.097783 -263.435965 
L 176.70773 -268.255741 
L 177.317677 -268.25557 
L 177.927624 -269.724818 
L 178.537571 -269.49122 
L 179.147519 -270.03712 
L 179.757466 -268.255659 
L 180.367413 -268.255601 
L 180.97736 -271.455328 
L 181.587307 -271.455161 
L 182.197254 -256.546667 
L 182.807202 -259.029485 
L 183.417149 -257.663828 
L 184.027096 -256.211537 
L 184.637043 -255.75243 
L 185.24699 -259.069027 
L 185.856937 -260.966283 
L 186.466885 -260.966294 
L 187.076832 -261.628122 
L 187.686779 -265.67326 
L 188.296726 -262.825973 
L 188.906673 -262.185032 
L 189.51662 -259.884078 
L 190.126568 -252.844655 
L 190.736515 -257.789845 
L 191.346462 -260.363291 
L 191.956409 -258.271989 
L 192.566356 -258.367797 
L 193.176303 -262.261839 
L 193.786251 -264.574365 
L 194.396198 -262.733913 
L 195.006145 -265.742096 
L 195.616092 -264.313632 
L 196.226039 -265.74203 
L 196.835986 -269.667099 
L 197.445934 -269.667391 
L 198.055881 -266.542797 
L 198.665828 -269.620342 
L 199.275775 -263.093246 
L 199.885722 -264.58558 
L 200.495669 -267.32062 
L 201.105617 -266.086993 
L 201.715564 -261.546766 
L 202.325511 -260.070011 
L 202.935458 -257.473393 
L 203.545405 -257.473361 
L 204.155352 -257.108157 
L 204.7653 -256.692372 
L 205.375247 -259.281419 
L 205.985194 -259.510662 
L 206.595141 -265.692965 
L 207.205088 -259.633463 
L 207.815035 -259.633428 
L 208.424983 -265.232926 
L 209.03493 -263.221364 
L 209.644877 -265.963358 
L 210.254824 -260.607266 
L 210.864771 -263.969294 
L 211.474718 -263.105269 
L 212.084666 -263.969184 
L 212.694613 -265.269971 
L 213.30456 -265.269971 
L 213.914507 -265.269981 
L 214.524454 -264.182166 
L 215.134401 -258.789824 
L 215.744349 -254.936594 
L 216.354296 -258.789752 
L 216.964243 -258.913824 
L 217.57419 -262.210437 
L 218.184137 -263.058978 
L 218.794084 -265.82104 
L 219.404032 -268.733327 
L 220.013979 -269.097942 
L 220.623926 -269.535787 
L 221.233873 -264.254167 
L 221.84382 -264.25412 
L 222.453767 -266.369269 
L 223.063715 -264.541747 
L 223.673662 -263.869502 
L 224.283609 -262.235868 
L 224.893556 -264.25416 
L 225.503503 -265.654619 
L 226.11345 -264.254104 
L 226.723398 -268.132966 
L 227.333345 -268.132838 
L 227.943292 -271.251321 
L 228.553239 -268.94033 
L 229.163186 -272.458576 
L 229.773133 -272.45872 
L 230.383081 -268.940734 
L 230.993028 -262.488753 
L 231.602975 -264.166311 
L 232.212922 -268.940758 
L 232.822869 -266.768958 
L 233.432816 -265.822859 
L 234.042764 -266.768929 
L 234.652711 -268.94027 
L 235.262658 -268.940581 
L 235.872605 -267.375056 
L 236.482552 -266.7687 
L 237.092499 -265.622366 
L 237.702447 -264.823254 
L 238.312394 -265.774948 
L 238.922341 -264.248984 
L 239.532288 -261.995834 
L 240.142235 -262.968736 
L 240.752182 -263.425787 
L 241.36213 -265.895038 
L 241.972077 -265.418824 
L 242.582024 -264.721882 
L 243.191971 -256.384246 
L 243.801918 -260.817572 
L 244.411865 -258.069246 
L 245.021813 -258.069202 
L 245.63176 -258.069214 
L 246.241707 -258.151132 
L 246.851654 -258.151326 
L 247.461601 -258.561541 
L 248.071548 -265.642706 
L 248.681496 -267.071213 
L 249.291443 -266.094426 
L 249.90139 -268.923547 
L 250.511337 -266.471558 
L 251.121284 -266.471555 
L 251.731231 -264.347158 
L 252.341179 -264.347182 
L 252.951126 -261.052327 
L 253.561073 -266.271288 
L 254.17102 -263.826184 
L 254.780967 -265.068005 
L 255.390914 -263.826211 
L 256.000862 -262.431413 
L 256.610809 -262.431482 
L 257.220756 -262.117609 
L 257.830703 -267.012283 
L 258.44065 -270.11418 
L 259.050597 -270.30896 
L 259.660545 -271.085556 
L 260.270492 -260.143153 
L 260.880439 -264.541059 
L 261.490386 -263.576931 
L 262.100333 -264.427305 
L 262.71028 -263.577002 
L 263.320228 -270.723301 
L 263.930175 -271.440245 
L 264.540122 -264.792046 
L 265.150069 -269.250989 
L 265.760016 -269.250804 
L 266.369963 -272.188875 
L 266.979911 -272.188907 
L 267.589858 -272.188991 
L 268.199805 -271.796659 
L 268.809752 -272.45872 
L 269.419699 -272.458741 
L 270.029646 -269.344099 
L 270.639594 -261.987377 
L 271.249541 -262.054669 
L 271.859488 -271.183521 
L 272.469435 -271.536417 
L 273.079382 -272.427789 
L 273.689329 -266.445289 
L 274.299277 -264.777942 
L 274.909224 -266.527904 
L 275.519171 -271.536185 
L 276.129118 -269.967809 
L 276.739065 -272.427956 
L 277.349012 -267.451752 
L 277.95896 -268.278568 
L 278.568907 -271.634072 
L 279.178854 -268.278539 
L 279.788801 -266.245943 
L 280.398748 -268.278526 
L 281.008695 -268.278437 
L 281.618643 -268.126547 
L 282.22859 -268.126563 
L 282.838537 -266.682557 
L 283.448484 -265.391048 
L 284.058431 -262.684723 
L 284.668378 -266.682601 
L 285.278326 -265.909965 
L 285.888273 -269.860054 
L 286.49822 -266.919364 
L 287.108167 -265.910082 
L 287.718114 -266.26296 
L 288.328061 -269.859883 
L 288.938009 -266.922574 
L 289.547956 -266.262863 
L 290.157903 -263.167556 
L 290.76785 -266.377748 
L 291.377797 -261.742379 
L 291.987744 -258.441392 
L 292.597692 -263.167617 
L 293.207639 -263.979892 
L 293.817586 -263.979875 
L 294.427533 -266.902778 
L 295.03748 -266.171959 
L 295.647427 -270.4597 
L 296.257375 -270.459656 
L 296.867322 -266.307924 
L 297.477269 -266.307899 
L 298.087216 -264.631588 
L 298.697163 -266.307901 
L 299.30711 -266.307949 
L 299.917058 -264.105327 
L 300.527005 -257.025335 
L 301.136952 -266.315021 
L 301.746899 -265.872449 
L 302.356846 -266.292702 
L 302.966793 -266.464331 
L 303.576741 -266.11845 
L 304.186688 -265.640956 
L 304.796635 -266.332812 
L 305.406582 -269.009135 
L 306.016529 -267.473997 
L 306.626476 -265.561962 
L 307.236424 -262.611643 
L 307.846371 -262.611598 
L 308.456318 -262.458381 
L 309.066265 -264.161302 
L 309.676212 -265.262483 
L 310.286159 -264.435284 
L 310.896107 -267.638184 
L 311.506054 -265.569962 
L 312.116001 -264.59176 
L 312.725948 -265.569933 
L 313.335895 -264.808027 
L 313.945842 -265.569941 
L 314.55579 -261.956806 
L 315.165737 -265.113342 
L 315.775684 -264.566626 
L 316.385631 -264.566576 
L 316.995578 -266.556113 
L 317.605525 -264.412744 
L 318.215473 -260.548222 
L 318.82542 -266.434254 
L 319.435367 -261.934359 
L 320.045314 -265.641628 
L 320.655261 -263.837407 
L 321.265208 -263.837385 
L 321.875156 -265.165413 
L 322.485103 -263.378634 
L 323.09505 -263.837369 
L 323.704997 -264.464043 
L 324.314944 -267.127557 
L 324.924891 -267.127506 
L 325.534839 -265.412469 
L 326.144786 -265.138182 
L 326.754733 -262.157719 
L 327.36468 -262.157939 
L 327.974627 -261.467663 
L 328.584574 -261.467532 
L 329.194522 -262.158022 
L 329.804469 -261.467595 
L 330.414416 -258.205466 
L 331.024363 -260.192215 
L 331.63431 -260.13308 
L 332.244257 -261.766011 
L 332.854205 -263.174822 
L 333.464152 -264.263076 
L 334.074099 -266.38616 
L 334.684046 -265.102952 
L 335.293993 -267.214192 
L 335.90394 -265.102973 
L 336.513888 -266.187626 
L 337.123835 -264.218806 
L 337.733782 -267.004157 
L 338.343729 -267.004207 
L 338.953676 -265.625302 
L 339.563623 -267.244503 
L 340.173571 -268.654329 
L 340.783518 -269.34324 
L 341.393465 -269.343325 
L 342.003412 -267.244524 
L 342.613359 -269.343356 
L 343.223306 -269.176344 
L 343.833254 -268.795907 
L 344.443201 -268.432494 
L 345.053148 -263.291993 
L 345.663095 -268.432623 
L 346.273042 -266.647284 
L 346.88299 -268.432662 
L 347.492937 -267.991534 
L 348.102884 -264.300171 
L 348.712831 -267.407054 
L 349.322778 -261.21535 
L 349.932725 -261.824135 
L 350.542673 -258.371617 
L 351.15262 -258.371561 
L 351.762567 -258.37163 
L 352.372514 -255.134144 
L 352.982461 -260.201313 
L 353.592408 -262.439547 
L 354.202356 -261.69486 
L 354.812303 -265.856967 
L 355.42225 -269.313717 
L 356.032197 -270.679145 
L 356.642144 -264.840213 
L 357.252091 -261.572809 
L 357.862039 -259.10872 
L 358.471986 -259.108746 
L 359.081933 -262.424774 
L 359.69188 -265.07861 
L 360.301827 -266.273229 
L 360.911774 -267.914282 
L 361.521722 -272.466738 
L 362.131669 -267.361184 
L 362.741616 -263.696334 
L 363.351563 -259.896311 
L 363.96151 -264.179317 
L 364.571457 -263.673516 
L 365.181405 -263.885852 
L 365.791352 -263.885837 
L 366.401299 -263.070175 
L 367.011246 -262.996419 
L 367.621193 -263.070395 
L 367.621193 -272.467358 
L 367.621193 -272.467358 
L 367.011246 -272.467307 
L 366.401299 -272.467421 
L 365.791352 -272.467439 
L 365.181405 -272.467393 
L 364.571457 -272.467461 
L 363.96151 -272.46747 
L 363.351563 -272.467444 
L 362.741616 -272.467397 
L 362.131669 -272.467325 
L 361.521722 -272.467419 
L 360.911774 -272.467277 
L 360.301827 -272.467367 
L 359.69188 -272.467435 
L 359.081933 -272.467421 
L 358.471986 -272.467383 
L 357.862039 -272.467472 
L 357.252091 -272.467328 
L 356.642144 -272.467378 
L 356.032197 -272.467367 
L 355.42225 -272.467402 
L 354.812303 -272.467377 
L 354.202356 -272.467418 
L 353.592408 -272.467396 
L 352.982461 -272.467333 
L 352.372514 -272.4674 
L 351.762567 -272.467489 
L 351.15262 -272.467352 
L 350.542673 -272.467339 
L 349.932725 -272.467476 
L 349.322778 -272.467339 
L 348.712831 -272.46743 
L 348.102884 -272.467404 
L 347.492937 -272.467384 
L 346.88299 -272.467471 
L 346.273042 -272.467355 
L 345.663095 -272.467382 
L 345.053148 -272.467408 
L 344.443201 -272.467383 
L 343.833254 -272.467417 
L 343.223306 -272.467388 
L 342.613359 -272.467373 
L 342.003412 -272.46743 
L 341.393465 -272.467371 
L 340.783518 -272.467411 
L 340.173571 -272.467239 
L 339.563623 -272.467476 
L 338.953676 -272.467348 
L 338.343729 -272.467486 
L 337.733782 -272.467413 
L 337.123835 -272.467474 
L 336.513888 -272.467442 
L 335.90394 -272.467244 
L 335.293993 -272.467396 
L 334.684046 -272.467441 
L 334.074099 -272.467426 
L 333.464152 -272.467339 
L 332.854205 -272.467345 
L 332.244257 -272.467268 
L 331.63431 -272.467376 
L 331.024363 -272.467298 
L 330.414416 -272.46733 
L 329.804469 -272.467398 
L 329.194522 -272.467262 
L 328.584574 -272.467439 
L 327.974627 -272.467275 
L 327.36468 -272.46741 
L 326.754733 -272.467419 
L 326.144786 -272.467449 
L 325.534839 -272.467292 
L 324.924891 -272.467396 
L 324.314944 -272.467396 
L 323.704997 -272.467332 
L 323.09505 -272.467359 
L 322.485103 -272.467385 
L 321.875156 -272.467455 
L 321.265208 -272.467316 
L 320.655261 -272.46736 
L 320.045314 -272.467239 
L 319.435367 -272.467384 
L 318.82542 -272.467377 
L 318.215473 -272.46745 
L 317.605525 -272.467416 
L 316.995578 -272.467486 
L 316.385631 -272.467323 
L 315.775684 -272.467416 
L 315.165737 -272.467408 
L 314.55579 -272.467462 
L 313.945842 -272.4675 
L 313.335895 -272.467302 
L 312.725948 -272.467419 
L 312.116001 -272.467445 
L 311.506054 -272.467449 
L 310.896107 -272.467376 
L 310.286159 -272.46742 
L 309.676212 -272.467323 
L 309.066265 -272.467378 
L 308.456318 -272.467445 
L 307.846371 -272.467319 
L 307.236424 -272.467201 
L 306.626476 -272.467252 
L 306.016529 -272.467345 
L 305.406582 -272.467268 
L 304.796635 -272.467228 
L 304.186688 -272.467283 
L 303.576741 -272.467388 
L 302.966793 -272.467266 
L 302.356846 -272.467184 
L 301.746899 -272.46701 
L 301.136952 -272.467092 
L 300.527005 -272.45927 
L 299.917058 -272.459307 
L 299.30711 -272.459318 
L 298.697163 -272.459339 
L 298.087216 -272.459355 
L 297.477269 -272.459341 
L 296.867322 -272.459315 
L 296.257375 -272.459371 
L 295.647427 -272.45934 
L 295.03748 -272.459322 
L 294.427533 -272.459318 
L 293.817586 -272.459295 
L 293.207639 -272.459324 
L 292.597692 -272.459325 
L 291.987744 -272.459278 
L 291.377797 -272.45931 
L 290.76785 -272.459302 
L 290.157903 -272.459282 
L 289.547956 -272.459296 
L 288.938009 -272.459291 
L 288.328061 -272.459333 
L 287.718114 -272.459337 
L 287.108167 -272.459295 
L 286.49822 -272.459383 
L 285.888273 -272.459345 
L 285.278326 -272.459283 
L 284.668378 -272.459299 
L 284.058431 -272.459338 
L 283.448484 -272.459302 
L 282.838537 -272.459322 
L 282.22859 -272.459304 
L 281.618643 -272.459379 
L 281.008695 -272.45931 
L 280.398748 -272.45934 
L 279.788801 -272.4593 
L 279.178854 -272.459318 
L 278.568907 -272.459388 
L 277.95896 -272.459302 
L 277.349012 -272.459309 
L 276.739065 -272.459352 
L 276.129118 -272.459288 
L 275.519171 -272.459302 
L 274.909224 -272.459325 
L 274.299277 -272.459316 
L 273.689329 -272.459315 
L 273.079382 -272.459257 
L 272.469435 -272.459328 
L 271.859488 -272.459369 
L 271.249541 -272.459296 
L 270.639594 -272.459325 
L 270.029646 -272.459286 
L 269.419699 -272.459287 
L 268.809752 -272.459382 
L 268.199805 -272.459328 
L 267.589858 -272.459315 
L 266.979911 -272.459309 
L 266.369963 -272.459293 
L 265.760016 -272.459321 
L 265.150069 -272.459369 
L 264.540122 -272.459387 
L 263.930175 -272.459385 
L 263.320228 -272.459312 
L 262.71028 -272.459354 
L 262.100333 -272.4593 
L 261.490386 -272.459289 
L 260.880439 -272.459289 
L 260.270492 -272.459355 
L 259.660545 -272.459334 
L 259.050597 -272.459192 
L 258.44065 -272.459331 
L 257.830703 -272.45928 
L 257.220756 -272.459301 
L 256.610809 -272.459283 
L 256.000862 -272.459285 
L 255.390914 -272.459267 
L 254.780967 -272.459292 
L 254.17102 -272.459309 
L 253.561073 -272.459291 
L 252.951126 -272.459293 
L 252.341179 -272.459326 
L 251.731231 -272.459316 
L 251.121284 -272.459346 
L 250.511337 -272.459302 
L 249.90139 -272.459345 
L 249.291443 -272.459353 
L 248.681496 -272.459334 
L 248.071548 -272.459276 
L 247.461601 -272.45931 
L 246.851654 -272.459364 
L 246.241707 -272.459291 
L 245.63176 -272.459219 
L 245.021813 -272.459315 
L 244.411865 -272.459326 
L 243.801918 -272.45929 
L 243.191971 -272.459292 
L 242.582024 -272.459339 
L 241.972077 -272.459299 
L 241.36213 -272.459333 
L 240.752182 -272.459331 
L 240.142235 -272.459241 
L 239.532288 -272.459304 
L 238.922341 -272.45918 
L 238.312394 -272.459348 
L 237.702447 -272.459264 
L 237.092499 -272.459272 
L 236.482552 -272.459341 
L 235.872605 -272.459273 
L 235.262658 -272.459322 
L 234.652711 -272.459198 
L 234.042764 -272.459279 
L 233.432816 -272.459283 
L 232.822869 -272.459227 
L 232.212922 -272.459309 
L 231.602975 -272.459303 
L 230.993028 -272.459284 
L 230.383081 -272.4593 
L 229.773133 -272.459357 
L 229.163186 -272.459305 
L 228.553239 -272.459331 
L 227.943292 -272.459363 
L 227.333345 -272.459309 
L 226.723398 -272.459273 
L 226.11345 -272.459334 
L 225.503503 -272.459364 
L 224.893556 -272.459313 
L 224.283609 -272.459328 
L 223.673662 -272.459269 
L 223.063715 -272.459323 
L 222.453767 -272.45925 
L 221.84382 -272.459315 
L 221.233873 -272.459288 
L 220.623926 -272.45929 
L 220.013979 -272.459275 
L 219.404032 -272.459345 
L 218.794084 -272.459263 
L 218.184137 -272.459308 
L 217.57419 -272.459314 
L 216.964243 -272.459344 
L 216.354296 -272.45933 
L 215.744349 -272.45936 
L 215.134401 -272.459326 
L 214.524454 -272.45933 
L 213.914507 -272.459311 
L 213.30456 -272.459311 
L 212.694613 -272.459323 
L 212.084666 -272.45933 
L 211.474718 -272.459254 
L 210.864771 -272.459326 
L 210.254824 -272.459301 
L 209.644877 -272.459311 
L 209.03493 -272.45939 
L 208.424983 -272.459326 
L 207.815035 -272.459349 
L 207.205088 -272.459305 
L 206.595141 -272.459301 
L 205.985194 -272.459255 
L 205.375247 -272.459388 
L 204.7653 -272.459235 
L 204.155352 -272.459277 
L 203.545405 -272.459266 
L 202.935458 -272.459179 
L 202.325511 -272.459266 
L 201.715564 -272.459366 
L 201.105617 -272.459266 
L 200.495669 -272.459298 
L 199.885722 -272.459325 
L 199.275775 -272.459293 
L 198.665828 -272.459321 
L 198.055881 -272.459296 
L 197.445934 -272.459337 
L 196.835986 -272.459282 
L 196.226039 -272.459322 
L 195.616092 -272.459298 
L 195.006145 -272.459356 
L 194.396198 -272.459192 
L 193.786251 -272.45926 
L 193.176303 -272.459363 
L 192.566356 -272.459159 
L 191.956409 -272.459178 
L 191.346462 -272.459318 
L 190.736515 -272.459348 
L 190.126568 -272.459326 
L 189.51662 -272.459288 
L 188.906673 -272.459295 
L 188.296726 -272.45938 
L 187.686779 -272.459335 
L 187.076832 -272.459265 
L 186.466885 -272.459369 
L 185.856937 -272.459232 
L 185.24699 -272.459308 
L 184.637043 -272.459302 
L 184.027096 -272.459251 
L 183.417149 -272.45928 
L 182.807202 -272.459299 
L 182.197254 -272.459279 
L 181.587307 -272.459345 
L 180.97736 -272.459332 
L 180.367413 -272.459316 
L 179.757466 -272.459342 
L 179.147519 -272.459286 
L 178.537571 -272.459292 
L 177.927624 -272.45929 
L 177.317677 -272.459316 
L 176.70773 -272.459312 
L 176.097783 -272.45938 
L 175.487836 -272.459307 
L 174.877888 -272.459281 
L 174.267941 -272.459253 
L 173.657994 -272.459281 
L 173.048047 -272.459364 
L 172.4381 -272.459189 
L 171.828153 -272.459305 
L 171.218205 -272.459323 
L 170.608258 -272.459341 
L 169.998311 -272.459327 
L 169.388364 -272.459286 
L 168.778417 -272.459354 
L 168.16847 -272.459349 
L 167.558522 -272.459275 
L 166.948575 -272.459335 
L 166.338628 -272.459221 
L 165.728681 -272.459267 
L 165.118734 -272.459257 
L 164.508787 -272.459325 
L 163.898839 -272.459298 
L 163.288892 -272.45931 
L 162.678945 -272.459319 
L 162.068998 -272.459315 
L 161.459051 -272.459382 
L 160.849104 -272.459319 
L 160.239156 -272.459268 
L 159.629209 -272.459323 
L 159.019262 -272.459313 
L 158.409315 -272.459216 
L 157.799368 -272.45925 
L 157.189421 -272.459343 
L 156.579473 -272.459344 
L 155.969526 -272.459271 
L 155.359579 -272.459336 
L 154.749632 -272.4593 
L 154.139685 -272.459262 
L 153.529738 -272.459236 
L 152.91979 -272.459312 
L 152.309843 -272.459305 
L 151.699896 -272.459319 
L 151.089949 -272.459384 
L 150.480002 -272.459271 
L 149.870055 -272.459256 
L 149.260107 -272.459191 
L 148.65016 -272.459274 
L 148.040213 -272.459312 
L 147.430266 -272.459224 
L 146.820319 -272.459111 
L 146.210372 -272.459297 
L 145.600424 -272.459274 
L 144.990477 -272.459331 
L 144.38053 -272.459312 
L 143.770583 -272.459157 
L 143.160636 -272.459062 
L 142.550689 -272.45912 
L 141.940741 -272.459291 
L 141.330794 -272.459059 
L 140.720847 -272.458934 
L 140.1109 -272.459198 
L 139.500953 -272.452765 
L 138.891006 -272.452829 
L 138.281058 -272.45276 
L 137.671111 -272.45277 
L 137.061164 -272.452824 
L 136.451217 -272.452852 
L 135.84127 -272.452748 
L 135.231323 -272.452774 
L 134.621375 -272.45285 
L 134.011428 -272.452851 
L 133.401481 -272.452748 
L 132.791534 -272.452774 
L 132.181587 -272.452751 
L 131.57164 -272.452749 
L 130.961692 -272.452754 
L 130.351745 -272.452763 
L 129.741798 -272.45274 
L 129.131851 -272.452719 
L 128.521904 -272.452697 
L 127.911957 -272.452599 
L 127.302009 -272.452504 
L 126.692062 -272.391542 
L 126.082115 -272.308528 
L 125.472168 -272.3085 
L 124.862221 -272.308572 
L 124.252274 -272.308554 
L 123.642326 -272.308513 
L 123.032379 -272.308499 
L 122.422432 -272.308518 
L 121.812485 -272.308482 
L 121.202538 -272.308473 
L 120.592591 -272.308397 
L 119.982643 -272.264069 
L 119.372696 -272.264071 
L 118.762749 -272.264071 
L 118.152802 -272.264071 
L 117.542855 -272.263976 
L 116.932908 -272.264155 
L 116.32296 -272.26395 
L 115.713013 -272.263976 
L 115.103066 -272.264032 
L 114.493119 -272.264086 
L 113.883172 -272.264001 
L 113.273225 -272.264081 
L 112.663277 -272.263936 
L 112.05333 -272.252979 
L 111.443383 -272.253041 
L 110.833436 -272.252954 
L 110.223489 -272.252886 
L 109.613542 -272.252913 
L 109.003594 -272.252801 
L 108.393647 -272.253009 
L 107.7837 -272.252735 
L 107.173753 -272.031959 
L 106.563806 -272.026474 
L 105.953859 -272.026631 
L 105.343911 -271.839246 
L 104.733964 -271.578057 
L 104.124017 -271.568292 
L 103.51407 -271.568076 
L 102.904123 -271.562754 
L 102.294176 -271.562717 
L 101.684228 -271.366988 
L 101.074281 -271.36718 
L 100.464334 -271.133364 
L 99.854387 -271.133186 
L 99.24444 -271.132857 
L 98.634493 -271.133179 
L 98.024545 -270.627094 
L 97.414598 -270.627111 
L 96.804651 -270.627134 
L 96.194704 -270.627112 
L 95.584757 -270.627093 
L 94.97481 -270.627083 
L 94.364862 -270.626982 
L 93.754915 -269.519877 
L 93.144968 -269.519866 
L 92.535021 -268.974429 
L 91.925074 -268.974422 
L 91.315127 -268.974464 
L 90.705179 -268.974428 
L 90.095232 -268.974397 
L 89.485285 -268.974444 
L 88.875338 -268.974362 
L 88.265391 -268.974269 
L 87.655444 -268.974277 
L 87.045496 -268.97445 
L 86.435549 -268.974027 
L 85.825602 -268.97426 
L 85.215655 -268.044081 
L 84.605708 -268.044154 
L 83.99576 -268.044093 
L 83.385813 -268.044068 
L 82.775866 -268.044057 
L 82.165919 -268.044071 
L 81.555972 -268.044022 
L 80.946025 -267.847431 
L 80.336077 -267.847432 
L 79.72613 -267.847451 
L 79.116183 -267.847432 
L 78.506236 -267.847443 
L 77.896289 -267.847402 
L 77.286342 -265.147232 
L 76.676394 -265.145832 
L 76.066447 -265.147212 
L 75.4565 -265.149158 
L 74.846553 -265.14991 
L 74.236606 -262.242975 
L 73.626659 -262.242964 
L 73.016711 -262.243028 
L 72.406764 -262.242974 
L 71.796817 -262.242959 
L 71.18687 -262.242931 
L 70.576923 -262.24292 
L 69.966976 -258.448977 
L 69.357028 -258.306356 
L 68.747081 -258.306369 
L 68.137134 -258.306294 
L 67.527187 -257.507727 
L 66.91724 -257.507727 
L 66.307293 -257.507739 
L 65.697345 -257.507739 
L 65.087398 -256.211404 
L 64.477451 -256.211371 
L 63.867504 -256.211391 
L 63.257557 -256.211399 
z
" style="stroke: #0000ff; stroke-opacity: 0.2"/>
    </defs>
    <g clip-path="url(#pdbc2a247bc)">
     <use xlink:href="#macc9d55d26" x="0" y="288.129373" style="fill: #0000ff; fill-opacity: 0.2; stroke: #0000ff; stroke-opacity: 0.2"/>
    </g>
   </g>
   <g id="matplotlib.axis_1">
    <g id="xtick_1">
     <g id="line2d_1">
      <path d="M 63.257557 253.801873 
L 63.257557 4.321873 
" clip-path="url(#pdbc2a247bc)" style="fill: none; stroke: #b0b0b0; stroke-width: 0.5; stroke-linecap: square"/>
     </g>
     <g id="line2d_2">
      <defs>
       <path id="m5a9dbb5bc4" d="M 0 0 
L 0 -3 
" style="stroke: #000000; stroke-width: 0.5"/>
      </defs>
      <g>
       <use xlink:href="#m5a9dbb5bc4" x="63.257557" y="253.801873" style="stroke: #000000; stroke-width: 0.5"/>
      </g>
     </g>
     <g id="line2d_3">
      <defs>
       <path id="m932b72e85a" d="M 0 0 
L 0 3 
" style="stroke: #000000; stroke-width: 0.5"/>
      </defs>
      <g>
       <use xlink:href="#m932b72e85a" x="63.257557" y="4.321873" style="stroke: #000000; stroke-width: 0.5"/>
      </g>
     </g>
     <g id="text_1">
      <!-- 0 -->
      <g transform="translate(59.440057 266.419998) scale(0.12 -0.12)">
       <defs>
        <path id="DejaVuSans-30" d="M 2034 4250 
Q 1547 4250 1301 3770 
Q 1056 3291 1056 2328 
Q 1056 1369 1301 889 
Q 1547 409 2034 409 
Q 2525 409 2770 889 
Q 3016 1369 3016 2328 
Q 3016 3291 2770 3770 
Q 2525 4250 2034 4250 
z
M 2034 4750 
Q 2819 4750 3233 4129 
Q 3647 3509 3647 2328 
Q 3647 1150 3233 529 
Q 2819 -91 2034 -91 
Q 1250 -91 836 529 
Q 422 1150 422 2328 
Q 422 3509 836 4129 
Q 1250 4750 2034 4750 
z
" transform="scale(0.015625)"/>
       </defs>
       <use xlink:href="#DejaVuSans-30"/>
      </g>
     </g>
    </g>
    <g id="xtick_2">
     <g id="line2d_4">
      <path d="M 124.252274 253.801873 
L 124.252274 4.321873 
" clip-path="url(#pdbc2a247bc)" style="fill: none; stroke: #b0b0b0; stroke-width: 0.5; stroke-linecap: square"/>
     </g>
     <g id="line2d_5">
      <g>
       <use xlink:href="#m5a9dbb5bc4" x="124.252274" y="253.801873" style="stroke: #000000; stroke-width: 0.5"/>
      </g>
     </g>
     <g id="line2d_6">
      <g>
       <use xlink:href="#m932b72e85a" x="124.252274" y="4.321873" style="stroke: #000000; stroke-width: 0.5"/>
      </g>
     </g>
     <g id="text_2">
      <!-- 100 -->
      <g transform="translate(112.799774 266.419998) scale(0.12 -0.12)">
       <defs>
        <path id="DejaVuSans-31" d="M 794 531 
L 1825 531 
L 1825 4091 
L 703 3866 
L 703 4441 
L 1819 4666 
L 2450 4666 
L 2450 531 
L 3481 531 
L 3481 0 
L 794 0 
L 794 531 
z
" transform="scale(0.015625)"/>
       </defs>
       <use xlink:href="#DejaVuSans-31"/>
       <use xlink:href="#DejaVuSans-30" x="63.623047"/>
       <use xlink:href="#DejaVuSans-30" x="127.246094"/>
      </g>
     </g>
    </g>
    <g id="xtick_3">
     <g id="line2d_7">
      <path d="M 185.24699 253.801873 
L 185.24699 4.321873 
" clip-path="url(#pdbc2a247bc)" style="fill: none; stroke: #b0b0b0; stroke-width: 0.5; stroke-linecap: square"/>
     </g>
     <g id="line2d_8">
      <g>
       <use xlink:href="#m5a9dbb5bc4" x="185.24699" y="253.801873" style="stroke: #000000; stroke-width: 0.5"/>
      </g>
     </g>
     <g id="line2d_9">
      <g>
       <use xlink:href="#m932b72e85a" x="185.24699" y="4.321873" style="stroke: #000000; stroke-width: 0.5"/>
      </g>
     </g>
     <g id="text_3">
      <!-- 200 -->
      <g transform="translate(173.79449 266.419998) scale(0.12 -0.12)">
       <defs>
        <path id="DejaVuSans-32" d="M 1228 531 
L 3431 531 
L 3431 0 
L 469 0 
L 469 531 
Q 828 903 1448 1529 
Q 2069 2156 2228 2338 
Q 2531 2678 2651 2914 
Q 2772 3150 2772 3378 
Q 2772 3750 2511 3984 
Q 2250 4219 1831 4219 
Q 1534 4219 1204 4116 
Q 875 4013 500 3803 
L 500 4441 
Q 881 4594 1212 4672 
Q 1544 4750 1819 4750 
Q 2544 4750 2975 4387 
Q 3406 4025 3406 3419 
Q 3406 3131 3298 2873 
Q 3191 2616 2906 2266 
Q 2828 2175 2409 1742 
Q 1991 1309 1228 531 
z
" transform="scale(0.015625)"/>
       </defs>
       <use xlink:href="#DejaVuSans-32"/>
       <use xlink:href="#DejaVuSans-30" x="63.623047"/>
       <use xlink:href="#DejaVuSans-30" x="127.246094"/>
      </g>
     </g>
    </g>
    <g id="xtick_4">
     <g id="line2d_10">
      <path d="M 246.241707 253.801873 
L 246.241707 4.321873 
" clip-path="url(#pdbc2a247bc)" style="fill: none; stroke: #b0b0b0; stroke-width: 0.5; stroke-linecap: square"/>
     </g>
     <g id="line2d_11">
      <g>
       <use xlink:href="#m5a9dbb5bc4" x="246.241707" y="253.801873" style="stroke: #000000; stroke-width: 0.5"/>
      </g>
     </g>
     <g id="line2d_12">
      <g>
       <use xlink:href="#m932b72e85a" x="246.241707" y="4.321873" style="stroke: #000000; stroke-width: 0.5"/>
      </g>
     </g>
     <g id="text_4">
      <!-- 300 -->
      <g transform="translate(234.789207 266.419998) scale(0.12 -0.12)">
       <defs>
        <path id="DejaVuSans-33" d="M 2597 2516 
Q 3050 2419 3304 2112 
Q 3559 1806 3559 1356 
Q 3559 666 3084 287 
Q 2609 -91 1734 -91 
Q 1441 -91 1130 -33 
Q 819 25 488 141 
L 488 750 
Q 750 597 1062 519 
Q 1375 441 1716 441 
Q 2309 441 2620 675 
Q 2931 909 2931 1356 
Q 2931 1769 2642 2001 
Q 2353 2234 1838 2234 
L 1294 2234 
L 1294 2753 
L 1863 2753 
Q 2328 2753 2575 2939 
Q 2822 3125 2822 3475 
Q 2822 3834 2567 4026 
Q 2313 4219 1838 4219 
Q 1578 4219 1281 4162 
Q 984 4106 628 3988 
L 628 4550 
Q 988 4650 1302 4700 
Q 1616 4750 1894 4750 
Q 2613 4750 3031 4423 
Q 3450 4097 3450 3541 
Q 3450 3153 3228 2886 
Q 3006 2619 2597 2516 
z
" transform="scale(0.015625)"/>
       </defs>
       <use xlink:href="#DejaVuSans-33"/>
       <use xlink:href="#DejaVuSans-30" x="63.623047"/>
       <use xlink:href="#DejaVuSans-30" x="127.246094"/>
      </g>
     </g>
    </g>
    <g id="xtick_5">
     <g id="line2d_13">
      <path d="M 307.236424 253.801873 
L 307.236424 4.321873 
" clip-path="url(#pdbc2a247bc)" style="fill: none; stroke: #b0b0b0; stroke-width: 0.5; stroke-linecap: square"/>
     </g>
     <g id="line2d_14">
      <g>
       <use xlink:href="#m5a9dbb5bc4" x="307.236424" y="253.801873" style="stroke: #000000; stroke-width: 0.5"/>
      </g>
     </g>
     <g id="line2d_15">
      <g>
       <use xlink:href="#m932b72e85a" x="307.236424" y="4.321873" style="stroke: #000000; stroke-width: 0.5"/>
      </g>
     </g>
     <g id="text_5">
      <!-- 400 -->
      <g transform="translate(295.783924 266.419998) scale(0.12 -0.12)">
       <defs>
        <path id="DejaVuSans-34" d="M 2419 4116 
L 825 1625 
L 2419 1625 
L 2419 4116 
z
M 2253 4666 
L 3047 4666 
L 3047 1625 
L 3713 1625 
L 3713 1100 
L 3047 1100 
L 3047 0 
L 2419 0 
L 2419 1100 
L 313 1100 
L 313 1709 
L 2253 4666 
z
" transform="scale(0.015625)"/>
       </defs>
       <use xlink:href="#DejaVuSans-34"/>
       <use xlink:href="#DejaVuSans-30" x="63.623047"/>
       <use xlink:href="#DejaVuSans-30" x="127.246094"/>
      </g>
     </g>
    </g>
    <g id="xtick_6">
     <g id="line2d_16">
      <path d="M 368.23114 253.801873 
L 368.23114 4.321873 
" clip-path="url(#pdbc2a247bc)" style="fill: none; stroke: #b0b0b0; stroke-width: 0.5; stroke-linecap: square"/>
     </g>
     <g id="line2d_17">
      <g>
       <use xlink:href="#m5a9dbb5bc4" x="368.23114" y="253.801873" style="stroke: #000000; stroke-width: 0.5"/>
      </g>
     </g>
     <g id="line2d_18">
      <g>
       <use xlink:href="#m932b72e85a" x="368.23114" y="4.321873" style="stroke: #000000; stroke-width: 0.5"/>
      </g>
     </g>
     <g id="text_6">
      <!-- 500 -->
      <g transform="translate(356.77864 266.419998) scale(0.12 -0.12)">
       <defs>
        <path id="DejaVuSans-35" d="M 691 4666 
L 3169 4666 
L 3169 4134 
L 1269 4134 
L 1269 2991 
Q 1406 3038 1543 3061 
Q 1681 3084 1819 3084 
Q 2600 3084 3056 2656 
Q 3513 2228 3513 1497 
Q 3513 744 3044 326 
Q 2575 -91 1722 -91 
Q 1428 -91 1123 -41 
Q 819 9 494 109 
L 494 744 
Q 775 591 1075 516 
Q 1375 441 1709 441 
Q 2250 441 2565 725 
Q 2881 1009 2881 1497 
Q 2881 1984 2565 2268 
Q 2250 2553 1709 2553 
Q 1456 2553 1204 2497 
Q 953 2441 691 2322 
L 691 4666 
z
" transform="scale(0.015625)"/>
       </defs>
       <use xlink:href="#DejaVuSans-35"/>
       <use xlink:href="#DejaVuSans-30" x="63.623047"/>
       <use xlink:href="#DejaVuSans-30" x="127.246094"/>
      </g>
     </g>
    </g>
    <g id="xtick_7">
     <g id="line2d_19">
      <defs>
       <path id="mbb393d1d40" d="M 0 0 
L 0 -1.5 
" style="stroke: #000000; stroke-width: 0.5"/>
      </defs>
      <g>
       <use xlink:href="#mbb393d1d40" x="51.058613" y="253.801873" style="stroke: #000000; stroke-width: 0.5"/>
      </g>
     </g>
     <g id="line2d_20">
      <defs>
       <path id="mdad27c52d1" d="M 0 0 
L 0 1.5 
" style="stroke: #000000; stroke-width: 0.5"/>
      </defs>
      <g>
       <use xlink:href="#mdad27c52d1" x="51.058613" y="4.321873" style="stroke: #000000; stroke-width: 0.5"/>
      </g>
     </g>
    </g>
    <g id="xtick_8">
     <g id="line2d_21">
      <g>
       <use xlink:href="#mbb393d1d40" x="75.4565" y="253.801873" style="stroke: #000000; stroke-width: 0.5"/>
      </g>
     </g>
     <g id="line2d_22">
      <g>
       <use xlink:href="#mdad27c52d1" x="75.4565" y="4.321873" style="stroke: #000000; stroke-width: 0.5"/>
      </g>
     </g>
    </g>
    <g id="xtick_9">
     <g id="line2d_23">
      <g>
       <use xlink:href="#mbb393d1d40" x="87.655444" y="253.801873" style="stroke: #000000; stroke-width: 0.5"/>
      </g>
     </g>
     <g id="line2d_24">
      <g>
       <use xlink:href="#mdad27c52d1" x="87.655444" y="4.321873" style="stroke: #000000; stroke-width: 0.5"/>
      </g>
     </g>
    </g>
    <g id="xtick_10">
     <g id="line2d_25">
      <g>
       <use xlink:href="#mbb393d1d40" x="99.854387" y="253.801873" style="stroke: #000000; stroke-width: 0.5"/>
      </g>
     </g>
     <g id="line2d_26">
      <g>
       <use xlink:href="#mdad27c52d1" x="99.854387" y="4.321873" style="stroke: #000000; stroke-width: 0.5"/>
      </g>
     </g>
    </g>
    <g id="xtick_11">
     <g id="line2d_27">
      <g>
       <use xlink:href="#mbb393d1d40" x="112.05333" y="253.801873" style="stroke: #000000; stroke-width: 0.5"/>
      </g>
     </g>
     <g id="line2d_28">
      <g>
       <use xlink:href="#mdad27c52d1" x="112.05333" y="4.321873" style="stroke: #000000; stroke-width: 0.5"/>
      </g>
     </g>
    </g>
    <g id="xtick_12">
     <g id="line2d_29">
      <g>
       <use xlink:href="#mbb393d1d40" x="136.451217" y="253.801873" style="stroke: #000000; stroke-width: 0.5"/>
      </g>
     </g>
     <g id="line2d_30">
      <g>
       <use xlink:href="#mdad27c52d1" x="136.451217" y="4.321873" style="stroke: #000000; stroke-width: 0.5"/>
      </g>
     </g>
    </g>
    <g id="xtick_13">
     <g id="line2d_31">
      <g>
       <use xlink:href="#mbb393d1d40" x="148.65016" y="253.801873" style="stroke: #000000; stroke-width: 0.5"/>
      </g>
     </g>
     <g id="line2d_32">
      <g>
       <use xlink:href="#mdad27c52d1" x="148.65016" y="4.321873" style="stroke: #000000; stroke-width: 0.5"/>
      </g>
     </g>
    </g>
    <g id="xtick_14">
     <g id="line2d_33">
      <g>
       <use xlink:href="#mbb393d1d40" x="160.849104" y="253.801873" style="stroke: #000000; stroke-width: 0.5"/>
      </g>
     </g>
     <g id="line2d_34">
      <g>
       <use xlink:href="#mdad27c52d1" x="160.849104" y="4.321873" style="stroke: #000000; stroke-width: 0.5"/>
      </g>
     </g>
    </g>
    <g id="xtick_15">
     <g id="line2d_35">
      <g>
       <use xlink:href="#mbb393d1d40" x="173.048047" y="253.801873" style="stroke: #000000; stroke-width: 0.5"/>
      </g>
     </g>
     <g id="line2d_36">
      <g>
       <use xlink:href="#mdad27c52d1" x="173.048047" y="4.321873" style="stroke: #000000; stroke-width: 0.5"/>
      </g>
     </g>
    </g>
    <g id="xtick_16">
     <g id="line2d_37">
      <g>
       <use xlink:href="#mbb393d1d40" x="197.445934" y="253.801873" style="stroke: #000000; stroke-width: 0.5"/>
      </g>
     </g>
     <g id="line2d_38">
      <g>
       <use xlink:href="#mdad27c52d1" x="197.445934" y="4.321873" style="stroke: #000000; stroke-width: 0.5"/>
      </g>
     </g>
    </g>
    <g id="xtick_17">
     <g id="line2d_39">
      <g>
       <use xlink:href="#mbb393d1d40" x="209.644877" y="253.801873" style="stroke: #000000; stroke-width: 0.5"/>
      </g>
     </g>
     <g id="line2d_40">
      <g>
       <use xlink:href="#mdad27c52d1" x="209.644877" y="4.321873" style="stroke: #000000; stroke-width: 0.5"/>
      </g>
     </g>
    </g>
    <g id="xtick_18">
     <g id="line2d_41">
      <g>
       <use xlink:href="#mbb393d1d40" x="221.84382" y="253.801873" style="stroke: #000000; stroke-width: 0.5"/>
      </g>
     </g>
     <g id="line2d_42">
      <g>
       <use xlink:href="#mdad27c52d1" x="221.84382" y="4.321873" style="stroke: #000000; stroke-width: 0.5"/>
      </g>
     </g>
    </g>
    <g id="xtick_19">
     <g id="line2d_43">
      <g>
       <use xlink:href="#mbb393d1d40" x="234.042764" y="253.801873" style="stroke: #000000; stroke-width: 0.5"/>
      </g>
     </g>
     <g id="line2d_44">
      <g>
       <use xlink:href="#mdad27c52d1" x="234.042764" y="4.321873" style="stroke: #000000; stroke-width: 0.5"/>
      </g>
     </g>
    </g>
    <g id="xtick_20">
     <g id="line2d_45">
      <g>
       <use xlink:href="#mbb393d1d40" x="258.44065" y="253.801873" style="stroke: #000000; stroke-width: 0.5"/>
      </g>
     </g>
     <g id="line2d_46">
      <g>
       <use xlink:href="#mdad27c52d1" x="258.44065" y="4.321873" style="stroke: #000000; stroke-width: 0.5"/>
      </g>
     </g>
    </g>
    <g id="xtick_21">
     <g id="line2d_47">
      <g>
       <use xlink:href="#mbb393d1d40" x="270.639594" y="253.801873" style="stroke: #000000; stroke-width: 0.5"/>
      </g>
     </g>
     <g id="line2d_48">
      <g>
       <use xlink:href="#mdad27c52d1" x="270.639594" y="4.321873" style="stroke: #000000; stroke-width: 0.5"/>
      </g>
     </g>
    </g>
    <g id="xtick_22">
     <g id="line2d_49">
      <g>
       <use xlink:href="#mbb393d1d40" x="282.838537" y="253.801873" style="stroke: #000000; stroke-width: 0.5"/>
      </g>
     </g>
     <g id="line2d_50">
      <g>
       <use xlink:href="#mdad27c52d1" x="282.838537" y="4.321873" style="stroke: #000000; stroke-width: 0.5"/>
      </g>
     </g>
    </g>
    <g id="xtick_23">
     <g id="line2d_51">
      <g>
       <use xlink:href="#mbb393d1d40" x="295.03748" y="253.801873" style="stroke: #000000; stroke-width: 0.5"/>
      </g>
     </g>
     <g id="line2d_52">
      <g>
       <use xlink:href="#mdad27c52d1" x="295.03748" y="4.321873" style="stroke: #000000; stroke-width: 0.5"/>
      </g>
     </g>
    </g>
    <g id="xtick_24">
     <g id="line2d_53">
      <g>
       <use xlink:href="#mbb393d1d40" x="319.435367" y="253.801873" style="stroke: #000000; stroke-width: 0.5"/>
      </g>
     </g>
     <g id="line2d_54">
      <g>
       <use xlink:href="#mdad27c52d1" x="319.435367" y="4.321873" style="stroke: #000000; stroke-width: 0.5"/>
      </g>
     </g>
    </g>
    <g id="xtick_25">
     <g id="line2d_55">
      <g>
       <use xlink:href="#mbb393d1d40" x="331.63431" y="253.801873" style="stroke: #000000; stroke-width: 0.5"/>
      </g>
     </g>
     <g id="line2d_56">
      <g>
       <use xlink:href="#mdad27c52d1" x="331.63431" y="4.321873" style="stroke: #000000; stroke-width: 0.5"/>
      </g>
     </g>
    </g>
    <g id="xtick_26">
     <g id="line2d_57">
      <g>
       <use xlink:href="#mbb393d1d40" x="343.833254" y="253.801873" style="stroke: #000000; stroke-width: 0.5"/>
      </g>
     </g>
     <g id="line2d_58">
      <g>
       <use xlink:href="#mdad27c52d1" x="343.833254" y="4.321873" style="stroke: #000000; stroke-width: 0.5"/>
      </g>
     </g>
    </g>
    <g id="xtick_27">
     <g id="line2d_59">
      <g>
       <use xlink:href="#mbb393d1d40" x="356.032197" y="253.801873" style="stroke: #000000; stroke-width: 0.5"/>
      </g>
     </g>
     <g id="line2d_60">
      <g>
       <use xlink:href="#mdad27c52d1" x="356.032197" y="4.321873" style="stroke: #000000; stroke-width: 0.5"/>
      </g>
     </g>
    </g>
    <g id="xtick_28">
     <g id="line2d_61">
      <g>
       <use xlink:href="#mbb393d1d40" x="380.430084" y="253.801873" style="stroke: #000000; stroke-width: 0.5"/>
      </g>
     </g>
     <g id="line2d_62">
      <g>
       <use xlink:href="#mdad27c52d1" x="380.430084" y="4.321873" style="stroke: #000000; stroke-width: 0.5"/>
      </g>
     </g>
    </g>
    <g id="text_7">
     <!-- Generations -->
     <g transform="translate(178.842188 282.033748) scale(0.12 -0.12)">
      <defs>
       <path id="DejaVuSans-47" d="M 3809 666 
L 3809 1919 
L 2778 1919 
L 2778 2438 
L 4434 2438 
L 4434 434 
Q 4069 175 3628 42 
Q 3188 -91 2688 -91 
Q 1594 -91 976 548 
Q 359 1188 359 2328 
Q 359 3472 976 4111 
Q 1594 4750 2688 4750 
Q 3144 4750 3555 4637 
Q 3966 4525 4313 4306 
L 4313 3634 
Q 3963 3931 3569 4081 
Q 3175 4231 2741 4231 
Q 1884 4231 1454 3753 
Q 1025 3275 1025 2328 
Q 1025 1384 1454 906 
Q 1884 428 2741 428 
Q 3075 428 3337 486 
Q 3600 544 3809 666 
z
" transform="scale(0.015625)"/>
       <path id="DejaVuSans-65" d="M 3597 1894 
L 3597 1613 
L 953 1613 
Q 991 1019 1311 708 
Q 1631 397 2203 397 
Q 2534 397 2845 478 
Q 3156 559 3463 722 
L 3463 178 
Q 3153 47 2828 -22 
Q 2503 -91 2169 -91 
Q 1331 -91 842 396 
Q 353 884 353 1716 
Q 353 2575 817 3079 
Q 1281 3584 2069 3584 
Q 2775 3584 3186 3129 
Q 3597 2675 3597 1894 
z
M 3022 2063 
Q 3016 2534 2758 2815 
Q 2500 3097 2075 3097 
Q 1594 3097 1305 2825 
Q 1016 2553 972 2059 
L 3022 2063 
z
" transform="scale(0.015625)"/>
       <path id="DejaVuSans-6e" d="M 3513 2113 
L 3513 0 
L 2938 0 
L 2938 2094 
Q 2938 2591 2744 2837 
Q 2550 3084 2163 3084 
Q 1697 3084 1428 2787 
Q 1159 2491 1159 1978 
L 1159 0 
L 581 0 
L 581 3500 
L 1159 3500 
L 1159 2956 
Q 1366 3272 1645 3428 
Q 1925 3584 2291 3584 
Q 2894 3584 3203 3211 
Q 3513 2838 3513 2113 
z
" transform="scale(0.015625)"/>
       <path id="DejaVuSans-72" d="M 2631 2963 
Q 2534 3019 2420 3045 
Q 2306 3072 2169 3072 
Q 1681 3072 1420 2755 
Q 1159 2438 1159 1844 
L 1159 0 
L 581 0 
L 581 3500 
L 1159 3500 
L 1159 2956 
Q 1341 3275 1631 3429 
Q 1922 3584 2338 3584 
Q 2397 3584 2469 3576 
Q 2541 3569 2628 3553 
L 2631 2963 
z
" transform="scale(0.015625)"/>
       <path id="DejaVuSans-61" d="M 2194 1759 
Q 1497 1759 1228 1600 
Q 959 1441 959 1056 
Q 959 750 1161 570 
Q 1363 391 1709 391 
Q 2188 391 2477 730 
Q 2766 1069 2766 1631 
L 2766 1759 
L 2194 1759 
z
M 3341 1997 
L 3341 0 
L 2766 0 
L 2766 531 
Q 2569 213 2275 61 
Q 1981 -91 1556 -91 
Q 1019 -91 701 211 
Q 384 513 384 1019 
Q 384 1609 779 1909 
Q 1175 2209 1959 2209 
L 2766 2209 
L 2766 2266 
Q 2766 2663 2505 2880 
Q 2244 3097 1772 3097 
Q 1472 3097 1187 3025 
Q 903 2953 641 2809 
L 641 3341 
Q 956 3463 1253 3523 
Q 1550 3584 1831 3584 
Q 2591 3584 2966 3190 
Q 3341 2797 3341 1997 
z
" transform="scale(0.015625)"/>
       <path id="DejaVuSans-74" d="M 1172 4494 
L 1172 3500 
L 2356 3500 
L 2356 3053 
L 1172 3053 
L 1172 1153 
Q 1172 725 1289 603 
Q 1406 481 1766 481 
L 2356 481 
L 2356 0 
L 1766 0 
Q 1100 0 847 248 
Q 594 497 594 1153 
L 594 3053 
L 172 3053 
L 172 3500 
L 594 3500 
L 594 4494 
L 1172 4494 
z
" transform="scale(0.015625)"/>
       <path id="DejaVuSans-69" d="M 603 3500 
L 1178 3500 
L 1178 0 
L 603 0 
L 603 3500 
z
M 603 4863 
L 1178 4863 
L 1178 4134 
L 603 4134 
L 603 4863 
z
" transform="scale(0.015625)"/>
       <path id="DejaVuSans-6f" d="M 1959 3097 
Q 1497 3097 1228 2736 
Q 959 2375 959 1747 
Q 959 1119 1226 758 
Q 1494 397 1959 397 
Q 2419 397 2687 759 
Q 2956 1122 2956 1747 
Q 2956 2369 2687 2733 
Q 2419 3097 1959 3097 
z
M 1959 3584 
Q 2709 3584 3137 3096 
Q 3566 2609 3566 1747 
Q 3566 888 3137 398 
Q 2709 -91 1959 -91 
Q 1206 -91 779 398 
Q 353 888 353 1747 
Q 353 2609 779 3096 
Q 1206 3584 1959 3584 
z
" transform="scale(0.015625)"/>
       <path id="DejaVuSans-73" d="M 2834 3397 
L 2834 2853 
Q 2591 2978 2328 3040 
Q 2066 3103 1784 3103 
Q 1356 3103 1142 2972 
Q 928 2841 928 2578 
Q 928 2378 1081 2264 
Q 1234 2150 1697 2047 
L 1894 2003 
Q 2506 1872 2764 1633 
Q 3022 1394 3022 966 
Q 3022 478 2636 193 
Q 2250 -91 1575 -91 
Q 1294 -91 989 -36 
Q 684 19 347 128 
L 347 722 
Q 666 556 975 473 
Q 1284 391 1588 391 
Q 1994 391 2212 530 
Q 2431 669 2431 922 
Q 2431 1156 2273 1281 
Q 2116 1406 1581 1522 
L 1381 1569 
Q 847 1681 609 1914 
Q 372 2147 372 2553 
Q 372 3047 722 3315 
Q 1072 3584 1716 3584 
Q 2034 3584 2315 3537 
Q 2597 3491 2834 3397 
z
" transform="scale(0.015625)"/>
      </defs>
      <use xlink:href="#DejaVuSans-47"/>
      <use xlink:href="#DejaVuSans-65" x="77.490234"/>
      <use xlink:href="#DejaVuSans-6e" x="139.013672"/>
      <use xlink:href="#DejaVuSans-65" x="202.392578"/>
      <use xlink:href="#DejaVuSans-72" x="263.916016"/>
      <use xlink:href="#DejaVuSans-61" x="305.029297"/>
      <use xlink:href="#DejaVuSans-74" x="366.308594"/>
      <use xlink:href="#DejaVuSans-69" x="405.517578"/>
      <use xlink:href="#DejaVuSans-6f" x="433.300781"/>
      <use xlink:href="#DejaVuSans-6e" x="494.482422"/>
      <use xlink:href="#DejaVuSans-73" x="557.861328"/>
     </g>
    </g>
   </g>
   <g id="matplotlib.axis_2">
    <g id="ytick_1">
     <g id="line2d_63">
      <path d="M 48.039375 232.772081 
L 382.839375 232.772081 
" clip-path="url(#pdbc2a247bc)" style="fill: none; stroke: #b0b0b0; stroke-width: 0.5; stroke-linecap: square"/>
     </g>
     <g id="line2d_64">
      <defs>
       <path id="m0fa22233a2" d="M 0 0 
L 3 0 
" style="stroke: #000000; stroke-width: 0.5"/>
      </defs>
      <g>
       <use xlink:href="#m0fa22233a2" x="48.039375" y="232.772081" style="stroke: #000000; stroke-width: 0.5"/>
      </g>
     </g>
     <g id="line2d_65">
      <defs>
       <path id="m373adb30c6" d="M 0 0 
L -3 0 
" style="stroke: #000000; stroke-width: 0.5"/>
      </defs>
      <g>
       <use xlink:href="#m373adb30c6" x="382.839375" y="232.772081" style="stroke: #000000; stroke-width: 0.5"/>
      </g>
     </g>
     <g id="text_8">
      <!-- −50 -->
      <g transform="translate(19.21375 237.331144) scale(0.12 -0.12)">
       <defs>
        <path id="DejaVuSans-2212" d="M 678 2272 
L 4684 2272 
L 4684 1741 
L 678 1741 
L 678 2272 
z
" transform="scale(0.015625)"/>
       </defs>
       <use xlink:href="#DejaVuSans-2212"/>
       <use xlink:href="#DejaVuSans-35" x="83.789062"/>
       <use xlink:href="#DejaVuSans-30" x="147.412109"/>
      </g>
     </g>
    </g>
    <g id="ytick_2">
     <g id="line2d_66">
      <path d="M 48.039375 200.684507 
L 382.839375 200.684507 
" clip-path="url(#pdbc2a247bc)" style="fill: none; stroke: #b0b0b0; stroke-width: 0.5; stroke-linecap: square"/>
     </g>
     <g id="line2d_67">
      <g>
       <use xlink:href="#m0fa22233a2" x="48.039375" y="200.684507" style="stroke: #000000; stroke-width: 0.5"/>
      </g>
     </g>
     <g id="line2d_68">
      <g>
       <use xlink:href="#m373adb30c6" x="382.839375" y="200.684507" style="stroke: #000000; stroke-width: 0.5"/>
      </g>
     </g>
     <g id="text_9">
      <!-- −40 -->
      <g transform="translate(19.21375 205.243569) scale(0.12 -0.12)">
       <use xlink:href="#DejaVuSans-2212"/>
       <use xlink:href="#DejaVuSans-34" x="83.789062"/>
       <use xlink:href="#DejaVuSans-30" x="147.412109"/>
      </g>
     </g>
    </g>
    <g id="ytick_3">
     <g id="line2d_69">
      <path d="M 48.039375 168.596933 
L 382.839375 168.596933 
" clip-path="url(#pdbc2a247bc)" style="fill: none; stroke: #b0b0b0; stroke-width: 0.5; stroke-linecap: square"/>
     </g>
     <g id="line2d_70">
      <g>
       <use xlink:href="#m0fa22233a2" x="48.039375" y="168.596933" style="stroke: #000000; stroke-width: 0.5"/>
      </g>
     </g>
     <g id="line2d_71">
      <g>
       <use xlink:href="#m373adb30c6" x="382.839375" y="168.596933" style="stroke: #000000; stroke-width: 0.5"/>
      </g>
     </g>
     <g id="text_10">
      <!-- −30 -->
      <g transform="translate(19.21375 173.155995) scale(0.12 -0.12)">
       <use xlink:href="#DejaVuSans-2212"/>
       <use xlink:href="#DejaVuSans-33" x="83.789062"/>
       <use xlink:href="#DejaVuSans-30" x="147.412109"/>
      </g>
     </g>
    </g>
    <g id="ytick_4">
     <g id="line2d_72">
      <path d="M 48.039375 136.509359 
L 382.839375 136.509359 
" clip-path="url(#pdbc2a247bc)" style="fill: none; stroke: #b0b0b0; stroke-width: 0.5; stroke-linecap: square"/>
     </g>
     <g id="line2d_73">
      <g>
       <use xlink:href="#m0fa22233a2" x="48.039375" y="136.509359" style="stroke: #000000; stroke-width: 0.5"/>
      </g>
     </g>
     <g id="line2d_74">
      <g>
       <use xlink:href="#m373adb30c6" x="382.839375" y="136.509359" style="stroke: #000000; stroke-width: 0.5"/>
      </g>
     </g>
     <g id="text_11">
      <!-- −20 -->
      <g transform="translate(19.21375 141.068421) scale(0.12 -0.12)">
       <use xlink:href="#DejaVuSans-2212"/>
       <use xlink:href="#DejaVuSans-32" x="83.789062"/>
       <use xlink:href="#DejaVuSans-30" x="147.412109"/>
      </g>
     </g>
    </g>
    <g id="ytick_5">
     <g id="line2d_75">
      <path d="M 48.039375 104.421785 
L 382.839375 104.421785 
" clip-path="url(#pdbc2a247bc)" style="fill: none; stroke: #b0b0b0; stroke-width: 0.5; stroke-linecap: square"/>
     </g>
     <g id="line2d_76">
      <g>
       <use xlink:href="#m0fa22233a2" x="48.039375" y="104.421785" style="stroke: #000000; stroke-width: 0.5"/>
      </g>
     </g>
     <g id="line2d_77">
      <g>
       <use xlink:href="#m373adb30c6" x="382.839375" y="104.421785" style="stroke: #000000; stroke-width: 0.5"/>
      </g>
     </g>
     <g id="text_12">
      <!-- −10 -->
      <g transform="translate(19.21375 108.980847) scale(0.12 -0.12)">
       <use xlink:href="#DejaVuSans-2212"/>
       <use xlink:href="#DejaVuSans-31" x="83.789062"/>
       <use xlink:href="#DejaVuSans-30" x="147.412109"/>
      </g>
     </g>
    </g>
    <g id="ytick_6">
     <g id="line2d_78">
      <path d="M 48.039375 72.334211 
L 382.839375 72.334211 
" clip-path="url(#pdbc2a247bc)" style="fill: none; stroke: #b0b0b0; stroke-width: 0.5; stroke-linecap: square"/>
     </g>
     <g id="line2d_79">
      <g>
       <use xlink:href="#m0fa22233a2" x="48.039375" y="72.334211" style="stroke: #000000; stroke-width: 0.5"/>
      </g>
     </g>
     <g id="line2d_80">
      <g>
       <use xlink:href="#m373adb30c6" x="382.839375" y="72.334211" style="stroke: #000000; stroke-width: 0.5"/>
      </g>
     </g>
     <g id="text_13">
      <!-- 0 -->
      <g transform="translate(36.904375 76.893273) scale(0.12 -0.12)">
       <use xlink:href="#DejaVuSans-30"/>
      </g>
     </g>
    </g>
    <g id="ytick_7">
     <g id="line2d_81">
      <path d="M 48.039375 40.246637 
L 382.839375 40.246637 
" clip-path="url(#pdbc2a247bc)" style="fill: none; stroke: #b0b0b0; stroke-width: 0.5; stroke-linecap: square"/>
     </g>
     <g id="line2d_82">
      <g>
       <use xlink:href="#m0fa22233a2" x="48.039375" y="40.246637" style="stroke: #000000; stroke-width: 0.5"/>
      </g>
     </g>
     <g id="line2d_83">
      <g>
       <use xlink:href="#m373adb30c6" x="382.839375" y="40.246637" style="stroke: #000000; stroke-width: 0.5"/>
      </g>
     </g>
     <g id="text_14">
      <!-- 10 -->
      <g transform="translate(29.269375 44.805699) scale(0.12 -0.12)">
       <use xlink:href="#DejaVuSans-31"/>
       <use xlink:href="#DejaVuSans-30" x="63.623047"/>
      </g>
     </g>
    </g>
    <g id="ytick_8">
     <g id="line2d_84">
      <path d="M 48.039375 8.159062 
L 382.839375 8.159062 
" clip-path="url(#pdbc2a247bc)" style="fill: none; stroke: #b0b0b0; stroke-width: 0.5; stroke-linecap: square"/>
     </g>
     <g id="line2d_85">
      <g>
       <use xlink:href="#m0fa22233a2" x="48.039375" y="8.159062" style="stroke: #000000; stroke-width: 0.5"/>
      </g>
     </g>
     <g id="line2d_86">
      <g>
       <use xlink:href="#m373adb30c6" x="382.839375" y="8.159062" style="stroke: #000000; stroke-width: 0.5"/>
      </g>
     </g>
     <g id="text_15">
      <!-- 20 -->
      <g transform="translate(29.269375 12.718125) scale(0.12 -0.12)">
       <use xlink:href="#DejaVuSans-32"/>
       <use xlink:href="#DejaVuSans-30" x="63.623047"/>
      </g>
     </g>
    </g>
    <g id="ytick_9">
     <g id="line2d_87">
      <defs>
       <path id="ma66a3f155a" d="M 0 0 
L 1.5 0 
" style="stroke: #000000; stroke-width: 0.5"/>
      </defs>
      <g>
       <use xlink:href="#ma66a3f155a" x="48.039375" y="252.024626" style="stroke: #000000; stroke-width: 0.5"/>
      </g>
     </g>
     <g id="line2d_88">
      <defs>
       <path id="mfae4a254e0" d="M 0 0 
L -1.5 0 
" style="stroke: #000000; stroke-width: 0.5"/>
      </defs>
      <g>
       <use xlink:href="#mfae4a254e0" x="382.839375" y="252.024626" style="stroke: #000000; stroke-width: 0.5"/>
      </g>
     </g>
    </g>
    <g id="ytick_10">
     <g id="line2d_89">
      <g>
       <use xlink:href="#ma66a3f155a" x="48.039375" y="245.607111" style="stroke: #000000; stroke-width: 0.5"/>
      </g>
     </g>
     <g id="line2d_90">
      <g>
       <use xlink:href="#mfae4a254e0" x="382.839375" y="245.607111" style="stroke: #000000; stroke-width: 0.5"/>
      </g>
     </g>
    </g>
    <g id="ytick_11">
     <g id="line2d_91">
      <g>
       <use xlink:href="#ma66a3f155a" x="48.039375" y="239.189596" style="stroke: #000000; stroke-width: 0.5"/>
      </g>
     </g>
     <g id="line2d_92">
      <g>
       <use xlink:href="#mfae4a254e0" x="382.839375" y="239.189596" style="stroke: #000000; stroke-width: 0.5"/>
      </g>
     </g>
    </g>
    <g id="ytick_12">
     <g id="line2d_93">
      <g>
       <use xlink:href="#ma66a3f155a" x="48.039375" y="226.354566" style="stroke: #000000; stroke-width: 0.5"/>
      </g>
     </g>
     <g id="line2d_94">
      <g>
       <use xlink:href="#mfae4a254e0" x="382.839375" y="226.354566" style="stroke: #000000; stroke-width: 0.5"/>
      </g>
     </g>
    </g>
    <g id="ytick_13">
     <g id="line2d_95">
      <g>
       <use xlink:href="#ma66a3f155a" x="48.039375" y="219.937051" style="stroke: #000000; stroke-width: 0.5"/>
      </g>
     </g>
     <g id="line2d_96">
      <g>
       <use xlink:href="#mfae4a254e0" x="382.839375" y="219.937051" style="stroke: #000000; stroke-width: 0.5"/>
      </g>
     </g>
    </g>
    <g id="ytick_14">
     <g id="line2d_97">
      <g>
       <use xlink:href="#ma66a3f155a" x="48.039375" y="213.519537" style="stroke: #000000; stroke-width: 0.5"/>
      </g>
     </g>
     <g id="line2d_98">
      <g>
       <use xlink:href="#mfae4a254e0" x="382.839375" y="213.519537" style="stroke: #000000; stroke-width: 0.5"/>
      </g>
     </g>
    </g>
    <g id="ytick_15">
     <g id="line2d_99">
      <g>
       <use xlink:href="#ma66a3f155a" x="48.039375" y="207.102022" style="stroke: #000000; stroke-width: 0.5"/>
      </g>
     </g>
     <g id="line2d_100">
      <g>
       <use xlink:href="#mfae4a254e0" x="382.839375" y="207.102022" style="stroke: #000000; stroke-width: 0.5"/>
      </g>
     </g>
    </g>
    <g id="ytick_16">
     <g id="line2d_101">
      <g>
       <use xlink:href="#ma66a3f155a" x="48.039375" y="194.266992" style="stroke: #000000; stroke-width: 0.5"/>
      </g>
     </g>
     <g id="line2d_102">
      <g>
       <use xlink:href="#mfae4a254e0" x="382.839375" y="194.266992" style="stroke: #000000; stroke-width: 0.5"/>
      </g>
     </g>
    </g>
    <g id="ytick_17">
     <g id="line2d_103">
      <g>
       <use xlink:href="#ma66a3f155a" x="48.039375" y="187.849477" style="stroke: #000000; stroke-width: 0.5"/>
      </g>
     </g>
     <g id="line2d_104">
      <g>
       <use xlink:href="#mfae4a254e0" x="382.839375" y="187.849477" style="stroke: #000000; stroke-width: 0.5"/>
      </g>
     </g>
    </g>
    <g id="ytick_18">
     <g id="line2d_105">
      <g>
       <use xlink:href="#ma66a3f155a" x="48.039375" y="181.431963" style="stroke: #000000; stroke-width: 0.5"/>
      </g>
     </g>
     <g id="line2d_106">
      <g>
       <use xlink:href="#mfae4a254e0" x="382.839375" y="181.431963" style="stroke: #000000; stroke-width: 0.5"/>
      </g>
     </g>
    </g>
    <g id="ytick_19">
     <g id="line2d_107">
      <g>
       <use xlink:href="#ma66a3f155a" x="48.039375" y="175.014448" style="stroke: #000000; stroke-width: 0.5"/>
      </g>
     </g>
     <g id="line2d_108">
      <g>
       <use xlink:href="#mfae4a254e0" x="382.839375" y="175.014448" style="stroke: #000000; stroke-width: 0.5"/>
      </g>
     </g>
    </g>
    <g id="ytick_20">
     <g id="line2d_109">
      <g>
       <use xlink:href="#ma66a3f155a" x="48.039375" y="162.179418" style="stroke: #000000; stroke-width: 0.5"/>
      </g>
     </g>
     <g id="line2d_110">
      <g>
       <use xlink:href="#mfae4a254e0" x="382.839375" y="162.179418" style="stroke: #000000; stroke-width: 0.5"/>
      </g>
     </g>
    </g>
    <g id="ytick_21">
     <g id="line2d_111">
      <g>
       <use xlink:href="#ma66a3f155a" x="48.039375" y="155.761903" style="stroke: #000000; stroke-width: 0.5"/>
      </g>
     </g>
     <g id="line2d_112">
      <g>
       <use xlink:href="#mfae4a254e0" x="382.839375" y="155.761903" style="stroke: #000000; stroke-width: 0.5"/>
      </g>
     </g>
    </g>
    <g id="ytick_22">
     <g id="line2d_113">
      <g>
       <use xlink:href="#ma66a3f155a" x="48.039375" y="149.344388" style="stroke: #000000; stroke-width: 0.5"/>
      </g>
     </g>
     <g id="line2d_114">
      <g>
       <use xlink:href="#mfae4a254e0" x="382.839375" y="149.344388" style="stroke: #000000; stroke-width: 0.5"/>
      </g>
     </g>
    </g>
    <g id="ytick_23">
     <g id="line2d_115">
      <g>
       <use xlink:href="#ma66a3f155a" x="48.039375" y="142.926874" style="stroke: #000000; stroke-width: 0.5"/>
      </g>
     </g>
     <g id="line2d_116">
      <g>
       <use xlink:href="#mfae4a254e0" x="382.839375" y="142.926874" style="stroke: #000000; stroke-width: 0.5"/>
      </g>
     </g>
    </g>
    <g id="ytick_24">
     <g id="line2d_117">
      <g>
       <use xlink:href="#ma66a3f155a" x="48.039375" y="130.091844" style="stroke: #000000; stroke-width: 0.5"/>
      </g>
     </g>
     <g id="line2d_118">
      <g>
       <use xlink:href="#mfae4a254e0" x="382.839375" y="130.091844" style="stroke: #000000; stroke-width: 0.5"/>
      </g>
     </g>
    </g>
    <g id="ytick_25">
     <g id="line2d_119">
      <g>
       <use xlink:href="#ma66a3f155a" x="48.039375" y="123.674329" style="stroke: #000000; stroke-width: 0.5"/>
      </g>
     </g>
     <g id="line2d_120">
      <g>
       <use xlink:href="#mfae4a254e0" x="382.839375" y="123.674329" style="stroke: #000000; stroke-width: 0.5"/>
      </g>
     </g>
    </g>
    <g id="ytick_26">
     <g id="line2d_121">
      <g>
       <use xlink:href="#ma66a3f155a" x="48.039375" y="117.256814" style="stroke: #000000; stroke-width: 0.5"/>
      </g>
     </g>
     <g id="line2d_122">
      <g>
       <use xlink:href="#mfae4a254e0" x="382.839375" y="117.256814" style="stroke: #000000; stroke-width: 0.5"/>
      </g>
     </g>
    </g>
    <g id="ytick_27">
     <g id="line2d_123">
      <g>
       <use xlink:href="#ma66a3f155a" x="48.039375" y="110.8393" style="stroke: #000000; stroke-width: 0.5"/>
      </g>
     </g>
     <g id="line2d_124">
      <g>
       <use xlink:href="#mfae4a254e0" x="382.839375" y="110.8393" style="stroke: #000000; stroke-width: 0.5"/>
      </g>
     </g>
    </g>
    <g id="ytick_28">
     <g id="line2d_125">
      <g>
       <use xlink:href="#ma66a3f155a" x="48.039375" y="98.00427" style="stroke: #000000; stroke-width: 0.5"/>
      </g>
     </g>
     <g id="line2d_126">
      <g>
       <use xlink:href="#mfae4a254e0" x="382.839375" y="98.00427" style="stroke: #000000; stroke-width: 0.5"/>
      </g>
     </g>
    </g>
    <g id="ytick_29">
     <g id="line2d_127">
      <g>
       <use xlink:href="#ma66a3f155a" x="48.039375" y="91.586755" style="stroke: #000000; stroke-width: 0.5"/>
      </g>
     </g>
     <g id="line2d_128">
      <g>
       <use xlink:href="#mfae4a254e0" x="382.839375" y="91.586755" style="stroke: #000000; stroke-width: 0.5"/>
      </g>
     </g>
    </g>
    <g id="ytick_30">
     <g id="line2d_129">
      <g>
       <use xlink:href="#ma66a3f155a" x="48.039375" y="85.16924" style="stroke: #000000; stroke-width: 0.5"/>
      </g>
     </g>
     <g id="line2d_130">
      <g>
       <use xlink:href="#mfae4a254e0" x="382.839375" y="85.16924" style="stroke: #000000; stroke-width: 0.5"/>
      </g>
     </g>
    </g>
    <g id="ytick_31">
     <g id="line2d_131">
      <g>
       <use xlink:href="#ma66a3f155a" x="48.039375" y="78.751725" style="stroke: #000000; stroke-width: 0.5"/>
      </g>
     </g>
     <g id="line2d_132">
      <g>
       <use xlink:href="#mfae4a254e0" x="382.839375" y="78.751725" style="stroke: #000000; stroke-width: 0.5"/>
      </g>
     </g>
    </g>
    <g id="ytick_32">
     <g id="line2d_133">
      <g>
       <use xlink:href="#ma66a3f155a" x="48.039375" y="65.916696" style="stroke: #000000; stroke-width: 0.5"/>
      </g>
     </g>
     <g id="line2d_134">
      <g>
       <use xlink:href="#mfae4a254e0" x="382.839375" y="65.916696" style="stroke: #000000; stroke-width: 0.5"/>
      </g>
     </g>
    </g>
    <g id="ytick_33">
     <g id="line2d_135">
      <g>
       <use xlink:href="#ma66a3f155a" x="48.039375" y="59.499181" style="stroke: #000000; stroke-width: 0.5"/>
      </g>
     </g>
     <g id="line2d_136">
      <g>
       <use xlink:href="#mfae4a254e0" x="382.839375" y="59.499181" style="stroke: #000000; stroke-width: 0.5"/>
      </g>
     </g>
    </g>
    <g id="ytick_34">
     <g id="line2d_137">
      <g>
       <use xlink:href="#ma66a3f155a" x="48.039375" y="53.081666" style="stroke: #000000; stroke-width: 0.5"/>
      </g>
     </g>
     <g id="line2d_138">
      <g>
       <use xlink:href="#mfae4a254e0" x="382.839375" y="53.081666" style="stroke: #000000; stroke-width: 0.5"/>
      </g>
     </g>
    </g>
    <g id="ytick_35">
     <g id="line2d_139">
      <g>
       <use xlink:href="#ma66a3f155a" x="48.039375" y="46.664151" style="stroke: #000000; stroke-width: 0.5"/>
      </g>
     </g>
     <g id="line2d_140">
      <g>
       <use xlink:href="#mfae4a254e0" x="382.839375" y="46.664151" style="stroke: #000000; stroke-width: 0.5"/>
      </g>
     </g>
    </g>
    <g id="ytick_36">
     <g id="line2d_141">
      <g>
       <use xlink:href="#ma66a3f155a" x="48.039375" y="33.829122" style="stroke: #000000; stroke-width: 0.5"/>
      </g>
     </g>
     <g id="line2d_142">
      <g>
       <use xlink:href="#mfae4a254e0" x="382.839375" y="33.829122" style="stroke: #000000; stroke-width: 0.5"/>
      </g>
     </g>
    </g>
    <g id="ytick_37">
     <g id="line2d_143">
      <g>
       <use xlink:href="#ma66a3f155a" x="48.039375" y="27.411607" style="stroke: #000000; stroke-width: 0.5"/>
      </g>
     </g>
     <g id="line2d_144">
      <g>
       <use xlink:href="#mfae4a254e0" x="382.839375" y="27.411607" style="stroke: #000000; stroke-width: 0.5"/>
      </g>
     </g>
    </g>
    <g id="ytick_38">
     <g id="line2d_145">
      <g>
       <use xlink:href="#ma66a3f155a" x="48.039375" y="20.994092" style="stroke: #000000; stroke-width: 0.5"/>
      </g>
     </g>
     <g id="line2d_146">
      <g>
       <use xlink:href="#mfae4a254e0" x="382.839375" y="20.994092" style="stroke: #000000; stroke-width: 0.5"/>
      </g>
     </g>
    </g>
    <g id="ytick_39">
     <g id="line2d_147">
      <g>
       <use xlink:href="#ma66a3f155a" x="48.039375" y="14.576577" style="stroke: #000000; stroke-width: 0.5"/>
      </g>
     </g>
     <g id="line2d_148">
      <g>
       <use xlink:href="#mfae4a254e0" x="382.839375" y="14.576577" style="stroke: #000000; stroke-width: 0.5"/>
      </g>
     </g>
    </g>
    <g id="text_16">
     <!-- Fitness -->
     <g transform="translate(12.718125 149.842498) rotate(-90) scale(0.12 -0.12)">
      <defs>
       <path id="DejaVuSans-46" d="M 628 4666 
L 3309 4666 
L 3309 4134 
L 1259 4134 
L 1259 2759 
L 3109 2759 
L 3109 2228 
L 1259 2228 
L 1259 0 
L 628 0 
L 628 4666 
z
" transform="scale(0.015625)"/>
      </defs>
      <use xlink:href="#DejaVuSans-46"/>
      <use xlink:href="#DejaVuSans-69" x="50.269531"/>
      <use xlink:href="#DejaVuSans-74" x="78.052734"/>
      <use xlink:href="#DejaVuSans-6e" x="117.261719"/>
      <use xlink:href="#DejaVuSans-65" x="180.640625"/>
      <use xlink:href="#DejaVuSans-73" x="242.164062"/>
      <use xlink:href="#DejaVuSans-73" x="294.263672"/>
     </g>
    </g>
   </g>
   <g id="line2d_149">
    <path d="M 63.257557 31.917974 
L 65.087398 31.917969 
L 65.697345 30.621635 
L 67.527187 30.621646 
L 68.137134 29.82308 
L 69.357028 29.823017 
L 69.966976 29.680397 
L 70.576923 25.886453 
L 74.236606 25.886398 
L 74.846553 22.979464 
L 77.286342 22.982142 
L 77.896289 20.281972 
L 80.946025 20.281942 
L 81.555972 20.085351 
L 85.215655 20.085293 
L 85.825602 19.155113 
L 92.535021 19.154944 
L 93.144968 18.609507 
L 93.754915 18.609496 
L 94.364862 17.502391 
L 98.024545 17.502279 
L 98.634493 16.996195 
L 100.464334 16.99601 
L 101.074281 16.762194 
L 101.684228 16.762385 
L 102.294176 16.566656 
L 104.733964 16.551317 
L 105.953859 16.102742 
L 107.173753 16.097415 
L 107.7837 15.876639 
L 126.082115 15.820845 
L 127.911957 15.676774 
L 367.621193 15.662015 
L 367.621193 15.662015 
" clip-path="url(#pdbc2a247bc)" style="fill: none; stroke: #000000; stroke-linecap: square"/>
   </g>
   <g id="line2d_150">
    <path d="M 63.257557 223.921555 
L 63.867504 162.126627 
L 64.477451 133.495313 
L 65.087398 127.20974 
L 65.697345 113.041348 
L 66.307293 104.241102 
L 66.91724 122.425548 
L 67.527187 127.971275 
L 68.137134 117.474877 
L 68.747081 112.552939 
L 69.357028 116.329545 
L 70.576923 105.550954 
L 71.18687 102.939124 
L 71.796817 90.947575 
L 72.406764 87.38369 
L 73.016711 90.235752 
L 73.626659 83.57297 
L 74.236606 86.959158 
L 74.846553 91.650307 
L 75.4565 83.655951 
L 76.066447 78.198645 
L 76.676394 144.813774 
L 77.286342 83.74517 
L 79.116183 64.697536 
L 79.72613 60.235659 
L 80.336077 54.420287 
L 80.946025 45.08662 
L 81.555972 38.174063 
L 82.775866 26.643083 
L 83.385813 23.794227 
L 83.99576 25.594735 
L 85.825602 27.194517 
L 86.435549 24.11448 
L 87.655444 28.233901 
L 88.265391 24.578333 
L 88.875338 25.625784 
L 89.485285 32.966048 
L 90.095232 27.048914 
L 90.705179 25.578943 
L 91.315127 24.412878 
L 91.925074 25.648069 
L 92.535021 25.006674 
L 93.144968 24.869719 
L 93.754915 25.956841 
L 94.364862 26.646189 
L 94.97481 26.742535 
L 95.584757 25.944926 
L 96.194704 24.533142 
L 96.804651 25.92993 
L 97.414598 25.80007 
L 98.024545 28.760653 
L 98.634493 25.163958 
L 99.24444 24.23272 
L 99.854387 24.263076 
L 100.464334 26.701578 
L 101.074281 24.969684 
L 101.684228 25.131798 
L 102.294176 23.604501 
L 102.904123 24.634775 
L 103.51407 23.163452 
L 104.124017 24.171119 
L 104.733964 22.14849 
L 105.343911 21.292948 
L 105.953859 21.888624 
L 106.563806 21.996669 
L 107.7837 20.80024 
L 108.393647 23.755978 
L 109.613542 22.927647 
L 110.223489 19.992632 
L 110.833436 20.639404 
L 111.443383 19.986614 
L 112.05333 20.853813 
L 112.663277 19.964336 
L 113.273225 19.96438 
L 113.883172 21.307484 
L 114.493119 22.957213 
L 115.103066 22.372987 
L 115.713013 22.490453 
L 116.32296 21.507349 
L 116.932908 22.239752 
L 117.542855 20.157814 
L 118.152802 19.233054 
L 118.762749 18.730377 
L 119.372696 18.708742 
L 119.982643 17.959063 
L 120.592591 19.70202 
L 121.202538 21.984229 
L 121.812485 21.94557 
L 123.032379 20.370973 
L 124.252274 17.575446 
L 124.862221 18.360999 
L 125.472168 18.02331 
L 126.082115 18.08829 
L 126.692062 19.888886 
L 127.302009 19.219552 
L 127.911957 19.457233 
L 128.521904 18.524328 
L 129.131851 19.139382 
L 129.741798 19.458684 
L 130.351745 19.307173 
L 130.961692 19.797881 
L 131.57164 19.355318 
L 132.181587 20.052247 
L 132.791534 19.84916 
L 133.401481 21.240717 
L 134.011428 18.552275 
L 134.621375 18.174437 
L 135.231323 19.014733 
L 135.84127 20.338613 
L 136.451217 18.598631 
L 137.061164 19.222531 
L 137.671111 17.492454 
L 138.281058 17.214482 
L 138.891006 17.89 
L 139.500953 18.148725 
L 140.1109 18.006951 
L 140.720847 19.263915 
L 141.330794 18.440615 
L 141.940741 18.513079 
L 142.550689 19.00553 
L 143.160636 18.311471 
L 143.770583 20.432377 
L 144.38053 20.755909 
L 144.990477 19.746646 
L 145.600424 20.624266 
L 146.210372 19.163559 
L 146.820319 19.801394 
L 147.430266 20.0105 
L 148.040213 19.52947 
L 148.65016 20.597264 
L 149.260107 21.914645 
L 149.870055 22.23226 
L 150.480002 19.719634 
L 151.089949 17.957963 
L 151.699896 17.555642 
L 152.309843 19.503435 
L 152.91979 19.435871 
L 153.529738 19.579139 
L 154.139685 20.424327 
L 154.749632 18.76929 
L 155.359579 18.58149 
L 155.969526 19.197991 
L 157.189421 17.745272 
L 157.799368 17.128579 
L 158.409315 16.979091 
L 159.019262 17.221633 
L 159.629209 17.618092 
L 160.239156 18.640033 
L 160.849104 17.041915 
L 161.459051 17.758918 
L 162.068998 19.401881 
L 162.678945 20.539947 
L 163.288892 19.261957 
L 163.898839 19.540152 
L 164.508787 22.098853 
L 165.118734 20.560531 
L 165.728681 21.636527 
L 166.338628 21.73245 
L 166.948575 22.53598 
L 167.558522 18.067446 
L 168.16847 18.854336 
L 168.778417 19.075363 
L 169.388364 19.490947 
L 169.998311 17.774791 
L 170.608258 17.254685 
L 171.218205 18.824709 
L 171.828153 18.110671 
L 172.4381 19.866571 
L 173.048047 18.477246 
L 173.657994 18.243493 
L 174.267941 20.309103 
L 174.877888 20.76978 
L 175.487836 19.385286 
L 176.097783 19.473232 
L 176.70773 18.916166 
L 177.317677 19.525044 
L 177.927624 17.099329 
L 178.537571 17.541199 
L 179.147519 17.107079 
L 180.97736 16.388307 
L 182.197254 19.832739 
L 182.807202 20.01122 
L 183.417149 20.561016 
L 184.027096 20.805334 
L 184.637043 22.720787 
L 185.856937 20.240872 
L 186.466885 20.27925 
L 187.076832 18.937702 
L 187.686779 19.031608 
L 188.296726 19.50792 
L 188.906673 21.134452 
L 189.51662 20.923105 
L 190.126568 23.896777 
L 190.736515 23.766288 
L 191.346462 21.012959 
L 191.956409 21.776893 
L 192.566356 21.380985 
L 193.176303 19.815405 
L 193.786251 19.243198 
L 194.396198 19.255234 
L 195.006145 18.280569 
L 195.616092 18.219578 
L 196.226039 17.591844 
L 196.835986 17.428085 
L 197.445934 18.180573 
L 198.055881 18.041348 
L 198.665828 18.196026 
L 199.275775 20.555496 
L 199.885722 19.674621 
L 200.495669 19.76784 
L 201.105617 19.500298 
L 201.715564 18.998154 
L 202.325511 21.168149 
L 202.935458 20.464606 
L 203.545405 20.37578 
L 204.155352 21.938263 
L 204.7653 20.997611 
L 205.985194 19.592863 
L 206.595141 18.381271 
L 207.205088 19.464267 
L 207.815035 19.760993 
L 208.424983 19.726969 
L 209.03493 19.168813 
L 209.644877 18.141826 
L 210.254824 19.300846 
L 210.864771 18.29857 
L 211.474718 20.293738 
L 212.084666 19.696847 
L 212.694613 18.015137 
L 213.30456 18.08474 
L 213.914507 17.582004 
L 214.524454 20.478851 
L 215.744349 21.794265 
L 216.964243 20.603149 
L 217.57419 19.136298 
L 218.184137 18.735537 
L 219.404032 16.852297 
L 220.013979 17.233876 
L 221.84382 19.303997 
L 222.453767 17.261992 
L 223.063715 18.870214 
L 223.673662 19.911572 
L 224.283609 18.816748 
L 224.893556 19.033229 
L 225.503503 17.778918 
L 226.11345 17.682467 
L 226.723398 19.361112 
L 227.333345 18.152893 
L 228.553239 17.066599 
L 229.163186 17.037211 
L 229.773133 16.750804 
L 230.383081 17.690547 
L 230.993028 19.482548 
L 231.602975 18.768961 
L 232.212922 16.952127 
L 232.822869 18.859589 
L 233.432816 18.107614 
L 234.042764 18.235563 
L 234.652711 17.752831 
L 235.262658 18.210832 
L 235.872605 18.290165 
L 236.482552 19.04156 
L 237.092499 18.943162 
L 237.702447 19.257026 
L 238.312394 17.932554 
L 238.922341 18.191075 
L 239.532288 19.902175 
L 240.142235 18.507097 
L 240.752182 18.278562 
L 241.36213 17.547904 
L 241.972077 19.453179 
L 242.582024 18.660281 
L 243.191971 19.516777 
L 243.801918 19.336669 
L 244.411865 19.5523 
L 245.021813 20.513447 
L 245.63176 20.739566 
L 246.241707 19.344258 
L 246.851654 22.897302 
L 247.461601 19.544031 
L 248.071548 17.580073 
L 248.681496 18.079349 
L 249.90139 17.475712 
L 250.511337 18.439722 
L 251.121284 17.672551 
L 251.731231 19.501266 
L 252.341179 20.948673 
L 252.951126 21.78334 
L 253.561073 18.580061 
L 254.17102 19.108734 
L 256.000862 21.155219 
L 256.610809 18.608406 
L 257.220756 19.2294 
L 257.830703 17.961476 
L 259.050597 16.625435 
L 259.660545 16.894205 
L 260.270492 18.450452 
L 260.880439 17.816342 
L 261.490386 19.649577 
L 262.100333 18.409153 
L 262.71028 18.299244 
L 263.320228 16.724574 
L 263.930175 16.927697 
L 264.540122 17.789094 
L 265.150069 16.372777 
L 265.760016 19.026832 
L 266.369963 16.889295 
L 266.979911 17.31004 
L 267.589858 16.39327 
L 268.199805 16.902041 
L 268.809752 16.564287 
L 269.419699 17.14024 
L 270.029646 17.091935 
L 270.639594 19.63305 
L 271.249541 17.745198 
L 271.859488 17.289735 
L 272.469435 16.460395 
L 273.079382 16.661302 
L 273.689329 18.230983 
L 274.299277 19.348749 
L 274.909224 17.734915 
L 275.519171 17.056683 
L 276.129118 16.841837 
L 276.739065 16.759206 
L 277.349012 19.334928 
L 277.95896 18.0259 
L 278.568907 17.392835 
L 279.178854 17.316229 
L 279.788801 18.286871 
L 280.398748 16.907052 
L 281.008695 16.884307 
L 281.618643 17.314314 
L 282.838537 17.807446 
L 283.448484 18.495836 
L 284.058431 18.128478 
L 284.668378 18.006912 
L 285.278326 17.026484 
L 285.888273 17.128315 
L 286.49822 17.493569 
L 287.108167 18.370701 
L 287.718114 17.449025 
L 288.328061 18.012513 
L 288.938009 18.246536 
L 289.547956 17.862164 
L 290.157903 19.481435 
L 290.76785 18.731554 
L 291.377797 20.163416 
L 291.987744 19.19379 
L 292.597692 17.954385 
L 293.207639 18.224088 
L 293.817586 18.31106 
L 294.427533 17.608685 
L 295.03748 17.438772 
L 295.647427 17.442051 
L 296.257375 17.298094 
L 297.477269 19.154925 
L 298.087216 19.30117 
L 298.697163 19.057848 
L 299.30711 19.679487 
L 299.917058 19.662723 
L 300.527005 19.936052 
L 301.136952 18.250912 
L 301.746899 18.295461 
L 302.356846 17.85261 
L 302.966793 18.22086 
L 303.576741 19.064874 
L 304.186688 17.696781 
L 304.796635 17.597271 
L 305.406582 16.54086 
L 306.016529 17.921664 
L 306.626476 19.027421 
L 307.236424 19.727722 
L 307.846371 19.328839 
L 308.456318 19.189154 
L 309.066265 18.906252 
L 309.676212 17.972351 
L 310.286159 18.890732 
L 310.896107 17.761302 
L 311.506054 19.120876 
L 312.116001 18.482889 
L 312.725948 18.21335 
L 313.945842 18.223729 
L 314.55579 20.321693 
L 315.165737 20.403086 
L 315.775684 18.975206 
L 316.385631 18.163786 
L 316.995578 17.836496 
L 317.605525 19.346015 
L 318.215473 19.861034 
L 318.82542 18.635696 
L 319.435367 17.900878 
L 320.045314 17.510541 
L 320.655261 18.489089 
L 321.265208 18.266116 
L 321.875156 17.707126 
L 322.485103 18.35941 
L 323.09505 18.824002 
L 323.704997 17.769389 
L 324.314944 18.940984 
L 324.924891 18.388766 
L 325.534839 18.235027 
L 326.144786 19.181036 
L 326.754733 19.709044 
L 327.36468 19.310007 
L 327.974627 19.826608 
L 329.194522 19.5474 
L 329.804469 19.14339 
L 330.414416 21.204406 
L 331.024363 19.83279 
L 331.63431 20.963514 
L 332.244257 19.447122 
L 332.854205 18.624247 
L 333.464152 19.13378 
L 334.074099 17.992818 
L 334.684046 17.579822 
L 335.90394 22.233372 
L 337.123835 18.684891 
L 337.733782 18.610921 
L 338.343729 21.7976 
L 338.953676 18.936198 
L 339.563623 18.367395 
L 340.173571 17.305564 
L 340.783518 16.623502 
L 341.393465 16.899935 
L 342.003412 16.771164 
L 342.613359 18.224554 
L 343.223306 16.833576 
L 343.833254 17.487028 
L 344.443201 18.516782 
L 345.053148 18.129984 
L 345.663095 17.99561 
L 346.88299 16.781819 
L 347.492937 19.338928 
L 348.102884 19.338842 
L 348.712831 18.781686 
L 349.322778 20.350799 
L 349.932725 19.059994 
L 350.542673 20.190122 
L 351.15262 22.813184 
L 352.372514 24.738231 
L 352.982461 19.746198 
L 353.592408 19.368812 
L 354.202356 18.79341 
L 354.812303 17.487687 
L 355.42225 16.782811 
L 356.032197 19.154829 
L 356.642144 17.982611 
L 357.252091 19.557887 
L 357.862039 18.919304 
L 359.081933 19.247654 
L 359.69188 18.136792 
L 360.911774 16.963266 
L 361.521722 17.65816 
L 362.131669 17.620071 
L 363.351563 20.146877 
L 363.96151 18.972738 
L 364.571457 20.003308 
L 365.181405 17.707878 
L 365.791352 19.690116 
L 366.401299 19.88986 
L 367.011246 19.143487 
L 367.621193 20.352987 
L 367.621193 20.352987 
" clip-path="url(#pdbc2a247bc)" style="fill: none; stroke-dasharray: 3.7,1.6; stroke-dashoffset: 0; stroke: #000000"/>
   </g>
   <g id="patch_3">
    <path d="M 48.039375 253.801873 
L 48.039375 4.321873 
" style="fill: none; stroke: #000000; stroke-width: 0.5; stroke-linejoin: miter; stroke-linecap: square"/>
   </g>
   <g id="patch_4">
    <path d="M 382.839375 253.801873 
L 382.839375 4.321873 
" style="fill: none; stroke: #000000; stroke-width: 0.5; stroke-linejoin: miter; stroke-linecap: square"/>
   </g>
   <g id="patch_5">
    <path d="M 48.039375 253.801873 
L 382.839375 253.801873 
" style="fill: none; stroke: #000000; stroke-width: 0.5; stroke-linejoin: miter; stroke-linecap: square"/>
   </g>
   <g id="patch_6">
    <path d="M 48.039375 4.321873 
L 382.839375 4.321873 
" style="fill: none; stroke: #000000; stroke-width: 0.5; stroke-linejoin: miter; stroke-linecap: square"/>
   </g>
   <g id="legend_1">
    <g id="patch_7">
     <path d="M 256.633125 247.801873 
L 374.439375 247.801873 
Q 376.839375 247.801873 376.839375 245.401873 
L 376.839375 193.760623 
Q 376.839375 191.360623 374.439375 191.360623 
L 256.633125 191.360623 
Q 254.233125 191.360623 254.233125 193.760623 
L 254.233125 245.401873 
Q 254.233125 247.801873 256.633125 247.801873 
z
" style="fill: #ffffff; opacity: 0.8; stroke: #cccccc; stroke-linejoin: miter"/>
    </g>
    <g id="line2d_151">
     <path d="M 259.033125 201.078748 
L 271.033125 201.078748 
L 283.033125 201.078748 
" style="fill: none; stroke: #000000; stroke-linecap: square"/>
    </g>
    <g id="text_17">
     <!-- Max fitness -->
     <g transform="translate(292.633125 205.278748) scale(0.12 -0.12)">
      <defs>
       <path id="DejaVuSans-4d" d="M 628 4666 
L 1569 4666 
L 2759 1491 
L 3956 4666 
L 4897 4666 
L 4897 0 
L 4281 0 
L 4281 4097 
L 3078 897 
L 2444 897 
L 1241 4097 
L 1241 0 
L 628 0 
L 628 4666 
z
" transform="scale(0.015625)"/>
       <path id="DejaVuSans-78" d="M 3513 3500 
L 2247 1797 
L 3578 0 
L 2900 0 
L 1881 1375 
L 863 0 
L 184 0 
L 1544 1831 
L 300 3500 
L 978 3500 
L 1906 2253 
L 2834 3500 
L 3513 3500 
z
" transform="scale(0.015625)"/>
       <path id="DejaVuSans-20" transform="scale(0.015625)"/>
       <path id="DejaVuSans-66" d="M 2375 4863 
L 2375 4384 
L 1825 4384 
Q 1516 4384 1395 4259 
Q 1275 4134 1275 3809 
L 1275 3500 
L 2222 3500 
L 2222 3053 
L 1275 3053 
L 1275 0 
L 697 0 
L 697 3053 
L 147 3053 
L 147 3500 
L 697 3500 
L 697 3744 
Q 697 4328 969 4595 
Q 1241 4863 1831 4863 
L 2375 4863 
z
" transform="scale(0.015625)"/>
      </defs>
      <use xlink:href="#DejaVuSans-4d"/>
      <use xlink:href="#DejaVuSans-61" x="86.279297"/>
      <use xlink:href="#DejaVuSans-78" x="147.558594"/>
      <use xlink:href="#DejaVuSans-20" x="206.738281"/>
      <use xlink:href="#DejaVuSans-66" x="238.525391"/>
      <use xlink:href="#DejaVuSans-69" x="273.730469"/>
      <use xlink:href="#DejaVuSans-74" x="301.513672"/>
      <use xlink:href="#DejaVuSans-6e" x="340.722656"/>
      <use xlink:href="#DejaVuSans-65" x="404.101562"/>
      <use xlink:href="#DejaVuSans-73" x="465.625"/>
      <use xlink:href="#DejaVuSans-73" x="517.724609"/>
     </g>
    </g>
    <g id="patch_8">
     <path d="M 259.033125 222.892498 
L 283.033125 222.892498 
L 283.033125 214.492498 
L 259.033125 214.492498 
z
" style="fill: #0000ff; fill-opacity: 0.2; stroke: #0000ff; stroke-opacity: 0.2; stroke-linejoin: miter"/>
    </g>
    <g id="text_18">
     <!-- Top 90% -->
     <g transform="translate(292.633125 222.892498) scale(0.12 -0.12)">
      <defs>
       <path id="DejaVuSans-54" d="M -19 4666 
L 3928 4666 
L 3928 4134 
L 2272 4134 
L 2272 0 
L 1638 0 
L 1638 4134 
L -19 4134 
L -19 4666 
z
" transform="scale(0.015625)"/>
       <path id="DejaVuSans-70" d="M 1159 525 
L 1159 -1331 
L 581 -1331 
L 581 3500 
L 1159 3500 
L 1159 2969 
Q 1341 3281 1617 3432 
Q 1894 3584 2278 3584 
Q 2916 3584 3314 3078 
Q 3713 2572 3713 1747 
Q 3713 922 3314 415 
Q 2916 -91 2278 -91 
Q 1894 -91 1617 61 
Q 1341 213 1159 525 
z
M 3116 1747 
Q 3116 2381 2855 2742 
Q 2594 3103 2138 3103 
Q 1681 3103 1420 2742 
Q 1159 2381 1159 1747 
Q 1159 1113 1420 752 
Q 1681 391 2138 391 
Q 2594 391 2855 752 
Q 3116 1113 3116 1747 
z
" transform="scale(0.015625)"/>
       <path id="DejaVuSans-39" d="M 703 97 
L 703 672 
Q 941 559 1184 500 
Q 1428 441 1663 441 
Q 2288 441 2617 861 
Q 2947 1281 2994 2138 
Q 2813 1869 2534 1725 
Q 2256 1581 1919 1581 
Q 1219 1581 811 2004 
Q 403 2428 403 3163 
Q 403 3881 828 4315 
Q 1253 4750 1959 4750 
Q 2769 4750 3195 4129 
Q 3622 3509 3622 2328 
Q 3622 1225 3098 567 
Q 2575 -91 1691 -91 
Q 1453 -91 1209 -44 
Q 966 3 703 97 
z
M 1959 2075 
Q 2384 2075 2632 2365 
Q 2881 2656 2881 3163 
Q 2881 3666 2632 3958 
Q 2384 4250 1959 4250 
Q 1534 4250 1286 3958 
Q 1038 3666 1038 3163 
Q 1038 2656 1286 2365 
Q 1534 2075 1959 2075 
z
" transform="scale(0.015625)"/>
       <path id="DejaVuSans-25" d="M 4653 2053 
Q 4381 2053 4226 1822 
Q 4072 1591 4072 1178 
Q 4072 772 4226 539 
Q 4381 306 4653 306 
Q 4919 306 5073 539 
Q 5228 772 5228 1178 
Q 5228 1588 5073 1820 
Q 4919 2053 4653 2053 
z
M 4653 2450 
Q 5147 2450 5437 2106 
Q 5728 1763 5728 1178 
Q 5728 594 5436 251 
Q 5144 -91 4653 -91 
Q 4153 -91 3862 251 
Q 3572 594 3572 1178 
Q 3572 1766 3864 2108 
Q 4156 2450 4653 2450 
z
M 1428 4353 
Q 1159 4353 1004 4120 
Q 850 3888 850 3481 
Q 850 3069 1003 2837 
Q 1156 2606 1428 2606 
Q 1700 2606 1854 2837 
Q 2009 3069 2009 3481 
Q 2009 3884 1853 4118 
Q 1697 4353 1428 4353 
z
M 4250 4750 
L 4750 4750 
L 1831 -91 
L 1331 -91 
L 4250 4750 
z
M 1428 4750 
Q 1922 4750 2215 4408 
Q 2509 4066 2509 3481 
Q 2509 2891 2217 2550 
Q 1925 2209 1428 2209 
Q 931 2209 642 2551 
Q 353 2894 353 3481 
Q 353 4063 643 4406 
Q 934 4750 1428 4750 
z
" transform="scale(0.015625)"/>
      </defs>
      <use xlink:href="#DejaVuSans-54"/>
      <use xlink:href="#DejaVuSans-6f" x="44.083984"/>
      <use xlink:href="#DejaVuSans-70" x="105.265625"/>
      <use xlink:href="#DejaVuSans-20" x="168.742188"/>
      <use xlink:href="#DejaVuSans-39" x="200.529297"/>
      <use xlink:href="#DejaVuSans-30" x="264.152344"/>
      <use xlink:href="#DejaVuSans-25" x="327.775391"/>
     </g>
    </g>
    <g id="line2d_152">
     <path d="M 259.033125 236.306248 
L 271.033125 236.306248 
L 283.033125 236.306248 
" style="fill: none; stroke-dasharray: 3.7,1.6; stroke-dashoffset: 0; stroke: #000000"/>
    </g>
    <g id="text_19">
     <!-- Fitness mean -->
     <g transform="translate(292.633125 240.506248) scale(0.12 -0.12)">
      <defs>
       <path id="DejaVuSans-6d" d="M 3328 2828 
Q 3544 3216 3844 3400 
Q 4144 3584 4550 3584 
Q 5097 3584 5394 3201 
Q 5691 2819 5691 2113 
L 5691 0 
L 5113 0 
L 5113 2094 
Q 5113 2597 4934 2840 
Q 4756 3084 4391 3084 
Q 3944 3084 3684 2787 
Q 3425 2491 3425 1978 
L 3425 0 
L 2847 0 
L 2847 2094 
Q 2847 2600 2669 2842 
Q 2491 3084 2119 3084 
Q 1678 3084 1418 2786 
Q 1159 2488 1159 1978 
L 1159 0 
L 581 0 
L 581 3500 
L 1159 3500 
L 1159 2956 
Q 1356 3278 1631 3431 
Q 1906 3584 2284 3584 
Q 2666 3584 2933 3390 
Q 3200 3197 3328 2828 
z
" transform="scale(0.015625)"/>
      </defs>
      <use xlink:href="#DejaVuSans-46"/>
      <use xlink:href="#DejaVuSans-69" x="50.269531"/>
      <use xlink:href="#DejaVuSans-74" x="78.052734"/>
      <use xlink:href="#DejaVuSans-6e" x="117.261719"/>
      <use xlink:href="#DejaVuSans-65" x="180.640625"/>
      <use xlink:href="#DejaVuSans-73" x="242.164062"/>
      <use xlink:href="#DejaVuSans-73" x="294.263672"/>
      <use xlink:href="#DejaVuSans-20" x="346.363281"/>
      <use xlink:href="#DejaVuSans-6d" x="378.150391"/>
      <use xlink:href="#DejaVuSans-65" x="475.5625"/>
      <use xlink:href="#DejaVuSans-61" x="537.085938"/>
      <use xlink:href="#DejaVuSans-6e" x="598.365234"/>
     </g>
    </g>
   </g>
  </g>
 </g>
 <defs>
  <clipPath id="pdbc2a247bc">
   <rect x="48.039375" y="4.321873" width="334.8" height="249.48"/>
  </clipPath>
 </defs>
</svg>
