<?xml version="1.0" encoding="utf-8" standalone="no"?>
<!DOCTYPE svg PUBLIC "-//W3C//DTD SVG 1.1//EN"
  "http://www.w3.org/Graphics/SVG/1.1/DTD/svg11.dtd">
<svg xmlns:xlink="http://www.w3.org/1999/xlink" width="386.439375pt" height="291.918992pt" viewBox="0 0 386.439375 291.918992" xmlns="http://www.w3.org/2000/svg" version="1.1">
 <metadata>
  <rdf:RDF xmlns:dc="http://purl.org/dc/elements/1.1/" xmlns:cc="http://creativecommons.org/ns#" xmlns:rdf="http://www.w3.org/1999/02/22-rdf-syntax-ns#">
   <cc:Work>
    <dc:type rdf:resource="http://purl.org/dc/dcmitype/StillImage"/>
    <dc:date>2024-06-04T12:15:02.995461</dc:date>
    <dc:format>image/svg+xml</dc:format>
    <dc:creator>
     <cc:Agent>
      <dc:title>Matplotlib v3.9.0, https://matplotlib.org/</dc:title>
     </cc:Agent>
    </dc:creator>
   </cc:Work>
  </rdf:RDF>
 </metadata>
 <defs>
  <style type="text/css">*{stroke-linejoin: round; stroke-linecap: butt}</style>
 </defs>
 <g id="figure_1">
  <g id="patch_1">
   <path d="M 0 291.918992 
L 386.439375 291.918992 
L 386.439375 0 
L 0 0 
z
" style="fill: #ffffff"/>
  </g>
  <g id="axes_1">
   <g id="patch_2">
    <path d="M 48.039375 257.591492 
L 382.839375 257.591492 
L 382.839375 8.111492 
L 48.039375 8.111492 
z
" style="fill: #ffffff"/>
   </g>
   <g id="PolyCollection_1">
    <defs>
     <path id="maaea066299" d="M 63.257557 -213.627125 
L 63.257557 -46.448537 
L 63.867504 -45.6675 
L 64.477451 -48.590285 
L 65.087398 -47.243312 
L 65.697345 -46.875949 
L 66.307293 -48.545184 
L 66.91724 -47.43831 
L 67.527187 -47.353132 
L 68.137134 -46.752182 
L 68.747081 -46.504964 
L 69.357028 -46.973404 
L 69.966976 -47.912464 
L 70.576923 -49.279126 
L 71.18687 -47.795352 
L 71.796817 -47.61617 
L 72.406764 -47.625047 
L 73.016711 -102.424503 
L 73.626659 -48.838584 
L 74.236606 -129.482113 
L 74.846553 -136.764408 
L 75.4565 -111.001283 
L 76.066447 -50.150573 
L 76.676394 -122.276774 
L 77.286342 -115.448108 
L 77.896289 -142.765902 
L 78.506236 -121.62235 
L 79.116183 -123.832555 
L 79.72613 -132.351911 
L 80.336077 -137.107759 
L 80.946025 -77.429286 
L 81.555972 -131.600582 
L 82.165919 -112.86262 
L 82.775866 -122.430785 
L 83.385813 -125.991058 
L 83.99576 -146.080946 
L 84.605708 -127.328601 
L 85.215655 -148.34339 
L 85.825602 -150.801961 
L 86.435549 -148.642753 
L 87.045496 -159.049839 
L 87.655444 -144.845418 
L 88.265391 -158.538684 
L 88.875338 -166.279062 
L 89.485285 -160.425579 
L 90.095232 -152.217641 
L 90.705179 -164.940287 
L 91.315127 -160.46479 
L 91.925074 -164.450252 
L 92.535021 -168.333527 
L 93.144968 -163.276231 
L 93.754915 -166.850677 
L 94.364862 -159.688014 
L 94.97481 -166.858993 
L 95.584757 -166.551227 
L 96.194704 -172.552971 
L 96.804651 -172.335093 
L 97.414598 -171.652234 
L 98.024545 -176.456384 
L 98.634493 -168.08431 
L 99.24444 -185.81516 
L 99.854387 -188.691824 
L 100.464334 -189.598716 
L 101.074281 -188.353123 
L 101.684228 -183.453517 
L 102.294176 -173.248259 
L 102.904123 -178.530784 
L 103.51407 -184.675383 
L 104.124017 -185.96916 
L 104.733964 -188.056672 
L 105.343911 -189.40902 
L 105.953859 -191.268017 
L 106.563806 -191.276926 
L 107.173753 -195.506033 
L 107.7837 -189.869321 
L 108.393647 -190.80144 
L 109.003594 -220.360436 
L 109.613542 -217.103194 
L 110.223489 -190.091799 
L 110.833436 -188.706917 
L 111.443383 -188.631818 
L 112.05333 -188.719747 
L 112.663277 -204.237918 
L 113.273225 -235.363358 
L 113.883172 -188.712264 
L 114.493119 -184.34071 
L 115.103066 -231.780668 
L 115.713013 -195.339871 
L 116.32296 -245.590081 
L 116.932908 -237.271454 
L 117.542855 -251.180726 
L 118.152802 -253.09164 
L 118.762749 -254.438107 
L 119.372696 -252.95659 
L 119.982643 -249.09607 
L 120.592591 -194.305756 
L 121.202538 -253.531377 
L 121.812485 -248.545756 
L 122.422432 -197.092905 
L 123.032379 -186.138839 
L 123.642326 -233.740677 
L 124.252274 -249.775977 
L 124.862221 -252.604144 
L 125.472168 -251.91381 
L 126.082115 -218.32331 
L 126.692062 -247.80222 
L 127.302009 -249.830049 
L 127.911957 -251.076666 
L 128.521904 -254.301871 
L 129.131851 -253.278729 
L 129.741798 -253.590853 
L 130.351745 -255.503364 
L 130.961692 -257.636249 
L 131.57164 -257.626632 
L 132.181587 -257.069279 
L 132.791534 -256.163027 
L 133.401481 -257.072803 
L 134.011428 -248.192759 
L 134.621375 -241.147024 
L 135.231323 -248.399501 
L 135.84127 -247.731378 
L 136.451217 -245.416995 
L 137.061164 -241.179253 
L 137.671111 -249.811115 
L 138.281058 -248.997772 
L 138.891006 -225.551742 
L 139.500953 -242.947898 
L 140.1109 -229.588751 
L 140.720847 -223.177982 
L 141.330794 -230.176869 
L 141.940741 -249.600219 
L 142.550689 -252.126182 
L 143.160636 -253.282779 
L 143.770583 -245.510487 
L 144.38053 -247.253655 
L 144.990477 -242.238269 
L 145.600424 -246.512492 
L 146.210372 -248.45037 
L 146.820319 -251.032888 
L 147.430266 -250.302026 
L 148.040213 -249.740332 
L 148.65016 -249.76011 
L 149.260107 -251.906255 
L 149.870055 -254.040222 
L 150.480002 -254.628752 
L 151.089949 -253.456495 
L 151.699896 -258.258048 
L 152.309843 -255.52139 
L 152.91979 -253.973693 
L 153.529738 -253.942671 
L 154.139685 -233.147324 
L 154.749632 -217.441123 
L 155.359579 -218.691304 
L 155.969526 -194.900038 
L 156.579473 -239.540269 
L 157.189421 -222.101859 
L 157.799368 -218.479913 
L 158.409315 -252.41419 
L 159.019262 -251.172176 
L 159.629209 -244.907282 
L 160.239156 -237.69927 
L 160.849104 -204.942651 
L 161.459051 -250.55119 
L 162.068998 -249.831251 
L 162.678945 -256.323648 
L 163.288892 -251.761419 
L 163.898839 -251.827218 
L 164.508787 -250.182372 
L 165.118734 -248.635893 
L 165.728681 -244.932974 
L 166.338628 -246.634142 
L 166.948575 -252.212171 
L 167.558522 -198.28247 
L 168.16847 -239.079518 
L 168.778417 -200.030301 
L 169.388364 -226.630461 
L 169.998311 -236.879267 
L 170.608258 -244.830564 
L 171.218205 -260.518153 
L 171.828153 -254.896094 
L 172.4381 -250.086216 
L 173.048047 -243.952307 
L 173.657994 -236.786318 
L 174.267941 -257.056998 
L 174.877888 -208.189571 
L 175.487836 -247.425894 
L 176.097783 -239.676024 
L 176.70773 -244.340304 
L 177.317677 -248.768551 
L 177.927624 -248.575261 
L 178.537571 -251.357835 
L 179.147519 -260.566622 
L 179.757466 -262.697849 
L 180.367413 -250.856643 
L 180.97736 -198.054043 
L 181.587307 -224.984921 
L 182.197254 -223.801745 
L 182.807202 -251.310261 
L 183.417149 -251.682067 
L 184.027096 -196.105401 
L 184.637043 -229.51579 
L 185.24699 -261.24537 
L 185.856937 -199.400714 
L 186.466885 -253.848319 
L 187.076832 -260.892767 
L 187.686779 -262.946035 
L 188.296726 -261.8983 
L 188.906673 -264.642004 
L 189.51662 -264.644674 
L 190.126568 -264.676605 
L 190.736515 -264.696007 
L 191.346462 -263.243699 
L 191.956409 -235.468777 
L 192.566356 -209.483943 
L 193.176303 -210.520849 
L 193.786251 -211.722251 
L 194.396198 -248.341034 
L 195.006145 -252.488874 
L 195.616092 -223.53889 
L 196.226039 -201.562694 
L 196.835986 -254.183973 
L 197.445934 -245.271602 
L 198.055881 -201.45978 
L 198.665828 -200.381271 
L 199.275775 -222.08628 
L 199.885722 -259.679748 
L 200.495669 -259.923356 
L 201.105617 -263.507742 
L 201.715564 -259.733191 
L 202.325511 -251.299964 
L 202.935458 -264.692655 
L 203.545405 -239.294024 
L 204.155352 -264.44543 
L 204.7653 -241.888091 
L 205.375247 -240.32303 
L 205.985194 -222.472053 
L 206.595141 -264.340322 
L 207.205088 -260.523475 
L 207.815035 -260.832434 
L 208.424983 -263.694884 
L 209.03493 -260.522129 
L 209.644877 -260.250423 
L 210.254824 -256.912215 
L 210.864771 -256.170165 
L 211.474718 -260.447146 
L 212.084666 -260.451587 
L 212.694613 -260.293431 
L 213.30456 -260.446945 
L 213.914507 -261.326325 
L 214.524454 -265.935265 
L 215.134401 -266.444109 
L 215.744349 -263.474198 
L 216.354296 -264.895349 
L 216.964243 -216.239 
L 217.57419 -212.495121 
L 218.184137 -196.015985 
L 218.794084 -232.120129 
L 219.404032 -230.17716 
L 220.013979 -261.768598 
L 220.623926 -260.813184 
L 221.233873 -219.036103 
L 221.84382 -194.257255 
L 222.453767 -198.000858 
L 223.063715 -258.631998 
L 223.673662 -240.82322 
L 224.283609 -188.960145 
L 224.893556 -196.981917 
L 225.503503 -236.07665 
L 226.11345 -201.340967 
L 226.723398 -253.22424 
L 227.333345 -244.369154 
L 227.943292 -230.301595 
L 228.553239 -198.960874 
L 229.163186 -243.642726 
L 229.773133 -245.353492 
L 230.383081 -203.35995 
L 230.993028 -202.67685 
L 231.602975 -196.390616 
L 232.212922 -194.676722 
L 232.822869 -199.410147 
L 233.432816 -252.506175 
L 234.042764 -259.560815 
L 234.652711 -252.338331 
L 235.262658 -196.596246 
L 235.872605 -245.789397 
L 236.482552 -251.285228 
L 237.092499 -254.203992 
L 237.702447 -256.950765 
L 238.312394 -254.578538 
L 238.922341 -257.70796 
L 239.532288 -257.954011 
L 240.142235 -255.614366 
L 240.752182 -193.976545 
L 241.36213 -258.514319 
L 241.972077 -261.138929 
L 242.582024 -259.664742 
L 243.191971 -257.884957 
L 243.801918 -246.707219 
L 244.411865 -242.734851 
L 245.021813 -255.413042 
L 245.63176 -242.174198 
L 246.241707 -246.510645 
L 246.851654 -255.752325 
L 247.461601 -248.945229 
L 248.071548 -248.943866 
L 248.681496 -249.640428 
L 249.291443 -248.930344 
L 249.90139 -248.944257 
L 250.511337 -255.164515 
L 251.121284 -257.1431 
L 251.731231 -258.52774 
L 252.341179 -258.969348 
L 252.951126 -258.826305 
L 253.561073 -254.757921 
L 254.17102 -226.221053 
L 254.780967 -223.361433 
L 255.390914 -239.329216 
L 256.000862 -211.850959 
L 256.610809 -191.986756 
L 257.220756 -186.316726 
L 257.830703 -188.59518 
L 258.44065 -198.146339 
L 259.050597 -197.29508 
L 259.660545 -201.048476 
L 260.270492 -257.859756 
L 260.880439 -261.931224 
L 261.490386 -255.452733 
L 262.100333 -243.225389 
L 262.71028 -199.234899 
L 263.320228 -263.114011 
L 263.930175 -224.078564 
L 264.540122 -259.122429 
L 265.150069 -237.946554 
L 265.760016 -258.002425 
L 266.369963 -202.002956 
L 266.979911 -241.148746 
L 267.589858 -252.651392 
L 268.199805 -216.145828 
L 268.809752 -214.048514 
L 269.419699 -253.522858 
L 270.029646 -262.762627 
L 270.639594 -267.174632 
L 271.249541 -267.611698 
L 271.859488 -253.855487 
L 272.469435 -245.532476 
L 273.079382 -250.349442 
L 273.689329 -220.5486 
L 274.299277 -234.338 
L 274.909224 -253.851109 
L 275.519171 -240.393587 
L 276.129118 -231.80347 
L 276.739065 -240.18811 
L 277.349012 -232.375731 
L 277.95896 -239.959215 
L 278.568907 -254.206322 
L 279.178854 -255.064491 
L 279.788801 -254.155894 
L 280.398748 -258.396563 
L 281.008695 -263.508797 
L 281.618643 -240.113054 
L 282.22859 -262.166883 
L 282.838537 -258.652831 
L 283.448484 -259.151186 
L 284.058431 -253.889972 
L 284.668378 -258.635772 
L 285.278326 -256.456687 
L 285.888273 -258.548317 
L 286.49822 -260.561071 
L 287.108167 -261.656464 
L 287.718114 -260.127039 
L 288.328061 -258.541073 
L 288.938009 -260.850461 
L 289.547956 -260.330206 
L 290.157903 -261.83901 
L 290.76785 -256.958466 
L 291.377797 -258.11894 
L 291.987744 -251.272042 
L 292.597692 -249.330904 
L 293.207639 -247.645436 
L 293.817586 -252.260514 
L 294.427533 -260.957803 
L 295.03748 -260.9567 
L 295.647427 -264.168419 
L 296.257375 -265.204533 
L 296.867322 -264.827792 
L 297.477269 -264.908273 
L 298.087216 -265.26816 
L 298.697163 -244.320094 
L 299.30711 -265.27152 
L 299.917058 -265.272844 
L 300.527005 -267.147358 
L 301.136952 -265.276518 
L 301.746899 -265.275344 
L 302.356846 -265.269225 
L 302.966793 -261.159227 
L 303.576741 -260.249069 
L 304.186688 -256.203571 
L 304.796635 -262.258337 
L 305.406582 -252.994554 
L 306.016529 -258.253521 
L 306.626476 -231.689787 
L 307.236424 -219.570345 
L 307.846371 -231.98076 
L 308.456318 -202.986162 
L 309.066265 -203.003576 
L 309.676212 -199.234273 
L 310.286159 -203.026905 
L 310.896107 -203.175841 
L 311.506054 -246.583633 
L 312.116001 -196.587767 
L 312.725948 -196.551327 
L 313.335895 -203.168167 
L 313.945842 -201.655357 
L 314.55579 -197.427186 
L 315.165737 -197.133018 
L 315.775684 -201.805228 
L 316.385631 -195.91704 
L 316.995578 -197.798281 
L 317.605525 -220.457031 
L 318.215473 -247.212087 
L 318.82542 -199.675965 
L 319.435367 -257.659341 
L 320.045314 -258.290033 
L 320.655261 -263.322645 
L 321.265208 -261.448923 
L 321.875156 -199.152841 
L 322.485103 -194.111213 
L 323.09505 -200.345088 
L 323.704997 -194.486587 
L 324.314944 -197.701111 
L 324.924891 -198.657326 
L 325.534839 -208.33633 
L 326.144786 -241.116898 
L 326.754733 -227.947036 
L 327.36468 -228.348068 
L 327.974627 -228.34813 
L 328.584574 -245.311432 
L 329.194522 -246.381835 
L 329.804469 -253.150765 
L 330.414416 -245.232359 
L 331.024363 -245.56149 
L 331.63431 -244.313157 
L 332.244257 -203.411815 
L 332.854205 -244.320402 
L 333.464152 -254.568073 
L 334.074099 -254.568321 
L 334.684046 -245.696958 
L 335.293993 -238.919141 
L 335.90394 -242.318264 
L 336.513888 -243.894132 
L 337.123835 -243.172662 
L 337.733782 -227.800702 
L 338.343729 -227.800943 
L 338.953676 -234.796868 
L 339.563623 -244.667543 
L 340.173571 -244.667759 
L 340.783518 -249.441098 
L 341.393465 -265.510737 
L 342.003412 -255.114818 
L 342.613359 -254.674049 
L 343.223306 -217.633619 
L 343.833254 -246.440291 
L 344.443201 -245.505174 
L 345.053148 -245.812442 
L 345.663095 -259.858484 
L 346.273042 -251.715485 
L 346.88299 -214.58958 
L 347.492937 -259.140025 
L 348.102884 -263.554305 
L 348.712831 -262.876353 
L 349.322778 -262.399383 
L 349.932725 -261.934235 
L 350.542673 -262.794455 
L 351.15262 -260.422628 
L 351.762567 -262.950232 
L 352.372514 -263.866587 
L 352.982461 -256.139085 
L 353.592408 -254.640394 
L 354.202356 -252.529151 
L 354.812303 -267.982142 
L 355.42225 -267.189885 
L 356.032197 -214.072562 
L 356.642144 -255.622462 
L 357.252091 -265.772348 
L 357.862039 -264.497428 
L 358.471986 -265.215051 
L 359.081933 -255.755403 
L 359.69188 -194.620573 
L 360.301827 -193.427505 
L 360.911774 -191.24164 
L 361.521722 -196.795049 
L 362.131669 -200.787128 
L 362.741616 -200.796533 
L 363.351563 -200.158577 
L 363.96151 -249.723243 
L 364.571457 -201.05386 
L 365.181405 -255.958294 
L 365.791352 -255.95611 
L 366.401299 -253.053226 
L 367.011246 -256.809609 
L 367.621193 -259.727011 
L 367.621193 -272.460776 
L 367.621193 -272.460776 
L 367.011246 -272.448877 
L 366.401299 -272.451893 
L 365.791352 -272.453302 
L 365.181405 -272.457373 
L 364.571457 -272.449433 
L 363.96151 -272.45877 
L 363.351563 -272.461946 
L 362.741616 -272.460005 
L 362.131669 -272.461411 
L 361.521722 -272.453935 
L 360.911774 -272.459953 
L 360.301827 -272.453266 
L 359.69188 -272.458739 
L 359.081933 -272.460515 
L 358.471986 -272.458554 
L 357.862039 -272.44525 
L 357.252091 -272.446127 
L 356.642144 -272.45642 
L 356.032197 -272.453646 
L 355.42225 -272.452957 
L 354.812303 -272.448157 
L 354.202356 -272.460118 
L 353.592408 -272.445762 
L 352.982461 -272.460714 
L 352.372514 -272.449869 
L 351.762567 -272.444651 
L 351.15262 -272.449255 
L 350.542673 -272.452522 
L 349.932725 -272.442987 
L 349.322778 -272.441436 
L 348.712831 -272.447324 
L 348.102884 -272.419757 
L 347.492937 -272.4675 
L 346.88299 -272.410846 
L 346.273042 -272.410528 
L 345.663095 -272.409944 
L 345.053148 -272.410663 
L 344.443201 -272.39414 
L 343.833254 -272.396501 
L 343.223306 -272.397735 
L 342.613359 -272.395941 
L 342.003412 -272.41468 
L 341.393465 -272.394022 
L 340.783518 -272.393571 
L 340.173571 -272.392384 
L 339.563623 -272.392106 
L 338.953676 -272.399089 
L 338.343729 -272.394897 
L 337.733782 -272.394457 
L 337.123835 -272.395604 
L 336.513888 -272.395742 
L 335.90394 -272.393598 
L 335.293993 -272.396251 
L 334.684046 -272.397901 
L 334.074099 -272.391779 
L 333.464152 -272.394414 
L 332.854205 -272.3939 
L 332.244257 -272.396235 
L 331.63431 -272.392274 
L 331.024363 -272.407028 
L 330.414416 -272.392351 
L 329.804469 -272.391274 
L 329.194522 -272.392122 
L 328.584574 -272.392917 
L 327.974627 -272.392335 
L 327.36468 -272.391532 
L 326.754733 -272.405753 
L 326.144786 -272.392335 
L 325.534839 -272.394921 
L 324.924891 -272.39182 
L 324.314944 -272.391467 
L 323.704997 -272.402492 
L 323.09505 -272.395274 
L 322.485103 -272.395127 
L 321.875156 -272.391961 
L 321.265208 -272.391211 
L 320.655261 -272.391495 
L 320.045314 -272.393657 
L 319.435367 -272.391274 
L 318.82542 -272.396833 
L 318.215473 -272.389847 
L 317.605525 -272.39086 
L 316.995578 -272.389832 
L 316.385631 -272.390791 
L 315.775684 -272.399282 
L 315.165737 -272.390558 
L 314.55579 -272.388829 
L 313.945842 -272.389402 
L 313.335895 -272.388827 
L 312.725948 -272.390689 
L 312.116001 -272.38916 
L 311.506054 -272.388846 
L 310.896107 -272.388235 
L 310.286159 -272.391957 
L 309.676212 -272.389974 
L 309.066265 -272.38901 
L 308.456318 -272.388086 
L 307.846371 -272.387279 
L 307.236424 -272.391111 
L 306.626476 -272.389314 
L 306.016529 -272.388974 
L 305.406582 -272.387164 
L 304.796635 -272.389437 
L 304.186688 -272.388597 
L 303.576741 -272.388803 
L 302.966793 -272.388498 
L 302.356846 -272.38781 
L 301.746899 -272.38947 
L 301.136952 -272.394948 
L 300.527005 -272.389014 
L 299.917058 -272.389434 
L 299.30711 -272.392105 
L 298.697163 -272.390019 
L 298.087216 -272.391202 
L 297.477269 -272.389728 
L 296.867322 -272.388647 
L 296.257375 -272.38831 
L 295.647427 -272.388563 
L 295.03748 -272.391227 
L 294.427533 -272.389485 
L 293.817586 -272.392021 
L 293.207639 -272.3869 
L 292.597692 -272.391641 
L 291.987744 -272.387983 
L 291.377797 -272.388817 
L 290.76785 -272.388178 
L 290.157903 -272.388547 
L 289.547956 -272.38804 
L 288.938009 -272.38778 
L 288.328061 -272.389403 
L 287.718114 -272.388499 
L 287.108167 -272.387299 
L 286.49822 -272.389185 
L 285.888273 -272.38933 
L 285.278326 -272.386366 
L 284.668378 -272.386826 
L 284.058431 -272.39021 
L 283.448484 -272.387045 
L 282.838537 -272.386023 
L 282.22859 -272.385554 
L 281.618643 -272.374256 
L 281.008695 -272.373596 
L 280.398748 -272.373967 
L 279.788801 -272.374075 
L 279.178854 -272.37275 
L 278.568907 -272.373602 
L 277.95896 -272.330769 
L 277.349012 -272.330801 
L 276.739065 -272.331103 
L 276.129118 -272.331558 
L 275.519171 -272.330801 
L 274.909224 -272.298217 
L 274.299277 -272.297206 
L 273.689329 -272.296307 
L 273.079382 -272.29789 
L 272.469435 -272.297868 
L 271.859488 -272.292274 
L 271.249541 -272.297275 
L 270.639594 -272.291468 
L 270.029646 -272.291273 
L 269.419699 -272.291861 
L 268.809752 -272.291376 
L 268.199805 -272.275389 
L 267.589858 -272.276429 
L 266.979911 -272.282249 
L 266.369963 -272.280005 
L 265.760016 -272.274214 
L 265.150069 -272.274854 
L 264.540122 -272.275306 
L 263.930175 -272.277219 
L 263.320228 -272.274347 
L 262.71028 -272.275296 
L 262.100333 -272.277783 
L 261.490386 -272.281545 
L 260.880439 -272.280728 
L 260.270492 -272.273403 
L 259.660545 -272.284416 
L 259.050597 -272.273745 
L 258.44065 -272.27461 
L 257.830703 -272.273671 
L 257.220756 -272.295826 
L 256.610809 -272.209265 
L 256.000862 -272.209546 
L 255.390914 -272.209855 
L 254.780967 -272.208955 
L 254.17102 -272.208757 
L 253.561073 -272.208909 
L 252.951126 -272.209032 
L 252.341179 -272.209034 
L 251.731231 -272.209866 
L 251.121284 -272.208648 
L 250.511337 -272.208847 
L 249.90139 -272.208722 
L 249.291443 -272.208937 
L 248.681496 -272.209072 
L 248.071548 -272.208781 
L 247.461601 -272.209029 
L 246.851654 -272.209295 
L 246.241707 -272.20878 
L 245.63176 -272.209441 
L 245.021813 -272.209389 
L 244.411865 -272.208773 
L 243.801918 -272.209628 
L 243.191971 -272.20903 
L 242.582024 -272.208819 
L 241.972077 -272.219335 
L 241.36213 -272.209397 
L 240.752182 -272.209121 
L 240.142235 -272.208458 
L 239.532288 -272.209641 
L 238.922341 -272.208587 
L 238.312394 -272.208677 
L 237.702447 -272.208671 
L 237.092499 -272.208445 
L 236.482552 -272.208928 
L 235.872605 -272.208726 
L 235.262658 -272.218092 
L 234.652711 -272.20884 
L 234.042764 -272.208626 
L 233.432816 -272.208723 
L 232.822869 -272.209128 
L 232.212922 -272.209029 
L 231.602975 -272.208506 
L 230.993028 -272.208077 
L 230.383081 -272.207998 
L 229.773133 -272.208118 
L 229.163186 -272.207805 
L 228.553239 -272.207619 
L 227.943292 -272.207629 
L 227.333345 -272.208342 
L 226.723398 -272.209282 
L 226.11345 -272.19772 
L 225.503503 -272.195726 
L 224.893556 -272.193364 
L 224.283609 -272.206029 
L 223.673662 -272.194215 
L 223.063715 -272.192363 
L 222.453767 -272.157294 
L 221.84382 -272.154627 
L 221.233873 -272.153217 
L 220.623926 -272.153797 
L 220.013979 -272.152381 
L 219.404032 -272.15366 
L 218.794084 -272.147021 
L 218.184137 -272.155068 
L 217.57419 -272.1583 
L 216.964243 -272.143603 
L 216.354296 -272.133232 
L 215.744349 -272.134641 
L 215.134401 -272.136495 
L 214.524454 -272.133501 
L 213.914507 -272.13362 
L 213.30456 -272.094897 
L 212.694613 -272.094983 
L 212.084666 -272.094874 
L 211.474718 -272.066367 
L 210.864771 -272.065403 
L 210.254824 -272.06536 
L 209.644877 -272.066027 
L 209.03493 -272.053586 
L 208.424983 -272.033315 
L 207.815035 -272.036257 
L 207.205088 -272.047202 
L 206.595141 -272.034534 
L 205.985194 -272.041512 
L 205.375247 -272.036167 
L 204.7653 -272.059755 
L 204.155352 -272.057164 
L 203.545405 -272.049225 
L 202.935458 -272.032589 
L 202.325511 -272.043812 
L 201.715564 -272.031834 
L 201.105617 -272.032044 
L 200.495669 -272.031566 
L 199.885722 -272.032141 
L 199.275775 -272.045687 
L 198.665828 -272.030088 
L 198.055881 -272.029315 
L 197.445934 -272.043355 
L 196.835986 -272.030795 
L 196.226039 -272.029915 
L 195.616092 -272.02981 
L 195.006145 -272.028584 
L 194.396198 -272.02782 
L 193.786251 -272.027404 
L 193.176303 -272.000724 
L 192.566356 -272.004087 
L 191.956409 -272.00051 
L 191.346462 -272.000067 
L 190.736515 -271.999682 
L 190.126568 -272.000822 
L 189.51662 -272.00928 
L 188.906673 -272.006753 
L 188.296726 -272.000393 
L 187.686779 -272.001889 
L 187.076832 -272.000349 
L 186.466885 -271.999318 
L 185.856937 -271.997687 
L 185.24699 -271.906913 
L 184.637043 -271.883422 
L 184.027096 -271.886338 
L 183.417149 -271.881609 
L 182.807202 -271.881901 
L 182.197254 -271.882628 
L 181.587307 -271.798474 
L 180.97736 -271.805655 
L 180.367413 -271.821495 
L 179.757466 -271.794636 
L 179.147519 -271.81005 
L 178.537571 -271.799061 
L 177.927624 -271.819061 
L 177.317677 -271.793472 
L 176.70773 -271.825805 
L 176.097783 -271.792865 
L 175.487836 -271.544682 
L 174.877888 -271.558476 
L 174.267941 -271.540892 
L 173.657994 -271.543186 
L 173.048047 -271.539203 
L 172.4381 -271.423097 
L 171.828153 -271.412665 
L 171.218205 -271.413543 
L 170.608258 -271.419144 
L 169.998311 -271.407541 
L 169.388364 -271.413684 
L 168.778417 -271.410203 
L 168.16847 -271.24054 
L 167.558522 -271.240147 
L 166.948575 -271.23832 
L 166.338628 -271.236044 
L 165.728681 -270.412008 
L 165.118734 -270.412153 
L 164.508787 -270.411514 
L 163.898839 -270.207759 
L 163.288892 -270.207439 
L 162.678945 -270.208224 
L 162.068998 -270.207426 
L 161.459051 -270.209467 
L 160.849104 -270.207487 
L 160.239156 -270.207195 
L 159.629209 -270.207842 
L 159.019262 -270.206461 
L 158.409315 -269.656951 
L 157.799368 -269.65558 
L 157.189421 -269.656035 
L 156.579473 -269.655224 
L 155.969526 -269.65624 
L 155.359579 -269.655897 
L 154.749632 -269.65355 
L 154.139685 -269.656488 
L 153.529738 -269.654823 
L 152.91979 -269.656144 
L 152.309843 -269.654619 
L 151.699896 -268.903493 
L 151.089949 -268.906955 
L 150.480002 -268.907754 
L 149.870055 -268.436684 
L 149.260107 -268.24172 
L 148.65016 -268.241956 
L 148.040213 -268.140213 
L 147.430266 -268.138727 
L 146.820319 -268.138904 
L 146.210372 -268.138575 
L 145.600424 -268.134676 
L 144.990477 -268.13711 
L 144.38053 -268.136294 
L 143.770583 -268.138455 
L 143.160636 -267.93702 
L 142.550689 -267.898276 
L 141.940741 -267.896159 
L 141.330794 -267.881782 
L 140.720847 -267.881333 
L 140.1109 -267.880924 
L 139.500953 -267.880967 
L 138.891006 -267.880184 
L 138.281058 -267.880822 
L 137.671111 -267.878538 
L 137.061164 -267.882053 
L 136.451217 -267.882353 
L 135.84127 -267.879678 
L 135.231323 -267.87858 
L 134.621375 -267.26544 
L 134.011428 -267.265629 
L 133.401481 -267.260956 
L 132.791534 -267.266785 
L 132.181587 -267.266312 
L 131.57164 -267.266049 
L 130.961692 -267.263332 
L 130.351745 -267.266304 
L 129.741798 -266.839537 
L 129.131851 -266.839251 
L 128.521904 -266.839294 
L 127.911957 -266.838729 
L 127.302009 -266.675625 
L 126.692062 -266.674275 
L 126.082115 -266.421472 
L 125.472168 -266.420696 
L 124.862221 -266.421829 
L 124.252274 -266.420685 
L 123.642326 -266.420203 
L 123.032379 -266.222661 
L 122.422432 -266.221667 
L 121.812485 -266.220468 
L 121.202538 -265.685179 
L 120.592591 -265.685792 
L 119.982643 -265.685224 
L 119.372696 -265.684152 
L 118.762749 -265.684995 
L 118.152802 -265.684283 
L 117.542855 -265.685238 
L 116.932908 -265.682647 
L 116.32296 -265.347574 
L 115.713013 -265.151274 
L 115.103066 -265.153214 
L 114.493119 -265.151478 
L 113.883172 -265.151458 
L 113.273225 -265.150874 
L 112.663277 -265.149445 
L 112.05333 -265.153154 
L 111.443383 -265.150725 
L 110.833436 -265.149681 
L 110.223489 -264.841422 
L 109.613542 -264.839996 
L 109.003594 -264.801502 
L 108.393647 -264.473614 
L 107.7837 -264.806594 
L 107.173753 -264.801969 
L 106.563806 -264.802858 
L 105.953859 -264.799985 
L 105.343911 -264.801115 
L 104.733964 -264.087247 
L 104.124017 -263.917795 
L 103.51407 -263.91784 
L 102.904123 -263.632516 
L 102.294176 -263.63246 
L 101.684228 -263.634022 
L 101.074281 -263.633065 
L 100.464334 -263.633316 
L 99.854387 -263.633377 
L 99.24444 -262.050855 
L 98.634493 -262.053534 
L 98.024545 -262.052309 
L 97.414598 -262.048105 
L 96.804651 -262.049429 
L 96.194704 -262.054617 
L 95.584757 -262.056242 
L 94.97481 -262.053604 
L 94.364862 -262.051388 
L 93.754915 -261.009512 
L 93.144968 -261.005893 
L 92.535021 -260.827474 
L 91.925074 -260.821004 
L 91.315127 -260.224198 
L 90.705179 -260.232323 
L 90.095232 -260.224594 
L 89.485285 -260.227942 
L 88.875338 -260.097207 
L 88.265391 -259.514241 
L 87.655444 -259.517186 
L 87.045496 -259.512838 
L 86.435549 -258.716994 
L 85.825602 -258.716221 
L 85.215655 -258.717051 
L 84.605708 -260.011619 
L 83.99576 -260.009828 
L 83.385813 -258.716884 
L 82.775866 -257.326057 
L 82.165919 -256.541156 
L 81.555972 -255.525342 
L 80.946025 -255.52182 
L 80.336077 -255.514024 
L 79.72613 -255.522153 
L 79.116183 -255.519696 
L 78.506236 -253.61364 
L 77.896289 -253.614103 
L 77.286342 -253.613264 
L 76.676394 -253.61302 
L 76.066447 -253.612653 
L 75.4565 -253.613221 
L 74.846553 -255.301202 
L 74.236606 -255.299999 
L 73.626659 -255.297571 
L 73.016711 -255.300979 
L 72.406764 -255.301146 
L 71.796817 -253.611808 
L 71.18687 -253.612488 
L 70.576923 -253.611811 
L 69.966976 -253.614597 
L 69.357028 -253.61163 
L 68.747081 -245.110372 
L 68.137134 -245.109523 
L 67.527187 -242.086099 
L 66.91724 -242.085681 
L 66.307293 -242.087032 
L 65.697345 -242.084194 
L 65.087398 -243.277617 
L 64.477451 -243.276162 
L 63.867504 -222.526174 
L 63.257557 -213.627125 
z
" style="stroke: #0000ff; stroke-opacity: 0.2"/>
    </defs>
    <g clip-path="url(#p31047b9f4e)">
     <use xlink:href="#maaea066299" x="0" y="291.918992" style="fill: #0000ff; fill-opacity: 0.2; stroke: #0000ff; stroke-opacity: 0.2"/>
    </g>
   </g>
   <g id="matplotlib.axis_1">
    <g id="xtick_1">
     <g id="line2d_1">
      <path d="M 63.257557 257.591492 
L 63.257557 8.111492 
" clip-path="url(#p31047b9f4e)" style="fill: none; stroke: #b0b0b0; stroke-width: 0.5; stroke-linecap: square"/>
     </g>
     <g id="line2d_2">
      <defs>
       <path id="mc1e58efff0" d="M 0 0 
L 0 -3 
" style="stroke: #000000; stroke-width: 0.5"/>
      </defs>
      <g>
       <use xlink:href="#mc1e58efff0" x="63.257557" y="257.591492" style="stroke: #000000; stroke-width: 0.5"/>
      </g>
     </g>
     <g id="line2d_3">
      <defs>
       <path id="m93d806813e" d="M 0 0 
L 0 3 
" style="stroke: #000000; stroke-width: 0.5"/>
      </defs>
      <g>
       <use xlink:href="#m93d806813e" x="63.257557" y="8.111492" style="stroke: #000000; stroke-width: 0.5"/>
      </g>
     </g>
     <g id="text_1">
      <!-- 0 -->
      <g transform="translate(59.440057 270.209617) scale(0.12 -0.12)">
       <defs>
        <path id="DejaVuSans-30" d="M 2034 4250 
Q 1547 4250 1301 3770 
Q 1056 3291 1056 2328 
Q 1056 1369 1301 889 
Q 1547 409 2034 409 
Q 2525 409 2770 889 
Q 3016 1369 3016 2328 
Q 3016 3291 2770 3770 
Q 2525 4250 2034 4250 
z
M 2034 4750 
Q 2819 4750 3233 4129 
Q 3647 3509 3647 2328 
Q 3647 1150 3233 529 
Q 2819 -91 2034 -91 
Q 1250 -91 836 529 
Q 422 1150 422 2328 
Q 422 3509 836 4129 
Q 1250 4750 2034 4750 
z
" transform="scale(0.015625)"/>
       </defs>
       <use xlink:href="#DejaVuSans-30"/>
      </g>
     </g>
    </g>
    <g id="xtick_2">
     <g id="line2d_4">
      <path d="M 124.252274 257.591492 
L 124.252274 8.111492 
" clip-path="url(#p31047b9f4e)" style="fill: none; stroke: #b0b0b0; stroke-width: 0.5; stroke-linecap: square"/>
     </g>
     <g id="line2d_5">
      <g>
       <use xlink:href="#mc1e58efff0" x="124.252274" y="257.591492" style="stroke: #000000; stroke-width: 0.5"/>
      </g>
     </g>
     <g id="line2d_6">
      <g>
       <use xlink:href="#m93d806813e" x="124.252274" y="8.111492" style="stroke: #000000; stroke-width: 0.5"/>
      </g>
     </g>
     <g id="text_2">
      <!-- 100 -->
      <g transform="translate(112.799774 270.209617) scale(0.12 -0.12)">
       <defs>
        <path id="DejaVuSans-31" d="M 794 531 
L 1825 531 
L 1825 4091 
L 703 3866 
L 703 4441 
L 1819 4666 
L 2450 4666 
L 2450 531 
L 3481 531 
L 3481 0 
L 794 0 
L 794 531 
z
" transform="scale(0.015625)"/>
       </defs>
       <use xlink:href="#DejaVuSans-31"/>
       <use xlink:href="#DejaVuSans-30" x="63.623047"/>
       <use xlink:href="#DejaVuSans-30" x="127.246094"/>
      </g>
     </g>
    </g>
    <g id="xtick_3">
     <g id="line2d_7">
      <path d="M 185.24699 257.591492 
L 185.24699 8.111492 
" clip-path="url(#p31047b9f4e)" style="fill: none; stroke: #b0b0b0; stroke-width: 0.5; stroke-linecap: square"/>
     </g>
     <g id="line2d_8">
      <g>
       <use xlink:href="#mc1e58efff0" x="185.24699" y="257.591492" style="stroke: #000000; stroke-width: 0.5"/>
      </g>
     </g>
     <g id="line2d_9">
      <g>
       <use xlink:href="#m93d806813e" x="185.24699" y="8.111492" style="stroke: #000000; stroke-width: 0.5"/>
      </g>
     </g>
     <g id="text_3">
      <!-- 200 -->
      <g transform="translate(173.79449 270.209617) scale(0.12 -0.12)">
       <defs>
        <path id="DejaVuSans-32" d="M 1228 531 
L 3431 531 
L 3431 0 
L 469 0 
L 469 531 
Q 828 903 1448 1529 
Q 2069 2156 2228 2338 
Q 2531 2678 2651 2914 
Q 2772 3150 2772 3378 
Q 2772 3750 2511 3984 
Q 2250 4219 1831 4219 
Q 1534 4219 1204 4116 
Q 875 4013 500 3803 
L 500 4441 
Q 881 4594 1212 4672 
Q 1544 4750 1819 4750 
Q 2544 4750 2975 4387 
Q 3406 4025 3406 3419 
Q 3406 3131 3298 2873 
Q 3191 2616 2906 2266 
Q 2828 2175 2409 1742 
Q 1991 1309 1228 531 
z
" transform="scale(0.015625)"/>
       </defs>
       <use xlink:href="#DejaVuSans-32"/>
       <use xlink:href="#DejaVuSans-30" x="63.623047"/>
       <use xlink:href="#DejaVuSans-30" x="127.246094"/>
      </g>
     </g>
    </g>
    <g id="xtick_4">
     <g id="line2d_10">
      <path d="M 246.241707 257.591492 
L 246.241707 8.111492 
" clip-path="url(#p31047b9f4e)" style="fill: none; stroke: #b0b0b0; stroke-width: 0.5; stroke-linecap: square"/>
     </g>
     <g id="line2d_11">
      <g>
       <use xlink:href="#mc1e58efff0" x="246.241707" y="257.591492" style="stroke: #000000; stroke-width: 0.5"/>
      </g>
     </g>
     <g id="line2d_12">
      <g>
       <use xlink:href="#m93d806813e" x="246.241707" y="8.111492" style="stroke: #000000; stroke-width: 0.5"/>
      </g>
     </g>
     <g id="text_4">
      <!-- 300 -->
      <g transform="translate(234.789207 270.209617) scale(0.12 -0.12)">
       <defs>
        <path id="DejaVuSans-33" d="M 2597 2516 
Q 3050 2419 3304 2112 
Q 3559 1806 3559 1356 
Q 3559 666 3084 287 
Q 2609 -91 1734 -91 
Q 1441 -91 1130 -33 
Q 819 25 488 141 
L 488 750 
Q 750 597 1062 519 
Q 1375 441 1716 441 
Q 2309 441 2620 675 
Q 2931 909 2931 1356 
Q 2931 1769 2642 2001 
Q 2353 2234 1838 2234 
L 1294 2234 
L 1294 2753 
L 1863 2753 
Q 2328 2753 2575 2939 
Q 2822 3125 2822 3475 
Q 2822 3834 2567 4026 
Q 2313 4219 1838 4219 
Q 1578 4219 1281 4162 
Q 984 4106 628 3988 
L 628 4550 
Q 988 4650 1302 4700 
Q 1616 4750 1894 4750 
Q 2613 4750 3031 4423 
Q 3450 4097 3450 3541 
Q 3450 3153 3228 2886 
Q 3006 2619 2597 2516 
z
" transform="scale(0.015625)"/>
       </defs>
       <use xlink:href="#DejaVuSans-33"/>
       <use xlink:href="#DejaVuSans-30" x="63.623047"/>
       <use xlink:href="#DejaVuSans-30" x="127.246094"/>
      </g>
     </g>
    </g>
    <g id="xtick_5">
     <g id="line2d_13">
      <path d="M 307.236424 257.591492 
L 307.236424 8.111492 
" clip-path="url(#p31047b9f4e)" style="fill: none; stroke: #b0b0b0; stroke-width: 0.5; stroke-linecap: square"/>
     </g>
     <g id="line2d_14">
      <g>
       <use xlink:href="#mc1e58efff0" x="307.236424" y="257.591492" style="stroke: #000000; stroke-width: 0.5"/>
      </g>
     </g>
     <g id="line2d_15">
      <g>
       <use xlink:href="#m93d806813e" x="307.236424" y="8.111492" style="stroke: #000000; stroke-width: 0.5"/>
      </g>
     </g>
     <g id="text_5">
      <!-- 400 -->
      <g transform="translate(295.783924 270.209617) scale(0.12 -0.12)">
       <defs>
        <path id="DejaVuSans-34" d="M 2419 4116 
L 825 1625 
L 2419 1625 
L 2419 4116 
z
M 2253 4666 
L 3047 4666 
L 3047 1625 
L 3713 1625 
L 3713 1100 
L 3047 1100 
L 3047 0 
L 2419 0 
L 2419 1100 
L 313 1100 
L 313 1709 
L 2253 4666 
z
" transform="scale(0.015625)"/>
       </defs>
       <use xlink:href="#DejaVuSans-34"/>
       <use xlink:href="#DejaVuSans-30" x="63.623047"/>
       <use xlink:href="#DejaVuSans-30" x="127.246094"/>
      </g>
     </g>
    </g>
    <g id="xtick_6">
     <g id="line2d_16">
      <path d="M 368.23114 257.591492 
L 368.23114 8.111492 
" clip-path="url(#p31047b9f4e)" style="fill: none; stroke: #b0b0b0; stroke-width: 0.5; stroke-linecap: square"/>
     </g>
     <g id="line2d_17">
      <g>
       <use xlink:href="#mc1e58efff0" x="368.23114" y="257.591492" style="stroke: #000000; stroke-width: 0.5"/>
      </g>
     </g>
     <g id="line2d_18">
      <g>
       <use xlink:href="#m93d806813e" x="368.23114" y="8.111492" style="stroke: #000000; stroke-width: 0.5"/>
      </g>
     </g>
     <g id="text_6">
      <!-- 500 -->
      <g transform="translate(356.77864 270.209617) scale(0.12 -0.12)">
       <defs>
        <path id="DejaVuSans-35" d="M 691 4666 
L 3169 4666 
L 3169 4134 
L 1269 4134 
L 1269 2991 
Q 1406 3038 1543 3061 
Q 1681 3084 1819 3084 
Q 2600 3084 3056 2656 
Q 3513 2228 3513 1497 
Q 3513 744 3044 326 
Q 2575 -91 1722 -91 
Q 1428 -91 1123 -41 
Q 819 9 494 109 
L 494 744 
Q 775 591 1075 516 
Q 1375 441 1709 441 
Q 2250 441 2565 725 
Q 2881 1009 2881 1497 
Q 2881 1984 2565 2268 
Q 2250 2553 1709 2553 
Q 1456 2553 1204 2497 
Q 953 2441 691 2322 
L 691 4666 
z
" transform="scale(0.015625)"/>
       </defs>
       <use xlink:href="#DejaVuSans-35"/>
       <use xlink:href="#DejaVuSans-30" x="63.623047"/>
       <use xlink:href="#DejaVuSans-30" x="127.246094"/>
      </g>
     </g>
    </g>
    <g id="xtick_7">
     <g id="line2d_19">
      <defs>
       <path id="m4b53a39fb1" d="M 0 0 
L 0 -1.5 
" style="stroke: #000000; stroke-width: 0.5"/>
      </defs>
      <g>
       <use xlink:href="#m4b53a39fb1" x="51.058613" y="257.591492" style="stroke: #000000; stroke-width: 0.5"/>
      </g>
     </g>
     <g id="line2d_20">
      <defs>
       <path id="m6e27634c4b" d="M 0 0 
L 0 1.5 
" style="stroke: #000000; stroke-width: 0.5"/>
      </defs>
      <g>
       <use xlink:href="#m6e27634c4b" x="51.058613" y="8.111492" style="stroke: #000000; stroke-width: 0.5"/>
      </g>
     </g>
    </g>
    <g id="xtick_8">
     <g id="line2d_21">
      <g>
       <use xlink:href="#m4b53a39fb1" x="75.4565" y="257.591492" style="stroke: #000000; stroke-width: 0.5"/>
      </g>
     </g>
     <g id="line2d_22">
      <g>
       <use xlink:href="#m6e27634c4b" x="75.4565" y="8.111492" style="stroke: #000000; stroke-width: 0.5"/>
      </g>
     </g>
    </g>
    <g id="xtick_9">
     <g id="line2d_23">
      <g>
       <use xlink:href="#m4b53a39fb1" x="87.655444" y="257.591492" style="stroke: #000000; stroke-width: 0.5"/>
      </g>
     </g>
     <g id="line2d_24">
      <g>
       <use xlink:href="#m6e27634c4b" x="87.655444" y="8.111492" style="stroke: #000000; stroke-width: 0.5"/>
      </g>
     </g>
    </g>
    <g id="xtick_10">
     <g id="line2d_25">
      <g>
       <use xlink:href="#m4b53a39fb1" x="99.854387" y="257.591492" style="stroke: #000000; stroke-width: 0.5"/>
      </g>
     </g>
     <g id="line2d_26">
      <g>
       <use xlink:href="#m6e27634c4b" x="99.854387" y="8.111492" style="stroke: #000000; stroke-width: 0.5"/>
      </g>
     </g>
    </g>
    <g id="xtick_11">
     <g id="line2d_27">
      <g>
       <use xlink:href="#m4b53a39fb1" x="112.05333" y="257.591492" style="stroke: #000000; stroke-width: 0.5"/>
      </g>
     </g>
     <g id="line2d_28">
      <g>
       <use xlink:href="#m6e27634c4b" x="112.05333" y="8.111492" style="stroke: #000000; stroke-width: 0.5"/>
      </g>
     </g>
    </g>
    <g id="xtick_12">
     <g id="line2d_29">
      <g>
       <use xlink:href="#m4b53a39fb1" x="136.451217" y="257.591492" style="stroke: #000000; stroke-width: 0.5"/>
      </g>
     </g>
     <g id="line2d_30">
      <g>
       <use xlink:href="#m6e27634c4b" x="136.451217" y="8.111492" style="stroke: #000000; stroke-width: 0.5"/>
      </g>
     </g>
    </g>
    <g id="xtick_13">
     <g id="line2d_31">
      <g>
       <use xlink:href="#m4b53a39fb1" x="148.65016" y="257.591492" style="stroke: #000000; stroke-width: 0.5"/>
      </g>
     </g>
     <g id="line2d_32">
      <g>
       <use xlink:href="#m6e27634c4b" x="148.65016" y="8.111492" style="stroke: #000000; stroke-width: 0.5"/>
      </g>
     </g>
    </g>
    <g id="xtick_14">
     <g id="line2d_33">
      <g>
       <use xlink:href="#m4b53a39fb1" x="160.849104" y="257.591492" style="stroke: #000000; stroke-width: 0.5"/>
      </g>
     </g>
     <g id="line2d_34">
      <g>
       <use xlink:href="#m6e27634c4b" x="160.849104" y="8.111492" style="stroke: #000000; stroke-width: 0.5"/>
      </g>
     </g>
    </g>
    <g id="xtick_15">
     <g id="line2d_35">
      <g>
       <use xlink:href="#m4b53a39fb1" x="173.048047" y="257.591492" style="stroke: #000000; stroke-width: 0.5"/>
      </g>
     </g>
     <g id="line2d_36">
      <g>
       <use xlink:href="#m6e27634c4b" x="173.048047" y="8.111492" style="stroke: #000000; stroke-width: 0.5"/>
      </g>
     </g>
    </g>
    <g id="xtick_16">
     <g id="line2d_37">
      <g>
       <use xlink:href="#m4b53a39fb1" x="197.445934" y="257.591492" style="stroke: #000000; stroke-width: 0.5"/>
      </g>
     </g>
     <g id="line2d_38">
      <g>
       <use xlink:href="#m6e27634c4b" x="197.445934" y="8.111492" style="stroke: #000000; stroke-width: 0.5"/>
      </g>
     </g>
    </g>
    <g id="xtick_17">
     <g id="line2d_39">
      <g>
       <use xlink:href="#m4b53a39fb1" x="209.644877" y="257.591492" style="stroke: #000000; stroke-width: 0.5"/>
      </g>
     </g>
     <g id="line2d_40">
      <g>
       <use xlink:href="#m6e27634c4b" x="209.644877" y="8.111492" style="stroke: #000000; stroke-width: 0.5"/>
      </g>
     </g>
    </g>
    <g id="xtick_18">
     <g id="line2d_41">
      <g>
       <use xlink:href="#m4b53a39fb1" x="221.84382" y="257.591492" style="stroke: #000000; stroke-width: 0.5"/>
      </g>
     </g>
     <g id="line2d_42">
      <g>
       <use xlink:href="#m6e27634c4b" x="221.84382" y="8.111492" style="stroke: #000000; stroke-width: 0.5"/>
      </g>
     </g>
    </g>
    <g id="xtick_19">
     <g id="line2d_43">
      <g>
       <use xlink:href="#m4b53a39fb1" x="234.042764" y="257.591492" style="stroke: #000000; stroke-width: 0.5"/>
      </g>
     </g>
     <g id="line2d_44">
      <g>
       <use xlink:href="#m6e27634c4b" x="234.042764" y="8.111492" style="stroke: #000000; stroke-width: 0.5"/>
      </g>
     </g>
    </g>
    <g id="xtick_20">
     <g id="line2d_45">
      <g>
       <use xlink:href="#m4b53a39fb1" x="258.44065" y="257.591492" style="stroke: #000000; stroke-width: 0.5"/>
      </g>
     </g>
     <g id="line2d_46">
      <g>
       <use xlink:href="#m6e27634c4b" x="258.44065" y="8.111492" style="stroke: #000000; stroke-width: 0.5"/>
      </g>
     </g>
    </g>
    <g id="xtick_21">
     <g id="line2d_47">
      <g>
       <use xlink:href="#m4b53a39fb1" x="270.639594" y="257.591492" style="stroke: #000000; stroke-width: 0.5"/>
      </g>
     </g>
     <g id="line2d_48">
      <g>
       <use xlink:href="#m6e27634c4b" x="270.639594" y="8.111492" style="stroke: #000000; stroke-width: 0.5"/>
      </g>
     </g>
    </g>
    <g id="xtick_22">
     <g id="line2d_49">
      <g>
       <use xlink:href="#m4b53a39fb1" x="282.838537" y="257.591492" style="stroke: #000000; stroke-width: 0.5"/>
      </g>
     </g>
     <g id="line2d_50">
      <g>
       <use xlink:href="#m6e27634c4b" x="282.838537" y="8.111492" style="stroke: #000000; stroke-width: 0.5"/>
      </g>
     </g>
    </g>
    <g id="xtick_23">
     <g id="line2d_51">
      <g>
       <use xlink:href="#m4b53a39fb1" x="295.03748" y="257.591492" style="stroke: #000000; stroke-width: 0.5"/>
      </g>
     </g>
     <g id="line2d_52">
      <g>
       <use xlink:href="#m6e27634c4b" x="295.03748" y="8.111492" style="stroke: #000000; stroke-width: 0.5"/>
      </g>
     </g>
    </g>
    <g id="xtick_24">
     <g id="line2d_53">
      <g>
       <use xlink:href="#m4b53a39fb1" x="319.435367" y="257.591492" style="stroke: #000000; stroke-width: 0.5"/>
      </g>
     </g>
     <g id="line2d_54">
      <g>
       <use xlink:href="#m6e27634c4b" x="319.435367" y="8.111492" style="stroke: #000000; stroke-width: 0.5"/>
      </g>
     </g>
    </g>
    <g id="xtick_25">
     <g id="line2d_55">
      <g>
       <use xlink:href="#m4b53a39fb1" x="331.63431" y="257.591492" style="stroke: #000000; stroke-width: 0.5"/>
      </g>
     </g>
     <g id="line2d_56">
      <g>
       <use xlink:href="#m6e27634c4b" x="331.63431" y="8.111492" style="stroke: #000000; stroke-width: 0.5"/>
      </g>
     </g>
    </g>
    <g id="xtick_26">
     <g id="line2d_57">
      <g>
       <use xlink:href="#m4b53a39fb1" x="343.833254" y="257.591492" style="stroke: #000000; stroke-width: 0.5"/>
      </g>
     </g>
     <g id="line2d_58">
      <g>
       <use xlink:href="#m6e27634c4b" x="343.833254" y="8.111492" style="stroke: #000000; stroke-width: 0.5"/>
      </g>
     </g>
    </g>
    <g id="xtick_27">
     <g id="line2d_59">
      <g>
       <use xlink:href="#m4b53a39fb1" x="356.032197" y="257.591492" style="stroke: #000000; stroke-width: 0.5"/>
      </g>
     </g>
     <g id="line2d_60">
      <g>
       <use xlink:href="#m6e27634c4b" x="356.032197" y="8.111492" style="stroke: #000000; stroke-width: 0.5"/>
      </g>
     </g>
    </g>
    <g id="xtick_28">
     <g id="line2d_61">
      <g>
       <use xlink:href="#m4b53a39fb1" x="380.430084" y="257.591492" style="stroke: #000000; stroke-width: 0.5"/>
      </g>
     </g>
     <g id="line2d_62">
      <g>
       <use xlink:href="#m6e27634c4b" x="380.430084" y="8.111492" style="stroke: #000000; stroke-width: 0.5"/>
      </g>
     </g>
    </g>
    <g id="text_7">
     <!-- Generations -->
     <g transform="translate(178.842188 285.823367) scale(0.12 -0.12)">
      <defs>
       <path id="DejaVuSans-47" d="M 3809 666 
L 3809 1919 
L 2778 1919 
L 2778 2438 
L 4434 2438 
L 4434 434 
Q 4069 175 3628 42 
Q 3188 -91 2688 -91 
Q 1594 -91 976 548 
Q 359 1188 359 2328 
Q 359 3472 976 4111 
Q 1594 4750 2688 4750 
Q 3144 4750 3555 4637 
Q 3966 4525 4313 4306 
L 4313 3634 
Q 3963 3931 3569 4081 
Q 3175 4231 2741 4231 
Q 1884 4231 1454 3753 
Q 1025 3275 1025 2328 
Q 1025 1384 1454 906 
Q 1884 428 2741 428 
Q 3075 428 3337 486 
Q 3600 544 3809 666 
z
" transform="scale(0.015625)"/>
       <path id="DejaVuSans-65" d="M 3597 1894 
L 3597 1613 
L 953 1613 
Q 991 1019 1311 708 
Q 1631 397 2203 397 
Q 2534 397 2845 478 
Q 3156 559 3463 722 
L 3463 178 
Q 3153 47 2828 -22 
Q 2503 -91 2169 -91 
Q 1331 -91 842 396 
Q 353 884 353 1716 
Q 353 2575 817 3079 
Q 1281 3584 2069 3584 
Q 2775 3584 3186 3129 
Q 3597 2675 3597 1894 
z
M 3022 2063 
Q 3016 2534 2758 2815 
Q 2500 3097 2075 3097 
Q 1594 3097 1305 2825 
Q 1016 2553 972 2059 
L 3022 2063 
z
" transform="scale(0.015625)"/>
       <path id="DejaVuSans-6e" d="M 3513 2113 
L 3513 0 
L 2938 0 
L 2938 2094 
Q 2938 2591 2744 2837 
Q 2550 3084 2163 3084 
Q 1697 3084 1428 2787 
Q 1159 2491 1159 1978 
L 1159 0 
L 581 0 
L 581 3500 
L 1159 3500 
L 1159 2956 
Q 1366 3272 1645 3428 
Q 1925 3584 2291 3584 
Q 2894 3584 3203 3211 
Q 3513 2838 3513 2113 
z
" transform="scale(0.015625)"/>
       <path id="DejaVuSans-72" d="M 2631 2963 
Q 2534 3019 2420 3045 
Q 2306 3072 2169 3072 
Q 1681 3072 1420 2755 
Q 1159 2438 1159 1844 
L 1159 0 
L 581 0 
L 581 3500 
L 1159 3500 
L 1159 2956 
Q 1341 3275 1631 3429 
Q 1922 3584 2338 3584 
Q 2397 3584 2469 3576 
Q 2541 3569 2628 3553 
L 2631 2963 
z
" transform="scale(0.015625)"/>
       <path id="DejaVuSans-61" d="M 2194 1759 
Q 1497 1759 1228 1600 
Q 959 1441 959 1056 
Q 959 750 1161 570 
Q 1363 391 1709 391 
Q 2188 391 2477 730 
Q 2766 1069 2766 1631 
L 2766 1759 
L 2194 1759 
z
M 3341 1997 
L 3341 0 
L 2766 0 
L 2766 531 
Q 2569 213 2275 61 
Q 1981 -91 1556 -91 
Q 1019 -91 701 211 
Q 384 513 384 1019 
Q 384 1609 779 1909 
Q 1175 2209 1959 2209 
L 2766 2209 
L 2766 2266 
Q 2766 2663 2505 2880 
Q 2244 3097 1772 3097 
Q 1472 3097 1187 3025 
Q 903 2953 641 2809 
L 641 3341 
Q 956 3463 1253 3523 
Q 1550 3584 1831 3584 
Q 2591 3584 2966 3190 
Q 3341 2797 3341 1997 
z
" transform="scale(0.015625)"/>
       <path id="DejaVuSans-74" d="M 1172 4494 
L 1172 3500 
L 2356 3500 
L 2356 3053 
L 1172 3053 
L 1172 1153 
Q 1172 725 1289 603 
Q 1406 481 1766 481 
L 2356 481 
L 2356 0 
L 1766 0 
Q 1100 0 847 248 
Q 594 497 594 1153 
L 594 3053 
L 172 3053 
L 172 3500 
L 594 3500 
L 594 4494 
L 1172 4494 
z
" transform="scale(0.015625)"/>
       <path id="DejaVuSans-69" d="M 603 3500 
L 1178 3500 
L 1178 0 
L 603 0 
L 603 3500 
z
M 603 4863 
L 1178 4863 
L 1178 4134 
L 603 4134 
L 603 4863 
z
" transform="scale(0.015625)"/>
       <path id="DejaVuSans-6f" d="M 1959 3097 
Q 1497 3097 1228 2736 
Q 959 2375 959 1747 
Q 959 1119 1226 758 
Q 1494 397 1959 397 
Q 2419 397 2687 759 
Q 2956 1122 2956 1747 
Q 2956 2369 2687 2733 
Q 2419 3097 1959 3097 
z
M 1959 3584 
Q 2709 3584 3137 3096 
Q 3566 2609 3566 1747 
Q 3566 888 3137 398 
Q 2709 -91 1959 -91 
Q 1206 -91 779 398 
Q 353 888 353 1747 
Q 353 2609 779 3096 
Q 1206 3584 1959 3584 
z
" transform="scale(0.015625)"/>
       <path id="DejaVuSans-73" d="M 2834 3397 
L 2834 2853 
Q 2591 2978 2328 3040 
Q 2066 3103 1784 3103 
Q 1356 3103 1142 2972 
Q 928 2841 928 2578 
Q 928 2378 1081 2264 
Q 1234 2150 1697 2047 
L 1894 2003 
Q 2506 1872 2764 1633 
Q 3022 1394 3022 966 
Q 3022 478 2636 193 
Q 2250 -91 1575 -91 
Q 1294 -91 989 -36 
Q 684 19 347 128 
L 347 722 
Q 666 556 975 473 
Q 1284 391 1588 391 
Q 1994 391 2212 530 
Q 2431 669 2431 922 
Q 2431 1156 2273 1281 
Q 2116 1406 1581 1522 
L 1381 1569 
Q 847 1681 609 1914 
Q 372 2147 372 2553 
Q 372 3047 722 3315 
Q 1072 3584 1716 3584 
Q 2034 3584 2315 3537 
Q 2597 3491 2834 3397 
z
" transform="scale(0.015625)"/>
      </defs>
      <use xlink:href="#DejaVuSans-47"/>
      <use xlink:href="#DejaVuSans-65" x="77.490234"/>
      <use xlink:href="#DejaVuSans-6e" x="139.013672"/>
      <use xlink:href="#DejaVuSans-65" x="202.392578"/>
      <use xlink:href="#DejaVuSans-72" x="263.916016"/>
      <use xlink:href="#DejaVuSans-61" x="305.029297"/>
      <use xlink:href="#DejaVuSans-74" x="366.308594"/>
      <use xlink:href="#DejaVuSans-69" x="405.517578"/>
      <use xlink:href="#DejaVuSans-6f" x="433.300781"/>
      <use xlink:href="#DejaVuSans-6e" x="494.482422"/>
      <use xlink:href="#DejaVuSans-73" x="557.861328"/>
     </g>
    </g>
   </g>
   <g id="matplotlib.axis_2">
    <g id="ytick_1">
     <g id="line2d_63">
      <path d="M 48.039375 248.1247 
L 382.839375 248.1247 
" clip-path="url(#p31047b9f4e)" style="fill: none; stroke: #b0b0b0; stroke-width: 0.5; stroke-linecap: square"/>
     </g>
     <g id="line2d_64">
      <defs>
       <path id="m631cfcf365" d="M 0 0 
L 3 0 
" style="stroke: #000000; stroke-width: 0.5"/>
      </defs>
      <g>
       <use xlink:href="#m631cfcf365" x="48.039375" y="248.1247" style="stroke: #000000; stroke-width: 0.5"/>
      </g>
     </g>
     <g id="line2d_65">
      <defs>
       <path id="m69bbbf6bf2" d="M 0 0 
L -3 0 
" style="stroke: #000000; stroke-width: 0.5"/>
      </defs>
      <g>
       <use xlink:href="#m69bbbf6bf2" x="382.839375" y="248.1247" style="stroke: #000000; stroke-width: 0.5"/>
      </g>
     </g>
     <g id="text_8">
      <!-- −10 -->
      <g transform="translate(19.21375 252.683763) scale(0.12 -0.12)">
       <defs>
        <path id="DejaVuSans-2212" d="M 678 2272 
L 4684 2272 
L 4684 1741 
L 678 1741 
L 678 2272 
z
" transform="scale(0.015625)"/>
       </defs>
       <use xlink:href="#DejaVuSans-2212"/>
       <use xlink:href="#DejaVuSans-31" x="83.789062"/>
       <use xlink:href="#DejaVuSans-30" x="147.412109"/>
      </g>
     </g>
    </g>
    <g id="ytick_2">
     <g id="line2d_66">
      <path d="M 48.039375 213.843895 
L 382.839375 213.843895 
" clip-path="url(#p31047b9f4e)" style="fill: none; stroke: #b0b0b0; stroke-width: 0.5; stroke-linecap: square"/>
     </g>
     <g id="line2d_67">
      <g>
       <use xlink:href="#m631cfcf365" x="48.039375" y="213.843895" style="stroke: #000000; stroke-width: 0.5"/>
      </g>
     </g>
     <g id="line2d_68">
      <g>
       <use xlink:href="#m69bbbf6bf2" x="382.839375" y="213.843895" style="stroke: #000000; stroke-width: 0.5"/>
      </g>
     </g>
     <g id="text_9">
      <!-- −5 -->
      <g transform="translate(26.84875 218.402958) scale(0.12 -0.12)">
       <use xlink:href="#DejaVuSans-2212"/>
       <use xlink:href="#DejaVuSans-35" x="83.789062"/>
      </g>
     </g>
    </g>
    <g id="ytick_3">
     <g id="line2d_69">
      <path d="M 48.039375 179.56309 
L 382.839375 179.56309 
" clip-path="url(#p31047b9f4e)" style="fill: none; stroke: #b0b0b0; stroke-width: 0.5; stroke-linecap: square"/>
     </g>
     <g id="line2d_70">
      <g>
       <use xlink:href="#m631cfcf365" x="48.039375" y="179.56309" style="stroke: #000000; stroke-width: 0.5"/>
      </g>
     </g>
     <g id="line2d_71">
      <g>
       <use xlink:href="#m69bbbf6bf2" x="382.839375" y="179.56309" style="stroke: #000000; stroke-width: 0.5"/>
      </g>
     </g>
     <g id="text_10">
      <!-- 0 -->
      <g transform="translate(36.904375 184.122152) scale(0.12 -0.12)">
       <use xlink:href="#DejaVuSans-30"/>
      </g>
     </g>
    </g>
    <g id="ytick_4">
     <g id="line2d_72">
      <path d="M 48.039375 145.282284 
L 382.839375 145.282284 
" clip-path="url(#p31047b9f4e)" style="fill: none; stroke: #b0b0b0; stroke-width: 0.5; stroke-linecap: square"/>
     </g>
     <g id="line2d_73">
      <g>
       <use xlink:href="#m631cfcf365" x="48.039375" y="145.282284" style="stroke: #000000; stroke-width: 0.5"/>
      </g>
     </g>
     <g id="line2d_74">
      <g>
       <use xlink:href="#m69bbbf6bf2" x="382.839375" y="145.282284" style="stroke: #000000; stroke-width: 0.5"/>
      </g>
     </g>
     <g id="text_11">
      <!-- 5 -->
      <g transform="translate(36.904375 149.841347) scale(0.12 -0.12)">
       <use xlink:href="#DejaVuSans-35"/>
      </g>
     </g>
    </g>
    <g id="ytick_5">
     <g id="line2d_75">
      <path d="M 48.039375 111.001479 
L 382.839375 111.001479 
" clip-path="url(#p31047b9f4e)" style="fill: none; stroke: #b0b0b0; stroke-width: 0.5; stroke-linecap: square"/>
     </g>
     <g id="line2d_76">
      <g>
       <use xlink:href="#m631cfcf365" x="48.039375" y="111.001479" style="stroke: #000000; stroke-width: 0.5"/>
      </g>
     </g>
     <g id="line2d_77">
      <g>
       <use xlink:href="#m69bbbf6bf2" x="382.839375" y="111.001479" style="stroke: #000000; stroke-width: 0.5"/>
      </g>
     </g>
     <g id="text_12">
      <!-- 10 -->
      <g transform="translate(29.269375 115.560541) scale(0.12 -0.12)">
       <use xlink:href="#DejaVuSans-31"/>
       <use xlink:href="#DejaVuSans-30" x="63.623047"/>
      </g>
     </g>
    </g>
    <g id="ytick_6">
     <g id="line2d_78">
      <path d="M 48.039375 76.720673 
L 382.839375 76.720673 
" clip-path="url(#p31047b9f4e)" style="fill: none; stroke: #b0b0b0; stroke-width: 0.5; stroke-linecap: square"/>
     </g>
     <g id="line2d_79">
      <g>
       <use xlink:href="#m631cfcf365" x="48.039375" y="76.720673" style="stroke: #000000; stroke-width: 0.5"/>
      </g>
     </g>
     <g id="line2d_80">
      <g>
       <use xlink:href="#m69bbbf6bf2" x="382.839375" y="76.720673" style="stroke: #000000; stroke-width: 0.5"/>
      </g>
     </g>
     <g id="text_13">
      <!-- 15 -->
      <g transform="translate(29.269375 81.279736) scale(0.12 -0.12)">
       <use xlink:href="#DejaVuSans-31"/>
       <use xlink:href="#DejaVuSans-35" x="63.623047"/>
      </g>
     </g>
    </g>
    <g id="ytick_7">
     <g id="line2d_81">
      <path d="M 48.039375 42.439868 
L 382.839375 42.439868 
" clip-path="url(#p31047b9f4e)" style="fill: none; stroke: #b0b0b0; stroke-width: 0.5; stroke-linecap: square"/>
     </g>
     <g id="line2d_82">
      <g>
       <use xlink:href="#m631cfcf365" x="48.039375" y="42.439868" style="stroke: #000000; stroke-width: 0.5"/>
      </g>
     </g>
     <g id="line2d_83">
      <g>
       <use xlink:href="#m69bbbf6bf2" x="382.839375" y="42.439868" style="stroke: #000000; stroke-width: 0.5"/>
      </g>
     </g>
     <g id="text_14">
      <!-- 20 -->
      <g transform="translate(29.269375 46.99893) scale(0.12 -0.12)">
       <use xlink:href="#DejaVuSans-32"/>
       <use xlink:href="#DejaVuSans-30" x="63.623047"/>
      </g>
     </g>
    </g>
    <g id="ytick_8">
     <g id="line2d_84">
      <path d="M 48.039375 8.159062 
L 382.839375 8.159062 
" clip-path="url(#p31047b9f4e)" style="fill: none; stroke: #b0b0b0; stroke-width: 0.5; stroke-linecap: square"/>
     </g>
     <g id="line2d_85">
      <g>
       <use xlink:href="#m631cfcf365" x="48.039375" y="8.159062" style="stroke: #000000; stroke-width: 0.5"/>
      </g>
     </g>
     <g id="line2d_86">
      <g>
       <use xlink:href="#m69bbbf6bf2" x="382.839375" y="8.159062" style="stroke: #000000; stroke-width: 0.5"/>
      </g>
     </g>
     <g id="text_15">
      <!-- 25 -->
      <g transform="translate(29.269375 12.718125) scale(0.12 -0.12)">
       <use xlink:href="#DejaVuSans-32"/>
       <use xlink:href="#DejaVuSans-35" x="63.623047"/>
      </g>
     </g>
    </g>
    <g id="ytick_9">
     <g id="line2d_87">
      <defs>
       <path id="m0dd4cb41b0" d="M 0 0 
L 1.5 0 
" style="stroke: #000000; stroke-width: 0.5"/>
      </defs>
      <g>
       <use xlink:href="#m0dd4cb41b0" x="48.039375" y="254.980862" style="stroke: #000000; stroke-width: 0.5"/>
      </g>
     </g>
     <g id="line2d_88">
      <defs>
       <path id="m01f0e00daa" d="M 0 0 
L -1.5 0 
" style="stroke: #000000; stroke-width: 0.5"/>
      </defs>
      <g>
       <use xlink:href="#m01f0e00daa" x="382.839375" y="254.980862" style="stroke: #000000; stroke-width: 0.5"/>
      </g>
     </g>
    </g>
    <g id="ytick_10">
     <g id="line2d_89">
      <g>
       <use xlink:href="#m0dd4cb41b0" x="48.039375" y="241.268539" style="stroke: #000000; stroke-width: 0.5"/>
      </g>
     </g>
     <g id="line2d_90">
      <g>
       <use xlink:href="#m01f0e00daa" x="382.839375" y="241.268539" style="stroke: #000000; stroke-width: 0.5"/>
      </g>
     </g>
    </g>
    <g id="ytick_11">
     <g id="line2d_91">
      <g>
       <use xlink:href="#m0dd4cb41b0" x="48.039375" y="234.412378" style="stroke: #000000; stroke-width: 0.5"/>
      </g>
     </g>
     <g id="line2d_92">
      <g>
       <use xlink:href="#m01f0e00daa" x="382.839375" y="234.412378" style="stroke: #000000; stroke-width: 0.5"/>
      </g>
     </g>
    </g>
    <g id="ytick_12">
     <g id="line2d_93">
      <g>
       <use xlink:href="#m0dd4cb41b0" x="48.039375" y="227.556217" style="stroke: #000000; stroke-width: 0.5"/>
      </g>
     </g>
     <g id="line2d_94">
      <g>
       <use xlink:href="#m01f0e00daa" x="382.839375" y="227.556217" style="stroke: #000000; stroke-width: 0.5"/>
      </g>
     </g>
    </g>
    <g id="ytick_13">
     <g id="line2d_95">
      <g>
       <use xlink:href="#m0dd4cb41b0" x="48.039375" y="220.700056" style="stroke: #000000; stroke-width: 0.5"/>
      </g>
     </g>
     <g id="line2d_96">
      <g>
       <use xlink:href="#m01f0e00daa" x="382.839375" y="220.700056" style="stroke: #000000; stroke-width: 0.5"/>
      </g>
     </g>
    </g>
    <g id="ytick_14">
     <g id="line2d_97">
      <g>
       <use xlink:href="#m0dd4cb41b0" x="48.039375" y="206.987734" style="stroke: #000000; stroke-width: 0.5"/>
      </g>
     </g>
     <g id="line2d_98">
      <g>
       <use xlink:href="#m01f0e00daa" x="382.839375" y="206.987734" style="stroke: #000000; stroke-width: 0.5"/>
      </g>
     </g>
    </g>
    <g id="ytick_15">
     <g id="line2d_99">
      <g>
       <use xlink:href="#m0dd4cb41b0" x="48.039375" y="200.131573" style="stroke: #000000; stroke-width: 0.5"/>
      </g>
     </g>
     <g id="line2d_100">
      <g>
       <use xlink:href="#m01f0e00daa" x="382.839375" y="200.131573" style="stroke: #000000; stroke-width: 0.5"/>
      </g>
     </g>
    </g>
    <g id="ytick_16">
     <g id="line2d_101">
      <g>
       <use xlink:href="#m0dd4cb41b0" x="48.039375" y="193.275412" style="stroke: #000000; stroke-width: 0.5"/>
      </g>
     </g>
     <g id="line2d_102">
      <g>
       <use xlink:href="#m01f0e00daa" x="382.839375" y="193.275412" style="stroke: #000000; stroke-width: 0.5"/>
      </g>
     </g>
    </g>
    <g id="ytick_17">
     <g id="line2d_103">
      <g>
       <use xlink:href="#m0dd4cb41b0" x="48.039375" y="186.419251" style="stroke: #000000; stroke-width: 0.5"/>
      </g>
     </g>
     <g id="line2d_104">
      <g>
       <use xlink:href="#m01f0e00daa" x="382.839375" y="186.419251" style="stroke: #000000; stroke-width: 0.5"/>
      </g>
     </g>
    </g>
    <g id="ytick_18">
     <g id="line2d_105">
      <g>
       <use xlink:href="#m0dd4cb41b0" x="48.039375" y="172.706929" style="stroke: #000000; stroke-width: 0.5"/>
      </g>
     </g>
     <g id="line2d_106">
      <g>
       <use xlink:href="#m01f0e00daa" x="382.839375" y="172.706929" style="stroke: #000000; stroke-width: 0.5"/>
      </g>
     </g>
    </g>
    <g id="ytick_19">
     <g id="line2d_107">
      <g>
       <use xlink:href="#m0dd4cb41b0" x="48.039375" y="165.850767" style="stroke: #000000; stroke-width: 0.5"/>
      </g>
     </g>
     <g id="line2d_108">
      <g>
       <use xlink:href="#m01f0e00daa" x="382.839375" y="165.850767" style="stroke: #000000; stroke-width: 0.5"/>
      </g>
     </g>
    </g>
    <g id="ytick_20">
     <g id="line2d_109">
      <g>
       <use xlink:href="#m0dd4cb41b0" x="48.039375" y="158.994606" style="stroke: #000000; stroke-width: 0.5"/>
      </g>
     </g>
     <g id="line2d_110">
      <g>
       <use xlink:href="#m01f0e00daa" x="382.839375" y="158.994606" style="stroke: #000000; stroke-width: 0.5"/>
      </g>
     </g>
    </g>
    <g id="ytick_21">
     <g id="line2d_111">
      <g>
       <use xlink:href="#m0dd4cb41b0" x="48.039375" y="152.138445" style="stroke: #000000; stroke-width: 0.5"/>
      </g>
     </g>
     <g id="line2d_112">
      <g>
       <use xlink:href="#m01f0e00daa" x="382.839375" y="152.138445" style="stroke: #000000; stroke-width: 0.5"/>
      </g>
     </g>
    </g>
    <g id="ytick_22">
     <g id="line2d_113">
      <g>
       <use xlink:href="#m0dd4cb41b0" x="48.039375" y="138.426123" style="stroke: #000000; stroke-width: 0.5"/>
      </g>
     </g>
     <g id="line2d_114">
      <g>
       <use xlink:href="#m01f0e00daa" x="382.839375" y="138.426123" style="stroke: #000000; stroke-width: 0.5"/>
      </g>
     </g>
    </g>
    <g id="ytick_23">
     <g id="line2d_115">
      <g>
       <use xlink:href="#m0dd4cb41b0" x="48.039375" y="131.569962" style="stroke: #000000; stroke-width: 0.5"/>
      </g>
     </g>
     <g id="line2d_116">
      <g>
       <use xlink:href="#m01f0e00daa" x="382.839375" y="131.569962" style="stroke: #000000; stroke-width: 0.5"/>
      </g>
     </g>
    </g>
    <g id="ytick_24">
     <g id="line2d_117">
      <g>
       <use xlink:href="#m0dd4cb41b0" x="48.039375" y="124.713801" style="stroke: #000000; stroke-width: 0.5"/>
      </g>
     </g>
     <g id="line2d_118">
      <g>
       <use xlink:href="#m01f0e00daa" x="382.839375" y="124.713801" style="stroke: #000000; stroke-width: 0.5"/>
      </g>
     </g>
    </g>
    <g id="ytick_25">
     <g id="line2d_119">
      <g>
       <use xlink:href="#m0dd4cb41b0" x="48.039375" y="117.85764" style="stroke: #000000; stroke-width: 0.5"/>
      </g>
     </g>
     <g id="line2d_120">
      <g>
       <use xlink:href="#m01f0e00daa" x="382.839375" y="117.85764" style="stroke: #000000; stroke-width: 0.5"/>
      </g>
     </g>
    </g>
    <g id="ytick_26">
     <g id="line2d_121">
      <g>
       <use xlink:href="#m0dd4cb41b0" x="48.039375" y="104.145318" style="stroke: #000000; stroke-width: 0.5"/>
      </g>
     </g>
     <g id="line2d_122">
      <g>
       <use xlink:href="#m01f0e00daa" x="382.839375" y="104.145318" style="stroke: #000000; stroke-width: 0.5"/>
      </g>
     </g>
    </g>
    <g id="ytick_27">
     <g id="line2d_123">
      <g>
       <use xlink:href="#m0dd4cb41b0" x="48.039375" y="97.289157" style="stroke: #000000; stroke-width: 0.5"/>
      </g>
     </g>
     <g id="line2d_124">
      <g>
       <use xlink:href="#m01f0e00daa" x="382.839375" y="97.289157" style="stroke: #000000; stroke-width: 0.5"/>
      </g>
     </g>
    </g>
    <g id="ytick_28">
     <g id="line2d_125">
      <g>
       <use xlink:href="#m0dd4cb41b0" x="48.039375" y="90.432996" style="stroke: #000000; stroke-width: 0.5"/>
      </g>
     </g>
     <g id="line2d_126">
      <g>
       <use xlink:href="#m01f0e00daa" x="382.839375" y="90.432996" style="stroke: #000000; stroke-width: 0.5"/>
      </g>
     </g>
    </g>
    <g id="ytick_29">
     <g id="line2d_127">
      <g>
       <use xlink:href="#m0dd4cb41b0" x="48.039375" y="83.576834" style="stroke: #000000; stroke-width: 0.5"/>
      </g>
     </g>
     <g id="line2d_128">
      <g>
       <use xlink:href="#m01f0e00daa" x="382.839375" y="83.576834" style="stroke: #000000; stroke-width: 0.5"/>
      </g>
     </g>
    </g>
    <g id="ytick_30">
     <g id="line2d_129">
      <g>
       <use xlink:href="#m0dd4cb41b0" x="48.039375" y="69.864512" style="stroke: #000000; stroke-width: 0.5"/>
      </g>
     </g>
     <g id="line2d_130">
      <g>
       <use xlink:href="#m01f0e00daa" x="382.839375" y="69.864512" style="stroke: #000000; stroke-width: 0.5"/>
      </g>
     </g>
    </g>
    <g id="ytick_31">
     <g id="line2d_131">
      <g>
       <use xlink:href="#m0dd4cb41b0" x="48.039375" y="63.008351" style="stroke: #000000; stroke-width: 0.5"/>
      </g>
     </g>
     <g id="line2d_132">
      <g>
       <use xlink:href="#m01f0e00daa" x="382.839375" y="63.008351" style="stroke: #000000; stroke-width: 0.5"/>
      </g>
     </g>
    </g>
    <g id="ytick_32">
     <g id="line2d_133">
      <g>
       <use xlink:href="#m0dd4cb41b0" x="48.039375" y="56.15219" style="stroke: #000000; stroke-width: 0.5"/>
      </g>
     </g>
     <g id="line2d_134">
      <g>
       <use xlink:href="#m01f0e00daa" x="382.839375" y="56.15219" style="stroke: #000000; stroke-width: 0.5"/>
      </g>
     </g>
    </g>
    <g id="ytick_33">
     <g id="line2d_135">
      <g>
       <use xlink:href="#m0dd4cb41b0" x="48.039375" y="49.296029" style="stroke: #000000; stroke-width: 0.5"/>
      </g>
     </g>
     <g id="line2d_136">
      <g>
       <use xlink:href="#m01f0e00daa" x="382.839375" y="49.296029" style="stroke: #000000; stroke-width: 0.5"/>
      </g>
     </g>
    </g>
    <g id="ytick_34">
     <g id="line2d_137">
      <g>
       <use xlink:href="#m0dd4cb41b0" x="48.039375" y="35.583707" style="stroke: #000000; stroke-width: 0.5"/>
      </g>
     </g>
     <g id="line2d_138">
      <g>
       <use xlink:href="#m01f0e00daa" x="382.839375" y="35.583707" style="stroke: #000000; stroke-width: 0.5"/>
      </g>
     </g>
    </g>
    <g id="ytick_35">
     <g id="line2d_139">
      <g>
       <use xlink:href="#m0dd4cb41b0" x="48.039375" y="28.727546" style="stroke: #000000; stroke-width: 0.5"/>
      </g>
     </g>
     <g id="line2d_140">
      <g>
       <use xlink:href="#m01f0e00daa" x="382.839375" y="28.727546" style="stroke: #000000; stroke-width: 0.5"/>
      </g>
     </g>
    </g>
    <g id="ytick_36">
     <g id="line2d_141">
      <g>
       <use xlink:href="#m0dd4cb41b0" x="48.039375" y="21.871385" style="stroke: #000000; stroke-width: 0.5"/>
      </g>
     </g>
     <g id="line2d_142">
      <g>
       <use xlink:href="#m01f0e00daa" x="382.839375" y="21.871385" style="stroke: #000000; stroke-width: 0.5"/>
      </g>
     </g>
    </g>
    <g id="ytick_37">
     <g id="line2d_143">
      <g>
       <use xlink:href="#m0dd4cb41b0" x="48.039375" y="15.015224" style="stroke: #000000; stroke-width: 0.5"/>
      </g>
     </g>
     <g id="line2d_144">
      <g>
       <use xlink:href="#m01f0e00daa" x="382.839375" y="15.015224" style="stroke: #000000; stroke-width: 0.5"/>
      </g>
     </g>
    </g>
    <g id="text_16">
     <!-- Fitness -->
     <g transform="translate(12.718125 153.632117) rotate(-90) scale(0.12 -0.12)">
      <defs>
       <path id="DejaVuSans-46" d="M 628 4666 
L 3309 4666 
L 3309 4134 
L 1259 4134 
L 1259 2759 
L 3109 2759 
L 3109 2228 
L 1259 2228 
L 1259 0 
L 628 0 
L 628 4666 
z
" transform="scale(0.015625)"/>
      </defs>
      <use xlink:href="#DejaVuSans-46"/>
      <use xlink:href="#DejaVuSans-69" x="50.269531"/>
      <use xlink:href="#DejaVuSans-74" x="78.052734"/>
      <use xlink:href="#DejaVuSans-6e" x="117.261719"/>
      <use xlink:href="#DejaVuSans-65" x="180.640625"/>
      <use xlink:href="#DejaVuSans-73" x="242.164062"/>
      <use xlink:href="#DejaVuSans-73" x="294.263672"/>
     </g>
    </g>
   </g>
   <g id="line2d_145">
    <path d="M 63.257557 78.291867 
L 63.867504 69.392818 
L 64.477451 48.64283 
L 65.087398 48.641375 
L 65.697345 49.834798 
L 67.527187 49.832893 
L 68.137134 46.809469 
L 68.747081 46.80862 
L 69.357028 38.307362 
L 71.796817 38.307184 
L 72.406764 36.617846 
L 74.846553 36.61779 
L 75.4565 38.305771 
L 78.506236 38.305352 
L 79.116183 36.399296 
L 81.555972 36.39365 
L 82.165919 35.377836 
L 82.775866 34.592935 
L 83.99576 31.909164 
L 84.605708 31.907373 
L 85.215655 33.201941 
L 86.435549 33.201998 
L 87.045496 32.406154 
L 88.265391 32.404751 
L 88.875338 31.821785 
L 89.485285 31.69105 
L 91.315127 31.694794 
L 91.925074 31.097988 
L 92.535021 31.091518 
L 93.144968 30.913099 
L 93.754915 30.90948 
L 94.364862 29.867604 
L 99.24444 29.868137 
L 99.854387 28.285615 
L 102.904123 28.286476 
L 103.51407 28.001152 
L 104.124017 28.001197 
L 104.733964 27.831745 
L 105.343911 27.117877 
L 107.7837 27.112398 
L 108.393647 27.445378 
L 109.003594 27.11749 
L 110.223489 27.07757 
L 110.833436 26.769311 
L 115.713013 26.767718 
L 116.32296 26.571418 
L 116.932908 26.236345 
L 121.202538 26.233813 
L 121.812485 25.698524 
L 123.032379 25.696331 
L 123.642326 25.498789 
L 126.082115 25.49752 
L 126.692062 25.244717 
L 127.302009 25.243367 
L 127.911957 25.080263 
L 129.741798 25.079455 
L 130.351745 24.652688 
L 134.621375 24.653552 
L 135.231323 24.040412 
L 143.160636 23.981972 
L 143.770583 23.780537 
L 148.040213 23.778779 
L 149.870055 23.482308 
L 150.480002 23.011238 
L 151.699896 23.015499 
L 152.309843 22.264373 
L 158.409315 22.262041 
L 159.019262 21.712531 
L 163.898839 21.711233 
L 164.508787 21.507478 
L 165.728681 21.506984 
L 166.338628 20.682948 
L 168.16847 20.678452 
L 168.778417 20.508789 
L 174.267941 20.3781 
L 175.487836 20.37431 
L 176.097783 20.126127 
L 177.927624 20.099931 
L 181.587307 20.120518 
L 182.807202 20.037091 
L 185.24699 20.012079 
L 186.466885 19.919674 
L 222.453767 19.761698 
L 224.893556 19.725628 
L 303.576741 19.530189 
L 367.621193 19.458216 
L 367.621193 19.458216 
" clip-path="url(#p31047b9f4e)" style="fill: none; stroke: #000000; stroke-linecap: square"/>
   </g>
   <g id="line2d_146">
    <path d="M 63.257557 191.318723 
L 63.867504 180.009738 
L 64.477451 161.62125 
L 65.087398 163.434126 
L 65.697345 158.904231 
L 66.307293 151.40503 
L 66.91724 152.745501 
L 67.527187 161.130122 
L 68.137134 158.445047 
L 68.747081 164.814261 
L 69.357028 155.092211 
L 69.966976 151.140564 
L 70.576923 136.118017 
L 71.18687 133.476211 
L 71.796817 133.927026 
L 72.406764 139.674024 
L 73.016711 129.86659 
L 73.626659 127.091566 
L 74.236606 119.292673 
L 74.846553 113.883278 
L 75.4565 113.926579 
L 76.066447 119.225203 
L 76.676394 120.342345 
L 77.286342 114.926393 
L 77.896289 115.863708 
L 78.506236 123.497188 
L 79.72613 116.434386 
L 80.336077 118.322839 
L 80.946025 123.829496 
L 81.555972 120.810474 
L 82.165919 118.557472 
L 82.775866 119.14933 
L 83.385813 117.700019 
L 83.99576 105.3176 
L 84.605708 112.734075 
L 85.215655 96.6591 
L 85.825602 91.392041 
L 86.435549 90.10784 
L 87.045496 84.029912 
L 87.655444 89.512516 
L 88.265391 81.138163 
L 88.875338 79.038378 
L 89.485285 83.677762 
L 90.095232 86.00909 
L 90.705179 95.051429 
L 91.315127 91.927301 
L 91.925074 84.199082 
L 93.144968 80.654105 
L 93.754915 78.512733 
L 94.364862 80.212892 
L 94.97481 70.384345 
L 95.584757 75.547266 
L 96.194704 72.603705 
L 96.804651 71.096109 
L 97.414598 73.346694 
L 98.024545 70.508961 
L 98.634493 75.031338 
L 99.24444 57.42833 
L 99.854387 54.458964 
L 101.074281 59.005722 
L 101.684228 67.236866 
L 102.294176 67.08054 
L 102.904123 60.968674 
L 103.51407 58.373858 
L 104.124017 58.071826 
L 104.733964 51.665272 
L 105.343911 49.429067 
L 105.953859 49.476812 
L 106.563806 46.517528 
L 107.173753 45.279851 
L 107.7837 50.034427 
L 109.003594 42.870873 
L 109.613542 46.142779 
L 110.223489 50.736129 
L 110.833436 51.79741 
L 111.443383 49.366326 
L 112.05333 49.471436 
L 113.273225 43.46027 
L 113.883172 49.101615 
L 114.493119 46.632751 
L 115.103066 42.377009 
L 115.713013 44.897991 
L 116.32296 37.066034 
L 116.932908 40.99388 
L 117.542855 35.743066 
L 118.152802 36.31205 
L 118.762749 33.418853 
L 119.372696 35.457908 
L 119.982643 39.529893 
L 120.592591 42.512467 
L 121.202538 37.43853 
L 121.812485 38.415744 
L 123.032379 48.406668 
L 123.642326 39.41814 
L 124.252274 35.724177 
L 124.862221 33.775016 
L 125.472168 37.138623 
L 126.082115 42.447236 
L 126.692062 36.748916 
L 127.302009 37.319545 
L 127.911957 35.559604 
L 128.521904 32.319976 
L 129.741798 36.581611 
L 130.351745 31.890255 
L 130.961692 31.514065 
L 131.57164 30.913332 
L 132.181587 30.963729 
L 132.791534 31.915555 
L 133.401481 31.858314 
L 134.011428 33.740546 
L 134.621375 38.892785 
L 135.231323 35.712076 
L 135.84127 35.480808 
L 136.451217 35.071034 
L 137.061164 38.492615 
L 137.671111 36.785698 
L 138.281058 37.03471 
L 138.891006 40.622717 
L 139.500953 38.80455 
L 140.1109 38.343509 
L 140.720847 40.329754 
L 141.330794 37.830338 
L 141.940741 36.342793 
L 142.550689 33.059864 
L 143.160636 32.841856 
L 143.770583 36.477178 
L 144.38053 39.156698 
L 144.990477 38.021683 
L 145.600424 35.311488 
L 146.820319 35.139181 
L 147.430266 35.506792 
L 148.040213 36.533785 
L 148.65016 36.603665 
L 149.260107 33.193486 
L 149.870055 32.896703 
L 150.480002 32.850607 
L 151.089949 33.923917 
L 151.699896 28.498885 
L 152.309843 30.164923 
L 152.91979 34.58261 
L 153.529738 36.330237 
L 154.749632 38.2745 
L 155.359579 38.589459 
L 155.969526 40.577711 
L 156.579473 35.527729 
L 157.189421 39.321018 
L 157.799368 38.440274 
L 158.409315 34.916037 
L 159.019262 34.776227 
L 159.629209 36.224144 
L 160.239156 39.170081 
L 160.849104 38.803567 
L 161.459051 32.730763 
L 162.068998 30.80029 
L 162.678945 28.439407 
L 163.288892 32.8091 
L 163.898839 33.364861 
L 164.508787 31.077502 
L 165.118734 33.808037 
L 165.728681 33.599394 
L 166.338628 35.153811 
L 166.948575 31.800849 
L 167.558522 38.904839 
L 168.16847 35.342679 
L 168.778417 38.498482 
L 169.388364 36.458418 
L 169.998311 33.764047 
L 170.608258 31.924398 
L 171.218205 28.79065 
L 171.828153 32.127299 
L 172.4381 32.740375 
L 173.048047 32.75232 
L 173.657994 34.107072 
L 174.267941 31.303447 
L 174.877888 39.259847 
L 175.487836 30.883906 
L 176.097783 31.707337 
L 176.70773 30.86888 
L 177.317677 30.705869 
L 177.927624 31.735591 
L 178.537571 31.439949 
L 179.147519 29.334926 
L 179.757466 29.650332 
L 180.367413 34.637542 
L 180.97736 36.134119 
L 181.587307 34.682222 
L 182.197254 33.909792 
L 182.807202 29.809821 
L 183.417149 31.664863 
L 184.027096 37.623795 
L 184.637043 31.437374 
L 185.24699 27.902638 
L 185.856937 32.920215 
L 186.466885 32.017061 
L 187.076832 28.698718 
L 187.686779 28.570879 
L 188.296726 28.591184 
L 188.906673 25.308728 
L 189.51662 25.250473 
L 190.126568 24.04071 
L 190.736515 25.398048 
L 191.346462 27.779831 
L 191.956409 32.35141 
L 192.566356 35.09452 
L 193.176303 36.275832 
L 193.786251 38.57151 
L 195.006145 30.564689 
L 195.616092 35.616357 
L 196.226039 35.144957 
L 196.835986 29.540752 
L 198.055881 36.59865 
L 198.665828 35.63721 
L 199.275775 33.227197 
L 199.885722 29.960313 
L 200.495669 29.607858 
L 201.105617 26.486902 
L 201.715564 27.696587 
L 202.325511 28.022066 
L 202.935458 28.539421 
L 203.545405 31.93121 
L 204.155352 27.869485 
L 204.7653 33.967374 
L 205.375247 32.15889 
L 205.985194 32.510767 
L 206.595141 25.225039 
L 207.205088 28.360728 
L 207.815035 26.23837 
L 208.424983 25.091354 
L 209.03493 27.388719 
L 209.644877 25.63488 
L 210.254824 30.70241 
L 211.474718 27.110564 
L 212.084666 26.258247 
L 212.694613 28.493724 
L 213.30456 28.040785 
L 213.914507 26.064399 
L 214.524454 22.67712 
L 215.134401 22.720769 
L 215.744349 27.131988 
L 216.354296 28.508732 
L 216.964243 34.098473 
L 217.57419 34.495476 
L 218.184137 37.555388 
L 218.794084 31.096537 
L 219.404032 30.310614 
L 220.013979 25.918239 
L 220.623926 25.62047 
L 221.233873 34.371572 
L 221.84382 36.434778 
L 222.453767 33.569779 
L 223.063715 29.644078 
L 223.673662 32.084129 
L 224.283609 44.882532 
L 225.503503 32.99218 
L 226.11345 35.104945 
L 226.723398 28.675898 
L 227.333345 29.122919 
L 227.943292 35.005992 
L 228.553239 35.987613 
L 229.163186 30.484187 
L 229.773133 31.709484 
L 230.383081 36.02934 
L 230.993028 37.443537 
L 231.602975 40.562421 
L 232.212922 42.305405 
L 232.822869 37.543212 
L 233.432816 30.961912 
L 234.042764 26.649785 
L 234.652711 30.917341 
L 235.262658 36.82537 
L 235.872605 33.491768 
L 236.482552 29.165981 
L 237.092499 31.136243 
L 237.702447 27.662462 
L 238.312394 28.878137 
L 238.922341 27.661015 
L 239.532288 31.64244 
L 240.142235 26.679176 
L 240.752182 32.83017 
L 241.972077 24.956499 
L 242.582024 26.37411 
L 243.191971 27.384093 
L 243.801918 39.325134 
L 244.411865 36.910978 
L 245.021813 28.213832 
L 245.63176 32.642393 
L 246.241707 29.925707 
L 246.851654 30.156944 
L 247.461601 29.139077 
L 248.071548 28.41476 
L 248.681496 28.205605 
L 249.291443 29.351411 
L 249.90139 29.108368 
L 250.511337 26.674056 
L 251.121284 28.918355 
L 251.731231 24.984914 
L 252.341179 26.197791 
L 252.951126 26.369301 
L 253.561073 27.71069 
L 254.17102 30.637982 
L 255.390914 38.558053 
L 256.000862 33.342345 
L 256.610809 36.777577 
L 257.220756 41.38567 
L 257.830703 44.462091 
L 258.44065 40.975096 
L 259.050597 41.452825 
L 259.660545 34.555728 
L 260.270492 29.27942 
L 260.880439 25.623215 
L 261.490386 31.966825 
L 262.100333 33.263232 
L 262.71028 35.627797 
L 263.320228 25.763235 
L 263.930175 34.277522 
L 264.540122 29.527455 
L 265.150069 31.132662 
L 265.760016 30.436182 
L 266.369963 33.714638 
L 266.979911 29.329891 
L 267.589858 31.710017 
L 268.199805 38.985949 
L 270.029646 25.148338 
L 270.639594 22.287185 
L 271.249541 24.681513 
L 271.859488 29.292552 
L 272.469435 28.439021 
L 273.079382 30.24058 
L 273.689329 34.124414 
L 274.299277 33.117689 
L 274.909224 26.888955 
L 275.519171 33.735663 
L 276.129118 35.118754 
L 276.739065 32.786404 
L 277.349012 36.626688 
L 277.95896 30.479951 
L 278.568907 27.575367 
L 279.178854 26.825771 
L 279.788801 29.213315 
L 280.398748 27.610678 
L 281.008695 25.195704 
L 281.618643 29.962101 
L 282.22859 24.208116 
L 282.838537 24.129438 
L 283.448484 27.607498 
L 284.058431 27.803494 
L 284.668378 25.373858 
L 285.278326 28.312967 
L 285.888273 25.414287 
L 286.49822 24.924528 
L 287.108167 25.1467 
L 287.718114 27.417797 
L 288.328061 25.66547 
L 288.938009 28.253751 
L 289.547956 25.642503 
L 290.157903 25.596236 
L 290.76785 26.109174 
L 291.377797 26.329964 
L 291.987744 29.338119 
L 292.597692 30.062827 
L 293.817586 29.197467 
L 294.427533 27.332802 
L 295.03748 27.392658 
L 295.647427 26.074444 
L 296.257375 24.255924 
L 296.867322 26.315121 
L 297.477269 25.43672 
L 298.087216 24.317482 
L 298.697163 28.800645 
L 299.30711 25.077353 
L 299.917058 25.251559 
L 300.527005 26.260653 
L 301.136952 24.637871 
L 301.746899 24.74518 
L 302.356846 27.149087 
L 302.966793 25.461591 
L 303.576741 25.582847 
L 304.186688 25.463685 
L 304.796635 24.85358 
L 305.406582 29.92299 
L 306.016529 28.550369 
L 306.626476 32.446198 
L 307.236424 33.561799 
L 307.846371 34.320732 
L 308.456318 35.499582 
L 309.066265 35.129001 
L 309.676212 38.782267 
L 310.286159 34.774807 
L 310.896107 34.713359 
L 311.506054 32.114981 
L 312.116001 37.501075 
L 312.725948 39.82682 
L 313.335895 36.496351 
L 313.945842 37.673476 
L 314.55579 40.224708 
L 315.165737 39.865362 
L 315.775684 38.449651 
L 316.385631 38.626351 
L 316.995578 36.955958 
L 317.605525 35.65282 
L 318.215473 33.399719 
L 318.82542 36.134834 
L 319.435367 29.2849 
L 320.045314 30.392391 
L 320.655261 29.481234 
L 321.265208 31.618315 
L 321.875156 33.272106 
L 322.485103 39.539238 
L 323.09505 38.90799 
L 323.704997 41.213795 
L 324.314944 40.741608 
L 324.924891 42.086912 
L 325.534839 33.10621 
L 326.754733 36.092633 
L 328.584574 29.892452 
L 329.194522 28.636751 
L 329.804469 27.106492 
L 330.414416 31.087412 
L 331.024363 29.745242 
L 331.63431 32.368736 
L 332.244257 34.492067 
L 332.854205 32.954354 
L 333.464152 28.561204 
L 334.074099 27.261837 
L 334.684046 29.284004 
L 335.293993 33.667893 
L 335.90394 30.176224 
L 336.513888 30.36268 
L 337.123835 32.40086 
L 337.733782 35.32505 
L 338.343729 34.35093 
L 338.953676 31.535089 
L 339.563623 32.721542 
L 340.173571 31.012761 
L 340.783518 27.373749 
L 341.393465 24.843059 
L 342.003412 26.787371 
L 342.613359 31.775325 
L 343.223306 31.618256 
L 343.833254 30.71986 
L 344.443201 30.217176 
L 345.053148 29.165052 
L 345.663095 26.413079 
L 346.273042 29.993498 
L 346.88299 32.09387 
L 347.492937 30.964514 
L 348.102884 26.143845 
L 348.712831 24.882045 
L 349.322778 24.345803 
L 349.932725 26.122792 
L 350.542673 25.316373 
L 351.15262 26.647396 
L 351.762567 23.910063 
L 352.372514 23.214875 
L 352.982461 27.366634 
L 353.592408 26.441854 
L 354.202356 24.509464 
L 354.812303 22.202045 
L 355.42225 26.359381 
L 356.032197 33.705995 
L 356.642144 27.279785 
L 357.252091 24.906225 
L 357.862039 25.29889 
L 358.471986 28.011382 
L 359.081933 30.07524 
L 359.69188 35.875993 
L 360.301827 35.332096 
L 360.911774 42.36688 
L 361.521722 36.97263 
L 362.131669 36.603727 
L 362.741616 35.398215 
L 363.351563 33.892356 
L 363.96151 30.099372 
L 364.571457 34.151866 
L 365.181405 28.772827 
L 365.791352 32.588293 
L 366.401299 29.670296 
L 367.621193 25.710137 
L 367.621193 25.710137 
" clip-path="url(#p31047b9f4e)" style="fill: none; stroke-dasharray: 3.7,1.6; stroke-dashoffset: 0; stroke: #000000"/>
   </g>
   <g id="patch_3">
    <path d="M 48.039375 257.591492 
L 48.039375 8.111492 
" style="fill: none; stroke: #000000; stroke-width: 0.5; stroke-linejoin: miter; stroke-linecap: square"/>
   </g>
   <g id="patch_4">
    <path d="M 382.839375 257.591492 
L 382.839375 8.111492 
" style="fill: none; stroke: #000000; stroke-width: 0.5; stroke-linejoin: miter; stroke-linecap: square"/>
   </g>
   <g id="patch_5">
    <path d="M 48.039375 257.591492 
L 382.839375 257.591492 
" style="fill: none; stroke: #000000; stroke-width: 0.5; stroke-linejoin: miter; stroke-linecap: square"/>
   </g>
   <g id="patch_6">
    <path d="M 48.039375 8.111492 
L 382.839375 8.111492 
" style="fill: none; stroke: #000000; stroke-width: 0.5; stroke-linejoin: miter; stroke-linecap: square"/>
   </g>
   <g id="legend_1">
    <g id="patch_7">
     <path d="M 256.633125 251.591492 
L 374.439375 251.591492 
Q 376.839375 251.591492 376.839375 249.191492 
L 376.839375 197.550242 
Q 376.839375 195.150242 374.439375 195.150242 
L 256.633125 195.150242 
Q 254.233125 195.150242 254.233125 197.550242 
L 254.233125 249.191492 
Q 254.233125 251.591492 256.633125 251.591492 
z
" style="fill: #ffffff; opacity: 0.8; stroke: #cccccc; stroke-linejoin: miter"/>
    </g>
    <g id="line2d_147">
     <path d="M 259.033125 204.868367 
L 271.033125 204.868367 
L 283.033125 204.868367 
" style="fill: none; stroke: #000000; stroke-linecap: square"/>
    </g>
    <g id="text_17">
     <!-- Max fitness -->
     <g transform="translate(292.633125 209.068367) scale(0.12 -0.12)">
      <defs>
       <path id="DejaVuSans-4d" d="M 628 4666 
L 1569 4666 
L 2759 1491 
L 3956 4666 
L 4897 4666 
L 4897 0 
L 4281 0 
L 4281 4097 
L 3078 897 
L 2444 897 
L 1241 4097 
L 1241 0 
L 628 0 
L 628 4666 
z
" transform="scale(0.015625)"/>
       <path id="DejaVuSans-78" d="M 3513 3500 
L 2247 1797 
L 3578 0 
L 2900 0 
L 1881 1375 
L 863 0 
L 184 0 
L 1544 1831 
L 300 3500 
L 978 3500 
L 1906 2253 
L 2834 3500 
L 3513 3500 
z
" transform="scale(0.015625)"/>
       <path id="DejaVuSans-20" transform="scale(0.015625)"/>
       <path id="DejaVuSans-66" d="M 2375 4863 
L 2375 4384 
L 1825 4384 
Q 1516 4384 1395 4259 
Q 1275 4134 1275 3809 
L 1275 3500 
L 2222 3500 
L 2222 3053 
L 1275 3053 
L 1275 0 
L 697 0 
L 697 3053 
L 147 3053 
L 147 3500 
L 697 3500 
L 697 3744 
Q 697 4328 969 4595 
Q 1241 4863 1831 4863 
L 2375 4863 
z
" transform="scale(0.015625)"/>
      </defs>
      <use xlink:href="#DejaVuSans-4d"/>
      <use xlink:href="#DejaVuSans-61" x="86.279297"/>
      <use xlink:href="#DejaVuSans-78" x="147.558594"/>
      <use xlink:href="#DejaVuSans-20" x="206.738281"/>
      <use xlink:href="#DejaVuSans-66" x="238.525391"/>
      <use xlink:href="#DejaVuSans-69" x="273.730469"/>
      <use xlink:href="#DejaVuSans-74" x="301.513672"/>
      <use xlink:href="#DejaVuSans-6e" x="340.722656"/>
      <use xlink:href="#DejaVuSans-65" x="404.101562"/>
      <use xlink:href="#DejaVuSans-73" x="465.625"/>
      <use xlink:href="#DejaVuSans-73" x="517.724609"/>
     </g>
    </g>
    <g id="patch_8">
     <path d="M 259.033125 226.682117 
L 283.033125 226.682117 
L 283.033125 218.282117 
L 259.033125 218.282117 
z
" style="fill: #0000ff; fill-opacity: 0.2; stroke: #0000ff; stroke-opacity: 0.2; stroke-linejoin: miter"/>
    </g>
    <g id="text_18">
     <!-- Top 90% -->
     <g transform="translate(292.633125 226.682117) scale(0.12 -0.12)">
      <defs>
       <path id="DejaVuSans-54" d="M -19 4666 
L 3928 4666 
L 3928 4134 
L 2272 4134 
L 2272 0 
L 1638 0 
L 1638 4134 
L -19 4134 
L -19 4666 
z
" transform="scale(0.015625)"/>
       <path id="DejaVuSans-70" d="M 1159 525 
L 1159 -1331 
L 581 -1331 
L 581 3500 
L 1159 3500 
L 1159 2969 
Q 1341 3281 1617 3432 
Q 1894 3584 2278 3584 
Q 2916 3584 3314 3078 
Q 3713 2572 3713 1747 
Q 3713 922 3314 415 
Q 2916 -91 2278 -91 
Q 1894 -91 1617 61 
Q 1341 213 1159 525 
z
M 3116 1747 
Q 3116 2381 2855 2742 
Q 2594 3103 2138 3103 
Q 1681 3103 1420 2742 
Q 1159 2381 1159 1747 
Q 1159 1113 1420 752 
Q 1681 391 2138 391 
Q 2594 391 2855 752 
Q 3116 1113 3116 1747 
z
" transform="scale(0.015625)"/>
       <path id="DejaVuSans-39" d="M 703 97 
L 703 672 
Q 941 559 1184 500 
Q 1428 441 1663 441 
Q 2288 441 2617 861 
Q 2947 1281 2994 2138 
Q 2813 1869 2534 1725 
Q 2256 1581 1919 1581 
Q 1219 1581 811 2004 
Q 403 2428 403 3163 
Q 403 3881 828 4315 
Q 1253 4750 1959 4750 
Q 2769 4750 3195 4129 
Q 3622 3509 3622 2328 
Q 3622 1225 3098 567 
Q 2575 -91 1691 -91 
Q 1453 -91 1209 -44 
Q 966 3 703 97 
z
M 1959 2075 
Q 2384 2075 2632 2365 
Q 2881 2656 2881 3163 
Q 2881 3666 2632 3958 
Q 2384 4250 1959 4250 
Q 1534 4250 1286 3958 
Q 1038 3666 1038 3163 
Q 1038 2656 1286 2365 
Q 1534 2075 1959 2075 
z
" transform="scale(0.015625)"/>
       <path id="DejaVuSans-25" d="M 4653 2053 
Q 4381 2053 4226 1822 
Q 4072 1591 4072 1178 
Q 4072 772 4226 539 
Q 4381 306 4653 306 
Q 4919 306 5073 539 
Q 5228 772 5228 1178 
Q 5228 1588 5073 1820 
Q 4919 2053 4653 2053 
z
M 4653 2450 
Q 5147 2450 5437 2106 
Q 5728 1763 5728 1178 
Q 5728 594 5436 251 
Q 5144 -91 4653 -91 
Q 4153 -91 3862 251 
Q 3572 594 3572 1178 
Q 3572 1766 3864 2108 
Q 4156 2450 4653 2450 
z
M 1428 4353 
Q 1159 4353 1004 4120 
Q 850 3888 850 3481 
Q 850 3069 1003 2837 
Q 1156 2606 1428 2606 
Q 1700 2606 1854 2837 
Q 2009 3069 2009 3481 
Q 2009 3884 1853 4118 
Q 1697 4353 1428 4353 
z
M 4250 4750 
L 4750 4750 
L 1831 -91 
L 1331 -91 
L 4250 4750 
z
M 1428 4750 
Q 1922 4750 2215 4408 
Q 2509 4066 2509 3481 
Q 2509 2891 2217 2550 
Q 1925 2209 1428 2209 
Q 931 2209 642 2551 
Q 353 2894 353 3481 
Q 353 4063 643 4406 
Q 934 4750 1428 4750 
z
" transform="scale(0.015625)"/>
      </defs>
      <use xlink:href="#DejaVuSans-54"/>
      <use xlink:href="#DejaVuSans-6f" x="44.083984"/>
      <use xlink:href="#DejaVuSans-70" x="105.265625"/>
      <use xlink:href="#DejaVuSans-20" x="168.742188"/>
      <use xlink:href="#DejaVuSans-39" x="200.529297"/>
      <use xlink:href="#DejaVuSans-30" x="264.152344"/>
      <use xlink:href="#DejaVuSans-25" x="327.775391"/>
     </g>
    </g>
    <g id="line2d_148">
     <path d="M 259.033125 240.095867 
L 271.033125 240.095867 
L 283.033125 240.095867 
" style="fill: none; stroke-dasharray: 3.7,1.6; stroke-dashoffset: 0; stroke: #000000"/>
    </g>
    <g id="text_19">
     <!-- Fitness mean -->
     <g transform="translate(292.633125 244.295867) scale(0.12 -0.12)">
      <defs>
       <path id="DejaVuSans-6d" d="M 3328 2828 
Q 3544 3216 3844 3400 
Q 4144 3584 4550 3584 
Q 5097 3584 5394 3201 
Q 5691 2819 5691 2113 
L 5691 0 
L 5113 0 
L 5113 2094 
Q 5113 2597 4934 2840 
Q 4756 3084 4391 3084 
Q 3944 3084 3684 2787 
Q 3425 2491 3425 1978 
L 3425 0 
L 2847 0 
L 2847 2094 
Q 2847 2600 2669 2842 
Q 2491 3084 2119 3084 
Q 1678 3084 1418 2786 
Q 1159 2488 1159 1978 
L 1159 0 
L 581 0 
L 581 3500 
L 1159 3500 
L 1159 2956 
Q 1356 3278 1631 3431 
Q 1906 3584 2284 3584 
Q 2666 3584 2933 3390 
Q 3200 3197 3328 2828 
z
" transform="scale(0.015625)"/>
      </defs>
      <use xlink:href="#DejaVuSans-46"/>
      <use xlink:href="#DejaVuSans-69" x="50.269531"/>
      <use xlink:href="#DejaVuSans-74" x="78.052734"/>
      <use xlink:href="#DejaVuSans-6e" x="117.261719"/>
      <use xlink:href="#DejaVuSans-65" x="180.640625"/>
      <use xlink:href="#DejaVuSans-73" x="242.164062"/>
      <use xlink:href="#DejaVuSans-73" x="294.263672"/>
      <use xlink:href="#DejaVuSans-20" x="346.363281"/>
      <use xlink:href="#DejaVuSans-6d" x="378.150391"/>
      <use xlink:href="#DejaVuSans-65" x="475.5625"/>
      <use xlink:href="#DejaVuSans-61" x="537.085938"/>
      <use xlink:href="#DejaVuSans-6e" x="598.365234"/>
     </g>
    </g>
   </g>
  </g>
 </g>
 <defs>
  <clipPath id="p31047b9f4e">
   <rect x="48.039375" y="8.111492" width="334.8" height="249.48"/>
  </clipPath>
 </defs>
</svg>
