<?xml version="1.0" encoding="utf-8" standalone="no"?>
<!DOCTYPE svg PUBLIC "-//W3C//DTD SVG 1.1//EN"
  "http://www.w3.org/Graphics/SVG/1.1/DTD/svg11.dtd">
<svg xmlns:xlink="http://www.w3.org/1999/xlink" width="386.439375pt" height="287.4075pt" viewBox="0 0 386.439375 287.4075" xmlns="http://www.w3.org/2000/svg" version="1.1">
 <metadata>
  <rdf:RDF xmlns:dc="http://purl.org/dc/elements/1.1/" xmlns:cc="http://creativecommons.org/ns#" xmlns:rdf="http://www.w3.org/1999/02/22-rdf-syntax-ns#">
   <cc:Work>
    <dc:type rdf:resource="http://purl.org/dc/dcmitype/StillImage"/>
    <dc:date>2024-06-05T09:17:13.261234</dc:date>
    <dc:format>image/svg+xml</dc:format>
    <dc:creator>
     <cc:Agent>
      <dc:title>Matplotlib v3.9.0, https://matplotlib.org/</dc:title>
     </cc:Agent>
    </dc:creator>
   </cc:Work>
  </rdf:RDF>
 </metadata>
 <defs>
  <style type="text/css">*{stroke-linejoin: round; stroke-linecap: butt}</style>
 </defs>
 <g id="figure_1">
  <g id="patch_1">
   <path d="M 0 287.4075 
L 386.439375 287.4075 
L 386.439375 0 
L 0 0 
z
" style="fill: #ffffff"/>
  </g>
  <g id="axes_1">
   <g id="patch_2">
    <path d="M 48.039375 253.08 
L 382.839375 253.08 
L 382.839375 3.6 
L 48.039375 3.6 
z
" style="fill: #ffffff"/>
   </g>
   <g id="PolyCollection_1">
    <defs>
     <path id="mc67e36a61e" d="M 63.257557 -237.541352 
L 63.257557 -45.6675 
L 63.867504 -84.019461 
L 64.477451 -102.682878 
L 65.087398 -121.036396 
L 65.697345 -122.80721 
L 66.307293 -96.509332 
L 66.91724 -127.798544 
L 67.527187 -149.11451 
L 68.137134 -123.747687 
L 68.747081 -117.154007 
L 69.357028 -138.763232 
L 69.966976 -129.50512 
L 70.576923 -127.597099 
L 71.18687 -143.482361 
L 71.796817 -143.90514 
L 72.406764 -147.687873 
L 73.016711 -149.631019 
L 73.626659 -154.727697 
L 74.236606 -158.883855 
L 74.846553 -153.063705 
L 75.4565 -156.141718 
L 76.066447 -168.568953 
L 76.676394 -171.266806 
L 77.286342 -170.920383 
L 77.896289 -171.748559 
L 78.506236 -174.890678 
L 79.116183 -173.448921 
L 79.72613 -175.444892 
L 80.336077 -176.999174 
L 80.946025 -173.485075 
L 81.555972 -171.225062 
L 82.165919 -175.960019 
L 82.775866 -174.165241 
L 83.385813 -178.258252 
L 83.99576 -178.474779 
L 84.605708 -183.259216 
L 85.215655 -221.421688 
L 85.825602 -243.659554 
L 86.435549 -252.134516 
L 87.045496 -252.824003 
L 87.655444 -255.669467 
L 88.265391 -258.123226 
L 88.875338 -261.107216 
L 89.485285 -261.651495 
L 90.095232 -261.651457 
L 90.705179 -261.965004 
L 91.315127 -262.194208 
L 91.925074 -262.197972 
L 92.535021 -262.451236 
L 93.144968 -262.716715 
L 93.754915 -262.769964 
L 94.364862 -263.035414 
L 94.97481 -263.624619 
L 95.584757 -263.420792 
L 96.194704 -263.256114 
L 96.804651 -263.002617 
L 97.414598 -263.420787 
L 98.024545 -263.715569 
L 98.634493 -263.59449 
L 99.24444 -263.644444 
L 99.854387 -263.482221 
L 100.464334 -263.869707 
L 101.074281 -262.813419 
L 101.684228 -262.252662 
L 102.294176 -262.428326 
L 102.904123 -262.25262 
L 103.51407 -261.203084 
L 104.124017 -261.777266 
L 104.733964 -262.695586 
L 105.343911 -261.465449 
L 105.953859 -262.15806 
L 106.563806 -262.778627 
L 107.173753 -262.778624 
L 107.7837 -263.400522 
L 108.393647 -264.120857 
L 109.003594 -265.064606 
L 109.613542 -265.173722 
L 110.223489 -264.92219 
L 110.833436 -265.80529 
L 111.443383 -265.322757 
L 112.05333 -265.49763 
L 112.663277 -265.197045 
L 113.273225 -264.390631 
L 113.883172 -263.306219 
L 114.493119 -263.559533 
L 115.103066 -263.985615 
L 115.713013 -263.913951 
L 116.32296 -264.372085 
L 116.932908 -265.211542 
L 117.542855 -264.826519 
L 118.152802 -265.040085 
L 118.762749 -264.573784 
L 119.372696 -264.631672 
L 119.982643 -264.382057 
L 120.592591 -265.300019 
L 121.202538 -261.447984 
L 121.812485 -262.343668 
L 122.422432 -262.655939 
L 123.032379 -263.259798 
L 123.642326 -263.248677 
L 124.252274 -263.248673 
L 124.862221 -265.620133 
L 125.472168 -265.693046 
L 126.082115 -266.218879 
L 126.692062 -266.218885 
L 127.302009 -266.236015 
L 127.911957 -267.129689 
L 128.521904 -267.632895 
L 129.131851 -267.192009 
L 129.741798 -266.32503 
L 130.351745 -266.856636 
L 130.961692 -265.519616 
L 131.57164 -266.542274 
L 132.181587 -266.4805 
L 132.791534 -266.536521 
L 133.401481 -265.855037 
L 134.011428 -267.154773 
L 134.621375 -266.141893 
L 135.231323 -266.240124 
L 135.84127 -266.578107 
L 136.451217 -266.718393 
L 137.061164 -266.476886 
L 137.671111 -266.113011 
L 138.281058 -264.507879 
L 138.891006 -265.993429 
L 139.500953 -265.727979 
L 140.1109 -266.011459 
L 140.720847 -265.132716 
L 141.330794 -265.883905 
L 141.940741 -264.820017 
L 142.550689 -266.934833 
L 143.160636 -264.44299 
L 143.770583 -264.442981 
L 144.38053 -264.443004 
L 144.990477 -264.485073 
L 145.600424 -264.442989 
L 146.210372 -264.858243 
L 146.820319 -265.710358 
L 147.430266 -265.636844 
L 148.040213 -264.623672 
L 148.65016 -264.594513 
L 149.260107 -265.250573 
L 149.870055 -265.739009 
L 150.480002 -265.791579 
L 151.089949 -266.177812 
L 151.699896 -265.929047 
L 152.309843 -265.849928 
L 152.91979 -265.44087 
L 153.529738 -267.01538 
L 154.139685 -267.241471 
L 154.749632 -267.452314 
L 155.359579 -266.395758 
L 155.969526 -265.593199 
L 156.579473 -265.247062 
L 157.189421 -264.381797 
L 157.799368 -265.254086 
L 158.409315 -266.021518 
L 159.019262 -263.971071 
L 159.629209 -263.232179 
L 160.239156 -261.209756 
L 160.849104 -263.650501 
L 161.459051 -264.803444 
L 162.068998 -262.833119 
L 162.678945 -265.016986 
L 163.288892 -265.281031 
L 163.898839 -265.43608 
L 164.508787 -263.892102 
L 165.118734 -263.892113 
L 165.728681 -264.47931 
L 166.338628 -264.288446 
L 166.948575 -264.823669 
L 167.558522 -264.874203 
L 168.16847 -264.510028 
L 168.778417 -264.141943 
L 169.388364 -263.987893 
L 169.998311 -262.665774 
L 170.608258 -262.450987 
L 171.218205 -262.0263 
L 171.828153 -261.931516 
L 172.4381 -261.833231 
L 173.048047 -262.587385 
L 173.657994 -261.686552 
L 174.267941 -262.587361 
L 174.877888 -263.739158 
L 175.487836 -265.071323 
L 176.097783 -266.076265 
L 176.70773 -264.832306 
L 177.317677 -265.071308 
L 177.927624 -265.957057 
L 178.537571 -266.685288 
L 179.147519 -267.45229 
L 179.757466 -267.452298 
L 180.367413 -267.452298 
L 180.97736 -268.143039 
L 181.587307 -268.049435 
L 182.197254 -269.058289 
L 182.807202 -268.607101 
L 183.417149 -268.857044 
L 184.027096 -269.043161 
L 184.637043 -269.169018 
L 185.24699 -268.087677 
L 185.856937 -267.304954 
L 186.466885 -267.798526 
L 187.076832 -267.393708 
L 187.686779 -267.860717 
L 188.296726 -267.860727 
L 188.906673 -269.214112 
L 189.51662 -268.472772 
L 190.126568 -268.978194 
L 190.736515 -268.196971 
L 191.346462 -268.196975 
L 191.956409 -267.817893 
L 192.566356 -267.198934 
L 193.176303 -266.435421 
L 193.786251 -267.628538 
L 194.396198 -268.706649 
L 195.006145 -267.817908 
L 195.616092 -268.166383 
L 196.226039 -267.822429 
L 196.835986 -269.339506 
L 197.445934 -269.028858 
L 198.055881 -268.811328 
L 198.665828 -269.409807 
L 199.275775 -268.875621 
L 199.885722 -268.314607 
L 200.495669 -267.775752 
L 201.105617 -268.435218 
L 201.715564 -267.648582 
L 202.325511 -266.087191 
L 202.935458 -267.753684 
L 203.545405 -268.478888 
L 204.155352 -267.965923 
L 204.7653 -267.993813 
L 205.375247 -268.600351 
L 205.985194 -267.538711 
L 206.595141 -268.069985 
L 207.205088 -268.790924 
L 207.815035 -268.247105 
L 208.424983 -269.307673 
L 209.03493 -268.973957 
L 209.644877 -268.471033 
L 210.254824 -267.42412 
L 210.864771 -267.626471 
L 211.474718 -267.682723 
L 212.084666 -267.845771 
L 212.694613 -268.405706 
L 213.30456 -267.60716 
L 213.914507 -267.307017 
L 214.524454 -267.425467 
L 215.134401 -266.608588 
L 215.744349 -266.84021 
L 216.354296 -268.037695 
L 216.964243 -267.822351 
L 217.57419 -264.852536 
L 218.184137 -265.74413 
L 218.794084 -265.154994 
L 219.404032 -267.830586 
L 220.013979 -267.825375 
L 220.623926 -265.444619 
L 221.233873 -267.332146 
L 221.84382 -268.661263 
L 222.453767 -269.025672 
L 223.063715 -267.911538 
L 223.673662 -268.467208 
L 224.283609 -269.373916 
L 224.893556 -268.152714 
L 225.503503 -266.367424 
L 226.11345 -267.376877 
L 226.723398 -267.182219 
L 227.333345 -267.898317 
L 227.943292 -267.471947 
L 228.553239 -268.837011 
L 229.163186 -267.808384 
L 229.773133 -268.633839 
L 230.383081 -267.911522 
L 230.993028 -267.911535 
L 231.602975 -267.042842 
L 232.212922 -267.405727 
L 232.822869 -267.553088 
L 233.432816 -269.234308 
L 234.042764 -267.752814 
L 234.652711 -267.69441 
L 235.262658 -266.931309 
L 235.872605 -267.245614 
L 236.482552 -266.199108 
L 237.092499 -267.266901 
L 237.702447 -268.417007 
L 238.312394 -269.109839 
L 238.922341 -269.210759 
L 239.532288 -269.053467 
L 240.142235 -269.210769 
L 240.752182 -268.038354 
L 241.36213 -267.834777 
L 241.972077 -266.862057 
L 242.582024 -267.028474 
L 243.191971 -266.232047 
L 243.801918 -267.637481 
L 244.411865 -267.778232 
L 245.021813 -267.471649 
L 245.63176 -267.16016 
L 246.241707 -266.25404 
L 246.851654 -268.605053 
L 247.461601 -268.023736 
L 248.071548 -267.353536 
L 248.681496 -269.258977 
L 249.291443 -269.55918 
L 249.90139 -269.407137 
L 250.511337 -269.776177 
L 251.121284 -269.144008 
L 251.731231 -269.670977 
L 252.341179 -270.098358 
L 252.951126 -269.951258 
L 253.561073 -269.881655 
L 254.17102 -269.881654 
L 254.780967 -269.88164 
L 255.390914 -269.881077 
L 256.000862 -269.736295 
L 256.610809 -268.698091 
L 257.220756 -270.786857 
L 257.830703 -268.629454 
L 258.44065 -268.209495 
L 259.050597 -266.51599 
L 259.660545 -267.041343 
L 260.270492 -265.755553 
L 260.880439 -266.666794 
L 261.490386 -265.999166 
L 262.100333 -266.666815 
L 262.71028 -263.920821 
L 263.320228 -262.739219 
L 263.930175 -265.074296 
L 264.540122 -264.988013 
L 265.150069 -266.00298 
L 265.760016 -265.633432 
L 266.369963 -265.635098 
L 266.979911 -266.295518 
L 267.589858 -267.304422 
L 268.199805 -268.258301 
L 268.809752 -268.594469 
L 269.419699 -267.752684 
L 270.029646 -268.385383 
L 270.639594 -266.163848 
L 271.249541 -266.290174 
L 271.859488 -266.102521 
L 272.469435 -266.179889 
L 273.079382 -266.061024 
L 273.689329 -265.057837 
L 274.299277 -264.735999 
L 274.909224 -265.32728 
L 275.519171 -265.395148 
L 276.129118 -266.300125 
L 276.739065 -266.128552 
L 277.349012 -267.024731 
L 277.95896 -266.898934 
L 278.568907 -266.898919 
L 279.178854 -267.588693 
L 279.788801 -267.49802 
L 280.398748 -266.676318 
L 281.008695 -265.67181 
L 281.618643 -266.510148 
L 282.22859 -267.691653 
L 282.838537 -268.416046 
L 283.448484 -267.827444 
L 284.058431 -266.292289 
L 284.668378 -269.622077 
L 285.278326 -266.882553 
L 285.888273 -266.554821 
L 286.49822 -267.697679 
L 287.108167 -269.536353 
L 287.718114 -269.53633 
L 288.328061 -268.953973 
L 288.938009 -267.912091 
L 289.547956 -268.515247 
L 290.157903 -267.484724 
L 290.76785 -266.909539 
L 291.377797 -266.368947 
L 291.987744 -266.368949 
L 292.597692 -267.696538 
L 293.207639 -269.258508 
L 293.817586 -267.50708 
L 294.427533 -267.481857 
L 295.03748 -267.507068 
L 295.647427 -266.63607 
L 296.257375 -268.003534 
L 296.867322 -267.406884 
L 297.477269 -266.658779 
L 298.087216 -266.115937 
L 298.697163 -267.579841 
L 299.30711 -267.16279 
L 299.917058 -267.028818 
L 300.527005 -266.45608 
L 301.136952 -266.728209 
L 301.746899 -267.579842 
L 302.356846 -268.701582 
L 302.966793 -269.075329 
L 303.576741 -268.519475 
L 304.186688 -267.68828 
L 304.796635 -268.454176 
L 305.406582 -268.292243 
L 306.016529 -268.454181 
L 306.626476 -269.787735 
L 307.236424 -270.132062 
L 307.846371 -270.403537 
L 308.456318 -269.740181 
L 309.066265 -270.395854 
L 309.676212 -270.246205 
L 310.286159 -269.740187 
L 310.896107 -267.757243 
L 311.506054 -267.182119 
L 312.116001 -268.39447 
L 312.725948 -266.777524 
L 313.335895 -268.642265 
L 313.945842 -266.922733 
L 314.55579 -266.707961 
L 315.165737 -266.758805 
L 315.775684 -268.171169 
L 316.385631 -268.982698 
L 316.995578 -269.097814 
L 317.605525 -269.091724 
L 318.215473 -269.091735 
L 318.82542 -268.196097 
L 319.435367 -268.196094 
L 320.045314 -269.091741 
L 320.655261 -269.136883 
L 321.265208 -269.516221 
L 321.875156 -269.043334 
L 322.485103 -267.087899 
L 323.09505 -267.250652 
L 323.704997 -267.403735 
L 324.314944 -267.40374 
L 324.924891 -266.816029 
L 325.534839 -267.434137 
L 326.144786 -267.403742 
L 326.754733 -267.586535 
L 327.36468 -265.878531 
L 327.974627 -266.956854 
L 328.584574 -267.44602 
L 329.194522 -267.700563 
L 329.804469 -266.891509 
L 330.414416 -267.094626 
L 331.024363 -266.874864 
L 331.63431 -266.543142 
L 332.244257 -267.505921 
L 332.854205 -267.048434 
L 333.464152 -267.295291 
L 334.074099 -267.048448 
L 334.684046 -266.954796 
L 335.293993 -267.068264 
L 335.90394 -267.502366 
L 336.513888 -267.502367 
L 337.123835 -267.539196 
L 337.733782 -267.539202 
L 338.343729 -267.625965 
L 338.953676 -268.212064 
L 339.563623 -268.977718 
L 340.173571 -268.805455 
L 340.783518 -268.006412 
L 341.393465 -268.006392 
L 342.003412 -268.171058 
L 342.613359 -264.498482 
L 343.223306 -267.875973 
L 343.833254 -267.773671 
L 344.443201 -267.875952 
L 345.053148 -267.875964 
L 345.663095 -267.401834 
L 346.273042 -267.796808 
L 346.88299 -267.967476 
L 347.492937 -268.595303 
L 348.102884 -269.324734 
L 348.712831 -269.324744 
L 349.322778 -270.594986 
L 349.932725 -268.699903 
L 350.542673 -269.472608 
L 351.15262 -267.276428 
L 351.762567 -267.384453 
L 352.372514 -268.015648 
L 352.982461 -269.287166 
L 353.592408 -267.751764 
L 354.202356 -268.043317 
L 354.812303 -267.678421 
L 355.42225 -266.662245 
L 356.032197 -266.66225 
L 356.642144 -267.638373 
L 357.252091 -266.023289 
L 357.862039 -266.023326 
L 358.471986 -268.410225 
L 359.081933 -268.018794 
L 359.69188 -267.528548 
L 360.301827 -266.023301 
L 360.911774 -266.111721 
L 361.521722 -267.285781 
L 362.131669 -266.111734 
L 362.741616 -265.822046 
L 363.351563 -266.442579 
L 363.96151 -266.665405 
L 364.571457 -266.66541 
L 365.181405 -264.502451 
L 365.791352 -263.579807 
L 366.401299 -264.521218 
L 367.011246 -265.172329 
L 367.621193 -265.922795 
L 367.621193 -272.467491 
L 367.621193 -272.467491 
L 367.011246 -272.467488 
L 366.401299 -272.467491 
L 365.791352 -272.4675 
L 365.181405 -272.467493 
L 364.571457 -272.467492 
L 363.96151 -272.46749 
L 363.351563 -272.46749 
L 362.741616 -272.467497 
L 362.131669 -272.46749 
L 361.521722 -272.467494 
L 360.911774 -272.467496 
L 360.301827 -272.46749 
L 359.69188 -272.467492 
L 359.081933 -272.467488 
L 358.471986 -272.467491 
L 357.862039 -272.467491 
L 357.252091 -272.46749 
L 356.642144 -272.467492 
L 356.032197 -272.467493 
L 355.42225 -272.467488 
L 354.812303 -272.46749 
L 354.202356 -272.467493 
L 353.592408 -272.467492 
L 352.982461 -272.467491 
L 352.372514 -272.467493 
L 351.762567 -272.467497 
L 351.15262 -272.467488 
L 350.542673 -272.467496 
L 349.932725 -272.467483 
L 349.322778 -272.467489 
L 348.712831 -272.467493 
L 348.102884 -272.467495 
L 347.492937 -272.467491 
L 346.88299 -272.467492 
L 346.273042 -272.46749 
L 345.663095 -272.467494 
L 345.053148 -272.467493 
L 344.443201 -272.467488 
L 343.833254 -272.467491 
L 343.223306 -272.467487 
L 342.613359 -272.46749 
L 342.003412 -272.467487 
L 341.393465 -272.467488 
L 340.783518 -272.467481 
L 340.173571 -272.467499 
L 339.563623 -272.467469 
L 338.953676 -272.46749 
L 338.343729 -272.467491 
L 337.733782 -272.46749 
L 337.123835 -272.467471 
L 336.513888 -272.467485 
L 335.90394 -272.467457 
L 335.293993 -272.467487 
L 334.684046 -272.467422 
L 334.074099 -272.467002 
L 333.464152 -272.467003 
L 332.854205 -272.466997 
L 332.244257 -272.466997 
L 331.63431 -272.467004 
L 331.024363 -272.466997 
L 330.414416 -272.466999 
L 329.804469 -272.466999 
L 329.194522 -272.467004 
L 328.584574 -272.467004 
L 327.974627 -272.466999 
L 327.36468 -272.467004 
L 326.754733 -272.467 
L 326.144786 -272.466996 
L 325.534839 -272.466992 
L 324.924891 -272.467002 
L 324.314944 -272.466999 
L 323.704997 -272.467006 
L 323.09505 -272.467003 
L 322.485103 -272.466991 
L 321.875156 -272.466993 
L 321.265208 -272.466999 
L 320.655261 -272.466995 
L 320.045314 -272.466995 
L 319.435367 -272.466984 
L 318.82542 -272.466992 
L 318.215473 -272.467001 
L 317.605525 -272.466985 
L 316.995578 -272.466998 
L 316.385631 -272.467003 
L 315.775684 -272.466948 
L 315.165737 -272.466996 
L 314.55579 -272.466956 
L 313.945842 -272.466949 
L 313.335895 -272.466935 
L 312.725948 -272.466919 
L 312.116001 -272.461936 
L 311.506054 -272.461904 
L 310.896107 -272.461882 
L 310.286159 -272.46044 
L 309.676212 -272.460432 
L 309.066265 -272.460423 
L 308.456318 -272.460439 
L 307.846371 -272.460404 
L 307.236424 -272.460428 
L 306.626476 -272.460369 
L 306.016529 -272.460373 
L 305.406582 -272.446097 
L 304.796635 -272.446098 
L 304.186688 -272.446098 
L 303.576741 -272.446099 
L 302.966793 -272.446101 
L 302.356846 -272.4461 
L 301.746899 -272.446096 
L 301.136952 -272.446096 
L 300.527005 -272.446091 
L 299.917058 -272.446099 
L 299.30711 -272.446094 
L 298.697163 -272.4461 
L 298.087216 -272.446093 
L 297.477269 -272.446098 
L 296.867322 -272.446086 
L 296.257375 -272.446033 
L 295.647427 -272.430336 
L 295.03748 -272.430313 
L 294.427533 -272.430334 
L 293.817586 -272.430338 
L 293.207639 -272.430321 
L 292.597692 -272.41752 
L 291.987744 -272.41753 
L 291.377797 -272.417517 
L 290.76785 -272.417506 
L 290.157903 -272.417504 
L 289.547956 -272.417458 
L 288.938009 -272.417483 
L 288.328061 -272.417472 
L 287.718114 -272.406262 
L 287.108167 -272.406251 
L 286.49822 -272.406249 
L 285.888273 -272.393384 
L 285.278326 -272.393386 
L 284.668378 -272.393407 
L 284.058431 -272.393356 
L 283.448484 -272.393387 
L 282.838537 -272.393347 
L 282.22859 -272.393345 
L 281.618643 -272.393035 
L 281.008695 -272.370965 
L 280.398748 -272.370959 
L 279.788801 -272.370952 
L 279.178854 -272.370971 
L 278.568907 -272.370967 
L 277.95896 -272.37092 
L 277.349012 -272.370914 
L 276.739065 -272.370966 
L 276.129118 -272.370922 
L 275.519171 -272.370944 
L 274.909224 -272.363291 
L 274.299277 -272.363285 
L 273.689329 -272.363276 
L 273.079382 -272.363283 
L 272.469435 -272.363279 
L 271.859488 -272.363285 
L 271.249541 -272.363255 
L 270.639594 -272.363256 
L 270.029646 -272.309932 
L 269.419699 -272.309959 
L 268.809752 -272.299359 
L 268.199805 -272.299365 
L 267.589858 -272.299344 
L 266.979911 -272.299352 
L 266.369963 -272.297222 
L 265.760016 -272.29722 
L 265.150069 -272.29722 
L 264.540122 -272.297218 
L 263.930175 -272.297209 
L 263.320228 -272.29721 
L 262.71028 -272.297209 
L 262.100333 -272.288027 
L 261.490386 -272.288013 
L 260.880439 -272.288024 
L 260.270492 -272.287995 
L 259.660545 -272.287998 
L 259.050597 -272.287997 
L 258.44065 -272.287992 
L 257.830703 -272.288003 
L 257.220756 -272.288001 
L 256.610809 -272.287999 
L 256.000862 -272.287999 
L 255.390914 -272.288001 
L 254.780967 -272.287997 
L 254.17102 -272.288003 
L 253.561073 -272.288005 
L 252.951126 -272.287996 
L 252.341179 -272.287972 
L 251.731231 -272.287962 
L 251.121284 -272.285851 
L 250.511337 -272.285854 
L 249.90139 -272.285858 
L 249.291443 -272.285854 
L 248.681496 -272.285845 
L 248.071548 -272.285849 
L 247.461601 -272.285816 
L 246.851654 -272.285848 
L 246.241707 -272.262309 
L 245.63176 -272.262288 
L 245.021813 -272.262277 
L 244.411865 -272.262313 
L 243.801918 -272.262303 
L 243.191971 -272.262292 
L 242.582024 -272.262306 
L 241.972077 -272.262259 
L 241.36213 -272.227698 
L 240.752182 -272.22769 
L 240.142235 -272.227702 
L 239.532288 -272.227681 
L 238.922341 -272.22769 
L 238.312394 -272.227692 
L 237.702447 -272.227701 
L 237.092499 -272.227696 
L 236.482552 -272.227686 
L 235.872605 -272.227678 
L 235.262658 -272.227678 
L 234.652711 -272.22767 
L 234.042764 -272.22768 
L 233.432816 -272.227655 
L 232.822869 -272.227659 
L 232.212922 -272.227689 
L 231.602975 -272.227639 
L 230.993028 -272.227692 
L 230.383081 -272.227643 
L 229.773133 -272.213937 
L 229.163186 -272.213948 
L 228.553239 -272.213947 
L 227.943292 -272.213933 
L 227.333345 -272.213942 
L 226.723398 -272.213953 
L 226.11345 -272.21395 
L 225.503503 -272.213938 
L 224.893556 -272.213943 
L 224.283609 -272.213936 
L 223.673662 -272.213955 
L 223.063715 -272.213948 
L 222.453767 -272.213941 
L 221.84382 -272.21395 
L 221.233873 -272.21394 
L 220.623926 -272.213944 
L 220.013979 -272.213941 
L 219.404032 -272.213934 
L 218.794084 -272.213951 
L 218.184137 -272.213932 
L 217.57419 -272.213944 
L 216.964243 -272.213941 
L 216.354296 -272.213942 
L 215.744349 -272.21394 
L 215.134401 -272.213941 
L 214.524454 -272.213938 
L 213.914507 -272.213916 
L 213.30456 -272.213919 
L 212.694613 -272.213914 
L 212.084666 -272.213882 
L 211.474718 -272.213892 
L 210.864771 -272.213869 
L 210.254824 -272.213916 
L 209.644877 -272.211687 
L 209.03493 -272.211692 
L 208.424983 -272.211695 
L 207.815035 -272.211695 
L 207.205088 -272.211691 
L 206.595141 -272.211677 
L 205.985194 -272.21168 
L 205.375247 -272.211669 
L 204.7653 -272.211644 
L 204.155352 -272.211679 
L 203.545405 -272.211639 
L 202.935458 -272.211632 
L 202.325511 -272.211642 
L 201.715564 -272.211633 
L 201.105617 -272.211652 
L 200.495669 -272.144759 
L 199.885722 -272.144764 
L 199.275775 -272.144749 
L 198.665828 -272.080177 
L 198.055881 -272.080155 
L 197.445934 -272.080151 
L 196.835986 -272.080181 
L 196.226039 -272.080146 
L 195.616092 -271.949904 
L 195.006145 -271.949855 
L 194.396198 -271.798086 
L 193.786251 -271.798076 
L 193.176303 -271.798058 
L 192.566356 -271.770046 
L 191.956409 -271.770011 
L 191.346462 -271.770043 
L 190.736515 -271.769991 
L 190.126568 -271.769986 
L 189.51662 -271.770014 
L 188.906673 -271.756751 
L 188.296726 -271.756743 
L 187.686779 -271.756733 
L 187.076832 -271.756732 
L 186.466885 -271.756754 
L 185.856937 -271.756742 
L 185.24699 -271.756729 
L 184.637043 -271.756724 
L 184.027096 -271.756712 
L 183.417149 -271.756718 
L 182.807202 -271.756698 
L 182.197254 -271.735021 
L 181.587307 -271.735001 
L 180.97736 -271.734999 
L 180.367413 -271.735004 
L 179.757466 -271.735002 
L 179.147519 -271.734999 
L 178.537571 -271.734976 
L 177.927624 -271.708343 
L 177.317677 -271.708305 
L 176.70773 -271.697772 
L 176.097783 -271.697771 
L 175.487836 -271.69778 
L 174.877888 -271.697741 
L 174.267941 -271.680815 
L 173.657994 -271.680813 
L 173.048047 -271.680826 
L 172.4381 -271.649581 
L 171.828153 -271.649585 
L 171.218205 -271.649586 
L 170.608258 -271.649588 
L 169.998311 -271.649577 
L 169.388364 -271.649592 
L 168.778417 -271.649587 
L 168.16847 -271.64958 
L 167.558522 -271.649574 
L 166.948575 -271.649578 
L 166.338628 -271.649562 
L 165.728681 -271.649555 
L 165.118734 -271.649557 
L 164.508787 -271.594422 
L 163.898839 -271.57402 
L 163.288892 -271.574014 
L 162.678945 -271.57402 
L 162.068998 -271.574007 
L 161.459051 -271.573998 
L 160.849104 -271.573913 
L 160.239156 -271.573988 
L 159.629209 -271.556819 
L 159.019262 -271.556769 
L 158.409315 -271.540673 
L 157.799368 -271.540614 
L 157.189421 -271.540671 
L 156.579473 -271.540609 
L 155.969526 -271.540619 
L 155.359579 -271.540615 
L 154.749632 -271.540617 
L 154.139685 -271.536191 
L 153.529738 -271.536192 
L 152.91979 -271.536191 
L 152.309843 -271.536188 
L 151.699896 -271.536192 
L 151.089949 -271.536192 
L 150.480002 -271.536188 
L 149.870055 -271.536188 
L 149.260107 -271.536186 
L 148.65016 -271.536193 
L 148.040213 -271.53619 
L 147.430266 -271.536177 
L 146.820319 -271.536165 
L 146.210372 -271.536187 
L 145.600424 -271.536185 
L 144.990477 -271.536183 
L 144.38053 -271.53618 
L 143.770583 -271.535171 
L 143.160636 -271.535167 
L 142.550689 -271.535162 
L 141.940741 -271.535139 
L 141.330794 -271.535143 
L 140.720847 -271.535104 
L 140.1109 -271.535156 
L 139.500953 -271.527794 
L 138.891006 -271.527784 
L 138.281058 -271.527804 
L 137.671111 -271.527802 
L 137.061164 -271.527784 
L 136.451217 -271.527788 
L 135.84127 -271.520968 
L 135.231323 -271.520969 
L 134.621375 -271.520952 
L 134.011428 -271.520953 
L 133.401481 -271.27009 
L 132.791534 -271.270092 
L 132.181587 -271.27009 
L 131.57164 -271.27009 
L 130.961692 -271.252868 
L 130.351745 -271.241639 
L 129.741798 -271.241633 
L 129.131851 -271.241633 
L 128.521904 -271.241618 
L 127.911957 -270.966562 
L 127.302009 -270.966556 
L 126.692062 -270.966557 
L 126.082115 -270.966546 
L 125.472168 -270.966537 
L 124.862221 -270.874306 
L 124.252274 -270.874328 
L 123.642326 -270.874304 
L 123.032379 -270.8743 
L 122.422432 -270.874301 
L 121.812485 -270.874311 
L 121.202538 -270.87431 
L 120.592591 -270.874312 
L 119.982643 -270.76612 
L 119.372696 -270.766124 
L 118.762749 -270.766103 
L 118.152802 -270.766096 
L 117.542855 -270.725007 
L 116.932908 -270.551797 
L 116.32296 -270.551767 
L 115.713013 -270.545064 
L 115.103066 -270.522069 
L 114.493119 -270.436304 
L 113.883172 -270.436316 
L 113.273225 -270.436311 
L 112.663277 -270.436311 
L 112.05333 -270.425992 
L 111.443383 -270.425997 
L 110.833436 -270.384278 
L 110.223489 -270.384279 
L 109.613542 -270.384271 
L 109.003594 -270.38427 
L 108.393647 -270.384263 
L 107.7837 -270.199466 
L 107.173753 -270.190382 
L 106.563806 -270.190384 
L 105.953859 -270.190381 
L 105.343911 -270.190383 
L 104.733964 -270.190379 
L 104.124017 -270.190383 
L 103.51407 -270.190369 
L 102.904123 -269.925096 
L 102.294176 -269.925107 
L 101.684228 -269.740575 
L 101.074281 -269.678178 
L 100.464334 -269.652783 
L 99.854387 -269.652766 
L 99.24444 -269.644884 
L 98.634493 -269.644893 
L 98.024545 -269.644883 
L 97.414598 -269.644866 
L 96.804651 -269.644857 
L 96.194704 -269.575121 
L 95.584757 -269.575126 
L 94.97481 -269.575114 
L 94.364862 -269.575112 
L 93.754915 -269.575111 
L 93.144968 -269.57508 
L 92.535021 -269.575105 
L 91.925074 -269.575076 
L 91.315127 -269.575072 
L 90.705179 -269.197819 
L 90.095232 -269.197834 
L 89.485285 -269.197775 
L 88.875338 -269.197765 
L 88.265391 -268.148161 
L 87.655444 -268.148151 
L 87.045496 -268.148114 
L 86.435549 -268.148129 
L 85.825602 -268.148129 
L 85.215655 -268.148129 
L 84.605708 -267.497957 
L 83.99576 -267.497969 
L 83.385813 -267.49796 
L 82.775866 -267.497961 
L 82.165919 -267.497969 
L 81.555972 -267.497947 
L 80.946025 -267.17217 
L 80.336077 -267.172207 
L 79.72613 -265.795744 
L 79.116183 -265.717894 
L 78.506236 -265.717874 
L 77.896289 -264.892206 
L 77.286342 -264.892202 
L 76.676394 -264.892189 
L 76.066447 -264.892231 
L 75.4565 -262.442476 
L 74.846553 -262.442474 
L 74.236606 -262.042307 
L 73.626659 -262.042318 
L 73.016711 -262.042326 
L 72.406764 -262.042285 
L 71.796817 -262.042329 
L 71.18687 -262.042308 
L 70.576923 -256.376107 
L 69.966976 -256.376107 
L 69.357028 -256.376106 
L 68.747081 -256.376108 
L 68.137134 -256.376105 
L 67.527187 -254.934008 
L 66.91724 -254.934011 
L 66.307293 -254.934006 
L 65.697345 -248.2523 
L 65.087398 -248.252291 
L 64.477451 -248.252246 
L 63.867504 -245.349099 
L 63.257557 -237.541352 
z
" style="stroke: #0000ff; stroke-opacity: 0.2"/>
    </defs>
    <g clip-path="url(#pb8c9f667eb)">
     <use xlink:href="#mc67e36a61e" x="0" y="287.4075" style="fill: #0000ff; fill-opacity: 0.2; stroke: #0000ff; stroke-opacity: 0.2"/>
    </g>
   </g>
   <g id="matplotlib.axis_1">
    <g id="xtick_1">
     <g id="line2d_1">
      <path d="M 63.257557 253.08 
L 63.257557 3.6 
" clip-path="url(#pb8c9f667eb)" style="fill: none; stroke: #b0b0b0; stroke-width: 0.5; stroke-linecap: square"/>
     </g>
     <g id="line2d_2">
      <defs>
       <path id="mb855c88caf" d="M 0 0 
L 0 -3 
" style="stroke: #000000; stroke-width: 0.5"/>
      </defs>
      <g>
       <use xlink:href="#mb855c88caf" x="63.257557" y="253.08" style="stroke: #000000; stroke-width: 0.5"/>
      </g>
     </g>
     <g id="line2d_3">
      <defs>
       <path id="mca6a5c78b7" d="M 0 0 
L 0 3 
" style="stroke: #000000; stroke-width: 0.5"/>
      </defs>
      <g>
       <use xlink:href="#mca6a5c78b7" x="63.257557" y="3.6" style="stroke: #000000; stroke-width: 0.5"/>
      </g>
     </g>
     <g id="text_1">
      <!-- 0 -->
      <g transform="translate(59.440057 265.698125) scale(0.12 -0.12)">
       <defs>
        <path id="DejaVuSans-30" d="M 2034 4250 
Q 1547 4250 1301 3770 
Q 1056 3291 1056 2328 
Q 1056 1369 1301 889 
Q 1547 409 2034 409 
Q 2525 409 2770 889 
Q 3016 1369 3016 2328 
Q 3016 3291 2770 3770 
Q 2525 4250 2034 4250 
z
M 2034 4750 
Q 2819 4750 3233 4129 
Q 3647 3509 3647 2328 
Q 3647 1150 3233 529 
Q 2819 -91 2034 -91 
Q 1250 -91 836 529 
Q 422 1150 422 2328 
Q 422 3509 836 4129 
Q 1250 4750 2034 4750 
z
" transform="scale(0.015625)"/>
       </defs>
       <use xlink:href="#DejaVuSans-30"/>
      </g>
     </g>
    </g>
    <g id="xtick_2">
     <g id="line2d_4">
      <path d="M 124.252274 253.08 
L 124.252274 3.6 
" clip-path="url(#pb8c9f667eb)" style="fill: none; stroke: #b0b0b0; stroke-width: 0.5; stroke-linecap: square"/>
     </g>
     <g id="line2d_5">
      <g>
       <use xlink:href="#mb855c88caf" x="124.252274" y="253.08" style="stroke: #000000; stroke-width: 0.5"/>
      </g>
     </g>
     <g id="line2d_6">
      <g>
       <use xlink:href="#mca6a5c78b7" x="124.252274" y="3.6" style="stroke: #000000; stroke-width: 0.5"/>
      </g>
     </g>
     <g id="text_2">
      <!-- 100 -->
      <g transform="translate(112.799774 265.698125) scale(0.12 -0.12)">
       <defs>
        <path id="DejaVuSans-31" d="M 794 531 
L 1825 531 
L 1825 4091 
L 703 3866 
L 703 4441 
L 1819 4666 
L 2450 4666 
L 2450 531 
L 3481 531 
L 3481 0 
L 794 0 
L 794 531 
z
" transform="scale(0.015625)"/>
       </defs>
       <use xlink:href="#DejaVuSans-31"/>
       <use xlink:href="#DejaVuSans-30" x="63.623047"/>
       <use xlink:href="#DejaVuSans-30" x="127.246094"/>
      </g>
     </g>
    </g>
    <g id="xtick_3">
     <g id="line2d_7">
      <path d="M 185.24699 253.08 
L 185.24699 3.6 
" clip-path="url(#pb8c9f667eb)" style="fill: none; stroke: #b0b0b0; stroke-width: 0.5; stroke-linecap: square"/>
     </g>
     <g id="line2d_8">
      <g>
       <use xlink:href="#mb855c88caf" x="185.24699" y="253.08" style="stroke: #000000; stroke-width: 0.5"/>
      </g>
     </g>
     <g id="line2d_9">
      <g>
       <use xlink:href="#mca6a5c78b7" x="185.24699" y="3.6" style="stroke: #000000; stroke-width: 0.5"/>
      </g>
     </g>
     <g id="text_3">
      <!-- 200 -->
      <g transform="translate(173.79449 265.698125) scale(0.12 -0.12)">
       <defs>
        <path id="DejaVuSans-32" d="M 1228 531 
L 3431 531 
L 3431 0 
L 469 0 
L 469 531 
Q 828 903 1448 1529 
Q 2069 2156 2228 2338 
Q 2531 2678 2651 2914 
Q 2772 3150 2772 3378 
Q 2772 3750 2511 3984 
Q 2250 4219 1831 4219 
Q 1534 4219 1204 4116 
Q 875 4013 500 3803 
L 500 4441 
Q 881 4594 1212 4672 
Q 1544 4750 1819 4750 
Q 2544 4750 2975 4387 
Q 3406 4025 3406 3419 
Q 3406 3131 3298 2873 
Q 3191 2616 2906 2266 
Q 2828 2175 2409 1742 
Q 1991 1309 1228 531 
z
" transform="scale(0.015625)"/>
       </defs>
       <use xlink:href="#DejaVuSans-32"/>
       <use xlink:href="#DejaVuSans-30" x="63.623047"/>
       <use xlink:href="#DejaVuSans-30" x="127.246094"/>
      </g>
     </g>
    </g>
    <g id="xtick_4">
     <g id="line2d_10">
      <path d="M 246.241707 253.08 
L 246.241707 3.6 
" clip-path="url(#pb8c9f667eb)" style="fill: none; stroke: #b0b0b0; stroke-width: 0.5; stroke-linecap: square"/>
     </g>
     <g id="line2d_11">
      <g>
       <use xlink:href="#mb855c88caf" x="246.241707" y="253.08" style="stroke: #000000; stroke-width: 0.5"/>
      </g>
     </g>
     <g id="line2d_12">
      <g>
       <use xlink:href="#mca6a5c78b7" x="246.241707" y="3.6" style="stroke: #000000; stroke-width: 0.5"/>
      </g>
     </g>
     <g id="text_4">
      <!-- 300 -->
      <g transform="translate(234.789207 265.698125) scale(0.12 -0.12)">
       <defs>
        <path id="DejaVuSans-33" d="M 2597 2516 
Q 3050 2419 3304 2112 
Q 3559 1806 3559 1356 
Q 3559 666 3084 287 
Q 2609 -91 1734 -91 
Q 1441 -91 1130 -33 
Q 819 25 488 141 
L 488 750 
Q 750 597 1062 519 
Q 1375 441 1716 441 
Q 2309 441 2620 675 
Q 2931 909 2931 1356 
Q 2931 1769 2642 2001 
Q 2353 2234 1838 2234 
L 1294 2234 
L 1294 2753 
L 1863 2753 
Q 2328 2753 2575 2939 
Q 2822 3125 2822 3475 
Q 2822 3834 2567 4026 
Q 2313 4219 1838 4219 
Q 1578 4219 1281 4162 
Q 984 4106 628 3988 
L 628 4550 
Q 988 4650 1302 4700 
Q 1616 4750 1894 4750 
Q 2613 4750 3031 4423 
Q 3450 4097 3450 3541 
Q 3450 3153 3228 2886 
Q 3006 2619 2597 2516 
z
" transform="scale(0.015625)"/>
       </defs>
       <use xlink:href="#DejaVuSans-33"/>
       <use xlink:href="#DejaVuSans-30" x="63.623047"/>
       <use xlink:href="#DejaVuSans-30" x="127.246094"/>
      </g>
     </g>
    </g>
    <g id="xtick_5">
     <g id="line2d_13">
      <path d="M 307.236424 253.08 
L 307.236424 3.6 
" clip-path="url(#pb8c9f667eb)" style="fill: none; stroke: #b0b0b0; stroke-width: 0.5; stroke-linecap: square"/>
     </g>
     <g id="line2d_14">
      <g>
       <use xlink:href="#mb855c88caf" x="307.236424" y="253.08" style="stroke: #000000; stroke-width: 0.5"/>
      </g>
     </g>
     <g id="line2d_15">
      <g>
       <use xlink:href="#mca6a5c78b7" x="307.236424" y="3.6" style="stroke: #000000; stroke-width: 0.5"/>
      </g>
     </g>
     <g id="text_5">
      <!-- 400 -->
      <g transform="translate(295.783924 265.698125) scale(0.12 -0.12)">
       <defs>
        <path id="DejaVuSans-34" d="M 2419 4116 
L 825 1625 
L 2419 1625 
L 2419 4116 
z
M 2253 4666 
L 3047 4666 
L 3047 1625 
L 3713 1625 
L 3713 1100 
L 3047 1100 
L 3047 0 
L 2419 0 
L 2419 1100 
L 313 1100 
L 313 1709 
L 2253 4666 
z
" transform="scale(0.015625)"/>
       </defs>
       <use xlink:href="#DejaVuSans-34"/>
       <use xlink:href="#DejaVuSans-30" x="63.623047"/>
       <use xlink:href="#DejaVuSans-30" x="127.246094"/>
      </g>
     </g>
    </g>
    <g id="xtick_6">
     <g id="line2d_16">
      <path d="M 368.23114 253.08 
L 368.23114 3.6 
" clip-path="url(#pb8c9f667eb)" style="fill: none; stroke: #b0b0b0; stroke-width: 0.5; stroke-linecap: square"/>
     </g>
     <g id="line2d_17">
      <g>
       <use xlink:href="#mb855c88caf" x="368.23114" y="253.08" style="stroke: #000000; stroke-width: 0.5"/>
      </g>
     </g>
     <g id="line2d_18">
      <g>
       <use xlink:href="#mca6a5c78b7" x="368.23114" y="3.6" style="stroke: #000000; stroke-width: 0.5"/>
      </g>
     </g>
     <g id="text_6">
      <!-- 500 -->
      <g transform="translate(356.77864 265.698125) scale(0.12 -0.12)">
       <defs>
        <path id="DejaVuSans-35" d="M 691 4666 
L 3169 4666 
L 3169 4134 
L 1269 4134 
L 1269 2991 
Q 1406 3038 1543 3061 
Q 1681 3084 1819 3084 
Q 2600 3084 3056 2656 
Q 3513 2228 3513 1497 
Q 3513 744 3044 326 
Q 2575 -91 1722 -91 
Q 1428 -91 1123 -41 
Q 819 9 494 109 
L 494 744 
Q 775 591 1075 516 
Q 1375 441 1709 441 
Q 2250 441 2565 725 
Q 2881 1009 2881 1497 
Q 2881 1984 2565 2268 
Q 2250 2553 1709 2553 
Q 1456 2553 1204 2497 
Q 953 2441 691 2322 
L 691 4666 
z
" transform="scale(0.015625)"/>
       </defs>
       <use xlink:href="#DejaVuSans-35"/>
       <use xlink:href="#DejaVuSans-30" x="63.623047"/>
       <use xlink:href="#DejaVuSans-30" x="127.246094"/>
      </g>
     </g>
    </g>
    <g id="xtick_7">
     <g id="line2d_19">
      <defs>
       <path id="med86ea56d7" d="M 0 0 
L 0 -1.5 
" style="stroke: #000000; stroke-width: 0.5"/>
      </defs>
      <g>
       <use xlink:href="#med86ea56d7" x="51.058613" y="253.08" style="stroke: #000000; stroke-width: 0.5"/>
      </g>
     </g>
     <g id="line2d_20">
      <defs>
       <path id="m7a5fdb7b82" d="M 0 0 
L 0 1.5 
" style="stroke: #000000; stroke-width: 0.5"/>
      </defs>
      <g>
       <use xlink:href="#m7a5fdb7b82" x="51.058613" y="3.6" style="stroke: #000000; stroke-width: 0.5"/>
      </g>
     </g>
    </g>
    <g id="xtick_8">
     <g id="line2d_21">
      <g>
       <use xlink:href="#med86ea56d7" x="75.4565" y="253.08" style="stroke: #000000; stroke-width: 0.5"/>
      </g>
     </g>
     <g id="line2d_22">
      <g>
       <use xlink:href="#m7a5fdb7b82" x="75.4565" y="3.6" style="stroke: #000000; stroke-width: 0.5"/>
      </g>
     </g>
    </g>
    <g id="xtick_9">
     <g id="line2d_23">
      <g>
       <use xlink:href="#med86ea56d7" x="87.655444" y="253.08" style="stroke: #000000; stroke-width: 0.5"/>
      </g>
     </g>
     <g id="line2d_24">
      <g>
       <use xlink:href="#m7a5fdb7b82" x="87.655444" y="3.6" style="stroke: #000000; stroke-width: 0.5"/>
      </g>
     </g>
    </g>
    <g id="xtick_10">
     <g id="line2d_25">
      <g>
       <use xlink:href="#med86ea56d7" x="99.854387" y="253.08" style="stroke: #000000; stroke-width: 0.5"/>
      </g>
     </g>
     <g id="line2d_26">
      <g>
       <use xlink:href="#m7a5fdb7b82" x="99.854387" y="3.6" style="stroke: #000000; stroke-width: 0.5"/>
      </g>
     </g>
    </g>
    <g id="xtick_11">
     <g id="line2d_27">
      <g>
       <use xlink:href="#med86ea56d7" x="112.05333" y="253.08" style="stroke: #000000; stroke-width: 0.5"/>
      </g>
     </g>
     <g id="line2d_28">
      <g>
       <use xlink:href="#m7a5fdb7b82" x="112.05333" y="3.6" style="stroke: #000000; stroke-width: 0.5"/>
      </g>
     </g>
    </g>
    <g id="xtick_12">
     <g id="line2d_29">
      <g>
       <use xlink:href="#med86ea56d7" x="136.451217" y="253.08" style="stroke: #000000; stroke-width: 0.5"/>
      </g>
     </g>
     <g id="line2d_30">
      <g>
       <use xlink:href="#m7a5fdb7b82" x="136.451217" y="3.6" style="stroke: #000000; stroke-width: 0.5"/>
      </g>
     </g>
    </g>
    <g id="xtick_13">
     <g id="line2d_31">
      <g>
       <use xlink:href="#med86ea56d7" x="148.65016" y="253.08" style="stroke: #000000; stroke-width: 0.5"/>
      </g>
     </g>
     <g id="line2d_32">
      <g>
       <use xlink:href="#m7a5fdb7b82" x="148.65016" y="3.6" style="stroke: #000000; stroke-width: 0.5"/>
      </g>
     </g>
    </g>
    <g id="xtick_14">
     <g id="line2d_33">
      <g>
       <use xlink:href="#med86ea56d7" x="160.849104" y="253.08" style="stroke: #000000; stroke-width: 0.5"/>
      </g>
     </g>
     <g id="line2d_34">
      <g>
       <use xlink:href="#m7a5fdb7b82" x="160.849104" y="3.6" style="stroke: #000000; stroke-width: 0.5"/>
      </g>
     </g>
    </g>
    <g id="xtick_15">
     <g id="line2d_35">
      <g>
       <use xlink:href="#med86ea56d7" x="173.048047" y="253.08" style="stroke: #000000; stroke-width: 0.5"/>
      </g>
     </g>
     <g id="line2d_36">
      <g>
       <use xlink:href="#m7a5fdb7b82" x="173.048047" y="3.6" style="stroke: #000000; stroke-width: 0.5"/>
      </g>
     </g>
    </g>
    <g id="xtick_16">
     <g id="line2d_37">
      <g>
       <use xlink:href="#med86ea56d7" x="197.445934" y="253.08" style="stroke: #000000; stroke-width: 0.5"/>
      </g>
     </g>
     <g id="line2d_38">
      <g>
       <use xlink:href="#m7a5fdb7b82" x="197.445934" y="3.6" style="stroke: #000000; stroke-width: 0.5"/>
      </g>
     </g>
    </g>
    <g id="xtick_17">
     <g id="line2d_39">
      <g>
       <use xlink:href="#med86ea56d7" x="209.644877" y="253.08" style="stroke: #000000; stroke-width: 0.5"/>
      </g>
     </g>
     <g id="line2d_40">
      <g>
       <use xlink:href="#m7a5fdb7b82" x="209.644877" y="3.6" style="stroke: #000000; stroke-width: 0.5"/>
      </g>
     </g>
    </g>
    <g id="xtick_18">
     <g id="line2d_41">
      <g>
       <use xlink:href="#med86ea56d7" x="221.84382" y="253.08" style="stroke: #000000; stroke-width: 0.5"/>
      </g>
     </g>
     <g id="line2d_42">
      <g>
       <use xlink:href="#m7a5fdb7b82" x="221.84382" y="3.6" style="stroke: #000000; stroke-width: 0.5"/>
      </g>
     </g>
    </g>
    <g id="xtick_19">
     <g id="line2d_43">
      <g>
       <use xlink:href="#med86ea56d7" x="234.042764" y="253.08" style="stroke: #000000; stroke-width: 0.5"/>
      </g>
     </g>
     <g id="line2d_44">
      <g>
       <use xlink:href="#m7a5fdb7b82" x="234.042764" y="3.6" style="stroke: #000000; stroke-width: 0.5"/>
      </g>
     </g>
    </g>
    <g id="xtick_20">
     <g id="line2d_45">
      <g>
       <use xlink:href="#med86ea56d7" x="258.44065" y="253.08" style="stroke: #000000; stroke-width: 0.5"/>
      </g>
     </g>
     <g id="line2d_46">
      <g>
       <use xlink:href="#m7a5fdb7b82" x="258.44065" y="3.6" style="stroke: #000000; stroke-width: 0.5"/>
      </g>
     </g>
    </g>
    <g id="xtick_21">
     <g id="line2d_47">
      <g>
       <use xlink:href="#med86ea56d7" x="270.639594" y="253.08" style="stroke: #000000; stroke-width: 0.5"/>
      </g>
     </g>
     <g id="line2d_48">
      <g>
       <use xlink:href="#m7a5fdb7b82" x="270.639594" y="3.6" style="stroke: #000000; stroke-width: 0.5"/>
      </g>
     </g>
    </g>
    <g id="xtick_22">
     <g id="line2d_49">
      <g>
       <use xlink:href="#med86ea56d7" x="282.838537" y="253.08" style="stroke: #000000; stroke-width: 0.5"/>
      </g>
     </g>
     <g id="line2d_50">
      <g>
       <use xlink:href="#m7a5fdb7b82" x="282.838537" y="3.6" style="stroke: #000000; stroke-width: 0.5"/>
      </g>
     </g>
    </g>
    <g id="xtick_23">
     <g id="line2d_51">
      <g>
       <use xlink:href="#med86ea56d7" x="295.03748" y="253.08" style="stroke: #000000; stroke-width: 0.5"/>
      </g>
     </g>
     <g id="line2d_52">
      <g>
       <use xlink:href="#m7a5fdb7b82" x="295.03748" y="3.6" style="stroke: #000000; stroke-width: 0.5"/>
      </g>
     </g>
    </g>
    <g id="xtick_24">
     <g id="line2d_53">
      <g>
       <use xlink:href="#med86ea56d7" x="319.435367" y="253.08" style="stroke: #000000; stroke-width: 0.5"/>
      </g>
     </g>
     <g id="line2d_54">
      <g>
       <use xlink:href="#m7a5fdb7b82" x="319.435367" y="3.6" style="stroke: #000000; stroke-width: 0.5"/>
      </g>
     </g>
    </g>
    <g id="xtick_25">
     <g id="line2d_55">
      <g>
       <use xlink:href="#med86ea56d7" x="331.63431" y="253.08" style="stroke: #000000; stroke-width: 0.5"/>
      </g>
     </g>
     <g id="line2d_56">
      <g>
       <use xlink:href="#m7a5fdb7b82" x="331.63431" y="3.6" style="stroke: #000000; stroke-width: 0.5"/>
      </g>
     </g>
    </g>
    <g id="xtick_26">
     <g id="line2d_57">
      <g>
       <use xlink:href="#med86ea56d7" x="343.833254" y="253.08" style="stroke: #000000; stroke-width: 0.5"/>
      </g>
     </g>
     <g id="line2d_58">
      <g>
       <use xlink:href="#m7a5fdb7b82" x="343.833254" y="3.6" style="stroke: #000000; stroke-width: 0.5"/>
      </g>
     </g>
    </g>
    <g id="xtick_27">
     <g id="line2d_59">
      <g>
       <use xlink:href="#med86ea56d7" x="356.032197" y="253.08" style="stroke: #000000; stroke-width: 0.5"/>
      </g>
     </g>
     <g id="line2d_60">
      <g>
       <use xlink:href="#m7a5fdb7b82" x="356.032197" y="3.6" style="stroke: #000000; stroke-width: 0.5"/>
      </g>
     </g>
    </g>
    <g id="xtick_28">
     <g id="line2d_61">
      <g>
       <use xlink:href="#med86ea56d7" x="380.430084" y="253.08" style="stroke: #000000; stroke-width: 0.5"/>
      </g>
     </g>
     <g id="line2d_62">
      <g>
       <use xlink:href="#m7a5fdb7b82" x="380.430084" y="3.6" style="stroke: #000000; stroke-width: 0.5"/>
      </g>
     </g>
    </g>
    <g id="text_7">
     <!-- Generations -->
     <g transform="translate(178.842188 281.311875) scale(0.12 -0.12)">
      <defs>
       <path id="DejaVuSans-47" d="M 3809 666 
L 3809 1919 
L 2778 1919 
L 2778 2438 
L 4434 2438 
L 4434 434 
Q 4069 175 3628 42 
Q 3188 -91 2688 -91 
Q 1594 -91 976 548 
Q 359 1188 359 2328 
Q 359 3472 976 4111 
Q 1594 4750 2688 4750 
Q 3144 4750 3555 4637 
Q 3966 4525 4313 4306 
L 4313 3634 
Q 3963 3931 3569 4081 
Q 3175 4231 2741 4231 
Q 1884 4231 1454 3753 
Q 1025 3275 1025 2328 
Q 1025 1384 1454 906 
Q 1884 428 2741 428 
Q 3075 428 3337 486 
Q 3600 544 3809 666 
z
" transform="scale(0.015625)"/>
       <path id="DejaVuSans-65" d="M 3597 1894 
L 3597 1613 
L 953 1613 
Q 991 1019 1311 708 
Q 1631 397 2203 397 
Q 2534 397 2845 478 
Q 3156 559 3463 722 
L 3463 178 
Q 3153 47 2828 -22 
Q 2503 -91 2169 -91 
Q 1331 -91 842 396 
Q 353 884 353 1716 
Q 353 2575 817 3079 
Q 1281 3584 2069 3584 
Q 2775 3584 3186 3129 
Q 3597 2675 3597 1894 
z
M 3022 2063 
Q 3016 2534 2758 2815 
Q 2500 3097 2075 3097 
Q 1594 3097 1305 2825 
Q 1016 2553 972 2059 
L 3022 2063 
z
" transform="scale(0.015625)"/>
       <path id="DejaVuSans-6e" d="M 3513 2113 
L 3513 0 
L 2938 0 
L 2938 2094 
Q 2938 2591 2744 2837 
Q 2550 3084 2163 3084 
Q 1697 3084 1428 2787 
Q 1159 2491 1159 1978 
L 1159 0 
L 581 0 
L 581 3500 
L 1159 3500 
L 1159 2956 
Q 1366 3272 1645 3428 
Q 1925 3584 2291 3584 
Q 2894 3584 3203 3211 
Q 3513 2838 3513 2113 
z
" transform="scale(0.015625)"/>
       <path id="DejaVuSans-72" d="M 2631 2963 
Q 2534 3019 2420 3045 
Q 2306 3072 2169 3072 
Q 1681 3072 1420 2755 
Q 1159 2438 1159 1844 
L 1159 0 
L 581 0 
L 581 3500 
L 1159 3500 
L 1159 2956 
Q 1341 3275 1631 3429 
Q 1922 3584 2338 3584 
Q 2397 3584 2469 3576 
Q 2541 3569 2628 3553 
L 2631 2963 
z
" transform="scale(0.015625)"/>
       <path id="DejaVuSans-61" d="M 2194 1759 
Q 1497 1759 1228 1600 
Q 959 1441 959 1056 
Q 959 750 1161 570 
Q 1363 391 1709 391 
Q 2188 391 2477 730 
Q 2766 1069 2766 1631 
L 2766 1759 
L 2194 1759 
z
M 3341 1997 
L 3341 0 
L 2766 0 
L 2766 531 
Q 2569 213 2275 61 
Q 1981 -91 1556 -91 
Q 1019 -91 701 211 
Q 384 513 384 1019 
Q 384 1609 779 1909 
Q 1175 2209 1959 2209 
L 2766 2209 
L 2766 2266 
Q 2766 2663 2505 2880 
Q 2244 3097 1772 3097 
Q 1472 3097 1187 3025 
Q 903 2953 641 2809 
L 641 3341 
Q 956 3463 1253 3523 
Q 1550 3584 1831 3584 
Q 2591 3584 2966 3190 
Q 3341 2797 3341 1997 
z
" transform="scale(0.015625)"/>
       <path id="DejaVuSans-74" d="M 1172 4494 
L 1172 3500 
L 2356 3500 
L 2356 3053 
L 1172 3053 
L 1172 1153 
Q 1172 725 1289 603 
Q 1406 481 1766 481 
L 2356 481 
L 2356 0 
L 1766 0 
Q 1100 0 847 248 
Q 594 497 594 1153 
L 594 3053 
L 172 3053 
L 172 3500 
L 594 3500 
L 594 4494 
L 1172 4494 
z
" transform="scale(0.015625)"/>
       <path id="DejaVuSans-69" d="M 603 3500 
L 1178 3500 
L 1178 0 
L 603 0 
L 603 3500 
z
M 603 4863 
L 1178 4863 
L 1178 4134 
L 603 4134 
L 603 4863 
z
" transform="scale(0.015625)"/>
       <path id="DejaVuSans-6f" d="M 1959 3097 
Q 1497 3097 1228 2736 
Q 959 2375 959 1747 
Q 959 1119 1226 758 
Q 1494 397 1959 397 
Q 2419 397 2687 759 
Q 2956 1122 2956 1747 
Q 2956 2369 2687 2733 
Q 2419 3097 1959 3097 
z
M 1959 3584 
Q 2709 3584 3137 3096 
Q 3566 2609 3566 1747 
Q 3566 888 3137 398 
Q 2709 -91 1959 -91 
Q 1206 -91 779 398 
Q 353 888 353 1747 
Q 353 2609 779 3096 
Q 1206 3584 1959 3584 
z
" transform="scale(0.015625)"/>
       <path id="DejaVuSans-73" d="M 2834 3397 
L 2834 2853 
Q 2591 2978 2328 3040 
Q 2066 3103 1784 3103 
Q 1356 3103 1142 2972 
Q 928 2841 928 2578 
Q 928 2378 1081 2264 
Q 1234 2150 1697 2047 
L 1894 2003 
Q 2506 1872 2764 1633 
Q 3022 1394 3022 966 
Q 3022 478 2636 193 
Q 2250 -91 1575 -91 
Q 1294 -91 989 -36 
Q 684 19 347 128 
L 347 722 
Q 666 556 975 473 
Q 1284 391 1588 391 
Q 1994 391 2212 530 
Q 2431 669 2431 922 
Q 2431 1156 2273 1281 
Q 2116 1406 1581 1522 
L 1381 1569 
Q 847 1681 609 1914 
Q 372 2147 372 2553 
Q 372 3047 722 3315 
Q 1072 3584 1716 3584 
Q 2034 3584 2315 3537 
Q 2597 3491 2834 3397 
z
" transform="scale(0.015625)"/>
      </defs>
      <use xlink:href="#DejaVuSans-47"/>
      <use xlink:href="#DejaVuSans-65" x="77.490234"/>
      <use xlink:href="#DejaVuSans-6e" x="139.013672"/>
      <use xlink:href="#DejaVuSans-65" x="202.392578"/>
      <use xlink:href="#DejaVuSans-72" x="263.916016"/>
      <use xlink:href="#DejaVuSans-61" x="305.029297"/>
      <use xlink:href="#DejaVuSans-74" x="366.308594"/>
      <use xlink:href="#DejaVuSans-69" x="405.517578"/>
      <use xlink:href="#DejaVuSans-6f" x="433.300781"/>
      <use xlink:href="#DejaVuSans-6e" x="494.482422"/>
      <use xlink:href="#DejaVuSans-73" x="557.861328"/>
     </g>
    </g>
   </g>
   <g id="matplotlib.axis_2">
    <g id="ytick_1">
     <g id="line2d_63">
      <path d="M 48.039375 220.133232 
L 382.839375 220.133232 
" clip-path="url(#pb8c9f667eb)" style="fill: none; stroke: #b0b0b0; stroke-width: 0.5; stroke-linecap: square"/>
     </g>
     <g id="line2d_64">
      <defs>
       <path id="medfcf770c6" d="M 0 0 
L 3 0 
" style="stroke: #000000; stroke-width: 0.5"/>
      </defs>
      <g>
       <use xlink:href="#medfcf770c6" x="48.039375" y="220.133232" style="stroke: #000000; stroke-width: 0.5"/>
      </g>
     </g>
     <g id="line2d_65">
      <defs>
       <path id="md11315f3e9" d="M 0 0 
L -3 0 
" style="stroke: #000000; stroke-width: 0.5"/>
      </defs>
      <g>
       <use xlink:href="#md11315f3e9" x="382.839375" y="220.133232" style="stroke: #000000; stroke-width: 0.5"/>
      </g>
     </g>
     <g id="text_8">
      <!-- −60 -->
      <g transform="translate(19.21375 224.692294) scale(0.12 -0.12)">
       <defs>
        <path id="DejaVuSans-2212" d="M 678 2272 
L 4684 2272 
L 4684 1741 
L 678 1741 
L 678 2272 
z
" transform="scale(0.015625)"/>
        <path id="DejaVuSans-36" d="M 2113 2584 
Q 1688 2584 1439 2293 
Q 1191 2003 1191 1497 
Q 1191 994 1439 701 
Q 1688 409 2113 409 
Q 2538 409 2786 701 
Q 3034 994 3034 1497 
Q 3034 2003 2786 2293 
Q 2538 2584 2113 2584 
z
M 3366 4563 
L 3366 3988 
Q 3128 4100 2886 4159 
Q 2644 4219 2406 4219 
Q 1781 4219 1451 3797 
Q 1122 3375 1075 2522 
Q 1259 2794 1537 2939 
Q 1816 3084 2150 3084 
Q 2853 3084 3261 2657 
Q 3669 2231 3669 1497 
Q 3669 778 3244 343 
Q 2819 -91 2113 -91 
Q 1303 -91 875 529 
Q 447 1150 447 2328 
Q 447 3434 972 4092 
Q 1497 4750 2381 4750 
Q 2619 4750 2861 4703 
Q 3103 4656 3366 4563 
z
" transform="scale(0.015625)"/>
       </defs>
       <use xlink:href="#DejaVuSans-2212"/>
       <use xlink:href="#DejaVuSans-36" x="83.789062"/>
       <use xlink:href="#DejaVuSans-30" x="147.412109"/>
      </g>
     </g>
    </g>
    <g id="ytick_2">
     <g id="line2d_66">
      <path d="M 48.039375 171.530861 
L 382.839375 171.530861 
" clip-path="url(#pb8c9f667eb)" style="fill: none; stroke: #b0b0b0; stroke-width: 0.5; stroke-linecap: square"/>
     </g>
     <g id="line2d_67">
      <g>
       <use xlink:href="#medfcf770c6" x="48.039375" y="171.530861" style="stroke: #000000; stroke-width: 0.5"/>
      </g>
     </g>
     <g id="line2d_68">
      <g>
       <use xlink:href="#md11315f3e9" x="382.839375" y="171.530861" style="stroke: #000000; stroke-width: 0.5"/>
      </g>
     </g>
     <g id="text_9">
      <!-- −40 -->
      <g transform="translate(19.21375 176.089924) scale(0.12 -0.12)">
       <use xlink:href="#DejaVuSans-2212"/>
       <use xlink:href="#DejaVuSans-34" x="83.789062"/>
       <use xlink:href="#DejaVuSans-30" x="147.412109"/>
      </g>
     </g>
    </g>
    <g id="ytick_3">
     <g id="line2d_69">
      <path d="M 48.039375 122.928491 
L 382.839375 122.928491 
" clip-path="url(#pb8c9f667eb)" style="fill: none; stroke: #b0b0b0; stroke-width: 0.5; stroke-linecap: square"/>
     </g>
     <g id="line2d_70">
      <g>
       <use xlink:href="#medfcf770c6" x="48.039375" y="122.928491" style="stroke: #000000; stroke-width: 0.5"/>
      </g>
     </g>
     <g id="line2d_71">
      <g>
       <use xlink:href="#md11315f3e9" x="382.839375" y="122.928491" style="stroke: #000000; stroke-width: 0.5"/>
      </g>
     </g>
     <g id="text_10">
      <!-- −20 -->
      <g transform="translate(19.21375 127.487554) scale(0.12 -0.12)">
       <use xlink:href="#DejaVuSans-2212"/>
       <use xlink:href="#DejaVuSans-32" x="83.789062"/>
       <use xlink:href="#DejaVuSans-30" x="147.412109"/>
      </g>
     </g>
    </g>
    <g id="ytick_4">
     <g id="line2d_72">
      <path d="M 48.039375 74.326121 
L 382.839375 74.326121 
" clip-path="url(#pb8c9f667eb)" style="fill: none; stroke: #b0b0b0; stroke-width: 0.5; stroke-linecap: square"/>
     </g>
     <g id="line2d_73">
      <g>
       <use xlink:href="#medfcf770c6" x="48.039375" y="74.326121" style="stroke: #000000; stroke-width: 0.5"/>
      </g>
     </g>
     <g id="line2d_74">
      <g>
       <use xlink:href="#md11315f3e9" x="382.839375" y="74.326121" style="stroke: #000000; stroke-width: 0.5"/>
      </g>
     </g>
     <g id="text_11">
      <!-- 0 -->
      <g transform="translate(36.904375 78.885183) scale(0.12 -0.12)">
       <use xlink:href="#DejaVuSans-30"/>
      </g>
     </g>
    </g>
    <g id="ytick_5">
     <g id="line2d_75">
      <path d="M 48.039375 25.723751 
L 382.839375 25.723751 
" clip-path="url(#pb8c9f667eb)" style="fill: none; stroke: #b0b0b0; stroke-width: 0.5; stroke-linecap: square"/>
     </g>
     <g id="line2d_76">
      <g>
       <use xlink:href="#medfcf770c6" x="48.039375" y="25.723751" style="stroke: #000000; stroke-width: 0.5"/>
      </g>
     </g>
     <g id="line2d_77">
      <g>
       <use xlink:href="#md11315f3e9" x="382.839375" y="25.723751" style="stroke: #000000; stroke-width: 0.5"/>
      </g>
     </g>
     <g id="text_12">
      <!-- 20 -->
      <g transform="translate(29.269375 30.282813) scale(0.12 -0.12)">
       <use xlink:href="#DejaVuSans-32"/>
       <use xlink:href="#DejaVuSans-30" x="63.623047"/>
      </g>
     </g>
    </g>
    <g id="ytick_6">
     <g id="line2d_78">
      <defs>
       <path id="mf9489e1d4d" d="M 0 0 
L 1.5 0 
" style="stroke: #000000; stroke-width: 0.5"/>
      </defs>
      <g>
       <use xlink:href="#mf9489e1d4d" x="48.039375" y="244.434417" style="stroke: #000000; stroke-width: 0.5"/>
      </g>
     </g>
     <g id="line2d_79">
      <defs>
       <path id="me81ac9c319" d="M 0 0 
L -1.5 0 
" style="stroke: #000000; stroke-width: 0.5"/>
      </defs>
      <g>
       <use xlink:href="#me81ac9c319" x="382.839375" y="244.434417" style="stroke: #000000; stroke-width: 0.5"/>
      </g>
     </g>
    </g>
    <g id="ytick_7">
     <g id="line2d_80">
      <g>
       <use xlink:href="#mf9489e1d4d" x="48.039375" y="232.283824" style="stroke: #000000; stroke-width: 0.5"/>
      </g>
     </g>
     <g id="line2d_81">
      <g>
       <use xlink:href="#me81ac9c319" x="382.839375" y="232.283824" style="stroke: #000000; stroke-width: 0.5"/>
      </g>
     </g>
    </g>
    <g id="ytick_8">
     <g id="line2d_82">
      <g>
       <use xlink:href="#mf9489e1d4d" x="48.039375" y="207.982639" style="stroke: #000000; stroke-width: 0.5"/>
      </g>
     </g>
     <g id="line2d_83">
      <g>
       <use xlink:href="#me81ac9c319" x="382.839375" y="207.982639" style="stroke: #000000; stroke-width: 0.5"/>
      </g>
     </g>
    </g>
    <g id="ytick_9">
     <g id="line2d_84">
      <g>
       <use xlink:href="#mf9489e1d4d" x="48.039375" y="195.832047" style="stroke: #000000; stroke-width: 0.5"/>
      </g>
     </g>
     <g id="line2d_85">
      <g>
       <use xlink:href="#me81ac9c319" x="382.839375" y="195.832047" style="stroke: #000000; stroke-width: 0.5"/>
      </g>
     </g>
    </g>
    <g id="ytick_10">
     <g id="line2d_86">
      <g>
       <use xlink:href="#mf9489e1d4d" x="48.039375" y="183.681454" style="stroke: #000000; stroke-width: 0.5"/>
      </g>
     </g>
     <g id="line2d_87">
      <g>
       <use xlink:href="#me81ac9c319" x="382.839375" y="183.681454" style="stroke: #000000; stroke-width: 0.5"/>
      </g>
     </g>
    </g>
    <g id="ytick_11">
     <g id="line2d_88">
      <g>
       <use xlink:href="#mf9489e1d4d" x="48.039375" y="159.380269" style="stroke: #000000; stroke-width: 0.5"/>
      </g>
     </g>
     <g id="line2d_89">
      <g>
       <use xlink:href="#me81ac9c319" x="382.839375" y="159.380269" style="stroke: #000000; stroke-width: 0.5"/>
      </g>
     </g>
    </g>
    <g id="ytick_12">
     <g id="line2d_90">
      <g>
       <use xlink:href="#mf9489e1d4d" x="48.039375" y="147.229676" style="stroke: #000000; stroke-width: 0.5"/>
      </g>
     </g>
     <g id="line2d_91">
      <g>
       <use xlink:href="#me81ac9c319" x="382.839375" y="147.229676" style="stroke: #000000; stroke-width: 0.5"/>
      </g>
     </g>
    </g>
    <g id="ytick_13">
     <g id="line2d_92">
      <g>
       <use xlink:href="#mf9489e1d4d" x="48.039375" y="135.079084" style="stroke: #000000; stroke-width: 0.5"/>
      </g>
     </g>
     <g id="line2d_93">
      <g>
       <use xlink:href="#me81ac9c319" x="382.839375" y="135.079084" style="stroke: #000000; stroke-width: 0.5"/>
      </g>
     </g>
    </g>
    <g id="ytick_14">
     <g id="line2d_94">
      <g>
       <use xlink:href="#mf9489e1d4d" x="48.039375" y="110.777899" style="stroke: #000000; stroke-width: 0.5"/>
      </g>
     </g>
     <g id="line2d_95">
      <g>
       <use xlink:href="#me81ac9c319" x="382.839375" y="110.777899" style="stroke: #000000; stroke-width: 0.5"/>
      </g>
     </g>
    </g>
    <g id="ytick_15">
     <g id="line2d_96">
      <g>
       <use xlink:href="#mf9489e1d4d" x="48.039375" y="98.627306" style="stroke: #000000; stroke-width: 0.5"/>
      </g>
     </g>
     <g id="line2d_97">
      <g>
       <use xlink:href="#me81ac9c319" x="382.839375" y="98.627306" style="stroke: #000000; stroke-width: 0.5"/>
      </g>
     </g>
    </g>
    <g id="ytick_16">
     <g id="line2d_98">
      <g>
       <use xlink:href="#mf9489e1d4d" x="48.039375" y="86.476713" style="stroke: #000000; stroke-width: 0.5"/>
      </g>
     </g>
     <g id="line2d_99">
      <g>
       <use xlink:href="#me81ac9c319" x="382.839375" y="86.476713" style="stroke: #000000; stroke-width: 0.5"/>
      </g>
     </g>
    </g>
    <g id="ytick_17">
     <g id="line2d_100">
      <g>
       <use xlink:href="#mf9489e1d4d" x="48.039375" y="62.175528" style="stroke: #000000; stroke-width: 0.5"/>
      </g>
     </g>
     <g id="line2d_101">
      <g>
       <use xlink:href="#me81ac9c319" x="382.839375" y="62.175528" style="stroke: #000000; stroke-width: 0.5"/>
      </g>
     </g>
    </g>
    <g id="ytick_18">
     <g id="line2d_102">
      <g>
       <use xlink:href="#mf9489e1d4d" x="48.039375" y="50.024936" style="stroke: #000000; stroke-width: 0.5"/>
      </g>
     </g>
     <g id="line2d_103">
      <g>
       <use xlink:href="#me81ac9c319" x="382.839375" y="50.024936" style="stroke: #000000; stroke-width: 0.5"/>
      </g>
     </g>
    </g>
    <g id="ytick_19">
     <g id="line2d_104">
      <g>
       <use xlink:href="#mf9489e1d4d" x="48.039375" y="37.874343" style="stroke: #000000; stroke-width: 0.5"/>
      </g>
     </g>
     <g id="line2d_105">
      <g>
       <use xlink:href="#me81ac9c319" x="382.839375" y="37.874343" style="stroke: #000000; stroke-width: 0.5"/>
      </g>
     </g>
    </g>
    <g id="ytick_20">
     <g id="line2d_106">
      <g>
       <use xlink:href="#mf9489e1d4d" x="48.039375" y="13.573158" style="stroke: #000000; stroke-width: 0.5"/>
      </g>
     </g>
     <g id="line2d_107">
      <g>
       <use xlink:href="#me81ac9c319" x="382.839375" y="13.573158" style="stroke: #000000; stroke-width: 0.5"/>
      </g>
     </g>
    </g>
    <g id="text_13">
     <!-- Fitness -->
     <g transform="translate(12.718125 149.120625) rotate(-90) scale(0.12 -0.12)">
      <defs>
       <path id="DejaVuSans-46" d="M 628 4666 
L 3309 4666 
L 3309 4134 
L 1259 4134 
L 1259 2759 
L 3109 2759 
L 3109 2228 
L 1259 2228 
L 1259 0 
L 628 0 
L 628 4666 
z
" transform="scale(0.015625)"/>
      </defs>
      <use xlink:href="#DejaVuSans-46"/>
      <use xlink:href="#DejaVuSans-69" x="50.269531"/>
      <use xlink:href="#DejaVuSans-74" x="78.052734"/>
      <use xlink:href="#DejaVuSans-6e" x="117.261719"/>
      <use xlink:href="#DejaVuSans-65" x="180.640625"/>
      <use xlink:href="#DejaVuSans-73" x="242.164062"/>
      <use xlink:href="#DejaVuSans-73" x="294.263672"/>
     </g>
    </g>
   </g>
   <g id="line2d_108">
    <path d="M 63.257557 49.866148 
L 63.867504 42.058401 
L 64.477451 39.155254 
L 65.697345 39.1552 
L 66.307293 32.473494 
L 67.527187 32.473492 
L 68.137134 31.031395 
L 70.576923 31.031393 
L 71.18687 25.365192 
L 74.236606 25.365193 
L 74.846553 24.965026 
L 75.4565 24.965024 
L 76.066447 22.515269 
L 77.896289 22.515294 
L 78.506236 21.689626 
L 79.72613 21.611756 
L 80.336077 20.235293 
L 80.946025 20.23533 
L 81.555972 19.909553 
L 84.605708 19.909543 
L 85.215655 19.259371 
L 88.265391 19.259339 
L 88.875338 18.209735 
L 90.705179 18.209681 
L 91.315127 17.832428 
L 101.074281 17.729322 
L 101.684228 17.666925 
L 102.294176 17.482393 
L 102.904123 17.482404 
L 103.51407 17.217131 
L 107.7837 17.208034 
L 108.393647 17.023237 
L 114.493119 16.971196 
L 115.713013 16.862436 
L 116.932908 16.855703 
L 117.542855 16.682493 
L 119.372696 16.641376 
L 124.862221 16.533194 
L 126.082115 16.440954 
L 127.911957 16.440938 
L 128.521904 16.165882 
L 133.401481 16.13741 
L 134.011428 15.886547 
L 164.508787 15.813078 
L 166.338628 15.757938 
L 188.906673 15.650749 
L 195.616092 15.457596 
L 196.226039 15.327354 
L 200.495669 15.262741 
L 201.715564 15.195867 
L 270.029646 15.097568 
L 271.859488 15.044215 
L 367.621193 14.940009 
L 367.621193 14.940009 
" clip-path="url(#pb8c9f667eb)" style="fill: none; stroke: #000000; stroke-linecap: square"/>
   </g>
   <g id="line2d_109">
    <path d="M 63.257557 218.850421 
L 63.867504 159.185113 
L 64.477451 142.58897 
L 65.697345 115.204708 
L 66.307293 127.193169 
L 66.91724 127.587649 
L 67.527187 109.321569 
L 68.747081 170.098332 
L 69.357028 105.568515 
L 69.966976 128.581847 
L 71.18687 111.520226 
L 71.796817 101.154847 
L 72.406764 100.425578 
L 73.016711 148.077777 
L 73.626659 116.404543 
L 74.236606 96.558426 
L 74.846553 121.734832 
L 75.4565 96.164582 
L 76.066447 95.147464 
L 76.676394 85.253905 
L 77.286342 88.786744 
L 77.896289 84.630623 
L 78.506236 116.808007 
L 79.116183 77.732475 
L 79.72613 84.08322 
L 80.336077 71.977699 
L 80.946025 77.738765 
L 81.555972 74.476247 
L 82.165919 88.272696 
L 82.775866 69.905535 
L 83.385813 66.449739 
L 83.99576 57.602615 
L 85.215655 34.185106 
L 85.825602 30.664533 
L 87.045496 26.070553 
L 87.655444 25.959996 
L 88.265391 23.912026 
L 88.875338 22.297007 
L 89.485285 23.287508 
L 90.095232 22.380764 
L 90.705179 22.413461 
L 91.315127 22.045933 
L 91.925074 22.450836 
L 92.535021 22.687453 
L 93.144968 21.848598 
L 93.754915 22.690354 
L 94.97481 21.644119 
L 95.584757 21.659669 
L 97.414598 21.080245 
L 98.024545 21.018754 
L 98.634493 21.80823 
L 99.24444 20.837374 
L 99.854387 20.864603 
L 100.464334 20.482324 
L 101.074281 20.922271 
L 101.684228 21.557794 
L 102.294176 21.117422 
L 102.904123 21.295502 
L 103.51407 21.249286 
L 104.124017 21.84655 
L 104.733964 21.30012 
L 105.343911 21.515738 
L 105.953859 21.531581 
L 106.563806 20.908487 
L 107.173753 21.665705 
L 107.7837 20.339867 
L 109.003594 19.417973 
L 109.613542 20.232166 
L 110.223489 19.358243 
L 110.833436 19.93037 
L 111.443383 19.29245 
L 113.273225 19.784908 
L 113.883172 19.979398 
L 114.493119 19.915564 
L 115.713013 19.361395 
L 116.32296 20.597965 
L 116.932908 18.951379 
L 117.542855 19.258744 
L 118.152802 19.011987 
L 119.982643 18.976894 
L 120.592591 20.052554 
L 121.202538 20.257014 
L 121.812485 19.965127 
L 122.422432 19.956346 
L 123.032379 20.48524 
L 123.642326 20.026116 
L 124.252274 19.278308 
L 124.862221 18.899365 
L 125.472168 18.890421 
L 126.082115 19.350874 
L 126.692062 18.903475 
L 127.302009 18.88925 
L 127.911957 18.079448 
L 128.521904 18.617662 
L 129.131851 18.58801 
L 129.741798 18.686287 
L 130.351745 18.534675 
L 130.961692 18.626961 
L 131.57164 19.244382 
L 132.791534 18.501663 
L 134.621375 18.677181 
L 135.84127 18.512008 
L 136.451217 18.335196 
L 137.061164 18.294173 
L 138.281058 19.16728 
L 138.891006 18.648917 
L 139.500953 19.24508 
L 140.720847 19.883187 
L 141.330794 19.253399 
L 141.940741 19.665366 
L 142.550689 19.310828 
L 143.160636 19.089038 
L 144.38053 19.089441 
L 145.600424 20.646017 
L 146.210372 19.096102 
L 146.820319 18.619435 
L 147.430266 18.561595 
L 148.040213 19.314098 
L 149.260107 18.117774 
L 149.870055 18.084597 
L 150.480002 18.599142 
L 151.089949 18.092684 
L 151.699896 18.641753 
L 152.309843 18.313886 
L 152.91979 18.149169 
L 153.529738 17.733466 
L 154.139685 17.472404 
L 154.749632 17.400102 
L 155.359579 17.993413 
L 155.969526 18.064431 
L 156.579473 18.383293 
L 157.189421 18.541466 
L 157.799368 18.01933 
L 158.409315 17.958533 
L 159.019262 18.96466 
L 159.629209 18.965443 
L 160.239156 19.829922 
L 160.849104 18.827774 
L 161.459051 18.563434 
L 162.068998 19.316904 
L 162.678945 18.742962 
L 163.288892 18.695138 
L 163.898839 18.380409 
L 164.508787 19.005303 
L 165.118734 18.808217 
L 165.728681 18.820812 
L 166.338628 19.53541 
L 166.948575 19.193298 
L 167.558522 19.225166 
L 168.16847 19.399025 
L 168.778417 19.846267 
L 169.998311 20.052147 
L 170.608258 19.768668 
L 171.218205 20.269689 
L 171.828153 20.488535 
L 173.657994 20.149882 
L 174.267941 19.800586 
L 174.877888 18.882773 
L 175.487836 18.379119 
L 176.097783 19.129574 
L 176.70773 18.755475 
L 177.317677 18.736549 
L 177.927624 18.004209 
L 178.537571 17.5003 
L 179.147519 17.140559 
L 179.757466 17.504017 
L 180.367413 17.087198 
L 181.587307 16.815199 
L 182.807202 16.831745 
L 183.417149 16.654592 
L 184.027096 16.972932 
L 184.637043 19.232991 
L 185.24699 16.754004 
L 185.856937 16.980163 
L 187.076832 17.110789 
L 187.686779 16.808828 
L 188.296726 16.786398 
L 188.906673 16.580872 
L 189.51662 16.64259 
L 190.126568 16.471404 
L 190.736515 16.716639 
L 191.346462 16.548588 
L 191.956409 16.961095 
L 192.566356 17.577572 
L 193.176303 17.212967 
L 194.396198 16.823458 
L 195.006145 16.701843 
L 196.226039 16.750477 
L 196.835986 16.525656 
L 198.055881 16.72733 
L 198.665828 16.46378 
L 199.275775 16.519826 
L 199.885722 16.944886 
L 200.495669 16.712417 
L 201.105617 17.02175 
L 202.325511 17.281894 
L 202.935458 17.069037 
L 203.545405 16.552536 
L 204.155352 16.958606 
L 205.375247 16.90033 
L 205.985194 17.00029 
L 206.595141 16.748203 
L 207.205088 16.812217 
L 207.815035 16.715532 
L 208.424983 16.405902 
L 209.03493 16.430926 
L 209.644877 16.846361 
L 210.254824 17.018891 
L 211.474718 16.704984 
L 213.30456 16.711931 
L 215.134401 16.990922 
L 216.354296 16.642987 
L 216.964243 16.751785 
L 217.57419 17.35152 
L 218.184137 17.461086 
L 218.794084 17.837991 
L 219.404032 17.257183 
L 220.623926 17.381869 
L 221.233873 16.800819 
L 221.84382 16.389856 
L 224.283609 16.413329 
L 224.893556 17.049508 
L 225.503503 16.900126 
L 226.11345 18.151461 
L 227.333345 16.611052 
L 227.943292 16.776388 
L 228.553239 16.502325 
L 229.773133 16.897914 
L 230.383081 16.650947 
L 230.993028 23.456486 
L 231.602975 17.783226 
L 232.212922 16.399675 
L 234.042764 16.299902 
L 235.262658 16.995319 
L 235.872605 16.748008 
L 237.092499 16.803913 
L 237.702447 16.378209 
L 238.922341 16.393463 
L 239.532288 17.0661 
L 240.142235 25.334163 
L 240.752182 16.632672 
L 241.36213 17.122039 
L 241.972077 16.873273 
L 242.582024 16.967983 
L 243.191971 17.30569 
L 243.801918 16.516891 
L 244.411865 16.513707 
L 245.021813 16.643268 
L 245.63176 16.623011 
L 246.241707 16.822793 
L 246.851654 16.381574 
L 247.461601 17.546793 
L 248.071548 16.533762 
L 249.291443 16.100285 
L 249.90139 16.385817 
L 250.511337 16.12581 
L 251.121284 16.155068 
L 252.341179 15.805595 
L 252.951126 16.007135 
L 253.561073 15.7159 
L 254.17102 15.917999 
L 254.780967 15.796216 
L 256.000862 15.997745 
L 257.220756 15.982179 
L 259.660545 17.325489 
L 260.270492 17.239796 
L 260.880439 16.934218 
L 261.490386 17.134193 
L 262.100333 17.627612 
L 262.71028 18.395843 
L 263.320228 18.697594 
L 263.930175 18.066091 
L 264.540122 18.069111 
L 265.150069 17.823257 
L 265.760016 17.443948 
L 266.979911 17.148796 
L 268.199805 16.678726 
L 268.809752 16.535278 
L 269.419699 16.673683 
L 270.029646 16.398987 
L 270.639594 18.782083 
L 271.249541 18.024987 
L 271.859488 17.644557 
L 272.469435 18.382113 
L 273.079382 17.838354 
L 275.519171 18.328517 
L 276.129118 17.683314 
L 276.739065 17.452741 
L 277.349012 17.011959 
L 277.95896 17.023744 
L 279.178854 16.667661 
L 281.008695 16.909729 
L 282.838537 16.398055 
L 283.448484 16.578616 
L 284.058431 16.576315 
L 284.668378 16.384345 
L 285.278326 16.731221 
L 285.888273 16.76848 
L 286.49822 16.261968 
L 287.108167 16.460239 
L 287.718114 16.161764 
L 288.328061 16.06141 
L 288.938009 16.291458 
L 290.157903 16.523045 
L 290.76785 16.833421 
L 291.377797 17.927111 
L 291.987744 16.947119 
L 292.597692 16.628124 
L 293.207639 16.542303 
L 295.03748 16.993477 
L 295.647427 16.985747 
L 296.257375 16.588081 
L 296.867322 17.438315 
L 297.477269 17.101971 
L 298.087216 16.979864 
L 298.697163 16.980924 
L 299.30711 16.788439 
L 299.917058 17.154645 
L 300.527005 17.319737 
L 301.136952 16.778923 
L 301.746899 16.80001 
L 302.356846 16.420839 
L 302.966793 16.347641 
L 303.576741 16.765594 
L 304.186688 16.539392 
L 304.796635 16.605913 
L 305.406582 16.915659 
L 306.016529 16.281206 
L 306.626476 15.84458 
L 307.236424 15.707889 
L 307.846371 16.820715 
L 308.456318 16.061691 
L 309.066265 15.810959 
L 309.676212 15.837214 
L 310.896107 16.425672 
L 312.116001 16.247688 
L 312.725948 16.54735 
L 313.335895 16.058517 
L 313.945842 16.662677 
L 314.55579 16.498331 
L 315.165737 16.543409 
L 315.775684 16.222175 
L 316.995578 15.888699 
L 317.605525 15.814773 
L 318.215473 16.082261 
L 318.82542 16.166217 
L 319.435367 16.12885 
L 320.045314 15.911988 
L 321.265208 15.861926 
L 321.875156 16.464411 
L 322.485103 16.373456 
L 323.09505 17.441011 
L 323.704997 16.679382 
L 324.314944 17.354096 
L 324.924891 16.724333 
L 326.144786 16.770274 
L 326.754733 17.006242 
L 327.36468 18.023163 
L 327.974627 17.231292 
L 328.584574 17.267908 
L 329.194522 16.660284 
L 329.804469 16.767059 
L 330.414416 17.341938 
L 331.024363 16.836943 
L 331.63431 16.947005 
L 332.244257 16.700862 
L 333.464152 16.778549 
L 334.074099 17.398635 
L 334.684046 16.944396 
L 335.293993 16.713844 
L 336.513888 16.879416 
L 337.123835 17.184604 
L 337.733782 16.597668 
L 338.343729 16.441556 
L 338.953676 16.11598 
L 339.563623 15.957007 
L 340.173571 16.092552 
L 340.783518 16.787763 
L 341.393465 16.118643 
L 342.003412 16.560057 
L 342.613359 17.62885 
L 343.223306 16.702977 
L 343.833254 16.45806 
L 344.443201 16.729313 
L 345.053148 16.291619 
L 346.273042 16.828319 
L 346.88299 16.506483 
L 347.492937 16.000815 
L 348.102884 15.645231 
L 348.712831 15.772104 
L 349.322778 15.733912 
L 349.932725 15.994313 
L 350.542673 15.83063 
L 351.15262 16.932405 
L 351.762567 16.120309 
L 352.372514 16.321164 
L 352.982461 15.923809 
L 353.592408 16.032291 
L 354.202356 15.906315 
L 354.812303 16.088672 
L 355.42225 16.950914 
L 356.032197 16.655104 
L 356.642144 30.479797 
L 357.252091 17.31168 
L 358.471986 16.186387 
L 359.081933 16.802126 
L 359.69188 17.165724 
L 360.301827 17.154072 
L 360.911774 16.926477 
L 361.521722 17.264248 
L 362.131669 17.047432 
L 362.741616 17.209876 
L 363.351563 16.91236 
L 363.96151 17.121347 
L 365.791352 18.224343 
L 366.401299 17.557963 
L 367.011246 17.410842 
L 367.621193 18.773101 
L 367.621193 18.773101 
" clip-path="url(#pb8c9f667eb)" style="fill: none; stroke-dasharray: 3.7,1.6; stroke-dashoffset: 0; stroke: #000000"/>
   </g>
   <g id="patch_3">
    <path d="M 48.039375 253.08 
L 48.039375 3.6 
" style="fill: none; stroke: #000000; stroke-width: 0.5; stroke-linejoin: miter; stroke-linecap: square"/>
   </g>
   <g id="patch_4">
    <path d="M 382.839375 253.08 
L 382.839375 3.6 
" style="fill: none; stroke: #000000; stroke-width: 0.5; stroke-linejoin: miter; stroke-linecap: square"/>
   </g>
   <g id="patch_5">
    <path d="M 48.039375 253.08 
L 382.839375 253.08 
" style="fill: none; stroke: #000000; stroke-width: 0.5; stroke-linejoin: miter; stroke-linecap: square"/>
   </g>
   <g id="patch_6">
    <path d="M 48.039375 3.6 
L 382.839375 3.6 
" style="fill: none; stroke: #000000; stroke-width: 0.5; stroke-linejoin: miter; stroke-linecap: square"/>
   </g>
   <g id="legend_1">
    <g id="patch_7">
     <path d="M 256.633125 247.08 
L 374.439375 247.08 
Q 376.839375 247.08 376.839375 244.68 
L 376.839375 193.03875 
Q 376.839375 190.63875 374.439375 190.63875 
L 256.633125 190.63875 
Q 254.233125 190.63875 254.233125 193.03875 
L 254.233125 244.68 
Q 254.233125 247.08 256.633125 247.08 
z
" style="fill: #ffffff; opacity: 0.8; stroke: #cccccc; stroke-linejoin: miter"/>
    </g>
    <g id="line2d_110">
     <path d="M 259.033125 200.356875 
L 271.033125 200.356875 
L 283.033125 200.356875 
" style="fill: none; stroke: #000000; stroke-linecap: square"/>
    </g>
    <g id="text_14">
     <!-- Max fitness -->
     <g transform="translate(292.633125 204.556875) scale(0.12 -0.12)">
      <defs>
       <path id="DejaVuSans-4d" d="M 628 4666 
L 1569 4666 
L 2759 1491 
L 3956 4666 
L 4897 4666 
L 4897 0 
L 4281 0 
L 4281 4097 
L 3078 897 
L 2444 897 
L 1241 4097 
L 1241 0 
L 628 0 
L 628 4666 
z
" transform="scale(0.015625)"/>
       <path id="DejaVuSans-78" d="M 3513 3500 
L 2247 1797 
L 3578 0 
L 2900 0 
L 1881 1375 
L 863 0 
L 184 0 
L 1544 1831 
L 300 3500 
L 978 3500 
L 1906 2253 
L 2834 3500 
L 3513 3500 
z
" transform="scale(0.015625)"/>
       <path id="DejaVuSans-20" transform="scale(0.015625)"/>
       <path id="DejaVuSans-66" d="M 2375 4863 
L 2375 4384 
L 1825 4384 
Q 1516 4384 1395 4259 
Q 1275 4134 1275 3809 
L 1275 3500 
L 2222 3500 
L 2222 3053 
L 1275 3053 
L 1275 0 
L 697 0 
L 697 3053 
L 147 3053 
L 147 3500 
L 697 3500 
L 697 3744 
Q 697 4328 969 4595 
Q 1241 4863 1831 4863 
L 2375 4863 
z
" transform="scale(0.015625)"/>
      </defs>
      <use xlink:href="#DejaVuSans-4d"/>
      <use xlink:href="#DejaVuSans-61" x="86.279297"/>
      <use xlink:href="#DejaVuSans-78" x="147.558594"/>
      <use xlink:href="#DejaVuSans-20" x="206.738281"/>
      <use xlink:href="#DejaVuSans-66" x="238.525391"/>
      <use xlink:href="#DejaVuSans-69" x="273.730469"/>
      <use xlink:href="#DejaVuSans-74" x="301.513672"/>
      <use xlink:href="#DejaVuSans-6e" x="340.722656"/>
      <use xlink:href="#DejaVuSans-65" x="404.101562"/>
      <use xlink:href="#DejaVuSans-73" x="465.625"/>
      <use xlink:href="#DejaVuSans-73" x="517.724609"/>
     </g>
    </g>
    <g id="patch_8">
     <path d="M 259.033125 222.170625 
L 283.033125 222.170625 
L 283.033125 213.770625 
L 259.033125 213.770625 
z
" style="fill: #0000ff; fill-opacity: 0.2; stroke: #0000ff; stroke-opacity: 0.2; stroke-linejoin: miter"/>
    </g>
    <g id="text_15">
     <!-- Top 90% -->
     <g transform="translate(292.633125 222.170625) scale(0.12 -0.12)">
      <defs>
       <path id="DejaVuSans-54" d="M -19 4666 
L 3928 4666 
L 3928 4134 
L 2272 4134 
L 2272 0 
L 1638 0 
L 1638 4134 
L -19 4134 
L -19 4666 
z
" transform="scale(0.015625)"/>
       <path id="DejaVuSans-70" d="M 1159 525 
L 1159 -1331 
L 581 -1331 
L 581 3500 
L 1159 3500 
L 1159 2969 
Q 1341 3281 1617 3432 
Q 1894 3584 2278 3584 
Q 2916 3584 3314 3078 
Q 3713 2572 3713 1747 
Q 3713 922 3314 415 
Q 2916 -91 2278 -91 
Q 1894 -91 1617 61 
Q 1341 213 1159 525 
z
M 3116 1747 
Q 3116 2381 2855 2742 
Q 2594 3103 2138 3103 
Q 1681 3103 1420 2742 
Q 1159 2381 1159 1747 
Q 1159 1113 1420 752 
Q 1681 391 2138 391 
Q 2594 391 2855 752 
Q 3116 1113 3116 1747 
z
" transform="scale(0.015625)"/>
       <path id="DejaVuSans-39" d="M 703 97 
L 703 672 
Q 941 559 1184 500 
Q 1428 441 1663 441 
Q 2288 441 2617 861 
Q 2947 1281 2994 2138 
Q 2813 1869 2534 1725 
Q 2256 1581 1919 1581 
Q 1219 1581 811 2004 
Q 403 2428 403 3163 
Q 403 3881 828 4315 
Q 1253 4750 1959 4750 
Q 2769 4750 3195 4129 
Q 3622 3509 3622 2328 
Q 3622 1225 3098 567 
Q 2575 -91 1691 -91 
Q 1453 -91 1209 -44 
Q 966 3 703 97 
z
M 1959 2075 
Q 2384 2075 2632 2365 
Q 2881 2656 2881 3163 
Q 2881 3666 2632 3958 
Q 2384 4250 1959 4250 
Q 1534 4250 1286 3958 
Q 1038 3666 1038 3163 
Q 1038 2656 1286 2365 
Q 1534 2075 1959 2075 
z
" transform="scale(0.015625)"/>
       <path id="DejaVuSans-25" d="M 4653 2053 
Q 4381 2053 4226 1822 
Q 4072 1591 4072 1178 
Q 4072 772 4226 539 
Q 4381 306 4653 306 
Q 4919 306 5073 539 
Q 5228 772 5228 1178 
Q 5228 1588 5073 1820 
Q 4919 2053 4653 2053 
z
M 4653 2450 
Q 5147 2450 5437 2106 
Q 5728 1763 5728 1178 
Q 5728 594 5436 251 
Q 5144 -91 4653 -91 
Q 4153 -91 3862 251 
Q 3572 594 3572 1178 
Q 3572 1766 3864 2108 
Q 4156 2450 4653 2450 
z
M 1428 4353 
Q 1159 4353 1004 4120 
Q 850 3888 850 3481 
Q 850 3069 1003 2837 
Q 1156 2606 1428 2606 
Q 1700 2606 1854 2837 
Q 2009 3069 2009 3481 
Q 2009 3884 1853 4118 
Q 1697 4353 1428 4353 
z
M 4250 4750 
L 4750 4750 
L 1831 -91 
L 1331 -91 
L 4250 4750 
z
M 1428 4750 
Q 1922 4750 2215 4408 
Q 2509 4066 2509 3481 
Q 2509 2891 2217 2550 
Q 1925 2209 1428 2209 
Q 931 2209 642 2551 
Q 353 2894 353 3481 
Q 353 4063 643 4406 
Q 934 4750 1428 4750 
z
" transform="scale(0.015625)"/>
      </defs>
      <use xlink:href="#DejaVuSans-54"/>
      <use xlink:href="#DejaVuSans-6f" x="44.083984"/>
      <use xlink:href="#DejaVuSans-70" x="105.265625"/>
      <use xlink:href="#DejaVuSans-20" x="168.742188"/>
      <use xlink:href="#DejaVuSans-39" x="200.529297"/>
      <use xlink:href="#DejaVuSans-30" x="264.152344"/>
      <use xlink:href="#DejaVuSans-25" x="327.775391"/>
     </g>
    </g>
    <g id="line2d_111">
     <path d="M 259.033125 235.584375 
L 271.033125 235.584375 
L 283.033125 235.584375 
" style="fill: none; stroke-dasharray: 3.7,1.6; stroke-dashoffset: 0; stroke: #000000"/>
    </g>
    <g id="text_16">
     <!-- Fitness mean -->
     <g transform="translate(292.633125 239.784375) scale(0.12 -0.12)">
      <defs>
       <path id="DejaVuSans-6d" d="M 3328 2828 
Q 3544 3216 3844 3400 
Q 4144 3584 4550 3584 
Q 5097 3584 5394 3201 
Q 5691 2819 5691 2113 
L 5691 0 
L 5113 0 
L 5113 2094 
Q 5113 2597 4934 2840 
Q 4756 3084 4391 3084 
Q 3944 3084 3684 2787 
Q 3425 2491 3425 1978 
L 3425 0 
L 2847 0 
L 2847 2094 
Q 2847 2600 2669 2842 
Q 2491 3084 2119 3084 
Q 1678 3084 1418 2786 
Q 1159 2488 1159 1978 
L 1159 0 
L 581 0 
L 581 3500 
L 1159 3500 
L 1159 2956 
Q 1356 3278 1631 3431 
Q 1906 3584 2284 3584 
Q 2666 3584 2933 3390 
Q 3200 3197 3328 2828 
z
" transform="scale(0.015625)"/>
      </defs>
      <use xlink:href="#DejaVuSans-46"/>
      <use xlink:href="#DejaVuSans-69" x="50.269531"/>
      <use xlink:href="#DejaVuSans-74" x="78.052734"/>
      <use xlink:href="#DejaVuSans-6e" x="117.261719"/>
      <use xlink:href="#DejaVuSans-65" x="180.640625"/>
      <use xlink:href="#DejaVuSans-73" x="242.164062"/>
      <use xlink:href="#DejaVuSans-73" x="294.263672"/>
      <use xlink:href="#DejaVuSans-20" x="346.363281"/>
      <use xlink:href="#DejaVuSans-6d" x="378.150391"/>
      <use xlink:href="#DejaVuSans-65" x="475.5625"/>
      <use xlink:href="#DejaVuSans-61" x="537.085938"/>
      <use xlink:href="#DejaVuSans-6e" x="598.365234"/>
     </g>
    </g>
   </g>
  </g>
 </g>
 <defs>
  <clipPath id="pb8c9f667eb">
   <rect x="48.039375" y="3.6" width="334.8" height="249.48"/>
  </clipPath>
 </defs>
</svg>
