<?xml version="1.0" encoding="utf-8" standalone="no"?>
<!DOCTYPE svg PUBLIC "-//W3C//DTD SVG 1.1//EN"
  "http://www.w3.org/Graphics/SVG/1.1/DTD/svg11.dtd">
<svg xmlns:xlink="http://www.w3.org/1999/xlink" width="390.253125pt" height="242.37319pt" viewBox="0 0 390.253125 242.37319" xmlns="http://www.w3.org/2000/svg" version="1.1">
 <metadata>
  <rdf:RDF xmlns:dc="http://purl.org/dc/elements/1.1/" xmlns:cc="http://creativecommons.org/ns#" xmlns:rdf="http://www.w3.org/1999/02/22-rdf-syntax-ns#">
   <cc:Work>
    <dc:type rdf:resource="http://purl.org/dc/dcmitype/StillImage"/>
    <dc:date>2024-06-05T09:27:05.639907</dc:date>
    <dc:format>image/svg+xml</dc:format>
    <dc:creator>
     <cc:Agent>
      <dc:title>Matplotlib v3.9.0, https://matplotlib.org/</dc:title>
     </cc:Agent>
    </dc:creator>
   </cc:Work>
  </rdf:RDF>
 </metadata>
 <defs>
  <style type="text/css">*{stroke-linejoin: round; stroke-linecap: butt}</style>
 </defs>
 <g id="figure_1">
  <g id="patch_1">
   <path d="M 0 242.37319 
L 390.253125 242.37319 
L 390.253125 0 
L 0 0 
z
" style="fill: #ffffff"/>
  </g>
  <g id="axes_1">
   <g id="patch_2">
    <path d="M 51.853125 208.04569 
L 386.653125 208.04569 
L 386.653125 3.6 
L 51.853125 3.6 
z
" style="fill: #ffffff"/>
   </g>
   <g id="PathCollection_1">
    <defs>
     <path id="m1208b459cc" d="M 0 3 
C 0.795609 3 1.55874 2.683901 2.12132 2.12132 
C 2.683901 1.55874 3 0.795609 3 0 
C 3 -0.795609 2.683901 -1.55874 2.12132 -2.12132 
C 1.55874 -2.683901 0.795609 -3 0 -3 
C -0.795609 -3 -1.55874 -2.683901 -2.12132 -2.12132 
C -2.683901 -1.55874 -3 -0.795609 -3 0 
C -3 0.795609 -2.683901 1.55874 -2.12132 2.12132 
C -1.55874 2.683901 -0.795609 3 0 3 
z
" style="stroke: #000000"/>
    </defs>
    <g clip-path="url(#pc790aa92d8)">
     <use xlink:href="#m1208b459cc" x="337.826293" y="45.668468" style="stroke: #000000"/>
    </g>
   </g>
   <g id="patch_3">
    <path d="M 337.826293 44.203872 
L 338.314491 45.668468 
L 337.989026 45.668468 
L 337.989026 45.668468 
L 337.66356 45.668468 
L 337.66356 45.668468 
L 337.338094 45.668468 
z
" clip-path="url(#pc790aa92d8)" style="fill: #008000; stroke-dasharray: 3.7,1.6; stroke-dashoffset: 0; stroke: #008000; stroke-linejoin: miter"/>
   </g>
   <g id="PathCollection_2">
    <g clip-path="url(#pc790aa92d8)">
     <use xlink:href="#m1208b459cc" x="181.714878" y="139.238695" style="stroke: #000000"/>
    </g>
   </g>
   <g id="patch_4">
    <path d="M 181.145435 142.857537 
L 180.890831 141.334857 
L 181.212341 141.385449 
L 181.554123 139.2134 
L 181.875633 139.263991 
L 181.53385 141.43604 
L 181.85536 141.486631 
z
" clip-path="url(#pc790aa92d8)" style="fill: #008000; stroke-dasharray: 3.7,1.6; stroke-dashoffset: 0; stroke: #008000; stroke-linejoin: miter"/>
   </g>
   <g id="PathCollection_3">
    <g clip-path="url(#pc790aa92d8)">
     <use xlink:href="#m1208b459cc" x="250.298505" y="182.25302" style="stroke: #000000"/>
    </g>
   </g>
   <g id="patch_5">
    <path d="M 211.786327 176.37993 
L 213.307783 176.118109 
L 213.258717 176.439855 
L 250.323038 182.092147 
L 250.273972 182.413893 
L 213.209651 176.761601 
L 213.160585 177.083347 
z
" clip-path="url(#pc790aa92d8)" style="fill: #008000; stroke-dasharray: 3.7,1.6; stroke-dashoffset: 0; stroke: #008000; stroke-linejoin: miter"/>
   </g>
   <g id="PathCollection_4">
    <g clip-path="url(#pc790aa92d8)">
     <use xlink:href="#m1208b459cc" x="157.899885" y="76.962464" style="stroke: #000000"/>
    </g>
   </g>
   <g id="patch_6">
    <path d="M 212.640004 62.200235 
L 211.353042 63.05294 
L 211.268298 62.7387 
L 157.942257 77.119584 
L 157.857513 76.805345 
L 211.183554 62.424461 
L 211.098811 62.110222 
z
" clip-path="url(#pc790aa92d8)" style="fill: #008000; stroke-dasharray: 3.7,1.6; stroke-dashoffset: 0; stroke: #008000; stroke-linejoin: miter"/>
   </g>
   <g id="PathCollection_5">
    <g clip-path="url(#pc790aa92d8)">
     <use xlink:href="#m1208b459cc" x="113.369889" y="112.902045" style="stroke: #000000"/>
    </g>
   </g>
   <g id="patch_7">
    <path d="M 67.071307 149.599293 
L 67.915833 148.306948 
L 68.118 148.56201 
L 113.268805 112.774514 
L 113.470972 113.029576 
L 68.320167 148.817071 
L 68.522334 149.072132 
z
" clip-path="url(#pc790aa92d8)" style="fill: #008000; stroke-dasharray: 3.7,1.6; stroke-dashoffset: 0; stroke: #008000; stroke-linejoin: miter"/>
   </g>
   <g id="PathCollection_6">
    <g clip-path="url(#pc790aa92d8)">
     <use xlink:href="#m1208b459cc" x="323.328066" y="83.818594" style="stroke: #000000"/>
    </g>
   </g>
   <g id="patch_8">
    <path d="M 371.434943 12.892986 
L 371.016848 14.379113 
L 370.747495 14.196419 
L 323.462742 83.909941 
L 323.19339 83.727247 
L 370.478143 14.013724 
L 370.20879 13.83103 
z
" clip-path="url(#pc790aa92d8)" style="fill: #008000; stroke-dasharray: 3.7,1.6; stroke-dashoffset: 0; stroke: #008000; stroke-linejoin: miter"/>
   </g>
   <g id="PathCollection_7">
    <g clip-path="url(#pc790aa92d8)">
     <use xlink:href="#m1208b459cc" x="284.012322" y="88.35526" style="stroke: #000000"/>
    </g>
   </g>
   <g id="patch_9">
    <path d="M 311.069728 40.999267 
L 310.767037 42.513122 
L 310.484445 42.35166 
L 284.153618 88.43599 
L 283.871026 88.274529 
L 310.201854 42.190198 
L 309.919262 42.028736 
z
" clip-path="url(#pc790aa92d8)" style="fill: #008000; stroke-dasharray: 3.7,1.6; stroke-dashoffset: 0; stroke: #008000; stroke-linejoin: miter"/>
   </g>
   <g id="PathCollection_8">
    <g clip-path="url(#pc790aa92d8)">
     <use xlink:href="#m1208b459cc" x="223.686194" y="60.015366" style="stroke: #000000"/>
    </g>
   </g>
   <g id="patch_10">
    <path d="M 237.581738 23.925078 
L 237.511091 25.46728 
L 237.207361 25.350337 
L 223.838059 60.073838 
L 223.534328 59.956895 
L 236.90363 25.233394 
L 236.599899 25.116451 
z
" clip-path="url(#pc790aa92d8)" style="fill: #008000; stroke-dasharray: 3.7,1.6; stroke-dashoffset: 0; stroke: #008000; stroke-linejoin: miter"/>
   </g>
   <g id="PathCollection_9">
    <defs>
     <path id="m504ea89ff1" d="M -7.071068 7.071068 
L 7.071068 -7.071068 
M -7.071068 -7.071068 
L 7.071068 7.071068 
" style="stroke: #ff0000"/>
    </defs>
    <g clip-path="url(#pc790aa92d8)">
     <use xlink:href="#m504ea89ff1" x="234.114746" y="99.46584" style="fill: #ff0000; stroke: #ff0000"/>
    </g>
   </g>
   <g id="matplotlib.axis_1">
    <g id="xtick_1">
     <g id="line2d_1">
      <path d="M 103.821254 208.04569 
L 103.821254 3.6 
" clip-path="url(#pc790aa92d8)" style="fill: none; stroke: #b0b0b0; stroke-width: 0.5; stroke-linecap: square"/>
     </g>
     <g id="line2d_2">
      <defs>
       <path id="maa635bc727" d="M 0 0 
L 0 -3 
" style="stroke: #000000; stroke-width: 0.5"/>
      </defs>
      <g>
       <use xlink:href="#maa635bc727" x="103.821254" y="208.04569" style="stroke: #000000; stroke-width: 0.5"/>
      </g>
     </g>
     <g id="line2d_3">
      <defs>
       <path id="mc638dbbd5f" d="M 0 0 
L 0 3 
" style="stroke: #000000; stroke-width: 0.5"/>
      </defs>
      <g>
       <use xlink:href="#mc638dbbd5f" x="103.821254" y="3.6" style="stroke: #000000; stroke-width: 0.5"/>
      </g>
     </g>
     <g id="text_1">
      <!-- −0.4 -->
      <g transform="translate(89.251566 220.663815) scale(0.12 -0.12)">
       <defs>
        <path id="DejaVuSans-2212" d="M 678 2272 
L 4684 2272 
L 4684 1741 
L 678 1741 
L 678 2272 
z
" transform="scale(0.015625)"/>
        <path id="DejaVuSans-30" d="M 2034 4250 
Q 1547 4250 1301 3770 
Q 1056 3291 1056 2328 
Q 1056 1369 1301 889 
Q 1547 409 2034 409 
Q 2525 409 2770 889 
Q 3016 1369 3016 2328 
Q 3016 3291 2770 3770 
Q 2525 4250 2034 4250 
z
M 2034 4750 
Q 2819 4750 3233 4129 
Q 3647 3509 3647 2328 
Q 3647 1150 3233 529 
Q 2819 -91 2034 -91 
Q 1250 -91 836 529 
Q 422 1150 422 2328 
Q 422 3509 836 4129 
Q 1250 4750 2034 4750 
z
" transform="scale(0.015625)"/>
        <path id="DejaVuSans-2e" d="M 684 794 
L 1344 794 
L 1344 0 
L 684 0 
L 684 794 
z
" transform="scale(0.015625)"/>
        <path id="DejaVuSans-34" d="M 2419 4116 
L 825 1625 
L 2419 1625 
L 2419 4116 
z
M 2253 4666 
L 3047 4666 
L 3047 1625 
L 3713 1625 
L 3713 1100 
L 3047 1100 
L 3047 0 
L 2419 0 
L 2419 1100 
L 313 1100 
L 313 1709 
L 2253 4666 
z
" transform="scale(0.015625)"/>
       </defs>
       <use xlink:href="#DejaVuSans-2212"/>
       <use xlink:href="#DejaVuSans-30" x="83.789062"/>
       <use xlink:href="#DejaVuSans-2e" x="147.412109"/>
       <use xlink:href="#DejaVuSans-34" x="179.199219"/>
      </g>
     </g>
    </g>
    <g id="xtick_2">
     <g id="line2d_4">
      <path d="M 168.914383 208.04569 
L 168.914383 3.6 
" clip-path="url(#pc790aa92d8)" style="fill: none; stroke: #b0b0b0; stroke-width: 0.5; stroke-linecap: square"/>
     </g>
     <g id="line2d_5">
      <g>
       <use xlink:href="#maa635bc727" x="168.914383" y="208.04569" style="stroke: #000000; stroke-width: 0.5"/>
      </g>
     </g>
     <g id="line2d_6">
      <g>
       <use xlink:href="#mc638dbbd5f" x="168.914383" y="3.6" style="stroke: #000000; stroke-width: 0.5"/>
      </g>
     </g>
     <g id="text_2">
      <!-- −0.2 -->
      <g transform="translate(154.344696 220.663815) scale(0.12 -0.12)">
       <defs>
        <path id="DejaVuSans-32" d="M 1228 531 
L 3431 531 
L 3431 0 
L 469 0 
L 469 531 
Q 828 903 1448 1529 
Q 2069 2156 2228 2338 
Q 2531 2678 2651 2914 
Q 2772 3150 2772 3378 
Q 2772 3750 2511 3984 
Q 2250 4219 1831 4219 
Q 1534 4219 1204 4116 
Q 875 4013 500 3803 
L 500 4441 
Q 881 4594 1212 4672 
Q 1544 4750 1819 4750 
Q 2544 4750 2975 4387 
Q 3406 4025 3406 3419 
Q 3406 3131 3298 2873 
Q 3191 2616 2906 2266 
Q 2828 2175 2409 1742 
Q 1991 1309 1228 531 
z
" transform="scale(0.015625)"/>
       </defs>
       <use xlink:href="#DejaVuSans-2212"/>
       <use xlink:href="#DejaVuSans-30" x="83.789062"/>
       <use xlink:href="#DejaVuSans-2e" x="147.412109"/>
       <use xlink:href="#DejaVuSans-32" x="179.199219"/>
      </g>
     </g>
    </g>
    <g id="xtick_3">
     <g id="line2d_7">
      <path d="M 234.007513 208.04569 
L 234.007513 3.6 
" clip-path="url(#pc790aa92d8)" style="fill: none; stroke: #b0b0b0; stroke-width: 0.5; stroke-linecap: square"/>
     </g>
     <g id="line2d_8">
      <g>
       <use xlink:href="#maa635bc727" x="234.007513" y="208.04569" style="stroke: #000000; stroke-width: 0.5"/>
      </g>
     </g>
     <g id="line2d_9">
      <g>
       <use xlink:href="#mc638dbbd5f" x="234.007513" y="3.6" style="stroke: #000000; stroke-width: 0.5"/>
      </g>
     </g>
     <g id="text_3">
      <!-- 0.0 -->
      <g transform="translate(224.465638 220.663815) scale(0.12 -0.12)">
       <use xlink:href="#DejaVuSans-30"/>
       <use xlink:href="#DejaVuSans-2e" x="63.623047"/>
       <use xlink:href="#DejaVuSans-30" x="95.410156"/>
      </g>
     </g>
    </g>
    <g id="xtick_4">
     <g id="line2d_10">
      <path d="M 299.100643 208.04569 
L 299.100643 3.6 
" clip-path="url(#pc790aa92d8)" style="fill: none; stroke: #b0b0b0; stroke-width: 0.5; stroke-linecap: square"/>
     </g>
     <g id="line2d_11">
      <g>
       <use xlink:href="#maa635bc727" x="299.100643" y="208.04569" style="stroke: #000000; stroke-width: 0.5"/>
      </g>
     </g>
     <g id="line2d_12">
      <g>
       <use xlink:href="#mc638dbbd5f" x="299.100643" y="3.6" style="stroke: #000000; stroke-width: 0.5"/>
      </g>
     </g>
     <g id="text_4">
      <!-- 0.2 -->
      <g transform="translate(289.558768 220.663815) scale(0.12 -0.12)">
       <use xlink:href="#DejaVuSans-30"/>
       <use xlink:href="#DejaVuSans-2e" x="63.623047"/>
       <use xlink:href="#DejaVuSans-32" x="95.410156"/>
      </g>
     </g>
    </g>
    <g id="xtick_5">
     <g id="line2d_13">
      <path d="M 364.193772 208.04569 
L 364.193772 3.6 
" clip-path="url(#pc790aa92d8)" style="fill: none; stroke: #b0b0b0; stroke-width: 0.5; stroke-linecap: square"/>
     </g>
     <g id="line2d_14">
      <g>
       <use xlink:href="#maa635bc727" x="364.193772" y="208.04569" style="stroke: #000000; stroke-width: 0.5"/>
      </g>
     </g>
     <g id="line2d_15">
      <g>
       <use xlink:href="#mc638dbbd5f" x="364.193772" y="3.6" style="stroke: #000000; stroke-width: 0.5"/>
      </g>
     </g>
     <g id="text_5">
      <!-- 0.4 -->
      <g transform="translate(354.651897 220.663815) scale(0.12 -0.12)">
       <use xlink:href="#DejaVuSans-30"/>
       <use xlink:href="#DejaVuSans-2e" x="63.623047"/>
       <use xlink:href="#DejaVuSans-34" x="95.410156"/>
      </g>
     </g>
    </g>
    <g id="xtick_6">
     <g id="line2d_16">
      <defs>
       <path id="m4588e3c76c" d="M 0 0 
L 0 -1.5 
" style="stroke: #000000; stroke-width: 0.5"/>
      </defs>
      <g>
       <use xlink:href="#m4588e3c76c" x="55.001407" y="208.04569" style="stroke: #000000; stroke-width: 0.5"/>
      </g>
     </g>
     <g id="line2d_17">
      <defs>
       <path id="me9df093105" d="M 0 0 
L 0 1.5 
" style="stroke: #000000; stroke-width: 0.5"/>
      </defs>
      <g>
       <use xlink:href="#me9df093105" x="55.001407" y="3.6" style="stroke: #000000; stroke-width: 0.5"/>
      </g>
     </g>
    </g>
    <g id="xtick_7">
     <g id="line2d_18">
      <g>
       <use xlink:href="#m4588e3c76c" x="71.274689" y="208.04569" style="stroke: #000000; stroke-width: 0.5"/>
      </g>
     </g>
     <g id="line2d_19">
      <g>
       <use xlink:href="#me9df093105" x="71.274689" y="3.6" style="stroke: #000000; stroke-width: 0.5"/>
      </g>
     </g>
    </g>
    <g id="xtick_8">
     <g id="line2d_20">
      <g>
       <use xlink:href="#m4588e3c76c" x="87.547971" y="208.04569" style="stroke: #000000; stroke-width: 0.5"/>
      </g>
     </g>
     <g id="line2d_21">
      <g>
       <use xlink:href="#me9df093105" x="87.547971" y="3.6" style="stroke: #000000; stroke-width: 0.5"/>
      </g>
     </g>
    </g>
    <g id="xtick_9">
     <g id="line2d_22">
      <g>
       <use xlink:href="#m4588e3c76c" x="120.094536" y="208.04569" style="stroke: #000000; stroke-width: 0.5"/>
      </g>
     </g>
     <g id="line2d_23">
      <g>
       <use xlink:href="#me9df093105" x="120.094536" y="3.6" style="stroke: #000000; stroke-width: 0.5"/>
      </g>
     </g>
    </g>
    <g id="xtick_10">
     <g id="line2d_24">
      <g>
       <use xlink:href="#m4588e3c76c" x="136.367819" y="208.04569" style="stroke: #000000; stroke-width: 0.5"/>
      </g>
     </g>
     <g id="line2d_25">
      <g>
       <use xlink:href="#me9df093105" x="136.367819" y="3.6" style="stroke: #000000; stroke-width: 0.5"/>
      </g>
     </g>
    </g>
    <g id="xtick_11">
     <g id="line2d_26">
      <g>
       <use xlink:href="#m4588e3c76c" x="152.641101" y="208.04569" style="stroke: #000000; stroke-width: 0.5"/>
      </g>
     </g>
     <g id="line2d_27">
      <g>
       <use xlink:href="#me9df093105" x="152.641101" y="3.6" style="stroke: #000000; stroke-width: 0.5"/>
      </g>
     </g>
    </g>
    <g id="xtick_12">
     <g id="line2d_28">
      <g>
       <use xlink:href="#m4588e3c76c" x="185.187666" y="208.04569" style="stroke: #000000; stroke-width: 0.5"/>
      </g>
     </g>
     <g id="line2d_29">
      <g>
       <use xlink:href="#me9df093105" x="185.187666" y="3.6" style="stroke: #000000; stroke-width: 0.5"/>
      </g>
     </g>
    </g>
    <g id="xtick_13">
     <g id="line2d_30">
      <g>
       <use xlink:href="#m4588e3c76c" x="201.460948" y="208.04569" style="stroke: #000000; stroke-width: 0.5"/>
      </g>
     </g>
     <g id="line2d_31">
      <g>
       <use xlink:href="#me9df093105" x="201.460948" y="3.6" style="stroke: #000000; stroke-width: 0.5"/>
      </g>
     </g>
    </g>
    <g id="xtick_14">
     <g id="line2d_32">
      <g>
       <use xlink:href="#m4588e3c76c" x="217.734231" y="208.04569" style="stroke: #000000; stroke-width: 0.5"/>
      </g>
     </g>
     <g id="line2d_33">
      <g>
       <use xlink:href="#me9df093105" x="217.734231" y="3.6" style="stroke: #000000; stroke-width: 0.5"/>
      </g>
     </g>
    </g>
    <g id="xtick_15">
     <g id="line2d_34">
      <g>
       <use xlink:href="#m4588e3c76c" x="250.280796" y="208.04569" style="stroke: #000000; stroke-width: 0.5"/>
      </g>
     </g>
     <g id="line2d_35">
      <g>
       <use xlink:href="#me9df093105" x="250.280796" y="3.6" style="stroke: #000000; stroke-width: 0.5"/>
      </g>
     </g>
    </g>
    <g id="xtick_16">
     <g id="line2d_36">
      <g>
       <use xlink:href="#m4588e3c76c" x="266.554078" y="208.04569" style="stroke: #000000; stroke-width: 0.5"/>
      </g>
     </g>
     <g id="line2d_37">
      <g>
       <use xlink:href="#me9df093105" x="266.554078" y="3.6" style="stroke: #000000; stroke-width: 0.5"/>
      </g>
     </g>
    </g>
    <g id="xtick_17">
     <g id="line2d_38">
      <g>
       <use xlink:href="#m4588e3c76c" x="282.82736" y="208.04569" style="stroke: #000000; stroke-width: 0.5"/>
      </g>
     </g>
     <g id="line2d_39">
      <g>
       <use xlink:href="#me9df093105" x="282.82736" y="3.6" style="stroke: #000000; stroke-width: 0.5"/>
      </g>
     </g>
    </g>
    <g id="xtick_18">
     <g id="line2d_40">
      <g>
       <use xlink:href="#m4588e3c76c" x="315.373925" y="208.04569" style="stroke: #000000; stroke-width: 0.5"/>
      </g>
     </g>
     <g id="line2d_41">
      <g>
       <use xlink:href="#me9df093105" x="315.373925" y="3.6" style="stroke: #000000; stroke-width: 0.5"/>
      </g>
     </g>
    </g>
    <g id="xtick_19">
     <g id="line2d_42">
      <g>
       <use xlink:href="#m4588e3c76c" x="331.647208" y="208.04569" style="stroke: #000000; stroke-width: 0.5"/>
      </g>
     </g>
     <g id="line2d_43">
      <g>
       <use xlink:href="#me9df093105" x="331.647208" y="3.6" style="stroke: #000000; stroke-width: 0.5"/>
      </g>
     </g>
    </g>
    <g id="xtick_20">
     <g id="line2d_44">
      <g>
       <use xlink:href="#m4588e3c76c" x="347.92049" y="208.04569" style="stroke: #000000; stroke-width: 0.5"/>
      </g>
     </g>
     <g id="line2d_45">
      <g>
       <use xlink:href="#me9df093105" x="347.92049" y="3.6" style="stroke: #000000; stroke-width: 0.5"/>
      </g>
     </g>
    </g>
    <g id="xtick_21">
     <g id="line2d_46">
      <g>
       <use xlink:href="#m4588e3c76c" x="380.467055" y="208.04569" style="stroke: #000000; stroke-width: 0.5"/>
      </g>
     </g>
     <g id="line2d_47">
      <g>
       <use xlink:href="#me9df093105" x="380.467055" y="3.6" style="stroke: #000000; stroke-width: 0.5"/>
      </g>
     </g>
    </g>
    <g id="text_6">
     <!-- y -->
     <g transform="translate(215.701875 236.277565) scale(0.12 -0.12)">
      <defs>
       <path id="DejaVuSans-79" d="M 2059 -325 
Q 1816 -950 1584 -1140 
Q 1353 -1331 966 -1331 
L 506 -1331 
L 506 -850 
L 844 -850 
Q 1081 -850 1212 -737 
Q 1344 -625 1503 -206 
L 1606 56 
L 191 3500 
L 800 3500 
L 1894 763 
L 2988 3500 
L 3597 3500 
L 2059 -325 
z
" transform="scale(0.015625)"/>
      </defs>
      <use xlink:href="#DejaVuSans-79"/>
     </g>
    </g>
   </g>
   <g id="matplotlib.axis_2">
    <g id="ytick_1">
     <g id="line2d_48">
      <path d="M 51.853125 197.085411 
L 386.653125 197.085411 
" clip-path="url(#pc790aa92d8)" style="fill: none; stroke: #b0b0b0; stroke-width: 0.5; stroke-linecap: square"/>
     </g>
     <g id="line2d_49">
      <defs>
       <path id="mcfa6800d5c" d="M 0 0 
L 3 0 
" style="stroke: #000000; stroke-width: 0.5"/>
      </defs>
      <g>
       <use xlink:href="#mcfa6800d5c" x="51.853125" y="197.085411" style="stroke: #000000; stroke-width: 0.5"/>
      </g>
     </g>
     <g id="line2d_50">
      <defs>
       <path id="m6e809864ba" d="M 0 0 
L -3 0 
" style="stroke: #000000; stroke-width: 0.5"/>
      </defs>
      <g>
       <use xlink:href="#m6e809864ba" x="386.653125" y="197.085411" style="stroke: #000000; stroke-width: 0.5"/>
      </g>
     </g>
     <g id="text_7">
      <!-- −0.3 -->
      <g transform="translate(19.21375 201.644473) scale(0.12 -0.12)">
       <defs>
        <path id="DejaVuSans-33" d="M 2597 2516 
Q 3050 2419 3304 2112 
Q 3559 1806 3559 1356 
Q 3559 666 3084 287 
Q 2609 -91 1734 -91 
Q 1441 -91 1130 -33 
Q 819 25 488 141 
L 488 750 
Q 750 597 1062 519 
Q 1375 441 1716 441 
Q 2309 441 2620 675 
Q 2931 909 2931 1356 
Q 2931 1769 2642 2001 
Q 2353 2234 1838 2234 
L 1294 2234 
L 1294 2753 
L 1863 2753 
Q 2328 2753 2575 2939 
Q 2822 3125 2822 3475 
Q 2822 3834 2567 4026 
Q 2313 4219 1838 4219 
Q 1578 4219 1281 4162 
Q 984 4106 628 3988 
L 628 4550 
Q 988 4650 1302 4700 
Q 1616 4750 1894 4750 
Q 2613 4750 3031 4423 
Q 3450 4097 3450 3541 
Q 3450 3153 3228 2886 
Q 3006 2619 2597 2516 
z
" transform="scale(0.015625)"/>
       </defs>
       <use xlink:href="#DejaVuSans-2212"/>
       <use xlink:href="#DejaVuSans-30" x="83.789062"/>
       <use xlink:href="#DejaVuSans-2e" x="147.412109"/>
       <use xlink:href="#DejaVuSans-33" x="179.199219"/>
      </g>
     </g>
    </g>
    <g id="ytick_2">
     <g id="line2d_51">
      <path d="M 51.853125 164.538846 
L 386.653125 164.538846 
" clip-path="url(#pc790aa92d8)" style="fill: none; stroke: #b0b0b0; stroke-width: 0.5; stroke-linecap: square"/>
     </g>
     <g id="line2d_52">
      <g>
       <use xlink:href="#mcfa6800d5c" x="51.853125" y="164.538846" style="stroke: #000000; stroke-width: 0.5"/>
      </g>
     </g>
     <g id="line2d_53">
      <g>
       <use xlink:href="#m6e809864ba" x="386.653125" y="164.538846" style="stroke: #000000; stroke-width: 0.5"/>
      </g>
     </g>
     <g id="text_8">
      <!-- −0.2 -->
      <g transform="translate(19.21375 169.097908) scale(0.12 -0.12)">
       <use xlink:href="#DejaVuSans-2212"/>
       <use xlink:href="#DejaVuSans-30" x="83.789062"/>
       <use xlink:href="#DejaVuSans-2e" x="147.412109"/>
       <use xlink:href="#DejaVuSans-32" x="179.199219"/>
      </g>
     </g>
    </g>
    <g id="ytick_3">
     <g id="line2d_54">
      <path d="M 51.853125 131.992281 
L 386.653125 131.992281 
" clip-path="url(#pc790aa92d8)" style="fill: none; stroke: #b0b0b0; stroke-width: 0.5; stroke-linecap: square"/>
     </g>
     <g id="line2d_55">
      <g>
       <use xlink:href="#mcfa6800d5c" x="51.853125" y="131.992281" style="stroke: #000000; stroke-width: 0.5"/>
      </g>
     </g>
     <g id="line2d_56">
      <g>
       <use xlink:href="#m6e809864ba" x="386.653125" y="131.992281" style="stroke: #000000; stroke-width: 0.5"/>
      </g>
     </g>
     <g id="text_9">
      <!-- −0.1 -->
      <g transform="translate(19.21375 136.551343) scale(0.12 -0.12)">
       <defs>
        <path id="DejaVuSans-31" d="M 794 531 
L 1825 531 
L 1825 4091 
L 703 3866 
L 703 4441 
L 1819 4666 
L 2450 4666 
L 2450 531 
L 3481 531 
L 3481 0 
L 794 0 
L 794 531 
z
" transform="scale(0.015625)"/>
       </defs>
       <use xlink:href="#DejaVuSans-2212"/>
       <use xlink:href="#DejaVuSans-30" x="83.789062"/>
       <use xlink:href="#DejaVuSans-2e" x="147.412109"/>
       <use xlink:href="#DejaVuSans-31" x="179.199219"/>
      </g>
     </g>
    </g>
    <g id="ytick_4">
     <g id="line2d_57">
      <path d="M 51.853125 99.445716 
L 386.653125 99.445716 
" clip-path="url(#pc790aa92d8)" style="fill: none; stroke: #b0b0b0; stroke-width: 0.5; stroke-linecap: square"/>
     </g>
     <g id="line2d_58">
      <g>
       <use xlink:href="#mcfa6800d5c" x="51.853125" y="99.445716" style="stroke: #000000; stroke-width: 0.5"/>
      </g>
     </g>
     <g id="line2d_59">
      <g>
       <use xlink:href="#m6e809864ba" x="386.653125" y="99.445716" style="stroke: #000000; stroke-width: 0.5"/>
      </g>
     </g>
     <g id="text_10">
      <!-- 0.0 -->
      <g transform="translate(29.269375 104.004779) scale(0.12 -0.12)">
       <use xlink:href="#DejaVuSans-30"/>
       <use xlink:href="#DejaVuSans-2e" x="63.623047"/>
       <use xlink:href="#DejaVuSans-30" x="95.410156"/>
      </g>
     </g>
    </g>
    <g id="ytick_5">
     <g id="line2d_60">
      <path d="M 51.853125 66.899151 
L 386.653125 66.899151 
" clip-path="url(#pc790aa92d8)" style="fill: none; stroke: #b0b0b0; stroke-width: 0.5; stroke-linecap: square"/>
     </g>
     <g id="line2d_61">
      <g>
       <use xlink:href="#mcfa6800d5c" x="51.853125" y="66.899151" style="stroke: #000000; stroke-width: 0.5"/>
      </g>
     </g>
     <g id="line2d_62">
      <g>
       <use xlink:href="#m6e809864ba" x="386.653125" y="66.899151" style="stroke: #000000; stroke-width: 0.5"/>
      </g>
     </g>
     <g id="text_11">
      <!-- 0.1 -->
      <g transform="translate(29.269375 71.458214) scale(0.12 -0.12)">
       <use xlink:href="#DejaVuSans-30"/>
       <use xlink:href="#DejaVuSans-2e" x="63.623047"/>
       <use xlink:href="#DejaVuSans-31" x="95.410156"/>
      </g>
     </g>
    </g>
    <g id="ytick_6">
     <g id="line2d_63">
      <path d="M 51.853125 34.352586 
L 386.653125 34.352586 
" clip-path="url(#pc790aa92d8)" style="fill: none; stroke: #b0b0b0; stroke-width: 0.5; stroke-linecap: square"/>
     </g>
     <g id="line2d_64">
      <g>
       <use xlink:href="#mcfa6800d5c" x="51.853125" y="34.352586" style="stroke: #000000; stroke-width: 0.5"/>
      </g>
     </g>
     <g id="line2d_65">
      <g>
       <use xlink:href="#m6e809864ba" x="386.653125" y="34.352586" style="stroke: #000000; stroke-width: 0.5"/>
      </g>
     </g>
     <g id="text_12">
      <!-- 0.2 -->
      <g transform="translate(29.269375 38.911649) scale(0.12 -0.12)">
       <use xlink:href="#DejaVuSans-30"/>
       <use xlink:href="#DejaVuSans-2e" x="63.623047"/>
       <use xlink:href="#DejaVuSans-32" x="95.410156"/>
      </g>
     </g>
    </g>
    <g id="ytick_7">
     <g id="line2d_66">
      <defs>
       <path id="m71bbb5378c" d="M 0 0 
L 1.5 0 
" style="stroke: #000000; stroke-width: 0.5"/>
      </defs>
      <g>
       <use xlink:href="#m71bbb5378c" x="51.853125" y="203.594724" style="stroke: #000000; stroke-width: 0.5"/>
      </g>
     </g>
     <g id="line2d_67">
      <defs>
       <path id="meddc5fe0ee" d="M 0 0 
L -1.5 0 
" style="stroke: #000000; stroke-width: 0.5"/>
      </defs>
      <g>
       <use xlink:href="#meddc5fe0ee" x="386.653125" y="203.594724" style="stroke: #000000; stroke-width: 0.5"/>
      </g>
     </g>
    </g>
    <g id="ytick_8">
     <g id="line2d_68">
      <g>
       <use xlink:href="#m71bbb5378c" x="51.853125" y="190.576098" style="stroke: #000000; stroke-width: 0.5"/>
      </g>
     </g>
     <g id="line2d_69">
      <g>
       <use xlink:href="#meddc5fe0ee" x="386.653125" y="190.576098" style="stroke: #000000; stroke-width: 0.5"/>
      </g>
     </g>
    </g>
    <g id="ytick_9">
     <g id="line2d_70">
      <g>
       <use xlink:href="#m71bbb5378c" x="51.853125" y="184.066785" style="stroke: #000000; stroke-width: 0.5"/>
      </g>
     </g>
     <g id="line2d_71">
      <g>
       <use xlink:href="#meddc5fe0ee" x="386.653125" y="184.066785" style="stroke: #000000; stroke-width: 0.5"/>
      </g>
     </g>
    </g>
    <g id="ytick_10">
     <g id="line2d_72">
      <g>
       <use xlink:href="#m71bbb5378c" x="51.853125" y="177.557472" style="stroke: #000000; stroke-width: 0.5"/>
      </g>
     </g>
     <g id="line2d_73">
      <g>
       <use xlink:href="#meddc5fe0ee" x="386.653125" y="177.557472" style="stroke: #000000; stroke-width: 0.5"/>
      </g>
     </g>
    </g>
    <g id="ytick_11">
     <g id="line2d_74">
      <g>
       <use xlink:href="#m71bbb5378c" x="51.853125" y="171.048159" style="stroke: #000000; stroke-width: 0.5"/>
      </g>
     </g>
     <g id="line2d_75">
      <g>
       <use xlink:href="#meddc5fe0ee" x="386.653125" y="171.048159" style="stroke: #000000; stroke-width: 0.5"/>
      </g>
     </g>
    </g>
    <g id="ytick_12">
     <g id="line2d_76">
      <g>
       <use xlink:href="#m71bbb5378c" x="51.853125" y="158.029533" style="stroke: #000000; stroke-width: 0.5"/>
      </g>
     </g>
     <g id="line2d_77">
      <g>
       <use xlink:href="#meddc5fe0ee" x="386.653125" y="158.029533" style="stroke: #000000; stroke-width: 0.5"/>
      </g>
     </g>
    </g>
    <g id="ytick_13">
     <g id="line2d_78">
      <g>
       <use xlink:href="#m71bbb5378c" x="51.853125" y="151.52022" style="stroke: #000000; stroke-width: 0.5"/>
      </g>
     </g>
     <g id="line2d_79">
      <g>
       <use xlink:href="#meddc5fe0ee" x="386.653125" y="151.52022" style="stroke: #000000; stroke-width: 0.5"/>
      </g>
     </g>
    </g>
    <g id="ytick_14">
     <g id="line2d_80">
      <g>
       <use xlink:href="#m71bbb5378c" x="51.853125" y="145.010907" style="stroke: #000000; stroke-width: 0.5"/>
      </g>
     </g>
     <g id="line2d_81">
      <g>
       <use xlink:href="#meddc5fe0ee" x="386.653125" y="145.010907" style="stroke: #000000; stroke-width: 0.5"/>
      </g>
     </g>
    </g>
    <g id="ytick_15">
     <g id="line2d_82">
      <g>
       <use xlink:href="#m71bbb5378c" x="51.853125" y="138.501594" style="stroke: #000000; stroke-width: 0.5"/>
      </g>
     </g>
     <g id="line2d_83">
      <g>
       <use xlink:href="#meddc5fe0ee" x="386.653125" y="138.501594" style="stroke: #000000; stroke-width: 0.5"/>
      </g>
     </g>
    </g>
    <g id="ytick_16">
     <g id="line2d_84">
      <g>
       <use xlink:href="#m71bbb5378c" x="51.853125" y="125.482968" style="stroke: #000000; stroke-width: 0.5"/>
      </g>
     </g>
     <g id="line2d_85">
      <g>
       <use xlink:href="#meddc5fe0ee" x="386.653125" y="125.482968" style="stroke: #000000; stroke-width: 0.5"/>
      </g>
     </g>
    </g>
    <g id="ytick_17">
     <g id="line2d_86">
      <g>
       <use xlink:href="#m71bbb5378c" x="51.853125" y="118.973655" style="stroke: #000000; stroke-width: 0.5"/>
      </g>
     </g>
     <g id="line2d_87">
      <g>
       <use xlink:href="#meddc5fe0ee" x="386.653125" y="118.973655" style="stroke: #000000; stroke-width: 0.5"/>
      </g>
     </g>
    </g>
    <g id="ytick_18">
     <g id="line2d_88">
      <g>
       <use xlink:href="#m71bbb5378c" x="51.853125" y="112.464342" style="stroke: #000000; stroke-width: 0.5"/>
      </g>
     </g>
     <g id="line2d_89">
      <g>
       <use xlink:href="#meddc5fe0ee" x="386.653125" y="112.464342" style="stroke: #000000; stroke-width: 0.5"/>
      </g>
     </g>
    </g>
    <g id="ytick_19">
     <g id="line2d_90">
      <g>
       <use xlink:href="#m71bbb5378c" x="51.853125" y="105.955029" style="stroke: #000000; stroke-width: 0.5"/>
      </g>
     </g>
     <g id="line2d_91">
      <g>
       <use xlink:href="#meddc5fe0ee" x="386.653125" y="105.955029" style="stroke: #000000; stroke-width: 0.5"/>
      </g>
     </g>
    </g>
    <g id="ytick_20">
     <g id="line2d_92">
      <g>
       <use xlink:href="#m71bbb5378c" x="51.853125" y="92.936403" style="stroke: #000000; stroke-width: 0.5"/>
      </g>
     </g>
     <g id="line2d_93">
      <g>
       <use xlink:href="#meddc5fe0ee" x="386.653125" y="92.936403" style="stroke: #000000; stroke-width: 0.5"/>
      </g>
     </g>
    </g>
    <g id="ytick_21">
     <g id="line2d_94">
      <g>
       <use xlink:href="#m71bbb5378c" x="51.853125" y="86.42709" style="stroke: #000000; stroke-width: 0.5"/>
      </g>
     </g>
     <g id="line2d_95">
      <g>
       <use xlink:href="#meddc5fe0ee" x="386.653125" y="86.42709" style="stroke: #000000; stroke-width: 0.5"/>
      </g>
     </g>
    </g>
    <g id="ytick_22">
     <g id="line2d_96">
      <g>
       <use xlink:href="#m71bbb5378c" x="51.853125" y="79.917777" style="stroke: #000000; stroke-width: 0.5"/>
      </g>
     </g>
     <g id="line2d_97">
      <g>
       <use xlink:href="#meddc5fe0ee" x="386.653125" y="79.917777" style="stroke: #000000; stroke-width: 0.5"/>
      </g>
     </g>
    </g>
    <g id="ytick_23">
     <g id="line2d_98">
      <g>
       <use xlink:href="#m71bbb5378c" x="51.853125" y="73.408464" style="stroke: #000000; stroke-width: 0.5"/>
      </g>
     </g>
     <g id="line2d_99">
      <g>
       <use xlink:href="#meddc5fe0ee" x="386.653125" y="73.408464" style="stroke: #000000; stroke-width: 0.5"/>
      </g>
     </g>
    </g>
    <g id="ytick_24">
     <g id="line2d_100">
      <g>
       <use xlink:href="#m71bbb5378c" x="51.853125" y="60.389838" style="stroke: #000000; stroke-width: 0.5"/>
      </g>
     </g>
     <g id="line2d_101">
      <g>
       <use xlink:href="#meddc5fe0ee" x="386.653125" y="60.389838" style="stroke: #000000; stroke-width: 0.5"/>
      </g>
     </g>
    </g>
    <g id="ytick_25">
     <g id="line2d_102">
      <g>
       <use xlink:href="#m71bbb5378c" x="51.853125" y="53.880525" style="stroke: #000000; stroke-width: 0.5"/>
      </g>
     </g>
     <g id="line2d_103">
      <g>
       <use xlink:href="#meddc5fe0ee" x="386.653125" y="53.880525" style="stroke: #000000; stroke-width: 0.5"/>
      </g>
     </g>
    </g>
    <g id="ytick_26">
     <g id="line2d_104">
      <g>
       <use xlink:href="#m71bbb5378c" x="51.853125" y="47.371212" style="stroke: #000000; stroke-width: 0.5"/>
      </g>
     </g>
     <g id="line2d_105">
      <g>
       <use xlink:href="#meddc5fe0ee" x="386.653125" y="47.371212" style="stroke: #000000; stroke-width: 0.5"/>
      </g>
     </g>
    </g>
    <g id="ytick_27">
     <g id="line2d_106">
      <g>
       <use xlink:href="#m71bbb5378c" x="51.853125" y="40.861899" style="stroke: #000000; stroke-width: 0.5"/>
      </g>
     </g>
     <g id="line2d_107">
      <g>
       <use xlink:href="#meddc5fe0ee" x="386.653125" y="40.861899" style="stroke: #000000; stroke-width: 0.5"/>
      </g>
     </g>
    </g>
    <g id="ytick_28">
     <g id="line2d_108">
      <g>
       <use xlink:href="#m71bbb5378c" x="51.853125" y="27.843273" style="stroke: #000000; stroke-width: 0.5"/>
      </g>
     </g>
     <g id="line2d_109">
      <g>
       <use xlink:href="#meddc5fe0ee" x="386.653125" y="27.843273" style="stroke: #000000; stroke-width: 0.5"/>
      </g>
     </g>
    </g>
    <g id="ytick_29">
     <g id="line2d_110">
      <g>
       <use xlink:href="#m71bbb5378c" x="51.853125" y="21.33396" style="stroke: #000000; stroke-width: 0.5"/>
      </g>
     </g>
     <g id="line2d_111">
      <g>
       <use xlink:href="#meddc5fe0ee" x="386.653125" y="21.33396" style="stroke: #000000; stroke-width: 0.5"/>
      </g>
     </g>
    </g>
    <g id="ytick_30">
     <g id="line2d_112">
      <g>
       <use xlink:href="#m71bbb5378c" x="51.853125" y="14.824647" style="stroke: #000000; stroke-width: 0.5"/>
      </g>
     </g>
     <g id="line2d_113">
      <g>
       <use xlink:href="#meddc5fe0ee" x="386.653125" y="14.824647" style="stroke: #000000; stroke-width: 0.5"/>
      </g>
     </g>
    </g>
    <g id="ytick_31">
     <g id="line2d_114">
      <g>
       <use xlink:href="#m71bbb5378c" x="51.853125" y="8.315335" style="stroke: #000000; stroke-width: 0.5"/>
      </g>
     </g>
     <g id="line2d_115">
      <g>
       <use xlink:href="#meddc5fe0ee" x="386.653125" y="8.315335" style="stroke: #000000; stroke-width: 0.5"/>
      </g>
     </g>
    </g>
    <g id="text_13">
     <!-- x -->
     <g transform="translate(12.718125 109.374095) rotate(-90) scale(0.12 -0.12)">
      <defs>
       <path id="DejaVuSans-78" d="M 3513 3500 
L 2247 1797 
L 3578 0 
L 2900 0 
L 1881 1375 
L 863 0 
L 184 0 
L 1544 1831 
L 300 3500 
L 978 3500 
L 1906 2253 
L 2834 3500 
L 3513 3500 
z
" transform="scale(0.015625)"/>
      </defs>
      <use xlink:href="#DejaVuSans-78"/>
     </g>
    </g>
   </g>
   <g id="line2d_116">
    <path d="M 234.007513 99.445716 
L 337.826293 45.668468 
" clip-path="url(#pc790aa92d8)" style="fill: none; stroke: #000000; stroke-linecap: square"/>
   </g>
   <g id="line2d_117">
    <path d="M 337.826293 29.134813 
L 339.94057 29.270554 
L 342.02013 29.675548 
L 344.030828 30.343146 
L 345.939647 31.262385 
L 347.715246 32.418171 
L 349.328468 33.791527 
L 350.752825 35.359902 
L 351.964928 37.097544 
L 352.944875 38.97592 
L 353.676576 40.964187 
L 354.148016 43.029698 
L 354.351453 45.138538 
L 354.283547 47.256079 
L 353.945414 49.347552 
L 353.342606 51.378614 
L 352.48502 53.315916 
L 351.386738 55.127647 
L 350.065794 56.784059 
L 348.543877 58.257952 
L 346.845978 59.525127 
L 344.999977 60.564776 
L 343.036183 61.359828 
L 340.986843 61.897228 
L 338.885608 62.168152 
L 336.766978 62.168152 
L 334.665742 61.897228 
L 332.616402 61.359828 
L 330.652609 60.564776 
L 328.806607 59.525127 
L 327.108708 58.257952 
L 325.586792 56.784059 
L 324.265848 55.127647 
L 323.167566 53.315916 
L 322.30998 51.378614 
L 321.707171 49.347552 
L 321.369038 47.256079 
L 321.301132 45.138538 
L 321.50457 43.029698 
L 321.976009 40.964187 
L 322.70771 38.97592 
L 323.687657 37.097544 
L 324.899761 35.359902 
L 326.324117 33.791527 
L 327.93734 32.418171 
L 329.712938 31.262385 
L 331.621758 30.343146 
L 333.632455 29.675548 
L 335.712016 29.270554 
L 337.826293 29.134813 
" clip-path="url(#pc790aa92d8)" style="fill: none; stroke: #0000ff; stroke-linecap: square"/>
   </g>
   <g id="line2d_118">
    <path d="M 234.007513 99.445716 
L 181.714878 139.238695 
" clip-path="url(#pc790aa92d8)" style="fill: none; stroke: #000000; stroke-linecap: square"/>
   </g>
   <g id="line2d_119">
    <path d="M 181.714878 122.70504 
L 183.829155 122.840781 
L 185.908716 123.245776 
L 187.919413 123.913373 
L 189.828233 124.832612 
L 191.603831 125.988399 
L 193.217053 127.361755 
L 194.64141 128.93013 
L 195.853514 130.667771 
L 196.833461 132.546147 
L 197.565162 134.534414 
L 198.036601 136.599926 
L 198.240038 138.708766 
L 198.172133 140.826307 
L 197.834 142.91778 
L 197.231191 144.948842 
L 196.373605 146.886144 
L 195.275323 148.697875 
L 193.954379 150.354286 
L 192.432463 151.82818 
L 190.734564 153.095355 
L 188.888562 154.135004 
L 186.924769 154.930055 
L 184.875429 155.467456 
L 182.774193 155.73838 
L 180.655563 155.73838 
L 178.554327 155.467456 
L 176.504988 154.930055 
L 174.541194 154.135004 
L 172.695192 153.095355 
L 170.997294 151.82818 
L 169.475377 150.354286 
L 168.154433 148.697875 
L 167.056151 146.886144 
L 166.198565 144.948842 
L 165.595757 142.91778 
L 165.257623 140.826307 
L 165.189718 138.708766 
L 165.393155 136.599926 
L 165.864595 134.534414 
L 166.596295 132.546147 
L 167.576243 130.667771 
L 168.788346 128.93013 
L 170.212703 127.361755 
L 171.825925 125.988399 
L 173.601524 124.832612 
L 175.510343 123.913373 
L 177.521041 123.245776 
L 179.600601 122.840781 
L 181.714878 122.70504 
" clip-path="url(#pc790aa92d8)" style="fill: none; stroke: #ff0000; stroke-linecap: square"/>
   </g>
   <g id="line2d_120">
    <path d="M 234.007513 99.445716 
L 250.298505 182.25302 
" clip-path="url(#pc790aa92d8)" style="fill: none; stroke: #000000; stroke-linecap: square"/>
   </g>
   <g id="line2d_121">
    <path d="M 250.298505 165.719365 
L 252.412782 165.855106 
L 254.492343 166.2601 
L 256.50304 166.927698 
L 258.41186 167.846937 
L 260.187458 169.002723 
L 261.800681 170.376079 
L 263.225037 171.944455 
L 264.437141 173.682096 
L 265.417088 175.560472 
L 266.148789 177.548739 
L 266.620228 179.61425 
L 266.823666 181.72309 
L 266.75576 183.840631 
L 266.417627 185.932104 
L 265.814818 187.963166 
L 264.957232 189.900468 
L 263.85895 191.712199 
L 262.538006 193.368611 
L 261.01609 194.842504 
L 259.318191 196.109679 
L 257.472189 197.149328 
L 255.508396 197.94438 
L 253.459056 198.48178 
L 251.35782 198.752705 
L 249.23919 198.752705 
L 247.137954 198.48178 
L 245.088615 197.94438 
L 243.124821 197.149328 
L 241.278819 196.109679 
L 239.580921 194.842504 
L 238.059004 193.368611 
L 236.73806 191.712199 
L 235.639778 189.900468 
L 234.782192 187.963166 
L 234.179384 185.932104 
L 233.841251 183.840631 
L 233.773345 181.72309 
L 233.976782 179.61425 
L 234.448222 177.548739 
L 235.179923 175.560472 
L 236.15987 173.682096 
L 237.371973 171.944455 
L 238.79633 170.376079 
L 240.409552 169.002723 
L 242.185151 167.846937 
L 244.09397 166.927698 
L 246.104668 166.2601 
L 248.184228 165.855106 
L 250.298505 165.719365 
" clip-path="url(#pc790aa92d8)" style="fill: none; stroke: #0000ff; stroke-linecap: square"/>
   </g>
   <g id="line2d_122">
    <path d="M 234.007513 99.445716 
L 157.899885 76.962464 
" clip-path="url(#pc790aa92d8)" style="fill: none; stroke: #000000; stroke-linecap: square"/>
   </g>
   <g id="line2d_123">
    <path d="M 157.899885 60.42881 
L 160.014162 60.564551 
L 162.093722 60.969545 
L 164.10442 61.637143 
L 166.01324 62.556382 
L 167.788838 63.712168 
L 169.40206 65.085524 
L 170.826417 66.653899 
L 172.03852 68.391541 
L 173.018468 70.269916 
L 173.750168 72.258184 
L 174.221608 74.323695 
L 174.425045 76.432535 
L 174.35714 78.550076 
L 174.019007 80.641549 
L 173.416198 82.672611 
L 172.558612 84.609913 
L 171.46033 86.421644 
L 170.139386 88.078055 
L 168.617469 89.551949 
L 166.919571 90.819124 
L 165.073569 91.858773 
L 163.109775 92.653825 
L 161.060436 93.191225 
L 158.9592 93.462149 
L 156.84057 93.462149 
L 154.739334 93.191225 
L 152.689994 92.653825 
L 150.726201 91.858773 
L 148.880199 90.819124 
L 147.1823 89.551949 
L 145.660384 88.078055 
L 144.33944 86.421644 
L 143.241158 84.609913 
L 142.383572 82.672611 
L 141.780763 80.641549 
L 141.44263 78.550076 
L 141.374725 76.432535 
L 141.578162 74.323695 
L 142.049601 72.258184 
L 142.781302 70.269916 
L 143.76125 68.391541 
L 144.973353 66.653899 
L 146.39771 65.085524 
L 148.010932 63.712168 
L 149.78653 62.556382 
L 151.69535 61.637143 
L 153.706048 60.969545 
L 155.785608 60.564551 
L 157.899885 60.42881 
" clip-path="url(#pc790aa92d8)" style="fill: none; stroke: #0000ff; stroke-linecap: square"/>
   </g>
   <g id="line2d_124">
    <path d="M 234.007513 99.445716 
L 113.369889 112.902045 
" clip-path="url(#pc790aa92d8)" style="fill: none; stroke: #000000; stroke-linecap: square"/>
   </g>
   <g id="line2d_125">
    <path d="M 113.369889 96.36839 
L 115.484166 96.504131 
L 117.563726 96.909126 
L 119.574424 97.576723 
L 121.483243 98.495962 
L 123.258842 99.651749 
L 124.872064 101.025105 
L 126.296421 102.59348 
L 127.508524 104.331121 
L 128.488472 106.209497 
L 129.220172 108.197764 
L 129.691612 110.263276 
L 129.895049 112.372115 
L 129.827144 114.489657 
L 129.48901 116.58113 
L 128.886202 118.612192 
L 128.028616 120.549494 
L 126.930334 122.361225 
L 125.60939 124.017636 
L 124.087473 125.49153 
L 122.389575 126.758705 
L 120.543573 127.798354 
L 118.579779 128.593405 
L 116.53044 129.130806 
L 114.429204 129.40173 
L 112.310574 129.40173 
L 110.209338 129.130806 
L 108.159998 128.593405 
L 106.196205 127.798354 
L 104.350203 126.758705 
L 102.652304 125.49153 
L 101.130388 124.017636 
L 99.809444 122.361225 
L 98.711162 120.549494 
L 97.853576 118.612192 
L 97.250767 116.58113 
L 96.912634 114.489657 
L 96.844729 112.372115 
L 97.048166 110.263276 
L 97.519605 108.197764 
L 98.251306 106.209497 
L 99.231253 104.331121 
L 100.443357 102.59348 
L 101.867713 101.025105 
L 103.480936 99.651749 
L 105.256534 98.495962 
L 107.165354 97.576723 
L 109.176051 96.909126 
L 111.255612 96.504131 
L 113.369889 96.36839 
" clip-path="url(#pc790aa92d8)" style="fill: none; stroke: #ff0000; stroke-linecap: square"/>
   </g>
   <g id="line2d_126">
    <path d="M 234.007513 99.445716 
L 323.328066 83.818594 
" clip-path="url(#pc790aa92d8)" style="fill: none; stroke: #000000; stroke-linecap: square"/>
   </g>
   <g id="line2d_127">
    <path d="M 323.328066 67.284939 
L 325.442343 67.42068 
L 327.521903 67.825674 
L 329.532601 68.493272 
L 331.441421 69.412511 
L 333.217019 70.568297 
L 334.830241 71.941653 
L 336.254598 73.510028 
L 337.466701 75.24767 
L 338.446649 77.126046 
L 339.17835 79.114313 
L 339.649789 81.179824 
L 339.853226 83.288664 
L 339.785321 85.406205 
L 339.447188 87.497678 
L 338.844379 89.52874 
L 337.986793 91.466042 
L 336.888511 93.277773 
L 335.567567 94.934185 
L 334.045651 96.408078 
L 332.347752 97.675253 
L 330.50175 98.714902 
L 328.537957 99.509954 
L 326.488617 100.047354 
L 324.387381 100.318278 
L 322.268751 100.318278 
L 320.167515 100.047354 
L 318.118175 99.509954 
L 316.154382 98.714902 
L 314.30838 97.675253 
L 312.610481 96.408078 
L 311.088565 94.934185 
L 309.767621 93.277773 
L 308.669339 91.466042 
L 307.811753 89.52874 
L 307.208944 87.497678 
L 306.870811 85.406205 
L 306.802906 83.288664 
L 307.006343 81.179824 
L 307.477783 79.114313 
L 308.209483 77.126046 
L 309.189431 75.24767 
L 310.401534 73.510028 
L 311.825891 71.941653 
L 313.439113 70.568297 
L 315.214711 69.412511 
L 317.123531 68.493272 
L 319.134229 67.825674 
L 321.213789 67.42068 
L 323.328066 67.284939 
" clip-path="url(#pc790aa92d8)" style="fill: none; stroke: #0000ff; stroke-linecap: square"/>
   </g>
   <g id="line2d_128">
    <path d="M 234.007513 99.445716 
L 284.012322 88.35526 
" clip-path="url(#pc790aa92d8)" style="fill: none; stroke: #000000; stroke-linecap: square"/>
   </g>
   <g id="line2d_129">
    <path d="M 284.012322 71.821605 
L 286.126599 71.957346 
L 288.206159 72.36234 
L 290.216857 73.029938 
L 292.125677 73.949177 
L 293.901275 75.104963 
L 295.514497 76.478319 
L 296.938854 78.046694 
L 298.150957 79.784336 
L 299.130905 81.662711 
L 299.862605 83.650979 
L 300.334045 85.71649 
L 300.537482 87.82533 
L 300.469577 89.942871 
L 300.131444 92.034344 
L 299.528635 94.065406 
L 298.671049 96.002708 
L 297.572767 97.814439 
L 296.251823 99.47085 
L 294.729906 100.944744 
L 293.032008 102.211919 
L 291.186006 103.251568 
L 289.222212 104.04662 
L 287.172873 104.58402 
L 285.071637 104.854944 
L 282.953007 104.854944 
L 280.851771 104.58402 
L 278.802431 104.04662 
L 276.838638 103.251568 
L 274.992636 102.211919 
L 273.294737 100.944744 
L 271.772821 99.47085 
L 270.451877 97.814439 
L 269.353595 96.002708 
L 268.496009 94.065406 
L 267.8932 92.034344 
L 267.555067 89.942871 
L 267.487162 87.82533 
L 267.690599 85.71649 
L 268.162038 83.650979 
L 268.893739 81.662711 
L 269.873687 79.784336 
L 271.08579 78.046694 
L 272.510147 76.478319 
L 274.123369 75.104963 
L 275.898967 73.949177 
L 277.807787 73.029938 
L 279.818485 72.36234 
L 281.898045 71.957346 
L 284.012322 71.821605 
" clip-path="url(#pc790aa92d8)" style="fill: none; stroke: #0000ff; stroke-linecap: square"/>
   </g>
   <g id="line2d_130">
    <path d="M 234.007513 99.445716 
L 223.686194 60.015366 
" clip-path="url(#pc790aa92d8)" style="fill: none; stroke: #000000; stroke-linecap: square"/>
   </g>
   <g id="line2d_131">
    <path d="M 223.686194 43.481711 
L 225.800471 43.617453 
L 227.880031 44.022447 
L 229.890729 44.690045 
L 231.799548 45.609284 
L 233.575147 46.76507 
L 235.188369 48.138426 
L 236.612726 49.706801 
L 237.824829 51.444443 
L 238.804776 53.322818 
L 239.536477 55.311085 
L 240.007917 57.376597 
L 240.211354 59.485437 
L 240.143448 61.602978 
L 239.805315 63.694451 
L 239.202507 65.725513 
L 238.344921 67.662815 
L 237.246639 69.474546 
L 235.925695 71.130957 
L 234.403778 72.604851 
L 232.70588 73.872026 
L 230.859878 74.911675 
L 228.896084 75.706727 
L 226.846745 76.244127 
L 224.745509 76.515051 
L 222.626879 76.515051 
L 220.525643 76.244127 
L 218.476303 75.706727 
L 216.51251 74.911675 
L 214.666508 73.872026 
L 212.968609 72.604851 
L 211.446693 71.130957 
L 210.125749 69.474546 
L 209.027467 67.662815 
L 208.169881 65.725513 
L 207.567072 63.694451 
L 207.228939 61.602978 
L 207.161034 59.485437 
L 207.364471 57.376597 
L 207.83591 55.311085 
L 208.567611 53.322818 
L 209.547558 51.444443 
L 210.759662 49.706801 
L 212.184018 48.138426 
L 213.797241 46.76507 
L 215.572839 45.609284 
L 217.481659 44.690045 
L 219.492356 44.022447 
L 221.571917 43.617453 
L 223.686194 43.481711 
" clip-path="url(#pc790aa92d8)" style="fill: none; stroke: #0000ff; stroke-linecap: square"/>
   </g>
   <g id="patch_11">
    <path d="M 51.853125 208.04569 
L 51.853125 3.6 
" style="fill: none; stroke: #000000; stroke-width: 0.5; stroke-linejoin: miter; stroke-linecap: square"/>
   </g>
   <g id="patch_12">
    <path d="M 386.653125 208.04569 
L 386.653125 3.6 
" style="fill: none; stroke: #000000; stroke-width: 0.5; stroke-linejoin: miter; stroke-linecap: square"/>
   </g>
   <g id="patch_13">
    <path d="M 51.853125 208.04569 
L 386.653125 208.04569 
" style="fill: none; stroke: #000000; stroke-width: 0.5; stroke-linejoin: miter; stroke-linecap: square"/>
   </g>
   <g id="patch_14">
    <path d="M 51.853125 3.6 
L 386.653125 3.6 
" style="fill: none; stroke: #000000; stroke-width: 0.5; stroke-linejoin: miter; stroke-linecap: square"/>
   </g>
   <g id="text_14">
    <!-- 0 -->
    <g transform="translate(337.826293 45.668468) scale(0.12 -0.12)">
     <use xlink:href="#DejaVuSans-30"/>
    </g>
   </g>
   <g id="text_15">
    <!-- 1 -->
    <g transform="translate(181.714878 139.238695) scale(0.12 -0.12)">
     <use xlink:href="#DejaVuSans-31"/>
    </g>
   </g>
   <g id="text_16">
    <!-- 2 -->
    <g transform="translate(250.298505 182.25302) scale(0.12 -0.12)">
     <use xlink:href="#DejaVuSans-32"/>
    </g>
   </g>
   <g id="text_17">
    <!-- 3 -->
    <g transform="translate(157.899885 76.962464) scale(0.12 -0.12)">
     <use xlink:href="#DejaVuSans-33"/>
    </g>
   </g>
   <g id="text_18">
    <!-- 4 -->
    <g transform="translate(113.369889 112.902045) scale(0.12 -0.12)">
     <use xlink:href="#DejaVuSans-34"/>
    </g>
   </g>
   <g id="text_19">
    <!-- 5 -->
    <g transform="translate(323.328066 83.818594) scale(0.12 -0.12)">
     <defs>
      <path id="DejaVuSans-35" d="M 691 4666 
L 3169 4666 
L 3169 4134 
L 1269 4134 
L 1269 2991 
Q 1406 3038 1543 3061 
Q 1681 3084 1819 3084 
Q 2600 3084 3056 2656 
Q 3513 2228 3513 1497 
Q 3513 744 3044 326 
Q 2575 -91 1722 -91 
Q 1428 -91 1123 -41 
Q 819 9 494 109 
L 494 744 
Q 775 591 1075 516 
Q 1375 441 1709 441 
Q 2250 441 2565 725 
Q 2881 1009 2881 1497 
Q 2881 1984 2565 2268 
Q 2250 2553 1709 2553 
Q 1456 2553 1204 2497 
Q 953 2441 691 2322 
L 691 4666 
z
" transform="scale(0.015625)"/>
     </defs>
     <use xlink:href="#DejaVuSans-35"/>
    </g>
   </g>
   <g id="text_20">
    <!-- 6 -->
    <g transform="translate(284.012322 88.35526) scale(0.12 -0.12)">
     <defs>
      <path id="DejaVuSans-36" d="M 2113 2584 
Q 1688 2584 1439 2293 
Q 1191 2003 1191 1497 
Q 1191 994 1439 701 
Q 1688 409 2113 409 
Q 2538 409 2786 701 
Q 3034 994 3034 1497 
Q 3034 2003 2786 2293 
Q 2538 2584 2113 2584 
z
M 3366 4563 
L 3366 3988 
Q 3128 4100 2886 4159 
Q 2644 4219 2406 4219 
Q 1781 4219 1451 3797 
Q 1122 3375 1075 2522 
Q 1259 2794 1537 2939 
Q 1816 3084 2150 3084 
Q 2853 3084 3261 2657 
Q 3669 2231 3669 1497 
Q 3669 778 3244 343 
Q 2819 -91 2113 -91 
Q 1303 -91 875 529 
Q 447 1150 447 2328 
Q 447 3434 972 4092 
Q 1497 4750 2381 4750 
Q 2619 4750 2861 4703 
Q 3103 4656 3366 4563 
z
" transform="scale(0.015625)"/>
     </defs>
     <use xlink:href="#DejaVuSans-36"/>
    </g>
   </g>
   <g id="text_21">
    <!-- 7 -->
    <g transform="translate(223.686194 60.015366) scale(0.12 -0.12)">
     <defs>
      <path id="DejaVuSans-37" d="M 525 4666 
L 3525 4666 
L 3525 4397 
L 1831 0 
L 1172 0 
L 2766 4134 
L 525 4134 
L 525 4666 
z
" transform="scale(0.015625)"/>
     </defs>
     <use xlink:href="#DejaVuSans-37"/>
    </g>
   </g>
   <g id="text_22">
    <!-- C.G. -->
    <g transform="translate(234.114746 99.46584) scale(0.12 -0.12)">
     <defs>
      <path id="DejaVuSans-43" d="M 4122 4306 
L 4122 3641 
Q 3803 3938 3442 4084 
Q 3081 4231 2675 4231 
Q 1875 4231 1450 3742 
Q 1025 3253 1025 2328 
Q 1025 1406 1450 917 
Q 1875 428 2675 428 
Q 3081 428 3442 575 
Q 3803 722 4122 1019 
L 4122 359 
Q 3791 134 3420 21 
Q 3050 -91 2638 -91 
Q 1578 -91 968 557 
Q 359 1206 359 2328 
Q 359 3453 968 4101 
Q 1578 4750 2638 4750 
Q 3056 4750 3426 4639 
Q 3797 4528 4122 4306 
z
" transform="scale(0.015625)"/>
      <path id="DejaVuSans-47" d="M 3809 666 
L 3809 1919 
L 2778 1919 
L 2778 2438 
L 4434 2438 
L 4434 434 
Q 4069 175 3628 42 
Q 3188 -91 2688 -91 
Q 1594 -91 976 548 
Q 359 1188 359 2328 
Q 359 3472 976 4111 
Q 1594 4750 2688 4750 
Q 3144 4750 3555 4637 
Q 3966 4525 4313 4306 
L 4313 3634 
Q 3963 3931 3569 4081 
Q 3175 4231 2741 4231 
Q 1884 4231 1454 3753 
Q 1025 3275 1025 2328 
Q 1025 1384 1454 906 
Q 1884 428 2741 428 
Q 3075 428 3337 486 
Q 3600 544 3809 666 
z
" transform="scale(0.015625)"/>
     </defs>
     <use xlink:href="#DejaVuSans-43"/>
     <use xlink:href="#DejaVuSans-2e" x="69.824219"/>
     <use xlink:href="#DejaVuSans-47" x="101.611328"/>
     <use xlink:href="#DejaVuSans-2e" x="179.101562"/>
    </g>
   </g>
   <g id="legend_1">
    <g id="patch_15">
     <path d="M 285.64875 202.04569 
L 378.253125 202.04569 
Q 380.653125 202.04569 380.653125 199.64569 
L 380.653125 148.00444 
Q 380.653125 145.60444 378.253125 145.60444 
L 285.64875 145.60444 
Q 283.24875 145.60444 283.24875 148.00444 
L 283.24875 199.64569 
Q 283.24875 202.04569 285.64875 202.04569 
z
" style="fill: #ffffff; opacity: 0.8; stroke: #cccccc; stroke-linejoin: miter"/>
    </g>
    <g id="line2d_132">
     <path d="M 288.04875 155.322565 
L 300.04875 155.322565 
L 312.04875 155.322565 
" style="fill: none; stroke: #ff0000; stroke-linecap: square"/>
    </g>
    <g id="text_23">
     <!-- CCW -->
     <g transform="translate(321.64875 159.522565) scale(0.12 -0.12)">
      <defs>
       <path id="DejaVuSans-57" d="M 213 4666 
L 850 4666 
L 1831 722 
L 2809 4666 
L 3519 4666 
L 4500 722 
L 5478 4666 
L 6119 4666 
L 4947 0 
L 4153 0 
L 3169 4050 
L 2175 0 
L 1381 0 
L 213 4666 
z
" transform="scale(0.015625)"/>
      </defs>
      <use xlink:href="#DejaVuSans-43"/>
      <use xlink:href="#DejaVuSans-43" x="69.824219"/>
      <use xlink:href="#DejaVuSans-57" x="139.648438"/>
     </g>
    </g>
    <g id="line2d_133">
     <path d="M 288.04875 172.936315 
L 300.04875 172.936315 
L 312.04875 172.936315 
" style="fill: none; stroke: #0000ff; stroke-linecap: square"/>
    </g>
    <g id="text_24">
     <!-- CW -->
     <g transform="translate(321.64875 177.136315) scale(0.12 -0.12)">
      <use xlink:href="#DejaVuSans-43"/>
      <use xlink:href="#DejaVuSans-57" x="69.824219"/>
     </g>
    </g>
    <g id="line2d_134">
     <path d="M 288.04875 190.550065 
L 300.04875 190.550065 
L 312.04875 190.550065 
" style="fill: none; stroke-dasharray: 3.7,1.6; stroke-dashoffset: 0; stroke: #008000"/>
    </g>
    <g id="text_25">
     <!-- Direction -->
     <g transform="translate(321.64875 194.750065) scale(0.12 -0.12)">
      <defs>
       <path id="DejaVuSans-44" d="M 1259 4147 
L 1259 519 
L 2022 519 
Q 2988 519 3436 956 
Q 3884 1394 3884 2338 
Q 3884 3275 3436 3711 
Q 2988 4147 2022 4147 
L 1259 4147 
z
M 628 4666 
L 1925 4666 
Q 3281 4666 3915 4102 
Q 4550 3538 4550 2338 
Q 4550 1131 3912 565 
Q 3275 0 1925 0 
L 628 0 
L 628 4666 
z
" transform="scale(0.015625)"/>
       <path id="DejaVuSans-69" d="M 603 3500 
L 1178 3500 
L 1178 0 
L 603 0 
L 603 3500 
z
M 603 4863 
L 1178 4863 
L 1178 4134 
L 603 4134 
L 603 4863 
z
" transform="scale(0.015625)"/>
       <path id="DejaVuSans-72" d="M 2631 2963 
Q 2534 3019 2420 3045 
Q 2306 3072 2169 3072 
Q 1681 3072 1420 2755 
Q 1159 2438 1159 1844 
L 1159 0 
L 581 0 
L 581 3500 
L 1159 3500 
L 1159 2956 
Q 1341 3275 1631 3429 
Q 1922 3584 2338 3584 
Q 2397 3584 2469 3576 
Q 2541 3569 2628 3553 
L 2631 2963 
z
" transform="scale(0.015625)"/>
       <path id="DejaVuSans-65" d="M 3597 1894 
L 3597 1613 
L 953 1613 
Q 991 1019 1311 708 
Q 1631 397 2203 397 
Q 2534 397 2845 478 
Q 3156 559 3463 722 
L 3463 178 
Q 3153 47 2828 -22 
Q 2503 -91 2169 -91 
Q 1331 -91 842 396 
Q 353 884 353 1716 
Q 353 2575 817 3079 
Q 1281 3584 2069 3584 
Q 2775 3584 3186 3129 
Q 3597 2675 3597 1894 
z
M 3022 2063 
Q 3016 2534 2758 2815 
Q 2500 3097 2075 3097 
Q 1594 3097 1305 2825 
Q 1016 2553 972 2059 
L 3022 2063 
z
" transform="scale(0.015625)"/>
       <path id="DejaVuSans-63" d="M 3122 3366 
L 3122 2828 
Q 2878 2963 2633 3030 
Q 2388 3097 2138 3097 
Q 1578 3097 1268 2742 
Q 959 2388 959 1747 
Q 959 1106 1268 751 
Q 1578 397 2138 397 
Q 2388 397 2633 464 
Q 2878 531 3122 666 
L 3122 134 
Q 2881 22 2623 -34 
Q 2366 -91 2075 -91 
Q 1284 -91 818 406 
Q 353 903 353 1747 
Q 353 2603 823 3093 
Q 1294 3584 2113 3584 
Q 2378 3584 2631 3529 
Q 2884 3475 3122 3366 
z
" transform="scale(0.015625)"/>
       <path id="DejaVuSans-74" d="M 1172 4494 
L 1172 3500 
L 2356 3500 
L 2356 3053 
L 1172 3053 
L 1172 1153 
Q 1172 725 1289 603 
Q 1406 481 1766 481 
L 2356 481 
L 2356 0 
L 1766 0 
Q 1100 0 847 248 
Q 594 497 594 1153 
L 594 3053 
L 172 3053 
L 172 3500 
L 594 3500 
L 594 4494 
L 1172 4494 
z
" transform="scale(0.015625)"/>
       <path id="DejaVuSans-6f" d="M 1959 3097 
Q 1497 3097 1228 2736 
Q 959 2375 959 1747 
Q 959 1119 1226 758 
Q 1494 397 1959 397 
Q 2419 397 2687 759 
Q 2956 1122 2956 1747 
Q 2956 2369 2687 2733 
Q 2419 3097 1959 3097 
z
M 1959 3584 
Q 2709 3584 3137 3096 
Q 3566 2609 3566 1747 
Q 3566 888 3137 398 
Q 2709 -91 1959 -91 
Q 1206 -91 779 398 
Q 353 888 353 1747 
Q 353 2609 779 3096 
Q 1206 3584 1959 3584 
z
" transform="scale(0.015625)"/>
       <path id="DejaVuSans-6e" d="M 3513 2113 
L 3513 0 
L 2938 0 
L 2938 2094 
Q 2938 2591 2744 2837 
Q 2550 3084 2163 3084 
Q 1697 3084 1428 2787 
Q 1159 2491 1159 1978 
L 1159 0 
L 581 0 
L 581 3500 
L 1159 3500 
L 1159 2956 
Q 1366 3272 1645 3428 
Q 1925 3584 2291 3584 
Q 2894 3584 3203 3211 
Q 3513 2838 3513 2113 
z
" transform="scale(0.015625)"/>
      </defs>
      <use xlink:href="#DejaVuSans-44"/>
      <use xlink:href="#DejaVuSans-69" x="77.001953"/>
      <use xlink:href="#DejaVuSans-72" x="104.785156"/>
      <use xlink:href="#DejaVuSans-65" x="143.648438"/>
      <use xlink:href="#DejaVuSans-63" x="205.171875"/>
      <use xlink:href="#DejaVuSans-74" x="260.152344"/>
      <use xlink:href="#DejaVuSans-69" x="299.361328"/>
      <use xlink:href="#DejaVuSans-6f" x="327.144531"/>
      <use xlink:href="#DejaVuSans-6e" x="388.326172"/>
     </g>
    </g>
   </g>
  </g>
 </g>
 <defs>
  <clipPath id="pc790aa92d8">
   <rect x="51.853125" y="3.6" width="334.8" height="204.44569"/>
  </clipPath>
 </defs>
</svg>
