<?xml version="1.0" encoding="utf-8" standalone="no"?>
<!DOCTYPE svg PUBLIC "-//W3C//DTD SVG 1.1//EN"
  "http://www.w3.org/Graphics/SVG/1.1/DTD/svg11.dtd">
<svg xmlns:xlink="http://www.w3.org/1999/xlink" width="386.439375pt" height="287.4075pt" viewBox="0 0 386.439375 287.4075" xmlns="http://www.w3.org/2000/svg" version="1.1">
 <metadata>
  <rdf:RDF xmlns:dc="http://purl.org/dc/elements/1.1/" xmlns:cc="http://creativecommons.org/ns#" xmlns:rdf="http://www.w3.org/1999/02/22-rdf-syntax-ns#">
   <cc:Work>
    <dc:type rdf:resource="http://purl.org/dc/dcmitype/StillImage"/>
    <dc:date>2024-06-04T12:14:54.540938</dc:date>
    <dc:format>image/svg+xml</dc:format>
    <dc:creator>
     <cc:Agent>
      <dc:title>Matplotlib v3.9.0, https://matplotlib.org/</dc:title>
     </cc:Agent>
    </dc:creator>
   </cc:Work>
  </rdf:RDF>
 </metadata>
 <defs>
  <style type="text/css">*{stroke-linejoin: round; stroke-linecap: butt}</style>
 </defs>
 <g id="figure_1">
  <g id="patch_1">
   <path d="M 0 287.4075 
L 386.439375 287.4075 
L 386.439375 0 
L 0 0 
z
" style="fill: #ffffff"/>
  </g>
  <g id="axes_1">
   <g id="patch_2">
    <path d="M 48.039375 253.08 
L 382.839375 253.08 
L 382.839375 3.6 
L 48.039375 3.6 
z
" style="fill: #ffffff"/>
   </g>
   <g id="PolyCollection_1">
    <defs>
     <path id="m8188222d27" d="M 63.257557 -220.876181 
L 63.257557 -45.877567 
L 63.867504 -46.163781 
L 64.477451 -45.926882 
L 65.087398 -45.6675 
L 65.697345 -46.9813 
L 66.307293 -49.140629 
L 66.91724 -47.588009 
L 67.527187 -47.129326 
L 68.137134 -49.175277 
L 68.747081 -48.75738 
L 69.357028 -48.626942 
L 69.966976 -48.032139 
L 70.576923 -106.443162 
L 71.18687 -47.050635 
L 71.796817 -121.640185 
L 72.406764 -118.254522 
L 73.016711 -115.641534 
L 73.626659 -136.568915 
L 74.236606 -149.66847 
L 74.846553 -145.185689 
L 75.4565 -152.167556 
L 76.066447 -159.328641 
L 76.676394 -178.4017 
L 77.286342 -178.514718 
L 77.896289 -177.518979 
L 78.506236 -180.877914 
L 79.116183 -180.441625 
L 79.72613 -182.492625 
L 80.336077 -178.503244 
L 80.946025 -179.644765 
L 81.555972 -181.615107 
L 82.165919 -180.96537 
L 82.775866 -184.499939 
L 83.385813 -182.764041 
L 83.99576 -186.447394 
L 84.605708 -183.795331 
L 85.215655 -179.535399 
L 85.825602 -188.364656 
L 86.435549 -186.061959 
L 87.045496 -185.570407 
L 87.655444 -185.575905 
L 88.265391 -179.532903 
L 88.875338 -179.501241 
L 89.485285 -179.463957 
L 90.095232 -179.474352 
L 90.705179 -179.59083 
L 91.315127 -181.667019 
L 91.925074 -179.448083 
L 92.535021 -192.251542 
L 93.144968 -183.032411 
L 93.754915 -183.982785 
L 94.364862 -185.276739 
L 94.97481 -199.228407 
L 95.584757 -237.353487 
L 96.194704 -195.400701 
L 96.804651 -194.215112 
L 97.414598 -191.68727 
L 98.024545 -179.99107 
L 98.634493 -177.771781 
L 99.24444 -178.614797 
L 99.854387 -179.897967 
L 100.464334 -176.230368 
L 101.074281 -178.292042 
L 101.684228 -173.718815 
L 102.294176 -184.947507 
L 102.904123 -181.782429 
L 103.51407 -190.76818 
L 104.124017 -197.817369 
L 104.733964 -242.77305 
L 105.343911 -238.267927 
L 105.953859 -187.823972 
L 106.563806 -189.325991 
L 107.173753 -189.664516 
L 107.7837 -213.478225 
L 108.393647 -232.660717 
L 109.003594 -205.547723 
L 109.613542 -207.911155 
L 110.223489 -192.057943 
L 110.833436 -197.690466 
L 111.443383 -197.413131 
L 112.05333 -245.034213 
L 112.663277 -247.280479 
L 113.273225 -247.124519 
L 113.883172 -227.037372 
L 114.493119 -233.548052 
L 115.103066 -247.354587 
L 115.713013 -223.559323 
L 116.32296 -254.400989 
L 116.932908 -209.844921 
L 117.542855 -252.135804 
L 118.152802 -222.797588 
L 118.762749 -254.186468 
L 119.372696 -245.001881 
L 119.982643 -251.984916 
L 120.592591 -255.805353 
L 121.202538 -253.497983 
L 121.812485 -250.884322 
L 122.422432 -247.317343 
L 123.032379 -235.084864 
L 123.642326 -194.944498 
L 124.252274 -195.981989 
L 124.862221 -246.722454 
L 125.472168 -249.050512 
L 126.082115 -254.814313 
L 126.692062 -223.58831 
L 127.302009 -195.043865 
L 127.911957 -257.87773 
L 128.521904 -257.507601 
L 129.131851 -251.570307 
L 129.741798 -251.383166 
L 130.351745 -253.634369 
L 130.961692 -250.972861 
L 131.57164 -256.054449 
L 132.181587 -260.1367 
L 132.791534 -261.770636 
L 133.401481 -259.330715 
L 134.011428 -261.28335 
L 134.621375 -242.938561 
L 135.231323 -255.87167 
L 135.84127 -264.673053 
L 136.451217 -257.644273 
L 137.061164 -256.644525 
L 137.671111 -260.261279 
L 138.281058 -264.322546 
L 138.891006 -259.139529 
L 139.500953 -255.469136 
L 140.1109 -234.4622 
L 140.720847 -203.448256 
L 141.330794 -193.676167 
L 141.940741 -197.965632 
L 142.550689 -198.327643 
L 143.160636 -238.044469 
L 143.770583 -238.046232 
L 144.38053 -241.871742 
L 144.990477 -251.633573 
L 145.600424 -233.329899 
L 146.210372 -212.445656 
L 146.820319 -236.728314 
L 147.430266 -245.253592 
L 148.040213 -264.046744 
L 148.65016 -264.220991 
L 149.260107 -264.223337 
L 149.870055 -251.998239 
L 150.480002 -252.087024 
L 151.089949 -204.076834 
L 151.699896 -248.581322 
L 152.309843 -236.36152 
L 152.91979 -266.660395 
L 153.529738 -267.724967 
L 154.139685 -262.384444 
L 154.749632 -246.007105 
L 155.359579 -258.963362 
L 155.969526 -258.565559 
L 156.579473 -242.867152 
L 157.189421 -259.169169 
L 157.799368 -251.315717 
L 158.409315 -254.962726 
L 159.019262 -225.038045 
L 159.629209 -251.75744 
L 160.239156 -256.395219 
L 160.849104 -253.220445 
L 161.459051 -262.885012 
L 162.068998 -266.156013 
L 162.678945 -266.186635 
L 163.288892 -266.449276 
L 163.898839 -266.448789 
L 164.508787 -266.229077 
L 165.118734 -262.957613 
L 165.728681 -242.720849 
L 166.338628 -252.16909 
L 166.948575 -266.444735 
L 167.558522 -266.448649 
L 168.16847 -262.092745 
L 168.778417 -257.451183 
L 169.388364 -258.770268 
L 169.998311 -259.482334 
L 170.608258 -250.946918 
L 171.218205 -257.211056 
L 171.828153 -200.995158 
L 172.4381 -257.225477 
L 173.048047 -203.857268 
L 173.657994 -214.231733 
L 174.267941 -240.877899 
L 174.877888 -245.486957 
L 175.487836 -200.700835 
L 176.097783 -244.814963 
L 176.70773 -253.904697 
L 177.317677 -197.334177 
L 177.927624 -210.523934 
L 178.537571 -237.764967 
L 179.147519 -202.801443 
L 179.757466 -233.041849 
L 180.367413 -239.099933 
L 180.97736 -248.472666 
L 181.587307 -233.14054 
L 182.197254 -253.669498 
L 182.807202 -200.994102 
L 183.417149 -203.791874 
L 184.027096 -197.983934 
L 184.637043 -184.175003 
L 185.24699 -255.767662 
L 185.856937 -254.897739 
L 186.466885 -260.648997 
L 187.076832 -263.096245 
L 187.686779 -263.266139 
L 188.296726 -261.986 
L 188.906673 -262.505277 
L 189.51662 -260.122128 
L 190.126568 -260.581206 
L 190.736515 -261.986738 
L 191.346462 -258.476628 
L 191.956409 -258.789613 
L 192.566356 -259.431941 
L 193.176303 -262.546207 
L 193.786251 -258.791461 
L 194.396198 -258.790368 
L 195.006145 -256.950734 
L 195.616092 -245.856729 
L 196.226039 -258.378886 
L 196.835986 -258.246298 
L 197.445934 -257.00208 
L 198.055881 -252.446208 
L 198.665828 -255.631864 
L 199.275775 -217.530023 
L 199.885722 -253.052871 
L 200.495669 -224.114744 
L 201.105617 -222.424559 
L 201.715564 -196.046607 
L 202.325511 -200.208134 
L 202.935458 -240.170319 
L 203.545405 -204.768246 
L 204.155352 -251.240238 
L 204.7653 -251.157028 
L 205.375247 -259.720213 
L 205.985194 -248.435107 
L 206.595141 -256.896909 
L 207.205088 -241.189729 
L 207.815035 -195.608665 
L 208.424983 -191.24184 
L 209.03493 -185.163306 
L 209.644877 -193.549258 
L 210.254824 -202.386211 
L 210.864771 -196.226988 
L 211.474718 -200.140727 
L 212.084666 -190.200106 
L 212.694613 -190.128132 
L 213.30456 -199.317002 
L 213.914507 -195.296432 
L 214.524454 -239.791818 
L 215.134401 -238.361523 
L 215.744349 -214.645476 
L 216.354296 -254.973507 
L 216.964243 -254.444868 
L 217.57419 -252.029685 
L 218.184137 -242.052935 
L 218.794084 -254.442513 
L 219.404032 -245.440169 
L 220.013979 -256.666216 
L 220.623926 -252.551882 
L 221.233873 -249.122449 
L 221.84382 -254.495231 
L 222.453767 -260.522591 
L 223.063715 -256.16062 
L 223.673662 -261.377331 
L 224.283609 -204.565865 
L 224.893556 -255.209251 
L 225.503503 -252.259813 
L 226.11345 -254.001283 
L 226.723398 -266.843981 
L 227.333345 -254.110679 
L 227.943292 -201.688592 
L 228.553239 -238.071451 
L 229.163186 -258.265106 
L 229.773133 -257.994752 
L 230.383081 -204.470109 
L 230.993028 -201.747617 
L 231.602975 -247.758112 
L 232.212922 -261.902009 
L 232.822869 -209.603696 
L 233.432816 -249.945674 
L 234.042764 -240.322105 
L 234.652711 -256.449602 
L 235.262658 -249.623556 
L 235.872605 -200.139421 
L 236.482552 -203.350672 
L 237.092499 -202.361291 
L 237.702447 -203.361289 
L 238.312394 -204.687927 
L 238.922341 -253.381612 
L 239.532288 -261.916579 
L 240.142235 -264.1055 
L 240.752182 -257.775305 
L 241.36213 -248.735474 
L 241.972077 -246.43134 
L 242.582024 -225.352047 
L 243.191971 -229.632829 
L 243.801918 -254.424092 
L 244.411865 -257.707009 
L 245.021813 -265.342256 
L 245.63176 -256.481588 
L 246.241707 -259.390224 
L 246.851654 -264.192921 
L 247.461601 -263.2304 
L 248.071548 -237.79229 
L 248.681496 -268.186044 
L 249.291443 -265.896116 
L 249.90139 -268.310165 
L 250.511337 -252.826472 
L 251.121284 -219.979398 
L 251.731231 -200.124252 
L 252.341179 -265.864343 
L 252.951126 -265.869979 
L 253.561073 -247.761956 
L 254.17102 -199.646913 
L 254.780967 -211.617042 
L 255.390914 -198.622552 
L 256.000862 -203.44494 
L 256.610809 -203.048028 
L 257.220756 -202.451958 
L 257.830703 -198.469462 
L 258.44065 -198.888658 
L 259.050597 -198.883176 
L 259.660545 -201.62446 
L 260.270492 -238.313715 
L 260.880439 -252.566759 
L 261.490386 -246.830695 
L 262.100333 -193.804314 
L 262.71028 -199.021856 
L 263.320228 -220.72154 
L 263.930175 -220.721283 
L 264.540122 -220.462388 
L 265.150069 -198.048861 
L 265.760016 -198.515417 
L 266.369963 -201.55035 
L 266.979911 -181.269924 
L 267.589858 -194.7361 
L 268.199805 -210.394252 
L 268.809752 -262.286244 
L 269.419699 -263.058576 
L 270.029646 -204.882066 
L 270.639594 -204.665252 
L 271.249541 -218.802754 
L 271.859488 -263.392902 
L 272.469435 -264.660903 
L 273.079382 -263.961897 
L 273.689329 -241.974632 
L 274.299277 -241.973884 
L 274.909224 -243.003832 
L 275.519171 -204.449227 
L 276.129118 -259.43786 
L 276.739065 -259.669407 
L 277.349012 -261.284337 
L 277.95896 -260.402015 
L 278.568907 -212.064942 
L 279.178854 -230.544985 
L 279.788801 -264.875709 
L 280.398748 -266.443022 
L 281.008695 -244.175479 
L 281.618643 -265.922246 
L 282.22859 -266.249058 
L 282.838537 -265.726108 
L 283.448484 -250.926892 
L 284.058431 -264.146267 
L 284.668378 -247.794396 
L 285.278326 -201.713824 
L 285.888273 -196.874257 
L 286.49822 -178.820803 
L 287.108167 -196.602711 
L 287.718114 -200.334429 
L 288.328061 -193.865985 
L 288.938009 -190.664167 
L 289.547956 -195.7366 
L 290.157903 -261.612392 
L 290.76785 -263.864897 
L 291.377797 -268.884919 
L 291.987744 -268.657526 
L 292.597692 -270.226818 
L 293.207639 -270.229851 
L 293.817586 -270.233343 
L 294.427533 -267.705457 
L 295.03748 -199.753774 
L 295.647427 -198.93031 
L 296.257375 -198.947989 
L 296.867322 -198.85495 
L 297.477269 -194.254322 
L 298.087216 -256.767937 
L 298.697163 -256.768536 
L 299.30711 -205.190515 
L 299.917058 -266.484573 
L 300.527005 -265.120875 
L 301.136952 -263.999425 
L 301.746899 -257.800403 
L 302.356846 -258.839686 
L 302.966793 -255.489486 
L 303.576741 -253.836593 
L 304.186688 -186.888509 
L 304.796635 -193.891872 
L 305.406582 -202.173847 
L 306.016529 -237.911145 
L 306.626476 -228.023743 
L 307.236424 -247.637095 
L 307.846371 -247.640055 
L 308.456318 -246.567698 
L 309.066265 -205.25761 
L 309.676212 -202.247129 
L 310.286159 -255.364221 
L 310.896107 -250.375107 
L 311.506054 -260.438274 
L 312.116001 -232.506335 
L 312.725948 -219.569958 
L 313.335895 -197.862097 
L 313.945842 -231.345835 
L 314.55579 -261.170945 
L 315.165737 -250.223593 
L 315.775684 -243.908991 
L 316.385631 -249.460847 
L 316.995578 -268.333471 
L 317.605525 -262.443019 
L 318.215473 -256.335295 
L 318.82542 -261.6359 
L 319.435367 -205.188876 
L 320.045314 -217.268105 
L 320.655261 -260.629815 
L 321.265208 -264.634827 
L 321.875156 -258.802554 
L 322.485103 -248.665369 
L 323.09505 -200.792173 
L 323.704997 -200.355592 
L 324.314944 -200.375467 
L 324.924891 -194.695249 
L 325.534839 -191.69549 
L 326.144786 -250.209689 
L 326.754733 -201.426631 
L 327.36468 -202.885344 
L 327.974627 -201.374639 
L 328.584574 -248.696179 
L 329.194522 -260.890076 
L 329.804469 -265.87965 
L 330.414416 -250.97803 
L 331.024363 -204.137314 
L 331.63431 -204.134561 
L 332.244257 -265.879304 
L 332.854205 -249.680852 
L 333.464152 -249.682412 
L 334.074099 -265.878351 
L 334.684046 -265.881298 
L 335.293993 -266.146955 
L 335.90394 -266.148957 
L 336.513888 -268.738122 
L 337.123835 -249.679978 
L 337.733782 -264.448686 
L 338.343729 -258.283458 
L 338.953676 -247.842606 
L 339.563623 -243.282603 
L 340.173571 -253.998306 
L 340.783518 -217.568064 
L 341.393465 -177.46673 
L 342.003412 -263.418857 
L 342.613359 -264.94988 
L 343.223306 -242.064582 
L 343.833254 -252.583889 
L 344.443201 -248.982449 
L 345.053148 -204.602822 
L 345.663095 -201.731931 
L 346.273042 -195.589018 
L 346.88299 -245.057405 
L 347.492937 -259.143561 
L 348.102884 -267.058317 
L 348.712831 -205.340721 
L 349.322778 -203.220196 
L 349.932725 -205.303543 
L 350.542673 -212.69857 
L 351.15262 -268.326013 
L 351.762567 -249.452449 
L 352.372514 -267.743405 
L 352.982461 -252.138234 
L 353.592408 -263.420757 
L 354.202356 -202.689664 
L 354.812303 -260.960073 
L 355.42225 -262.818577 
L 356.032197 -255.058193 
L 356.642144 -233.107465 
L 357.252091 -239.946345 
L 357.862039 -239.948205 
L 358.471986 -253.365574 
L 359.081933 -200.147712 
L 359.69188 -242.814745 
L 360.301827 -242.761673 
L 360.911774 -228.42607 
L 361.521722 -266.186905 
L 362.131669 -267.805521 
L 362.741616 -267.549306 
L 363.351563 -262.596473 
L 363.96151 -265.176009 
L 364.571457 -193.195849 
L 365.181405 -256.707111 
L 365.791352 -263.867297 
L 366.401299 -266.186103 
L 367.011246 -266.186439 
L 367.621193 -264.729507 
L 367.621193 -272.42634 
L 367.621193 -272.42634 
L 367.011246 -272.420711 
L 366.401299 -272.420491 
L 365.791352 -272.42727 
L 365.181405 -272.419713 
L 364.571457 -272.419994 
L 363.96151 -272.424704 
L 363.351563 -272.4675 
L 362.741616 -272.422576 
L 362.131669 -272.424209 
L 361.521722 -272.422579 
L 360.911774 -272.417712 
L 360.301827 -272.416851 
L 359.69188 -272.420657 
L 359.081933 -272.422156 
L 358.471986 -272.41752 
L 357.862039 -272.422489 
L 357.252091 -272.420394 
L 356.642144 -272.419069 
L 356.032197 -272.418483 
L 355.42225 -272.419558 
L 354.812303 -272.422215 
L 354.202356 -272.420668 
L 353.592408 -272.421705 
L 352.982461 -272.42762 
L 352.372514 -272.416293 
L 351.762567 -272.415265 
L 351.15262 -272.419517 
L 350.542673 -272.416684 
L 349.932725 -272.415037 
L 349.322778 -272.403586 
L 348.712831 -272.409029 
L 348.102884 -272.403729 
L 347.492937 -272.406571 
L 346.88299 -272.405612 
L 346.273042 -272.403395 
L 345.663095 -272.400017 
L 345.053148 -272.401589 
L 344.443201 -272.40333 
L 343.833254 -272.402722 
L 343.223306 -272.401948 
L 342.613359 -272.40003 
L 342.003412 -272.39976 
L 341.393465 -272.398079 
L 340.783518 -272.378719 
L 340.173571 -272.379408 
L 339.563623 -272.379428 
L 338.953676 -272.380372 
L 338.343729 -272.375848 
L 337.733782 -272.333748 
L 337.123835 -272.332518 
L 336.513888 -272.328942 
L 335.90394 -272.328039 
L 335.293993 -272.332306 
L 334.684046 -272.328162 
L 334.074099 -272.326456 
L 333.464152 -272.32845 
L 332.854205 -272.324727 
L 332.244257 -272.324817 
L 331.63431 -272.331777 
L 331.024363 -272.327613 
L 330.414416 -272.325344 
L 329.804469 -272.331978 
L 329.194522 -272.326603 
L 328.584574 -272.336656 
L 327.974627 -272.336148 
L 327.36468 -272.327135 
L 326.754733 -272.32808 
L 326.144786 -272.328981 
L 325.534839 -272.325844 
L 324.924891 -272.322185 
L 324.314944 -272.32413 
L 323.704997 -272.318675 
L 323.09505 -272.263979 
L 322.485103 -272.259656 
L 321.875156 -272.256985 
L 321.265208 -272.261169 
L 320.655261 -272.257962 
L 320.045314 -272.258759 
L 319.435367 -272.258661 
L 318.82542 -272.265161 
L 318.215473 -272.266462 
L 317.605525 -272.260548 
L 316.995578 -272.256156 
L 316.385631 -272.266453 
L 315.775684 -272.255861 
L 315.165737 -272.259191 
L 314.55579 -272.258963 
L 313.945842 -272.26604 
L 313.335895 -272.256844 
L 312.725948 -272.257922 
L 312.116001 -272.257999 
L 311.506054 -272.257109 
L 310.896107 -272.255224 
L 310.286159 -272.260139 
L 309.676212 -272.259052 
L 309.066265 -272.2592 
L 308.456318 -272.25542 
L 307.846371 -272.254049 
L 307.236424 -272.253022 
L 306.626476 -272.253 
L 306.016529 -272.253199 
L 305.406582 -272.255951 
L 304.796635 -272.253151 
L 304.186688 -272.254975 
L 303.576741 -272.240331 
L 302.966793 -272.240583 
L 302.356846 -272.245721 
L 301.746899 -272.249459 
L 301.136952 -272.236216 
L 300.527005 -272.239149 
L 299.917058 -272.238426 
L 299.30711 -272.237957 
L 298.697163 -272.250362 
L 298.087216 -272.23488 
L 297.477269 -272.244525 
L 296.867322 -272.237195 
L 296.257375 -272.241668 
L 295.647427 -272.27153 
L 295.03748 -272.251667 
L 294.427533 -272.236591 
L 293.817586 -272.236966 
L 293.207639 -272.236992 
L 292.597692 -272.244531 
L 291.987744 -272.243881 
L 291.377797 -272.234633 
L 290.76785 -272.238203 
L 290.157903 -272.235848 
L 289.547956 -272.24025 
L 288.938009 -272.239963 
L 288.328061 -272.240534 
L 287.718114 -272.235514 
L 287.108167 -272.234756 
L 286.49822 -272.237558 
L 285.888273 -272.240257 
L 285.278326 -272.238557 
L 284.668378 -272.236112 
L 284.058431 -272.23258 
L 283.448484 -272.233573 
L 282.838537 -272.240763 
L 282.22859 -272.237863 
L 281.618643 -272.235291 
L 281.008695 -272.2399 
L 280.398748 -272.235622 
L 279.788801 -272.238603 
L 279.178854 -272.234771 
L 278.568907 -272.240345 
L 277.95896 -272.236361 
L 277.349012 -272.236039 
L 276.739065 -272.234735 
L 276.129118 -272.234025 
L 275.519171 -272.234808 
L 274.909224 -272.233798 
L 274.299277 -272.233098 
L 273.689329 -272.23412 
L 273.079382 -272.237508 
L 272.469435 -272.243462 
L 271.859488 -272.232288 
L 271.249541 -272.231405 
L 270.639594 -272.23337 
L 270.029646 -272.237747 
L 269.419699 -272.274748 
L 268.809752 -272.247782 
L 268.199805 -272.232298 
L 267.589858 -272.233254 
L 266.979911 -272.232293 
L 266.369963 -272.158193 
L 265.760016 -272.077035 
L 265.150069 -272.083854 
L 264.540122 -272.084891 
L 263.930175 -272.079738 
L 263.320228 -272.077784 
L 262.71028 -272.081572 
L 262.100333 -272.078104 
L 261.490386 -272.073477 
L 260.880439 -272.077864 
L 260.270492 -272.077788 
L 259.660545 -272.075644 
L 259.050597 -272.080111 
L 258.44065 -271.712465 
L 257.830703 -271.71511 
L 257.220756 -271.710057 
L 256.610809 -271.707393 
L 256.000862 -271.710033 
L 255.390914 -271.713854 
L 254.780967 -271.708128 
L 254.17102 -271.712405 
L 253.561073 -271.717204 
L 252.951126 -271.714145 
L 252.341179 -271.714219 
L 251.731231 -271.70989 
L 251.121284 -271.706287 
L 250.511337 -271.706678 
L 249.90139 -271.709597 
L 249.291443 -271.714952 
L 248.681496 -271.708967 
L 248.071548 -271.715029 
L 247.461601 -271.704977 
L 246.851654 -271.705413 
L 246.241707 -271.719611 
L 245.63176 -271.705007 
L 245.021813 -271.705377 
L 244.411865 -271.709949 
L 243.801918 -271.708803 
L 243.191971 -271.705596 
L 242.582024 -271.70467 
L 241.972077 -271.710841 
L 241.36213 -271.706442 
L 240.752182 -271.711004 
L 240.142235 -271.703227 
L 239.532288 -271.711481 
L 238.922341 -271.705167 
L 238.312394 -271.706485 
L 237.702447 -271.708259 
L 237.092499 -271.719571 
L 236.482552 -271.710121 
L 235.872605 -271.708196 
L 235.262658 -271.714096 
L 234.652711 -271.706414 
L 234.042764 -271.705013 
L 233.432816 -271.707576 
L 232.822869 -271.70727 
L 232.212922 -271.709169 
L 231.602975 -271.70625 
L 230.993028 -271.720621 
L 230.383081 -271.711655 
L 229.773133 -271.707429 
L 229.163186 -271.704775 
L 228.553239 -271.705052 
L 227.943292 -271.701832 
L 227.333345 -271.698504 
L 226.723398 -271.58075 
L 226.11345 -271.585841 
L 225.503503 -271.584858 
L 224.893556 -271.449865 
L 224.283609 -271.446519 
L 223.673662 -271.304018 
L 223.063715 -271.300071 
L 222.453767 -271.307443 
L 221.84382 -271.304922 
L 221.233873 -271.304208 
L 220.623926 -271.307116 
L 220.013979 -271.301784 
L 219.404032 -271.30109 
L 218.794084 -271.310443 
L 218.184137 -271.3012 
L 217.57419 -271.301245 
L 216.964243 -271.296451 
L 216.354296 -271.290356 
L 215.744349 -271.295624 
L 215.134401 -271.295544 
L 214.524454 -271.287681 
L 213.914507 -271.288651 
L 213.30456 -271.293667 
L 212.694613 -271.286464 
L 212.084666 -271.293024 
L 211.474718 -271.290464 
L 210.864771 -271.290989 
L 210.254824 -271.289788 
L 209.644877 -271.290523 
L 209.03493 -271.290648 
L 208.424983 -271.293606 
L 207.815035 -271.29311 
L 207.205088 -271.237033 
L 206.595141 -271.246396 
L 205.985194 -271.23813 
L 205.375247 -271.242714 
L 204.7653 -271.237929 
L 204.155352 -271.240043 
L 203.545405 -271.237248 
L 202.935458 -271.235921 
L 202.325511 -271.23742 
L 201.715564 -271.239035 
L 201.105617 -271.237039 
L 200.495669 -270.946183 
L 199.885722 -270.904471 
L 199.275775 -270.899 
L 198.665828 -271.010853 
L 198.055881 -270.844503 
L 197.445934 -270.812181 
L 196.835986 -270.820065 
L 196.226039 -270.810485 
L 195.616092 -270.817959 
L 195.006145 -270.810118 
L 194.396198 -270.805379 
L 193.786251 -270.60988 
L 193.176303 -270.610089 
L 192.566356 -270.607859 
L 191.956409 -270.608661 
L 191.346462 -270.614396 
L 190.736515 -270.608947 
L 190.126568 -270.607066 
L 189.51662 -270.607775 
L 188.906673 -270.607439 
L 188.296726 -270.607106 
L 187.686779 -270.606817 
L 187.076832 -270.60401 
L 186.466885 -270.606823 
L 185.856937 -270.593737 
L 185.24699 -270.592557 
L 184.637043 -270.586146 
L 184.027096 -270.588989 
L 183.417149 -270.593045 
L 182.807202 -270.586687 
L 182.197254 -270.585506 
L 181.587307 -270.585787 
L 180.97736 -270.586257 
L 180.367413 -270.585543 
L 179.757466 -270.58669 
L 179.147519 -270.586584 
L 178.537571 -270.584715 
L 177.927624 -270.584973 
L 177.317677 -270.584669 
L 176.70773 -270.54369 
L 176.097783 -270.529933 
L 175.487836 -270.529866 
L 174.877888 -270.428554 
L 174.267941 -270.433535 
L 173.657994 -270.435792 
L 173.048047 -270.433961 
L 172.4381 -270.4304 
L 171.828153 -270.438297 
L 171.218205 -270.434039 
L 170.608258 -270.447017 
L 169.998311 -270.427887 
L 169.388364 -270.446043 
L 168.778417 -270.437008 
L 168.16847 -270.433502 
L 167.558522 -270.44398 
L 166.948575 -270.432269 
L 166.338628 -270.44314 
L 165.728681 -270.435197 
L 165.118734 -270.444459 
L 164.508787 -270.433301 
L 163.898839 -270.441866 
L 163.288892 -270.4284 
L 162.678945 -270.431476 
L 162.068998 -270.426693 
L 161.459051 -270.445063 
L 160.849104 -270.43566 
L 160.239156 -270.433891 
L 159.629209 -270.430056 
L 159.019262 -270.433075 
L 158.409315 -270.448743 
L 157.799368 -270.438161 
L 157.189421 -270.429331 
L 156.579473 -270.426858 
L 155.969526 -270.426727 
L 155.359579 -270.433622 
L 154.749632 -270.424884 
L 154.139685 -270.424697 
L 153.529738 -270.455953 
L 152.91979 -270.421351 
L 152.309843 -270.416274 
L 151.699896 -270.416549 
L 151.089949 -270.41836 
L 150.480002 -270.344459 
L 149.870055 -270.356255 
L 149.260107 -270.350673 
L 148.65016 -270.346391 
L 148.040213 -270.346619 
L 147.430266 -270.343785 
L 146.820319 -270.344956 
L 146.210372 -270.343872 
L 145.600424 -270.3437 
L 144.990477 -270.340781 
L 144.38053 -270.340348 
L 143.770583 -270.311565 
L 143.160636 -270.31199 
L 142.550689 -270.262978 
L 141.940741 -270.263883 
L 141.330794 -270.263568 
L 140.720847 -270.32309 
L 140.1109 -270.25269 
L 139.500953 -270.235977 
L 138.891006 -270.218644 
L 138.281058 -270.238719 
L 137.671111 -270.234121 
L 137.061164 -270.229831 
L 136.451217 -270.228844 
L 135.84127 -270.224767 
L 135.231323 -270.219485 
L 134.621375 -270.21837 
L 134.011428 -270.23101 
L 133.401481 -270.218633 
L 132.791534 -270.226055 
L 132.181587 -270.224185 
L 131.57164 -270.22085 
L 130.961692 -270.223473 
L 130.351745 -270.222559 
L 129.741798 -270.224541 
L 129.131851 -270.21656 
L 128.521904 -270.170336 
L 127.911957 -270.165866 
L 127.302009 -270.155688 
L 126.692062 -270.055847 
L 126.082115 -269.943169 
L 125.472168 -269.943075 
L 124.862221 -269.943057 
L 124.252274 -269.874184 
L 123.642326 -269.875065 
L 123.032379 -269.874544 
L 122.422432 -269.875096 
L 121.812485 -269.876233 
L 121.202538 -269.64984 
L 120.592591 -269.547992 
L 119.982643 -269.518551 
L 119.372696 -269.258499 
L 118.762749 -269.25777 
L 118.152802 -269.249807 
L 117.542855 -269.254477 
L 116.932908 -269.254531 
L 116.32296 -268.811853 
L 115.713013 -268.814576 
L 115.103066 -268.810906 
L 114.493119 -268.810377 
L 113.883172 -268.810784 
L 113.273225 -268.808967 
L 112.663277 -268.811458 
L 112.05333 -268.805477 
L 111.443383 -268.6024 
L 110.833436 -268.592865 
L 110.223489 -268.596488 
L 109.613542 -268.597084 
L 109.003594 -268.596161 
L 108.393647 -268.595489 
L 107.7837 -268.122723 
L 107.173753 -268.121163 
L 106.563806 -268.121464 
L 105.953859 -267.887746 
L 105.343911 -267.888889 
L 104.733964 -267.888374 
L 104.124017 -267.360973 
L 103.51407 -267.06272 
L 102.904123 -266.991466 
L 102.294176 -266.996248 
L 101.684228 -266.366458 
L 101.074281 -266.351991 
L 100.464334 -266.352631 
L 99.854387 -266.352307 
L 99.24444 -266.351558 
L 98.634493 -266.323257 
L 98.024545 -266.323333 
L 97.414598 -266.32615 
L 96.804651 -266.085567 
L 96.194704 -266.085103 
L 95.584757 -266.084364 
L 94.97481 -266.083915 
L 94.364862 -266.085568 
L 93.754915 -266.085104 
L 93.144968 -266.084767 
L 92.535021 -266.084163 
L 91.925074 -266.084481 
L 91.315127 -266.085014 
L 90.705179 -266.083758 
L 90.095232 -266.083865 
L 89.485285 -266.079771 
L 88.875338 -266.083562 
L 88.265391 -266.080975 
L 87.655444 -265.956303 
L 87.045496 -265.956578 
L 86.435549 -265.95793 
L 85.825602 -265.950663 
L 85.215655 -265.956621 
L 84.605708 -265.958484 
L 83.99576 -265.490577 
L 83.385813 -265.488739 
L 82.775866 -265.430901 
L 82.165919 -265.42923 
L 81.555972 -265.429965 
L 80.946025 -265.429998 
L 80.336077 -265.431851 
L 79.72613 -265.435462 
L 79.116183 -265.431307 
L 78.506236 -265.43115 
L 77.896289 -265.427325 
L 77.286342 -265.429229 
L 76.676394 -256.807024 
L 76.066447 -254.992799 
L 75.4565 -254.992996 
L 74.846553 -254.992309 
L 74.236606 -254.993108 
L 73.626659 -254.99357 
L 73.016711 -254.992977 
L 72.406764 -254.993141 
L 71.796817 -249.730551 
L 71.18687 -249.728169 
L 70.576923 -246.571423 
L 69.966976 -246.565405 
L 69.357028 -246.567035 
L 68.747081 -243.489699 
L 68.137134 -240.56277 
L 67.527187 -238.725461 
L 66.91724 -238.723759 
L 66.307293 -238.721871 
L 65.697345 -238.724662 
L 65.087398 -238.724588 
L 64.477451 -223.787953 
L 63.867504 -223.762784 
L 63.257557 -220.876181 
z
" style="stroke: #0000ff; stroke-opacity: 0.2"/>
    </defs>
    <g clip-path="url(#pcc56d064d8)">
     <use xlink:href="#m8188222d27" x="0" y="287.4075" style="fill: #0000ff; fill-opacity: 0.2; stroke: #0000ff; stroke-opacity: 0.2"/>
    </g>
   </g>
   <g id="matplotlib.axis_1">
    <g id="xtick_1">
     <g id="line2d_1">
      <path d="M 63.257557 253.08 
L 63.257557 3.6 
" clip-path="url(#pcc56d064d8)" style="fill: none; stroke: #b0b0b0; stroke-width: 0.5; stroke-linecap: square"/>
     </g>
     <g id="line2d_2">
      <defs>
       <path id="m58e3e8a634" d="M 0 0 
L 0 -3 
" style="stroke: #000000; stroke-width: 0.5"/>
      </defs>
      <g>
       <use xlink:href="#m58e3e8a634" x="63.257557" y="253.08" style="stroke: #000000; stroke-width: 0.5"/>
      </g>
     </g>
     <g id="line2d_3">
      <defs>
       <path id="mb04376b0dc" d="M 0 0 
L 0 3 
" style="stroke: #000000; stroke-width: 0.5"/>
      </defs>
      <g>
       <use xlink:href="#mb04376b0dc" x="63.257557" y="3.6" style="stroke: #000000; stroke-width: 0.5"/>
      </g>
     </g>
     <g id="text_1">
      <!-- 0 -->
      <g transform="translate(59.440057 265.698125) scale(0.12 -0.12)">
       <defs>
        <path id="DejaVuSans-30" d="M 2034 4250 
Q 1547 4250 1301 3770 
Q 1056 3291 1056 2328 
Q 1056 1369 1301 889 
Q 1547 409 2034 409 
Q 2525 409 2770 889 
Q 3016 1369 3016 2328 
Q 3016 3291 2770 3770 
Q 2525 4250 2034 4250 
z
M 2034 4750 
Q 2819 4750 3233 4129 
Q 3647 3509 3647 2328 
Q 3647 1150 3233 529 
Q 2819 -91 2034 -91 
Q 1250 -91 836 529 
Q 422 1150 422 2328 
Q 422 3509 836 4129 
Q 1250 4750 2034 4750 
z
" transform="scale(0.015625)"/>
       </defs>
       <use xlink:href="#DejaVuSans-30"/>
      </g>
     </g>
    </g>
    <g id="xtick_2">
     <g id="line2d_4">
      <path d="M 124.252274 253.08 
L 124.252274 3.6 
" clip-path="url(#pcc56d064d8)" style="fill: none; stroke: #b0b0b0; stroke-width: 0.5; stroke-linecap: square"/>
     </g>
     <g id="line2d_5">
      <g>
       <use xlink:href="#m58e3e8a634" x="124.252274" y="253.08" style="stroke: #000000; stroke-width: 0.5"/>
      </g>
     </g>
     <g id="line2d_6">
      <g>
       <use xlink:href="#mb04376b0dc" x="124.252274" y="3.6" style="stroke: #000000; stroke-width: 0.5"/>
      </g>
     </g>
     <g id="text_2">
      <!-- 100 -->
      <g transform="translate(112.799774 265.698125) scale(0.12 -0.12)">
       <defs>
        <path id="DejaVuSans-31" d="M 794 531 
L 1825 531 
L 1825 4091 
L 703 3866 
L 703 4441 
L 1819 4666 
L 2450 4666 
L 2450 531 
L 3481 531 
L 3481 0 
L 794 0 
L 794 531 
z
" transform="scale(0.015625)"/>
       </defs>
       <use xlink:href="#DejaVuSans-31"/>
       <use xlink:href="#DejaVuSans-30" x="63.623047"/>
       <use xlink:href="#DejaVuSans-30" x="127.246094"/>
      </g>
     </g>
    </g>
    <g id="xtick_3">
     <g id="line2d_7">
      <path d="M 185.24699 253.08 
L 185.24699 3.6 
" clip-path="url(#pcc56d064d8)" style="fill: none; stroke: #b0b0b0; stroke-width: 0.5; stroke-linecap: square"/>
     </g>
     <g id="line2d_8">
      <g>
       <use xlink:href="#m58e3e8a634" x="185.24699" y="253.08" style="stroke: #000000; stroke-width: 0.5"/>
      </g>
     </g>
     <g id="line2d_9">
      <g>
       <use xlink:href="#mb04376b0dc" x="185.24699" y="3.6" style="stroke: #000000; stroke-width: 0.5"/>
      </g>
     </g>
     <g id="text_3">
      <!-- 200 -->
      <g transform="translate(173.79449 265.698125) scale(0.12 -0.12)">
       <defs>
        <path id="DejaVuSans-32" d="M 1228 531 
L 3431 531 
L 3431 0 
L 469 0 
L 469 531 
Q 828 903 1448 1529 
Q 2069 2156 2228 2338 
Q 2531 2678 2651 2914 
Q 2772 3150 2772 3378 
Q 2772 3750 2511 3984 
Q 2250 4219 1831 4219 
Q 1534 4219 1204 4116 
Q 875 4013 500 3803 
L 500 4441 
Q 881 4594 1212 4672 
Q 1544 4750 1819 4750 
Q 2544 4750 2975 4387 
Q 3406 4025 3406 3419 
Q 3406 3131 3298 2873 
Q 3191 2616 2906 2266 
Q 2828 2175 2409 1742 
Q 1991 1309 1228 531 
z
" transform="scale(0.015625)"/>
       </defs>
       <use xlink:href="#DejaVuSans-32"/>
       <use xlink:href="#DejaVuSans-30" x="63.623047"/>
       <use xlink:href="#DejaVuSans-30" x="127.246094"/>
      </g>
     </g>
    </g>
    <g id="xtick_4">
     <g id="line2d_10">
      <path d="M 246.241707 253.08 
L 246.241707 3.6 
" clip-path="url(#pcc56d064d8)" style="fill: none; stroke: #b0b0b0; stroke-width: 0.5; stroke-linecap: square"/>
     </g>
     <g id="line2d_11">
      <g>
       <use xlink:href="#m58e3e8a634" x="246.241707" y="253.08" style="stroke: #000000; stroke-width: 0.5"/>
      </g>
     </g>
     <g id="line2d_12">
      <g>
       <use xlink:href="#mb04376b0dc" x="246.241707" y="3.6" style="stroke: #000000; stroke-width: 0.5"/>
      </g>
     </g>
     <g id="text_4">
      <!-- 300 -->
      <g transform="translate(234.789207 265.698125) scale(0.12 -0.12)">
       <defs>
        <path id="DejaVuSans-33" d="M 2597 2516 
Q 3050 2419 3304 2112 
Q 3559 1806 3559 1356 
Q 3559 666 3084 287 
Q 2609 -91 1734 -91 
Q 1441 -91 1130 -33 
Q 819 25 488 141 
L 488 750 
Q 750 597 1062 519 
Q 1375 441 1716 441 
Q 2309 441 2620 675 
Q 2931 909 2931 1356 
Q 2931 1769 2642 2001 
Q 2353 2234 1838 2234 
L 1294 2234 
L 1294 2753 
L 1863 2753 
Q 2328 2753 2575 2939 
Q 2822 3125 2822 3475 
Q 2822 3834 2567 4026 
Q 2313 4219 1838 4219 
Q 1578 4219 1281 4162 
Q 984 4106 628 3988 
L 628 4550 
Q 988 4650 1302 4700 
Q 1616 4750 1894 4750 
Q 2613 4750 3031 4423 
Q 3450 4097 3450 3541 
Q 3450 3153 3228 2886 
Q 3006 2619 2597 2516 
z
" transform="scale(0.015625)"/>
       </defs>
       <use xlink:href="#DejaVuSans-33"/>
       <use xlink:href="#DejaVuSans-30" x="63.623047"/>
       <use xlink:href="#DejaVuSans-30" x="127.246094"/>
      </g>
     </g>
    </g>
    <g id="xtick_5">
     <g id="line2d_13">
      <path d="M 307.236424 253.08 
L 307.236424 3.6 
" clip-path="url(#pcc56d064d8)" style="fill: none; stroke: #b0b0b0; stroke-width: 0.5; stroke-linecap: square"/>
     </g>
     <g id="line2d_14">
      <g>
       <use xlink:href="#m58e3e8a634" x="307.236424" y="253.08" style="stroke: #000000; stroke-width: 0.5"/>
      </g>
     </g>
     <g id="line2d_15">
      <g>
       <use xlink:href="#mb04376b0dc" x="307.236424" y="3.6" style="stroke: #000000; stroke-width: 0.5"/>
      </g>
     </g>
     <g id="text_5">
      <!-- 400 -->
      <g transform="translate(295.783924 265.698125) scale(0.12 -0.12)">
       <defs>
        <path id="DejaVuSans-34" d="M 2419 4116 
L 825 1625 
L 2419 1625 
L 2419 4116 
z
M 2253 4666 
L 3047 4666 
L 3047 1625 
L 3713 1625 
L 3713 1100 
L 3047 1100 
L 3047 0 
L 2419 0 
L 2419 1100 
L 313 1100 
L 313 1709 
L 2253 4666 
z
" transform="scale(0.015625)"/>
       </defs>
       <use xlink:href="#DejaVuSans-34"/>
       <use xlink:href="#DejaVuSans-30" x="63.623047"/>
       <use xlink:href="#DejaVuSans-30" x="127.246094"/>
      </g>
     </g>
    </g>
    <g id="xtick_6">
     <g id="line2d_16">
      <path d="M 368.23114 253.08 
L 368.23114 3.6 
" clip-path="url(#pcc56d064d8)" style="fill: none; stroke: #b0b0b0; stroke-width: 0.5; stroke-linecap: square"/>
     </g>
     <g id="line2d_17">
      <g>
       <use xlink:href="#m58e3e8a634" x="368.23114" y="253.08" style="stroke: #000000; stroke-width: 0.5"/>
      </g>
     </g>
     <g id="line2d_18">
      <g>
       <use xlink:href="#mb04376b0dc" x="368.23114" y="3.6" style="stroke: #000000; stroke-width: 0.5"/>
      </g>
     </g>
     <g id="text_6">
      <!-- 500 -->
      <g transform="translate(356.77864 265.698125) scale(0.12 -0.12)">
       <defs>
        <path id="DejaVuSans-35" d="M 691 4666 
L 3169 4666 
L 3169 4134 
L 1269 4134 
L 1269 2991 
Q 1406 3038 1543 3061 
Q 1681 3084 1819 3084 
Q 2600 3084 3056 2656 
Q 3513 2228 3513 1497 
Q 3513 744 3044 326 
Q 2575 -91 1722 -91 
Q 1428 -91 1123 -41 
Q 819 9 494 109 
L 494 744 
Q 775 591 1075 516 
Q 1375 441 1709 441 
Q 2250 441 2565 725 
Q 2881 1009 2881 1497 
Q 2881 1984 2565 2268 
Q 2250 2553 1709 2553 
Q 1456 2553 1204 2497 
Q 953 2441 691 2322 
L 691 4666 
z
" transform="scale(0.015625)"/>
       </defs>
       <use xlink:href="#DejaVuSans-35"/>
       <use xlink:href="#DejaVuSans-30" x="63.623047"/>
       <use xlink:href="#DejaVuSans-30" x="127.246094"/>
      </g>
     </g>
    </g>
    <g id="xtick_7">
     <g id="line2d_19">
      <defs>
       <path id="meece39a96a" d="M 0 0 
L 0 -1.5 
" style="stroke: #000000; stroke-width: 0.5"/>
      </defs>
      <g>
       <use xlink:href="#meece39a96a" x="51.058613" y="253.08" style="stroke: #000000; stroke-width: 0.5"/>
      </g>
     </g>
     <g id="line2d_20">
      <defs>
       <path id="m877c94f4a8" d="M 0 0 
L 0 1.5 
" style="stroke: #000000; stroke-width: 0.5"/>
      </defs>
      <g>
       <use xlink:href="#m877c94f4a8" x="51.058613" y="3.6" style="stroke: #000000; stroke-width: 0.5"/>
      </g>
     </g>
    </g>
    <g id="xtick_8">
     <g id="line2d_21">
      <g>
       <use xlink:href="#meece39a96a" x="75.4565" y="253.08" style="stroke: #000000; stroke-width: 0.5"/>
      </g>
     </g>
     <g id="line2d_22">
      <g>
       <use xlink:href="#m877c94f4a8" x="75.4565" y="3.6" style="stroke: #000000; stroke-width: 0.5"/>
      </g>
     </g>
    </g>
    <g id="xtick_9">
     <g id="line2d_23">
      <g>
       <use xlink:href="#meece39a96a" x="87.655444" y="253.08" style="stroke: #000000; stroke-width: 0.5"/>
      </g>
     </g>
     <g id="line2d_24">
      <g>
       <use xlink:href="#m877c94f4a8" x="87.655444" y="3.6" style="stroke: #000000; stroke-width: 0.5"/>
      </g>
     </g>
    </g>
    <g id="xtick_10">
     <g id="line2d_25">
      <g>
       <use xlink:href="#meece39a96a" x="99.854387" y="253.08" style="stroke: #000000; stroke-width: 0.5"/>
      </g>
     </g>
     <g id="line2d_26">
      <g>
       <use xlink:href="#m877c94f4a8" x="99.854387" y="3.6" style="stroke: #000000; stroke-width: 0.5"/>
      </g>
     </g>
    </g>
    <g id="xtick_11">
     <g id="line2d_27">
      <g>
       <use xlink:href="#meece39a96a" x="112.05333" y="253.08" style="stroke: #000000; stroke-width: 0.5"/>
      </g>
     </g>
     <g id="line2d_28">
      <g>
       <use xlink:href="#m877c94f4a8" x="112.05333" y="3.6" style="stroke: #000000; stroke-width: 0.5"/>
      </g>
     </g>
    </g>
    <g id="xtick_12">
     <g id="line2d_29">
      <g>
       <use xlink:href="#meece39a96a" x="136.451217" y="253.08" style="stroke: #000000; stroke-width: 0.5"/>
      </g>
     </g>
     <g id="line2d_30">
      <g>
       <use xlink:href="#m877c94f4a8" x="136.451217" y="3.6" style="stroke: #000000; stroke-width: 0.5"/>
      </g>
     </g>
    </g>
    <g id="xtick_13">
     <g id="line2d_31">
      <g>
       <use xlink:href="#meece39a96a" x="148.65016" y="253.08" style="stroke: #000000; stroke-width: 0.5"/>
      </g>
     </g>
     <g id="line2d_32">
      <g>
       <use xlink:href="#m877c94f4a8" x="148.65016" y="3.6" style="stroke: #000000; stroke-width: 0.5"/>
      </g>
     </g>
    </g>
    <g id="xtick_14">
     <g id="line2d_33">
      <g>
       <use xlink:href="#meece39a96a" x="160.849104" y="253.08" style="stroke: #000000; stroke-width: 0.5"/>
      </g>
     </g>
     <g id="line2d_34">
      <g>
       <use xlink:href="#m877c94f4a8" x="160.849104" y="3.6" style="stroke: #000000; stroke-width: 0.5"/>
      </g>
     </g>
    </g>
    <g id="xtick_15">
     <g id="line2d_35">
      <g>
       <use xlink:href="#meece39a96a" x="173.048047" y="253.08" style="stroke: #000000; stroke-width: 0.5"/>
      </g>
     </g>
     <g id="line2d_36">
      <g>
       <use xlink:href="#m877c94f4a8" x="173.048047" y="3.6" style="stroke: #000000; stroke-width: 0.5"/>
      </g>
     </g>
    </g>
    <g id="xtick_16">
     <g id="line2d_37">
      <g>
       <use xlink:href="#meece39a96a" x="197.445934" y="253.08" style="stroke: #000000; stroke-width: 0.5"/>
      </g>
     </g>
     <g id="line2d_38">
      <g>
       <use xlink:href="#m877c94f4a8" x="197.445934" y="3.6" style="stroke: #000000; stroke-width: 0.5"/>
      </g>
     </g>
    </g>
    <g id="xtick_17">
     <g id="line2d_39">
      <g>
       <use xlink:href="#meece39a96a" x="209.644877" y="253.08" style="stroke: #000000; stroke-width: 0.5"/>
      </g>
     </g>
     <g id="line2d_40">
      <g>
       <use xlink:href="#m877c94f4a8" x="209.644877" y="3.6" style="stroke: #000000; stroke-width: 0.5"/>
      </g>
     </g>
    </g>
    <g id="xtick_18">
     <g id="line2d_41">
      <g>
       <use xlink:href="#meece39a96a" x="221.84382" y="253.08" style="stroke: #000000; stroke-width: 0.5"/>
      </g>
     </g>
     <g id="line2d_42">
      <g>
       <use xlink:href="#m877c94f4a8" x="221.84382" y="3.6" style="stroke: #000000; stroke-width: 0.5"/>
      </g>
     </g>
    </g>
    <g id="xtick_19">
     <g id="line2d_43">
      <g>
       <use xlink:href="#meece39a96a" x="234.042764" y="253.08" style="stroke: #000000; stroke-width: 0.5"/>
      </g>
     </g>
     <g id="line2d_44">
      <g>
       <use xlink:href="#m877c94f4a8" x="234.042764" y="3.6" style="stroke: #000000; stroke-width: 0.5"/>
      </g>
     </g>
    </g>
    <g id="xtick_20">
     <g id="line2d_45">
      <g>
       <use xlink:href="#meece39a96a" x="258.44065" y="253.08" style="stroke: #000000; stroke-width: 0.5"/>
      </g>
     </g>
     <g id="line2d_46">
      <g>
       <use xlink:href="#m877c94f4a8" x="258.44065" y="3.6" style="stroke: #000000; stroke-width: 0.5"/>
      </g>
     </g>
    </g>
    <g id="xtick_21">
     <g id="line2d_47">
      <g>
       <use xlink:href="#meece39a96a" x="270.639594" y="253.08" style="stroke: #000000; stroke-width: 0.5"/>
      </g>
     </g>
     <g id="line2d_48">
      <g>
       <use xlink:href="#m877c94f4a8" x="270.639594" y="3.6" style="stroke: #000000; stroke-width: 0.5"/>
      </g>
     </g>
    </g>
    <g id="xtick_22">
     <g id="line2d_49">
      <g>
       <use xlink:href="#meece39a96a" x="282.838537" y="253.08" style="stroke: #000000; stroke-width: 0.5"/>
      </g>
     </g>
     <g id="line2d_50">
      <g>
       <use xlink:href="#m877c94f4a8" x="282.838537" y="3.6" style="stroke: #000000; stroke-width: 0.5"/>
      </g>
     </g>
    </g>
    <g id="xtick_23">
     <g id="line2d_51">
      <g>
       <use xlink:href="#meece39a96a" x="295.03748" y="253.08" style="stroke: #000000; stroke-width: 0.5"/>
      </g>
     </g>
     <g id="line2d_52">
      <g>
       <use xlink:href="#m877c94f4a8" x="295.03748" y="3.6" style="stroke: #000000; stroke-width: 0.5"/>
      </g>
     </g>
    </g>
    <g id="xtick_24">
     <g id="line2d_53">
      <g>
       <use xlink:href="#meece39a96a" x="319.435367" y="253.08" style="stroke: #000000; stroke-width: 0.5"/>
      </g>
     </g>
     <g id="line2d_54">
      <g>
       <use xlink:href="#m877c94f4a8" x="319.435367" y="3.6" style="stroke: #000000; stroke-width: 0.5"/>
      </g>
     </g>
    </g>
    <g id="xtick_25">
     <g id="line2d_55">
      <g>
       <use xlink:href="#meece39a96a" x="331.63431" y="253.08" style="stroke: #000000; stroke-width: 0.5"/>
      </g>
     </g>
     <g id="line2d_56">
      <g>
       <use xlink:href="#m877c94f4a8" x="331.63431" y="3.6" style="stroke: #000000; stroke-width: 0.5"/>
      </g>
     </g>
    </g>
    <g id="xtick_26">
     <g id="line2d_57">
      <g>
       <use xlink:href="#meece39a96a" x="343.833254" y="253.08" style="stroke: #000000; stroke-width: 0.5"/>
      </g>
     </g>
     <g id="line2d_58">
      <g>
       <use xlink:href="#m877c94f4a8" x="343.833254" y="3.6" style="stroke: #000000; stroke-width: 0.5"/>
      </g>
     </g>
    </g>
    <g id="xtick_27">
     <g id="line2d_59">
      <g>
       <use xlink:href="#meece39a96a" x="356.032197" y="253.08" style="stroke: #000000; stroke-width: 0.5"/>
      </g>
     </g>
     <g id="line2d_60">
      <g>
       <use xlink:href="#m877c94f4a8" x="356.032197" y="3.6" style="stroke: #000000; stroke-width: 0.5"/>
      </g>
     </g>
    </g>
    <g id="xtick_28">
     <g id="line2d_61">
      <g>
       <use xlink:href="#meece39a96a" x="380.430084" y="253.08" style="stroke: #000000; stroke-width: 0.5"/>
      </g>
     </g>
     <g id="line2d_62">
      <g>
       <use xlink:href="#m877c94f4a8" x="380.430084" y="3.6" style="stroke: #000000; stroke-width: 0.5"/>
      </g>
     </g>
    </g>
    <g id="text_7">
     <!-- Generations -->
     <g transform="translate(178.842188 281.311875) scale(0.12 -0.12)">
      <defs>
       <path id="DejaVuSans-47" d="M 3809 666 
L 3809 1919 
L 2778 1919 
L 2778 2438 
L 4434 2438 
L 4434 434 
Q 4069 175 3628 42 
Q 3188 -91 2688 -91 
Q 1594 -91 976 548 
Q 359 1188 359 2328 
Q 359 3472 976 4111 
Q 1594 4750 2688 4750 
Q 3144 4750 3555 4637 
Q 3966 4525 4313 4306 
L 4313 3634 
Q 3963 3931 3569 4081 
Q 3175 4231 2741 4231 
Q 1884 4231 1454 3753 
Q 1025 3275 1025 2328 
Q 1025 1384 1454 906 
Q 1884 428 2741 428 
Q 3075 428 3337 486 
Q 3600 544 3809 666 
z
" transform="scale(0.015625)"/>
       <path id="DejaVuSans-65" d="M 3597 1894 
L 3597 1613 
L 953 1613 
Q 991 1019 1311 708 
Q 1631 397 2203 397 
Q 2534 397 2845 478 
Q 3156 559 3463 722 
L 3463 178 
Q 3153 47 2828 -22 
Q 2503 -91 2169 -91 
Q 1331 -91 842 396 
Q 353 884 353 1716 
Q 353 2575 817 3079 
Q 1281 3584 2069 3584 
Q 2775 3584 3186 3129 
Q 3597 2675 3597 1894 
z
M 3022 2063 
Q 3016 2534 2758 2815 
Q 2500 3097 2075 3097 
Q 1594 3097 1305 2825 
Q 1016 2553 972 2059 
L 3022 2063 
z
" transform="scale(0.015625)"/>
       <path id="DejaVuSans-6e" d="M 3513 2113 
L 3513 0 
L 2938 0 
L 2938 2094 
Q 2938 2591 2744 2837 
Q 2550 3084 2163 3084 
Q 1697 3084 1428 2787 
Q 1159 2491 1159 1978 
L 1159 0 
L 581 0 
L 581 3500 
L 1159 3500 
L 1159 2956 
Q 1366 3272 1645 3428 
Q 1925 3584 2291 3584 
Q 2894 3584 3203 3211 
Q 3513 2838 3513 2113 
z
" transform="scale(0.015625)"/>
       <path id="DejaVuSans-72" d="M 2631 2963 
Q 2534 3019 2420 3045 
Q 2306 3072 2169 3072 
Q 1681 3072 1420 2755 
Q 1159 2438 1159 1844 
L 1159 0 
L 581 0 
L 581 3500 
L 1159 3500 
L 1159 2956 
Q 1341 3275 1631 3429 
Q 1922 3584 2338 3584 
Q 2397 3584 2469 3576 
Q 2541 3569 2628 3553 
L 2631 2963 
z
" transform="scale(0.015625)"/>
       <path id="DejaVuSans-61" d="M 2194 1759 
Q 1497 1759 1228 1600 
Q 959 1441 959 1056 
Q 959 750 1161 570 
Q 1363 391 1709 391 
Q 2188 391 2477 730 
Q 2766 1069 2766 1631 
L 2766 1759 
L 2194 1759 
z
M 3341 1997 
L 3341 0 
L 2766 0 
L 2766 531 
Q 2569 213 2275 61 
Q 1981 -91 1556 -91 
Q 1019 -91 701 211 
Q 384 513 384 1019 
Q 384 1609 779 1909 
Q 1175 2209 1959 2209 
L 2766 2209 
L 2766 2266 
Q 2766 2663 2505 2880 
Q 2244 3097 1772 3097 
Q 1472 3097 1187 3025 
Q 903 2953 641 2809 
L 641 3341 
Q 956 3463 1253 3523 
Q 1550 3584 1831 3584 
Q 2591 3584 2966 3190 
Q 3341 2797 3341 1997 
z
" transform="scale(0.015625)"/>
       <path id="DejaVuSans-74" d="M 1172 4494 
L 1172 3500 
L 2356 3500 
L 2356 3053 
L 1172 3053 
L 1172 1153 
Q 1172 725 1289 603 
Q 1406 481 1766 481 
L 2356 481 
L 2356 0 
L 1766 0 
Q 1100 0 847 248 
Q 594 497 594 1153 
L 594 3053 
L 172 3053 
L 172 3500 
L 594 3500 
L 594 4494 
L 1172 4494 
z
" transform="scale(0.015625)"/>
       <path id="DejaVuSans-69" d="M 603 3500 
L 1178 3500 
L 1178 0 
L 603 0 
L 603 3500 
z
M 603 4863 
L 1178 4863 
L 1178 4134 
L 603 4134 
L 603 4863 
z
" transform="scale(0.015625)"/>
       <path id="DejaVuSans-6f" d="M 1959 3097 
Q 1497 3097 1228 2736 
Q 959 2375 959 1747 
Q 959 1119 1226 758 
Q 1494 397 1959 397 
Q 2419 397 2687 759 
Q 2956 1122 2956 1747 
Q 2956 2369 2687 2733 
Q 2419 3097 1959 3097 
z
M 1959 3584 
Q 2709 3584 3137 3096 
Q 3566 2609 3566 1747 
Q 3566 888 3137 398 
Q 2709 -91 1959 -91 
Q 1206 -91 779 398 
Q 353 888 353 1747 
Q 353 2609 779 3096 
Q 1206 3584 1959 3584 
z
" transform="scale(0.015625)"/>
       <path id="DejaVuSans-73" d="M 2834 3397 
L 2834 2853 
Q 2591 2978 2328 3040 
Q 2066 3103 1784 3103 
Q 1356 3103 1142 2972 
Q 928 2841 928 2578 
Q 928 2378 1081 2264 
Q 1234 2150 1697 2047 
L 1894 2003 
Q 2506 1872 2764 1633 
Q 3022 1394 3022 966 
Q 3022 478 2636 193 
Q 2250 -91 1575 -91 
Q 1294 -91 989 -36 
Q 684 19 347 128 
L 347 722 
Q 666 556 975 473 
Q 1284 391 1588 391 
Q 1994 391 2212 530 
Q 2431 669 2431 922 
Q 2431 1156 2273 1281 
Q 2116 1406 1581 1522 
L 1381 1569 
Q 847 1681 609 1914 
Q 372 2147 372 2553 
Q 372 3047 722 3315 
Q 1072 3584 1716 3584 
Q 2034 3584 2315 3537 
Q 2597 3491 2834 3397 
z
" transform="scale(0.015625)"/>
      </defs>
      <use xlink:href="#DejaVuSans-47"/>
      <use xlink:href="#DejaVuSans-65" x="77.490234"/>
      <use xlink:href="#DejaVuSans-6e" x="139.013672"/>
      <use xlink:href="#DejaVuSans-65" x="202.392578"/>
      <use xlink:href="#DejaVuSans-72" x="263.916016"/>
      <use xlink:href="#DejaVuSans-61" x="305.029297"/>
      <use xlink:href="#DejaVuSans-74" x="366.308594"/>
      <use xlink:href="#DejaVuSans-69" x="405.517578"/>
      <use xlink:href="#DejaVuSans-6f" x="433.300781"/>
      <use xlink:href="#DejaVuSans-6e" x="494.482422"/>
      <use xlink:href="#DejaVuSans-73" x="557.861328"/>
     </g>
    </g>
   </g>
   <g id="matplotlib.axis_2">
    <g id="ytick_1">
     <g id="line2d_63">
      <path d="M 48.039375 244.735188 
L 382.839375 244.735188 
" clip-path="url(#pcc56d064d8)" style="fill: none; stroke: #b0b0b0; stroke-width: 0.5; stroke-linecap: square"/>
     </g>
     <g id="line2d_64">
      <defs>
       <path id="m1875e4a235" d="M 0 0 
L 3 0 
" style="stroke: #000000; stroke-width: 0.5"/>
      </defs>
      <g>
       <use xlink:href="#m1875e4a235" x="48.039375" y="244.735188" style="stroke: #000000; stroke-width: 0.5"/>
      </g>
     </g>
     <g id="line2d_65">
      <defs>
       <path id="m331f012cd3" d="M 0 0 
L -3 0 
" style="stroke: #000000; stroke-width: 0.5"/>
      </defs>
      <g>
       <use xlink:href="#m331f012cd3" x="382.839375" y="244.735188" style="stroke: #000000; stroke-width: 0.5"/>
      </g>
     </g>
     <g id="text_8">
      <!-- −10 -->
      <g transform="translate(19.21375 249.29425) scale(0.12 -0.12)">
       <defs>
        <path id="DejaVuSans-2212" d="M 678 2272 
L 4684 2272 
L 4684 1741 
L 678 1741 
L 678 2272 
z
" transform="scale(0.015625)"/>
       </defs>
       <use xlink:href="#DejaVuSans-2212"/>
       <use xlink:href="#DejaVuSans-31" x="83.789062"/>
       <use xlink:href="#DejaVuSans-30" x="147.412109"/>
      </g>
     </g>
    </g>
    <g id="ytick_2">
     <g id="line2d_66">
      <path d="M 48.039375 211.485931 
L 382.839375 211.485931 
" clip-path="url(#pcc56d064d8)" style="fill: none; stroke: #b0b0b0; stroke-width: 0.5; stroke-linecap: square"/>
     </g>
     <g id="line2d_67">
      <g>
       <use xlink:href="#m1875e4a235" x="48.039375" y="211.485931" style="stroke: #000000; stroke-width: 0.5"/>
      </g>
     </g>
     <g id="line2d_68">
      <g>
       <use xlink:href="#m331f012cd3" x="382.839375" y="211.485931" style="stroke: #000000; stroke-width: 0.5"/>
      </g>
     </g>
     <g id="text_9">
      <!-- −5 -->
      <g transform="translate(26.84875 216.044993) scale(0.12 -0.12)">
       <use xlink:href="#DejaVuSans-2212"/>
       <use xlink:href="#DejaVuSans-35" x="83.789062"/>
      </g>
     </g>
    </g>
    <g id="ytick_3">
     <g id="line2d_69">
      <path d="M 48.039375 178.236673 
L 382.839375 178.236673 
" clip-path="url(#pcc56d064d8)" style="fill: none; stroke: #b0b0b0; stroke-width: 0.5; stroke-linecap: square"/>
     </g>
     <g id="line2d_70">
      <g>
       <use xlink:href="#m1875e4a235" x="48.039375" y="178.236673" style="stroke: #000000; stroke-width: 0.5"/>
      </g>
     </g>
     <g id="line2d_71">
      <g>
       <use xlink:href="#m331f012cd3" x="382.839375" y="178.236673" style="stroke: #000000; stroke-width: 0.5"/>
      </g>
     </g>
     <g id="text_10">
      <!-- 0 -->
      <g transform="translate(36.904375 182.795736) scale(0.12 -0.12)">
       <use xlink:href="#DejaVuSans-30"/>
      </g>
     </g>
    </g>
    <g id="ytick_4">
     <g id="line2d_72">
      <path d="M 48.039375 144.987416 
L 382.839375 144.987416 
" clip-path="url(#pcc56d064d8)" style="fill: none; stroke: #b0b0b0; stroke-width: 0.5; stroke-linecap: square"/>
     </g>
     <g id="line2d_73">
      <g>
       <use xlink:href="#m1875e4a235" x="48.039375" y="144.987416" style="stroke: #000000; stroke-width: 0.5"/>
      </g>
     </g>
     <g id="line2d_74">
      <g>
       <use xlink:href="#m331f012cd3" x="382.839375" y="144.987416" style="stroke: #000000; stroke-width: 0.5"/>
      </g>
     </g>
     <g id="text_11">
      <!-- 5 -->
      <g transform="translate(36.904375 149.546479) scale(0.12 -0.12)">
       <use xlink:href="#DejaVuSans-35"/>
      </g>
     </g>
    </g>
    <g id="ytick_5">
     <g id="line2d_75">
      <path d="M 48.039375 111.738159 
L 382.839375 111.738159 
" clip-path="url(#pcc56d064d8)" style="fill: none; stroke: #b0b0b0; stroke-width: 0.5; stroke-linecap: square"/>
     </g>
     <g id="line2d_76">
      <g>
       <use xlink:href="#m1875e4a235" x="48.039375" y="111.738159" style="stroke: #000000; stroke-width: 0.5"/>
      </g>
     </g>
     <g id="line2d_77">
      <g>
       <use xlink:href="#m331f012cd3" x="382.839375" y="111.738159" style="stroke: #000000; stroke-width: 0.5"/>
      </g>
     </g>
     <g id="text_12">
      <!-- 10 -->
      <g transform="translate(29.269375 116.297222) scale(0.12 -0.12)">
       <use xlink:href="#DejaVuSans-31"/>
       <use xlink:href="#DejaVuSans-30" x="63.623047"/>
      </g>
     </g>
    </g>
    <g id="ytick_6">
     <g id="line2d_78">
      <path d="M 48.039375 78.488902 
L 382.839375 78.488902 
" clip-path="url(#pcc56d064d8)" style="fill: none; stroke: #b0b0b0; stroke-width: 0.5; stroke-linecap: square"/>
     </g>
     <g id="line2d_79">
      <g>
       <use xlink:href="#m1875e4a235" x="48.039375" y="78.488902" style="stroke: #000000; stroke-width: 0.5"/>
      </g>
     </g>
     <g id="line2d_80">
      <g>
       <use xlink:href="#m331f012cd3" x="382.839375" y="78.488902" style="stroke: #000000; stroke-width: 0.5"/>
      </g>
     </g>
     <g id="text_13">
      <!-- 15 -->
      <g transform="translate(29.269375 83.047964) scale(0.12 -0.12)">
       <use xlink:href="#DejaVuSans-31"/>
       <use xlink:href="#DejaVuSans-35" x="63.623047"/>
      </g>
     </g>
    </g>
    <g id="ytick_7">
     <g id="line2d_81">
      <path d="M 48.039375 45.239645 
L 382.839375 45.239645 
" clip-path="url(#pcc56d064d8)" style="fill: none; stroke: #b0b0b0; stroke-width: 0.5; stroke-linecap: square"/>
     </g>
     <g id="line2d_82">
      <g>
       <use xlink:href="#m1875e4a235" x="48.039375" y="45.239645" style="stroke: #000000; stroke-width: 0.5"/>
      </g>
     </g>
     <g id="line2d_83">
      <g>
       <use xlink:href="#m331f012cd3" x="382.839375" y="45.239645" style="stroke: #000000; stroke-width: 0.5"/>
      </g>
     </g>
     <g id="text_14">
      <!-- 20 -->
      <g transform="translate(29.269375 49.798707) scale(0.12 -0.12)">
       <use xlink:href="#DejaVuSans-32"/>
       <use xlink:href="#DejaVuSans-30" x="63.623047"/>
      </g>
     </g>
    </g>
    <g id="ytick_8">
     <g id="line2d_84">
      <path d="M 48.039375 11.990388 
L 382.839375 11.990388 
" clip-path="url(#pcc56d064d8)" style="fill: none; stroke: #b0b0b0; stroke-width: 0.5; stroke-linecap: square"/>
     </g>
     <g id="line2d_85">
      <g>
       <use xlink:href="#m1875e4a235" x="48.039375" y="11.990388" style="stroke: #000000; stroke-width: 0.5"/>
      </g>
     </g>
     <g id="line2d_86">
      <g>
       <use xlink:href="#m331f012cd3" x="382.839375" y="11.990388" style="stroke: #000000; stroke-width: 0.5"/>
      </g>
     </g>
     <g id="text_15">
      <!-- 25 -->
      <g transform="translate(29.269375 16.54945) scale(0.12 -0.12)">
       <use xlink:href="#DejaVuSans-32"/>
       <use xlink:href="#DejaVuSans-35" x="63.623047"/>
      </g>
     </g>
    </g>
    <g id="ytick_9">
     <g id="line2d_87">
      <defs>
       <path id="m3c7b1ad15c" d="M 0 0 
L 1.5 0 
" style="stroke: #000000; stroke-width: 0.5"/>
      </defs>
      <g>
       <use xlink:href="#m3c7b1ad15c" x="48.039375" y="251.385039" style="stroke: #000000; stroke-width: 0.5"/>
      </g>
     </g>
     <g id="line2d_88">
      <defs>
       <path id="m77586e4569" d="M 0 0 
L -1.5 0 
" style="stroke: #000000; stroke-width: 0.5"/>
      </defs>
      <g>
       <use xlink:href="#m77586e4569" x="382.839375" y="251.385039" style="stroke: #000000; stroke-width: 0.5"/>
      </g>
     </g>
    </g>
    <g id="ytick_10">
     <g id="line2d_89">
      <g>
       <use xlink:href="#m3c7b1ad15c" x="48.039375" y="238.085336" style="stroke: #000000; stroke-width: 0.5"/>
      </g>
     </g>
     <g id="line2d_90">
      <g>
       <use xlink:href="#m77586e4569" x="382.839375" y="238.085336" style="stroke: #000000; stroke-width: 0.5"/>
      </g>
     </g>
    </g>
    <g id="ytick_11">
     <g id="line2d_91">
      <g>
       <use xlink:href="#m3c7b1ad15c" x="48.039375" y="231.435485" style="stroke: #000000; stroke-width: 0.5"/>
      </g>
     </g>
     <g id="line2d_92">
      <g>
       <use xlink:href="#m77586e4569" x="382.839375" y="231.435485" style="stroke: #000000; stroke-width: 0.5"/>
      </g>
     </g>
    </g>
    <g id="ytick_12">
     <g id="line2d_93">
      <g>
       <use xlink:href="#m3c7b1ad15c" x="48.039375" y="224.785634" style="stroke: #000000; stroke-width: 0.5"/>
      </g>
     </g>
     <g id="line2d_94">
      <g>
       <use xlink:href="#m77586e4569" x="382.839375" y="224.785634" style="stroke: #000000; stroke-width: 0.5"/>
      </g>
     </g>
    </g>
    <g id="ytick_13">
     <g id="line2d_95">
      <g>
       <use xlink:href="#m3c7b1ad15c" x="48.039375" y="218.135782" style="stroke: #000000; stroke-width: 0.5"/>
      </g>
     </g>
     <g id="line2d_96">
      <g>
       <use xlink:href="#m77586e4569" x="382.839375" y="218.135782" style="stroke: #000000; stroke-width: 0.5"/>
      </g>
     </g>
    </g>
    <g id="ytick_14">
     <g id="line2d_97">
      <g>
       <use xlink:href="#m3c7b1ad15c" x="48.039375" y="204.836079" style="stroke: #000000; stroke-width: 0.5"/>
      </g>
     </g>
     <g id="line2d_98">
      <g>
       <use xlink:href="#m77586e4569" x="382.839375" y="204.836079" style="stroke: #000000; stroke-width: 0.5"/>
      </g>
     </g>
    </g>
    <g id="ytick_15">
     <g id="line2d_99">
      <g>
       <use xlink:href="#m3c7b1ad15c" x="48.039375" y="198.186228" style="stroke: #000000; stroke-width: 0.5"/>
      </g>
     </g>
     <g id="line2d_100">
      <g>
       <use xlink:href="#m77586e4569" x="382.839375" y="198.186228" style="stroke: #000000; stroke-width: 0.5"/>
      </g>
     </g>
    </g>
    <g id="ytick_16">
     <g id="line2d_101">
      <g>
       <use xlink:href="#m3c7b1ad15c" x="48.039375" y="191.536376" style="stroke: #000000; stroke-width: 0.5"/>
      </g>
     </g>
     <g id="line2d_102">
      <g>
       <use xlink:href="#m77586e4569" x="382.839375" y="191.536376" style="stroke: #000000; stroke-width: 0.5"/>
      </g>
     </g>
    </g>
    <g id="ytick_17">
     <g id="line2d_103">
      <g>
       <use xlink:href="#m3c7b1ad15c" x="48.039375" y="184.886525" style="stroke: #000000; stroke-width: 0.5"/>
      </g>
     </g>
     <g id="line2d_104">
      <g>
       <use xlink:href="#m77586e4569" x="382.839375" y="184.886525" style="stroke: #000000; stroke-width: 0.5"/>
      </g>
     </g>
    </g>
    <g id="ytick_18">
     <g id="line2d_105">
      <g>
       <use xlink:href="#m3c7b1ad15c" x="48.039375" y="171.586822" style="stroke: #000000; stroke-width: 0.5"/>
      </g>
     </g>
     <g id="line2d_106">
      <g>
       <use xlink:href="#m77586e4569" x="382.839375" y="171.586822" style="stroke: #000000; stroke-width: 0.5"/>
      </g>
     </g>
    </g>
    <g id="ytick_19">
     <g id="line2d_107">
      <g>
       <use xlink:href="#m3c7b1ad15c" x="48.039375" y="164.936971" style="stroke: #000000; stroke-width: 0.5"/>
      </g>
     </g>
     <g id="line2d_108">
      <g>
       <use xlink:href="#m77586e4569" x="382.839375" y="164.936971" style="stroke: #000000; stroke-width: 0.5"/>
      </g>
     </g>
    </g>
    <g id="ytick_20">
     <g id="line2d_109">
      <g>
       <use xlink:href="#m3c7b1ad15c" x="48.039375" y="158.287119" style="stroke: #000000; stroke-width: 0.5"/>
      </g>
     </g>
     <g id="line2d_110">
      <g>
       <use xlink:href="#m77586e4569" x="382.839375" y="158.287119" style="stroke: #000000; stroke-width: 0.5"/>
      </g>
     </g>
    </g>
    <g id="ytick_21">
     <g id="line2d_111">
      <g>
       <use xlink:href="#m3c7b1ad15c" x="48.039375" y="151.637268" style="stroke: #000000; stroke-width: 0.5"/>
      </g>
     </g>
     <g id="line2d_112">
      <g>
       <use xlink:href="#m77586e4569" x="382.839375" y="151.637268" style="stroke: #000000; stroke-width: 0.5"/>
      </g>
     </g>
    </g>
    <g id="ytick_22">
     <g id="line2d_113">
      <g>
       <use xlink:href="#m3c7b1ad15c" x="48.039375" y="138.337565" style="stroke: #000000; stroke-width: 0.5"/>
      </g>
     </g>
     <g id="line2d_114">
      <g>
       <use xlink:href="#m77586e4569" x="382.839375" y="138.337565" style="stroke: #000000; stroke-width: 0.5"/>
      </g>
     </g>
    </g>
    <g id="ytick_23">
     <g id="line2d_115">
      <g>
       <use xlink:href="#m3c7b1ad15c" x="48.039375" y="131.687713" style="stroke: #000000; stroke-width: 0.5"/>
      </g>
     </g>
     <g id="line2d_116">
      <g>
       <use xlink:href="#m77586e4569" x="382.839375" y="131.687713" style="stroke: #000000; stroke-width: 0.5"/>
      </g>
     </g>
    </g>
    <g id="ytick_24">
     <g id="line2d_117">
      <g>
       <use xlink:href="#m3c7b1ad15c" x="48.039375" y="125.037862" style="stroke: #000000; stroke-width: 0.5"/>
      </g>
     </g>
     <g id="line2d_118">
      <g>
       <use xlink:href="#m77586e4569" x="382.839375" y="125.037862" style="stroke: #000000; stroke-width: 0.5"/>
      </g>
     </g>
    </g>
    <g id="ytick_25">
     <g id="line2d_119">
      <g>
       <use xlink:href="#m3c7b1ad15c" x="48.039375" y="118.388011" style="stroke: #000000; stroke-width: 0.5"/>
      </g>
     </g>
     <g id="line2d_120">
      <g>
       <use xlink:href="#m77586e4569" x="382.839375" y="118.388011" style="stroke: #000000; stroke-width: 0.5"/>
      </g>
     </g>
    </g>
    <g id="ytick_26">
     <g id="line2d_121">
      <g>
       <use xlink:href="#m3c7b1ad15c" x="48.039375" y="105.088308" style="stroke: #000000; stroke-width: 0.5"/>
      </g>
     </g>
     <g id="line2d_122">
      <g>
       <use xlink:href="#m77586e4569" x="382.839375" y="105.088308" style="stroke: #000000; stroke-width: 0.5"/>
      </g>
     </g>
    </g>
    <g id="ytick_27">
     <g id="line2d_123">
      <g>
       <use xlink:href="#m3c7b1ad15c" x="48.039375" y="98.438456" style="stroke: #000000; stroke-width: 0.5"/>
      </g>
     </g>
     <g id="line2d_124">
      <g>
       <use xlink:href="#m77586e4569" x="382.839375" y="98.438456" style="stroke: #000000; stroke-width: 0.5"/>
      </g>
     </g>
    </g>
    <g id="ytick_28">
     <g id="line2d_125">
      <g>
       <use xlink:href="#m3c7b1ad15c" x="48.039375" y="91.788605" style="stroke: #000000; stroke-width: 0.5"/>
      </g>
     </g>
     <g id="line2d_126">
      <g>
       <use xlink:href="#m77586e4569" x="382.839375" y="91.788605" style="stroke: #000000; stroke-width: 0.5"/>
      </g>
     </g>
    </g>
    <g id="ytick_29">
     <g id="line2d_127">
      <g>
       <use xlink:href="#m3c7b1ad15c" x="48.039375" y="85.138753" style="stroke: #000000; stroke-width: 0.5"/>
      </g>
     </g>
     <g id="line2d_128">
      <g>
       <use xlink:href="#m77586e4569" x="382.839375" y="85.138753" style="stroke: #000000; stroke-width: 0.5"/>
      </g>
     </g>
    </g>
    <g id="ytick_30">
     <g id="line2d_129">
      <g>
       <use xlink:href="#m3c7b1ad15c" x="48.039375" y="71.83905" style="stroke: #000000; stroke-width: 0.5"/>
      </g>
     </g>
     <g id="line2d_130">
      <g>
       <use xlink:href="#m77586e4569" x="382.839375" y="71.83905" style="stroke: #000000; stroke-width: 0.5"/>
      </g>
     </g>
    </g>
    <g id="ytick_31">
     <g id="line2d_131">
      <g>
       <use xlink:href="#m3c7b1ad15c" x="48.039375" y="65.189199" style="stroke: #000000; stroke-width: 0.5"/>
      </g>
     </g>
     <g id="line2d_132">
      <g>
       <use xlink:href="#m77586e4569" x="382.839375" y="65.189199" style="stroke: #000000; stroke-width: 0.5"/>
      </g>
     </g>
    </g>
    <g id="ytick_32">
     <g id="line2d_133">
      <g>
       <use xlink:href="#m3c7b1ad15c" x="48.039375" y="58.539348" style="stroke: #000000; stroke-width: 0.5"/>
      </g>
     </g>
     <g id="line2d_134">
      <g>
       <use xlink:href="#m77586e4569" x="382.839375" y="58.539348" style="stroke: #000000; stroke-width: 0.5"/>
      </g>
     </g>
    </g>
    <g id="ytick_33">
     <g id="line2d_135">
      <g>
       <use xlink:href="#m3c7b1ad15c" x="48.039375" y="51.889496" style="stroke: #000000; stroke-width: 0.5"/>
      </g>
     </g>
     <g id="line2d_136">
      <g>
       <use xlink:href="#m77586e4569" x="382.839375" y="51.889496" style="stroke: #000000; stroke-width: 0.5"/>
      </g>
     </g>
    </g>
    <g id="ytick_34">
     <g id="line2d_137">
      <g>
       <use xlink:href="#m3c7b1ad15c" x="48.039375" y="38.589793" style="stroke: #000000; stroke-width: 0.5"/>
      </g>
     </g>
     <g id="line2d_138">
      <g>
       <use xlink:href="#m77586e4569" x="382.839375" y="38.589793" style="stroke: #000000; stroke-width: 0.5"/>
      </g>
     </g>
    </g>
    <g id="ytick_35">
     <g id="line2d_139">
      <g>
       <use xlink:href="#m3c7b1ad15c" x="48.039375" y="31.939942" style="stroke: #000000; stroke-width: 0.5"/>
      </g>
     </g>
     <g id="line2d_140">
      <g>
       <use xlink:href="#m77586e4569" x="382.839375" y="31.939942" style="stroke: #000000; stroke-width: 0.5"/>
      </g>
     </g>
    </g>
    <g id="ytick_36">
     <g id="line2d_141">
      <g>
       <use xlink:href="#m3c7b1ad15c" x="48.039375" y="25.29009" style="stroke: #000000; stroke-width: 0.5"/>
      </g>
     </g>
     <g id="line2d_142">
      <g>
       <use xlink:href="#m77586e4569" x="382.839375" y="25.29009" style="stroke: #000000; stroke-width: 0.5"/>
      </g>
     </g>
    </g>
    <g id="ytick_37">
     <g id="line2d_143">
      <g>
       <use xlink:href="#m3c7b1ad15c" x="48.039375" y="18.640239" style="stroke: #000000; stroke-width: 0.5"/>
      </g>
     </g>
     <g id="line2d_144">
      <g>
       <use xlink:href="#m77586e4569" x="382.839375" y="18.640239" style="stroke: #000000; stroke-width: 0.5"/>
      </g>
     </g>
    </g>
    <g id="ytick_38">
     <g id="line2d_145">
      <g>
       <use xlink:href="#m3c7b1ad15c" x="48.039375" y="5.340536" style="stroke: #000000; stroke-width: 0.5"/>
      </g>
     </g>
     <g id="line2d_146">
      <g>
       <use xlink:href="#m77586e4569" x="382.839375" y="5.340536" style="stroke: #000000; stroke-width: 0.5"/>
      </g>
     </g>
    </g>
    <g id="text_16">
     <!-- Fitness -->
     <g transform="translate(12.718125 149.120625) rotate(-90) scale(0.12 -0.12)">
      <defs>
       <path id="DejaVuSans-46" d="M 628 4666 
L 3309 4666 
L 3309 4134 
L 1259 4134 
L 1259 2759 
L 3109 2759 
L 3109 2228 
L 1259 2228 
L 1259 0 
L 628 0 
L 628 4666 
z
" transform="scale(0.015625)"/>
      </defs>
      <use xlink:href="#DejaVuSans-46"/>
      <use xlink:href="#DejaVuSans-69" x="50.269531"/>
      <use xlink:href="#DejaVuSans-74" x="78.052734"/>
      <use xlink:href="#DejaVuSans-6e" x="117.261719"/>
      <use xlink:href="#DejaVuSans-65" x="180.640625"/>
      <use xlink:href="#DejaVuSans-73" x="242.164062"/>
      <use xlink:href="#DejaVuSans-73" x="294.263672"/>
     </g>
    </g>
   </g>
   <g id="line2d_147">
    <path d="M 63.257557 66.531319 
L 63.867504 63.644716 
L 64.477451 63.619547 
L 65.087398 48.682912 
L 67.527187 48.682039 
L 68.137134 46.84473 
L 69.357028 40.840465 
L 70.576923 40.836077 
L 71.18687 37.679331 
L 71.796817 37.676949 
L 72.406764 32.414359 
L 76.066447 32.414701 
L 76.676394 30.600476 
L 77.286342 21.978271 
L 83.99576 21.916923 
L 84.605708 21.449016 
L 87.655444 21.451197 
L 88.265391 21.326525 
L 96.804651 21.321933 
L 97.414598 21.08135 
L 101.684228 21.041042 
L 102.294176 20.411252 
L 103.51407 20.34478 
L 104.124017 20.046527 
L 104.733964 19.519126 
L 105.953859 19.519754 
L 106.563806 19.286036 
L 107.7837 19.284777 
L 108.393647 18.812011 
L 111.443383 18.8051 
L 112.05333 18.602023 
L 116.32296 18.595647 
L 116.932908 18.152969 
L 119.372696 18.149001 
L 119.982643 17.888949 
L 121.202538 17.75766 
L 121.812485 17.531267 
L 126.082115 17.464331 
L 127.302009 17.251812 
L 138.281058 17.168781 
L 140.1109 17.15481 
L 140.720847 17.08441 
L 141.940741 17.143617 
L 150.480002 17.063041 
L 151.699896 16.990951 
L 174.877888 16.978946 
L 176.097783 16.877567 
L 183.417149 16.814455 
L 193.786251 16.79762 
L 194.396198 16.602121 
L 198.055881 16.562997 
L 198.665828 16.396647 
L 199.275775 16.5085 
L 200.495669 16.461317 
L 201.105617 16.170461 
L 223.673662 16.103482 
L 224.283609 15.960981 
L 224.893556 15.957635 
L 225.503503 15.822642 
L 227.333345 15.708996 
L 249.291443 15.692548 
L 258.44065 15.695035 
L 259.050597 15.327389 
L 265.760016 15.330465 
L 267.589858 15.174246 
L 317.605525 15.146952 
L 335.90394 15.079461 
L 367.621193 14.98116 
L 367.621193 14.98116 
" clip-path="url(#pcc56d064d8)" style="fill: none; stroke: #000000; stroke-linecap: square"/>
   </g>
   <g id="line2d_148">
    <path d="M 63.257557 173.367054 
L 63.867504 160.156374 
L 64.477451 154.247042 
L 65.087398 155.587556 
L 65.697345 145.551665 
L 66.307293 140.25782 
L 66.91724 152.486939 
L 67.527187 144.406945 
L 68.137134 144.61159 
L 68.747081 134.432195 
L 69.357028 135.741325 
L 69.966976 132.73843 
L 70.576923 123.494782 
L 71.18687 131.642829 
L 71.796817 109.141889 
L 72.406764 110.512924 
L 73.016711 103.536196 
L 73.626659 98.605433 
L 74.236606 90.88293 
L 74.846553 86.607494 
L 75.4565 85.09768 
L 76.066447 84.433645 
L 76.676394 72.457987 
L 77.286342 68.874527 
L 77.896289 70.160633 
L 78.506236 64.962767 
L 79.116183 68.215168 
L 79.72613 61.770491 
L 80.336077 64.946204 
L 80.946025 56.870758 
L 81.555972 62.375211 
L 82.165919 60.942502 
L 82.775866 57.461989 
L 83.385813 58.773162 
L 83.99576 57.579775 
L 84.605708 57.260756 
L 85.215655 58.258409 
L 85.825602 55.539358 
L 86.435549 58.701241 
L 87.045496 55.873424 
L 87.655444 57.222286 
L 88.265391 56.105627 
L 88.875338 61.516449 
L 89.485285 57.872067 
L 90.705179 56.228747 
L 91.315127 57.4271 
L 91.925074 56.974416 
L 92.535021 52.050656 
L 93.144968 55.466032 
L 93.754915 53.175316 
L 94.364862 51.695214 
L 94.97481 44.467282 
L 95.584757 42.072799 
L 96.194704 47.4178 
L 96.804651 46.610051 
L 97.414598 49.011153 
L 98.024545 54.478494 
L 98.634493 55.604319 
L 99.24444 51.766909 
L 99.854387 49.7531 
L 100.464334 55.626033 
L 101.074281 52.59796 
L 101.684228 57.653085 
L 102.294176 52.4307 
L 102.904123 55.608755 
L 103.51407 43.354386 
L 104.124017 39.448194 
L 104.733964 31.366303 
L 105.343911 36.452414 
L 105.953859 46.965204 
L 106.563806 40.146102 
L 107.173753 39.913822 
L 107.7837 33.825347 
L 108.393647 34.924172 
L 109.003594 35.491265 
L 109.613542 33.765825 
L 110.223489 39.552656 
L 110.833436 34.695598 
L 111.443383 34.575922 
L 112.05333 29.774852 
L 112.663277 29.286494 
L 113.273225 28.618845 
L 113.883172 32.83895 
L 114.493119 32.311454 
L 115.103066 31.241982 
L 115.713013 31.292577 
L 116.32296 29.137199 
L 116.932908 32.322653 
L 117.542855 30.117168 
L 118.152802 31.700691 
L 118.762749 28.17232 
L 119.372696 30.83355 
L 119.982643 28.551008 
L 120.592591 24.468337 
L 121.202538 28.973438 
L 122.422432 31.56184 
L 123.032379 30.67035 
L 123.642326 36.698262 
L 124.252274 36.411894 
L 124.862221 30.673494 
L 125.472168 27.729445 
L 126.082115 28.887162 
L 126.692062 30.908987 
L 127.302009 32.439179 
L 127.911957 26.512055 
L 128.521904 23.597354 
L 129.131851 25.912399 
L 129.741798 25.335478 
L 130.351745 27.363291 
L 130.961692 26.527133 
L 131.57164 25.912495 
L 132.791534 22.12949 
L 133.401481 24.249471 
L 134.011428 21.793406 
L 134.621375 30.056489 
L 135.231323 26.492213 
L 135.84127 21.366815 
L 136.451217 27.481216 
L 137.061164 24.05278 
L 137.671111 27.022127 
L 138.281058 22.340344 
L 138.891006 26.407409 
L 139.500953 26.763803 
L 141.330794 37.04099 
L 141.940741 34.126208 
L 142.550689 33.76763 
L 143.770583 28.281472 
L 144.38053 30.492112 
L 144.990477 25.327297 
L 145.600424 29.762166 
L 146.210372 29.691768 
L 146.820319 27.999168 
L 147.430266 29.906079 
L 148.040213 24.906119 
L 148.65016 22.425014 
L 149.260107 21.312898 
L 149.870055 26.062903 
L 150.480002 25.192384 
L 151.089949 29.642126 
L 151.699896 26.307067 
L 152.309843 27.039654 
L 152.91979 23.161166 
L 153.529738 21.078127 
L 154.139685 25.039759 
L 154.749632 25.546076 
L 155.359579 24.512362 
L 155.969526 27.927413 
L 156.579473 26.470801 
L 157.189421 21.853972 
L 157.799368 27.428441 
L 158.409315 26.094801 
L 159.019262 28.343612 
L 159.629209 25.678857 
L 160.239156 26.469818 
L 160.849104 23.879361 
L 161.459051 23.236156 
L 162.068998 25.239148 
L 163.288892 20.161531 
L 163.898839 20.518804 
L 164.508787 20.453711 
L 165.118734 23.91387 
L 165.728681 25.056973 
L 166.338628 26.6339 
L 166.948575 19.412349 
L 167.558522 19.961222 
L 168.16847 23.432382 
L 168.778417 23.506566 
L 169.388364 23.033217 
L 169.998311 21.33826 
L 170.608258 29.132956 
L 171.218205 24.900827 
L 171.828153 28.769543 
L 172.4381 24.911262 
L 173.048047 34.475722 
L 173.657994 32.391864 
L 174.267941 29.537919 
L 174.877888 27.850219 
L 175.487836 34.498415 
L 176.097783 26.495421 
L 176.70773 26.455427 
L 177.317677 33.327914 
L 177.927624 28.301482 
L 178.537571 29.612666 
L 179.147519 31.736238 
L 179.757466 27.61761 
L 180.367413 26.151577 
L 180.97736 23.883392 
L 181.587307 26.374237 
L 182.197254 25.04022 
L 182.807202 30.971019 
L 183.417149 30.309123 
L 184.027096 36.139117 
L 184.637043 35.635076 
L 185.24699 26.451378 
L 185.856937 26.652377 
L 186.466885 22.260085 
L 187.076832 20.215394 
L 187.686779 19.830984 
L 188.296726 21.898266 
L 188.906673 22.233686 
L 189.51662 24.873916 
L 190.126568 22.38221 
L 190.736515 23.329375 
L 191.346462 27.623391 
L 192.566356 22.837799 
L 193.176303 21.223291 
L 193.786251 22.984646 
L 194.396198 22.943786 
L 195.006145 25.04658 
L 195.616092 31.069875 
L 196.226039 21.247005 
L 196.835986 21.364974 
L 197.445934 26.712941 
L 198.055881 28.474302 
L 198.665828 25.706043 
L 199.275775 34.422453 
L 199.885722 26.490586 
L 201.105617 36.671558 
L 201.715564 39.434467 
L 202.325511 32.819642 
L 202.935458 27.524259 
L 203.545405 30.684726 
L 204.155352 24.905919 
L 204.7653 24.031218 
L 205.375247 24.361258 
L 205.985194 27.881965 
L 206.595141 27.087787 
L 207.205088 31.313252 
L 207.815035 37.479493 
L 208.424983 36.474551 
L 209.03493 39.965617 
L 209.644877 38.494456 
L 210.254824 32.307004 
L 210.864771 37.942778 
L 211.474718 33.439041 
L 212.084666 42.968966 
L 213.30456 31.582378 
L 213.914507 33.417668 
L 214.524454 32.317744 
L 215.134401 29.357354 
L 215.744349 28.777343 
L 216.354296 26.954567 
L 216.964243 30.243626 
L 217.57419 27.83323 
L 218.184137 27.175284 
L 218.794084 25.275292 
L 219.404032 29.219955 
L 220.013979 23.49556 
L 220.623926 25.691889 
L 221.233873 25.99818 
L 221.84382 25.648628 
L 222.453767 24.172486 
L 223.063715 25.978423 
L 223.673662 23.681439 
L 224.283609 33.809172 
L 224.893556 23.435021 
L 225.503503 23.439844 
L 226.11345 23.809283 
L 226.723398 20.26992 
L 227.333345 27.652872 
L 227.943292 26.863261 
L 228.553239 27.770387 
L 229.163186 23.847601 
L 229.773133 26.564389 
L 230.383081 31.34675 
L 230.993028 28.688251 
L 231.602975 25.444267 
L 232.212922 24.21998 
L 232.822869 29.08286 
L 233.432816 27.319998 
L 234.042764 29.363814 
L 235.262658 26.265647 
L 235.872605 30.78279 
L 236.482552 30.517285 
L 237.092499 31.848496 
L 237.702447 30.134438 
L 238.312394 27.125598 
L 238.922341 24.885109 
L 239.532288 24.793615 
L 240.142235 23.411417 
L 240.752182 23.892414 
L 241.36213 25.348209 
L 241.972077 25.902801 
L 242.582024 28.809441 
L 243.191971 25.001412 
L 243.801918 24.855157 
L 244.411865 26.981197 
L 245.021813 24.579087 
L 245.63176 22.979603 
L 246.241707 23.490075 
L 246.851654 22.837231 
L 247.461601 23.209116 
L 248.071548 25.762488 
L 248.681496 20.658779 
L 249.291443 22.536095 
L 249.90139 21.278796 
L 250.511337 26.77556 
L 251.731231 28.689869 
L 252.341179 22.784595 
L 252.951126 23.332317 
L 253.561073 26.185937 
L 254.17102 31.110963 
L 254.780967 30.85006 
L 255.390914 32.332881 
L 256.000862 33.518234 
L 256.610809 32.998338 
L 257.220756 33.266274 
L 257.830703 37.650875 
L 258.44065 37.680587 
L 259.660545 31.184555 
L 260.270492 29.063802 
L 260.880439 25.550069 
L 261.490386 32.230203 
L 262.100333 33.396506 
L 262.71028 31.969023 
L 263.320228 29.162115 
L 263.930175 31.179578 
L 264.540122 29.225973 
L 265.150069 35.932764 
L 265.760016 35.071053 
L 266.369963 34.778437 
L 266.979911 42.507445 
L 267.589858 32.977004 
L 268.199805 27.973985 
L 268.809752 25.216607 
L 270.029646 30.414484 
L 270.639594 30.2925 
L 271.249541 24.96531 
L 271.859488 26.004789 
L 272.469435 21.207674 
L 273.079382 22.475511 
L 273.689329 27.709736 
L 274.299277 25.575042 
L 274.909224 28.321727 
L 275.519171 28.337167 
L 276.129118 23.443337 
L 276.739065 25.509476 
L 277.349012 24.756378 
L 277.95896 23.750656 
L 278.568907 30.18247 
L 279.178854 27.846025 
L 279.788801 22.818406 
L 280.398748 22.237055 
L 281.008695 26.291745 
L 281.618643 21.725742 
L 282.22859 19.739065 
L 282.838537 21.844857 
L 283.448484 26.595651 
L 284.058431 23.337592 
L 284.668378 25.537157 
L 285.278326 28.959598 
L 285.888273 31.641943 
L 286.49822 40.054894 
L 287.108167 36.649411 
L 287.718114 34.256988 
L 288.328061 39.481232 
L 288.938009 37.751795 
L 290.157903 22.672288 
L 290.76785 22.96411 
L 291.377797 18.398074 
L 291.987744 20.333418 
L 292.597692 17.962936 
L 293.207639 19.134565 
L 293.817586 17.684201 
L 294.427533 23.937811 
L 295.03748 27.18294 
L 295.647427 28.918533 
L 296.257375 29.558211 
L 296.867322 28.237575 
L 297.477269 28.345892 
L 298.087216 28.111359 
L 298.697163 23.437439 
L 299.30711 26.986379 
L 299.917058 20.157635 
L 300.527005 21.23589 
L 301.136952 20.701731 
L 301.746899 24.788994 
L 302.356846 21.036564 
L 302.966793 22.811236 
L 304.186688 30.7768 
L 304.796635 31.155265 
L 305.406582 32.016125 
L 306.016529 29.618878 
L 306.626476 32.321373 
L 307.236424 25.425516 
L 307.846371 25.372444 
L 308.456318 27.682715 
L 309.066265 29.434946 
L 309.676212 34.626125 
L 310.286159 22.748798 
L 310.896107 26.37921 
L 311.506054 20.872943 
L 312.725948 31.164788 
L 313.335895 32.166575 
L 313.945842 24.396818 
L 314.55579 23.017038 
L 315.165737 22.024099 
L 315.775684 25.030076 
L 316.385631 24.047851 
L 316.995578 19.942329 
L 317.605525 20.14214 
L 318.215473 25.939206 
L 318.82542 25.691493 
L 319.435367 28.216243 
L 320.045314 25.507732 
L 320.655261 22.094947 
L 321.265208 25.455259 
L 322.485103 26.176578 
L 323.704997 33.359717 
L 324.314944 29.23416 
L 324.924891 30.605241 
L 325.534839 38.99968 
L 326.144786 27.234749 
L 326.754733 30.893368 
L 327.36468 31.120171 
L 327.974627 29.358326 
L 328.584574 24.396835 
L 329.194522 21.147888 
L 329.804469 20.336475 
L 330.414416 24.193337 
L 331.024363 32.133827 
L 332.244257 23.204841 
L 332.854205 23.522855 
L 333.464152 22.772672 
L 334.074099 23.487714 
L 334.684046 20.019179 
L 335.293993 17.828949 
L 335.90394 19.354612 
L 336.513888 19.64358 
L 337.123835 21.743058 
L 337.733782 20.258115 
L 338.343729 21.572374 
L 338.953676 27.789499 
L 339.563623 29.413871 
L 340.173571 22.957479 
L 340.783518 26.894705 
L 341.393465 40.11914 
L 342.003412 21.852874 
L 342.613359 20.916084 
L 343.223306 26.856069 
L 343.833254 23.044621 
L 344.443201 24.094103 
L 345.053148 28.476331 
L 345.663095 29.697514 
L 346.273042 32.183823 
L 346.88299 25.2792 
L 347.492937 20.773803 
L 348.102884 22.89799 
L 348.712831 26.722538 
L 349.932725 29.479026 
L 351.15262 18.732606 
L 351.762567 23.726373 
L 352.372514 18.68258 
L 352.982461 27.131557 
L 353.592408 23.344954 
L 354.202356 31.199944 
L 354.812303 23.279414 
L 355.42225 20.248634 
L 356.032197 24.059545 
L 356.642144 24.981219 
L 357.252091 26.248272 
L 357.862039 22.533461 
L 358.471986 22.384572 
L 359.081933 29.550444 
L 359.69188 26.092269 
L 360.301827 25.085173 
L 360.911774 26.550003 
L 361.521722 19.598062 
L 362.131669 19.797661 
L 362.741616 20.290989 
L 363.351563 21.152451 
L 363.96151 22.333703 
L 364.571457 28.617154 
L 365.181405 23.78788 
L 365.791352 20.274415 
L 366.401299 21.337523 
L 367.011246 21.004688 
L 367.621193 20.269614 
L 367.621193 20.269614 
" clip-path="url(#pcc56d064d8)" style="fill: none; stroke-dasharray: 3.7,1.6; stroke-dashoffset: 0; stroke: #000000"/>
   </g>
   <g id="patch_3">
    <path d="M 48.039375 253.08 
L 48.039375 3.6 
" style="fill: none; stroke: #000000; stroke-width: 0.5; stroke-linejoin: miter; stroke-linecap: square"/>
   </g>
   <g id="patch_4">
    <path d="M 382.839375 253.08 
L 382.839375 3.6 
" style="fill: none; stroke: #000000; stroke-width: 0.5; stroke-linejoin: miter; stroke-linecap: square"/>
   </g>
   <g id="patch_5">
    <path d="M 48.039375 253.08 
L 382.839375 253.08 
" style="fill: none; stroke: #000000; stroke-width: 0.5; stroke-linejoin: miter; stroke-linecap: square"/>
   </g>
   <g id="patch_6">
    <path d="M 48.039375 3.6 
L 382.839375 3.6 
" style="fill: none; stroke: #000000; stroke-width: 0.5; stroke-linejoin: miter; stroke-linecap: square"/>
   </g>
   <g id="legend_1">
    <g id="patch_7">
     <path d="M 256.633125 247.08 
L 374.439375 247.08 
Q 376.839375 247.08 376.839375 244.68 
L 376.839375 193.03875 
Q 376.839375 190.63875 374.439375 190.63875 
L 256.633125 190.63875 
Q 254.233125 190.63875 254.233125 193.03875 
L 254.233125 244.68 
Q 254.233125 247.08 256.633125 247.08 
z
" style="fill: #ffffff; opacity: 0.8; stroke: #cccccc; stroke-linejoin: miter"/>
    </g>
    <g id="line2d_149">
     <path d="M 259.033125 200.356875 
L 271.033125 200.356875 
L 283.033125 200.356875 
" style="fill: none; stroke: #000000; stroke-linecap: square"/>
    </g>
    <g id="text_17">
     <!-- Max fitness -->
     <g transform="translate(292.633125 204.556875) scale(0.12 -0.12)">
      <defs>
       <path id="DejaVuSans-4d" d="M 628 4666 
L 1569 4666 
L 2759 1491 
L 3956 4666 
L 4897 4666 
L 4897 0 
L 4281 0 
L 4281 4097 
L 3078 897 
L 2444 897 
L 1241 4097 
L 1241 0 
L 628 0 
L 628 4666 
z
" transform="scale(0.015625)"/>
       <path id="DejaVuSans-78" d="M 3513 3500 
L 2247 1797 
L 3578 0 
L 2900 0 
L 1881 1375 
L 863 0 
L 184 0 
L 1544 1831 
L 300 3500 
L 978 3500 
L 1906 2253 
L 2834 3500 
L 3513 3500 
z
" transform="scale(0.015625)"/>
       <path id="DejaVuSans-20" transform="scale(0.015625)"/>
       <path id="DejaVuSans-66" d="M 2375 4863 
L 2375 4384 
L 1825 4384 
Q 1516 4384 1395 4259 
Q 1275 4134 1275 3809 
L 1275 3500 
L 2222 3500 
L 2222 3053 
L 1275 3053 
L 1275 0 
L 697 0 
L 697 3053 
L 147 3053 
L 147 3500 
L 697 3500 
L 697 3744 
Q 697 4328 969 4595 
Q 1241 4863 1831 4863 
L 2375 4863 
z
" transform="scale(0.015625)"/>
      </defs>
      <use xlink:href="#DejaVuSans-4d"/>
      <use xlink:href="#DejaVuSans-61" x="86.279297"/>
      <use xlink:href="#DejaVuSans-78" x="147.558594"/>
      <use xlink:href="#DejaVuSans-20" x="206.738281"/>
      <use xlink:href="#DejaVuSans-66" x="238.525391"/>
      <use xlink:href="#DejaVuSans-69" x="273.730469"/>
      <use xlink:href="#DejaVuSans-74" x="301.513672"/>
      <use xlink:href="#DejaVuSans-6e" x="340.722656"/>
      <use xlink:href="#DejaVuSans-65" x="404.101562"/>
      <use xlink:href="#DejaVuSans-73" x="465.625"/>
      <use xlink:href="#DejaVuSans-73" x="517.724609"/>
     </g>
    </g>
    <g id="patch_8">
     <path d="M 259.033125 222.170625 
L 283.033125 222.170625 
L 283.033125 213.770625 
L 259.033125 213.770625 
z
" style="fill: #0000ff; fill-opacity: 0.2; stroke: #0000ff; stroke-opacity: 0.2; stroke-linejoin: miter"/>
    </g>
    <g id="text_18">
     <!-- Top 90% -->
     <g transform="translate(292.633125 222.170625) scale(0.12 -0.12)">
      <defs>
       <path id="DejaVuSans-54" d="M -19 4666 
L 3928 4666 
L 3928 4134 
L 2272 4134 
L 2272 0 
L 1638 0 
L 1638 4134 
L -19 4134 
L -19 4666 
z
" transform="scale(0.015625)"/>
       <path id="DejaVuSans-70" d="M 1159 525 
L 1159 -1331 
L 581 -1331 
L 581 3500 
L 1159 3500 
L 1159 2969 
Q 1341 3281 1617 3432 
Q 1894 3584 2278 3584 
Q 2916 3584 3314 3078 
Q 3713 2572 3713 1747 
Q 3713 922 3314 415 
Q 2916 -91 2278 -91 
Q 1894 -91 1617 61 
Q 1341 213 1159 525 
z
M 3116 1747 
Q 3116 2381 2855 2742 
Q 2594 3103 2138 3103 
Q 1681 3103 1420 2742 
Q 1159 2381 1159 1747 
Q 1159 1113 1420 752 
Q 1681 391 2138 391 
Q 2594 391 2855 752 
Q 3116 1113 3116 1747 
z
" transform="scale(0.015625)"/>
       <path id="DejaVuSans-39" d="M 703 97 
L 703 672 
Q 941 559 1184 500 
Q 1428 441 1663 441 
Q 2288 441 2617 861 
Q 2947 1281 2994 2138 
Q 2813 1869 2534 1725 
Q 2256 1581 1919 1581 
Q 1219 1581 811 2004 
Q 403 2428 403 3163 
Q 403 3881 828 4315 
Q 1253 4750 1959 4750 
Q 2769 4750 3195 4129 
Q 3622 3509 3622 2328 
Q 3622 1225 3098 567 
Q 2575 -91 1691 -91 
Q 1453 -91 1209 -44 
Q 966 3 703 97 
z
M 1959 2075 
Q 2384 2075 2632 2365 
Q 2881 2656 2881 3163 
Q 2881 3666 2632 3958 
Q 2384 4250 1959 4250 
Q 1534 4250 1286 3958 
Q 1038 3666 1038 3163 
Q 1038 2656 1286 2365 
Q 1534 2075 1959 2075 
z
" transform="scale(0.015625)"/>
       <path id="DejaVuSans-25" d="M 4653 2053 
Q 4381 2053 4226 1822 
Q 4072 1591 4072 1178 
Q 4072 772 4226 539 
Q 4381 306 4653 306 
Q 4919 306 5073 539 
Q 5228 772 5228 1178 
Q 5228 1588 5073 1820 
Q 4919 2053 4653 2053 
z
M 4653 2450 
Q 5147 2450 5437 2106 
Q 5728 1763 5728 1178 
Q 5728 594 5436 251 
Q 5144 -91 4653 -91 
Q 4153 -91 3862 251 
Q 3572 594 3572 1178 
Q 3572 1766 3864 2108 
Q 4156 2450 4653 2450 
z
M 1428 4353 
Q 1159 4353 1004 4120 
Q 850 3888 850 3481 
Q 850 3069 1003 2837 
Q 1156 2606 1428 2606 
Q 1700 2606 1854 2837 
Q 2009 3069 2009 3481 
Q 2009 3884 1853 4118 
Q 1697 4353 1428 4353 
z
M 4250 4750 
L 4750 4750 
L 1831 -91 
L 1331 -91 
L 4250 4750 
z
M 1428 4750 
Q 1922 4750 2215 4408 
Q 2509 4066 2509 3481 
Q 2509 2891 2217 2550 
Q 1925 2209 1428 2209 
Q 931 2209 642 2551 
Q 353 2894 353 3481 
Q 353 4063 643 4406 
Q 934 4750 1428 4750 
z
" transform="scale(0.015625)"/>
      </defs>
      <use xlink:href="#DejaVuSans-54"/>
      <use xlink:href="#DejaVuSans-6f" x="44.083984"/>
      <use xlink:href="#DejaVuSans-70" x="105.265625"/>
      <use xlink:href="#DejaVuSans-20" x="168.742188"/>
      <use xlink:href="#DejaVuSans-39" x="200.529297"/>
      <use xlink:href="#DejaVuSans-30" x="264.152344"/>
      <use xlink:href="#DejaVuSans-25" x="327.775391"/>
     </g>
    </g>
    <g id="line2d_150">
     <path d="M 259.033125 235.584375 
L 271.033125 235.584375 
L 283.033125 235.584375 
" style="fill: none; stroke-dasharray: 3.7,1.6; stroke-dashoffset: 0; stroke: #000000"/>
    </g>
    <g id="text_19">
     <!-- Fitness mean -->
     <g transform="translate(292.633125 239.784375) scale(0.12 -0.12)">
      <defs>
       <path id="DejaVuSans-6d" d="M 3328 2828 
Q 3544 3216 3844 3400 
Q 4144 3584 4550 3584 
Q 5097 3584 5394 3201 
Q 5691 2819 5691 2113 
L 5691 0 
L 5113 0 
L 5113 2094 
Q 5113 2597 4934 2840 
Q 4756 3084 4391 3084 
Q 3944 3084 3684 2787 
Q 3425 2491 3425 1978 
L 3425 0 
L 2847 0 
L 2847 2094 
Q 2847 2600 2669 2842 
Q 2491 3084 2119 3084 
Q 1678 3084 1418 2786 
Q 1159 2488 1159 1978 
L 1159 0 
L 581 0 
L 581 3500 
L 1159 3500 
L 1159 2956 
Q 1356 3278 1631 3431 
Q 1906 3584 2284 3584 
Q 2666 3584 2933 3390 
Q 3200 3197 3328 2828 
z
" transform="scale(0.015625)"/>
      </defs>
      <use xlink:href="#DejaVuSans-46"/>
      <use xlink:href="#DejaVuSans-69" x="50.269531"/>
      <use xlink:href="#DejaVuSans-74" x="78.052734"/>
      <use xlink:href="#DejaVuSans-6e" x="117.261719"/>
      <use xlink:href="#DejaVuSans-65" x="180.640625"/>
      <use xlink:href="#DejaVuSans-73" x="242.164062"/>
      <use xlink:href="#DejaVuSans-73" x="294.263672"/>
      <use xlink:href="#DejaVuSans-20" x="346.363281"/>
      <use xlink:href="#DejaVuSans-6d" x="378.150391"/>
      <use xlink:href="#DejaVuSans-65" x="475.5625"/>
      <use xlink:href="#DejaVuSans-61" x="537.085938"/>
      <use xlink:href="#DejaVuSans-6e" x="598.365234"/>
     </g>
    </g>
   </g>
  </g>
 </g>
 <defs>
  <clipPath id="pcc56d064d8">
   <rect x="48.039375" y="3.6" width="334.8" height="249.48"/>
  </clipPath>
 </defs>
</svg>
