<?xml version="1.0" encoding="utf-8" standalone="no"?>
<!DOCTYPE svg PUBLIC "-//W3C//DTD SVG 1.1//EN"
  "http://www.w3.org/Graphics/SVG/1.1/DTD/svg11.dtd">
<svg xmlns:xlink="http://www.w3.org/1999/xlink" width="386.439375pt" height="290.416793pt" viewBox="0 0 386.439375 290.416793" xmlns="http://www.w3.org/2000/svg" version="1.1">
 <metadata>
  <rdf:RDF xmlns:dc="http://purl.org/dc/elements/1.1/" xmlns:cc="http://creativecommons.org/ns#" xmlns:rdf="http://www.w3.org/1999/02/22-rdf-syntax-ns#">
   <cc:Work>
    <dc:type rdf:resource="http://purl.org/dc/dcmitype/StillImage"/>
    <dc:date>2024-06-04T12:13:50.540930</dc:date>
    <dc:format>image/svg+xml</dc:format>
    <dc:creator>
     <cc:Agent>
      <dc:title>Matplotlib v3.9.0, https://matplotlib.org/</dc:title>
     </cc:Agent>
    </dc:creator>
   </cc:Work>
  </rdf:RDF>
 </metadata>
 <defs>
  <style type="text/css">*{stroke-linejoin: round; stroke-linecap: butt}</style>
 </defs>
 <g id="figure_1">
  <g id="patch_1">
   <path d="M 0 290.416793 
L 386.439375 290.416793 
L 386.439375 0 
L 0 0 
z
" style="fill: #ffffff"/>
  </g>
  <g id="axes_1">
   <g id="patch_2">
    <path d="M 48.039375 256.089293 
L 382.839375 256.089293 
L 382.839375 6.609293 
L 48.039375 6.609293 
z
" style="fill: #ffffff"/>
   </g>
   <g id="PolyCollection_1">
    <defs>
     <path id="m659ab16181" d="M 63.257557 -229.739432 
L 63.257557 -46.287137 
L 63.867504 -46.335291 
L 64.477451 -45.84179 
L 65.087398 -47.011352 
L 65.697345 -46.905219 
L 66.307293 -46.427225 
L 66.91724 -47.322635 
L 67.527187 -46.039909 
L 68.137134 -47.234792 
L 68.747081 -45.6675 
L 69.357028 -46.744731 
L 69.966976 -47.51792 
L 70.576923 -46.277824 
L 71.18687 -46.142997 
L 71.796817 -46.713663 
L 72.406764 -45.92133 
L 73.016711 -46.197363 
L 73.626659 -48.851241 
L 74.236606 -116.37166 
L 74.846553 -100.620188 
L 75.4565 -46.72529 
L 76.066447 -126.346768 
L 76.676394 -123.808752 
L 77.286342 -132.609331 
L 77.896289 -134.212596 
L 78.506236 -48.062997 
L 79.116183 -159.209562 
L 79.72613 -163.207937 
L 80.336077 -156.329836 
L 80.946025 -147.587091 
L 81.555972 -169.758452 
L 82.165919 -179.271693 
L 82.775866 -179.357562 
L 83.385813 -179.671888 
L 83.99576 -178.157235 
L 84.605708 -178.903451 
L 85.215655 -186.234609 
L 85.825602 -186.185494 
L 86.435549 -226.296895 
L 87.045496 -233.186078 
L 87.655444 -188.345034 
L 88.265391 -189.784733 
L 88.875338 -209.186909 
L 89.485285 -250.710453 
L 90.095232 -247.904249 
L 90.705179 -192.907737 
L 91.315127 -237.852263 
L 91.925074 -235.581287 
L 92.535021 -249.415702 
L 93.144968 -244.976286 
L 93.754915 -251.447785 
L 94.364862 -251.440354 
L 94.97481 -252.446048 
L 95.584757 -254.960304 
L 96.194704 -254.539735 
L 96.804651 -251.445983 
L 97.414598 -247.421848 
L 98.024545 -190.774733 
L 98.634493 -180.573061 
L 99.24444 -186.600612 
L 99.854387 -187.673298 
L 100.464334 -190.502515 
L 101.074281 -248.950738 
L 101.684228 -248.130013 
L 102.294176 -248.119824 
L 102.904123 -250.680156 
L 103.51407 -248.711402 
L 104.124017 -245.878211 
L 104.733964 -235.426293 
L 105.343911 -253.80103 
L 105.953859 -248.300578 
L 106.563806 -249.468294 
L 107.173753 -248.241647 
L 107.7837 -242.917232 
L 108.393647 -247.28197 
L 109.003594 -184.416854 
L 109.613542 -246.249015 
L 110.223489 -247.551484 
L 110.833436 -191.533146 
L 111.443383 -249.944973 
L 112.05333 -246.686539 
L 112.663277 -257.026755 
L 113.273225 -246.315855 
L 113.883172 -248.3756 
L 114.493119 -257.026573 
L 115.103066 -241.2353 
L 115.713013 -247.846965 
L 116.32296 -191.741258 
L 116.932908 -188.727594 
L 117.542855 -250.664835 
L 118.152802 -185.174053 
L 118.762749 -186.542187 
L 119.372696 -237.376032 
L 119.982643 -251.908319 
L 120.592591 -249.964217 
L 121.202538 -240.387439 
L 121.812485 -190.873202 
L 122.422432 -185.883353 
L 123.032379 -191.024245 
L 123.642326 -221.587479 
L 124.252274 -185.863756 
L 124.862221 -191.153658 
L 125.472168 -237.05859 
L 126.082115 -235.122478 
L 126.692062 -245.233958 
L 127.302009 -248.55776 
L 127.911957 -248.762974 
L 128.521904 -245.407277 
L 129.131851 -201.284874 
L 129.741798 -183.857978 
L 130.351745 -224.591866 
L 130.961692 -191.048461 
L 131.57164 -190.004709 
L 132.181587 -186.218739 
L 132.791534 -184.975003 
L 133.401481 -188.174297 
L 134.011428 -187.817452 
L 134.621375 -188.186276 
L 135.231323 -184.554738 
L 135.84127 -179.729068 
L 136.451217 -228.179805 
L 137.061164 -244.036065 
L 137.671111 -249.979971 
L 138.281058 -248.732963 
L 138.891006 -246.678981 
L 139.500953 -243.733511 
L 140.1109 -256.478836 
L 140.720847 -236.865625 
L 141.330794 -253.98227 
L 141.940741 -254.139195 
L 142.550689 -253.302284 
L 143.160636 -249.726288 
L 143.770583 -245.443122 
L 144.38053 -191.699314 
L 144.990477 -245.439016 
L 145.600424 -253.931538 
L 146.210372 -254.131751 
L 146.820319 -251.868909 
L 147.430266 -239.251709 
L 148.040213 -248.900536 
L 148.65016 -240.593659 
L 149.260107 -239.693154 
L 149.870055 -242.447872 
L 150.480002 -227.620963 
L 151.089949 -244.142124 
L 151.699896 -237.394394 
L 152.309843 -189.376454 
L 152.91979 -250.045526 
L 153.529738 -250.04914 
L 154.139685 -249.176874 
L 154.749632 -250.307641 
L 155.359579 -254.355622 
L 155.969526 -257.545188 
L 156.579473 -257.546803 
L 157.189421 -257.542803 
L 157.799368 -186.080479 
L 158.409315 -187.378157 
L 159.019262 -249.178498 
L 159.629209 -249.625306 
L 160.239156 -251.953393 
L 160.849104 -249.180029 
L 161.459051 -218.535161 
L 162.068998 -233.093781 
L 162.678945 -192.305876 
L 163.288892 -249.179381 
L 163.898839 -248.187605 
L 164.508787 -188.723014 
L 165.118734 -192.976376 
L 165.728681 -252.319546 
L 166.338628 -193.499688 
L 166.948575 -231.361991 
L 167.558522 -244.287982 
L 168.16847 -248.06751 
L 168.778417 -192.905882 
L 169.388364 -232.432135 
L 169.998311 -248.843129 
L 170.608258 -253.689695 
L 171.218205 -253.858713 
L 171.828153 -256.274139 
L 172.4381 -251.273336 
L 173.048047 -251.272499 
L 173.657994 -187.533127 
L 174.267941 -188.685484 
L 174.877888 -185.931168 
L 175.487836 -187.723684 
L 176.097783 -187.903143 
L 176.70773 -190.149867 
L 177.317677 -253.165156 
L 177.927624 -254.26571 
L 178.537571 -254.639371 
L 179.147519 -254.640885 
L 179.757466 -256.256568 
L 180.367413 -256.478517 
L 180.97736 -254.987149 
L 181.587307 -256.510593 
L 182.197254 -248.898588 
L 182.807202 -237.113254 
L 183.417149 -193.989672 
L 184.027096 -242.311498 
L 184.637043 -245.669183 
L 185.24699 -256.289572 
L 185.856937 -256.443319 
L 186.466885 -246.419786 
L 187.076832 -247.409461 
L 187.686779 -194.992948 
L 188.296726 -239.887285 
L 188.906673 -195.649547 
L 189.51662 -188.483237 
L 190.126568 -193.930654 
L 190.736515 -244.506758 
L 191.346462 -252.039125 
L 191.956409 -251.705859 
L 192.566356 -257.47395 
L 193.176303 -258.141565 
L 193.786251 -256.857838 
L 194.396198 -257.243116 
L 195.006145 -257.24317 
L 195.616092 -234.536596 
L 196.226039 -221.271577 
L 196.835986 -248.001626 
L 197.445934 -221.274788 
L 198.055881 -222.694136 
L 198.665828 -220.065621 
L 199.275775 -219.952562 
L 199.885722 -251.642342 
L 200.495669 -222.422018 
L 201.105617 -223.141613 
L 201.715564 -190.41326 
L 202.325511 -240.285799 
L 202.935458 -195.72248 
L 203.545405 -193.455849 
L 204.155352 -195.720198 
L 204.7653 -196.756688 
L 205.375247 -244.694553 
L 205.985194 -246.879153 
L 206.595141 -243.897866 
L 207.205088 -255.225065 
L 207.815035 -248.683496 
L 208.424983 -250.469665 
L 209.03493 -250.186265 
L 209.644877 -254.706457 
L 210.254824 -252.461115 
L 210.864771 -253.867548 
L 211.474718 -195.215309 
L 212.084666 -187.5378 
L 212.694613 -193.105046 
L 213.30456 -189.066258 
L 213.914507 -193.154238 
L 214.524454 -195.687055 
L 215.134401 -194.062002 
L 215.744349 -193.781751 
L 216.354296 -251.668068 
L 216.964243 -251.839707 
L 217.57419 -240.978287 
L 218.184137 -249.113466 
L 218.794084 -241.248822 
L 219.404032 -239.743422 
L 220.013979 -189.642889 
L 220.623926 -206.203343 
L 221.233873 -233.231273 
L 221.84382 -192.608042 
L 222.453767 -196.31392 
L 223.063715 -193.075015 
L 223.673662 -220.092568 
L 224.283609 -230.57306 
L 224.893556 -215.946173 
L 225.503503 -231.925579 
L 226.11345 -193.860805 
L 226.723398 -232.660602 
L 227.333345 -196.002411 
L 227.943292 -192.511911 
L 228.553239 -194.827377 
L 229.163186 -195.175144 
L 229.773133 -196.517323 
L 230.383081 -234.000557 
L 230.993028 -243.081555 
L 231.602975 -198.703596 
L 232.212922 -198.673076 
L 232.822869 -198.674887 
L 233.432816 -232.548109 
L 234.042764 -198.671691 
L 234.652711 -221.622252 
L 235.262658 -198.932631 
L 235.872605 -198.530623 
L 236.482552 -194.858325 
L 237.092499 -188.702974 
L 237.702447 -190.975007 
L 238.312394 -190.965956 
L 238.922341 -189.677855 
L 239.532288 -188.635097 
L 240.142235 -187.791398 
L 240.752182 -198.729989 
L 241.36213 -194.735851 
L 241.972077 -191.127667 
L 242.582024 -243.453241 
L 243.191971 -217.448313 
L 243.801918 -191.841703 
L 244.411865 -193.475605 
L 245.021813 -195.9712 
L 245.63176 -195.999674 
L 246.241707 -194.747519 
L 246.851654 -194.734472 
L 247.461601 -192.978655 
L 248.071548 -191.150047 
L 248.681496 -195.211515 
L 249.291443 -232.740047 
L 249.90139 -195.943139 
L 250.511337 -197.219804 
L 251.121284 -246.930287 
L 251.731231 -189.794145 
L 252.341179 -220.97852 
L 252.951126 -253.647188 
L 253.561073 -258.979221 
L 254.17102 -257.049564 
L 254.780967 -254.783472 
L 255.390914 -246.399962 
L 256.000862 -254.779944 
L 256.610809 -254.788155 
L 257.220756 -247.37834 
L 257.830703 -254.819386 
L 258.44065 -254.819633 
L 259.050597 -234.525949 
L 259.660545 -234.521075 
L 260.270492 -244.364 
L 260.880439 -254.821269 
L 261.490386 -260.391485 
L 262.100333 -254.819192 
L 262.71028 -260.392729 
L 263.320228 -255.970468 
L 263.930175 -197.891939 
L 264.540122 -260.332532 
L 265.150069 -260.395683 
L 265.760016 -260.396755 
L 266.369963 -259.634516 
L 266.979911 -240.919578 
L 267.589858 -235.935807 
L 268.199805 -256.939092 
L 268.809752 -256.933389 
L 269.419699 -239.056586 
L 270.029646 -238.569612 
L 270.639594 -237.973319 
L 271.249541 -244.564672 
L 271.859488 -237.505674 
L 272.469435 -197.489342 
L 273.079382 -197.087054 
L 273.689329 -249.278056 
L 274.299277 -255.589411 
L 274.909224 -254.266679 
L 275.519171 -237.321813 
L 276.129118 -237.314319 
L 276.739065 -260.365575 
L 277.349012 -253.260668 
L 277.95896 -258.295586 
L 278.568907 -258.292889 
L 279.178854 -221.255968 
L 279.788801 -256.449306 
L 280.398748 -254.645336 
L 281.008695 -259.481609 
L 281.618643 -222.199112 
L 282.22859 -213.763948 
L 282.838537 -194.933639 
L 283.448484 -192.141242 
L 284.058431 -193.281697 
L 284.668378 -191.118603 
L 285.278326 -197.021074 
L 285.888273 -214.594986 
L 286.49822 -234.240581 
L 287.108167 -200.564667 
L 287.718114 -220.895962 
L 288.328061 -212.97632 
L 288.938009 -230.555265 
L 289.547956 -238.005663 
L 290.157903 -193.73986 
L 290.76785 -256.417043 
L 291.377797 -256.473748 
L 291.987744 -255.874849 
L 292.597692 -254.211061 
L 293.207639 -257.192214 
L 293.817586 -253.824898 
L 294.427533 -198.263197 
L 295.03748 -192.653081 
L 295.647427 -194.915391 
L 296.257375 -196.989259 
L 296.867322 -196.37361 
L 297.477269 -196.169088 
L 298.087216 -196.345101 
L 298.697163 -199.775743 
L 299.30711 -197.397183 
L 299.917058 -198.291743 
L 300.527005 -198.856161 
L 301.136952 -244.215344 
L 301.746899 -251.951408 
L 302.356846 -197.023258 
L 302.966793 -198.554434 
L 303.576741 -244.223141 
L 304.186688 -196.889651 
L 304.796635 -193.560288 
L 305.406582 -191.493124 
L 306.016529 -187.147603 
L 306.626476 -187.190083 
L 307.236424 -193.843118 
L 307.846371 -199.48 
L 308.456318 -199.448828 
L 309.066265 -233.736705 
L 309.676212 -239.37318 
L 310.286159 -229.746408 
L 310.896107 -251.896651 
L 311.506054 -254.497381 
L 312.116001 -251.815172 
L 312.725948 -248.587078 
L 313.335895 -251.519019 
L 313.945842 -200.410606 
L 314.55579 -258.422477 
L 315.165737 -254.498455 
L 315.775684 -245.239416 
L 316.385631 -246.465684 
L 316.995578 -221.336949 
L 317.605525 -216.562298 
L 318.215473 -216.561233 
L 318.82542 -198.633797 
L 319.435367 -254.611989 
L 320.045314 -243.703334 
L 320.655261 -257.655639 
L 321.265208 -202.65658 
L 321.875156 -198.576524 
L 322.485103 -198.755169 
L 323.09505 -195.822256 
L 323.704997 -198.955434 
L 324.314944 -251.938121 
L 324.924891 -227.547289 
L 325.534839 -198.138624 
L 326.144786 -196.077195 
L 326.754733 -192.804037 
L 327.36468 -192.690268 
L 327.974627 -197.776926 
L 328.584574 -199.504829 
L 329.194522 -256.319232 
L 329.804469 -256.321845 
L 330.414416 -256.369556 
L 331.024363 -258.980283 
L 331.63431 -260.126331 
L 332.244257 -216.219764 
L 332.854205 -257.706235 
L 333.464152 -194.073454 
L 334.074099 -267.168908 
L 334.684046 -267.565447 
L 335.293993 -264.40604 
L 335.90394 -267.563106 
L 336.513888 -234.486014 
L 337.123835 -241.268169 
L 337.733782 -255.866438 
L 338.343729 -263.702666 
L 338.953676 -265.564989 
L 339.563623 -258.73323 
L 340.173571 -260.064733 
L 340.783518 -265.562066 
L 341.393465 -267.166412 
L 342.003412 -267.163605 
L 342.613359 -264.760037 
L 343.223306 -235.997701 
L 343.833254 -250.328777 
L 344.443201 -261.89475 
L 345.053148 -261.893201 
L 345.663095 -261.892822 
L 346.273042 -260.253777 
L 346.88299 -190.573315 
L 347.492937 -229.837358 
L 348.102884 -268.400874 
L 348.712831 -261.694268 
L 349.322778 -258.759878 
L 349.932725 -267.781612 
L 350.542673 -256.737842 
L 351.15262 -198.639138 
L 351.762567 -234.270342 
L 352.372514 -234.74791 
L 352.982461 -200.620294 
L 353.592408 -234.102649 
L 354.202356 -196.13361 
L 354.812303 -231.90581 
L 355.42225 -196.060644 
L 356.032197 -192.447332 
L 356.642144 -197.167485 
L 357.252091 -197.174138 
L 357.862039 -201.662581 
L 358.471986 -201.658388 
L 359.081933 -238.809982 
L 359.69188 -239.10407 
L 360.301827 -195.621599 
L 360.911774 -203.322064 
L 361.521722 -193.744049 
L 362.131669 -197.35935 
L 362.741616 -194.005197 
L 363.351563 -202.793785 
L 363.96151 -201.636453 
L 364.571457 -202.867812 
L 365.181405 -196.823752 
L 365.791352 -203.020086 
L 366.401299 -263.196273 
L 367.011246 -252.87108 
L 367.621193 -203.195828 
L 367.621193 -272.4675 
L 367.621193 -272.4675 
L 367.011246 -272.46185 
L 366.401299 -272.464912 
L 365.791352 -272.463411 
L 365.181405 -272.461404 
L 364.571457 -272.460338 
L 363.96151 -272.46219 
L 363.351563 -272.462937 
L 362.741616 -272.461747 
L 362.131669 -272.361273 
L 361.521722 -272.360998 
L 360.911774 -272.36781 
L 360.301827 -272.360377 
L 359.69188 -272.36019 
L 359.081933 -272.356135 
L 358.471986 -272.355735 
L 357.862039 -272.358742 
L 357.252091 -272.291152 
L 356.642144 -272.192889 
L 356.032197 -272.192545 
L 355.42225 -272.191226 
L 354.812303 -272.190956 
L 354.202356 -272.195277 
L 353.592408 -272.199552 
L 352.982461 -272.192327 
L 352.372514 -272.192578 
L 351.762567 -272.186716 
L 351.15262 -272.191621 
L 350.542673 -272.18873 
L 349.932725 -272.187599 
L 349.322778 -272.066237 
L 348.712831 -272.063672 
L 348.102884 -272.064034 
L 347.492937 -272.063977 
L 346.88299 -272.062643 
L 346.273042 -272.064929 
L 345.663095 -272.060693 
L 345.053148 -272.062246 
L 344.443201 -271.85234 
L 343.833254 -271.85249 
L 343.223306 -271.852244 
L 342.613359 -271.852741 
L 342.003412 -271.731606 
L 341.393465 -271.731073 
L 340.783518 -271.730982 
L 340.173571 -271.730848 
L 339.563623 -271.730299 
L 338.953676 -271.605118 
L 338.343729 -271.604946 
L 337.733782 -271.605378 
L 337.123835 -271.604418 
L 336.513888 -271.507413 
L 335.90394 -271.507877 
L 335.293993 -271.507247 
L 334.684046 -271.507807 
L 334.074099 -271.507594 
L 333.464152 -271.507198 
L 332.854205 -271.507357 
L 332.244257 -271.507341 
L 331.63431 -271.507382 
L 331.024363 -271.507602 
L 330.414416 -271.50734 
L 329.804469 -271.507371 
L 329.194522 -271.50735 
L 328.584574 -271.507746 
L 327.974627 -271.507362 
L 327.36468 -271.507151 
L 326.754733 -271.507448 
L 326.144786 -271.507686 
L 325.534839 -271.507361 
L 324.924891 -271.507238 
L 324.314944 -271.50721 
L 323.704997 -271.507344 
L 323.09505 -271.507224 
L 322.485103 -271.506835 
L 321.875156 -271.507022 
L 321.265208 -271.438281 
L 320.655261 -271.438443 
L 320.045314 -271.437315 
L 319.435367 -271.438137 
L 318.82542 -271.438412 
L 318.215473 -271.438731 
L 317.605525 -271.436793 
L 316.995578 -271.438745 
L 316.385631 -271.437316 
L 315.775684 -270.776484 
L 315.165737 -270.775333 
L 314.55579 -270.777064 
L 313.945842 -270.777279 
L 313.335895 -270.774435 
L 312.725948 -270.782635 
L 312.116001 -270.774932 
L 311.506054 -270.776617 
L 310.896107 -270.775532 
L 310.286159 -270.775004 
L 309.676212 -270.774379 
L 309.066265 -270.774233 
L 308.456318 -270.782385 
L 307.846371 -270.77441 
L 307.236424 -270.777324 
L 306.626476 -270.774208 
L 306.016529 -270.774458 
L 305.406582 -270.776528 
L 304.796635 -270.775517 
L 304.186688 -270.776216 
L 303.576741 -270.774722 
L 302.966793 -270.775216 
L 302.356846 -270.774924 
L 301.746899 -270.773797 
L 301.136952 -270.772037 
L 300.527005 -270.721599 
L 299.917058 -270.721878 
L 299.30711 -270.721205 
L 298.697163 -270.72106 
L 298.087216 -270.720595 
L 297.477269 -270.720931 
L 296.867322 -270.720324 
L 296.257375 -270.720815 
L 295.647427 -270.719633 
L 295.03748 -270.718643 
L 294.427533 -269.542234 
L 293.817586 -269.542389 
L 293.207639 -269.542297 
L 292.597692 -269.541882 
L 291.987744 -269.542242 
L 291.377797 -269.542252 
L 290.76785 -269.542312 
L 290.157903 -269.542112 
L 289.547956 -269.542203 
L 288.938009 -269.542205 
L 288.328061 -268.638299 
L 287.718114 -268.638227 
L 287.108167 -268.635944 
L 286.49822 -268.466676 
L 285.888273 -268.465199 
L 285.278326 -268.466034 
L 284.668378 -268.467283 
L 284.058431 -268.466317 
L 283.448484 -268.051018 
L 282.838537 -268.049326 
L 282.22859 -268.048687 
L 281.618643 -268.047953 
L 281.008695 -268.049395 
L 280.398748 -268.050431 
L 279.788801 -268.048401 
L 279.178854 -268.05227 
L 278.568907 -268.048023 
L 277.95896 -268.047794 
L 277.349012 -268.048101 
L 276.739065 -268.048105 
L 276.129118 -268.048031 
L 275.519171 -268.046592 
L 274.909224 -268.047048 
L 274.299277 -268.019035 
L 273.689329 -268.018925 
L 273.079382 -268.018447 
L 272.469435 -268.019511 
L 271.859488 -268.019352 
L 271.249541 -268.01905 
L 270.639594 -268.019059 
L 270.029646 -267.938262 
L 269.419699 -267.938165 
L 268.809752 -267.937352 
L 268.199805 -267.937318 
L 267.589858 -267.93793 
L 266.979911 -267.937381 
L 266.369963 -267.937498 
L 265.760016 -267.937192 
L 265.150069 -267.93985 
L 264.540122 -267.938046 
L 263.930175 -267.937888 
L 263.320228 -267.938476 
L 262.71028 -267.937745 
L 262.100333 -267.93755 
L 261.490386 -267.938308 
L 260.880439 -267.937437 
L 260.270492 -267.936627 
L 259.660545 -267.936482 
L 259.050597 -267.937742 
L 258.44065 -267.937787 
L 257.830703 -267.937291 
L 257.220756 -267.937484 
L 256.610809 -267.937053 
L 256.000862 -267.936551 
L 255.390914 -267.938162 
L 254.780967 -267.936258 
L 254.17102 -267.937406 
L 253.561073 -267.936888 
L 252.951126 -267.937904 
L 252.341179 -267.937014 
L 251.731231 -267.936824 
L 251.121284 -267.936204 
L 250.511337 -267.936086 
L 249.90139 -267.935564 
L 249.291443 -267.933765 
L 248.681496 -267.782502 
L 248.071548 -267.782916 
L 247.461601 -267.782217 
L 246.851654 -267.782841 
L 246.241707 -267.782566 
L 245.63176 -267.782288 
L 245.021813 -267.782373 
L 244.411865 -267.782531 
L 243.801918 -267.782568 
L 243.191971 -267.782393 
L 242.582024 -267.78224 
L 241.972077 -267.781894 
L 241.36213 -267.78207 
L 240.752182 -267.782415 
L 240.142235 -267.554766 
L 239.532288 -267.553981 
L 238.922341 -267.553102 
L 238.312394 -267.554412 
L 237.702447 -267.552677 
L 237.092499 -267.552032 
L 236.482552 -267.521493 
L 235.872605 -267.520788 
L 235.262658 -267.517769 
L 234.652711 -267.519017 
L 234.042764 -267.51845 
L 233.432816 -267.516731 
L 232.822869 -267.516813 
L 232.212922 -267.518244 
L 231.602975 -267.520238 
L 230.993028 -267.516745 
L 230.383081 -267.514188 
L 229.773133 -267.437515 
L 229.163186 -267.438551 
L 228.553239 -267.435023 
L 227.943292 -267.439693 
L 227.333345 -267.441361 
L 226.723398 -267.435764 
L 226.11345 -267.439208 
L 225.503503 -267.437827 
L 224.893556 -267.439588 
L 224.283609 -267.434998 
L 223.673662 -266.756478 
L 223.063715 -266.530663 
L 222.453767 -266.530404 
L 221.84382 -266.519511 
L 221.233873 -266.525005 
L 220.623926 -265.73184 
L 220.013979 -265.735903 
L 219.404032 -265.732895 
L 218.794084 -265.738574 
L 218.184137 -265.732551 
L 217.57419 -265.731322 
L 216.964243 -265.732188 
L 216.354296 -265.731547 
L 215.744349 -265.732154 
L 215.134401 -265.732273 
L 214.524454 -265.731764 
L 213.914507 -265.731465 
L 213.30456 -265.732121 
L 212.694613 -265.731484 
L 212.084666 -265.731486 
L 211.474718 -265.731381 
L 210.864771 -265.731415 
L 210.254824 -265.732389 
L 209.644877 -265.731363 
L 209.03493 -265.729738 
L 208.424983 -265.712353 
L 207.815035 -265.711626 
L 207.205088 -265.713482 
L 206.595141 -265.712399 
L 205.985194 -265.712736 
L 205.375247 -265.712754 
L 204.7653 -265.712151 
L 204.155352 -265.711871 
L 203.545405 -265.711296 
L 202.935458 -265.712873 
L 202.325511 -265.712347 
L 201.715564 -265.50807 
L 201.105617 -265.506816 
L 200.495669 -265.507359 
L 199.885722 -265.204221 
L 199.275775 -265.204764 
L 198.665828 -265.145345 
L 198.055881 -265.110474 
L 197.445934 -265.110392 
L 196.835986 -265.110312 
L 196.226039 -265.109821 
L 195.616092 -265.110009 
L 195.006145 -264.913002 
L 194.396198 -264.75826 
L 193.786251 -264.758442 
L 193.176303 -264.759186 
L 192.566356 -264.758539 
L 191.956409 -264.033071 
L 191.346462 -263.979439 
L 190.736515 -263.980771 
L 190.126568 -263.979624 
L 189.51662 -263.98295 
L 188.906673 -263.979863 
L 188.296726 -263.978959 
L 187.686779 -263.979264 
L 187.076832 -263.978709 
L 186.466885 -263.978734 
L 185.856937 -263.961904 
L 185.24699 -263.957215 
L 184.637043 -263.9578 
L 184.027096 -263.956644 
L 183.417149 -263.956643 
L 182.807202 -263.959261 
L 182.197254 -263.955941 
L 181.587307 -263.956348 
L 180.97736 -263.956287 
L 180.367413 -263.955848 
L 179.757466 -263.743595 
L 179.147519 -263.63978 
L 178.537571 -263.63804 
L 177.927624 -263.638643 
L 177.317677 -263.634021 
L 176.70773 -263.635183 
L 176.097783 -263.633257 
L 175.487836 -263.490931 
L 174.877888 -263.490912 
L 174.267941 -263.491363 
L 173.657994 -263.491536 
L 173.048047 -263.490398 
L 172.4381 -263.49175 
L 171.828153 -263.491147 
L 171.218205 -263.491713 
L 170.608258 -263.492963 
L 169.998311 -263.490762 
L 169.388364 -263.491836 
L 168.778417 -263.491779 
L 168.16847 -263.491938 
L 167.558522 -263.490807 
L 166.948575 -263.491788 
L 166.338628 -263.490084 
L 165.728681 -263.490198 
L 165.118734 -263.489763 
L 164.508787 -263.4904 
L 163.898839 -263.490509 
L 163.288892 -262.927747 
L 162.678945 -262.927843 
L 162.068998 -262.928247 
L 161.459051 -262.825849 
L 160.849104 -262.824932 
L 160.239156 -262.8267 
L 159.629209 -262.826578 
L 159.019262 -262.824888 
L 158.409315 -262.825779 
L 157.799368 -262.826378 
L 157.189421 -262.825629 
L 156.579473 -262.824937 
L 155.969526 -262.827532 
L 155.359579 -262.826404 
L 154.749632 -262.123158 
L 154.139685 -262.12302 
L 153.529738 -262.12184 
L 152.91979 -261.65452 
L 152.309843 -261.6551 
L 151.699896 -261.652449 
L 151.089949 -261.652625 
L 150.480002 -261.653511 
L 149.870055 -261.652624 
L 149.260107 -261.656555 
L 148.65016 -261.653055 
L 148.040213 -261.654904 
L 147.430266 -261.65226 
L 146.820319 -261.655329 
L 146.210372 -261.653467 
L 145.600424 -261.652562 
L 144.990477 -261.652926 
L 144.38053 -261.652289 
L 143.770583 -261.652857 
L 143.160636 -261.652043 
L 142.550689 -261.653808 
L 141.940741 -261.652338 
L 141.330794 -261.652573 
L 140.720847 -261.655505 
L 140.1109 -261.652755 
L 139.500953 -261.652512 
L 138.891006 -261.655535 
L 138.281058 -261.652688 
L 137.671111 -261.652625 
L 137.061164 -261.653543 
L 136.451217 -261.659411 
L 135.84127 -261.653044 
L 135.231323 -261.656112 
L 134.621375 -261.659219 
L 134.011428 -261.651848 
L 133.401481 -261.651943 
L 132.791534 -261.651594 
L 132.181587 -261.653208 
L 131.57164 -261.652489 
L 130.961692 -261.651565 
L 130.351745 -261.650076 
L 129.741798 -261.650377 
L 129.131851 -261.64802 
L 128.521904 -261.651027 
L 127.911957 -261.650671 
L 127.302009 -261.625895 
L 126.692062 -261.625824 
L 126.082115 -261.624941 
L 125.472168 -261.625289 
L 124.862221 -261.624903 
L 124.252274 -261.628949 
L 123.642326 -261.627841 
L 123.032379 -261.624988 
L 122.422432 -261.625003 
L 121.812485 -261.625439 
L 121.202538 -261.624803 
L 120.592591 -261.626749 
L 119.982643 -261.627526 
L 119.372696 -261.624253 
L 118.762749 -261.628442 
L 118.152802 -261.626249 
L 117.542855 -261.625059 
L 116.932908 -261.627198 
L 116.32296 -261.625198 
L 115.713013 -261.625823 
L 115.103066 -261.624559 
L 114.493119 -261.625979 
L 113.883172 -261.625167 
L 113.273225 -261.629643 
L 112.663277 -261.628268 
L 112.05333 -261.625702 
L 111.443383 -261.627674 
L 110.833436 -261.625173 
L 110.223489 -261.625047 
L 109.613542 -261.6257 
L 109.003594 -261.624832 
L 108.393647 -261.624655 
L 107.7837 -261.626435 
L 107.173753 -261.624476 
L 106.563806 -261.625216 
L 105.953859 -261.625183 
L 105.343911 -261.625108 
L 104.733964 -261.624318 
L 104.124017 -261.623983 
L 103.51407 -261.624295 
L 102.904123 -261.623915 
L 102.294176 -261.625097 
L 101.684228 -261.624541 
L 101.074281 -261.623676 
L 100.464334 -261.623334 
L 99.854387 -261.622864 
L 99.24444 -261.622496 
L 98.634493 -261.087495 
L 98.024545 -261.087317 
L 97.414598 -261.087846 
L 96.804651 -261.087367 
L 96.194704 -261.086628 
L 95.584757 -261.086982 
L 94.97481 -261.087402 
L 94.364862 -261.087413 
L 93.754915 -261.087298 
L 93.144968 -261.087225 
L 92.535021 -261.087279 
L 91.925074 -260.54288 
L 91.315127 -260.54162 
L 90.705179 -260.541944 
L 90.095232 -260.539942 
L 89.485285 -260.541672 
L 88.875338 -259.849905 
L 88.265391 -259.844302 
L 87.655444 -259.849333 
L 87.045496 -259.58653 
L 86.435549 -259.583804 
L 85.825602 -259.486077 
L 85.215655 -259.48701 
L 84.605708 -258.452226 
L 83.99576 -258.449763 
L 83.385813 -258.449464 
L 82.775866 -258.453181 
L 82.165919 -258.449671 
L 81.555972 -258.450353 
L 80.946025 -258.451529 
L 80.336077 -258.44832 
L 79.72613 -258.450342 
L 79.116183 -258.44768 
L 78.506236 -258.44485 
L 77.896289 -258.443708 
L 77.286342 -252.752656 
L 76.676394 -252.750599 
L 76.066447 -252.751264 
L 75.4565 -252.750334 
L 74.846553 -251.445008 
L 74.236606 -249.996294 
L 73.626659 -249.995341 
L 73.016711 -249.994364 
L 72.406764 -249.995841 
L 71.796817 -249.99348 
L 71.18687 -249.993009 
L 70.576923 -249.992993 
L 69.966976 -249.98466 
L 69.357028 -249.993345 
L 68.747081 -247.337932 
L 68.137134 -247.335192 
L 67.527187 -247.333498 
L 66.91724 -247.33627 
L 66.307293 -247.332376 
L 65.697345 -229.739018 
L 65.087398 -229.740625 
L 64.477451 -229.736923 
L 63.867504 -229.739101 
L 63.257557 -229.739432 
z
" style="stroke: #0000ff; stroke-opacity: 0.2"/>
    </defs>
    <g clip-path="url(#p6f981a45bb)">
     <use xlink:href="#m659ab16181" x="0" y="290.416793" style="fill: #0000ff; fill-opacity: 0.2; stroke: #0000ff; stroke-opacity: 0.2"/>
    </g>
   </g>
   <g id="matplotlib.axis_1">
    <g id="xtick_1">
     <g id="line2d_1">
      <path d="M 63.257557 256.089293 
L 63.257557 6.609293 
" clip-path="url(#p6f981a45bb)" style="fill: none; stroke: #b0b0b0; stroke-width: 0.5; stroke-linecap: square"/>
     </g>
     <g id="line2d_2">
      <defs>
       <path id="m271814689c" d="M 0 0 
L 0 -3 
" style="stroke: #000000; stroke-width: 0.5"/>
      </defs>
      <g>
       <use xlink:href="#m271814689c" x="63.257557" y="256.089293" style="stroke: #000000; stroke-width: 0.5"/>
      </g>
     </g>
     <g id="line2d_3">
      <defs>
       <path id="me3322f36ad" d="M 0 0 
L 0 3 
" style="stroke: #000000; stroke-width: 0.5"/>
      </defs>
      <g>
       <use xlink:href="#me3322f36ad" x="63.257557" y="6.609293" style="stroke: #000000; stroke-width: 0.5"/>
      </g>
     </g>
     <g id="text_1">
      <!-- 0 -->
      <g transform="translate(59.440057 268.707418) scale(0.12 -0.12)">
       <defs>
        <path id="DejaVuSans-30" d="M 2034 4250 
Q 1547 4250 1301 3770 
Q 1056 3291 1056 2328 
Q 1056 1369 1301 889 
Q 1547 409 2034 409 
Q 2525 409 2770 889 
Q 3016 1369 3016 2328 
Q 3016 3291 2770 3770 
Q 2525 4250 2034 4250 
z
M 2034 4750 
Q 2819 4750 3233 4129 
Q 3647 3509 3647 2328 
Q 3647 1150 3233 529 
Q 2819 -91 2034 -91 
Q 1250 -91 836 529 
Q 422 1150 422 2328 
Q 422 3509 836 4129 
Q 1250 4750 2034 4750 
z
" transform="scale(0.015625)"/>
       </defs>
       <use xlink:href="#DejaVuSans-30"/>
      </g>
     </g>
    </g>
    <g id="xtick_2">
     <g id="line2d_4">
      <path d="M 124.252274 256.089293 
L 124.252274 6.609293 
" clip-path="url(#p6f981a45bb)" style="fill: none; stroke: #b0b0b0; stroke-width: 0.5; stroke-linecap: square"/>
     </g>
     <g id="line2d_5">
      <g>
       <use xlink:href="#m271814689c" x="124.252274" y="256.089293" style="stroke: #000000; stroke-width: 0.5"/>
      </g>
     </g>
     <g id="line2d_6">
      <g>
       <use xlink:href="#me3322f36ad" x="124.252274" y="6.609293" style="stroke: #000000; stroke-width: 0.5"/>
      </g>
     </g>
     <g id="text_2">
      <!-- 100 -->
      <g transform="translate(112.799774 268.707418) scale(0.12 -0.12)">
       <defs>
        <path id="DejaVuSans-31" d="M 794 531 
L 1825 531 
L 1825 4091 
L 703 3866 
L 703 4441 
L 1819 4666 
L 2450 4666 
L 2450 531 
L 3481 531 
L 3481 0 
L 794 0 
L 794 531 
z
" transform="scale(0.015625)"/>
       </defs>
       <use xlink:href="#DejaVuSans-31"/>
       <use xlink:href="#DejaVuSans-30" x="63.623047"/>
       <use xlink:href="#DejaVuSans-30" x="127.246094"/>
      </g>
     </g>
    </g>
    <g id="xtick_3">
     <g id="line2d_7">
      <path d="M 185.24699 256.089293 
L 185.24699 6.609293 
" clip-path="url(#p6f981a45bb)" style="fill: none; stroke: #b0b0b0; stroke-width: 0.5; stroke-linecap: square"/>
     </g>
     <g id="line2d_8">
      <g>
       <use xlink:href="#m271814689c" x="185.24699" y="256.089293" style="stroke: #000000; stroke-width: 0.5"/>
      </g>
     </g>
     <g id="line2d_9">
      <g>
       <use xlink:href="#me3322f36ad" x="185.24699" y="6.609293" style="stroke: #000000; stroke-width: 0.5"/>
      </g>
     </g>
     <g id="text_3">
      <!-- 200 -->
      <g transform="translate(173.79449 268.707418) scale(0.12 -0.12)">
       <defs>
        <path id="DejaVuSans-32" d="M 1228 531 
L 3431 531 
L 3431 0 
L 469 0 
L 469 531 
Q 828 903 1448 1529 
Q 2069 2156 2228 2338 
Q 2531 2678 2651 2914 
Q 2772 3150 2772 3378 
Q 2772 3750 2511 3984 
Q 2250 4219 1831 4219 
Q 1534 4219 1204 4116 
Q 875 4013 500 3803 
L 500 4441 
Q 881 4594 1212 4672 
Q 1544 4750 1819 4750 
Q 2544 4750 2975 4387 
Q 3406 4025 3406 3419 
Q 3406 3131 3298 2873 
Q 3191 2616 2906 2266 
Q 2828 2175 2409 1742 
Q 1991 1309 1228 531 
z
" transform="scale(0.015625)"/>
       </defs>
       <use xlink:href="#DejaVuSans-32"/>
       <use xlink:href="#DejaVuSans-30" x="63.623047"/>
       <use xlink:href="#DejaVuSans-30" x="127.246094"/>
      </g>
     </g>
    </g>
    <g id="xtick_4">
     <g id="line2d_10">
      <path d="M 246.241707 256.089293 
L 246.241707 6.609293 
" clip-path="url(#p6f981a45bb)" style="fill: none; stroke: #b0b0b0; stroke-width: 0.5; stroke-linecap: square"/>
     </g>
     <g id="line2d_11">
      <g>
       <use xlink:href="#m271814689c" x="246.241707" y="256.089293" style="stroke: #000000; stroke-width: 0.5"/>
      </g>
     </g>
     <g id="line2d_12">
      <g>
       <use xlink:href="#me3322f36ad" x="246.241707" y="6.609293" style="stroke: #000000; stroke-width: 0.5"/>
      </g>
     </g>
     <g id="text_4">
      <!-- 300 -->
      <g transform="translate(234.789207 268.707418) scale(0.12 -0.12)">
       <defs>
        <path id="DejaVuSans-33" d="M 2597 2516 
Q 3050 2419 3304 2112 
Q 3559 1806 3559 1356 
Q 3559 666 3084 287 
Q 2609 -91 1734 -91 
Q 1441 -91 1130 -33 
Q 819 25 488 141 
L 488 750 
Q 750 597 1062 519 
Q 1375 441 1716 441 
Q 2309 441 2620 675 
Q 2931 909 2931 1356 
Q 2931 1769 2642 2001 
Q 2353 2234 1838 2234 
L 1294 2234 
L 1294 2753 
L 1863 2753 
Q 2328 2753 2575 2939 
Q 2822 3125 2822 3475 
Q 2822 3834 2567 4026 
Q 2313 4219 1838 4219 
Q 1578 4219 1281 4162 
Q 984 4106 628 3988 
L 628 4550 
Q 988 4650 1302 4700 
Q 1616 4750 1894 4750 
Q 2613 4750 3031 4423 
Q 3450 4097 3450 3541 
Q 3450 3153 3228 2886 
Q 3006 2619 2597 2516 
z
" transform="scale(0.015625)"/>
       </defs>
       <use xlink:href="#DejaVuSans-33"/>
       <use xlink:href="#DejaVuSans-30" x="63.623047"/>
       <use xlink:href="#DejaVuSans-30" x="127.246094"/>
      </g>
     </g>
    </g>
    <g id="xtick_5">
     <g id="line2d_13">
      <path d="M 307.236424 256.089293 
L 307.236424 6.609293 
" clip-path="url(#p6f981a45bb)" style="fill: none; stroke: #b0b0b0; stroke-width: 0.5; stroke-linecap: square"/>
     </g>
     <g id="line2d_14">
      <g>
       <use xlink:href="#m271814689c" x="307.236424" y="256.089293" style="stroke: #000000; stroke-width: 0.5"/>
      </g>
     </g>
     <g id="line2d_15">
      <g>
       <use xlink:href="#me3322f36ad" x="307.236424" y="6.609293" style="stroke: #000000; stroke-width: 0.5"/>
      </g>
     </g>
     <g id="text_5">
      <!-- 400 -->
      <g transform="translate(295.783924 268.707418) scale(0.12 -0.12)">
       <defs>
        <path id="DejaVuSans-34" d="M 2419 4116 
L 825 1625 
L 2419 1625 
L 2419 4116 
z
M 2253 4666 
L 3047 4666 
L 3047 1625 
L 3713 1625 
L 3713 1100 
L 3047 1100 
L 3047 0 
L 2419 0 
L 2419 1100 
L 313 1100 
L 313 1709 
L 2253 4666 
z
" transform="scale(0.015625)"/>
       </defs>
       <use xlink:href="#DejaVuSans-34"/>
       <use xlink:href="#DejaVuSans-30" x="63.623047"/>
       <use xlink:href="#DejaVuSans-30" x="127.246094"/>
      </g>
     </g>
    </g>
    <g id="xtick_6">
     <g id="line2d_16">
      <path d="M 368.23114 256.089293 
L 368.23114 6.609293 
" clip-path="url(#p6f981a45bb)" style="fill: none; stroke: #b0b0b0; stroke-width: 0.5; stroke-linecap: square"/>
     </g>
     <g id="line2d_17">
      <g>
       <use xlink:href="#m271814689c" x="368.23114" y="256.089293" style="stroke: #000000; stroke-width: 0.5"/>
      </g>
     </g>
     <g id="line2d_18">
      <g>
       <use xlink:href="#me3322f36ad" x="368.23114" y="6.609293" style="stroke: #000000; stroke-width: 0.5"/>
      </g>
     </g>
     <g id="text_6">
      <!-- 500 -->
      <g transform="translate(356.77864 268.707418) scale(0.12 -0.12)">
       <defs>
        <path id="DejaVuSans-35" d="M 691 4666 
L 3169 4666 
L 3169 4134 
L 1269 4134 
L 1269 2991 
Q 1406 3038 1543 3061 
Q 1681 3084 1819 3084 
Q 2600 3084 3056 2656 
Q 3513 2228 3513 1497 
Q 3513 744 3044 326 
Q 2575 -91 1722 -91 
Q 1428 -91 1123 -41 
Q 819 9 494 109 
L 494 744 
Q 775 591 1075 516 
Q 1375 441 1709 441 
Q 2250 441 2565 725 
Q 2881 1009 2881 1497 
Q 2881 1984 2565 2268 
Q 2250 2553 1709 2553 
Q 1456 2553 1204 2497 
Q 953 2441 691 2322 
L 691 4666 
z
" transform="scale(0.015625)"/>
       </defs>
       <use xlink:href="#DejaVuSans-35"/>
       <use xlink:href="#DejaVuSans-30" x="63.623047"/>
       <use xlink:href="#DejaVuSans-30" x="127.246094"/>
      </g>
     </g>
    </g>
    <g id="xtick_7">
     <g id="line2d_19">
      <defs>
       <path id="mc7da1d33b1" d="M 0 0 
L 0 -1.5 
" style="stroke: #000000; stroke-width: 0.5"/>
      </defs>
      <g>
       <use xlink:href="#mc7da1d33b1" x="51.058613" y="256.089293" style="stroke: #000000; stroke-width: 0.5"/>
      </g>
     </g>
     <g id="line2d_20">
      <defs>
       <path id="ma2f1f56edc" d="M 0 0 
L 0 1.5 
" style="stroke: #000000; stroke-width: 0.5"/>
      </defs>
      <g>
       <use xlink:href="#ma2f1f56edc" x="51.058613" y="6.609293" style="stroke: #000000; stroke-width: 0.5"/>
      </g>
     </g>
    </g>
    <g id="xtick_8">
     <g id="line2d_21">
      <g>
       <use xlink:href="#mc7da1d33b1" x="75.4565" y="256.089293" style="stroke: #000000; stroke-width: 0.5"/>
      </g>
     </g>
     <g id="line2d_22">
      <g>
       <use xlink:href="#ma2f1f56edc" x="75.4565" y="6.609293" style="stroke: #000000; stroke-width: 0.5"/>
      </g>
     </g>
    </g>
    <g id="xtick_9">
     <g id="line2d_23">
      <g>
       <use xlink:href="#mc7da1d33b1" x="87.655444" y="256.089293" style="stroke: #000000; stroke-width: 0.5"/>
      </g>
     </g>
     <g id="line2d_24">
      <g>
       <use xlink:href="#ma2f1f56edc" x="87.655444" y="6.609293" style="stroke: #000000; stroke-width: 0.5"/>
      </g>
     </g>
    </g>
    <g id="xtick_10">
     <g id="line2d_25">
      <g>
       <use xlink:href="#mc7da1d33b1" x="99.854387" y="256.089293" style="stroke: #000000; stroke-width: 0.5"/>
      </g>
     </g>
     <g id="line2d_26">
      <g>
       <use xlink:href="#ma2f1f56edc" x="99.854387" y="6.609293" style="stroke: #000000; stroke-width: 0.5"/>
      </g>
     </g>
    </g>
    <g id="xtick_11">
     <g id="line2d_27">
      <g>
       <use xlink:href="#mc7da1d33b1" x="112.05333" y="256.089293" style="stroke: #000000; stroke-width: 0.5"/>
      </g>
     </g>
     <g id="line2d_28">
      <g>
       <use xlink:href="#ma2f1f56edc" x="112.05333" y="6.609293" style="stroke: #000000; stroke-width: 0.5"/>
      </g>
     </g>
    </g>
    <g id="xtick_12">
     <g id="line2d_29">
      <g>
       <use xlink:href="#mc7da1d33b1" x="136.451217" y="256.089293" style="stroke: #000000; stroke-width: 0.5"/>
      </g>
     </g>
     <g id="line2d_30">
      <g>
       <use xlink:href="#ma2f1f56edc" x="136.451217" y="6.609293" style="stroke: #000000; stroke-width: 0.5"/>
      </g>
     </g>
    </g>
    <g id="xtick_13">
     <g id="line2d_31">
      <g>
       <use xlink:href="#mc7da1d33b1" x="148.65016" y="256.089293" style="stroke: #000000; stroke-width: 0.5"/>
      </g>
     </g>
     <g id="line2d_32">
      <g>
       <use xlink:href="#ma2f1f56edc" x="148.65016" y="6.609293" style="stroke: #000000; stroke-width: 0.5"/>
      </g>
     </g>
    </g>
    <g id="xtick_14">
     <g id="line2d_33">
      <g>
       <use xlink:href="#mc7da1d33b1" x="160.849104" y="256.089293" style="stroke: #000000; stroke-width: 0.5"/>
      </g>
     </g>
     <g id="line2d_34">
      <g>
       <use xlink:href="#ma2f1f56edc" x="160.849104" y="6.609293" style="stroke: #000000; stroke-width: 0.5"/>
      </g>
     </g>
    </g>
    <g id="xtick_15">
     <g id="line2d_35">
      <g>
       <use xlink:href="#mc7da1d33b1" x="173.048047" y="256.089293" style="stroke: #000000; stroke-width: 0.5"/>
      </g>
     </g>
     <g id="line2d_36">
      <g>
       <use xlink:href="#ma2f1f56edc" x="173.048047" y="6.609293" style="stroke: #000000; stroke-width: 0.5"/>
      </g>
     </g>
    </g>
    <g id="xtick_16">
     <g id="line2d_37">
      <g>
       <use xlink:href="#mc7da1d33b1" x="197.445934" y="256.089293" style="stroke: #000000; stroke-width: 0.5"/>
      </g>
     </g>
     <g id="line2d_38">
      <g>
       <use xlink:href="#ma2f1f56edc" x="197.445934" y="6.609293" style="stroke: #000000; stroke-width: 0.5"/>
      </g>
     </g>
    </g>
    <g id="xtick_17">
     <g id="line2d_39">
      <g>
       <use xlink:href="#mc7da1d33b1" x="209.644877" y="256.089293" style="stroke: #000000; stroke-width: 0.5"/>
      </g>
     </g>
     <g id="line2d_40">
      <g>
       <use xlink:href="#ma2f1f56edc" x="209.644877" y="6.609293" style="stroke: #000000; stroke-width: 0.5"/>
      </g>
     </g>
    </g>
    <g id="xtick_18">
     <g id="line2d_41">
      <g>
       <use xlink:href="#mc7da1d33b1" x="221.84382" y="256.089293" style="stroke: #000000; stroke-width: 0.5"/>
      </g>
     </g>
     <g id="line2d_42">
      <g>
       <use xlink:href="#ma2f1f56edc" x="221.84382" y="6.609293" style="stroke: #000000; stroke-width: 0.5"/>
      </g>
     </g>
    </g>
    <g id="xtick_19">
     <g id="line2d_43">
      <g>
       <use xlink:href="#mc7da1d33b1" x="234.042764" y="256.089293" style="stroke: #000000; stroke-width: 0.5"/>
      </g>
     </g>
     <g id="line2d_44">
      <g>
       <use xlink:href="#ma2f1f56edc" x="234.042764" y="6.609293" style="stroke: #000000; stroke-width: 0.5"/>
      </g>
     </g>
    </g>
    <g id="xtick_20">
     <g id="line2d_45">
      <g>
       <use xlink:href="#mc7da1d33b1" x="258.44065" y="256.089293" style="stroke: #000000; stroke-width: 0.5"/>
      </g>
     </g>
     <g id="line2d_46">
      <g>
       <use xlink:href="#ma2f1f56edc" x="258.44065" y="6.609293" style="stroke: #000000; stroke-width: 0.5"/>
      </g>
     </g>
    </g>
    <g id="xtick_21">
     <g id="line2d_47">
      <g>
       <use xlink:href="#mc7da1d33b1" x="270.639594" y="256.089293" style="stroke: #000000; stroke-width: 0.5"/>
      </g>
     </g>
     <g id="line2d_48">
      <g>
       <use xlink:href="#ma2f1f56edc" x="270.639594" y="6.609293" style="stroke: #000000; stroke-width: 0.5"/>
      </g>
     </g>
    </g>
    <g id="xtick_22">
     <g id="line2d_49">
      <g>
       <use xlink:href="#mc7da1d33b1" x="282.838537" y="256.089293" style="stroke: #000000; stroke-width: 0.5"/>
      </g>
     </g>
     <g id="line2d_50">
      <g>
       <use xlink:href="#ma2f1f56edc" x="282.838537" y="6.609293" style="stroke: #000000; stroke-width: 0.5"/>
      </g>
     </g>
    </g>
    <g id="xtick_23">
     <g id="line2d_51">
      <g>
       <use xlink:href="#mc7da1d33b1" x="295.03748" y="256.089293" style="stroke: #000000; stroke-width: 0.5"/>
      </g>
     </g>
     <g id="line2d_52">
      <g>
       <use xlink:href="#ma2f1f56edc" x="295.03748" y="6.609293" style="stroke: #000000; stroke-width: 0.5"/>
      </g>
     </g>
    </g>
    <g id="xtick_24">
     <g id="line2d_53">
      <g>
       <use xlink:href="#mc7da1d33b1" x="319.435367" y="256.089293" style="stroke: #000000; stroke-width: 0.5"/>
      </g>
     </g>
     <g id="line2d_54">
      <g>
       <use xlink:href="#ma2f1f56edc" x="319.435367" y="6.609293" style="stroke: #000000; stroke-width: 0.5"/>
      </g>
     </g>
    </g>
    <g id="xtick_25">
     <g id="line2d_55">
      <g>
       <use xlink:href="#mc7da1d33b1" x="331.63431" y="256.089293" style="stroke: #000000; stroke-width: 0.5"/>
      </g>
     </g>
     <g id="line2d_56">
      <g>
       <use xlink:href="#ma2f1f56edc" x="331.63431" y="6.609293" style="stroke: #000000; stroke-width: 0.5"/>
      </g>
     </g>
    </g>
    <g id="xtick_26">
     <g id="line2d_57">
      <g>
       <use xlink:href="#mc7da1d33b1" x="343.833254" y="256.089293" style="stroke: #000000; stroke-width: 0.5"/>
      </g>
     </g>
     <g id="line2d_58">
      <g>
       <use xlink:href="#ma2f1f56edc" x="343.833254" y="6.609293" style="stroke: #000000; stroke-width: 0.5"/>
      </g>
     </g>
    </g>
    <g id="xtick_27">
     <g id="line2d_59">
      <g>
       <use xlink:href="#mc7da1d33b1" x="356.032197" y="256.089293" style="stroke: #000000; stroke-width: 0.5"/>
      </g>
     </g>
     <g id="line2d_60">
      <g>
       <use xlink:href="#ma2f1f56edc" x="356.032197" y="6.609293" style="stroke: #000000; stroke-width: 0.5"/>
      </g>
     </g>
    </g>
    <g id="xtick_28">
     <g id="line2d_61">
      <g>
       <use xlink:href="#mc7da1d33b1" x="380.430084" y="256.089293" style="stroke: #000000; stroke-width: 0.5"/>
      </g>
     </g>
     <g id="line2d_62">
      <g>
       <use xlink:href="#ma2f1f56edc" x="380.430084" y="6.609293" style="stroke: #000000; stroke-width: 0.5"/>
      </g>
     </g>
    </g>
    <g id="text_7">
     <!-- Generations -->
     <g transform="translate(178.842188 284.321168) scale(0.12 -0.12)">
      <defs>
       <path id="DejaVuSans-47" d="M 3809 666 
L 3809 1919 
L 2778 1919 
L 2778 2438 
L 4434 2438 
L 4434 434 
Q 4069 175 3628 42 
Q 3188 -91 2688 -91 
Q 1594 -91 976 548 
Q 359 1188 359 2328 
Q 359 3472 976 4111 
Q 1594 4750 2688 4750 
Q 3144 4750 3555 4637 
Q 3966 4525 4313 4306 
L 4313 3634 
Q 3963 3931 3569 4081 
Q 3175 4231 2741 4231 
Q 1884 4231 1454 3753 
Q 1025 3275 1025 2328 
Q 1025 1384 1454 906 
Q 1884 428 2741 428 
Q 3075 428 3337 486 
Q 3600 544 3809 666 
z
" transform="scale(0.015625)"/>
       <path id="DejaVuSans-65" d="M 3597 1894 
L 3597 1613 
L 953 1613 
Q 991 1019 1311 708 
Q 1631 397 2203 397 
Q 2534 397 2845 478 
Q 3156 559 3463 722 
L 3463 178 
Q 3153 47 2828 -22 
Q 2503 -91 2169 -91 
Q 1331 -91 842 396 
Q 353 884 353 1716 
Q 353 2575 817 3079 
Q 1281 3584 2069 3584 
Q 2775 3584 3186 3129 
Q 3597 2675 3597 1894 
z
M 3022 2063 
Q 3016 2534 2758 2815 
Q 2500 3097 2075 3097 
Q 1594 3097 1305 2825 
Q 1016 2553 972 2059 
L 3022 2063 
z
" transform="scale(0.015625)"/>
       <path id="DejaVuSans-6e" d="M 3513 2113 
L 3513 0 
L 2938 0 
L 2938 2094 
Q 2938 2591 2744 2837 
Q 2550 3084 2163 3084 
Q 1697 3084 1428 2787 
Q 1159 2491 1159 1978 
L 1159 0 
L 581 0 
L 581 3500 
L 1159 3500 
L 1159 2956 
Q 1366 3272 1645 3428 
Q 1925 3584 2291 3584 
Q 2894 3584 3203 3211 
Q 3513 2838 3513 2113 
z
" transform="scale(0.015625)"/>
       <path id="DejaVuSans-72" d="M 2631 2963 
Q 2534 3019 2420 3045 
Q 2306 3072 2169 3072 
Q 1681 3072 1420 2755 
Q 1159 2438 1159 1844 
L 1159 0 
L 581 0 
L 581 3500 
L 1159 3500 
L 1159 2956 
Q 1341 3275 1631 3429 
Q 1922 3584 2338 3584 
Q 2397 3584 2469 3576 
Q 2541 3569 2628 3553 
L 2631 2963 
z
" transform="scale(0.015625)"/>
       <path id="DejaVuSans-61" d="M 2194 1759 
Q 1497 1759 1228 1600 
Q 959 1441 959 1056 
Q 959 750 1161 570 
Q 1363 391 1709 391 
Q 2188 391 2477 730 
Q 2766 1069 2766 1631 
L 2766 1759 
L 2194 1759 
z
M 3341 1997 
L 3341 0 
L 2766 0 
L 2766 531 
Q 2569 213 2275 61 
Q 1981 -91 1556 -91 
Q 1019 -91 701 211 
Q 384 513 384 1019 
Q 384 1609 779 1909 
Q 1175 2209 1959 2209 
L 2766 2209 
L 2766 2266 
Q 2766 2663 2505 2880 
Q 2244 3097 1772 3097 
Q 1472 3097 1187 3025 
Q 903 2953 641 2809 
L 641 3341 
Q 956 3463 1253 3523 
Q 1550 3584 1831 3584 
Q 2591 3584 2966 3190 
Q 3341 2797 3341 1997 
z
" transform="scale(0.015625)"/>
       <path id="DejaVuSans-74" d="M 1172 4494 
L 1172 3500 
L 2356 3500 
L 2356 3053 
L 1172 3053 
L 1172 1153 
Q 1172 725 1289 603 
Q 1406 481 1766 481 
L 2356 481 
L 2356 0 
L 1766 0 
Q 1100 0 847 248 
Q 594 497 594 1153 
L 594 3053 
L 172 3053 
L 172 3500 
L 594 3500 
L 594 4494 
L 1172 4494 
z
" transform="scale(0.015625)"/>
       <path id="DejaVuSans-69" d="M 603 3500 
L 1178 3500 
L 1178 0 
L 603 0 
L 603 3500 
z
M 603 4863 
L 1178 4863 
L 1178 4134 
L 603 4134 
L 603 4863 
z
" transform="scale(0.015625)"/>
       <path id="DejaVuSans-6f" d="M 1959 3097 
Q 1497 3097 1228 2736 
Q 959 2375 959 1747 
Q 959 1119 1226 758 
Q 1494 397 1959 397 
Q 2419 397 2687 759 
Q 2956 1122 2956 1747 
Q 2956 2369 2687 2733 
Q 2419 3097 1959 3097 
z
M 1959 3584 
Q 2709 3584 3137 3096 
Q 3566 2609 3566 1747 
Q 3566 888 3137 398 
Q 2709 -91 1959 -91 
Q 1206 -91 779 398 
Q 353 888 353 1747 
Q 353 2609 779 3096 
Q 1206 3584 1959 3584 
z
" transform="scale(0.015625)"/>
       <path id="DejaVuSans-73" d="M 2834 3397 
L 2834 2853 
Q 2591 2978 2328 3040 
Q 2066 3103 1784 3103 
Q 1356 3103 1142 2972 
Q 928 2841 928 2578 
Q 928 2378 1081 2264 
Q 1234 2150 1697 2047 
L 1894 2003 
Q 2506 1872 2764 1633 
Q 3022 1394 3022 966 
Q 3022 478 2636 193 
Q 2250 -91 1575 -91 
Q 1294 -91 989 -36 
Q 684 19 347 128 
L 347 722 
Q 666 556 975 473 
Q 1284 391 1588 391 
Q 1994 391 2212 530 
Q 2431 669 2431 922 
Q 2431 1156 2273 1281 
Q 2116 1406 1581 1522 
L 1381 1569 
Q 847 1681 609 1914 
Q 372 2147 372 2553 
Q 372 3047 722 3315 
Q 1072 3584 1716 3584 
Q 2034 3584 2315 3537 
Q 2597 3491 2834 3397 
z
" transform="scale(0.015625)"/>
      </defs>
      <use xlink:href="#DejaVuSans-47"/>
      <use xlink:href="#DejaVuSans-65" x="77.490234"/>
      <use xlink:href="#DejaVuSans-6e" x="139.013672"/>
      <use xlink:href="#DejaVuSans-65" x="202.392578"/>
      <use xlink:href="#DejaVuSans-72" x="263.916016"/>
      <use xlink:href="#DejaVuSans-61" x="305.029297"/>
      <use xlink:href="#DejaVuSans-74" x="366.308594"/>
      <use xlink:href="#DejaVuSans-69" x="405.517578"/>
      <use xlink:href="#DejaVuSans-6f" x="433.300781"/>
      <use xlink:href="#DejaVuSans-6e" x="494.482422"/>
      <use xlink:href="#DejaVuSans-73" x="557.861328"/>
     </g>
    </g>
   </g>
   <g id="matplotlib.axis_2">
    <g id="ytick_1">
     <g id="line2d_63">
      <path d="M 48.039375 247.537565 
L 382.839375 247.537565 
" clip-path="url(#p6f981a45bb)" style="fill: none; stroke: #b0b0b0; stroke-width: 0.5; stroke-linecap: square"/>
     </g>
     <g id="line2d_64">
      <defs>
       <path id="md7ffe34c30" d="M 0 0 
L 3 0 
" style="stroke: #000000; stroke-width: 0.5"/>
      </defs>
      <g>
       <use xlink:href="#md7ffe34c30" x="48.039375" y="247.537565" style="stroke: #000000; stroke-width: 0.5"/>
      </g>
     </g>
     <g id="line2d_65">
      <defs>
       <path id="md41046811d" d="M 0 0 
L -3 0 
" style="stroke: #000000; stroke-width: 0.5"/>
      </defs>
      <g>
       <use xlink:href="#md41046811d" x="382.839375" y="247.537565" style="stroke: #000000; stroke-width: 0.5"/>
      </g>
     </g>
     <g id="text_8">
      <!-- −10 -->
      <g transform="translate(19.21375 252.096628) scale(0.12 -0.12)">
       <defs>
        <path id="DejaVuSans-2212" d="M 678 2272 
L 4684 2272 
L 4684 1741 
L 678 1741 
L 678 2272 
z
" transform="scale(0.015625)"/>
       </defs>
       <use xlink:href="#DejaVuSans-2212"/>
       <use xlink:href="#DejaVuSans-31" x="83.789062"/>
       <use xlink:href="#DejaVuSans-30" x="147.412109"/>
      </g>
     </g>
    </g>
    <g id="ytick_2">
     <g id="line2d_66">
      <path d="M 48.039375 213.340636 
L 382.839375 213.340636 
" clip-path="url(#p6f981a45bb)" style="fill: none; stroke: #b0b0b0; stroke-width: 0.5; stroke-linecap: square"/>
     </g>
     <g id="line2d_67">
      <g>
       <use xlink:href="#md7ffe34c30" x="48.039375" y="213.340636" style="stroke: #000000; stroke-width: 0.5"/>
      </g>
     </g>
     <g id="line2d_68">
      <g>
       <use xlink:href="#md41046811d" x="382.839375" y="213.340636" style="stroke: #000000; stroke-width: 0.5"/>
      </g>
     </g>
     <g id="text_9">
      <!-- −5 -->
      <g transform="translate(26.84875 217.899699) scale(0.12 -0.12)">
       <use xlink:href="#DejaVuSans-2212"/>
       <use xlink:href="#DejaVuSans-35" x="83.789062"/>
      </g>
     </g>
    </g>
    <g id="ytick_3">
     <g id="line2d_69">
      <path d="M 48.039375 179.143707 
L 382.839375 179.143707 
" clip-path="url(#p6f981a45bb)" style="fill: none; stroke: #b0b0b0; stroke-width: 0.5; stroke-linecap: square"/>
     </g>
     <g id="line2d_70">
      <g>
       <use xlink:href="#md7ffe34c30" x="48.039375" y="179.143707" style="stroke: #000000; stroke-width: 0.5"/>
      </g>
     </g>
     <g id="line2d_71">
      <g>
       <use xlink:href="#md41046811d" x="382.839375" y="179.143707" style="stroke: #000000; stroke-width: 0.5"/>
      </g>
     </g>
     <g id="text_10">
      <!-- 0 -->
      <g transform="translate(36.904375 183.70277) scale(0.12 -0.12)">
       <use xlink:href="#DejaVuSans-30"/>
      </g>
     </g>
    </g>
    <g id="ytick_4">
     <g id="line2d_72">
      <path d="M 48.039375 144.946778 
L 382.839375 144.946778 
" clip-path="url(#p6f981a45bb)" style="fill: none; stroke: #b0b0b0; stroke-width: 0.5; stroke-linecap: square"/>
     </g>
     <g id="line2d_73">
      <g>
       <use xlink:href="#md7ffe34c30" x="48.039375" y="144.946778" style="stroke: #000000; stroke-width: 0.5"/>
      </g>
     </g>
     <g id="line2d_74">
      <g>
       <use xlink:href="#md41046811d" x="382.839375" y="144.946778" style="stroke: #000000; stroke-width: 0.5"/>
      </g>
     </g>
     <g id="text_11">
      <!-- 5 -->
      <g transform="translate(36.904375 149.505841) scale(0.12 -0.12)">
       <use xlink:href="#DejaVuSans-35"/>
      </g>
     </g>
    </g>
    <g id="ytick_5">
     <g id="line2d_75">
      <path d="M 48.039375 110.749849 
L 382.839375 110.749849 
" clip-path="url(#p6f981a45bb)" style="fill: none; stroke: #b0b0b0; stroke-width: 0.5; stroke-linecap: square"/>
     </g>
     <g id="line2d_76">
      <g>
       <use xlink:href="#md7ffe34c30" x="48.039375" y="110.749849" style="stroke: #000000; stroke-width: 0.5"/>
      </g>
     </g>
     <g id="line2d_77">
      <g>
       <use xlink:href="#md41046811d" x="382.839375" y="110.749849" style="stroke: #000000; stroke-width: 0.5"/>
      </g>
     </g>
     <g id="text_12">
      <!-- 10 -->
      <g transform="translate(29.269375 115.308912) scale(0.12 -0.12)">
       <use xlink:href="#DejaVuSans-31"/>
       <use xlink:href="#DejaVuSans-30" x="63.623047"/>
      </g>
     </g>
    </g>
    <g id="ytick_6">
     <g id="line2d_78">
      <path d="M 48.039375 76.55292 
L 382.839375 76.55292 
" clip-path="url(#p6f981a45bb)" style="fill: none; stroke: #b0b0b0; stroke-width: 0.5; stroke-linecap: square"/>
     </g>
     <g id="line2d_79">
      <g>
       <use xlink:href="#md7ffe34c30" x="48.039375" y="76.55292" style="stroke: #000000; stroke-width: 0.5"/>
      </g>
     </g>
     <g id="line2d_80">
      <g>
       <use xlink:href="#md41046811d" x="382.839375" y="76.55292" style="stroke: #000000; stroke-width: 0.5"/>
      </g>
     </g>
     <g id="text_13">
      <!-- 15 -->
      <g transform="translate(29.269375 81.111983) scale(0.12 -0.12)">
       <use xlink:href="#DejaVuSans-31"/>
       <use xlink:href="#DejaVuSans-35" x="63.623047"/>
      </g>
     </g>
    </g>
    <g id="ytick_7">
     <g id="line2d_81">
      <path d="M 48.039375 42.355991 
L 382.839375 42.355991 
" clip-path="url(#p6f981a45bb)" style="fill: none; stroke: #b0b0b0; stroke-width: 0.5; stroke-linecap: square"/>
     </g>
     <g id="line2d_82">
      <g>
       <use xlink:href="#md7ffe34c30" x="48.039375" y="42.355991" style="stroke: #000000; stroke-width: 0.5"/>
      </g>
     </g>
     <g id="line2d_83">
      <g>
       <use xlink:href="#md41046811d" x="382.839375" y="42.355991" style="stroke: #000000; stroke-width: 0.5"/>
      </g>
     </g>
     <g id="text_14">
      <!-- 20 -->
      <g transform="translate(29.269375 46.915054) scale(0.12 -0.12)">
       <use xlink:href="#DejaVuSans-32"/>
       <use xlink:href="#DejaVuSans-30" x="63.623047"/>
      </g>
     </g>
    </g>
    <g id="ytick_8">
     <g id="line2d_84">
      <path d="M 48.039375 8.159062 
L 382.839375 8.159062 
" clip-path="url(#p6f981a45bb)" style="fill: none; stroke: #b0b0b0; stroke-width: 0.5; stroke-linecap: square"/>
     </g>
     <g id="line2d_85">
      <g>
       <use xlink:href="#md7ffe34c30" x="48.039375" y="8.159062" style="stroke: #000000; stroke-width: 0.5"/>
      </g>
     </g>
     <g id="line2d_86">
      <g>
       <use xlink:href="#md41046811d" x="382.839375" y="8.159062" style="stroke: #000000; stroke-width: 0.5"/>
      </g>
     </g>
     <g id="text_15">
      <!-- 25 -->
      <g transform="translate(29.269375 12.718125) scale(0.12 -0.12)">
       <use xlink:href="#DejaVuSans-32"/>
       <use xlink:href="#DejaVuSans-35" x="63.623047"/>
      </g>
     </g>
    </g>
    <g id="ytick_9">
     <g id="line2d_87">
      <defs>
       <path id="m8e7e5feb30" d="M 0 0 
L 1.5 0 
" style="stroke: #000000; stroke-width: 0.5"/>
      </defs>
      <g>
       <use xlink:href="#m8e7e5feb30" x="48.039375" y="254.376951" style="stroke: #000000; stroke-width: 0.5"/>
      </g>
     </g>
     <g id="line2d_88">
      <defs>
       <path id="m2bf4deae37" d="M 0 0 
L -1.5 0 
" style="stroke: #000000; stroke-width: 0.5"/>
      </defs>
      <g>
       <use xlink:href="#m2bf4deae37" x="382.839375" y="254.376951" style="stroke: #000000; stroke-width: 0.5"/>
      </g>
     </g>
    </g>
    <g id="ytick_10">
     <g id="line2d_89">
      <g>
       <use xlink:href="#m8e7e5feb30" x="48.039375" y="240.698179" style="stroke: #000000; stroke-width: 0.5"/>
      </g>
     </g>
     <g id="line2d_90">
      <g>
       <use xlink:href="#m2bf4deae37" x="382.839375" y="240.698179" style="stroke: #000000; stroke-width: 0.5"/>
      </g>
     </g>
    </g>
    <g id="ytick_11">
     <g id="line2d_91">
      <g>
       <use xlink:href="#m8e7e5feb30" x="48.039375" y="233.858794" style="stroke: #000000; stroke-width: 0.5"/>
      </g>
     </g>
     <g id="line2d_92">
      <g>
       <use xlink:href="#m2bf4deae37" x="382.839375" y="233.858794" style="stroke: #000000; stroke-width: 0.5"/>
      </g>
     </g>
    </g>
    <g id="ytick_12">
     <g id="line2d_93">
      <g>
       <use xlink:href="#m8e7e5feb30" x="48.039375" y="227.019408" style="stroke: #000000; stroke-width: 0.5"/>
      </g>
     </g>
     <g id="line2d_94">
      <g>
       <use xlink:href="#m2bf4deae37" x="382.839375" y="227.019408" style="stroke: #000000; stroke-width: 0.5"/>
      </g>
     </g>
    </g>
    <g id="ytick_13">
     <g id="line2d_95">
      <g>
       <use xlink:href="#m8e7e5feb30" x="48.039375" y="220.180022" style="stroke: #000000; stroke-width: 0.5"/>
      </g>
     </g>
     <g id="line2d_96">
      <g>
       <use xlink:href="#m2bf4deae37" x="382.839375" y="220.180022" style="stroke: #000000; stroke-width: 0.5"/>
      </g>
     </g>
    </g>
    <g id="ytick_14">
     <g id="line2d_97">
      <g>
       <use xlink:href="#m8e7e5feb30" x="48.039375" y="206.50125" style="stroke: #000000; stroke-width: 0.5"/>
      </g>
     </g>
     <g id="line2d_98">
      <g>
       <use xlink:href="#m2bf4deae37" x="382.839375" y="206.50125" style="stroke: #000000; stroke-width: 0.5"/>
      </g>
     </g>
    </g>
    <g id="ytick_15">
     <g id="line2d_99">
      <g>
       <use xlink:href="#m8e7e5feb30" x="48.039375" y="199.661865" style="stroke: #000000; stroke-width: 0.5"/>
      </g>
     </g>
     <g id="line2d_100">
      <g>
       <use xlink:href="#m2bf4deae37" x="382.839375" y="199.661865" style="stroke: #000000; stroke-width: 0.5"/>
      </g>
     </g>
    </g>
    <g id="ytick_16">
     <g id="line2d_101">
      <g>
       <use xlink:href="#m8e7e5feb30" x="48.039375" y="192.822479" style="stroke: #000000; stroke-width: 0.5"/>
      </g>
     </g>
     <g id="line2d_102">
      <g>
       <use xlink:href="#m2bf4deae37" x="382.839375" y="192.822479" style="stroke: #000000; stroke-width: 0.5"/>
      </g>
     </g>
    </g>
    <g id="ytick_17">
     <g id="line2d_103">
      <g>
       <use xlink:href="#m8e7e5feb30" x="48.039375" y="185.983093" style="stroke: #000000; stroke-width: 0.5"/>
      </g>
     </g>
     <g id="line2d_104">
      <g>
       <use xlink:href="#m2bf4deae37" x="382.839375" y="185.983093" style="stroke: #000000; stroke-width: 0.5"/>
      </g>
     </g>
    </g>
    <g id="ytick_18">
     <g id="line2d_105">
      <g>
       <use xlink:href="#m8e7e5feb30" x="48.039375" y="172.304321" style="stroke: #000000; stroke-width: 0.5"/>
      </g>
     </g>
     <g id="line2d_106">
      <g>
       <use xlink:href="#m2bf4deae37" x="382.839375" y="172.304321" style="stroke: #000000; stroke-width: 0.5"/>
      </g>
     </g>
    </g>
    <g id="ytick_19">
     <g id="line2d_107">
      <g>
       <use xlink:href="#m8e7e5feb30" x="48.039375" y="165.464936" style="stroke: #000000; stroke-width: 0.5"/>
      </g>
     </g>
     <g id="line2d_108">
      <g>
       <use xlink:href="#m2bf4deae37" x="382.839375" y="165.464936" style="stroke: #000000; stroke-width: 0.5"/>
      </g>
     </g>
    </g>
    <g id="ytick_20">
     <g id="line2d_109">
      <g>
       <use xlink:href="#m8e7e5feb30" x="48.039375" y="158.62555" style="stroke: #000000; stroke-width: 0.5"/>
      </g>
     </g>
     <g id="line2d_110">
      <g>
       <use xlink:href="#m2bf4deae37" x="382.839375" y="158.62555" style="stroke: #000000; stroke-width: 0.5"/>
      </g>
     </g>
    </g>
    <g id="ytick_21">
     <g id="line2d_111">
      <g>
       <use xlink:href="#m8e7e5feb30" x="48.039375" y="151.786164" style="stroke: #000000; stroke-width: 0.5"/>
      </g>
     </g>
     <g id="line2d_112">
      <g>
       <use xlink:href="#m2bf4deae37" x="382.839375" y="151.786164" style="stroke: #000000; stroke-width: 0.5"/>
      </g>
     </g>
    </g>
    <g id="ytick_22">
     <g id="line2d_113">
      <g>
       <use xlink:href="#m8e7e5feb30" x="48.039375" y="138.107393" style="stroke: #000000; stroke-width: 0.5"/>
      </g>
     </g>
     <g id="line2d_114">
      <g>
       <use xlink:href="#m2bf4deae37" x="382.839375" y="138.107393" style="stroke: #000000; stroke-width: 0.5"/>
      </g>
     </g>
    </g>
    <g id="ytick_23">
     <g id="line2d_115">
      <g>
       <use xlink:href="#m8e7e5feb30" x="48.039375" y="131.268007" style="stroke: #000000; stroke-width: 0.5"/>
      </g>
     </g>
     <g id="line2d_116">
      <g>
       <use xlink:href="#m2bf4deae37" x="382.839375" y="131.268007" style="stroke: #000000; stroke-width: 0.5"/>
      </g>
     </g>
    </g>
    <g id="ytick_24">
     <g id="line2d_117">
      <g>
       <use xlink:href="#m8e7e5feb30" x="48.039375" y="124.428621" style="stroke: #000000; stroke-width: 0.5"/>
      </g>
     </g>
     <g id="line2d_118">
      <g>
       <use xlink:href="#m2bf4deae37" x="382.839375" y="124.428621" style="stroke: #000000; stroke-width: 0.5"/>
      </g>
     </g>
    </g>
    <g id="ytick_25">
     <g id="line2d_119">
      <g>
       <use xlink:href="#m8e7e5feb30" x="48.039375" y="117.589235" style="stroke: #000000; stroke-width: 0.5"/>
      </g>
     </g>
     <g id="line2d_120">
      <g>
       <use xlink:href="#m2bf4deae37" x="382.839375" y="117.589235" style="stroke: #000000; stroke-width: 0.5"/>
      </g>
     </g>
    </g>
    <g id="ytick_26">
     <g id="line2d_121">
      <g>
       <use xlink:href="#m8e7e5feb30" x="48.039375" y="103.910464" style="stroke: #000000; stroke-width: 0.5"/>
      </g>
     </g>
     <g id="line2d_122">
      <g>
       <use xlink:href="#m2bf4deae37" x="382.839375" y="103.910464" style="stroke: #000000; stroke-width: 0.5"/>
      </g>
     </g>
    </g>
    <g id="ytick_27">
     <g id="line2d_123">
      <g>
       <use xlink:href="#m8e7e5feb30" x="48.039375" y="97.071078" style="stroke: #000000; stroke-width: 0.5"/>
      </g>
     </g>
     <g id="line2d_124">
      <g>
       <use xlink:href="#m2bf4deae37" x="382.839375" y="97.071078" style="stroke: #000000; stroke-width: 0.5"/>
      </g>
     </g>
    </g>
    <g id="ytick_28">
     <g id="line2d_125">
      <g>
       <use xlink:href="#m8e7e5feb30" x="48.039375" y="90.231692" style="stroke: #000000; stroke-width: 0.5"/>
      </g>
     </g>
     <g id="line2d_126">
      <g>
       <use xlink:href="#m2bf4deae37" x="382.839375" y="90.231692" style="stroke: #000000; stroke-width: 0.5"/>
      </g>
     </g>
    </g>
    <g id="ytick_29">
     <g id="line2d_127">
      <g>
       <use xlink:href="#m8e7e5feb30" x="48.039375" y="83.392306" style="stroke: #000000; stroke-width: 0.5"/>
      </g>
     </g>
     <g id="line2d_128">
      <g>
       <use xlink:href="#m2bf4deae37" x="382.839375" y="83.392306" style="stroke: #000000; stroke-width: 0.5"/>
      </g>
     </g>
    </g>
    <g id="ytick_30">
     <g id="line2d_129">
      <g>
       <use xlink:href="#m8e7e5feb30" x="48.039375" y="69.713535" style="stroke: #000000; stroke-width: 0.5"/>
      </g>
     </g>
     <g id="line2d_130">
      <g>
       <use xlink:href="#m2bf4deae37" x="382.839375" y="69.713535" style="stroke: #000000; stroke-width: 0.5"/>
      </g>
     </g>
    </g>
    <g id="ytick_31">
     <g id="line2d_131">
      <g>
       <use xlink:href="#m8e7e5feb30" x="48.039375" y="62.874149" style="stroke: #000000; stroke-width: 0.5"/>
      </g>
     </g>
     <g id="line2d_132">
      <g>
       <use xlink:href="#m2bf4deae37" x="382.839375" y="62.874149" style="stroke: #000000; stroke-width: 0.5"/>
      </g>
     </g>
    </g>
    <g id="ytick_32">
     <g id="line2d_133">
      <g>
       <use xlink:href="#m8e7e5feb30" x="48.039375" y="56.034763" style="stroke: #000000; stroke-width: 0.5"/>
      </g>
     </g>
     <g id="line2d_134">
      <g>
       <use xlink:href="#m2bf4deae37" x="382.839375" y="56.034763" style="stroke: #000000; stroke-width: 0.5"/>
      </g>
     </g>
    </g>
    <g id="ytick_33">
     <g id="line2d_135">
      <g>
       <use xlink:href="#m8e7e5feb30" x="48.039375" y="49.195377" style="stroke: #000000; stroke-width: 0.5"/>
      </g>
     </g>
     <g id="line2d_136">
      <g>
       <use xlink:href="#m2bf4deae37" x="382.839375" y="49.195377" style="stroke: #000000; stroke-width: 0.5"/>
      </g>
     </g>
    </g>
    <g id="ytick_34">
     <g id="line2d_137">
      <g>
       <use xlink:href="#m8e7e5feb30" x="48.039375" y="35.516606" style="stroke: #000000; stroke-width: 0.5"/>
      </g>
     </g>
     <g id="line2d_138">
      <g>
       <use xlink:href="#m2bf4deae37" x="382.839375" y="35.516606" style="stroke: #000000; stroke-width: 0.5"/>
      </g>
     </g>
    </g>
    <g id="ytick_35">
     <g id="line2d_139">
      <g>
       <use xlink:href="#m8e7e5feb30" x="48.039375" y="28.67722" style="stroke: #000000; stroke-width: 0.5"/>
      </g>
     </g>
     <g id="line2d_140">
      <g>
       <use xlink:href="#m2bf4deae37" x="382.839375" y="28.67722" style="stroke: #000000; stroke-width: 0.5"/>
      </g>
     </g>
    </g>
    <g id="ytick_36">
     <g id="line2d_141">
      <g>
       <use xlink:href="#m8e7e5feb30" x="48.039375" y="21.837834" style="stroke: #000000; stroke-width: 0.5"/>
      </g>
     </g>
     <g id="line2d_142">
      <g>
       <use xlink:href="#m2bf4deae37" x="382.839375" y="21.837834" style="stroke: #000000; stroke-width: 0.5"/>
      </g>
     </g>
    </g>
    <g id="ytick_37">
     <g id="line2d_143">
      <g>
       <use xlink:href="#m8e7e5feb30" x="48.039375" y="14.998448" style="stroke: #000000; stroke-width: 0.5"/>
      </g>
     </g>
     <g id="line2d_144">
      <g>
       <use xlink:href="#m2bf4deae37" x="382.839375" y="14.998448" style="stroke: #000000; stroke-width: 0.5"/>
      </g>
     </g>
    </g>
    <g id="text_16">
     <!-- Fitness -->
     <g transform="translate(12.718125 152.129918) rotate(-90) scale(0.12 -0.12)">
      <defs>
       <path id="DejaVuSans-46" d="M 628 4666 
L 3309 4666 
L 3309 4134 
L 1259 4134 
L 1259 2759 
L 3109 2759 
L 3109 2228 
L 1259 2228 
L 1259 0 
L 628 0 
L 628 4666 
z
" transform="scale(0.015625)"/>
      </defs>
      <use xlink:href="#DejaVuSans-46"/>
      <use xlink:href="#DejaVuSans-69" x="50.269531"/>
      <use xlink:href="#DejaVuSans-74" x="78.052734"/>
      <use xlink:href="#DejaVuSans-6e" x="117.261719"/>
      <use xlink:href="#DejaVuSans-65" x="180.640625"/>
      <use xlink:href="#DejaVuSans-73" x="242.164062"/>
      <use xlink:href="#DejaVuSans-73" x="294.263672"/>
     </g>
    </g>
   </g>
   <g id="line2d_145">
    <path d="M 63.257557 60.67736 
L 65.697345 60.677774 
L 66.307293 43.084416 
L 68.747081 43.07886 
L 69.357028 40.423448 
L 74.236606 40.420499 
L 75.4565 37.666458 
L 77.286342 37.664136 
L 77.896289 31.973084 
L 84.605708 31.964566 
L 85.215655 30.929782 
L 87.045496 30.830262 
L 87.655444 30.56746 
L 88.875338 30.566888 
L 89.485285 29.87512 
L 91.925074 29.873912 
L 92.535021 29.329513 
L 98.634493 29.329298 
L 99.24444 28.794296 
L 152.91979 28.762273 
L 153.529738 28.294953 
L 154.749632 28.293635 
L 155.359579 27.590389 
L 163.288892 27.489045 
L 163.898839 26.926283 
L 175.487836 26.925861 
L 176.097783 26.783536 
L 179.757466 26.673198 
L 180.367413 26.460945 
L 191.956409 26.383721 
L 192.566356 25.658254 
L 194.396198 25.658532 
L 196.226039 25.306971 
L 199.885722 25.212571 
L 200.495669 24.909434 
L 201.715564 24.908722 
L 202.325511 24.704446 
L 220.623926 24.684953 
L 221.233873 23.891787 
L 223.063715 23.886129 
L 223.673662 23.660314 
L 224.283609 22.981795 
L 240.142235 22.862027 
L 240.752182 22.634378 
L 248.681496 22.63429 
L 249.291443 22.483027 
L 283.448484 22.365774 
L 284.058431 21.950476 
L 286.49822 21.950117 
L 287.108167 21.780849 
L 288.328061 21.778493 
L 288.938009 20.874587 
L 294.427533 20.874558 
L 295.03748 19.69815 
L 315.775684 19.640309 
L 316.385631 18.979476 
L 336.513888 18.909379 
L 337.733782 18.811414 
L 338.953676 18.811674 
L 339.563623 18.686493 
L 342.003412 18.685187 
L 342.613359 18.564052 
L 344.443201 18.564452 
L 345.053148 18.354547 
L 349.322778 18.350555 
L 349.932725 18.229193 
L 357.252091 18.125641 
L 358.471986 18.061057 
L 367.621193 17.949293 
L 367.621193 17.949293 
" clip-path="url(#p6f981a45bb)" style="fill: none; stroke: #000000; stroke-linecap: square"/>
   </g>
   <g id="line2d_146">
    <path d="M 63.257557 178.225347 
L 63.867504 185.420988 
L 65.087398 164.40485 
L 65.697345 167.20298 
L 66.307293 155.634914 
L 66.91724 153.519063 
L 67.527187 153.44651 
L 68.747081 159.48732 
L 69.357028 160.666517 
L 69.966976 151.264487 
L 70.576923 145.09615 
L 71.18687 140.489903 
L 71.796817 132.509481 
L 72.406764 139.167157 
L 73.016711 134.66539 
L 73.626659 129.252953 
L 74.236606 117.529493 
L 74.846553 117.203917 
L 75.4565 116.72643 
L 76.066447 109.849867 
L 76.676394 112.455413 
L 77.286342 99.044599 
L 77.896289 101.807189 
L 78.506236 99.577668 
L 79.116183 84.633498 
L 79.72613 80.784098 
L 80.336077 83.407844 
L 80.946025 83.152443 
L 81.555972 74.31072 
L 82.165919 61.113612 
L 82.775866 60.04789 
L 83.385813 60.994163 
L 83.99576 67.099224 
L 84.605708 66.813925 
L 85.215655 52.856189 
L 85.825602 52.990779 
L 86.435549 43.421043 
L 87.045496 43.645301 
L 87.655444 49.699055 
L 88.265391 45.951173 
L 88.875338 41.436649 
L 89.485285 38.369015 
L 90.095232 39.738916 
L 90.705179 46.268073 
L 91.315127 40.69597 
L 92.535021 40.681632 
L 93.144968 40.925689 
L 93.754915 36.910986 
L 94.364862 37.54966 
L 94.97481 34.859976 
L 95.584757 33.861822 
L 96.194704 33.742096 
L 96.804651 37.006443 
L 98.024545 46.314233 
L 98.634493 48.61994 
L 99.24444 48.107082 
L 99.854387 49.568274 
L 100.464334 42.158693 
L 101.074281 40.583523 
L 101.684228 37.485056 
L 102.294176 39.766657 
L 102.904123 37.342117 
L 103.51407 36.982788 
L 104.124017 38.561049 
L 104.733964 39.685373 
L 105.343911 35.998647 
L 105.953859 36.566235 
L 106.563806 35.488769 
L 107.7837 41.77762 
L 108.393647 38.338155 
L 109.003594 43.588335 
L 109.613542 41.082434 
L 110.223489 41.600745 
L 111.443383 37.23393 
L 112.05333 37.754546 
L 112.663277 36.442838 
L 113.273225 36.557973 
L 114.493119 32.015491 
L 115.103066 39.746395 
L 115.713013 38.833241 
L 116.32296 41.713141 
L 116.932908 42.457003 
L 117.542855 36.760787 
L 118.152802 41.746921 
L 118.762749 50.521942 
L 119.372696 38.977202 
L 119.982643 35.555064 
L 120.592591 35.300535 
L 121.202538 39.987141 
L 121.812485 41.957858 
L 122.422432 46.780564 
L 123.032379 42.712335 
L 123.642326 45.06458 
L 124.252274 45.30347 
L 124.862221 43.10726 
L 125.472168 38.897668 
L 126.082115 38.954718 
L 126.692062 39.329176 
L 127.302009 35.768971 
L 127.911957 37.078835 
L 128.521904 39.304699 
L 129.131851 43.191471 
L 129.741798 43.485578 
L 130.351745 43.449761 
L 130.961692 44.954845 
L 131.57164 45.26276 
L 132.181587 48.756713 
L 132.791534 48.251845 
L 133.401481 47.512708 
L 134.011428 49.32605 
L 134.621375 49.330877 
L 135.231323 51.963435 
L 135.84127 48.013002 
L 136.451217 41.029882 
L 137.061164 37.983038 
L 137.671111 37.482371 
L 138.281058 39.514261 
L 138.891006 37.601189 
L 139.500953 40.395393 
L 140.1109 35.233667 
L 140.720847 36.995263 
L 141.940741 31.550832 
L 142.550689 34.955747 
L 143.160636 37.379359 
L 143.770583 38.025326 
L 144.38053 39.797511 
L 144.990477 37.380261 
L 145.600424 36.377021 
L 146.210372 34.391267 
L 146.820319 33.927928 
L 147.430266 37.968978 
L 148.040213 34.350104 
L 148.65016 37.982485 
L 149.260107 40.332064 
L 150.480002 39.099294 
L 151.089949 36.727752 
L 151.699896 36.701927 
L 152.309843 46.321576 
L 152.91979 39.191824 
L 153.529738 36.682134 
L 154.139685 37.147812 
L 154.749632 33.536762 
L 155.359579 33.092894 
L 155.969526 29.888277 
L 156.579473 30.185808 
L 157.189421 32.616672 
L 157.799368 45.493571 
L 158.409315 40.986951 
L 159.019262 37.905229 
L 159.629209 36.813783 
L 160.239156 35.257372 
L 160.849104 36.867949 
L 161.459051 40.496523 
L 162.068998 40.375762 
L 162.678945 41.795897 
L 163.288892 36.436275 
L 164.508787 43.292456 
L 165.118734 41.499062 
L 165.728681 37.825796 
L 166.338628 39.675412 
L 167.558522 40.91781 
L 168.16847 39.961956 
L 168.778417 42.579745 
L 169.388364 39.04792 
L 169.998311 38.459625 
L 170.608258 34.67562 
L 171.218205 36.745589 
L 171.828153 34.883899 
L 173.048047 38.242598 
L 173.657994 44.002482 
L 174.267941 47.265121 
L 174.877888 48.968429 
L 175.487836 47.349121 
L 176.097783 48.660301 
L 176.70773 42.00175 
L 177.317677 37.560151 
L 177.927624 36.118353 
L 178.537571 35.13575 
L 179.147519 34.679193 
L 179.757466 32.956869 
L 180.367413 32.259912 
L 180.97736 34.353352 
L 181.587307 32.012027 
L 182.197254 37.390782 
L 182.807202 38.804491 
L 183.417149 42.088777 
L 184.637043 34.115268 
L 185.24699 31.006101 
L 185.856937 37.138896 
L 186.466885 35.400824 
L 187.686779 40.872325 
L 188.296726 36.088166 
L 189.51662 45.159898 
L 190.126568 39.35574 
L 190.736515 36.448613 
L 191.346462 37.674277 
L 191.956409 39.788445 
L 192.566356 34.796516 
L 193.176303 32.214864 
L 193.786251 33.64191 
L 194.396198 31.677487 
L 195.006145 32.448902 
L 195.616092 38.903833 
L 196.226039 37.401322 
L 196.835986 37.609507 
L 197.445934 35.657927 
L 198.055881 36.019246 
L 198.665828 37.471661 
L 199.275775 37.964981 
L 199.885722 36.683944 
L 200.495669 38.509774 
L 201.105617 38.839244 
L 201.715564 41.100651 
L 202.325511 36.701667 
L 203.545405 41.586239 
L 204.155352 41.325046 
L 204.7653 42.028892 
L 205.375247 35.69725 
L 205.985194 34.144853 
L 206.595141 36.767686 
L 207.205088 31.34516 
L 207.815035 37.01117 
L 208.424983 32.237408 
L 209.03493 35.018508 
L 209.644877 33.136791 
L 210.254824 32.22334 
L 210.864771 33.973802 
L 212.084666 51.666564 
L 212.694613 44.564444 
L 213.30456 43.927055 
L 213.914507 40.836485 
L 214.524454 43.077524 
L 215.134401 46.16039 
L 215.744349 41.91422 
L 216.354296 32.558921 
L 216.964243 32.256544 
L 217.57419 38.275703 
L 218.184137 35.509584 
L 218.794084 38.865787 
L 219.404032 38.546857 
L 220.013979 44.615788 
L 220.623926 38.259362 
L 221.233873 37.759323 
L 221.84382 45.159925 
L 222.453767 41.195779 
L 223.063715 47.274153 
L 223.673662 38.527007 
L 224.283609 36.361416 
L 224.893556 37.850392 
L 225.503503 34.61486 
L 226.11345 38.372921 
L 226.723398 34.285211 
L 227.333345 39.463476 
L 228.553239 41.999222 
L 229.163186 40.86055 
L 229.773133 38.814465 
L 230.383081 34.489579 
L 230.993028 34.287729 
L 231.602975 38.093579 
L 232.212922 38.127983 
L 232.822869 36.603533 
L 233.432816 36.269307 
L 234.042764 42.054653 
L 234.652711 36.652143 
L 235.262658 39.073578 
L 235.872605 40.005823 
L 236.482552 47.974558 
L 237.092499 52.139866 
L 237.702447 49.145657 
L 238.312394 47.725352 
L 238.922341 48.269603 
L 239.532288 50.184586 
L 240.142235 48.204617 
L 240.752182 39.382678 
L 241.36213 45.31466 
L 241.972077 44.409695 
L 242.582024 35.073179 
L 243.191971 37.777634 
L 244.411865 49.234848 
L 245.021813 50.068329 
L 245.63176 48.845608 
L 246.241707 46.99668 
L 246.851654 44.710154 
L 247.461601 40.395914 
L 248.071548 43.471234 
L 248.681496 36.892415 
L 249.291443 36.66989 
L 249.90139 42.297855 
L 250.511337 38.962191 
L 251.121284 37.107429 
L 251.731231 39.109679 
L 252.341179 37.371543 
L 252.951126 32.211512 
L 253.561073 33.30714 
L 254.17102 33.87253 
L 255.390914 30.798437 
L 256.000862 31.152073 
L 256.610809 31.757018 
L 257.220756 31.633716 
L 257.830703 29.724594 
L 259.050597 34.405488 
L 259.660545 35.661461 
L 260.270492 34.163666 
L 260.880439 26.558031 
L 261.490386 27.219298 
L 262.100333 29.220443 
L 262.71028 28.719424 
L 263.320228 32.952147 
L 263.930175 35.639881 
L 264.540122 29.423101 
L 265.150069 27.636995 
L 265.760016 27.403548 
L 266.369963 26.818449 
L 266.979911 33.363074 
L 267.589858 33.687628 
L 268.199805 33.777659 
L 268.809752 32.461623 
L 269.419699 33.119688 
L 270.029646 37.816948 
L 270.639594 36.063392 
L 271.249541 34.979997 
L 271.859488 36.26555 
L 272.469435 35.555266 
L 273.079382 37.831664 
L 273.689329 31.936318 
L 274.299277 33.370012 
L 274.909224 33.451256 
L 275.519171 32.955691 
L 276.129118 32.662037 
L 276.739065 27.342725 
L 277.349012 32.775767 
L 277.95896 27.944724 
L 278.568907 26.905652 
L 279.178854 35.769079 
L 279.788801 30.972374 
L 280.398748 32.0006 
L 281.008695 30.509525 
L 282.22859 36.013193 
L 282.838537 38.429046 
L 283.448484 44.443633 
L 284.058431 41.781058 
L 284.668378 43.84575 
L 285.278326 41.544808 
L 285.888273 41.166215 
L 286.49822 38.51513 
L 287.108167 42.582647 
L 287.718114 36.594232 
L 288.328061 36.89263 
L 288.938009 33.884099 
L 289.547956 33.883246 
L 290.157903 37.269156 
L 290.76785 31.197049 
L 291.377797 27.772031 
L 291.987744 32.247667 
L 292.597692 30.551382 
L 293.207639 29.318846 
L 293.817586 32.258695 
L 294.427533 38.681187 
L 295.03748 43.317392 
L 295.647427 45.819016 
L 296.257375 40.027093 
L 296.867322 48.082207 
L 297.477269 47.66358 
L 298.087216 48.109471 
L 298.697163 38.692807 
L 299.30711 40.262362 
L 299.917058 36.345256 
L 300.527005 35.566472 
L 301.136952 34.491804 
L 301.746899 31.015984 
L 302.356846 37.634707 
L 302.966793 39.99784 
L 303.576741 33.488331 
L 304.186688 37.801012 
L 304.796635 43.358586 
L 305.406582 42.944405 
L 306.016529 47.96022 
L 306.626476 48.765813 
L 307.236424 47.226914 
L 307.846371 40.946433 
L 308.456318 40.130844 
L 309.066265 36.149337 
L 309.676212 34.053015 
L 310.286159 33.710742 
L 310.896107 31.347168 
L 311.506054 31.589348 
L 312.116001 31.367762 
L 312.725948 32.767038 
L 313.335895 31.325266 
L 313.945842 31.299084 
L 314.55579 30.860888 
L 315.165737 29.541966 
L 315.775684 32.127756 
L 316.385631 35.329095 
L 316.995578 33.999875 
L 317.605525 33.726439 
L 318.215473 36.653869 
L 318.82542 35.830055 
L 319.435367 34.036181 
L 320.655261 28.208471 
L 321.265208 32.69999 
L 321.875156 34.506216 
L 322.485103 34.985723 
L 323.09505 34.055111 
L 323.704997 37.61583 
L 324.314944 31.651404 
L 324.924891 32.390504 
L 325.534839 35.298654 
L 326.144786 40.696399 
L 326.754733 38.474511 
L 327.36468 46.583875 
L 327.974627 34.382777 
L 328.584574 35.499785 
L 329.194522 30.626825 
L 329.804469 28.080984 
L 330.414416 30.176372 
L 331.024363 26.347044 
L 332.244257 31.357661 
L 332.854205 29.084896 
L 333.464152 33.831925 
L 334.074099 25.128859 
L 334.684046 26.704028 
L 335.293993 28.634642 
L 335.90394 26.623568 
L 336.513888 33.267916 
L 337.733782 26.166662 
L 338.343729 25.591505 
L 338.953676 22.457379 
L 339.563623 32.822229 
L 340.173571 30.795801 
L 340.783518 26.5935 
L 341.393465 28.272102 
L 342.003412 25.845222 
L 342.613359 27.147741 
L 343.223306 30.710775 
L 343.833254 27.776453 
L 344.443201 26.336647 
L 345.053148 26.444062 
L 345.663095 27.770083 
L 346.273042 28.420492 
L 346.88299 35.823494 
L 347.492937 30.934546 
L 348.102884 30.058755 
L 348.712831 30.770862 
L 349.322778 26.254026 
L 349.932725 22.683689 
L 350.542673 30.657119 
L 351.15262 36.384753 
L 351.762567 31.383234 
L 352.372514 30.425429 
L 352.982461 32.161857 
L 353.592408 31.125975 
L 354.202356 39.731119 
L 354.812303 30.404736 
L 355.42225 37.60371 
L 356.032197 37.623702 
L 356.642144 41.029519 
L 357.252091 38.342294 
L 357.862039 34.963495 
L 358.471986 33.745274 
L 359.081933 27.490441 
L 359.69188 27.240662 
L 360.301827 33.325371 
L 360.911774 35.039718 
L 361.521722 43.873362 
L 362.131669 37.815098 
L 362.741616 41.905559 
L 363.351563 36.042531 
L 363.96151 35.69355 
L 364.571457 35.543199 
L 365.181405 40.688054 
L 365.791352 37.911452 
L 366.401299 26.00005 
L 367.011246 26.792299 
L 367.621193 30.6778 
L 367.621193 30.6778 
" clip-path="url(#p6f981a45bb)" style="fill: none; stroke-dasharray: 3.7,1.6; stroke-dashoffset: 0; stroke: #000000"/>
   </g>
   <g id="patch_3">
    <path d="M 48.039375 256.089293 
L 48.039375 6.609293 
" style="fill: none; stroke: #000000; stroke-width: 0.5; stroke-linejoin: miter; stroke-linecap: square"/>
   </g>
   <g id="patch_4">
    <path d="M 382.839375 256.089293 
L 382.839375 6.609293 
" style="fill: none; stroke: #000000; stroke-width: 0.5; stroke-linejoin: miter; stroke-linecap: square"/>
   </g>
   <g id="patch_5">
    <path d="M 48.039375 256.089293 
L 382.839375 256.089293 
" style="fill: none; stroke: #000000; stroke-width: 0.5; stroke-linejoin: miter; stroke-linecap: square"/>
   </g>
   <g id="patch_6">
    <path d="M 48.039375 6.609293 
L 382.839375 6.609293 
" style="fill: none; stroke: #000000; stroke-width: 0.5; stroke-linejoin: miter; stroke-linecap: square"/>
   </g>
   <g id="legend_1">
    <g id="patch_7">
     <path d="M 256.633125 250.089293 
L 374.439375 250.089293 
Q 376.839375 250.089293 376.839375 247.689293 
L 376.839375 196.048043 
Q 376.839375 193.648043 374.439375 193.648043 
L 256.633125 193.648043 
Q 254.233125 193.648043 254.233125 196.048043 
L 254.233125 247.689293 
Q 254.233125 250.089293 256.633125 250.089293 
z
" style="fill: #ffffff; opacity: 0.8; stroke: #cccccc; stroke-linejoin: miter"/>
    </g>
    <g id="line2d_147">
     <path d="M 259.033125 203.366168 
L 271.033125 203.366168 
L 283.033125 203.366168 
" style="fill: none; stroke: #000000; stroke-linecap: square"/>
    </g>
    <g id="text_17">
     <!-- Max fitness -->
     <g transform="translate(292.633125 207.566168) scale(0.12 -0.12)">
      <defs>
       <path id="DejaVuSans-4d" d="M 628 4666 
L 1569 4666 
L 2759 1491 
L 3956 4666 
L 4897 4666 
L 4897 0 
L 4281 0 
L 4281 4097 
L 3078 897 
L 2444 897 
L 1241 4097 
L 1241 0 
L 628 0 
L 628 4666 
z
" transform="scale(0.015625)"/>
       <path id="DejaVuSans-78" d="M 3513 3500 
L 2247 1797 
L 3578 0 
L 2900 0 
L 1881 1375 
L 863 0 
L 184 0 
L 1544 1831 
L 300 3500 
L 978 3500 
L 1906 2253 
L 2834 3500 
L 3513 3500 
z
" transform="scale(0.015625)"/>
       <path id="DejaVuSans-20" transform="scale(0.015625)"/>
       <path id="DejaVuSans-66" d="M 2375 4863 
L 2375 4384 
L 1825 4384 
Q 1516 4384 1395 4259 
Q 1275 4134 1275 3809 
L 1275 3500 
L 2222 3500 
L 2222 3053 
L 1275 3053 
L 1275 0 
L 697 0 
L 697 3053 
L 147 3053 
L 147 3500 
L 697 3500 
L 697 3744 
Q 697 4328 969 4595 
Q 1241 4863 1831 4863 
L 2375 4863 
z
" transform="scale(0.015625)"/>
      </defs>
      <use xlink:href="#DejaVuSans-4d"/>
      <use xlink:href="#DejaVuSans-61" x="86.279297"/>
      <use xlink:href="#DejaVuSans-78" x="147.558594"/>
      <use xlink:href="#DejaVuSans-20" x="206.738281"/>
      <use xlink:href="#DejaVuSans-66" x="238.525391"/>
      <use xlink:href="#DejaVuSans-69" x="273.730469"/>
      <use xlink:href="#DejaVuSans-74" x="301.513672"/>
      <use xlink:href="#DejaVuSans-6e" x="340.722656"/>
      <use xlink:href="#DejaVuSans-65" x="404.101562"/>
      <use xlink:href="#DejaVuSans-73" x="465.625"/>
      <use xlink:href="#DejaVuSans-73" x="517.724609"/>
     </g>
    </g>
    <g id="patch_8">
     <path d="M 259.033125 225.179918 
L 283.033125 225.179918 
L 283.033125 216.779918 
L 259.033125 216.779918 
z
" style="fill: #0000ff; fill-opacity: 0.2; stroke: #0000ff; stroke-opacity: 0.2; stroke-linejoin: miter"/>
    </g>
    <g id="text_18">
     <!-- Top 90% -->
     <g transform="translate(292.633125 225.179918) scale(0.12 -0.12)">
      <defs>
       <path id="DejaVuSans-54" d="M -19 4666 
L 3928 4666 
L 3928 4134 
L 2272 4134 
L 2272 0 
L 1638 0 
L 1638 4134 
L -19 4134 
L -19 4666 
z
" transform="scale(0.015625)"/>
       <path id="DejaVuSans-70" d="M 1159 525 
L 1159 -1331 
L 581 -1331 
L 581 3500 
L 1159 3500 
L 1159 2969 
Q 1341 3281 1617 3432 
Q 1894 3584 2278 3584 
Q 2916 3584 3314 3078 
Q 3713 2572 3713 1747 
Q 3713 922 3314 415 
Q 2916 -91 2278 -91 
Q 1894 -91 1617 61 
Q 1341 213 1159 525 
z
M 3116 1747 
Q 3116 2381 2855 2742 
Q 2594 3103 2138 3103 
Q 1681 3103 1420 2742 
Q 1159 2381 1159 1747 
Q 1159 1113 1420 752 
Q 1681 391 2138 391 
Q 2594 391 2855 752 
Q 3116 1113 3116 1747 
z
" transform="scale(0.015625)"/>
       <path id="DejaVuSans-39" d="M 703 97 
L 703 672 
Q 941 559 1184 500 
Q 1428 441 1663 441 
Q 2288 441 2617 861 
Q 2947 1281 2994 2138 
Q 2813 1869 2534 1725 
Q 2256 1581 1919 1581 
Q 1219 1581 811 2004 
Q 403 2428 403 3163 
Q 403 3881 828 4315 
Q 1253 4750 1959 4750 
Q 2769 4750 3195 4129 
Q 3622 3509 3622 2328 
Q 3622 1225 3098 567 
Q 2575 -91 1691 -91 
Q 1453 -91 1209 -44 
Q 966 3 703 97 
z
M 1959 2075 
Q 2384 2075 2632 2365 
Q 2881 2656 2881 3163 
Q 2881 3666 2632 3958 
Q 2384 4250 1959 4250 
Q 1534 4250 1286 3958 
Q 1038 3666 1038 3163 
Q 1038 2656 1286 2365 
Q 1534 2075 1959 2075 
z
" transform="scale(0.015625)"/>
       <path id="DejaVuSans-25" d="M 4653 2053 
Q 4381 2053 4226 1822 
Q 4072 1591 4072 1178 
Q 4072 772 4226 539 
Q 4381 306 4653 306 
Q 4919 306 5073 539 
Q 5228 772 5228 1178 
Q 5228 1588 5073 1820 
Q 4919 2053 4653 2053 
z
M 4653 2450 
Q 5147 2450 5437 2106 
Q 5728 1763 5728 1178 
Q 5728 594 5436 251 
Q 5144 -91 4653 -91 
Q 4153 -91 3862 251 
Q 3572 594 3572 1178 
Q 3572 1766 3864 2108 
Q 4156 2450 4653 2450 
z
M 1428 4353 
Q 1159 4353 1004 4120 
Q 850 3888 850 3481 
Q 850 3069 1003 2837 
Q 1156 2606 1428 2606 
Q 1700 2606 1854 2837 
Q 2009 3069 2009 3481 
Q 2009 3884 1853 4118 
Q 1697 4353 1428 4353 
z
M 4250 4750 
L 4750 4750 
L 1831 -91 
L 1331 -91 
L 4250 4750 
z
M 1428 4750 
Q 1922 4750 2215 4408 
Q 2509 4066 2509 3481 
Q 2509 2891 2217 2550 
Q 1925 2209 1428 2209 
Q 931 2209 642 2551 
Q 353 2894 353 3481 
Q 353 4063 643 4406 
Q 934 4750 1428 4750 
z
" transform="scale(0.015625)"/>
      </defs>
      <use xlink:href="#DejaVuSans-54"/>
      <use xlink:href="#DejaVuSans-6f" x="44.083984"/>
      <use xlink:href="#DejaVuSans-70" x="105.265625"/>
      <use xlink:href="#DejaVuSans-20" x="168.742188"/>
      <use xlink:href="#DejaVuSans-39" x="200.529297"/>
      <use xlink:href="#DejaVuSans-30" x="264.152344"/>
      <use xlink:href="#DejaVuSans-25" x="327.775391"/>
     </g>
    </g>
    <g id="line2d_148">
     <path d="M 259.033125 238.593668 
L 271.033125 238.593668 
L 283.033125 238.593668 
" style="fill: none; stroke-dasharray: 3.7,1.6; stroke-dashoffset: 0; stroke: #000000"/>
    </g>
    <g id="text_19">
     <!-- Fitness mean -->
     <g transform="translate(292.633125 242.793668) scale(0.12 -0.12)">
      <defs>
       <path id="DejaVuSans-6d" d="M 3328 2828 
Q 3544 3216 3844 3400 
Q 4144 3584 4550 3584 
Q 5097 3584 5394 3201 
Q 5691 2819 5691 2113 
L 5691 0 
L 5113 0 
L 5113 2094 
Q 5113 2597 4934 2840 
Q 4756 3084 4391 3084 
Q 3944 3084 3684 2787 
Q 3425 2491 3425 1978 
L 3425 0 
L 2847 0 
L 2847 2094 
Q 2847 2600 2669 2842 
Q 2491 3084 2119 3084 
Q 1678 3084 1418 2786 
Q 1159 2488 1159 1978 
L 1159 0 
L 581 0 
L 581 3500 
L 1159 3500 
L 1159 2956 
Q 1356 3278 1631 3431 
Q 1906 3584 2284 3584 
Q 2666 3584 2933 3390 
Q 3200 3197 3328 2828 
z
" transform="scale(0.015625)"/>
      </defs>
      <use xlink:href="#DejaVuSans-46"/>
      <use xlink:href="#DejaVuSans-69" x="50.269531"/>
      <use xlink:href="#DejaVuSans-74" x="78.052734"/>
      <use xlink:href="#DejaVuSans-6e" x="117.261719"/>
      <use xlink:href="#DejaVuSans-65" x="180.640625"/>
      <use xlink:href="#DejaVuSans-73" x="242.164062"/>
      <use xlink:href="#DejaVuSans-73" x="294.263672"/>
      <use xlink:href="#DejaVuSans-20" x="346.363281"/>
      <use xlink:href="#DejaVuSans-6d" x="378.150391"/>
      <use xlink:href="#DejaVuSans-65" x="475.5625"/>
      <use xlink:href="#DejaVuSans-61" x="537.085938"/>
      <use xlink:href="#DejaVuSans-6e" x="598.365234"/>
     </g>
    </g>
   </g>
  </g>
 </g>
 <defs>
  <clipPath id="p6f981a45bb">
   <rect x="48.039375" y="6.609293" width="334.8" height="249.48"/>
  </clipPath>
 </defs>
</svg>
