<?xml version="1.0" encoding="utf-8" standalone="no"?>
<!DOCTYPE svg PUBLIC "-//W3C//DTD SVG 1.1//EN"
  "http://www.w3.org/Graphics/SVG/1.1/DTD/svg11.dtd">
<svg xmlns:xlink="http://www.w3.org/1999/xlink" width="394.074375pt" height="287.4075pt" viewBox="0 0 394.074375 287.4075" xmlns="http://www.w3.org/2000/svg" version="1.1">
 <metadata>
  <rdf:RDF xmlns:dc="http://purl.org/dc/elements/1.1/" xmlns:cc="http://creativecommons.org/ns#" xmlns:rdf="http://www.w3.org/1999/02/22-rdf-syntax-ns#">
   <cc:Work>
    <dc:type rdf:resource="http://purl.org/dc/dcmitype/StillImage"/>
    <dc:date>2024-06-04T10:28:34.752004</dc:date>
    <dc:format>image/svg+xml</dc:format>
    <dc:creator>
     <cc:Agent>
      <dc:title>Matplotlib v3.9.0, https://matplotlib.org/</dc:title>
     </cc:Agent>
    </dc:creator>
   </cc:Work>
  </rdf:RDF>
 </metadata>
 <defs>
  <style type="text/css">*{stroke-linejoin: round; stroke-linecap: butt}</style>
 </defs>
 <g id="figure_1">
  <g id="patch_1">
   <path d="M 0 287.4075 
L 394.074375 287.4075 
L 394.074375 0 
L 0 0 
z
" style="fill: #ffffff"/>
  </g>
  <g id="axes_1">
   <g id="patch_2">
    <path d="M 55.674375 253.08 
L 390.474375 253.08 
L 390.474375 3.6 
L 55.674375 3.6 
z
" style="fill: #ffffff"/>
   </g>
   <g id="PolyCollection_1">
    <defs>
     <path id="mb862ace593" d="M 70.892557 -268.651753 
L 70.892557 -229.588178 
L 71.502504 -238.123438 
L 72.112451 -245.438042 
L 72.722398 -250.968052 
L 73.332345 -246.876971 
L 73.942293 -243.345419 
L 74.55224 -249.238903 
L 75.162187 -250.63822 
L 75.772134 -254.551777 
L 76.382081 -254.610649 
L 76.992028 -254.711546 
L 77.601976 -255.372152 
L 78.211923 -254.413895 
L 78.82187 -254.579812 
L 79.431817 -255.539287 
L 80.041764 -256.42031 
L 80.651711 -257.475456 
L 81.261659 -258.986425 
L 81.871606 -256.690041 
L 82.481553 -262.482502 
L 83.0915 -262.27047 
L 83.701447 -263.454134 
L 84.311394 -263.376105 
L 84.921342 -257.308877 
L 85.531289 -257.308877 
L 86.141236 -263.141435 
L 86.751183 -264.094987 
L 87.36113 -264.983535 
L 87.971077 -266.130486 
L 88.581025 -266.37815 
L 89.190972 -268.080403 
L 89.800919 -268.496682 
L 90.410866 -268.496698 
L 91.020813 -268.857426 
L 91.63076 -269.16511 
L 92.240708 -269.529783 
L 92.850655 -269.441568 
L 93.460602 -269.478515 
L 94.070549 -269.401859 
L 94.680496 -269.380555 
L 95.290444 -269.966296 
L 95.900391 -269.920535 
L 96.510338 -269.944204 
L 97.120285 -270.128885 
L 97.730232 -269.696956 
L 98.340179 -269.94985 
L 98.950127 -269.740034 
L 99.560074 -269.772702 
L 100.170021 -269.840202 
L 100.779968 -269.866574 
L 101.389915 -270.198688 
L 101.999862 -269.730251 
L 102.60981 -270.242602 
L 103.219757 -270.292834 
L 103.829704 -270.039173 
L 104.439651 -270.205105 
L 105.049598 -270.258619 
L 105.659545 -270.470384 
L 106.269493 -270.775417 
L 106.87944 -270.680803 
L 107.489387 -270.530641 
L 108.099334 -270.684833 
L 108.709281 -270.419869 
L 109.319228 -270.344606 
L 109.929176 -270.469395 
L 110.539123 -269.991479 
L 111.14907 -270.308694 
L 111.759017 -270.218603 
L 112.368964 -270.134652 
L 112.978911 -270.402245 
L 113.588859 -270.31133 
L 114.198806 -270.390294 
L 114.808753 -270.480639 
L 115.4187 -270.552684 
L 116.028647 -270.501621 
L 116.638594 -270.63828 
L 117.248542 -270.3589 
L 117.858489 -270.415583 
L 118.468436 -270.515486 
L 119.078383 -270.861196 
L 119.68833 -271.271271 
L 120.298277 -271.424309 
L 120.908225 -271.271274 
L 121.518172 -271.437229 
L 122.128119 -271.085531 
L 122.738066 -271.476689 
L 123.348013 -270.729783 
L 123.95796 -271.351458 
L 124.567908 -271.377223 
L 125.177855 -271.022845 
L 125.787802 -270.909966 
L 126.397749 -270.872581 
L 127.007696 -270.481177 
L 127.617643 -270.9001 
L 128.227591 -270.515016 
L 128.837538 -270.129913 
L 129.447485 -270.401225 
L 130.057432 -270.491606 
L 130.667379 -270.609591 
L 131.277326 -270.53673 
L 131.887274 -270.547245 
L 132.497221 -271.036518 
L 133.107168 -271.174436 
L 133.717115 -271.88328 
L 134.327062 -271.838357 
L 134.937009 -271.567802 
L 135.546957 -271.502873 
L 136.156904 -271.490727 
L 136.766851 -271.348376 
L 137.376798 -271.276791 
L 137.986745 -271.788191 
L 138.596692 -270.990495 
L 139.20664 -271.409224 
L 139.816587 -271.084151 
L 140.426534 -271.662247 
L 141.036481 -271.173672 
L 141.646428 -270.847698 
L 142.256375 -271.297914 
L 142.866323 -270.791615 
L 143.47627 -271.128346 
L 144.086217 -270.996563 
L 144.696164 -271.406144 
L 145.306111 -271.234071 
L 145.916058 -271.570562 
L 146.526006 -271.46818 
L 147.135953 -271.310734 
L 147.7459 -271.201966 
L 148.355847 -271.152726 
L 148.965794 -271.054538 
L 149.575741 -271.11618 
L 150.185689 -271.071681 
L 150.795636 -271.403029 
L 151.405583 -271.509987 
L 152.01553 -271.506359 
L 152.625477 -271.596699 
L 153.235424 -271.599658 
L 153.845372 -271.113004 
L 154.455319 -271.149453 
L 155.065266 -271.168663 
L 155.675213 -271.210122 
L 156.28516 -270.871517 
L 156.895107 -270.76762 
L 157.505055 -270.941724 
L 158.115002 -271.561708 
L 158.724949 -271.561712 
L 159.334896 -271.561717 
L 159.944843 -271.576477 
L 160.55479 -271.884127 
L 161.164738 -271.884124 
L 161.774685 -271.857114 
L 162.384632 -271.858613 
L 162.994579 -271.885476 
L 163.604526 -271.26413 
L 164.214473 -271.886527 
L 164.824421 -271.54202 
L 165.434368 -271.540212 
L 166.044315 -271.348664 
L 166.654262 -271.049372 
L 167.264209 -271.422979 
L 167.874156 -271.493321 
L 168.484104 -271.326696 
L 169.094051 -270.866921 
L 169.703998 -271.19837 
L 170.313945 -271.451417 
L 170.923892 -270.961828 
L 171.533839 -270.887235 
L 172.143787 -270.859879 
L 172.753734 -271.074148 
L 173.363681 -270.646997 
L 173.973628 -270.518375 
L 174.583575 -270.80953 
L 175.193522 -271.311881 
L 175.80347 -270.96595 
L 176.413417 -271.242094 
L 177.023364 -271.591392 
L 177.633311 -271.763081 
L 178.243258 -271.694622 
L 178.853205 -271.534153 
L 179.463153 -271.735693 
L 180.0731 -271.590117 
L 180.683047 -271.385772 
L 181.292994 -271.36833 
L 181.902941 -271.256129 
L 182.512888 -271.161316 
L 183.122836 -271.534202 
L 183.732783 -271.505644 
L 184.34273 -271.263885 
L 184.952677 -271.296013 
L 185.562624 -271.019397 
L 186.172571 -271.01797 
L 186.782519 -271.193061 
L 187.392466 -271.004608 
L 188.002413 -271.194109 
L 188.61236 -271.184889 
L 189.222307 -271.152986 
L 189.832254 -271.09789 
L 190.442202 -271.224672 
L 191.052149 -271.089235 
L 191.662096 -271.25265 
L 192.272043 -271.151934 
L 192.88199 -271.164136 
L 193.491937 -271.282488 
L 194.101885 -270.992895 
L 194.711832 -270.470552 
L 195.321779 -271.068791 
L 195.931726 -270.677643 
L 196.541673 -270.84425 
L 197.15162 -271.172969 
L 197.761568 -270.78687 
L 198.371515 -270.376479 
L 198.981462 -270.7576 
L 199.591409 -271.005454 
L 200.201356 -271.175822 
L 200.811303 -271.054695 
L 201.421251 -271.551177 
L 202.031198 -271.39705 
L 202.641145 -271.371763 
L 203.251092 -271.371757 
L 203.861039 -271.371762 
L 204.470986 -271.853479 
L 205.080934 -271.949439 
L 205.690881 -272.21216 
L 206.300828 -272.212158 
L 206.910775 -272.223475 
L 207.520722 -271.882595 
L 208.130669 -270.483369 
L 208.740617 -270.483373 
L 209.350564 -271.16991 
L 209.960511 -271.542761 
L 210.570458 -271.44803 
L 211.180405 -271.937214 
L 211.790352 -272.047135 
L 212.4003 -271.976597 
L 213.010247 -271.452326 
L 213.620194 -271.56496 
L 214.230141 -271.522558 
L 214.840088 -271.652837 
L 215.450035 -271.162021 
L 216.059983 -271.631507 
L 216.66993 -271.515709 
L 217.279877 -271.378183 
L 217.889824 -271.378181 
L 218.499771 -271.262893 
L 219.109718 -271.261345 
L 219.719666 -271.528789 
L 220.329613 -271.380905 
L 220.93956 -271.208353 
L 221.549507 -271.254645 
L 222.159454 -271.471486 
L 222.769401 -271.234857 
L 223.379349 -271.091582 
L 223.989296 -271.419162 
L 224.599243 -271.428644 
L 225.20919 -271.274459 
L 225.819137 -271.245027 
L 226.429084 -271.428643 
L 227.039032 -271.331602 
L 227.648979 -271.344958 
L 228.258926 -271.428644 
L 228.868873 -271.471483 
L 229.47882 -271.474935 
L 230.088767 -271.428643 
L 230.698715 -271.313546 
L 231.308662 -271.428643 
L 231.918609 -271.561757 
L 232.528556 -271.544811 
L 233.138503 -271.264569 
L 233.74845 -271.319044 
L 234.358398 -271.428643 
L 234.968345 -271.831177 
L 235.578292 -271.397886 
L 236.188239 -271.387678 
L 236.798186 -271.35956 
L 237.408133 -271.359554 
L 238.018081 -271.757054 
L 238.628028 -271.432825 
L 239.237975 -271.740878 
L 239.847922 -271.849906 
L 240.457869 -270.805809 
L 241.067816 -270.96112 
L 241.677764 -271.187178 
L 242.287711 -271.316739 
L 242.897658 -271.583424 
L 243.507605 -271.401937 
L 244.117552 -271.090683 
L 244.727499 -271.226338 
L 245.337447 -271.229958 
L 245.947394 -271.179965 
L 246.557341 -271.625227 
L 247.167288 -271.807235 
L 247.777235 -271.625227 
L 248.387182 -271.610015 
L 248.99713 -271.911257 
L 249.607077 -272.298883 
L 250.217024 -272.119572 
L 250.826971 -271.743142 
L 251.436918 -271.259026 
L 252.046865 -271.30999 
L 252.656813 -271.00676 
L 253.26676 -270.886147 
L 253.876707 -271.077079 
L 254.486654 -271.243641 
L 255.096601 -271.699327 
L 255.706548 -271.783078 
L 256.316496 -272.144657 
L 256.926443 -272.144653 
L 257.53639 -272.104361 
L 258.146337 -271.462596 
L 258.756284 -271.305961 
L 259.366231 -271.610692 
L 259.976179 -271.625338 
L 260.586126 -271.835921 
L 261.196073 -271.835915 
L 261.80602 -271.758812 
L 262.415967 -271.661202 
L 263.025914 -271.224591 
L 263.635862 -271.865901 
L 264.245809 -271.764705 
L 264.855756 -271.7647 
L 265.465703 -271.386731 
L 266.07565 -271.360083 
L 266.685597 -271.396514 
L 267.295545 -271.54424 
L 267.905492 -271.620671 
L 268.515439 -271.620676 
L 269.125386 -271.5326 
L 269.735333 -271.32296 
L 270.34528 -271.650368 
L 270.955228 -271.926273 
L 271.565175 -272.01588 
L 272.175122 -271.78504 
L 272.785069 -271.596691 
L 273.395016 -271.515147 
L 274.004963 -271.698092 
L 274.614911 -271.310031 
L 275.224858 -271.750937 
L 275.834805 -271.559631 
L 276.444752 -271.917177 
L 277.054699 -271.648464 
L 277.664646 -272.08642 
L 278.274594 -271.626794 
L 278.884541 -271.23464 
L 279.494488 -270.877593 
L 280.104435 -271.3176 
L 280.714382 -272.084052 
L 281.324329 -271.937537 
L 281.934277 -271.900755 
L 282.544224 -271.570714 
L 283.154171 -271.706087 
L 283.764118 -271.542332 
L 284.374065 -271.715885 
L 284.984012 -271.661307 
L 285.59396 -271.754494 
L 286.203907 -271.2851 
L 286.813854 -271.360445 
L 287.423801 -271.365075 
L 288.033748 -271.694229 
L 288.643695 -271.99442 
L 289.253643 -271.708101 
L 289.86359 -271.621859 
L 290.473537 -271.820119 
L 291.083484 -271.86078 
L 291.693431 -271.790241 
L 292.303378 -271.679017 
L 292.913326 -271.55066 
L 293.523273 -271.550662 
L 294.13322 -272.272817 
L 294.743167 -272.110932 
L 295.353114 -271.763984 
L 295.963061 -271.329449 
L 296.573009 -271.102961 
L 297.182956 -272.029462 
L 297.792903 -272.203769 
L 298.40285 -272.113653 
L 299.012797 -272.262704 
L 299.622744 -272.029463 
L 300.232692 -272.142968 
L 300.842639 -271.617329 
L 301.452586 -271.617315 
L 302.062533 -271.494706 
L 302.67248 -271.467883 
L 303.282427 -271.49471 
L 303.892375 -271.561612 
L 304.502322 -271.250239 
L 305.112269 -271.499204 
L 305.722216 -271.578792 
L 306.332163 -271.414351 
L 306.94211 -271.72622 
L 307.552058 -272.112329 
L 308.162005 -272.112332 
L 308.771952 -271.81379 
L 309.381899 -271.876438 
L 309.991846 -271.265753 
L 310.601793 -271.168664 
L 311.211741 -271.633308 
L 311.821688 -272.258231 
L 312.431635 -272.043172 
L 313.041582 -271.95141 
L 313.651529 -271.379565 
L 314.261476 -272.042348 
L 314.871424 -271.740249 
L 315.481371 -271.693779 
L 316.091318 -271.927679 
L 316.701265 -271.986163 
L 317.311212 -271.636034 
L 317.921159 -271.767277 
L 318.531107 -271.326563 
L 319.141054 -271.767279 
L 319.751001 -271.384579 
L 320.360948 -271.809656 
L 320.970895 -271.767495 
L 321.580842 -271.997709 
L 322.19079 -271.655058 
L 322.800737 -271.458663 
L 323.410684 -271.309512 
L 324.020631 -271.174224 
L 324.630578 -271.462486 
L 325.240525 -271.501755 
L 325.850473 -271.886441 
L 326.46042 -271.928536 
L 327.070367 -272.002305 
L 327.680314 -272.053958 
L 328.290261 -272.06606 
L 328.900208 -270.551779 
L 329.510156 -270.637314 
L 330.120103 -271.104609 
L 330.73005 -271.538555 
L 331.339997 -271.885521 
L 331.949944 -272.027352 
L 332.559891 -271.76938 
L 333.169839 -272.406648 
L 333.779786 -271.583636 
L 334.389733 -271.049879 
L 334.99968 -271.600765 
L 335.609627 -271.933212 
L 336.219574 -272.456109 
L 336.829522 -271.933222 
L 337.439469 -272.411594 
L 338.049416 -271.990549 
L 338.659363 -271.933212 
L 339.26931 -272.288272 
L 339.879257 -271.933213 
L 340.489205 -271.523427 
L 341.099152 -271.802832 
L 341.709099 -271.665415 
L 342.319046 -271.258624 
L 342.928993 -271.065269 
L 343.53894 -271.065259 
L 344.148888 -270.651931 
L 344.758835 -271.281016 
L 345.368782 -270.60458 
L 345.978729 -270.916815 
L 346.588676 -270.91681 
L 347.198623 -271.211111 
L 347.808571 -272.060962 
L 348.418518 -271.925515 
L 349.028465 -272.060958 
L 349.638412 -271.812228 
L 350.248359 -271.805672 
L 350.858306 -271.965395 
L 351.468254 -271.904036 
L 352.078201 -271.6863 
L 352.688148 -271.844198 
L 353.298095 -271.844196 
L 353.908042 -272.082298 
L 354.51799 -271.795826 
L 355.127937 -271.844196 
L 355.737884 -271.507448 
L 356.347831 -271.096513 
L 356.957778 -271.813059 
L 357.567725 -271.842859 
L 358.177673 -272.064202 
L 358.78762 -271.981733 
L 359.397567 -271.957283 
L 360.007514 -272.064208 
L 360.617461 -271.842846 
L 361.227408 -271.842857 
L 361.837356 -271.263373 
L 362.447303 -271.263376 
L 363.05725 -271.842849 
L 363.667197 -271.63031 
L 364.277144 -271.422411 
L 364.887091 -271.271429 
L 365.497039 -271.606861 
L 366.106986 -272.02387 
L 366.716933 -271.859384 
L 367.32688 -272.254999 
L 367.936827 -272.255751 
L 368.546774 -272.255001 
L 369.156722 -272.255747 
L 369.766669 -272.255746 
L 370.376616 -272.241127 
L 370.986563 -271.428676 
L 371.59651 -271.851402 
L 372.206457 -272.215858 
L 372.816405 -271.37189 
L 373.426352 -271.498496 
L 374.036299 -272.020647 
L 374.646246 -271.743532 
L 375.256193 -271.37783 
L 375.256193 -272.467492 
L 375.256193 -272.467492 
L 374.646246 -272.4675 
L 374.036299 -272.467499 
L 373.426352 -272.467495 
L 372.816405 -272.456116 
L 372.206457 -272.456116 
L 371.59651 -272.456116 
L 370.986563 -272.456117 
L 370.376616 -272.456116 
L 369.766669 -272.456117 
L 369.156722 -272.456117 
L 368.546774 -272.456116 
L 367.936827 -272.456117 
L 367.32688 -272.456116 
L 366.716933 -272.456117 
L 366.106986 -272.456118 
L 365.497039 -272.456117 
L 364.887091 -272.456116 
L 364.277144 -272.456116 
L 363.667197 -272.456117 
L 363.05725 -272.456116 
L 362.447303 -272.456117 
L 361.837356 -272.456117 
L 361.227408 -272.456117 
L 360.617461 -272.456116 
L 360.007514 -272.456117 
L 359.397567 -272.456117 
L 358.78762 -272.456117 
L 358.177673 -272.456117 
L 357.567725 -272.456117 
L 356.957778 -272.456116 
L 356.347831 -272.456116 
L 355.737884 -272.456116 
L 355.127937 -272.456118 
L 354.51799 -272.456118 
L 353.908042 -272.456117 
L 353.298095 -272.456116 
L 352.688148 -272.456116 
L 352.078201 -272.456116 
L 351.468254 -272.456117 
L 350.858306 -272.456117 
L 350.248359 -272.456117 
L 349.638412 -272.456117 
L 349.028465 -272.456116 
L 348.418518 -272.456116 
L 347.808571 -272.456118 
L 347.198623 -272.456117 
L 346.588676 -272.456117 
L 345.978729 -272.456116 
L 345.368782 -272.456116 
L 344.758835 -272.456116 
L 344.148888 -272.456116 
L 343.53894 -272.456117 
L 342.928993 -272.456118 
L 342.319046 -272.456117 
L 341.709099 -272.456116 
L 341.099152 -272.456117 
L 340.489205 -272.456117 
L 339.879257 -272.456116 
L 339.26931 -272.456116 
L 338.659363 -272.456118 
L 338.049416 -272.456117 
L 337.439469 -272.456116 
L 336.829522 -272.456118 
L 336.219574 -272.456117 
L 335.609627 -272.456117 
L 334.99968 -272.456116 
L 334.389733 -272.456117 
L 333.779786 -272.456117 
L 333.169839 -272.456117 
L 332.559891 -272.456117 
L 331.949944 -272.456116 
L 331.339997 -272.456116 
L 330.73005 -272.456116 
L 330.120103 -272.456116 
L 329.510156 -272.456117 
L 328.900208 -272.456117 
L 328.290261 -272.456117 
L 327.680314 -272.456117 
L 327.070367 -272.456115 
L 326.46042 -272.456116 
L 325.850473 -272.456116 
L 325.240525 -272.456116 
L 324.630578 -272.456116 
L 324.020631 -272.456116 
L 323.410684 -272.456116 
L 322.800737 -272.456116 
L 322.19079 -272.456115 
L 321.580842 -272.456116 
L 320.970895 -272.456115 
L 320.360948 -272.456115 
L 319.751001 -272.456122 
L 319.141054 -272.456116 
L 318.531107 -272.456116 
L 317.921159 -272.456116 
L 317.311212 -272.456115 
L 316.701265 -272.456116 
L 316.091318 -272.456113 
L 315.481371 -272.456114 
L 314.871424 -272.456114 
L 314.261476 -272.455314 
L 313.651529 -272.455314 
L 313.041582 -272.455312 
L 312.431635 -272.455311 
L 311.821688 -272.455307 
L 311.211741 -272.455278 
L 310.601793 -272.455278 
L 309.991846 -272.455278 
L 309.381899 -272.455277 
L 308.771952 -272.455278 
L 308.162005 -272.455277 
L 307.552058 -272.455278 
L 306.94211 -272.455279 
L 306.332163 -272.455278 
L 305.722216 -272.455278 
L 305.112269 -272.455278 
L 304.502322 -272.455278 
L 303.892375 -272.455278 
L 303.282427 -272.455277 
L 302.67248 -272.455278 
L 302.062533 -272.455278 
L 301.452586 -272.455278 
L 300.842639 -272.455278 
L 300.232692 -272.455277 
L 299.622744 -272.455278 
L 299.012797 -272.455278 
L 298.40285 -272.455277 
L 297.792903 -272.455278 
L 297.182956 -272.455277 
L 296.573009 -272.455277 
L 295.963061 -272.455277 
L 295.353114 -272.455276 
L 294.743167 -272.455277 
L 294.13322 -272.455277 
L 293.523273 -272.455277 
L 292.913326 -272.455277 
L 292.303378 -272.455275 
L 291.693431 -272.455276 
L 291.083484 -272.455275 
L 290.473537 -272.452151 
L 289.86359 -272.452152 
L 289.253643 -272.452152 
L 288.643695 -272.452152 
L 288.033748 -272.452153 
L 287.423801 -272.452152 
L 286.813854 -272.452152 
L 286.203907 -272.452152 
L 285.59396 -272.452152 
L 284.984012 -272.452152 
L 284.374065 -272.452151 
L 283.764118 -272.452153 
L 283.154171 -272.452151 
L 282.544224 -272.452152 
L 281.934277 -272.452151 
L 281.324329 -272.452152 
L 280.714382 -272.452152 
L 280.104435 -272.452152 
L 279.494488 -272.452153 
L 278.884541 -272.452152 
L 278.274594 -272.452152 
L 277.664646 -272.452153 
L 277.054699 -272.452152 
L 276.444752 -272.452153 
L 275.834805 -272.452151 
L 275.224858 -272.452151 
L 274.614911 -272.452153 
L 274.004963 -272.452151 
L 273.395016 -272.452151 
L 272.785069 -272.452152 
L 272.175122 -272.452152 
L 271.565175 -272.45215 
L 270.955228 -272.452152 
L 270.34528 -272.452151 
L 269.735333 -272.452151 
L 269.125386 -272.452152 
L 268.515439 -272.452151 
L 267.905492 -272.452152 
L 267.295545 -272.452152 
L 266.685597 -272.452153 
L 266.07565 -272.452152 
L 265.465703 -272.452152 
L 264.855756 -272.452152 
L 264.245809 -272.452152 
L 263.635862 -272.452153 
L 263.025914 -272.452152 
L 262.415967 -272.452152 
L 261.80602 -272.452152 
L 261.196073 -272.452151 
L 260.586126 -272.452152 
L 259.976179 -272.452149 
L 259.366231 -272.452151 
L 258.756284 -272.452152 
L 258.146337 -272.452151 
L 257.53639 -272.452152 
L 256.926443 -272.452152 
L 256.316496 -272.452151 
L 255.706548 -272.452151 
L 255.096601 -272.452151 
L 254.486654 -272.452151 
L 253.876707 -272.452152 
L 253.26676 -272.452151 
L 252.656813 -272.45215 
L 252.046865 -272.452152 
L 251.436918 -272.45215 
L 250.826971 -272.452151 
L 250.217024 -272.45215 
L 249.607077 -272.452151 
L 248.99713 -272.45215 
L 248.387182 -272.452152 
L 247.777235 -272.45215 
L 247.167288 -272.45215 
L 246.557341 -272.452147 
L 245.947394 -272.450712 
L 245.337447 -272.450712 
L 244.727499 -272.450711 
L 244.117552 -272.450711 
L 243.507605 -272.45071 
L 242.897658 -272.450712 
L 242.287711 -272.450712 
L 241.677764 -272.45071 
L 241.067816 -272.450711 
L 240.457869 -272.450711 
L 239.847922 -272.450711 
L 239.237975 -272.450711 
L 238.628028 -272.45071 
L 238.018081 -272.450712 
L 237.408133 -272.450711 
L 236.798186 -272.45071 
L 236.188239 -272.45071 
L 235.578292 -272.450709 
L 234.968345 -272.450711 
L 234.358398 -272.45071 
L 233.74845 -272.450712 
L 233.138503 -272.450711 
L 232.528556 -272.45071 
L 231.918609 -272.450712 
L 231.308662 -272.45071 
L 230.698715 -272.45071 
L 230.088767 -272.450709 
L 229.47882 -272.450711 
L 228.868873 -272.450709 
L 228.258926 -272.450713 
L 227.648979 -272.45071 
L 227.039032 -272.450709 
L 226.429084 -272.45071 
L 225.819137 -272.45071 
L 225.20919 -272.45071 
L 224.599243 -272.450712 
L 223.989296 -272.450711 
L 223.379349 -272.45071 
L 222.769401 -272.450712 
L 222.159454 -272.450711 
L 221.549507 -272.450711 
L 220.93956 -272.45071 
L 220.329613 -272.450712 
L 219.719666 -272.450711 
L 219.109718 -272.45071 
L 218.499771 -272.450709 
L 217.889824 -272.450709 
L 217.279877 -272.450711 
L 216.66993 -272.450708 
L 216.059983 -272.450709 
L 215.450035 -272.450711 
L 214.840088 -272.45071 
L 214.230141 -272.45071 
L 213.620194 -272.45071 
L 213.010247 -272.450709 
L 212.4003 -272.450711 
L 211.790352 -272.450711 
L 211.180405 -272.450709 
L 210.570458 -272.450711 
L 209.960511 -272.45071 
L 209.350564 -272.45071 
L 208.740617 -272.450712 
L 208.130669 -272.45071 
L 207.520722 -272.450712 
L 206.910775 -272.450711 
L 206.300828 -272.450711 
L 205.690881 -272.450711 
L 205.080934 -272.45071 
L 204.470986 -272.450712 
L 203.861039 -272.450709 
L 203.251092 -272.450709 
L 202.641145 -272.450712 
L 202.031198 -272.450711 
L 201.421251 -272.450709 
L 200.811303 -272.450711 
L 200.201356 -272.450708 
L 199.591409 -272.450709 
L 198.981462 -272.450708 
L 198.371515 -272.450708 
L 197.761568 -272.450709 
L 197.15162 -272.450707 
L 196.541673 -272.450711 
L 195.931726 -272.450709 
L 195.321779 -272.45071 
L 194.711832 -272.450707 
L 194.101885 -272.449991 
L 193.491937 -272.449992 
L 192.88199 -272.449992 
L 192.272043 -272.449988 
L 191.662096 -272.449988 
L 191.052149 -272.449989 
L 190.442202 -272.449987 
L 189.832254 -272.449989 
L 189.222307 -272.449986 
L 188.61236 -272.449989 
L 188.002413 -272.44739 
L 187.392466 -272.44739 
L 186.782519 -272.447389 
L 186.172571 -272.447391 
L 185.562624 -272.447388 
L 184.952677 -272.447388 
L 184.34273 -272.447388 
L 183.732783 -272.447388 
L 183.122836 -272.447389 
L 182.512888 -272.447385 
L 181.902941 -272.447385 
L 181.292994 -272.445806 
L 180.683047 -272.445807 
L 180.0731 -272.445804 
L 179.463153 -272.445806 
L 178.853205 -272.445805 
L 178.243258 -272.445807 
L 177.633311 -272.445804 
L 177.023364 -272.445804 
L 176.413417 -272.445804 
L 175.80347 -272.445804 
L 175.193522 -272.445806 
L 174.583575 -272.445804 
L 173.973628 -272.445801 
L 173.363681 -272.445804 
L 172.753734 -272.445802 
L 172.143787 -272.445802 
L 171.533839 -272.445803 
L 170.923892 -272.444154 
L 170.313945 -272.444158 
L 169.703998 -272.444159 
L 169.094051 -272.437348 
L 168.484104 -272.43735 
L 167.874156 -272.437346 
L 167.264209 -272.437344 
L 166.654262 -272.437347 
L 166.044315 -272.437335 
L 165.434368 -272.421881 
L 164.824421 -272.421881 
L 164.214473 -272.421881 
L 163.604526 -272.421881 
L 162.994579 -272.421881 
L 162.384632 -272.421881 
L 161.774685 -272.421881 
L 161.164738 -272.421881 
L 160.55479 -272.421881 
L 159.944843 -272.42188 
L 159.334896 -272.421881 
L 158.724949 -272.421881 
L 158.115002 -272.42188 
L 157.505055 -272.412188 
L 156.895107 -272.408227 
L 156.28516 -272.404223 
L 155.675213 -272.404224 
L 155.065266 -272.404224 
L 154.455319 -272.402263 
L 153.845372 -272.402263 
L 153.235424 -272.402263 
L 152.625477 -272.402263 
L 152.01553 -272.402263 
L 151.405583 -272.402263 
L 150.795636 -272.402263 
L 150.185689 -272.402263 
L 149.575741 -272.402263 
L 148.965794 -272.402263 
L 148.355847 -272.402263 
L 147.7459 -272.402263 
L 147.135953 -272.402263 
L 146.526006 -272.402263 
L 145.916058 -272.402263 
L 145.306111 -272.402263 
L 144.696164 -272.402262 
L 144.086217 -272.402261 
L 143.47627 -272.331669 
L 142.866323 -272.331669 
L 142.256375 -272.331669 
L 141.646428 -272.331669 
L 141.036481 -272.331669 
L 140.426534 -272.331669 
L 139.816587 -272.331669 
L 139.20664 -272.313743 
L 138.596692 -272.313744 
L 137.986745 -272.313743 
L 137.376798 -272.313744 
L 136.766851 -272.313743 
L 136.156904 -272.313744 
L 135.546957 -272.313743 
L 134.937009 -272.313743 
L 134.327062 -272.313743 
L 133.717115 -272.313743 
L 133.107168 -272.313743 
L 132.497221 -272.313743 
L 131.887274 -272.313743 
L 131.277326 -272.313743 
L 130.667379 -272.313743 
L 130.057432 -272.313742 
L 129.447485 -272.313742 
L 128.837538 -272.313741 
L 128.227591 -272.312806 
L 127.617643 -272.312807 
L 127.007696 -272.312807 
L 126.397749 -272.312808 
L 125.787802 -272.312806 
L 125.177855 -272.29838 
L 124.567908 -272.298381 
L 123.95796 -272.298385 
L 123.348013 -272.29838 
L 122.738066 -272.298375 
L 122.128119 -272.296617 
L 121.518172 -272.296612 
L 120.908225 -272.296614 
L 120.298277 -272.296615 
L 119.68833 -272.296612 
L 119.078383 -272.2964 
L 118.468436 -272.296405 
L 117.858489 -272.296402 
L 117.248542 -272.296403 
L 116.638594 -272.277926 
L 116.028647 -272.277928 
L 115.4187 -272.277925 
L 114.808753 -272.27107 
L 114.198806 -272.271066 
L 113.588859 -272.271066 
L 112.978911 -272.26224 
L 112.368964 -272.26224 
L 111.759017 -272.255378 
L 111.14907 -272.255378 
L 110.539123 -272.255378 
L 109.929176 -272.255378 
L 109.319228 -272.255375 
L 108.709281 -272.255375 
L 108.099334 -272.255375 
L 107.489387 -272.255375 
L 106.87944 -272.255378 
L 106.269493 -272.255381 
L 105.659545 -272.255378 
L 105.049598 -272.255375 
L 104.439651 -272.255378 
L 103.829704 -272.255378 
L 103.219757 -272.213924 
L 102.60981 -272.213924 
L 101.999862 -272.213926 
L 101.389915 -272.213913 
L 100.779968 -272.14867 
L 100.170021 -272.116474 
L 99.560074 -272.116478 
L 98.950127 -272.116492 
L 98.340179 -272.047425 
L 97.730232 -272.047429 
L 97.120285 -272.047432 
L 96.510338 -272.047396 
L 95.900391 -272.047435 
L 95.290444 -272.047424 
L 94.680496 -271.860477 
L 94.070549 -271.860489 
L 93.460602 -271.860486 
L 92.850655 -271.860489 
L 92.240708 -271.815185 
L 91.63076 -271.815207 
L 91.020813 -271.815213 
L 90.410866 -271.722191 
L 89.800919 -271.722192 
L 89.190972 -271.722192 
L 88.581025 -271.535493 
L 87.971077 -271.535492 
L 87.36113 -271.535502 
L 86.751183 -271.535491 
L 86.141236 -271.535486 
L 85.531289 -271.535494 
L 84.921342 -271.535502 
L 84.311394 -271.535502 
L 83.701447 -271.535491 
L 83.0915 -271.535499 
L 82.481553 -271.076067 
L 81.871606 -271.076067 
L 81.261659 -271.07606 
L 80.651711 -271.076062 
L 80.041764 -270.635954 
L 79.431817 -270.044533 
L 78.82187 -270.044519 
L 78.211923 -269.866127 
L 77.601976 -269.866133 
L 76.992028 -269.19092 
L 76.382081 -268.656005 
L 75.772134 -268.656039 
L 75.162187 -268.656004 
L 74.55224 -268.656027 
L 73.942293 -268.651755 
L 73.332345 -268.651713 
L 72.722398 -268.651698 
L 72.112451 -268.651745 
L 71.502504 -268.651724 
L 70.892557 -268.651753 
z
" style="stroke: #0000ff; stroke-opacity: 0.2"/>
    </defs>
    <g clip-path="url(#p9306b06b19)">
     <use xlink:href="#mb862ace593" x="0" y="287.4075" style="fill: #0000ff; fill-opacity: 0.2; stroke: #0000ff; stroke-opacity: 0.2"/>
    </g>
   </g>
   <g id="matplotlib.axis_1">
    <g id="xtick_1">
     <g id="line2d_1">
      <path d="M 70.892557 253.08 
L 70.892557 3.6 
" clip-path="url(#p9306b06b19)" style="fill: none; stroke: #b0b0b0; stroke-width: 0.5; stroke-linecap: square"/>
     </g>
     <g id="line2d_2">
      <defs>
       <path id="ma87cd9f90e" d="M 0 0 
L 0 -3 
" style="stroke: #000000; stroke-width: 0.5"/>
      </defs>
      <g>
       <use xlink:href="#ma87cd9f90e" x="70.892557" y="253.08" style="stroke: #000000; stroke-width: 0.5"/>
      </g>
     </g>
     <g id="line2d_3">
      <defs>
       <path id="m0863ac89d0" d="M 0 0 
L 0 3 
" style="stroke: #000000; stroke-width: 0.5"/>
      </defs>
      <g>
       <use xlink:href="#m0863ac89d0" x="70.892557" y="3.6" style="stroke: #000000; stroke-width: 0.5"/>
      </g>
     </g>
     <g id="text_1">
      <!-- 0 -->
      <g transform="translate(67.075057 265.698125) scale(0.12 -0.12)">
       <defs>
        <path id="DejaVuSans-30" d="M 2034 4250 
Q 1547 4250 1301 3770 
Q 1056 3291 1056 2328 
Q 1056 1369 1301 889 
Q 1547 409 2034 409 
Q 2525 409 2770 889 
Q 3016 1369 3016 2328 
Q 3016 3291 2770 3770 
Q 2525 4250 2034 4250 
z
M 2034 4750 
Q 2819 4750 3233 4129 
Q 3647 3509 3647 2328 
Q 3647 1150 3233 529 
Q 2819 -91 2034 -91 
Q 1250 -91 836 529 
Q 422 1150 422 2328 
Q 422 3509 836 4129 
Q 1250 4750 2034 4750 
z
" transform="scale(0.015625)"/>
       </defs>
       <use xlink:href="#DejaVuSans-30"/>
      </g>
     </g>
    </g>
    <g id="xtick_2">
     <g id="line2d_4">
      <path d="M 131.887274 253.08 
L 131.887274 3.6 
" clip-path="url(#p9306b06b19)" style="fill: none; stroke: #b0b0b0; stroke-width: 0.5; stroke-linecap: square"/>
     </g>
     <g id="line2d_5">
      <g>
       <use xlink:href="#ma87cd9f90e" x="131.887274" y="253.08" style="stroke: #000000; stroke-width: 0.5"/>
      </g>
     </g>
     <g id="line2d_6">
      <g>
       <use xlink:href="#m0863ac89d0" x="131.887274" y="3.6" style="stroke: #000000; stroke-width: 0.5"/>
      </g>
     </g>
     <g id="text_2">
      <!-- 100 -->
      <g transform="translate(120.434774 265.698125) scale(0.12 -0.12)">
       <defs>
        <path id="DejaVuSans-31" d="M 794 531 
L 1825 531 
L 1825 4091 
L 703 3866 
L 703 4441 
L 1819 4666 
L 2450 4666 
L 2450 531 
L 3481 531 
L 3481 0 
L 794 0 
L 794 531 
z
" transform="scale(0.015625)"/>
       </defs>
       <use xlink:href="#DejaVuSans-31"/>
       <use xlink:href="#DejaVuSans-30" x="63.623047"/>
       <use xlink:href="#DejaVuSans-30" x="127.246094"/>
      </g>
     </g>
    </g>
    <g id="xtick_3">
     <g id="line2d_7">
      <path d="M 192.88199 253.08 
L 192.88199 3.6 
" clip-path="url(#p9306b06b19)" style="fill: none; stroke: #b0b0b0; stroke-width: 0.5; stroke-linecap: square"/>
     </g>
     <g id="line2d_8">
      <g>
       <use xlink:href="#ma87cd9f90e" x="192.88199" y="253.08" style="stroke: #000000; stroke-width: 0.5"/>
      </g>
     </g>
     <g id="line2d_9">
      <g>
       <use xlink:href="#m0863ac89d0" x="192.88199" y="3.6" style="stroke: #000000; stroke-width: 0.5"/>
      </g>
     </g>
     <g id="text_3">
      <!-- 200 -->
      <g transform="translate(181.42949 265.698125) scale(0.12 -0.12)">
       <defs>
        <path id="DejaVuSans-32" d="M 1228 531 
L 3431 531 
L 3431 0 
L 469 0 
L 469 531 
Q 828 903 1448 1529 
Q 2069 2156 2228 2338 
Q 2531 2678 2651 2914 
Q 2772 3150 2772 3378 
Q 2772 3750 2511 3984 
Q 2250 4219 1831 4219 
Q 1534 4219 1204 4116 
Q 875 4013 500 3803 
L 500 4441 
Q 881 4594 1212 4672 
Q 1544 4750 1819 4750 
Q 2544 4750 2975 4387 
Q 3406 4025 3406 3419 
Q 3406 3131 3298 2873 
Q 3191 2616 2906 2266 
Q 2828 2175 2409 1742 
Q 1991 1309 1228 531 
z
" transform="scale(0.015625)"/>
       </defs>
       <use xlink:href="#DejaVuSans-32"/>
       <use xlink:href="#DejaVuSans-30" x="63.623047"/>
       <use xlink:href="#DejaVuSans-30" x="127.246094"/>
      </g>
     </g>
    </g>
    <g id="xtick_4">
     <g id="line2d_10">
      <path d="M 253.876707 253.08 
L 253.876707 3.6 
" clip-path="url(#p9306b06b19)" style="fill: none; stroke: #b0b0b0; stroke-width: 0.5; stroke-linecap: square"/>
     </g>
     <g id="line2d_11">
      <g>
       <use xlink:href="#ma87cd9f90e" x="253.876707" y="253.08" style="stroke: #000000; stroke-width: 0.5"/>
      </g>
     </g>
     <g id="line2d_12">
      <g>
       <use xlink:href="#m0863ac89d0" x="253.876707" y="3.6" style="stroke: #000000; stroke-width: 0.5"/>
      </g>
     </g>
     <g id="text_4">
      <!-- 300 -->
      <g transform="translate(242.424207 265.698125) scale(0.12 -0.12)">
       <defs>
        <path id="DejaVuSans-33" d="M 2597 2516 
Q 3050 2419 3304 2112 
Q 3559 1806 3559 1356 
Q 3559 666 3084 287 
Q 2609 -91 1734 -91 
Q 1441 -91 1130 -33 
Q 819 25 488 141 
L 488 750 
Q 750 597 1062 519 
Q 1375 441 1716 441 
Q 2309 441 2620 675 
Q 2931 909 2931 1356 
Q 2931 1769 2642 2001 
Q 2353 2234 1838 2234 
L 1294 2234 
L 1294 2753 
L 1863 2753 
Q 2328 2753 2575 2939 
Q 2822 3125 2822 3475 
Q 2822 3834 2567 4026 
Q 2313 4219 1838 4219 
Q 1578 4219 1281 4162 
Q 984 4106 628 3988 
L 628 4550 
Q 988 4650 1302 4700 
Q 1616 4750 1894 4750 
Q 2613 4750 3031 4423 
Q 3450 4097 3450 3541 
Q 3450 3153 3228 2886 
Q 3006 2619 2597 2516 
z
" transform="scale(0.015625)"/>
       </defs>
       <use xlink:href="#DejaVuSans-33"/>
       <use xlink:href="#DejaVuSans-30" x="63.623047"/>
       <use xlink:href="#DejaVuSans-30" x="127.246094"/>
      </g>
     </g>
    </g>
    <g id="xtick_5">
     <g id="line2d_13">
      <path d="M 314.871424 253.08 
L 314.871424 3.6 
" clip-path="url(#p9306b06b19)" style="fill: none; stroke: #b0b0b0; stroke-width: 0.5; stroke-linecap: square"/>
     </g>
     <g id="line2d_14">
      <g>
       <use xlink:href="#ma87cd9f90e" x="314.871424" y="253.08" style="stroke: #000000; stroke-width: 0.5"/>
      </g>
     </g>
     <g id="line2d_15">
      <g>
       <use xlink:href="#m0863ac89d0" x="314.871424" y="3.6" style="stroke: #000000; stroke-width: 0.5"/>
      </g>
     </g>
     <g id="text_5">
      <!-- 400 -->
      <g transform="translate(303.418924 265.698125) scale(0.12 -0.12)">
       <defs>
        <path id="DejaVuSans-34" d="M 2419 4116 
L 825 1625 
L 2419 1625 
L 2419 4116 
z
M 2253 4666 
L 3047 4666 
L 3047 1625 
L 3713 1625 
L 3713 1100 
L 3047 1100 
L 3047 0 
L 2419 0 
L 2419 1100 
L 313 1100 
L 313 1709 
L 2253 4666 
z
" transform="scale(0.015625)"/>
       </defs>
       <use xlink:href="#DejaVuSans-34"/>
       <use xlink:href="#DejaVuSans-30" x="63.623047"/>
       <use xlink:href="#DejaVuSans-30" x="127.246094"/>
      </g>
     </g>
    </g>
    <g id="xtick_6">
     <g id="line2d_16">
      <path d="M 375.86614 253.08 
L 375.86614 3.6 
" clip-path="url(#p9306b06b19)" style="fill: none; stroke: #b0b0b0; stroke-width: 0.5; stroke-linecap: square"/>
     </g>
     <g id="line2d_17">
      <g>
       <use xlink:href="#ma87cd9f90e" x="375.86614" y="253.08" style="stroke: #000000; stroke-width: 0.5"/>
      </g>
     </g>
     <g id="line2d_18">
      <g>
       <use xlink:href="#m0863ac89d0" x="375.86614" y="3.6" style="stroke: #000000; stroke-width: 0.5"/>
      </g>
     </g>
     <g id="text_6">
      <!-- 500 -->
      <g transform="translate(364.41364 265.698125) scale(0.12 -0.12)">
       <defs>
        <path id="DejaVuSans-35" d="M 691 4666 
L 3169 4666 
L 3169 4134 
L 1269 4134 
L 1269 2991 
Q 1406 3038 1543 3061 
Q 1681 3084 1819 3084 
Q 2600 3084 3056 2656 
Q 3513 2228 3513 1497 
Q 3513 744 3044 326 
Q 2575 -91 1722 -91 
Q 1428 -91 1123 -41 
Q 819 9 494 109 
L 494 744 
Q 775 591 1075 516 
Q 1375 441 1709 441 
Q 2250 441 2565 725 
Q 2881 1009 2881 1497 
Q 2881 1984 2565 2268 
Q 2250 2553 1709 2553 
Q 1456 2553 1204 2497 
Q 953 2441 691 2322 
L 691 4666 
z
" transform="scale(0.015625)"/>
       </defs>
       <use xlink:href="#DejaVuSans-35"/>
       <use xlink:href="#DejaVuSans-30" x="63.623047"/>
       <use xlink:href="#DejaVuSans-30" x="127.246094"/>
      </g>
     </g>
    </g>
    <g id="xtick_7">
     <g id="line2d_19">
      <defs>
       <path id="m2677959ae6" d="M 0 0 
L 0 -1.5 
" style="stroke: #000000; stroke-width: 0.5"/>
      </defs>
      <g>
       <use xlink:href="#m2677959ae6" x="58.693613" y="253.08" style="stroke: #000000; stroke-width: 0.5"/>
      </g>
     </g>
     <g id="line2d_20">
      <defs>
       <path id="m73a519a434" d="M 0 0 
L 0 1.5 
" style="stroke: #000000; stroke-width: 0.5"/>
      </defs>
      <g>
       <use xlink:href="#m73a519a434" x="58.693613" y="3.6" style="stroke: #000000; stroke-width: 0.5"/>
      </g>
     </g>
    </g>
    <g id="xtick_8">
     <g id="line2d_21">
      <g>
       <use xlink:href="#m2677959ae6" x="83.0915" y="253.08" style="stroke: #000000; stroke-width: 0.5"/>
      </g>
     </g>
     <g id="line2d_22">
      <g>
       <use xlink:href="#m73a519a434" x="83.0915" y="3.6" style="stroke: #000000; stroke-width: 0.5"/>
      </g>
     </g>
    </g>
    <g id="xtick_9">
     <g id="line2d_23">
      <g>
       <use xlink:href="#m2677959ae6" x="95.290444" y="253.08" style="stroke: #000000; stroke-width: 0.5"/>
      </g>
     </g>
     <g id="line2d_24">
      <g>
       <use xlink:href="#m73a519a434" x="95.290444" y="3.6" style="stroke: #000000; stroke-width: 0.5"/>
      </g>
     </g>
    </g>
    <g id="xtick_10">
     <g id="line2d_25">
      <g>
       <use xlink:href="#m2677959ae6" x="107.489387" y="253.08" style="stroke: #000000; stroke-width: 0.5"/>
      </g>
     </g>
     <g id="line2d_26">
      <g>
       <use xlink:href="#m73a519a434" x="107.489387" y="3.6" style="stroke: #000000; stroke-width: 0.5"/>
      </g>
     </g>
    </g>
    <g id="xtick_11">
     <g id="line2d_27">
      <g>
       <use xlink:href="#m2677959ae6" x="119.68833" y="253.08" style="stroke: #000000; stroke-width: 0.5"/>
      </g>
     </g>
     <g id="line2d_28">
      <g>
       <use xlink:href="#m73a519a434" x="119.68833" y="3.6" style="stroke: #000000; stroke-width: 0.5"/>
      </g>
     </g>
    </g>
    <g id="xtick_12">
     <g id="line2d_29">
      <g>
       <use xlink:href="#m2677959ae6" x="144.086217" y="253.08" style="stroke: #000000; stroke-width: 0.5"/>
      </g>
     </g>
     <g id="line2d_30">
      <g>
       <use xlink:href="#m73a519a434" x="144.086217" y="3.6" style="stroke: #000000; stroke-width: 0.5"/>
      </g>
     </g>
    </g>
    <g id="xtick_13">
     <g id="line2d_31">
      <g>
       <use xlink:href="#m2677959ae6" x="156.28516" y="253.08" style="stroke: #000000; stroke-width: 0.5"/>
      </g>
     </g>
     <g id="line2d_32">
      <g>
       <use xlink:href="#m73a519a434" x="156.28516" y="3.6" style="stroke: #000000; stroke-width: 0.5"/>
      </g>
     </g>
    </g>
    <g id="xtick_14">
     <g id="line2d_33">
      <g>
       <use xlink:href="#m2677959ae6" x="168.484104" y="253.08" style="stroke: #000000; stroke-width: 0.5"/>
      </g>
     </g>
     <g id="line2d_34">
      <g>
       <use xlink:href="#m73a519a434" x="168.484104" y="3.6" style="stroke: #000000; stroke-width: 0.5"/>
      </g>
     </g>
    </g>
    <g id="xtick_15">
     <g id="line2d_35">
      <g>
       <use xlink:href="#m2677959ae6" x="180.683047" y="253.08" style="stroke: #000000; stroke-width: 0.5"/>
      </g>
     </g>
     <g id="line2d_36">
      <g>
       <use xlink:href="#m73a519a434" x="180.683047" y="3.6" style="stroke: #000000; stroke-width: 0.5"/>
      </g>
     </g>
    </g>
    <g id="xtick_16">
     <g id="line2d_37">
      <g>
       <use xlink:href="#m2677959ae6" x="205.080934" y="253.08" style="stroke: #000000; stroke-width: 0.5"/>
      </g>
     </g>
     <g id="line2d_38">
      <g>
       <use xlink:href="#m73a519a434" x="205.080934" y="3.6" style="stroke: #000000; stroke-width: 0.5"/>
      </g>
     </g>
    </g>
    <g id="xtick_17">
     <g id="line2d_39">
      <g>
       <use xlink:href="#m2677959ae6" x="217.279877" y="253.08" style="stroke: #000000; stroke-width: 0.5"/>
      </g>
     </g>
     <g id="line2d_40">
      <g>
       <use xlink:href="#m73a519a434" x="217.279877" y="3.6" style="stroke: #000000; stroke-width: 0.5"/>
      </g>
     </g>
    </g>
    <g id="xtick_18">
     <g id="line2d_41">
      <g>
       <use xlink:href="#m2677959ae6" x="229.47882" y="253.08" style="stroke: #000000; stroke-width: 0.5"/>
      </g>
     </g>
     <g id="line2d_42">
      <g>
       <use xlink:href="#m73a519a434" x="229.47882" y="3.6" style="stroke: #000000; stroke-width: 0.5"/>
      </g>
     </g>
    </g>
    <g id="xtick_19">
     <g id="line2d_43">
      <g>
       <use xlink:href="#m2677959ae6" x="241.677764" y="253.08" style="stroke: #000000; stroke-width: 0.5"/>
      </g>
     </g>
     <g id="line2d_44">
      <g>
       <use xlink:href="#m73a519a434" x="241.677764" y="3.6" style="stroke: #000000; stroke-width: 0.5"/>
      </g>
     </g>
    </g>
    <g id="xtick_20">
     <g id="line2d_45">
      <g>
       <use xlink:href="#m2677959ae6" x="266.07565" y="253.08" style="stroke: #000000; stroke-width: 0.5"/>
      </g>
     </g>
     <g id="line2d_46">
      <g>
       <use xlink:href="#m73a519a434" x="266.07565" y="3.6" style="stroke: #000000; stroke-width: 0.5"/>
      </g>
     </g>
    </g>
    <g id="xtick_21">
     <g id="line2d_47">
      <g>
       <use xlink:href="#m2677959ae6" x="278.274594" y="253.08" style="stroke: #000000; stroke-width: 0.5"/>
      </g>
     </g>
     <g id="line2d_48">
      <g>
       <use xlink:href="#m73a519a434" x="278.274594" y="3.6" style="stroke: #000000; stroke-width: 0.5"/>
      </g>
     </g>
    </g>
    <g id="xtick_22">
     <g id="line2d_49">
      <g>
       <use xlink:href="#m2677959ae6" x="290.473537" y="253.08" style="stroke: #000000; stroke-width: 0.5"/>
      </g>
     </g>
     <g id="line2d_50">
      <g>
       <use xlink:href="#m73a519a434" x="290.473537" y="3.6" style="stroke: #000000; stroke-width: 0.5"/>
      </g>
     </g>
    </g>
    <g id="xtick_23">
     <g id="line2d_51">
      <g>
       <use xlink:href="#m2677959ae6" x="302.67248" y="253.08" style="stroke: #000000; stroke-width: 0.5"/>
      </g>
     </g>
     <g id="line2d_52">
      <g>
       <use xlink:href="#m73a519a434" x="302.67248" y="3.6" style="stroke: #000000; stroke-width: 0.5"/>
      </g>
     </g>
    </g>
    <g id="xtick_24">
     <g id="line2d_53">
      <g>
       <use xlink:href="#m2677959ae6" x="327.070367" y="253.08" style="stroke: #000000; stroke-width: 0.5"/>
      </g>
     </g>
     <g id="line2d_54">
      <g>
       <use xlink:href="#m73a519a434" x="327.070367" y="3.6" style="stroke: #000000; stroke-width: 0.5"/>
      </g>
     </g>
    </g>
    <g id="xtick_25">
     <g id="line2d_55">
      <g>
       <use xlink:href="#m2677959ae6" x="339.26931" y="253.08" style="stroke: #000000; stroke-width: 0.5"/>
      </g>
     </g>
     <g id="line2d_56">
      <g>
       <use xlink:href="#m73a519a434" x="339.26931" y="3.6" style="stroke: #000000; stroke-width: 0.5"/>
      </g>
     </g>
    </g>
    <g id="xtick_26">
     <g id="line2d_57">
      <g>
       <use xlink:href="#m2677959ae6" x="351.468254" y="253.08" style="stroke: #000000; stroke-width: 0.5"/>
      </g>
     </g>
     <g id="line2d_58">
      <g>
       <use xlink:href="#m73a519a434" x="351.468254" y="3.6" style="stroke: #000000; stroke-width: 0.5"/>
      </g>
     </g>
    </g>
    <g id="xtick_27">
     <g id="line2d_59">
      <g>
       <use xlink:href="#m2677959ae6" x="363.667197" y="253.08" style="stroke: #000000; stroke-width: 0.5"/>
      </g>
     </g>
     <g id="line2d_60">
      <g>
       <use xlink:href="#m73a519a434" x="363.667197" y="3.6" style="stroke: #000000; stroke-width: 0.5"/>
      </g>
     </g>
    </g>
    <g id="xtick_28">
     <g id="line2d_61">
      <g>
       <use xlink:href="#m2677959ae6" x="388.065084" y="253.08" style="stroke: #000000; stroke-width: 0.5"/>
      </g>
     </g>
     <g id="line2d_62">
      <g>
       <use xlink:href="#m73a519a434" x="388.065084" y="3.6" style="stroke: #000000; stroke-width: 0.5"/>
      </g>
     </g>
    </g>
    <g id="text_7">
     <!-- Generations -->
     <g transform="translate(186.477188 281.311875) scale(0.12 -0.12)">
      <defs>
       <path id="DejaVuSans-47" d="M 3809 666 
L 3809 1919 
L 2778 1919 
L 2778 2438 
L 4434 2438 
L 4434 434 
Q 4069 175 3628 42 
Q 3188 -91 2688 -91 
Q 1594 -91 976 548 
Q 359 1188 359 2328 
Q 359 3472 976 4111 
Q 1594 4750 2688 4750 
Q 3144 4750 3555 4637 
Q 3966 4525 4313 4306 
L 4313 3634 
Q 3963 3931 3569 4081 
Q 3175 4231 2741 4231 
Q 1884 4231 1454 3753 
Q 1025 3275 1025 2328 
Q 1025 1384 1454 906 
Q 1884 428 2741 428 
Q 3075 428 3337 486 
Q 3600 544 3809 666 
z
" transform="scale(0.015625)"/>
       <path id="DejaVuSans-65" d="M 3597 1894 
L 3597 1613 
L 953 1613 
Q 991 1019 1311 708 
Q 1631 397 2203 397 
Q 2534 397 2845 478 
Q 3156 559 3463 722 
L 3463 178 
Q 3153 47 2828 -22 
Q 2503 -91 2169 -91 
Q 1331 -91 842 396 
Q 353 884 353 1716 
Q 353 2575 817 3079 
Q 1281 3584 2069 3584 
Q 2775 3584 3186 3129 
Q 3597 2675 3597 1894 
z
M 3022 2063 
Q 3016 2534 2758 2815 
Q 2500 3097 2075 3097 
Q 1594 3097 1305 2825 
Q 1016 2553 972 2059 
L 3022 2063 
z
" transform="scale(0.015625)"/>
       <path id="DejaVuSans-6e" d="M 3513 2113 
L 3513 0 
L 2938 0 
L 2938 2094 
Q 2938 2591 2744 2837 
Q 2550 3084 2163 3084 
Q 1697 3084 1428 2787 
Q 1159 2491 1159 1978 
L 1159 0 
L 581 0 
L 581 3500 
L 1159 3500 
L 1159 2956 
Q 1366 3272 1645 3428 
Q 1925 3584 2291 3584 
Q 2894 3584 3203 3211 
Q 3513 2838 3513 2113 
z
" transform="scale(0.015625)"/>
       <path id="DejaVuSans-72" d="M 2631 2963 
Q 2534 3019 2420 3045 
Q 2306 3072 2169 3072 
Q 1681 3072 1420 2755 
Q 1159 2438 1159 1844 
L 1159 0 
L 581 0 
L 581 3500 
L 1159 3500 
L 1159 2956 
Q 1341 3275 1631 3429 
Q 1922 3584 2338 3584 
Q 2397 3584 2469 3576 
Q 2541 3569 2628 3553 
L 2631 2963 
z
" transform="scale(0.015625)"/>
       <path id="DejaVuSans-61" d="M 2194 1759 
Q 1497 1759 1228 1600 
Q 959 1441 959 1056 
Q 959 750 1161 570 
Q 1363 391 1709 391 
Q 2188 391 2477 730 
Q 2766 1069 2766 1631 
L 2766 1759 
L 2194 1759 
z
M 3341 1997 
L 3341 0 
L 2766 0 
L 2766 531 
Q 2569 213 2275 61 
Q 1981 -91 1556 -91 
Q 1019 -91 701 211 
Q 384 513 384 1019 
Q 384 1609 779 1909 
Q 1175 2209 1959 2209 
L 2766 2209 
L 2766 2266 
Q 2766 2663 2505 2880 
Q 2244 3097 1772 3097 
Q 1472 3097 1187 3025 
Q 903 2953 641 2809 
L 641 3341 
Q 956 3463 1253 3523 
Q 1550 3584 1831 3584 
Q 2591 3584 2966 3190 
Q 3341 2797 3341 1997 
z
" transform="scale(0.015625)"/>
       <path id="DejaVuSans-74" d="M 1172 4494 
L 1172 3500 
L 2356 3500 
L 2356 3053 
L 1172 3053 
L 1172 1153 
Q 1172 725 1289 603 
Q 1406 481 1766 481 
L 2356 481 
L 2356 0 
L 1766 0 
Q 1100 0 847 248 
Q 594 497 594 1153 
L 594 3053 
L 172 3053 
L 172 3500 
L 594 3500 
L 594 4494 
L 1172 4494 
z
" transform="scale(0.015625)"/>
       <path id="DejaVuSans-69" d="M 603 3500 
L 1178 3500 
L 1178 0 
L 603 0 
L 603 3500 
z
M 603 4863 
L 1178 4863 
L 1178 4134 
L 603 4134 
L 603 4863 
z
" transform="scale(0.015625)"/>
       <path id="DejaVuSans-6f" d="M 1959 3097 
Q 1497 3097 1228 2736 
Q 959 2375 959 1747 
Q 959 1119 1226 758 
Q 1494 397 1959 397 
Q 2419 397 2687 759 
Q 2956 1122 2956 1747 
Q 2956 2369 2687 2733 
Q 2419 3097 1959 3097 
z
M 1959 3584 
Q 2709 3584 3137 3096 
Q 3566 2609 3566 1747 
Q 3566 888 3137 398 
Q 2709 -91 1959 -91 
Q 1206 -91 779 398 
Q 353 888 353 1747 
Q 353 2609 779 3096 
Q 1206 3584 1959 3584 
z
" transform="scale(0.015625)"/>
       <path id="DejaVuSans-73" d="M 2834 3397 
L 2834 2853 
Q 2591 2978 2328 3040 
Q 2066 3103 1784 3103 
Q 1356 3103 1142 2972 
Q 928 2841 928 2578 
Q 928 2378 1081 2264 
Q 1234 2150 1697 2047 
L 1894 2003 
Q 2506 1872 2764 1633 
Q 3022 1394 3022 966 
Q 3022 478 2636 193 
Q 2250 -91 1575 -91 
Q 1294 -91 989 -36 
Q 684 19 347 128 
L 347 722 
Q 666 556 975 473 
Q 1284 391 1588 391 
Q 1994 391 2212 530 
Q 2431 669 2431 922 
Q 2431 1156 2273 1281 
Q 2116 1406 1581 1522 
L 1381 1569 
Q 847 1681 609 1914 
Q 372 2147 372 2553 
Q 372 3047 722 3315 
Q 1072 3584 1716 3584 
Q 2034 3584 2315 3537 
Q 2597 3491 2834 3397 
z
" transform="scale(0.015625)"/>
      </defs>
      <use xlink:href="#DejaVuSans-47"/>
      <use xlink:href="#DejaVuSans-65" x="77.490234"/>
      <use xlink:href="#DejaVuSans-6e" x="139.013672"/>
      <use xlink:href="#DejaVuSans-65" x="202.392578"/>
      <use xlink:href="#DejaVuSans-72" x="263.916016"/>
      <use xlink:href="#DejaVuSans-61" x="305.029297"/>
      <use xlink:href="#DejaVuSans-74" x="366.308594"/>
      <use xlink:href="#DejaVuSans-69" x="405.517578"/>
      <use xlink:href="#DejaVuSans-6f" x="433.300781"/>
      <use xlink:href="#DejaVuSans-6e" x="494.482422"/>
      <use xlink:href="#DejaVuSans-73" x="557.861328"/>
     </g>
    </g>
   </g>
   <g id="matplotlib.axis_2">
    <g id="ytick_1">
     <g id="line2d_63">
      <path d="M 55.674375 221.781329 
L 390.474375 221.781329 
" clip-path="url(#p9306b06b19)" style="fill: none; stroke: #b0b0b0; stroke-width: 0.5; stroke-linecap: square"/>
     </g>
     <g id="line2d_64">
      <defs>
       <path id="m06b152c362" d="M 0 0 
L 3 0 
" style="stroke: #000000; stroke-width: 0.5"/>
      </defs>
      <g>
       <use xlink:href="#m06b152c362" x="55.674375" y="221.781329" style="stroke: #000000; stroke-width: 0.5"/>
      </g>
     </g>
     <g id="line2d_65">
      <defs>
       <path id="m08ca617208" d="M 0 0 
L -3 0 
" style="stroke: #000000; stroke-width: 0.5"/>
      </defs>
      <g>
       <use xlink:href="#m08ca617208" x="390.474375" y="221.781329" style="stroke: #000000; stroke-width: 0.5"/>
      </g>
     </g>
     <g id="text_8">
      <!-- −400 -->
      <g transform="translate(19.21375 226.340391) scale(0.12 -0.12)">
       <defs>
        <path id="DejaVuSans-2212" d="M 678 2272 
L 4684 2272 
L 4684 1741 
L 678 1741 
L 678 2272 
z
" transform="scale(0.015625)"/>
       </defs>
       <use xlink:href="#DejaVuSans-2212"/>
       <use xlink:href="#DejaVuSans-34" x="83.789062"/>
       <use xlink:href="#DejaVuSans-30" x="147.412109"/>
       <use xlink:href="#DejaVuSans-30" x="211.035156"/>
      </g>
     </g>
    </g>
    <g id="ytick_2">
     <g id="line2d_66">
      <path d="M 55.674375 172.29057 
L 390.474375 172.29057 
" clip-path="url(#p9306b06b19)" style="fill: none; stroke: #b0b0b0; stroke-width: 0.5; stroke-linecap: square"/>
     </g>
     <g id="line2d_67">
      <g>
       <use xlink:href="#m06b152c362" x="55.674375" y="172.29057" style="stroke: #000000; stroke-width: 0.5"/>
      </g>
     </g>
     <g id="line2d_68">
      <g>
       <use xlink:href="#m08ca617208" x="390.474375" y="172.29057" style="stroke: #000000; stroke-width: 0.5"/>
      </g>
     </g>
     <g id="text_9">
      <!-- −300 -->
      <g transform="translate(19.21375 176.849633) scale(0.12 -0.12)">
       <use xlink:href="#DejaVuSans-2212"/>
       <use xlink:href="#DejaVuSans-33" x="83.789062"/>
       <use xlink:href="#DejaVuSans-30" x="147.412109"/>
       <use xlink:href="#DejaVuSans-30" x="211.035156"/>
      </g>
     </g>
    </g>
    <g id="ytick_3">
     <g id="line2d_69">
      <path d="M 55.674375 122.799812 
L 390.474375 122.799812 
" clip-path="url(#p9306b06b19)" style="fill: none; stroke: #b0b0b0; stroke-width: 0.5; stroke-linecap: square"/>
     </g>
     <g id="line2d_70">
      <g>
       <use xlink:href="#m06b152c362" x="55.674375" y="122.799812" style="stroke: #000000; stroke-width: 0.5"/>
      </g>
     </g>
     <g id="line2d_71">
      <g>
       <use xlink:href="#m08ca617208" x="390.474375" y="122.799812" style="stroke: #000000; stroke-width: 0.5"/>
      </g>
     </g>
     <g id="text_10">
      <!-- −200 -->
      <g transform="translate(19.21375 127.358875) scale(0.12 -0.12)">
       <use xlink:href="#DejaVuSans-2212"/>
       <use xlink:href="#DejaVuSans-32" x="83.789062"/>
       <use xlink:href="#DejaVuSans-30" x="147.412109"/>
       <use xlink:href="#DejaVuSans-30" x="211.035156"/>
      </g>
     </g>
    </g>
    <g id="ytick_4">
     <g id="line2d_72">
      <path d="M 55.674375 73.309054 
L 390.474375 73.309054 
" clip-path="url(#p9306b06b19)" style="fill: none; stroke: #b0b0b0; stroke-width: 0.5; stroke-linecap: square"/>
     </g>
     <g id="line2d_73">
      <g>
       <use xlink:href="#m06b152c362" x="55.674375" y="73.309054" style="stroke: #000000; stroke-width: 0.5"/>
      </g>
     </g>
     <g id="line2d_74">
      <g>
       <use xlink:href="#m08ca617208" x="390.474375" y="73.309054" style="stroke: #000000; stroke-width: 0.5"/>
      </g>
     </g>
     <g id="text_11">
      <!-- −100 -->
      <g transform="translate(19.21375 77.868116) scale(0.12 -0.12)">
       <use xlink:href="#DejaVuSans-2212"/>
       <use xlink:href="#DejaVuSans-31" x="83.789062"/>
       <use xlink:href="#DejaVuSans-30" x="147.412109"/>
       <use xlink:href="#DejaVuSans-30" x="211.035156"/>
      </g>
     </g>
    </g>
    <g id="ytick_5">
     <g id="line2d_75">
      <path d="M 55.674375 23.818296 
L 390.474375 23.818296 
" clip-path="url(#p9306b06b19)" style="fill: none; stroke: #b0b0b0; stroke-width: 0.5; stroke-linecap: square"/>
     </g>
     <g id="line2d_76">
      <g>
       <use xlink:href="#m06b152c362" x="55.674375" y="23.818296" style="stroke: #000000; stroke-width: 0.5"/>
      </g>
     </g>
     <g id="line2d_77">
      <g>
       <use xlink:href="#m08ca617208" x="390.474375" y="23.818296" style="stroke: #000000; stroke-width: 0.5"/>
      </g>
     </g>
     <g id="text_12">
      <!-- 0 -->
      <g transform="translate(44.539375 28.377358) scale(0.12 -0.12)">
       <use xlink:href="#DejaVuSans-30"/>
      </g>
     </g>
    </g>
    <g id="ytick_6">
     <g id="line2d_78">
      <defs>
       <path id="m69b240d110" d="M 0 0 
L 1.5 0 
" style="stroke: #000000; stroke-width: 0.5"/>
      </defs>
      <g>
       <use xlink:href="#m69b240d110" x="55.674375" y="251.475784" style="stroke: #000000; stroke-width: 0.5"/>
      </g>
     </g>
     <g id="line2d_79">
      <defs>
       <path id="m7f520137fb" d="M 0 0 
L -1.5 0 
" style="stroke: #000000; stroke-width: 0.5"/>
      </defs>
      <g>
       <use xlink:href="#m7f520137fb" x="390.474375" y="251.475784" style="stroke: #000000; stroke-width: 0.5"/>
      </g>
     </g>
    </g>
    <g id="ytick_7">
     <g id="line2d_80">
      <g>
       <use xlink:href="#m69b240d110" x="55.674375" y="241.577632" style="stroke: #000000; stroke-width: 0.5"/>
      </g>
     </g>
     <g id="line2d_81">
      <g>
       <use xlink:href="#m7f520137fb" x="390.474375" y="241.577632" style="stroke: #000000; stroke-width: 0.5"/>
      </g>
     </g>
    </g>
    <g id="ytick_8">
     <g id="line2d_82">
      <g>
       <use xlink:href="#m69b240d110" x="55.674375" y="231.67948" style="stroke: #000000; stroke-width: 0.5"/>
      </g>
     </g>
     <g id="line2d_83">
      <g>
       <use xlink:href="#m7f520137fb" x="390.474375" y="231.67948" style="stroke: #000000; stroke-width: 0.5"/>
      </g>
     </g>
    </g>
    <g id="ytick_9">
     <g id="line2d_84">
      <g>
       <use xlink:href="#m69b240d110" x="55.674375" y="211.883177" style="stroke: #000000; stroke-width: 0.5"/>
      </g>
     </g>
     <g id="line2d_85">
      <g>
       <use xlink:href="#m7f520137fb" x="390.474375" y="211.883177" style="stroke: #000000; stroke-width: 0.5"/>
      </g>
     </g>
    </g>
    <g id="ytick_10">
     <g id="line2d_86">
      <g>
       <use xlink:href="#m69b240d110" x="55.674375" y="201.985025" style="stroke: #000000; stroke-width: 0.5"/>
      </g>
     </g>
     <g id="line2d_87">
      <g>
       <use xlink:href="#m7f520137fb" x="390.474375" y="201.985025" style="stroke: #000000; stroke-width: 0.5"/>
      </g>
     </g>
    </g>
    <g id="ytick_11">
     <g id="line2d_88">
      <g>
       <use xlink:href="#m69b240d110" x="55.674375" y="192.086874" style="stroke: #000000; stroke-width: 0.5"/>
      </g>
     </g>
     <g id="line2d_89">
      <g>
       <use xlink:href="#m7f520137fb" x="390.474375" y="192.086874" style="stroke: #000000; stroke-width: 0.5"/>
      </g>
     </g>
    </g>
    <g id="ytick_12">
     <g id="line2d_90">
      <g>
       <use xlink:href="#m69b240d110" x="55.674375" y="182.188722" style="stroke: #000000; stroke-width: 0.5"/>
      </g>
     </g>
     <g id="line2d_91">
      <g>
       <use xlink:href="#m7f520137fb" x="390.474375" y="182.188722" style="stroke: #000000; stroke-width: 0.5"/>
      </g>
     </g>
    </g>
    <g id="ytick_13">
     <g id="line2d_92">
      <g>
       <use xlink:href="#m69b240d110" x="55.674375" y="162.392419" style="stroke: #000000; stroke-width: 0.5"/>
      </g>
     </g>
     <g id="line2d_93">
      <g>
       <use xlink:href="#m7f520137fb" x="390.474375" y="162.392419" style="stroke: #000000; stroke-width: 0.5"/>
      </g>
     </g>
    </g>
    <g id="ytick_14">
     <g id="line2d_94">
      <g>
       <use xlink:href="#m69b240d110" x="55.674375" y="152.494267" style="stroke: #000000; stroke-width: 0.5"/>
      </g>
     </g>
     <g id="line2d_95">
      <g>
       <use xlink:href="#m7f520137fb" x="390.474375" y="152.494267" style="stroke: #000000; stroke-width: 0.5"/>
      </g>
     </g>
    </g>
    <g id="ytick_15">
     <g id="line2d_96">
      <g>
       <use xlink:href="#m69b240d110" x="55.674375" y="142.596115" style="stroke: #000000; stroke-width: 0.5"/>
      </g>
     </g>
     <g id="line2d_97">
      <g>
       <use xlink:href="#m7f520137fb" x="390.474375" y="142.596115" style="stroke: #000000; stroke-width: 0.5"/>
      </g>
     </g>
    </g>
    <g id="ytick_16">
     <g id="line2d_98">
      <g>
       <use xlink:href="#m69b240d110" x="55.674375" y="132.697964" style="stroke: #000000; stroke-width: 0.5"/>
      </g>
     </g>
     <g id="line2d_99">
      <g>
       <use xlink:href="#m7f520137fb" x="390.474375" y="132.697964" style="stroke: #000000; stroke-width: 0.5"/>
      </g>
     </g>
    </g>
    <g id="ytick_17">
     <g id="line2d_100">
      <g>
       <use xlink:href="#m69b240d110" x="55.674375" y="112.90166" style="stroke: #000000; stroke-width: 0.5"/>
      </g>
     </g>
     <g id="line2d_101">
      <g>
       <use xlink:href="#m7f520137fb" x="390.474375" y="112.90166" style="stroke: #000000; stroke-width: 0.5"/>
      </g>
     </g>
    </g>
    <g id="ytick_18">
     <g id="line2d_102">
      <g>
       <use xlink:href="#m69b240d110" x="55.674375" y="103.003509" style="stroke: #000000; stroke-width: 0.5"/>
      </g>
     </g>
     <g id="line2d_103">
      <g>
       <use xlink:href="#m7f520137fb" x="390.474375" y="103.003509" style="stroke: #000000; stroke-width: 0.5"/>
      </g>
     </g>
    </g>
    <g id="ytick_19">
     <g id="line2d_104">
      <g>
       <use xlink:href="#m69b240d110" x="55.674375" y="93.105357" style="stroke: #000000; stroke-width: 0.5"/>
      </g>
     </g>
     <g id="line2d_105">
      <g>
       <use xlink:href="#m7f520137fb" x="390.474375" y="93.105357" style="stroke: #000000; stroke-width: 0.5"/>
      </g>
     </g>
    </g>
    <g id="ytick_20">
     <g id="line2d_106">
      <g>
       <use xlink:href="#m69b240d110" x="55.674375" y="83.207205" style="stroke: #000000; stroke-width: 0.5"/>
      </g>
     </g>
     <g id="line2d_107">
      <g>
       <use xlink:href="#m7f520137fb" x="390.474375" y="83.207205" style="stroke: #000000; stroke-width: 0.5"/>
      </g>
     </g>
    </g>
    <g id="ytick_21">
     <g id="line2d_108">
      <g>
       <use xlink:href="#m69b240d110" x="55.674375" y="63.410902" style="stroke: #000000; stroke-width: 0.5"/>
      </g>
     </g>
     <g id="line2d_109">
      <g>
       <use xlink:href="#m7f520137fb" x="390.474375" y="63.410902" style="stroke: #000000; stroke-width: 0.5"/>
      </g>
     </g>
    </g>
    <g id="ytick_22">
     <g id="line2d_110">
      <g>
       <use xlink:href="#m69b240d110" x="55.674375" y="53.51275" style="stroke: #000000; stroke-width: 0.5"/>
      </g>
     </g>
     <g id="line2d_111">
      <g>
       <use xlink:href="#m7f520137fb" x="390.474375" y="53.51275" style="stroke: #000000; stroke-width: 0.5"/>
      </g>
     </g>
    </g>
    <g id="ytick_23">
     <g id="line2d_112">
      <g>
       <use xlink:href="#m69b240d110" x="55.674375" y="43.614599" style="stroke: #000000; stroke-width: 0.5"/>
      </g>
     </g>
     <g id="line2d_113">
      <g>
       <use xlink:href="#m7f520137fb" x="390.474375" y="43.614599" style="stroke: #000000; stroke-width: 0.5"/>
      </g>
     </g>
    </g>
    <g id="ytick_24">
     <g id="line2d_114">
      <g>
       <use xlink:href="#m69b240d110" x="55.674375" y="33.716447" style="stroke: #000000; stroke-width: 0.5"/>
      </g>
     </g>
     <g id="line2d_115">
      <g>
       <use xlink:href="#m7f520137fb" x="390.474375" y="33.716447" style="stroke: #000000; stroke-width: 0.5"/>
      </g>
     </g>
    </g>
    <g id="ytick_25">
     <g id="line2d_116">
      <g>
       <use xlink:href="#m69b240d110" x="55.674375" y="13.920144" style="stroke: #000000; stroke-width: 0.5"/>
      </g>
     </g>
     <g id="line2d_117">
      <g>
       <use xlink:href="#m7f520137fb" x="390.474375" y="13.920144" style="stroke: #000000; stroke-width: 0.5"/>
      </g>
     </g>
    </g>
    <g id="ytick_26">
     <g id="line2d_118">
      <g>
       <use xlink:href="#m69b240d110" x="55.674375" y="4.021992" style="stroke: #000000; stroke-width: 0.5"/>
      </g>
     </g>
     <g id="line2d_119">
      <g>
       <use xlink:href="#m7f520137fb" x="390.474375" y="4.021992" style="stroke: #000000; stroke-width: 0.5"/>
      </g>
     </g>
    </g>
    <g id="text_13">
     <!-- Fitness -->
     <g transform="translate(12.718125 149.120625) rotate(-90) scale(0.12 -0.12)">
      <defs>
       <path id="DejaVuSans-46" d="M 628 4666 
L 3309 4666 
L 3309 4134 
L 1259 4134 
L 1259 2759 
L 3109 2759 
L 3109 2228 
L 1259 2228 
L 1259 0 
L 628 0 
L 628 4666 
z
" transform="scale(0.015625)"/>
      </defs>
      <use xlink:href="#DejaVuSans-46"/>
      <use xlink:href="#DejaVuSans-69" x="50.269531"/>
      <use xlink:href="#DejaVuSans-74" x="78.052734"/>
      <use xlink:href="#DejaVuSans-6e" x="117.261719"/>
      <use xlink:href="#DejaVuSans-65" x="180.640625"/>
      <use xlink:href="#DejaVuSans-73" x="242.164062"/>
      <use xlink:href="#DejaVuSans-73" x="294.263672"/>
     </g>
    </g>
   </g>
   <g id="line2d_120">
    <path d="M 70.892557 18.755747 
L 76.382081 18.751495 
L 77.601976 17.541367 
L 78.211923 17.541373 
L 78.82187 17.362981 
L 79.431817 17.362967 
L 80.651711 16.331438 
L 82.481553 16.331433 
L 83.0915 15.872001 
L 88.581025 15.872007 
L 89.190972 15.685308 
L 92.240708 15.592315 
L 94.070549 15.547011 
L 94.680496 15.547023 
L 95.290444 15.360076 
L 100.779968 15.25883 
L 101.999862 15.193574 
L 139.20664 15.093757 
L 145.916058 15.005237 
L 375.256193 14.940008 
L 375.256193 14.940008 
" clip-path="url(#p9306b06b19)" style="fill: none; stroke: #000000; stroke-linecap: square"/>
   </g>
   <g id="line2d_121">
    <path d="M 70.892557 241.74 
L 71.502504 35.557171 
L 72.112451 32.088838 
L 72.722398 46.403833 
L 73.332345 35.301019 
L 73.942293 45.824085 
L 75.162187 29.243726 
L 75.772134 27.541041 
L 76.382081 27.382453 
L 76.992028 26.057157 
L 78.211923 26.48033 
L 78.82187 25.339996 
L 79.431817 24.534048 
L 80.041764 24.016202 
L 80.651711 22.83473 
L 81.261659 23.397095 
L 81.871606 22.779405 
L 82.481553 21.287593 
L 83.0915 20.203653 
L 83.701447 19.879172 
L 84.311394 19.916814 
L 84.921342 21.18135 
L 85.531289 20.813674 
L 86.141236 20.69584 
L 86.751183 19.322875 
L 87.36113 18.305649 
L 87.971077 17.957514 
L 88.581025 18.243289 
L 89.190972 17.602735 
L 92.240708 16.913371 
L 92.850655 16.992042 
L 93.460602 16.756212 
L 94.070549 16.825459 
L 95.290444 16.645154 
L 95.900391 16.712442 
L 96.510338 16.516152 
L 97.120285 16.796028 
L 97.730232 16.862012 
L 98.340179 16.616708 
L 100.779968 16.542929 
L 101.389915 16.334393 
L 101.999862 16.489725 
L 102.60981 16.240656 
L 103.829704 16.569518 
L 106.87944 16.036337 
L 109.319228 16.18227 
L 110.539123 16.193734 
L 112.978911 16.257912 
L 113.588859 16.079307 
L 114.198806 16.245636 
L 115.4187 16.08387 
L 116.028647 16.174831 
L 117.248542 16.044153 
L 117.858489 16.051493 
L 119.078383 15.773855 
L 120.298277 15.443807 
L 123.348013 15.576642 
L 123.95796 15.408252 
L 127.007696 15.875967 
L 127.617643 15.727292 
L 128.227591 15.811342 
L 128.837538 16.150728 
L 129.447485 15.789973 
L 130.057432 15.776396 
L 130.667379 15.907385 
L 131.277326 15.762099 
L 131.887274 15.745559 
L 133.717115 15.31849 
L 134.327062 15.378549 
L 134.937009 15.568267 
L 135.546957 15.410677 
L 136.156904 15.437747 
L 136.766851 15.620423 
L 137.376798 15.408046 
L 137.986745 15.44019 
L 138.596692 15.791909 
L 139.20664 15.55372 
L 141.036481 15.485832 
L 141.646428 15.586842 
L 142.866323 15.507855 
L 144.086217 15.448479 
L 144.696164 15.287502 
L 145.306111 15.382867 
L 145.916058 15.299704 
L 146.526006 15.586729 
L 147.135953 15.662566 
L 147.7459 15.4372 
L 148.355847 15.646353 
L 149.575741 15.528276 
L 151.405583 15.24182 
L 152.01553 15.472476 
L 152.625477 15.462548 
L 153.845372 15.595692 
L 156.895107 15.664569 
L 158.115002 15.418491 
L 158.724949 15.381104 
L 159.334896 15.47143 
L 160.55479 15.189638 
L 161.164738 15.324409 
L 162.384632 15.248887 
L 163.604526 15.443417 
L 164.214473 15.232245 
L 164.824421 15.447898 
L 165.434368 15.33521 
L 166.044315 15.462414 
L 167.264209 15.34084 
L 168.484104 15.599838 
L 169.094051 15.64343 
L 169.703998 15.482736 
L 171.533839 15.654681 
L 172.753734 15.612362 
L 173.363681 15.764507 
L 175.193522 15.469324 
L 175.80347 15.747391 
L 177.633311 15.339577 
L 180.0731 15.344151 
L 180.683047 15.556012 
L 181.292994 15.448128 
L 181.902941 15.597055 
L 183.122836 15.349292 
L 183.732783 15.651935 
L 184.34273 15.450203 
L 186.782519 15.558728 
L 187.392466 15.493379 
L 188.002413 15.640447 
L 189.222307 15.577837 
L 189.832254 15.930758 
L 190.442202 15.568002 
L 191.052149 15.66808 
L 191.662096 15.462648 
L 192.272043 15.584294 
L 193.491937 15.530666 
L 194.711832 15.70215 
L 195.321779 15.545291 
L 195.931726 15.711526 
L 196.541673 15.534424 
L 197.15162 15.529151 
L 197.761568 15.963886 
L 198.371515 15.767863 
L 198.981462 15.70653 
L 200.201356 15.396781 
L 201.421251 15.471318 
L 202.031198 15.29768 
L 203.251092 15.461746 
L 203.861039 15.360701 
L 204.470986 15.143966 
L 206.300828 15.059187 
L 206.910775 15.237753 
L 207.520722 15.231566 
L 208.130669 15.796541 
L 208.740617 15.644866 
L 209.350564 15.318288 
L 209.960511 15.179135 
L 211.180405 15.14304 
L 212.4003 15.108448 
L 213.010247 15.44838 
L 213.620194 15.194701 
L 214.230141 15.188178 
L 215.450035 15.32429 
L 216.059983 15.22889 
L 217.279877 15.39652 
L 219.109718 15.271833 
L 222.159454 15.387731 
L 222.769401 15.539065 
L 223.989296 15.446215 
L 224.599243 15.516727 
L 225.20919 15.41743 
L 225.819137 15.785428 
L 226.429084 15.484887 
L 227.648979 15.505226 
L 228.868873 15.282725 
L 229.47882 15.371782 
L 230.088767 15.309495 
L 230.698715 15.368965 
L 231.308662 15.241394 
L 233.74845 15.321883 
L 234.968345 15.218292 
L 235.578292 15.375047 
L 236.798186 15.37743 
L 238.018081 15.230694 
L 239.237975 15.205036 
L 239.847922 15.192776 
L 240.457869 15.46574 
L 241.067816 15.607936 
L 241.677764 15.353952 
L 244.727499 15.314156 
L 245.337447 15.547789 
L 246.557341 15.165435 
L 247.167288 15.10652 
L 247.777235 15.259104 
L 249.607077 15.076352 
L 250.826971 15.200223 
L 251.436918 15.434322 
L 252.046865 15.35265 
L 252.656813 15.500037 
L 253.26676 15.432299 
L 253.876707 15.515251 
L 255.096601 15.134446 
L 256.316496 15.17022 
L 256.926443 15.372167 
L 259.366231 15.176207 
L 259.976179 15.239458 
L 261.196073 15.161365 
L 261.80602 15.379022 
L 263.025914 15.201296 
L 263.635862 15.140456 
L 264.245809 15.337711 
L 266.685597 15.184572 
L 267.295545 15.434754 
L 267.905492 15.323296 
L 268.515439 15.482544 
L 270.34528 15.248489 
L 270.955228 15.137604 
L 271.565175 15.349727 
L 273.395016 15.246479 
L 274.004963 15.523375 
L 274.614911 15.291286 
L 275.224858 15.199779 
L 276.444752 15.264464 
L 277.054699 15.135643 
L 279.494488 15.424403 
L 280.104435 15.248854 
L 281.324329 15.142321 
L 281.934277 15.36846 
L 282.544224 15.361298 
L 283.154171 15.167053 
L 284.374065 15.312196 
L 284.984012 15.209442 
L 285.59396 15.261889 
L 286.203907 15.437056 
L 286.813854 15.470906 
L 288.033748 15.168789 
L 288.643695 15.113988 
L 290.473537 15.416137 
L 291.083484 15.31423 
L 291.693431 15.330753 
L 292.913326 15.214661 
L 294.743167 15.237109 
L 295.353114 15.217692 
L 295.963061 15.392712 
L 298.40285 15.061896 
L 300.232692 15.100473 
L 300.842639 15.287864 
L 302.062533 15.248071 
L 302.67248 15.406578 
L 303.282427 15.304697 
L 305.112269 15.523068 
L 305.722216 15.303423 
L 307.552058 15.088722 
L 308.162005 15.252265 
L 309.381899 15.22044 
L 309.991846 15.253122 
L 310.601793 15.409792 
L 311.211741 15.139068 
L 312.431635 15.118405 
L 313.041582 15.230993 
L 316.091318 15.15147 
L 316.701265 15.298648 
L 318.531107 15.319722 
L 319.751001 15.229534 
L 321.580842 15.101313 
L 322.19079 15.340511 
L 322.800737 15.221264 
L 323.410684 15.449242 
L 326.46042 15.14382 
L 327.070367 15.225571 
L 327.680314 15.140017 
L 328.290261 15.404974 
L 328.900208 15.476536 
L 330.73005 15.160703 
L 331.339997 15.074321 
L 331.949944 15.225107 
L 333.169839 15.093216 
L 334.389733 15.299708 
L 336.219574 15.023639 
L 336.829522 15.131604 
L 337.439469 15.015088 
L 338.659363 15.104144 
L 339.26931 15.06005 
L 340.489205 15.167847 
L 341.709099 15.204952 
L 342.319046 15.36501 
L 345.978729 15.587352 
L 347.808571 15.134334 
L 350.248359 15.081844 
L 350.858306 15.2487 
L 351.468254 15.139976 
L 354.51799 15.292814 
L 355.127937 15.131253 
L 355.737884 15.342394 
L 358.177673 15.097135 
L 360.617461 15.200973 
L 361.227408 15.33422 
L 361.837356 15.738798 
L 362.447303 15.296724 
L 364.887091 15.408189 
L 366.106986 15.117375 
L 369.156722 15.078976 
L 369.766669 15.302495 
L 371.59651 15.251269 
L 372.206457 15.260029 
L 372.816405 15.433832 
L 373.426352 15.193149 
L 374.036299 15.114945 
L 374.646246 15.247837 
L 375.256193 15.213674 
L 375.256193 15.213674 
" clip-path="url(#p9306b06b19)" style="fill: none; stroke-dasharray: 3.7,1.6; stroke-dashoffset: 0; stroke: #000000"/>
   </g>
   <g id="patch_3">
    <path d="M 55.674375 253.08 
L 55.674375 3.6 
" style="fill: none; stroke: #000000; stroke-width: 0.5; stroke-linejoin: miter; stroke-linecap: square"/>
   </g>
   <g id="patch_4">
    <path d="M 390.474375 253.08 
L 390.474375 3.6 
" style="fill: none; stroke: #000000; stroke-width: 0.5; stroke-linejoin: miter; stroke-linecap: square"/>
   </g>
   <g id="patch_5">
    <path d="M 55.674375 253.08 
L 390.474375 253.08 
" style="fill: none; stroke: #000000; stroke-width: 0.5; stroke-linejoin: miter; stroke-linecap: square"/>
   </g>
   <g id="patch_6">
    <path d="M 55.674375 3.6 
L 390.474375 3.6 
" style="fill: none; stroke: #000000; stroke-width: 0.5; stroke-linejoin: miter; stroke-linecap: square"/>
   </g>
   <g id="legend_1">
    <g id="patch_7">
     <path d="M 264.268125 247.08 
L 382.074375 247.08 
Q 384.474375 247.08 384.474375 244.68 
L 384.474375 193.03875 
Q 384.474375 190.63875 382.074375 190.63875 
L 264.268125 190.63875 
Q 261.868125 190.63875 261.868125 193.03875 
L 261.868125 244.68 
Q 261.868125 247.08 264.268125 247.08 
z
" style="fill: #ffffff; opacity: 0.8; stroke: #cccccc; stroke-linejoin: miter"/>
    </g>
    <g id="line2d_122">
     <path d="M 266.668125 200.356875 
L 278.668125 200.356875 
L 290.668125 200.356875 
" style="fill: none; stroke: #000000; stroke-linecap: square"/>
    </g>
    <g id="text_14">
     <!-- Max fitness -->
     <g transform="translate(300.268125 204.556875) scale(0.12 -0.12)">
      <defs>
       <path id="DejaVuSans-4d" d="M 628 4666 
L 1569 4666 
L 2759 1491 
L 3956 4666 
L 4897 4666 
L 4897 0 
L 4281 0 
L 4281 4097 
L 3078 897 
L 2444 897 
L 1241 4097 
L 1241 0 
L 628 0 
L 628 4666 
z
" transform="scale(0.015625)"/>
       <path id="DejaVuSans-78" d="M 3513 3500 
L 2247 1797 
L 3578 0 
L 2900 0 
L 1881 1375 
L 863 0 
L 184 0 
L 1544 1831 
L 300 3500 
L 978 3500 
L 1906 2253 
L 2834 3500 
L 3513 3500 
z
" transform="scale(0.015625)"/>
       <path id="DejaVuSans-20" transform="scale(0.015625)"/>
       <path id="DejaVuSans-66" d="M 2375 4863 
L 2375 4384 
L 1825 4384 
Q 1516 4384 1395 4259 
Q 1275 4134 1275 3809 
L 1275 3500 
L 2222 3500 
L 2222 3053 
L 1275 3053 
L 1275 0 
L 697 0 
L 697 3053 
L 147 3053 
L 147 3500 
L 697 3500 
L 697 3744 
Q 697 4328 969 4595 
Q 1241 4863 1831 4863 
L 2375 4863 
z
" transform="scale(0.015625)"/>
      </defs>
      <use xlink:href="#DejaVuSans-4d"/>
      <use xlink:href="#DejaVuSans-61" x="86.279297"/>
      <use xlink:href="#DejaVuSans-78" x="147.558594"/>
      <use xlink:href="#DejaVuSans-20" x="206.738281"/>
      <use xlink:href="#DejaVuSans-66" x="238.525391"/>
      <use xlink:href="#DejaVuSans-69" x="273.730469"/>
      <use xlink:href="#DejaVuSans-74" x="301.513672"/>
      <use xlink:href="#DejaVuSans-6e" x="340.722656"/>
      <use xlink:href="#DejaVuSans-65" x="404.101562"/>
      <use xlink:href="#DejaVuSans-73" x="465.625"/>
      <use xlink:href="#DejaVuSans-73" x="517.724609"/>
     </g>
    </g>
    <g id="patch_8">
     <path d="M 266.668125 222.170625 
L 290.668125 222.170625 
L 290.668125 213.770625 
L 266.668125 213.770625 
z
" style="fill: #0000ff; fill-opacity: 0.2; stroke: #0000ff; stroke-opacity: 0.2; stroke-linejoin: miter"/>
    </g>
    <g id="text_15">
     <!-- Top 90% -->
     <g transform="translate(300.268125 222.170625) scale(0.12 -0.12)">
      <defs>
       <path id="DejaVuSans-54" d="M -19 4666 
L 3928 4666 
L 3928 4134 
L 2272 4134 
L 2272 0 
L 1638 0 
L 1638 4134 
L -19 4134 
L -19 4666 
z
" transform="scale(0.015625)"/>
       <path id="DejaVuSans-70" d="M 1159 525 
L 1159 -1331 
L 581 -1331 
L 581 3500 
L 1159 3500 
L 1159 2969 
Q 1341 3281 1617 3432 
Q 1894 3584 2278 3584 
Q 2916 3584 3314 3078 
Q 3713 2572 3713 1747 
Q 3713 922 3314 415 
Q 2916 -91 2278 -91 
Q 1894 -91 1617 61 
Q 1341 213 1159 525 
z
M 3116 1747 
Q 3116 2381 2855 2742 
Q 2594 3103 2138 3103 
Q 1681 3103 1420 2742 
Q 1159 2381 1159 1747 
Q 1159 1113 1420 752 
Q 1681 391 2138 391 
Q 2594 391 2855 752 
Q 3116 1113 3116 1747 
z
" transform="scale(0.015625)"/>
       <path id="DejaVuSans-39" d="M 703 97 
L 703 672 
Q 941 559 1184 500 
Q 1428 441 1663 441 
Q 2288 441 2617 861 
Q 2947 1281 2994 2138 
Q 2813 1869 2534 1725 
Q 2256 1581 1919 1581 
Q 1219 1581 811 2004 
Q 403 2428 403 3163 
Q 403 3881 828 4315 
Q 1253 4750 1959 4750 
Q 2769 4750 3195 4129 
Q 3622 3509 3622 2328 
Q 3622 1225 3098 567 
Q 2575 -91 1691 -91 
Q 1453 -91 1209 -44 
Q 966 3 703 97 
z
M 1959 2075 
Q 2384 2075 2632 2365 
Q 2881 2656 2881 3163 
Q 2881 3666 2632 3958 
Q 2384 4250 1959 4250 
Q 1534 4250 1286 3958 
Q 1038 3666 1038 3163 
Q 1038 2656 1286 2365 
Q 1534 2075 1959 2075 
z
" transform="scale(0.015625)"/>
       <path id="DejaVuSans-25" d="M 4653 2053 
Q 4381 2053 4226 1822 
Q 4072 1591 4072 1178 
Q 4072 772 4226 539 
Q 4381 306 4653 306 
Q 4919 306 5073 539 
Q 5228 772 5228 1178 
Q 5228 1588 5073 1820 
Q 4919 2053 4653 2053 
z
M 4653 2450 
Q 5147 2450 5437 2106 
Q 5728 1763 5728 1178 
Q 5728 594 5436 251 
Q 5144 -91 4653 -91 
Q 4153 -91 3862 251 
Q 3572 594 3572 1178 
Q 3572 1766 3864 2108 
Q 4156 2450 4653 2450 
z
M 1428 4353 
Q 1159 4353 1004 4120 
Q 850 3888 850 3481 
Q 850 3069 1003 2837 
Q 1156 2606 1428 2606 
Q 1700 2606 1854 2837 
Q 2009 3069 2009 3481 
Q 2009 3884 1853 4118 
Q 1697 4353 1428 4353 
z
M 4250 4750 
L 4750 4750 
L 1831 -91 
L 1331 -91 
L 4250 4750 
z
M 1428 4750 
Q 1922 4750 2215 4408 
Q 2509 4066 2509 3481 
Q 2509 2891 2217 2550 
Q 1925 2209 1428 2209 
Q 931 2209 642 2551 
Q 353 2894 353 3481 
Q 353 4063 643 4406 
Q 934 4750 1428 4750 
z
" transform="scale(0.015625)"/>
      </defs>
      <use xlink:href="#DejaVuSans-54"/>
      <use xlink:href="#DejaVuSans-6f" x="44.083984"/>
      <use xlink:href="#DejaVuSans-70" x="105.265625"/>
      <use xlink:href="#DejaVuSans-20" x="168.742188"/>
      <use xlink:href="#DejaVuSans-39" x="200.529297"/>
      <use xlink:href="#DejaVuSans-30" x="264.152344"/>
      <use xlink:href="#DejaVuSans-25" x="327.775391"/>
     </g>
    </g>
    <g id="line2d_123">
     <path d="M 266.668125 235.584375 
L 278.668125 235.584375 
L 290.668125 235.584375 
" style="fill: none; stroke-dasharray: 3.7,1.6; stroke-dashoffset: 0; stroke: #000000"/>
    </g>
    <g id="text_16">
     <!-- Fitness mean -->
     <g transform="translate(300.268125 239.784375) scale(0.12 -0.12)">
      <defs>
       <path id="DejaVuSans-6d" d="M 3328 2828 
Q 3544 3216 3844 3400 
Q 4144 3584 4550 3584 
Q 5097 3584 5394 3201 
Q 5691 2819 5691 2113 
L 5691 0 
L 5113 0 
L 5113 2094 
Q 5113 2597 4934 2840 
Q 4756 3084 4391 3084 
Q 3944 3084 3684 2787 
Q 3425 2491 3425 1978 
L 3425 0 
L 2847 0 
L 2847 2094 
Q 2847 2600 2669 2842 
Q 2491 3084 2119 3084 
Q 1678 3084 1418 2786 
Q 1159 2488 1159 1978 
L 1159 0 
L 581 0 
L 581 3500 
L 1159 3500 
L 1159 2956 
Q 1356 3278 1631 3431 
Q 1906 3584 2284 3584 
Q 2666 3584 2933 3390 
Q 3200 3197 3328 2828 
z
" transform="scale(0.015625)"/>
      </defs>
      <use xlink:href="#DejaVuSans-46"/>
      <use xlink:href="#DejaVuSans-69" x="50.269531"/>
      <use xlink:href="#DejaVuSans-74" x="78.052734"/>
      <use xlink:href="#DejaVuSans-6e" x="117.261719"/>
      <use xlink:href="#DejaVuSans-65" x="180.640625"/>
      <use xlink:href="#DejaVuSans-73" x="242.164062"/>
      <use xlink:href="#DejaVuSans-73" x="294.263672"/>
      <use xlink:href="#DejaVuSans-20" x="346.363281"/>
      <use xlink:href="#DejaVuSans-6d" x="378.150391"/>
      <use xlink:href="#DejaVuSans-65" x="475.5625"/>
      <use xlink:href="#DejaVuSans-61" x="537.085938"/>
      <use xlink:href="#DejaVuSans-6e" x="598.365234"/>
     </g>
    </g>
   </g>
  </g>
 </g>
 <defs>
  <clipPath id="p9306b06b19">
   <rect x="55.674375" y="3.6" width="334.8" height="249.48"/>
  </clipPath>
 </defs>
</svg>
