<?xml version="1.0" encoding="utf-8" standalone="no"?>
<!DOCTYPE svg PUBLIC "-//W3C//DTD SVG 1.1//EN"
  "http://www.w3.org/Graphics/SVG/1.1/DTD/svg11.dtd">
<svg xmlns:xlink="http://www.w3.org/1999/xlink" width="386.439375pt" height="287.4075pt" viewBox="0 0 386.439375 287.4075" xmlns="http://www.w3.org/2000/svg" version="1.1">
 <metadata>
  <rdf:RDF xmlns:dc="http://purl.org/dc/elements/1.1/" xmlns:cc="http://creativecommons.org/ns#" xmlns:rdf="http://www.w3.org/1999/02/22-rdf-syntax-ns#">
   <cc:Work>
    <dc:type rdf:resource="http://purl.org/dc/dcmitype/StillImage"/>
    <dc:date>2024-06-25T10:22:35.895669</dc:date>
    <dc:format>image/svg+xml</dc:format>
    <dc:creator>
     <cc:Agent>
      <dc:title>Matplotlib v3.9.0, https://matplotlib.org/</dc:title>
     </cc:Agent>
    </dc:creator>
   </cc:Work>
  </rdf:RDF>
 </metadata>
 <defs>
  <style type="text/css">*{stroke-linejoin: round; stroke-linecap: butt}</style>
 </defs>
 <g id="figure_1">
  <g id="patch_1">
   <path d="M 0 287.4075 
L 386.439375 287.4075 
L 386.439375 0 
L 0 0 
z
" style="fill: #ffffff"/>
  </g>
  <g id="axes_1">
   <g id="patch_2">
    <path d="M 48.039375 253.08 
L 382.839375 253.08 
L 382.839375 3.6 
L 48.039375 3.6 
z
" style="fill: #ffffff"/>
   </g>
   <g id="PolyCollection_1">
    <defs>
     <path id="m3bbb102dfa" d="M 63.257557 -248.386012 
L 63.257557 -106.332043 
L 63.867504 -102.910147 
L 64.477451 -107.570489 
L 65.087398 -58.573772 
L 65.697345 -45.6675 
L 66.307293 -72.608453 
L 66.91724 -88.948901 
L 67.527187 -91.518973 
L 68.137134 -110.167301 
L 68.747081 -123.22698 
L 69.357028 -133.050112 
L 69.966976 -134.377468 
L 70.576923 -153.637681 
L 71.18687 -137.677044 
L 71.796817 -135.111849 
L 72.406764 -141.289706 
L 73.016711 -154.255421 
L 73.626659 -139.792661 
L 74.236606 -166.901121 
L 74.846553 -167.304234 
L 75.4565 -167.394289 
L 76.066447 -169.298716 
L 76.676394 -170.36545 
L 77.286342 -172.07861 
L 77.896289 -172.145811 
L 78.506236 -173.635109 
L 79.116183 -174.365763 
L 79.72613 -171.513094 
L 80.336077 -172.427691 
L 80.946025 -174.991925 
L 81.555972 -177.590435 
L 82.165919 -178.304457 
L 82.775866 -185.390179 
L 83.385813 -188.131006 
L 83.99576 -188.131006 
L 84.605708 -211.434318 
L 85.215655 -211.410536 
L 85.825602 -222.059837 
L 86.435549 -226.435823 
L 87.045496 -255.263425 
L 87.655444 -259.052806 
L 88.265391 -259.008709 
L 88.875338 -259.666838 
L 89.485285 -260.097429 
L 90.095232 -260.411872 
L 90.705179 -259.907457 
L 91.315127 -260.176039 
L 91.925074 -260.036351 
L 92.535021 -259.587652 
L 93.144968 -260.476659 
L 93.754915 -259.69416 
L 94.364862 -259.696106 
L 94.97481 -259.447561 
L 95.584757 -258.980782 
L 96.194704 -258.37515 
L 96.804651 -259.698808 
L 97.414598 -258.671387 
L 98.024545 -258.563705 
L 98.634493 -258.749891 
L 99.24444 -258.069598 
L 99.854387 -258.032822 
L 100.464334 -258.805577 
L 101.074281 -258.910997 
L 101.684228 -257.893156 
L 102.294176 -257.863852 
L 102.904123 -258.922294 
L 103.51407 -258.709365 
L 104.124017 -257.936326 
L 104.733964 -257.119209 
L 105.343911 -258.629369 
L 105.953859 -258.085024 
L 106.563806 -257.199038 
L 107.173753 -257.814133 
L 107.7837 -256.553783 
L 108.393647 -256.908087 
L 109.003594 -256.55394 
L 109.613542 -257.153842 
L 110.223489 -257.878452 
L 110.833436 -259.413734 
L 111.443383 -258.087506 
L 112.05333 -256.639551 
L 112.663277 -258.206472 
L 113.273225 -256.668838 
L 113.883172 -257.685201 
L 114.493119 -259.139418 
L 115.103066 -259.029501 
L 115.713013 -259.013182 
L 116.32296 -259.416511 
L 116.932908 -259.738714 
L 117.542855 -259.371302 
L 118.152802 -259.353397 
L 118.762749 -257.903415 
L 119.372696 -258.074439 
L 119.982643 -253.780576 
L 120.592591 -255.920748 
L 121.202538 -258.322923 
L 121.812485 -258.261619 
L 122.422432 -260.114355 
L 123.032379 -257.599029 
L 123.642326 -261.690837 
L 124.252274 -260.744479 
L 124.862221 -261.437421 
L 125.472168 -262.742539 
L 126.082115 -262.629622 
L 126.692062 -261.287298 
L 127.302009 -261.271116 
L 127.911957 -262.720674 
L 128.521904 -262.983463 
L 129.131851 -262.745462 
L 129.741798 -262.956001 
L 130.351745 -263.670026 
L 130.961692 -263.384166 
L 131.57164 -263.113754 
L 132.181587 -262.514374 
L 132.791534 -262.5403 
L 133.401481 -262.540307 
L 134.011428 -261.208287 
L 134.621375 -262.617299 
L 135.231323 -261.998813 
L 135.84127 -263.555366 
L 136.451217 -263.136546 
L 137.061164 -260.917451 
L 137.671111 -261.625274 
L 138.281058 -263.506555 
L 138.891006 -263.769345 
L 139.500953 -264.203122 
L 140.1109 -264.830794 
L 140.720847 -264.570838 
L 141.330794 -264.308808 
L 141.940741 -263.881039 
L 142.550689 -263.127594 
L 143.160636 -264.406528 
L 143.770583 -263.911147 
L 144.38053 -262.654488 
L 144.990477 -265.042999 
L 145.600424 -264.772819 
L 146.210372 -265.03578 
L 146.820319 -264.754244 
L 147.430266 -261.346687 
L 148.040213 -261.895636 
L 148.65016 -261.913058 
L 149.260107 -261.547522 
L 149.870055 -262.13509 
L 150.480002 -261.948387 
L 151.089949 -262.338103 
L 151.699896 -262.226978 
L 152.309843 -259.550416 
L 152.91979 -259.550305 
L 153.529738 -259.550295 
L 154.139685 -260.474116 
L 154.749632 -260.697501 
L 155.359579 -256.937476 
L 155.969526 -256.82629 
L 156.579473 -258.931095 
L 157.189421 -260.41346 
L 157.799368 -262.341012 
L 158.409315 -262.268325 
L 159.019262 -264.501681 
L 159.629209 -264.341455 
L 160.239156 -262.704218 
L 160.849104 -263.813609 
L 161.459051 -260.854632 
L 162.068998 -261.302494 
L 162.678945 -262.907675 
L 163.288892 -262.201485 
L 163.898839 -261.431312 
L 164.508787 -260.819265 
L 165.118734 -262.007671 
L 165.728681 -261.972999 
L 166.338628 -260.970295 
L 166.948575 -261.962865 
L 167.558522 -262.061401 
L 168.16847 -261.972762 
L 168.778417 -261.970332 
L 169.388364 -260.574319 
L 169.998311 -262.92913 
L 170.608258 -262.527365 
L 171.218205 -262.012085 
L 171.828153 -261.085373 
L 172.4381 -261.030821 
L 173.048047 -262.295784 
L 173.657994 -262.295797 
L 174.267941 -263.535544 
L 174.877888 -263.306387 
L 175.487836 -262.354301 
L 176.097783 -262.688943 
L 176.70773 -262.295733 
L 177.317677 -262.08018 
L 177.927624 -260.724315 
L 178.537571 -262.911185 
L 179.147519 -262.443259 
L 179.757466 -261.730858 
L 180.367413 -261.773559 
L 180.97736 -262.339846 
L 181.587307 -262.692902 
L 182.197254 -262.443345 
L 182.807202 -263.027956 
L 183.417149 -262.436631 
L 184.027096 -262.443233 
L 184.637043 -262.819761 
L 185.24699 -262.038114 
L 185.856937 -263.271806 
L 186.466885 -263.271888 
L 187.076832 -263.271804 
L 187.686779 -263.840795 
L 188.296726 -262.953935 
L 188.906673 -263.321963 
L 189.51662 -261.848498 
L 190.126568 -260.031095 
L 190.736515 -260.747643 
L 191.346462 -261.489643 
L 191.956409 -264.585759 
L 192.566356 -266.175705 
L 193.176303 -265.162161 
L 193.786251 -265.456107 
L 194.396198 -265.7425 
L 195.006145 -266.572164 
L 195.616092 -264.585924 
L 196.226039 -264.393429 
L 196.835986 -265.006683 
L 197.445934 -263.962802 
L 198.055881 -263.894248 
L 198.665828 -260.849025 
L 199.275775 -260.848842 
L 199.885722 -259.084966 
L 200.495669 -263.403864 
L 201.105617 -258.145384 
L 201.715564 -260.823545 
L 202.325511 -257.089333 
L 202.935458 -263.011156 
L 203.545405 -264.726233 
L 204.155352 -265.002435 
L 204.7653 -264.726228 
L 205.375247 -263.803417 
L 205.985194 -265.033743 
L 206.595141 -263.80342 
L 207.205088 -265.033745 
L 207.815035 -265.107837 
L 208.424983 -263.80342 
L 209.03493 -263.696458 
L 209.644877 -263.511338 
L 210.254824 -265.275451 
L 210.864771 -265.177499 
L 211.474718 -264.034963 
L 212.084666 -262.776514 
L 212.694613 -263.221819 
L 213.30456 -261.066048 
L 213.914507 -264.804052 
L 214.524454 -263.178757 
L 215.134401 -263.733853 
L 215.744349 -263.499992 
L 216.354296 -263.226735 
L 216.964243 -264.645358 
L 217.57419 -263.154278 
L 218.184137 -263.154274 
L 218.794084 -263.154273 
L 219.404032 -262.686817 
L 220.013979 -262.522063 
L 220.623926 -262.643599 
L 221.233873 -263.373145 
L 221.84382 -263.394626 
L 222.453767 -263.16971 
L 223.063715 -262.799482 
L 223.673662 -261.390088 
L 224.283609 -261.462811 
L 224.893556 -261.770494 
L 225.503503 -263.05337 
L 226.11345 -263.173482 
L 226.723398 -263.394589 
L 227.333345 -264.316169 
L 227.943292 -264.41858 
L 228.553239 -264.316167 
L 229.163186 -264.09698 
L 229.773133 -264.116924 
L 230.383081 -260.772114 
L 230.993028 -262.742642 
L 231.602975 -261.533302 
L 232.212922 -259.154613 
L 232.822869 -263.110481 
L 233.432816 -262.755563 
L 234.042764 -262.947584 
L 234.652711 -262.854011 
L 235.262658 -262.854005 
L 235.872605 -262.199569 
L 236.482552 -259.759796 
L 237.092499 -262.665651 
L 237.702447 -262.665675 
L 238.312394 -262.66563 
L 238.922341 -259.087329 
L 239.532288 -256.422239 
L 240.142235 -262.66574 
L 240.752182 -258.954508 
L 241.36213 -262.32098 
L 241.972077 -259.337929 
L 242.582024 -260.087322 
L 243.191971 -260.08354 
L 243.801918 -260.305921 
L 244.411865 -260.850861 
L 245.021813 -261.123711 
L 245.63176 -260.816045 
L 246.241707 -262.221174 
L 246.851654 -260.106853 
L 247.461601 -257.325855 
L 248.071548 -260.098391 
L 248.681496 -261.766539 
L 249.291443 -262.85814 
L 249.90139 -262.486268 
L 250.511337 -263.151276 
L 251.121284 -262.755561 
L 251.731231 -264.316167 
L 252.341179 -263.493163 
L 252.951126 -262.819435 
L 253.561073 -263.212395 
L 254.17102 -263.715739 
L 254.780967 -264.316165 
L 255.390914 -265.410365 
L 256.000862 -264.173917 
L 256.610809 -265.463659 
L 257.220756 -263.87667 
L 257.830703 -264.05725 
L 258.44065 -262.865365 
L 259.050597 -264.074629 
L 259.660545 -263.384593 
L 260.270492 -263.426055 
L 260.880439 -261.112531 
L 261.490386 -260.360686 
L 262.100333 -256.540606 
L 262.71028 -261.081944 
L 263.320228 -263.535024 
L 263.930175 -265.340105 
L 264.540122 -265.340135 
L 265.150069 -265.601099 
L 265.760016 -263.955926 
L 266.369963 -264.765784 
L 266.979911 -262.794759 
L 267.589858 -264.841942 
L 268.199805 -259.931863 
L 268.809752 -256.744523 
L 269.419699 -253.826891 
L 270.029646 -254.396482 
L 270.639594 -256.719946 
L 271.249541 -256.894878 
L 271.859488 -257.703472 
L 272.469435 -254.156614 
L 273.079382 -257.360472 
L 273.689329 -256.010508 
L 274.299277 -255.42789 
L 274.909224 -257.713191 
L 275.519171 -262.054475 
L 276.129118 -262.993855 
L 276.739065 -262.599637 
L 277.349012 -263.623376 
L 277.95896 -263.11889 
L 278.568907 -264.016051 
L 279.178854 -261.954742 
L 279.788801 -262.914752 
L 280.398748 -256.486191 
L 281.008695 -237.097185 
L 281.618643 -263.028282 
L 282.22859 -262.67453 
L 282.838537 -263.401662 
L 283.448484 -263.059152 
L 284.058431 -256.304159 
L 284.668378 -258.853389 
L 285.278326 -263.860611 
L 285.888273 -263.491662 
L 286.49822 -262.961518 
L 287.108167 -263.792271 
L 287.718114 -265.090749 
L 288.328061 -264.915051 
L 288.938009 -264.161376 
L 289.547956 -264.481781 
L 290.157903 -264.914979 
L 290.76785 -262.984144 
L 291.377797 -262.984147 
L 291.987744 -262.781291 
L 292.597692 -259.960945 
L 293.207639 -264.096054 
L 293.817586 -263.59763 
L 294.427533 -264.914828 
L 295.03748 -264.914677 
L 295.647427 -264.609926 
L 296.257375 -263.518429 
L 296.867322 -262.275022 
L 297.477269 -264.914682 
L 298.087216 -261.675698 
L 298.697163 -264.426387 
L 299.30711 -262.494295 
L 299.917058 -263.621693 
L 300.527005 -261.166015 
L 301.136952 -259.687398 
L 301.746899 -261.270342 
L 302.356846 -261.175348 
L 302.966793 -262.703929 
L 303.576741 -262.228851 
L 304.186688 -262.766082 
L 304.796635 -262.690174 
L 305.406582 -262.766226 
L 306.016529 -261.778121 
L 306.626476 -261.748667 
L 307.236424 -262.290376 
L 307.846371 -263.423572 
L 308.456318 -261.998657 
L 309.066265 -263.339859 
L 309.676212 -263.011767 
L 310.286159 -263.470947 
L 310.896107 -261.77816 
L 311.506054 -263.777602 
L 312.116001 -263.634463 
L 312.725948 -261.77816 
L 313.335895 -261.283794 
L 313.945842 -261.283788 
L 314.55579 -262.80034 
L 315.165737 -262.658884 
L 315.775684 -261.28379 
L 316.385631 -262.703705 
L 316.995578 -261.283786 
L 317.605525 -260.499314 
L 318.215473 -260.068631 
L 318.82542 -259.257604 
L 319.435367 -258.941293 
L 320.045314 -259.206943 
L 320.655261 -258.050059 
L 321.265208 -258.145159 
L 321.875156 -258.86477 
L 322.485103 -260.66279 
L 323.09505 -262.172055 
L 323.704997 -263.265749 
L 324.314944 -263.454366 
L 324.924891 -263.454361 
L 325.534839 -263.925639 
L 326.144786 -262.633766 
L 326.754733 -258.390073 
L 327.36468 -260.544193 
L 327.974627 -262.101873 
L 328.584574 -260.544177 
L 329.194522 -262.680009 
L 329.804469 -261.840403 
L 330.414416 -258.887328 
L 331.024363 -257.827716 
L 331.63431 -256.86283 
L 332.244257 -261.365925 
L 332.854205 -259.794037 
L 333.464152 -263.058181 
L 334.074099 -264.443401 
L 334.684046 -265.834145 
L 335.293993 -264.681475 
L 335.90394 -264.499116 
L 336.513888 -263.375005 
L 337.123835 -262.528613 
L 337.733782 -263.213837 
L 338.343729 -260.258275 
L 338.953676 -260.413802 
L 339.563623 -261.260576 
L 340.173571 -263.058179 
L 340.783518 -260.884285 
L 341.393465 -264.218275 
L 342.003412 -263.91088 
L 342.613359 -265.252883 
L 343.223306 -264.02289 
L 343.833254 -263.552687 
L 344.443201 -261.785572 
L 345.053148 -263.174014 
L 345.663095 -263.344456 
L 346.273042 -263.764568 
L 346.88299 -264.022874 
L 347.492937 -263.277374 
L 348.102884 -262.974895 
L 348.712831 -264.009187 
L 349.322778 -264.009221 
L 349.932725 -264.00926 
L 350.542673 -263.019174 
L 351.15262 -264.009269 
L 351.762567 -262.576597 
L 352.372514 -262.407252 
L 352.982461 -262.183318 
L 353.592408 -263.877381 
L 354.202356 -263.890278 
L 354.812303 -262.856897 
L 355.42225 -263.578477 
L 356.032197 -261.45622 
L 356.642144 -259.282505 
L 357.252091 -256.081688 
L 357.862039 -258.24707 
L 358.471986 -262.59273 
L 359.081933 -262.602988 
L 359.69188 -260.907808 
L 360.301827 -257.716193 
L 360.911774 -260.907852 
L 361.521722 -260.493473 
L 362.131669 -262.318125 
L 362.741616 -262.812558 
L 363.351563 -262.150728 
L 363.96151 -263.125564 
L 364.571457 -263.980413 
L 365.181405 -265.258049 
L 365.791352 -262.868373 
L 366.401299 -262.647299 
L 367.011246 -262.251419 
L 367.621193 -260.39918 
L 367.621193 -272.466848 
L 367.621193 -272.466848 
L 367.011246 -272.467195 
L 366.401299 -272.466846 
L 365.791352 -272.466896 
L 365.181405 -272.466847 
L 364.571457 -272.466869 
L 363.96151 -272.466889 
L 363.351563 -272.466872 
L 362.741616 -272.466894 
L 362.131669 -272.466856 
L 361.521722 -272.466855 
L 360.911774 -272.46684 
L 360.301827 -272.466849 
L 359.69188 -272.466868 
L 359.081933 -272.466858 
L 358.471986 -272.4675 
L 357.862039 -272.467221 
L 357.252091 -272.466852 
L 356.642144 -272.466861 
L 356.032197 -272.466874 
L 355.42225 -272.467365 
L 354.812303 -272.466897 
L 354.202356 -272.466971 
L 353.592408 -272.467411 
L 352.982461 -272.466863 
L 352.372514 -272.46688 
L 351.762567 -272.466872 
L 351.15262 -272.466868 
L 350.542673 -272.466852 
L 349.932725 -272.466956 
L 349.322778 -272.466898 
L 348.712831 -272.46684 
L 348.102884 -272.466862 
L 347.492937 -272.466873 
L 346.88299 -272.467368 
L 346.273042 -272.467375 
L 345.663095 -272.466847 
L 345.053148 -272.466861 
L 344.443201 -272.466868 
L 343.833254 -272.466856 
L 343.223306 -272.467059 
L 342.613359 -272.466899 
L 342.003412 -272.466901 
L 341.393465 -272.466871 
L 340.783518 -272.466878 
L 340.173571 -272.466903 
L 339.563623 -272.466898 
L 338.953676 -272.466865 
L 338.343729 -272.466877 
L 337.733782 -272.466878 
L 337.123835 -272.466862 
L 336.513888 -272.466846 
L 335.90394 -272.467038 
L 335.293993 -272.466901 
L 334.684046 -272.466874 
L 334.074099 -272.466872 
L 333.464152 -272.467261 
L 332.854205 -272.466852 
L 332.244257 -272.466884 
L 331.63431 -272.466869 
L 331.024363 -272.466856 
L 330.414416 -272.466904 
L 329.804469 -272.466856 
L 329.194522 -272.46686 
L 328.584574 -272.466842 
L 327.974627 -272.466862 
L 327.36468 -272.466882 
L 326.754733 -272.46685 
L 326.144786 -272.466853 
L 325.534839 -272.466868 
L 324.924891 -272.466865 
L 324.314944 -272.466839 
L 323.704997 -272.466888 
L 323.09505 -272.466872 
L 322.485103 -272.466846 
L 321.875156 -272.466866 
L 321.265208 -272.466846 
L 320.655261 -272.466861 
L 320.045314 -272.466848 
L 319.435367 -272.467406 
L 318.82542 -272.466854 
L 318.215473 -272.467152 
L 317.605525 -272.466846 
L 316.995578 -272.466861 
L 316.385631 -272.466876 
L 315.775684 -272.466878 
L 315.165737 -272.466851 
L 314.55579 -272.466868 
L 313.945842 -272.466901 
L 313.335895 -272.46689 
L 312.725948 -272.46688 
L 312.116001 -272.466875 
L 311.506054 -272.466952 
L 310.896107 -272.466885 
L 310.286159 -272.466869 
L 309.676212 -272.467409 
L 309.066265 -272.466877 
L 308.456318 -272.466916 
L 307.846371 -272.466854 
L 307.236424 -272.466859 
L 306.626476 -272.467467 
L 306.016529 -272.466877 
L 305.406582 -272.466854 
L 304.796635 -272.466863 
L 304.186688 -272.466837 
L 303.576741 -272.46686 
L 302.966793 -272.466836 
L 302.356846 -272.466851 
L 301.746899 -272.466882 
L 301.136952 -272.467319 
L 300.527005 -272.46686 
L 299.917058 -272.467457 
L 299.30711 -272.466871 
L 298.697163 -272.466862 
L 298.087216 -272.466859 
L 297.477269 -272.466872 
L 296.867322 -272.467002 
L 296.257375 -272.466877 
L 295.647427 -272.466885 
L 295.03748 -272.466865 
L 294.427533 -272.467271 
L 293.817586 -272.466877 
L 293.207639 -272.466855 
L 292.597692 -272.466881 
L 291.987744 -272.466886 
L 291.377797 -272.466851 
L 290.76785 -272.466938 
L 290.157903 -272.466869 
L 289.547956 -272.466867 
L 288.938009 -272.466875 
L 288.328061 -272.466878 
L 287.718114 -272.466872 
L 287.108167 -272.466863 
L 286.49822 -272.466858 
L 285.888273 -272.466857 
L 285.278326 -272.466825 
L 284.668378 -272.466852 
L 284.058431 -272.466858 
L 283.448484 -272.466853 
L 282.838537 -272.466837 
L 282.22859 -272.466875 
L 281.618643 -272.46682 
L 281.008695 -272.466772 
L 280.398748 -272.466843 
L 279.788801 -272.466803 
L 279.178854 -272.466604 
L 278.568907 -272.466712 
L 277.95896 -272.466697 
L 277.349012 -272.461723 
L 276.739065 -272.461725 
L 276.129118 -272.461722 
L 275.519171 -272.461721 
L 274.909224 -272.461722 
L 274.299277 -272.461723 
L 273.689329 -272.461727 
L 273.079382 -272.461723 
L 272.469435 -272.461724 
L 271.859488 -272.461722 
L 271.249541 -272.461726 
L 270.639594 -272.461728 
L 270.029646 -272.461724 
L 269.419699 -272.461724 
L 268.809752 -272.461722 
L 268.199805 -272.461718 
L 267.589858 -272.461722 
L 266.979911 -272.461721 
L 266.369963 -272.46173 
L 265.760016 -272.461727 
L 265.150069 -272.461722 
L 264.540122 -272.461721 
L 263.930175 -272.461723 
L 263.320228 -272.461725 
L 262.71028 -272.461723 
L 262.100333 -272.461724 
L 261.490386 -272.461723 
L 260.880439 -272.461727 
L 260.270492 -272.461723 
L 259.660545 -272.461729 
L 259.050597 -272.461716 
L 258.44065 -272.461724 
L 257.830703 -272.461726 
L 257.220756 -272.461724 
L 256.610809 -272.461728 
L 256.000862 -272.461727 
L 255.390914 -272.461721 
L 254.780967 -272.461727 
L 254.17102 -272.461725 
L 253.561073 -272.461726 
L 252.951126 -272.461723 
L 252.341179 -272.461721 
L 251.731231 -272.46173 
L 251.121284 -272.461725 
L 250.511337 -272.461721 
L 249.90139 -272.461725 
L 249.291443 -272.461726 
L 248.681496 -272.461725 
L 248.071548 -272.46172 
L 247.461601 -272.461726 
L 246.851654 -272.461729 
L 246.241707 -272.46172 
L 245.63176 -272.461722 
L 245.021813 -272.461726 
L 244.411865 -272.46173 
L 243.801918 -272.461723 
L 243.191971 -272.461727 
L 242.582024 -272.461725 
L 241.972077 -272.46173 
L 241.36213 -272.461725 
L 240.752182 -272.461728 
L 240.142235 -272.461727 
L 239.532288 -272.461719 
L 238.922341 -272.461721 
L 238.312394 -272.461727 
L 237.702447 -272.461723 
L 237.092499 -272.461725 
L 236.482552 -272.461729 
L 235.872605 -272.461726 
L 235.262658 -272.461725 
L 234.652711 -272.461726 
L 234.042764 -272.461725 
L 233.432816 -272.461725 
L 232.822869 -272.461728 
L 232.212922 -272.461728 
L 231.602975 -272.461727 
L 230.993028 -272.461728 
L 230.383081 -272.461725 
L 229.773133 -272.461729 
L 229.163186 -272.461721 
L 228.553239 -272.461726 
L 227.943292 -272.461725 
L 227.333345 -272.461729 
L 226.723398 -272.46172 
L 226.11345 -272.461724 
L 225.503503 -272.461726 
L 224.893556 -272.461727 
L 224.283609 -272.461725 
L 223.673662 -272.461727 
L 223.063715 -272.461723 
L 222.453767 -272.461725 
L 221.84382 -272.461727 
L 221.233873 -272.461725 
L 220.623926 -272.461727 
L 220.013979 -272.461729 
L 219.404032 -272.461719 
L 218.794084 -272.461722 
L 218.184137 -272.461728 
L 217.57419 -272.461728 
L 216.964243 -272.461725 
L 216.354296 -272.461727 
L 215.744349 -272.461725 
L 215.134401 -272.461729 
L 214.524454 -272.461725 
L 213.914507 -272.461729 
L 213.30456 -272.461729 
L 212.694613 -272.461728 
L 212.084666 -272.461727 
L 211.474718 -272.461725 
L 210.864771 -272.461729 
L 210.254824 -272.461722 
L 209.644877 -272.46173 
L 209.03493 -272.461729 
L 208.424983 -272.461722 
L 207.815035 -272.461725 
L 207.205088 -272.461726 
L 206.595141 -272.461728 
L 205.985194 -272.461726 
L 205.375247 -272.461726 
L 204.7653 -272.461729 
L 204.155352 -272.461728 
L 203.545405 -272.461726 
L 202.935458 -272.461724 
L 202.325511 -272.461724 
L 201.715564 -272.461724 
L 201.105617 -272.461723 
L 200.495669 -272.461726 
L 199.885722 -272.461727 
L 199.275775 -272.46172 
L 198.665828 -272.461727 
L 198.055881 -272.461724 
L 197.445934 -272.461728 
L 196.835986 -272.461722 
L 196.226039 -272.461726 
L 195.616092 -272.461719 
L 195.006145 -272.461728 
L 194.396198 -272.461723 
L 193.786251 -272.461727 
L 193.176303 -272.461723 
L 192.566356 -272.46172 
L 191.956409 -272.461724 
L 191.346462 -272.461725 
L 190.736515 -272.461726 
L 190.126568 -272.461724 
L 189.51662 -272.461726 
L 188.906673 -272.461722 
L 188.296726 -272.461726 
L 187.686779 -272.461727 
L 187.076832 -272.461716 
L 186.466885 -272.461722 
L 185.856937 -272.461725 
L 185.24699 -272.461719 
L 184.637043 -272.461727 
L 184.027096 -272.461722 
L 183.417149 -272.461721 
L 182.807202 -272.461726 
L 182.197254 -272.461726 
L 181.587307 -272.461718 
L 180.97736 -272.461729 
L 180.367413 -272.461725 
L 179.757466 -272.461725 
L 179.147519 -272.461719 
L 178.537571 -272.461723 
L 177.927624 -272.461716 
L 177.317677 -272.461723 
L 176.70773 -272.461717 
L 176.097783 -272.461726 
L 175.487836 -272.461725 
L 174.877888 -272.461728 
L 174.267941 -272.461725 
L 173.657994 -272.461722 
L 173.048047 -272.461724 
L 172.4381 -272.461718 
L 171.828153 -272.461719 
L 171.218205 -272.461724 
L 170.608258 -272.461725 
L 169.998311 -272.461724 
L 169.388364 -272.461703 
L 168.778417 -272.46169 
L 168.16847 -272.46164 
L 167.558522 -272.4617 
L 166.948575 -272.461624 
L 166.338628 -272.461603 
L 165.728681 -272.460653 
L 165.118734 -272.460649 
L 164.508787 -272.460649 
L 163.898839 -272.460654 
L 163.288892 -272.460651 
L 162.678945 -272.460652 
L 162.068998 -272.46065 
L 161.459051 -272.460654 
L 160.849104 -272.460649 
L 160.239156 -272.460654 
L 159.629209 -272.46065 
L 159.019262 -272.460653 
L 158.409315 -272.460651 
L 157.799368 -272.460651 
L 157.189421 -272.460653 
L 156.579473 -272.460652 
L 155.969526 -272.460651 
L 155.359579 -272.460652 
L 154.749632 -272.460651 
L 154.139685 -272.460644 
L 153.529738 -272.460652 
L 152.91979 -272.46065 
L 152.309843 -272.460653 
L 151.699896 -272.460647 
L 151.089949 -272.460652 
L 150.480002 -272.460647 
L 149.870055 -272.460645 
L 149.260107 -272.460641 
L 148.65016 -272.460653 
L 148.040213 -272.460653 
L 147.430266 -272.460651 
L 146.820319 -272.460642 
L 146.210372 -272.460651 
L 145.600424 -272.460648 
L 144.990477 -272.460649 
L 144.38053 -272.460651 
L 143.770583 -272.460652 
L 143.160636 -272.460654 
L 142.550689 -272.460648 
L 141.940741 -272.460648 
L 141.330794 -272.460628 
L 140.720847 -272.460644 
L 140.1109 -272.460642 
L 139.500953 -272.460622 
L 138.891006 -272.460639 
L 138.281058 -272.460558 
L 137.671111 -272.378531 
L 137.061164 -272.378528 
L 136.451217 -272.378535 
L 135.84127 -272.369489 
L 135.231323 -272.369487 
L 134.621375 -272.369421 
L 134.011428 -272.369448 
L 133.401481 -272.369267 
L 132.791534 -272.369354 
L 132.181587 -272.369437 
L 131.57164 -272.369427 
L 130.961692 -272.183925 
L 130.351745 -272.109668 
L 129.741798 -272.109689 
L 129.131851 -272.109671 
L 128.521904 -272.109661 
L 127.911957 -272.109668 
L 127.302009 -271.839498 
L 126.692062 -271.839395 
L 126.082115 -271.839507 
L 125.472168 -271.754837 
L 124.862221 -271.754838 
L 124.252274 -271.754837 
L 123.642326 -271.754847 
L 123.032379 -271.754845 
L 122.422432 -271.754837 
L 121.812485 -271.739844 
L 121.202538 -271.739864 
L 120.592591 -271.739842 
L 119.982643 -271.739761 
L 119.372696 -271.739837 
L 118.762749 -271.739805 
L 118.152802 -271.739837 
L 117.542855 -271.739607 
L 116.932908 -271.390446 
L 116.32296 -271.390445 
L 115.713013 -271.390434 
L 115.103066 -271.390427 
L 114.493119 -271.390444 
L 113.883172 -270.758247 
L 113.273225 -270.758251 
L 112.663277 -270.758242 
L 112.05333 -270.75824 
L 111.443383 -270.758238 
L 110.833436 -270.758242 
L 110.223489 -270.583485 
L 109.613542 -270.583486 
L 109.003594 -270.537892 
L 108.393647 -270.110314 
L 107.7837 -269.918993 
L 107.173753 -269.918999 
L 106.563806 -269.918993 
L 105.953859 -269.919001 
L 105.343911 -269.918995 
L 104.733964 -269.918988 
L 104.124017 -269.918996 
L 103.51407 -269.792092 
L 102.904123 -269.792096 
L 102.294176 -269.792093 
L 101.684228 -269.792086 
L 101.074281 -269.792074 
L 100.464334 -269.057773 
L 99.854387 -269.057783 
L 99.24444 -269.05777 
L 98.634493 -268.983017 
L 98.024545 -268.842615 
L 97.414598 -268.842615 
L 96.804651 -268.842637 
L 96.194704 -268.842597 
L 95.584757 -268.134858 
L 94.97481 -268.002266 
L 94.364862 -268.002266 
L 93.754915 -268.002264 
L 93.144968 -268.002264 
L 92.535021 -268.002265 
L 91.925074 -268.00226 
L 91.315127 -267.390744 
L 90.705179 -267.390742 
L 90.095232 -267.390744 
L 89.485285 -267.31499 
L 88.875338 -267.314973 
L 88.265391 -266.825661 
L 87.655444 -266.825658 
L 87.045496 -266.825667 
L 86.435549 -266.82565 
L 85.825602 -266.825651 
L 85.215655 -265.452453 
L 84.605708 -265.452443 
L 83.99576 -265.452447 
L 83.385813 -265.344804 
L 82.775866 -264.896109 
L 82.165919 -264.89613 
L 81.555972 -264.238517 
L 80.946025 -264.238486 
L 80.336077 -264.238515 
L 79.72613 -264.096039 
L 79.116183 -264.096035 
L 78.506236 -264.096041 
L 77.896289 -264.096039 
L 77.286342 -261.782298 
L 76.676394 -261.782295 
L 76.066447 -261.782291 
L 75.4565 -261.782295 
L 74.846553 -261.78229 
L 74.236606 -261.782296 
L 73.626659 -261.782269 
L 73.016711 -261.782268 
L 72.406764 -261.782286 
L 71.796817 -261.78229 
L 71.18687 -254.040855 
L 70.576923 -254.040856 
L 69.966976 -254.040853 
L 69.357028 -254.040856 
L 68.747081 -254.040846 
L 68.137134 -254.040854 
L 67.527187 -254.040857 
L 66.91724 -253.430822 
L 66.307293 -253.430823 
L 65.697345 -253.430823 
L 65.087398 -253.430823 
L 64.477451 -253.430823 
L 63.867504 -248.386261 
L 63.257557 -248.386012 
z
" style="stroke: #0000ff; stroke-opacity: 0.2"/>
    </defs>
    <g clip-path="url(#p72c7bf4cf5)">
     <use xlink:href="#m3bbb102dfa" x="0" y="287.4075" style="fill: #0000ff; fill-opacity: 0.2; stroke: #0000ff; stroke-opacity: 0.2"/>
    </g>
   </g>
   <g id="matplotlib.axis_1">
    <g id="xtick_1">
     <g id="line2d_1">
      <path d="M 63.257557 253.08 
L 63.257557 3.6 
" clip-path="url(#p72c7bf4cf5)" style="fill: none; stroke: #b0b0b0; stroke-width: 0.5; stroke-linecap: square"/>
     </g>
     <g id="line2d_2">
      <defs>
       <path id="m27c2b6e6ac" d="M 0 0 
L 0 -3 
" style="stroke: #000000; stroke-width: 0.5"/>
      </defs>
      <g>
       <use xlink:href="#m27c2b6e6ac" x="63.257557" y="253.08" style="stroke: #000000; stroke-width: 0.5"/>
      </g>
     </g>
     <g id="line2d_3">
      <defs>
       <path id="ma2e8c0f172" d="M 0 0 
L 0 3 
" style="stroke: #000000; stroke-width: 0.5"/>
      </defs>
      <g>
       <use xlink:href="#ma2e8c0f172" x="63.257557" y="3.6" style="stroke: #000000; stroke-width: 0.5"/>
      </g>
     </g>
     <g id="text_1">
      <!-- 0 -->
      <g transform="translate(59.440057 265.698125) scale(0.12 -0.12)">
       <defs>
        <path id="DejaVuSans-30" d="M 2034 4250 
Q 1547 4250 1301 3770 
Q 1056 3291 1056 2328 
Q 1056 1369 1301 889 
Q 1547 409 2034 409 
Q 2525 409 2770 889 
Q 3016 1369 3016 2328 
Q 3016 3291 2770 3770 
Q 2525 4250 2034 4250 
z
M 2034 4750 
Q 2819 4750 3233 4129 
Q 3647 3509 3647 2328 
Q 3647 1150 3233 529 
Q 2819 -91 2034 -91 
Q 1250 -91 836 529 
Q 422 1150 422 2328 
Q 422 3509 836 4129 
Q 1250 4750 2034 4750 
z
" transform="scale(0.015625)"/>
       </defs>
       <use xlink:href="#DejaVuSans-30"/>
      </g>
     </g>
    </g>
    <g id="xtick_2">
     <g id="line2d_4">
      <path d="M 124.252274 253.08 
L 124.252274 3.6 
" clip-path="url(#p72c7bf4cf5)" style="fill: none; stroke: #b0b0b0; stroke-width: 0.5; stroke-linecap: square"/>
     </g>
     <g id="line2d_5">
      <g>
       <use xlink:href="#m27c2b6e6ac" x="124.252274" y="253.08" style="stroke: #000000; stroke-width: 0.5"/>
      </g>
     </g>
     <g id="line2d_6">
      <g>
       <use xlink:href="#ma2e8c0f172" x="124.252274" y="3.6" style="stroke: #000000; stroke-width: 0.5"/>
      </g>
     </g>
     <g id="text_2">
      <!-- 100 -->
      <g transform="translate(112.799774 265.698125) scale(0.12 -0.12)">
       <defs>
        <path id="DejaVuSans-31" d="M 794 531 
L 1825 531 
L 1825 4091 
L 703 3866 
L 703 4441 
L 1819 4666 
L 2450 4666 
L 2450 531 
L 3481 531 
L 3481 0 
L 794 0 
L 794 531 
z
" transform="scale(0.015625)"/>
       </defs>
       <use xlink:href="#DejaVuSans-31"/>
       <use xlink:href="#DejaVuSans-30" x="63.623047"/>
       <use xlink:href="#DejaVuSans-30" x="127.246094"/>
      </g>
     </g>
    </g>
    <g id="xtick_3">
     <g id="line2d_7">
      <path d="M 185.24699 253.08 
L 185.24699 3.6 
" clip-path="url(#p72c7bf4cf5)" style="fill: none; stroke: #b0b0b0; stroke-width: 0.5; stroke-linecap: square"/>
     </g>
     <g id="line2d_8">
      <g>
       <use xlink:href="#m27c2b6e6ac" x="185.24699" y="253.08" style="stroke: #000000; stroke-width: 0.5"/>
      </g>
     </g>
     <g id="line2d_9">
      <g>
       <use xlink:href="#ma2e8c0f172" x="185.24699" y="3.6" style="stroke: #000000; stroke-width: 0.5"/>
      </g>
     </g>
     <g id="text_3">
      <!-- 200 -->
      <g transform="translate(173.79449 265.698125) scale(0.12 -0.12)">
       <defs>
        <path id="DejaVuSans-32" d="M 1228 531 
L 3431 531 
L 3431 0 
L 469 0 
L 469 531 
Q 828 903 1448 1529 
Q 2069 2156 2228 2338 
Q 2531 2678 2651 2914 
Q 2772 3150 2772 3378 
Q 2772 3750 2511 3984 
Q 2250 4219 1831 4219 
Q 1534 4219 1204 4116 
Q 875 4013 500 3803 
L 500 4441 
Q 881 4594 1212 4672 
Q 1544 4750 1819 4750 
Q 2544 4750 2975 4387 
Q 3406 4025 3406 3419 
Q 3406 3131 3298 2873 
Q 3191 2616 2906 2266 
Q 2828 2175 2409 1742 
Q 1991 1309 1228 531 
z
" transform="scale(0.015625)"/>
       </defs>
       <use xlink:href="#DejaVuSans-32"/>
       <use xlink:href="#DejaVuSans-30" x="63.623047"/>
       <use xlink:href="#DejaVuSans-30" x="127.246094"/>
      </g>
     </g>
    </g>
    <g id="xtick_4">
     <g id="line2d_10">
      <path d="M 246.241707 253.08 
L 246.241707 3.6 
" clip-path="url(#p72c7bf4cf5)" style="fill: none; stroke: #b0b0b0; stroke-width: 0.5; stroke-linecap: square"/>
     </g>
     <g id="line2d_11">
      <g>
       <use xlink:href="#m27c2b6e6ac" x="246.241707" y="253.08" style="stroke: #000000; stroke-width: 0.5"/>
      </g>
     </g>
     <g id="line2d_12">
      <g>
       <use xlink:href="#ma2e8c0f172" x="246.241707" y="3.6" style="stroke: #000000; stroke-width: 0.5"/>
      </g>
     </g>
     <g id="text_4">
      <!-- 300 -->
      <g transform="translate(234.789207 265.698125) scale(0.12 -0.12)">
       <defs>
        <path id="DejaVuSans-33" d="M 2597 2516 
Q 3050 2419 3304 2112 
Q 3559 1806 3559 1356 
Q 3559 666 3084 287 
Q 2609 -91 1734 -91 
Q 1441 -91 1130 -33 
Q 819 25 488 141 
L 488 750 
Q 750 597 1062 519 
Q 1375 441 1716 441 
Q 2309 441 2620 675 
Q 2931 909 2931 1356 
Q 2931 1769 2642 2001 
Q 2353 2234 1838 2234 
L 1294 2234 
L 1294 2753 
L 1863 2753 
Q 2328 2753 2575 2939 
Q 2822 3125 2822 3475 
Q 2822 3834 2567 4026 
Q 2313 4219 1838 4219 
Q 1578 4219 1281 4162 
Q 984 4106 628 3988 
L 628 4550 
Q 988 4650 1302 4700 
Q 1616 4750 1894 4750 
Q 2613 4750 3031 4423 
Q 3450 4097 3450 3541 
Q 3450 3153 3228 2886 
Q 3006 2619 2597 2516 
z
" transform="scale(0.015625)"/>
       </defs>
       <use xlink:href="#DejaVuSans-33"/>
       <use xlink:href="#DejaVuSans-30" x="63.623047"/>
       <use xlink:href="#DejaVuSans-30" x="127.246094"/>
      </g>
     </g>
    </g>
    <g id="xtick_5">
     <g id="line2d_13">
      <path d="M 307.236424 253.08 
L 307.236424 3.6 
" clip-path="url(#p72c7bf4cf5)" style="fill: none; stroke: #b0b0b0; stroke-width: 0.5; stroke-linecap: square"/>
     </g>
     <g id="line2d_14">
      <g>
       <use xlink:href="#m27c2b6e6ac" x="307.236424" y="253.08" style="stroke: #000000; stroke-width: 0.5"/>
      </g>
     </g>
     <g id="line2d_15">
      <g>
       <use xlink:href="#ma2e8c0f172" x="307.236424" y="3.6" style="stroke: #000000; stroke-width: 0.5"/>
      </g>
     </g>
     <g id="text_5">
      <!-- 400 -->
      <g transform="translate(295.783924 265.698125) scale(0.12 -0.12)">
       <defs>
        <path id="DejaVuSans-34" d="M 2419 4116 
L 825 1625 
L 2419 1625 
L 2419 4116 
z
M 2253 4666 
L 3047 4666 
L 3047 1625 
L 3713 1625 
L 3713 1100 
L 3047 1100 
L 3047 0 
L 2419 0 
L 2419 1100 
L 313 1100 
L 313 1709 
L 2253 4666 
z
" transform="scale(0.015625)"/>
       </defs>
       <use xlink:href="#DejaVuSans-34"/>
       <use xlink:href="#DejaVuSans-30" x="63.623047"/>
       <use xlink:href="#DejaVuSans-30" x="127.246094"/>
      </g>
     </g>
    </g>
    <g id="xtick_6">
     <g id="line2d_16">
      <path d="M 368.23114 253.08 
L 368.23114 3.6 
" clip-path="url(#p72c7bf4cf5)" style="fill: none; stroke: #b0b0b0; stroke-width: 0.5; stroke-linecap: square"/>
     </g>
     <g id="line2d_17">
      <g>
       <use xlink:href="#m27c2b6e6ac" x="368.23114" y="253.08" style="stroke: #000000; stroke-width: 0.5"/>
      </g>
     </g>
     <g id="line2d_18">
      <g>
       <use xlink:href="#ma2e8c0f172" x="368.23114" y="3.6" style="stroke: #000000; stroke-width: 0.5"/>
      </g>
     </g>
     <g id="text_6">
      <!-- 500 -->
      <g transform="translate(356.77864 265.698125) scale(0.12 -0.12)">
       <defs>
        <path id="DejaVuSans-35" d="M 691 4666 
L 3169 4666 
L 3169 4134 
L 1269 4134 
L 1269 2991 
Q 1406 3038 1543 3061 
Q 1681 3084 1819 3084 
Q 2600 3084 3056 2656 
Q 3513 2228 3513 1497 
Q 3513 744 3044 326 
Q 2575 -91 1722 -91 
Q 1428 -91 1123 -41 
Q 819 9 494 109 
L 494 744 
Q 775 591 1075 516 
Q 1375 441 1709 441 
Q 2250 441 2565 725 
Q 2881 1009 2881 1497 
Q 2881 1984 2565 2268 
Q 2250 2553 1709 2553 
Q 1456 2553 1204 2497 
Q 953 2441 691 2322 
L 691 4666 
z
" transform="scale(0.015625)"/>
       </defs>
       <use xlink:href="#DejaVuSans-35"/>
       <use xlink:href="#DejaVuSans-30" x="63.623047"/>
       <use xlink:href="#DejaVuSans-30" x="127.246094"/>
      </g>
     </g>
    </g>
    <g id="xtick_7">
     <g id="line2d_19">
      <defs>
       <path id="mdb5dfc55db" d="M 0 0 
L 0 -1.5 
" style="stroke: #000000; stroke-width: 0.5"/>
      </defs>
      <g>
       <use xlink:href="#mdb5dfc55db" x="51.058613" y="253.08" style="stroke: #000000; stroke-width: 0.5"/>
      </g>
     </g>
     <g id="line2d_20">
      <defs>
       <path id="m60907265d7" d="M 0 0 
L 0 1.5 
" style="stroke: #000000; stroke-width: 0.5"/>
      </defs>
      <g>
       <use xlink:href="#m60907265d7" x="51.058613" y="3.6" style="stroke: #000000; stroke-width: 0.5"/>
      </g>
     </g>
    </g>
    <g id="xtick_8">
     <g id="line2d_21">
      <g>
       <use xlink:href="#mdb5dfc55db" x="75.4565" y="253.08" style="stroke: #000000; stroke-width: 0.5"/>
      </g>
     </g>
     <g id="line2d_22">
      <g>
       <use xlink:href="#m60907265d7" x="75.4565" y="3.6" style="stroke: #000000; stroke-width: 0.5"/>
      </g>
     </g>
    </g>
    <g id="xtick_9">
     <g id="line2d_23">
      <g>
       <use xlink:href="#mdb5dfc55db" x="87.655444" y="253.08" style="stroke: #000000; stroke-width: 0.5"/>
      </g>
     </g>
     <g id="line2d_24">
      <g>
       <use xlink:href="#m60907265d7" x="87.655444" y="3.6" style="stroke: #000000; stroke-width: 0.5"/>
      </g>
     </g>
    </g>
    <g id="xtick_10">
     <g id="line2d_25">
      <g>
       <use xlink:href="#mdb5dfc55db" x="99.854387" y="253.08" style="stroke: #000000; stroke-width: 0.5"/>
      </g>
     </g>
     <g id="line2d_26">
      <g>
       <use xlink:href="#m60907265d7" x="99.854387" y="3.6" style="stroke: #000000; stroke-width: 0.5"/>
      </g>
     </g>
    </g>
    <g id="xtick_11">
     <g id="line2d_27">
      <g>
       <use xlink:href="#mdb5dfc55db" x="112.05333" y="253.08" style="stroke: #000000; stroke-width: 0.5"/>
      </g>
     </g>
     <g id="line2d_28">
      <g>
       <use xlink:href="#m60907265d7" x="112.05333" y="3.6" style="stroke: #000000; stroke-width: 0.5"/>
      </g>
     </g>
    </g>
    <g id="xtick_12">
     <g id="line2d_29">
      <g>
       <use xlink:href="#mdb5dfc55db" x="136.451217" y="253.08" style="stroke: #000000; stroke-width: 0.5"/>
      </g>
     </g>
     <g id="line2d_30">
      <g>
       <use xlink:href="#m60907265d7" x="136.451217" y="3.6" style="stroke: #000000; stroke-width: 0.5"/>
      </g>
     </g>
    </g>
    <g id="xtick_13">
     <g id="line2d_31">
      <g>
       <use xlink:href="#mdb5dfc55db" x="148.65016" y="253.08" style="stroke: #000000; stroke-width: 0.5"/>
      </g>
     </g>
     <g id="line2d_32">
      <g>
       <use xlink:href="#m60907265d7" x="148.65016" y="3.6" style="stroke: #000000; stroke-width: 0.5"/>
      </g>
     </g>
    </g>
    <g id="xtick_14">
     <g id="line2d_33">
      <g>
       <use xlink:href="#mdb5dfc55db" x="160.849104" y="253.08" style="stroke: #000000; stroke-width: 0.5"/>
      </g>
     </g>
     <g id="line2d_34">
      <g>
       <use xlink:href="#m60907265d7" x="160.849104" y="3.6" style="stroke: #000000; stroke-width: 0.5"/>
      </g>
     </g>
    </g>
    <g id="xtick_15">
     <g id="line2d_35">
      <g>
       <use xlink:href="#mdb5dfc55db" x="173.048047" y="253.08" style="stroke: #000000; stroke-width: 0.5"/>
      </g>
     </g>
     <g id="line2d_36">
      <g>
       <use xlink:href="#m60907265d7" x="173.048047" y="3.6" style="stroke: #000000; stroke-width: 0.5"/>
      </g>
     </g>
    </g>
    <g id="xtick_16">
     <g id="line2d_37">
      <g>
       <use xlink:href="#mdb5dfc55db" x="197.445934" y="253.08" style="stroke: #000000; stroke-width: 0.5"/>
      </g>
     </g>
     <g id="line2d_38">
      <g>
       <use xlink:href="#m60907265d7" x="197.445934" y="3.6" style="stroke: #000000; stroke-width: 0.5"/>
      </g>
     </g>
    </g>
    <g id="xtick_17">
     <g id="line2d_39">
      <g>
       <use xlink:href="#mdb5dfc55db" x="209.644877" y="253.08" style="stroke: #000000; stroke-width: 0.5"/>
      </g>
     </g>
     <g id="line2d_40">
      <g>
       <use xlink:href="#m60907265d7" x="209.644877" y="3.6" style="stroke: #000000; stroke-width: 0.5"/>
      </g>
     </g>
    </g>
    <g id="xtick_18">
     <g id="line2d_41">
      <g>
       <use xlink:href="#mdb5dfc55db" x="221.84382" y="253.08" style="stroke: #000000; stroke-width: 0.5"/>
      </g>
     </g>
     <g id="line2d_42">
      <g>
       <use xlink:href="#m60907265d7" x="221.84382" y="3.6" style="stroke: #000000; stroke-width: 0.5"/>
      </g>
     </g>
    </g>
    <g id="xtick_19">
     <g id="line2d_43">
      <g>
       <use xlink:href="#mdb5dfc55db" x="234.042764" y="253.08" style="stroke: #000000; stroke-width: 0.5"/>
      </g>
     </g>
     <g id="line2d_44">
      <g>
       <use xlink:href="#m60907265d7" x="234.042764" y="3.6" style="stroke: #000000; stroke-width: 0.5"/>
      </g>
     </g>
    </g>
    <g id="xtick_20">
     <g id="line2d_45">
      <g>
       <use xlink:href="#mdb5dfc55db" x="258.44065" y="253.08" style="stroke: #000000; stroke-width: 0.5"/>
      </g>
     </g>
     <g id="line2d_46">
      <g>
       <use xlink:href="#m60907265d7" x="258.44065" y="3.6" style="stroke: #000000; stroke-width: 0.5"/>
      </g>
     </g>
    </g>
    <g id="xtick_21">
     <g id="line2d_47">
      <g>
       <use xlink:href="#mdb5dfc55db" x="270.639594" y="253.08" style="stroke: #000000; stroke-width: 0.5"/>
      </g>
     </g>
     <g id="line2d_48">
      <g>
       <use xlink:href="#m60907265d7" x="270.639594" y="3.6" style="stroke: #000000; stroke-width: 0.5"/>
      </g>
     </g>
    </g>
    <g id="xtick_22">
     <g id="line2d_49">
      <g>
       <use xlink:href="#mdb5dfc55db" x="282.838537" y="253.08" style="stroke: #000000; stroke-width: 0.5"/>
      </g>
     </g>
     <g id="line2d_50">
      <g>
       <use xlink:href="#m60907265d7" x="282.838537" y="3.6" style="stroke: #000000; stroke-width: 0.5"/>
      </g>
     </g>
    </g>
    <g id="xtick_23">
     <g id="line2d_51">
      <g>
       <use xlink:href="#mdb5dfc55db" x="295.03748" y="253.08" style="stroke: #000000; stroke-width: 0.5"/>
      </g>
     </g>
     <g id="line2d_52">
      <g>
       <use xlink:href="#m60907265d7" x="295.03748" y="3.6" style="stroke: #000000; stroke-width: 0.5"/>
      </g>
     </g>
    </g>
    <g id="xtick_24">
     <g id="line2d_53">
      <g>
       <use xlink:href="#mdb5dfc55db" x="319.435367" y="253.08" style="stroke: #000000; stroke-width: 0.5"/>
      </g>
     </g>
     <g id="line2d_54">
      <g>
       <use xlink:href="#m60907265d7" x="319.435367" y="3.6" style="stroke: #000000; stroke-width: 0.5"/>
      </g>
     </g>
    </g>
    <g id="xtick_25">
     <g id="line2d_55">
      <g>
       <use xlink:href="#mdb5dfc55db" x="331.63431" y="253.08" style="stroke: #000000; stroke-width: 0.5"/>
      </g>
     </g>
     <g id="line2d_56">
      <g>
       <use xlink:href="#m60907265d7" x="331.63431" y="3.6" style="stroke: #000000; stroke-width: 0.5"/>
      </g>
     </g>
    </g>
    <g id="xtick_26">
     <g id="line2d_57">
      <g>
       <use xlink:href="#mdb5dfc55db" x="343.833254" y="253.08" style="stroke: #000000; stroke-width: 0.5"/>
      </g>
     </g>
     <g id="line2d_58">
      <g>
       <use xlink:href="#m60907265d7" x="343.833254" y="3.6" style="stroke: #000000; stroke-width: 0.5"/>
      </g>
     </g>
    </g>
    <g id="xtick_27">
     <g id="line2d_59">
      <g>
       <use xlink:href="#mdb5dfc55db" x="356.032197" y="253.08" style="stroke: #000000; stroke-width: 0.5"/>
      </g>
     </g>
     <g id="line2d_60">
      <g>
       <use xlink:href="#m60907265d7" x="356.032197" y="3.6" style="stroke: #000000; stroke-width: 0.5"/>
      </g>
     </g>
    </g>
    <g id="xtick_28">
     <g id="line2d_61">
      <g>
       <use xlink:href="#mdb5dfc55db" x="380.430084" y="253.08" style="stroke: #000000; stroke-width: 0.5"/>
      </g>
     </g>
     <g id="line2d_62">
      <g>
       <use xlink:href="#m60907265d7" x="380.430084" y="3.6" style="stroke: #000000; stroke-width: 0.5"/>
      </g>
     </g>
    </g>
    <g id="text_7">
     <!-- Generations -->
     <g transform="translate(178.842188 281.311875) scale(0.12 -0.12)">
      <defs>
       <path id="DejaVuSans-47" d="M 3809 666 
L 3809 1919 
L 2778 1919 
L 2778 2438 
L 4434 2438 
L 4434 434 
Q 4069 175 3628 42 
Q 3188 -91 2688 -91 
Q 1594 -91 976 548 
Q 359 1188 359 2328 
Q 359 3472 976 4111 
Q 1594 4750 2688 4750 
Q 3144 4750 3555 4637 
Q 3966 4525 4313 4306 
L 4313 3634 
Q 3963 3931 3569 4081 
Q 3175 4231 2741 4231 
Q 1884 4231 1454 3753 
Q 1025 3275 1025 2328 
Q 1025 1384 1454 906 
Q 1884 428 2741 428 
Q 3075 428 3337 486 
Q 3600 544 3809 666 
z
" transform="scale(0.015625)"/>
       <path id="DejaVuSans-65" d="M 3597 1894 
L 3597 1613 
L 953 1613 
Q 991 1019 1311 708 
Q 1631 397 2203 397 
Q 2534 397 2845 478 
Q 3156 559 3463 722 
L 3463 178 
Q 3153 47 2828 -22 
Q 2503 -91 2169 -91 
Q 1331 -91 842 396 
Q 353 884 353 1716 
Q 353 2575 817 3079 
Q 1281 3584 2069 3584 
Q 2775 3584 3186 3129 
Q 3597 2675 3597 1894 
z
M 3022 2063 
Q 3016 2534 2758 2815 
Q 2500 3097 2075 3097 
Q 1594 3097 1305 2825 
Q 1016 2553 972 2059 
L 3022 2063 
z
" transform="scale(0.015625)"/>
       <path id="DejaVuSans-6e" d="M 3513 2113 
L 3513 0 
L 2938 0 
L 2938 2094 
Q 2938 2591 2744 2837 
Q 2550 3084 2163 3084 
Q 1697 3084 1428 2787 
Q 1159 2491 1159 1978 
L 1159 0 
L 581 0 
L 581 3500 
L 1159 3500 
L 1159 2956 
Q 1366 3272 1645 3428 
Q 1925 3584 2291 3584 
Q 2894 3584 3203 3211 
Q 3513 2838 3513 2113 
z
" transform="scale(0.015625)"/>
       <path id="DejaVuSans-72" d="M 2631 2963 
Q 2534 3019 2420 3045 
Q 2306 3072 2169 3072 
Q 1681 3072 1420 2755 
Q 1159 2438 1159 1844 
L 1159 0 
L 581 0 
L 581 3500 
L 1159 3500 
L 1159 2956 
Q 1341 3275 1631 3429 
Q 1922 3584 2338 3584 
Q 2397 3584 2469 3576 
Q 2541 3569 2628 3553 
L 2631 2963 
z
" transform="scale(0.015625)"/>
       <path id="DejaVuSans-61" d="M 2194 1759 
Q 1497 1759 1228 1600 
Q 959 1441 959 1056 
Q 959 750 1161 570 
Q 1363 391 1709 391 
Q 2188 391 2477 730 
Q 2766 1069 2766 1631 
L 2766 1759 
L 2194 1759 
z
M 3341 1997 
L 3341 0 
L 2766 0 
L 2766 531 
Q 2569 213 2275 61 
Q 1981 -91 1556 -91 
Q 1019 -91 701 211 
Q 384 513 384 1019 
Q 384 1609 779 1909 
Q 1175 2209 1959 2209 
L 2766 2209 
L 2766 2266 
Q 2766 2663 2505 2880 
Q 2244 3097 1772 3097 
Q 1472 3097 1187 3025 
Q 903 2953 641 2809 
L 641 3341 
Q 956 3463 1253 3523 
Q 1550 3584 1831 3584 
Q 2591 3584 2966 3190 
Q 3341 2797 3341 1997 
z
" transform="scale(0.015625)"/>
       <path id="DejaVuSans-74" d="M 1172 4494 
L 1172 3500 
L 2356 3500 
L 2356 3053 
L 1172 3053 
L 1172 1153 
Q 1172 725 1289 603 
Q 1406 481 1766 481 
L 2356 481 
L 2356 0 
L 1766 0 
Q 1100 0 847 248 
Q 594 497 594 1153 
L 594 3053 
L 172 3053 
L 172 3500 
L 594 3500 
L 594 4494 
L 1172 4494 
z
" transform="scale(0.015625)"/>
       <path id="DejaVuSans-69" d="M 603 3500 
L 1178 3500 
L 1178 0 
L 603 0 
L 603 3500 
z
M 603 4863 
L 1178 4863 
L 1178 4134 
L 603 4134 
L 603 4863 
z
" transform="scale(0.015625)"/>
       <path id="DejaVuSans-6f" d="M 1959 3097 
Q 1497 3097 1228 2736 
Q 959 2375 959 1747 
Q 959 1119 1226 758 
Q 1494 397 1959 397 
Q 2419 397 2687 759 
Q 2956 1122 2956 1747 
Q 2956 2369 2687 2733 
Q 2419 3097 1959 3097 
z
M 1959 3584 
Q 2709 3584 3137 3096 
Q 3566 2609 3566 1747 
Q 3566 888 3137 398 
Q 2709 -91 1959 -91 
Q 1206 -91 779 398 
Q 353 888 353 1747 
Q 353 2609 779 3096 
Q 1206 3584 1959 3584 
z
" transform="scale(0.015625)"/>
       <path id="DejaVuSans-73" d="M 2834 3397 
L 2834 2853 
Q 2591 2978 2328 3040 
Q 2066 3103 1784 3103 
Q 1356 3103 1142 2972 
Q 928 2841 928 2578 
Q 928 2378 1081 2264 
Q 1234 2150 1697 2047 
L 1894 2003 
Q 2506 1872 2764 1633 
Q 3022 1394 3022 966 
Q 3022 478 2636 193 
Q 2250 -91 1575 -91 
Q 1294 -91 989 -36 
Q 684 19 347 128 
L 347 722 
Q 666 556 975 473 
Q 1284 391 1588 391 
Q 1994 391 2212 530 
Q 2431 669 2431 922 
Q 2431 1156 2273 1281 
Q 2116 1406 1581 1522 
L 1381 1569 
Q 847 1681 609 1914 
Q 372 2147 372 2553 
Q 372 3047 722 3315 
Q 1072 3584 1716 3584 
Q 2034 3584 2315 3537 
Q 2597 3491 2834 3397 
z
" transform="scale(0.015625)"/>
      </defs>
      <use xlink:href="#DejaVuSans-47"/>
      <use xlink:href="#DejaVuSans-65" x="77.490234"/>
      <use xlink:href="#DejaVuSans-6e" x="139.013672"/>
      <use xlink:href="#DejaVuSans-65" x="202.392578"/>
      <use xlink:href="#DejaVuSans-72" x="263.916016"/>
      <use xlink:href="#DejaVuSans-61" x="305.029297"/>
      <use xlink:href="#DejaVuSans-74" x="366.308594"/>
      <use xlink:href="#DejaVuSans-69" x="405.517578"/>
      <use xlink:href="#DejaVuSans-6f" x="433.300781"/>
      <use xlink:href="#DejaVuSans-6e" x="494.482422"/>
      <use xlink:href="#DejaVuSans-73" x="557.861328"/>
     </g>
    </g>
   </g>
   <g id="matplotlib.axis_2">
    <g id="ytick_1">
     <g id="line2d_63">
      <path d="M 48.039375 212.10645 
L 382.839375 212.10645 
" clip-path="url(#p72c7bf4cf5)" style="fill: none; stroke: #b0b0b0; stroke-width: 0.5; stroke-linecap: square"/>
     </g>
     <g id="line2d_64">
      <defs>
       <path id="m0a7712d1e1" d="M 0 0 
L 3 0 
" style="stroke: #000000; stroke-width: 0.5"/>
      </defs>
      <g>
       <use xlink:href="#m0a7712d1e1" x="48.039375" y="212.10645" style="stroke: #000000; stroke-width: 0.5"/>
      </g>
     </g>
     <g id="line2d_65">
      <defs>
       <path id="mcf4b7a1b25" d="M 0 0 
L -3 0 
" style="stroke: #000000; stroke-width: 0.5"/>
      </defs>
      <g>
       <use xlink:href="#mcf4b7a1b25" x="382.839375" y="212.10645" style="stroke: #000000; stroke-width: 0.5"/>
      </g>
     </g>
     <g id="text_8">
      <!-- −60 -->
      <g transform="translate(19.21375 216.665513) scale(0.12 -0.12)">
       <defs>
        <path id="DejaVuSans-2212" d="M 678 2272 
L 4684 2272 
L 4684 1741 
L 678 1741 
L 678 2272 
z
" transform="scale(0.015625)"/>
        <path id="DejaVuSans-36" d="M 2113 2584 
Q 1688 2584 1439 2293 
Q 1191 2003 1191 1497 
Q 1191 994 1439 701 
Q 1688 409 2113 409 
Q 2538 409 2786 701 
Q 3034 994 3034 1497 
Q 3034 2003 2786 2293 
Q 2538 2584 2113 2584 
z
M 3366 4563 
L 3366 3988 
Q 3128 4100 2886 4159 
Q 2644 4219 2406 4219 
Q 1781 4219 1451 3797 
Q 1122 3375 1075 2522 
Q 1259 2794 1537 2939 
Q 1816 3084 2150 3084 
Q 2853 3084 3261 2657 
Q 3669 2231 3669 1497 
Q 3669 778 3244 343 
Q 2819 -91 2113 -91 
Q 1303 -91 875 529 
Q 447 1150 447 2328 
Q 447 3434 972 4092 
Q 1497 4750 2381 4750 
Q 2619 4750 2861 4703 
Q 3103 4656 3366 4563 
z
" transform="scale(0.015625)"/>
       </defs>
       <use xlink:href="#DejaVuSans-2212"/>
       <use xlink:href="#DejaVuSans-36" x="83.789062"/>
       <use xlink:href="#DejaVuSans-30" x="147.412109"/>
      </g>
     </g>
    </g>
    <g id="ytick_2">
     <g id="line2d_66">
      <path d="M 48.039375 164.901669 
L 382.839375 164.901669 
" clip-path="url(#p72c7bf4cf5)" style="fill: none; stroke: #b0b0b0; stroke-width: 0.5; stroke-linecap: square"/>
     </g>
     <g id="line2d_67">
      <g>
       <use xlink:href="#m0a7712d1e1" x="48.039375" y="164.901669" style="stroke: #000000; stroke-width: 0.5"/>
      </g>
     </g>
     <g id="line2d_68">
      <g>
       <use xlink:href="#mcf4b7a1b25" x="382.839375" y="164.901669" style="stroke: #000000; stroke-width: 0.5"/>
      </g>
     </g>
     <g id="text_9">
      <!-- −40 -->
      <g transform="translate(19.21375 169.460731) scale(0.12 -0.12)">
       <use xlink:href="#DejaVuSans-2212"/>
       <use xlink:href="#DejaVuSans-34" x="83.789062"/>
       <use xlink:href="#DejaVuSans-30" x="147.412109"/>
      </g>
     </g>
    </g>
    <g id="ytick_3">
     <g id="line2d_69">
      <path d="M 48.039375 117.696888 
L 382.839375 117.696888 
" clip-path="url(#p72c7bf4cf5)" style="fill: none; stroke: #b0b0b0; stroke-width: 0.5; stroke-linecap: square"/>
     </g>
     <g id="line2d_70">
      <g>
       <use xlink:href="#m0a7712d1e1" x="48.039375" y="117.696888" style="stroke: #000000; stroke-width: 0.5"/>
      </g>
     </g>
     <g id="line2d_71">
      <g>
       <use xlink:href="#mcf4b7a1b25" x="382.839375" y="117.696888" style="stroke: #000000; stroke-width: 0.5"/>
      </g>
     </g>
     <g id="text_10">
      <!-- −20 -->
      <g transform="translate(19.21375 122.25595) scale(0.12 -0.12)">
       <use xlink:href="#DejaVuSans-2212"/>
       <use xlink:href="#DejaVuSans-32" x="83.789062"/>
       <use xlink:href="#DejaVuSans-30" x="147.412109"/>
      </g>
     </g>
    </g>
    <g id="ytick_4">
     <g id="line2d_72">
      <path d="M 48.039375 70.492106 
L 382.839375 70.492106 
" clip-path="url(#p72c7bf4cf5)" style="fill: none; stroke: #b0b0b0; stroke-width: 0.5; stroke-linecap: square"/>
     </g>
     <g id="line2d_73">
      <g>
       <use xlink:href="#m0a7712d1e1" x="48.039375" y="70.492106" style="stroke: #000000; stroke-width: 0.5"/>
      </g>
     </g>
     <g id="line2d_74">
      <g>
       <use xlink:href="#mcf4b7a1b25" x="382.839375" y="70.492106" style="stroke: #000000; stroke-width: 0.5"/>
      </g>
     </g>
     <g id="text_11">
      <!-- 0 -->
      <g transform="translate(36.904375 75.051169) scale(0.12 -0.12)">
       <use xlink:href="#DejaVuSans-30"/>
      </g>
     </g>
    </g>
    <g id="ytick_5">
     <g id="line2d_75">
      <path d="M 48.039375 23.287325 
L 382.839375 23.287325 
" clip-path="url(#p72c7bf4cf5)" style="fill: none; stroke: #b0b0b0; stroke-width: 0.5; stroke-linecap: square"/>
     </g>
     <g id="line2d_76">
      <g>
       <use xlink:href="#m0a7712d1e1" x="48.039375" y="23.287325" style="stroke: #000000; stroke-width: 0.5"/>
      </g>
     </g>
     <g id="line2d_77">
      <g>
       <use xlink:href="#mcf4b7a1b25" x="382.839375" y="23.287325" style="stroke: #000000; stroke-width: 0.5"/>
      </g>
     </g>
     <g id="text_12">
      <!-- 20 -->
      <g transform="translate(29.269375 27.846387) scale(0.12 -0.12)">
       <use xlink:href="#DejaVuSans-32"/>
       <use xlink:href="#DejaVuSans-30" x="63.623047"/>
      </g>
     </g>
    </g>
    <g id="ytick_6">
     <g id="line2d_78">
      <defs>
       <path id="mb00a7af04c" d="M 0 0 
L 1.5 0 
" style="stroke: #000000; stroke-width: 0.5"/>
      </defs>
      <g>
       <use xlink:href="#mb00a7af04c" x="48.039375" y="247.510036" style="stroke: #000000; stroke-width: 0.5"/>
      </g>
     </g>
     <g id="line2d_79">
      <defs>
       <path id="ma6b6456e64" d="M 0 0 
L -1.5 0 
" style="stroke: #000000; stroke-width: 0.5"/>
      </defs>
      <g>
       <use xlink:href="#ma6b6456e64" x="382.839375" y="247.510036" style="stroke: #000000; stroke-width: 0.5"/>
      </g>
     </g>
    </g>
    <g id="ytick_7">
     <g id="line2d_80">
      <g>
       <use xlink:href="#mb00a7af04c" x="48.039375" y="235.708841" style="stroke: #000000; stroke-width: 0.5"/>
      </g>
     </g>
     <g id="line2d_81">
      <g>
       <use xlink:href="#ma6b6456e64" x="382.839375" y="235.708841" style="stroke: #000000; stroke-width: 0.5"/>
      </g>
     </g>
    </g>
    <g id="ytick_8">
     <g id="line2d_82">
      <g>
       <use xlink:href="#mb00a7af04c" x="48.039375" y="223.907646" style="stroke: #000000; stroke-width: 0.5"/>
      </g>
     </g>
     <g id="line2d_83">
      <g>
       <use xlink:href="#ma6b6456e64" x="382.839375" y="223.907646" style="stroke: #000000; stroke-width: 0.5"/>
      </g>
     </g>
    </g>
    <g id="ytick_9">
     <g id="line2d_84">
      <g>
       <use xlink:href="#mb00a7af04c" x="48.039375" y="200.305255" style="stroke: #000000; stroke-width: 0.5"/>
      </g>
     </g>
     <g id="line2d_85">
      <g>
       <use xlink:href="#ma6b6456e64" x="382.839375" y="200.305255" style="stroke: #000000; stroke-width: 0.5"/>
      </g>
     </g>
    </g>
    <g id="ytick_10">
     <g id="line2d_86">
      <g>
       <use xlink:href="#mb00a7af04c" x="48.039375" y="188.50406" style="stroke: #000000; stroke-width: 0.5"/>
      </g>
     </g>
     <g id="line2d_87">
      <g>
       <use xlink:href="#ma6b6456e64" x="382.839375" y="188.50406" style="stroke: #000000; stroke-width: 0.5"/>
      </g>
     </g>
    </g>
    <g id="ytick_11">
     <g id="line2d_88">
      <g>
       <use xlink:href="#mb00a7af04c" x="48.039375" y="176.702864" style="stroke: #000000; stroke-width: 0.5"/>
      </g>
     </g>
     <g id="line2d_89">
      <g>
       <use xlink:href="#ma6b6456e64" x="382.839375" y="176.702864" style="stroke: #000000; stroke-width: 0.5"/>
      </g>
     </g>
    </g>
    <g id="ytick_12">
     <g id="line2d_90">
      <g>
       <use xlink:href="#mb00a7af04c" x="48.039375" y="153.100474" style="stroke: #000000; stroke-width: 0.5"/>
      </g>
     </g>
     <g id="line2d_91">
      <g>
       <use xlink:href="#ma6b6456e64" x="382.839375" y="153.100474" style="stroke: #000000; stroke-width: 0.5"/>
      </g>
     </g>
    </g>
    <g id="ytick_13">
     <g id="line2d_92">
      <g>
       <use xlink:href="#mb00a7af04c" x="48.039375" y="141.299278" style="stroke: #000000; stroke-width: 0.5"/>
      </g>
     </g>
     <g id="line2d_93">
      <g>
       <use xlink:href="#ma6b6456e64" x="382.839375" y="141.299278" style="stroke: #000000; stroke-width: 0.5"/>
      </g>
     </g>
    </g>
    <g id="ytick_14">
     <g id="line2d_94">
      <g>
       <use xlink:href="#mb00a7af04c" x="48.039375" y="129.498083" style="stroke: #000000; stroke-width: 0.5"/>
      </g>
     </g>
     <g id="line2d_95">
      <g>
       <use xlink:href="#ma6b6456e64" x="382.839375" y="129.498083" style="stroke: #000000; stroke-width: 0.5"/>
      </g>
     </g>
    </g>
    <g id="ytick_15">
     <g id="line2d_96">
      <g>
       <use xlink:href="#mb00a7af04c" x="48.039375" y="105.895692" style="stroke: #000000; stroke-width: 0.5"/>
      </g>
     </g>
     <g id="line2d_97">
      <g>
       <use xlink:href="#ma6b6456e64" x="382.839375" y="105.895692" style="stroke: #000000; stroke-width: 0.5"/>
      </g>
     </g>
    </g>
    <g id="ytick_16">
     <g id="line2d_98">
      <g>
       <use xlink:href="#mb00a7af04c" x="48.039375" y="94.094497" style="stroke: #000000; stroke-width: 0.5"/>
      </g>
     </g>
     <g id="line2d_99">
      <g>
       <use xlink:href="#ma6b6456e64" x="382.839375" y="94.094497" style="stroke: #000000; stroke-width: 0.5"/>
      </g>
     </g>
    </g>
    <g id="ytick_17">
     <g id="line2d_100">
      <g>
       <use xlink:href="#mb00a7af04c" x="48.039375" y="82.293302" style="stroke: #000000; stroke-width: 0.5"/>
      </g>
     </g>
     <g id="line2d_101">
      <g>
       <use xlink:href="#ma6b6456e64" x="382.839375" y="82.293302" style="stroke: #000000; stroke-width: 0.5"/>
      </g>
     </g>
    </g>
    <g id="ytick_18">
     <g id="line2d_102">
      <g>
       <use xlink:href="#mb00a7af04c" x="48.039375" y="58.690911" style="stroke: #000000; stroke-width: 0.5"/>
      </g>
     </g>
     <g id="line2d_103">
      <g>
       <use xlink:href="#ma6b6456e64" x="382.839375" y="58.690911" style="stroke: #000000; stroke-width: 0.5"/>
      </g>
     </g>
    </g>
    <g id="ytick_19">
     <g id="line2d_104">
      <g>
       <use xlink:href="#mb00a7af04c" x="48.039375" y="46.889716" style="stroke: #000000; stroke-width: 0.5"/>
      </g>
     </g>
     <g id="line2d_105">
      <g>
       <use xlink:href="#ma6b6456e64" x="382.839375" y="46.889716" style="stroke: #000000; stroke-width: 0.5"/>
      </g>
     </g>
    </g>
    <g id="ytick_20">
     <g id="line2d_106">
      <g>
       <use xlink:href="#mb00a7af04c" x="48.039375" y="35.08852" style="stroke: #000000; stroke-width: 0.5"/>
      </g>
     </g>
     <g id="line2d_107">
      <g>
       <use xlink:href="#ma6b6456e64" x="382.839375" y="35.08852" style="stroke: #000000; stroke-width: 0.5"/>
      </g>
     </g>
    </g>
    <g id="ytick_21">
     <g id="line2d_108">
      <g>
       <use xlink:href="#mb00a7af04c" x="48.039375" y="11.48613" style="stroke: #000000; stroke-width: 0.5"/>
      </g>
     </g>
     <g id="line2d_109">
      <g>
       <use xlink:href="#ma6b6456e64" x="382.839375" y="11.48613" style="stroke: #000000; stroke-width: 0.5"/>
      </g>
     </g>
    </g>
    <g id="text_13">
     <!-- Fitness -->
     <g transform="translate(12.718125 149.120625) rotate(-90) scale(0.12 -0.12)">
      <defs>
       <path id="DejaVuSans-46" d="M 628 4666 
L 3309 4666 
L 3309 4134 
L 1259 4134 
L 1259 2759 
L 3109 2759 
L 3109 2228 
L 1259 2228 
L 1259 0 
L 628 0 
L 628 4666 
z
" transform="scale(0.015625)"/>
      </defs>
      <use xlink:href="#DejaVuSans-46"/>
      <use xlink:href="#DejaVuSans-69" x="50.269531"/>
      <use xlink:href="#DejaVuSans-74" x="78.052734"/>
      <use xlink:href="#DejaVuSans-6e" x="117.261719"/>
      <use xlink:href="#DejaVuSans-65" x="180.640625"/>
      <use xlink:href="#DejaVuSans-73" x="242.164062"/>
      <use xlink:href="#DejaVuSans-73" x="294.263672"/>
     </g>
    </g>
   </g>
   <g id="line2d_110">
    <path d="M 63.257557 39.021488 
L 63.867504 39.021239 
L 64.477451 33.976677 
L 66.91724 33.976678 
L 67.527187 33.366643 
L 71.18687 33.366645 
L 71.796817 25.62521 
L 77.286342 25.625202 
L 77.896289 23.311461 
L 79.72613 23.311461 
L 80.336077 23.168985 
L 81.555972 23.168983 
L 82.165919 22.51137 
L 82.775866 22.511391 
L 83.385813 22.062696 
L 84.605708 21.955057 
L 85.215655 21.955047 
L 85.825602 20.581849 
L 88.265391 20.581839 
L 88.875338 20.092527 
L 91.315127 20.016756 
L 91.925074 19.40524 
L 94.97481 19.405234 
L 95.584757 19.272642 
L 96.194704 18.564903 
L 98.024545 18.564885 
L 99.24444 18.34973 
L 100.464334 18.349727 
L 101.074281 17.615426 
L 103.51407 17.615408 
L 104.124017 17.488504 
L 107.7837 17.488507 
L 108.393647 17.297186 
L 109.003594 16.869608 
L 113.273225 16.649249 
L 113.883172 16.649253 
L 114.493119 16.017056 
L 116.932908 16.017054 
L 117.542855 15.667893 
L 127.302009 15.568002 
L 127.911957 15.297832 
L 130.961692 15.223575 
L 131.57164 15.038073 
L 367.621193 14.940652 
L 367.621193 14.940652 
" clip-path="url(#p72c7bf4cf5)" style="fill: none; stroke: #000000; stroke-linecap: square"/>
   </g>
   <g id="line2d_111">
    <path d="M 63.257557 24.974304 
L 367.621193 24.974304 
L 367.621193 24.974304 
" clip-path="url(#p72c7bf4cf5)" style="fill: none; stroke-dasharray: 3.7,1.6; stroke-dashoffset: 0; stroke: #000000"/>
   </g>
   <g id="patch_3">
    <path d="M 48.039375 253.08 
L 48.039375 3.6 
" style="fill: none; stroke: #000000; stroke-width: 0.5; stroke-linejoin: miter; stroke-linecap: square"/>
   </g>
   <g id="patch_4">
    <path d="M 382.839375 253.08 
L 382.839375 3.6 
" style="fill: none; stroke: #000000; stroke-width: 0.5; stroke-linejoin: miter; stroke-linecap: square"/>
   </g>
   <g id="patch_5">
    <path d="M 48.039375 253.08 
L 382.839375 253.08 
" style="fill: none; stroke: #000000; stroke-width: 0.5; stroke-linejoin: miter; stroke-linecap: square"/>
   </g>
   <g id="patch_6">
    <path d="M 48.039375 3.6 
L 382.839375 3.6 
" style="fill: none; stroke: #000000; stroke-width: 0.5; stroke-linejoin: miter; stroke-linecap: square"/>
   </g>
   <g id="legend_1">
    <g id="patch_7">
     <path d="M 253.92 247.08 
L 374.439375 247.08 
Q 376.839375 247.08 376.839375 244.68 
L 376.839375 193.03875 
Q 376.839375 190.63875 374.439375 190.63875 
L 253.92 190.63875 
Q 251.52 190.63875 251.52 193.03875 
L 251.52 244.68 
Q 251.52 247.08 253.92 247.08 
z
" style="fill: #ffffff; opacity: 0.8; stroke: #cccccc; stroke-linejoin: miter"/>
    </g>
    <g id="line2d_112">
     <path d="M 256.32 200.356875 
L 268.32 200.356875 
L 280.32 200.356875 
" style="fill: none; stroke: #000000; stroke-linecap: square"/>
    </g>
    <g id="text_14">
     <!-- Best fitness -->
     <g transform="translate(289.92 204.556875) scale(0.12 -0.12)">
      <defs>
       <path id="DejaVuSans-42" d="M 1259 2228 
L 1259 519 
L 2272 519 
Q 2781 519 3026 730 
Q 3272 941 3272 1375 
Q 3272 1813 3026 2020 
Q 2781 2228 2272 2228 
L 1259 2228 
z
M 1259 4147 
L 1259 2741 
L 2194 2741 
Q 2656 2741 2882 2914 
Q 3109 3088 3109 3444 
Q 3109 3797 2882 3972 
Q 2656 4147 2194 4147 
L 1259 4147 
z
M 628 4666 
L 2241 4666 
Q 2963 4666 3353 4366 
Q 3744 4066 3744 3513 
Q 3744 3084 3544 2831 
Q 3344 2578 2956 2516 
Q 3422 2416 3680 2098 
Q 3938 1781 3938 1306 
Q 3938 681 3513 340 
Q 3088 0 2303 0 
L 628 0 
L 628 4666 
z
" transform="scale(0.015625)"/>
       <path id="DejaVuSans-20" transform="scale(0.015625)"/>
       <path id="DejaVuSans-66" d="M 2375 4863 
L 2375 4384 
L 1825 4384 
Q 1516 4384 1395 4259 
Q 1275 4134 1275 3809 
L 1275 3500 
L 2222 3500 
L 2222 3053 
L 1275 3053 
L 1275 0 
L 697 0 
L 697 3053 
L 147 3053 
L 147 3500 
L 697 3500 
L 697 3744 
Q 697 4328 969 4595 
Q 1241 4863 1831 4863 
L 2375 4863 
z
" transform="scale(0.015625)"/>
      </defs>
      <use xlink:href="#DejaVuSans-42"/>
      <use xlink:href="#DejaVuSans-65" x="68.603516"/>
      <use xlink:href="#DejaVuSans-73" x="130.126953"/>
      <use xlink:href="#DejaVuSans-74" x="182.226562"/>
      <use xlink:href="#DejaVuSans-20" x="221.435547"/>
      <use xlink:href="#DejaVuSans-66" x="253.222656"/>
      <use xlink:href="#DejaVuSans-69" x="288.427734"/>
      <use xlink:href="#DejaVuSans-74" x="316.210938"/>
      <use xlink:href="#DejaVuSans-6e" x="355.419922"/>
      <use xlink:href="#DejaVuSans-65" x="418.798828"/>
      <use xlink:href="#DejaVuSans-73" x="480.322266"/>
      <use xlink:href="#DejaVuSans-73" x="532.421875"/>
     </g>
    </g>
    <g id="patch_8">
     <path d="M 256.32 222.170625 
L 280.32 222.170625 
L 280.32 213.770625 
L 256.32 213.770625 
z
" style="fill: #0000ff; fill-opacity: 0.2; stroke: #0000ff; stroke-opacity: 0.2; stroke-linejoin: miter"/>
    </g>
    <g id="text_15">
     <!-- Top 90% -->
     <g transform="translate(289.92 222.170625) scale(0.12 -0.12)">
      <defs>
       <path id="DejaVuSans-54" d="M -19 4666 
L 3928 4666 
L 3928 4134 
L 2272 4134 
L 2272 0 
L 1638 0 
L 1638 4134 
L -19 4134 
L -19 4666 
z
" transform="scale(0.015625)"/>
       <path id="DejaVuSans-70" d="M 1159 525 
L 1159 -1331 
L 581 -1331 
L 581 3500 
L 1159 3500 
L 1159 2969 
Q 1341 3281 1617 3432 
Q 1894 3584 2278 3584 
Q 2916 3584 3314 3078 
Q 3713 2572 3713 1747 
Q 3713 922 3314 415 
Q 2916 -91 2278 -91 
Q 1894 -91 1617 61 
Q 1341 213 1159 525 
z
M 3116 1747 
Q 3116 2381 2855 2742 
Q 2594 3103 2138 3103 
Q 1681 3103 1420 2742 
Q 1159 2381 1159 1747 
Q 1159 1113 1420 752 
Q 1681 391 2138 391 
Q 2594 391 2855 752 
Q 3116 1113 3116 1747 
z
" transform="scale(0.015625)"/>
       <path id="DejaVuSans-39" d="M 703 97 
L 703 672 
Q 941 559 1184 500 
Q 1428 441 1663 441 
Q 2288 441 2617 861 
Q 2947 1281 2994 2138 
Q 2813 1869 2534 1725 
Q 2256 1581 1919 1581 
Q 1219 1581 811 2004 
Q 403 2428 403 3163 
Q 403 3881 828 4315 
Q 1253 4750 1959 4750 
Q 2769 4750 3195 4129 
Q 3622 3509 3622 2328 
Q 3622 1225 3098 567 
Q 2575 -91 1691 -91 
Q 1453 -91 1209 -44 
Q 966 3 703 97 
z
M 1959 2075 
Q 2384 2075 2632 2365 
Q 2881 2656 2881 3163 
Q 2881 3666 2632 3958 
Q 2384 4250 1959 4250 
Q 1534 4250 1286 3958 
Q 1038 3666 1038 3163 
Q 1038 2656 1286 2365 
Q 1534 2075 1959 2075 
z
" transform="scale(0.015625)"/>
       <path id="DejaVuSans-25" d="M 4653 2053 
Q 4381 2053 4226 1822 
Q 4072 1591 4072 1178 
Q 4072 772 4226 539 
Q 4381 306 4653 306 
Q 4919 306 5073 539 
Q 5228 772 5228 1178 
Q 5228 1588 5073 1820 
Q 4919 2053 4653 2053 
z
M 4653 2450 
Q 5147 2450 5437 2106 
Q 5728 1763 5728 1178 
Q 5728 594 5436 251 
Q 5144 -91 4653 -91 
Q 4153 -91 3862 251 
Q 3572 594 3572 1178 
Q 3572 1766 3864 2108 
Q 4156 2450 4653 2450 
z
M 1428 4353 
Q 1159 4353 1004 4120 
Q 850 3888 850 3481 
Q 850 3069 1003 2837 
Q 1156 2606 1428 2606 
Q 1700 2606 1854 2837 
Q 2009 3069 2009 3481 
Q 2009 3884 1853 4118 
Q 1697 4353 1428 4353 
z
M 4250 4750 
L 4750 4750 
L 1831 -91 
L 1331 -91 
L 4250 4750 
z
M 1428 4750 
Q 1922 4750 2215 4408 
Q 2509 4066 2509 3481 
Q 2509 2891 2217 2550 
Q 1925 2209 1428 2209 
Q 931 2209 642 2551 
Q 353 2894 353 3481 
Q 353 4063 643 4406 
Q 934 4750 1428 4750 
z
" transform="scale(0.015625)"/>
      </defs>
      <use xlink:href="#DejaVuSans-54"/>
      <use xlink:href="#DejaVuSans-6f" x="44.083984"/>
      <use xlink:href="#DejaVuSans-70" x="105.265625"/>
      <use xlink:href="#DejaVuSans-20" x="168.742188"/>
      <use xlink:href="#DejaVuSans-39" x="200.529297"/>
      <use xlink:href="#DejaVuSans-30" x="264.152344"/>
      <use xlink:href="#DejaVuSans-25" x="327.775391"/>
     </g>
    </g>
    <g id="line2d_113">
     <path d="M 256.32 235.584375 
L 268.32 235.584375 
L 280.32 235.584375 
" style="fill: none; stroke-dasharray: 3.7,1.6; stroke-dashoffset: 0; stroke: #000000"/>
    </g>
    <g id="text_16">
     <!-- 180mm Quad -->
     <g transform="translate(289.92 239.784375) scale(0.12 -0.12)">
      <defs>
       <path id="DejaVuSans-38" d="M 2034 2216 
Q 1584 2216 1326 1975 
Q 1069 1734 1069 1313 
Q 1069 891 1326 650 
Q 1584 409 2034 409 
Q 2484 409 2743 651 
Q 3003 894 3003 1313 
Q 3003 1734 2745 1975 
Q 2488 2216 2034 2216 
z
M 1403 2484 
Q 997 2584 770 2862 
Q 544 3141 544 3541 
Q 544 4100 942 4425 
Q 1341 4750 2034 4750 
Q 2731 4750 3128 4425 
Q 3525 4100 3525 3541 
Q 3525 3141 3298 2862 
Q 3072 2584 2669 2484 
Q 3125 2378 3379 2068 
Q 3634 1759 3634 1313 
Q 3634 634 3220 271 
Q 2806 -91 2034 -91 
Q 1263 -91 848 271 
Q 434 634 434 1313 
Q 434 1759 690 2068 
Q 947 2378 1403 2484 
z
M 1172 3481 
Q 1172 3119 1398 2916 
Q 1625 2713 2034 2713 
Q 2441 2713 2670 2916 
Q 2900 3119 2900 3481 
Q 2900 3844 2670 4047 
Q 2441 4250 2034 4250 
Q 1625 4250 1398 4047 
Q 1172 3844 1172 3481 
z
" transform="scale(0.015625)"/>
       <path id="DejaVuSans-6d" d="M 3328 2828 
Q 3544 3216 3844 3400 
Q 4144 3584 4550 3584 
Q 5097 3584 5394 3201 
Q 5691 2819 5691 2113 
L 5691 0 
L 5113 0 
L 5113 2094 
Q 5113 2597 4934 2840 
Q 4756 3084 4391 3084 
Q 3944 3084 3684 2787 
Q 3425 2491 3425 1978 
L 3425 0 
L 2847 0 
L 2847 2094 
Q 2847 2600 2669 2842 
Q 2491 3084 2119 3084 
Q 1678 3084 1418 2786 
Q 1159 2488 1159 1978 
L 1159 0 
L 581 0 
L 581 3500 
L 1159 3500 
L 1159 2956 
Q 1356 3278 1631 3431 
Q 1906 3584 2284 3584 
Q 2666 3584 2933 3390 
Q 3200 3197 3328 2828 
z
" transform="scale(0.015625)"/>
       <path id="DejaVuSans-51" d="M 2522 4238 
Q 1834 4238 1429 3725 
Q 1025 3213 1025 2328 
Q 1025 1447 1429 934 
Q 1834 422 2522 422 
Q 3209 422 3611 934 
Q 4013 1447 4013 2328 
Q 4013 3213 3611 3725 
Q 3209 4238 2522 4238 
z
M 3406 84 
L 4238 -825 
L 3475 -825 
L 2784 -78 
Q 2681 -84 2626 -87 
Q 2572 -91 2522 -91 
Q 1538 -91 948 567 
Q 359 1225 359 2328 
Q 359 3434 948 4092 
Q 1538 4750 2522 4750 
Q 3503 4750 4090 4092 
Q 4678 3434 4678 2328 
Q 4678 1516 4351 937 
Q 4025 359 3406 84 
z
" transform="scale(0.015625)"/>
       <path id="DejaVuSans-75" d="M 544 1381 
L 544 3500 
L 1119 3500 
L 1119 1403 
Q 1119 906 1312 657 
Q 1506 409 1894 409 
Q 2359 409 2629 706 
Q 2900 1003 2900 1516 
L 2900 3500 
L 3475 3500 
L 3475 0 
L 2900 0 
L 2900 538 
Q 2691 219 2414 64 
Q 2138 -91 1772 -91 
Q 1169 -91 856 284 
Q 544 659 544 1381 
z
M 1991 3584 
L 1991 3584 
z
" transform="scale(0.015625)"/>
       <path id="DejaVuSans-64" d="M 2906 2969 
L 2906 4863 
L 3481 4863 
L 3481 0 
L 2906 0 
L 2906 525 
Q 2725 213 2448 61 
Q 2172 -91 1784 -91 
Q 1150 -91 751 415 
Q 353 922 353 1747 
Q 353 2572 751 3078 
Q 1150 3584 1784 3584 
Q 2172 3584 2448 3432 
Q 2725 3281 2906 2969 
z
M 947 1747 
Q 947 1113 1208 752 
Q 1469 391 1925 391 
Q 2381 391 2643 752 
Q 2906 1113 2906 1747 
Q 2906 2381 2643 2742 
Q 2381 3103 1925 3103 
Q 1469 3103 1208 2742 
Q 947 2381 947 1747 
z
" transform="scale(0.015625)"/>
      </defs>
      <use xlink:href="#DejaVuSans-31"/>
      <use xlink:href="#DejaVuSans-38" x="63.623047"/>
      <use xlink:href="#DejaVuSans-30" x="127.246094"/>
      <use xlink:href="#DejaVuSans-6d" x="190.869141"/>
      <use xlink:href="#DejaVuSans-6d" x="288.28125"/>
      <use xlink:href="#DejaVuSans-20" x="385.693359"/>
      <use xlink:href="#DejaVuSans-51" x="417.480469"/>
      <use xlink:href="#DejaVuSans-75" x="496.191406"/>
      <use xlink:href="#DejaVuSans-61" x="559.570312"/>
      <use xlink:href="#DejaVuSans-64" x="620.849609"/>
     </g>
    </g>
   </g>
  </g>
 </g>
 <defs>
  <clipPath id="p72c7bf4cf5">
   <rect x="48.039375" y="3.6" width="334.8" height="249.48"/>
  </clipPath>
 </defs>
</svg>
