<?xml version="1.0" encoding="utf-8" standalone="no"?>
<!DOCTYPE svg PUBLIC "-//W3C//DTD SVG 1.1//EN"
  "http://www.w3.org/Graphics/SVG/1.1/DTD/svg11.dtd">
<svg xmlns:xlink="http://www.w3.org/1999/xlink" width="386.439375pt" height="287.4075pt" viewBox="0 0 386.439375 287.4075" xmlns="http://www.w3.org/2000/svg" version="1.1">
 <metadata>
  <rdf:RDF xmlns:dc="http://purl.org/dc/elements/1.1/" xmlns:cc="http://creativecommons.org/ns#" xmlns:rdf="http://www.w3.org/1999/02/22-rdf-syntax-ns#">
   <cc:Work>
    <dc:type rdf:resource="http://purl.org/dc/dcmitype/StillImage"/>
    <dc:date>2024-06-05T09:17:29.725788</dc:date>
    <dc:format>image/svg+xml</dc:format>
    <dc:creator>
     <cc:Agent>
      <dc:title>Matplotlib v3.9.0, https://matplotlib.org/</dc:title>
     </cc:Agent>
    </dc:creator>
   </cc:Work>
  </rdf:RDF>
 </metadata>
 <defs>
  <style type="text/css">*{stroke-linejoin: round; stroke-linecap: butt}</style>
 </defs>
 <g id="figure_1">
  <g id="patch_1">
   <path d="M 0 287.4075 
L 386.439375 287.4075 
L 386.439375 0 
L 0 0 
z
" style="fill: #ffffff"/>
  </g>
  <g id="axes_1">
   <g id="patch_2">
    <path d="M 48.039375 253.08 
L 382.839375 253.08 
L 382.839375 3.6 
L 48.039375 3.6 
z
" style="fill: #ffffff"/>
   </g>
   <g id="PolyCollection_1">
    <defs>
     <path id="m8898022628" d="M 63.257557 -249.894619 
L 63.257557 -116.739756 
L 63.867504 -113.532228 
L 64.477451 -117.900618 
L 65.087398 -71.973347 
L 65.697345 -59.8756 
L 66.307293 -85.128811 
L 66.91724 -100.445597 
L 67.527187 -102.854664 
L 68.137134 -120.33475 
L 68.747081 -132.576294 
L 69.357028 -141.784046 
L 69.966976 -143.028248 
L 70.576923 -161.081887 
L 71.18687 -146.121119 
L 71.796817 -143.716623 
L 72.406764 -149.507463 
L 73.016711 -161.660929 
L 73.626659 -148.104202 
L 74.236606 -173.514426 
L 74.846553 -173.892286 
L 75.4565 -173.9767 
L 76.066447 -175.761822 
L 76.676394 -176.76173 
L 77.286342 -178.367567 
L 77.896289 -178.430558 
L 78.506236 -179.826558 
L 79.116183 -180.511439 
L 79.72613 -177.837478 
L 80.336077 -178.694779 
L 80.946025 -181.098374 
L 81.555972 -183.534098 
L 82.165919 -184.20339 
L 82.775866 -190.84522 
L 83.385813 -193.414346 
L 83.99576 -193.414346 
L 84.605708 -215.257799 
L 85.215655 -215.235507 
L 85.825602 -225.217673 
L 86.435549 -229.319521 
L 87.045496 -256.341191 
L 87.655444 -259.893182 
L 88.265391 -259.851847 
L 88.875338 -260.468748 
L 89.485285 -260.872364 
L 90.095232 -261.167109 
L 90.705179 -260.694293 
L 91.315127 -260.94605 
L 91.925074 -260.815112 
L 92.535021 -260.394522 
L 93.144968 -261.227837 
L 93.754915 -260.494358 
L 94.364862 -260.496182 
L 94.97481 -260.263207 
L 95.584757 -259.82567 
L 96.194704 -259.257979 
L 96.804651 -260.498715 
L 97.414598 -259.535657 
L 98.024545 -259.434721 
L 98.634493 -259.609243 
L 99.24444 -258.971568 
L 99.854387 -258.937096 
L 100.464334 -259.661441 
L 101.074281 -259.760257 
L 101.684228 -258.80618 
L 102.294176 -258.778711 
L 102.904123 -259.770846 
L 103.51407 -259.571257 
L 104.124017 -258.846645 
L 104.733964 -258.080717 
L 105.343911 -259.496271 
L 105.953859 -258.986028 
L 106.563806 -258.155545 
L 107.173753 -258.732107 
L 107.7837 -257.550713 
L 108.393647 -257.882821 
L 109.003594 -257.55086 
L 109.613542 -258.113181 
L 110.223489 -258.792396 
L 110.833436 -260.2315 
L 111.443383 -258.988354 
L 112.05333 -257.631108 
L 112.663277 -259.099868 
L 113.273225 -257.65856 
L 113.883172 -258.611252 
L 114.493119 -259.974368 
L 115.103066 -259.871338 
L 115.713013 -259.85604 
L 116.32296 -260.234102 
L 116.932908 -260.53612 
L 117.542855 -260.191725 
L 118.152802 -260.174942 
L 118.762749 -258.815795 
L 119.372696 -258.976106 
L 119.982643 -254.951236 
L 120.592591 -256.957335 
L 121.202538 -259.209024 
L 121.812485 -259.15156 
L 122.422432 -260.888229 
L 123.032379 -258.530478 
L 123.642326 -262.365951 
L 124.252274 -261.478878 
L 124.862221 -262.128411 
L 125.472168 -263.351768 
L 126.082115 -263.245926 
L 126.692062 -261.987692 
L 127.302009 -261.972524 
L 127.911957 -263.331273 
L 128.521904 -263.577599 
L 129.131851 -263.354508 
L 129.741798 -263.551858 
L 130.351745 -264.221152 
L 130.961692 -263.9532 
L 131.57164 -263.699728 
L 132.181587 -263.137897 
L 132.791534 -263.162199 
L 133.401481 -263.162206 
L 134.011428 -261.913631 
L 134.621375 -263.234374 
L 135.231323 -262.654634 
L 135.84127 -264.113675 
L 136.451217 -263.721093 
L 137.061164 -261.641015 
L 137.671111 -262.304496 
L 138.281058 -264.067922 
L 138.891006 -264.314249 
L 139.500953 -264.720851 
L 140.1109 -265.309202 
L 140.720847 -265.065532 
L 141.330794 -264.819917 
L 141.940741 -264.418946 
L 142.550689 -263.712701 
L 143.160636 -264.911515 
L 143.770583 -264.447167 
L 144.38053 -263.269233 
L 144.990477 -265.508114 
L 145.600424 -265.254859 
L 146.210372 -265.501348 
L 146.820319 -265.237449 
L 147.430266 -262.043361 
L 148.040213 -262.557921 
L 148.65016 -262.574251 
L 149.260107 -262.231614 
L 149.870055 -262.782374 
L 150.480002 -262.607367 
L 151.089949 -262.972668 
L 151.699896 -262.868505 
L 152.309843 -260.359618 
L 152.91979 -260.359514 
L 153.529738 -260.359505 
L 154.139685 -261.225453 
L 154.749632 -261.434843 
L 155.359579 -257.910369 
L 155.969526 -257.806148 
L 156.579473 -259.779096 
L 157.189421 -261.168597 
L 157.799368 -262.975395 
L 158.409315 -262.907262 
L 159.019262 -265.000707 
L 159.629209 -264.850518 
L 160.239156 -263.315848 
L 160.849104 -264.35574 
L 161.459051 -261.582131 
L 162.068998 -262.001937 
L 162.678945 -263.506559 
L 163.288892 -262.844609 
L 163.898839 -262.122684 
L 164.508787 -261.54898 
L 165.118734 -262.662937 
L 165.728681 -262.630437 
L 166.338628 -261.690548 
L 166.948575 -262.620938 
L 167.558522 -262.713301 
L 168.16847 -262.630215 
L 168.778417 -262.627937 
L 169.388364 -261.319378 
L 169.998311 -263.52667 
L 170.608258 -263.150074 
L 171.218205 -262.667074 
L 171.828153 -261.798417 
L 172.4381 -261.747283 
L 173.048047 -262.933001 
L 173.657994 -262.933013 
L 174.267941 -264.095095 
L 174.877888 -263.880294 
L 175.487836 -262.987852 
L 176.097783 -263.30153 
L 176.70773 -262.932953 
L 177.317677 -262.730904 
L 177.927624 -261.459978 
L 178.537571 -263.509849 
L 179.147519 -263.071237 
L 179.757466 -262.403465 
L 180.367413 -262.443491 
L 180.97736 -262.974303 
L 181.587307 -263.305241 
L 182.197254 -263.071317 
L 182.807202 -263.619306 
L 183.417149 -263.065024 
L 184.027096 -263.071212 
L 184.637043 -263.424153 
L 185.24699 -262.691473 
L 185.856937 -263.847879 
L 186.466885 -263.847956 
L 187.076832 -263.847877 
L 187.686779 -264.381223 
L 188.296726 -263.549921 
L 188.906673 -263.894894 
L 189.51662 -262.513735 
L 190.126568 -260.810185 
L 190.736515 -261.481844 
L 191.346462 -262.177362 
L 191.956409 -265.079518 
L 192.566356 -266.56986 
L 193.176303 -265.619811 
L 193.786251 -265.895342 
L 194.396198 -266.163794 
L 195.006145 -266.941483 
L 195.616092 -265.079673 
L 196.226039 -264.899237 
L 196.835986 -265.474073 
L 197.445934 -264.495587 
L 198.055881 -264.431327 
L 198.665828 -261.576875 
L 199.275775 -261.576704 
L 199.885722 -259.923328 
L 200.495669 -263.971664 
L 201.105617 -259.042606 
L 201.715564 -261.552992 
L 202.325511 -258.052713 
L 202.935458 -263.603558 
L 203.545405 -265.211192 
L 204.155352 -265.470091 
L 204.7653 -265.211187 
L 205.375247 -264.346187 
L 205.985194 -265.499437 
L 206.595141 -264.34619 
L 207.205088 -265.49944 
L 207.815035 -265.56889 
L 208.424983 -264.346189 
L 209.03493 -264.245929 
L 209.644877 -264.072405 
L 210.254824 -265.726003 
L 210.864771 -265.634188 
L 211.474718 -264.563227 
L 212.084666 -263.383615 
L 212.694613 -263.801023 
L 213.30456 -261.780302 
L 213.914507 -265.284136 
L 214.524454 -263.760659 
L 215.134401 -264.280981 
L 215.744349 -264.06177 
L 216.354296 -263.805632 
L 216.964243 -265.135383 
L 217.57419 -263.737714 
L 218.184137 -263.73771 
L 218.794084 -263.737709 
L 219.404032 -263.299537 
L 220.013979 -263.145104 
L 220.623926 -263.259027 
L 221.233873 -263.942869 
L 221.84382 -263.963004 
L 222.453767 -263.752179 
L 223.063715 -263.405145 
L 223.673662 -262.084043 
L 224.283609 -262.15221 
L 224.893556 -262.440618 
L 225.503503 -263.643127 
L 226.11345 -263.755714 
L 226.723398 -263.96297 
L 227.333345 -264.826817 
L 227.943292 -264.922812 
L 228.553239 -264.826815 
L 229.163186 -264.621359 
L 229.773133 -264.640053 
L 230.383081 -261.504783 
L 230.993028 -263.351865 
L 231.602975 -262.218285 
L 232.212922 -259.988611 
L 232.822869 -263.696661 
L 233.432816 -263.363977 
L 234.042764 -263.543968 
L 234.652711 -263.456257 
L 235.262658 -263.456251 
L 235.872605 -262.842813 
L 236.482552 -260.555882 
L 237.092499 -263.279697 
L 237.702447 -263.27972 
L 238.312394 -263.279678 
L 238.922341 -259.925543 
L 239.532288 -257.42741 
L 240.142235 -263.27978 
L 240.752182 -259.801042 
L 241.36213 -262.956618 
L 241.972077 -260.160443 
L 242.582024 -260.86289 
L 243.191971 -260.859345 
L 243.801918 -261.067795 
L 244.411865 -261.578596 
L 245.021813 -261.834353 
L 245.63176 -261.545962 
L 246.241707 -262.863065 
L 246.851654 -260.881197 
L 247.461601 -258.274417 
L 248.071548 -260.873265 
L 248.681496 -262.436911 
L 249.291443 -263.460128 
L 249.90139 -263.111552 
L 250.511337 -263.7349 
L 251.121284 -263.363975 
L 251.731231 -264.826815 
L 252.341179 -264.055369 
L 252.951126 -263.423848 
L 253.561073 -263.79219 
L 254.17102 -264.264001 
L 254.780967 -264.826813 
L 255.390914 -265.852466 
L 256.000862 -264.693476 
L 256.610809 -265.902421 
L 257.220756 -264.414851 
L 257.830703 -264.584118 
L 258.44065 -263.4669 
L 259.050597 -264.600408 
L 259.660545 -263.9536 
L 260.270492 -263.992465 
L 260.880439 -261.823874 
L 261.490386 -261.119128 
L 262.100333 -257.538361 
L 262.71028 -261.795203 
L 263.320228 -264.094608 
L 263.930175 -265.786607 
L 264.540122 -265.786635 
L 265.150069 -266.031251 
L 265.760016 -264.489141 
L 266.369963 -265.248265 
L 266.979911 -263.400717 
L 267.589858 -265.319653 
L 268.199805 -260.71717 
L 268.809752 -257.729504 
L 269.419699 -254.994649 
L 270.029646 -255.528558 
L 270.639594 -257.706467 
L 271.249541 -257.87044 
L 271.859488 -258.628378 
L 272.469435 -255.303717 
L 273.079382 -258.306866 
L 273.689329 -257.041471 
L 274.299277 -256.495352 
L 274.909224 -258.637488 
L 275.519171 -262.706809 
L 276.129118 -263.587341 
L 276.739065 -263.217819 
L 277.349012 -264.177425 
L 277.95896 -263.704542 
L 278.568907 -264.5455 
L 279.178854 -262.613324 
L 279.788801 -263.513193 
L 280.398748 -257.487355 
L 281.008695 -239.312991 
L 281.618643 -263.619611 
L 282.22859 -263.288019 
L 282.838537 -263.9696 
L 283.448484 -263.648547 
L 284.058431 -257.316727 
L 284.668378 -259.706258 
L 285.278326 -264.399797 
L 285.888273 -264.053962 
L 286.49822 -263.557029 
L 287.108167 -264.335739 
L 287.718114 -265.552873 
L 288.328061 -265.388181 
L 288.938009 -264.681721 
L 289.547956 -264.982054 
L 290.157903 -265.388114 
L 290.76785 -263.578238 
L 291.377797 -263.57824 
L 291.987744 -263.388092 
L 292.597692 -260.74443 
L 293.207639 -264.620491 
L 293.817586 -264.153292 
L 294.427533 -265.387972 
L 295.03748 -265.387831 
L 295.647427 -265.102172 
L 296.257375 -264.079052 
L 296.867322 -262.913539 
L 297.477269 -265.387835 
L 298.087216 -262.351761 
L 298.697163 -264.93013 
L 299.30711 -263.119076 
L 299.917058 -264.175847 
L 300.527005 -261.874008 
L 301.136952 -260.488019 
L 301.746899 -261.971798 
L 302.356846 -261.882756 
L 302.966793 -263.315577 
L 303.576741 -262.870261 
L 304.186688 -263.373836 
L 304.796635 -263.302684 
L 305.406582 -263.373972 
L 306.016529 -262.447767 
L 306.626476 -262.420158 
L 307.236424 -262.927932 
L 307.846371 -263.990137 
L 308.456318 -262.654487 
L 309.066265 -263.911669 
L 309.676212 -263.60413 
L 310.286159 -264.034545 
L 310.896107 -262.447804 
L 311.506054 -264.321989 
L 312.116001 -264.187817 
L 312.725948 -262.447803 
L 313.335895 -261.984408 
L 313.945842 -261.984402 
L 314.55579 -263.405949 
L 315.165737 -263.273354 
L 315.775684 -261.984404 
L 316.385631 -263.315367 
L 316.995578 -261.984401 
L 317.605525 -261.249073 
L 318.215473 -260.845369 
L 318.82542 -260.08515 
L 319.435367 -259.788655 
L 320.045314 -260.037663 
L 320.655261 -258.953254 
L 321.265208 -259.042396 
L 321.875156 -259.716926 
L 322.485103 -261.402307 
L 323.09505 -262.817023 
L 323.704997 -263.842201 
L 324.314944 -264.019002 
L 324.924891 -264.018998 
L 325.534839 -264.460752 
L 326.144786 -263.24981 
L 326.754733 -259.271967 
L 327.36468 -261.29114 
L 327.974627 -262.751237 
L 328.584574 -261.291125 
L 329.194522 -263.293156 
L 329.804469 -262.506148 
L 330.414416 -259.738071 
L 331.024363 -258.744839 
L 331.63431 -257.840399 
L 332.244257 -262.061394 
L 332.854205 -260.587978 
L 333.464152 -263.647636 
L 334.074099 -264.946078 
L 334.684046 -266.249697 
L 335.293993 -265.169238 
L 335.90394 -264.998303 
L 336.513888 -263.944613 
L 337.123835 -263.151244 
L 337.733782 -263.793542 
L 338.343729 -261.023133 
L 338.953676 -261.168917 
L 339.563623 -261.962645 
L 340.173571 -263.647635 
L 340.783518 -261.609926 
L 341.393465 -264.735055 
L 342.003412 -264.446918 
L 342.613359 -265.70485 
L 343.223306 -264.551911 
L 343.833254 -264.111164 
L 344.443201 -262.454751 
L 345.053148 -263.756214 
L 345.663095 -263.915978 
L 346.273042 -264.309772 
L 346.88299 -264.551896 
L 347.492937 -263.853098 
L 348.102884 -263.569568 
L 348.712831 -264.539066 
L 349.322778 -264.539098 
L 349.932725 -264.539135 
L 350.542673 -263.611073 
L 351.15262 -264.539143 
L 351.762567 -263.196222 
L 352.372514 -263.037486 
L 352.982461 -262.827581 
L 353.592408 -264.415517 
L 354.202356 -264.427607 
L 354.812303 -263.458962 
L 355.42225 -264.135338 
L 356.032197 -262.146032 
L 356.642144 -260.108492 
L 357.252091 -257.108192 
L 357.862039 -259.137922 
L 358.471986 -263.211344 
L 359.081933 -263.220959 
L 359.69188 -261.631976 
L 360.301827 -258.640303 
L 360.911774 -261.632017 
L 361.521722 -261.243597 
L 362.131669 -262.953942 
L 362.741616 -263.417401 
L 363.351563 -262.797032 
L 363.96151 -263.710798 
L 364.571457 -264.512095 
L 365.181405 -265.709692 
L 365.791352 -263.469719 
L 366.401299 -263.262495 
L 367.011246 -262.891415 
L 367.621193 -261.155212 
L 367.621193 -272.466889 
L 367.621193 -272.466889 
L 367.011246 -272.467214 
L 366.401299 -272.466887 
L 365.791352 -272.466934 
L 365.181405 -272.466888 
L 364.571457 -272.466909 
L 363.96151 -272.466927 
L 363.351563 -272.466911 
L 362.741616 -272.466932 
L 362.131669 -272.466897 
L 361.521722 -272.466895 
L 360.911774 -272.466881 
L 360.301827 -272.46689 
L 359.69188 -272.466907 
L 359.081933 -272.466899 
L 358.471986 -272.4675 
L 357.862039 -272.467239 
L 357.252091 -272.466892 
L 356.642144 -272.466901 
L 356.032197 -272.466913 
L 355.42225 -272.467373 
L 354.812303 -272.466935 
L 354.202356 -272.467004 
L 353.592408 -272.467417 
L 352.982461 -272.466903 
L 352.372514 -272.466919 
L 351.762567 -272.466911 
L 351.15262 -272.466908 
L 350.542673 -272.466893 
L 349.932725 -272.46699 
L 349.322778 -272.466936 
L 348.712831 -272.466881 
L 348.102884 -272.466902 
L 347.492937 -272.466913 
L 346.88299 -272.467376 
L 346.273042 -272.467383 
L 345.663095 -272.466888 
L 345.053148 -272.466901 
L 344.443201 -272.466907 
L 343.833254 -272.466896 
L 343.223306 -272.467086 
L 342.613359 -272.466936 
L 342.003412 -272.466938 
L 341.393465 -272.46691 
L 340.783518 -272.466917 
L 340.173571 -272.466941 
L 339.563623 -272.466935 
L 338.953676 -272.466905 
L 338.343729 -272.466916 
L 337.733782 -272.466917 
L 337.123835 -272.466902 
L 336.513888 -272.466887 
L 335.90394 -272.467067 
L 335.293993 -272.466938 
L 334.684046 -272.466914 
L 334.074099 -272.466911 
L 333.464152 -272.467276 
L 332.854205 -272.466892 
L 332.244257 -272.466923 
L 331.63431 -272.466908 
L 331.024363 -272.466896 
L 330.414416 -272.466941 
L 329.804469 -272.466897 
L 329.194522 -272.4669 
L 328.584574 -272.466883 
L 327.974627 -272.466902 
L 327.36468 -272.466921 
L 326.754733 -272.466891 
L 326.144786 -272.466894 
L 325.534839 -272.466908 
L 324.924891 -272.466905 
L 324.314944 -272.46688 
L 323.704997 -272.466927 
L 323.09505 -272.466911 
L 322.485103 -272.466887 
L 321.875156 -272.466906 
L 321.265208 -272.466887 
L 320.655261 -272.466901 
L 320.045314 -272.466889 
L 319.435367 -272.467412 
L 318.82542 -272.466894 
L 318.215473 -272.467174 
L 317.605525 -272.466887 
L 316.995578 -272.466901 
L 316.385631 -272.466915 
L 315.775684 -272.466917 
L 315.165737 -272.466891 
L 314.55579 -272.466907 
L 313.945842 -272.466939 
L 313.335895 -272.466929 
L 312.725948 -272.466919 
L 312.116001 -272.466915 
L 311.506054 -272.466986 
L 310.896107 -272.466924 
L 310.286159 -272.466909 
L 309.676212 -272.467414 
L 309.066265 -272.466916 
L 308.456318 -272.466953 
L 307.846371 -272.466895 
L 307.236424 -272.466899 
L 306.626476 -272.467469 
L 306.016529 -272.466916 
L 305.406582 -272.466894 
L 304.796635 -272.466903 
L 304.186688 -272.466879 
L 303.576741 -272.4669 
L 302.966793 -272.466877 
L 302.356846 -272.466891 
L 301.746899 -272.466921 
L 301.136952 -272.46733 
L 300.527005 -272.4669 
L 299.917058 -272.467459 
L 299.30711 -272.466911 
L 298.697163 -272.466902 
L 298.087216 -272.466899 
L 297.477269 -272.466911 
L 296.867322 -272.467033 
L 296.257375 -272.466916 
L 295.647427 -272.466923 
L 295.03748 -272.466905 
L 294.427533 -272.467285 
L 293.817586 -272.466916 
L 293.207639 -272.466896 
L 292.597692 -272.46692 
L 291.987744 -272.466925 
L 291.377797 -272.466892 
L 290.76785 -272.466973 
L 290.157903 -272.466908 
L 289.547956 -272.466906 
L 288.938009 -272.466914 
L 288.328061 -272.466917 
L 287.718114 -272.466911 
L 287.108167 -272.466903 
L 286.49822 -272.466898 
L 285.888273 -272.466897 
L 285.278326 -272.466867 
L 284.668378 -272.466892 
L 284.058431 -272.466898 
L 283.448484 -272.466893 
L 282.838537 -272.466878 
L 282.22859 -272.466914 
L 281.618643 -272.466863 
L 281.008695 -272.466818 
L 280.398748 -272.466884 
L 279.788801 -272.466846 
L 279.178854 -272.46666 
L 278.568907 -272.466761 
L 277.95896 -272.466747 
L 277.349012 -272.462085 
L 276.739065 -272.462087 
L 276.129118 -272.462084 
L 275.519171 -272.462083 
L 274.909224 -272.462084 
L 274.299277 -272.462085 
L 273.689329 -272.462089 
L 273.079382 -272.462085 
L 272.469435 -272.462086 
L 271.859488 -272.462084 
L 271.249541 -272.462088 
L 270.639594 -272.46209 
L 270.029646 -272.462086 
L 269.419699 -272.462086 
L 268.809752 -272.462084 
L 268.199805 -272.462081 
L 267.589858 -272.462084 
L 266.979911 -272.462083 
L 266.369963 -272.462092 
L 265.760016 -272.462089 
L 265.150069 -272.462084 
L 264.540122 -272.462083 
L 263.930175 -272.462085 
L 263.320228 -272.462087 
L 262.71028 -272.462085 
L 262.100333 -272.462086 
L 261.490386 -272.462085 
L 260.880439 -272.462089 
L 260.270492 -272.462084 
L 259.660545 -272.46209 
L 259.050597 -272.462078 
L 258.44065 -272.462086 
L 257.830703 -272.462088 
L 257.220756 -272.462086 
L 256.610809 -272.46209 
L 256.000862 -272.462088 
L 255.390914 -272.462083 
L 254.780967 -272.462089 
L 254.17102 -272.462087 
L 253.561073 -272.462088 
L 252.951126 -272.462084 
L 252.341179 -272.462083 
L 251.731231 -272.462092 
L 251.121284 -272.462087 
L 250.511337 -272.462083 
L 249.90139 -272.462087 
L 249.291443 -272.462088 
L 248.681496 -272.462087 
L 248.071548 -272.462082 
L 247.461601 -272.462088 
L 246.851654 -272.462091 
L 246.241707 -272.462082 
L 245.63176 -272.462084 
L 245.021813 -272.462087 
L 244.411865 -272.462091 
L 243.801918 -272.462085 
L 243.191971 -272.462089 
L 242.582024 -272.462087 
L 241.972077 -272.462092 
L 241.36213 -272.462087 
L 240.752182 -272.462089 
L 240.142235 -272.462089 
L 239.532288 -272.462082 
L 238.922341 -272.462083 
L 238.312394 -272.462089 
L 237.702447 -272.462084 
L 237.092499 -272.462087 
L 236.482552 -272.462091 
L 235.872605 -272.462088 
L 235.262658 -272.462087 
L 234.652711 -272.462088 
L 234.042764 -272.462087 
L 233.432816 -272.462087 
L 232.822869 -272.46209 
L 232.212922 -272.46209 
L 231.602975 -272.462089 
L 230.993028 -272.46209 
L 230.383081 -272.462087 
L 229.773133 -272.462091 
L 229.163186 -272.462083 
L 228.553239 -272.462087 
L 227.943292 -272.462087 
L 227.333345 -272.462091 
L 226.723398 -272.462082 
L 226.11345 -272.462085 
L 225.503503 -272.462087 
L 224.893556 -272.462088 
L 224.283609 -272.462086 
L 223.673662 -272.462089 
L 223.063715 -272.462085 
L 222.453767 -272.462087 
L 221.84382 -272.462089 
L 221.233873 -272.462087 
L 220.623926 -272.462089 
L 220.013979 -272.46209 
L 219.404032 -272.462081 
L 218.794084 -272.462084 
L 218.184137 -272.46209 
L 217.57419 -272.462089 
L 216.964243 -272.462087 
L 216.354296 -272.462089 
L 215.744349 -272.462086 
L 215.134401 -272.462091 
L 214.524454 -272.462086 
L 213.914507 -272.46209 
L 213.30456 -272.462091 
L 212.694613 -272.462089 
L 212.084666 -272.462089 
L 211.474718 -272.462087 
L 210.864771 -272.462091 
L 210.254824 -272.462084 
L 209.644877 -272.462092 
L 209.03493 -272.46209 
L 208.424983 -272.462084 
L 207.815035 -272.462087 
L 207.205088 -272.462088 
L 206.595141 -272.462089 
L 205.985194 -272.462088 
L 205.375247 -272.462087 
L 204.7653 -272.462091 
L 204.155352 -272.46209 
L 203.545405 -272.462087 
L 202.935458 -272.462086 
L 202.325511 -272.462086 
L 201.715564 -272.462086 
L 201.105617 -272.462085 
L 200.495669 -272.462088 
L 199.885722 -272.462089 
L 199.275775 -272.462082 
L 198.665828 -272.462088 
L 198.055881 -272.462086 
L 197.445934 -272.46209 
L 196.835986 -272.462084 
L 196.226039 -272.462088 
L 195.616092 -272.462081 
L 195.006145 -272.462089 
L 194.396198 -272.462085 
L 193.786251 -272.462088 
L 193.176303 -272.462085 
L 192.566356 -272.462082 
L 191.956409 -272.462085 
L 191.346462 -272.462087 
L 190.736515 -272.462087 
L 190.126568 -272.462086 
L 189.51662 -272.462088 
L 188.906673 -272.462084 
L 188.296726 -272.462088 
L 187.686779 -272.462089 
L 187.076832 -272.462078 
L 186.466885 -272.462084 
L 185.856937 -272.462087 
L 185.24699 -272.462081 
L 184.637043 -272.462088 
L 184.027096 -272.462084 
L 183.417149 -272.462083 
L 182.807202 -272.462088 
L 182.197254 -272.462088 
L 181.587307 -272.46208 
L 180.97736 -272.46209 
L 180.367413 -272.462086 
L 179.757466 -272.462087 
L 179.147519 -272.462081 
L 178.537571 -272.462085 
L 177.927624 -272.462078 
L 177.317677 -272.462085 
L 176.70773 -272.462079 
L 176.097783 -272.462087 
L 175.487836 -272.462086 
L 174.877888 -272.46209 
L 174.267941 -272.462087 
L 173.657994 -272.462084 
L 173.048047 -272.462086 
L 172.4381 -272.46208 
L 171.828153 -272.462081 
L 171.218205 -272.462086 
L 170.608258 -272.462087 
L 169.998311 -272.462086 
L 169.388364 -272.462067 
L 168.778417 -272.462054 
L 168.16847 -272.462007 
L 167.558522 -272.462063 
L 166.948575 -272.461992 
L 166.338628 -272.461972 
L 165.728681 -272.461082 
L 165.118734 -272.461078 
L 164.508787 -272.461079 
L 163.898839 -272.461083 
L 163.288892 -272.46108 
L 162.678945 -272.461081 
L 162.068998 -272.461079 
L 161.459051 -272.461083 
L 160.849104 -272.461078 
L 160.239156 -272.461083 
L 159.629209 -272.461079 
L 159.019262 -272.461082 
L 158.409315 -272.46108 
L 157.799368 -272.46108 
L 157.189421 -272.461082 
L 156.579473 -272.461081 
L 155.969526 -272.46108 
L 155.359579 -272.461081 
L 154.749632 -272.46108 
L 154.139685 -272.461073 
L 153.529738 -272.461081 
L 152.91979 -272.461079 
L 152.309843 -272.461082 
L 151.699896 -272.461076 
L 151.089949 -272.461081 
L 150.480002 -272.461077 
L 149.870055 -272.461074 
L 149.260107 -272.461071 
L 148.65016 -272.461082 
L 148.040213 -272.461082 
L 147.430266 -272.46108 
L 146.820319 -272.461072 
L 146.210372 -272.46108 
L 145.600424 -272.461077 
L 144.990477 -272.461078 
L 144.38053 -272.46108 
L 143.770583 -272.461081 
L 143.160636 -272.461082 
L 142.550689 -272.461077 
L 141.940741 -272.461077 
L 141.330794 -272.461059 
L 140.720847 -272.461073 
L 140.1109 -272.461072 
L 139.500953 -272.461053 
L 138.891006 -272.461069 
L 138.281058 -272.460993 
L 137.671111 -272.384104 
L 137.061164 -272.384102 
L 136.451217 -272.384109 
L 135.84127 -272.375629 
L 135.231323 -272.375627 
L 134.621375 -272.375565 
L 134.011428 -272.37559 
L 133.401481 -272.375421 
L 132.791534 -272.375503 
L 132.181587 -272.37558 
L 131.57164 -272.375571 
L 130.961692 -272.20169 
L 130.351745 -272.132084 
L 129.741798 -272.132104 
L 129.131851 -272.132088 
L 128.521904 -272.132079 
L 127.911957 -272.132085 
L 127.302009 -271.878839 
L 126.692062 -271.878744 
L 126.082115 -271.878848 
L 125.472168 -271.799482 
L 124.862221 -271.799483 
L 124.252274 -271.799483 
L 123.642326 -271.799492 
L 123.032379 -271.79949 
L 122.422432 -271.799482 
L 121.812485 -271.785429 
L 121.202538 -271.785448 
L 120.592591 -271.785427 
L 119.982643 -271.785351 
L 119.372696 -271.785422 
L 118.762749 -271.785392 
L 118.152802 -271.785422 
L 117.542855 -271.785206 
L 116.932908 -271.457919 
L 116.32296 -271.457918 
L 115.713013 -271.457908 
L 115.103066 -271.457901 
L 114.493119 -271.457917 
L 113.883172 -270.865325 
L 113.273225 -270.865329 
L 112.663277 -270.86532 
L 112.05333 -270.865318 
L 111.443383 -270.865316 
L 110.833436 -270.86532 
L 110.223489 -270.701511 
L 109.613542 -270.701512 
L 109.003594 -270.658774 
L 108.393647 -270.257983 
L 107.7837 -270.078647 
L 107.173753 -270.078652 
L 106.563806 -270.078646 
L 105.953859 -270.078654 
L 105.343911 -270.078649 
L 104.733964 -270.078642 
L 104.124017 -270.07865 
L 103.51407 -269.959696 
L 102.904123 -269.959699 
L 102.294176 -269.959697 
L 101.684228 -269.959689 
L 101.074281 -269.959679 
L 100.464334 -269.271379 
L 99.854387 -269.271388 
L 99.24444 -269.271376 
L 98.634493 -269.201306 
L 98.024545 -269.069699 
L 97.414598 -269.069699 
L 96.804651 -269.06972 
L 96.194704 -269.069682 
L 95.584757 -268.406281 
L 94.97481 -268.281995 
L 94.364862 -268.281995 
L 93.754915 -268.281993 
L 93.144968 -268.281993 
L 92.535021 -268.281994 
L 91.925074 -268.281989 
L 91.315127 -267.708782 
L 90.705179 -267.70878 
L 90.095232 -267.708782 
L 89.485285 -267.637774 
L 88.875338 -267.637758 
L 88.265391 -267.1791 
L 87.655444 -267.179097 
L 87.045496 -267.179105 
L 86.435549 -267.179089 
L 85.825602 -267.17909 
L 85.215655 -265.891917 
L 84.605708 -265.891908 
L 83.99576 -265.891912 
L 83.385813 -265.791012 
L 82.775866 -265.370426 
L 82.165919 -265.370446 
L 81.555972 -264.754029 
L 80.946025 -264.754 
L 80.336077 -264.754028 
L 79.72613 -264.620477 
L 79.116183 -264.620474 
L 78.506236 -264.620479 
L 77.896289 -264.620477 
L 77.286342 -262.451683 
L 76.676394 -262.45168 
L 76.066447 -262.451676 
L 75.4565 -262.45168 
L 74.846553 -262.451675 
L 74.236606 -262.451681 
L 73.626659 -262.451655 
L 73.016711 -262.451655 
L 72.406764 -262.451672 
L 71.796817 -262.451675 
L 71.18687 -255.195209 
L 70.576923 -255.195211 
L 69.966976 -255.195208 
L 69.357028 -255.195211 
L 68.747081 -255.195202 
L 68.137134 -255.195209 
L 67.527187 -255.195211 
L 66.91724 -254.623393 
L 66.307293 -254.623393 
L 65.697345 -254.623393 
L 65.087398 -254.623394 
L 64.477451 -254.623393 
L 63.867504 -249.894853 
L 63.257557 -249.894619 
z
" style="stroke: #0000ff; stroke-opacity: 0.2"/>
    </defs>
    <g clip-path="url(#pc305135967)">
     <use xlink:href="#m8898022628" x="0" y="287.4075" style="fill: #0000ff; fill-opacity: 0.2; stroke: #0000ff; stroke-opacity: 0.2"/>
    </g>
   </g>
   <g id="matplotlib.axis_1">
    <g id="xtick_1">
     <g id="line2d_1">
      <path d="M 63.257557 253.08 
L 63.257557 3.6 
" clip-path="url(#pc305135967)" style="fill: none; stroke: #b0b0b0; stroke-width: 0.5; stroke-linecap: square"/>
     </g>
     <g id="line2d_2">
      <defs>
       <path id="mf005627f49" d="M 0 0 
L 0 -3 
" style="stroke: #000000; stroke-width: 0.5"/>
      </defs>
      <g>
       <use xlink:href="#mf005627f49" x="63.257557" y="253.08" style="stroke: #000000; stroke-width: 0.5"/>
      </g>
     </g>
     <g id="line2d_3">
      <defs>
       <path id="m37c921cf5b" d="M 0 0 
L 0 3 
" style="stroke: #000000; stroke-width: 0.5"/>
      </defs>
      <g>
       <use xlink:href="#m37c921cf5b" x="63.257557" y="3.6" style="stroke: #000000; stroke-width: 0.5"/>
      </g>
     </g>
     <g id="text_1">
      <!-- 0 -->
      <g transform="translate(59.440057 265.698125) scale(0.12 -0.12)">
       <defs>
        <path id="DejaVuSans-30" d="M 2034 4250 
Q 1547 4250 1301 3770 
Q 1056 3291 1056 2328 
Q 1056 1369 1301 889 
Q 1547 409 2034 409 
Q 2525 409 2770 889 
Q 3016 1369 3016 2328 
Q 3016 3291 2770 3770 
Q 2525 4250 2034 4250 
z
M 2034 4750 
Q 2819 4750 3233 4129 
Q 3647 3509 3647 2328 
Q 3647 1150 3233 529 
Q 2819 -91 2034 -91 
Q 1250 -91 836 529 
Q 422 1150 422 2328 
Q 422 3509 836 4129 
Q 1250 4750 2034 4750 
z
" transform="scale(0.015625)"/>
       </defs>
       <use xlink:href="#DejaVuSans-30"/>
      </g>
     </g>
    </g>
    <g id="xtick_2">
     <g id="line2d_4">
      <path d="M 124.252274 253.08 
L 124.252274 3.6 
" clip-path="url(#pc305135967)" style="fill: none; stroke: #b0b0b0; stroke-width: 0.5; stroke-linecap: square"/>
     </g>
     <g id="line2d_5">
      <g>
       <use xlink:href="#mf005627f49" x="124.252274" y="253.08" style="stroke: #000000; stroke-width: 0.5"/>
      </g>
     </g>
     <g id="line2d_6">
      <g>
       <use xlink:href="#m37c921cf5b" x="124.252274" y="3.6" style="stroke: #000000; stroke-width: 0.5"/>
      </g>
     </g>
     <g id="text_2">
      <!-- 100 -->
      <g transform="translate(112.799774 265.698125) scale(0.12 -0.12)">
       <defs>
        <path id="DejaVuSans-31" d="M 794 531 
L 1825 531 
L 1825 4091 
L 703 3866 
L 703 4441 
L 1819 4666 
L 2450 4666 
L 2450 531 
L 3481 531 
L 3481 0 
L 794 0 
L 794 531 
z
" transform="scale(0.015625)"/>
       </defs>
       <use xlink:href="#DejaVuSans-31"/>
       <use xlink:href="#DejaVuSans-30" x="63.623047"/>
       <use xlink:href="#DejaVuSans-30" x="127.246094"/>
      </g>
     </g>
    </g>
    <g id="xtick_3">
     <g id="line2d_7">
      <path d="M 185.24699 253.08 
L 185.24699 3.6 
" clip-path="url(#pc305135967)" style="fill: none; stroke: #b0b0b0; stroke-width: 0.5; stroke-linecap: square"/>
     </g>
     <g id="line2d_8">
      <g>
       <use xlink:href="#mf005627f49" x="185.24699" y="253.08" style="stroke: #000000; stroke-width: 0.5"/>
      </g>
     </g>
     <g id="line2d_9">
      <g>
       <use xlink:href="#m37c921cf5b" x="185.24699" y="3.6" style="stroke: #000000; stroke-width: 0.5"/>
      </g>
     </g>
     <g id="text_3">
      <!-- 200 -->
      <g transform="translate(173.79449 265.698125) scale(0.12 -0.12)">
       <defs>
        <path id="DejaVuSans-32" d="M 1228 531 
L 3431 531 
L 3431 0 
L 469 0 
L 469 531 
Q 828 903 1448 1529 
Q 2069 2156 2228 2338 
Q 2531 2678 2651 2914 
Q 2772 3150 2772 3378 
Q 2772 3750 2511 3984 
Q 2250 4219 1831 4219 
Q 1534 4219 1204 4116 
Q 875 4013 500 3803 
L 500 4441 
Q 881 4594 1212 4672 
Q 1544 4750 1819 4750 
Q 2544 4750 2975 4387 
Q 3406 4025 3406 3419 
Q 3406 3131 3298 2873 
Q 3191 2616 2906 2266 
Q 2828 2175 2409 1742 
Q 1991 1309 1228 531 
z
" transform="scale(0.015625)"/>
       </defs>
       <use xlink:href="#DejaVuSans-32"/>
       <use xlink:href="#DejaVuSans-30" x="63.623047"/>
       <use xlink:href="#DejaVuSans-30" x="127.246094"/>
      </g>
     </g>
    </g>
    <g id="xtick_4">
     <g id="line2d_10">
      <path d="M 246.241707 253.08 
L 246.241707 3.6 
" clip-path="url(#pc305135967)" style="fill: none; stroke: #b0b0b0; stroke-width: 0.5; stroke-linecap: square"/>
     </g>
     <g id="line2d_11">
      <g>
       <use xlink:href="#mf005627f49" x="246.241707" y="253.08" style="stroke: #000000; stroke-width: 0.5"/>
      </g>
     </g>
     <g id="line2d_12">
      <g>
       <use xlink:href="#m37c921cf5b" x="246.241707" y="3.6" style="stroke: #000000; stroke-width: 0.5"/>
      </g>
     </g>
     <g id="text_4">
      <!-- 300 -->
      <g transform="translate(234.789207 265.698125) scale(0.12 -0.12)">
       <defs>
        <path id="DejaVuSans-33" d="M 2597 2516 
Q 3050 2419 3304 2112 
Q 3559 1806 3559 1356 
Q 3559 666 3084 287 
Q 2609 -91 1734 -91 
Q 1441 -91 1130 -33 
Q 819 25 488 141 
L 488 750 
Q 750 597 1062 519 
Q 1375 441 1716 441 
Q 2309 441 2620 675 
Q 2931 909 2931 1356 
Q 2931 1769 2642 2001 
Q 2353 2234 1838 2234 
L 1294 2234 
L 1294 2753 
L 1863 2753 
Q 2328 2753 2575 2939 
Q 2822 3125 2822 3475 
Q 2822 3834 2567 4026 
Q 2313 4219 1838 4219 
Q 1578 4219 1281 4162 
Q 984 4106 628 3988 
L 628 4550 
Q 988 4650 1302 4700 
Q 1616 4750 1894 4750 
Q 2613 4750 3031 4423 
Q 3450 4097 3450 3541 
Q 3450 3153 3228 2886 
Q 3006 2619 2597 2516 
z
" transform="scale(0.015625)"/>
       </defs>
       <use xlink:href="#DejaVuSans-33"/>
       <use xlink:href="#DejaVuSans-30" x="63.623047"/>
       <use xlink:href="#DejaVuSans-30" x="127.246094"/>
      </g>
     </g>
    </g>
    <g id="xtick_5">
     <g id="line2d_13">
      <path d="M 307.236424 253.08 
L 307.236424 3.6 
" clip-path="url(#pc305135967)" style="fill: none; stroke: #b0b0b0; stroke-width: 0.5; stroke-linecap: square"/>
     </g>
     <g id="line2d_14">
      <g>
       <use xlink:href="#mf005627f49" x="307.236424" y="253.08" style="stroke: #000000; stroke-width: 0.5"/>
      </g>
     </g>
     <g id="line2d_15">
      <g>
       <use xlink:href="#m37c921cf5b" x="307.236424" y="3.6" style="stroke: #000000; stroke-width: 0.5"/>
      </g>
     </g>
     <g id="text_5">
      <!-- 400 -->
      <g transform="translate(295.783924 265.698125) scale(0.12 -0.12)">
       <defs>
        <path id="DejaVuSans-34" d="M 2419 4116 
L 825 1625 
L 2419 1625 
L 2419 4116 
z
M 2253 4666 
L 3047 4666 
L 3047 1625 
L 3713 1625 
L 3713 1100 
L 3047 1100 
L 3047 0 
L 2419 0 
L 2419 1100 
L 313 1100 
L 313 1709 
L 2253 4666 
z
" transform="scale(0.015625)"/>
       </defs>
       <use xlink:href="#DejaVuSans-34"/>
       <use xlink:href="#DejaVuSans-30" x="63.623047"/>
       <use xlink:href="#DejaVuSans-30" x="127.246094"/>
      </g>
     </g>
    </g>
    <g id="xtick_6">
     <g id="line2d_16">
      <path d="M 368.23114 253.08 
L 368.23114 3.6 
" clip-path="url(#pc305135967)" style="fill: none; stroke: #b0b0b0; stroke-width: 0.5; stroke-linecap: square"/>
     </g>
     <g id="line2d_17">
      <g>
       <use xlink:href="#mf005627f49" x="368.23114" y="253.08" style="stroke: #000000; stroke-width: 0.5"/>
      </g>
     </g>
     <g id="line2d_18">
      <g>
       <use xlink:href="#m37c921cf5b" x="368.23114" y="3.6" style="stroke: #000000; stroke-width: 0.5"/>
      </g>
     </g>
     <g id="text_6">
      <!-- 500 -->
      <g transform="translate(356.77864 265.698125) scale(0.12 -0.12)">
       <defs>
        <path id="DejaVuSans-35" d="M 691 4666 
L 3169 4666 
L 3169 4134 
L 1269 4134 
L 1269 2991 
Q 1406 3038 1543 3061 
Q 1681 3084 1819 3084 
Q 2600 3084 3056 2656 
Q 3513 2228 3513 1497 
Q 3513 744 3044 326 
Q 2575 -91 1722 -91 
Q 1428 -91 1123 -41 
Q 819 9 494 109 
L 494 744 
Q 775 591 1075 516 
Q 1375 441 1709 441 
Q 2250 441 2565 725 
Q 2881 1009 2881 1497 
Q 2881 1984 2565 2268 
Q 2250 2553 1709 2553 
Q 1456 2553 1204 2497 
Q 953 2441 691 2322 
L 691 4666 
z
" transform="scale(0.015625)"/>
       </defs>
       <use xlink:href="#DejaVuSans-35"/>
       <use xlink:href="#DejaVuSans-30" x="63.623047"/>
       <use xlink:href="#DejaVuSans-30" x="127.246094"/>
      </g>
     </g>
    </g>
    <g id="xtick_7">
     <g id="line2d_19">
      <defs>
       <path id="mb56d12c77b" d="M 0 0 
L 0 -1.5 
" style="stroke: #000000; stroke-width: 0.5"/>
      </defs>
      <g>
       <use xlink:href="#mb56d12c77b" x="51.058613" y="253.08" style="stroke: #000000; stroke-width: 0.5"/>
      </g>
     </g>
     <g id="line2d_20">
      <defs>
       <path id="m98dec8f797" d="M 0 0 
L 0 1.5 
" style="stroke: #000000; stroke-width: 0.5"/>
      </defs>
      <g>
       <use xlink:href="#m98dec8f797" x="51.058613" y="3.6" style="stroke: #000000; stroke-width: 0.5"/>
      </g>
     </g>
    </g>
    <g id="xtick_8">
     <g id="line2d_21">
      <g>
       <use xlink:href="#mb56d12c77b" x="75.4565" y="253.08" style="stroke: #000000; stroke-width: 0.5"/>
      </g>
     </g>
     <g id="line2d_22">
      <g>
       <use xlink:href="#m98dec8f797" x="75.4565" y="3.6" style="stroke: #000000; stroke-width: 0.5"/>
      </g>
     </g>
    </g>
    <g id="xtick_9">
     <g id="line2d_23">
      <g>
       <use xlink:href="#mb56d12c77b" x="87.655444" y="253.08" style="stroke: #000000; stroke-width: 0.5"/>
      </g>
     </g>
     <g id="line2d_24">
      <g>
       <use xlink:href="#m98dec8f797" x="87.655444" y="3.6" style="stroke: #000000; stroke-width: 0.5"/>
      </g>
     </g>
    </g>
    <g id="xtick_10">
     <g id="line2d_25">
      <g>
       <use xlink:href="#mb56d12c77b" x="99.854387" y="253.08" style="stroke: #000000; stroke-width: 0.5"/>
      </g>
     </g>
     <g id="line2d_26">
      <g>
       <use xlink:href="#m98dec8f797" x="99.854387" y="3.6" style="stroke: #000000; stroke-width: 0.5"/>
      </g>
     </g>
    </g>
    <g id="xtick_11">
     <g id="line2d_27">
      <g>
       <use xlink:href="#mb56d12c77b" x="112.05333" y="253.08" style="stroke: #000000; stroke-width: 0.5"/>
      </g>
     </g>
     <g id="line2d_28">
      <g>
       <use xlink:href="#m98dec8f797" x="112.05333" y="3.6" style="stroke: #000000; stroke-width: 0.5"/>
      </g>
     </g>
    </g>
    <g id="xtick_12">
     <g id="line2d_29">
      <g>
       <use xlink:href="#mb56d12c77b" x="136.451217" y="253.08" style="stroke: #000000; stroke-width: 0.5"/>
      </g>
     </g>
     <g id="line2d_30">
      <g>
       <use xlink:href="#m98dec8f797" x="136.451217" y="3.6" style="stroke: #000000; stroke-width: 0.5"/>
      </g>
     </g>
    </g>
    <g id="xtick_13">
     <g id="line2d_31">
      <g>
       <use xlink:href="#mb56d12c77b" x="148.65016" y="253.08" style="stroke: #000000; stroke-width: 0.5"/>
      </g>
     </g>
     <g id="line2d_32">
      <g>
       <use xlink:href="#m98dec8f797" x="148.65016" y="3.6" style="stroke: #000000; stroke-width: 0.5"/>
      </g>
     </g>
    </g>
    <g id="xtick_14">
     <g id="line2d_33">
      <g>
       <use xlink:href="#mb56d12c77b" x="160.849104" y="253.08" style="stroke: #000000; stroke-width: 0.5"/>
      </g>
     </g>
     <g id="line2d_34">
      <g>
       <use xlink:href="#m98dec8f797" x="160.849104" y="3.6" style="stroke: #000000; stroke-width: 0.5"/>
      </g>
     </g>
    </g>
    <g id="xtick_15">
     <g id="line2d_35">
      <g>
       <use xlink:href="#mb56d12c77b" x="173.048047" y="253.08" style="stroke: #000000; stroke-width: 0.5"/>
      </g>
     </g>
     <g id="line2d_36">
      <g>
       <use xlink:href="#m98dec8f797" x="173.048047" y="3.6" style="stroke: #000000; stroke-width: 0.5"/>
      </g>
     </g>
    </g>
    <g id="xtick_16">
     <g id="line2d_37">
      <g>
       <use xlink:href="#mb56d12c77b" x="197.445934" y="253.08" style="stroke: #000000; stroke-width: 0.5"/>
      </g>
     </g>
     <g id="line2d_38">
      <g>
       <use xlink:href="#m98dec8f797" x="197.445934" y="3.6" style="stroke: #000000; stroke-width: 0.5"/>
      </g>
     </g>
    </g>
    <g id="xtick_17">
     <g id="line2d_39">
      <g>
       <use xlink:href="#mb56d12c77b" x="209.644877" y="253.08" style="stroke: #000000; stroke-width: 0.5"/>
      </g>
     </g>
     <g id="line2d_40">
      <g>
       <use xlink:href="#m98dec8f797" x="209.644877" y="3.6" style="stroke: #000000; stroke-width: 0.5"/>
      </g>
     </g>
    </g>
    <g id="xtick_18">
     <g id="line2d_41">
      <g>
       <use xlink:href="#mb56d12c77b" x="221.84382" y="253.08" style="stroke: #000000; stroke-width: 0.5"/>
      </g>
     </g>
     <g id="line2d_42">
      <g>
       <use xlink:href="#m98dec8f797" x="221.84382" y="3.6" style="stroke: #000000; stroke-width: 0.5"/>
      </g>
     </g>
    </g>
    <g id="xtick_19">
     <g id="line2d_43">
      <g>
       <use xlink:href="#mb56d12c77b" x="234.042764" y="253.08" style="stroke: #000000; stroke-width: 0.5"/>
      </g>
     </g>
     <g id="line2d_44">
      <g>
       <use xlink:href="#m98dec8f797" x="234.042764" y="3.6" style="stroke: #000000; stroke-width: 0.5"/>
      </g>
     </g>
    </g>
    <g id="xtick_20">
     <g id="line2d_45">
      <g>
       <use xlink:href="#mb56d12c77b" x="258.44065" y="253.08" style="stroke: #000000; stroke-width: 0.5"/>
      </g>
     </g>
     <g id="line2d_46">
      <g>
       <use xlink:href="#m98dec8f797" x="258.44065" y="3.6" style="stroke: #000000; stroke-width: 0.5"/>
      </g>
     </g>
    </g>
    <g id="xtick_21">
     <g id="line2d_47">
      <g>
       <use xlink:href="#mb56d12c77b" x="270.639594" y="253.08" style="stroke: #000000; stroke-width: 0.5"/>
      </g>
     </g>
     <g id="line2d_48">
      <g>
       <use xlink:href="#m98dec8f797" x="270.639594" y="3.6" style="stroke: #000000; stroke-width: 0.5"/>
      </g>
     </g>
    </g>
    <g id="xtick_22">
     <g id="line2d_49">
      <g>
       <use xlink:href="#mb56d12c77b" x="282.838537" y="253.08" style="stroke: #000000; stroke-width: 0.5"/>
      </g>
     </g>
     <g id="line2d_50">
      <g>
       <use xlink:href="#m98dec8f797" x="282.838537" y="3.6" style="stroke: #000000; stroke-width: 0.5"/>
      </g>
     </g>
    </g>
    <g id="xtick_23">
     <g id="line2d_51">
      <g>
       <use xlink:href="#mb56d12c77b" x="295.03748" y="253.08" style="stroke: #000000; stroke-width: 0.5"/>
      </g>
     </g>
     <g id="line2d_52">
      <g>
       <use xlink:href="#m98dec8f797" x="295.03748" y="3.6" style="stroke: #000000; stroke-width: 0.5"/>
      </g>
     </g>
    </g>
    <g id="xtick_24">
     <g id="line2d_53">
      <g>
       <use xlink:href="#mb56d12c77b" x="319.435367" y="253.08" style="stroke: #000000; stroke-width: 0.5"/>
      </g>
     </g>
     <g id="line2d_54">
      <g>
       <use xlink:href="#m98dec8f797" x="319.435367" y="3.6" style="stroke: #000000; stroke-width: 0.5"/>
      </g>
     </g>
    </g>
    <g id="xtick_25">
     <g id="line2d_55">
      <g>
       <use xlink:href="#mb56d12c77b" x="331.63431" y="253.08" style="stroke: #000000; stroke-width: 0.5"/>
      </g>
     </g>
     <g id="line2d_56">
      <g>
       <use xlink:href="#m98dec8f797" x="331.63431" y="3.6" style="stroke: #000000; stroke-width: 0.5"/>
      </g>
     </g>
    </g>
    <g id="xtick_26">
     <g id="line2d_57">
      <g>
       <use xlink:href="#mb56d12c77b" x="343.833254" y="253.08" style="stroke: #000000; stroke-width: 0.5"/>
      </g>
     </g>
     <g id="line2d_58">
      <g>
       <use xlink:href="#m98dec8f797" x="343.833254" y="3.6" style="stroke: #000000; stroke-width: 0.5"/>
      </g>
     </g>
    </g>
    <g id="xtick_27">
     <g id="line2d_59">
      <g>
       <use xlink:href="#mb56d12c77b" x="356.032197" y="253.08" style="stroke: #000000; stroke-width: 0.5"/>
      </g>
     </g>
     <g id="line2d_60">
      <g>
       <use xlink:href="#m98dec8f797" x="356.032197" y="3.6" style="stroke: #000000; stroke-width: 0.5"/>
      </g>
     </g>
    </g>
    <g id="xtick_28">
     <g id="line2d_61">
      <g>
       <use xlink:href="#mb56d12c77b" x="380.430084" y="253.08" style="stroke: #000000; stroke-width: 0.5"/>
      </g>
     </g>
     <g id="line2d_62">
      <g>
       <use xlink:href="#m98dec8f797" x="380.430084" y="3.6" style="stroke: #000000; stroke-width: 0.5"/>
      </g>
     </g>
    </g>
    <g id="text_7">
     <!-- Generations -->
     <g transform="translate(178.842188 281.311875) scale(0.12 -0.12)">
      <defs>
       <path id="DejaVuSans-47" d="M 3809 666 
L 3809 1919 
L 2778 1919 
L 2778 2438 
L 4434 2438 
L 4434 434 
Q 4069 175 3628 42 
Q 3188 -91 2688 -91 
Q 1594 -91 976 548 
Q 359 1188 359 2328 
Q 359 3472 976 4111 
Q 1594 4750 2688 4750 
Q 3144 4750 3555 4637 
Q 3966 4525 4313 4306 
L 4313 3634 
Q 3963 3931 3569 4081 
Q 3175 4231 2741 4231 
Q 1884 4231 1454 3753 
Q 1025 3275 1025 2328 
Q 1025 1384 1454 906 
Q 1884 428 2741 428 
Q 3075 428 3337 486 
Q 3600 544 3809 666 
z
" transform="scale(0.015625)"/>
       <path id="DejaVuSans-65" d="M 3597 1894 
L 3597 1613 
L 953 1613 
Q 991 1019 1311 708 
Q 1631 397 2203 397 
Q 2534 397 2845 478 
Q 3156 559 3463 722 
L 3463 178 
Q 3153 47 2828 -22 
Q 2503 -91 2169 -91 
Q 1331 -91 842 396 
Q 353 884 353 1716 
Q 353 2575 817 3079 
Q 1281 3584 2069 3584 
Q 2775 3584 3186 3129 
Q 3597 2675 3597 1894 
z
M 3022 2063 
Q 3016 2534 2758 2815 
Q 2500 3097 2075 3097 
Q 1594 3097 1305 2825 
Q 1016 2553 972 2059 
L 3022 2063 
z
" transform="scale(0.015625)"/>
       <path id="DejaVuSans-6e" d="M 3513 2113 
L 3513 0 
L 2938 0 
L 2938 2094 
Q 2938 2591 2744 2837 
Q 2550 3084 2163 3084 
Q 1697 3084 1428 2787 
Q 1159 2491 1159 1978 
L 1159 0 
L 581 0 
L 581 3500 
L 1159 3500 
L 1159 2956 
Q 1366 3272 1645 3428 
Q 1925 3584 2291 3584 
Q 2894 3584 3203 3211 
Q 3513 2838 3513 2113 
z
" transform="scale(0.015625)"/>
       <path id="DejaVuSans-72" d="M 2631 2963 
Q 2534 3019 2420 3045 
Q 2306 3072 2169 3072 
Q 1681 3072 1420 2755 
Q 1159 2438 1159 1844 
L 1159 0 
L 581 0 
L 581 3500 
L 1159 3500 
L 1159 2956 
Q 1341 3275 1631 3429 
Q 1922 3584 2338 3584 
Q 2397 3584 2469 3576 
Q 2541 3569 2628 3553 
L 2631 2963 
z
" transform="scale(0.015625)"/>
       <path id="DejaVuSans-61" d="M 2194 1759 
Q 1497 1759 1228 1600 
Q 959 1441 959 1056 
Q 959 750 1161 570 
Q 1363 391 1709 391 
Q 2188 391 2477 730 
Q 2766 1069 2766 1631 
L 2766 1759 
L 2194 1759 
z
M 3341 1997 
L 3341 0 
L 2766 0 
L 2766 531 
Q 2569 213 2275 61 
Q 1981 -91 1556 -91 
Q 1019 -91 701 211 
Q 384 513 384 1019 
Q 384 1609 779 1909 
Q 1175 2209 1959 2209 
L 2766 2209 
L 2766 2266 
Q 2766 2663 2505 2880 
Q 2244 3097 1772 3097 
Q 1472 3097 1187 3025 
Q 903 2953 641 2809 
L 641 3341 
Q 956 3463 1253 3523 
Q 1550 3584 1831 3584 
Q 2591 3584 2966 3190 
Q 3341 2797 3341 1997 
z
" transform="scale(0.015625)"/>
       <path id="DejaVuSans-74" d="M 1172 4494 
L 1172 3500 
L 2356 3500 
L 2356 3053 
L 1172 3053 
L 1172 1153 
Q 1172 725 1289 603 
Q 1406 481 1766 481 
L 2356 481 
L 2356 0 
L 1766 0 
Q 1100 0 847 248 
Q 594 497 594 1153 
L 594 3053 
L 172 3053 
L 172 3500 
L 594 3500 
L 594 4494 
L 1172 4494 
z
" transform="scale(0.015625)"/>
       <path id="DejaVuSans-69" d="M 603 3500 
L 1178 3500 
L 1178 0 
L 603 0 
L 603 3500 
z
M 603 4863 
L 1178 4863 
L 1178 4134 
L 603 4134 
L 603 4863 
z
" transform="scale(0.015625)"/>
       <path id="DejaVuSans-6f" d="M 1959 3097 
Q 1497 3097 1228 2736 
Q 959 2375 959 1747 
Q 959 1119 1226 758 
Q 1494 397 1959 397 
Q 2419 397 2687 759 
Q 2956 1122 2956 1747 
Q 2956 2369 2687 2733 
Q 2419 3097 1959 3097 
z
M 1959 3584 
Q 2709 3584 3137 3096 
Q 3566 2609 3566 1747 
Q 3566 888 3137 398 
Q 2709 -91 1959 -91 
Q 1206 -91 779 398 
Q 353 888 353 1747 
Q 353 2609 779 3096 
Q 1206 3584 1959 3584 
z
" transform="scale(0.015625)"/>
       <path id="DejaVuSans-73" d="M 2834 3397 
L 2834 2853 
Q 2591 2978 2328 3040 
Q 2066 3103 1784 3103 
Q 1356 3103 1142 2972 
Q 928 2841 928 2578 
Q 928 2378 1081 2264 
Q 1234 2150 1697 2047 
L 1894 2003 
Q 2506 1872 2764 1633 
Q 3022 1394 3022 966 
Q 3022 478 2636 193 
Q 2250 -91 1575 -91 
Q 1294 -91 989 -36 
Q 684 19 347 128 
L 347 722 
Q 666 556 975 473 
Q 1284 391 1588 391 
Q 1994 391 2212 530 
Q 2431 669 2431 922 
Q 2431 1156 2273 1281 
Q 2116 1406 1581 1522 
L 1381 1569 
Q 847 1681 609 1914 
Q 372 2147 372 2553 
Q 372 3047 722 3315 
Q 1072 3584 1716 3584 
Q 2034 3584 2315 3537 
Q 2597 3491 2834 3397 
z
" transform="scale(0.015625)"/>
      </defs>
      <use xlink:href="#DejaVuSans-47"/>
      <use xlink:href="#DejaVuSans-65" x="77.490234"/>
      <use xlink:href="#DejaVuSans-6e" x="139.013672"/>
      <use xlink:href="#DejaVuSans-65" x="202.392578"/>
      <use xlink:href="#DejaVuSans-72" x="263.916016"/>
      <use xlink:href="#DejaVuSans-61" x="305.029297"/>
      <use xlink:href="#DejaVuSans-74" x="366.308594"/>
      <use xlink:href="#DejaVuSans-69" x="405.517578"/>
      <use xlink:href="#DejaVuSans-6f" x="433.300781"/>
      <use xlink:href="#DejaVuSans-6e" x="494.482422"/>
      <use xlink:href="#DejaVuSans-73" x="557.861328"/>
     </g>
    </g>
   </g>
   <g id="matplotlib.axis_2">
    <g id="ytick_1">
     <g id="line2d_63">
      <path d="M 48.039375 244.002365 
L 382.839375 244.002365 
" clip-path="url(#pc305135967)" style="fill: none; stroke: #b0b0b0; stroke-width: 0.5; stroke-linecap: square"/>
     </g>
     <g id="line2d_64">
      <defs>
       <path id="m1d75086a0d" d="M 0 0 
L 3 0 
" style="stroke: #000000; stroke-width: 0.5"/>
      </defs>
      <g>
       <use xlink:href="#m1d75086a0d" x="48.039375" y="244.002365" style="stroke: #000000; stroke-width: 0.5"/>
      </g>
     </g>
     <g id="line2d_65">
      <defs>
       <path id="m4225b565d1" d="M 0 0 
L -3 0 
" style="stroke: #000000; stroke-width: 0.5"/>
      </defs>
      <g>
       <use xlink:href="#m4225b565d1" x="382.839375" y="244.002365" style="stroke: #000000; stroke-width: 0.5"/>
      </g>
     </g>
     <g id="text_8">
      <!-- −80 -->
      <g transform="translate(19.21375 248.561427) scale(0.12 -0.12)">
       <defs>
        <path id="DejaVuSans-2212" d="M 678 2272 
L 4684 2272 
L 4684 1741 
L 678 1741 
L 678 2272 
z
" transform="scale(0.015625)"/>
        <path id="DejaVuSans-38" d="M 2034 2216 
Q 1584 2216 1326 1975 
Q 1069 1734 1069 1313 
Q 1069 891 1326 650 
Q 1584 409 2034 409 
Q 2484 409 2743 651 
Q 3003 894 3003 1313 
Q 3003 1734 2745 1975 
Q 2488 2216 2034 2216 
z
M 1403 2484 
Q 997 2584 770 2862 
Q 544 3141 544 3541 
Q 544 4100 942 4425 
Q 1341 4750 2034 4750 
Q 2731 4750 3128 4425 
Q 3525 4100 3525 3541 
Q 3525 3141 3298 2862 
Q 3072 2584 2669 2484 
Q 3125 2378 3379 2068 
Q 3634 1759 3634 1313 
Q 3634 634 3220 271 
Q 2806 -91 2034 -91 
Q 1263 -91 848 271 
Q 434 634 434 1313 
Q 434 1759 690 2068 
Q 947 2378 1403 2484 
z
M 1172 3481 
Q 1172 3119 1398 2916 
Q 1625 2713 2034 2713 
Q 2441 2713 2670 2916 
Q 2900 3119 2900 3481 
Q 2900 3844 2670 4047 
Q 2441 4250 2034 4250 
Q 1625 4250 1398 4047 
Q 1172 3844 1172 3481 
z
" transform="scale(0.015625)"/>
       </defs>
       <use xlink:href="#DejaVuSans-2212"/>
       <use xlink:href="#DejaVuSans-38" x="83.789062"/>
       <use xlink:href="#DejaVuSans-30" x="147.412109"/>
      </g>
     </g>
    </g>
    <g id="ytick_2">
     <g id="line2d_66">
      <path d="M 48.039375 199.754772 
L 382.839375 199.754772 
" clip-path="url(#pc305135967)" style="fill: none; stroke: #b0b0b0; stroke-width: 0.5; stroke-linecap: square"/>
     </g>
     <g id="line2d_67">
      <g>
       <use xlink:href="#m1d75086a0d" x="48.039375" y="199.754772" style="stroke: #000000; stroke-width: 0.5"/>
      </g>
     </g>
     <g id="line2d_68">
      <g>
       <use xlink:href="#m4225b565d1" x="382.839375" y="199.754772" style="stroke: #000000; stroke-width: 0.5"/>
      </g>
     </g>
     <g id="text_9">
      <!-- −60 -->
      <g transform="translate(19.21375 204.313834) scale(0.12 -0.12)">
       <defs>
        <path id="DejaVuSans-36" d="M 2113 2584 
Q 1688 2584 1439 2293 
Q 1191 2003 1191 1497 
Q 1191 994 1439 701 
Q 1688 409 2113 409 
Q 2538 409 2786 701 
Q 3034 994 3034 1497 
Q 3034 2003 2786 2293 
Q 2538 2584 2113 2584 
z
M 3366 4563 
L 3366 3988 
Q 3128 4100 2886 4159 
Q 2644 4219 2406 4219 
Q 1781 4219 1451 3797 
Q 1122 3375 1075 2522 
Q 1259 2794 1537 2939 
Q 1816 3084 2150 3084 
Q 2853 3084 3261 2657 
Q 3669 2231 3669 1497 
Q 3669 778 3244 343 
Q 2819 -91 2113 -91 
Q 1303 -91 875 529 
Q 447 1150 447 2328 
Q 447 3434 972 4092 
Q 1497 4750 2381 4750 
Q 2619 4750 2861 4703 
Q 3103 4656 3366 4563 
z
" transform="scale(0.015625)"/>
       </defs>
       <use xlink:href="#DejaVuSans-2212"/>
       <use xlink:href="#DejaVuSans-36" x="83.789062"/>
       <use xlink:href="#DejaVuSans-30" x="147.412109"/>
      </g>
     </g>
    </g>
    <g id="ytick_3">
     <g id="line2d_69">
      <path d="M 48.039375 155.507179 
L 382.839375 155.507179 
" clip-path="url(#pc305135967)" style="fill: none; stroke: #b0b0b0; stroke-width: 0.5; stroke-linecap: square"/>
     </g>
     <g id="line2d_70">
      <g>
       <use xlink:href="#m1d75086a0d" x="48.039375" y="155.507179" style="stroke: #000000; stroke-width: 0.5"/>
      </g>
     </g>
     <g id="line2d_71">
      <g>
       <use xlink:href="#m4225b565d1" x="382.839375" y="155.507179" style="stroke: #000000; stroke-width: 0.5"/>
      </g>
     </g>
     <g id="text_10">
      <!-- −40 -->
      <g transform="translate(19.21375 160.066241) scale(0.12 -0.12)">
       <use xlink:href="#DejaVuSans-2212"/>
       <use xlink:href="#DejaVuSans-34" x="83.789062"/>
       <use xlink:href="#DejaVuSans-30" x="147.412109"/>
      </g>
     </g>
    </g>
    <g id="ytick_4">
     <g id="line2d_72">
      <path d="M 48.039375 111.259585 
L 382.839375 111.259585 
" clip-path="url(#pc305135967)" style="fill: none; stroke: #b0b0b0; stroke-width: 0.5; stroke-linecap: square"/>
     </g>
     <g id="line2d_73">
      <g>
       <use xlink:href="#m1d75086a0d" x="48.039375" y="111.259585" style="stroke: #000000; stroke-width: 0.5"/>
      </g>
     </g>
     <g id="line2d_74">
      <g>
       <use xlink:href="#m4225b565d1" x="382.839375" y="111.259585" style="stroke: #000000; stroke-width: 0.5"/>
      </g>
     </g>
     <g id="text_11">
      <!-- −20 -->
      <g transform="translate(19.21375 115.818648) scale(0.12 -0.12)">
       <use xlink:href="#DejaVuSans-2212"/>
       <use xlink:href="#DejaVuSans-32" x="83.789062"/>
       <use xlink:href="#DejaVuSans-30" x="147.412109"/>
      </g>
     </g>
    </g>
    <g id="ytick_5">
     <g id="line2d_75">
      <path d="M 48.039375 67.011992 
L 382.839375 67.011992 
" clip-path="url(#pc305135967)" style="fill: none; stroke: #b0b0b0; stroke-width: 0.5; stroke-linecap: square"/>
     </g>
     <g id="line2d_76">
      <g>
       <use xlink:href="#m1d75086a0d" x="48.039375" y="67.011992" style="stroke: #000000; stroke-width: 0.5"/>
      </g>
     </g>
     <g id="line2d_77">
      <g>
       <use xlink:href="#m4225b565d1" x="382.839375" y="67.011992" style="stroke: #000000; stroke-width: 0.5"/>
      </g>
     </g>
     <g id="text_12">
      <!-- 0 -->
      <g transform="translate(36.904375 71.571055) scale(0.12 -0.12)">
       <use xlink:href="#DejaVuSans-30"/>
      </g>
     </g>
    </g>
    <g id="ytick_6">
     <g id="line2d_78">
      <path d="M 48.039375 22.764399 
L 382.839375 22.764399 
" clip-path="url(#pc305135967)" style="fill: none; stroke: #b0b0b0; stroke-width: 0.5; stroke-linecap: square"/>
     </g>
     <g id="line2d_79">
      <g>
       <use xlink:href="#m1d75086a0d" x="48.039375" y="22.764399" style="stroke: #000000; stroke-width: 0.5"/>
      </g>
     </g>
     <g id="line2d_80">
      <g>
       <use xlink:href="#m4225b565d1" x="382.839375" y="22.764399" style="stroke: #000000; stroke-width: 0.5"/>
      </g>
     </g>
     <g id="text_13">
      <!-- 20 -->
      <g transform="translate(29.269375 27.323461) scale(0.12 -0.12)">
       <use xlink:href="#DejaVuSans-32"/>
       <use xlink:href="#DejaVuSans-30" x="63.623047"/>
      </g>
     </g>
    </g>
    <g id="ytick_7">
     <g id="line2d_81">
      <defs>
       <path id="m6a0be87b48" d="M 0 0 
L 1.5 0 
" style="stroke: #000000; stroke-width: 0.5"/>
      </defs>
      <g>
       <use xlink:href="#m6a0be87b48" x="48.039375" y="232.940467" style="stroke: #000000; stroke-width: 0.5"/>
      </g>
     </g>
     <g id="line2d_82">
      <defs>
       <path id="m07cddabb54" d="M 0 0 
L -1.5 0 
" style="stroke: #000000; stroke-width: 0.5"/>
      </defs>
      <g>
       <use xlink:href="#m07cddabb54" x="382.839375" y="232.940467" style="stroke: #000000; stroke-width: 0.5"/>
      </g>
     </g>
    </g>
    <g id="ytick_8">
     <g id="line2d_83">
      <g>
       <use xlink:href="#m6a0be87b48" x="48.039375" y="221.878568" style="stroke: #000000; stroke-width: 0.5"/>
      </g>
     </g>
     <g id="line2d_84">
      <g>
       <use xlink:href="#m07cddabb54" x="382.839375" y="221.878568" style="stroke: #000000; stroke-width: 0.5"/>
      </g>
     </g>
    </g>
    <g id="ytick_9">
     <g id="line2d_85">
      <g>
       <use xlink:href="#m6a0be87b48" x="48.039375" y="210.81667" style="stroke: #000000; stroke-width: 0.5"/>
      </g>
     </g>
     <g id="line2d_86">
      <g>
       <use xlink:href="#m07cddabb54" x="382.839375" y="210.81667" style="stroke: #000000; stroke-width: 0.5"/>
      </g>
     </g>
    </g>
    <g id="ytick_10">
     <g id="line2d_87">
      <g>
       <use xlink:href="#m6a0be87b48" x="48.039375" y="188.692873" style="stroke: #000000; stroke-width: 0.5"/>
      </g>
     </g>
     <g id="line2d_88">
      <g>
       <use xlink:href="#m07cddabb54" x="382.839375" y="188.692873" style="stroke: #000000; stroke-width: 0.5"/>
      </g>
     </g>
    </g>
    <g id="ytick_11">
     <g id="line2d_89">
      <g>
       <use xlink:href="#m6a0be87b48" x="48.039375" y="177.630975" style="stroke: #000000; stroke-width: 0.5"/>
      </g>
     </g>
     <g id="line2d_90">
      <g>
       <use xlink:href="#m07cddabb54" x="382.839375" y="177.630975" style="stroke: #000000; stroke-width: 0.5"/>
      </g>
     </g>
    </g>
    <g id="ytick_12">
     <g id="line2d_91">
      <g>
       <use xlink:href="#m6a0be87b48" x="48.039375" y="166.569077" style="stroke: #000000; stroke-width: 0.5"/>
      </g>
     </g>
     <g id="line2d_92">
      <g>
       <use xlink:href="#m07cddabb54" x="382.839375" y="166.569077" style="stroke: #000000; stroke-width: 0.5"/>
      </g>
     </g>
    </g>
    <g id="ytick_13">
     <g id="line2d_93">
      <g>
       <use xlink:href="#m6a0be87b48" x="48.039375" y="144.44528" style="stroke: #000000; stroke-width: 0.5"/>
      </g>
     </g>
     <g id="line2d_94">
      <g>
       <use xlink:href="#m07cddabb54" x="382.839375" y="144.44528" style="stroke: #000000; stroke-width: 0.5"/>
      </g>
     </g>
    </g>
    <g id="ytick_14">
     <g id="line2d_95">
      <g>
       <use xlink:href="#m6a0be87b48" x="48.039375" y="133.383382" style="stroke: #000000; stroke-width: 0.5"/>
      </g>
     </g>
     <g id="line2d_96">
      <g>
       <use xlink:href="#m07cddabb54" x="382.839375" y="133.383382" style="stroke: #000000; stroke-width: 0.5"/>
      </g>
     </g>
    </g>
    <g id="ytick_15">
     <g id="line2d_97">
      <g>
       <use xlink:href="#m6a0be87b48" x="48.039375" y="122.321484" style="stroke: #000000; stroke-width: 0.5"/>
      </g>
     </g>
     <g id="line2d_98">
      <g>
       <use xlink:href="#m07cddabb54" x="382.839375" y="122.321484" style="stroke: #000000; stroke-width: 0.5"/>
      </g>
     </g>
    </g>
    <g id="ytick_16">
     <g id="line2d_99">
      <g>
       <use xlink:href="#m6a0be87b48" x="48.039375" y="100.197687" style="stroke: #000000; stroke-width: 0.5"/>
      </g>
     </g>
     <g id="line2d_100">
      <g>
       <use xlink:href="#m07cddabb54" x="382.839375" y="100.197687" style="stroke: #000000; stroke-width: 0.5"/>
      </g>
     </g>
    </g>
    <g id="ytick_17">
     <g id="line2d_101">
      <g>
       <use xlink:href="#m6a0be87b48" x="48.039375" y="89.135789" style="stroke: #000000; stroke-width: 0.5"/>
      </g>
     </g>
     <g id="line2d_102">
      <g>
       <use xlink:href="#m07cddabb54" x="382.839375" y="89.135789" style="stroke: #000000; stroke-width: 0.5"/>
      </g>
     </g>
    </g>
    <g id="ytick_18">
     <g id="line2d_103">
      <g>
       <use xlink:href="#m6a0be87b48" x="48.039375" y="78.07389" style="stroke: #000000; stroke-width: 0.5"/>
      </g>
     </g>
     <g id="line2d_104">
      <g>
       <use xlink:href="#m07cddabb54" x="382.839375" y="78.07389" style="stroke: #000000; stroke-width: 0.5"/>
      </g>
     </g>
    </g>
    <g id="ytick_19">
     <g id="line2d_105">
      <g>
       <use xlink:href="#m6a0be87b48" x="48.039375" y="55.950094" style="stroke: #000000; stroke-width: 0.5"/>
      </g>
     </g>
     <g id="line2d_106">
      <g>
       <use xlink:href="#m07cddabb54" x="382.839375" y="55.950094" style="stroke: #000000; stroke-width: 0.5"/>
      </g>
     </g>
    </g>
    <g id="ytick_20">
     <g id="line2d_107">
      <g>
       <use xlink:href="#m6a0be87b48" x="48.039375" y="44.888195" style="stroke: #000000; stroke-width: 0.5"/>
      </g>
     </g>
     <g id="line2d_108">
      <g>
       <use xlink:href="#m07cddabb54" x="382.839375" y="44.888195" style="stroke: #000000; stroke-width: 0.5"/>
      </g>
     </g>
    </g>
    <g id="ytick_21">
     <g id="line2d_109">
      <g>
       <use xlink:href="#m6a0be87b48" x="48.039375" y="33.826297" style="stroke: #000000; stroke-width: 0.5"/>
      </g>
     </g>
     <g id="line2d_110">
      <g>
       <use xlink:href="#m07cddabb54" x="382.839375" y="33.826297" style="stroke: #000000; stroke-width: 0.5"/>
      </g>
     </g>
    </g>
    <g id="ytick_22">
     <g id="line2d_111">
      <g>
       <use xlink:href="#m6a0be87b48" x="48.039375" y="11.702501" style="stroke: #000000; stroke-width: 0.5"/>
      </g>
     </g>
     <g id="line2d_112">
      <g>
       <use xlink:href="#m07cddabb54" x="382.839375" y="11.702501" style="stroke: #000000; stroke-width: 0.5"/>
      </g>
     </g>
    </g>
    <g id="text_14">
     <!-- Fitness -->
     <g transform="translate(12.718125 149.120625) rotate(-90) scale(0.12 -0.12)">
      <defs>
       <path id="DejaVuSans-46" d="M 628 4666 
L 3309 4666 
L 3309 4134 
L 1259 4134 
L 1259 2759 
L 3109 2759 
L 3109 2228 
L 1259 2228 
L 1259 0 
L 628 0 
L 628 4666 
z
" transform="scale(0.015625)"/>
      </defs>
      <use xlink:href="#DejaVuSans-46"/>
      <use xlink:href="#DejaVuSans-69" x="50.269531"/>
      <use xlink:href="#DejaVuSans-74" x="78.052734"/>
      <use xlink:href="#DejaVuSans-6e" x="117.261719"/>
      <use xlink:href="#DejaVuSans-65" x="180.640625"/>
      <use xlink:href="#DejaVuSans-73" x="242.164062"/>
      <use xlink:href="#DejaVuSans-73" x="294.263672"/>
     </g>
    </g>
   </g>
   <g id="line2d_113">
    <path d="M 63.257557 37.512881 
L 63.867504 37.512647 
L 64.477451 32.784107 
L 66.91724 32.784107 
L 67.527187 32.212289 
L 71.18687 32.212291 
L 71.796817 24.955825 
L 77.286342 24.955817 
L 77.896289 22.787023 
L 79.72613 22.787023 
L 80.336077 22.653472 
L 81.555972 22.653471 
L 82.165919 22.037054 
L 82.775866 22.037074 
L 83.385813 21.616488 
L 84.605708 21.515592 
L 85.215655 21.515583 
L 85.825602 20.22841 
L 88.265391 20.2284 
L 88.875338 19.769742 
L 91.315127 19.698718 
L 91.925074 19.125511 
L 94.97481 19.125505 
L 95.584757 19.001219 
L 96.194704 18.337818 
L 98.024545 18.337801 
L 99.24444 18.136124 
L 100.464334 18.136121 
L 101.074281 17.447821 
L 103.51407 17.447804 
L 104.124017 17.32885 
L 107.7837 17.328853 
L 108.393647 17.149517 
L 109.003594 16.748726 
L 113.273225 16.542171 
L 113.883172 16.542175 
L 114.493119 15.949583 
L 116.932908 15.949581 
L 117.542855 15.622294 
L 127.302009 15.528661 
L 127.911957 15.275415 
L 130.961692 15.20581 
L 131.57164 15.031929 
L 367.621193 14.940611 
L 367.621193 14.940611 
" clip-path="url(#pc305135967)" style="fill: none; stroke: #000000; stroke-linecap: square"/>
   </g>
   <g id="line2d_114">
    <path d="M 63.257557 132.722266 
L 63.867504 113.380177 
L 64.477451 241.74 
L 65.697345 145.668974 
L 66.307293 134.631726 
L 66.91724 127.206259 
L 67.527187 113.225564 
L 68.137134 199.302523 
L 68.747081 109.088567 
L 69.357028 121.316448 
L 69.966976 101.125049 
L 70.576923 201.291817 
L 71.18687 108.911692 
L 71.796817 149.147254 
L 72.406764 123.212867 
L 73.016711 119.010173 
L 73.626659 99.913146 
L 74.236606 86.49394 
L 74.846553 92.798746 
L 75.4565 87.752138 
L 76.066447 83.739015 
L 76.676394 78.696 
L 77.286342 79.805628 
L 77.896289 99.622746 
L 78.506236 79.281117 
L 79.116183 107.510882 
L 79.72613 86.866234 
L 80.336077 76.448665 
L 80.946025 75.472606 
L 81.555972 72.35369 
L 82.165919 64.90161 
L 82.775866 54.927373 
L 83.385813 52.078119 
L 83.99576 48.298062 
L 84.605708 40.492591 
L 85.215655 38.272011 
L 85.825602 32.930578 
L 86.435549 30.922498 
L 87.045496 27.04916 
L 87.655444 24.514264 
L 88.265391 24.680422 
L 88.875338 24.431418 
L 89.485285 23.686413 
L 90.705179 24.05206 
L 91.315127 23.643063 
L 91.925074 23.611323 
L 92.535021 23.985883 
L 93.144968 24.508707 
L 93.754915 24.417314 
L 94.364862 23.849779 
L 95.584757 25.047135 
L 96.194704 28.218205 
L 96.804651 24.655052 
L 97.414598 25.28413 
L 98.024545 24.910065 
L 98.634493 23.591715 
L 99.24444 24.826157 
L 99.854387 25.05928 
L 100.464334 24.195704 
L 101.684228 24.668742 
L 102.294176 25.201295 
L 102.904123 23.962097 
L 103.51407 26.794389 
L 104.124017 25.489208 
L 104.733964 25.84566 
L 105.343911 24.956397 
L 105.953859 26.468268 
L 106.563806 25.629974 
L 107.173753 24.244593 
L 107.7837 26.985712 
L 108.393647 26.049664 
L 109.613542 26.306717 
L 110.223489 24.847411 
L 110.833436 23.810295 
L 111.443383 24.301788 
L 112.05333 25.408744 
L 112.663277 25.614838 
L 113.273225 26.440331 
L 113.883172 23.521385 
L 114.493119 23.290095 
L 115.103066 24.368748 
L 115.713013 24.659186 
L 116.32296 22.985489 
L 116.932908 24.600403 
L 117.542855 24.436294 
L 118.152802 25.49791 
L 118.762749 25.817586 
L 119.372696 24.768341 
L 119.982643 26.6704 
L 120.592591 57.339937 
L 121.202538 26.140386 
L 121.812485 25.854873 
L 122.422432 22.818373 
L 123.032379 26.289604 
L 123.642326 22.370916 
L 124.252274 23.750121 
L 124.862221 21.773926 
L 125.472168 20.969304 
L 126.082115 23.133216 
L 126.692062 23.864847 
L 127.302009 23.142055 
L 127.911957 20.556194 
L 128.521904 20.493869 
L 129.131851 21.319481 
L 129.741798 20.747049 
L 130.351745 19.671436 
L 131.57164 19.892312 
L 132.181587 20.01538 
L 132.791534 19.729721 
L 133.401481 20.074027 
L 134.011428 20.962927 
L 134.621375 20.238676 
L 135.231323 22.569056 
L 135.84127 19.564727 
L 136.451217 19.84096 
L 137.061164 21.342697 
L 137.671111 20.311291 
L 138.281058 20.055617 
L 138.891006 20.116846 
L 139.500953 19.278827 
L 140.1109 19.832541 
L 140.720847 20.091738 
L 141.330794 20.99522 
L 141.940741 19.67178 
L 142.550689 21.406344 
L 143.160636 20.321505 
L 143.770583 20.37668 
L 144.38053 20.11986 
L 144.990477 18.499745 
L 145.600424 18.833084 
L 146.210372 18.787364 
L 146.820319 19.462329 
L 147.430266 20.556086 
L 148.040213 19.455781 
L 148.65016 20.440709 
L 149.260107 20.752483 
L 149.870055 20.698981 
L 150.480002 20.011509 
L 151.699896 19.41072 
L 152.309843 20.912349 
L 152.91979 20.324213 
L 153.529738 21.875283 
L 154.139685 20.125835 
L 155.359579 22.85919 
L 156.579473 21.542932 
L 157.189421 20.352778 
L 157.799368 19.901131 
L 158.409315 19.726995 
L 159.019262 19.703888 
L 159.629209 19.077862 
L 160.239156 20.058746 
L 160.849104 18.75154 
L 161.459051 21.284883 
L 162.068998 21.079376 
L 163.288892 19.829567 
L 163.898839 22.16552 
L 164.508787 22.014883 
L 165.118734 21.158286 
L 165.728681 20.765693 
L 166.338628 20.652265 
L 166.948575 21.497177 
L 167.558522 42.936813 
L 168.16847 20.415944 
L 169.388364 20.269565 
L 169.998311 19.882129 
L 170.608258 19.977688 
L 171.218205 19.813917 
L 171.828153 20.450016 
L 172.4381 20.534897 
L 173.048047 20.308381 
L 173.657994 19.027305 
L 174.267941 19.490278 
L 174.877888 20.501061 
L 175.487836 20.349467 
L 176.097783 20.492723 
L 176.70773 21.160275 
L 177.317677 21.099209 
L 177.927624 20.921572 
L 178.537571 19.621912 
L 179.147519 19.880629 
L 179.757466 24.075083 
L 180.367413 20.91886 
L 180.97736 19.943488 
L 181.587307 19.643168 
L 182.197254 20.123741 
L 182.807202 19.62608 
L 183.417149 20.57676 
L 184.027096 21.265898 
L 185.24699 19.689891 
L 185.856937 19.09647 
L 186.466885 20.548331 
L 187.076832 20.407448 
L 188.296726 19.05303 
L 188.906673 18.991422 
L 189.51662 43.159967 
L 190.126568 21.39162 
L 190.736515 19.375549 
L 191.346462 18.683716 
L 191.956409 17.315869 
L 192.566356 18.128347 
L 193.786251 18.366967 
L 194.396198 17.612237 
L 195.006145 17.30705 
L 195.616092 18.0117 
L 196.226039 19.346682 
L 196.835986 17.37549 
L 197.445934 17.917481 
L 198.055881 18.883206 
L 198.665828 19.27663 
L 199.275775 20.333596 
L 199.885722 19.8101 
L 200.495669 19.578132 
L 201.105617 21.418173 
L 201.715564 21.174184 
L 202.325511 23.54907 
L 202.935458 19.856791 
L 203.545405 18.469881 
L 204.155352 18.070935 
L 204.7653 19.550615 
L 205.985194 17.629439 
L 206.595141 19.036081 
L 207.205088 17.262128 
L 207.815035 18.600947 
L 208.424983 18.185355 
L 209.03493 18.300755 
L 209.644877 19.393106 
L 210.254824 17.848464 
L 210.864771 17.919548 
L 211.474718 19.667941 
L 213.30456 19.673912 
L 213.914507 17.960421 
L 214.524454 18.641433 
L 215.134401 18.336575 
L 215.744349 19.564807 
L 216.354296 19.052478 
L 216.964243 18.151885 
L 217.57419 19.104911 
L 218.184137 19.826714 
L 218.794084 20.268983 
L 219.404032 20.32029 
L 220.623926 19.535567 
L 221.233873 18.790196 
L 221.84382 20.167566 
L 222.453767 20.732755 
L 223.063715 20.217418 
L 223.673662 22.92648 
L 225.503503 21.825408 
L 226.723398 18.729122 
L 227.333345 18.803661 
L 227.943292 17.854351 
L 228.553239 19.532306 
L 229.163186 20.095158 
L 229.773133 19.921589 
L 230.383081 21.772252 
L 230.993028 19.091872 
L 232.212922 22.124582 
L 232.822869 19.241666 
L 233.432816 18.806175 
L 234.042764 17.951454 
L 234.652711 17.572532 
L 235.262658 18.155539 
L 235.872605 18.536704 
L 236.482552 19.773969 
L 237.092499 20.12289 
L 237.702447 18.860113 
L 238.312394 19.403062 
L 238.922341 21.53283 
L 239.532288 22.08442 
L 240.142235 19.09191 
L 240.752182 21.913513 
L 241.36213 19.973697 
L 241.972077 21.074169 
L 242.582024 21.157306 
L 243.191971 20.693375 
L 243.801918 21.248541 
L 244.411865 20.754008 
L 245.021813 21.329178 
L 245.63176 20.182568 
L 246.851654 21.499945 
L 247.461601 22.415058 
L 248.071548 21.620412 
L 248.681496 20.385296 
L 249.291443 19.668242 
L 249.90139 20.49098 
L 250.511337 18.842053 
L 251.121284 19.459549 
L 251.731231 18.582484 
L 252.341179 19.836139 
L 252.951126 19.599234 
L 253.561073 19.997761 
L 254.17102 18.877067 
L 254.780967 19.428925 
L 255.390914 18.207213 
L 256.000862 19.201517 
L 256.610809 19.557567 
L 257.220756 20.502168 
L 257.830703 20.066914 
L 258.44065 20.819261 
L 259.050597 19.430179 
L 259.660545 19.695798 
L 260.270492 20.141726 
L 260.880439 22.887925 
L 261.490386 22.236558 
L 262.100333 23.170875 
L 262.71028 21.613778 
L 263.320228 19.740908 
L 263.930175 18.326048 
L 264.540122 18.894566 
L 265.760016 19.098155 
L 266.369963 19.15026 
L 266.979911 19.436575 
L 267.589858 18.986065 
L 268.199805 20.735746 
L 268.809752 31.692571 
L 269.419699 24.770641 
L 270.029646 24.060396 
L 270.639594 21.911306 
L 271.249541 21.121226 
L 271.859488 21.982817 
L 272.469435 23.486647 
L 273.079382 21.178383 
L 273.689329 21.813591 
L 274.299277 23.002932 
L 274.909224 21.428584 
L 275.519171 20.788765 
L 276.739065 20.602687 
L 277.349012 19.922099 
L 277.95896 19.726944 
L 278.568907 19.746887 
L 279.178854 20.969824 
L 279.788801 20.368107 
L 280.398748 21.931337 
L 281.008695 23.034134 
L 281.618643 19.982968 
L 282.22859 20.707564 
L 282.838537 20.001509 
L 283.448484 21.449918 
L 284.058431 22.558248 
L 284.668378 21.968266 
L 285.278326 18.242252 
L 285.888273 19.764688 
L 286.49822 20.052535 
L 287.108167 20.055211 
L 287.718114 18.171608 
L 288.328061 19.438292 
L 289.547956 18.939709 
L 290.157903 18.940523 
L 290.76785 20.352684 
L 291.377797 19.574273 
L 291.987744 138.454934 
L 292.597692 20.889091 
L 293.207639 19.149231 
L 293.817586 20.295095 
L 294.427533 18.681827 
L 295.03748 18.346518 
L 296.257375 19.809145 
L 296.867322 19.273092 
L 297.477269 20.469181 
L 298.087216 21.191813 
L 298.697163 19.26293 
L 299.30711 20.284591 
L 299.917058 19.443896 
L 300.527005 21.065004 
L 301.136952 21.430895 
L 301.746899 19.706044 
L 302.356846 21.342985 
L 302.966793 19.401508 
L 303.576741 20.044912 
L 304.186688 19.824911 
L 304.796635 19.481763 
L 305.406582 19.534242 
L 306.016529 20.383627 
L 306.626476 20.288377 
L 307.846371 18.398944 
L 308.456318 19.466258 
L 309.066265 19.625398 
L 309.676212 19.336913 
L 310.286159 19.354444 
L 310.896107 20.989359 
L 311.506054 19.355652 
L 312.116001 19.008682 
L 312.725948 18.86462 
L 313.335895 20.056168 
L 313.945842 20.909039 
L 314.55579 19.317285 
L 315.165737 20.031342 
L 315.775684 21.666405 
L 316.385631 20.146283 
L 316.995578 21.914604 
L 318.215473 21.489031 
L 318.82542 22.412519 
L 319.435367 22.772497 
L 320.045314 22.839569 
L 320.655261 22.416912 
L 321.265208 22.774725 
L 321.875156 21.024527 
L 323.09505 20.049286 
L 323.704997 18.965822 
L 324.314944 19.92987 
L 324.924891 20.284512 
L 325.534839 19.699502 
L 326.144786 20.666321 
L 326.754733 23.496405 
L 327.36468 20.887846 
L 327.974627 21.060306 
L 328.584574 20.946349 
L 329.194522 19.210966 
L 329.804469 21.250027 
L 331.024363 22.039857 
L 331.63431 21.706307 
L 332.244257 20.390842 
L 332.854205 21.247212 
L 333.464152 20.674007 
L 334.074099 18.036811 
L 334.684046 17.981738 
L 335.293993 19.220829 
L 335.90394 17.843104 
L 337.123835 19.794307 
L 337.733782 18.806949 
L 338.953676 20.555911 
L 340.173571 18.33358 
L 340.783518 20.993988 
L 341.393465 18.525915 
L 342.003412 19.529128 
L 342.613359 19.300329 
L 343.223306 19.314574 
L 343.833254 20.456849 
L 344.443201 20.664208 
L 345.053148 19.724046 
L 345.663095 19.246305 
L 347.492937 19.152986 
L 348.102884 19.445725 
L 348.712831 18.950955 
L 349.322778 19.686359 
L 349.932725 19.015899 
L 350.542673 19.504005 
L 351.15262 18.278634 
L 351.762567 20.064539 
L 352.372514 20.388451 
L 352.982461 20.016988 
L 354.202356 18.783665 
L 354.812303 19.15426 
L 355.42225 19.141669 
L 356.032197 19.830601 
L 356.642144 21.934094 
L 357.252091 21.472711 
L 357.862039 21.830357 
L 358.471986 20.377479 
L 359.081933 19.949811 
L 360.301827 21.543857 
L 360.911774 21.460258 
L 361.521722 20.991946 
L 362.131669 19.898633 
L 362.741616 19.523227 
L 363.351563 19.753331 
L 363.96151 20.661366 
L 364.571457 19.69715 
L 365.181405 17.684791 
L 365.791352 18.545185 
L 366.401299 19.05281 
L 367.011246 18.929565 
L 367.621193 21.030482 
L 367.621193 21.030482 
" clip-path="url(#pc305135967)" style="fill: none; stroke-dasharray: 3.7,1.6; stroke-dashoffset: 0; stroke: #000000"/>
   </g>
   <g id="patch_3">
    <path d="M 48.039375 253.08 
L 48.039375 3.6 
" style="fill: none; stroke: #000000; stroke-width: 0.5; stroke-linejoin: miter; stroke-linecap: square"/>
   </g>
   <g id="patch_4">
    <path d="M 382.839375 253.08 
L 382.839375 3.6 
" style="fill: none; stroke: #000000; stroke-width: 0.5; stroke-linejoin: miter; stroke-linecap: square"/>
   </g>
   <g id="patch_5">
    <path d="M 48.039375 253.08 
L 382.839375 253.08 
" style="fill: none; stroke: #000000; stroke-width: 0.5; stroke-linejoin: miter; stroke-linecap: square"/>
   </g>
   <g id="patch_6">
    <path d="M 48.039375 3.6 
L 382.839375 3.6 
" style="fill: none; stroke: #000000; stroke-width: 0.5; stroke-linejoin: miter; stroke-linecap: square"/>
   </g>
   <g id="legend_1">
    <g id="patch_7">
     <path d="M 256.633125 247.08 
L 374.439375 247.08 
Q 376.839375 247.08 376.839375 244.68 
L 376.839375 193.03875 
Q 376.839375 190.63875 374.439375 190.63875 
L 256.633125 190.63875 
Q 254.233125 190.63875 254.233125 193.03875 
L 254.233125 244.68 
Q 254.233125 247.08 256.633125 247.08 
z
" style="fill: #ffffff; opacity: 0.8; stroke: #cccccc; stroke-linejoin: miter"/>
    </g>
    <g id="line2d_115">
     <path d="M 259.033125 200.356875 
L 271.033125 200.356875 
L 283.033125 200.356875 
" style="fill: none; stroke: #000000; stroke-linecap: square"/>
    </g>
    <g id="text_15">
     <!-- Max fitness -->
     <g transform="translate(292.633125 204.556875) scale(0.12 -0.12)">
      <defs>
       <path id="DejaVuSans-4d" d="M 628 4666 
L 1569 4666 
L 2759 1491 
L 3956 4666 
L 4897 4666 
L 4897 0 
L 4281 0 
L 4281 4097 
L 3078 897 
L 2444 897 
L 1241 4097 
L 1241 0 
L 628 0 
L 628 4666 
z
" transform="scale(0.015625)"/>
       <path id="DejaVuSans-78" d="M 3513 3500 
L 2247 1797 
L 3578 0 
L 2900 0 
L 1881 1375 
L 863 0 
L 184 0 
L 1544 1831 
L 300 3500 
L 978 3500 
L 1906 2253 
L 2834 3500 
L 3513 3500 
z
" transform="scale(0.015625)"/>
       <path id="DejaVuSans-20" transform="scale(0.015625)"/>
       <path id="DejaVuSans-66" d="M 2375 4863 
L 2375 4384 
L 1825 4384 
Q 1516 4384 1395 4259 
Q 1275 4134 1275 3809 
L 1275 3500 
L 2222 3500 
L 2222 3053 
L 1275 3053 
L 1275 0 
L 697 0 
L 697 3053 
L 147 3053 
L 147 3500 
L 697 3500 
L 697 3744 
Q 697 4328 969 4595 
Q 1241 4863 1831 4863 
L 2375 4863 
z
" transform="scale(0.015625)"/>
      </defs>
      <use xlink:href="#DejaVuSans-4d"/>
      <use xlink:href="#DejaVuSans-61" x="86.279297"/>
      <use xlink:href="#DejaVuSans-78" x="147.558594"/>
      <use xlink:href="#DejaVuSans-20" x="206.738281"/>
      <use xlink:href="#DejaVuSans-66" x="238.525391"/>
      <use xlink:href="#DejaVuSans-69" x="273.730469"/>
      <use xlink:href="#DejaVuSans-74" x="301.513672"/>
      <use xlink:href="#DejaVuSans-6e" x="340.722656"/>
      <use xlink:href="#DejaVuSans-65" x="404.101562"/>
      <use xlink:href="#DejaVuSans-73" x="465.625"/>
      <use xlink:href="#DejaVuSans-73" x="517.724609"/>
     </g>
    </g>
    <g id="patch_8">
     <path d="M 259.033125 222.170625 
L 283.033125 222.170625 
L 283.033125 213.770625 
L 259.033125 213.770625 
z
" style="fill: #0000ff; fill-opacity: 0.2; stroke: #0000ff; stroke-opacity: 0.2; stroke-linejoin: miter"/>
    </g>
    <g id="text_16">
     <!-- Top 90% -->
     <g transform="translate(292.633125 222.170625) scale(0.12 -0.12)">
      <defs>
       <path id="DejaVuSans-54" d="M -19 4666 
L 3928 4666 
L 3928 4134 
L 2272 4134 
L 2272 0 
L 1638 0 
L 1638 4134 
L -19 4134 
L -19 4666 
z
" transform="scale(0.015625)"/>
       <path id="DejaVuSans-70" d="M 1159 525 
L 1159 -1331 
L 581 -1331 
L 581 3500 
L 1159 3500 
L 1159 2969 
Q 1341 3281 1617 3432 
Q 1894 3584 2278 3584 
Q 2916 3584 3314 3078 
Q 3713 2572 3713 1747 
Q 3713 922 3314 415 
Q 2916 -91 2278 -91 
Q 1894 -91 1617 61 
Q 1341 213 1159 525 
z
M 3116 1747 
Q 3116 2381 2855 2742 
Q 2594 3103 2138 3103 
Q 1681 3103 1420 2742 
Q 1159 2381 1159 1747 
Q 1159 1113 1420 752 
Q 1681 391 2138 391 
Q 2594 391 2855 752 
Q 3116 1113 3116 1747 
z
" transform="scale(0.015625)"/>
       <path id="DejaVuSans-39" d="M 703 97 
L 703 672 
Q 941 559 1184 500 
Q 1428 441 1663 441 
Q 2288 441 2617 861 
Q 2947 1281 2994 2138 
Q 2813 1869 2534 1725 
Q 2256 1581 1919 1581 
Q 1219 1581 811 2004 
Q 403 2428 403 3163 
Q 403 3881 828 4315 
Q 1253 4750 1959 4750 
Q 2769 4750 3195 4129 
Q 3622 3509 3622 2328 
Q 3622 1225 3098 567 
Q 2575 -91 1691 -91 
Q 1453 -91 1209 -44 
Q 966 3 703 97 
z
M 1959 2075 
Q 2384 2075 2632 2365 
Q 2881 2656 2881 3163 
Q 2881 3666 2632 3958 
Q 2384 4250 1959 4250 
Q 1534 4250 1286 3958 
Q 1038 3666 1038 3163 
Q 1038 2656 1286 2365 
Q 1534 2075 1959 2075 
z
" transform="scale(0.015625)"/>
       <path id="DejaVuSans-25" d="M 4653 2053 
Q 4381 2053 4226 1822 
Q 4072 1591 4072 1178 
Q 4072 772 4226 539 
Q 4381 306 4653 306 
Q 4919 306 5073 539 
Q 5228 772 5228 1178 
Q 5228 1588 5073 1820 
Q 4919 2053 4653 2053 
z
M 4653 2450 
Q 5147 2450 5437 2106 
Q 5728 1763 5728 1178 
Q 5728 594 5436 251 
Q 5144 -91 4653 -91 
Q 4153 -91 3862 251 
Q 3572 594 3572 1178 
Q 3572 1766 3864 2108 
Q 4156 2450 4653 2450 
z
M 1428 4353 
Q 1159 4353 1004 4120 
Q 850 3888 850 3481 
Q 850 3069 1003 2837 
Q 1156 2606 1428 2606 
Q 1700 2606 1854 2837 
Q 2009 3069 2009 3481 
Q 2009 3884 1853 4118 
Q 1697 4353 1428 4353 
z
M 4250 4750 
L 4750 4750 
L 1831 -91 
L 1331 -91 
L 4250 4750 
z
M 1428 4750 
Q 1922 4750 2215 4408 
Q 2509 4066 2509 3481 
Q 2509 2891 2217 2550 
Q 1925 2209 1428 2209 
Q 931 2209 642 2551 
Q 353 2894 353 3481 
Q 353 4063 643 4406 
Q 934 4750 1428 4750 
z
" transform="scale(0.015625)"/>
      </defs>
      <use xlink:href="#DejaVuSans-54"/>
      <use xlink:href="#DejaVuSans-6f" x="44.083984"/>
      <use xlink:href="#DejaVuSans-70" x="105.265625"/>
      <use xlink:href="#DejaVuSans-20" x="168.742188"/>
      <use xlink:href="#DejaVuSans-39" x="200.529297"/>
      <use xlink:href="#DejaVuSans-30" x="264.152344"/>
      <use xlink:href="#DejaVuSans-25" x="327.775391"/>
     </g>
    </g>
    <g id="line2d_116">
     <path d="M 259.033125 235.584375 
L 271.033125 235.584375 
L 283.033125 235.584375 
" style="fill: none; stroke-dasharray: 3.7,1.6; stroke-dashoffset: 0; stroke: #000000"/>
    </g>
    <g id="text_17">
     <!-- Fitness mean -->
     <g transform="translate(292.633125 239.784375) scale(0.12 -0.12)">
      <defs>
       <path id="DejaVuSans-6d" d="M 3328 2828 
Q 3544 3216 3844 3400 
Q 4144 3584 4550 3584 
Q 5097 3584 5394 3201 
Q 5691 2819 5691 2113 
L 5691 0 
L 5113 0 
L 5113 2094 
Q 5113 2597 4934 2840 
Q 4756 3084 4391 3084 
Q 3944 3084 3684 2787 
Q 3425 2491 3425 1978 
L 3425 0 
L 2847 0 
L 2847 2094 
Q 2847 2600 2669 2842 
Q 2491 3084 2119 3084 
Q 1678 3084 1418 2786 
Q 1159 2488 1159 1978 
L 1159 0 
L 581 0 
L 581 3500 
L 1159 3500 
L 1159 2956 
Q 1356 3278 1631 3431 
Q 1906 3584 2284 3584 
Q 2666 3584 2933 3390 
Q 3200 3197 3328 2828 
z
" transform="scale(0.015625)"/>
      </defs>
      <use xlink:href="#DejaVuSans-46"/>
      <use xlink:href="#DejaVuSans-69" x="50.269531"/>
      <use xlink:href="#DejaVuSans-74" x="78.052734"/>
      <use xlink:href="#DejaVuSans-6e" x="117.261719"/>
      <use xlink:href="#DejaVuSans-65" x="180.640625"/>
      <use xlink:href="#DejaVuSans-73" x="242.164062"/>
      <use xlink:href="#DejaVuSans-73" x="294.263672"/>
      <use xlink:href="#DejaVuSans-20" x="346.363281"/>
      <use xlink:href="#DejaVuSans-6d" x="378.150391"/>
      <use xlink:href="#DejaVuSans-65" x="475.5625"/>
      <use xlink:href="#DejaVuSans-61" x="537.085938"/>
      <use xlink:href="#DejaVuSans-6e" x="598.365234"/>
     </g>
    </g>
   </g>
  </g>
 </g>
 <defs>
  <clipPath id="pc305135967">
   <rect x="48.039375" y="3.6" width="334.8" height="249.48"/>
  </clipPath>
 </defs>
</svg>
