<?xml version="1.0" encoding="utf-8" standalone="no"?>
<!DOCTYPE svg PUBLIC "-//W3C//DTD SVG 1.1//EN"
  "http://www.w3.org/Graphics/SVG/1.1/DTD/svg11.dtd">
<svg xmlns:xlink="http://www.w3.org/1999/xlink" width="386.439375pt" height="287.4075pt" viewBox="0 0 386.439375 287.4075" xmlns="http://www.w3.org/2000/svg" version="1.1">
 <metadata>
  <rdf:RDF xmlns:dc="http://purl.org/dc/elements/1.1/" xmlns:cc="http://creativecommons.org/ns#" xmlns:rdf="http://www.w3.org/1999/02/22-rdf-syntax-ns#">
   <cc:Work>
    <dc:type rdf:resource="http://purl.org/dc/dcmitype/StillImage"/>
    <dc:date>2024-06-04T12:15:19.191911</dc:date>
    <dc:format>image/svg+xml</dc:format>
    <dc:creator>
     <cc:Agent>
      <dc:title>Matplotlib v3.9.0, https://matplotlib.org/</dc:title>
     </cc:Agent>
    </dc:creator>
   </cc:Work>
  </rdf:RDF>
 </metadata>
 <defs>
  <style type="text/css">*{stroke-linejoin: round; stroke-linecap: butt}</style>
 </defs>
 <g id="figure_1">
  <g id="patch_1">
   <path d="M 0 287.4075 
L 386.439375 287.4075 
L 386.439375 0 
L 0 0 
z
" style="fill: #ffffff"/>
  </g>
  <g id="axes_1">
   <g id="patch_2">
    <path d="M 48.039375 253.08 
L 382.839375 253.08 
L 382.839375 3.6 
L 48.039375 3.6 
z
" style="fill: #ffffff"/>
   </g>
   <g id="PolyCollection_1">
    <defs>
     <path id="mde8e07e424" d="M 63.257557 -215.350557 
L 63.257557 -45.6675 
L 63.867504 -46.339316 
L 64.477451 -47.776339 
L 65.087398 -47.578726 
L 65.697345 -47.304263 
L 66.307293 -47.066147 
L 66.91724 -48.529159 
L 67.527187 -47.282802 
L 68.137134 -47.117051 
L 68.747081 -49.853844 
L 69.357028 -48.771752 
L 69.966976 -46.736085 
L 70.576923 -48.375356 
L 71.18687 -49.928791 
L 71.796817 -48.402824 
L 72.406764 -48.751065 
L 73.016711 -47.185056 
L 73.626659 -47.871659 
L 74.236606 -48.28759 
L 74.846553 -48.99631 
L 75.4565 -47.976804 
L 76.066447 -49.182336 
L 76.676394 -51.516088 
L 77.286342 -50.025235 
L 77.896289 -53.303556 
L 78.506236 -51.029574 
L 79.116183 -55.016936 
L 79.72613 -50.590682 
L 80.336077 -49.743919 
L 80.946025 -53.976055 
L 81.555972 -53.133356 
L 82.165919 -53.303556 
L 82.775866 -160.918592 
L 83.385813 -52.968477 
L 83.99576 -157.6705 
L 84.605708 -165.487316 
L 85.215655 -164.665431 
L 85.825602 -168.681385 
L 86.435549 -172.7574 
L 87.045496 -179.238944 
L 87.655444 -131.313734 
L 88.265391 -180.542926 
L 88.875338 -180.54319 
L 89.485285 -180.483341 
L 90.095232 -193.383001 
L 90.705179 -186.774389 
L 91.315127 -185.207781 
L 91.925074 -195.744996 
L 92.535021 -179.418428 
L 93.144968 -172.842953 
L 93.754915 -180.753673 
L 94.364862 -176.628536 
L 94.97481 -191.627534 
L 95.584757 -194.412094 
L 96.194704 -240.462665 
L 96.804651 -252.761347 
L 97.414598 -187.968604 
L 98.024545 -194.689767 
L 98.634493 -194.609572 
L 99.24444 -213.766757 
L 99.854387 -194.605216 
L 100.464334 -189.844881 
L 101.074281 -167.390446 
L 101.684228 -172.70582 
L 102.294176 -180.843071 
L 102.904123 -175.95689 
L 103.51407 -181.890418 
L 104.124017 -182.608962 
L 104.733964 -180.439362 
L 105.343911 -188.697838 
L 105.953859 -184.469376 
L 106.563806 -157.538484 
L 107.173753 -191.821871 
L 107.7837 -172.833158 
L 108.393647 -159.688812 
L 109.003594 -179.48627 
L 109.613542 -190.974689 
L 110.223489 -192.256063 
L 110.833436 -182.650867 
L 111.443383 -185.946202 
L 112.05333 -175.778695 
L 112.663277 -178.835256 
L 113.273225 -182.42709 
L 113.883172 -192.198497 
L 114.493119 -191.794389 
L 115.103066 -192.135278 
L 115.713013 -174.300698 
L 116.32296 -174.289981 
L 116.932908 -194.413505 
L 117.542855 -180.599874 
L 118.152802 -196.497169 
L 118.762749 -185.444172 
L 119.372696 -188.133069 
L 119.982643 -189.268797 
L 120.592591 -191.430515 
L 121.202538 -184.065935 
L 121.812485 -122.080917 
L 122.422432 -184.642661 
L 123.032379 -190.253644 
L 123.642326 -182.965528 
L 124.252274 -212.4512 
L 124.862221 -168.982509 
L 125.472168 -192.16509 
L 126.082115 -180.60863 
L 126.692062 -181.431607 
L 127.302009 -185.80684 
L 127.911957 -191.38517 
L 128.521904 -191.473057 
L 129.131851 -263.057099 
L 129.741798 -261.738774 
L 130.351745 -263.734986 
L 130.961692 -261.730319 
L 131.57164 -263.418499 
L 132.181587 -263.858336 
L 132.791534 -263.73613 
L 133.401481 -231.367474 
L 134.011428 -172.720451 
L 134.621375 -172.597624 
L 135.231323 -178.122654 
L 135.84127 -197.755034 
L 136.451217 -190.808098 
L 137.061164 -196.389304 
L 137.671111 -182.336826 
L 138.281058 -176.150098 
L 138.891006 -190.495313 
L 139.500953 -182.760073 
L 140.1109 -263.799957 
L 140.720847 -183.688128 
L 141.330794 -258.40041 
L 141.940741 -192.304243 
L 142.550689 -264.020492 
L 143.160636 -264.92834 
L 143.770583 -264.856798 
L 144.38053 -191.308203 
L 144.990477 -197.818514 
L 145.600424 -178.843643 
L 146.210372 -197.894853 
L 146.820319 -253.630418 
L 147.430266 -190.120333 
L 148.040213 -180.05917 
L 148.65016 -175.610895 
L 149.260107 -175.72101 
L 149.870055 -198.334506 
L 150.480002 -176.369324 
L 151.089949 -175.225142 
L 151.699896 -198.077053 
L 152.309843 -250.872164 
L 152.91979 -250.872143 
L 153.529738 -188.075973 
L 154.139685 -250.35222 
L 154.749632 -250.649651 
L 155.359579 -262.327673 
L 155.969526 -259.621094 
L 156.579473 -260.816624 
L 157.189421 -262.327584 
L 157.799368 -262.379197 
L 158.409315 -262.464535 
L 159.019262 -198.041543 
L 159.629209 -181.126837 
L 160.239156 -179.595816 
L 160.849104 -180.165118 
L 161.459051 -179.039413 
L 162.068998 -174.719977 
L 162.678945 -180.779 
L 163.288892 -186.264488 
L 163.898839 -196.243958 
L 164.508787 -260.157611 
L 165.118734 -196.092523 
L 165.728681 -186.450892 
L 166.338628 -161.930214 
L 166.948575 -193.793441 
L 167.558522 -262.831312 
L 168.16847 -259.898123 
L 168.778417 -259.513131 
L 169.388364 -198.170579 
L 169.998311 -258.004753 
L 170.608258 -258.934077 
L 171.218205 -259.486623 
L 171.828153 -194.26284 
L 172.4381 -195.998258 
L 173.048047 -259.878489 
L 173.657994 -195.886434 
L 174.267941 -213.467062 
L 174.877888 -258.303093 
L 175.487836 -177.519737 
L 176.097783 -198.380458 
L 176.70773 -198.219617 
L 177.317677 -190.778622 
L 177.927624 -190.746769 
L 178.537571 -198.031472 
L 179.147519 -198.164748 
L 179.757466 -261.727316 
L 180.367413 -260.42513 
L 180.97736 -264.051468 
L 181.587307 -198.496467 
L 182.197254 -192.95999 
L 182.807202 -190.273427 
L 183.417149 -187.814679 
L 184.027096 -198.505393 
L 184.637043 -198.330386 
L 185.24699 -198.238056 
L 185.856937 -198.331963 
L 186.466885 -198.274302 
L 187.076832 -198.335179 
L 187.686779 -198.331828 
L 188.296726 -198.332914 
L 188.906673 -198.341378 
L 189.51662 -198.140651 
L 190.126568 -198.135009 
L 190.736515 -192.567774 
L 191.346462 -177.671127 
L 191.956409 -175.8559 
L 192.566356 -182.624105 
L 193.176303 -188.65311 
L 193.786251 -183.980028 
L 194.396198 -195.767072 
L 195.006145 -198.499022 
L 195.616092 -260.824736 
L 196.226039 -261.094902 
L 196.835986 -260.839036 
L 197.445934 -260.824067 
L 198.055881 -260.167266 
L 198.665828 -198.957209 
L 199.275775 -190.546442 
L 199.885722 -175.314907 
L 200.495669 -191.136389 
L 201.105617 -197.939646 
L 201.715564 -182.302117 
L 202.325511 -188.150073 
L 202.935458 -184.163715 
L 203.545405 -174.447742 
L 204.155352 -172.805891 
L 204.7653 -184.548109 
L 205.375247 -192.750655 
L 205.985194 -255.097287 
L 206.595141 -195.609574 
L 207.205088 -194.814425 
L 207.815035 -199.100417 
L 208.424983 -257.844032 
L 209.03493 -259.38297 
L 209.644877 -257.641528 
L 210.254824 -260.005278 
L 210.864771 -259.277434 
L 211.474718 -258.91268 
L 212.084666 -260.462635 
L 212.694613 -195.745385 
L 213.30456 -259.669185 
L 213.914507 -263.134412 
L 214.524454 -259.669275 
L 215.134401 -195.976794 
L 215.744349 -189.58251 
L 216.354296 -190.045907 
L 216.964243 -188.224437 
L 217.57419 -186.406509 
L 218.184137 -188.216827 
L 218.794084 -183.602613 
L 219.404032 -194.007231 
L 220.013979 -198.082976 
L 220.623926 -190.948934 
L 221.233873 -191.288373 
L 221.84382 -189.2954 
L 222.453767 -252.736773 
L 223.063715 -191.257409 
L 223.673662 -190.945698 
L 224.283609 -184.757322 
L 224.893556 -189.252871 
L 225.503503 -192.40955 
L 226.11345 -202.509679 
L 226.723398 -197.219724 
L 227.333345 -184.228691 
L 227.943292 -181.524734 
L 228.553239 -179.150008 
L 229.163186 -189.699405 
L 229.773133 -224.582437 
L 230.383081 -177.250815 
L 230.993028 -234.813104 
L 231.602975 -172.385065 
L 232.212922 -188.341454 
L 232.822869 -174.228127 
L 233.432816 -188.714284 
L 234.042764 -185.55247 
L 234.652711 -238.519476 
L 235.262658 -197.753723 
L 235.872605 -238.605918 
L 236.482552 -247.045313 
L 237.092499 -249.54871 
L 237.702447 -246.937943 
L 238.312394 -245.733739 
L 238.922341 -243.767457 
L 239.532288 -247.044358 
L 240.142235 -246.475229 
L 240.752182 -246.91241 
L 241.36213 -250.773173 
L 241.972077 -187.115352 
L 242.582024 -245.89252 
L 243.191971 -250.394716 
L 243.801918 -256.782387 
L 244.411865 -251.401961 
L 245.021813 -249.145883 
L 245.63176 -249.142091 
L 246.241707 -252.445836 
L 246.851654 -260.059137 
L 247.461601 -263.437395 
L 248.071548 -240.559991 
L 248.681496 -252.213449 
L 249.291443 -232.565989 
L 249.90139 -258.727223 
L 250.511337 -259.783355 
L 251.121284 -259.732664 
L 251.731231 -258.934286 
L 252.341179 -230.468358 
L 252.951126 -250.285671 
L 253.561073 -221.242036 
L 254.17102 -249.335205 
L 254.780967 -184.882656 
L 255.390914 -186.933894 
L 256.000862 -179.205277 
L 256.610809 -186.028251 
L 257.220756 -197.77745 
L 257.830703 -258.721161 
L 258.44065 -254.581311 
L 259.050597 -254.616084 
L 259.660545 -259.568846 
L 260.270492 -254.581127 
L 260.880439 -261.743337 
L 261.490386 -255.842372 
L 262.100333 -188.990456 
L 262.71028 -195.25067 
L 263.320228 -196.799133 
L 263.930175 -247.336498 
L 264.540122 -200.387344 
L 265.150069 -209.179218 
L 265.760016 -208.043232 
L 266.369963 -196.691401 
L 266.979911 -190.073072 
L 267.589858 -246.115532 
L 268.199805 -182.3697 
L 268.809752 -186.15371 
L 269.419699 -204.552141 
L 270.029646 -254.557546 
L 270.639594 -260.984678 
L 271.249541 -255.521569 
L 271.859488 -189.824956 
L 272.469435 -184.031053 
L 273.079382 -228.314063 
L 273.689329 -219.331957 
L 274.299277 -195.126674 
L 274.909224 -244.308882 
L 275.519171 -251.982272 
L 276.129118 -256.10975 
L 276.739065 -257.384748 
L 277.349012 -246.886844 
L 277.95896 -249.926097 
L 278.568907 -249.926949 
L 279.178854 -251.137485 
L 279.788801 -246.889929 
L 280.398748 -263.54784 
L 281.008695 -262.294689 
L 281.618643 -239.844816 
L 282.22859 -260.003061 
L 282.838537 -249.732327 
L 283.448484 -263.923026 
L 284.058431 -262.72366 
L 284.668378 -247.188828 
L 285.278326 -247.18392 
L 285.888273 -261.051695 
L 286.49822 -261.262924 
L 287.108167 -260.404337 
L 287.718114 -253.30808 
L 288.328061 -252.397289 
L 288.938009 -262.288838 
L 289.547956 -261.050007 
L 290.157903 -244.105175 
L 290.76785 -203.561124 
L 291.377797 -63.188395 
L 291.987744 -186.071813 
L 292.597692 -229.044001 
L 293.207639 -185.955119 
L 293.817586 -204.048559 
L 294.427533 -219.338849 
L 295.03748 -195.516977 
L 295.647427 -251.911034 
L 296.257375 -219.247698 
L 296.867322 -259.315876 
L 297.477269 -259.093736 
L 298.087216 -258.615437 
L 298.697163 -242.422224 
L 299.30711 -254.030276 
L 299.917058 -257.600149 
L 300.527005 -256.498156 
L 301.136952 -257.342333 
L 301.746899 -240.064604 
L 302.356846 -247.198111 
L 302.966793 -206.136801 
L 303.576741 -185.243769 
L 304.186688 -213.610934 
L 304.796635 -256.041084 
L 305.406582 -184.971489 
L 306.016529 -182.7093 
L 306.626476 -189.593328 
L 307.236424 -255.124892 
L 307.846371 -264.767934 
L 308.456318 -265.045467 
L 309.066265 -257.594751 
L 309.676212 -220.401621 
L 310.286159 -265.643284 
L 310.896107 -245.041026 
L 311.506054 -190.75274 
L 312.116001 -261.932177 
L 312.725948 -253.481527 
L 313.335895 -195.915626 
L 313.945842 -252.856458 
L 314.55579 -256.76647 
L 315.165737 -204.325941 
L 315.775684 -256.702421 
L 316.385631 -201.605946 
L 316.995578 -254.333374 
L 317.605525 -187.534783 
L 318.215473 -194.589719 
L 318.82542 -258.889223 
L 319.435367 -249.383285 
L 320.045314 -192.05061 
L 320.655261 -183.759319 
L 321.265208 -257.212406 
L 321.875156 -257.865121 
L 322.485103 -194.911949 
L 323.09505 -258.656925 
L 323.704997 -262.338629 
L 324.314944 -262.45358 
L 324.924891 -255.780137 
L 325.534839 -246.860612 
L 326.144786 -255.779284 
L 326.754733 -240.306298 
L 327.36468 -253.508607 
L 327.974627 -182.410444 
L 328.584574 -253.823474 
L 329.194522 -253.841123 
L 329.804469 -259.194105 
L 330.414416 -255.86632 
L 331.024363 -258.405673 
L 331.63431 -255.782606 
L 332.244257 -223.273826 
L 332.854205 -199.372069 
L 333.464152 -192.616737 
L 334.074099 -195.902984 
L 334.684046 -255.710428 
L 335.293993 -255.710193 
L 335.90394 -255.946938 
L 336.513888 -258.373935 
L 337.123835 -264.185999 
L 337.733782 -258.61486 
L 338.343729 -189.073159 
L 338.953676 -253.720415 
L 339.563623 -253.718075 
L 340.173571 -240.270707 
L 340.783518 -246.508065 
L 341.393465 -178.287364 
L 342.003412 -249.920265 
L 342.613359 -250.557636 
L 343.223306 -251.278529 
L 343.833254 -250.367258 
L 344.443201 -264.140648 
L 345.053148 -203.13282 
L 345.663095 -263.495005 
L 346.273042 -262.613675 
L 346.88299 -236.974224 
L 347.492937 -255.658601 
L 348.102884 -251.780628 
L 348.712831 -190.696614 
L 349.322778 -249.257649 
L 349.932725 -253.12785 
L 350.542673 -251.205282 
L 351.15262 -263.153811 
L 351.762567 -262.94188 
L 352.372514 -186.021528 
L 352.982461 -226.459355 
L 353.592408 -262.742445 
L 354.202356 -195.235709 
L 354.812303 -226.459684 
L 355.42225 -226.459749 
L 356.032197 -172.8315 
L 356.642144 -184.820815 
L 357.252091 -182.221444 
L 357.862039 -220.143762 
L 358.471986 -268.443304 
L 359.081933 -189.916146 
L 359.69188 -254.217185 
L 360.301827 -182.552138 
L 360.911774 -200.696258 
L 361.521722 -265.5997 
L 362.131669 -260.006507 
L 362.741616 -265.707065 
L 363.351563 -265.703645 
L 363.96151 -265.704141 
L 364.571457 -265.705376 
L 365.181405 -265.703948 
L 365.791352 -265.704911 
L 366.401299 -192.873384 
L 367.011246 -176.05085 
L 367.621193 -263.623108 
L 367.621193 -272.446239 
L 367.621193 -272.446239 
L 367.011246 -272.439972 
L 366.401299 -272.422433 
L 365.791352 -272.434006 
L 365.181405 -272.425285 
L 364.571457 -272.427387 
L 363.96151 -272.448545 
L 363.351563 -272.4675 
L 362.741616 -272.426403 
L 362.131669 -272.431332 
L 361.521722 -272.424033 
L 360.911774 -272.446424 
L 360.301827 -272.440049 
L 359.69188 -272.440677 
L 359.081933 -272.426131 
L 358.471986 -272.431418 
L 357.862039 -272.432396 
L 357.252091 -272.45951 
L 356.642144 -272.428605 
L 356.032197 -272.424545 
L 355.42225 -272.439585 
L 354.812303 -272.436204 
L 354.202356 -272.41976 
L 353.592408 -272.423964 
L 352.982461 -272.43212 
L 352.372514 -272.444794 
L 351.762567 -272.42558 
L 351.15262 -272.433965 
L 350.542673 -272.427635 
L 349.932725 -272.422178 
L 349.322778 -272.421836 
L 348.712831 -272.424867 
L 348.102884 -272.451919 
L 347.492937 -272.423705 
L 346.88299 -272.420351 
L 346.273042 -272.423923 
L 345.663095 -272.439776 
L 345.053148 -272.435626 
L 344.443201 -272.444326 
L 343.833254 -272.426625 
L 343.223306 -272.434202 
L 342.613359 -272.423455 
L 342.003412 -272.429512 
L 341.393465 -272.422045 
L 340.783518 -272.423247 
L 340.173571 -272.425383 
L 339.563623 -272.430446 
L 338.953676 -272.433934 
L 338.343729 -272.421067 
L 337.733782 -272.420977 
L 337.123835 -272.419215 
L 336.513888 -272.427364 
L 335.90394 -272.42115 
L 335.293993 -272.427353 
L 334.684046 -272.430221 
L 334.074099 -272.433061 
L 333.464152 -272.425454 
L 332.854205 -272.422822 
L 332.244257 -272.419921 
L 331.63431 -272.42635 
L 331.024363 -272.424767 
L 330.414416 -272.422262 
L 329.804469 -272.43284 
L 329.194522 -272.429146 
L 328.584574 -272.434962 
L 327.974627 -272.424866 
L 327.36468 -272.453031 
L 326.754733 -272.434866 
L 326.144786 -272.443248 
L 325.534839 -272.419971 
L 324.924891 -272.421801 
L 324.314944 -272.431144 
L 323.704997 -272.422857 
L 323.09505 -272.446193 
L 322.485103 -272.42335 
L 321.875156 -272.424195 
L 321.265208 -272.426974 
L 320.655261 -272.434333 
L 320.045314 -272.427598 
L 319.435367 -272.428227 
L 318.82542 -272.423592 
L 318.215473 -272.431711 
L 317.605525 -272.423388 
L 316.995578 -272.423472 
L 316.385631 -272.422072 
L 315.775684 -272.42369 
L 315.165737 -272.420266 
L 314.55579 -272.421786 
L 313.945842 -272.431706 
L 313.335895 -272.422599 
L 312.725948 -272.429032 
L 312.116001 -272.428192 
L 311.506054 -272.444839 
L 310.896107 -272.423385 
L 310.286159 -272.435654 
L 309.676212 -272.423247 
L 309.066265 -272.422486 
L 308.456318 -272.421428 
L 307.846371 -272.42075 
L 307.236424 -272.435128 
L 306.626476 -272.419948 
L 306.016529 -272.416755 
L 305.406582 -272.425841 
L 304.796635 -272.428601 
L 304.186688 -272.421134 
L 303.576741 -272.414998 
L 302.966793 -272.427329 
L 302.356846 -272.423789 
L 301.746899 -272.416206 
L 301.136952 -272.445804 
L 300.527005 -272.416785 
L 299.917058 -272.42015 
L 299.30711 -272.414889 
L 298.697163 -272.411417 
L 298.087216 -272.336646 
L 297.477269 -272.358382 
L 296.867322 -272.299158 
L 296.257375 -272.318847 
L 295.647427 -272.299391 
L 295.03748 -272.301006 
L 294.427533 -272.385498 
L 293.817586 -272.258547 
L 293.207639 -272.251371 
L 292.597692 -272.252866 
L 291.987744 -272.25005 
L 291.377797 -272.251174 
L 290.76785 -272.25362 
L 290.157903 -272.25181 
L 289.547956 -272.250735 
L 288.938009 -272.250457 
L 288.328061 -272.225945 
L 287.718114 -272.219738 
L 287.108167 -272.23037 
L 286.49822 -272.224747 
L 285.888273 -272.219741 
L 285.278326 -272.222861 
L 284.668378 -272.23306 
L 284.058431 -272.22041 
L 283.448484 -272.222698 
L 282.838537 -272.22846 
L 282.22859 -272.225622 
L 281.618643 -272.21951 
L 281.008695 -272.219761 
L 280.398748 -272.220352 
L 279.788801 -272.219179 
L 279.178854 -272.218733 
L 278.568907 -272.223979 
L 277.95896 -272.221483 
L 277.349012 -272.218484 
L 276.739065 -272.216509 
L 276.129118 -272.211557 
L 275.519171 -272.211571 
L 274.909224 -272.210318 
L 274.299277 -272.214215 
L 273.689329 -272.161929 
L 273.079382 -272.197862 
L 272.469435 -272.160113 
L 271.859488 -272.170138 
L 271.249541 -272.209513 
L 270.639594 -272.181323 
L 270.029646 -272.159589 
L 269.419699 -272.173956 
L 268.809752 -272.161213 
L 268.199805 -272.16589 
L 267.589858 -272.213285 
L 266.979911 -272.161727 
L 266.369963 -272.155773 
L 265.760016 -272.158964 
L 265.150069 -272.167927 
L 264.540122 -272.175627 
L 263.930175 -272.151608 
L 263.320228 -272.196427 
L 262.71028 -272.158263 
L 262.100333 -272.16832 
L 261.490386 -272.144425 
L 260.880439 -272.145559 
L 260.270492 -272.166326 
L 259.660545 -272.136881 
L 259.050597 -272.163731 
L 258.44065 -272.141804 
L 257.830703 -272.138418 
L 257.220756 -272.13703 
L 256.610809 -272.136394 
L 256.000862 -272.136596 
L 255.390914 -272.136599 
L 254.780967 -271.030707 
L 254.17102 -271.035796 
L 253.561073 -271.046409 
L 252.951126 -271.029149 
L 252.341179 -271.027879 
L 251.731231 -271.028694 
L 251.121284 -271.027277 
L 250.511337 -270.914621 
L 249.90139 -270.915364 
L 249.291443 -270.915804 
L 248.681496 -270.918016 
L 248.071548 -270.913244 
L 247.461601 -270.919727 
L 246.851654 -270.91995 
L 246.241707 -270.911308 
L 245.63176 -270.910582 
L 245.021813 -270.916272 
L 244.411865 -270.911284 
L 243.801918 -270.912254 
L 243.191971 -270.915257 
L 242.582024 -270.924949 
L 241.972077 -270.911084 
L 241.36213 -270.932716 
L 240.752182 -270.936203 
L 240.142235 -270.9187 
L 239.532288 -270.914214 
L 238.922341 -270.913349 
L 238.312394 -270.908789 
L 237.702447 -270.914437 
L 237.092499 -270.913518 
L 236.482552 -270.907943 
L 235.872605 -270.909139 
L 235.262658 -270.906857 
L 234.652711 -270.90776 
L 234.042764 -270.905646 
L 233.432816 -270.8802 
L 232.822869 -270.88364 
L 232.212922 -270.878556 
L 231.602975 -270.84781 
L 230.993028 -270.848009 
L 230.383081 -270.847727 
L 229.773133 -270.847542 
L 229.163186 -270.733645 
L 228.553239 -270.730344 
L 227.943292 -270.733626 
L 227.333345 -270.728851 
L 226.723398 -270.727516 
L 226.11345 -270.734919 
L 225.503503 -270.726816 
L 224.893556 -270.727595 
L 224.283609 -270.679745 
L 223.673662 -270.678339 
L 223.063715 -269.5411 
L 222.453767 -269.539485 
L 221.84382 -269.54041 
L 221.233873 -269.521535 
L 220.623926 -269.519482 
L 220.013979 -269.175515 
L 219.404032 -269.16754 
L 218.794084 -269.167086 
L 218.184137 -269.149273 
L 217.57419 -267.990838 
L 216.964243 -267.946249 
L 216.354296 -267.944543 
L 215.744349 -267.951837 
L 215.134401 -267.946642 
L 214.524454 -267.949454 
L 213.914507 -267.944002 
L 213.30456 -267.944142 
L 212.694613 -267.597211 
L 212.084666 -266.768198 
L 211.474718 -266.766037 
L 210.864771 -266.762532 
L 210.254824 -266.765667 
L 209.644877 -266.765522 
L 209.03493 -266.767919 
L 208.424983 -266.140361 
L 207.815035 -266.088038 
L 207.205088 -266.087625 
L 206.595141 -266.101776 
L 205.985194 -266.089766 
L 205.375247 -266.107979 
L 204.7653 -266.169783 
L 204.155352 -266.093958 
L 203.545405 -266.087927 
L 202.935458 -266.087834 
L 202.325511 -266.088902 
L 201.715564 -266.077883 
L 201.105617 -266.244384 
L 200.495669 -266.151639 
L 199.885722 -266.055456 
L 199.275775 -266.09267 
L 198.665828 -266.050129 
L 198.055881 -266.04901 
L 197.445934 -266.049906 
L 196.835986 -266.103513 
L 196.226039 -266.068331 
L 195.616092 -266.031075 
L 195.006145 -266.032077 
L 194.396198 -266.032363 
L 193.786251 -266.029771 
L 193.176303 -266.031116 
L 192.566356 -265.956727 
L 191.956409 -265.950219 
L 191.346462 -265.963253 
L 190.736515 -265.97176 
L 190.126568 -265.962653 
L 189.51662 -265.961951 
L 188.906673 -265.948864 
L 188.296726 -265.947624 
L 187.686779 -265.956912 
L 187.076832 -265.960313 
L 186.466885 -265.957389 
L 185.856937 -265.967123 
L 185.24699 -265.949012 
L 184.637043 -265.959373 
L 184.027096 -265.947973 
L 183.417149 -265.953463 
L 182.807202 -265.947991 
L 182.197254 -265.949578 
L 181.587307 -265.949988 
L 180.97736 -265.950593 
L 180.367413 -265.987024 
L 179.757466 -265.957687 
L 179.147519 -265.957461 
L 178.537571 -265.949477 
L 177.927624 -265.952898 
L 177.317677 -265.982133 
L 176.70773 -265.947224 
L 176.097783 -265.947782 
L 175.487836 -265.948132 
L 174.877888 -265.947134 
L 174.267941 -265.946855 
L 173.657994 -265.945932 
L 173.048047 -265.94928 
L 172.4381 -265.946783 
L 171.828153 -265.945772 
L 171.218205 -265.945945 
L 170.608258 -265.946938 
L 169.998311 -265.946804 
L 169.388364 -265.945605 
L 168.778417 -265.945844 
L 168.16847 -265.648643 
L 167.558522 -265.648516 
L 166.948575 -265.648647 
L 166.338628 -265.648581 
L 165.728681 -265.489987 
L 165.118734 -265.482511 
L 164.508787 -265.503121 
L 163.898839 -265.498649 
L 163.288892 -265.482725 
L 162.678945 -265.485286 
L 162.068998 -265.482485 
L 161.459051 -265.4916 
L 160.849104 -265.483914 
L 160.239156 -265.486571 
L 159.629209 -265.485646 
L 159.019262 -265.483752 
L 158.409315 -265.481944 
L 157.799368 -265.481825 
L 157.189421 -265.483055 
L 156.579473 -265.491605 
L 155.969526 -265.4466 
L 155.359579 -265.455342 
L 154.749632 -265.460921 
L 154.139685 -265.492806 
L 153.529738 -265.445134 
L 152.91979 -265.440324 
L 152.309843 -265.436885 
L 151.699896 -265.436149 
L 151.089949 -265.487686 
L 150.480002 -265.47157 
L 149.870055 -265.414243 
L 149.260107 -265.409549 
L 148.65016 -265.425394 
L 148.040213 -265.411786 
L 147.430266 -265.481913 
L 146.820319 -265.422066 
L 146.210372 -265.43568 
L 145.600424 -265.408205 
L 144.990477 -265.409688 
L 144.38053 -265.451801 
L 143.770583 -265.415388 
L 143.160636 -265.408892 
L 142.550689 -265.439806 
L 141.940741 -265.407919 
L 141.330794 -265.410859 
L 140.720847 -265.407366 
L 140.1109 -265.407536 
L 139.500953 -265.407952 
L 138.891006 -265.41893 
L 138.281058 -265.406435 
L 137.671111 -265.415408 
L 137.061164 -265.285994 
L 136.451217 -265.26293 
L 135.84127 -265.254593 
L 135.231323 -265.254434 
L 134.621375 -265.254465 
L 134.011428 -265.254537 
L 133.401481 -265.254557 
L 132.791534 -265.254313 
L 132.181587 -265.254615 
L 131.57164 -265.256778 
L 130.961692 -265.254668 
L 130.351745 -265.253875 
L 129.741798 -265.254269 
L 129.131851 -265.25227 
L 128.521904 -265.25188 
L 127.911957 -265.213302 
L 127.302009 -265.213235 
L 126.692062 -265.21251 
L 126.082115 -265.210959 
L 125.472168 -265.173756 
L 124.862221 -265.100929 
L 124.252274 -265.105649 
L 123.642326 -265.099958 
L 123.032379 -265.098926 
L 122.422432 -265.061724 
L 121.812485 -265.061927 
L 121.202538 -265.059118 
L 120.592591 -265.057628 
L 119.982643 -265.017053 
L 119.372696 -265.016811 
L 118.762749 -265.016717 
L 118.152802 -265.016567 
L 117.542855 -265.016333 
L 116.932908 -265.016516 
L 116.32296 -265.016537 
L 115.713013 -264.979189 
L 115.103066 -264.981465 
L 114.493119 -264.988281 
L 113.883172 -264.981315 
L 113.273225 -264.978697 
L 112.663277 -264.979661 
L 112.05333 -264.930835 
L 111.443383 -264.930235 
L 110.833436 -264.929406 
L 110.223489 -264.931051 
L 109.613542 -264.930573 
L 109.003594 -264.930632 
L 108.393647 -264.891824 
L 107.7837 -264.893107 
L 107.173753 -264.89171 
L 106.563806 -264.892389 
L 105.953859 -264.892298 
L 105.343911 -264.892429 
L 104.733964 -264.89206 
L 104.124017 -264.891474 
L 103.51407 -264.891365 
L 102.904123 -264.892246 
L 102.294176 -264.77681 
L 101.684228 -264.776797 
L 101.074281 -264.776842 
L 100.464334 -264.776967 
L 99.854387 -264.776744 
L 99.24444 -264.776645 
L 98.634493 -264.774382 
L 98.024545 -264.776609 
L 97.414598 -264.763968 
L 96.804651 -264.763893 
L 96.194704 -264.616644 
L 95.584757 -264.617601 
L 94.97481 -264.521277 
L 94.364862 -264.520125 
L 93.754915 -264.52022 
L 93.144968 -262.3874 
L 92.535021 -262.331871 
L 91.925074 -262.336346 
L 91.315127 -262.331172 
L 90.705179 -262.332509 
L 90.095232 -262.333116 
L 89.485285 -262.362119 
L 88.875338 -262.332409 
L 88.265391 -262.331271 
L 87.655444 -262.331522 
L 87.045496 -262.331817 
L 86.435549 -262.331689 
L 85.825602 -262.331146 
L 85.215655 -262.331282 
L 84.605708 -262.33155 
L 83.99576 -261.176107 
L 83.385813 -261.178887 
L 82.775866 -261.186636 
L 82.165919 -261.175173 
L 81.555972 -261.182767 
L 80.946025 -261.234124 
L 80.336077 -261.176453 
L 79.72613 -261.17448 
L 79.116183 -261.177071 
L 78.506236 -261.173473 
L 77.896289 -261.173347 
L 77.286342 -255.008578 
L 76.676394 -255.014234 
L 76.066447 -255.021129 
L 75.4565 -255.01489 
L 74.846553 -249.147997 
L 74.236606 -249.147608 
L 73.626659 -249.151078 
L 73.016711 -249.150606 
L 72.406764 -245.602107 
L 71.796817 -245.60208 
L 71.18687 -245.602082 
L 70.576923 -245.602033 
L 69.966976 -245.602208 
L 69.357028 -245.602018 
L 68.747081 -245.602015 
L 68.137134 -245.602053 
L 67.527187 -235.406793 
L 66.91724 -235.406912 
L 66.307293 -226.84546 
L 65.697345 -226.843748 
L 65.087398 -226.848264 
L 64.477451 -226.845812 
L 63.867504 -220.01675 
L 63.257557 -215.350557 
z
" style="stroke: #0000ff; stroke-opacity: 0.2"/>
    </defs>
    <g clip-path="url(#p0bf42d5872)">
     <use xlink:href="#mde8e07e424" x="0" y="287.4075" style="fill: #0000ff; fill-opacity: 0.2; stroke: #0000ff; stroke-opacity: 0.2"/>
    </g>
   </g>
   <g id="matplotlib.axis_1">
    <g id="xtick_1">
     <g id="line2d_1">
      <path d="M 63.257557 253.08 
L 63.257557 3.6 
" clip-path="url(#p0bf42d5872)" style="fill: none; stroke: #b0b0b0; stroke-width: 0.5; stroke-linecap: square"/>
     </g>
     <g id="line2d_2">
      <defs>
       <path id="mdedc546b9b" d="M 0 0 
L 0 -3 
" style="stroke: #000000; stroke-width: 0.5"/>
      </defs>
      <g>
       <use xlink:href="#mdedc546b9b" x="63.257557" y="253.08" style="stroke: #000000; stroke-width: 0.5"/>
      </g>
     </g>
     <g id="line2d_3">
      <defs>
       <path id="m47f3c5be74" d="M 0 0 
L 0 3 
" style="stroke: #000000; stroke-width: 0.5"/>
      </defs>
      <g>
       <use xlink:href="#m47f3c5be74" x="63.257557" y="3.6" style="stroke: #000000; stroke-width: 0.5"/>
      </g>
     </g>
     <g id="text_1">
      <!-- 0 -->
      <g transform="translate(59.440057 265.698125) scale(0.12 -0.12)">
       <defs>
        <path id="DejaVuSans-30" d="M 2034 4250 
Q 1547 4250 1301 3770 
Q 1056 3291 1056 2328 
Q 1056 1369 1301 889 
Q 1547 409 2034 409 
Q 2525 409 2770 889 
Q 3016 1369 3016 2328 
Q 3016 3291 2770 3770 
Q 2525 4250 2034 4250 
z
M 2034 4750 
Q 2819 4750 3233 4129 
Q 3647 3509 3647 2328 
Q 3647 1150 3233 529 
Q 2819 -91 2034 -91 
Q 1250 -91 836 529 
Q 422 1150 422 2328 
Q 422 3509 836 4129 
Q 1250 4750 2034 4750 
z
" transform="scale(0.015625)"/>
       </defs>
       <use xlink:href="#DejaVuSans-30"/>
      </g>
     </g>
    </g>
    <g id="xtick_2">
     <g id="line2d_4">
      <path d="M 124.252274 253.08 
L 124.252274 3.6 
" clip-path="url(#p0bf42d5872)" style="fill: none; stroke: #b0b0b0; stroke-width: 0.5; stroke-linecap: square"/>
     </g>
     <g id="line2d_5">
      <g>
       <use xlink:href="#mdedc546b9b" x="124.252274" y="253.08" style="stroke: #000000; stroke-width: 0.5"/>
      </g>
     </g>
     <g id="line2d_6">
      <g>
       <use xlink:href="#m47f3c5be74" x="124.252274" y="3.6" style="stroke: #000000; stroke-width: 0.5"/>
      </g>
     </g>
     <g id="text_2">
      <!-- 100 -->
      <g transform="translate(112.799774 265.698125) scale(0.12 -0.12)">
       <defs>
        <path id="DejaVuSans-31" d="M 794 531 
L 1825 531 
L 1825 4091 
L 703 3866 
L 703 4441 
L 1819 4666 
L 2450 4666 
L 2450 531 
L 3481 531 
L 3481 0 
L 794 0 
L 794 531 
z
" transform="scale(0.015625)"/>
       </defs>
       <use xlink:href="#DejaVuSans-31"/>
       <use xlink:href="#DejaVuSans-30" x="63.623047"/>
       <use xlink:href="#DejaVuSans-30" x="127.246094"/>
      </g>
     </g>
    </g>
    <g id="xtick_3">
     <g id="line2d_7">
      <path d="M 185.24699 253.08 
L 185.24699 3.6 
" clip-path="url(#p0bf42d5872)" style="fill: none; stroke: #b0b0b0; stroke-width: 0.5; stroke-linecap: square"/>
     </g>
     <g id="line2d_8">
      <g>
       <use xlink:href="#mdedc546b9b" x="185.24699" y="253.08" style="stroke: #000000; stroke-width: 0.5"/>
      </g>
     </g>
     <g id="line2d_9">
      <g>
       <use xlink:href="#m47f3c5be74" x="185.24699" y="3.6" style="stroke: #000000; stroke-width: 0.5"/>
      </g>
     </g>
     <g id="text_3">
      <!-- 200 -->
      <g transform="translate(173.79449 265.698125) scale(0.12 -0.12)">
       <defs>
        <path id="DejaVuSans-32" d="M 1228 531 
L 3431 531 
L 3431 0 
L 469 0 
L 469 531 
Q 828 903 1448 1529 
Q 2069 2156 2228 2338 
Q 2531 2678 2651 2914 
Q 2772 3150 2772 3378 
Q 2772 3750 2511 3984 
Q 2250 4219 1831 4219 
Q 1534 4219 1204 4116 
Q 875 4013 500 3803 
L 500 4441 
Q 881 4594 1212 4672 
Q 1544 4750 1819 4750 
Q 2544 4750 2975 4387 
Q 3406 4025 3406 3419 
Q 3406 3131 3298 2873 
Q 3191 2616 2906 2266 
Q 2828 2175 2409 1742 
Q 1991 1309 1228 531 
z
" transform="scale(0.015625)"/>
       </defs>
       <use xlink:href="#DejaVuSans-32"/>
       <use xlink:href="#DejaVuSans-30" x="63.623047"/>
       <use xlink:href="#DejaVuSans-30" x="127.246094"/>
      </g>
     </g>
    </g>
    <g id="xtick_4">
     <g id="line2d_10">
      <path d="M 246.241707 253.08 
L 246.241707 3.6 
" clip-path="url(#p0bf42d5872)" style="fill: none; stroke: #b0b0b0; stroke-width: 0.5; stroke-linecap: square"/>
     </g>
     <g id="line2d_11">
      <g>
       <use xlink:href="#mdedc546b9b" x="246.241707" y="253.08" style="stroke: #000000; stroke-width: 0.5"/>
      </g>
     </g>
     <g id="line2d_12">
      <g>
       <use xlink:href="#m47f3c5be74" x="246.241707" y="3.6" style="stroke: #000000; stroke-width: 0.5"/>
      </g>
     </g>
     <g id="text_4">
      <!-- 300 -->
      <g transform="translate(234.789207 265.698125) scale(0.12 -0.12)">
       <defs>
        <path id="DejaVuSans-33" d="M 2597 2516 
Q 3050 2419 3304 2112 
Q 3559 1806 3559 1356 
Q 3559 666 3084 287 
Q 2609 -91 1734 -91 
Q 1441 -91 1130 -33 
Q 819 25 488 141 
L 488 750 
Q 750 597 1062 519 
Q 1375 441 1716 441 
Q 2309 441 2620 675 
Q 2931 909 2931 1356 
Q 2931 1769 2642 2001 
Q 2353 2234 1838 2234 
L 1294 2234 
L 1294 2753 
L 1863 2753 
Q 2328 2753 2575 2939 
Q 2822 3125 2822 3475 
Q 2822 3834 2567 4026 
Q 2313 4219 1838 4219 
Q 1578 4219 1281 4162 
Q 984 4106 628 3988 
L 628 4550 
Q 988 4650 1302 4700 
Q 1616 4750 1894 4750 
Q 2613 4750 3031 4423 
Q 3450 4097 3450 3541 
Q 3450 3153 3228 2886 
Q 3006 2619 2597 2516 
z
" transform="scale(0.015625)"/>
       </defs>
       <use xlink:href="#DejaVuSans-33"/>
       <use xlink:href="#DejaVuSans-30" x="63.623047"/>
       <use xlink:href="#DejaVuSans-30" x="127.246094"/>
      </g>
     </g>
    </g>
    <g id="xtick_5">
     <g id="line2d_13">
      <path d="M 307.236424 253.08 
L 307.236424 3.6 
" clip-path="url(#p0bf42d5872)" style="fill: none; stroke: #b0b0b0; stroke-width: 0.5; stroke-linecap: square"/>
     </g>
     <g id="line2d_14">
      <g>
       <use xlink:href="#mdedc546b9b" x="307.236424" y="253.08" style="stroke: #000000; stroke-width: 0.5"/>
      </g>
     </g>
     <g id="line2d_15">
      <g>
       <use xlink:href="#m47f3c5be74" x="307.236424" y="3.6" style="stroke: #000000; stroke-width: 0.5"/>
      </g>
     </g>
     <g id="text_5">
      <!-- 400 -->
      <g transform="translate(295.783924 265.698125) scale(0.12 -0.12)">
       <defs>
        <path id="DejaVuSans-34" d="M 2419 4116 
L 825 1625 
L 2419 1625 
L 2419 4116 
z
M 2253 4666 
L 3047 4666 
L 3047 1625 
L 3713 1625 
L 3713 1100 
L 3047 1100 
L 3047 0 
L 2419 0 
L 2419 1100 
L 313 1100 
L 313 1709 
L 2253 4666 
z
" transform="scale(0.015625)"/>
       </defs>
       <use xlink:href="#DejaVuSans-34"/>
       <use xlink:href="#DejaVuSans-30" x="63.623047"/>
       <use xlink:href="#DejaVuSans-30" x="127.246094"/>
      </g>
     </g>
    </g>
    <g id="xtick_6">
     <g id="line2d_16">
      <path d="M 368.23114 253.08 
L 368.23114 3.6 
" clip-path="url(#p0bf42d5872)" style="fill: none; stroke: #b0b0b0; stroke-width: 0.5; stroke-linecap: square"/>
     </g>
     <g id="line2d_17">
      <g>
       <use xlink:href="#mdedc546b9b" x="368.23114" y="253.08" style="stroke: #000000; stroke-width: 0.5"/>
      </g>
     </g>
     <g id="line2d_18">
      <g>
       <use xlink:href="#m47f3c5be74" x="368.23114" y="3.6" style="stroke: #000000; stroke-width: 0.5"/>
      </g>
     </g>
     <g id="text_6">
      <!-- 500 -->
      <g transform="translate(356.77864 265.698125) scale(0.12 -0.12)">
       <defs>
        <path id="DejaVuSans-35" d="M 691 4666 
L 3169 4666 
L 3169 4134 
L 1269 4134 
L 1269 2991 
Q 1406 3038 1543 3061 
Q 1681 3084 1819 3084 
Q 2600 3084 3056 2656 
Q 3513 2228 3513 1497 
Q 3513 744 3044 326 
Q 2575 -91 1722 -91 
Q 1428 -91 1123 -41 
Q 819 9 494 109 
L 494 744 
Q 775 591 1075 516 
Q 1375 441 1709 441 
Q 2250 441 2565 725 
Q 2881 1009 2881 1497 
Q 2881 1984 2565 2268 
Q 2250 2553 1709 2553 
Q 1456 2553 1204 2497 
Q 953 2441 691 2322 
L 691 4666 
z
" transform="scale(0.015625)"/>
       </defs>
       <use xlink:href="#DejaVuSans-35"/>
       <use xlink:href="#DejaVuSans-30" x="63.623047"/>
       <use xlink:href="#DejaVuSans-30" x="127.246094"/>
      </g>
     </g>
    </g>
    <g id="xtick_7">
     <g id="line2d_19">
      <defs>
       <path id="m281b743981" d="M 0 0 
L 0 -1.5 
" style="stroke: #000000; stroke-width: 0.5"/>
      </defs>
      <g>
       <use xlink:href="#m281b743981" x="51.058613" y="253.08" style="stroke: #000000; stroke-width: 0.5"/>
      </g>
     </g>
     <g id="line2d_20">
      <defs>
       <path id="m0fe08ab068" d="M 0 0 
L 0 1.5 
" style="stroke: #000000; stroke-width: 0.5"/>
      </defs>
      <g>
       <use xlink:href="#m0fe08ab068" x="51.058613" y="3.6" style="stroke: #000000; stroke-width: 0.5"/>
      </g>
     </g>
    </g>
    <g id="xtick_8">
     <g id="line2d_21">
      <g>
       <use xlink:href="#m281b743981" x="75.4565" y="253.08" style="stroke: #000000; stroke-width: 0.5"/>
      </g>
     </g>
     <g id="line2d_22">
      <g>
       <use xlink:href="#m0fe08ab068" x="75.4565" y="3.6" style="stroke: #000000; stroke-width: 0.5"/>
      </g>
     </g>
    </g>
    <g id="xtick_9">
     <g id="line2d_23">
      <g>
       <use xlink:href="#m281b743981" x="87.655444" y="253.08" style="stroke: #000000; stroke-width: 0.5"/>
      </g>
     </g>
     <g id="line2d_24">
      <g>
       <use xlink:href="#m0fe08ab068" x="87.655444" y="3.6" style="stroke: #000000; stroke-width: 0.5"/>
      </g>
     </g>
    </g>
    <g id="xtick_10">
     <g id="line2d_25">
      <g>
       <use xlink:href="#m281b743981" x="99.854387" y="253.08" style="stroke: #000000; stroke-width: 0.5"/>
      </g>
     </g>
     <g id="line2d_26">
      <g>
       <use xlink:href="#m0fe08ab068" x="99.854387" y="3.6" style="stroke: #000000; stroke-width: 0.5"/>
      </g>
     </g>
    </g>
    <g id="xtick_11">
     <g id="line2d_27">
      <g>
       <use xlink:href="#m281b743981" x="112.05333" y="253.08" style="stroke: #000000; stroke-width: 0.5"/>
      </g>
     </g>
     <g id="line2d_28">
      <g>
       <use xlink:href="#m0fe08ab068" x="112.05333" y="3.6" style="stroke: #000000; stroke-width: 0.5"/>
      </g>
     </g>
    </g>
    <g id="xtick_12">
     <g id="line2d_29">
      <g>
       <use xlink:href="#m281b743981" x="136.451217" y="253.08" style="stroke: #000000; stroke-width: 0.5"/>
      </g>
     </g>
     <g id="line2d_30">
      <g>
       <use xlink:href="#m0fe08ab068" x="136.451217" y="3.6" style="stroke: #000000; stroke-width: 0.5"/>
      </g>
     </g>
    </g>
    <g id="xtick_13">
     <g id="line2d_31">
      <g>
       <use xlink:href="#m281b743981" x="148.65016" y="253.08" style="stroke: #000000; stroke-width: 0.5"/>
      </g>
     </g>
     <g id="line2d_32">
      <g>
       <use xlink:href="#m0fe08ab068" x="148.65016" y="3.6" style="stroke: #000000; stroke-width: 0.5"/>
      </g>
     </g>
    </g>
    <g id="xtick_14">
     <g id="line2d_33">
      <g>
       <use xlink:href="#m281b743981" x="160.849104" y="253.08" style="stroke: #000000; stroke-width: 0.5"/>
      </g>
     </g>
     <g id="line2d_34">
      <g>
       <use xlink:href="#m0fe08ab068" x="160.849104" y="3.6" style="stroke: #000000; stroke-width: 0.5"/>
      </g>
     </g>
    </g>
    <g id="xtick_15">
     <g id="line2d_35">
      <g>
       <use xlink:href="#m281b743981" x="173.048047" y="253.08" style="stroke: #000000; stroke-width: 0.5"/>
      </g>
     </g>
     <g id="line2d_36">
      <g>
       <use xlink:href="#m0fe08ab068" x="173.048047" y="3.6" style="stroke: #000000; stroke-width: 0.5"/>
      </g>
     </g>
    </g>
    <g id="xtick_16">
     <g id="line2d_37">
      <g>
       <use xlink:href="#m281b743981" x="197.445934" y="253.08" style="stroke: #000000; stroke-width: 0.5"/>
      </g>
     </g>
     <g id="line2d_38">
      <g>
       <use xlink:href="#m0fe08ab068" x="197.445934" y="3.6" style="stroke: #000000; stroke-width: 0.5"/>
      </g>
     </g>
    </g>
    <g id="xtick_17">
     <g id="line2d_39">
      <g>
       <use xlink:href="#m281b743981" x="209.644877" y="253.08" style="stroke: #000000; stroke-width: 0.5"/>
      </g>
     </g>
     <g id="line2d_40">
      <g>
       <use xlink:href="#m0fe08ab068" x="209.644877" y="3.6" style="stroke: #000000; stroke-width: 0.5"/>
      </g>
     </g>
    </g>
    <g id="xtick_18">
     <g id="line2d_41">
      <g>
       <use xlink:href="#m281b743981" x="221.84382" y="253.08" style="stroke: #000000; stroke-width: 0.5"/>
      </g>
     </g>
     <g id="line2d_42">
      <g>
       <use xlink:href="#m0fe08ab068" x="221.84382" y="3.6" style="stroke: #000000; stroke-width: 0.5"/>
      </g>
     </g>
    </g>
    <g id="xtick_19">
     <g id="line2d_43">
      <g>
       <use xlink:href="#m281b743981" x="234.042764" y="253.08" style="stroke: #000000; stroke-width: 0.5"/>
      </g>
     </g>
     <g id="line2d_44">
      <g>
       <use xlink:href="#m0fe08ab068" x="234.042764" y="3.6" style="stroke: #000000; stroke-width: 0.5"/>
      </g>
     </g>
    </g>
    <g id="xtick_20">
     <g id="line2d_45">
      <g>
       <use xlink:href="#m281b743981" x="258.44065" y="253.08" style="stroke: #000000; stroke-width: 0.5"/>
      </g>
     </g>
     <g id="line2d_46">
      <g>
       <use xlink:href="#m0fe08ab068" x="258.44065" y="3.6" style="stroke: #000000; stroke-width: 0.5"/>
      </g>
     </g>
    </g>
    <g id="xtick_21">
     <g id="line2d_47">
      <g>
       <use xlink:href="#m281b743981" x="270.639594" y="253.08" style="stroke: #000000; stroke-width: 0.5"/>
      </g>
     </g>
     <g id="line2d_48">
      <g>
       <use xlink:href="#m0fe08ab068" x="270.639594" y="3.6" style="stroke: #000000; stroke-width: 0.5"/>
      </g>
     </g>
    </g>
    <g id="xtick_22">
     <g id="line2d_49">
      <g>
       <use xlink:href="#m281b743981" x="282.838537" y="253.08" style="stroke: #000000; stroke-width: 0.5"/>
      </g>
     </g>
     <g id="line2d_50">
      <g>
       <use xlink:href="#m0fe08ab068" x="282.838537" y="3.6" style="stroke: #000000; stroke-width: 0.5"/>
      </g>
     </g>
    </g>
    <g id="xtick_23">
     <g id="line2d_51">
      <g>
       <use xlink:href="#m281b743981" x="295.03748" y="253.08" style="stroke: #000000; stroke-width: 0.5"/>
      </g>
     </g>
     <g id="line2d_52">
      <g>
       <use xlink:href="#m0fe08ab068" x="295.03748" y="3.6" style="stroke: #000000; stroke-width: 0.5"/>
      </g>
     </g>
    </g>
    <g id="xtick_24">
     <g id="line2d_53">
      <g>
       <use xlink:href="#m281b743981" x="319.435367" y="253.08" style="stroke: #000000; stroke-width: 0.5"/>
      </g>
     </g>
     <g id="line2d_54">
      <g>
       <use xlink:href="#m0fe08ab068" x="319.435367" y="3.6" style="stroke: #000000; stroke-width: 0.5"/>
      </g>
     </g>
    </g>
    <g id="xtick_25">
     <g id="line2d_55">
      <g>
       <use xlink:href="#m281b743981" x="331.63431" y="253.08" style="stroke: #000000; stroke-width: 0.5"/>
      </g>
     </g>
     <g id="line2d_56">
      <g>
       <use xlink:href="#m0fe08ab068" x="331.63431" y="3.6" style="stroke: #000000; stroke-width: 0.5"/>
      </g>
     </g>
    </g>
    <g id="xtick_26">
     <g id="line2d_57">
      <g>
       <use xlink:href="#m281b743981" x="343.833254" y="253.08" style="stroke: #000000; stroke-width: 0.5"/>
      </g>
     </g>
     <g id="line2d_58">
      <g>
       <use xlink:href="#m0fe08ab068" x="343.833254" y="3.6" style="stroke: #000000; stroke-width: 0.5"/>
      </g>
     </g>
    </g>
    <g id="xtick_27">
     <g id="line2d_59">
      <g>
       <use xlink:href="#m281b743981" x="356.032197" y="253.08" style="stroke: #000000; stroke-width: 0.5"/>
      </g>
     </g>
     <g id="line2d_60">
      <g>
       <use xlink:href="#m0fe08ab068" x="356.032197" y="3.6" style="stroke: #000000; stroke-width: 0.5"/>
      </g>
     </g>
    </g>
    <g id="xtick_28">
     <g id="line2d_61">
      <g>
       <use xlink:href="#m281b743981" x="380.430084" y="253.08" style="stroke: #000000; stroke-width: 0.5"/>
      </g>
     </g>
     <g id="line2d_62">
      <g>
       <use xlink:href="#m0fe08ab068" x="380.430084" y="3.6" style="stroke: #000000; stroke-width: 0.5"/>
      </g>
     </g>
    </g>
    <g id="text_7">
     <!-- Generations -->
     <g transform="translate(178.842188 281.311875) scale(0.12 -0.12)">
      <defs>
       <path id="DejaVuSans-47" d="M 3809 666 
L 3809 1919 
L 2778 1919 
L 2778 2438 
L 4434 2438 
L 4434 434 
Q 4069 175 3628 42 
Q 3188 -91 2688 -91 
Q 1594 -91 976 548 
Q 359 1188 359 2328 
Q 359 3472 976 4111 
Q 1594 4750 2688 4750 
Q 3144 4750 3555 4637 
Q 3966 4525 4313 4306 
L 4313 3634 
Q 3963 3931 3569 4081 
Q 3175 4231 2741 4231 
Q 1884 4231 1454 3753 
Q 1025 3275 1025 2328 
Q 1025 1384 1454 906 
Q 1884 428 2741 428 
Q 3075 428 3337 486 
Q 3600 544 3809 666 
z
" transform="scale(0.015625)"/>
       <path id="DejaVuSans-65" d="M 3597 1894 
L 3597 1613 
L 953 1613 
Q 991 1019 1311 708 
Q 1631 397 2203 397 
Q 2534 397 2845 478 
Q 3156 559 3463 722 
L 3463 178 
Q 3153 47 2828 -22 
Q 2503 -91 2169 -91 
Q 1331 -91 842 396 
Q 353 884 353 1716 
Q 353 2575 817 3079 
Q 1281 3584 2069 3584 
Q 2775 3584 3186 3129 
Q 3597 2675 3597 1894 
z
M 3022 2063 
Q 3016 2534 2758 2815 
Q 2500 3097 2075 3097 
Q 1594 3097 1305 2825 
Q 1016 2553 972 2059 
L 3022 2063 
z
" transform="scale(0.015625)"/>
       <path id="DejaVuSans-6e" d="M 3513 2113 
L 3513 0 
L 2938 0 
L 2938 2094 
Q 2938 2591 2744 2837 
Q 2550 3084 2163 3084 
Q 1697 3084 1428 2787 
Q 1159 2491 1159 1978 
L 1159 0 
L 581 0 
L 581 3500 
L 1159 3500 
L 1159 2956 
Q 1366 3272 1645 3428 
Q 1925 3584 2291 3584 
Q 2894 3584 3203 3211 
Q 3513 2838 3513 2113 
z
" transform="scale(0.015625)"/>
       <path id="DejaVuSans-72" d="M 2631 2963 
Q 2534 3019 2420 3045 
Q 2306 3072 2169 3072 
Q 1681 3072 1420 2755 
Q 1159 2438 1159 1844 
L 1159 0 
L 581 0 
L 581 3500 
L 1159 3500 
L 1159 2956 
Q 1341 3275 1631 3429 
Q 1922 3584 2338 3584 
Q 2397 3584 2469 3576 
Q 2541 3569 2628 3553 
L 2631 2963 
z
" transform="scale(0.015625)"/>
       <path id="DejaVuSans-61" d="M 2194 1759 
Q 1497 1759 1228 1600 
Q 959 1441 959 1056 
Q 959 750 1161 570 
Q 1363 391 1709 391 
Q 2188 391 2477 730 
Q 2766 1069 2766 1631 
L 2766 1759 
L 2194 1759 
z
M 3341 1997 
L 3341 0 
L 2766 0 
L 2766 531 
Q 2569 213 2275 61 
Q 1981 -91 1556 -91 
Q 1019 -91 701 211 
Q 384 513 384 1019 
Q 384 1609 779 1909 
Q 1175 2209 1959 2209 
L 2766 2209 
L 2766 2266 
Q 2766 2663 2505 2880 
Q 2244 3097 1772 3097 
Q 1472 3097 1187 3025 
Q 903 2953 641 2809 
L 641 3341 
Q 956 3463 1253 3523 
Q 1550 3584 1831 3584 
Q 2591 3584 2966 3190 
Q 3341 2797 3341 1997 
z
" transform="scale(0.015625)"/>
       <path id="DejaVuSans-74" d="M 1172 4494 
L 1172 3500 
L 2356 3500 
L 2356 3053 
L 1172 3053 
L 1172 1153 
Q 1172 725 1289 603 
Q 1406 481 1766 481 
L 2356 481 
L 2356 0 
L 1766 0 
Q 1100 0 847 248 
Q 594 497 594 1153 
L 594 3053 
L 172 3053 
L 172 3500 
L 594 3500 
L 594 4494 
L 1172 4494 
z
" transform="scale(0.015625)"/>
       <path id="DejaVuSans-69" d="M 603 3500 
L 1178 3500 
L 1178 0 
L 603 0 
L 603 3500 
z
M 603 4863 
L 1178 4863 
L 1178 4134 
L 603 4134 
L 603 4863 
z
" transform="scale(0.015625)"/>
       <path id="DejaVuSans-6f" d="M 1959 3097 
Q 1497 3097 1228 2736 
Q 959 2375 959 1747 
Q 959 1119 1226 758 
Q 1494 397 1959 397 
Q 2419 397 2687 759 
Q 2956 1122 2956 1747 
Q 2956 2369 2687 2733 
Q 2419 3097 1959 3097 
z
M 1959 3584 
Q 2709 3584 3137 3096 
Q 3566 2609 3566 1747 
Q 3566 888 3137 398 
Q 2709 -91 1959 -91 
Q 1206 -91 779 398 
Q 353 888 353 1747 
Q 353 2609 779 3096 
Q 1206 3584 1959 3584 
z
" transform="scale(0.015625)"/>
       <path id="DejaVuSans-73" d="M 2834 3397 
L 2834 2853 
Q 2591 2978 2328 3040 
Q 2066 3103 1784 3103 
Q 1356 3103 1142 2972 
Q 928 2841 928 2578 
Q 928 2378 1081 2264 
Q 1234 2150 1697 2047 
L 1894 2003 
Q 2506 1872 2764 1633 
Q 3022 1394 3022 966 
Q 3022 478 2636 193 
Q 2250 -91 1575 -91 
Q 1294 -91 989 -36 
Q 684 19 347 128 
L 347 722 
Q 666 556 975 473 
Q 1284 391 1588 391 
Q 1994 391 2212 530 
Q 2431 669 2431 922 
Q 2431 1156 2273 1281 
Q 2116 1406 1581 1522 
L 1381 1569 
Q 847 1681 609 1914 
Q 372 2147 372 2553 
Q 372 3047 722 3315 
Q 1072 3584 1716 3584 
Q 2034 3584 2315 3537 
Q 2597 3491 2834 3397 
z
" transform="scale(0.015625)"/>
      </defs>
      <use xlink:href="#DejaVuSans-47"/>
      <use xlink:href="#DejaVuSans-65" x="77.490234"/>
      <use xlink:href="#DejaVuSans-6e" x="139.013672"/>
      <use xlink:href="#DejaVuSans-65" x="202.392578"/>
      <use xlink:href="#DejaVuSans-72" x="263.916016"/>
      <use xlink:href="#DejaVuSans-61" x="305.029297"/>
      <use xlink:href="#DejaVuSans-74" x="366.308594"/>
      <use xlink:href="#DejaVuSans-69" x="405.517578"/>
      <use xlink:href="#DejaVuSans-6f" x="433.300781"/>
      <use xlink:href="#DejaVuSans-6e" x="494.482422"/>
      <use xlink:href="#DejaVuSans-73" x="557.861328"/>
     </g>
    </g>
   </g>
   <g id="matplotlib.axis_2">
    <g id="ytick_1">
     <g id="line2d_63">
      <path d="M 48.039375 243.7586 
L 382.839375 243.7586 
" clip-path="url(#p0bf42d5872)" style="fill: none; stroke: #b0b0b0; stroke-width: 0.5; stroke-linecap: square"/>
     </g>
     <g id="line2d_64">
      <defs>
       <path id="m20bb60a712" d="M 0 0 
L 3 0 
" style="stroke: #000000; stroke-width: 0.5"/>
      </defs>
      <g>
       <use xlink:href="#m20bb60a712" x="48.039375" y="243.7586" style="stroke: #000000; stroke-width: 0.5"/>
      </g>
     </g>
     <g id="line2d_65">
      <defs>
       <path id="m4e592a3db6" d="M 0 0 
L -3 0 
" style="stroke: #000000; stroke-width: 0.5"/>
      </defs>
      <g>
       <use xlink:href="#m4e592a3db6" x="382.839375" y="243.7586" style="stroke: #000000; stroke-width: 0.5"/>
      </g>
     </g>
     <g id="text_8">
      <!-- −10 -->
      <g transform="translate(19.21375 248.317662) scale(0.12 -0.12)">
       <defs>
        <path id="DejaVuSans-2212" d="M 678 2272 
L 4684 2272 
L 4684 1741 
L 678 1741 
L 678 2272 
z
" transform="scale(0.015625)"/>
       </defs>
       <use xlink:href="#DejaVuSans-2212"/>
       <use xlink:href="#DejaVuSans-31" x="83.789062"/>
       <use xlink:href="#DejaVuSans-30" x="147.412109"/>
      </g>
     </g>
    </g>
    <g id="ytick_2">
     <g id="line2d_66">
      <path d="M 48.039375 210.287846 
L 382.839375 210.287846 
" clip-path="url(#p0bf42d5872)" style="fill: none; stroke: #b0b0b0; stroke-width: 0.5; stroke-linecap: square"/>
     </g>
     <g id="line2d_67">
      <g>
       <use xlink:href="#m20bb60a712" x="48.039375" y="210.287846" style="stroke: #000000; stroke-width: 0.5"/>
      </g>
     </g>
     <g id="line2d_68">
      <g>
       <use xlink:href="#m4e592a3db6" x="382.839375" y="210.287846" style="stroke: #000000; stroke-width: 0.5"/>
      </g>
     </g>
     <g id="text_9">
      <!-- −5 -->
      <g transform="translate(26.84875 214.846908) scale(0.12 -0.12)">
       <use xlink:href="#DejaVuSans-2212"/>
       <use xlink:href="#DejaVuSans-35" x="83.789062"/>
      </g>
     </g>
    </g>
    <g id="ytick_3">
     <g id="line2d_69">
      <path d="M 48.039375 176.817091 
L 382.839375 176.817091 
" clip-path="url(#p0bf42d5872)" style="fill: none; stroke: #b0b0b0; stroke-width: 0.5; stroke-linecap: square"/>
     </g>
     <g id="line2d_70">
      <g>
       <use xlink:href="#m20bb60a712" x="48.039375" y="176.817091" style="stroke: #000000; stroke-width: 0.5"/>
      </g>
     </g>
     <g id="line2d_71">
      <g>
       <use xlink:href="#m4e592a3db6" x="382.839375" y="176.817091" style="stroke: #000000; stroke-width: 0.5"/>
      </g>
     </g>
     <g id="text_10">
      <!-- 0 -->
      <g transform="translate(36.904375 181.376154) scale(0.12 -0.12)">
       <use xlink:href="#DejaVuSans-30"/>
      </g>
     </g>
    </g>
    <g id="ytick_4">
     <g id="line2d_72">
      <path d="M 48.039375 143.346337 
L 382.839375 143.346337 
" clip-path="url(#p0bf42d5872)" style="fill: none; stroke: #b0b0b0; stroke-width: 0.5; stroke-linecap: square"/>
     </g>
     <g id="line2d_73">
      <g>
       <use xlink:href="#m20bb60a712" x="48.039375" y="143.346337" style="stroke: #000000; stroke-width: 0.5"/>
      </g>
     </g>
     <g id="line2d_74">
      <g>
       <use xlink:href="#m4e592a3db6" x="382.839375" y="143.346337" style="stroke: #000000; stroke-width: 0.5"/>
      </g>
     </g>
     <g id="text_11">
      <!-- 5 -->
      <g transform="translate(36.904375 147.9054) scale(0.12 -0.12)">
       <use xlink:href="#DejaVuSans-35"/>
      </g>
     </g>
    </g>
    <g id="ytick_5">
     <g id="line2d_75">
      <path d="M 48.039375 109.875583 
L 382.839375 109.875583 
" clip-path="url(#p0bf42d5872)" style="fill: none; stroke: #b0b0b0; stroke-width: 0.5; stroke-linecap: square"/>
     </g>
     <g id="line2d_76">
      <g>
       <use xlink:href="#m20bb60a712" x="48.039375" y="109.875583" style="stroke: #000000; stroke-width: 0.5"/>
      </g>
     </g>
     <g id="line2d_77">
      <g>
       <use xlink:href="#m4e592a3db6" x="382.839375" y="109.875583" style="stroke: #000000; stroke-width: 0.5"/>
      </g>
     </g>
     <g id="text_12">
      <!-- 10 -->
      <g transform="translate(29.269375 114.434646) scale(0.12 -0.12)">
       <use xlink:href="#DejaVuSans-31"/>
       <use xlink:href="#DejaVuSans-30" x="63.623047"/>
      </g>
     </g>
    </g>
    <g id="ytick_6">
     <g id="line2d_78">
      <path d="M 48.039375 76.404829 
L 382.839375 76.404829 
" clip-path="url(#p0bf42d5872)" style="fill: none; stroke: #b0b0b0; stroke-width: 0.5; stroke-linecap: square"/>
     </g>
     <g id="line2d_79">
      <g>
       <use xlink:href="#m20bb60a712" x="48.039375" y="76.404829" style="stroke: #000000; stroke-width: 0.5"/>
      </g>
     </g>
     <g id="line2d_80">
      <g>
       <use xlink:href="#m4e592a3db6" x="382.839375" y="76.404829" style="stroke: #000000; stroke-width: 0.5"/>
      </g>
     </g>
     <g id="text_13">
      <!-- 15 -->
      <g transform="translate(29.269375 80.963892) scale(0.12 -0.12)">
       <use xlink:href="#DejaVuSans-31"/>
       <use xlink:href="#DejaVuSans-35" x="63.623047"/>
      </g>
     </g>
    </g>
    <g id="ytick_7">
     <g id="line2d_81">
      <path d="M 48.039375 42.934075 
L 382.839375 42.934075 
" clip-path="url(#p0bf42d5872)" style="fill: none; stroke: #b0b0b0; stroke-width: 0.5; stroke-linecap: square"/>
     </g>
     <g id="line2d_82">
      <g>
       <use xlink:href="#m20bb60a712" x="48.039375" y="42.934075" style="stroke: #000000; stroke-width: 0.5"/>
      </g>
     </g>
     <g id="line2d_83">
      <g>
       <use xlink:href="#m4e592a3db6" x="382.839375" y="42.934075" style="stroke: #000000; stroke-width: 0.5"/>
      </g>
     </g>
     <g id="text_14">
      <!-- 20 -->
      <g transform="translate(29.269375 47.493138) scale(0.12 -0.12)">
       <use xlink:href="#DejaVuSans-32"/>
       <use xlink:href="#DejaVuSans-30" x="63.623047"/>
      </g>
     </g>
    </g>
    <g id="ytick_8">
     <g id="line2d_84">
      <path d="M 48.039375 9.463321 
L 382.839375 9.463321 
" clip-path="url(#p0bf42d5872)" style="fill: none; stroke: #b0b0b0; stroke-width: 0.5; stroke-linecap: square"/>
     </g>
     <g id="line2d_85">
      <g>
       <use xlink:href="#m20bb60a712" x="48.039375" y="9.463321" style="stroke: #000000; stroke-width: 0.5"/>
      </g>
     </g>
     <g id="line2d_86">
      <g>
       <use xlink:href="#m4e592a3db6" x="382.839375" y="9.463321" style="stroke: #000000; stroke-width: 0.5"/>
      </g>
     </g>
     <g id="text_15">
      <!-- 25 -->
      <g transform="translate(29.269375 14.022384) scale(0.12 -0.12)">
       <use xlink:href="#DejaVuSans-32"/>
       <use xlink:href="#DejaVuSans-35" x="63.623047"/>
      </g>
     </g>
    </g>
    <g id="ytick_9">
     <g id="line2d_87">
      <defs>
       <path id="mad5e821dd3" d="M 0 0 
L 1.5 0 
" style="stroke: #000000; stroke-width: 0.5"/>
      </defs>
      <g>
       <use xlink:href="#mad5e821dd3" x="48.039375" y="250.45275" style="stroke: #000000; stroke-width: 0.5"/>
      </g>
     </g>
     <g id="line2d_88">
      <defs>
       <path id="m76f3c69b82" d="M 0 0 
L -1.5 0 
" style="stroke: #000000; stroke-width: 0.5"/>
      </defs>
      <g>
       <use xlink:href="#m76f3c69b82" x="382.839375" y="250.45275" style="stroke: #000000; stroke-width: 0.5"/>
      </g>
     </g>
    </g>
    <g id="ytick_10">
     <g id="line2d_89">
      <g>
       <use xlink:href="#mad5e821dd3" x="48.039375" y="237.064449" style="stroke: #000000; stroke-width: 0.5"/>
      </g>
     </g>
     <g id="line2d_90">
      <g>
       <use xlink:href="#m76f3c69b82" x="382.839375" y="237.064449" style="stroke: #000000; stroke-width: 0.5"/>
      </g>
     </g>
    </g>
    <g id="ytick_11">
     <g id="line2d_91">
      <g>
       <use xlink:href="#mad5e821dd3" x="48.039375" y="230.370298" style="stroke: #000000; stroke-width: 0.5"/>
      </g>
     </g>
     <g id="line2d_92">
      <g>
       <use xlink:href="#m76f3c69b82" x="382.839375" y="230.370298" style="stroke: #000000; stroke-width: 0.5"/>
      </g>
     </g>
    </g>
    <g id="ytick_12">
     <g id="line2d_93">
      <g>
       <use xlink:href="#mad5e821dd3" x="48.039375" y="223.676147" style="stroke: #000000; stroke-width: 0.5"/>
      </g>
     </g>
     <g id="line2d_94">
      <g>
       <use xlink:href="#m76f3c69b82" x="382.839375" y="223.676147" style="stroke: #000000; stroke-width: 0.5"/>
      </g>
     </g>
    </g>
    <g id="ytick_13">
     <g id="line2d_95">
      <g>
       <use xlink:href="#mad5e821dd3" x="48.039375" y="216.981996" style="stroke: #000000; stroke-width: 0.5"/>
      </g>
     </g>
     <g id="line2d_96">
      <g>
       <use xlink:href="#m76f3c69b82" x="382.839375" y="216.981996" style="stroke: #000000; stroke-width: 0.5"/>
      </g>
     </g>
    </g>
    <g id="ytick_14">
     <g id="line2d_97">
      <g>
       <use xlink:href="#mad5e821dd3" x="48.039375" y="203.593695" style="stroke: #000000; stroke-width: 0.5"/>
      </g>
     </g>
     <g id="line2d_98">
      <g>
       <use xlink:href="#m76f3c69b82" x="382.839375" y="203.593695" style="stroke: #000000; stroke-width: 0.5"/>
      </g>
     </g>
    </g>
    <g id="ytick_15">
     <g id="line2d_99">
      <g>
       <use xlink:href="#mad5e821dd3" x="48.039375" y="196.899544" style="stroke: #000000; stroke-width: 0.5"/>
      </g>
     </g>
     <g id="line2d_100">
      <g>
       <use xlink:href="#m76f3c69b82" x="382.839375" y="196.899544" style="stroke: #000000; stroke-width: 0.5"/>
      </g>
     </g>
    </g>
    <g id="ytick_16">
     <g id="line2d_101">
      <g>
       <use xlink:href="#mad5e821dd3" x="48.039375" y="190.205393" style="stroke: #000000; stroke-width: 0.5"/>
      </g>
     </g>
     <g id="line2d_102">
      <g>
       <use xlink:href="#m76f3c69b82" x="382.839375" y="190.205393" style="stroke: #000000; stroke-width: 0.5"/>
      </g>
     </g>
    </g>
    <g id="ytick_17">
     <g id="line2d_103">
      <g>
       <use xlink:href="#mad5e821dd3" x="48.039375" y="183.511242" style="stroke: #000000; stroke-width: 0.5"/>
      </g>
     </g>
     <g id="line2d_104">
      <g>
       <use xlink:href="#m76f3c69b82" x="382.839375" y="183.511242" style="stroke: #000000; stroke-width: 0.5"/>
      </g>
     </g>
    </g>
    <g id="ytick_18">
     <g id="line2d_105">
      <g>
       <use xlink:href="#mad5e821dd3" x="48.039375" y="170.122941" style="stroke: #000000; stroke-width: 0.5"/>
      </g>
     </g>
     <g id="line2d_106">
      <g>
       <use xlink:href="#m76f3c69b82" x="382.839375" y="170.122941" style="stroke: #000000; stroke-width: 0.5"/>
      </g>
     </g>
    </g>
    <g id="ytick_19">
     <g id="line2d_107">
      <g>
       <use xlink:href="#mad5e821dd3" x="48.039375" y="163.42879" style="stroke: #000000; stroke-width: 0.5"/>
      </g>
     </g>
     <g id="line2d_108">
      <g>
       <use xlink:href="#m76f3c69b82" x="382.839375" y="163.42879" style="stroke: #000000; stroke-width: 0.5"/>
      </g>
     </g>
    </g>
    <g id="ytick_20">
     <g id="line2d_109">
      <g>
       <use xlink:href="#mad5e821dd3" x="48.039375" y="156.734639" style="stroke: #000000; stroke-width: 0.5"/>
      </g>
     </g>
     <g id="line2d_110">
      <g>
       <use xlink:href="#m76f3c69b82" x="382.839375" y="156.734639" style="stroke: #000000; stroke-width: 0.5"/>
      </g>
     </g>
    </g>
    <g id="ytick_21">
     <g id="line2d_111">
      <g>
       <use xlink:href="#mad5e821dd3" x="48.039375" y="150.040488" style="stroke: #000000; stroke-width: 0.5"/>
      </g>
     </g>
     <g id="line2d_112">
      <g>
       <use xlink:href="#m76f3c69b82" x="382.839375" y="150.040488" style="stroke: #000000; stroke-width: 0.5"/>
      </g>
     </g>
    </g>
    <g id="ytick_22">
     <g id="line2d_113">
      <g>
       <use xlink:href="#mad5e821dd3" x="48.039375" y="136.652187" style="stroke: #000000; stroke-width: 0.5"/>
      </g>
     </g>
     <g id="line2d_114">
      <g>
       <use xlink:href="#m76f3c69b82" x="382.839375" y="136.652187" style="stroke: #000000; stroke-width: 0.5"/>
      </g>
     </g>
    </g>
    <g id="ytick_23">
     <g id="line2d_115">
      <g>
       <use xlink:href="#mad5e821dd3" x="48.039375" y="129.958036" style="stroke: #000000; stroke-width: 0.5"/>
      </g>
     </g>
     <g id="line2d_116">
      <g>
       <use xlink:href="#m76f3c69b82" x="382.839375" y="129.958036" style="stroke: #000000; stroke-width: 0.5"/>
      </g>
     </g>
    </g>
    <g id="ytick_24">
     <g id="line2d_117">
      <g>
       <use xlink:href="#mad5e821dd3" x="48.039375" y="123.263885" style="stroke: #000000; stroke-width: 0.5"/>
      </g>
     </g>
     <g id="line2d_118">
      <g>
       <use xlink:href="#m76f3c69b82" x="382.839375" y="123.263885" style="stroke: #000000; stroke-width: 0.5"/>
      </g>
     </g>
    </g>
    <g id="ytick_25">
     <g id="line2d_119">
      <g>
       <use xlink:href="#mad5e821dd3" x="48.039375" y="116.569734" style="stroke: #000000; stroke-width: 0.5"/>
      </g>
     </g>
     <g id="line2d_120">
      <g>
       <use xlink:href="#m76f3c69b82" x="382.839375" y="116.569734" style="stroke: #000000; stroke-width: 0.5"/>
      </g>
     </g>
    </g>
    <g id="ytick_26">
     <g id="line2d_121">
      <g>
       <use xlink:href="#mad5e821dd3" x="48.039375" y="103.181432" style="stroke: #000000; stroke-width: 0.5"/>
      </g>
     </g>
     <g id="line2d_122">
      <g>
       <use xlink:href="#m76f3c69b82" x="382.839375" y="103.181432" style="stroke: #000000; stroke-width: 0.5"/>
      </g>
     </g>
    </g>
    <g id="ytick_27">
     <g id="line2d_123">
      <g>
       <use xlink:href="#mad5e821dd3" x="48.039375" y="96.487282" style="stroke: #000000; stroke-width: 0.5"/>
      </g>
     </g>
     <g id="line2d_124">
      <g>
       <use xlink:href="#m76f3c69b82" x="382.839375" y="96.487282" style="stroke: #000000; stroke-width: 0.5"/>
      </g>
     </g>
    </g>
    <g id="ytick_28">
     <g id="line2d_125">
      <g>
       <use xlink:href="#mad5e821dd3" x="48.039375" y="89.793131" style="stroke: #000000; stroke-width: 0.5"/>
      </g>
     </g>
     <g id="line2d_126">
      <g>
       <use xlink:href="#m76f3c69b82" x="382.839375" y="89.793131" style="stroke: #000000; stroke-width: 0.5"/>
      </g>
     </g>
    </g>
    <g id="ytick_29">
     <g id="line2d_127">
      <g>
       <use xlink:href="#mad5e821dd3" x="48.039375" y="83.09898" style="stroke: #000000; stroke-width: 0.5"/>
      </g>
     </g>
     <g id="line2d_128">
      <g>
       <use xlink:href="#m76f3c69b82" x="382.839375" y="83.09898" style="stroke: #000000; stroke-width: 0.5"/>
      </g>
     </g>
    </g>
    <g id="ytick_30">
     <g id="line2d_129">
      <g>
       <use xlink:href="#mad5e821dd3" x="48.039375" y="69.710678" style="stroke: #000000; stroke-width: 0.5"/>
      </g>
     </g>
     <g id="line2d_130">
      <g>
       <use xlink:href="#m76f3c69b82" x="382.839375" y="69.710678" style="stroke: #000000; stroke-width: 0.5"/>
      </g>
     </g>
    </g>
    <g id="ytick_31">
     <g id="line2d_131">
      <g>
       <use xlink:href="#mad5e821dd3" x="48.039375" y="63.016528" style="stroke: #000000; stroke-width: 0.5"/>
      </g>
     </g>
     <g id="line2d_132">
      <g>
       <use xlink:href="#m76f3c69b82" x="382.839375" y="63.016528" style="stroke: #000000; stroke-width: 0.5"/>
      </g>
     </g>
    </g>
    <g id="ytick_32">
     <g id="line2d_133">
      <g>
       <use xlink:href="#mad5e821dd3" x="48.039375" y="56.322377" style="stroke: #000000; stroke-width: 0.5"/>
      </g>
     </g>
     <g id="line2d_134">
      <g>
       <use xlink:href="#m76f3c69b82" x="382.839375" y="56.322377" style="stroke: #000000; stroke-width: 0.5"/>
      </g>
     </g>
    </g>
    <g id="ytick_33">
     <g id="line2d_135">
      <g>
       <use xlink:href="#mad5e821dd3" x="48.039375" y="49.628226" style="stroke: #000000; stroke-width: 0.5"/>
      </g>
     </g>
     <g id="line2d_136">
      <g>
       <use xlink:href="#m76f3c69b82" x="382.839375" y="49.628226" style="stroke: #000000; stroke-width: 0.5"/>
      </g>
     </g>
    </g>
    <g id="ytick_34">
     <g id="line2d_137">
      <g>
       <use xlink:href="#mad5e821dd3" x="48.039375" y="36.239924" style="stroke: #000000; stroke-width: 0.5"/>
      </g>
     </g>
     <g id="line2d_138">
      <g>
       <use xlink:href="#m76f3c69b82" x="382.839375" y="36.239924" style="stroke: #000000; stroke-width: 0.5"/>
      </g>
     </g>
    </g>
    <g id="ytick_35">
     <g id="line2d_139">
      <g>
       <use xlink:href="#mad5e821dd3" x="48.039375" y="29.545773" style="stroke: #000000; stroke-width: 0.5"/>
      </g>
     </g>
     <g id="line2d_140">
      <g>
       <use xlink:href="#m76f3c69b82" x="382.839375" y="29.545773" style="stroke: #000000; stroke-width: 0.5"/>
      </g>
     </g>
    </g>
    <g id="ytick_36">
     <g id="line2d_141">
      <g>
       <use xlink:href="#mad5e821dd3" x="48.039375" y="22.851623" style="stroke: #000000; stroke-width: 0.5"/>
      </g>
     </g>
     <g id="line2d_142">
      <g>
       <use xlink:href="#m76f3c69b82" x="382.839375" y="22.851623" style="stroke: #000000; stroke-width: 0.5"/>
      </g>
     </g>
    </g>
    <g id="ytick_37">
     <g id="line2d_143">
      <g>
       <use xlink:href="#mad5e821dd3" x="48.039375" y="16.157472" style="stroke: #000000; stroke-width: 0.5"/>
      </g>
     </g>
     <g id="line2d_144">
      <g>
       <use xlink:href="#m76f3c69b82" x="382.839375" y="16.157472" style="stroke: #000000; stroke-width: 0.5"/>
      </g>
     </g>
    </g>
    <g id="text_16">
     <!-- Fitness -->
     <g transform="translate(12.718125 149.120625) rotate(-90) scale(0.12 -0.12)">
      <defs>
       <path id="DejaVuSans-46" d="M 628 4666 
L 3309 4666 
L 3309 4134 
L 1259 4134 
L 1259 2759 
L 3109 2759 
L 3109 2228 
L 1259 2228 
L 1259 0 
L 628 0 
L 628 4666 
z
" transform="scale(0.015625)"/>
      </defs>
      <use xlink:href="#DejaVuSans-46"/>
      <use xlink:href="#DejaVuSans-69" x="50.269531"/>
      <use xlink:href="#DejaVuSans-74" x="78.052734"/>
      <use xlink:href="#DejaVuSans-6e" x="117.261719"/>
      <use xlink:href="#DejaVuSans-65" x="180.640625"/>
      <use xlink:href="#DejaVuSans-73" x="242.164062"/>
      <use xlink:href="#DejaVuSans-73" x="294.263672"/>
     </g>
    </g>
   </g>
   <g id="line2d_145">
    <path d="M 63.257557 72.056943 
L 63.867504 67.39075 
L 64.477451 60.561688 
L 66.307293 60.56204 
L 66.91724 52.000588 
L 67.527187 52.000707 
L 68.137134 41.805447 
L 72.406764 41.805393 
L 73.016711 38.256894 
L 74.846553 38.259503 
L 75.4565 32.39261 
L 77.286342 32.398922 
L 77.896289 26.234153 
L 83.99576 26.231393 
L 84.605708 25.07595 
L 93.144968 25.0201 
L 93.754915 22.88728 
L 96.194704 22.790856 
L 96.804651 22.643607 
L 102.294176 22.63069 
L 102.904123 22.515254 
L 113.883172 22.426185 
L 137.061164 22.121506 
L 137.671111 21.992092 
L 143.770583 21.992112 
L 144.990477 21.997812 
L 159.019262 21.923748 
L 165.728681 21.917513 
L 166.338628 21.758919 
L 168.16847 21.758857 
L 168.778417 21.461656 
L 195.616092 21.376425 
L 197.445934 21.357594 
L 200.495669 21.255861 
L 201.105617 21.163116 
L 201.715564 21.329617 
L 208.424983 21.267139 
L 209.03493 20.639581 
L 212.084666 20.639302 
L 212.694613 19.810289 
L 213.30456 19.463358 
L 217.57419 19.416662 
L 218.184137 18.258227 
L 220.013979 18.231985 
L 220.623926 17.888018 
L 223.063715 17.8664 
L 223.673662 16.729161 
L 229.163186 16.673855 
L 229.773133 16.559958 
L 250.511337 16.492879 
L 251.731231 16.378806 
L 254.780967 16.376793 
L 255.390914 15.270901 
L 288.328061 15.181555 
L 291.377797 15.156326 
L 293.817586 15.148953 
L 294.427533 15.022002 
L 295.647427 15.108109 
L 302.966793 14.980171 
L 308.456318 14.986072 
L 367.621193 14.961261 
L 367.621193 14.961261 
" clip-path="url(#p0bf42d5872)" style="fill: none; stroke: #000000; stroke-linecap: square"/>
   </g>
   <g id="line2d_146">
    <path d="M 63.257557 174.250815 
L 63.867504 167.76249 
L 64.477451 155.503091 
L 65.087398 153.623522 
L 65.697345 158.8196 
L 66.307293 156.367614 
L 66.91724 139.840714 
L 68.137134 148.388476 
L 68.747081 146.171165 
L 69.357028 150.470897 
L 69.966976 146.935317 
L 70.576923 142.382968 
L 71.18687 151.627374 
L 71.796817 157.760874 
L 72.406764 148.157242 
L 73.016711 149.76264 
L 74.846553 116.814413 
L 75.4565 129.626273 
L 76.066447 122.969206 
L 76.676394 113.039485 
L 77.286342 118.672348 
L 77.896289 106.693737 
L 78.506236 118.089082 
L 79.116183 106.457925 
L 79.72613 108.171629 
L 80.336077 108.214362 
L 80.946025 104.141646 
L 81.555972 101.344294 
L 82.165919 94.524568 
L 82.775866 79.819633 
L 83.385813 86.153517 
L 83.99576 77.591093 
L 84.605708 60.922338 
L 85.215655 63.932936 
L 85.825602 58.596536 
L 86.435549 59.621197 
L 87.045496 56.383256 
L 87.655444 68.190518 
L 88.265391 52.472612 
L 88.875338 53.784372 
L 89.485285 51.601512 
L 90.095232 41.538945 
L 90.705179 44.616297 
L 91.315127 50.934097 
L 91.925074 40.441216 
L 92.535021 53.051673 
L 93.144968 58.720314 
L 93.754915 53.552379 
L 94.364862 54.36371 
L 95.584757 37.946658 
L 96.194704 33.895991 
L 96.804651 32.867557 
L 97.414598 41.469144 
L 98.024545 37.675033 
L 98.634493 38.889866 
L 99.24444 34.804817 
L 100.464334 44.432355 
L 101.074281 56.810955 
L 101.684228 56.79209 
L 102.294176 51.700746 
L 102.904123 53.591481 
L 103.51407 46.584017 
L 104.733964 45.82734 
L 105.343911 43.397807 
L 105.953859 49.39354 
L 106.563806 65.178442 
L 107.173753 44.887249 
L 107.7837 53.366555 
L 108.393647 53.640935 
L 109.003594 48.664195 
L 109.613542 46.999653 
L 110.223489 43.418098 
L 110.833436 46.2779 
L 111.443383 45.787829 
L 112.05333 50.886815 
L 112.663277 57.136438 
L 113.273225 47.656221 
L 113.883172 44.434057 
L 114.493119 46.095737 
L 115.103066 43.171668 
L 115.713013 51.7113 
L 116.32296 48.427391 
L 116.932908 41.948689 
L 117.542855 46.85979 
L 118.152802 37.405042 
L 118.762749 46.484466 
L 119.982643 39.195803 
L 120.592591 43.225284 
L 121.202538 40.705999 
L 121.812485 58.764243 
L 122.422432 37.353917 
L 123.032379 35.377027 
L 123.642326 41.69216 
L 124.252274 33.750231 
L 124.862221 49.141392 
L 125.472168 36.092203 
L 126.082115 43.296626 
L 126.692062 47.874805 
L 127.302009 40.885397 
L 127.911957 40.801694 
L 128.521904 33.571383 
L 129.131851 31.311438 
L 129.741798 36.562128 
L 130.351745 29.275601 
L 130.961692 29.731397 
L 131.57164 30.419867 
L 132.181587 30.487799 
L 132.791534 30.8727 
L 133.401481 33.694722 
L 134.011428 46.940751 
L 135.231323 42.980293 
L 135.84127 39.732047 
L 136.451217 39.879672 
L 137.061164 37.194765 
L 137.671111 41.142346 
L 138.281058 44.129219 
L 138.891006 39.036062 
L 139.500953 40.106673 
L 140.1109 28.943966 
L 140.720847 42.498185 
L 141.330794 29.945486 
L 141.940741 41.212086 
L 142.550689 26.407585 
L 143.160636 25.440484 
L 143.770583 30.800598 
L 144.38053 38.154058 
L 144.990477 33.436867 
L 145.600424 38.742476 
L 146.210372 36.209898 
L 146.820319 35.098581 
L 147.430266 37.961306 
L 148.040213 47.339449 
L 148.65016 46.829928 
L 149.260107 44.488845 
L 149.870055 35.080642 
L 151.089949 50.126722 
L 151.699896 35.179352 
L 152.309843 33.491846 
L 152.91979 29.753676 
L 153.529738 33.329944 
L 154.139685 28.208422 
L 154.749632 32.105961 
L 155.359579 28.221835 
L 155.969526 29.694584 
L 156.579473 34.00346 
L 157.799368 27.225501 
L 158.409315 28.422576 
L 159.019262 39.180919 
L 159.629209 47.079661 
L 160.239156 47.101959 
L 160.849104 48.834804 
L 161.459051 45.831497 
L 162.068998 49.858998 
L 162.678945 48.11132 
L 163.288892 38.635607 
L 163.898839 37.941642 
L 164.508787 33.405697 
L 165.118734 36.137728 
L 165.728681 40.126692 
L 166.338628 54.849767 
L 166.948575 35.026286 
L 167.558522 26.211979 
L 168.16847 32.396165 
L 168.778417 30.969875 
L 169.388364 34.385985 
L 169.998311 31.336656 
L 170.608258 33.77674 
L 171.218205 32.37776 
L 171.828153 38.856511 
L 172.4381 38.216312 
L 173.048047 31.085898 
L 173.657994 34.608508 
L 174.267941 34.527873 
L 174.877888 31.887987 
L 175.487836 43.328478 
L 176.097783 35.660475 
L 176.70773 37.380356 
L 177.317677 42.344982 
L 177.927624 38.184263 
L 178.537571 37.437475 
L 179.757466 32.40869 
L 180.367413 29.061978 
L 180.97736 26.34056 
L 181.587307 33.275369 
L 182.197254 42.773055 
L 182.807202 41.85333 
L 183.417149 39.740332 
L 184.027096 36.789664 
L 184.637043 37.436234 
L 185.24699 38.711657 
L 185.856937 39.558948 
L 186.466885 39.818875 
L 187.076832 35.868738 
L 187.686779 38.332097 
L 188.296726 34.672555 
L 188.906673 34.732016 
L 189.51662 40.311823 
L 190.126568 42.34519 
L 190.736515 46.270046 
L 191.346462 51.131616 
L 191.956409 53.046698 
L 192.566356 46.408848 
L 193.176303 44.168168 
L 193.786251 46.217774 
L 194.396198 38.11489 
L 195.616092 29.685521 
L 196.835986 25.053961 
L 197.445934 27.14369 
L 198.665828 39.19992 
L 199.275775 41.23614 
L 199.885722 46.757633 
L 200.495669 42.710606 
L 201.105617 35.089523 
L 201.715564 39.806598 
L 202.325511 39.751202 
L 202.935458 39.874375 
L 203.545405 48.643465 
L 204.155352 50.553692 
L 205.375247 37.73264 
L 205.985194 33.153373 
L 206.595141 36.023097 
L 207.205088 36.343675 
L 207.815035 33.031191 
L 208.424983 30.586909 
L 209.03493 27.317761 
L 209.644877 30.451584 
L 210.254824 28.786026 
L 210.864771 33.40647 
L 211.474718 31.311583 
L 212.084666 35.352036 
L 212.694613 35.477665 
L 213.30456 28.640262 
L 213.914507 25.719517 
L 214.524454 31.494379 
L 215.134401 34.113263 
L 215.744349 35.09159 
L 216.354296 37.886029 
L 216.964243 45.761217 
L 217.57419 47.729126 
L 218.184137 45.46914 
L 218.794084 50.940429 
L 219.404032 40.942305 
L 220.013979 38.311567 
L 220.623926 37.609485 
L 221.84382 40.686898 
L 222.453767 29.608676 
L 223.063715 33.245148 
L 223.673662 39.163154 
L 224.283609 43.775449 
L 224.893556 38.265538 
L 225.503503 36.673533 
L 226.11345 32.055416 
L 226.723398 35.282058 
L 227.333345 41.690408 
L 228.553239 35.487067 
L 229.163186 31.772642 
L 229.773133 34.464882 
L 230.383081 42.620383 
L 230.993028 31.27808 
L 231.602975 47.649206 
L 232.212922 38.254004 
L 232.822869 46.100929 
L 233.432816 35.554844 
L 234.042764 41.876095 
L 234.652711 30.67181 
L 235.262658 35.862792 
L 235.872605 29.702361 
L 236.482552 28.71277 
L 237.092499 24.830246 
L 237.702447 28.68513 
L 238.312394 29.075241 
L 238.922341 25.888499 
L 239.532288 27.630096 
L 240.142235 27.889025 
L 240.752182 28.833627 
L 241.36213 29.377762 
L 241.972077 36.710162 
L 242.582024 29.24202 
L 243.191971 26.92177 
L 243.801918 21.520992 
L 244.411865 24.617649 
L 245.021813 29.08177 
L 245.63176 28.892774 
L 246.851654 20.961562 
L 247.461601 23.139655 
L 248.071548 31.873559 
L 248.681496 32.634588 
L 249.291443 30.641506 
L 250.511337 25.235763 
L 251.121284 27.962706 
L 251.731231 24.570386 
L 252.341179 28.86623 
L 252.951126 29.601306 
L 253.561073 33.521688 
L 254.17102 27.788051 
L 254.780967 35.655843 
L 255.390914 33.376678 
L 256.000862 43.696233 
L 256.610809 39.271142 
L 257.220756 33.908912 
L 257.830703 25.020035 
L 258.44065 26.891923 
L 259.050597 23.492647 
L 259.660545 24.354625 
L 260.270492 30.288496 
L 260.880439 20.215525 
L 262.100333 36.792959 
L 262.71028 36.676883 
L 263.320228 34.610425 
L 263.930175 27.193827 
L 264.540122 34.200372 
L 265.150069 33.348722 
L 265.760016 32.201095 
L 266.369963 35.025584 
L 266.979911 36.689598 
L 267.589858 29.787228 
L 268.199805 41.706956 
L 268.809752 33.206472 
L 269.419699 35.587245 
L 270.029646 27.56877 
L 270.639594 26.239796 
L 271.249541 27.506814 
L 272.469435 36.928485 
L 273.079382 29.96388 
L 273.689329 35.261526 
L 274.299277 39.119029 
L 274.909224 28.83078 
L 275.519171 25.435248 
L 276.129118 24.319363 
L 277.349012 29.670844 
L 277.95896 28.023905 
L 278.568907 27.118459 
L 279.178854 24.123725 
L 279.788801 24.47291 
L 280.398748 22.69253 
L 281.008695 25.017807 
L 281.618643 24.348876 
L 282.22859 24.505154 
L 282.838537 27.94165 
L 283.448484 22.832977 
L 284.058431 24.645047 
L 284.668378 32.362822 
L 285.278326 32.179455 
L 285.888273 23.745319 
L 286.49822 22.08056 
L 287.108167 23.028718 
L 287.718114 27.789994 
L 288.328061 31.220481 
L 288.938009 23.691914 
L 289.547956 24.333621 
L 290.157903 28.304177 
L 290.76785 33.81909 
L 291.377797 52.83518 
L 291.987744 33.523872 
L 292.597692 30.276704 
L 293.207639 40.243587 
L 293.817586 34.636076 
L 294.427533 31.443191 
L 295.03748 34.948073 
L 295.647427 28.704312 
L 296.257375 29.460638 
L 296.867322 25.257293 
L 297.477269 23.631949 
L 298.087216 25.55214 
L 298.697163 33.174794 
L 299.30711 27.016002 
L 299.917058 24.440067 
L 300.527005 24.996724 
L 301.746899 31.37833 
L 302.356846 27.084406 
L 302.966793 30.786322 
L 303.576741 33.179302 
L 304.186688 34.705034 
L 304.796635 25.933248 
L 305.406582 33.84883 
L 306.016529 36.777511 
L 306.626476 37.279279 
L 307.236424 23.667455 
L 307.846371 20.714675 
L 308.456318 25.386207 
L 309.066265 24.49251 
L 309.676212 32.332837 
L 310.286159 23.362635 
L 310.896107 25.518316 
L 311.506054 32.647308 
L 312.116001 23.873017 
L 313.335895 35.377001 
L 313.945842 27.627502 
L 314.55579 27.227509 
L 315.165737 33.919999 
L 315.775684 25.079599 
L 316.385631 32.662499 
L 316.995578 28.911723 
L 317.605525 39.870861 
L 318.82542 20.924531 
L 319.435367 28.528761 
L 320.045314 33.618335 
L 320.655261 45.201483 
L 321.265208 28.743046 
L 321.875156 25.099625 
L 322.485103 32.344749 
L 323.09505 23.594714 
L 323.704997 23.980472 
L 324.314944 23.668253 
L 324.924891 23.848165 
L 325.534839 28.547742 
L 326.144786 24.890873 
L 326.754733 28.660799 
L 327.36468 29.227487 
L 327.974627 38.676404 
L 328.584574 27.099214 
L 329.194522 24.455291 
L 329.804469 24.947695 
L 330.414416 26.15725 
L 331.024363 25.849582 
L 331.63431 25.959184 
L 332.244257 27.877472 
L 332.854205 32.530703 
L 333.464152 38.797129 
L 334.074099 33.312578 
L 334.684046 25.91316 
L 335.293993 25.726838 
L 335.90394 23.088831 
L 336.513888 23.645909 
L 337.123835 20.545361 
L 337.733782 23.513961 
L 338.343729 34.129612 
L 338.953676 22.034863 
L 339.563623 22.42486 
L 340.173571 28.158452 
L 340.783518 29.059672 
L 341.393465 41.723716 
L 342.003412 28.52667 
L 342.613359 24.969475 
L 343.223306 24.98398 
L 343.833254 25.86934 
L 344.443201 20.522402 
L 345.053148 26.782106 
L 345.663095 24.831739 
L 346.273042 26.408763 
L 346.88299 32.786266 
L 347.492937 23.003265 
L 348.102884 28.123171 
L 348.712831 36.665361 
L 349.322778 28.3221 
L 349.932725 23.063155 
L 350.542673 22.756069 
L 351.15262 21.892218 
L 351.762567 23.0749 
L 352.372514 34.803579 
L 352.982461 33.205358 
L 353.592408 22.098499 
L 354.202356 32.9019 
L 354.812303 31.820059 
L 355.42225 30.018737 
L 356.032197 37.1073 
L 356.642144 37.81586 
L 357.252091 35.752755 
L 357.862039 30.314294 
L 358.471986 22.433975 
L 359.081933 31.982559 
L 359.69188 24.92432 
L 360.301827 40.400391 
L 360.911774 30.616663 
L 361.521722 24.734203 
L 362.131669 28.62771 
L 362.741616 23.410036 
L 363.351563 26.463157 
L 363.96151 25.158154 
L 364.571457 18.529046 
L 365.181405 22.545502 
L 365.791352 20.823092 
L 366.401299 33.199317 
L 367.011246 37.548016 
L 367.621193 26.809382 
L 367.621193 26.809382 
" clip-path="url(#p0bf42d5872)" style="fill: none; stroke-dasharray: 3.7,1.6; stroke-dashoffset: 0; stroke: #000000"/>
   </g>
   <g id="patch_3">
    <path d="M 48.039375 253.08 
L 48.039375 3.6 
" style="fill: none; stroke: #000000; stroke-width: 0.5; stroke-linejoin: miter; stroke-linecap: square"/>
   </g>
   <g id="patch_4">
    <path d="M 382.839375 253.08 
L 382.839375 3.6 
" style="fill: none; stroke: #000000; stroke-width: 0.5; stroke-linejoin: miter; stroke-linecap: square"/>
   </g>
   <g id="patch_5">
    <path d="M 48.039375 253.08 
L 382.839375 253.08 
" style="fill: none; stroke: #000000; stroke-width: 0.5; stroke-linejoin: miter; stroke-linecap: square"/>
   </g>
   <g id="patch_6">
    <path d="M 48.039375 3.6 
L 382.839375 3.6 
" style="fill: none; stroke: #000000; stroke-width: 0.5; stroke-linejoin: miter; stroke-linecap: square"/>
   </g>
   <g id="legend_1">
    <g id="patch_7">
     <path d="M 156.53625 247.08 
L 274.3425 247.08 
Q 276.7425 247.08 276.7425 244.68 
L 276.7425 193.03875 
Q 276.7425 190.63875 274.3425 190.63875 
L 156.53625 190.63875 
Q 154.13625 190.63875 154.13625 193.03875 
L 154.13625 244.68 
Q 154.13625 247.08 156.53625 247.08 
z
" style="fill: #ffffff; opacity: 0.8; stroke: #cccccc; stroke-linejoin: miter"/>
    </g>
    <g id="line2d_147">
     <path d="M 158.93625 200.356875 
L 170.93625 200.356875 
L 182.93625 200.356875 
" style="fill: none; stroke: #000000; stroke-linecap: square"/>
    </g>
    <g id="text_17">
     <!-- Max fitness -->
     <g transform="translate(192.53625 204.556875) scale(0.12 -0.12)">
      <defs>
       <path id="DejaVuSans-4d" d="M 628 4666 
L 1569 4666 
L 2759 1491 
L 3956 4666 
L 4897 4666 
L 4897 0 
L 4281 0 
L 4281 4097 
L 3078 897 
L 2444 897 
L 1241 4097 
L 1241 0 
L 628 0 
L 628 4666 
z
" transform="scale(0.015625)"/>
       <path id="DejaVuSans-78" d="M 3513 3500 
L 2247 1797 
L 3578 0 
L 2900 0 
L 1881 1375 
L 863 0 
L 184 0 
L 1544 1831 
L 300 3500 
L 978 3500 
L 1906 2253 
L 2834 3500 
L 3513 3500 
z
" transform="scale(0.015625)"/>
       <path id="DejaVuSans-20" transform="scale(0.015625)"/>
       <path id="DejaVuSans-66" d="M 2375 4863 
L 2375 4384 
L 1825 4384 
Q 1516 4384 1395 4259 
Q 1275 4134 1275 3809 
L 1275 3500 
L 2222 3500 
L 2222 3053 
L 1275 3053 
L 1275 0 
L 697 0 
L 697 3053 
L 147 3053 
L 147 3500 
L 697 3500 
L 697 3744 
Q 697 4328 969 4595 
Q 1241 4863 1831 4863 
L 2375 4863 
z
" transform="scale(0.015625)"/>
      </defs>
      <use xlink:href="#DejaVuSans-4d"/>
      <use xlink:href="#DejaVuSans-61" x="86.279297"/>
      <use xlink:href="#DejaVuSans-78" x="147.558594"/>
      <use xlink:href="#DejaVuSans-20" x="206.738281"/>
      <use xlink:href="#DejaVuSans-66" x="238.525391"/>
      <use xlink:href="#DejaVuSans-69" x="273.730469"/>
      <use xlink:href="#DejaVuSans-74" x="301.513672"/>
      <use xlink:href="#DejaVuSans-6e" x="340.722656"/>
      <use xlink:href="#DejaVuSans-65" x="404.101562"/>
      <use xlink:href="#DejaVuSans-73" x="465.625"/>
      <use xlink:href="#DejaVuSans-73" x="517.724609"/>
     </g>
    </g>
    <g id="patch_8">
     <path d="M 158.93625 222.170625 
L 182.93625 222.170625 
L 182.93625 213.770625 
L 158.93625 213.770625 
z
" style="fill: #0000ff; fill-opacity: 0.2; stroke: #0000ff; stroke-opacity: 0.2; stroke-linejoin: miter"/>
    </g>
    <g id="text_18">
     <!-- Top 90% -->
     <g transform="translate(192.53625 222.170625) scale(0.12 -0.12)">
      <defs>
       <path id="DejaVuSans-54" d="M -19 4666 
L 3928 4666 
L 3928 4134 
L 2272 4134 
L 2272 0 
L 1638 0 
L 1638 4134 
L -19 4134 
L -19 4666 
z
" transform="scale(0.015625)"/>
       <path id="DejaVuSans-70" d="M 1159 525 
L 1159 -1331 
L 581 -1331 
L 581 3500 
L 1159 3500 
L 1159 2969 
Q 1341 3281 1617 3432 
Q 1894 3584 2278 3584 
Q 2916 3584 3314 3078 
Q 3713 2572 3713 1747 
Q 3713 922 3314 415 
Q 2916 -91 2278 -91 
Q 1894 -91 1617 61 
Q 1341 213 1159 525 
z
M 3116 1747 
Q 3116 2381 2855 2742 
Q 2594 3103 2138 3103 
Q 1681 3103 1420 2742 
Q 1159 2381 1159 1747 
Q 1159 1113 1420 752 
Q 1681 391 2138 391 
Q 2594 391 2855 752 
Q 3116 1113 3116 1747 
z
" transform="scale(0.015625)"/>
       <path id="DejaVuSans-39" d="M 703 97 
L 703 672 
Q 941 559 1184 500 
Q 1428 441 1663 441 
Q 2288 441 2617 861 
Q 2947 1281 2994 2138 
Q 2813 1869 2534 1725 
Q 2256 1581 1919 1581 
Q 1219 1581 811 2004 
Q 403 2428 403 3163 
Q 403 3881 828 4315 
Q 1253 4750 1959 4750 
Q 2769 4750 3195 4129 
Q 3622 3509 3622 2328 
Q 3622 1225 3098 567 
Q 2575 -91 1691 -91 
Q 1453 -91 1209 -44 
Q 966 3 703 97 
z
M 1959 2075 
Q 2384 2075 2632 2365 
Q 2881 2656 2881 3163 
Q 2881 3666 2632 3958 
Q 2384 4250 1959 4250 
Q 1534 4250 1286 3958 
Q 1038 3666 1038 3163 
Q 1038 2656 1286 2365 
Q 1534 2075 1959 2075 
z
" transform="scale(0.015625)"/>
       <path id="DejaVuSans-25" d="M 4653 2053 
Q 4381 2053 4226 1822 
Q 4072 1591 4072 1178 
Q 4072 772 4226 539 
Q 4381 306 4653 306 
Q 4919 306 5073 539 
Q 5228 772 5228 1178 
Q 5228 1588 5073 1820 
Q 4919 2053 4653 2053 
z
M 4653 2450 
Q 5147 2450 5437 2106 
Q 5728 1763 5728 1178 
Q 5728 594 5436 251 
Q 5144 -91 4653 -91 
Q 4153 -91 3862 251 
Q 3572 594 3572 1178 
Q 3572 1766 3864 2108 
Q 4156 2450 4653 2450 
z
M 1428 4353 
Q 1159 4353 1004 4120 
Q 850 3888 850 3481 
Q 850 3069 1003 2837 
Q 1156 2606 1428 2606 
Q 1700 2606 1854 2837 
Q 2009 3069 2009 3481 
Q 2009 3884 1853 4118 
Q 1697 4353 1428 4353 
z
M 4250 4750 
L 4750 4750 
L 1831 -91 
L 1331 -91 
L 4250 4750 
z
M 1428 4750 
Q 1922 4750 2215 4408 
Q 2509 4066 2509 3481 
Q 2509 2891 2217 2550 
Q 1925 2209 1428 2209 
Q 931 2209 642 2551 
Q 353 2894 353 3481 
Q 353 4063 643 4406 
Q 934 4750 1428 4750 
z
" transform="scale(0.015625)"/>
      </defs>
      <use xlink:href="#DejaVuSans-54"/>
      <use xlink:href="#DejaVuSans-6f" x="44.083984"/>
      <use xlink:href="#DejaVuSans-70" x="105.265625"/>
      <use xlink:href="#DejaVuSans-20" x="168.742188"/>
      <use xlink:href="#DejaVuSans-39" x="200.529297"/>
      <use xlink:href="#DejaVuSans-30" x="264.152344"/>
      <use xlink:href="#DejaVuSans-25" x="327.775391"/>
     </g>
    </g>
    <g id="line2d_148">
     <path d="M 158.93625 235.584375 
L 170.93625 235.584375 
L 182.93625 235.584375 
" style="fill: none; stroke-dasharray: 3.7,1.6; stroke-dashoffset: 0; stroke: #000000"/>
    </g>
    <g id="text_19">
     <!-- Fitness mean -->
     <g transform="translate(192.53625 239.784375) scale(0.12 -0.12)">
      <defs>
       <path id="DejaVuSans-6d" d="M 3328 2828 
Q 3544 3216 3844 3400 
Q 4144 3584 4550 3584 
Q 5097 3584 5394 3201 
Q 5691 2819 5691 2113 
L 5691 0 
L 5113 0 
L 5113 2094 
Q 5113 2597 4934 2840 
Q 4756 3084 4391 3084 
Q 3944 3084 3684 2787 
Q 3425 2491 3425 1978 
L 3425 0 
L 2847 0 
L 2847 2094 
Q 2847 2600 2669 2842 
Q 2491 3084 2119 3084 
Q 1678 3084 1418 2786 
Q 1159 2488 1159 1978 
L 1159 0 
L 581 0 
L 581 3500 
L 1159 3500 
L 1159 2956 
Q 1356 3278 1631 3431 
Q 1906 3584 2284 3584 
Q 2666 3584 2933 3390 
Q 3200 3197 3328 2828 
z
" transform="scale(0.015625)"/>
      </defs>
      <use xlink:href="#DejaVuSans-46"/>
      <use xlink:href="#DejaVuSans-69" x="50.269531"/>
      <use xlink:href="#DejaVuSans-74" x="78.052734"/>
      <use xlink:href="#DejaVuSans-6e" x="117.261719"/>
      <use xlink:href="#DejaVuSans-65" x="180.640625"/>
      <use xlink:href="#DejaVuSans-73" x="242.164062"/>
      <use xlink:href="#DejaVuSans-73" x="294.263672"/>
      <use xlink:href="#DejaVuSans-20" x="346.363281"/>
      <use xlink:href="#DejaVuSans-6d" x="378.150391"/>
      <use xlink:href="#DejaVuSans-65" x="475.5625"/>
      <use xlink:href="#DejaVuSans-61" x="537.085938"/>
      <use xlink:href="#DejaVuSans-6e" x="598.365234"/>
     </g>
    </g>
   </g>
  </g>
 </g>
 <defs>
  <clipPath id="p0bf42d5872">
   <rect x="48.039375" y="3.6" width="334.8" height="249.48"/>
  </clipPath>
 </defs>
</svg>
