<?xml version="1.0" encoding="utf-8" standalone="no"?>
<!DOCTYPE svg PUBLIC "-//W3C//DTD SVG 1.1//EN"
  "http://www.w3.org/Graphics/SVG/1.1/DTD/svg11.dtd">
<svg xmlns:xlink="http://www.w3.org/1999/xlink" width="386.439375pt" height="287.4075pt" viewBox="0 0 386.439375 287.4075" xmlns="http://www.w3.org/2000/svg" version="1.1">
 <metadata>
  <rdf:RDF xmlns:dc="http://purl.org/dc/elements/1.1/" xmlns:cc="http://creativecommons.org/ns#" xmlns:rdf="http://www.w3.org/1999/02/22-rdf-syntax-ns#">
   <cc:Work>
    <dc:type rdf:resource="http://purl.org/dc/dcmitype/StillImage"/>
    <dc:date>2024-06-04T10:28:46.923537</dc:date>
    <dc:format>image/svg+xml</dc:format>
    <dc:creator>
     <cc:Agent>
      <dc:title>Matplotlib v3.9.0, https://matplotlib.org/</dc:title>
     </cc:Agent>
    </dc:creator>
   </cc:Work>
  </rdf:RDF>
 </metadata>
 <defs>
  <style type="text/css">*{stroke-linejoin: round; stroke-linecap: butt}</style>
 </defs>
 <g id="figure_1">
  <g id="patch_1">
   <path d="M 0 287.4075 
L 386.439375 287.4075 
L 386.439375 0 
L 0 0 
z
" style="fill: #ffffff"/>
  </g>
  <g id="axes_1">
   <g id="patch_2">
    <path d="M 48.039375 253.08 
L 382.839375 253.08 
L 382.839375 3.6 
L 48.039375 3.6 
z
" style="fill: #ffffff"/>
   </g>
   <g id="PolyCollection_1">
    <defs>
     <path id="m8d8c986ab3" d="M 63.257557 -250.586442 
L 63.257557 -45.6675 
L 63.867504 -114.604198 
L 64.477451 -106.610748 
L 65.087398 -130.301482 
L 65.697345 -106.600013 
L 66.307293 -116.454851 
L 66.91724 -62.612091 
L 67.527187 -123.663963 
L 68.137134 -137.742364 
L 68.747081 -153.966848 
L 69.357028 -153.299293 
L 69.966976 -165.363909 
L 70.576923 -162.845601 
L 71.18687 -170.670171 
L 71.796817 -164.387069 
L 72.406764 -173.456146 
L 73.016711 -173.631574 
L 73.626659 -173.631574 
L 74.236606 -173.611336 
L 74.846553 -176.997673 
L 75.4565 -178.301043 
L 76.066447 -175.283451 
L 76.676394 -180.623514 
L 77.286342 -217.374105 
L 77.896289 -207.965119 
L 78.506236 -179.739287 
L 79.116183 -223.167324 
L 79.72613 -225.790721 
L 80.336077 -246.363176 
L 80.946025 -243.978808 
L 81.555972 -246.130347 
L 82.165919 -247.361636 
L 82.775866 -248.950756 
L 83.385813 -247.576962 
L 83.99576 -248.663864 
L 84.605708 -248.663884 
L 85.215655 -250.456215 
L 85.825602 -249.982807 
L 86.435549 -250.328865 
L 87.045496 -250.710058 
L 87.655444 -251.990545 
L 88.265391 -253.995579 
L 88.875338 -252.803432 
L 89.485285 -254.013537 
L 90.095232 -254.822006 
L 90.705179 -254.679576 
L 91.315127 -254.660846 
L 91.925074 -255.799346 
L 92.535021 -256.922556 
L 93.144968 -256.922579 
L 93.754915 -255.985628 
L 94.364862 -254.968569 
L 94.97481 -254.864219 
L 95.584757 -254.506403 
L 96.194704 -254.506459 
L 96.804651 -253.717119 
L 97.414598 -254.498998 
L 98.024545 -254.506443 
L 98.634493 -255.339475 
L 99.24444 -253.776408 
L 99.854387 -253.77644 
L 100.464334 -255.980786 
L 101.074281 -254.506464 
L 101.684228 -256.431708 
L 102.294176 -257.07534 
L 102.904123 -257.956464 
L 103.51407 -261.36443 
L 104.124017 -261.45931 
L 104.733964 -255.763482 
L 105.343911 -260.45214 
L 105.953859 -258.805647 
L 106.563806 -259.768323 
L 107.173753 -260.119735 
L 107.7837 -256.626048 
L 108.393647 -260.567019 
L 109.003594 -258.640794 
L 109.613542 -258.640847 
L 110.223489 -258.896175 
L 110.833436 -260.731214 
L 111.443383 -260.699343 
L 112.05333 -260.700779 
L 112.663277 -261.849972 
L 113.273225 -264.685097 
L 113.883172 -263.662531 
L 114.493119 -260.759465 
L 115.103066 -263.729092 
L 115.713013 -260.91926 
L 116.32296 -257.496785 
L 116.932908 -260.984621 
L 117.542855 -260.125712 
L 118.152802 -259.732973 
L 118.762749 -259.939974 
L 119.372696 -255.305386 
L 119.982643 -262.916629 
L 120.592591 -260.8458 
L 121.202538 -260.720194 
L 121.812485 -261.8494 
L 122.422432 -263.339097 
L 123.032379 -260.516761 
L 123.642326 -260.001888 
L 124.252274 -260.430924 
L 124.862221 -260.516659 
L 125.472168 -261.080475 
L 126.082115 -258.487333 
L 126.692062 -256.488692 
L 127.302009 -260.392129 
L 127.911957 -260.392181 
L 128.521904 -255.856044 
L 129.131851 -252.140716 
L 129.741798 -256.595601 
L 130.351745 -258.185525 
L 130.961692 -256.122582 
L 131.57164 -258.190515 
L 132.181587 -258.001566 
L 132.791534 -259.416733 
L 133.401481 -258.005349 
L 134.011428 -258.020075 
L 134.621375 -260.175915 
L 135.231323 -259.97651 
L 135.84127 -258.005479 
L 136.451217 -260.751041 
L 137.061164 -260.454206 
L 137.671111 -260.723736 
L 138.281058 -259.009212 
L 138.891006 -260.88033 
L 139.500953 -262.078424 
L 140.1109 -263.167522 
L 140.720847 -261.53754 
L 141.330794 -260.953832 
L 141.940741 -259.528922 
L 142.550689 -261.537083 
L 143.160636 -260.645131 
L 143.770583 -262.778669 
L 144.38053 -264.029727 
L 144.990477 -266.061014 
L 145.600424 -266.386257 
L 146.210372 -266.835919 
L 146.820319 -266.746445 
L 147.430266 -266.384263 
L 148.040213 -266.527101 
L 148.65016 -266.384257 
L 149.260107 -266.573134 
L 149.870055 -264.693053 
L 150.480002 -262.69495 
L 151.089949 -262.9629 
L 151.699896 -258.760721 
L 152.309843 -258.760521 
L 152.91979 -257.16401 
L 153.529738 -257.088558 
L 154.139685 -257.73492 
L 154.749632 -250.530004 
L 155.359579 -251.031052 
L 155.969526 -251.017388 
L 156.579473 -256.430423 
L 157.189421 -257.566105 
L 157.799368 -259.020166 
L 158.409315 -257.589692 
L 159.019262 -264.508164 
L 159.629209 -264.508164 
L 160.239156 -264.508121 
L 160.849104 -264.986498 
L 161.459051 -264.508117 
L 162.068998 -263.551448 
L 162.678945 -261.479461 
L 163.288892 -262.541549 
L 163.898839 -264.986507 
L 164.508787 -266.233959 
L 165.118734 -267.54726 
L 165.728681 -262.017256 
L 166.338628 -259.864679 
L 166.948575 -261.124551 
L 167.558522 -264.556924 
L 168.16847 -264.854741 
L 168.778417 -266.327209 
L 169.388364 -259.23104 
L 169.998311 -260.055711 
L 170.608258 -264.050066 
L 171.218205 -263.899299 
L 171.828153 -264.806002 
L 172.4381 -266.655925 
L 173.048047 -269.145459 
L 173.657994 -264.918094 
L 174.267941 -268.965662 
L 174.877888 -268.965666 
L 175.487836 -262.735191 
L 176.097783 -264.045384 
L 176.70773 -262.593516 
L 177.317677 -258.484353 
L 177.927624 -257.17185 
L 178.537571 -256.300195 
L 179.147519 -253.07133 
L 179.757466 -259.397142 
L 180.367413 -258.323684 
L 180.97736 -260.746657 
L 181.587307 -260.42413 
L 182.197254 -255.866443 
L 182.807202 -259.251404 
L 183.417149 -261.479601 
L 184.027096 -260.51198 
L 184.637043 -259.470684 
L 185.24699 -258.863096 
L 185.856937 -259.736369 
L 186.466885 -260.409412 
L 187.076832 -266.300036 
L 187.686779 -266.267573 
L 188.296726 -264.430753 
L 188.906673 -266.68501 
L 189.51662 -263.146403 
L 190.126568 -258.922876 
L 190.736515 -266.08467 
L 191.346462 -264.010968 
L 191.956409 -262.519515 
L 192.566356 -264.955612 
L 193.176303 -265.089069 
L 193.786251 -264.137681 
L 194.396198 -264.137665 
L 195.006145 -264.137687 
L 195.616092 -263.340907 
L 196.226039 -262.608608 
L 196.835986 -262.483387 
L 197.445934 -260.779843 
L 198.055881 -262.424516 
L 198.665828 -258.11293 
L 199.275775 -258.11295 
L 199.885722 -263.600644 
L 200.495669 -255.013422 
L 201.105617 -255.945474 
L 201.715564 -255.013391 
L 202.325511 -256.106001 
L 202.935458 -259.564676 
L 203.545405 -261.306696 
L 204.155352 -261.659794 
L 204.7653 -262.413872 
L 205.375247 -262.413809 
L 205.985194 -262.413831 
L 206.595141 -261.428611 
L 207.205088 -261.458592 
L 207.815035 -263.376966 
L 208.424983 -262.413855 
L 209.03493 -262.413899 
L 209.644877 -263.077452 
L 210.254824 -258.917327 
L 210.864771 -261.908572 
L 211.474718 -262.646715 
L 212.084666 -262.950925 
L 212.694613 -262.75956 
L 213.30456 -262.12072 
L 213.914507 -262.360367 
L 214.524454 -259.726335 
L 215.134401 -259.152594 
L 215.744349 -260.1475 
L 216.354296 -261.704317 
L 216.964243 -259.932507 
L 217.57419 -261.06036 
L 218.184137 -264.713699 
L 218.794084 -259.952352 
L 219.404032 -259.894261 
L 220.013979 -262.651462 
L 220.623926 -264.03948 
L 221.233873 -264.272377 
L 221.84382 -262.650233 
L 222.453767 -261.893854 
L 223.063715 -259.693578 
L 223.673662 -261.893844 
L 224.283609 -261.611456 
L 224.893556 -261.706062 
L 225.503503 -261.146419 
L 226.11345 -257.989346 
L 226.723398 -261.085817 
L 227.333345 -256.912796 
L 227.943292 -258.086884 
L 228.553239 -262.250228 
L 229.163186 -265.431278 
L 229.773133 -266.369627 
L 230.383081 -267.715105 
L 230.993028 -267.097942 
L 231.602975 -264.754898 
L 232.212922 -264.754893 
L 232.822869 -264.754917 
L 233.432816 -264.754833 
L 234.042764 -264.754879 
L 234.652711 -263.485768 
L 235.262658 -262.424451 
L 235.872605 -262.424473 
L 236.482552 -257.365107 
L 237.092499 -260.816261 
L 237.702447 -261.068736 
L 238.312394 -264.27707 
L 238.922341 -266.559951 
L 239.532288 -261.82893 
L 240.142235 -258.675991 
L 240.752182 -260.924489 
L 241.36213 -262.721085 
L 241.972077 -262.921279 
L 242.582024 -265.068714 
L 243.191971 -266.801208 
L 243.801918 -265.024017 
L 244.411865 -259.422418 
L 245.021813 -259.560264 
L 245.63176 -263.97082 
L 246.241707 -265.687776 
L 246.851654 -266.008451 
L 247.461601 -266.008435 
L 248.071548 -265.349706 
L 248.681496 -265.02047 
L 249.291443 -265.942337 
L 249.90139 -266.644968 
L 250.511337 -265.349735 
L 251.121284 -263.339168 
L 251.731231 -266.94528 
L 252.341179 -265.175977 
L 252.951126 -263.26298 
L 253.561073 -261.222274 
L 254.17102 -250.715846 
L 254.780967 -253.876202 
L 255.390914 -253.876264 
L 256.000862 -253.063052 
L 256.610809 -251.21453 
L 257.220756 -256.742171 
L 257.830703 -261.326708 
L 258.44065 -259.670996 
L 259.050597 -258.763986 
L 259.660545 -260.588561 
L 260.270492 -261.189457 
L 260.880439 -264.553205 
L 261.490386 -264.312681 
L 262.100333 -263.629053 
L 262.71028 -265.244744 
L 263.320228 -265.244754 
L 263.930175 -263.88948 
L 264.540122 -260.314621 
L 265.150069 -264.58814 
L 265.760016 -265.431257 
L 266.369963 -265.033935 
L 266.979911 -264.557792 
L 267.589858 -264.588176 
L 268.199805 -265.769537 
L 268.809752 -265.586469 
L 269.419699 -266.698502 
L 270.029646 -266.698483 
L 270.639594 -266.808283 
L 271.249541 -266.531371 
L 271.859488 -265.700407 
L 272.469435 -266.834279 
L 273.079382 -261.138109 
L 273.689329 -261.926309 
L 274.299277 -261.437594 
L 274.909224 -261.419469 
L 275.519171 -265.122518 
L 276.129118 -264.198065 
L 276.739065 -263.51604 
L 277.349012 -262.584609 
L 277.95896 -259.861986 
L 278.568907 -261.403623 
L 279.178854 -260.789838 
L 279.788801 -259.374481 
L 280.398748 -260.46975 
L 281.008695 -265.636226 
L 281.618643 -262.807986 
L 282.22859 -259.158951 
L 282.838537 -257.32455 
L 283.448484 -258.530963 
L 284.058431 -259.353256 
L 284.668378 -259.39994 
L 285.278326 -253.969994 
L 285.888273 -260.229794 
L 286.49822 -260.573015 
L 287.108167 -261.821913 
L 287.718114 -261.821968 
L 288.328061 -260.111965 
L 288.938009 -262.344399 
L 289.547956 -262.344394 
L 290.157903 -263.607162 
L 290.76785 -263.476726 
L 291.377797 -264.350173 
L 291.987744 -259.592034 
L 292.597692 -258.128116 
L 293.207639 -261.982731 
L 293.817586 -262.034248 
L 294.427533 -261.997708 
L 295.03748 -262.820033 
L 295.647427 -263.462054 
L 296.257375 -264.439194 
L 296.867322 -264.776279 
L 297.477269 -265.306983 
L 298.087216 -265.767546 
L 298.697163 -265.727647 
L 299.30711 -265.727638 
L 299.917058 -265.603733 
L 300.527005 -266.977714 
L 301.136952 -265.188104 
L 301.746899 -265.76708 
L 302.356846 -262.489875 
L 302.966793 -262.489899 
L 303.576741 -261.07719 
L 304.186688 -262.992269 
L 304.796635 -262.992252 
L 305.406582 -264.898157 
L 306.016529 -264.898119 
L 306.626476 -264.898159 
L 307.236424 -264.898139 
L 307.846371 -264.898072 
L 308.456318 -262.503089 
L 309.066265 -260.97915 
L 309.676212 -261.54006 
L 310.286159 -261.568106 
L 310.896107 -266.319101 
L 311.506054 -266.319229 
L 312.116001 -266.935402 
L 312.725948 -266.319138 
L 313.335895 -264.039574 
L 313.945842 -260.809099 
L 314.55579 -259.532371 
L 315.165737 -261.272554 
L 315.775684 -260.868867 
L 316.385631 -261.272573 
L 316.995578 -256.370742 
L 317.605525 -256.370706 
L 318.215473 -259.44542 
L 318.82542 -256.7379 
L 319.435367 -263.290254 
L 320.045314 -264.413832 
L 320.655261 -265.549643 
L 321.265208 -266.472958 
L 321.875156 -265.753645 
L 322.485103 -264.938019 
L 323.09505 -264.938011 
L 323.704997 -266.41764 
L 324.314944 -266.472926 
L 324.924891 -264.124623 
L 325.534839 -263.601213 
L 326.144786 -263.648671 
L 326.754733 -263.648744 
L 327.36468 -261.690876 
L 327.974627 -261.422474 
L 328.584574 -261.146907 
L 329.194522 -260.878358 
L 329.804469 -260.731001 
L 330.414416 -260.799687 
L 331.024363 -262.854775 
L 331.63431 -263.688461 
L 332.244257 -261.974129 
L 332.854205 -260.731016 
L 333.464152 -260.99524 
L 334.074099 -260.985704 
L 334.684046 -260.730991 
L 335.293993 -262.599259 
L 335.90394 -264.056638 
L 336.513888 -262.828878 
L 337.123835 -262.212447 
L 337.733782 -260.062575 
L 338.343729 -257.729785 
L 338.953676 -259.245499 
L 339.563623 -260.922718 
L 340.173571 -260.548425 
L 340.783518 -263.825131 
L 341.393465 -262.470533 
L 342.003412 -266.285979 
L 342.613359 -266.285915 
L 343.223306 -266.224334 
L 343.833254 -266.54187 
L 344.443201 -264.743961 
L 345.053148 -264.743895 
L 345.663095 -264.6575 
L 346.273042 -265.040287 
L 346.88299 -264.514875 
L 347.492937 -266.612943 
L 348.102884 -265.965157 
L 348.712831 -260.605181 
L 349.322778 -261.073146 
L 349.932725 -263.35735 
L 350.542673 -259.274387 
L 351.15262 -262.178953 
L 351.762567 -263.301132 
L 352.372514 -266.505685 
L 352.982461 -266.567052 
L 353.592408 -268.301152 
L 354.202356 -267.227448 
L 354.812303 -262.734028 
L 355.42225 -265.13113 
L 356.032197 -266.705662 
L 356.642144 -267.721756 
L 357.252091 -268.047841 
L 357.862039 -268.541234 
L 358.471986 -264.942025 
L 359.081933 -264.941984 
L 359.69188 -264.998367 
L 360.301827 -266.477545 
L 360.911774 -264.941972 
L 361.521722 -264.528971 
L 362.131669 -265.613092 
L 362.741616 -264.596267 
L 363.351563 -264.425056 
L 363.96151 -264.569528 
L 364.571457 -263.371974 
L 365.181405 -264.96915 
L 365.791352 -266.753492 
L 366.401299 -264.999035 
L 367.011246 -257.364712 
L 367.621193 -256.947167 
L 367.621193 -272.467476 
L 367.621193 -272.467476 
L 367.011246 -272.4675 
L 366.401299 -272.467433 
L 365.791352 -272.467465 
L 365.181405 -272.46749 
L 364.571457 -272.467421 
L 363.96151 -272.46739 
L 363.351563 -272.467173 
L 362.741616 -272.467295 
L 362.131669 -272.467169 
L 361.521722 -272.467163 
L 360.911774 -272.467177 
L 360.301827 -272.46728 
L 359.69188 -272.467162 
L 359.081933 -272.467162 
L 358.471986 -272.467192 
L 357.862039 -272.467166 
L 357.252091 -272.467186 
L 356.642144 -272.467171 
L 356.032197 -272.46717 
L 355.42225 -272.467167 
L 354.812303 -272.467166 
L 354.202356 -272.467135 
L 353.592408 -272.467134 
L 352.982461 -272.467129 
L 352.372514 -272.467175 
L 351.762567 -272.467136 
L 351.15262 -272.228255 
L 350.542673 -272.228258 
L 349.932725 -272.228257 
L 349.322778 -272.228261 
L 348.712831 -272.228257 
L 348.102884 -272.228258 
L 347.492937 -272.228245 
L 346.88299 -272.228238 
L 346.273042 -272.228246 
L 345.663095 -272.228251 
L 345.053148 -272.228259 
L 344.443201 -272.228247 
L 343.833254 -272.22826 
L 343.223306 -272.228246 
L 342.613359 -272.22826 
L 342.003412 -272.22825 
L 341.393465 -272.228224 
L 340.783518 -272.228132 
L 340.173571 -272.161743 
L 339.563623 -272.161739 
L 338.953676 -272.161694 
L 338.343729 -272.161712 
L 337.733782 -272.161635 
L 337.123835 -272.140986 
L 336.513888 -272.141006 
L 335.90394 -272.140957 
L 335.293993 -272.140978 
L 334.684046 -272.140984 
L 334.074099 -272.093848 
L 333.464152 -272.078091 
L 332.854205 -272.078064 
L 332.244257 -272.077997 
L 331.63431 -272.078049 
L 331.024363 -272.070799 
L 330.414416 -272.070822 
L 329.804469 -272.07082 
L 329.194522 -272.070876 
L 328.584574 -272.070855 
L 327.974627 -272.070827 
L 327.36468 -272.070794 
L 326.754733 -272.070814 
L 326.144786 -272.070817 
L 325.534839 -272.070746 
L 324.924891 -272.070773 
L 324.314944 -272.070712 
L 323.704997 -272.070752 
L 323.09505 -272.070751 
L 322.485103 -272.066729 
L 321.875156 -272.066736 
L 321.265208 -272.066739 
L 320.655261 -272.066732 
L 320.045314 -272.066722 
L 319.435367 -272.066721 
L 318.82542 -272.066716 
L 318.215473 -272.066725 
L 317.605525 -272.066727 
L 316.995578 -272.066724 
L 316.385631 -272.066707 
L 315.775684 -272.066742 
L 315.165737 -272.066722 
L 314.55579 -272.066742 
L 313.945842 -272.06671 
L 313.335895 -272.066719 
L 312.725948 -272.066738 
L 312.116001 -272.066737 
L 311.506054 -272.066724 
L 310.896107 -272.066728 
L 310.286159 -272.066724 
L 309.676212 -272.066743 
L 309.066265 -272.066739 
L 308.456318 -272.066726 
L 307.846371 -272.066723 
L 307.236424 -272.06672 
L 306.626476 -272.066735 
L 306.016529 -272.066745 
L 305.406582 -272.066728 
L 304.796635 -272.066741 
L 304.186688 -272.066725 
L 303.576741 -272.066743 
L 302.966793 -272.06672 
L 302.356846 -272.066731 
L 301.746899 -272.066731 
L 301.136952 -272.066713 
L 300.527005 -272.06673 
L 299.917058 -272.066711 
L 299.30711 -272.066716 
L 298.697163 -272.066745 
L 298.087216 -272.066738 
L 297.477269 -272.066721 
L 296.867322 -272.066707 
L 296.257375 -272.066726 
L 295.647427 -272.066727 
L 295.03748 -272.066717 
L 294.427533 -272.066717 
L 293.817586 -272.066715 
L 293.207639 -272.066701 
L 292.597692 -272.066624 
L 291.987744 -272.006301 
L 291.377797 -272.006312 
L 290.76785 -272.006331 
L 290.157903 -272.006317 
L 289.547956 -272.006334 
L 288.938009 -272.0063 
L 288.328061 -272.006309 
L 287.718114 -272.006308 
L 287.108167 -272.006259 
L 286.49822 -272.006257 
L 285.888273 -272.006261 
L 285.278326 -271.836815 
L 284.668378 -271.836816 
L 284.058431 -271.836796 
L 283.448484 -271.836734 
L 282.838537 -271.83678 
L 282.22859 -271.836771 
L 281.618643 -271.836793 
L 281.008695 -271.836771 
L 280.398748 -271.836803 
L 279.788801 -271.836815 
L 279.178854 -271.836802 
L 278.568907 -271.836821 
L 277.95896 -271.836771 
L 277.349012 -271.836803 
L 276.739065 -271.836812 
L 276.129118 -271.836818 
L 275.519171 -271.836809 
L 274.909224 -271.836803 
L 274.299277 -271.836793 
L 273.689329 -271.836818 
L 273.079382 -271.8368 
L 272.469435 -271.836815 
L 271.859488 -271.836816 
L 271.249541 -271.836787 
L 270.639594 -271.836816 
L 270.029646 -271.836816 
L 269.419699 -271.83682 
L 268.809752 -271.836775 
L 268.199805 -271.836816 
L 267.589858 -271.836799 
L 266.979911 -271.836806 
L 266.369963 -271.83676 
L 265.760016 -271.836744 
L 265.150069 -271.836795 
L 264.540122 -271.836738 
L 263.930175 -271.836709 
L 263.320228 -271.836716 
L 262.71028 -271.836754 
L 262.100333 -271.83678 
L 261.490386 -271.836732 
L 260.880439 -271.836669 
L 260.270492 -271.408265 
L 259.660545 -271.40827 
L 259.050597 -271.408259 
L 258.44065 -271.408232 
L 257.830703 -271.408244 
L 257.220756 -271.408244 
L 256.610809 -271.306324 
L 256.000862 -271.306249 
L 255.390914 -271.306239 
L 254.780967 -271.306282 
L 254.17102 -271.306253 
L 253.561073 -271.306287 
L 252.951126 -271.306289 
L 252.341179 -271.306228 
L 251.731231 -271.306293 
L 251.121284 -271.306205 
L 250.511337 -271.306252 
L 249.90139 -271.306259 
L 249.291443 -271.306239 
L 248.681496 -271.30635 
L 248.071548 -271.306221 
L 247.461601 -271.306233 
L 246.851654 -271.30633 
L 246.241707 -271.306354 
L 245.63176 -271.306277 
L 245.021813 -271.306287 
L 244.411865 -271.306209 
L 243.801918 -271.306303 
L 243.191971 -271.306292 
L 242.582024 -271.306281 
L 241.972077 -271.30623 
L 241.36213 -271.306342 
L 240.752182 -271.306258 
L 240.142235 -271.306205 
L 239.532288 -271.306211 
L 238.922341 -271.306249 
L 238.312394 -271.306203 
L 237.702447 -271.306334 
L 237.092499 -271.306153 
L 236.482552 -271.306143 
L 235.872605 -271.306171 
L 235.262658 -271.306213 
L 234.652711 -271.306164 
L 234.042764 -271.3062 
L 233.432816 -271.306233 
L 232.822869 -271.306132 
L 232.212922 -271.177549 
L 231.602975 -271.177551 
L 230.993028 -271.177548 
L 230.383081 -271.177552 
L 229.773133 -271.177551 
L 229.163186 -271.177552 
L 228.553239 -271.17755 
L 227.943292 -271.177553 
L 227.333345 -271.177546 
L 226.723398 -271.177548 
L 226.11345 -271.177552 
L 225.503503 -271.177551 
L 224.893556 -271.177545 
L 224.283609 -271.177549 
L 223.673662 -271.177553 
L 223.063715 -271.177549 
L 222.453767 -271.177545 
L 221.84382 -271.177551 
L 221.233873 -271.177551 
L 220.623926 -271.17755 
L 220.013979 -271.177551 
L 219.404032 -271.177549 
L 218.794084 -271.177548 
L 218.184137 -271.177549 
L 217.57419 -271.177544 
L 216.964243 -271.177547 
L 216.354296 -271.177552 
L 215.744349 -271.177552 
L 215.134401 -271.177551 
L 214.524454 -271.17754 
L 213.914507 -271.177551 
L 213.30456 -271.177552 
L 212.694613 -271.177552 
L 212.084666 -271.177545 
L 211.474718 -271.177532 
L 210.864771 -271.177552 
L 210.254824 -271.17755 
L 209.644877 -271.177551 
L 209.03493 -271.177499 
L 208.424983 -271.17749 
L 207.815035 -271.177537 
L 207.205088 -271.177429 
L 206.595141 -271.133545 
L 205.985194 -271.133544 
L 205.375247 -271.133548 
L 204.7653 -271.13355 
L 204.155352 -271.133543 
L 203.545405 -271.13354 
L 202.935458 -271.133541 
L 202.325511 -271.133547 
L 201.715564 -271.133541 
L 201.105617 -271.133542 
L 200.495669 -271.133537 
L 199.885722 -271.133545 
L 199.275775 -271.133544 
L 198.665828 -271.133542 
L 198.055881 -271.133545 
L 197.445934 -271.133535 
L 196.835986 -271.133548 
L 196.226039 -271.133545 
L 195.616092 -271.133538 
L 195.006145 -271.133543 
L 194.396198 -271.133538 
L 193.786251 -271.133551 
L 193.176303 -271.133539 
L 192.566356 -271.133547 
L 191.956409 -271.133548 
L 191.346462 -271.13354 
L 190.736515 -271.133535 
L 190.126568 -271.133539 
L 189.51662 -271.133547 
L 188.906673 -271.13354 
L 188.296726 -271.133536 
L 187.686779 -271.133531 
L 187.076832 -271.133532 
L 186.466885 -271.133516 
L 185.856937 -271.133527 
L 185.24699 -271.133524 
L 184.637043 -271.133538 
L 184.027096 -271.133513 
L 183.417149 -271.133485 
L 182.807202 -270.948432 
L 182.197254 -270.948392 
L 181.587307 -270.948402 
L 180.97736 -270.948363 
L 180.367413 -270.948222 
L 179.757466 -270.94837 
L 179.147519 -270.897234 
L 178.537571 -270.897232 
L 177.927624 -270.897221 
L 177.317677 -270.897207 
L 176.70773 -270.897174 
L 176.097783 -270.897063 
L 175.487836 -270.897129 
L 174.877888 -270.89718 
L 174.267941 -270.897236 
L 173.657994 -270.897 
L 173.048047 -270.896994 
L 172.4381 -270.897002 
L 171.828153 -270.896998 
L 171.218205 -270.896991 
L 170.608258 -270.897005 
L 169.998311 -270.896999 
L 169.388364 -270.896981 
L 168.778417 -270.896989 
L 168.16847 -270.897001 
L 167.558522 -270.897002 
L 166.948575 -270.897008 
L 166.338628 -270.896994 
L 165.728681 -270.896982 
L 165.118734 -270.896999 
L 164.508787 -270.896997 
L 163.898839 -270.896936 
L 163.288892 -270.896982 
L 162.678945 -270.896967 
L 162.068998 -270.896914 
L 161.459051 -270.896987 
L 160.849104 -270.896933 
L 160.239156 -270.896922 
L 159.629209 -270.779009 
L 159.019262 -270.778986 
L 158.409315 -270.765756 
L 157.799368 -270.765752 
L 157.189421 -270.755295 
L 156.579473 -270.7553 
L 155.969526 -270.7553 
L 155.359579 -270.755292 
L 154.749632 -270.755298 
L 154.139685 -270.755295 
L 153.529738 -270.75529 
L 152.91979 -270.755288 
L 152.309843 -270.755296 
L 151.699896 -270.755281 
L 151.089949 -270.744572 
L 150.480002 -270.744566 
L 149.870055 -270.744567 
L 149.260107 -270.744558 
L 148.65016 -270.744559 
L 148.040213 -270.744528 
L 147.430266 -270.587406 
L 146.820319 -270.587373 
L 146.210372 -270.58762 
L 145.600424 -270.524975 
L 144.990477 -270.524976 
L 144.38053 -270.524974 
L 143.770583 -270.524973 
L 143.160636 -270.52496 
L 142.550689 -270.524936 
L 141.940741 -270.524957 
L 141.330794 -270.524957 
L 140.720847 -270.524957 
L 140.1109 -270.524955 
L 139.500953 -270.524968 
L 138.891006 -270.524969 
L 138.281058 -270.524907 
L 137.671111 -269.830955 
L 137.061164 -269.830954 
L 136.451217 -269.830975 
L 135.84127 -269.830951 
L 135.231323 -269.830982 
L 134.621375 -269.83094 
L 134.011428 -269.83095 
L 133.401481 -269.830929 
L 132.791534 -269.830972 
L 132.181587 -269.830927 
L 131.57164 -269.830847 
L 130.961692 -269.830929 
L 130.351745 -269.830954 
L 129.741798 -269.830944 
L 129.131851 -269.830708 
L 128.521904 -269.830664 
L 127.911957 -269.830881 
L 127.302009 -269.058506 
L 126.692062 -269.05859 
L 126.082115 -268.989638 
L 125.472168 -268.989635 
L 124.862221 -268.989624 
L 124.252274 -268.989601 
L 123.642326 -268.989531 
L 123.032379 -268.989581 
L 122.422432 -267.487414 
L 121.812485 -267.487406 
L 121.202538 -267.437483 
L 120.592591 -267.437491 
L 119.982643 -267.437484 
L 119.372696 -267.437483 
L 118.762749 -267.437486 
L 118.152802 -267.437481 
L 117.542855 -267.437478 
L 116.932908 -267.43748 
L 116.32296 -267.437462 
L 115.713013 -267.437432 
L 115.103066 -267.437485 
L 114.493119 -267.437398 
L 113.883172 -267.437437 
L 113.273225 -267.378467 
L 112.663277 -267.31793 
L 112.05333 -267.317961 
L 111.443383 -267.317937 
L 110.833436 -267.201491 
L 110.223489 -267.105299 
L 109.613542 -267.076141 
L 109.003594 -267.076141 
L 108.393647 -266.802201 
L 107.7837 -266.802186 
L 107.173753 -266.802195 
L 106.563806 -266.802195 
L 105.953859 -266.80219 
L 105.343911 -266.802169 
L 104.733964 -266.802195 
L 104.124017 -266.802147 
L 103.51407 -266.802194 
L 102.904123 -266.802164 
L 102.294176 -266.440401 
L 101.684228 -266.192075 
L 101.074281 -266.124009 
L 100.464334 -266.124008 
L 99.854387 -266.124011 
L 99.24444 -266.124001 
L 98.634493 -266.124003 
L 98.024545 -266.124 
L 97.414598 -266.123984 
L 96.804651 -266.123977 
L 96.194704 -265.90368 
L 95.584757 -265.90368 
L 94.97481 -265.903687 
L 94.364862 -265.90367 
L 93.754915 -265.903663 
L 93.144968 -265.903648 
L 92.535021 -265.892078 
L 91.925074 -265.892213 
L 91.315127 -265.770819 
L 90.705179 -264.731765 
L 90.095232 -264.485396 
L 89.485285 -264.485387 
L 88.875338 -264.485333 
L 88.265391 -264.485359 
L 87.655444 -264.485267 
L 87.045496 -264.485365 
L 86.435549 -264.485266 
L 85.825602 -262.489426 
L 85.215655 -262.489483 
L 84.605708 -262.044944 
L 83.99576 -262.044951 
L 83.385813 -262.044948 
L 82.775866 -262.044958 
L 82.165919 -262.044935 
L 81.555972 -261.626493 
L 80.946025 -261.626478 
L 80.336077 -261.423143 
L 79.72613 -261.295631 
L 79.116183 -261.076474 
L 78.506236 -261.076466 
L 77.896289 -260.699099 
L 77.286342 -260.699101 
L 76.676394 -256.851252 
L 76.066447 -256.851284 
L 75.4565 -256.851245 
L 74.846553 -256.851229 
L 74.236606 -254.976436 
L 73.626659 -254.976464 
L 73.016711 -254.55004 
L 72.406764 -254.550044 
L 71.796817 -254.55003 
L 71.18687 -254.550048 
L 70.576923 -250.82047 
L 69.966976 -250.820462 
L 69.357028 -250.65582 
L 68.747081 -250.586431 
L 68.137134 -250.586448 
L 67.527187 -250.586423 
L 66.91724 -250.586447 
L 66.307293 -250.586406 
L 65.697345 -250.586412 
L 65.087398 -250.586443 
L 64.477451 -250.586488 
L 63.867504 -250.586473 
L 63.257557 -250.586442 
z
" style="stroke: #0000ff; stroke-opacity: 0.2"/>
    </defs>
    <g clip-path="url(#pddf0592e07)">
     <use xlink:href="#m8d8c986ab3" x="0" y="287.4075" style="fill: #0000ff; fill-opacity: 0.2; stroke: #0000ff; stroke-opacity: 0.2"/>
    </g>
   </g>
   <g id="matplotlib.axis_1">
    <g id="xtick_1">
     <g id="line2d_1">
      <path d="M 63.257557 253.08 
L 63.257557 3.6 
" clip-path="url(#pddf0592e07)" style="fill: none; stroke: #b0b0b0; stroke-width: 0.5; stroke-linecap: square"/>
     </g>
     <g id="line2d_2">
      <defs>
       <path id="m129882ff6f" d="M 0 0 
L 0 -3 
" style="stroke: #000000; stroke-width: 0.5"/>
      </defs>
      <g>
       <use xlink:href="#m129882ff6f" x="63.257557" y="253.08" style="stroke: #000000; stroke-width: 0.5"/>
      </g>
     </g>
     <g id="line2d_3">
      <defs>
       <path id="m47de5f9172" d="M 0 0 
L 0 3 
" style="stroke: #000000; stroke-width: 0.5"/>
      </defs>
      <g>
       <use xlink:href="#m47de5f9172" x="63.257557" y="3.6" style="stroke: #000000; stroke-width: 0.5"/>
      </g>
     </g>
     <g id="text_1">
      <!-- 0 -->
      <g transform="translate(59.440057 265.698125) scale(0.12 -0.12)">
       <defs>
        <path id="DejaVuSans-30" d="M 2034 4250 
Q 1547 4250 1301 3770 
Q 1056 3291 1056 2328 
Q 1056 1369 1301 889 
Q 1547 409 2034 409 
Q 2525 409 2770 889 
Q 3016 1369 3016 2328 
Q 3016 3291 2770 3770 
Q 2525 4250 2034 4250 
z
M 2034 4750 
Q 2819 4750 3233 4129 
Q 3647 3509 3647 2328 
Q 3647 1150 3233 529 
Q 2819 -91 2034 -91 
Q 1250 -91 836 529 
Q 422 1150 422 2328 
Q 422 3509 836 4129 
Q 1250 4750 2034 4750 
z
" transform="scale(0.015625)"/>
       </defs>
       <use xlink:href="#DejaVuSans-30"/>
      </g>
     </g>
    </g>
    <g id="xtick_2">
     <g id="line2d_4">
      <path d="M 124.252274 253.08 
L 124.252274 3.6 
" clip-path="url(#pddf0592e07)" style="fill: none; stroke: #b0b0b0; stroke-width: 0.5; stroke-linecap: square"/>
     </g>
     <g id="line2d_5">
      <g>
       <use xlink:href="#m129882ff6f" x="124.252274" y="253.08" style="stroke: #000000; stroke-width: 0.5"/>
      </g>
     </g>
     <g id="line2d_6">
      <g>
       <use xlink:href="#m47de5f9172" x="124.252274" y="3.6" style="stroke: #000000; stroke-width: 0.5"/>
      </g>
     </g>
     <g id="text_2">
      <!-- 100 -->
      <g transform="translate(112.799774 265.698125) scale(0.12 -0.12)">
       <defs>
        <path id="DejaVuSans-31" d="M 794 531 
L 1825 531 
L 1825 4091 
L 703 3866 
L 703 4441 
L 1819 4666 
L 2450 4666 
L 2450 531 
L 3481 531 
L 3481 0 
L 794 0 
L 794 531 
z
" transform="scale(0.015625)"/>
       </defs>
       <use xlink:href="#DejaVuSans-31"/>
       <use xlink:href="#DejaVuSans-30" x="63.623047"/>
       <use xlink:href="#DejaVuSans-30" x="127.246094"/>
      </g>
     </g>
    </g>
    <g id="xtick_3">
     <g id="line2d_7">
      <path d="M 185.24699 253.08 
L 185.24699 3.6 
" clip-path="url(#pddf0592e07)" style="fill: none; stroke: #b0b0b0; stroke-width: 0.5; stroke-linecap: square"/>
     </g>
     <g id="line2d_8">
      <g>
       <use xlink:href="#m129882ff6f" x="185.24699" y="253.08" style="stroke: #000000; stroke-width: 0.5"/>
      </g>
     </g>
     <g id="line2d_9">
      <g>
       <use xlink:href="#m47de5f9172" x="185.24699" y="3.6" style="stroke: #000000; stroke-width: 0.5"/>
      </g>
     </g>
     <g id="text_3">
      <!-- 200 -->
      <g transform="translate(173.79449 265.698125) scale(0.12 -0.12)">
       <defs>
        <path id="DejaVuSans-32" d="M 1228 531 
L 3431 531 
L 3431 0 
L 469 0 
L 469 531 
Q 828 903 1448 1529 
Q 2069 2156 2228 2338 
Q 2531 2678 2651 2914 
Q 2772 3150 2772 3378 
Q 2772 3750 2511 3984 
Q 2250 4219 1831 4219 
Q 1534 4219 1204 4116 
Q 875 4013 500 3803 
L 500 4441 
Q 881 4594 1212 4672 
Q 1544 4750 1819 4750 
Q 2544 4750 2975 4387 
Q 3406 4025 3406 3419 
Q 3406 3131 3298 2873 
Q 3191 2616 2906 2266 
Q 2828 2175 2409 1742 
Q 1991 1309 1228 531 
z
" transform="scale(0.015625)"/>
       </defs>
       <use xlink:href="#DejaVuSans-32"/>
       <use xlink:href="#DejaVuSans-30" x="63.623047"/>
       <use xlink:href="#DejaVuSans-30" x="127.246094"/>
      </g>
     </g>
    </g>
    <g id="xtick_4">
     <g id="line2d_10">
      <path d="M 246.241707 253.08 
L 246.241707 3.6 
" clip-path="url(#pddf0592e07)" style="fill: none; stroke: #b0b0b0; stroke-width: 0.5; stroke-linecap: square"/>
     </g>
     <g id="line2d_11">
      <g>
       <use xlink:href="#m129882ff6f" x="246.241707" y="253.08" style="stroke: #000000; stroke-width: 0.5"/>
      </g>
     </g>
     <g id="line2d_12">
      <g>
       <use xlink:href="#m47de5f9172" x="246.241707" y="3.6" style="stroke: #000000; stroke-width: 0.5"/>
      </g>
     </g>
     <g id="text_4">
      <!-- 300 -->
      <g transform="translate(234.789207 265.698125) scale(0.12 -0.12)">
       <defs>
        <path id="DejaVuSans-33" d="M 2597 2516 
Q 3050 2419 3304 2112 
Q 3559 1806 3559 1356 
Q 3559 666 3084 287 
Q 2609 -91 1734 -91 
Q 1441 -91 1130 -33 
Q 819 25 488 141 
L 488 750 
Q 750 597 1062 519 
Q 1375 441 1716 441 
Q 2309 441 2620 675 
Q 2931 909 2931 1356 
Q 2931 1769 2642 2001 
Q 2353 2234 1838 2234 
L 1294 2234 
L 1294 2753 
L 1863 2753 
Q 2328 2753 2575 2939 
Q 2822 3125 2822 3475 
Q 2822 3834 2567 4026 
Q 2313 4219 1838 4219 
Q 1578 4219 1281 4162 
Q 984 4106 628 3988 
L 628 4550 
Q 988 4650 1302 4700 
Q 1616 4750 1894 4750 
Q 2613 4750 3031 4423 
Q 3450 4097 3450 3541 
Q 3450 3153 3228 2886 
Q 3006 2619 2597 2516 
z
" transform="scale(0.015625)"/>
       </defs>
       <use xlink:href="#DejaVuSans-33"/>
       <use xlink:href="#DejaVuSans-30" x="63.623047"/>
       <use xlink:href="#DejaVuSans-30" x="127.246094"/>
      </g>
     </g>
    </g>
    <g id="xtick_5">
     <g id="line2d_13">
      <path d="M 307.236424 253.08 
L 307.236424 3.6 
" clip-path="url(#pddf0592e07)" style="fill: none; stroke: #b0b0b0; stroke-width: 0.5; stroke-linecap: square"/>
     </g>
     <g id="line2d_14">
      <g>
       <use xlink:href="#m129882ff6f" x="307.236424" y="253.08" style="stroke: #000000; stroke-width: 0.5"/>
      </g>
     </g>
     <g id="line2d_15">
      <g>
       <use xlink:href="#m47de5f9172" x="307.236424" y="3.6" style="stroke: #000000; stroke-width: 0.5"/>
      </g>
     </g>
     <g id="text_5">
      <!-- 400 -->
      <g transform="translate(295.783924 265.698125) scale(0.12 -0.12)">
       <defs>
        <path id="DejaVuSans-34" d="M 2419 4116 
L 825 1625 
L 2419 1625 
L 2419 4116 
z
M 2253 4666 
L 3047 4666 
L 3047 1625 
L 3713 1625 
L 3713 1100 
L 3047 1100 
L 3047 0 
L 2419 0 
L 2419 1100 
L 313 1100 
L 313 1709 
L 2253 4666 
z
" transform="scale(0.015625)"/>
       </defs>
       <use xlink:href="#DejaVuSans-34"/>
       <use xlink:href="#DejaVuSans-30" x="63.623047"/>
       <use xlink:href="#DejaVuSans-30" x="127.246094"/>
      </g>
     </g>
    </g>
    <g id="xtick_6">
     <g id="line2d_16">
      <path d="M 368.23114 253.08 
L 368.23114 3.6 
" clip-path="url(#pddf0592e07)" style="fill: none; stroke: #b0b0b0; stroke-width: 0.5; stroke-linecap: square"/>
     </g>
     <g id="line2d_17">
      <g>
       <use xlink:href="#m129882ff6f" x="368.23114" y="253.08" style="stroke: #000000; stroke-width: 0.5"/>
      </g>
     </g>
     <g id="line2d_18">
      <g>
       <use xlink:href="#m47de5f9172" x="368.23114" y="3.6" style="stroke: #000000; stroke-width: 0.5"/>
      </g>
     </g>
     <g id="text_6">
      <!-- 500 -->
      <g transform="translate(356.77864 265.698125) scale(0.12 -0.12)">
       <defs>
        <path id="DejaVuSans-35" d="M 691 4666 
L 3169 4666 
L 3169 4134 
L 1269 4134 
L 1269 2991 
Q 1406 3038 1543 3061 
Q 1681 3084 1819 3084 
Q 2600 3084 3056 2656 
Q 3513 2228 3513 1497 
Q 3513 744 3044 326 
Q 2575 -91 1722 -91 
Q 1428 -91 1123 -41 
Q 819 9 494 109 
L 494 744 
Q 775 591 1075 516 
Q 1375 441 1709 441 
Q 2250 441 2565 725 
Q 2881 1009 2881 1497 
Q 2881 1984 2565 2268 
Q 2250 2553 1709 2553 
Q 1456 2553 1204 2497 
Q 953 2441 691 2322 
L 691 4666 
z
" transform="scale(0.015625)"/>
       </defs>
       <use xlink:href="#DejaVuSans-35"/>
       <use xlink:href="#DejaVuSans-30" x="63.623047"/>
       <use xlink:href="#DejaVuSans-30" x="127.246094"/>
      </g>
     </g>
    </g>
    <g id="xtick_7">
     <g id="line2d_19">
      <defs>
       <path id="m755fcb9f4e" d="M 0 0 
L 0 -1.5 
" style="stroke: #000000; stroke-width: 0.5"/>
      </defs>
      <g>
       <use xlink:href="#m755fcb9f4e" x="51.058613" y="253.08" style="stroke: #000000; stroke-width: 0.5"/>
      </g>
     </g>
     <g id="line2d_20">
      <defs>
       <path id="m196d066d03" d="M 0 0 
L 0 1.5 
" style="stroke: #000000; stroke-width: 0.5"/>
      </defs>
      <g>
       <use xlink:href="#m196d066d03" x="51.058613" y="3.6" style="stroke: #000000; stroke-width: 0.5"/>
      </g>
     </g>
    </g>
    <g id="xtick_8">
     <g id="line2d_21">
      <g>
       <use xlink:href="#m755fcb9f4e" x="75.4565" y="253.08" style="stroke: #000000; stroke-width: 0.5"/>
      </g>
     </g>
     <g id="line2d_22">
      <g>
       <use xlink:href="#m196d066d03" x="75.4565" y="3.6" style="stroke: #000000; stroke-width: 0.5"/>
      </g>
     </g>
    </g>
    <g id="xtick_9">
     <g id="line2d_23">
      <g>
       <use xlink:href="#m755fcb9f4e" x="87.655444" y="253.08" style="stroke: #000000; stroke-width: 0.5"/>
      </g>
     </g>
     <g id="line2d_24">
      <g>
       <use xlink:href="#m196d066d03" x="87.655444" y="3.6" style="stroke: #000000; stroke-width: 0.5"/>
      </g>
     </g>
    </g>
    <g id="xtick_10">
     <g id="line2d_25">
      <g>
       <use xlink:href="#m755fcb9f4e" x="99.854387" y="253.08" style="stroke: #000000; stroke-width: 0.5"/>
      </g>
     </g>
     <g id="line2d_26">
      <g>
       <use xlink:href="#m196d066d03" x="99.854387" y="3.6" style="stroke: #000000; stroke-width: 0.5"/>
      </g>
     </g>
    </g>
    <g id="xtick_11">
     <g id="line2d_27">
      <g>
       <use xlink:href="#m755fcb9f4e" x="112.05333" y="253.08" style="stroke: #000000; stroke-width: 0.5"/>
      </g>
     </g>
     <g id="line2d_28">
      <g>
       <use xlink:href="#m196d066d03" x="112.05333" y="3.6" style="stroke: #000000; stroke-width: 0.5"/>
      </g>
     </g>
    </g>
    <g id="xtick_12">
     <g id="line2d_29">
      <g>
       <use xlink:href="#m755fcb9f4e" x="136.451217" y="253.08" style="stroke: #000000; stroke-width: 0.5"/>
      </g>
     </g>
     <g id="line2d_30">
      <g>
       <use xlink:href="#m196d066d03" x="136.451217" y="3.6" style="stroke: #000000; stroke-width: 0.5"/>
      </g>
     </g>
    </g>
    <g id="xtick_13">
     <g id="line2d_31">
      <g>
       <use xlink:href="#m755fcb9f4e" x="148.65016" y="253.08" style="stroke: #000000; stroke-width: 0.5"/>
      </g>
     </g>
     <g id="line2d_32">
      <g>
       <use xlink:href="#m196d066d03" x="148.65016" y="3.6" style="stroke: #000000; stroke-width: 0.5"/>
      </g>
     </g>
    </g>
    <g id="xtick_14">
     <g id="line2d_33">
      <g>
       <use xlink:href="#m755fcb9f4e" x="160.849104" y="253.08" style="stroke: #000000; stroke-width: 0.5"/>
      </g>
     </g>
     <g id="line2d_34">
      <g>
       <use xlink:href="#m196d066d03" x="160.849104" y="3.6" style="stroke: #000000; stroke-width: 0.5"/>
      </g>
     </g>
    </g>
    <g id="xtick_15">
     <g id="line2d_35">
      <g>
       <use xlink:href="#m755fcb9f4e" x="173.048047" y="253.08" style="stroke: #000000; stroke-width: 0.5"/>
      </g>
     </g>
     <g id="line2d_36">
      <g>
       <use xlink:href="#m196d066d03" x="173.048047" y="3.6" style="stroke: #000000; stroke-width: 0.5"/>
      </g>
     </g>
    </g>
    <g id="xtick_16">
     <g id="line2d_37">
      <g>
       <use xlink:href="#m755fcb9f4e" x="197.445934" y="253.08" style="stroke: #000000; stroke-width: 0.5"/>
      </g>
     </g>
     <g id="line2d_38">
      <g>
       <use xlink:href="#m196d066d03" x="197.445934" y="3.6" style="stroke: #000000; stroke-width: 0.5"/>
      </g>
     </g>
    </g>
    <g id="xtick_17">
     <g id="line2d_39">
      <g>
       <use xlink:href="#m755fcb9f4e" x="209.644877" y="253.08" style="stroke: #000000; stroke-width: 0.5"/>
      </g>
     </g>
     <g id="line2d_40">
      <g>
       <use xlink:href="#m196d066d03" x="209.644877" y="3.6" style="stroke: #000000; stroke-width: 0.5"/>
      </g>
     </g>
    </g>
    <g id="xtick_18">
     <g id="line2d_41">
      <g>
       <use xlink:href="#m755fcb9f4e" x="221.84382" y="253.08" style="stroke: #000000; stroke-width: 0.5"/>
      </g>
     </g>
     <g id="line2d_42">
      <g>
       <use xlink:href="#m196d066d03" x="221.84382" y="3.6" style="stroke: #000000; stroke-width: 0.5"/>
      </g>
     </g>
    </g>
    <g id="xtick_19">
     <g id="line2d_43">
      <g>
       <use xlink:href="#m755fcb9f4e" x="234.042764" y="253.08" style="stroke: #000000; stroke-width: 0.5"/>
      </g>
     </g>
     <g id="line2d_44">
      <g>
       <use xlink:href="#m196d066d03" x="234.042764" y="3.6" style="stroke: #000000; stroke-width: 0.5"/>
      </g>
     </g>
    </g>
    <g id="xtick_20">
     <g id="line2d_45">
      <g>
       <use xlink:href="#m755fcb9f4e" x="258.44065" y="253.08" style="stroke: #000000; stroke-width: 0.5"/>
      </g>
     </g>
     <g id="line2d_46">
      <g>
       <use xlink:href="#m196d066d03" x="258.44065" y="3.6" style="stroke: #000000; stroke-width: 0.5"/>
      </g>
     </g>
    </g>
    <g id="xtick_21">
     <g id="line2d_47">
      <g>
       <use xlink:href="#m755fcb9f4e" x="270.639594" y="253.08" style="stroke: #000000; stroke-width: 0.5"/>
      </g>
     </g>
     <g id="line2d_48">
      <g>
       <use xlink:href="#m196d066d03" x="270.639594" y="3.6" style="stroke: #000000; stroke-width: 0.5"/>
      </g>
     </g>
    </g>
    <g id="xtick_22">
     <g id="line2d_49">
      <g>
       <use xlink:href="#m755fcb9f4e" x="282.838537" y="253.08" style="stroke: #000000; stroke-width: 0.5"/>
      </g>
     </g>
     <g id="line2d_50">
      <g>
       <use xlink:href="#m196d066d03" x="282.838537" y="3.6" style="stroke: #000000; stroke-width: 0.5"/>
      </g>
     </g>
    </g>
    <g id="xtick_23">
     <g id="line2d_51">
      <g>
       <use xlink:href="#m755fcb9f4e" x="295.03748" y="253.08" style="stroke: #000000; stroke-width: 0.5"/>
      </g>
     </g>
     <g id="line2d_52">
      <g>
       <use xlink:href="#m196d066d03" x="295.03748" y="3.6" style="stroke: #000000; stroke-width: 0.5"/>
      </g>
     </g>
    </g>
    <g id="xtick_24">
     <g id="line2d_53">
      <g>
       <use xlink:href="#m755fcb9f4e" x="319.435367" y="253.08" style="stroke: #000000; stroke-width: 0.5"/>
      </g>
     </g>
     <g id="line2d_54">
      <g>
       <use xlink:href="#m196d066d03" x="319.435367" y="3.6" style="stroke: #000000; stroke-width: 0.5"/>
      </g>
     </g>
    </g>
    <g id="xtick_25">
     <g id="line2d_55">
      <g>
       <use xlink:href="#m755fcb9f4e" x="331.63431" y="253.08" style="stroke: #000000; stroke-width: 0.5"/>
      </g>
     </g>
     <g id="line2d_56">
      <g>
       <use xlink:href="#m196d066d03" x="331.63431" y="3.6" style="stroke: #000000; stroke-width: 0.5"/>
      </g>
     </g>
    </g>
    <g id="xtick_26">
     <g id="line2d_57">
      <g>
       <use xlink:href="#m755fcb9f4e" x="343.833254" y="253.08" style="stroke: #000000; stroke-width: 0.5"/>
      </g>
     </g>
     <g id="line2d_58">
      <g>
       <use xlink:href="#m196d066d03" x="343.833254" y="3.6" style="stroke: #000000; stroke-width: 0.5"/>
      </g>
     </g>
    </g>
    <g id="xtick_27">
     <g id="line2d_59">
      <g>
       <use xlink:href="#m755fcb9f4e" x="356.032197" y="253.08" style="stroke: #000000; stroke-width: 0.5"/>
      </g>
     </g>
     <g id="line2d_60">
      <g>
       <use xlink:href="#m196d066d03" x="356.032197" y="3.6" style="stroke: #000000; stroke-width: 0.5"/>
      </g>
     </g>
    </g>
    <g id="xtick_28">
     <g id="line2d_61">
      <g>
       <use xlink:href="#m755fcb9f4e" x="380.430084" y="253.08" style="stroke: #000000; stroke-width: 0.5"/>
      </g>
     </g>
     <g id="line2d_62">
      <g>
       <use xlink:href="#m196d066d03" x="380.430084" y="3.6" style="stroke: #000000; stroke-width: 0.5"/>
      </g>
     </g>
    </g>
    <g id="text_7">
     <!-- Generations -->
     <g transform="translate(178.842188 281.311875) scale(0.12 -0.12)">
      <defs>
       <path id="DejaVuSans-47" d="M 3809 666 
L 3809 1919 
L 2778 1919 
L 2778 2438 
L 4434 2438 
L 4434 434 
Q 4069 175 3628 42 
Q 3188 -91 2688 -91 
Q 1594 -91 976 548 
Q 359 1188 359 2328 
Q 359 3472 976 4111 
Q 1594 4750 2688 4750 
Q 3144 4750 3555 4637 
Q 3966 4525 4313 4306 
L 4313 3634 
Q 3963 3931 3569 4081 
Q 3175 4231 2741 4231 
Q 1884 4231 1454 3753 
Q 1025 3275 1025 2328 
Q 1025 1384 1454 906 
Q 1884 428 2741 428 
Q 3075 428 3337 486 
Q 3600 544 3809 666 
z
" transform="scale(0.015625)"/>
       <path id="DejaVuSans-65" d="M 3597 1894 
L 3597 1613 
L 953 1613 
Q 991 1019 1311 708 
Q 1631 397 2203 397 
Q 2534 397 2845 478 
Q 3156 559 3463 722 
L 3463 178 
Q 3153 47 2828 -22 
Q 2503 -91 2169 -91 
Q 1331 -91 842 396 
Q 353 884 353 1716 
Q 353 2575 817 3079 
Q 1281 3584 2069 3584 
Q 2775 3584 3186 3129 
Q 3597 2675 3597 1894 
z
M 3022 2063 
Q 3016 2534 2758 2815 
Q 2500 3097 2075 3097 
Q 1594 3097 1305 2825 
Q 1016 2553 972 2059 
L 3022 2063 
z
" transform="scale(0.015625)"/>
       <path id="DejaVuSans-6e" d="M 3513 2113 
L 3513 0 
L 2938 0 
L 2938 2094 
Q 2938 2591 2744 2837 
Q 2550 3084 2163 3084 
Q 1697 3084 1428 2787 
Q 1159 2491 1159 1978 
L 1159 0 
L 581 0 
L 581 3500 
L 1159 3500 
L 1159 2956 
Q 1366 3272 1645 3428 
Q 1925 3584 2291 3584 
Q 2894 3584 3203 3211 
Q 3513 2838 3513 2113 
z
" transform="scale(0.015625)"/>
       <path id="DejaVuSans-72" d="M 2631 2963 
Q 2534 3019 2420 3045 
Q 2306 3072 2169 3072 
Q 1681 3072 1420 2755 
Q 1159 2438 1159 1844 
L 1159 0 
L 581 0 
L 581 3500 
L 1159 3500 
L 1159 2956 
Q 1341 3275 1631 3429 
Q 1922 3584 2338 3584 
Q 2397 3584 2469 3576 
Q 2541 3569 2628 3553 
L 2631 2963 
z
" transform="scale(0.015625)"/>
       <path id="DejaVuSans-61" d="M 2194 1759 
Q 1497 1759 1228 1600 
Q 959 1441 959 1056 
Q 959 750 1161 570 
Q 1363 391 1709 391 
Q 2188 391 2477 730 
Q 2766 1069 2766 1631 
L 2766 1759 
L 2194 1759 
z
M 3341 1997 
L 3341 0 
L 2766 0 
L 2766 531 
Q 2569 213 2275 61 
Q 1981 -91 1556 -91 
Q 1019 -91 701 211 
Q 384 513 384 1019 
Q 384 1609 779 1909 
Q 1175 2209 1959 2209 
L 2766 2209 
L 2766 2266 
Q 2766 2663 2505 2880 
Q 2244 3097 1772 3097 
Q 1472 3097 1187 3025 
Q 903 2953 641 2809 
L 641 3341 
Q 956 3463 1253 3523 
Q 1550 3584 1831 3584 
Q 2591 3584 2966 3190 
Q 3341 2797 3341 1997 
z
" transform="scale(0.015625)"/>
       <path id="DejaVuSans-74" d="M 1172 4494 
L 1172 3500 
L 2356 3500 
L 2356 3053 
L 1172 3053 
L 1172 1153 
Q 1172 725 1289 603 
Q 1406 481 1766 481 
L 2356 481 
L 2356 0 
L 1766 0 
Q 1100 0 847 248 
Q 594 497 594 1153 
L 594 3053 
L 172 3053 
L 172 3500 
L 594 3500 
L 594 4494 
L 1172 4494 
z
" transform="scale(0.015625)"/>
       <path id="DejaVuSans-69" d="M 603 3500 
L 1178 3500 
L 1178 0 
L 603 0 
L 603 3500 
z
M 603 4863 
L 1178 4863 
L 1178 4134 
L 603 4134 
L 603 4863 
z
" transform="scale(0.015625)"/>
       <path id="DejaVuSans-6f" d="M 1959 3097 
Q 1497 3097 1228 2736 
Q 959 2375 959 1747 
Q 959 1119 1226 758 
Q 1494 397 1959 397 
Q 2419 397 2687 759 
Q 2956 1122 2956 1747 
Q 2956 2369 2687 2733 
Q 2419 3097 1959 3097 
z
M 1959 3584 
Q 2709 3584 3137 3096 
Q 3566 2609 3566 1747 
Q 3566 888 3137 398 
Q 2709 -91 1959 -91 
Q 1206 -91 779 398 
Q 353 888 353 1747 
Q 353 2609 779 3096 
Q 1206 3584 1959 3584 
z
" transform="scale(0.015625)"/>
       <path id="DejaVuSans-73" d="M 2834 3397 
L 2834 2853 
Q 2591 2978 2328 3040 
Q 2066 3103 1784 3103 
Q 1356 3103 1142 2972 
Q 928 2841 928 2578 
Q 928 2378 1081 2264 
Q 1234 2150 1697 2047 
L 1894 2003 
Q 2506 1872 2764 1633 
Q 3022 1394 3022 966 
Q 3022 478 2636 193 
Q 2250 -91 1575 -91 
Q 1294 -91 989 -36 
Q 684 19 347 128 
L 347 722 
Q 666 556 975 473 
Q 1284 391 1588 391 
Q 1994 391 2212 530 
Q 2431 669 2431 922 
Q 2431 1156 2273 1281 
Q 2116 1406 1581 1522 
L 1381 1569 
Q 847 1681 609 1914 
Q 372 2147 372 2553 
Q 372 3047 722 3315 
Q 1072 3584 1716 3584 
Q 2034 3584 2315 3537 
Q 2597 3491 2834 3397 
z
" transform="scale(0.015625)"/>
      </defs>
      <use xlink:href="#DejaVuSans-47"/>
      <use xlink:href="#DejaVuSans-65" x="77.490234"/>
      <use xlink:href="#DejaVuSans-6e" x="139.013672"/>
      <use xlink:href="#DejaVuSans-65" x="202.392578"/>
      <use xlink:href="#DejaVuSans-72" x="263.916016"/>
      <use xlink:href="#DejaVuSans-61" x="305.029297"/>
      <use xlink:href="#DejaVuSans-74" x="366.308594"/>
      <use xlink:href="#DejaVuSans-69" x="405.517578"/>
      <use xlink:href="#DejaVuSans-6f" x="433.300781"/>
      <use xlink:href="#DejaVuSans-6e" x="494.482422"/>
      <use xlink:href="#DejaVuSans-73" x="557.861328"/>
     </g>
    </g>
   </g>
   <g id="matplotlib.axis_2">
    <g id="ytick_1">
     <g id="line2d_63">
      <path d="M 48.039375 231.616975 
L 382.839375 231.616975 
" clip-path="url(#pddf0592e07)" style="fill: none; stroke: #b0b0b0; stroke-width: 0.5; stroke-linecap: square"/>
     </g>
     <g id="line2d_64">
      <defs>
       <path id="made54fbb23" d="M 0 0 
L 3 0 
" style="stroke: #000000; stroke-width: 0.5"/>
      </defs>
      <g>
       <use xlink:href="#made54fbb23" x="48.039375" y="231.616975" style="stroke: #000000; stroke-width: 0.5"/>
      </g>
     </g>
     <g id="line2d_65">
      <defs>
       <path id="mf05c8e4a5d" d="M 0 0 
L -3 0 
" style="stroke: #000000; stroke-width: 0.5"/>
      </defs>
      <g>
       <use xlink:href="#mf05c8e4a5d" x="382.839375" y="231.616975" style="stroke: #000000; stroke-width: 0.5"/>
      </g>
     </g>
     <g id="text_8">
      <!-- −50 -->
      <g transform="translate(19.21375 236.176037) scale(0.12 -0.12)">
       <defs>
        <path id="DejaVuSans-2212" d="M 678 2272 
L 4684 2272 
L 4684 1741 
L 678 1741 
L 678 2272 
z
" transform="scale(0.015625)"/>
       </defs>
       <use xlink:href="#DejaVuSans-2212"/>
       <use xlink:href="#DejaVuSans-35" x="83.789062"/>
       <use xlink:href="#DejaVuSans-30" x="147.412109"/>
      </g>
     </g>
    </g>
    <g id="ytick_2">
     <g id="line2d_66">
      <path d="M 48.039375 199.774551 
L 382.839375 199.774551 
" clip-path="url(#pddf0592e07)" style="fill: none; stroke: #b0b0b0; stroke-width: 0.5; stroke-linecap: square"/>
     </g>
     <g id="line2d_67">
      <g>
       <use xlink:href="#made54fbb23" x="48.039375" y="199.774551" style="stroke: #000000; stroke-width: 0.5"/>
      </g>
     </g>
     <g id="line2d_68">
      <g>
       <use xlink:href="#mf05c8e4a5d" x="382.839375" y="199.774551" style="stroke: #000000; stroke-width: 0.5"/>
      </g>
     </g>
     <g id="text_9">
      <!-- −40 -->
      <g transform="translate(19.21375 204.333614) scale(0.12 -0.12)">
       <use xlink:href="#DejaVuSans-2212"/>
       <use xlink:href="#DejaVuSans-34" x="83.789062"/>
       <use xlink:href="#DejaVuSans-30" x="147.412109"/>
      </g>
     </g>
    </g>
    <g id="ytick_3">
     <g id="line2d_69">
      <path d="M 48.039375 167.932128 
L 382.839375 167.932128 
" clip-path="url(#pddf0592e07)" style="fill: none; stroke: #b0b0b0; stroke-width: 0.5; stroke-linecap: square"/>
     </g>
     <g id="line2d_70">
      <g>
       <use xlink:href="#made54fbb23" x="48.039375" y="167.932128" style="stroke: #000000; stroke-width: 0.5"/>
      </g>
     </g>
     <g id="line2d_71">
      <g>
       <use xlink:href="#mf05c8e4a5d" x="382.839375" y="167.932128" style="stroke: #000000; stroke-width: 0.5"/>
      </g>
     </g>
     <g id="text_10">
      <!-- −30 -->
      <g transform="translate(19.21375 172.49119) scale(0.12 -0.12)">
       <use xlink:href="#DejaVuSans-2212"/>
       <use xlink:href="#DejaVuSans-33" x="83.789062"/>
       <use xlink:href="#DejaVuSans-30" x="147.412109"/>
      </g>
     </g>
    </g>
    <g id="ytick_4">
     <g id="line2d_72">
      <path d="M 48.039375 136.089704 
L 382.839375 136.089704 
" clip-path="url(#pddf0592e07)" style="fill: none; stroke: #b0b0b0; stroke-width: 0.5; stroke-linecap: square"/>
     </g>
     <g id="line2d_73">
      <g>
       <use xlink:href="#made54fbb23" x="48.039375" y="136.089704" style="stroke: #000000; stroke-width: 0.5"/>
      </g>
     </g>
     <g id="line2d_74">
      <g>
       <use xlink:href="#mf05c8e4a5d" x="382.839375" y="136.089704" style="stroke: #000000; stroke-width: 0.5"/>
      </g>
     </g>
     <g id="text_11">
      <!-- −20 -->
      <g transform="translate(19.21375 140.648767) scale(0.12 -0.12)">
       <use xlink:href="#DejaVuSans-2212"/>
       <use xlink:href="#DejaVuSans-32" x="83.789062"/>
       <use xlink:href="#DejaVuSans-30" x="147.412109"/>
      </g>
     </g>
    </g>
    <g id="ytick_5">
     <g id="line2d_75">
      <path d="M 48.039375 104.24728 
L 382.839375 104.24728 
" clip-path="url(#pddf0592e07)" style="fill: none; stroke: #b0b0b0; stroke-width: 0.5; stroke-linecap: square"/>
     </g>
     <g id="line2d_76">
      <g>
       <use xlink:href="#made54fbb23" x="48.039375" y="104.24728" style="stroke: #000000; stroke-width: 0.5"/>
      </g>
     </g>
     <g id="line2d_77">
      <g>
       <use xlink:href="#mf05c8e4a5d" x="382.839375" y="104.24728" style="stroke: #000000; stroke-width: 0.5"/>
      </g>
     </g>
     <g id="text_12">
      <!-- −10 -->
      <g transform="translate(19.21375 108.806343) scale(0.12 -0.12)">
       <use xlink:href="#DejaVuSans-2212"/>
       <use xlink:href="#DejaVuSans-31" x="83.789062"/>
       <use xlink:href="#DejaVuSans-30" x="147.412109"/>
      </g>
     </g>
    </g>
    <g id="ytick_6">
     <g id="line2d_78">
      <path d="M 48.039375 72.404857 
L 382.839375 72.404857 
" clip-path="url(#pddf0592e07)" style="fill: none; stroke: #b0b0b0; stroke-width: 0.5; stroke-linecap: square"/>
     </g>
     <g id="line2d_79">
      <g>
       <use xlink:href="#made54fbb23" x="48.039375" y="72.404857" style="stroke: #000000; stroke-width: 0.5"/>
      </g>
     </g>
     <g id="line2d_80">
      <g>
       <use xlink:href="#mf05c8e4a5d" x="382.839375" y="72.404857" style="stroke: #000000; stroke-width: 0.5"/>
      </g>
     </g>
     <g id="text_13">
      <!-- 0 -->
      <g transform="translate(36.904375 76.963919) scale(0.12 -0.12)">
       <use xlink:href="#DejaVuSans-30"/>
      </g>
     </g>
    </g>
    <g id="ytick_7">
     <g id="line2d_81">
      <path d="M 48.039375 40.562433 
L 382.839375 40.562433 
" clip-path="url(#pddf0592e07)" style="fill: none; stroke: #b0b0b0; stroke-width: 0.5; stroke-linecap: square"/>
     </g>
     <g id="line2d_82">
      <g>
       <use xlink:href="#made54fbb23" x="48.039375" y="40.562433" style="stroke: #000000; stroke-width: 0.5"/>
      </g>
     </g>
     <g id="line2d_83">
      <g>
       <use xlink:href="#mf05c8e4a5d" x="382.839375" y="40.562433" style="stroke: #000000; stroke-width: 0.5"/>
      </g>
     </g>
     <g id="text_14">
      <!-- 10 -->
      <g transform="translate(29.269375 45.121496) scale(0.12 -0.12)">
       <use xlink:href="#DejaVuSans-31"/>
       <use xlink:href="#DejaVuSans-30" x="63.623047"/>
      </g>
     </g>
    </g>
    <g id="ytick_8">
     <g id="line2d_84">
      <path d="M 48.039375 8.72001 
L 382.839375 8.72001 
" clip-path="url(#pddf0592e07)" style="fill: none; stroke: #b0b0b0; stroke-width: 0.5; stroke-linecap: square"/>
     </g>
     <g id="line2d_85">
      <g>
       <use xlink:href="#made54fbb23" x="48.039375" y="8.72001" style="stroke: #000000; stroke-width: 0.5"/>
      </g>
     </g>
     <g id="line2d_86">
      <g>
       <use xlink:href="#mf05c8e4a5d" x="382.839375" y="8.72001" style="stroke: #000000; stroke-width: 0.5"/>
      </g>
     </g>
     <g id="text_15">
      <!-- 20 -->
      <g transform="translate(29.269375 13.279072) scale(0.12 -0.12)">
       <use xlink:href="#DejaVuSans-32"/>
       <use xlink:href="#DejaVuSans-30" x="63.623047"/>
      </g>
     </g>
    </g>
    <g id="ytick_9">
     <g id="line2d_87">
      <defs>
       <path id="m60f89afdaa" d="M 0 0 
L 1.5 0 
" style="stroke: #000000; stroke-width: 0.5"/>
      </defs>
      <g>
       <use xlink:href="#m60f89afdaa" x="48.039375" y="250.722429" style="stroke: #000000; stroke-width: 0.5"/>
      </g>
     </g>
     <g id="line2d_88">
      <defs>
       <path id="m55cc7e5790" d="M 0 0 
L -1.5 0 
" style="stroke: #000000; stroke-width: 0.5"/>
      </defs>
      <g>
       <use xlink:href="#m55cc7e5790" x="382.839375" y="250.722429" style="stroke: #000000; stroke-width: 0.5"/>
      </g>
     </g>
    </g>
    <g id="ytick_10">
     <g id="line2d_89">
      <g>
       <use xlink:href="#m60f89afdaa" x="48.039375" y="244.353944" style="stroke: #000000; stroke-width: 0.5"/>
      </g>
     </g>
     <g id="line2d_90">
      <g>
       <use xlink:href="#m55cc7e5790" x="382.839375" y="244.353944" style="stroke: #000000; stroke-width: 0.5"/>
      </g>
     </g>
    </g>
    <g id="ytick_11">
     <g id="line2d_91">
      <g>
       <use xlink:href="#m60f89afdaa" x="48.039375" y="237.985459" style="stroke: #000000; stroke-width: 0.5"/>
      </g>
     </g>
     <g id="line2d_92">
      <g>
       <use xlink:href="#m55cc7e5790" x="382.839375" y="237.985459" style="stroke: #000000; stroke-width: 0.5"/>
      </g>
     </g>
    </g>
    <g id="ytick_12">
     <g id="line2d_93">
      <g>
       <use xlink:href="#m60f89afdaa" x="48.039375" y="225.24849" style="stroke: #000000; stroke-width: 0.5"/>
      </g>
     </g>
     <g id="line2d_94">
      <g>
       <use xlink:href="#m55cc7e5790" x="382.839375" y="225.24849" style="stroke: #000000; stroke-width: 0.5"/>
      </g>
     </g>
    </g>
    <g id="ytick_13">
     <g id="line2d_95">
      <g>
       <use xlink:href="#m60f89afdaa" x="48.039375" y="218.880005" style="stroke: #000000; stroke-width: 0.5"/>
      </g>
     </g>
     <g id="line2d_96">
      <g>
       <use xlink:href="#m55cc7e5790" x="382.839375" y="218.880005" style="stroke: #000000; stroke-width: 0.5"/>
      </g>
     </g>
    </g>
    <g id="ytick_14">
     <g id="line2d_97">
      <g>
       <use xlink:href="#m60f89afdaa" x="48.039375" y="212.511521" style="stroke: #000000; stroke-width: 0.5"/>
      </g>
     </g>
     <g id="line2d_98">
      <g>
       <use xlink:href="#m55cc7e5790" x="382.839375" y="212.511521" style="stroke: #000000; stroke-width: 0.5"/>
      </g>
     </g>
    </g>
    <g id="ytick_15">
     <g id="line2d_99">
      <g>
       <use xlink:href="#m60f89afdaa" x="48.039375" y="206.143036" style="stroke: #000000; stroke-width: 0.5"/>
      </g>
     </g>
     <g id="line2d_100">
      <g>
       <use xlink:href="#m55cc7e5790" x="382.839375" y="206.143036" style="stroke: #000000; stroke-width: 0.5"/>
      </g>
     </g>
    </g>
    <g id="ytick_16">
     <g id="line2d_101">
      <g>
       <use xlink:href="#m60f89afdaa" x="48.039375" y="193.406066" style="stroke: #000000; stroke-width: 0.5"/>
      </g>
     </g>
     <g id="line2d_102">
      <g>
       <use xlink:href="#m55cc7e5790" x="382.839375" y="193.406066" style="stroke: #000000; stroke-width: 0.5"/>
      </g>
     </g>
    </g>
    <g id="ytick_17">
     <g id="line2d_103">
      <g>
       <use xlink:href="#m60f89afdaa" x="48.039375" y="187.037582" style="stroke: #000000; stroke-width: 0.5"/>
      </g>
     </g>
     <g id="line2d_104">
      <g>
       <use xlink:href="#m55cc7e5790" x="382.839375" y="187.037582" style="stroke: #000000; stroke-width: 0.5"/>
      </g>
     </g>
    </g>
    <g id="ytick_18">
     <g id="line2d_105">
      <g>
       <use xlink:href="#m60f89afdaa" x="48.039375" y="180.669097" style="stroke: #000000; stroke-width: 0.5"/>
      </g>
     </g>
     <g id="line2d_106">
      <g>
       <use xlink:href="#m55cc7e5790" x="382.839375" y="180.669097" style="stroke: #000000; stroke-width: 0.5"/>
      </g>
     </g>
    </g>
    <g id="ytick_19">
     <g id="line2d_107">
      <g>
       <use xlink:href="#m60f89afdaa" x="48.039375" y="174.300612" style="stroke: #000000; stroke-width: 0.5"/>
      </g>
     </g>
     <g id="line2d_108">
      <g>
       <use xlink:href="#m55cc7e5790" x="382.839375" y="174.300612" style="stroke: #000000; stroke-width: 0.5"/>
      </g>
     </g>
    </g>
    <g id="ytick_20">
     <g id="line2d_109">
      <g>
       <use xlink:href="#m60f89afdaa" x="48.039375" y="161.563643" style="stroke: #000000; stroke-width: 0.5"/>
      </g>
     </g>
     <g id="line2d_110">
      <g>
       <use xlink:href="#m55cc7e5790" x="382.839375" y="161.563643" style="stroke: #000000; stroke-width: 0.5"/>
      </g>
     </g>
    </g>
    <g id="ytick_21">
     <g id="line2d_111">
      <g>
       <use xlink:href="#m60f89afdaa" x="48.039375" y="155.195158" style="stroke: #000000; stroke-width: 0.5"/>
      </g>
     </g>
     <g id="line2d_112">
      <g>
       <use xlink:href="#m55cc7e5790" x="382.839375" y="155.195158" style="stroke: #000000; stroke-width: 0.5"/>
      </g>
     </g>
    </g>
    <g id="ytick_22">
     <g id="line2d_113">
      <g>
       <use xlink:href="#m60f89afdaa" x="48.039375" y="148.826673" style="stroke: #000000; stroke-width: 0.5"/>
      </g>
     </g>
     <g id="line2d_114">
      <g>
       <use xlink:href="#m55cc7e5790" x="382.839375" y="148.826673" style="stroke: #000000; stroke-width: 0.5"/>
      </g>
     </g>
    </g>
    <g id="ytick_23">
     <g id="line2d_115">
      <g>
       <use xlink:href="#m60f89afdaa" x="48.039375" y="142.458189" style="stroke: #000000; stroke-width: 0.5"/>
      </g>
     </g>
     <g id="line2d_116">
      <g>
       <use xlink:href="#m55cc7e5790" x="382.839375" y="142.458189" style="stroke: #000000; stroke-width: 0.5"/>
      </g>
     </g>
    </g>
    <g id="ytick_24">
     <g id="line2d_117">
      <g>
       <use xlink:href="#m60f89afdaa" x="48.039375" y="129.721219" style="stroke: #000000; stroke-width: 0.5"/>
      </g>
     </g>
     <g id="line2d_118">
      <g>
       <use xlink:href="#m55cc7e5790" x="382.839375" y="129.721219" style="stroke: #000000; stroke-width: 0.5"/>
      </g>
     </g>
    </g>
    <g id="ytick_25">
     <g id="line2d_119">
      <g>
       <use xlink:href="#m60f89afdaa" x="48.039375" y="123.352735" style="stroke: #000000; stroke-width: 0.5"/>
      </g>
     </g>
     <g id="line2d_120">
      <g>
       <use xlink:href="#m55cc7e5790" x="382.839375" y="123.352735" style="stroke: #000000; stroke-width: 0.5"/>
      </g>
     </g>
    </g>
    <g id="ytick_26">
     <g id="line2d_121">
      <g>
       <use xlink:href="#m60f89afdaa" x="48.039375" y="116.98425" style="stroke: #000000; stroke-width: 0.5"/>
      </g>
     </g>
     <g id="line2d_122">
      <g>
       <use xlink:href="#m55cc7e5790" x="382.839375" y="116.98425" style="stroke: #000000; stroke-width: 0.5"/>
      </g>
     </g>
    </g>
    <g id="ytick_27">
     <g id="line2d_123">
      <g>
       <use xlink:href="#m60f89afdaa" x="48.039375" y="110.615765" style="stroke: #000000; stroke-width: 0.5"/>
      </g>
     </g>
     <g id="line2d_124">
      <g>
       <use xlink:href="#m55cc7e5790" x="382.839375" y="110.615765" style="stroke: #000000; stroke-width: 0.5"/>
      </g>
     </g>
    </g>
    <g id="ytick_28">
     <g id="line2d_125">
      <g>
       <use xlink:href="#m60f89afdaa" x="48.039375" y="97.878796" style="stroke: #000000; stroke-width: 0.5"/>
      </g>
     </g>
     <g id="line2d_126">
      <g>
       <use xlink:href="#m55cc7e5790" x="382.839375" y="97.878796" style="stroke: #000000; stroke-width: 0.5"/>
      </g>
     </g>
    </g>
    <g id="ytick_29">
     <g id="line2d_127">
      <g>
       <use xlink:href="#m60f89afdaa" x="48.039375" y="91.510311" style="stroke: #000000; stroke-width: 0.5"/>
      </g>
     </g>
     <g id="line2d_128">
      <g>
       <use xlink:href="#m55cc7e5790" x="382.839375" y="91.510311" style="stroke: #000000; stroke-width: 0.5"/>
      </g>
     </g>
    </g>
    <g id="ytick_30">
     <g id="line2d_129">
      <g>
       <use xlink:href="#m60f89afdaa" x="48.039375" y="85.141826" style="stroke: #000000; stroke-width: 0.5"/>
      </g>
     </g>
     <g id="line2d_130">
      <g>
       <use xlink:href="#m55cc7e5790" x="382.839375" y="85.141826" style="stroke: #000000; stroke-width: 0.5"/>
      </g>
     </g>
    </g>
    <g id="ytick_31">
     <g id="line2d_131">
      <g>
       <use xlink:href="#m60f89afdaa" x="48.039375" y="78.773342" style="stroke: #000000; stroke-width: 0.5"/>
      </g>
     </g>
     <g id="line2d_132">
      <g>
       <use xlink:href="#m55cc7e5790" x="382.839375" y="78.773342" style="stroke: #000000; stroke-width: 0.5"/>
      </g>
     </g>
    </g>
    <g id="ytick_32">
     <g id="line2d_133">
      <g>
       <use xlink:href="#m60f89afdaa" x="48.039375" y="66.036372" style="stroke: #000000; stroke-width: 0.5"/>
      </g>
     </g>
     <g id="line2d_134">
      <g>
       <use xlink:href="#m55cc7e5790" x="382.839375" y="66.036372" style="stroke: #000000; stroke-width: 0.5"/>
      </g>
     </g>
    </g>
    <g id="ytick_33">
     <g id="line2d_135">
      <g>
       <use xlink:href="#m60f89afdaa" x="48.039375" y="59.667888" style="stroke: #000000; stroke-width: 0.5"/>
      </g>
     </g>
     <g id="line2d_136">
      <g>
       <use xlink:href="#m55cc7e5790" x="382.839375" y="59.667888" style="stroke: #000000; stroke-width: 0.5"/>
      </g>
     </g>
    </g>
    <g id="ytick_34">
     <g id="line2d_137">
      <g>
       <use xlink:href="#m60f89afdaa" x="48.039375" y="53.299403" style="stroke: #000000; stroke-width: 0.5"/>
      </g>
     </g>
     <g id="line2d_138">
      <g>
       <use xlink:href="#m55cc7e5790" x="382.839375" y="53.299403" style="stroke: #000000; stroke-width: 0.5"/>
      </g>
     </g>
    </g>
    <g id="ytick_35">
     <g id="line2d_139">
      <g>
       <use xlink:href="#m60f89afdaa" x="48.039375" y="46.930918" style="stroke: #000000; stroke-width: 0.5"/>
      </g>
     </g>
     <g id="line2d_140">
      <g>
       <use xlink:href="#m55cc7e5790" x="382.839375" y="46.930918" style="stroke: #000000; stroke-width: 0.5"/>
      </g>
     </g>
    </g>
    <g id="ytick_36">
     <g id="line2d_141">
      <g>
       <use xlink:href="#m60f89afdaa" x="48.039375" y="34.193949" style="stroke: #000000; stroke-width: 0.5"/>
      </g>
     </g>
     <g id="line2d_142">
      <g>
       <use xlink:href="#m55cc7e5790" x="382.839375" y="34.193949" style="stroke: #000000; stroke-width: 0.5"/>
      </g>
     </g>
    </g>
    <g id="ytick_37">
     <g id="line2d_143">
      <g>
       <use xlink:href="#m60f89afdaa" x="48.039375" y="27.825464" style="stroke: #000000; stroke-width: 0.5"/>
      </g>
     </g>
     <g id="line2d_144">
      <g>
       <use xlink:href="#m55cc7e5790" x="382.839375" y="27.825464" style="stroke: #000000; stroke-width: 0.5"/>
      </g>
     </g>
    </g>
    <g id="ytick_38">
     <g id="line2d_145">
      <g>
       <use xlink:href="#m60f89afdaa" x="48.039375" y="21.456979" style="stroke: #000000; stroke-width: 0.5"/>
      </g>
     </g>
     <g id="line2d_146">
      <g>
       <use xlink:href="#m55cc7e5790" x="382.839375" y="21.456979" style="stroke: #000000; stroke-width: 0.5"/>
      </g>
     </g>
    </g>
    <g id="ytick_39">
     <g id="line2d_147">
      <g>
       <use xlink:href="#m60f89afdaa" x="48.039375" y="15.088495" style="stroke: #000000; stroke-width: 0.5"/>
      </g>
     </g>
     <g id="line2d_148">
      <g>
       <use xlink:href="#m55cc7e5790" x="382.839375" y="15.088495" style="stroke: #000000; stroke-width: 0.5"/>
      </g>
     </g>
    </g>
    <g id="text_16">
     <!-- Fitness -->
     <g transform="translate(12.718125 149.120625) rotate(-90) scale(0.12 -0.12)">
      <defs>
       <path id="DejaVuSans-46" d="M 628 4666 
L 3309 4666 
L 3309 4134 
L 1259 4134 
L 1259 2759 
L 3109 2759 
L 3109 2228 
L 1259 2228 
L 1259 0 
L 628 0 
L 628 4666 
z
" transform="scale(0.015625)"/>
      </defs>
      <use xlink:href="#DejaVuSans-46"/>
      <use xlink:href="#DejaVuSans-69" x="50.269531"/>
      <use xlink:href="#DejaVuSans-74" x="78.052734"/>
      <use xlink:href="#DejaVuSans-6e" x="117.261719"/>
      <use xlink:href="#DejaVuSans-65" x="180.640625"/>
      <use xlink:href="#DejaVuSans-73" x="242.164062"/>
      <use xlink:href="#DejaVuSans-73" x="294.263672"/>
     </g>
    </g>
   </g>
   <g id="line2d_149">
    <path d="M 63.257557 36.821058 
L 69.357028 36.75168 
L 69.966976 36.587038 
L 70.576923 36.58703 
L 71.18687 32.857452 
L 73.016711 32.85746 
L 73.626659 32.431036 
L 74.236606 32.431064 
L 74.846553 30.556271 
L 76.676394 30.556248 
L 77.286342 26.708399 
L 77.896289 26.708401 
L 78.506236 26.331034 
L 79.116183 26.331026 
L 80.946025 25.781022 
L 81.555972 25.781007 
L 82.165919 25.362565 
L 84.605708 25.362556 
L 85.215655 24.918017 
L 85.825602 24.918074 
L 86.435549 22.922234 
L 90.095232 22.922104 
L 90.705179 22.675735 
L 91.315127 21.636681 
L 91.925074 21.515287 
L 96.194704 21.50382 
L 96.804651 21.283523 
L 101.684228 21.215425 
L 102.904123 20.605336 
L 108.393647 20.605299 
L 109.003594 20.331359 
L 110.223489 20.302201 
L 112.05333 20.089539 
L 113.273225 20.029033 
L 114.493119 19.970102 
L 122.422432 19.920086 
L 123.032379 18.417919 
L 127.302009 18.348994 
L 127.911957 17.576619 
L 137.671111 17.576545 
L 138.281058 16.882593 
L 147.430266 16.820094 
L 148.040213 16.662972 
L 159.629209 16.628491 
L 160.239156 16.510578 
L 182.807202 16.459068 
L 183.417149 16.274015 
L 232.212922 16.229951 
L 232.822869 16.101368 
L 260.270492 15.999235 
L 260.880439 15.570831 
L 285.278326 15.570685 
L 285.888273 15.401239 
L 334.074099 15.313652 
L 335.90394 15.266543 
L 351.15262 15.179245 
L 351.762567 14.940364 
L 367.621193 14.940024 
L 367.621193 14.940024 
" clip-path="url(#pddf0592e07)" style="fill: none; stroke: #000000; stroke-linecap: square"/>
   </g>
   <g id="line2d_150">
    <path d="M 63.257557 166.254083 
L 63.867504 185.536073 
L 64.477451 130.288181 
L 65.087398 141.528119 
L 65.697345 135.599016 
L 66.307293 121.885168 
L 66.91724 117.750168 
L 67.527187 135.278618 
L 68.137134 106.397593 
L 68.747081 99.732359 
L 69.357028 97.377245 
L 69.966976 87.648724 
L 70.576923 89.490017 
L 71.18687 80.215724 
L 71.796817 82.728982 
L 72.406764 65.895821 
L 73.016711 67.009442 
L 73.626659 62.966592 
L 74.236606 61.686947 
L 74.846553 63.533849 
L 75.4565 58.076473 
L 76.066447 59.866318 
L 76.676394 52.181857 
L 77.286342 47.368131 
L 77.896289 49.075779 
L 78.506236 49.512158 
L 79.116183 43.018524 
L 79.72613 39.223277 
L 80.336077 37.807965 
L 80.946025 35.407222 
L 81.555972 36.656632 
L 82.165919 34.717164 
L 83.385813 34.502772 
L 83.99576 33.431653 
L 84.605708 34.544945 
L 85.215655 32.507436 
L 85.825602 33.088232 
L 86.435549 31.489765 
L 87.045496 30.275035 
L 87.655444 29.907874 
L 88.265391 28.789268 
L 88.875338 29.042601 
L 89.485285 28.955573 
L 90.095232 29.157995 
L 90.705179 28.561126 
L 91.315127 28.269935 
L 91.925074 26.592014 
L 92.535021 26.745191 
L 93.144968 27.533876 
L 93.754915 27.759442 
L 94.364862 27.085796 
L 94.97481 27.307038 
L 95.584757 28.17426 
L 96.194704 26.884137 
L 96.804651 27.188718 
L 97.414598 27.058667 
L 98.634493 28.783805 
L 99.24444 29.444446 
L 100.464334 25.675767 
L 101.074281 25.608537 
L 101.684228 24.845437 
L 102.294176 24.599249 
L 102.904123 23.554601 
L 103.51407 24.898919 
L 104.124017 23.295314 
L 104.733964 26.133346 
L 105.343911 24.437515 
L 105.953859 23.943977 
L 107.173753 24.806948 
L 107.7837 24.066849 
L 108.393647 23.938468 
L 109.003594 24.348069 
L 109.613542 24.521812 
L 110.223489 23.4347 
L 110.833436 22.942511 
L 111.443383 23.156337 
L 112.05333 22.038712 
L 112.663277 22.83551 
L 113.273225 22.249704 
L 113.883172 22.511063 
L 114.493119 22.439328 
L 115.103066 22.495953 
L 115.713013 22.392353 
L 116.32296 25.804504 
L 116.932908 23.210857 
L 117.542855 23.694718 
L 118.762749 24.039981 
L 119.372696 25.505775 
L 119.982643 23.609057 
L 120.592591 24.056349 
L 121.202538 23.369991 
L 121.812485 23.536828 
L 122.422432 22.062899 
L 123.032379 23.167211 
L 124.252274 22.922593 
L 124.862221 22.411549 
L 125.472168 24.949392 
L 126.082115 23.969799 
L 126.692062 23.704927 
L 127.302009 22.71047 
L 127.911957 24.346364 
L 128.521904 25.599341 
L 129.131851 27.798078 
L 129.741798 24.965608 
L 130.351745 24.412307 
L 130.961692 26.715984 
L 131.57164 24.385882 
L 132.181587 24.124724 
L 133.401481 23.939651 
L 134.011428 23.487484 
L 134.621375 22.72381 
L 135.231323 23.005996 
L 135.84127 23.071133 
L 136.451217 24.669518 
L 137.061164 23.995664 
L 137.671111 22.398961 
L 138.281058 22.814235 
L 138.891006 21.582593 
L 139.500953 21.607513 
L 140.1109 20.647486 
L 140.720847 21.98375 
L 141.330794 20.456988 
L 141.940741 21.777861 
L 142.550689 21.096315 
L 143.770583 20.179301 
L 144.38053 21.11806 
L 144.990477 18.975834 
L 145.600424 18.935477 
L 146.210372 18.454258 
L 146.820319 19.524274 
L 147.430266 20.000085 
L 148.040213 18.344875 
L 148.65016 19.275564 
L 149.260107 18.905673 
L 149.870055 19.88333 
L 150.480002 21.933922 
L 151.089949 19.994508 
L 152.309843 22.115787 
L 152.91979 22.683924 
L 153.529738 21.561153 
L 154.139685 22.80033 
L 154.749632 25.21557 
L 155.359579 22.396267 
L 155.969526 22.457532 
L 156.579473 22.104427 
L 157.189421 21.265642 
L 157.799368 20.635403 
L 158.409315 21.10424 
L 159.019262 18.98482 
L 159.629209 20.841425 
L 160.239156 18.98377 
L 160.849104 18.204555 
L 161.459051 19.123011 
L 162.068998 19.125051 
L 162.678945 21.800848 
L 163.288892 20.814681 
L 163.898839 19.0272 
L 164.508787 18.138113 
L 165.118734 18.438015 
L 165.728681 19.853697 
L 166.338628 22.607198 
L 166.948575 18.939463 
L 167.558522 18.020032 
L 168.16847 19.53977 
L 168.778417 18.899835 
L 169.388364 21.504161 
L 169.998311 21.388878 
L 170.608258 19.613878 
L 171.218205 19.292102 
L 171.828153 18.673256 
L 172.4381 17.835182 
L 173.048047 17.760243 
L 174.267941 20.172481 
L 174.877888 18.399356 
L 175.487836 18.847955 
L 176.097783 19.075969 
L 176.70773 19.536291 
L 177.317677 22.260824 
L 177.927624 21.123206 
L 178.537571 20.928262 
L 179.147519 21.628392 
L 179.757466 21.660713 
L 180.367413 20.815192 
L 180.97736 21.322474 
L 181.587307 20.070111 
L 182.197254 22.620114 
L 182.807202 19.798342 
L 183.417149 19.110634 
L 184.027096 19.479537 
L 184.637043 21.00927 
L 185.24699 20.172886 
L 187.076832 18.539187 
L 187.686779 19.135129 
L 188.296726 18.481874 
L 188.906673 18.065922 
L 189.51662 21.11597 
L 190.126568 21.140199 
L 190.736515 18.27756 
L 191.346462 20.315297 
L 191.956409 19.263855 
L 192.566356 18.535076 
L 193.176303 18.745034 
L 193.786251 20.006992 
L 194.396198 20.299696 
L 195.006145 19.095079 
L 195.616092 20.617175 
L 196.226039 20.567399 
L 197.445934 20.934796 
L 198.055881 21.658207 
L 198.665828 22.14513 
L 199.275775 21.512214 
L 199.885722 20.304723 
L 200.495669 22.270636 
L 201.105617 21.887374 
L 201.715564 23.21231 
L 202.325511 20.805384 
L 202.935458 20.253202 
L 203.545405 19.363369 
L 204.155352 19.524409 
L 204.7653 19.409837 
L 205.375247 21.138251 
L 205.985194 20.354253 
L 206.595141 21.355191 
L 207.205088 20.141376 
L 207.815035 20.476454 
L 208.424983 21.490168 
L 209.03493 19.769668 
L 209.644877 19.779733 
L 210.254824 21.805314 
L 210.864771 20.273722 
L 211.474718 20.231364 
L 212.084666 19.151533 
L 212.694613 20.804413 
L 213.30456 20.529359 
L 213.914507 20.491075 
L 214.524454 21.34068 
L 215.744349 20.340158 
L 216.354296 20.105281 
L 216.964243 21.982319 
L 217.57419 18.91943 
L 218.184137 18.826063 
L 218.794084 20.509957 
L 219.404032 20.567299 
L 220.013979 19.126397 
L 220.623926 19.732066 
L 221.233873 19.02363 
L 221.84382 19.97812 
L 222.453767 20.655576 
L 223.063715 19.907625 
L 223.673662 20.07518 
L 224.283609 20.606447 
L 224.893556 20.670258 
L 225.503503 20.244358 
L 226.11345 23.107881 
L 226.723398 20.359577 
L 227.333345 22.126134 
L 228.553239 19.137949 
L 229.163186 18.330431 
L 229.773133 17.918679 
L 230.383081 18.991346 
L 230.993028 18.410631 
L 231.602975 19.514421 
L 232.212922 18.536012 
L 232.822869 19.500861 
L 233.432816 19.481569 
L 234.042764 18.039962 
L 234.652711 19.278795 
L 235.262658 19.139096 
L 235.872605 20.098126 
L 236.482552 22.705226 
L 237.092499 21.592552 
L 237.702447 19.150576 
L 238.312394 19.27001 
L 238.922341 18.5261 
L 239.532288 19.496035 
L 240.142235 20.710735 
L 240.752182 20.252526 
L 241.36213 19.32347 
L 241.972077 19.137002 
L 242.582024 18.145968 
L 243.191971 17.716984 
L 244.411865 20.225379 
L 245.63176 19.126607 
L 246.241707 19.622894 
L 246.851654 18.63547 
L 247.461601 18.789761 
L 248.071548 18.426517 
L 248.681496 18.550028 
L 249.291443 17.706043 
L 249.90139 18.055508 
L 250.511337 18.26055 
L 251.121284 20.427219 
L 251.731231 17.747988 
L 252.341179 18.545699 
L 253.561073 21.687647 
L 254.17102 24.095293 
L 254.780967 21.719678 
L 256.000862 21.553445 
L 256.610809 22.948399 
L 257.220756 22.155255 
L 257.830703 21.655064 
L 258.44065 23.166083 
L 259.050597 21.530852 
L 259.660545 22.743306 
L 260.270492 21.85028 
L 260.880439 21.67657 
L 261.490386 20.382807 
L 263.320228 20.017345 
L 263.930175 22.269286 
L 264.540122 21.436254 
L 265.150069 19.879084 
L 265.760016 19.913263 
L 266.369963 20.086643 
L 266.979911 24.721282 
L 267.589858 19.333651 
L 268.199805 19.43231 
L 268.809752 19.105816 
L 269.419699 18.482563 
L 270.029646 18.451496 
L 270.639594 18.643309 
L 271.249541 19.308795 
L 271.859488 18.539855 
L 272.469435 18.886727 
L 273.079382 21.406758 
L 273.689329 20.742442 
L 274.299277 19.138003 
L 274.909224 21.943083 
L 275.519171 18.897428 
L 276.129118 18.241055 
L 276.739065 20.729963 
L 277.349012 18.338773 
L 277.95896 21.544305 
L 278.568907 19.775401 
L 279.178854 20.94545 
L 279.788801 19.704343 
L 280.398748 18.75466 
L 281.008695 18.018513 
L 281.618643 20.175541 
L 282.22859 21.633384 
L 282.838537 21.30949 
L 283.448484 22.119453 
L 284.058431 22.363877 
L 284.668378 21.572587 
L 285.278326 25.066439 
L 285.888273 21.881064 
L 286.49822 23.271031 
L 287.108167 22.309783 
L 287.718114 21.091773 
L 288.328061 21.410341 
L 289.547956 21.102172 
L 290.76785 19.228717 
L 291.377797 19.81701 
L 291.987744 21.006996 
L 292.597692 22.753119 
L 293.207639 21.839197 
L 295.03748 20.725427 
L 295.647427 21.284141 
L 296.257375 22.345943 
L 296.867322 18.451052 
L 297.477269 18.787351 
L 298.087216 18.523428 
L 298.697163 19.184746 
L 299.30711 18.510259 
L 299.917058 18.288049 
L 300.527005 18.992208 
L 301.136952 20.508333 
L 301.746899 19.987297 
L 302.356846 20.065056 
L 302.966793 21.263272 
L 303.576741 20.770895 
L 304.186688 19.606991 
L 304.796635 20.749253 
L 305.406582 19.42156 
L 306.016529 20.122044 
L 306.626476 19.346494 
L 307.236424 17.869193 
L 307.846371 18.888989 
L 308.456318 18.891692 
L 309.066265 21.005471 
L 309.676212 18.782768 
L 310.286159 18.394038 
L 310.896107 18.274559 
L 311.506054 17.902996 
L 312.116001 17.69251 
L 312.725948 17.684664 
L 313.335895 18.668068 
L 313.945842 19.27539 
L 314.55579 20.529841 
L 315.165737 18.986172 
L 315.775684 19.804878 
L 316.385631 18.741169 
L 316.995578 21.795911 
L 317.605525 21.71371 
L 318.215473 22.591897 
L 318.82542 19.686514 
L 320.045314 17.593829 
L 321.265208 17.508067 
L 321.875156 18.922645 
L 322.485103 19.800282 
L 323.09505 18.093367 
L 323.704997 17.796892 
L 324.314944 18.132909 
L 324.924891 19.060721 
L 325.534839 19.414167 
L 326.144786 18.197104 
L 326.754733 18.447395 
L 327.36468 20.698945 
L 327.974627 19.816014 
L 329.194522 20.197356 
L 329.804469 23.965223 
L 330.414416 21.351647 
L 331.024363 20.716044 
L 331.63431 20.838401 
L 332.244257 20.089126 
L 332.854205 20.266874 
L 333.464152 19.272489 
L 334.074099 20.117736 
L 334.684046 19.666786 
L 335.293993 18.583438 
L 335.90394 17.84519 
L 336.513888 18.75161 
L 337.123835 18.695167 
L 337.733782 19.703334 
L 338.343729 22.361611 
L 338.953676 19.599622 
L 339.563623 19.376599 
L 340.173571 19.315702 
L 340.783518 19.510364 
L 341.393465 18.261957 
L 342.003412 18.03586 
L 342.613359 17.553484 
L 343.223306 19.394269 
L 343.833254 18.307355 
L 344.443201 18.633211 
L 345.053148 17.410435 
L 345.663095 20.556483 
L 346.273042 17.955333 
L 346.88299 17.875872 
L 347.492937 17.134665 
L 348.102884 17.462569 
L 348.712831 18.831438 
L 349.322778 20.648502 
L 349.932725 18.739021 
L 350.542673 20.114203 
L 351.15262 19.27576 
L 351.762567 19.067291 
L 352.372514 17.849941 
L 352.982461 17.805473 
L 354.202356 18.910505 
L 354.812303 18.617188 
L 355.42225 19.965192 
L 356.032197 17.070129 
L 356.642144 17.810543 
L 357.252091 16.932848 
L 357.862039 16.679503 
L 358.471986 18.151944 
L 359.081933 18.455311 
L 359.69188 17.450271 
L 360.301827 17.405853 
L 360.911774 18.49189 
L 361.521722 19.139102 
L 362.131669 17.489644 
L 363.351563 19.003765 
L 363.96151 18.434548 
L 365.181405 17.764083 
L 365.791352 17.615629 
L 366.401299 19.937009 
L 367.011246 23.16507 
L 367.621193 19.938492 
L 367.621193 19.938492 
" clip-path="url(#pddf0592e07)" style="fill: none; stroke-dasharray: 3.7,1.6; stroke-dashoffset: 0; stroke: #000000"/>
   </g>
   <g id="patch_3">
    <path d="M 48.039375 253.08 
L 48.039375 3.6 
" style="fill: none; stroke: #000000; stroke-width: 0.5; stroke-linejoin: miter; stroke-linecap: square"/>
   </g>
   <g id="patch_4">
    <path d="M 382.839375 253.08 
L 382.839375 3.6 
" style="fill: none; stroke: #000000; stroke-width: 0.5; stroke-linejoin: miter; stroke-linecap: square"/>
   </g>
   <g id="patch_5">
    <path d="M 48.039375 253.08 
L 382.839375 253.08 
" style="fill: none; stroke: #000000; stroke-width: 0.5; stroke-linejoin: miter; stroke-linecap: square"/>
   </g>
   <g id="patch_6">
    <path d="M 48.039375 3.6 
L 382.839375 3.6 
" style="fill: none; stroke: #000000; stroke-width: 0.5; stroke-linejoin: miter; stroke-linecap: square"/>
   </g>
   <g id="legend_1">
    <g id="patch_7">
     <path d="M 256.633125 247.08 
L 374.439375 247.08 
Q 376.839375 247.08 376.839375 244.68 
L 376.839375 193.03875 
Q 376.839375 190.63875 374.439375 190.63875 
L 256.633125 190.63875 
Q 254.233125 190.63875 254.233125 193.03875 
L 254.233125 244.68 
Q 254.233125 247.08 256.633125 247.08 
z
" style="fill: #ffffff; opacity: 0.8; stroke: #cccccc; stroke-linejoin: miter"/>
    </g>
    <g id="line2d_151">
     <path d="M 259.033125 200.356875 
L 271.033125 200.356875 
L 283.033125 200.356875 
" style="fill: none; stroke: #000000; stroke-linecap: square"/>
    </g>
    <g id="text_17">
     <!-- Max fitness -->
     <g transform="translate(292.633125 204.556875) scale(0.12 -0.12)">
      <defs>
       <path id="DejaVuSans-4d" d="M 628 4666 
L 1569 4666 
L 2759 1491 
L 3956 4666 
L 4897 4666 
L 4897 0 
L 4281 0 
L 4281 4097 
L 3078 897 
L 2444 897 
L 1241 4097 
L 1241 0 
L 628 0 
L 628 4666 
z
" transform="scale(0.015625)"/>
       <path id="DejaVuSans-78" d="M 3513 3500 
L 2247 1797 
L 3578 0 
L 2900 0 
L 1881 1375 
L 863 0 
L 184 0 
L 1544 1831 
L 300 3500 
L 978 3500 
L 1906 2253 
L 2834 3500 
L 3513 3500 
z
" transform="scale(0.015625)"/>
       <path id="DejaVuSans-20" transform="scale(0.015625)"/>
       <path id="DejaVuSans-66" d="M 2375 4863 
L 2375 4384 
L 1825 4384 
Q 1516 4384 1395 4259 
Q 1275 4134 1275 3809 
L 1275 3500 
L 2222 3500 
L 2222 3053 
L 1275 3053 
L 1275 0 
L 697 0 
L 697 3053 
L 147 3053 
L 147 3500 
L 697 3500 
L 697 3744 
Q 697 4328 969 4595 
Q 1241 4863 1831 4863 
L 2375 4863 
z
" transform="scale(0.015625)"/>
      </defs>
      <use xlink:href="#DejaVuSans-4d"/>
      <use xlink:href="#DejaVuSans-61" x="86.279297"/>
      <use xlink:href="#DejaVuSans-78" x="147.558594"/>
      <use xlink:href="#DejaVuSans-20" x="206.738281"/>
      <use xlink:href="#DejaVuSans-66" x="238.525391"/>
      <use xlink:href="#DejaVuSans-69" x="273.730469"/>
      <use xlink:href="#DejaVuSans-74" x="301.513672"/>
      <use xlink:href="#DejaVuSans-6e" x="340.722656"/>
      <use xlink:href="#DejaVuSans-65" x="404.101562"/>
      <use xlink:href="#DejaVuSans-73" x="465.625"/>
      <use xlink:href="#DejaVuSans-73" x="517.724609"/>
     </g>
    </g>
    <g id="patch_8">
     <path d="M 259.033125 222.170625 
L 283.033125 222.170625 
L 283.033125 213.770625 
L 259.033125 213.770625 
z
" style="fill: #0000ff; fill-opacity: 0.2; stroke: #0000ff; stroke-opacity: 0.2; stroke-linejoin: miter"/>
    </g>
    <g id="text_18">
     <!-- Top 90% -->
     <g transform="translate(292.633125 222.170625) scale(0.12 -0.12)">
      <defs>
       <path id="DejaVuSans-54" d="M -19 4666 
L 3928 4666 
L 3928 4134 
L 2272 4134 
L 2272 0 
L 1638 0 
L 1638 4134 
L -19 4134 
L -19 4666 
z
" transform="scale(0.015625)"/>
       <path id="DejaVuSans-70" d="M 1159 525 
L 1159 -1331 
L 581 -1331 
L 581 3500 
L 1159 3500 
L 1159 2969 
Q 1341 3281 1617 3432 
Q 1894 3584 2278 3584 
Q 2916 3584 3314 3078 
Q 3713 2572 3713 1747 
Q 3713 922 3314 415 
Q 2916 -91 2278 -91 
Q 1894 -91 1617 61 
Q 1341 213 1159 525 
z
M 3116 1747 
Q 3116 2381 2855 2742 
Q 2594 3103 2138 3103 
Q 1681 3103 1420 2742 
Q 1159 2381 1159 1747 
Q 1159 1113 1420 752 
Q 1681 391 2138 391 
Q 2594 391 2855 752 
Q 3116 1113 3116 1747 
z
" transform="scale(0.015625)"/>
       <path id="DejaVuSans-39" d="M 703 97 
L 703 672 
Q 941 559 1184 500 
Q 1428 441 1663 441 
Q 2288 441 2617 861 
Q 2947 1281 2994 2138 
Q 2813 1869 2534 1725 
Q 2256 1581 1919 1581 
Q 1219 1581 811 2004 
Q 403 2428 403 3163 
Q 403 3881 828 4315 
Q 1253 4750 1959 4750 
Q 2769 4750 3195 4129 
Q 3622 3509 3622 2328 
Q 3622 1225 3098 567 
Q 2575 -91 1691 -91 
Q 1453 -91 1209 -44 
Q 966 3 703 97 
z
M 1959 2075 
Q 2384 2075 2632 2365 
Q 2881 2656 2881 3163 
Q 2881 3666 2632 3958 
Q 2384 4250 1959 4250 
Q 1534 4250 1286 3958 
Q 1038 3666 1038 3163 
Q 1038 2656 1286 2365 
Q 1534 2075 1959 2075 
z
" transform="scale(0.015625)"/>
       <path id="DejaVuSans-25" d="M 4653 2053 
Q 4381 2053 4226 1822 
Q 4072 1591 4072 1178 
Q 4072 772 4226 539 
Q 4381 306 4653 306 
Q 4919 306 5073 539 
Q 5228 772 5228 1178 
Q 5228 1588 5073 1820 
Q 4919 2053 4653 2053 
z
M 4653 2450 
Q 5147 2450 5437 2106 
Q 5728 1763 5728 1178 
Q 5728 594 5436 251 
Q 5144 -91 4653 -91 
Q 4153 -91 3862 251 
Q 3572 594 3572 1178 
Q 3572 1766 3864 2108 
Q 4156 2450 4653 2450 
z
M 1428 4353 
Q 1159 4353 1004 4120 
Q 850 3888 850 3481 
Q 850 3069 1003 2837 
Q 1156 2606 1428 2606 
Q 1700 2606 1854 2837 
Q 2009 3069 2009 3481 
Q 2009 3884 1853 4118 
Q 1697 4353 1428 4353 
z
M 4250 4750 
L 4750 4750 
L 1831 -91 
L 1331 -91 
L 4250 4750 
z
M 1428 4750 
Q 1922 4750 2215 4408 
Q 2509 4066 2509 3481 
Q 2509 2891 2217 2550 
Q 1925 2209 1428 2209 
Q 931 2209 642 2551 
Q 353 2894 353 3481 
Q 353 4063 643 4406 
Q 934 4750 1428 4750 
z
" transform="scale(0.015625)"/>
      </defs>
      <use xlink:href="#DejaVuSans-54"/>
      <use xlink:href="#DejaVuSans-6f" x="44.083984"/>
      <use xlink:href="#DejaVuSans-70" x="105.265625"/>
      <use xlink:href="#DejaVuSans-20" x="168.742188"/>
      <use xlink:href="#DejaVuSans-39" x="200.529297"/>
      <use xlink:href="#DejaVuSans-30" x="264.152344"/>
      <use xlink:href="#DejaVuSans-25" x="327.775391"/>
     </g>
    </g>
    <g id="line2d_152">
     <path d="M 259.033125 235.584375 
L 271.033125 235.584375 
L 283.033125 235.584375 
" style="fill: none; stroke-dasharray: 3.7,1.6; stroke-dashoffset: 0; stroke: #000000"/>
    </g>
    <g id="text_19">
     <!-- Fitness mean -->
     <g transform="translate(292.633125 239.784375) scale(0.12 -0.12)">
      <defs>
       <path id="DejaVuSans-6d" d="M 3328 2828 
Q 3544 3216 3844 3400 
Q 4144 3584 4550 3584 
Q 5097 3584 5394 3201 
Q 5691 2819 5691 2113 
L 5691 0 
L 5113 0 
L 5113 2094 
Q 5113 2597 4934 2840 
Q 4756 3084 4391 3084 
Q 3944 3084 3684 2787 
Q 3425 2491 3425 1978 
L 3425 0 
L 2847 0 
L 2847 2094 
Q 2847 2600 2669 2842 
Q 2491 3084 2119 3084 
Q 1678 3084 1418 2786 
Q 1159 2488 1159 1978 
L 1159 0 
L 581 0 
L 581 3500 
L 1159 3500 
L 1159 2956 
Q 1356 3278 1631 3431 
Q 1906 3584 2284 3584 
Q 2666 3584 2933 3390 
Q 3200 3197 3328 2828 
z
" transform="scale(0.015625)"/>
      </defs>
      <use xlink:href="#DejaVuSans-46"/>
      <use xlink:href="#DejaVuSans-69" x="50.269531"/>
      <use xlink:href="#DejaVuSans-74" x="78.052734"/>
      <use xlink:href="#DejaVuSans-6e" x="117.261719"/>
      <use xlink:href="#DejaVuSans-65" x="180.640625"/>
      <use xlink:href="#DejaVuSans-73" x="242.164062"/>
      <use xlink:href="#DejaVuSans-73" x="294.263672"/>
      <use xlink:href="#DejaVuSans-20" x="346.363281"/>
      <use xlink:href="#DejaVuSans-6d" x="378.150391"/>
      <use xlink:href="#DejaVuSans-65" x="475.5625"/>
      <use xlink:href="#DejaVuSans-61" x="537.085938"/>
      <use xlink:href="#DejaVuSans-6e" x="598.365234"/>
     </g>
    </g>
   </g>
  </g>
 </g>
 <defs>
  <clipPath id="pddf0592e07">
   <rect x="48.039375" y="3.6" width="334.8" height="249.48"/>
  </clipPath>
 </defs>
</svg>
