<?xml version="1.0" encoding="utf-8" standalone="no"?>
<!DOCTYPE svg PUBLIC "-//W3C//DTD SVG 1.1//EN"
  "http://www.w3.org/Graphics/SVG/1.1/DTD/svg11.dtd">
<svg xmlns:xlink="http://www.w3.org/1999/xlink" width="386.439375pt" height="287.4075pt" viewBox="0 0 386.439375 287.4075" xmlns="http://www.w3.org/2000/svg" version="1.1">
 <metadata>
  <rdf:RDF xmlns:dc="http://purl.org/dc/elements/1.1/" xmlns:cc="http://creativecommons.org/ns#" xmlns:rdf="http://www.w3.org/1999/02/22-rdf-syntax-ns#">
   <cc:Work>
    <dc:type rdf:resource="http://purl.org/dc/dcmitype/StillImage"/>
    <dc:date>2024-06-04T12:14:33.793152</dc:date>
    <dc:format>image/svg+xml</dc:format>
    <dc:creator>
     <cc:Agent>
      <dc:title>Matplotlib v3.9.0, https://matplotlib.org/</dc:title>
     </cc:Agent>
    </dc:creator>
   </cc:Work>
  </rdf:RDF>
 </metadata>
 <defs>
  <style type="text/css">*{stroke-linejoin: round; stroke-linecap: butt}</style>
 </defs>
 <g id="figure_1">
  <g id="patch_1">
   <path d="M 0 287.4075 
L 386.439375 287.4075 
L 386.439375 0 
L 0 0 
z
" style="fill: #ffffff"/>
  </g>
  <g id="axes_1">
   <g id="patch_2">
    <path d="M 48.039375 253.08 
L 382.839375 253.08 
L 382.839375 3.6 
L 48.039375 3.6 
z
" style="fill: #ffffff"/>
   </g>
   <g id="PolyCollection_1">
    <defs>
     <path id="m104e5b1d6e" d="M 63.257557 -220.238041 
L 63.257557 -45.6675 
L 63.867504 -46.874666 
L 64.477451 -46.432127 
L 65.087398 -46.944274 
L 65.697345 -46.390943 
L 66.307293 -46.46805 
L 66.91724 -47.304929 
L 67.527187 -47.748826 
L 68.137134 -46.829837 
L 68.747081 -48.144158 
L 69.357028 -47.241277 
L 69.966976 -54.098368 
L 70.576923 -49.856362 
L 71.18687 -50.399102 
L 71.796817 -57.398292 
L 72.406764 -125.323125 
L 73.016711 -49.47682 
L 73.626659 -124.064366 
L 74.236606 -135.589001 
L 74.846553 -163.510091 
L 75.4565 -175.56529 
L 76.066447 -142.241301 
L 76.676394 -140.522967 
L 77.286342 -159.991192 
L 77.896289 -163.053208 
L 78.506236 -160.16026 
L 79.116183 -160.167181 
L 79.72613 -160.97283 
L 80.336077 -188.420283 
L 80.946025 -183.580086 
L 81.555972 -220.450654 
L 82.165919 -220.237833 
L 82.775866 -232.653674 
L 83.385813 -233.768512 
L 83.99576 -232.916415 
L 84.605708 -228.96229 
L 85.215655 -230.49655 
L 85.825602 -227.236504 
L 86.435549 -227.530713 
L 87.045496 -227.042871 
L 87.655444 -210.944161 
L 88.265391 -226.692004 
L 88.875338 -222.974842 
L 89.485285 -219.2063 
L 90.095232 -220.689764 
L 90.705179 -226.786841 
L 91.315127 -234.506648 
L 91.925074 -231.038407 
L 92.535021 -230.276544 
L 93.144968 -231.409016 
L 93.754915 -234.199617 
L 94.364862 -234.130497 
L 94.97481 -236.809809 
L 95.584757 -236.304912 
L 96.194704 -236.304111 
L 96.804651 -238.764789 
L 97.414598 -242.397187 
L 98.024545 -245.475264 
L 98.634493 -242.980725 
L 99.24444 -237.958916 
L 99.854387 -242.925052 
L 100.464334 -244.668765 
L 101.074281 -237.88453 
L 101.684228 -244.957732 
L 102.294176 -243.440765 
L 102.904123 -235.362394 
L 103.51407 -236.677985 
L 104.124017 -227.913404 
L 104.733964 -232.142017 
L 105.343911 -229.003826 
L 105.953859 -229.792401 
L 106.563806 -235.539859 
L 107.173753 -236.233527 
L 107.7837 -228.850182 
L 108.393647 -229.701705 
L 109.003594 -228.955297 
L 109.613542 -246.03428 
L 110.223489 -246.562294 
L 110.833436 -240.484488 
L 111.443383 -244.508551 
L 112.05333 -246.134977 
L 112.663277 -241.229467 
L 113.273225 -248.975184 
L 113.883172 -254.282637 
L 114.493119 -250.365739 
L 115.103066 -246.518406 
L 115.713013 -235.567568 
L 116.32296 -242.488453 
L 116.932908 -251.212496 
L 117.542855 -233.06448 
L 118.152802 -243.548497 
L 118.762749 -236.725119 
L 119.372696 -234.446496 
L 119.982643 -223.01871 
L 120.592591 -239.99095 
L 121.202538 -238.086887 
L 121.812485 -250.499901 
L 122.422432 -250.440737 
L 123.032379 -242.526308 
L 123.642326 -253.786287 
L 124.252274 -243.488659 
L 124.862221 -240.656911 
L 125.472168 -243.615104 
L 126.082115 -203.387467 
L 126.692062 -213.407582 
L 127.302009 -211.132303 
L 127.911957 -237.799509 
L 128.521904 -238.320179 
L 129.131851 -243.507519 
L 129.741798 -241.574873 
L 130.351745 -243.688918 
L 130.961692 -237.500855 
L 131.57164 -234.831803 
L 132.181587 -235.745192 
L 132.791534 -241.240492 
L 133.401481 -241.395037 
L 134.011428 -235.739532 
L 134.621375 -240.795487 
L 135.231323 -240.45565 
L 135.84127 -248.554644 
L 136.451217 -249.244059 
L 137.061164 -241.574233 
L 137.671111 -232.697006 
L 138.281058 -228.325569 
L 138.891006 -249.855954 
L 139.500953 -252.307655 
L 140.1109 -252.740644 
L 140.720847 -250.962073 
L 141.330794 -252.310191 
L 141.940741 -253.645693 
L 142.550689 -252.307554 
L 143.160636 -247.596808 
L 143.770583 -242.613577 
L 144.38053 -249.147188 
L 144.990477 -244.392139 
L 145.600424 -220.026499 
L 146.210372 -240.179184 
L 146.820319 -241.768858 
L 147.430266 -235.137027 
L 148.040213 -238.161897 
L 148.65016 -229.644614 
L 149.260107 -225.776899 
L 149.870055 -226.447791 
L 150.480002 -221.366272 
L 151.089949 -226.444352 
L 151.699896 -223.550711 
L 152.309843 -223.551328 
L 152.91979 -234.102425 
L 153.529738 -229.227743 
L 154.139685 -216.149353 
L 154.749632 -221.251945 
L 155.359579 -230.425637 
L 155.969526 -238.95647 
L 156.579473 -244.063733 
L 157.189421 -246.871974 
L 157.799368 -242.561623 
L 158.409315 -237.631318 
L 159.019262 -237.937271 
L 159.629209 -225.769844 
L 160.239156 -237.051613 
L 160.849104 -235.274592 
L 161.459051 -236.751707 
L 162.068998 -233.434928 
L 162.678945 -220.896128 
L 163.288892 -230.763265 
L 163.898839 -226.821095 
L 164.508787 -226.621224 
L 165.118734 -214.047564 
L 165.728681 -226.62105 
L 166.338628 -226.620742 
L 166.948575 -225.984104 
L 167.558522 -214.59645 
L 168.16847 -212.663646 
L 168.778417 -207.441169 
L 169.388364 -212.47385 
L 169.998311 -200.826529 
L 170.608258 -185.854659 
L 171.218205 -192.26389 
L 171.828153 -198.714271 
L 172.4381 -196.10904 
L 173.048047 -203.947485 
L 173.657994 -204.116584 
L 174.267941 -195.093831 
L 174.877888 -192.87991 
L 175.487836 -189.684304 
L 176.097783 -190.271869 
L 176.70773 -192.635142 
L 177.317677 -197.703781 
L 177.927624 -204.188999 
L 178.537571 -220.588318 
L 179.147519 -241.393488 
L 179.757466 -244.154916 
L 180.367413 -244.25865 
L 180.97736 -237.83697 
L 181.587307 -248.077709 
L 182.197254 -249.305889 
L 182.807202 -252.549225 
L 183.417149 -254.399322 
L 184.027096 -252.830111 
L 184.637043 -250.260624 
L 185.24699 -234.586789 
L 185.856937 -247.525729 
L 186.466885 -248.271138 
L 187.076832 -243.352114 
L 187.686779 -249.055513 
L 188.296726 -240.238831 
L 188.906673 -241.123545 
L 189.51662 -251.510942 
L 190.126568 -259.206208 
L 190.736515 -259.120222 
L 191.346462 -259.075385 
L 191.956409 -238.337411 
L 192.566356 -257.876315 
L 193.176303 -258.226939 
L 193.786251 -243.015157 
L 194.396198 -245.119526 
L 195.006145 -252.856313 
L 195.616092 -245.789247 
L 196.226039 -247.948959 
L 196.835986 -242.447851 
L 197.445934 -243.91365 
L 198.055881 -241.999475 
L 198.665828 -235.582151 
L 199.275775 -239.22731 
L 199.885722 -241.068391 
L 200.495669 -240.410584 
L 201.105617 -246.498398 
L 201.715564 -242.478864 
L 202.325511 -245.553438 
L 202.935458 -236.160507 
L 203.545405 -238.349873 
L 204.155352 -249.657747 
L 204.7653 -248.003503 
L 205.375247 -247.309124 
L 205.985194 -249.762192 
L 206.595141 -248.110645 
L 207.205088 -255.404613 
L 207.815035 -248.992097 
L 208.424983 -260.755323 
L 209.03493 -258.912854 
L 209.644877 -264.33917 
L 210.254824 -259.997445 
L 210.864771 -252.906347 
L 211.474718 -260.044561 
L 212.084666 -243.049378 
L 212.694613 -244.844428 
L 213.30456 -243.285981 
L 213.914507 -234.54147 
L 214.524454 -251.649224 
L 215.134401 -260.47543 
L 215.744349 -261.887637 
L 216.354296 -261.764045 
L 216.964243 -258.515915 
L 217.57419 -243.62339 
L 218.184137 -231.315437 
L 218.794084 -236.677301 
L 219.404032 -242.610093 
L 220.013979 -236.868105 
L 220.623926 -244.03826 
L 221.233873 -241.987857 
L 221.84382 -239.889497 
L 222.453767 -234.382458 
L 223.063715 -235.754926 
L 223.673662 -245.938503 
L 224.283609 -237.161001 
L 224.893556 -233.095362 
L 225.503503 -237.163032 
L 226.11345 -242.104316 
L 226.723398 -254.20988 
L 227.333345 -259.133374 
L 227.943292 -266.739754 
L 228.553239 -266.01307 
L 229.163186 -266.693395 
L 229.773133 -266.934442 
L 230.383081 -257.929258 
L 230.993028 -257.637415 
L 231.602975 -244.824348 
L 232.212922 -260.084815 
L 232.822869 -268.773297 
L 233.432816 -259.37264 
L 234.042764 -269.259607 
L 234.652711 -269.309768 
L 235.262658 -270.351799 
L 235.872605 -255.987507 
L 236.482552 -246.279471 
L 237.092499 -250.739297 
L 237.702447 -253.804859 
L 238.312394 -250.740033 
L 238.922341 -258.559872 
L 239.532288 -264.807136 
L 240.142235 -258.55913 
L 240.752182 -258.759613 
L 241.36213 -256.660218 
L 241.972077 -265.635381 
L 242.582024 -267.362901 
L 243.191971 -257.601221 
L 243.801918 -248.717973 
L 244.411865 -248.717696 
L 245.021813 -258.833759 
L 245.63176 -252.426889 
L 246.241707 -262.718924 
L 246.851654 -261.049185 
L 247.461601 -267.157245 
L 248.071548 -264.566935 
L 248.681496 -262.714262 
L 249.291443 -231.368567 
L 249.90139 -239.798267 
L 250.511337 -243.45019 
L 251.121284 -243.825998 
L 251.731231 -256.826216 
L 252.341179 -243.189131 
L 252.951126 -246.847813 
L 253.561073 -253.186266 
L 254.17102 -235.805315 
L 254.780967 -256.996415 
L 255.390914 -252.277093 
L 256.000862 -239.996587 
L 256.610809 -239.298759 
L 257.220756 -251.416727 
L 257.830703 -240.926304 
L 258.44065 -251.577742 
L 259.050597 -251.58512 
L 259.660545 -254.462227 
L 260.270492 -246.334976 
L 260.880439 -251.903895 
L 261.490386 -252.680509 
L 262.100333 -254.487247 
L 262.71028 -257.365256 
L 263.320228 -255.075759 
L 263.930175 -248.717307 
L 264.540122 -255.039257 
L 265.150069 -252.95669 
L 265.760016 -235.574597 
L 266.369963 -252.691901 
L 266.979911 -244.148952 
L 267.589858 -247.137252 
L 268.199805 -253.069604 
L 268.809752 -252.787227 
L 269.419699 -252.795296 
L 270.029646 -254.329662 
L 270.639594 -257.137751 
L 271.249541 -263.853896 
L 271.859488 -265.598649 
L 272.469435 -265.583966 
L 273.079382 -256.411817 
L 273.689329 -257.65819 
L 274.299277 -257.138463 
L 274.909224 -240.77805 
L 275.519171 -253.869644 
L 276.129118 -252.778814 
L 276.739065 -258.594774 
L 277.349012 -252.774198 
L 277.95896 -253.809496 
L 278.568907 -253.672249 
L 279.178854 -260.384101 
L 279.788801 -261.746064 
L 280.398748 -262.439503 
L 281.008695 -262.439614 
L 281.618643 -259.685686 
L 282.22859 -257.756064 
L 282.838537 -261.716408 
L 283.448484 -255.724953 
L 284.058431 -261.717966 
L 284.668378 -265.009655 
L 285.278326 -262.87557 
L 285.888273 -268.058573 
L 286.49822 -261.91318 
L 287.108167 -258.388678 
L 287.718114 -243.140339 
L 288.328061 -238.662048 
L 288.938009 -232.842293 
L 289.547956 -246.91083 
L 290.157903 -244.814017 
L 290.76785 -240.15217 
L 291.377797 -248.851932 
L 291.987744 -252.467711 
L 292.597692 -255.763795 
L 293.207639 -235.417544 
L 293.817586 -234.940411 
L 294.427533 -239.044821 
L 295.03748 -239.045713 
L 295.647427 -255.330427 
L 296.257375 -261.714329 
L 296.867322 -247.003574 
L 297.477269 -254.714481 
L 298.087216 -233.255916 
L 298.697163 -241.936464 
L 299.30711 -240.106538 
L 299.917058 -246.770357 
L 300.527005 -236.930282 
L 301.136952 -244.033625 
L 301.746899 -251.329408 
L 302.356846 -253.167917 
L 302.966793 -255.240854 
L 303.576741 -249.355345 
L 304.186688 -251.46469 
L 304.796635 -244.5822 
L 305.406582 -246.719318 
L 306.016529 -256.829972 
L 306.626476 -246.249505 
L 307.236424 -237.704828 
L 307.846371 -250.572108 
L 308.456318 -246.638738 
L 309.066265 -254.296741 
L 309.676212 -258.634468 
L 310.286159 -254.330394 
L 310.896107 -241.324793 
L 311.506054 -256.017224 
L 312.116001 -261.853565 
L 312.725948 -255.693353 
L 313.335895 -255.741482 
L 313.945842 -255.74026 
L 314.55579 -246.509602 
L 315.165737 -244.098234 
L 315.775684 -251.196648 
L 316.385631 -232.07003 
L 316.995578 -241.516816 
L 317.605525 -246.057571 
L 318.215473 -241.488845 
L 318.82542 -246.526723 
L 319.435367 -252.000276 
L 320.045314 -257.400602 
L 320.655261 -261.644383 
L 321.265208 -266.976281 
L 321.875156 -268.609439 
L 322.485103 -258.506706 
L 323.09505 -246.1243 
L 323.704997 -266.71388 
L 324.314944 -262.925452 
L 324.924891 -263.871472 
L 325.534839 -267.18644 
L 326.144786 -265.406239 
L 326.754733 -265.404649 
L 327.36468 -254.312528 
L 327.974627 -242.394482 
L 328.584574 -261.804131 
L 329.194522 -262.43516 
L 329.804469 -269.228857 
L 330.414416 -269.015849 
L 331.024363 -268.836155 
L 331.63431 -269.013347 
L 332.244257 -267.42451 
L 332.854205 -253.645235 
L 333.464152 -254.401093 
L 334.074099 -266.056747 
L 334.684046 -260.228615 
L 335.293993 -260.225031 
L 335.90394 -255.879317 
L 336.513888 -246.534777 
L 337.123835 -257.11446 
L 337.733782 -261.24731 
L 338.343729 -265.638128 
L 338.953676 -264.812743 
L 339.563623 -256.061662 
L 340.173571 -245.835351 
L 340.783518 -251.738598 
L 341.393465 -261.759315 
L 342.003412 -262.871087 
L 342.613359 -263.778374 
L 343.223306 -253.495236 
L 343.833254 -237.669556 
L 344.443201 -239.643533 
L 345.053148 -240.226959 
L 345.663095 -234.035084 
L 346.273042 -245.200391 
L 346.88299 -239.574481 
L 347.492937 -259.299193 
L 348.102884 -264.800964 
L 348.712831 -248.350738 
L 349.322778 -259.329809 
L 349.932725 -246.57514 
L 350.542673 -247.671528 
L 351.15262 -240.526742 
L 351.762567 -237.88804 
L 352.372514 -242.588384 
L 352.982461 -243.356296 
L 353.592408 -244.147497 
L 354.202356 -246.292164 
L 354.812303 -244.585501 
L 355.42225 -255.498714 
L 356.032197 -239.809648 
L 356.642144 -240.01833 
L 357.252091 -252.363429 
L 357.862039 -252.526678 
L 358.471986 -250.281307 
L 359.081933 -250.580582 
L 359.69188 -246.729503 
L 360.301827 -247.665922 
L 360.911774 -258.825221 
L 361.521722 -248.680743 
L 362.131669 -258.228095 
L 362.741616 -257.799729 
L 363.351563 -254.7036 
L 363.96151 -247.961818 
L 364.571457 -248.795223 
L 365.181405 -249.848988 
L 365.791352 -239.399464 
L 366.401299 -231.558881 
L 367.011246 -229.403864 
L 367.621193 -244.015719 
L 367.621193 -272.464709 
L 367.621193 -272.464709 
L 367.011246 -272.465084 
L 366.401299 -272.465428 
L 365.791352 -272.466696 
L 365.181405 -272.4675 
L 364.571457 -271.617304 
L 363.96151 -271.617273 
L 363.351563 -271.616583 
L 362.741616 -271.616345 
L 362.131669 -271.617259 
L 361.521722 -271.564029 
L 360.911774 -271.565861 
L 360.301827 -271.567114 
L 359.69188 -271.564088 
L 359.081933 -271.564547 
L 358.471986 -271.570449 
L 357.862039 -271.563548 
L 357.252091 -271.563955 
L 356.642144 -271.568538 
L 356.032197 -271.543291 
L 355.42225 -271.569379 
L 354.812303 -271.574428 
L 354.202356 -271.554584 
L 353.592408 -271.549904 
L 352.982461 -271.551707 
L 352.372514 -271.54866 
L 351.762567 -271.549724 
L 351.15262 -271.569712 
L 350.542673 -271.54642 
L 349.932725 -271.560596 
L 349.322778 -271.560799 
L 348.712831 -271.557077 
L 348.102884 -271.546577 
L 347.492937 -271.54408 
L 346.88299 -271.550391 
L 346.273042 -271.545816 
L 345.663095 -271.544738 
L 345.053148 -271.545291 
L 344.443201 -271.558234 
L 343.833254 -271.545823 
L 343.223306 -271.548814 
L 342.613359 -271.543275 
L 342.003412 -271.548112 
L 341.393465 -271.543049 
L 340.783518 -271.545673 
L 340.173571 -271.543582 
L 339.563623 -271.542702 
L 338.953676 -271.574537 
L 338.343729 -271.55925 
L 337.733782 -271.544343 
L 337.123835 -271.542429 
L 336.513888 -271.550403 
L 335.90394 -271.536829 
L 335.293993 -271.53671 
L 334.684046 -271.536695 
L 334.074099 -271.537853 
L 333.464152 -271.536114 
L 332.854205 -271.547219 
L 332.244257 -271.52862 
L 331.63431 -271.508663 
L 331.024363 -271.508968 
L 330.414416 -271.49211 
L 329.804469 -271.48991 
L 329.194522 -271.529062 
L 328.584574 -271.491879 
L 327.974627 -271.489563 
L 327.36468 -271.490005 
L 326.754733 -271.489639 
L 326.144786 -271.489234 
L 325.534839 -271.489463 
L 324.924891 -271.489267 
L 324.314944 -271.445255 
L 323.704997 -271.445758 
L 323.09505 -271.443313 
L 322.485103 -271.450154 
L 321.875156 -271.443437 
L 321.265208 -271.448059 
L 320.655261 -271.425814 
L 320.045314 -271.416904 
L 319.435367 -271.414484 
L 318.82542 -271.413019 
L 318.215473 -271.41338 
L 317.605525 -271.412054 
L 316.995578 -271.411822 
L 316.385631 -271.408471 
L 315.775684 -271.405812 
L 315.165737 -271.406202 
L 314.55579 -271.409018 
L 313.945842 -271.404612 
L 313.335895 -271.394573 
L 312.725948 -271.382383 
L 312.116001 -271.376616 
L 311.506054 -271.378487 
L 310.896107 -271.366095 
L 310.286159 -271.359373 
L 309.676212 -271.358121 
L 309.066265 -271.361861 
L 308.456318 -271.358119 
L 307.846371 -271.357428 
L 307.236424 -271.310916 
L 306.626476 -271.32464 
L 306.016529 -271.317312 
L 305.406582 -271.311993 
L 304.796635 -271.314848 
L 304.186688 -271.310903 
L 303.576741 -271.311546 
L 302.966793 -271.314345 
L 302.356846 -271.311879 
L 301.746899 -271.319563 
L 301.136952 -271.317803 
L 300.527005 -271.313682 
L 299.917058 -271.310989 
L 299.30711 -271.313929 
L 298.697163 -271.320569 
L 298.087216 -271.316511 
L 297.477269 -271.317408 
L 296.867322 -271.329061 
L 296.257375 -271.336426 
L 295.647427 -271.310429 
L 295.03748 -271.311362 
L 294.427533 -271.313384 
L 293.817586 -271.327082 
L 293.207639 -271.32003 
L 292.597692 -271.321889 
L 291.987744 -271.314341 
L 291.377797 -271.312702 
L 290.76785 -271.312125 
L 290.157903 -271.313821 
L 289.547956 -271.329839 
L 288.938009 -271.313196 
L 288.328061 -271.318905 
L 287.718114 -271.329384 
L 287.108167 -271.31191 
L 286.49822 -271.312393 
L 285.888273 -271.312884 
L 285.278326 -271.318821 
L 284.668378 -271.311869 
L 284.058431 -271.319439 
L 283.448484 -271.312143 
L 282.838537 -271.317933 
L 282.22859 -271.322401 
L 281.618643 -271.319916 
L 281.008695 -271.315461 
L 280.398748 -271.337245 
L 279.788801 -271.311686 
L 279.178854 -271.320619 
L 278.568907 -271.314623 
L 277.95896 -271.318294 
L 277.349012 -271.313817 
L 276.739065 -271.3217 
L 276.129118 -271.312418 
L 275.519171 -271.311623 
L 274.909224 -271.310933 
L 274.299277 -271.313201 
L 273.689329 -271.320912 
L 273.079382 -271.311319 
L 272.469435 -271.311168 
L 271.859488 -271.312863 
L 271.249541 -271.340697 
L 270.639594 -271.317661 
L 270.029646 -271.310361 
L 269.419699 -271.319843 
L 268.809752 -271.311196 
L 268.199805 -271.311107 
L 267.589858 -271.312629 
L 266.979911 -271.313654 
L 266.369963 -271.315891 
L 265.760016 -271.313003 
L 265.150069 -271.312057 
L 264.540122 -271.311996 
L 263.930175 -271.31014 
L 263.320228 -271.324211 
L 262.71028 -271.312463 
L 262.100333 -271.317812 
L 261.490386 -271.318737 
L 260.880439 -271.335759 
L 260.270492 -271.308393 
L 259.660545 -271.312751 
L 259.050597 -271.314792 
L 258.44065 -271.313449 
L 257.830703 -271.30921 
L 257.220756 -271.30843 
L 256.610809 -271.311799 
L 256.000862 -271.307843 
L 255.390914 -271.308345 
L 254.780967 -271.308979 
L 254.17102 -271.307603 
L 253.561073 -271.307014 
L 252.951126 -271.312529 
L 252.341179 -271.391366 
L 251.731231 -271.339221 
L 251.121284 -271.309143 
L 250.511337 -271.328162 
L 249.90139 -271.296156 
L 249.291443 -271.306494 
L 248.681496 -271.324337 
L 248.071548 -271.330774 
L 247.461601 -271.298396 
L 246.851654 -271.296965 
L 246.241707 -271.290069 
L 245.63176 -271.301042 
L 245.021813 -271.317793 
L 244.411865 -271.292979 
L 243.801918 -271.306748 
L 243.191971 -271.307635 
L 242.582024 -271.301991 
L 241.972077 -271.306983 
L 241.36213 -271.294628 
L 240.752182 -271.297224 
L 240.142235 -271.319152 
L 239.532288 -271.310058 
L 238.922341 -271.292563 
L 238.312394 -271.293211 
L 237.702447 -271.305302 
L 237.092499 -271.314616 
L 236.482552 -271.302607 
L 235.872605 -271.297239 
L 235.262658 -271.295272 
L 234.652711 -271.300282 
L 234.042764 -271.308863 
L 233.432816 -271.302084 
L 232.822869 -271.299272 
L 232.212922 -271.330334 
L 231.602975 -271.297974 
L 230.993028 -271.290205 
L 230.383081 -271.301312 
L 229.773133 -271.355026 
L 229.163186 -271.314554 
L 228.553239 -271.289901 
L 227.943292 -271.301901 
L 227.333345 -271.312952 
L 226.723398 -271.284872 
L 226.11345 -271.296674 
L 225.503503 -271.300499 
L 224.893556 -271.291137 
L 224.283609 -271.289992 
L 223.673662 -271.284994 
L 223.063715 -271.291165 
L 222.453767 -271.291623 
L 221.84382 -271.29516 
L 221.233873 -271.296931 
L 220.623926 -271.297243 
L 220.013979 -271.296234 
L 219.404032 -271.287705 
L 218.794084 -271.288189 
L 218.184137 -271.287563 
L 217.57419 -271.285222 
L 216.964243 -271.283597 
L 216.354296 -271.293221 
L 215.744349 -271.282568 
L 215.134401 -271.282902 
L 214.524454 -271.293937 
L 213.914507 -271.252423 
L 213.30456 -271.24412 
L 212.694613 -271.241152 
L 212.084666 -271.236076 
L 211.474718 -271.248383 
L 210.864771 -271.237145 
L 210.254824 -271.242797 
L 209.644877 -271.22938 
L 209.03493 -271.224914 
L 208.424983 -271.232525 
L 207.815035 -271.222346 
L 207.205088 -271.226479 
L 206.595141 -271.22166 
L 205.985194 -271.22171 
L 205.375247 -271.222823 
L 204.7653 -271.221722 
L 204.155352 -271.225302 
L 203.545405 -271.172295 
L 202.935458 -271.22342 
L 202.325511 -271.225729 
L 201.715564 -271.160028 
L 201.105617 -271.077101 
L 200.495669 -270.936136 
L 199.885722 -270.934348 
L 199.275775 -270.937309 
L 198.665828 -270.93506 
L 198.055881 -270.660441 
L 197.445934 -270.660542 
L 196.835986 -270.655819 
L 196.226039 -270.670101 
L 195.616092 -270.659956 
L 195.006145 -270.661068 
L 194.396198 -270.658877 
L 193.786251 -270.603198 
L 193.176303 -270.602546 
L 192.566356 -270.599165 
L 191.956409 -270.601085 
L 191.346462 -269.568815 
L 190.736515 -269.523276 
L 190.126568 -269.522012 
L 189.51662 -269.523685 
L 188.906673 -269.523229 
L 188.296726 -269.501165 
L 187.686779 -269.412113 
L 187.076832 -269.199232 
L 186.466885 -269.201156 
L 185.856937 -269.204657 
L 185.24699 -269.197342 
L 184.637043 -269.193228 
L 184.027096 -269.190648 
L 183.417149 -269.18842 
L 182.807202 -269.133004 
L 182.197254 -268.421377 
L 181.587307 -267.572551 
L 180.97736 -267.409222 
L 180.367413 -267.409183 
L 179.757466 -267.408277 
L 179.147519 -267.406678 
L 178.537571 -267.404552 
L 177.927624 -265.066609 
L 177.317677 -265.061384 
L 176.70773 -265.060546 
L 176.097783 -264.977244 
L 175.487836 -264.97762 
L 174.877888 -264.980098 
L 174.267941 -264.978748 
L 173.657994 -264.980145 
L 173.048047 -264.979191 
L 172.4381 -264.974538 
L 171.828153 -264.973752 
L 171.218205 -264.97188 
L 170.608258 -263.904066 
L 169.998311 -263.903809 
L 169.388364 -263.903281 
L 168.778417 -263.903157 
L 168.16847 -263.902982 
L 167.558522 -263.904074 
L 166.948575 -263.90111 
L 166.338628 -263.902384 
L 165.728681 -263.902481 
L 165.118734 -263.904536 
L 164.508787 -263.901723 
L 163.898839 -263.903867 
L 163.288892 -263.902505 
L 162.678945 -263.902238 
L 162.068998 -263.902326 
L 161.459051 -263.899072 
L 160.849104 -263.904326 
L 160.239156 -263.901985 
L 159.629209 -263.902977 
L 159.019262 -263.902151 
L 158.409315 -263.900813 
L 157.799368 -263.901267 
L 157.189421 -263.900588 
L 156.579473 -263.902509 
L 155.969526 -263.905813 
L 155.359579 -263.900787 
L 154.749632 -263.901105 
L 154.139685 -263.898341 
L 153.529738 -263.901525 
L 152.91979 -263.900395 
L 152.309843 -263.902334 
L 151.699896 -263.902287 
L 151.089949 -263.898691 
L 150.480002 -263.900393 
L 149.870055 -263.901149 
L 149.260107 -263.900792 
L 148.65016 -261.802042 
L 148.040213 -261.781946 
L 147.430266 -261.780785 
L 146.820319 -261.602961 
L 146.210372 -261.622869 
L 145.600424 -261.610508 
L 144.990477 -261.60592 
L 144.38053 -261.599023 
L 143.770583 -261.59874 
L 143.160636 -261.59913 
L 142.550689 -261.541579 
L 141.940741 -261.544138 
L 141.330794 -261.541076 
L 140.720847 -261.540537 
L 140.1109 -261.555917 
L 139.500953 -261.543551 
L 138.891006 -261.54075 
L 138.281058 -261.552479 
L 137.671111 -261.543541 
L 137.061164 -261.539484 
L 136.451217 -261.542757 
L 135.84127 -261.540574 
L 135.231323 -261.539548 
L 134.621375 -261.540084 
L 134.011428 -261.539106 
L 133.401481 -261.186713 
L 132.791534 -261.186293 
L 132.181587 -261.186738 
L 131.57164 -260.994096 
L 130.961692 -260.851049 
L 130.351745 -260.850909 
L 129.741798 -260.850341 
L 129.131851 -260.850249 
L 128.521904 -260.851767 
L 127.911957 -260.848454 
L 127.302009 -260.851514 
L 126.692062 -260.309714 
L 126.082115 -260.311892 
L 125.472168 -260.311609 
L 124.862221 -260.30608 
L 124.252274 -260.312622 
L 123.642326 -260.306205 
L 123.032379 -260.307073 
L 122.422432 -260.306503 
L 121.812485 -260.319241 
L 121.202538 -260.305812 
L 120.592591 -260.30782 
L 119.982643 -260.314186 
L 119.372696 -260.306196 
L 118.762749 -260.305349 
L 118.152802 -260.303617 
L 117.542855 -260.303821 
L 116.932908 -260.304156 
L 116.32296 -260.29849 
L 115.713013 -260.298171 
L 115.103066 -260.296083 
L 114.493119 -260.298894 
L 113.883172 -260.295949 
L 113.273225 -260.296661 
L 112.663277 -260.296539 
L 112.05333 -259.592463 
L 111.443383 -259.591259 
L 110.833436 -259.591773 
L 110.223489 -259.589214 
L 109.613542 -259.339332 
L 109.003594 -259.340606 
L 108.393647 -259.339935 
L 107.7837 -259.339393 
L 107.173753 -259.341068 
L 106.563806 -259.273801 
L 105.953859 -259.273441 
L 105.343911 -259.272483 
L 104.733964 -259.272898 
L 104.124017 -259.273916 
L 103.51407 -259.177677 
L 102.904123 -259.177436 
L 102.294176 -259.17727 
L 101.684228 -259.173927 
L 101.074281 -259.177283 
L 100.464334 -259.175415 
L 99.854387 -259.178136 
L 99.24444 -259.007741 
L 98.634493 -259.007261 
L 98.024545 -259.004404 
L 97.414598 -259.00794 
L 96.804651 -257.735982 
L 96.194704 -257.732144 
L 95.584757 -257.7335 
L 94.97481 -257.729499 
L 94.364862 -257.726887 
L 93.754915 -257.724282 
L 93.144968 -257.434537 
L 92.535021 -257.434826 
L 91.925074 -257.433899 
L 91.315127 -257.135374 
L 90.705179 -257.136231 
L 90.095232 -257.13514 
L 89.485285 -257.133559 
L 88.875338 -256.063933 
L 88.265391 -255.937997 
L 87.655444 -255.940793 
L 87.045496 -255.388948 
L 86.435549 -255.384633 
L 85.825602 -255.386171 
L 85.215655 -255.383642 
L 84.605708 -255.38378 
L 83.99576 -253.177425 
L 83.385813 -253.176971 
L 82.775866 -253.173791 
L 82.165919 -253.175691 
L 81.555972 -253.17941 
L 80.946025 -251.393348 
L 80.336077 -250.961617 
L 79.72613 -250.961877 
L 79.116183 -250.960721 
L 78.506236 -249.75648 
L 77.896289 -249.75383 
L 77.286342 -248.114847 
L 76.676394 -248.117972 
L 76.066447 -248.114702 
L 75.4565 -248.115742 
L 74.846553 -248.116208 
L 74.236606 -248.1159 
L 73.626659 -247.155455 
L 73.016711 -247.154027 
L 72.406764 -247.15643 
L 71.796817 -247.152451 
L 71.18687 -245.918212 
L 70.576923 -245.916064 
L 69.966976 -240.127931 
L 69.357028 -240.122926 
L 68.747081 -240.116133 
L 68.137134 -240.118948 
L 67.527187 -229.594398 
L 66.91724 -229.352552 
L 66.307293 -229.351821 
L 65.697345 -229.352984 
L 65.087398 -229.352325 
L 64.477451 -229.352142 
L 63.867504 -229.352904 
L 63.257557 -220.238041 
z
" style="stroke: #0000ff; stroke-opacity: 0.2"/>
    </defs>
    <g clip-path="url(#p6127d24710)">
     <use xlink:href="#m104e5b1d6e" x="0" y="287.4075" style="fill: #0000ff; fill-opacity: 0.2; stroke: #0000ff; stroke-opacity: 0.2"/>
    </g>
   </g>
   <g id="matplotlib.axis_1">
    <g id="xtick_1">
     <g id="line2d_1">
      <path d="M 63.257557 253.08 
L 63.257557 3.6 
" clip-path="url(#p6127d24710)" style="fill: none; stroke: #b0b0b0; stroke-width: 0.5; stroke-linecap: square"/>
     </g>
     <g id="line2d_2">
      <defs>
       <path id="md12c115913" d="M 0 0 
L 0 -3 
" style="stroke: #000000; stroke-width: 0.5"/>
      </defs>
      <g>
       <use xlink:href="#md12c115913" x="63.257557" y="253.08" style="stroke: #000000; stroke-width: 0.5"/>
      </g>
     </g>
     <g id="line2d_3">
      <defs>
       <path id="m8ea091a7a6" d="M 0 0 
L 0 3 
" style="stroke: #000000; stroke-width: 0.5"/>
      </defs>
      <g>
       <use xlink:href="#m8ea091a7a6" x="63.257557" y="3.6" style="stroke: #000000; stroke-width: 0.5"/>
      </g>
     </g>
     <g id="text_1">
      <!-- 0 -->
      <g transform="translate(59.440057 265.698125) scale(0.12 -0.12)">
       <defs>
        <path id="DejaVuSans-30" d="M 2034 4250 
Q 1547 4250 1301 3770 
Q 1056 3291 1056 2328 
Q 1056 1369 1301 889 
Q 1547 409 2034 409 
Q 2525 409 2770 889 
Q 3016 1369 3016 2328 
Q 3016 3291 2770 3770 
Q 2525 4250 2034 4250 
z
M 2034 4750 
Q 2819 4750 3233 4129 
Q 3647 3509 3647 2328 
Q 3647 1150 3233 529 
Q 2819 -91 2034 -91 
Q 1250 -91 836 529 
Q 422 1150 422 2328 
Q 422 3509 836 4129 
Q 1250 4750 2034 4750 
z
" transform="scale(0.015625)"/>
       </defs>
       <use xlink:href="#DejaVuSans-30"/>
      </g>
     </g>
    </g>
    <g id="xtick_2">
     <g id="line2d_4">
      <path d="M 124.252274 253.08 
L 124.252274 3.6 
" clip-path="url(#p6127d24710)" style="fill: none; stroke: #b0b0b0; stroke-width: 0.5; stroke-linecap: square"/>
     </g>
     <g id="line2d_5">
      <g>
       <use xlink:href="#md12c115913" x="124.252274" y="253.08" style="stroke: #000000; stroke-width: 0.5"/>
      </g>
     </g>
     <g id="line2d_6">
      <g>
       <use xlink:href="#m8ea091a7a6" x="124.252274" y="3.6" style="stroke: #000000; stroke-width: 0.5"/>
      </g>
     </g>
     <g id="text_2">
      <!-- 100 -->
      <g transform="translate(112.799774 265.698125) scale(0.12 -0.12)">
       <defs>
        <path id="DejaVuSans-31" d="M 794 531 
L 1825 531 
L 1825 4091 
L 703 3866 
L 703 4441 
L 1819 4666 
L 2450 4666 
L 2450 531 
L 3481 531 
L 3481 0 
L 794 0 
L 794 531 
z
" transform="scale(0.015625)"/>
       </defs>
       <use xlink:href="#DejaVuSans-31"/>
       <use xlink:href="#DejaVuSans-30" x="63.623047"/>
       <use xlink:href="#DejaVuSans-30" x="127.246094"/>
      </g>
     </g>
    </g>
    <g id="xtick_3">
     <g id="line2d_7">
      <path d="M 185.24699 253.08 
L 185.24699 3.6 
" clip-path="url(#p6127d24710)" style="fill: none; stroke: #b0b0b0; stroke-width: 0.5; stroke-linecap: square"/>
     </g>
     <g id="line2d_8">
      <g>
       <use xlink:href="#md12c115913" x="185.24699" y="253.08" style="stroke: #000000; stroke-width: 0.5"/>
      </g>
     </g>
     <g id="line2d_9">
      <g>
       <use xlink:href="#m8ea091a7a6" x="185.24699" y="3.6" style="stroke: #000000; stroke-width: 0.5"/>
      </g>
     </g>
     <g id="text_3">
      <!-- 200 -->
      <g transform="translate(173.79449 265.698125) scale(0.12 -0.12)">
       <defs>
        <path id="DejaVuSans-32" d="M 1228 531 
L 3431 531 
L 3431 0 
L 469 0 
L 469 531 
Q 828 903 1448 1529 
Q 2069 2156 2228 2338 
Q 2531 2678 2651 2914 
Q 2772 3150 2772 3378 
Q 2772 3750 2511 3984 
Q 2250 4219 1831 4219 
Q 1534 4219 1204 4116 
Q 875 4013 500 3803 
L 500 4441 
Q 881 4594 1212 4672 
Q 1544 4750 1819 4750 
Q 2544 4750 2975 4387 
Q 3406 4025 3406 3419 
Q 3406 3131 3298 2873 
Q 3191 2616 2906 2266 
Q 2828 2175 2409 1742 
Q 1991 1309 1228 531 
z
" transform="scale(0.015625)"/>
       </defs>
       <use xlink:href="#DejaVuSans-32"/>
       <use xlink:href="#DejaVuSans-30" x="63.623047"/>
       <use xlink:href="#DejaVuSans-30" x="127.246094"/>
      </g>
     </g>
    </g>
    <g id="xtick_4">
     <g id="line2d_10">
      <path d="M 246.241707 253.08 
L 246.241707 3.6 
" clip-path="url(#p6127d24710)" style="fill: none; stroke: #b0b0b0; stroke-width: 0.5; stroke-linecap: square"/>
     </g>
     <g id="line2d_11">
      <g>
       <use xlink:href="#md12c115913" x="246.241707" y="253.08" style="stroke: #000000; stroke-width: 0.5"/>
      </g>
     </g>
     <g id="line2d_12">
      <g>
       <use xlink:href="#m8ea091a7a6" x="246.241707" y="3.6" style="stroke: #000000; stroke-width: 0.5"/>
      </g>
     </g>
     <g id="text_4">
      <!-- 300 -->
      <g transform="translate(234.789207 265.698125) scale(0.12 -0.12)">
       <defs>
        <path id="DejaVuSans-33" d="M 2597 2516 
Q 3050 2419 3304 2112 
Q 3559 1806 3559 1356 
Q 3559 666 3084 287 
Q 2609 -91 1734 -91 
Q 1441 -91 1130 -33 
Q 819 25 488 141 
L 488 750 
Q 750 597 1062 519 
Q 1375 441 1716 441 
Q 2309 441 2620 675 
Q 2931 909 2931 1356 
Q 2931 1769 2642 2001 
Q 2353 2234 1838 2234 
L 1294 2234 
L 1294 2753 
L 1863 2753 
Q 2328 2753 2575 2939 
Q 2822 3125 2822 3475 
Q 2822 3834 2567 4026 
Q 2313 4219 1838 4219 
Q 1578 4219 1281 4162 
Q 984 4106 628 3988 
L 628 4550 
Q 988 4650 1302 4700 
Q 1616 4750 1894 4750 
Q 2613 4750 3031 4423 
Q 3450 4097 3450 3541 
Q 3450 3153 3228 2886 
Q 3006 2619 2597 2516 
z
" transform="scale(0.015625)"/>
       </defs>
       <use xlink:href="#DejaVuSans-33"/>
       <use xlink:href="#DejaVuSans-30" x="63.623047"/>
       <use xlink:href="#DejaVuSans-30" x="127.246094"/>
      </g>
     </g>
    </g>
    <g id="xtick_5">
     <g id="line2d_13">
      <path d="M 307.236424 253.08 
L 307.236424 3.6 
" clip-path="url(#p6127d24710)" style="fill: none; stroke: #b0b0b0; stroke-width: 0.5; stroke-linecap: square"/>
     </g>
     <g id="line2d_14">
      <g>
       <use xlink:href="#md12c115913" x="307.236424" y="253.08" style="stroke: #000000; stroke-width: 0.5"/>
      </g>
     </g>
     <g id="line2d_15">
      <g>
       <use xlink:href="#m8ea091a7a6" x="307.236424" y="3.6" style="stroke: #000000; stroke-width: 0.5"/>
      </g>
     </g>
     <g id="text_5">
      <!-- 400 -->
      <g transform="translate(295.783924 265.698125) scale(0.12 -0.12)">
       <defs>
        <path id="DejaVuSans-34" d="M 2419 4116 
L 825 1625 
L 2419 1625 
L 2419 4116 
z
M 2253 4666 
L 3047 4666 
L 3047 1625 
L 3713 1625 
L 3713 1100 
L 3047 1100 
L 3047 0 
L 2419 0 
L 2419 1100 
L 313 1100 
L 313 1709 
L 2253 4666 
z
" transform="scale(0.015625)"/>
       </defs>
       <use xlink:href="#DejaVuSans-34"/>
       <use xlink:href="#DejaVuSans-30" x="63.623047"/>
       <use xlink:href="#DejaVuSans-30" x="127.246094"/>
      </g>
     </g>
    </g>
    <g id="xtick_6">
     <g id="line2d_16">
      <path d="M 368.23114 253.08 
L 368.23114 3.6 
" clip-path="url(#p6127d24710)" style="fill: none; stroke: #b0b0b0; stroke-width: 0.5; stroke-linecap: square"/>
     </g>
     <g id="line2d_17">
      <g>
       <use xlink:href="#md12c115913" x="368.23114" y="253.08" style="stroke: #000000; stroke-width: 0.5"/>
      </g>
     </g>
     <g id="line2d_18">
      <g>
       <use xlink:href="#m8ea091a7a6" x="368.23114" y="3.6" style="stroke: #000000; stroke-width: 0.5"/>
      </g>
     </g>
     <g id="text_6">
      <!-- 500 -->
      <g transform="translate(356.77864 265.698125) scale(0.12 -0.12)">
       <defs>
        <path id="DejaVuSans-35" d="M 691 4666 
L 3169 4666 
L 3169 4134 
L 1269 4134 
L 1269 2991 
Q 1406 3038 1543 3061 
Q 1681 3084 1819 3084 
Q 2600 3084 3056 2656 
Q 3513 2228 3513 1497 
Q 3513 744 3044 326 
Q 2575 -91 1722 -91 
Q 1428 -91 1123 -41 
Q 819 9 494 109 
L 494 744 
Q 775 591 1075 516 
Q 1375 441 1709 441 
Q 2250 441 2565 725 
Q 2881 1009 2881 1497 
Q 2881 1984 2565 2268 
Q 2250 2553 1709 2553 
Q 1456 2553 1204 2497 
Q 953 2441 691 2322 
L 691 4666 
z
" transform="scale(0.015625)"/>
       </defs>
       <use xlink:href="#DejaVuSans-35"/>
       <use xlink:href="#DejaVuSans-30" x="63.623047"/>
       <use xlink:href="#DejaVuSans-30" x="127.246094"/>
      </g>
     </g>
    </g>
    <g id="xtick_7">
     <g id="line2d_19">
      <defs>
       <path id="maba60b5629" d="M 0 0 
L 0 -1.5 
" style="stroke: #000000; stroke-width: 0.5"/>
      </defs>
      <g>
       <use xlink:href="#maba60b5629" x="51.058613" y="253.08" style="stroke: #000000; stroke-width: 0.5"/>
      </g>
     </g>
     <g id="line2d_20">
      <defs>
       <path id="md3b76f8731" d="M 0 0 
L 0 1.5 
" style="stroke: #000000; stroke-width: 0.5"/>
      </defs>
      <g>
       <use xlink:href="#md3b76f8731" x="51.058613" y="3.6" style="stroke: #000000; stroke-width: 0.5"/>
      </g>
     </g>
    </g>
    <g id="xtick_8">
     <g id="line2d_21">
      <g>
       <use xlink:href="#maba60b5629" x="75.4565" y="253.08" style="stroke: #000000; stroke-width: 0.5"/>
      </g>
     </g>
     <g id="line2d_22">
      <g>
       <use xlink:href="#md3b76f8731" x="75.4565" y="3.6" style="stroke: #000000; stroke-width: 0.5"/>
      </g>
     </g>
    </g>
    <g id="xtick_9">
     <g id="line2d_23">
      <g>
       <use xlink:href="#maba60b5629" x="87.655444" y="253.08" style="stroke: #000000; stroke-width: 0.5"/>
      </g>
     </g>
     <g id="line2d_24">
      <g>
       <use xlink:href="#md3b76f8731" x="87.655444" y="3.6" style="stroke: #000000; stroke-width: 0.5"/>
      </g>
     </g>
    </g>
    <g id="xtick_10">
     <g id="line2d_25">
      <g>
       <use xlink:href="#maba60b5629" x="99.854387" y="253.08" style="stroke: #000000; stroke-width: 0.5"/>
      </g>
     </g>
     <g id="line2d_26">
      <g>
       <use xlink:href="#md3b76f8731" x="99.854387" y="3.6" style="stroke: #000000; stroke-width: 0.5"/>
      </g>
     </g>
    </g>
    <g id="xtick_11">
     <g id="line2d_27">
      <g>
       <use xlink:href="#maba60b5629" x="112.05333" y="253.08" style="stroke: #000000; stroke-width: 0.5"/>
      </g>
     </g>
     <g id="line2d_28">
      <g>
       <use xlink:href="#md3b76f8731" x="112.05333" y="3.6" style="stroke: #000000; stroke-width: 0.5"/>
      </g>
     </g>
    </g>
    <g id="xtick_12">
     <g id="line2d_29">
      <g>
       <use xlink:href="#maba60b5629" x="136.451217" y="253.08" style="stroke: #000000; stroke-width: 0.5"/>
      </g>
     </g>
     <g id="line2d_30">
      <g>
       <use xlink:href="#md3b76f8731" x="136.451217" y="3.6" style="stroke: #000000; stroke-width: 0.5"/>
      </g>
     </g>
    </g>
    <g id="xtick_13">
     <g id="line2d_31">
      <g>
       <use xlink:href="#maba60b5629" x="148.65016" y="253.08" style="stroke: #000000; stroke-width: 0.5"/>
      </g>
     </g>
     <g id="line2d_32">
      <g>
       <use xlink:href="#md3b76f8731" x="148.65016" y="3.6" style="stroke: #000000; stroke-width: 0.5"/>
      </g>
     </g>
    </g>
    <g id="xtick_14">
     <g id="line2d_33">
      <g>
       <use xlink:href="#maba60b5629" x="160.849104" y="253.08" style="stroke: #000000; stroke-width: 0.5"/>
      </g>
     </g>
     <g id="line2d_34">
      <g>
       <use xlink:href="#md3b76f8731" x="160.849104" y="3.6" style="stroke: #000000; stroke-width: 0.5"/>
      </g>
     </g>
    </g>
    <g id="xtick_15">
     <g id="line2d_35">
      <g>
       <use xlink:href="#maba60b5629" x="173.048047" y="253.08" style="stroke: #000000; stroke-width: 0.5"/>
      </g>
     </g>
     <g id="line2d_36">
      <g>
       <use xlink:href="#md3b76f8731" x="173.048047" y="3.6" style="stroke: #000000; stroke-width: 0.5"/>
      </g>
     </g>
    </g>
    <g id="xtick_16">
     <g id="line2d_37">
      <g>
       <use xlink:href="#maba60b5629" x="197.445934" y="253.08" style="stroke: #000000; stroke-width: 0.5"/>
      </g>
     </g>
     <g id="line2d_38">
      <g>
       <use xlink:href="#md3b76f8731" x="197.445934" y="3.6" style="stroke: #000000; stroke-width: 0.5"/>
      </g>
     </g>
    </g>
    <g id="xtick_17">
     <g id="line2d_39">
      <g>
       <use xlink:href="#maba60b5629" x="209.644877" y="253.08" style="stroke: #000000; stroke-width: 0.5"/>
      </g>
     </g>
     <g id="line2d_40">
      <g>
       <use xlink:href="#md3b76f8731" x="209.644877" y="3.6" style="stroke: #000000; stroke-width: 0.5"/>
      </g>
     </g>
    </g>
    <g id="xtick_18">
     <g id="line2d_41">
      <g>
       <use xlink:href="#maba60b5629" x="221.84382" y="253.08" style="stroke: #000000; stroke-width: 0.5"/>
      </g>
     </g>
     <g id="line2d_42">
      <g>
       <use xlink:href="#md3b76f8731" x="221.84382" y="3.6" style="stroke: #000000; stroke-width: 0.5"/>
      </g>
     </g>
    </g>
    <g id="xtick_19">
     <g id="line2d_43">
      <g>
       <use xlink:href="#maba60b5629" x="234.042764" y="253.08" style="stroke: #000000; stroke-width: 0.5"/>
      </g>
     </g>
     <g id="line2d_44">
      <g>
       <use xlink:href="#md3b76f8731" x="234.042764" y="3.6" style="stroke: #000000; stroke-width: 0.5"/>
      </g>
     </g>
    </g>
    <g id="xtick_20">
     <g id="line2d_45">
      <g>
       <use xlink:href="#maba60b5629" x="258.44065" y="253.08" style="stroke: #000000; stroke-width: 0.5"/>
      </g>
     </g>
     <g id="line2d_46">
      <g>
       <use xlink:href="#md3b76f8731" x="258.44065" y="3.6" style="stroke: #000000; stroke-width: 0.5"/>
      </g>
     </g>
    </g>
    <g id="xtick_21">
     <g id="line2d_47">
      <g>
       <use xlink:href="#maba60b5629" x="270.639594" y="253.08" style="stroke: #000000; stroke-width: 0.5"/>
      </g>
     </g>
     <g id="line2d_48">
      <g>
       <use xlink:href="#md3b76f8731" x="270.639594" y="3.6" style="stroke: #000000; stroke-width: 0.5"/>
      </g>
     </g>
    </g>
    <g id="xtick_22">
     <g id="line2d_49">
      <g>
       <use xlink:href="#maba60b5629" x="282.838537" y="253.08" style="stroke: #000000; stroke-width: 0.5"/>
      </g>
     </g>
     <g id="line2d_50">
      <g>
       <use xlink:href="#md3b76f8731" x="282.838537" y="3.6" style="stroke: #000000; stroke-width: 0.5"/>
      </g>
     </g>
    </g>
    <g id="xtick_23">
     <g id="line2d_51">
      <g>
       <use xlink:href="#maba60b5629" x="295.03748" y="253.08" style="stroke: #000000; stroke-width: 0.5"/>
      </g>
     </g>
     <g id="line2d_52">
      <g>
       <use xlink:href="#md3b76f8731" x="295.03748" y="3.6" style="stroke: #000000; stroke-width: 0.5"/>
      </g>
     </g>
    </g>
    <g id="xtick_24">
     <g id="line2d_53">
      <g>
       <use xlink:href="#maba60b5629" x="319.435367" y="253.08" style="stroke: #000000; stroke-width: 0.5"/>
      </g>
     </g>
     <g id="line2d_54">
      <g>
       <use xlink:href="#md3b76f8731" x="319.435367" y="3.6" style="stroke: #000000; stroke-width: 0.5"/>
      </g>
     </g>
    </g>
    <g id="xtick_25">
     <g id="line2d_55">
      <g>
       <use xlink:href="#maba60b5629" x="331.63431" y="253.08" style="stroke: #000000; stroke-width: 0.5"/>
      </g>
     </g>
     <g id="line2d_56">
      <g>
       <use xlink:href="#md3b76f8731" x="331.63431" y="3.6" style="stroke: #000000; stroke-width: 0.5"/>
      </g>
     </g>
    </g>
    <g id="xtick_26">
     <g id="line2d_57">
      <g>
       <use xlink:href="#maba60b5629" x="343.833254" y="253.08" style="stroke: #000000; stroke-width: 0.5"/>
      </g>
     </g>
     <g id="line2d_58">
      <g>
       <use xlink:href="#md3b76f8731" x="343.833254" y="3.6" style="stroke: #000000; stroke-width: 0.5"/>
      </g>
     </g>
    </g>
    <g id="xtick_27">
     <g id="line2d_59">
      <g>
       <use xlink:href="#maba60b5629" x="356.032197" y="253.08" style="stroke: #000000; stroke-width: 0.5"/>
      </g>
     </g>
     <g id="line2d_60">
      <g>
       <use xlink:href="#md3b76f8731" x="356.032197" y="3.6" style="stroke: #000000; stroke-width: 0.5"/>
      </g>
     </g>
    </g>
    <g id="xtick_28">
     <g id="line2d_61">
      <g>
       <use xlink:href="#maba60b5629" x="380.430084" y="253.08" style="stroke: #000000; stroke-width: 0.5"/>
      </g>
     </g>
     <g id="line2d_62">
      <g>
       <use xlink:href="#md3b76f8731" x="380.430084" y="3.6" style="stroke: #000000; stroke-width: 0.5"/>
      </g>
     </g>
    </g>
    <g id="text_7">
     <!-- Generations -->
     <g transform="translate(178.842188 281.311875) scale(0.12 -0.12)">
      <defs>
       <path id="DejaVuSans-47" d="M 3809 666 
L 3809 1919 
L 2778 1919 
L 2778 2438 
L 4434 2438 
L 4434 434 
Q 4069 175 3628 42 
Q 3188 -91 2688 -91 
Q 1594 -91 976 548 
Q 359 1188 359 2328 
Q 359 3472 976 4111 
Q 1594 4750 2688 4750 
Q 3144 4750 3555 4637 
Q 3966 4525 4313 4306 
L 4313 3634 
Q 3963 3931 3569 4081 
Q 3175 4231 2741 4231 
Q 1884 4231 1454 3753 
Q 1025 3275 1025 2328 
Q 1025 1384 1454 906 
Q 1884 428 2741 428 
Q 3075 428 3337 486 
Q 3600 544 3809 666 
z
" transform="scale(0.015625)"/>
       <path id="DejaVuSans-65" d="M 3597 1894 
L 3597 1613 
L 953 1613 
Q 991 1019 1311 708 
Q 1631 397 2203 397 
Q 2534 397 2845 478 
Q 3156 559 3463 722 
L 3463 178 
Q 3153 47 2828 -22 
Q 2503 -91 2169 -91 
Q 1331 -91 842 396 
Q 353 884 353 1716 
Q 353 2575 817 3079 
Q 1281 3584 2069 3584 
Q 2775 3584 3186 3129 
Q 3597 2675 3597 1894 
z
M 3022 2063 
Q 3016 2534 2758 2815 
Q 2500 3097 2075 3097 
Q 1594 3097 1305 2825 
Q 1016 2553 972 2059 
L 3022 2063 
z
" transform="scale(0.015625)"/>
       <path id="DejaVuSans-6e" d="M 3513 2113 
L 3513 0 
L 2938 0 
L 2938 2094 
Q 2938 2591 2744 2837 
Q 2550 3084 2163 3084 
Q 1697 3084 1428 2787 
Q 1159 2491 1159 1978 
L 1159 0 
L 581 0 
L 581 3500 
L 1159 3500 
L 1159 2956 
Q 1366 3272 1645 3428 
Q 1925 3584 2291 3584 
Q 2894 3584 3203 3211 
Q 3513 2838 3513 2113 
z
" transform="scale(0.015625)"/>
       <path id="DejaVuSans-72" d="M 2631 2963 
Q 2534 3019 2420 3045 
Q 2306 3072 2169 3072 
Q 1681 3072 1420 2755 
Q 1159 2438 1159 1844 
L 1159 0 
L 581 0 
L 581 3500 
L 1159 3500 
L 1159 2956 
Q 1341 3275 1631 3429 
Q 1922 3584 2338 3584 
Q 2397 3584 2469 3576 
Q 2541 3569 2628 3553 
L 2631 2963 
z
" transform="scale(0.015625)"/>
       <path id="DejaVuSans-61" d="M 2194 1759 
Q 1497 1759 1228 1600 
Q 959 1441 959 1056 
Q 959 750 1161 570 
Q 1363 391 1709 391 
Q 2188 391 2477 730 
Q 2766 1069 2766 1631 
L 2766 1759 
L 2194 1759 
z
M 3341 1997 
L 3341 0 
L 2766 0 
L 2766 531 
Q 2569 213 2275 61 
Q 1981 -91 1556 -91 
Q 1019 -91 701 211 
Q 384 513 384 1019 
Q 384 1609 779 1909 
Q 1175 2209 1959 2209 
L 2766 2209 
L 2766 2266 
Q 2766 2663 2505 2880 
Q 2244 3097 1772 3097 
Q 1472 3097 1187 3025 
Q 903 2953 641 2809 
L 641 3341 
Q 956 3463 1253 3523 
Q 1550 3584 1831 3584 
Q 2591 3584 2966 3190 
Q 3341 2797 3341 1997 
z
" transform="scale(0.015625)"/>
       <path id="DejaVuSans-74" d="M 1172 4494 
L 1172 3500 
L 2356 3500 
L 2356 3053 
L 1172 3053 
L 1172 1153 
Q 1172 725 1289 603 
Q 1406 481 1766 481 
L 2356 481 
L 2356 0 
L 1766 0 
Q 1100 0 847 248 
Q 594 497 594 1153 
L 594 3053 
L 172 3053 
L 172 3500 
L 594 3500 
L 594 4494 
L 1172 4494 
z
" transform="scale(0.015625)"/>
       <path id="DejaVuSans-69" d="M 603 3500 
L 1178 3500 
L 1178 0 
L 603 0 
L 603 3500 
z
M 603 4863 
L 1178 4863 
L 1178 4134 
L 603 4134 
L 603 4863 
z
" transform="scale(0.015625)"/>
       <path id="DejaVuSans-6f" d="M 1959 3097 
Q 1497 3097 1228 2736 
Q 959 2375 959 1747 
Q 959 1119 1226 758 
Q 1494 397 1959 397 
Q 2419 397 2687 759 
Q 2956 1122 2956 1747 
Q 2956 2369 2687 2733 
Q 2419 3097 1959 3097 
z
M 1959 3584 
Q 2709 3584 3137 3096 
Q 3566 2609 3566 1747 
Q 3566 888 3137 398 
Q 2709 -91 1959 -91 
Q 1206 -91 779 398 
Q 353 888 353 1747 
Q 353 2609 779 3096 
Q 1206 3584 1959 3584 
z
" transform="scale(0.015625)"/>
       <path id="DejaVuSans-73" d="M 2834 3397 
L 2834 2853 
Q 2591 2978 2328 3040 
Q 2066 3103 1784 3103 
Q 1356 3103 1142 2972 
Q 928 2841 928 2578 
Q 928 2378 1081 2264 
Q 1234 2150 1697 2047 
L 1894 2003 
Q 2506 1872 2764 1633 
Q 3022 1394 3022 966 
Q 3022 478 2636 193 
Q 2250 -91 1575 -91 
Q 1294 -91 989 -36 
Q 684 19 347 128 
L 347 722 
Q 666 556 975 473 
Q 1284 391 1588 391 
Q 1994 391 2212 530 
Q 2431 669 2431 922 
Q 2431 1156 2273 1281 
Q 2116 1406 1581 1522 
L 1381 1569 
Q 847 1681 609 1914 
Q 372 2147 372 2553 
Q 372 3047 722 3315 
Q 1072 3584 1716 3584 
Q 2034 3584 2315 3537 
Q 2597 3491 2834 3397 
z
" transform="scale(0.015625)"/>
      </defs>
      <use xlink:href="#DejaVuSans-47"/>
      <use xlink:href="#DejaVuSans-65" x="77.490234"/>
      <use xlink:href="#DejaVuSans-6e" x="139.013672"/>
      <use xlink:href="#DejaVuSans-65" x="202.392578"/>
      <use xlink:href="#DejaVuSans-72" x="263.916016"/>
      <use xlink:href="#DejaVuSans-61" x="305.029297"/>
      <use xlink:href="#DejaVuSans-74" x="366.308594"/>
      <use xlink:href="#DejaVuSans-69" x="405.517578"/>
      <use xlink:href="#DejaVuSans-6f" x="433.300781"/>
      <use xlink:href="#DejaVuSans-6e" x="494.482422"/>
      <use xlink:href="#DejaVuSans-73" x="557.861328"/>
     </g>
    </g>
   </g>
   <g id="matplotlib.axis_2">
    <g id="ytick_1">
     <g id="line2d_63">
      <path d="M 48.039375 243.737346 
L 382.839375 243.737346 
" clip-path="url(#p6127d24710)" style="fill: none; stroke: #b0b0b0; stroke-width: 0.5; stroke-linecap: square"/>
     </g>
     <g id="line2d_64">
      <defs>
       <path id="m391bb6c25e" d="M 0 0 
L 3 0 
" style="stroke: #000000; stroke-width: 0.5"/>
      </defs>
      <g>
       <use xlink:href="#m391bb6c25e" x="48.039375" y="243.737346" style="stroke: #000000; stroke-width: 0.5"/>
      </g>
     </g>
     <g id="line2d_65">
      <defs>
       <path id="m56f10f0cbd" d="M 0 0 
L -3 0 
" style="stroke: #000000; stroke-width: 0.5"/>
      </defs>
      <g>
       <use xlink:href="#m56f10f0cbd" x="382.839375" y="243.737346" style="stroke: #000000; stroke-width: 0.5"/>
      </g>
     </g>
     <g id="text_8">
      <!-- −10 -->
      <g transform="translate(19.21375 248.296408) scale(0.12 -0.12)">
       <defs>
        <path id="DejaVuSans-2212" d="M 678 2272 
L 4684 2272 
L 4684 1741 
L 678 1741 
L 678 2272 
z
" transform="scale(0.015625)"/>
       </defs>
       <use xlink:href="#DejaVuSans-2212"/>
       <use xlink:href="#DejaVuSans-31" x="83.789062"/>
       <use xlink:href="#DejaVuSans-30" x="147.412109"/>
      </g>
     </g>
    </g>
    <g id="ytick_2">
     <g id="line2d_66">
      <path d="M 48.039375 210.56862 
L 382.839375 210.56862 
" clip-path="url(#p6127d24710)" style="fill: none; stroke: #b0b0b0; stroke-width: 0.5; stroke-linecap: square"/>
     </g>
     <g id="line2d_67">
      <g>
       <use xlink:href="#m391bb6c25e" x="48.039375" y="210.56862" style="stroke: #000000; stroke-width: 0.5"/>
      </g>
     </g>
     <g id="line2d_68">
      <g>
       <use xlink:href="#m56f10f0cbd" x="382.839375" y="210.56862" style="stroke: #000000; stroke-width: 0.5"/>
      </g>
     </g>
     <g id="text_9">
      <!-- −5 -->
      <g transform="translate(26.84875 215.127683) scale(0.12 -0.12)">
       <use xlink:href="#DejaVuSans-2212"/>
       <use xlink:href="#DejaVuSans-35" x="83.789062"/>
      </g>
     </g>
    </g>
    <g id="ytick_3">
     <g id="line2d_69">
      <path d="M 48.039375 177.399895 
L 382.839375 177.399895 
" clip-path="url(#p6127d24710)" style="fill: none; stroke: #b0b0b0; stroke-width: 0.5; stroke-linecap: square"/>
     </g>
     <g id="line2d_70">
      <g>
       <use xlink:href="#m391bb6c25e" x="48.039375" y="177.399895" style="stroke: #000000; stroke-width: 0.5"/>
      </g>
     </g>
     <g id="line2d_71">
      <g>
       <use xlink:href="#m56f10f0cbd" x="382.839375" y="177.399895" style="stroke: #000000; stroke-width: 0.5"/>
      </g>
     </g>
     <g id="text_10">
      <!-- 0 -->
      <g transform="translate(36.904375 181.958958) scale(0.12 -0.12)">
       <use xlink:href="#DejaVuSans-30"/>
      </g>
     </g>
    </g>
    <g id="ytick_4">
     <g id="line2d_72">
      <path d="M 48.039375 144.23117 
L 382.839375 144.23117 
" clip-path="url(#p6127d24710)" style="fill: none; stroke: #b0b0b0; stroke-width: 0.5; stroke-linecap: square"/>
     </g>
     <g id="line2d_73">
      <g>
       <use xlink:href="#m391bb6c25e" x="48.039375" y="144.23117" style="stroke: #000000; stroke-width: 0.5"/>
      </g>
     </g>
     <g id="line2d_74">
      <g>
       <use xlink:href="#m56f10f0cbd" x="382.839375" y="144.23117" style="stroke: #000000; stroke-width: 0.5"/>
      </g>
     </g>
     <g id="text_11">
      <!-- 5 -->
      <g transform="translate(36.904375 148.790232) scale(0.12 -0.12)">
       <use xlink:href="#DejaVuSans-35"/>
      </g>
     </g>
    </g>
    <g id="ytick_5">
     <g id="line2d_75">
      <path d="M 48.039375 111.062445 
L 382.839375 111.062445 
" clip-path="url(#p6127d24710)" style="fill: none; stroke: #b0b0b0; stroke-width: 0.5; stroke-linecap: square"/>
     </g>
     <g id="line2d_76">
      <g>
       <use xlink:href="#m391bb6c25e" x="48.039375" y="111.062445" style="stroke: #000000; stroke-width: 0.5"/>
      </g>
     </g>
     <g id="line2d_77">
      <g>
       <use xlink:href="#m56f10f0cbd" x="382.839375" y="111.062445" style="stroke: #000000; stroke-width: 0.5"/>
      </g>
     </g>
     <g id="text_12">
      <!-- 10 -->
      <g transform="translate(29.269375 115.621507) scale(0.12 -0.12)">
       <use xlink:href="#DejaVuSans-31"/>
       <use xlink:href="#DejaVuSans-30" x="63.623047"/>
      </g>
     </g>
    </g>
    <g id="ytick_6">
     <g id="line2d_78">
      <path d="M 48.039375 77.89372 
L 382.839375 77.89372 
" clip-path="url(#p6127d24710)" style="fill: none; stroke: #b0b0b0; stroke-width: 0.5; stroke-linecap: square"/>
     </g>
     <g id="line2d_79">
      <g>
       <use xlink:href="#m391bb6c25e" x="48.039375" y="77.89372" style="stroke: #000000; stroke-width: 0.5"/>
      </g>
     </g>
     <g id="line2d_80">
      <g>
       <use xlink:href="#m56f10f0cbd" x="382.839375" y="77.89372" style="stroke: #000000; stroke-width: 0.5"/>
      </g>
     </g>
     <g id="text_13">
      <!-- 15 -->
      <g transform="translate(29.269375 82.452782) scale(0.12 -0.12)">
       <use xlink:href="#DejaVuSans-31"/>
       <use xlink:href="#DejaVuSans-35" x="63.623047"/>
      </g>
     </g>
    </g>
    <g id="ytick_7">
     <g id="line2d_81">
      <path d="M 48.039375 44.724994 
L 382.839375 44.724994 
" clip-path="url(#p6127d24710)" style="fill: none; stroke: #b0b0b0; stroke-width: 0.5; stroke-linecap: square"/>
     </g>
     <g id="line2d_82">
      <g>
       <use xlink:href="#m391bb6c25e" x="48.039375" y="44.724994" style="stroke: #000000; stroke-width: 0.5"/>
      </g>
     </g>
     <g id="line2d_83">
      <g>
       <use xlink:href="#m56f10f0cbd" x="382.839375" y="44.724994" style="stroke: #000000; stroke-width: 0.5"/>
      </g>
     </g>
     <g id="text_14">
      <!-- 20 -->
      <g transform="translate(29.269375 49.284057) scale(0.12 -0.12)">
       <use xlink:href="#DejaVuSans-32"/>
       <use xlink:href="#DejaVuSans-30" x="63.623047"/>
      </g>
     </g>
    </g>
    <g id="ytick_8">
     <g id="line2d_84">
      <path d="M 48.039375 11.556269 
L 382.839375 11.556269 
" clip-path="url(#p6127d24710)" style="fill: none; stroke: #b0b0b0; stroke-width: 0.5; stroke-linecap: square"/>
     </g>
     <g id="line2d_85">
      <g>
       <use xlink:href="#m391bb6c25e" x="48.039375" y="11.556269" style="stroke: #000000; stroke-width: 0.5"/>
      </g>
     </g>
     <g id="line2d_86">
      <g>
       <use xlink:href="#m56f10f0cbd" x="382.839375" y="11.556269" style="stroke: #000000; stroke-width: 0.5"/>
      </g>
     </g>
     <g id="text_15">
      <!-- 25 -->
      <g transform="translate(29.269375 16.115332) scale(0.12 -0.12)">
       <use xlink:href="#DejaVuSans-32"/>
       <use xlink:href="#DejaVuSans-35" x="63.623047"/>
      </g>
     </g>
    </g>
    <g id="ytick_9">
     <g id="line2d_87">
      <defs>
       <path id="m6690423d30" d="M 0 0 
L 1.5 0 
" style="stroke: #000000; stroke-width: 0.5"/>
      </defs>
      <g>
       <use xlink:href="#m6690423d30" x="48.039375" y="250.371091" style="stroke: #000000; stroke-width: 0.5"/>
      </g>
     </g>
     <g id="line2d_88">
      <defs>
       <path id="m4b8b9a01d2" d="M 0 0 
L -1.5 0 
" style="stroke: #000000; stroke-width: 0.5"/>
      </defs>
      <g>
       <use xlink:href="#m4b8b9a01d2" x="382.839375" y="250.371091" style="stroke: #000000; stroke-width: 0.5"/>
      </g>
     </g>
    </g>
    <g id="ytick_10">
     <g id="line2d_89">
      <g>
       <use xlink:href="#m6690423d30" x="48.039375" y="237.1036" style="stroke: #000000; stroke-width: 0.5"/>
      </g>
     </g>
     <g id="line2d_90">
      <g>
       <use xlink:href="#m4b8b9a01d2" x="382.839375" y="237.1036" style="stroke: #000000; stroke-width: 0.5"/>
      </g>
     </g>
    </g>
    <g id="ytick_11">
     <g id="line2d_91">
      <g>
       <use xlink:href="#m6690423d30" x="48.039375" y="230.469855" style="stroke: #000000; stroke-width: 0.5"/>
      </g>
     </g>
     <g id="line2d_92">
      <g>
       <use xlink:href="#m4b8b9a01d2" x="382.839375" y="230.469855" style="stroke: #000000; stroke-width: 0.5"/>
      </g>
     </g>
    </g>
    <g id="ytick_12">
     <g id="line2d_93">
      <g>
       <use xlink:href="#m6690423d30" x="48.039375" y="223.83611" style="stroke: #000000; stroke-width: 0.5"/>
      </g>
     </g>
     <g id="line2d_94">
      <g>
       <use xlink:href="#m4b8b9a01d2" x="382.839375" y="223.83611" style="stroke: #000000; stroke-width: 0.5"/>
      </g>
     </g>
    </g>
    <g id="ytick_13">
     <g id="line2d_95">
      <g>
       <use xlink:href="#m6690423d30" x="48.039375" y="217.202365" style="stroke: #000000; stroke-width: 0.5"/>
      </g>
     </g>
     <g id="line2d_96">
      <g>
       <use xlink:href="#m4b8b9a01d2" x="382.839375" y="217.202365" style="stroke: #000000; stroke-width: 0.5"/>
      </g>
     </g>
    </g>
    <g id="ytick_14">
     <g id="line2d_97">
      <g>
       <use xlink:href="#m6690423d30" x="48.039375" y="203.934875" style="stroke: #000000; stroke-width: 0.5"/>
      </g>
     </g>
     <g id="line2d_98">
      <g>
       <use xlink:href="#m4b8b9a01d2" x="382.839375" y="203.934875" style="stroke: #000000; stroke-width: 0.5"/>
      </g>
     </g>
    </g>
    <g id="ytick_15">
     <g id="line2d_99">
      <g>
       <use xlink:href="#m6690423d30" x="48.039375" y="197.30113" style="stroke: #000000; stroke-width: 0.5"/>
      </g>
     </g>
     <g id="line2d_100">
      <g>
       <use xlink:href="#m4b8b9a01d2" x="382.839375" y="197.30113" style="stroke: #000000; stroke-width: 0.5"/>
      </g>
     </g>
    </g>
    <g id="ytick_16">
     <g id="line2d_101">
      <g>
       <use xlink:href="#m6690423d30" x="48.039375" y="190.667385" style="stroke: #000000; stroke-width: 0.5"/>
      </g>
     </g>
     <g id="line2d_102">
      <g>
       <use xlink:href="#m4b8b9a01d2" x="382.839375" y="190.667385" style="stroke: #000000; stroke-width: 0.5"/>
      </g>
     </g>
    </g>
    <g id="ytick_17">
     <g id="line2d_103">
      <g>
       <use xlink:href="#m6690423d30" x="48.039375" y="184.03364" style="stroke: #000000; stroke-width: 0.5"/>
      </g>
     </g>
     <g id="line2d_104">
      <g>
       <use xlink:href="#m4b8b9a01d2" x="382.839375" y="184.03364" style="stroke: #000000; stroke-width: 0.5"/>
      </g>
     </g>
    </g>
    <g id="ytick_18">
     <g id="line2d_105">
      <g>
       <use xlink:href="#m6690423d30" x="48.039375" y="170.76615" style="stroke: #000000; stroke-width: 0.5"/>
      </g>
     </g>
     <g id="line2d_106">
      <g>
       <use xlink:href="#m4b8b9a01d2" x="382.839375" y="170.76615" style="stroke: #000000; stroke-width: 0.5"/>
      </g>
     </g>
    </g>
    <g id="ytick_19">
     <g id="line2d_107">
      <g>
       <use xlink:href="#m6690423d30" x="48.039375" y="164.132405" style="stroke: #000000; stroke-width: 0.5"/>
      </g>
     </g>
     <g id="line2d_108">
      <g>
       <use xlink:href="#m4b8b9a01d2" x="382.839375" y="164.132405" style="stroke: #000000; stroke-width: 0.5"/>
      </g>
     </g>
    </g>
    <g id="ytick_20">
     <g id="line2d_109">
      <g>
       <use xlink:href="#m6690423d30" x="48.039375" y="157.49866" style="stroke: #000000; stroke-width: 0.5"/>
      </g>
     </g>
     <g id="line2d_110">
      <g>
       <use xlink:href="#m4b8b9a01d2" x="382.839375" y="157.49866" style="stroke: #000000; stroke-width: 0.5"/>
      </g>
     </g>
    </g>
    <g id="ytick_21">
     <g id="line2d_111">
      <g>
       <use xlink:href="#m6690423d30" x="48.039375" y="150.864915" style="stroke: #000000; stroke-width: 0.5"/>
      </g>
     </g>
     <g id="line2d_112">
      <g>
       <use xlink:href="#m4b8b9a01d2" x="382.839375" y="150.864915" style="stroke: #000000; stroke-width: 0.5"/>
      </g>
     </g>
    </g>
    <g id="ytick_22">
     <g id="line2d_113">
      <g>
       <use xlink:href="#m6690423d30" x="48.039375" y="137.597425" style="stroke: #000000; stroke-width: 0.5"/>
      </g>
     </g>
     <g id="line2d_114">
      <g>
       <use xlink:href="#m4b8b9a01d2" x="382.839375" y="137.597425" style="stroke: #000000; stroke-width: 0.5"/>
      </g>
     </g>
    </g>
    <g id="ytick_23">
     <g id="line2d_115">
      <g>
       <use xlink:href="#m6690423d30" x="48.039375" y="130.96368" style="stroke: #000000; stroke-width: 0.5"/>
      </g>
     </g>
     <g id="line2d_116">
      <g>
       <use xlink:href="#m4b8b9a01d2" x="382.839375" y="130.96368" style="stroke: #000000; stroke-width: 0.5"/>
      </g>
     </g>
    </g>
    <g id="ytick_24">
     <g id="line2d_117">
      <g>
       <use xlink:href="#m6690423d30" x="48.039375" y="124.329935" style="stroke: #000000; stroke-width: 0.5"/>
      </g>
     </g>
     <g id="line2d_118">
      <g>
       <use xlink:href="#m4b8b9a01d2" x="382.839375" y="124.329935" style="stroke: #000000; stroke-width: 0.5"/>
      </g>
     </g>
    </g>
    <g id="ytick_25">
     <g id="line2d_119">
      <g>
       <use xlink:href="#m6690423d30" x="48.039375" y="117.69619" style="stroke: #000000; stroke-width: 0.5"/>
      </g>
     </g>
     <g id="line2d_120">
      <g>
       <use xlink:href="#m4b8b9a01d2" x="382.839375" y="117.69619" style="stroke: #000000; stroke-width: 0.5"/>
      </g>
     </g>
    </g>
    <g id="ytick_26">
     <g id="line2d_121">
      <g>
       <use xlink:href="#m6690423d30" x="48.039375" y="104.4287" style="stroke: #000000; stroke-width: 0.5"/>
      </g>
     </g>
     <g id="line2d_122">
      <g>
       <use xlink:href="#m4b8b9a01d2" x="382.839375" y="104.4287" style="stroke: #000000; stroke-width: 0.5"/>
      </g>
     </g>
    </g>
    <g id="ytick_27">
     <g id="line2d_123">
      <g>
       <use xlink:href="#m6690423d30" x="48.039375" y="97.794955" style="stroke: #000000; stroke-width: 0.5"/>
      </g>
     </g>
     <g id="line2d_124">
      <g>
       <use xlink:href="#m4b8b9a01d2" x="382.839375" y="97.794955" style="stroke: #000000; stroke-width: 0.5"/>
      </g>
     </g>
    </g>
    <g id="ytick_28">
     <g id="line2d_125">
      <g>
       <use xlink:href="#m6690423d30" x="48.039375" y="91.16121" style="stroke: #000000; stroke-width: 0.5"/>
      </g>
     </g>
     <g id="line2d_126">
      <g>
       <use xlink:href="#m4b8b9a01d2" x="382.839375" y="91.16121" style="stroke: #000000; stroke-width: 0.5"/>
      </g>
     </g>
    </g>
    <g id="ytick_29">
     <g id="line2d_127">
      <g>
       <use xlink:href="#m6690423d30" x="48.039375" y="84.527465" style="stroke: #000000; stroke-width: 0.5"/>
      </g>
     </g>
     <g id="line2d_128">
      <g>
       <use xlink:href="#m4b8b9a01d2" x="382.839375" y="84.527465" style="stroke: #000000; stroke-width: 0.5"/>
      </g>
     </g>
    </g>
    <g id="ytick_30">
     <g id="line2d_129">
      <g>
       <use xlink:href="#m6690423d30" x="48.039375" y="71.259975" style="stroke: #000000; stroke-width: 0.5"/>
      </g>
     </g>
     <g id="line2d_130">
      <g>
       <use xlink:href="#m4b8b9a01d2" x="382.839375" y="71.259975" style="stroke: #000000; stroke-width: 0.5"/>
      </g>
     </g>
    </g>
    <g id="ytick_31">
     <g id="line2d_131">
      <g>
       <use xlink:href="#m6690423d30" x="48.039375" y="64.626229" style="stroke: #000000; stroke-width: 0.5"/>
      </g>
     </g>
     <g id="line2d_132">
      <g>
       <use xlink:href="#m4b8b9a01d2" x="382.839375" y="64.626229" style="stroke: #000000; stroke-width: 0.5"/>
      </g>
     </g>
    </g>
    <g id="ytick_32">
     <g id="line2d_133">
      <g>
       <use xlink:href="#m6690423d30" x="48.039375" y="57.992484" style="stroke: #000000; stroke-width: 0.5"/>
      </g>
     </g>
     <g id="line2d_134">
      <g>
       <use xlink:href="#m4b8b9a01d2" x="382.839375" y="57.992484" style="stroke: #000000; stroke-width: 0.5"/>
      </g>
     </g>
    </g>
    <g id="ytick_33">
     <g id="line2d_135">
      <g>
       <use xlink:href="#m6690423d30" x="48.039375" y="51.358739" style="stroke: #000000; stroke-width: 0.5"/>
      </g>
     </g>
     <g id="line2d_136">
      <g>
       <use xlink:href="#m4b8b9a01d2" x="382.839375" y="51.358739" style="stroke: #000000; stroke-width: 0.5"/>
      </g>
     </g>
    </g>
    <g id="ytick_34">
     <g id="line2d_137">
      <g>
       <use xlink:href="#m6690423d30" x="48.039375" y="38.091249" style="stroke: #000000; stroke-width: 0.5"/>
      </g>
     </g>
     <g id="line2d_138">
      <g>
       <use xlink:href="#m4b8b9a01d2" x="382.839375" y="38.091249" style="stroke: #000000; stroke-width: 0.5"/>
      </g>
     </g>
    </g>
    <g id="ytick_35">
     <g id="line2d_139">
      <g>
       <use xlink:href="#m6690423d30" x="48.039375" y="31.457504" style="stroke: #000000; stroke-width: 0.5"/>
      </g>
     </g>
     <g id="line2d_140">
      <g>
       <use xlink:href="#m4b8b9a01d2" x="382.839375" y="31.457504" style="stroke: #000000; stroke-width: 0.5"/>
      </g>
     </g>
    </g>
    <g id="ytick_36">
     <g id="line2d_141">
      <g>
       <use xlink:href="#m6690423d30" x="48.039375" y="24.823759" style="stroke: #000000; stroke-width: 0.5"/>
      </g>
     </g>
     <g id="line2d_142">
      <g>
       <use xlink:href="#m4b8b9a01d2" x="382.839375" y="24.823759" style="stroke: #000000; stroke-width: 0.5"/>
      </g>
     </g>
    </g>
    <g id="ytick_37">
     <g id="line2d_143">
      <g>
       <use xlink:href="#m6690423d30" x="48.039375" y="18.190014" style="stroke: #000000; stroke-width: 0.5"/>
      </g>
     </g>
     <g id="line2d_144">
      <g>
       <use xlink:href="#m4b8b9a01d2" x="382.839375" y="18.190014" style="stroke: #000000; stroke-width: 0.5"/>
      </g>
     </g>
    </g>
    <g id="ytick_38">
     <g id="line2d_145">
      <g>
       <use xlink:href="#m6690423d30" x="48.039375" y="4.922524" style="stroke: #000000; stroke-width: 0.5"/>
      </g>
     </g>
     <g id="line2d_146">
      <g>
       <use xlink:href="#m4b8b9a01d2" x="382.839375" y="4.922524" style="stroke: #000000; stroke-width: 0.5"/>
      </g>
     </g>
    </g>
    <g id="text_16">
     <!-- Fitness -->
     <g transform="translate(12.718125 149.120625) rotate(-90) scale(0.12 -0.12)">
      <defs>
       <path id="DejaVuSans-46" d="M 628 4666 
L 3309 4666 
L 3309 4134 
L 1259 4134 
L 1259 2759 
L 3109 2759 
L 3109 2228 
L 1259 2228 
L 1259 0 
L 628 0 
L 628 4666 
z
" transform="scale(0.015625)"/>
      </defs>
      <use xlink:href="#DejaVuSans-46"/>
      <use xlink:href="#DejaVuSans-69" x="50.269531"/>
      <use xlink:href="#DejaVuSans-74" x="78.052734"/>
      <use xlink:href="#DejaVuSans-6e" x="117.261719"/>
      <use xlink:href="#DejaVuSans-65" x="180.640625"/>
      <use xlink:href="#DejaVuSans-73" x="242.164062"/>
      <use xlink:href="#DejaVuSans-73" x="294.263672"/>
     </g>
    </g>
   </g>
   <g id="line2d_147">
    <path d="M 63.257557 67.169459 
L 63.867504 58.054596 
L 66.91724 58.054948 
L 67.527187 57.813102 
L 68.137134 47.288552 
L 69.966976 47.279569 
L 70.576923 41.491436 
L 71.18687 41.489288 
L 71.796817 40.255049 
L 73.626659 40.252045 
L 74.236606 39.2916 
L 77.286342 39.292653 
L 77.896289 37.65367 
L 78.506236 37.65102 
L 79.116183 36.446779 
L 80.336077 36.445883 
L 80.946025 36.014152 
L 81.555972 34.22809 
L 83.99576 34.230075 
L 84.605708 32.02372 
L 87.045496 32.018552 
L 87.655444 31.466707 
L 88.265391 31.469503 
L 88.875338 31.343567 
L 89.485285 30.273941 
L 91.315127 30.272126 
L 91.925074 29.973601 
L 93.144968 29.972963 
L 93.754915 29.683218 
L 96.804651 29.671518 
L 97.414598 28.39956 
L 99.24444 28.399759 
L 99.854387 28.229364 
L 103.51407 28.229823 
L 104.733964 28.134602 
L 109.613542 28.068168 
L 110.223489 27.818286 
L 112.05333 27.815037 
L 112.663277 27.110961 
L 126.692062 27.097786 
L 127.302009 26.555986 
L 130.961692 26.556451 
L 132.791534 26.221207 
L 133.401481 26.220787 
L 134.011428 25.868394 
L 146.820319 25.804539 
L 147.430266 25.626715 
L 148.65016 25.605458 
L 149.260107 23.506708 
L 170.608258 23.503434 
L 171.218205 22.43562 
L 177.927624 22.340891 
L 178.537571 20.002948 
L 180.97736 19.998278 
L 181.587307 19.834949 
L 182.807202 18.274496 
L 184.637043 18.214272 
L 187.076832 18.208268 
L 187.686779 17.995387 
L 188.906673 17.884271 
L 191.346462 17.838685 
L 191.956409 16.806415 
L 198.055881 16.747059 
L 198.665828 16.47244 
L 200.495669 16.471364 
L 201.715564 16.247472 
L 202.935458 16.18408 
L 204.155352 16.182198 
L 213.914507 16.155077 
L 215.744349 16.124932 
L 222.453767 16.115877 
L 251.731231 16.068279 
L 252.341179 16.016134 
L 253.561073 16.100486 
L 324.314944 15.962245 
L 326.144786 15.918266 
L 364.571457 15.790196 
L 365.181405 14.94 
L 367.621193 14.942791 
L 367.621193 14.942791 
" clip-path="url(#p6127d24710)" style="fill: none; stroke: #000000; stroke-linecap: square"/>
   </g>
   <g id="line2d_148">
    <path d="M 63.257557 185.506678 
L 63.867504 167.907705 
L 64.477451 164.416962 
L 65.087398 151.526861 
L 65.697345 162.720608 
L 66.307293 154.668951 
L 66.91724 154.595742 
L 67.527187 147.398249 
L 68.137134 158.347384 
L 69.357028 136.583342 
L 70.576923 118.101763 
L 71.18687 119.300168 
L 72.406764 101.785486 
L 73.016711 105.978217 
L 73.626659 90.018022 
L 74.236606 85.502467 
L 74.846553 70.436681 
L 75.4565 64.923715 
L 76.066447 72.274461 
L 76.676394 74.409427 
L 77.286342 68.243701 
L 77.896289 66.671772 
L 78.506236 68.919755 
L 79.116183 65.398632 
L 79.72613 64.82078 
L 80.336077 56.513771 
L 80.946025 55.82861 
L 81.555972 47.550639 
L 82.165919 47.886143 
L 82.775866 45.616118 
L 83.385813 46.194147 
L 83.99576 45.106882 
L 84.605708 44.674261 
L 85.215655 45.242247 
L 85.825602 47.523035 
L 86.435549 45.080671 
L 87.045496 47.747685 
L 87.655444 48.018207 
L 88.265391 44.725015 
L 88.875338 46.887 
L 89.485285 45.962862 
L 90.095232 45.690096 
L 90.705179 44.961788 
L 91.315127 42.545034 
L 92.535021 40.298186 
L 93.144968 41.786947 
L 93.754915 39.423384 
L 94.364862 41.099351 
L 94.97481 38.824333 
L 96.194704 40.169198 
L 97.414598 35.659156 
L 98.024545 36.85826 
L 98.634493 36.285396 
L 99.24444 39.040203 
L 99.854387 36.693466 
L 100.464334 36.288979 
L 101.074281 37.074409 
L 101.684228 35.908456 
L 102.294176 37.149971 
L 102.904123 38.698639 
L 103.51407 38.433428 
L 104.124017 41.931718 
L 104.733964 40.052115 
L 105.343911 39.600707 
L 105.953859 39.820141 
L 106.563806 43.09657 
L 107.173753 41.674245 
L 107.7837 41.356942 
L 108.393647 40.002633 
L 109.003594 39.286658 
L 109.613542 33.75307 
L 110.223489 33.459454 
L 110.833436 35.131945 
L 111.443383 34.082962 
L 112.05333 33.625642 
L 112.663277 34.287617 
L 113.273225 33.205053 
L 113.883172 32.823243 
L 114.493119 33.216765 
L 115.103066 32.784215 
L 115.713013 36.400916 
L 116.32296 33.370105 
L 116.932908 33.314156 
L 117.542855 36.317744 
L 118.152802 33.462064 
L 118.762749 35.123914 
L 119.372696 37.637772 
L 119.982643 40.934539 
L 120.592591 35.554706 
L 121.202538 35.151548 
L 121.812485 32.064596 
L 122.422432 32.873353 
L 123.032379 32.644069 
L 123.642326 30.507803 
L 124.252274 35.789138 
L 124.862221 33.777222 
L 126.082115 40.05825 
L 126.692062 38.518119 
L 127.302009 38.676884 
L 127.911957 34.0414 
L 128.521904 33.952237 
L 129.131851 32.232833 
L 129.741798 33.304433 
L 130.351745 32.914684 
L 130.961692 34.547733 
L 131.57164 36.645935 
L 132.181587 35.946046 
L 132.791534 34.774167 
L 133.401481 32.917455 
L 134.011428 34.627524 
L 134.621375 32.416151 
L 135.231323 33.74175 
L 135.84127 30.868044 
L 136.451217 30.207292 
L 137.061164 38.296368 
L 137.671111 37.158048 
L 138.281058 35.172699 
L 138.891006 32.353099 
L 139.500953 30.686188 
L 140.1109 31.601105 
L 140.720847 32.982145 
L 141.330794 30.338836 
L 141.940741 28.810075 
L 142.550689 29.33474 
L 143.160636 30.961671 
L 143.770583 33.455633 
L 144.38053 29.903901 
L 145.600424 36.701169 
L 146.820319 33.263979 
L 147.430266 37.565871 
L 148.040213 35.877818 
L 149.260107 40.127088 
L 149.870055 39.878495 
L 150.480002 41.895216 
L 151.089949 41.19429 
L 152.91979 36.482395 
L 153.529738 38.165209 
L 154.139685 38.961089 
L 154.749632 37.883219 
L 155.359579 36.419213 
L 155.969526 32.925304 
L 156.579473 31.849075 
L 157.189421 31.343925 
L 157.799368 32.379957 
L 158.409315 32.813553 
L 159.019262 32.324912 
L 159.629209 35.785765 
L 160.239156 34.653002 
L 160.849104 34.027602 
L 161.459051 34.497765 
L 162.068998 36.281121 
L 162.678945 39.387385 
L 163.898839 36.106632 
L 165.118734 41.753477 
L 165.728681 36.973657 
L 166.948575 38.863819 
L 167.558522 43.3463 
L 168.16847 49.19298 
L 168.778417 53.367212 
L 169.388364 53.108819 
L 169.998311 55.05499 
L 170.608258 58.279912 
L 171.218205 55.41004 
L 171.828153 58.866733 
L 172.4381 57.513626 
L 173.048047 57.394301 
L 173.657994 55.656276 
L 174.267941 56.341682 
L 174.877888 57.72065 
L 175.487836 55.495484 
L 176.097783 57.374255 
L 176.70773 54.271763 
L 177.317677 49.98063 
L 177.927624 42.764758 
L 178.537571 38.18638 
L 179.147519 34.546678 
L 179.757466 30.1339 
L 180.367413 30.288916 
L 180.97736 33.644036 
L 181.587307 28.540905 
L 182.197254 26.513264 
L 182.807202 26.077644 
L 183.417149 26.195496 
L 184.027096 26.879357 
L 184.637043 33.790827 
L 185.24699 30.201103 
L 185.856937 27.609218 
L 186.466885 26.934977 
L 187.076832 27.696784 
L 187.686779 25.81501 
L 188.296726 26.909052 
L 188.906673 26.258154 
L 189.51662 26.139381 
L 190.126568 23.978879 
L 190.736515 23.776812 
L 191.346462 24.117431 
L 191.956409 26.056955 
L 192.566356 24.632108 
L 193.176303 23.760901 
L 193.786251 25.544686 
L 194.396198 25.389172 
L 195.006145 23.848797 
L 195.616092 24.531406 
L 196.226039 25.001995 
L 196.835986 27.588602 
L 197.445934 28.558931 
L 198.055881 27.632059 
L 198.665828 31.123964 
L 199.275775 29.663759 
L 199.885722 31.130255 
L 200.495669 30.628489 
L 201.105617 29.415806 
L 201.715564 27.571797 
L 202.935458 30.068812 
L 203.545405 28.594629 
L 204.155352 29.386585 
L 204.7653 25.366603 
L 205.375247 24.983273 
L 205.985194 23.969028 
L 206.595141 24.524237 
L 207.205088 22.625706 
L 207.815035 22.986202 
L 208.424983 20.839572 
L 209.03493 22.870907 
L 209.644877 21.191561 
L 210.254824 30.556784 
L 210.864771 24.684876 
L 211.474718 24.296502 
L 212.084666 27.711057 
L 212.694613 24.762566 
L 213.30456 28.077779 
L 213.914507 27.193382 
L 214.524454 22.853965 
L 215.134401 21.949034 
L 215.744349 21.465202 
L 216.354296 21.275484 
L 216.964243 22.514268 
L 218.184137 29.4729 
L 218.794084 27.243456 
L 219.404032 26.956548 
L 220.013979 28.320292 
L 220.623926 24.455728 
L 221.233873 29.953503 
L 221.84382 29.045874 
L 222.453767 30.134988 
L 223.063715 27.278117 
L 223.673662 23.37836 
L 224.283609 26.535402 
L 224.893556 28.554764 
L 225.503503 25.810599 
L 226.11345 23.97585 
L 226.723398 21.717605 
L 227.943292 20.203583 
L 228.553239 20.286338 
L 229.163186 20.078436 
L 229.773133 20.301473 
L 230.383081 19.532634 
L 230.993028 22.932676 
L 231.602975 23.72151 
L 232.212922 20.245171 
L 232.822869 21.214463 
L 233.432816 20.771378 
L 234.042764 19.319895 
L 234.652711 18.703959 
L 235.262658 19.716211 
L 235.872605 22.011234 
L 236.482552 22.780766 
L 237.092499 22.235522 
L 237.702447 21.19384 
L 238.922341 21.086434 
L 239.532288 19.788107 
L 240.142235 22.878619 
L 240.752182 19.325006 
L 241.36213 20.010486 
L 241.972077 19.443057 
L 242.582024 18.473348 
L 243.191971 23.286296 
L 243.801918 26.026377 
L 244.411865 22.313813 
L 245.021813 19.765968 
L 245.63176 20.798096 
L 246.241707 19.309205 
L 246.851654 18.632629 
L 247.461601 18.421108 
L 248.071548 20.058367 
L 249.291443 26.405815 
L 249.90139 25.811477 
L 250.511337 26.051509 
L 251.121284 24.802871 
L 251.731231 21.425917 
L 252.341179 23.393491 
L 252.951126 23.151136 
L 253.561073 22.390642 
L 254.17102 23.838098 
L 254.780967 22.474975 
L 255.390914 21.979548 
L 256.000862 25.48094 
L 256.610809 25.598415 
L 257.220756 21.930382 
L 257.830703 26.584501 
L 258.44065 23.007096 
L 259.050597 25.215455 
L 259.660545 23.295183 
L 260.270492 24.094935 
L 260.880439 21.684527 
L 261.490386 21.03955 
L 262.100333 23.496126 
L 262.71028 21.718551 
L 263.320228 21.358803 
L 263.930175 23.642779 
L 264.540122 22.466581 
L 265.150069 24.351825 
L 265.760016 27.561341 
L 266.369963 24.378365 
L 266.979911 25.548851 
L 267.589858 25.958947 
L 268.199805 22.127763 
L 268.809752 22.564093 
L 269.419699 21.691886 
L 270.029646 21.145383 
L 270.639594 21.588422 
L 271.249541 21.216798 
L 271.859488 18.688412 
L 272.469435 19.38177 
L 273.079382 20.469483 
L 273.689329 19.422902 
L 274.299277 25.63791 
L 274.909224 25.090323 
L 275.519171 23.094557 
L 276.129118 23.993433 
L 276.739065 20.007209 
L 277.95896 23.756277 
L 278.568907 24.053571 
L 279.178854 19.998229 
L 279.788801 19.171786 
L 280.398748 19.703333 
L 281.008695 21.698091 
L 281.618643 19.49801 
L 282.838537 22.643022 
L 283.448484 20.951338 
L 284.058431 19.863005 
L 284.668378 18.178715 
L 285.278326 19.668178 
L 285.888273 19.121326 
L 286.49822 23.467787 
L 287.108167 21.752356 
L 287.718114 25.161172 
L 288.328061 23.983194 
L 288.938009 26.770323 
L 289.547956 23.782313 
L 290.157903 24.618875 
L 290.76785 27.627978 
L 291.377797 25.761111 
L 291.987744 22.349587 
L 292.597692 23.252572 
L 293.207639 28.212223 
L 293.817586 25.816515 
L 294.427533 25.346689 
L 295.03748 25.451708 
L 295.647427 22.733648 
L 296.257375 20.558187 
L 296.867322 25.088558 
L 297.477269 24.80181 
L 298.087216 29.12342 
L 298.697163 29.616132 
L 299.30711 26.936385 
L 299.917058 24.937883 
L 300.527005 28.062878 
L 301.136952 25.539926 
L 301.746899 24.121345 
L 302.356846 24.645145 
L 302.966793 22.74965 
L 303.576741 25.1394 
L 304.186688 23.648414 
L 304.796635 25.819904 
L 306.016529 23.082179 
L 306.626476 27.547094 
L 307.236424 27.39244 
L 307.846371 29.243655 
L 308.456318 26.897464 
L 309.066265 22.221787 
L 310.286159 22.645341 
L 310.896107 25.609633 
L 311.506054 23.335446 
L 312.116001 21.738023 
L 312.725948 22.746081 
L 313.335895 22.193648 
L 313.945842 25.875756 
L 314.55579 25.851725 
L 315.165737 25.489263 
L 315.775684 25.797344 
L 316.385631 32.637376 
L 316.995578 26.8863 
L 317.605525 24.501835 
L 318.215473 28.634948 
L 318.82542 23.584049 
L 319.435367 24.814931 
L 320.655261 18.442806 
L 321.875156 19.412465 
L 322.485103 21.005644 
L 323.09505 23.197807 
L 323.704997 20.17639 
L 324.314944 20.223802 
L 324.924891 20.833404 
L 325.534839 19.208662 
L 326.144786 20.977987 
L 326.754733 20.969673 
L 327.36468 23.867713 
L 327.974627 24.536113 
L 328.584574 19.311729 
L 329.194522 21.099427 
L 329.804469 18.821317 
L 330.414416 20.081748 
L 331.024363 18.549458 
L 332.244257 20.803602 
L 332.854205 21.143914 
L 333.464152 20.179479 
L 334.074099 18.018743 
L 334.684046 23.048785 
L 335.293993 20.004776 
L 335.90394 21.186685 
L 336.513888 22.722423 
L 337.123835 21.249251 
L 337.733782 20.430508 
L 338.343729 18.939659 
L 338.953676 18.851998 
L 339.563623 23.72671 
L 340.173571 24.177609 
L 340.783518 23.571287 
L 341.393465 22.50838 
L 342.003412 22.551753 
L 342.613359 24.235776 
L 343.223306 23.45375 
L 343.833254 26.696117 
L 344.443201 26.203177 
L 345.053148 26.250514 
L 345.663095 28.636457 
L 346.273042 23.875046 
L 346.88299 25.675713 
L 347.492937 19.8298 
L 348.102884 19.329626 
L 348.712831 23.381241 
L 349.322778 22.581573 
L 349.932725 23.314135 
L 350.542673 22.072745 
L 351.15262 24.81593 
L 351.762567 26.123388 
L 352.372514 25.854465 
L 352.982461 23.825191 
L 353.592408 25.387173 
L 354.202356 28.452551 
L 354.812303 25.527691 
L 355.42225 21.964724 
L 356.032197 27.692035 
L 356.642144 27.597918 
L 357.252091 25.475325 
L 357.862039 25.77107 
L 358.471986 24.724252 
L 359.69188 25.877484 
L 360.301827 23.703555 
L 360.911774 22.923478 
L 361.521722 24.735267 
L 362.131669 20.604038 
L 362.741616 21.49548 
L 363.351563 23.042007 
L 364.571457 27.369886 
L 365.181405 25.103444 
L 365.791352 27.585443 
L 366.401299 31.032508 
L 367.011246 27.489249 
L 367.621193 25.959102 
L 367.621193 25.959102 
" clip-path="url(#p6127d24710)" style="fill: none; stroke-dasharray: 3.7,1.6; stroke-dashoffset: 0; stroke: #000000"/>
   </g>
   <g id="patch_3">
    <path d="M 48.039375 253.08 
L 48.039375 3.6 
" style="fill: none; stroke: #000000; stroke-width: 0.5; stroke-linejoin: miter; stroke-linecap: square"/>
   </g>
   <g id="patch_4">
    <path d="M 382.839375 253.08 
L 382.839375 3.6 
" style="fill: none; stroke: #000000; stroke-width: 0.5; stroke-linejoin: miter; stroke-linecap: square"/>
   </g>
   <g id="patch_5">
    <path d="M 48.039375 253.08 
L 382.839375 253.08 
" style="fill: none; stroke: #000000; stroke-width: 0.5; stroke-linejoin: miter; stroke-linecap: square"/>
   </g>
   <g id="patch_6">
    <path d="M 48.039375 3.6 
L 382.839375 3.6 
" style="fill: none; stroke: #000000; stroke-width: 0.5; stroke-linejoin: miter; stroke-linecap: square"/>
   </g>
   <g id="legend_1">
    <g id="patch_7">
     <path d="M 256.633125 247.08 
L 374.439375 247.08 
Q 376.839375 247.08 376.839375 244.68 
L 376.839375 193.03875 
Q 376.839375 190.63875 374.439375 190.63875 
L 256.633125 190.63875 
Q 254.233125 190.63875 254.233125 193.03875 
L 254.233125 244.68 
Q 254.233125 247.08 256.633125 247.08 
z
" style="fill: #ffffff; opacity: 0.8; stroke: #cccccc; stroke-linejoin: miter"/>
    </g>
    <g id="line2d_149">
     <path d="M 259.033125 200.356875 
L 271.033125 200.356875 
L 283.033125 200.356875 
" style="fill: none; stroke: #000000; stroke-linecap: square"/>
    </g>
    <g id="text_17">
     <!-- Max fitness -->
     <g transform="translate(292.633125 204.556875) scale(0.12 -0.12)">
      <defs>
       <path id="DejaVuSans-4d" d="M 628 4666 
L 1569 4666 
L 2759 1491 
L 3956 4666 
L 4897 4666 
L 4897 0 
L 4281 0 
L 4281 4097 
L 3078 897 
L 2444 897 
L 1241 4097 
L 1241 0 
L 628 0 
L 628 4666 
z
" transform="scale(0.015625)"/>
       <path id="DejaVuSans-78" d="M 3513 3500 
L 2247 1797 
L 3578 0 
L 2900 0 
L 1881 1375 
L 863 0 
L 184 0 
L 1544 1831 
L 300 3500 
L 978 3500 
L 1906 2253 
L 2834 3500 
L 3513 3500 
z
" transform="scale(0.015625)"/>
       <path id="DejaVuSans-20" transform="scale(0.015625)"/>
       <path id="DejaVuSans-66" d="M 2375 4863 
L 2375 4384 
L 1825 4384 
Q 1516 4384 1395 4259 
Q 1275 4134 1275 3809 
L 1275 3500 
L 2222 3500 
L 2222 3053 
L 1275 3053 
L 1275 0 
L 697 0 
L 697 3053 
L 147 3053 
L 147 3500 
L 697 3500 
L 697 3744 
Q 697 4328 969 4595 
Q 1241 4863 1831 4863 
L 2375 4863 
z
" transform="scale(0.015625)"/>
      </defs>
      <use xlink:href="#DejaVuSans-4d"/>
      <use xlink:href="#DejaVuSans-61" x="86.279297"/>
      <use xlink:href="#DejaVuSans-78" x="147.558594"/>
      <use xlink:href="#DejaVuSans-20" x="206.738281"/>
      <use xlink:href="#DejaVuSans-66" x="238.525391"/>
      <use xlink:href="#DejaVuSans-69" x="273.730469"/>
      <use xlink:href="#DejaVuSans-74" x="301.513672"/>
      <use xlink:href="#DejaVuSans-6e" x="340.722656"/>
      <use xlink:href="#DejaVuSans-65" x="404.101562"/>
      <use xlink:href="#DejaVuSans-73" x="465.625"/>
      <use xlink:href="#DejaVuSans-73" x="517.724609"/>
     </g>
    </g>
    <g id="patch_8">
     <path d="M 259.033125 222.170625 
L 283.033125 222.170625 
L 283.033125 213.770625 
L 259.033125 213.770625 
z
" style="fill: #0000ff; fill-opacity: 0.2; stroke: #0000ff; stroke-opacity: 0.2; stroke-linejoin: miter"/>
    </g>
    <g id="text_18">
     <!-- Top 90% -->
     <g transform="translate(292.633125 222.170625) scale(0.12 -0.12)">
      <defs>
       <path id="DejaVuSans-54" d="M -19 4666 
L 3928 4666 
L 3928 4134 
L 2272 4134 
L 2272 0 
L 1638 0 
L 1638 4134 
L -19 4134 
L -19 4666 
z
" transform="scale(0.015625)"/>
       <path id="DejaVuSans-70" d="M 1159 525 
L 1159 -1331 
L 581 -1331 
L 581 3500 
L 1159 3500 
L 1159 2969 
Q 1341 3281 1617 3432 
Q 1894 3584 2278 3584 
Q 2916 3584 3314 3078 
Q 3713 2572 3713 1747 
Q 3713 922 3314 415 
Q 2916 -91 2278 -91 
Q 1894 -91 1617 61 
Q 1341 213 1159 525 
z
M 3116 1747 
Q 3116 2381 2855 2742 
Q 2594 3103 2138 3103 
Q 1681 3103 1420 2742 
Q 1159 2381 1159 1747 
Q 1159 1113 1420 752 
Q 1681 391 2138 391 
Q 2594 391 2855 752 
Q 3116 1113 3116 1747 
z
" transform="scale(0.015625)"/>
       <path id="DejaVuSans-39" d="M 703 97 
L 703 672 
Q 941 559 1184 500 
Q 1428 441 1663 441 
Q 2288 441 2617 861 
Q 2947 1281 2994 2138 
Q 2813 1869 2534 1725 
Q 2256 1581 1919 1581 
Q 1219 1581 811 2004 
Q 403 2428 403 3163 
Q 403 3881 828 4315 
Q 1253 4750 1959 4750 
Q 2769 4750 3195 4129 
Q 3622 3509 3622 2328 
Q 3622 1225 3098 567 
Q 2575 -91 1691 -91 
Q 1453 -91 1209 -44 
Q 966 3 703 97 
z
M 1959 2075 
Q 2384 2075 2632 2365 
Q 2881 2656 2881 3163 
Q 2881 3666 2632 3958 
Q 2384 4250 1959 4250 
Q 1534 4250 1286 3958 
Q 1038 3666 1038 3163 
Q 1038 2656 1286 2365 
Q 1534 2075 1959 2075 
z
" transform="scale(0.015625)"/>
       <path id="DejaVuSans-25" d="M 4653 2053 
Q 4381 2053 4226 1822 
Q 4072 1591 4072 1178 
Q 4072 772 4226 539 
Q 4381 306 4653 306 
Q 4919 306 5073 539 
Q 5228 772 5228 1178 
Q 5228 1588 5073 1820 
Q 4919 2053 4653 2053 
z
M 4653 2450 
Q 5147 2450 5437 2106 
Q 5728 1763 5728 1178 
Q 5728 594 5436 251 
Q 5144 -91 4653 -91 
Q 4153 -91 3862 251 
Q 3572 594 3572 1178 
Q 3572 1766 3864 2108 
Q 4156 2450 4653 2450 
z
M 1428 4353 
Q 1159 4353 1004 4120 
Q 850 3888 850 3481 
Q 850 3069 1003 2837 
Q 1156 2606 1428 2606 
Q 1700 2606 1854 2837 
Q 2009 3069 2009 3481 
Q 2009 3884 1853 4118 
Q 1697 4353 1428 4353 
z
M 4250 4750 
L 4750 4750 
L 1831 -91 
L 1331 -91 
L 4250 4750 
z
M 1428 4750 
Q 1922 4750 2215 4408 
Q 2509 4066 2509 3481 
Q 2509 2891 2217 2550 
Q 1925 2209 1428 2209 
Q 931 2209 642 2551 
Q 353 2894 353 3481 
Q 353 4063 643 4406 
Q 934 4750 1428 4750 
z
" transform="scale(0.015625)"/>
      </defs>
      <use xlink:href="#DejaVuSans-54"/>
      <use xlink:href="#DejaVuSans-6f" x="44.083984"/>
      <use xlink:href="#DejaVuSans-70" x="105.265625"/>
      <use xlink:href="#DejaVuSans-20" x="168.742188"/>
      <use xlink:href="#DejaVuSans-39" x="200.529297"/>
      <use xlink:href="#DejaVuSans-30" x="264.152344"/>
      <use xlink:href="#DejaVuSans-25" x="327.775391"/>
     </g>
    </g>
    <g id="line2d_150">
     <path d="M 259.033125 235.584375 
L 271.033125 235.584375 
L 283.033125 235.584375 
" style="fill: none; stroke-dasharray: 3.7,1.6; stroke-dashoffset: 0; stroke: #000000"/>
    </g>
    <g id="text_19">
     <!-- Fitness mean -->
     <g transform="translate(292.633125 239.784375) scale(0.12 -0.12)">
      <defs>
       <path id="DejaVuSans-6d" d="M 3328 2828 
Q 3544 3216 3844 3400 
Q 4144 3584 4550 3584 
Q 5097 3584 5394 3201 
Q 5691 2819 5691 2113 
L 5691 0 
L 5113 0 
L 5113 2094 
Q 5113 2597 4934 2840 
Q 4756 3084 4391 3084 
Q 3944 3084 3684 2787 
Q 3425 2491 3425 1978 
L 3425 0 
L 2847 0 
L 2847 2094 
Q 2847 2600 2669 2842 
Q 2491 3084 2119 3084 
Q 1678 3084 1418 2786 
Q 1159 2488 1159 1978 
L 1159 0 
L 581 0 
L 581 3500 
L 1159 3500 
L 1159 2956 
Q 1356 3278 1631 3431 
Q 1906 3584 2284 3584 
Q 2666 3584 2933 3390 
Q 3200 3197 3328 2828 
z
" transform="scale(0.015625)"/>
      </defs>
      <use xlink:href="#DejaVuSans-46"/>
      <use xlink:href="#DejaVuSans-69" x="50.269531"/>
      <use xlink:href="#DejaVuSans-74" x="78.052734"/>
      <use xlink:href="#DejaVuSans-6e" x="117.261719"/>
      <use xlink:href="#DejaVuSans-65" x="180.640625"/>
      <use xlink:href="#DejaVuSans-73" x="242.164062"/>
      <use xlink:href="#DejaVuSans-73" x="294.263672"/>
      <use xlink:href="#DejaVuSans-20" x="346.363281"/>
      <use xlink:href="#DejaVuSans-6d" x="378.150391"/>
      <use xlink:href="#DejaVuSans-65" x="475.5625"/>
      <use xlink:href="#DejaVuSans-61" x="537.085938"/>
      <use xlink:href="#DejaVuSans-6e" x="598.365234"/>
     </g>
    </g>
   </g>
  </g>
 </g>
 <defs>
  <clipPath id="p6127d24710">
   <rect x="48.039375" y="3.6" width="334.8" height="249.48"/>
  </clipPath>
 </defs>
</svg>
