<?xml version="1.0" encoding="utf-8" standalone="no"?>
<!DOCTYPE svg PUBLIC "-//W3C//DTD SVG 1.1//EN"
  "http://www.w3.org/Graphics/SVG/1.1/DTD/svg11.dtd">
<svg xmlns:xlink="http://www.w3.org/1999/xlink" width="394.074375pt" height="289.404426pt" viewBox="0 0 394.074375 289.404426" xmlns="http://www.w3.org/2000/svg" version="1.1">
 <metadata>
  <rdf:RDF xmlns:dc="http://purl.org/dc/elements/1.1/" xmlns:cc="http://creativecommons.org/ns#" xmlns:rdf="http://www.w3.org/1999/02/22-rdf-syntax-ns#">
   <cc:Work>
    <dc:type rdf:resource="http://purl.org/dc/dcmitype/StillImage"/>
    <dc:date>2024-06-04T10:26:56.068860</dc:date>
    <dc:format>image/svg+xml</dc:format>
    <dc:creator>
     <cc:Agent>
      <dc:title>Matplotlib v3.9.0, https://matplotlib.org/</dc:title>
     </cc:Agent>
    </dc:creator>
   </cc:Work>
  </rdf:RDF>
 </metadata>
 <defs>
  <style type="text/css">*{stroke-linejoin: round; stroke-linecap: butt}</style>
 </defs>
 <g id="figure_1">
  <g id="patch_1">
   <path d="M 0 289.404426 
L 394.074375 289.404426 
L 394.074375 0 
L 0 0 
z
" style="fill: #ffffff"/>
  </g>
  <g id="axes_1">
   <g id="patch_2">
    <path d="M 55.674375 255.076926 
L 390.474375 255.076926 
L 390.474375 5.596926 
L 55.674375 5.596926 
z
" style="fill: #ffffff"/>
   </g>
   <g id="PolyCollection_1">
    <defs>
     <path id="mb08f815180" d="M 70.892557 -262.032962 
L 70.892557 -193.611668 
L 71.502504 -212.331335 
L 72.112451 -220.472338 
L 72.722398 -220.165144 
L 73.332345 -219.688943 
L 73.942293 -212.411333 
L 74.55224 -219.5929 
L 75.162187 -216.810606 
L 75.772134 -216.500551 
L 76.382081 -225.774241 
L 76.992028 -225.243224 
L 77.601976 -230.045713 
L 78.211923 -228.017794 
L 78.82187 -228.354485 
L 79.431817 -230.852489 
L 80.041764 -231.838159 
L 80.651711 -232.358839 
L 81.261659 -231.545924 
L 81.871606 -231.670526 
L 82.481553 -232.212608 
L 83.0915 -233.242204 
L 83.701447 -233.739052 
L 84.311394 -233.823834 
L 84.921342 -233.084902 
L 85.531289 -234.74856 
L 86.141236 -235.334818 
L 86.751183 -243.579085 
L 87.36113 -249.348355 
L 87.971077 -235.602032 
L 88.581025 -235.46943 
L 89.190972 -234.595713 
L 89.800919 -234.544811 
L 90.410866 -235.851089 
L 91.020813 -234.88811 
L 91.63076 -248.336489 
L 92.240708 -249.135269 
L 92.850655 -251.242466 
L 93.460602 -252.723491 
L 94.070549 -255.500143 
L 94.680496 -261.714975 
L 95.290444 -263.823885 
L 95.900391 -261.694221 
L 96.510338 -262.783869 
L 97.120285 -263.823885 
L 97.730232 -263.737165 
L 98.340179 -265.7673 
L 98.950127 -265.715594 
L 99.560074 -267.10633 
L 100.170021 -267.108639 
L 100.779968 -267.418754 
L 101.389915 -267.709735 
L 101.999862 -267.280397 
L 102.60981 -267.306786 
L 103.219757 -267.798304 
L 103.829704 -268.34381 
L 104.439651 -268.112722 
L 105.049598 -268.119561 
L 105.659545 -268.616439 
L 106.269493 -268.456095 
L 106.87944 -268.767557 
L 107.489387 -268.670804 
L 108.099334 -266.66646 
L 108.709281 -266.400221 
L 109.319228 -266.677781 
L 109.929176 -266.349741 
L 110.539123 -266.729837 
L 111.14907 -266.892687 
L 111.759017 -263.413965 
L 112.368964 -266.618513 
L 112.978911 -266.224073 
L 113.588859 -266.967781 
L 114.198806 -266.967777 
L 114.808753 -267.502014 
L 115.4187 -267.265584 
L 116.028647 -267.426538 
L 116.638594 -267.696158 
L 117.248542 -268.134625 
L 117.858489 -269.655574 
L 118.468436 -270.041894 
L 119.078383 -270.379651 
L 119.68833 -270.005614 
L 120.298277 -268.541107 
L 120.908225 -268.77049 
L 121.518172 -268.770443 
L 122.128119 -269.602908 
L 122.738066 -269.242993 
L 123.348013 -268.876812 
L 123.95796 -269.169939 
L 124.567908 -268.835019 
L 125.177855 -271.251856 
L 125.787802 -270.847055 
L 126.397749 -270.078493 
L 127.007696 -267.917789 
L 127.617643 -269.242558 
L 128.227591 -269.972157 
L 128.837538 -268.70759 
L 129.447485 -268.987941 
L 130.057432 -267.383256 
L 130.667379 -267.824252 
L 131.277326 -267.070481 
L 131.887274 -267.057776 
L 132.497221 -268.881664 
L 133.107168 -268.710966 
L 133.717115 -270.5362 
L 134.327062 -269.593674 
L 134.937009 -270.946263 
L 135.546957 -271.914751 
L 136.156904 -269.070645 
L 136.766851 -268.279059 
L 137.376798 -270.143905 
L 137.986745 -268.910142 
L 138.596692 -271.05403 
L 139.20664 -271.741844 
L 139.816587 -271.054031 
L 140.426534 -271.054018 
L 141.036481 -271.054026 
L 141.646428 -271.054022 
L 142.256375 -271.054021 
L 142.866323 -269.088788 
L 143.47627 -269.370065 
L 144.086217 -268.873808 
L 144.696164 -268.800056 
L 145.306111 -270.652726 
L 145.916058 -270.652735 
L 146.526006 -269.350725 
L 147.135953 -271.626762 
L 147.7459 -270.601256 
L 148.355847 -271.626747 
L 148.965794 -270.889147 
L 149.575741 -270.570457 
L 150.185689 -269.971529 
L 150.795636 -270.043767 
L 151.405583 -270.043767 
L 152.01553 -270.043771 
L 152.625477 -270.048416 
L 153.235424 -268.751966 
L 153.845372 -269.638281 
L 154.455319 -269.961314 
L 155.065266 -270.10436 
L 155.675213 -270.219938 
L 156.28516 -269.81729 
L 156.895107 -270.71229 
L 157.505055 -271.628014 
L 158.115002 -268.694046 
L 158.724949 -270.60623 
L 159.334896 -268.12619 
L 159.944843 -267.976882 
L 160.55479 -267.175494 
L 161.164738 -267.329408 
L 161.774685 -268.356921 
L 162.384632 -268.535028 
L 162.994579 -270.14948 
L 163.604526 -270.149484 
L 164.214473 -270.149497 
L 164.824421 -268.723197 
L 165.434368 -267.94029 
L 166.044315 -269.627697 
L 166.654262 -269.650619 
L 167.264209 -268.576167 
L 167.874156 -267.395579 
L 168.484104 -267.290477 
L 169.094051 -269.849109 
L 169.703998 -269.678 
L 170.313945 -269.211442 
L 170.923892 -269.466071 
L 171.533839 -271.175273 
L 172.143787 -270.583499 
L 172.753734 -270.476067 
L 173.363681 -270.476051 
L 173.973628 -270.237553 
L 174.583575 -270.264204 
L 175.193522 -270.212555 
L 175.80347 -269.229362 
L 176.413417 -270.226178 
L 177.023364 -270.226191 
L 177.633311 -270.794805 
L 178.243258 -271.138871 
L 178.853205 -270.988376 
L 179.463153 -268.962784 
L 180.0731 -270.069667 
L 180.683047 -270.156701 
L 181.292994 -270.428226 
L 181.902941 -267.87491 
L 182.512888 -267.542494 
L 183.122836 -267.618014 
L 183.732783 -268.674151 
L 184.34273 -269.313497 
L 184.952677 -269.232747 
L 185.562624 -269.446968 
L 186.172571 -270.297742 
L 186.782519 -270.621413 
L 187.392466 -270.641715 
L 188.002413 -270.838984 
L 188.61236 -269.984293 
L 189.222307 -269.725605 
L 189.832254 -270.447944 
L 190.442202 -271.01327 
L 191.052149 -271.013279 
L 191.662096 -271.35278 
L 192.272043 -271.514549 
L 192.88199 -270.940369 
L 193.491937 -268.982655 
L 194.101885 -269.569322 
L 194.711832 -270.526725 
L 195.321779 -269.286691 
L 195.931726 -269.046749 
L 196.541673 -268.76606 
L 197.15162 -268.247909 
L 197.761568 -268.387729 
L 198.371515 -268.143077 
L 198.981462 -270.061489 
L 199.591409 -270.001705 
L 200.201356 -270.23367 
L 200.811303 -269.664324 
L 201.421251 -269.935167 
L 202.031198 -268.60095 
L 202.641145 -270.388187 
L 203.251092 -270.559781 
L 203.861039 -270.559787 
L 204.470986 -269.966788 
L 205.080934 -269.715109 
L 205.690881 -269.957106 
L 206.300828 -269.873187 
L 206.910775 -269.868524 
L 207.520722 -270.285239 
L 208.130669 -267.79168 
L 208.740617 -268.545003 
L 209.350564 -268.544956 
L 209.960511 -268.545035 
L 210.570458 -268.83302 
L 211.180405 -268.892768 
L 211.790352 -269.868523 
L 212.4003 -269.868531 
L 213.010247 -269.230378 
L 213.620194 -270.247617 
L 214.230141 -270.196014 
L 214.840088 -269.785774 
L 215.450035 -270.581436 
L 216.059983 -270.738627 
L 216.66993 -270.787086 
L 217.279877 -271.438742 
L 217.889824 -271.464207 
L 218.499771 -271.85063 
L 219.109718 -270.91059 
L 219.719666 -270.093903 
L 220.329613 -268.276857 
L 220.93956 -268.50495 
L 221.549507 -268.504952 
L 222.159454 -271.290163 
L 222.769401 -269.991222 
L 223.379349 -269.991222 
L 223.989296 -271.29014 
L 224.599243 -271.277815 
L 225.20919 -271.214296 
L 225.819137 -271.214324 
L 226.429084 -271.214309 
L 227.039032 -268.945543 
L 227.648979 -271.21432 
L 228.258926 -270.719534 
L 228.868873 -271.544387 
L 229.47882 -272.38195 
L 230.088767 -272.381921 
L 230.698715 -272.381972 
L 231.308662 -272.381976 
L 231.918609 -272.381961 
L 232.528556 -270.189065 
L 233.138503 -272.382544 
L 233.74845 -272.38198 
L 234.358398 -269.044875 
L 234.968345 -267.858138 
L 235.578292 -267.763376 
L 236.188239 -266.752919 
L 236.798186 -268.027015 
L 237.408133 -268.027018 
L 238.018081 -270.004943 
L 238.628028 -271.190632 
L 239.237975 -271.608833 
L 239.847922 -270.330049 
L 240.457869 -269.841952 
L 241.067816 -270.379353 
L 241.677764 -269.685902 
L 242.287711 -269.685909 
L 242.897658 -268.580392 
L 243.507605 -268.580381 
L 244.117552 -269.419003 
L 244.727499 -268.89743 
L 245.337447 -270.710632 
L 245.947394 -271.419794 
L 246.557341 -270.722605 
L 247.167288 -270.008035 
L 247.777235 -270.799071 
L 248.387182 -270.009631 
L 248.99713 -269.193326 
L 249.607077 -267.972708 
L 250.217024 -267.972712 
L 250.826971 -269.376494 
L 251.436918 -270.134251 
L 252.046865 -270.183171 
L 252.656813 -270.362402 
L 253.26676 -270.799073 
L 253.876707 -270.799061 
L 254.486654 -269.612428 
L 255.096601 -269.719402 
L 255.706548 -272.028529 
L 256.316496 -269.719402 
L 256.926443 -269.444581 
L 257.53639 -267.556785 
L 258.146337 -267.598438 
L 258.756284 -268.165168 
L 259.366231 -269.722276 
L 259.976179 -270.44049 
L 260.586126 -269.507861 
L 261.196073 -270.537172 
L 261.80602 -270.537174 
L 262.415967 -269.238116 
L 263.025914 -269.238115 
L 263.635862 -269.238074 
L 264.245809 -269.238113 
L 264.855756 -270.952969 
L 265.465703 -271.166044 
L 266.07565 -270.268056 
L 266.685597 -267.301277 
L 267.295545 -267.301255 
L 267.905492 -267.301263 
L 268.515439 -267.250294 
L 269.125386 -267.30126 
L 269.735333 -265.57268 
L 270.34528 -268.438352 
L 270.955228 -267.755379 
L 271.565175 -266.78919 
L 272.175122 -267.410966 
L 272.785069 -267.907649 
L 273.395016 -268.739163 
L 274.004963 -270.210104 
L 274.614911 -270.489664 
L 275.224858 -269.674 
L 275.834805 -268.580097 
L 276.444752 -270.361853 
L 277.054699 -271.517472 
L 277.664646 -270.9576 
L 278.274594 -270.691581 
L 278.884541 -270.008862 
L 279.494488 -268.878437 
L 280.104435 -269.1741 
L 280.714382 -269.559262 
L 281.324329 -267.81289 
L 281.934277 -268.511524 
L 282.544224 -268.511524 
L 283.154171 -269.778615 
L 283.764118 -269.993359 
L 284.374065 -270.494818 
L 284.984012 -270.387597 
L 285.59396 -269.592395 
L 286.203907 -270.494864 
L 286.813854 -268.378855 
L 287.423801 -268.067936 
L 288.033748 -267.823622 
L 288.643695 -267.997329 
L 289.253643 -270.030271 
L 289.86359 -270.259046 
L 290.473537 -269.790383 
L 291.083484 -268.610496 
L 291.693431 -268.623961 
L 292.303378 -268.651418 
L 292.913326 -268.651433 
L 293.523273 -269.644692 
L 294.13322 -268.698579 
L 294.743167 -267.80017 
L 295.353114 -269.767428 
L 295.963061 -269.767448 
L 296.573009 -268.202667 
L 297.182956 -267.943563 
L 297.792903 -267.491691 
L 298.40285 -266.444591 
L 299.012797 -266.787612 
L 299.622744 -268.262918 
L 300.232692 -267.70368 
L 300.842639 -270.579546 
L 301.452586 -270.589344 
L 302.062533 -271.821773 
L 302.67248 -271.724401 
L 303.282427 -270.983548 
L 303.892375 -270.573501 
L 304.502322 -267.564051 
L 305.112269 -270.133074 
L 305.722216 -269.132149 
L 306.332163 -268.537166 
L 306.94211 -268.76252 
L 307.552058 -268.565648 
L 308.162005 -268.975316 
L 308.771952 -268.975329 
L 309.381899 -267.996892 
L 309.991846 -269.030738 
L 310.601793 -270.890542 
L 311.211741 -271.059178 
L 311.821688 -271.059176 
L 312.431635 -270.954833 
L 313.041582 -270.954827 
L 313.651529 -271.272881 
L 314.261476 -270.602572 
L 314.871424 -268.500752 
L 315.481371 -266.50933 
L 316.091318 -266.509347 
L 316.701265 -268.928146 
L 317.311212 -269.515881 
L 317.921159 -270.713633 
L 318.531107 -271.210655 
L 319.141054 -271.558081 
L 319.751001 -271.558069 
L 320.360948 -271.546271 
L 320.970895 -269.988561 
L 321.580842 -270.725596 
L 322.19079 -270.555151 
L 322.800737 -270.851515 
L 323.410684 -271.593745 
L 324.020631 -270.939379 
L 324.630578 -270.235455 
L 325.240525 -269.139222 
L 325.850473 -266.801804 
L 326.46042 -266.72203 
L 327.070367 -267.814096 
L 327.680314 -266.77378 
L 328.290261 -266.094728 
L 328.900208 -266.560826 
L 329.510156 -266.459493 
L 330.120103 -269.087349 
L 330.73005 -269.595672 
L 331.339997 -270.25316 
L 331.949944 -267.247391 
L 332.559891 -268.820979 
L 333.169839 -268.879138 
L 333.779786 -269.365914 
L 334.389733 -270.571203 
L 334.99968 -271.007633 
L 335.609627 -268.941125 
L 336.219574 -269.604885 
L 336.829522 -270.390836 
L 337.439469 -271.776869 
L 338.049416 -271.586466 
L 338.659363 -269.754767 
L 339.26931 -268.745812 
L 339.879257 -269.308485 
L 340.489205 -270.983077 
L 341.099152 -270.983096 
L 341.709099 -271.187675 
L 342.319046 -270.983092 
L 342.928993 -270.983092 
L 343.53894 -270.783523 
L 344.148888 -269.491292 
L 344.758835 -270.555847 
L 345.368782 -271.520358 
L 345.978729 -271.596681 
L 346.588676 -271.520338 
L 347.198623 -269.91569 
L 347.808571 -271.520329 
L 348.418518 -270.586025 
L 349.028465 -269.740892 
L 349.638412 -270.489084 
L 350.248359 -271.61017 
L 350.858306 -271.325712 
L 351.468254 -272.452798 
L 352.078201 -271.325684 
L 352.688148 -268.555232 
L 353.298095 -268.555237 
L 353.908042 -268.555768 
L 354.51799 -270.957953 
L 355.127937 -271.433784 
L 355.737884 -272.452794 
L 356.347831 -271.76398 
L 356.957778 -269.866741 
L 357.567725 -269.488145 
L 358.177673 -271.483195 
L 358.78762 -271.763987 
L 359.397567 -271.483195 
L 360.007514 -271.951275 
L 360.617461 -270.333934 
L 361.227408 -271.522256 
L 361.837356 -271.522305 
L 362.447303 -271.483193 
L 363.05725 -268.970343 
L 363.667197 -268.338594 
L 364.277144 -269.659495 
L 364.887091 -270.532775 
L 365.497039 -269.497371 
L 366.106986 -270.756104 
L 366.716933 -269.847805 
L 367.32688 -269.847828 
L 367.936827 -270.161356 
L 368.546774 -269.490956 
L 369.156722 -268.174446 
L 369.766669 -269.847823 
L 370.376616 -268.982773 
L 370.986563 -270.274382 
L 371.59651 -267.500983 
L 372.206457 -266.651447 
L 372.816405 -266.651462 
L 373.426352 -266.364648 
L 374.036299 -265.102914 
L 374.646246 -266.816172 
L 375.256193 -269.209576 
L 375.256193 -272.467496 
L 375.256193 -272.467496 
L 374.646246 -272.4675 
L 374.036299 -272.467488 
L 373.426352 -272.467485 
L 372.816405 -272.467489 
L 372.206457 -272.467484 
L 371.59651 -272.467485 
L 370.986563 -272.467468 
L 370.376616 -272.467487 
L 369.766669 -272.467467 
L 369.156722 -272.467472 
L 368.546774 -272.46748 
L 367.936827 -272.45635 
L 367.32688 -272.456369 
L 366.716933 -272.456353 
L 366.106986 -272.456362 
L 365.497039 -272.456354 
L 364.887091 -272.456349 
L 364.277144 -272.456361 
L 363.667197 -272.456366 
L 363.05725 -272.456357 
L 362.447303 -272.456353 
L 361.837356 -272.456364 
L 361.227408 -272.456363 
L 360.617461 -272.456355 
L 360.007514 -272.456355 
L 359.397567 -272.456365 
L 358.78762 -272.456354 
L 358.177673 -272.456352 
L 357.567725 -272.456356 
L 356.957778 -272.456349 
L 356.347831 -272.456356 
L 355.737884 -272.456361 
L 355.127937 -272.456354 
L 354.51799 -272.456359 
L 353.908042 -272.456363 
L 353.298095 -272.456358 
L 352.688148 -272.456357 
L 352.078201 -272.456357 
L 351.468254 -272.456356 
L 350.858306 -272.456357 
L 350.248359 -272.456365 
L 349.638412 -272.456354 
L 349.028465 -272.456358 
L 348.418518 -272.456352 
L 347.808571 -272.456363 
L 347.198623 -272.456355 
L 346.588676 -272.456366 
L 345.978729 -272.456365 
L 345.368782 -272.456352 
L 344.758835 -272.456349 
L 344.148888 -272.45635 
L 343.53894 -272.456358 
L 342.928993 -272.456381 
L 342.319046 -272.456359 
L 341.709099 -272.456348 
L 341.099152 -272.456363 
L 340.489205 -272.456359 
L 339.879257 -272.45636 
L 339.26931 -272.45636 
L 338.659363 -272.456368 
L 338.049416 -272.45635 
L 337.439469 -272.456357 
L 336.829522 -272.456349 
L 336.219574 -272.456366 
L 335.609627 -272.456351 
L 334.99968 -272.456363 
L 334.389733 -272.456361 
L 333.779786 -272.456368 
L 333.169839 -272.456358 
L 332.559891 -272.456373 
L 331.949944 -272.456361 
L 331.339997 -272.456358 
L 330.73005 -272.456349 
L 330.120103 -272.456362 
L 329.510156 -272.456354 
L 328.900208 -272.456358 
L 328.290261 -272.456365 
L 327.680314 -272.456356 
L 327.070367 -272.456356 
L 326.46042 -272.456356 
L 325.850473 -272.456359 
L 325.240525 -272.456361 
L 324.630578 -272.456353 
L 324.020631 -272.456358 
L 323.410684 -272.456354 
L 322.800737 -272.456369 
L 322.19079 -272.456349 
L 321.580842 -272.456354 
L 320.970895 -272.45636 
L 320.360948 -272.456361 
L 319.751001 -272.456346 
L 319.141054 -272.45635 
L 318.531107 -272.456341 
L 317.921159 -272.456352 
L 317.311212 -272.456354 
L 316.701265 -272.456339 
L 316.091318 -272.456352 
L 315.481371 -272.456353 
L 314.871424 -272.456362 
L 314.261476 -272.456355 
L 313.651529 -272.456357 
L 313.041582 -272.45635 
L 312.431635 -272.456353 
L 311.821688 -272.456353 
L 311.211741 -272.456352 
L 310.601793 -272.456363 
L 309.991846 -272.456355 
L 309.381899 -272.456359 
L 308.771952 -272.456355 
L 308.162005 -272.456357 
L 307.552058 -272.456342 
L 306.94211 -272.45635 
L 306.332163 -272.456353 
L 305.722216 -272.456353 
L 305.112269 -272.456351 
L 304.502322 -272.456344 
L 303.892375 -272.456357 
L 303.282427 -272.45635 
L 302.67248 -272.456354 
L 302.062533 -272.45635 
L 301.452586 -272.456347 
L 300.842639 -272.456355 
L 300.232692 -272.456347 
L 299.622744 -272.456352 
L 299.012797 -272.456352 
L 298.40285 -272.456359 
L 297.792903 -272.456351 
L 297.182956 -272.456352 
L 296.573009 -272.456337 
L 295.963061 -272.456352 
L 295.353114 -272.456365 
L 294.743167 -272.456351 
L 294.13322 -272.456364 
L 293.523273 -272.456356 
L 292.913326 -272.456365 
L 292.303378 -272.456351 
L 291.693431 -272.456348 
L 291.083484 -272.45635 
L 290.473537 -272.456349 
L 289.86359 -272.456355 
L 289.253643 -272.456351 
L 288.643695 -272.456355 
L 288.033748 -272.456359 
L 287.423801 -272.456355 
L 286.813854 -272.456359 
L 286.203907 -272.456347 
L 285.59396 -272.456339 
L 284.984012 -272.456356 
L 284.374065 -272.456355 
L 283.764118 -272.456352 
L 283.154171 -272.45634 
L 282.544224 -272.456346 
L 281.934277 -272.456325 
L 281.324329 -272.456325 
L 280.714382 -272.45632 
L 280.104435 -272.456311 
L 279.494488 -272.456343 
L 278.884541 -272.456309 
L 278.274594 -272.453835 
L 277.664646 -272.453836 
L 277.054699 -272.453834 
L 276.444752 -272.453838 
L 275.834805 -272.45384 
L 275.224858 -272.453839 
L 274.614911 -272.453831 
L 274.004963 -272.453836 
L 273.395016 -272.453847 
L 272.785069 -272.453835 
L 272.175122 -272.453832 
L 271.565175 -272.45383 
L 270.955228 -272.453834 
L 270.34528 -272.453831 
L 269.735333 -272.453834 
L 269.125386 -272.453837 
L 268.515439 -272.453843 
L 267.905492 -272.453835 
L 267.295545 -272.453834 
L 266.685597 -272.453838 
L 266.07565 -272.453836 
L 265.465703 -272.453845 
L 264.855756 -272.453834 
L 264.245809 -272.453836 
L 263.635862 -272.453835 
L 263.025914 -272.453836 
L 262.415967 -272.453838 
L 261.80602 -272.453843 
L 261.196073 -272.453834 
L 260.586126 -272.453834 
L 259.976179 -272.453834 
L 259.366231 -272.453838 
L 258.756284 -272.45384 
L 258.146337 -272.453836 
L 257.53639 -272.453848 
L 256.926443 -272.453841 
L 256.316496 -272.453837 
L 255.706548 -272.453836 
L 255.096601 -272.453836 
L 254.486654 -272.453847 
L 253.876707 -272.453843 
L 253.26676 -272.453843 
L 252.656813 -272.453832 
L 252.046865 -272.453831 
L 251.436918 -272.453835 
L 250.826971 -272.453833 
L 250.217024 -272.453836 
L 249.607077 -272.453835 
L 248.99713 -272.453831 
L 248.387182 -272.453844 
L 247.777235 -272.453836 
L 247.167288 -272.453844 
L 246.557341 -272.453837 
L 245.947394 -272.453835 
L 245.337447 -272.453845 
L 244.727499 -272.453832 
L 244.117552 -272.453842 
L 243.507605 -272.453831 
L 242.897658 -272.453835 
L 242.287711 -272.453833 
L 241.677764 -272.453838 
L 241.067816 -272.453833 
L 240.457869 -272.453835 
L 239.847922 -272.453837 
L 239.237975 -272.453835 
L 238.628028 -272.453833 
L 238.018081 -272.453834 
L 237.408133 -272.453835 
L 236.798186 -272.453835 
L 236.188239 -272.45383 
L 235.578292 -272.453836 
L 234.968345 -272.453832 
L 234.358398 -272.453831 
L 233.74845 -272.453835 
L 233.138503 -272.453833 
L 232.528556 -272.453829 
L 231.918609 -272.453829 
L 231.308662 -272.453808 
L 230.698715 -272.428127 
L 230.088767 -272.428132 
L 229.47882 -272.428123 
L 228.868873 -272.428125 
L 228.258926 -272.428123 
L 227.648979 -272.428126 
L 227.039032 -272.428127 
L 226.429084 -272.428134 
L 225.819137 -272.428126 
L 225.20919 -272.428118 
L 224.599243 -272.428124 
L 223.989296 -272.428131 
L 223.379349 -272.428124 
L 222.769401 -272.428126 
L 222.159454 -272.428124 
L 221.549507 -272.428128 
L 220.93956 -272.428123 
L 220.329613 -272.428125 
L 219.719666 -272.428125 
L 219.109718 -272.428126 
L 218.499771 -272.428121 
L 217.889824 -272.428121 
L 217.279877 -272.428129 
L 216.66993 -272.428121 
L 216.059983 -272.428123 
L 215.450035 -272.428125 
L 214.840088 -272.428126 
L 214.230141 -272.428126 
L 213.620194 -272.428126 
L 213.010247 -272.428127 
L 212.4003 -272.428128 
L 211.790352 -272.428123 
L 211.180405 -272.428121 
L 210.570458 -272.42812 
L 209.960511 -272.428126 
L 209.350564 -272.428124 
L 208.740617 -272.428127 
L 208.130669 -272.428123 
L 207.520722 -272.428126 
L 206.910775 -272.428126 
L 206.300828 -272.428126 
L 205.690881 -272.428125 
L 205.080934 -272.428121 
L 204.470986 -272.428124 
L 203.861039 -272.428123 
L 203.251092 -272.428126 
L 202.641145 -272.428124 
L 202.031198 -272.428125 
L 201.421251 -272.428124 
L 200.811303 -272.428124 
L 200.201356 -272.428121 
L 199.591409 -272.42812 
L 198.981462 -272.428121 
L 198.371515 -272.428124 
L 197.761568 -272.42812 
L 197.15162 -272.428129 
L 196.541673 -272.428125 
L 195.931726 -272.428128 
L 195.321779 -272.428126 
L 194.711832 -272.428119 
L 194.101885 -272.428126 
L 193.491937 -272.428118 
L 192.88199 -272.428127 
L 192.272043 -272.428129 
L 191.662096 -272.428122 
L 191.052149 -272.428117 
L 190.442202 -272.428119 
L 189.832254 -272.428119 
L 189.222307 -272.428126 
L 188.61236 -272.428123 
L 188.002413 -272.428138 
L 187.392466 -272.428113 
L 186.782519 -272.428125 
L 186.172571 -272.428122 
L 185.562624 -272.428113 
L 184.952677 -272.428114 
L 184.34273 -272.428125 
L 183.732783 -272.428126 
L 183.122836 -272.428113 
L 182.512888 -272.428118 
L 181.902941 -272.428113 
L 181.292994 -272.42811 
L 180.683047 -272.428102 
L 180.0731 -272.421353 
L 179.463153 -272.421349 
L 178.853205 -272.421353 
L 178.243258 -272.421346 
L 177.633311 -272.421332 
L 177.023364 -272.421346 
L 176.413417 -272.421288 
L 175.80347 -272.405586 
L 175.193522 -272.405599 
L 174.583575 -272.405601 
L 173.973628 -272.405578 
L 173.363681 -272.388594 
L 172.753734 -272.388584 
L 172.143787 -272.388597 
L 171.533839 -272.388586 
L 170.923892 -272.388586 
L 170.313945 -272.388593 
L 169.703998 -272.388567 
L 169.094051 -272.388559 
L 168.484104 -272.388595 
L 167.874156 -272.377284 
L 167.264209 -272.377276 
L 166.654262 -272.37727 
L 166.044315 -272.377281 
L 165.434368 -272.37727 
L 164.824421 -272.370147 
L 164.214473 -272.370147 
L 163.604526 -272.37015 
L 162.994579 -272.370147 
L 162.384632 -272.370146 
L 161.774685 -272.370149 
L 161.164738 -272.37015 
L 160.55479 -272.370149 
L 159.944843 -272.370146 
L 159.334896 -272.370149 
L 158.724949 -272.370149 
L 158.115002 -272.370145 
L 157.505055 -272.370147 
L 156.895107 -272.370148 
L 156.28516 -272.370149 
L 155.675213 -272.370147 
L 155.065266 -272.370147 
L 154.455319 -272.37014 
L 153.845372 -272.370145 
L 153.235424 -272.370149 
L 152.625477 -272.370145 
L 152.01553 -272.370148 
L 151.405583 -272.370142 
L 150.795636 -272.370142 
L 150.185689 -272.370146 
L 149.575741 -272.37015 
L 148.965794 -272.370149 
L 148.355847 -272.370148 
L 147.7459 -272.370147 
L 147.135953 -272.370144 
L 146.526006 -272.370145 
L 145.916058 -272.370144 
L 145.306111 -272.370143 
L 144.696164 -272.370135 
L 144.086217 -272.370145 
L 143.47627 -272.370144 
L 142.866323 -272.370143 
L 142.256375 -272.370145 
L 141.646428 -272.370147 
L 141.036481 -272.370141 
L 140.426534 -272.370141 
L 139.816587 -272.370145 
L 139.20664 -272.370123 
L 138.596692 -272.370132 
L 137.986745 -272.370117 
L 137.376798 -272.37013 
L 136.766851 -272.370115 
L 136.156904 -272.370137 
L 135.546957 -272.365812 
L 134.937009 -272.365817 
L 134.327062 -272.365819 
L 133.717115 -272.365815 
L 133.107168 -272.365817 
L 132.497221 -272.365817 
L 131.887274 -272.365816 
L 131.277326 -272.365815 
L 130.667379 -272.365816 
L 130.057432 -272.365816 
L 129.447485 -272.365815 
L 128.837538 -272.365817 
L 128.227591 -272.365821 
L 127.617643 -272.365817 
L 127.007696 -272.365812 
L 126.397749 -272.365814 
L 125.787802 -272.365818 
L 125.177855 -272.365816 
L 124.567908 -272.365815 
L 123.95796 -272.365814 
L 123.348013 -272.365812 
L 122.738066 -272.365815 
L 122.128119 -272.365816 
L 121.518172 -272.365814 
L 120.908225 -272.365811 
L 120.298277 -272.365817 
L 119.68833 -272.365818 
L 119.078383 -272.365816 
L 118.468436 -272.365813 
L 117.858489 -272.365814 
L 117.248542 -272.365823 
L 116.638594 -272.365819 
L 116.028647 -272.365806 
L 115.4187 -272.365813 
L 114.808753 -272.365814 
L 114.198806 -272.365788 
L 113.588859 -272.365809 
L 112.978911 -272.365802 
L 112.368964 -272.365817 
L 111.759017 -272.365804 
L 111.14907 -272.365817 
L 110.539123 -272.365804 
L 109.929176 -272.365811 
L 109.319228 -272.365814 
L 108.709281 -272.365819 
L 108.099334 -272.365785 
L 107.489387 -272.365814 
L 106.87944 -272.365769 
L 106.269493 -272.272185 
L 105.659545 -272.272194 
L 105.049598 -272.2722 
L 104.439651 -272.149259 
L 103.829704 -272.149259 
L 103.219757 -272.149268 
L 102.60981 -272.149268 
L 101.999862 -272.149262 
L 101.389915 -272.14927 
L 100.779968 -272.149267 
L 100.170021 -272.149259 
L 99.560074 -272.149265 
L 98.950127 -272.149267 
L 98.340179 -272.149264 
L 97.730232 -271.393635 
L 97.120285 -271.39362 
L 96.510338 -271.35066 
L 95.900391 -271.350662 
L 95.290444 -271.350649 
L 94.680496 -271.240015 
L 94.070549 -271.096362 
L 93.460602 -271.09636 
L 92.850655 -271.096357 
L 92.240708 -271.096347 
L 91.63076 -271.096339 
L 91.020813 -271.096341 
L 90.410866 -271.039693 
L 89.800919 -270.937603 
L 89.190972 -270.905215 
L 88.581025 -270.905218 
L 87.971077 -270.905216 
L 87.36113 -270.905216 
L 86.751183 -270.905215 
L 86.141236 -270.905205 
L 85.531289 -270.905213 
L 84.921342 -270.487205 
L 84.311394 -270.487196 
L 83.701447 -270.487155 
L 83.0915 -270.074247 
L 82.481553 -270.074253 
L 81.871606 -270.074212 
L 81.261659 -270.074221 
L 80.651711 -268.05845 
L 80.041764 -266.971887 
L 79.431817 -266.971885 
L 78.82187 -266.50965 
L 78.211923 -266.509579 
L 77.601976 -266.509562 
L 76.992028 -266.313976 
L 76.382081 -266.313911 
L 75.772134 -265.450935 
L 75.162187 -265.450935 
L 74.55224 -264.021826 
L 73.942293 -263.74462 
L 73.332345 -263.744563 
L 72.722398 -263.465706 
L 72.112451 -262.032952 
L 71.502504 -262.032971 
L 70.892557 -262.032962 
z
" style="stroke: #0000ff; stroke-opacity: 0.2"/>
    </defs>
    <g clip-path="url(#pe2ee512626)">
     <use xlink:href="#mb08f815180" x="0" y="289.404426" style="fill: #0000ff; fill-opacity: 0.2; stroke: #0000ff; stroke-opacity: 0.2"/>
    </g>
   </g>
   <g id="matplotlib.axis_1">
    <g id="xtick_1">
     <g id="line2d_1">
      <path d="M 70.892557 255.076926 
L 70.892557 5.596926 
" clip-path="url(#pe2ee512626)" style="fill: none; stroke: #b0b0b0; stroke-width: 0.5; stroke-linecap: square"/>
     </g>
     <g id="line2d_2">
      <defs>
       <path id="m875f68a4ac" d="M 0 0 
L 0 -3 
" style="stroke: #000000; stroke-width: 0.5"/>
      </defs>
      <g>
       <use xlink:href="#m875f68a4ac" x="70.892557" y="255.076926" style="stroke: #000000; stroke-width: 0.5"/>
      </g>
     </g>
     <g id="line2d_3">
      <defs>
       <path id="ma4459c6198" d="M 0 0 
L 0 3 
" style="stroke: #000000; stroke-width: 0.5"/>
      </defs>
      <g>
       <use xlink:href="#ma4459c6198" x="70.892557" y="5.596926" style="stroke: #000000; stroke-width: 0.5"/>
      </g>
     </g>
     <g id="text_1">
      <!-- 0 -->
      <g transform="translate(67.075057 267.695051) scale(0.12 -0.12)">
       <defs>
        <path id="DejaVuSans-30" d="M 2034 4250 
Q 1547 4250 1301 3770 
Q 1056 3291 1056 2328 
Q 1056 1369 1301 889 
Q 1547 409 2034 409 
Q 2525 409 2770 889 
Q 3016 1369 3016 2328 
Q 3016 3291 2770 3770 
Q 2525 4250 2034 4250 
z
M 2034 4750 
Q 2819 4750 3233 4129 
Q 3647 3509 3647 2328 
Q 3647 1150 3233 529 
Q 2819 -91 2034 -91 
Q 1250 -91 836 529 
Q 422 1150 422 2328 
Q 422 3509 836 4129 
Q 1250 4750 2034 4750 
z
" transform="scale(0.015625)"/>
       </defs>
       <use xlink:href="#DejaVuSans-30"/>
      </g>
     </g>
    </g>
    <g id="xtick_2">
     <g id="line2d_4">
      <path d="M 131.887274 255.076926 
L 131.887274 5.596926 
" clip-path="url(#pe2ee512626)" style="fill: none; stroke: #b0b0b0; stroke-width: 0.5; stroke-linecap: square"/>
     </g>
     <g id="line2d_5">
      <g>
       <use xlink:href="#m875f68a4ac" x="131.887274" y="255.076926" style="stroke: #000000; stroke-width: 0.5"/>
      </g>
     </g>
     <g id="line2d_6">
      <g>
       <use xlink:href="#ma4459c6198" x="131.887274" y="5.596926" style="stroke: #000000; stroke-width: 0.5"/>
      </g>
     </g>
     <g id="text_2">
      <!-- 100 -->
      <g transform="translate(120.434774 267.695051) scale(0.12 -0.12)">
       <defs>
        <path id="DejaVuSans-31" d="M 794 531 
L 1825 531 
L 1825 4091 
L 703 3866 
L 703 4441 
L 1819 4666 
L 2450 4666 
L 2450 531 
L 3481 531 
L 3481 0 
L 794 0 
L 794 531 
z
" transform="scale(0.015625)"/>
       </defs>
       <use xlink:href="#DejaVuSans-31"/>
       <use xlink:href="#DejaVuSans-30" x="63.623047"/>
       <use xlink:href="#DejaVuSans-30" x="127.246094"/>
      </g>
     </g>
    </g>
    <g id="xtick_3">
     <g id="line2d_7">
      <path d="M 192.88199 255.076926 
L 192.88199 5.596926 
" clip-path="url(#pe2ee512626)" style="fill: none; stroke: #b0b0b0; stroke-width: 0.5; stroke-linecap: square"/>
     </g>
     <g id="line2d_8">
      <g>
       <use xlink:href="#m875f68a4ac" x="192.88199" y="255.076926" style="stroke: #000000; stroke-width: 0.5"/>
      </g>
     </g>
     <g id="line2d_9">
      <g>
       <use xlink:href="#ma4459c6198" x="192.88199" y="5.596926" style="stroke: #000000; stroke-width: 0.5"/>
      </g>
     </g>
     <g id="text_3">
      <!-- 200 -->
      <g transform="translate(181.42949 267.695051) scale(0.12 -0.12)">
       <defs>
        <path id="DejaVuSans-32" d="M 1228 531 
L 3431 531 
L 3431 0 
L 469 0 
L 469 531 
Q 828 903 1448 1529 
Q 2069 2156 2228 2338 
Q 2531 2678 2651 2914 
Q 2772 3150 2772 3378 
Q 2772 3750 2511 3984 
Q 2250 4219 1831 4219 
Q 1534 4219 1204 4116 
Q 875 4013 500 3803 
L 500 4441 
Q 881 4594 1212 4672 
Q 1544 4750 1819 4750 
Q 2544 4750 2975 4387 
Q 3406 4025 3406 3419 
Q 3406 3131 3298 2873 
Q 3191 2616 2906 2266 
Q 2828 2175 2409 1742 
Q 1991 1309 1228 531 
z
" transform="scale(0.015625)"/>
       </defs>
       <use xlink:href="#DejaVuSans-32"/>
       <use xlink:href="#DejaVuSans-30" x="63.623047"/>
       <use xlink:href="#DejaVuSans-30" x="127.246094"/>
      </g>
     </g>
    </g>
    <g id="xtick_4">
     <g id="line2d_10">
      <path d="M 253.876707 255.076926 
L 253.876707 5.596926 
" clip-path="url(#pe2ee512626)" style="fill: none; stroke: #b0b0b0; stroke-width: 0.5; stroke-linecap: square"/>
     </g>
     <g id="line2d_11">
      <g>
       <use xlink:href="#m875f68a4ac" x="253.876707" y="255.076926" style="stroke: #000000; stroke-width: 0.5"/>
      </g>
     </g>
     <g id="line2d_12">
      <g>
       <use xlink:href="#ma4459c6198" x="253.876707" y="5.596926" style="stroke: #000000; stroke-width: 0.5"/>
      </g>
     </g>
     <g id="text_4">
      <!-- 300 -->
      <g transform="translate(242.424207 267.695051) scale(0.12 -0.12)">
       <defs>
        <path id="DejaVuSans-33" d="M 2597 2516 
Q 3050 2419 3304 2112 
Q 3559 1806 3559 1356 
Q 3559 666 3084 287 
Q 2609 -91 1734 -91 
Q 1441 -91 1130 -33 
Q 819 25 488 141 
L 488 750 
Q 750 597 1062 519 
Q 1375 441 1716 441 
Q 2309 441 2620 675 
Q 2931 909 2931 1356 
Q 2931 1769 2642 2001 
Q 2353 2234 1838 2234 
L 1294 2234 
L 1294 2753 
L 1863 2753 
Q 2328 2753 2575 2939 
Q 2822 3125 2822 3475 
Q 2822 3834 2567 4026 
Q 2313 4219 1838 4219 
Q 1578 4219 1281 4162 
Q 984 4106 628 3988 
L 628 4550 
Q 988 4650 1302 4700 
Q 1616 4750 1894 4750 
Q 2613 4750 3031 4423 
Q 3450 4097 3450 3541 
Q 3450 3153 3228 2886 
Q 3006 2619 2597 2516 
z
" transform="scale(0.015625)"/>
       </defs>
       <use xlink:href="#DejaVuSans-33"/>
       <use xlink:href="#DejaVuSans-30" x="63.623047"/>
       <use xlink:href="#DejaVuSans-30" x="127.246094"/>
      </g>
     </g>
    </g>
    <g id="xtick_5">
     <g id="line2d_13">
      <path d="M 314.871424 255.076926 
L 314.871424 5.596926 
" clip-path="url(#pe2ee512626)" style="fill: none; stroke: #b0b0b0; stroke-width: 0.5; stroke-linecap: square"/>
     </g>
     <g id="line2d_14">
      <g>
       <use xlink:href="#m875f68a4ac" x="314.871424" y="255.076926" style="stroke: #000000; stroke-width: 0.5"/>
      </g>
     </g>
     <g id="line2d_15">
      <g>
       <use xlink:href="#ma4459c6198" x="314.871424" y="5.596926" style="stroke: #000000; stroke-width: 0.5"/>
      </g>
     </g>
     <g id="text_5">
      <!-- 400 -->
      <g transform="translate(303.418924 267.695051) scale(0.12 -0.12)">
       <defs>
        <path id="DejaVuSans-34" d="M 2419 4116 
L 825 1625 
L 2419 1625 
L 2419 4116 
z
M 2253 4666 
L 3047 4666 
L 3047 1625 
L 3713 1625 
L 3713 1100 
L 3047 1100 
L 3047 0 
L 2419 0 
L 2419 1100 
L 313 1100 
L 313 1709 
L 2253 4666 
z
" transform="scale(0.015625)"/>
       </defs>
       <use xlink:href="#DejaVuSans-34"/>
       <use xlink:href="#DejaVuSans-30" x="63.623047"/>
       <use xlink:href="#DejaVuSans-30" x="127.246094"/>
      </g>
     </g>
    </g>
    <g id="xtick_6">
     <g id="line2d_16">
      <path d="M 375.86614 255.076926 
L 375.86614 5.596926 
" clip-path="url(#pe2ee512626)" style="fill: none; stroke: #b0b0b0; stroke-width: 0.5; stroke-linecap: square"/>
     </g>
     <g id="line2d_17">
      <g>
       <use xlink:href="#m875f68a4ac" x="375.86614" y="255.076926" style="stroke: #000000; stroke-width: 0.5"/>
      </g>
     </g>
     <g id="line2d_18">
      <g>
       <use xlink:href="#ma4459c6198" x="375.86614" y="5.596926" style="stroke: #000000; stroke-width: 0.5"/>
      </g>
     </g>
     <g id="text_6">
      <!-- 500 -->
      <g transform="translate(364.41364 267.695051) scale(0.12 -0.12)">
       <defs>
        <path id="DejaVuSans-35" d="M 691 4666 
L 3169 4666 
L 3169 4134 
L 1269 4134 
L 1269 2991 
Q 1406 3038 1543 3061 
Q 1681 3084 1819 3084 
Q 2600 3084 3056 2656 
Q 3513 2228 3513 1497 
Q 3513 744 3044 326 
Q 2575 -91 1722 -91 
Q 1428 -91 1123 -41 
Q 819 9 494 109 
L 494 744 
Q 775 591 1075 516 
Q 1375 441 1709 441 
Q 2250 441 2565 725 
Q 2881 1009 2881 1497 
Q 2881 1984 2565 2268 
Q 2250 2553 1709 2553 
Q 1456 2553 1204 2497 
Q 953 2441 691 2322 
L 691 4666 
z
" transform="scale(0.015625)"/>
       </defs>
       <use xlink:href="#DejaVuSans-35"/>
       <use xlink:href="#DejaVuSans-30" x="63.623047"/>
       <use xlink:href="#DejaVuSans-30" x="127.246094"/>
      </g>
     </g>
    </g>
    <g id="xtick_7">
     <g id="line2d_19">
      <defs>
       <path id="meda6e48b16" d="M 0 0 
L 0 -1.5 
" style="stroke: #000000; stroke-width: 0.5"/>
      </defs>
      <g>
       <use xlink:href="#meda6e48b16" x="58.693613" y="255.076926" style="stroke: #000000; stroke-width: 0.5"/>
      </g>
     </g>
     <g id="line2d_20">
      <defs>
       <path id="m2b716d18d6" d="M 0 0 
L 0 1.5 
" style="stroke: #000000; stroke-width: 0.5"/>
      </defs>
      <g>
       <use xlink:href="#m2b716d18d6" x="58.693613" y="5.596926" style="stroke: #000000; stroke-width: 0.5"/>
      </g>
     </g>
    </g>
    <g id="xtick_8">
     <g id="line2d_21">
      <g>
       <use xlink:href="#meda6e48b16" x="83.0915" y="255.076926" style="stroke: #000000; stroke-width: 0.5"/>
      </g>
     </g>
     <g id="line2d_22">
      <g>
       <use xlink:href="#m2b716d18d6" x="83.0915" y="5.596926" style="stroke: #000000; stroke-width: 0.5"/>
      </g>
     </g>
    </g>
    <g id="xtick_9">
     <g id="line2d_23">
      <g>
       <use xlink:href="#meda6e48b16" x="95.290444" y="255.076926" style="stroke: #000000; stroke-width: 0.5"/>
      </g>
     </g>
     <g id="line2d_24">
      <g>
       <use xlink:href="#m2b716d18d6" x="95.290444" y="5.596926" style="stroke: #000000; stroke-width: 0.5"/>
      </g>
     </g>
    </g>
    <g id="xtick_10">
     <g id="line2d_25">
      <g>
       <use xlink:href="#meda6e48b16" x="107.489387" y="255.076926" style="stroke: #000000; stroke-width: 0.5"/>
      </g>
     </g>
     <g id="line2d_26">
      <g>
       <use xlink:href="#m2b716d18d6" x="107.489387" y="5.596926" style="stroke: #000000; stroke-width: 0.5"/>
      </g>
     </g>
    </g>
    <g id="xtick_11">
     <g id="line2d_27">
      <g>
       <use xlink:href="#meda6e48b16" x="119.68833" y="255.076926" style="stroke: #000000; stroke-width: 0.5"/>
      </g>
     </g>
     <g id="line2d_28">
      <g>
       <use xlink:href="#m2b716d18d6" x="119.68833" y="5.596926" style="stroke: #000000; stroke-width: 0.5"/>
      </g>
     </g>
    </g>
    <g id="xtick_12">
     <g id="line2d_29">
      <g>
       <use xlink:href="#meda6e48b16" x="144.086217" y="255.076926" style="stroke: #000000; stroke-width: 0.5"/>
      </g>
     </g>
     <g id="line2d_30">
      <g>
       <use xlink:href="#m2b716d18d6" x="144.086217" y="5.596926" style="stroke: #000000; stroke-width: 0.5"/>
      </g>
     </g>
    </g>
    <g id="xtick_13">
     <g id="line2d_31">
      <g>
       <use xlink:href="#meda6e48b16" x="156.28516" y="255.076926" style="stroke: #000000; stroke-width: 0.5"/>
      </g>
     </g>
     <g id="line2d_32">
      <g>
       <use xlink:href="#m2b716d18d6" x="156.28516" y="5.596926" style="stroke: #000000; stroke-width: 0.5"/>
      </g>
     </g>
    </g>
    <g id="xtick_14">
     <g id="line2d_33">
      <g>
       <use xlink:href="#meda6e48b16" x="168.484104" y="255.076926" style="stroke: #000000; stroke-width: 0.5"/>
      </g>
     </g>
     <g id="line2d_34">
      <g>
       <use xlink:href="#m2b716d18d6" x="168.484104" y="5.596926" style="stroke: #000000; stroke-width: 0.5"/>
      </g>
     </g>
    </g>
    <g id="xtick_15">
     <g id="line2d_35">
      <g>
       <use xlink:href="#meda6e48b16" x="180.683047" y="255.076926" style="stroke: #000000; stroke-width: 0.5"/>
      </g>
     </g>
     <g id="line2d_36">
      <g>
       <use xlink:href="#m2b716d18d6" x="180.683047" y="5.596926" style="stroke: #000000; stroke-width: 0.5"/>
      </g>
     </g>
    </g>
    <g id="xtick_16">
     <g id="line2d_37">
      <g>
       <use xlink:href="#meda6e48b16" x="205.080934" y="255.076926" style="stroke: #000000; stroke-width: 0.5"/>
      </g>
     </g>
     <g id="line2d_38">
      <g>
       <use xlink:href="#m2b716d18d6" x="205.080934" y="5.596926" style="stroke: #000000; stroke-width: 0.5"/>
      </g>
     </g>
    </g>
    <g id="xtick_17">
     <g id="line2d_39">
      <g>
       <use xlink:href="#meda6e48b16" x="217.279877" y="255.076926" style="stroke: #000000; stroke-width: 0.5"/>
      </g>
     </g>
     <g id="line2d_40">
      <g>
       <use xlink:href="#m2b716d18d6" x="217.279877" y="5.596926" style="stroke: #000000; stroke-width: 0.5"/>
      </g>
     </g>
    </g>
    <g id="xtick_18">
     <g id="line2d_41">
      <g>
       <use xlink:href="#meda6e48b16" x="229.47882" y="255.076926" style="stroke: #000000; stroke-width: 0.5"/>
      </g>
     </g>
     <g id="line2d_42">
      <g>
       <use xlink:href="#m2b716d18d6" x="229.47882" y="5.596926" style="stroke: #000000; stroke-width: 0.5"/>
      </g>
     </g>
    </g>
    <g id="xtick_19">
     <g id="line2d_43">
      <g>
       <use xlink:href="#meda6e48b16" x="241.677764" y="255.076926" style="stroke: #000000; stroke-width: 0.5"/>
      </g>
     </g>
     <g id="line2d_44">
      <g>
       <use xlink:href="#m2b716d18d6" x="241.677764" y="5.596926" style="stroke: #000000; stroke-width: 0.5"/>
      </g>
     </g>
    </g>
    <g id="xtick_20">
     <g id="line2d_45">
      <g>
       <use xlink:href="#meda6e48b16" x="266.07565" y="255.076926" style="stroke: #000000; stroke-width: 0.5"/>
      </g>
     </g>
     <g id="line2d_46">
      <g>
       <use xlink:href="#m2b716d18d6" x="266.07565" y="5.596926" style="stroke: #000000; stroke-width: 0.5"/>
      </g>
     </g>
    </g>
    <g id="xtick_21">
     <g id="line2d_47">
      <g>
       <use xlink:href="#meda6e48b16" x="278.274594" y="255.076926" style="stroke: #000000; stroke-width: 0.5"/>
      </g>
     </g>
     <g id="line2d_48">
      <g>
       <use xlink:href="#m2b716d18d6" x="278.274594" y="5.596926" style="stroke: #000000; stroke-width: 0.5"/>
      </g>
     </g>
    </g>
    <g id="xtick_22">
     <g id="line2d_49">
      <g>
       <use xlink:href="#meda6e48b16" x="290.473537" y="255.076926" style="stroke: #000000; stroke-width: 0.5"/>
      </g>
     </g>
     <g id="line2d_50">
      <g>
       <use xlink:href="#m2b716d18d6" x="290.473537" y="5.596926" style="stroke: #000000; stroke-width: 0.5"/>
      </g>
     </g>
    </g>
    <g id="xtick_23">
     <g id="line2d_51">
      <g>
       <use xlink:href="#meda6e48b16" x="302.67248" y="255.076926" style="stroke: #000000; stroke-width: 0.5"/>
      </g>
     </g>
     <g id="line2d_52">
      <g>
       <use xlink:href="#m2b716d18d6" x="302.67248" y="5.596926" style="stroke: #000000; stroke-width: 0.5"/>
      </g>
     </g>
    </g>
    <g id="xtick_24">
     <g id="line2d_53">
      <g>
       <use xlink:href="#meda6e48b16" x="327.070367" y="255.076926" style="stroke: #000000; stroke-width: 0.5"/>
      </g>
     </g>
     <g id="line2d_54">
      <g>
       <use xlink:href="#m2b716d18d6" x="327.070367" y="5.596926" style="stroke: #000000; stroke-width: 0.5"/>
      </g>
     </g>
    </g>
    <g id="xtick_25">
     <g id="line2d_55">
      <g>
       <use xlink:href="#meda6e48b16" x="339.26931" y="255.076926" style="stroke: #000000; stroke-width: 0.5"/>
      </g>
     </g>
     <g id="line2d_56">
      <g>
       <use xlink:href="#m2b716d18d6" x="339.26931" y="5.596926" style="stroke: #000000; stroke-width: 0.5"/>
      </g>
     </g>
    </g>
    <g id="xtick_26">
     <g id="line2d_57">
      <g>
       <use xlink:href="#meda6e48b16" x="351.468254" y="255.076926" style="stroke: #000000; stroke-width: 0.5"/>
      </g>
     </g>
     <g id="line2d_58">
      <g>
       <use xlink:href="#m2b716d18d6" x="351.468254" y="5.596926" style="stroke: #000000; stroke-width: 0.5"/>
      </g>
     </g>
    </g>
    <g id="xtick_27">
     <g id="line2d_59">
      <g>
       <use xlink:href="#meda6e48b16" x="363.667197" y="255.076926" style="stroke: #000000; stroke-width: 0.5"/>
      </g>
     </g>
     <g id="line2d_60">
      <g>
       <use xlink:href="#m2b716d18d6" x="363.667197" y="5.596926" style="stroke: #000000; stroke-width: 0.5"/>
      </g>
     </g>
    </g>
    <g id="xtick_28">
     <g id="line2d_61">
      <g>
       <use xlink:href="#meda6e48b16" x="388.065084" y="255.076926" style="stroke: #000000; stroke-width: 0.5"/>
      </g>
     </g>
     <g id="line2d_62">
      <g>
       <use xlink:href="#m2b716d18d6" x="388.065084" y="5.596926" style="stroke: #000000; stroke-width: 0.5"/>
      </g>
     </g>
    </g>
    <g id="text_7">
     <!-- Generations -->
     <g transform="translate(186.477188 283.308801) scale(0.12 -0.12)">
      <defs>
       <path id="DejaVuSans-47" d="M 3809 666 
L 3809 1919 
L 2778 1919 
L 2778 2438 
L 4434 2438 
L 4434 434 
Q 4069 175 3628 42 
Q 3188 -91 2688 -91 
Q 1594 -91 976 548 
Q 359 1188 359 2328 
Q 359 3472 976 4111 
Q 1594 4750 2688 4750 
Q 3144 4750 3555 4637 
Q 3966 4525 4313 4306 
L 4313 3634 
Q 3963 3931 3569 4081 
Q 3175 4231 2741 4231 
Q 1884 4231 1454 3753 
Q 1025 3275 1025 2328 
Q 1025 1384 1454 906 
Q 1884 428 2741 428 
Q 3075 428 3337 486 
Q 3600 544 3809 666 
z
" transform="scale(0.015625)"/>
       <path id="DejaVuSans-65" d="M 3597 1894 
L 3597 1613 
L 953 1613 
Q 991 1019 1311 708 
Q 1631 397 2203 397 
Q 2534 397 2845 478 
Q 3156 559 3463 722 
L 3463 178 
Q 3153 47 2828 -22 
Q 2503 -91 2169 -91 
Q 1331 -91 842 396 
Q 353 884 353 1716 
Q 353 2575 817 3079 
Q 1281 3584 2069 3584 
Q 2775 3584 3186 3129 
Q 3597 2675 3597 1894 
z
M 3022 2063 
Q 3016 2534 2758 2815 
Q 2500 3097 2075 3097 
Q 1594 3097 1305 2825 
Q 1016 2553 972 2059 
L 3022 2063 
z
" transform="scale(0.015625)"/>
       <path id="DejaVuSans-6e" d="M 3513 2113 
L 3513 0 
L 2938 0 
L 2938 2094 
Q 2938 2591 2744 2837 
Q 2550 3084 2163 3084 
Q 1697 3084 1428 2787 
Q 1159 2491 1159 1978 
L 1159 0 
L 581 0 
L 581 3500 
L 1159 3500 
L 1159 2956 
Q 1366 3272 1645 3428 
Q 1925 3584 2291 3584 
Q 2894 3584 3203 3211 
Q 3513 2838 3513 2113 
z
" transform="scale(0.015625)"/>
       <path id="DejaVuSans-72" d="M 2631 2963 
Q 2534 3019 2420 3045 
Q 2306 3072 2169 3072 
Q 1681 3072 1420 2755 
Q 1159 2438 1159 1844 
L 1159 0 
L 581 0 
L 581 3500 
L 1159 3500 
L 1159 2956 
Q 1341 3275 1631 3429 
Q 1922 3584 2338 3584 
Q 2397 3584 2469 3576 
Q 2541 3569 2628 3553 
L 2631 2963 
z
" transform="scale(0.015625)"/>
       <path id="DejaVuSans-61" d="M 2194 1759 
Q 1497 1759 1228 1600 
Q 959 1441 959 1056 
Q 959 750 1161 570 
Q 1363 391 1709 391 
Q 2188 391 2477 730 
Q 2766 1069 2766 1631 
L 2766 1759 
L 2194 1759 
z
M 3341 1997 
L 3341 0 
L 2766 0 
L 2766 531 
Q 2569 213 2275 61 
Q 1981 -91 1556 -91 
Q 1019 -91 701 211 
Q 384 513 384 1019 
Q 384 1609 779 1909 
Q 1175 2209 1959 2209 
L 2766 2209 
L 2766 2266 
Q 2766 2663 2505 2880 
Q 2244 3097 1772 3097 
Q 1472 3097 1187 3025 
Q 903 2953 641 2809 
L 641 3341 
Q 956 3463 1253 3523 
Q 1550 3584 1831 3584 
Q 2591 3584 2966 3190 
Q 3341 2797 3341 1997 
z
" transform="scale(0.015625)"/>
       <path id="DejaVuSans-74" d="M 1172 4494 
L 1172 3500 
L 2356 3500 
L 2356 3053 
L 1172 3053 
L 1172 1153 
Q 1172 725 1289 603 
Q 1406 481 1766 481 
L 2356 481 
L 2356 0 
L 1766 0 
Q 1100 0 847 248 
Q 594 497 594 1153 
L 594 3053 
L 172 3053 
L 172 3500 
L 594 3500 
L 594 4494 
L 1172 4494 
z
" transform="scale(0.015625)"/>
       <path id="DejaVuSans-69" d="M 603 3500 
L 1178 3500 
L 1178 0 
L 603 0 
L 603 3500 
z
M 603 4863 
L 1178 4863 
L 1178 4134 
L 603 4134 
L 603 4863 
z
" transform="scale(0.015625)"/>
       <path id="DejaVuSans-6f" d="M 1959 3097 
Q 1497 3097 1228 2736 
Q 959 2375 959 1747 
Q 959 1119 1226 758 
Q 1494 397 1959 397 
Q 2419 397 2687 759 
Q 2956 1122 2956 1747 
Q 2956 2369 2687 2733 
Q 2419 3097 1959 3097 
z
M 1959 3584 
Q 2709 3584 3137 3096 
Q 3566 2609 3566 1747 
Q 3566 888 3137 398 
Q 2709 -91 1959 -91 
Q 1206 -91 779 398 
Q 353 888 353 1747 
Q 353 2609 779 3096 
Q 1206 3584 1959 3584 
z
" transform="scale(0.015625)"/>
       <path id="DejaVuSans-73" d="M 2834 3397 
L 2834 2853 
Q 2591 2978 2328 3040 
Q 2066 3103 1784 3103 
Q 1356 3103 1142 2972 
Q 928 2841 928 2578 
Q 928 2378 1081 2264 
Q 1234 2150 1697 2047 
L 1894 2003 
Q 2506 1872 2764 1633 
Q 3022 1394 3022 966 
Q 3022 478 2636 193 
Q 2250 -91 1575 -91 
Q 1294 -91 989 -36 
Q 684 19 347 128 
L 347 722 
Q 666 556 975 473 
Q 1284 391 1588 391 
Q 1994 391 2212 530 
Q 2431 669 2431 922 
Q 2431 1156 2273 1281 
Q 2116 1406 1581 1522 
L 1381 1569 
Q 847 1681 609 1914 
Q 372 2147 372 2553 
Q 372 3047 722 3315 
Q 1072 3584 1716 3584 
Q 2034 3584 2315 3537 
Q 2597 3491 2834 3397 
z
" transform="scale(0.015625)"/>
      </defs>
      <use xlink:href="#DejaVuSans-47"/>
      <use xlink:href="#DejaVuSans-65" x="77.490234"/>
      <use xlink:href="#DejaVuSans-6e" x="139.013672"/>
      <use xlink:href="#DejaVuSans-65" x="202.392578"/>
      <use xlink:href="#DejaVuSans-72" x="263.916016"/>
      <use xlink:href="#DejaVuSans-61" x="305.029297"/>
      <use xlink:href="#DejaVuSans-74" x="366.308594"/>
      <use xlink:href="#DejaVuSans-69" x="405.517578"/>
      <use xlink:href="#DejaVuSans-6f" x="433.300781"/>
      <use xlink:href="#DejaVuSans-6e" x="494.482422"/>
      <use xlink:href="#DejaVuSans-73" x="557.861328"/>
     </g>
    </g>
   </g>
   <g id="matplotlib.axis_2">
    <g id="ytick_1">
     <g id="line2d_63">
      <path d="M 55.674375 229.897257 
L 390.474375 229.897257 
" clip-path="url(#pe2ee512626)" style="fill: none; stroke: #b0b0b0; stroke-width: 0.5; stroke-linecap: square"/>
     </g>
     <g id="line2d_64">
      <defs>
       <path id="mcd589f4314" d="M 0 0 
L 3 0 
" style="stroke: #000000; stroke-width: 0.5"/>
      </defs>
      <g>
       <use xlink:href="#mcd589f4314" x="55.674375" y="229.897257" style="stroke: #000000; stroke-width: 0.5"/>
      </g>
     </g>
     <g id="line2d_65">
      <defs>
       <path id="m63a6ca48f4" d="M 0 0 
L -3 0 
" style="stroke: #000000; stroke-width: 0.5"/>
      </defs>
      <g>
       <use xlink:href="#m63a6ca48f4" x="390.474375" y="229.897257" style="stroke: #000000; stroke-width: 0.5"/>
      </g>
     </g>
     <g id="text_8">
      <!-- −150 -->
      <g transform="translate(19.21375 234.45632) scale(0.12 -0.12)">
       <defs>
        <path id="DejaVuSans-2212" d="M 678 2272 
L 4684 2272 
L 4684 1741 
L 678 1741 
L 678 2272 
z
" transform="scale(0.015625)"/>
       </defs>
       <use xlink:href="#DejaVuSans-2212"/>
       <use xlink:href="#DejaVuSans-31" x="83.789062"/>
       <use xlink:href="#DejaVuSans-35" x="147.412109"/>
       <use xlink:href="#DejaVuSans-30" x="211.035156"/>
      </g>
     </g>
    </g>
    <g id="ytick_2">
     <g id="line2d_66">
      <path d="M 55.674375 198.220372 
L 390.474375 198.220372 
" clip-path="url(#pe2ee512626)" style="fill: none; stroke: #b0b0b0; stroke-width: 0.5; stroke-linecap: square"/>
     </g>
     <g id="line2d_67">
      <g>
       <use xlink:href="#mcd589f4314" x="55.674375" y="198.220372" style="stroke: #000000; stroke-width: 0.5"/>
      </g>
     </g>
     <g id="line2d_68">
      <g>
       <use xlink:href="#m63a6ca48f4" x="390.474375" y="198.220372" style="stroke: #000000; stroke-width: 0.5"/>
      </g>
     </g>
     <g id="text_9">
      <!-- −125 -->
      <g transform="translate(19.21375 202.779435) scale(0.12 -0.12)">
       <use xlink:href="#DejaVuSans-2212"/>
       <use xlink:href="#DejaVuSans-31" x="83.789062"/>
       <use xlink:href="#DejaVuSans-32" x="147.412109"/>
       <use xlink:href="#DejaVuSans-35" x="211.035156"/>
      </g>
     </g>
    </g>
    <g id="ytick_3">
     <g id="line2d_69">
      <path d="M 55.674375 166.543487 
L 390.474375 166.543487 
" clip-path="url(#pe2ee512626)" style="fill: none; stroke: #b0b0b0; stroke-width: 0.5; stroke-linecap: square"/>
     </g>
     <g id="line2d_70">
      <g>
       <use xlink:href="#mcd589f4314" x="55.674375" y="166.543487" style="stroke: #000000; stroke-width: 0.5"/>
      </g>
     </g>
     <g id="line2d_71">
      <g>
       <use xlink:href="#m63a6ca48f4" x="390.474375" y="166.543487" style="stroke: #000000; stroke-width: 0.5"/>
      </g>
     </g>
     <g id="text_10">
      <!-- −100 -->
      <g transform="translate(19.21375 171.10255) scale(0.12 -0.12)">
       <use xlink:href="#DejaVuSans-2212"/>
       <use xlink:href="#DejaVuSans-31" x="83.789062"/>
       <use xlink:href="#DejaVuSans-30" x="147.412109"/>
       <use xlink:href="#DejaVuSans-30" x="211.035156"/>
      </g>
     </g>
    </g>
    <g id="ytick_4">
     <g id="line2d_72">
      <path d="M 55.674375 134.866602 
L 390.474375 134.866602 
" clip-path="url(#pe2ee512626)" style="fill: none; stroke: #b0b0b0; stroke-width: 0.5; stroke-linecap: square"/>
     </g>
     <g id="line2d_73">
      <g>
       <use xlink:href="#mcd589f4314" x="55.674375" y="134.866602" style="stroke: #000000; stroke-width: 0.5"/>
      </g>
     </g>
     <g id="line2d_74">
      <g>
       <use xlink:href="#m63a6ca48f4" x="390.474375" y="134.866602" style="stroke: #000000; stroke-width: 0.5"/>
      </g>
     </g>
     <g id="text_11">
      <!-- −75 -->
      <g transform="translate(26.84875 139.425665) scale(0.12 -0.12)">
       <defs>
        <path id="DejaVuSans-37" d="M 525 4666 
L 3525 4666 
L 3525 4397 
L 1831 0 
L 1172 0 
L 2766 4134 
L 525 4134 
L 525 4666 
z
" transform="scale(0.015625)"/>
       </defs>
       <use xlink:href="#DejaVuSans-2212"/>
       <use xlink:href="#DejaVuSans-37" x="83.789062"/>
       <use xlink:href="#DejaVuSans-35" x="147.412109"/>
      </g>
     </g>
    </g>
    <g id="ytick_5">
     <g id="line2d_75">
      <path d="M 55.674375 103.189717 
L 390.474375 103.189717 
" clip-path="url(#pe2ee512626)" style="fill: none; stroke: #b0b0b0; stroke-width: 0.5; stroke-linecap: square"/>
     </g>
     <g id="line2d_76">
      <g>
       <use xlink:href="#mcd589f4314" x="55.674375" y="103.189717" style="stroke: #000000; stroke-width: 0.5"/>
      </g>
     </g>
     <g id="line2d_77">
      <g>
       <use xlink:href="#m63a6ca48f4" x="390.474375" y="103.189717" style="stroke: #000000; stroke-width: 0.5"/>
      </g>
     </g>
     <g id="text_12">
      <!-- −50 -->
      <g transform="translate(26.84875 107.74878) scale(0.12 -0.12)">
       <use xlink:href="#DejaVuSans-2212"/>
       <use xlink:href="#DejaVuSans-35" x="83.789062"/>
       <use xlink:href="#DejaVuSans-30" x="147.412109"/>
      </g>
     </g>
    </g>
    <g id="ytick_6">
     <g id="line2d_78">
      <path d="M 55.674375 71.512832 
L 390.474375 71.512832 
" clip-path="url(#pe2ee512626)" style="fill: none; stroke: #b0b0b0; stroke-width: 0.5; stroke-linecap: square"/>
     </g>
     <g id="line2d_79">
      <g>
       <use xlink:href="#mcd589f4314" x="55.674375" y="71.512832" style="stroke: #000000; stroke-width: 0.5"/>
      </g>
     </g>
     <g id="line2d_80">
      <g>
       <use xlink:href="#m63a6ca48f4" x="390.474375" y="71.512832" style="stroke: #000000; stroke-width: 0.5"/>
      </g>
     </g>
     <g id="text_13">
      <!-- −25 -->
      <g transform="translate(26.84875 76.071895) scale(0.12 -0.12)">
       <use xlink:href="#DejaVuSans-2212"/>
       <use xlink:href="#DejaVuSans-32" x="83.789062"/>
       <use xlink:href="#DejaVuSans-35" x="147.412109"/>
      </g>
     </g>
    </g>
    <g id="ytick_7">
     <g id="line2d_81">
      <path d="M 55.674375 39.835947 
L 390.474375 39.835947 
" clip-path="url(#pe2ee512626)" style="fill: none; stroke: #b0b0b0; stroke-width: 0.5; stroke-linecap: square"/>
     </g>
     <g id="line2d_82">
      <g>
       <use xlink:href="#mcd589f4314" x="55.674375" y="39.835947" style="stroke: #000000; stroke-width: 0.5"/>
      </g>
     </g>
     <g id="line2d_83">
      <g>
       <use xlink:href="#m63a6ca48f4" x="390.474375" y="39.835947" style="stroke: #000000; stroke-width: 0.5"/>
      </g>
     </g>
     <g id="text_14">
      <!-- 0 -->
      <g transform="translate(44.539375 44.39501) scale(0.12 -0.12)">
       <use xlink:href="#DejaVuSans-30"/>
      </g>
     </g>
    </g>
    <g id="ytick_8">
     <g id="line2d_84">
      <path d="M 55.674375 8.159062 
L 390.474375 8.159062 
" clip-path="url(#pe2ee512626)" style="fill: none; stroke: #b0b0b0; stroke-width: 0.5; stroke-linecap: square"/>
     </g>
     <g id="line2d_85">
      <g>
       <use xlink:href="#mcd589f4314" x="55.674375" y="8.159062" style="stroke: #000000; stroke-width: 0.5"/>
      </g>
     </g>
     <g id="line2d_86">
      <g>
       <use xlink:href="#m63a6ca48f4" x="390.474375" y="8.159062" style="stroke: #000000; stroke-width: 0.5"/>
      </g>
     </g>
     <g id="text_15">
      <!-- 25 -->
      <g transform="translate(36.904375 12.718125) scale(0.12 -0.12)">
       <use xlink:href="#DejaVuSans-32"/>
       <use xlink:href="#DejaVuSans-35" x="63.623047"/>
      </g>
     </g>
    </g>
    <g id="ytick_9">
     <g id="line2d_87">
      <defs>
       <path id="md11efbdfe6" d="M 0 0 
L 1.5 0 
" style="stroke: #000000; stroke-width: 0.5"/>
      </defs>
      <g>
       <use xlink:href="#md11efbdfe6" x="55.674375" y="248.903388" style="stroke: #000000; stroke-width: 0.5"/>
      </g>
     </g>
     <g id="line2d_88">
      <defs>
       <path id="m023c7a508c" d="M 0 0 
L -1.5 0 
" style="stroke: #000000; stroke-width: 0.5"/>
      </defs>
      <g>
       <use xlink:href="#m023c7a508c" x="390.474375" y="248.903388" style="stroke: #000000; stroke-width: 0.5"/>
      </g>
     </g>
    </g>
    <g id="ytick_10">
     <g id="line2d_89">
      <g>
       <use xlink:href="#md11efbdfe6" x="55.674375" y="242.568011" style="stroke: #000000; stroke-width: 0.5"/>
      </g>
     </g>
     <g id="line2d_90">
      <g>
       <use xlink:href="#m023c7a508c" x="390.474375" y="242.568011" style="stroke: #000000; stroke-width: 0.5"/>
      </g>
     </g>
    </g>
    <g id="ytick_11">
     <g id="line2d_91">
      <g>
       <use xlink:href="#md11efbdfe6" x="55.674375" y="236.232634" style="stroke: #000000; stroke-width: 0.5"/>
      </g>
     </g>
     <g id="line2d_92">
      <g>
       <use xlink:href="#m023c7a508c" x="390.474375" y="236.232634" style="stroke: #000000; stroke-width: 0.5"/>
      </g>
     </g>
    </g>
    <g id="ytick_12">
     <g id="line2d_93">
      <g>
       <use xlink:href="#md11efbdfe6" x="55.674375" y="223.56188" style="stroke: #000000; stroke-width: 0.5"/>
      </g>
     </g>
     <g id="line2d_94">
      <g>
       <use xlink:href="#m023c7a508c" x="390.474375" y="223.56188" style="stroke: #000000; stroke-width: 0.5"/>
      </g>
     </g>
    </g>
    <g id="ytick_13">
     <g id="line2d_95">
      <g>
       <use xlink:href="#md11efbdfe6" x="55.674375" y="217.226503" style="stroke: #000000; stroke-width: 0.5"/>
      </g>
     </g>
     <g id="line2d_96">
      <g>
       <use xlink:href="#m023c7a508c" x="390.474375" y="217.226503" style="stroke: #000000; stroke-width: 0.5"/>
      </g>
     </g>
    </g>
    <g id="ytick_14">
     <g id="line2d_97">
      <g>
       <use xlink:href="#md11efbdfe6" x="55.674375" y="210.891126" style="stroke: #000000; stroke-width: 0.5"/>
      </g>
     </g>
     <g id="line2d_98">
      <g>
       <use xlink:href="#m023c7a508c" x="390.474375" y="210.891126" style="stroke: #000000; stroke-width: 0.5"/>
      </g>
     </g>
    </g>
    <g id="ytick_15">
     <g id="line2d_99">
      <g>
       <use xlink:href="#md11efbdfe6" x="55.674375" y="204.555749" style="stroke: #000000; stroke-width: 0.5"/>
      </g>
     </g>
     <g id="line2d_100">
      <g>
       <use xlink:href="#m023c7a508c" x="390.474375" y="204.555749" style="stroke: #000000; stroke-width: 0.5"/>
      </g>
     </g>
    </g>
    <g id="ytick_16">
     <g id="line2d_101">
      <g>
       <use xlink:href="#md11efbdfe6" x="55.674375" y="191.884995" style="stroke: #000000; stroke-width: 0.5"/>
      </g>
     </g>
     <g id="line2d_102">
      <g>
       <use xlink:href="#m023c7a508c" x="390.474375" y="191.884995" style="stroke: #000000; stroke-width: 0.5"/>
      </g>
     </g>
    </g>
    <g id="ytick_17">
     <g id="line2d_103">
      <g>
       <use xlink:href="#md11efbdfe6" x="55.674375" y="185.549618" style="stroke: #000000; stroke-width: 0.5"/>
      </g>
     </g>
     <g id="line2d_104">
      <g>
       <use xlink:href="#m023c7a508c" x="390.474375" y="185.549618" style="stroke: #000000; stroke-width: 0.5"/>
      </g>
     </g>
    </g>
    <g id="ytick_18">
     <g id="line2d_105">
      <g>
       <use xlink:href="#md11efbdfe6" x="55.674375" y="179.214241" style="stroke: #000000; stroke-width: 0.5"/>
      </g>
     </g>
     <g id="line2d_106">
      <g>
       <use xlink:href="#m023c7a508c" x="390.474375" y="179.214241" style="stroke: #000000; stroke-width: 0.5"/>
      </g>
     </g>
    </g>
    <g id="ytick_19">
     <g id="line2d_107">
      <g>
       <use xlink:href="#md11efbdfe6" x="55.674375" y="172.878864" style="stroke: #000000; stroke-width: 0.5"/>
      </g>
     </g>
     <g id="line2d_108">
      <g>
       <use xlink:href="#m023c7a508c" x="390.474375" y="172.878864" style="stroke: #000000; stroke-width: 0.5"/>
      </g>
     </g>
    </g>
    <g id="ytick_20">
     <g id="line2d_109">
      <g>
       <use xlink:href="#md11efbdfe6" x="55.674375" y="160.20811" style="stroke: #000000; stroke-width: 0.5"/>
      </g>
     </g>
     <g id="line2d_110">
      <g>
       <use xlink:href="#m023c7a508c" x="390.474375" y="160.20811" style="stroke: #000000; stroke-width: 0.5"/>
      </g>
     </g>
    </g>
    <g id="ytick_21">
     <g id="line2d_111">
      <g>
       <use xlink:href="#md11efbdfe6" x="55.674375" y="153.872733" style="stroke: #000000; stroke-width: 0.5"/>
      </g>
     </g>
     <g id="line2d_112">
      <g>
       <use xlink:href="#m023c7a508c" x="390.474375" y="153.872733" style="stroke: #000000; stroke-width: 0.5"/>
      </g>
     </g>
    </g>
    <g id="ytick_22">
     <g id="line2d_113">
      <g>
       <use xlink:href="#md11efbdfe6" x="55.674375" y="147.537356" style="stroke: #000000; stroke-width: 0.5"/>
      </g>
     </g>
     <g id="line2d_114">
      <g>
       <use xlink:href="#m023c7a508c" x="390.474375" y="147.537356" style="stroke: #000000; stroke-width: 0.5"/>
      </g>
     </g>
    </g>
    <g id="ytick_23">
     <g id="line2d_115">
      <g>
       <use xlink:href="#md11efbdfe6" x="55.674375" y="141.201979" style="stroke: #000000; stroke-width: 0.5"/>
      </g>
     </g>
     <g id="line2d_116">
      <g>
       <use xlink:href="#m023c7a508c" x="390.474375" y="141.201979" style="stroke: #000000; stroke-width: 0.5"/>
      </g>
     </g>
    </g>
    <g id="ytick_24">
     <g id="line2d_117">
      <g>
       <use xlink:href="#md11efbdfe6" x="55.674375" y="128.531225" style="stroke: #000000; stroke-width: 0.5"/>
      </g>
     </g>
     <g id="line2d_118">
      <g>
       <use xlink:href="#m023c7a508c" x="390.474375" y="128.531225" style="stroke: #000000; stroke-width: 0.5"/>
      </g>
     </g>
    </g>
    <g id="ytick_25">
     <g id="line2d_119">
      <g>
       <use xlink:href="#md11efbdfe6" x="55.674375" y="122.195848" style="stroke: #000000; stroke-width: 0.5"/>
      </g>
     </g>
     <g id="line2d_120">
      <g>
       <use xlink:href="#m023c7a508c" x="390.474375" y="122.195848" style="stroke: #000000; stroke-width: 0.5"/>
      </g>
     </g>
    </g>
    <g id="ytick_26">
     <g id="line2d_121">
      <g>
       <use xlink:href="#md11efbdfe6" x="55.674375" y="115.860471" style="stroke: #000000; stroke-width: 0.5"/>
      </g>
     </g>
     <g id="line2d_122">
      <g>
       <use xlink:href="#m023c7a508c" x="390.474375" y="115.860471" style="stroke: #000000; stroke-width: 0.5"/>
      </g>
     </g>
    </g>
    <g id="ytick_27">
     <g id="line2d_123">
      <g>
       <use xlink:href="#md11efbdfe6" x="55.674375" y="109.525094" style="stroke: #000000; stroke-width: 0.5"/>
      </g>
     </g>
     <g id="line2d_124">
      <g>
       <use xlink:href="#m023c7a508c" x="390.474375" y="109.525094" style="stroke: #000000; stroke-width: 0.5"/>
      </g>
     </g>
    </g>
    <g id="ytick_28">
     <g id="line2d_125">
      <g>
       <use xlink:href="#md11efbdfe6" x="55.674375" y="96.85434" style="stroke: #000000; stroke-width: 0.5"/>
      </g>
     </g>
     <g id="line2d_126">
      <g>
       <use xlink:href="#m023c7a508c" x="390.474375" y="96.85434" style="stroke: #000000; stroke-width: 0.5"/>
      </g>
     </g>
    </g>
    <g id="ytick_29">
     <g id="line2d_127">
      <g>
       <use xlink:href="#md11efbdfe6" x="55.674375" y="90.518963" style="stroke: #000000; stroke-width: 0.5"/>
      </g>
     </g>
     <g id="line2d_128">
      <g>
       <use xlink:href="#m023c7a508c" x="390.474375" y="90.518963" style="stroke: #000000; stroke-width: 0.5"/>
      </g>
     </g>
    </g>
    <g id="ytick_30">
     <g id="line2d_129">
      <g>
       <use xlink:href="#md11efbdfe6" x="55.674375" y="84.183586" style="stroke: #000000; stroke-width: 0.5"/>
      </g>
     </g>
     <g id="line2d_130">
      <g>
       <use xlink:href="#m023c7a508c" x="390.474375" y="84.183586" style="stroke: #000000; stroke-width: 0.5"/>
      </g>
     </g>
    </g>
    <g id="ytick_31">
     <g id="line2d_131">
      <g>
       <use xlink:href="#md11efbdfe6" x="55.674375" y="77.848209" style="stroke: #000000; stroke-width: 0.5"/>
      </g>
     </g>
     <g id="line2d_132">
      <g>
       <use xlink:href="#m023c7a508c" x="390.474375" y="77.848209" style="stroke: #000000; stroke-width: 0.5"/>
      </g>
     </g>
    </g>
    <g id="ytick_32">
     <g id="line2d_133">
      <g>
       <use xlink:href="#md11efbdfe6" x="55.674375" y="65.177455" style="stroke: #000000; stroke-width: 0.5"/>
      </g>
     </g>
     <g id="line2d_134">
      <g>
       <use xlink:href="#m023c7a508c" x="390.474375" y="65.177455" style="stroke: #000000; stroke-width: 0.5"/>
      </g>
     </g>
    </g>
    <g id="ytick_33">
     <g id="line2d_135">
      <g>
       <use xlink:href="#md11efbdfe6" x="55.674375" y="58.842078" style="stroke: #000000; stroke-width: 0.5"/>
      </g>
     </g>
     <g id="line2d_136">
      <g>
       <use xlink:href="#m023c7a508c" x="390.474375" y="58.842078" style="stroke: #000000; stroke-width: 0.5"/>
      </g>
     </g>
    </g>
    <g id="ytick_34">
     <g id="line2d_137">
      <g>
       <use xlink:href="#md11efbdfe6" x="55.674375" y="52.506701" style="stroke: #000000; stroke-width: 0.5"/>
      </g>
     </g>
     <g id="line2d_138">
      <g>
       <use xlink:href="#m023c7a508c" x="390.474375" y="52.506701" style="stroke: #000000; stroke-width: 0.5"/>
      </g>
     </g>
    </g>
    <g id="ytick_35">
     <g id="line2d_139">
      <g>
       <use xlink:href="#md11efbdfe6" x="55.674375" y="46.171324" style="stroke: #000000; stroke-width: 0.5"/>
      </g>
     </g>
     <g id="line2d_140">
      <g>
       <use xlink:href="#m023c7a508c" x="390.474375" y="46.171324" style="stroke: #000000; stroke-width: 0.5"/>
      </g>
     </g>
    </g>
    <g id="ytick_36">
     <g id="line2d_141">
      <g>
       <use xlink:href="#md11efbdfe6" x="55.674375" y="33.50057" style="stroke: #000000; stroke-width: 0.5"/>
      </g>
     </g>
     <g id="line2d_142">
      <g>
       <use xlink:href="#m023c7a508c" x="390.474375" y="33.50057" style="stroke: #000000; stroke-width: 0.5"/>
      </g>
     </g>
    </g>
    <g id="ytick_37">
     <g id="line2d_143">
      <g>
       <use xlink:href="#md11efbdfe6" x="55.674375" y="27.165193" style="stroke: #000000; stroke-width: 0.5"/>
      </g>
     </g>
     <g id="line2d_144">
      <g>
       <use xlink:href="#m023c7a508c" x="390.474375" y="27.165193" style="stroke: #000000; stroke-width: 0.5"/>
      </g>
     </g>
    </g>
    <g id="ytick_38">
     <g id="line2d_145">
      <g>
       <use xlink:href="#md11efbdfe6" x="55.674375" y="20.829816" style="stroke: #000000; stroke-width: 0.5"/>
      </g>
     </g>
     <g id="line2d_146">
      <g>
       <use xlink:href="#m023c7a508c" x="390.474375" y="20.829816" style="stroke: #000000; stroke-width: 0.5"/>
      </g>
     </g>
    </g>
    <g id="ytick_39">
     <g id="line2d_147">
      <g>
       <use xlink:href="#md11efbdfe6" x="55.674375" y="14.494439" style="stroke: #000000; stroke-width: 0.5"/>
      </g>
     </g>
     <g id="line2d_148">
      <g>
       <use xlink:href="#m023c7a508c" x="390.474375" y="14.494439" style="stroke: #000000; stroke-width: 0.5"/>
      </g>
     </g>
    </g>
    <g id="text_16">
     <!-- Fitness -->
     <g transform="translate(12.718125 151.117551) rotate(-90) scale(0.12 -0.12)">
      <defs>
       <path id="DejaVuSans-46" d="M 628 4666 
L 3309 4666 
L 3309 4134 
L 1259 4134 
L 1259 2759 
L 3109 2759 
L 3109 2228 
L 1259 2228 
L 1259 0 
L 628 0 
L 628 4666 
z
" transform="scale(0.015625)"/>
      </defs>
      <use xlink:href="#DejaVuSans-46"/>
      <use xlink:href="#DejaVuSans-69" x="50.269531"/>
      <use xlink:href="#DejaVuSans-74" x="78.052734"/>
      <use xlink:href="#DejaVuSans-6e" x="117.261719"/>
      <use xlink:href="#DejaVuSans-65" x="180.640625"/>
      <use xlink:href="#DejaVuSans-73" x="242.164062"/>
      <use xlink:href="#DejaVuSans-73" x="294.263672"/>
     </g>
    </g>
   </g>
   <g id="line2d_149">
    <path d="M 70.892557 27.371464 
L 72.112451 27.371474 
L 72.722398 25.93872 
L 73.332345 25.659863 
L 73.942293 25.659806 
L 74.55224 25.3826 
L 75.162187 23.95349 
L 75.772134 23.95349 
L 76.382081 23.090514 
L 76.992028 23.09045 
L 77.601976 22.894863 
L 78.82187 22.894776 
L 79.431817 22.432541 
L 80.041764 22.432538 
L 80.651711 21.345976 
L 81.261659 19.330205 
L 83.0915 19.330179 
L 83.701447 18.91727 
L 84.921342 18.917221 
L 85.531289 18.499213 
L 89.800919 18.466823 
L 91.020813 18.308085 
L 94.070549 18.308064 
L 95.290444 18.053777 
L 97.730232 18.010791 
L 98.340179 17.255162 
L 104.439651 17.255167 
L 105.049598 17.132226 
L 167.874156 17.027142 
L 175.193522 16.998827 
L 375.256193 16.936929 
L 375.256193 16.936929 
" clip-path="url(#pe2ee512626)" style="fill: none; stroke: #000000; stroke-linecap: square"/>
   </g>
   <g id="line2d_150">
    <path d="M 70.892557 158.325769 
L 71.502504 64.868363 
L 72.112451 68.307374 
L 72.722398 54.956164 
L 73.332345 53.372729 
L 73.942293 53.543859 
L 74.55224 53.292838 
L 75.162187 243.736926 
L 75.772134 55.513858 
L 76.382081 47.42335 
L 76.992028 47.426595 
L 77.601976 66.294618 
L 78.211923 54.924112 
L 78.82187 46.748171 
L 80.041764 42.463106 
L 81.261659 42.509586 
L 81.871606 56.23111 
L 82.481553 42.051921 
L 83.0915 40.14097 
L 83.701447 39.792088 
L 84.311394 37.993686 
L 84.921342 36.847631 
L 85.531289 34.348098 
L 86.141236 32.693991 
L 86.751183 32.758757 
L 87.36113 30.441579 
L 87.971077 33.902116 
L 88.581025 33.729363 
L 89.190972 32.388615 
L 90.410866 32.434309 
L 91.020813 33.011563 
L 92.240708 29.898201 
L 92.850655 26.289957 
L 93.460602 24.496861 
L 94.070549 23.941527 
L 94.680496 22.066654 
L 95.290444 23.495631 
L 96.510338 21.360065 
L 97.120285 20.610194 
L 97.730232 21.316284 
L 98.950127 20.621891 
L 99.560074 20.373204 
L 100.170021 19.780362 
L 101.389915 19.471268 
L 102.60981 19.925037 
L 103.219757 19.466876 
L 103.829704 19.844396 
L 104.439651 19.340692 
L 105.049598 21.086511 
L 105.659545 19.287203 
L 106.269493 19.748733 
L 106.87944 19.335924 
L 107.489387 19.461344 
L 108.099334 20.717861 
L 108.709281 20.867537 
L 109.319228 22.475057 
L 109.929176 21.098421 
L 110.539123 20.548492 
L 111.14907 20.86318 
L 111.759017 20.521484 
L 112.368964 19.850745 
L 112.978911 20.240843 
L 114.198806 19.408223 
L 114.808753 19.182375 
L 115.4187 19.615861 
L 116.028647 18.906315 
L 116.638594 18.478794 
L 118.468436 17.882405 
L 119.078383 18.100971 
L 119.68833 18.476533 
L 120.298277 18.275166 
L 120.908225 18.446165 
L 121.518172 18.397148 
L 122.128119 18.552288 
L 122.738066 18.414393 
L 123.348013 18.95988 
L 123.95796 18.19935 
L 125.177855 17.721573 
L 125.787802 17.802503 
L 127.007696 18.379505 
L 127.617643 18.077644 
L 128.227591 17.931984 
L 128.837538 18.328162 
L 129.447485 17.99721 
L 130.057432 18.563475 
L 130.667379 18.113244 
L 131.277326 18.420923 
L 131.887274 18.373827 
L 132.497221 18.004796 
L 133.107168 18.004968 
L 133.717115 17.77479 
L 134.327062 17.702511 
L 134.937009 17.783041 
L 135.546957 18.121378 
L 136.156904 18.60638 
L 137.376798 18.281845 
L 138.596692 17.583662 
L 139.20664 17.712613 
L 139.816587 18.275115 
L 140.426534 17.779986 
L 141.036481 17.868099 
L 141.646428 17.773323 
L 143.47627 18.586191 
L 144.696164 17.910066 
L 145.306111 17.701975 
L 145.916058 17.657929 
L 146.526006 17.785749 
L 147.7459 17.687326 
L 148.355847 17.439509 
L 148.965794 17.515048 
L 149.575741 18.102849 
L 150.185689 17.763114 
L 150.795636 17.987986 
L 151.405583 18.432164 
L 152.01553 17.786842 
L 152.625477 17.806039 
L 153.235424 18.087876 
L 153.845372 18.080195 
L 154.455319 18.350201 
L 155.065266 18.046543 
L 155.675213 18.349718 
L 156.28516 17.921379 
L 156.895107 17.876019 
L 157.505055 17.494804 
L 158.115002 18.996918 
L 158.724949 17.996184 
L 159.334896 18.048018 
L 159.944843 18.82784 
L 160.55479 18.995681 
L 161.164738 18.806453 
L 161.774685 18.735059 
L 162.384632 18.534501 
L 162.994579 17.773229 
L 163.604526 17.812878 
L 164.214473 18.115846 
L 164.824421 22.985071 
L 165.434368 18.428419 
L 166.044315 17.926727 
L 166.654262 18.183094 
L 167.264209 18.899994 
L 167.874156 18.431333 
L 168.484104 18.391473 
L 169.094051 17.764183 
L 169.703998 18.190201 
L 170.313945 17.960563 
L 170.923892 17.928005 
L 171.533839 17.651047 
L 172.753734 17.875606 
L 174.583575 17.880254 
L 175.193522 18.409895 
L 176.413417 17.89838 
L 177.023364 18.257215 
L 177.633311 17.843873 
L 178.243258 18.147537 
L 178.853205 18.076584 
L 179.463153 18.359006 
L 180.683047 18.001657 
L 181.292994 18.128361 
L 182.512888 19.131105 
L 183.122836 18.897657 
L 183.732783 18.273111 
L 184.34273 18.207276 
L 185.562624 18.302732 
L 186.172571 17.88371 
L 187.392466 17.915277 
L 188.002413 17.604056 
L 188.61236 17.907507 
L 189.222307 17.959996 
L 189.832254 17.750362 
L 190.442202 17.94066 
L 191.662096 17.394147 
L 192.272043 17.632387 
L 192.88199 17.529555 
L 193.491937 17.925032 
L 194.101885 17.727278 
L 194.711832 17.76412 
L 195.321779 17.922477 
L 195.931726 17.951104 
L 197.15162 18.361774 
L 198.371515 18.261935 
L 198.981462 17.886839 
L 199.591409 17.889331 
L 200.201356 17.769861 
L 201.421251 18.007981 
L 202.031198 17.992504 
L 203.251092 17.476165 
L 203.861039 17.944223 
L 205.690881 17.99329 
L 206.300828 18.131103 
L 206.910775 17.900278 
L 207.520722 17.923145 
L 208.130669 18.599061 
L 208.740617 18.679734 
L 209.350564 18.931639 
L 209.960511 18.43101 
L 210.570458 18.21263 
L 211.790352 18.400859 
L 212.4003 17.951853 
L 213.010247 18.182632 
L 213.620194 17.817346 
L 214.840088 17.819596 
L 215.450035 18.251837 
L 216.059983 17.505811 
L 217.889824 17.27269 
L 218.499771 17.370225 
L 219.719666 18.055963 
L 220.329613 18.121165 
L 220.93956 17.864982 
L 222.159454 17.819753 
L 222.769401 18.086815 
L 223.379349 17.932763 
L 223.989296 17.603108 
L 224.599243 17.805533 
L 225.20919 17.671493 
L 225.819137 17.679145 
L 226.429084 17.934459 
L 227.039032 18.020972 
L 227.648979 17.524759 
L 228.258926 17.497139 
L 228.868873 17.650147 
L 229.47882 17.572165 
L 230.698715 17.106409 
L 231.308662 17.160867 
L 231.918609 17.394014 
L 232.528556 18.021337 
L 233.138503 17.371015 
L 233.74845 17.607621 
L 234.968345 18.516343 
L 236.798186 18.608567 
L 237.408133 18.138964 
L 238.018081 17.498773 
L 238.628028 17.284772 
L 239.847922 17.886924 
L 240.457869 17.557288 
L 241.067816 17.884039 
L 241.677764 17.686783 
L 242.287711 17.797871 
L 242.897658 18.543087 
L 243.507605 17.918112 
L 244.117552 17.684526 
L 244.727499 17.804434 
L 245.337447 17.723278 
L 245.947394 17.442838 
L 246.557341 17.592586 
L 247.167288 17.973233 
L 247.777235 17.733403 
L 248.99713 17.85721 
L 249.607077 18.517262 
L 250.217024 18.074371 
L 250.826971 18.132387 
L 251.436918 17.756335 
L 252.046865 17.544328 
L 252.656813 17.778242 
L 253.26676 17.303547 
L 254.486654 17.704371 
L 255.096601 17.656104 
L 255.706548 17.404098 
L 256.316496 17.954068 
L 256.926443 17.872042 
L 257.53639 18.214554 
L 258.146337 18.372663 
L 258.756284 18.124045 
L 259.366231 17.659313 
L 259.976179 17.701957 
L 261.196073 17.472615 
L 261.80602 17.765722 
L 262.415967 17.853234 
L 263.025914 18.401959 
L 263.635862 18.005352 
L 264.245809 17.942318 
L 264.855756 17.518434 
L 265.465703 17.814807 
L 266.07565 17.961228 
L 266.685597 18.784396 
L 267.295545 19.359842 
L 268.515439 19.124151 
L 269.125386 18.863488 
L 269.735333 19.342936 
L 270.34528 18.30011 
L 270.955228 18.837247 
L 271.565175 19.225225 
L 273.395016 17.907886 
L 274.004963 17.650847 
L 274.614911 17.924771 
L 275.224858 17.70342 
L 275.834805 17.733913 
L 276.444752 17.413339 
L 277.054699 17.257574 
L 277.664646 17.673745 
L 278.274594 17.532375 
L 278.884541 18.408566 
L 279.494488 18.416423 
L 280.104435 18.312273 
L 280.714382 18.061307 
L 281.324329 18.240791 
L 282.544224 18.156829 
L 284.374065 17.70231 
L 284.984012 18.223791 
L 285.59396 18.203717 
L 286.203907 17.852176 
L 286.813854 18.735886 
L 287.423801 18.635619 
L 288.033748 18.708964 
L 288.643695 18.419872 
L 289.253643 17.834667 
L 289.86359 17.588119 
L 290.473537 20.873408 
L 291.083484 18.738084 
L 291.693431 19.093879 
L 292.303378 18.278916 
L 292.913326 18.188807 
L 294.13322 18.4006 
L 294.743167 18.36822 
L 295.353114 17.925402 
L 296.573009 18.255651 
L 297.792903 18.409715 
L 298.40285 18.86281 
L 300.842639 17.630059 
L 301.452586 17.375853 
L 302.67248 17.461793 
L 303.282427 17.418101 
L 303.892375 17.735404 
L 304.502322 18.255992 
L 306.332163 18.289913 
L 306.94211 18.165761 
L 307.552058 18.391065 
L 308.162005 17.944192 
L 308.771952 18.187724 
L 309.381899 18.561535 
L 309.991846 17.874955 
L 310.601793 18.064027 
L 311.211741 17.695815 
L 312.431635 17.626047 
L 313.041582 17.929265 
L 313.651529 17.484374 
L 314.261476 18.682258 
L 314.871424 18.737594 
L 315.481371 19.048088 
L 316.091318 19.131258 
L 316.701265 18.069415 
L 317.311212 18.263591 
L 317.921159 17.66965 
L 318.531107 17.450196 
L 319.141054 17.396419 
L 319.751001 17.75725 
L 322.19079 17.819759 
L 322.800737 17.476312 
L 323.410684 17.494614 
L 324.020631 18.010639 
L 324.630578 17.764062 
L 325.240525 18.426163 
L 325.850473 18.806494 
L 327.070367 18.554638 
L 327.680314 19.07552 
L 328.290261 19.186562 
L 328.900208 19.173262 
L 329.510156 19.701963 
L 330.120103 18.158534 
L 330.73005 17.713742 
L 331.339997 18.048684 
L 331.949944 18.174475 
L 332.559891 17.820154 
L 333.169839 17.959141 
L 333.779786 17.806464 
L 334.389733 17.402143 
L 334.99968 17.393817 
L 335.609627 17.929683 
L 336.219574 17.772803 
L 336.829522 17.4192 
L 337.439469 17.357062 
L 338.049416 17.658256 
L 339.26931 17.777748 
L 340.489205 17.573794 
L 341.709099 17.347736 
L 342.928993 17.611639 
L 343.53894 18.00494 
L 344.758835 17.523756 
L 345.368782 17.692117 
L 345.978729 17.296924 
L 347.198623 17.643342 
L 347.808571 17.516174 
L 349.028465 17.736135 
L 350.248359 17.194127 
L 350.858306 17.674823 
L 351.468254 17.49477 
L 352.078201 17.472312 
L 352.688148 18.600556 
L 353.298095 17.970185 
L 353.908042 17.780181 
L 354.51799 17.411656 
L 355.127937 17.209839 
L 355.737884 17.192631 
L 356.347831 17.349746 
L 356.957778 18.096291 
L 358.177673 18.299545 
L 358.78762 17.961121 
L 359.397567 17.335141 
L 360.007514 17.648719 
L 360.617461 17.710688 
L 361.837356 17.533364 
L 362.447303 17.738721 
L 363.667197 17.851982 
L 364.277144 17.533273 
L 364.887091 17.426116 
L 365.497039 17.656162 
L 366.106986 17.519621 
L 367.936827 17.632131 
L 368.546774 18.297105 
L 369.156722 18.201596 
L 369.766669 17.824478 
L 370.376616 18.385966 
L 370.986563 18.001213 
L 371.59651 18.654602 
L 372.816405 19.050205 
L 373.426352 18.78929 
L 374.036299 19.760446 
L 374.646246 18.489186 
L 375.256193 18.020246 
L 375.256193 18.020246 
" clip-path="url(#pe2ee512626)" style="fill: none; stroke-dasharray: 3.7,1.6; stroke-dashoffset: 0; stroke: #000000"/>
   </g>
   <g id="patch_3">
    <path d="M 55.674375 255.076926 
L 55.674375 5.596926 
" style="fill: none; stroke: #000000; stroke-width: 0.5; stroke-linejoin: miter; stroke-linecap: square"/>
   </g>
   <g id="patch_4">
    <path d="M 390.474375 255.076926 
L 390.474375 5.596926 
" style="fill: none; stroke: #000000; stroke-width: 0.5; stroke-linejoin: miter; stroke-linecap: square"/>
   </g>
   <g id="patch_5">
    <path d="M 55.674375 255.076926 
L 390.474375 255.076926 
" style="fill: none; stroke: #000000; stroke-width: 0.5; stroke-linejoin: miter; stroke-linecap: square"/>
   </g>
   <g id="patch_6">
    <path d="M 55.674375 5.596926 
L 390.474375 5.596926 
" style="fill: none; stroke: #000000; stroke-width: 0.5; stroke-linejoin: miter; stroke-linecap: square"/>
   </g>
   <g id="legend_1">
    <g id="patch_7">
     <path d="M 264.268125 249.076926 
L 382.074375 249.076926 
Q 384.474375 249.076926 384.474375 246.676926 
L 384.474375 195.035676 
Q 384.474375 192.635676 382.074375 192.635676 
L 264.268125 192.635676 
Q 261.868125 192.635676 261.868125 195.035676 
L 261.868125 246.676926 
Q 261.868125 249.076926 264.268125 249.076926 
z
" style="fill: #ffffff; opacity: 0.8; stroke: #cccccc; stroke-linejoin: miter"/>
    </g>
    <g id="line2d_151">
     <path d="M 266.668125 202.353801 
L 278.668125 202.353801 
L 290.668125 202.353801 
" style="fill: none; stroke: #000000; stroke-linecap: square"/>
    </g>
    <g id="text_17">
     <!-- Max fitness -->
     <g transform="translate(300.268125 206.553801) scale(0.12 -0.12)">
      <defs>
       <path id="DejaVuSans-4d" d="M 628 4666 
L 1569 4666 
L 2759 1491 
L 3956 4666 
L 4897 4666 
L 4897 0 
L 4281 0 
L 4281 4097 
L 3078 897 
L 2444 897 
L 1241 4097 
L 1241 0 
L 628 0 
L 628 4666 
z
" transform="scale(0.015625)"/>
       <path id="DejaVuSans-78" d="M 3513 3500 
L 2247 1797 
L 3578 0 
L 2900 0 
L 1881 1375 
L 863 0 
L 184 0 
L 1544 1831 
L 300 3500 
L 978 3500 
L 1906 2253 
L 2834 3500 
L 3513 3500 
z
" transform="scale(0.015625)"/>
       <path id="DejaVuSans-20" transform="scale(0.015625)"/>
       <path id="DejaVuSans-66" d="M 2375 4863 
L 2375 4384 
L 1825 4384 
Q 1516 4384 1395 4259 
Q 1275 4134 1275 3809 
L 1275 3500 
L 2222 3500 
L 2222 3053 
L 1275 3053 
L 1275 0 
L 697 0 
L 697 3053 
L 147 3053 
L 147 3500 
L 697 3500 
L 697 3744 
Q 697 4328 969 4595 
Q 1241 4863 1831 4863 
L 2375 4863 
z
" transform="scale(0.015625)"/>
      </defs>
      <use xlink:href="#DejaVuSans-4d"/>
      <use xlink:href="#DejaVuSans-61" x="86.279297"/>
      <use xlink:href="#DejaVuSans-78" x="147.558594"/>
      <use xlink:href="#DejaVuSans-20" x="206.738281"/>
      <use xlink:href="#DejaVuSans-66" x="238.525391"/>
      <use xlink:href="#DejaVuSans-69" x="273.730469"/>
      <use xlink:href="#DejaVuSans-74" x="301.513672"/>
      <use xlink:href="#DejaVuSans-6e" x="340.722656"/>
      <use xlink:href="#DejaVuSans-65" x="404.101562"/>
      <use xlink:href="#DejaVuSans-73" x="465.625"/>
      <use xlink:href="#DejaVuSans-73" x="517.724609"/>
     </g>
    </g>
    <g id="patch_8">
     <path d="M 266.668125 224.167551 
L 290.668125 224.167551 
L 290.668125 215.767551 
L 266.668125 215.767551 
z
" style="fill: #0000ff; fill-opacity: 0.2; stroke: #0000ff; stroke-opacity: 0.2; stroke-linejoin: miter"/>
    </g>
    <g id="text_18">
     <!-- Top 90% -->
     <g transform="translate(300.268125 224.167551) scale(0.12 -0.12)">
      <defs>
       <path id="DejaVuSans-54" d="M -19 4666 
L 3928 4666 
L 3928 4134 
L 2272 4134 
L 2272 0 
L 1638 0 
L 1638 4134 
L -19 4134 
L -19 4666 
z
" transform="scale(0.015625)"/>
       <path id="DejaVuSans-70" d="M 1159 525 
L 1159 -1331 
L 581 -1331 
L 581 3500 
L 1159 3500 
L 1159 2969 
Q 1341 3281 1617 3432 
Q 1894 3584 2278 3584 
Q 2916 3584 3314 3078 
Q 3713 2572 3713 1747 
Q 3713 922 3314 415 
Q 2916 -91 2278 -91 
Q 1894 -91 1617 61 
Q 1341 213 1159 525 
z
M 3116 1747 
Q 3116 2381 2855 2742 
Q 2594 3103 2138 3103 
Q 1681 3103 1420 2742 
Q 1159 2381 1159 1747 
Q 1159 1113 1420 752 
Q 1681 391 2138 391 
Q 2594 391 2855 752 
Q 3116 1113 3116 1747 
z
" transform="scale(0.015625)"/>
       <path id="DejaVuSans-39" d="M 703 97 
L 703 672 
Q 941 559 1184 500 
Q 1428 441 1663 441 
Q 2288 441 2617 861 
Q 2947 1281 2994 2138 
Q 2813 1869 2534 1725 
Q 2256 1581 1919 1581 
Q 1219 1581 811 2004 
Q 403 2428 403 3163 
Q 403 3881 828 4315 
Q 1253 4750 1959 4750 
Q 2769 4750 3195 4129 
Q 3622 3509 3622 2328 
Q 3622 1225 3098 567 
Q 2575 -91 1691 -91 
Q 1453 -91 1209 -44 
Q 966 3 703 97 
z
M 1959 2075 
Q 2384 2075 2632 2365 
Q 2881 2656 2881 3163 
Q 2881 3666 2632 3958 
Q 2384 4250 1959 4250 
Q 1534 4250 1286 3958 
Q 1038 3666 1038 3163 
Q 1038 2656 1286 2365 
Q 1534 2075 1959 2075 
z
" transform="scale(0.015625)"/>
       <path id="DejaVuSans-25" d="M 4653 2053 
Q 4381 2053 4226 1822 
Q 4072 1591 4072 1178 
Q 4072 772 4226 539 
Q 4381 306 4653 306 
Q 4919 306 5073 539 
Q 5228 772 5228 1178 
Q 5228 1588 5073 1820 
Q 4919 2053 4653 2053 
z
M 4653 2450 
Q 5147 2450 5437 2106 
Q 5728 1763 5728 1178 
Q 5728 594 5436 251 
Q 5144 -91 4653 -91 
Q 4153 -91 3862 251 
Q 3572 594 3572 1178 
Q 3572 1766 3864 2108 
Q 4156 2450 4653 2450 
z
M 1428 4353 
Q 1159 4353 1004 4120 
Q 850 3888 850 3481 
Q 850 3069 1003 2837 
Q 1156 2606 1428 2606 
Q 1700 2606 1854 2837 
Q 2009 3069 2009 3481 
Q 2009 3884 1853 4118 
Q 1697 4353 1428 4353 
z
M 4250 4750 
L 4750 4750 
L 1831 -91 
L 1331 -91 
L 4250 4750 
z
M 1428 4750 
Q 1922 4750 2215 4408 
Q 2509 4066 2509 3481 
Q 2509 2891 2217 2550 
Q 1925 2209 1428 2209 
Q 931 2209 642 2551 
Q 353 2894 353 3481 
Q 353 4063 643 4406 
Q 934 4750 1428 4750 
z
" transform="scale(0.015625)"/>
      </defs>
      <use xlink:href="#DejaVuSans-54"/>
      <use xlink:href="#DejaVuSans-6f" x="44.083984"/>
      <use xlink:href="#DejaVuSans-70" x="105.265625"/>
      <use xlink:href="#DejaVuSans-20" x="168.742188"/>
      <use xlink:href="#DejaVuSans-39" x="200.529297"/>
      <use xlink:href="#DejaVuSans-30" x="264.152344"/>
      <use xlink:href="#DejaVuSans-25" x="327.775391"/>
     </g>
    </g>
    <g id="line2d_152">
     <path d="M 266.668125 237.581301 
L 278.668125 237.581301 
L 290.668125 237.581301 
" style="fill: none; stroke-dasharray: 3.7,1.6; stroke-dashoffset: 0; stroke: #000000"/>
    </g>
    <g id="text_19">
     <!-- Fitness mean -->
     <g transform="translate(300.268125 241.781301) scale(0.12 -0.12)">
      <defs>
       <path id="DejaVuSans-6d" d="M 3328 2828 
Q 3544 3216 3844 3400 
Q 4144 3584 4550 3584 
Q 5097 3584 5394 3201 
Q 5691 2819 5691 2113 
L 5691 0 
L 5113 0 
L 5113 2094 
Q 5113 2597 4934 2840 
Q 4756 3084 4391 3084 
Q 3944 3084 3684 2787 
Q 3425 2491 3425 1978 
L 3425 0 
L 2847 0 
L 2847 2094 
Q 2847 2600 2669 2842 
Q 2491 3084 2119 3084 
Q 1678 3084 1418 2786 
Q 1159 2488 1159 1978 
L 1159 0 
L 581 0 
L 581 3500 
L 1159 3500 
L 1159 2956 
Q 1356 3278 1631 3431 
Q 1906 3584 2284 3584 
Q 2666 3584 2933 3390 
Q 3200 3197 3328 2828 
z
" transform="scale(0.015625)"/>
      </defs>
      <use xlink:href="#DejaVuSans-46"/>
      <use xlink:href="#DejaVuSans-69" x="50.269531"/>
      <use xlink:href="#DejaVuSans-74" x="78.052734"/>
      <use xlink:href="#DejaVuSans-6e" x="117.261719"/>
      <use xlink:href="#DejaVuSans-65" x="180.640625"/>
      <use xlink:href="#DejaVuSans-73" x="242.164062"/>
      <use xlink:href="#DejaVuSans-73" x="294.263672"/>
      <use xlink:href="#DejaVuSans-20" x="346.363281"/>
      <use xlink:href="#DejaVuSans-6d" x="378.150391"/>
      <use xlink:href="#DejaVuSans-65" x="475.5625"/>
      <use xlink:href="#DejaVuSans-61" x="537.085938"/>
      <use xlink:href="#DejaVuSans-6e" x="598.365234"/>
     </g>
    </g>
   </g>
  </g>
 </g>
 <defs>
  <clipPath id="pe2ee512626">
   <rect x="55.674375" y="5.596926" width="334.8" height="249.48"/>
  </clipPath>
 </defs>
</svg>
