<?xml version="1.0" encoding="utf-8" standalone="no"?>
<!DOCTYPE svg PUBLIC "-//W3C//DTD SVG 1.1//EN"
  "http://www.w3.org/Graphics/SVG/1.1/DTD/svg11.dtd">
<svg xmlns:xlink="http://www.w3.org/1999/xlink" width="386.439375pt" height="287.4075pt" viewBox="0 0 386.439375 287.4075" xmlns="http://www.w3.org/2000/svg" version="1.1">
 <metadata>
  <rdf:RDF xmlns:dc="http://purl.org/dc/elements/1.1/" xmlns:cc="http://creativecommons.org/ns#" xmlns:rdf="http://www.w3.org/1999/02/22-rdf-syntax-ns#">
   <cc:Work>
    <dc:type rdf:resource="http://purl.org/dc/dcmitype/StillImage"/>
    <dc:date>2024-06-04T10:28:21.788888</dc:date>
    <dc:format>image/svg+xml</dc:format>
    <dc:creator>
     <cc:Agent>
      <dc:title>Matplotlib v3.9.0, https://matplotlib.org/</dc:title>
     </cc:Agent>
    </dc:creator>
   </cc:Work>
  </rdf:RDF>
 </metadata>
 <defs>
  <style type="text/css">*{stroke-linejoin: round; stroke-linecap: butt}</style>
 </defs>
 <g id="figure_1">
  <g id="patch_1">
   <path d="M 0 287.4075 
L 386.439375 287.4075 
L 386.439375 0 
L 0 0 
z
" style="fill: #ffffff"/>
  </g>
  <g id="axes_1">
   <g id="patch_2">
    <path d="M 48.039375 253.08 
L 382.839375 253.08 
L 382.839375 3.6 
L 48.039375 3.6 
z
" style="fill: #ffffff"/>
   </g>
   <g id="PolyCollection_1">
    <defs>
     <path id="ma13c73ff19" d="M 63.257557 -239.445002 
L 63.257557 -45.6675 
L 63.867504 -74.296991 
L 64.477451 -54.727593 
L 65.087398 -76.121818 
L 65.697345 -113.936878 
L 66.307293 -113.936878 
L 66.91724 -127.449388 
L 67.527187 -131.918948 
L 68.137134 -105.189447 
L 68.747081 -106.164478 
L 69.357028 -121.945881 
L 69.966976 -121.945881 
L 70.576923 -88.057369 
L 71.18687 -132.706731 
L 71.796817 -142.466574 
L 72.406764 -137.200139 
L 73.016711 -130.147058 
L 73.626659 -137.23158 
L 74.236606 -119.951339 
L 74.846553 -115.807647 
L 75.4565 -136.841301 
L 76.066447 -139.641739 
L 76.676394 -144.26264 
L 77.286342 -136.300951 
L 77.896289 -146.156676 
L 78.506236 -150.920862 
L 79.116183 -150.168041 
L 79.72613 -147.618969 
L 80.336077 -152.410291 
L 80.946025 -163.052131 
L 81.555972 -208.193012 
L 82.165919 -206.658844 
L 82.775866 -163.593937 
L 83.385813 -163.992858 
L 83.99576 -212.028404 
L 84.605708 -208.00408 
L 85.215655 -219.657588 
L 85.825602 -218.265194 
L 86.435549 -219.457283 
L 87.045496 -244.519393 
L 87.655444 -223.008973 
L 88.265391 -241.899184 
L 88.875338 -218.257014 
L 89.485285 -245.196336 
L 90.095232 -220.769277 
L 90.705179 -218.609412 
L 91.315127 -220.561032 
L 91.925074 -243.37283 
L 92.535021 -221.878547 
L 93.144968 -221.877624 
L 93.754915 -246.263347 
L 94.364862 -249.666165 
L 94.97481 -230.229329 
L 95.584757 -247.216169 
L 96.194704 -240.206789 
L 96.804651 -248.7425 
L 97.414598 -220.272992 
L 98.024545 -253.939752 
L 98.634493 -254.833574 
L 99.24444 -256.062772 
L 99.854387 -252.830482 
L 100.464334 -252.427924 
L 101.074281 -256.356138 
L 101.684228 -256.413011 
L 102.294176 -256.645193 
L 102.904123 -257.703431 
L 103.51407 -260.069888 
L 104.124017 -255.469812 
L 104.733964 -226.942325 
L 105.343911 -254.644906 
L 105.953859 -255.06737 
L 106.563806 -253.467051 
L 107.173753 -252.532016 
L 107.7837 -256.053742 
L 108.393647 -257.810564 
L 109.003594 -256.939757 
L 109.613542 -259.177537 
L 110.223489 -258.916656 
L 110.833436 -258.857868 
L 111.443383 -258.91665 
L 112.05333 -257.55088 
L 112.663277 -258.444999 
L 113.273225 -257.80953 
L 113.883172 -258.392166 
L 114.493119 -258.445046 
L 115.103066 -257.118731 
L 115.713013 -258.162147 
L 116.32296 -258.532147 
L 116.932908 -257.830597 
L 117.542855 -259.679738 
L 118.152802 -257.785162 
L 118.762749 -259.679699 
L 119.372696 -259.330123 
L 119.982643 -258.119586 
L 120.592591 -258.067451 
L 121.202538 -258.067435 
L 121.812485 -256.837064 
L 122.422432 -259.049965 
L 123.032379 -259.994232 
L 123.642326 -265.515512 
L 124.252274 -264.575861 
L 124.862221 -260.090071 
L 125.472168 -260.743079 
L 126.082115 -260.743097 
L 126.692062 -261.278551 
L 127.302009 -257.758772 
L 127.911957 -259.269266 
L 128.521904 -259.830341 
L 129.131851 -259.87666 
L 129.741798 -259.546749 
L 130.351745 -256.599104 
L 130.961692 -253.142268 
L 131.57164 -256.50891 
L 132.181587 -257.172951 
L 132.791534 -256.508916 
L 133.401481 -257.172944 
L 134.011428 -259.936454 
L 134.621375 -262.831805 
L 135.231323 -262.831869 
L 135.84127 -261.657758 
L 136.451217 -261.657777 
L 137.061164 -261.65777 
L 137.671111 -262.240722 
L 138.281058 -260.96172 
L 138.891006 -261.471793 
L 139.500953 -261.471817 
L 140.1109 -260.264264 
L 140.720847 -262.917111 
L 141.330794 -262.917135 
L 141.940741 -262.917127 
L 142.550689 -262.738502 
L 143.160636 -264.875187 
L 143.770583 -262.177933 
L 144.38053 -258.980498 
L 144.990477 -258.980481 
L 145.600424 -259.185666 
L 146.210372 -259.128732 
L 146.820319 -259.839396 
L 147.430266 -262.642868 
L 148.040213 -261.833746 
L 148.65016 -261.0231 
L 149.260107 -259.736765 
L 149.870055 -262.337238 
L 150.480002 -264.326166 
L 151.089949 -261.775946 
L 151.699896 -262.446496 
L 152.309843 -261.223779 
L 152.91979 -261.213526 
L 153.529738 -261.420969 
L 154.139685 -260.143595 
L 154.749632 -260.126087 
L 155.359579 -261.075482 
L 155.969526 -259.70597 
L 156.579473 -258.854998 
L 157.189421 -261.452274 
L 157.799368 -264.015468 
L 158.409315 -263.805922 
L 159.019262 -266.164659 
L 159.629209 -266.278366 
L 160.239156 -265.941359 
L 160.849104 -260.808051 
L 161.459051 -260.808076 
L 162.068998 -260.96239 
L 162.678945 -262.338431 
L 163.288892 -255.775303 
L 163.898839 -263.253604 
L 164.508787 -263.057255 
L 165.118734 -263.728802 
L 165.728681 -261.987596 
L 166.338628 -258.444342 
L 166.948575 -261.080332 
L 167.558522 -260.208061 
L 168.16847 -263.327388 
L 168.778417 -262.038113 
L 169.388364 -262.270691 
L 169.998311 -260.079456 
L 170.608258 -260.079459 
L 171.218205 -261.459689 
L 171.828153 -259.853096 
L 172.4381 -258.410756 
L 173.048047 -261.074813 
L 173.657994 -261.083135 
L 174.267941 -263.849962 
L 174.877888 -263.718359 
L 175.487836 -265.077431 
L 176.097783 -260.092166 
L 176.70773 -259.230509 
L 177.317677 -260.00279 
L 177.927624 -258.642146 
L 178.537571 -258.642157 
L 179.147519 -259.230513 
L 179.757466 -258.251185 
L 180.367413 -256.644361 
L 180.97736 -254.053044 
L 181.587307 -257.845315 
L 182.197254 -258.651724 
L 182.807202 -257.974002 
L 183.417149 -261.016694 
L 184.027096 -254.175208 
L 184.637043 -257.607795 
L 185.24699 -258.975992 
L 185.856937 -260.810741 
L 186.466885 -261.490721 
L 187.076832 -262.44351 
L 187.686779 -261.343893 
L 188.296726 -259.575188 
L 188.906673 -262.443524 
L 189.51662 -260.966375 
L 190.126568 -261.052739 
L 190.736515 -257.761588 
L 191.346462 -259.67056 
L 191.956409 -252.082204 
L 192.566356 -261.578661 
L 193.176303 -261.333705 
L 193.786251 -260.817364 
L 194.396198 -260.813616 
L 195.006145 -261.994369 
L 195.616092 -263.151001 
L 196.226039 -263.409276 
L 196.835986 -264.688898 
L 197.445934 -262.684233 
L 198.055881 -262.895591 
L 198.665828 -263.504463 
L 199.275775 -261.438511 
L 199.885722 -263.042565 
L 200.495669 -263.019058 
L 201.105617 -263.96134 
L 201.715564 -261.499184 
L 202.325511 -260.349436 
L 202.935458 -262.200488 
L 203.545405 -261.499166 
L 204.155352 -262.514261 
L 204.7653 -262.57963 
L 205.375247 -259.527861 
L 205.985194 -262.283929 
L 206.595141 -261.237186 
L 207.205088 -263.605152 
L 207.815035 -260.199851 
L 208.424983 -258.152465 
L 209.03493 -257.865564 
L 209.644877 -260.166535 
L 210.254824 -262.581286 
L 210.864771 -262.370751 
L 211.474718 -261.443992 
L 212.084666 -260.569739 
L 212.694613 -253.543184 
L 213.30456 -253.543216 
L 213.914507 -259.214308 
L 214.524454 -261.846876 
L 215.134401 -262.209684 
L 215.744349 -261.352642 
L 216.354296 -262.209663 
L 216.964243 -257.5068 
L 217.57419 -262.209661 
L 218.184137 -262.209712 
L 218.794084 -261.039745 
L 219.404032 -257.309763 
L 220.013979 -260.851784 
L 220.623926 -259.91966 
L 221.233873 -262.209662 
L 221.84382 -257.931844 
L 222.453767 -261.702181 
L 223.063715 -265.145733 
L 223.673662 -265.250016 
L 224.283609 -262.525671 
L 224.893556 -266.573502 
L 225.503503 -261.702181 
L 226.11345 -260.842736 
L 226.723398 -260.901295 
L 227.333345 -260.822901 
L 227.943292 -260.409221 
L 228.553239 -260.409205 
L 229.163186 -261.63127 
L 229.773133 -259.302913 
L 230.383081 -257.751078 
L 230.993028 -258.713142 
L 231.602975 -259.579122 
L 232.212922 -258.096842 
L 232.822869 -260.449699 
L 233.432816 -261.835846 
L 234.042764 -260.851804 
L 234.652711 -259.68517 
L 235.262658 -258.209169 
L 235.872605 -261.292254 
L 236.482552 -259.727965 
L 237.092499 -261.161105 
L 237.702447 -261.402964 
L 238.312394 -260.974427 
L 238.922341 -260.440403 
L 239.532288 -260.637216 
L 240.142235 -261.140383 
L 240.752182 -261.470667 
L 241.36213 -261.082608 
L 241.972077 -261.635209 
L 242.582024 -258.136185 
L 243.191971 -261.25481 
L 243.801918 -259.843443 
L 244.411865 -259.843427 
L 245.021813 -257.677074 
L 245.63176 -259.224171 
L 246.241707 -261.303777 
L 246.851654 -263.103745 
L 247.461601 -260.884214 
L 248.071548 -260.884201 
L 248.681496 -267.425124 
L 249.291443 -267.82218 
L 249.90139 -267.8221 
L 250.511337 -267.717593 
L 251.121284 -262.872358 
L 251.731231 -262.481845 
L 252.341179 -261.221716 
L 252.951126 -262.129961 
L 253.561073 -262.164708 
L 254.17102 -262.164657 
L 254.780967 -262.419301 
L 255.390914 -259.482762 
L 256.000862 -258.820134 
L 256.610809 -258.589432 
L 257.220756 -258.8707 
L 257.830703 -258.273997 
L 258.44065 -256.666673 
L 259.050597 -260.373054 
L 259.660545 -262.636052 
L 260.270492 -263.623464 
L 260.880439 -263.416263 
L 261.490386 -261.488152 
L 262.100333 -260.893533 
L 262.71028 -259.396317 
L 263.320228 -261.2345 
L 263.930175 -263.62345 
L 264.540122 -264.397197 
L 265.150069 -258.78343 
L 265.760016 -259.936557 
L 266.369963 -255.286781 
L 266.979911 -254.979983 
L 267.589858 -255.238777 
L 268.199805 -257.243035 
L 268.809752 -258.058327 
L 269.419699 -262.787324 
L 270.029646 -264.918523 
L 270.639594 -269.202615 
L 271.249541 -268.824069 
L 271.859488 -265.135188 
L 272.469435 -266.211018 
L 273.079382 -262.588159 
L 273.689329 -263.613804 
L 274.299277 -263.192646 
L 274.909224 -262.955846 
L 275.519171 -265.175644 
L 276.129118 -266.211002 
L 276.739065 -267.250032 
L 277.349012 -269.303099 
L 277.95896 -269.558136 
L 278.568907 -263.248641 
L 279.178854 -263.829419 
L 279.788801 -259.347343 
L 280.398748 -252.823784 
L 281.008695 -261.650298 
L 281.618643 -260.411979 
L 282.22859 -263.301541 
L 282.838537 -260.061243 
L 283.448484 -262.890246 
L 284.058431 -265.857857 
L 284.668378 -266.765713 
L 285.278326 -266.947846 
L 285.888273 -265.90568 
L 286.49822 -266.765678 
L 287.108167 -266.765696 
L 287.718114 -267.131258 
L 288.328061 -267.200691 
L 288.938009 -267.200657 
L 289.547956 -264.032657 
L 290.157903 -261.792098 
L 290.76785 -264.730286 
L 291.377797 -259.622587 
L 291.987744 -255.673662 
L 292.597692 -257.341284 
L 293.207639 -259.544799 
L 293.817586 -260.81052 
L 294.427533 -260.974206 
L 295.03748 -261.599207 
L 295.647427 -260.75923 
L 296.257375 -260.759235 
L 296.867322 -259.739629 
L 297.477269 -261.366281 
L 298.087216 -260.253503 
L 298.697163 -263.059963 
L 299.30711 -263.509023 
L 299.917058 -265.621981 
L 300.527005 -263.509022 
L 301.136952 -263.337686 
L 301.746899 -265.827859 
L 302.356846 -266.912376 
L 302.966793 -263.820658 
L 303.576741 -261.574581 
L 304.186688 -263.412023 
L 304.796635 -259.740757 
L 305.406582 -263.142893 
L 306.016529 -262.244766 
L 306.626476 -262.69119 
L 307.236424 -262.307175 
L 307.846371 -261.985177 
L 308.456318 -258.960685 
L 309.066265 -261.915327 
L 309.676212 -258.960683 
L 310.286159 -262.537937 
L 310.896107 -263.069202 
L 311.506054 -265.322573 
L 312.116001 -264.650189 
L 312.725948 -264.999194 
L 313.335895 -263.776599 
L 313.945842 -264.747624 
L 314.55579 -266.997349 
L 315.165737 -266.99736 
L 315.775684 -267.740258 
L 316.385631 -267.204237 
L 316.995578 -268.330244 
L 317.605525 -269.243055 
L 318.215473 -268.999512 
L 318.82542 -270.742682 
L 319.435367 -265.991397 
L 320.045314 -262.460435 
L 320.655261 -264.732691 
L 321.265208 -261.713429 
L 321.875156 -267.260014 
L 322.485103 -268.999504 
L 323.09505 -263.521103 
L 323.704997 -267.578923 
L 324.314944 -263.307976 
L 324.924891 -262.720147 
L 325.534839 -259.372818 
L 326.144786 -261.846771 
L 326.754733 -259.737921 
L 327.36468 -261.044178 
L 327.974627 -260.693801 
L 328.584574 -263.77813 
L 329.194522 -263.854773 
L 329.804469 -265.538785 
L 330.414416 -268.423141 
L 331.024363 -268.671916 
L 331.63431 -265.211119 
L 332.244257 -264.101347 
L 332.854205 -260.3084 
L 333.464152 -265.514846 
L 334.074099 -266.004553 
L 334.684046 -266.420179 
L 335.293993 -270.276461 
L 335.90394 -269.440778 
L 336.513888 -268.651343 
L 337.123835 -269.579261 
L 337.733782 -269.571868 
L 338.343729 -266.244691 
L 338.953676 -265.832583 
L 339.563623 -265.163644 
L 340.173571 -266.923836 
L 340.783518 -267.779349 
L 341.393465 -269.160001 
L 342.003412 -269.065052 
L 342.613359 -269.147206 
L 343.223306 -267.946605 
L 343.833254 -261.620593 
L 344.443201 -263.9619 
L 345.053148 -265.316307 
L 345.663095 -269.226554 
L 346.273042 -267.565252 
L 346.88299 -267.565244 
L 347.492937 -265.316297 
L 348.102884 -265.316329 
L 348.712831 -262.295507 
L 349.322778 -266.11392 
L 349.932725 -265.316318 
L 350.542673 -265.316336 
L 351.15262 -265.316312 
L 351.762567 -264.223951 
L 352.372514 -261.114013 
L 352.982461 -258.574103 
L 353.592408 -252.133018 
L 354.202356 -257.630128 
L 354.812303 -261.450378 
L 355.42225 -263.839172 
L 356.032197 -260.503283 
L 356.642144 -265.534943 
L 357.252091 -262.245825 
L 357.862039 -262.902982 
L 358.471986 -261.508833 
L 359.081933 -258.264769 
L 359.69188 -258.264778 
L 360.301827 -256.763133 
L 360.911774 -258.264771 
L 361.521722 -258.689772 
L 362.131669 -261.355475 
L 362.741616 -261.320044 
L 363.351563 -261.549926 
L 363.96151 -262.172862 
L 364.571457 -260.153619 
L 365.181405 -262.440979 
L 365.791352 -263.695412 
L 366.401299 -263.349006 
L 367.011246 -265.993244 
L 367.621193 -262.850372 
L 367.621193 -272.467497 
L 367.621193 -272.467497 
L 367.011246 -272.467439 
L 366.401299 -272.467449 
L 365.791352 -272.467475 
L 365.181405 -272.46748 
L 364.571457 -272.46746 
L 363.96151 -272.467475 
L 363.351563 -272.467495 
L 362.741616 -272.467486 
L 362.131669 -272.467473 
L 361.521722 -272.467481 
L 360.911774 -272.467483 
L 360.301827 -272.467493 
L 359.69188 -272.467493 
L 359.081933 -272.467474 
L 358.471986 -272.4675 
L 357.862039 -272.467484 
L 357.252091 -272.467449 
L 356.642144 -272.467446 
L 356.032197 -272.467478 
L 355.42225 -272.467485 
L 354.812303 -272.467492 
L 354.202356 -272.467464 
L 353.592408 -272.467495 
L 352.982461 -272.467444 
L 352.372514 -272.467495 
L 351.762567 -272.467467 
L 351.15262 -272.46745 
L 350.542673 -272.467459 
L 349.932725 -272.467482 
L 349.322778 -272.467451 
L 348.712831 -272.46749 
L 348.102884 -272.467422 
L 347.492937 -272.467483 
L 346.88299 -272.46748 
L 346.273042 -272.467463 
L 345.663095 -272.467467 
L 345.053148 -272.467474 
L 344.443201 -272.467483 
L 343.833254 -272.467474 
L 343.223306 -272.46749 
L 342.613359 -272.467465 
L 342.003412 -272.467419 
L 341.393465 -272.467487 
L 340.783518 -272.467481 
L 340.173571 -272.467462 
L 339.563623 -272.46749 
L 338.953676 -272.467475 
L 338.343729 -272.467474 
L 337.733782 -272.467459 
L 337.123835 -272.467487 
L 336.513888 -272.467439 
L 335.90394 -272.467374 
L 335.293993 -272.467387 
L 334.684046 -272.467367 
L 334.074099 -272.467387 
L 333.464152 -272.467353 
L 332.854205 -272.459958 
L 332.244257 -272.459966 
L 331.63431 -272.459959 
L 331.024363 -272.459963 
L 330.414416 -272.459956 
L 329.804469 -272.459975 
L 329.194522 -272.459977 
L 328.584574 -272.459968 
L 327.974627 -272.459973 
L 327.36468 -272.459958 
L 326.754733 -272.459949 
L 326.144786 -272.459912 
L 325.534839 -272.459966 
L 324.924891 -272.4599 
L 324.314944 -272.459953 
L 323.704997 -272.459904 
L 323.09505 -272.45992 
L 322.485103 -272.459931 
L 321.875156 -272.459913 
L 321.265208 -272.459927 
L 320.655261 -272.459854 
L 320.045314 -272.459837 
L 319.435367 -272.459906 
L 318.82542 -272.459867 
L 318.215473 -272.459708 
L 317.605525 -272.447304 
L 316.995578 -272.447284 
L 316.385631 -272.4473 
L 315.775684 -272.447287 
L 315.165737 -272.447295 
L 314.55579 -272.447292 
L 313.945842 -272.447257 
L 313.335895 -272.447264 
L 312.725948 -272.447255 
L 312.116001 -272.447297 
L 311.506054 -272.446315 
L 310.896107 -272.446314 
L 310.286159 -272.446326 
L 309.676212 -272.446318 
L 309.066265 -272.446328 
L 308.456318 -272.446313 
L 307.846371 -272.446313 
L 307.236424 -272.446287 
L 306.626476 -272.446293 
L 306.016529 -272.446286 
L 305.406582 -272.446325 
L 304.796635 -272.446315 
L 304.186688 -272.446289 
L 303.576741 -272.43138 
L 302.966793 -272.431389 
L 302.356846 -272.431414 
L 301.746899 -272.43139 
L 301.136952 -272.431418 
L 300.527005 -272.431376 
L 299.917058 -272.431403 
L 299.30711 -272.431419 
L 298.697163 -272.431401 
L 298.087216 -272.431391 
L 297.477269 -272.431379 
L 296.867322 -272.431394 
L 296.257375 -272.431388 
L 295.647427 -272.431433 
L 295.03748 -272.431375 
L 294.427533 -272.431378 
L 293.817586 -272.431377 
L 293.207639 -272.431412 
L 292.597692 -272.43139 
L 291.987744 -272.431372 
L 291.377797 -272.431399 
L 290.76785 -272.431371 
L 290.157903 -272.43138 
L 289.547956 -272.431382 
L 288.938009 -272.431405 
L 288.328061 -272.431395 
L 287.718114 -272.431392 
L 287.108167 -272.431414 
L 286.49822 -272.431377 
L 285.888273 -272.431379 
L 285.278326 -272.431379 
L 284.668378 -272.431374 
L 284.058431 -272.431352 
L 283.448484 -272.431355 
L 282.838537 -272.343959 
L 282.22859 -272.343959 
L 281.618643 -272.34396 
L 281.008695 -272.343954 
L 280.398748 -272.343923 
L 279.788801 -272.343904 
L 279.178854 -272.34392 
L 278.568907 -272.324338 
L 277.95896 -272.324358 
L 277.349012 -272.32435 
L 276.739065 -272.324338 
L 276.129118 -272.324358 
L 275.519171 -272.324349 
L 274.909224 -272.324354 
L 274.299277 -272.324312 
L 273.689329 -272.324317 
L 273.079382 -272.324269 
L 272.469435 -272.324236 
L 271.859488 -272.181656 
L 271.249541 -272.046369 
L 270.639594 -272.046334 
L 270.029646 -272.04634 
L 269.419699 -272.046356 
L 268.809752 -272.046374 
L 268.199805 -272.046365 
L 267.589858 -272.046347 
L 266.979911 -272.046332 
L 266.369963 -272.04634 
L 265.760016 -272.046318 
L 265.150069 -272.046336 
L 264.540122 -272.046297 
L 263.930175 -272.046332 
L 263.320228 -272.046307 
L 262.71028 -272.046282 
L 262.100333 -272.046321 
L 261.490386 -272.046362 
L 260.880439 -272.046291 
L 260.270492 -272.046304 
L 259.660545 -272.046261 
L 259.050597 -272.001564 
L 258.44065 -272.001559 
L 257.830703 -272.001558 
L 257.220756 -272.001569 
L 256.610809 -272.001544 
L 256.000862 -272.00155 
L 255.390914 -272.001574 
L 254.780967 -272.001547 
L 254.17102 -272.001572 
L 253.561073 -272.001529 
L 252.951126 -271.898599 
L 252.341179 -271.898545 
L 251.731231 -271.898538 
L 251.121284 -271.898527 
L 250.511337 -271.898527 
L 249.90139 -271.898518 
L 249.291443 -271.898502 
L 248.681496 -271.670157 
L 248.071548 -271.670142 
L 247.461601 -271.670138 
L 246.851654 -271.670146 
L 246.241707 -271.670145 
L 245.63176 -271.670147 
L 245.021813 -271.670138 
L 244.411865 -271.670147 
L 243.801918 -271.670147 
L 243.191971 -271.670143 
L 242.582024 -271.670149 
L 241.972077 -271.670148 
L 241.36213 -271.670142 
L 240.752182 -271.67014 
L 240.142235 -271.670147 
L 239.532288 -271.670128 
L 238.922341 -271.670145 
L 238.312394 -271.670144 
L 237.702447 -271.670132 
L 237.092499 -271.670135 
L 236.482552 -271.67013 
L 235.872605 -271.670136 
L 235.262658 -271.670134 
L 234.652711 -271.670103 
L 234.042764 -271.670122 
L 233.432816 -271.624275 
L 232.822869 -271.624287 
L 232.212922 -271.624284 
L 231.602975 -271.624287 
L 230.993028 -271.62429 
L 230.383081 -271.624285 
L 229.773133 -271.624286 
L 229.163186 -271.624285 
L 228.553239 -271.624283 
L 227.943292 -271.624288 
L 227.333345 -271.62428 
L 226.723398 -271.624293 
L 226.11345 -271.624288 
L 225.503503 -271.624289 
L 224.893556 -271.624284 
L 224.283609 -271.624286 
L 223.673662 -271.624287 
L 223.063715 -271.624285 
L 222.453767 -271.624287 
L 221.84382 -271.624288 
L 221.233873 -271.624291 
L 220.623926 -271.624285 
L 220.013979 -271.624289 
L 219.404032 -271.62429 
L 218.794084 -271.62429 
L 218.184137 -271.624274 
L 217.57419 -271.624287 
L 216.964243 -271.624276 
L 216.354296 -271.624255 
L 215.744349 -271.624246 
L 215.134401 -271.624284 
L 214.524454 -271.620538 
L 213.914507 -271.620534 
L 213.30456 -271.620526 
L 212.694613 -271.620533 
L 212.084666 -271.620538 
L 211.474718 -271.620532 
L 210.864771 -271.620528 
L 210.254824 -271.620534 
L 209.644877 -271.620538 
L 209.03493 -271.620531 
L 208.424983 -271.620538 
L 207.815035 -271.620528 
L 207.205088 -271.620535 
L 206.595141 -271.620531 
L 205.985194 -271.620539 
L 205.375247 -271.620534 
L 204.7653 -271.620536 
L 204.155352 -271.620528 
L 203.545405 -271.620533 
L 202.935458 -271.620532 
L 202.325511 -271.620533 
L 201.715564 -271.620536 
L 201.105617 -271.620535 
L 200.495669 -271.620533 
L 199.885722 -271.620527 
L 199.275775 -271.620534 
L 198.665828 -271.620529 
L 198.055881 -271.620533 
L 197.445934 -271.620526 
L 196.835986 -271.620534 
L 196.226039 -271.620538 
L 195.616092 -271.620523 
L 195.006145 -271.620536 
L 194.396198 -271.620534 
L 193.786251 -271.620527 
L 193.176303 -271.620535 
L 192.566356 -271.620531 
L 191.956409 -271.620514 
L 191.346462 -271.62049 
L 190.736515 -271.620505 
L 190.126568 -271.571451 
L 189.51662 -271.571409 
L 188.906673 -271.571405 
L 188.296726 -271.571409 
L 187.686779 -271.571405 
L 187.076832 -271.571404 
L 186.466885 -271.571447 
L 185.856937 -271.571405 
L 185.24699 -271.571472 
L 184.637043 -271.571416 
L 184.027096 -271.571409 
L 183.417149 -271.571403 
L 182.807202 -271.57141 
L 182.197254 -271.571453 
L 181.587307 -271.57141 
L 180.97736 -271.571475 
L 180.367413 -271.571395 
L 179.757466 -271.571399 
L 179.147519 -271.571461 
L 178.537571 -271.571467 
L 177.927624 -271.571433 
L 177.317677 -271.571396 
L 176.70773 -271.571392 
L 176.097783 -271.571443 
L 175.487836 -271.571489 
L 174.877888 -271.571409 
L 174.267941 -271.571466 
L 173.657994 -271.571404 
L 173.048047 -271.571491 
L 172.4381 -271.57147 
L 171.828153 -271.571399 
L 171.218205 -271.571398 
L 170.608258 -271.571467 
L 169.998311 -271.571405 
L 169.388364 -271.571436 
L 168.778417 -271.571396 
L 168.16847 -271.571404 
L 167.558522 -271.571403 
L 166.948575 -271.571401 
L 166.338628 -271.571477 
L 165.728681 -271.571393 
L 165.118734 -271.57139 
L 164.508787 -271.571399 
L 163.898839 -271.571389 
L 163.288892 -271.57136 
L 162.678945 -271.57138 
L 162.068998 -271.571382 
L 161.459051 -271.571348 
L 160.849104 -271.545222 
L 160.239156 -271.545224 
L 159.629209 -271.545228 
L 159.019262 -271.545231 
L 158.409315 -271.545231 
L 157.799368 -271.545229 
L 157.189421 -271.545218 
L 156.579473 -271.545188 
L 155.969526 -271.545197 
L 155.359579 -271.545161 
L 154.749632 -271.126302 
L 154.139685 -271.126272 
L 153.529738 -271.126297 
L 152.91979 -270.962349 
L 152.309843 -270.943946 
L 151.699896 -270.943958 
L 151.089949 -270.943964 
L 150.480002 -270.943958 
L 149.870055 -270.943954 
L 149.260107 -270.943841 
L 148.65016 -270.943952 
L 148.040213 -270.938479 
L 147.430266 -270.938494 
L 146.820319 -270.938326 
L 146.210372 -270.874212 
L 145.600424 -270.874224 
L 144.990477 -270.874185 
L 144.38053 -270.874221 
L 143.770583 -270.650746 
L 143.160636 -270.650742 
L 142.550689 -270.650617 
L 141.940741 -270.650721 
L 141.330794 -270.352808 
L 140.720847 -270.352819 
L 140.1109 -270.352795 
L 139.500953 -270.352796 
L 138.891006 -269.890289 
L 138.281058 -269.890294 
L 137.671111 -269.890279 
L 137.061164 -269.890271 
L 136.451217 -269.890268 
L 135.84127 -269.890291 
L 135.231323 -269.890242 
L 134.621375 -269.8903 
L 134.011428 -269.416284 
L 133.401481 -269.416281 
L 132.791534 -269.416297 
L 132.181587 -269.168941 
L 131.57164 -269.168941 
L 130.961692 -269.168933 
L 130.351745 -269.168941 
L 129.741798 -269.168954 
L 129.131851 -269.168949 
L 128.521904 -269.168946 
L 127.911957 -269.168936 
L 127.302009 -269.16893 
L 126.692062 -269.168927 
L 126.082115 -269.168928 
L 125.472168 -269.168931 
L 124.862221 -269.168929 
L 124.252274 -269.16891 
L 123.642326 -269.168931 
L 123.032379 -269.168915 
L 122.422432 -269.16892 
L 121.812485 -269.16892 
L 121.202538 -269.168914 
L 120.592591 -269.16893 
L 119.982643 -269.16889 
L 119.372696 -269.168765 
L 118.762749 -269.168921 
L 118.152802 -268.485208 
L 117.542855 -268.485109 
L 116.932908 -268.485113 
L 116.32296 -268.485114 
L 115.713013 -268.4851 
L 115.103066 -268.477686 
L 114.493119 -268.477666 
L 113.883172 -268.477672 
L 113.273225 -268.477649 
L 112.663277 -268.477675 
L 112.05333 -268.477664 
L 111.443383 -268.140552 
L 110.833436 -268.140593 
L 110.223489 -268.14056 
L 109.613542 -268.140541 
L 109.003594 -268.140561 
L 108.393647 -268.140572 
L 107.7837 -268.140569 
L 107.173753 -268.140569 
L 106.563806 -268.140564 
L 105.953859 -268.140544 
L 105.343911 -268.140527 
L 104.733964 -268.140554 
L 104.124017 -268.140583 
L 103.51407 -268.1406 
L 102.904123 -268.140528 
L 102.294176 -268.14051 
L 101.684228 -268.140522 
L 101.074281 -268.140504 
L 100.464334 -268.140499 
L 99.854387 -268.140519 
L 99.24444 -268.140502 
L 98.634493 -268.140508 
L 98.024545 -267.923046 
L 97.414598 -267.92304 
L 96.804651 -267.923049 
L 96.194704 -267.92304 
L 95.584757 -267.923045 
L 94.97481 -267.923049 
L 94.364862 -267.923035 
L 93.754915 -267.923043 
L 93.144968 -267.923034 
L 92.535021 -267.923043 
L 91.925074 -267.923028 
L 91.315127 -267.923026 
L 90.705179 -267.923032 
L 90.095232 -267.922876 
L 89.485285 -267.659957 
L 88.875338 -267.659942 
L 88.265391 -267.40186 
L 87.655444 -267.401861 
L 87.045496 -267.401859 
L 86.435549 -267.401857 
L 85.825602 -266.858301 
L 85.215655 -265.696118 
L 84.605708 -265.379661 
L 83.99576 -265.379671 
L 83.385813 -265.37964 
L 82.775866 -265.379571 
L 82.165919 -265.379607 
L 81.555972 -256.477648 
L 80.946025 -256.477158 
L 80.336077 -256.446023 
L 79.72613 -256.445993 
L 79.116183 -256.445979 
L 78.506236 -256.445992 
L 77.896289 -256.445999 
L 77.286342 -256.445944 
L 76.676394 -255.821932 
L 76.066447 -255.821969 
L 75.4565 -255.821818 
L 74.846553 -255.822166 
L 74.236606 -255.821922 
L 73.626659 -255.821939 
L 73.016711 -255.821634 
L 72.406764 -249.603299 
L 71.796817 -249.603256 
L 71.18687 -249.603294 
L 70.576923 -249.603279 
L 69.966976 -249.603147 
L 69.357028 -249.603275 
L 68.747081 -249.603343 
L 68.137134 -248.793934 
L 67.527187 -246.34914 
L 66.91724 -243.300418 
L 66.307293 -242.930413 
L 65.697345 -242.929766 
L 65.087398 -242.930067 
L 64.477451 -242.931134 
L 63.867504 -242.93116 
L 63.257557 -239.445002 
z
" style="stroke: #0000ff; stroke-opacity: 0.2"/>
    </defs>
    <g clip-path="url(#p4eb91b9e4a)">
     <use xlink:href="#ma13c73ff19" x="0" y="287.4075" style="fill: #0000ff; fill-opacity: 0.2; stroke: #0000ff; stroke-opacity: 0.2"/>
    </g>
   </g>
   <g id="matplotlib.axis_1">
    <g id="xtick_1">
     <g id="line2d_1">
      <path d="M 63.257557 253.08 
L 63.257557 3.6 
" clip-path="url(#p4eb91b9e4a)" style="fill: none; stroke: #b0b0b0; stroke-width: 0.5; stroke-linecap: square"/>
     </g>
     <g id="line2d_2">
      <defs>
       <path id="md813469cc3" d="M 0 0 
L 0 -3 
" style="stroke: #000000; stroke-width: 0.5"/>
      </defs>
      <g>
       <use xlink:href="#md813469cc3" x="63.257557" y="253.08" style="stroke: #000000; stroke-width: 0.5"/>
      </g>
     </g>
     <g id="line2d_3">
      <defs>
       <path id="m88f4892b8b" d="M 0 0 
L 0 3 
" style="stroke: #000000; stroke-width: 0.5"/>
      </defs>
      <g>
       <use xlink:href="#m88f4892b8b" x="63.257557" y="3.6" style="stroke: #000000; stroke-width: 0.5"/>
      </g>
     </g>
     <g id="text_1">
      <!-- 0 -->
      <g transform="translate(59.440057 265.698125) scale(0.12 -0.12)">
       <defs>
        <path id="DejaVuSans-30" d="M 2034 4250 
Q 1547 4250 1301 3770 
Q 1056 3291 1056 2328 
Q 1056 1369 1301 889 
Q 1547 409 2034 409 
Q 2525 409 2770 889 
Q 3016 1369 3016 2328 
Q 3016 3291 2770 3770 
Q 2525 4250 2034 4250 
z
M 2034 4750 
Q 2819 4750 3233 4129 
Q 3647 3509 3647 2328 
Q 3647 1150 3233 529 
Q 2819 -91 2034 -91 
Q 1250 -91 836 529 
Q 422 1150 422 2328 
Q 422 3509 836 4129 
Q 1250 4750 2034 4750 
z
" transform="scale(0.015625)"/>
       </defs>
       <use xlink:href="#DejaVuSans-30"/>
      </g>
     </g>
    </g>
    <g id="xtick_2">
     <g id="line2d_4">
      <path d="M 124.252274 253.08 
L 124.252274 3.6 
" clip-path="url(#p4eb91b9e4a)" style="fill: none; stroke: #b0b0b0; stroke-width: 0.5; stroke-linecap: square"/>
     </g>
     <g id="line2d_5">
      <g>
       <use xlink:href="#md813469cc3" x="124.252274" y="253.08" style="stroke: #000000; stroke-width: 0.5"/>
      </g>
     </g>
     <g id="line2d_6">
      <g>
       <use xlink:href="#m88f4892b8b" x="124.252274" y="3.6" style="stroke: #000000; stroke-width: 0.5"/>
      </g>
     </g>
     <g id="text_2">
      <!-- 100 -->
      <g transform="translate(112.799774 265.698125) scale(0.12 -0.12)">
       <defs>
        <path id="DejaVuSans-31" d="M 794 531 
L 1825 531 
L 1825 4091 
L 703 3866 
L 703 4441 
L 1819 4666 
L 2450 4666 
L 2450 531 
L 3481 531 
L 3481 0 
L 794 0 
L 794 531 
z
" transform="scale(0.015625)"/>
       </defs>
       <use xlink:href="#DejaVuSans-31"/>
       <use xlink:href="#DejaVuSans-30" x="63.623047"/>
       <use xlink:href="#DejaVuSans-30" x="127.246094"/>
      </g>
     </g>
    </g>
    <g id="xtick_3">
     <g id="line2d_7">
      <path d="M 185.24699 253.08 
L 185.24699 3.6 
" clip-path="url(#p4eb91b9e4a)" style="fill: none; stroke: #b0b0b0; stroke-width: 0.5; stroke-linecap: square"/>
     </g>
     <g id="line2d_8">
      <g>
       <use xlink:href="#md813469cc3" x="185.24699" y="253.08" style="stroke: #000000; stroke-width: 0.5"/>
      </g>
     </g>
     <g id="line2d_9">
      <g>
       <use xlink:href="#m88f4892b8b" x="185.24699" y="3.6" style="stroke: #000000; stroke-width: 0.5"/>
      </g>
     </g>
     <g id="text_3">
      <!-- 200 -->
      <g transform="translate(173.79449 265.698125) scale(0.12 -0.12)">
       <defs>
        <path id="DejaVuSans-32" d="M 1228 531 
L 3431 531 
L 3431 0 
L 469 0 
L 469 531 
Q 828 903 1448 1529 
Q 2069 2156 2228 2338 
Q 2531 2678 2651 2914 
Q 2772 3150 2772 3378 
Q 2772 3750 2511 3984 
Q 2250 4219 1831 4219 
Q 1534 4219 1204 4116 
Q 875 4013 500 3803 
L 500 4441 
Q 881 4594 1212 4672 
Q 1544 4750 1819 4750 
Q 2544 4750 2975 4387 
Q 3406 4025 3406 3419 
Q 3406 3131 3298 2873 
Q 3191 2616 2906 2266 
Q 2828 2175 2409 1742 
Q 1991 1309 1228 531 
z
" transform="scale(0.015625)"/>
       </defs>
       <use xlink:href="#DejaVuSans-32"/>
       <use xlink:href="#DejaVuSans-30" x="63.623047"/>
       <use xlink:href="#DejaVuSans-30" x="127.246094"/>
      </g>
     </g>
    </g>
    <g id="xtick_4">
     <g id="line2d_10">
      <path d="M 246.241707 253.08 
L 246.241707 3.6 
" clip-path="url(#p4eb91b9e4a)" style="fill: none; stroke: #b0b0b0; stroke-width: 0.5; stroke-linecap: square"/>
     </g>
     <g id="line2d_11">
      <g>
       <use xlink:href="#md813469cc3" x="246.241707" y="253.08" style="stroke: #000000; stroke-width: 0.5"/>
      </g>
     </g>
     <g id="line2d_12">
      <g>
       <use xlink:href="#m88f4892b8b" x="246.241707" y="3.6" style="stroke: #000000; stroke-width: 0.5"/>
      </g>
     </g>
     <g id="text_4">
      <!-- 300 -->
      <g transform="translate(234.789207 265.698125) scale(0.12 -0.12)">
       <defs>
        <path id="DejaVuSans-33" d="M 2597 2516 
Q 3050 2419 3304 2112 
Q 3559 1806 3559 1356 
Q 3559 666 3084 287 
Q 2609 -91 1734 -91 
Q 1441 -91 1130 -33 
Q 819 25 488 141 
L 488 750 
Q 750 597 1062 519 
Q 1375 441 1716 441 
Q 2309 441 2620 675 
Q 2931 909 2931 1356 
Q 2931 1769 2642 2001 
Q 2353 2234 1838 2234 
L 1294 2234 
L 1294 2753 
L 1863 2753 
Q 2328 2753 2575 2939 
Q 2822 3125 2822 3475 
Q 2822 3834 2567 4026 
Q 2313 4219 1838 4219 
Q 1578 4219 1281 4162 
Q 984 4106 628 3988 
L 628 4550 
Q 988 4650 1302 4700 
Q 1616 4750 1894 4750 
Q 2613 4750 3031 4423 
Q 3450 4097 3450 3541 
Q 3450 3153 3228 2886 
Q 3006 2619 2597 2516 
z
" transform="scale(0.015625)"/>
       </defs>
       <use xlink:href="#DejaVuSans-33"/>
       <use xlink:href="#DejaVuSans-30" x="63.623047"/>
       <use xlink:href="#DejaVuSans-30" x="127.246094"/>
      </g>
     </g>
    </g>
    <g id="xtick_5">
     <g id="line2d_13">
      <path d="M 307.236424 253.08 
L 307.236424 3.6 
" clip-path="url(#p4eb91b9e4a)" style="fill: none; stroke: #b0b0b0; stroke-width: 0.5; stroke-linecap: square"/>
     </g>
     <g id="line2d_14">
      <g>
       <use xlink:href="#md813469cc3" x="307.236424" y="253.08" style="stroke: #000000; stroke-width: 0.5"/>
      </g>
     </g>
     <g id="line2d_15">
      <g>
       <use xlink:href="#m88f4892b8b" x="307.236424" y="3.6" style="stroke: #000000; stroke-width: 0.5"/>
      </g>
     </g>
     <g id="text_5">
      <!-- 400 -->
      <g transform="translate(295.783924 265.698125) scale(0.12 -0.12)">
       <defs>
        <path id="DejaVuSans-34" d="M 2419 4116 
L 825 1625 
L 2419 1625 
L 2419 4116 
z
M 2253 4666 
L 3047 4666 
L 3047 1625 
L 3713 1625 
L 3713 1100 
L 3047 1100 
L 3047 0 
L 2419 0 
L 2419 1100 
L 313 1100 
L 313 1709 
L 2253 4666 
z
" transform="scale(0.015625)"/>
       </defs>
       <use xlink:href="#DejaVuSans-34"/>
       <use xlink:href="#DejaVuSans-30" x="63.623047"/>
       <use xlink:href="#DejaVuSans-30" x="127.246094"/>
      </g>
     </g>
    </g>
    <g id="xtick_6">
     <g id="line2d_16">
      <path d="M 368.23114 253.08 
L 368.23114 3.6 
" clip-path="url(#p4eb91b9e4a)" style="fill: none; stroke: #b0b0b0; stroke-width: 0.5; stroke-linecap: square"/>
     </g>
     <g id="line2d_17">
      <g>
       <use xlink:href="#md813469cc3" x="368.23114" y="253.08" style="stroke: #000000; stroke-width: 0.5"/>
      </g>
     </g>
     <g id="line2d_18">
      <g>
       <use xlink:href="#m88f4892b8b" x="368.23114" y="3.6" style="stroke: #000000; stroke-width: 0.5"/>
      </g>
     </g>
     <g id="text_6">
      <!-- 500 -->
      <g transform="translate(356.77864 265.698125) scale(0.12 -0.12)">
       <defs>
        <path id="DejaVuSans-35" d="M 691 4666 
L 3169 4666 
L 3169 4134 
L 1269 4134 
L 1269 2991 
Q 1406 3038 1543 3061 
Q 1681 3084 1819 3084 
Q 2600 3084 3056 2656 
Q 3513 2228 3513 1497 
Q 3513 744 3044 326 
Q 2575 -91 1722 -91 
Q 1428 -91 1123 -41 
Q 819 9 494 109 
L 494 744 
Q 775 591 1075 516 
Q 1375 441 1709 441 
Q 2250 441 2565 725 
Q 2881 1009 2881 1497 
Q 2881 1984 2565 2268 
Q 2250 2553 1709 2553 
Q 1456 2553 1204 2497 
Q 953 2441 691 2322 
L 691 4666 
z
" transform="scale(0.015625)"/>
       </defs>
       <use xlink:href="#DejaVuSans-35"/>
       <use xlink:href="#DejaVuSans-30" x="63.623047"/>
       <use xlink:href="#DejaVuSans-30" x="127.246094"/>
      </g>
     </g>
    </g>
    <g id="xtick_7">
     <g id="line2d_19">
      <defs>
       <path id="m674efd7d57" d="M 0 0 
L 0 -1.5 
" style="stroke: #000000; stroke-width: 0.5"/>
      </defs>
      <g>
       <use xlink:href="#m674efd7d57" x="51.058613" y="253.08" style="stroke: #000000; stroke-width: 0.5"/>
      </g>
     </g>
     <g id="line2d_20">
      <defs>
       <path id="md2f0fbd515" d="M 0 0 
L 0 1.5 
" style="stroke: #000000; stroke-width: 0.5"/>
      </defs>
      <g>
       <use xlink:href="#md2f0fbd515" x="51.058613" y="3.6" style="stroke: #000000; stroke-width: 0.5"/>
      </g>
     </g>
    </g>
    <g id="xtick_8">
     <g id="line2d_21">
      <g>
       <use xlink:href="#m674efd7d57" x="75.4565" y="253.08" style="stroke: #000000; stroke-width: 0.5"/>
      </g>
     </g>
     <g id="line2d_22">
      <g>
       <use xlink:href="#md2f0fbd515" x="75.4565" y="3.6" style="stroke: #000000; stroke-width: 0.5"/>
      </g>
     </g>
    </g>
    <g id="xtick_9">
     <g id="line2d_23">
      <g>
       <use xlink:href="#m674efd7d57" x="87.655444" y="253.08" style="stroke: #000000; stroke-width: 0.5"/>
      </g>
     </g>
     <g id="line2d_24">
      <g>
       <use xlink:href="#md2f0fbd515" x="87.655444" y="3.6" style="stroke: #000000; stroke-width: 0.5"/>
      </g>
     </g>
    </g>
    <g id="xtick_10">
     <g id="line2d_25">
      <g>
       <use xlink:href="#m674efd7d57" x="99.854387" y="253.08" style="stroke: #000000; stroke-width: 0.5"/>
      </g>
     </g>
     <g id="line2d_26">
      <g>
       <use xlink:href="#md2f0fbd515" x="99.854387" y="3.6" style="stroke: #000000; stroke-width: 0.5"/>
      </g>
     </g>
    </g>
    <g id="xtick_11">
     <g id="line2d_27">
      <g>
       <use xlink:href="#m674efd7d57" x="112.05333" y="253.08" style="stroke: #000000; stroke-width: 0.5"/>
      </g>
     </g>
     <g id="line2d_28">
      <g>
       <use xlink:href="#md2f0fbd515" x="112.05333" y="3.6" style="stroke: #000000; stroke-width: 0.5"/>
      </g>
     </g>
    </g>
    <g id="xtick_12">
     <g id="line2d_29">
      <g>
       <use xlink:href="#m674efd7d57" x="136.451217" y="253.08" style="stroke: #000000; stroke-width: 0.5"/>
      </g>
     </g>
     <g id="line2d_30">
      <g>
       <use xlink:href="#md2f0fbd515" x="136.451217" y="3.6" style="stroke: #000000; stroke-width: 0.5"/>
      </g>
     </g>
    </g>
    <g id="xtick_13">
     <g id="line2d_31">
      <g>
       <use xlink:href="#m674efd7d57" x="148.65016" y="253.08" style="stroke: #000000; stroke-width: 0.5"/>
      </g>
     </g>
     <g id="line2d_32">
      <g>
       <use xlink:href="#md2f0fbd515" x="148.65016" y="3.6" style="stroke: #000000; stroke-width: 0.5"/>
      </g>
     </g>
    </g>
    <g id="xtick_14">
     <g id="line2d_33">
      <g>
       <use xlink:href="#m674efd7d57" x="160.849104" y="253.08" style="stroke: #000000; stroke-width: 0.5"/>
      </g>
     </g>
     <g id="line2d_34">
      <g>
       <use xlink:href="#md2f0fbd515" x="160.849104" y="3.6" style="stroke: #000000; stroke-width: 0.5"/>
      </g>
     </g>
    </g>
    <g id="xtick_15">
     <g id="line2d_35">
      <g>
       <use xlink:href="#m674efd7d57" x="173.048047" y="253.08" style="stroke: #000000; stroke-width: 0.5"/>
      </g>
     </g>
     <g id="line2d_36">
      <g>
       <use xlink:href="#md2f0fbd515" x="173.048047" y="3.6" style="stroke: #000000; stroke-width: 0.5"/>
      </g>
     </g>
    </g>
    <g id="xtick_16">
     <g id="line2d_37">
      <g>
       <use xlink:href="#m674efd7d57" x="197.445934" y="253.08" style="stroke: #000000; stroke-width: 0.5"/>
      </g>
     </g>
     <g id="line2d_38">
      <g>
       <use xlink:href="#md2f0fbd515" x="197.445934" y="3.6" style="stroke: #000000; stroke-width: 0.5"/>
      </g>
     </g>
    </g>
    <g id="xtick_17">
     <g id="line2d_39">
      <g>
       <use xlink:href="#m674efd7d57" x="209.644877" y="253.08" style="stroke: #000000; stroke-width: 0.5"/>
      </g>
     </g>
     <g id="line2d_40">
      <g>
       <use xlink:href="#md2f0fbd515" x="209.644877" y="3.6" style="stroke: #000000; stroke-width: 0.5"/>
      </g>
     </g>
    </g>
    <g id="xtick_18">
     <g id="line2d_41">
      <g>
       <use xlink:href="#m674efd7d57" x="221.84382" y="253.08" style="stroke: #000000; stroke-width: 0.5"/>
      </g>
     </g>
     <g id="line2d_42">
      <g>
       <use xlink:href="#md2f0fbd515" x="221.84382" y="3.6" style="stroke: #000000; stroke-width: 0.5"/>
      </g>
     </g>
    </g>
    <g id="xtick_19">
     <g id="line2d_43">
      <g>
       <use xlink:href="#m674efd7d57" x="234.042764" y="253.08" style="stroke: #000000; stroke-width: 0.5"/>
      </g>
     </g>
     <g id="line2d_44">
      <g>
       <use xlink:href="#md2f0fbd515" x="234.042764" y="3.6" style="stroke: #000000; stroke-width: 0.5"/>
      </g>
     </g>
    </g>
    <g id="xtick_20">
     <g id="line2d_45">
      <g>
       <use xlink:href="#m674efd7d57" x="258.44065" y="253.08" style="stroke: #000000; stroke-width: 0.5"/>
      </g>
     </g>
     <g id="line2d_46">
      <g>
       <use xlink:href="#md2f0fbd515" x="258.44065" y="3.6" style="stroke: #000000; stroke-width: 0.5"/>
      </g>
     </g>
    </g>
    <g id="xtick_21">
     <g id="line2d_47">
      <g>
       <use xlink:href="#m674efd7d57" x="270.639594" y="253.08" style="stroke: #000000; stroke-width: 0.5"/>
      </g>
     </g>
     <g id="line2d_48">
      <g>
       <use xlink:href="#md2f0fbd515" x="270.639594" y="3.6" style="stroke: #000000; stroke-width: 0.5"/>
      </g>
     </g>
    </g>
    <g id="xtick_22">
     <g id="line2d_49">
      <g>
       <use xlink:href="#m674efd7d57" x="282.838537" y="253.08" style="stroke: #000000; stroke-width: 0.5"/>
      </g>
     </g>
     <g id="line2d_50">
      <g>
       <use xlink:href="#md2f0fbd515" x="282.838537" y="3.6" style="stroke: #000000; stroke-width: 0.5"/>
      </g>
     </g>
    </g>
    <g id="xtick_23">
     <g id="line2d_51">
      <g>
       <use xlink:href="#m674efd7d57" x="295.03748" y="253.08" style="stroke: #000000; stroke-width: 0.5"/>
      </g>
     </g>
     <g id="line2d_52">
      <g>
       <use xlink:href="#md2f0fbd515" x="295.03748" y="3.6" style="stroke: #000000; stroke-width: 0.5"/>
      </g>
     </g>
    </g>
    <g id="xtick_24">
     <g id="line2d_53">
      <g>
       <use xlink:href="#m674efd7d57" x="319.435367" y="253.08" style="stroke: #000000; stroke-width: 0.5"/>
      </g>
     </g>
     <g id="line2d_54">
      <g>
       <use xlink:href="#md2f0fbd515" x="319.435367" y="3.6" style="stroke: #000000; stroke-width: 0.5"/>
      </g>
     </g>
    </g>
    <g id="xtick_25">
     <g id="line2d_55">
      <g>
       <use xlink:href="#m674efd7d57" x="331.63431" y="253.08" style="stroke: #000000; stroke-width: 0.5"/>
      </g>
     </g>
     <g id="line2d_56">
      <g>
       <use xlink:href="#md2f0fbd515" x="331.63431" y="3.6" style="stroke: #000000; stroke-width: 0.5"/>
      </g>
     </g>
    </g>
    <g id="xtick_26">
     <g id="line2d_57">
      <g>
       <use xlink:href="#m674efd7d57" x="343.833254" y="253.08" style="stroke: #000000; stroke-width: 0.5"/>
      </g>
     </g>
     <g id="line2d_58">
      <g>
       <use xlink:href="#md2f0fbd515" x="343.833254" y="3.6" style="stroke: #000000; stroke-width: 0.5"/>
      </g>
     </g>
    </g>
    <g id="xtick_27">
     <g id="line2d_59">
      <g>
       <use xlink:href="#m674efd7d57" x="356.032197" y="253.08" style="stroke: #000000; stroke-width: 0.5"/>
      </g>
     </g>
     <g id="line2d_60">
      <g>
       <use xlink:href="#md2f0fbd515" x="356.032197" y="3.6" style="stroke: #000000; stroke-width: 0.5"/>
      </g>
     </g>
    </g>
    <g id="xtick_28">
     <g id="line2d_61">
      <g>
       <use xlink:href="#m674efd7d57" x="380.430084" y="253.08" style="stroke: #000000; stroke-width: 0.5"/>
      </g>
     </g>
     <g id="line2d_62">
      <g>
       <use xlink:href="#md2f0fbd515" x="380.430084" y="3.6" style="stroke: #000000; stroke-width: 0.5"/>
      </g>
     </g>
    </g>
    <g id="text_7">
     <!-- Generations -->
     <g transform="translate(178.842188 281.311875) scale(0.12 -0.12)">
      <defs>
       <path id="DejaVuSans-47" d="M 3809 666 
L 3809 1919 
L 2778 1919 
L 2778 2438 
L 4434 2438 
L 4434 434 
Q 4069 175 3628 42 
Q 3188 -91 2688 -91 
Q 1594 -91 976 548 
Q 359 1188 359 2328 
Q 359 3472 976 4111 
Q 1594 4750 2688 4750 
Q 3144 4750 3555 4637 
Q 3966 4525 4313 4306 
L 4313 3634 
Q 3963 3931 3569 4081 
Q 3175 4231 2741 4231 
Q 1884 4231 1454 3753 
Q 1025 3275 1025 2328 
Q 1025 1384 1454 906 
Q 1884 428 2741 428 
Q 3075 428 3337 486 
Q 3600 544 3809 666 
z
" transform="scale(0.015625)"/>
       <path id="DejaVuSans-65" d="M 3597 1894 
L 3597 1613 
L 953 1613 
Q 991 1019 1311 708 
Q 1631 397 2203 397 
Q 2534 397 2845 478 
Q 3156 559 3463 722 
L 3463 178 
Q 3153 47 2828 -22 
Q 2503 -91 2169 -91 
Q 1331 -91 842 396 
Q 353 884 353 1716 
Q 353 2575 817 3079 
Q 1281 3584 2069 3584 
Q 2775 3584 3186 3129 
Q 3597 2675 3597 1894 
z
M 3022 2063 
Q 3016 2534 2758 2815 
Q 2500 3097 2075 3097 
Q 1594 3097 1305 2825 
Q 1016 2553 972 2059 
L 3022 2063 
z
" transform="scale(0.015625)"/>
       <path id="DejaVuSans-6e" d="M 3513 2113 
L 3513 0 
L 2938 0 
L 2938 2094 
Q 2938 2591 2744 2837 
Q 2550 3084 2163 3084 
Q 1697 3084 1428 2787 
Q 1159 2491 1159 1978 
L 1159 0 
L 581 0 
L 581 3500 
L 1159 3500 
L 1159 2956 
Q 1366 3272 1645 3428 
Q 1925 3584 2291 3584 
Q 2894 3584 3203 3211 
Q 3513 2838 3513 2113 
z
" transform="scale(0.015625)"/>
       <path id="DejaVuSans-72" d="M 2631 2963 
Q 2534 3019 2420 3045 
Q 2306 3072 2169 3072 
Q 1681 3072 1420 2755 
Q 1159 2438 1159 1844 
L 1159 0 
L 581 0 
L 581 3500 
L 1159 3500 
L 1159 2956 
Q 1341 3275 1631 3429 
Q 1922 3584 2338 3584 
Q 2397 3584 2469 3576 
Q 2541 3569 2628 3553 
L 2631 2963 
z
" transform="scale(0.015625)"/>
       <path id="DejaVuSans-61" d="M 2194 1759 
Q 1497 1759 1228 1600 
Q 959 1441 959 1056 
Q 959 750 1161 570 
Q 1363 391 1709 391 
Q 2188 391 2477 730 
Q 2766 1069 2766 1631 
L 2766 1759 
L 2194 1759 
z
M 3341 1997 
L 3341 0 
L 2766 0 
L 2766 531 
Q 2569 213 2275 61 
Q 1981 -91 1556 -91 
Q 1019 -91 701 211 
Q 384 513 384 1019 
Q 384 1609 779 1909 
Q 1175 2209 1959 2209 
L 2766 2209 
L 2766 2266 
Q 2766 2663 2505 2880 
Q 2244 3097 1772 3097 
Q 1472 3097 1187 3025 
Q 903 2953 641 2809 
L 641 3341 
Q 956 3463 1253 3523 
Q 1550 3584 1831 3584 
Q 2591 3584 2966 3190 
Q 3341 2797 3341 1997 
z
" transform="scale(0.015625)"/>
       <path id="DejaVuSans-74" d="M 1172 4494 
L 1172 3500 
L 2356 3500 
L 2356 3053 
L 1172 3053 
L 1172 1153 
Q 1172 725 1289 603 
Q 1406 481 1766 481 
L 2356 481 
L 2356 0 
L 1766 0 
Q 1100 0 847 248 
Q 594 497 594 1153 
L 594 3053 
L 172 3053 
L 172 3500 
L 594 3500 
L 594 4494 
L 1172 4494 
z
" transform="scale(0.015625)"/>
       <path id="DejaVuSans-69" d="M 603 3500 
L 1178 3500 
L 1178 0 
L 603 0 
L 603 3500 
z
M 603 4863 
L 1178 4863 
L 1178 4134 
L 603 4134 
L 603 4863 
z
" transform="scale(0.015625)"/>
       <path id="DejaVuSans-6f" d="M 1959 3097 
Q 1497 3097 1228 2736 
Q 959 2375 959 1747 
Q 959 1119 1226 758 
Q 1494 397 1959 397 
Q 2419 397 2687 759 
Q 2956 1122 2956 1747 
Q 2956 2369 2687 2733 
Q 2419 3097 1959 3097 
z
M 1959 3584 
Q 2709 3584 3137 3096 
Q 3566 2609 3566 1747 
Q 3566 888 3137 398 
Q 2709 -91 1959 -91 
Q 1206 -91 779 398 
Q 353 888 353 1747 
Q 353 2609 779 3096 
Q 1206 3584 1959 3584 
z
" transform="scale(0.015625)"/>
       <path id="DejaVuSans-73" d="M 2834 3397 
L 2834 2853 
Q 2591 2978 2328 3040 
Q 2066 3103 1784 3103 
Q 1356 3103 1142 2972 
Q 928 2841 928 2578 
Q 928 2378 1081 2264 
Q 1234 2150 1697 2047 
L 1894 2003 
Q 2506 1872 2764 1633 
Q 3022 1394 3022 966 
Q 3022 478 2636 193 
Q 2250 -91 1575 -91 
Q 1294 -91 989 -36 
Q 684 19 347 128 
L 347 722 
Q 666 556 975 473 
Q 1284 391 1588 391 
Q 1994 391 2212 530 
Q 2431 669 2431 922 
Q 2431 1156 2273 1281 
Q 2116 1406 1581 1522 
L 1381 1569 
Q 847 1681 609 1914 
Q 372 2147 372 2553 
Q 372 3047 722 3315 
Q 1072 3584 1716 3584 
Q 2034 3584 2315 3537 
Q 2597 3491 2834 3397 
z
" transform="scale(0.015625)"/>
      </defs>
      <use xlink:href="#DejaVuSans-47"/>
      <use xlink:href="#DejaVuSans-65" x="77.490234"/>
      <use xlink:href="#DejaVuSans-6e" x="139.013672"/>
      <use xlink:href="#DejaVuSans-65" x="202.392578"/>
      <use xlink:href="#DejaVuSans-72" x="263.916016"/>
      <use xlink:href="#DejaVuSans-61" x="305.029297"/>
      <use xlink:href="#DejaVuSans-74" x="366.308594"/>
      <use xlink:href="#DejaVuSans-69" x="405.517578"/>
      <use xlink:href="#DejaVuSans-6f" x="433.300781"/>
      <use xlink:href="#DejaVuSans-6e" x="494.482422"/>
      <use xlink:href="#DejaVuSans-73" x="557.861328"/>
     </g>
    </g>
   </g>
   <g id="matplotlib.axis_2">
    <g id="ytick_1">
     <g id="line2d_63">
      <path d="M 48.039375 225.347385 
L 382.839375 225.347385 
" clip-path="url(#p4eb91b9e4a)" style="fill: none; stroke: #b0b0b0; stroke-width: 0.5; stroke-linecap: square"/>
     </g>
     <g id="line2d_64">
      <defs>
       <path id="m25279fe3f1" d="M 0 0 
L 3 0 
" style="stroke: #000000; stroke-width: 0.5"/>
      </defs>
      <g>
       <use xlink:href="#m25279fe3f1" x="48.039375" y="225.347385" style="stroke: #000000; stroke-width: 0.5"/>
      </g>
     </g>
     <g id="line2d_65">
      <defs>
       <path id="m3344a0ac78" d="M 0 0 
L -3 0 
" style="stroke: #000000; stroke-width: 0.5"/>
      </defs>
      <g>
       <use xlink:href="#m3344a0ac78" x="382.839375" y="225.347385" style="stroke: #000000; stroke-width: 0.5"/>
      </g>
     </g>
     <g id="text_8">
      <!-- −40 -->
      <g transform="translate(19.21375 229.906448) scale(0.12 -0.12)">
       <defs>
        <path id="DejaVuSans-2212" d="M 678 2272 
L 4684 2272 
L 4684 1741 
L 678 1741 
L 678 2272 
z
" transform="scale(0.015625)"/>
       </defs>
       <use xlink:href="#DejaVuSans-2212"/>
       <use xlink:href="#DejaVuSans-34" x="83.789062"/>
       <use xlink:href="#DejaVuSans-30" x="147.412109"/>
      </g>
     </g>
    </g>
    <g id="ytick_2">
     <g id="line2d_66">
      <path d="M 48.039375 189.298924 
L 382.839375 189.298924 
" clip-path="url(#p4eb91b9e4a)" style="fill: none; stroke: #b0b0b0; stroke-width: 0.5; stroke-linecap: square"/>
     </g>
     <g id="line2d_67">
      <g>
       <use xlink:href="#m25279fe3f1" x="48.039375" y="189.298924" style="stroke: #000000; stroke-width: 0.5"/>
      </g>
     </g>
     <g id="line2d_68">
      <g>
       <use xlink:href="#m3344a0ac78" x="382.839375" y="189.298924" style="stroke: #000000; stroke-width: 0.5"/>
      </g>
     </g>
     <g id="text_9">
      <!-- −30 -->
      <g transform="translate(19.21375 193.857986) scale(0.12 -0.12)">
       <use xlink:href="#DejaVuSans-2212"/>
       <use xlink:href="#DejaVuSans-33" x="83.789062"/>
       <use xlink:href="#DejaVuSans-30" x="147.412109"/>
      </g>
     </g>
    </g>
    <g id="ytick_3">
     <g id="line2d_69">
      <path d="M 48.039375 153.250462 
L 382.839375 153.250462 
" clip-path="url(#p4eb91b9e4a)" style="fill: none; stroke: #b0b0b0; stroke-width: 0.5; stroke-linecap: square"/>
     </g>
     <g id="line2d_70">
      <g>
       <use xlink:href="#m25279fe3f1" x="48.039375" y="153.250462" style="stroke: #000000; stroke-width: 0.5"/>
      </g>
     </g>
     <g id="line2d_71">
      <g>
       <use xlink:href="#m3344a0ac78" x="382.839375" y="153.250462" style="stroke: #000000; stroke-width: 0.5"/>
      </g>
     </g>
     <g id="text_10">
      <!-- −20 -->
      <g transform="translate(19.21375 157.809525) scale(0.12 -0.12)">
       <use xlink:href="#DejaVuSans-2212"/>
       <use xlink:href="#DejaVuSans-32" x="83.789062"/>
       <use xlink:href="#DejaVuSans-30" x="147.412109"/>
      </g>
     </g>
    </g>
    <g id="ytick_4">
     <g id="line2d_72">
      <path d="M 48.039375 117.202 
L 382.839375 117.202 
" clip-path="url(#p4eb91b9e4a)" style="fill: none; stroke: #b0b0b0; stroke-width: 0.5; stroke-linecap: square"/>
     </g>
     <g id="line2d_73">
      <g>
       <use xlink:href="#m25279fe3f1" x="48.039375" y="117.202" style="stroke: #000000; stroke-width: 0.5"/>
      </g>
     </g>
     <g id="line2d_74">
      <g>
       <use xlink:href="#m3344a0ac78" x="382.839375" y="117.202" style="stroke: #000000; stroke-width: 0.5"/>
      </g>
     </g>
     <g id="text_11">
      <!-- −10 -->
      <g transform="translate(19.21375 121.761063) scale(0.12 -0.12)">
       <use xlink:href="#DejaVuSans-2212"/>
       <use xlink:href="#DejaVuSans-31" x="83.789062"/>
       <use xlink:href="#DejaVuSans-30" x="147.412109"/>
      </g>
     </g>
    </g>
    <g id="ytick_5">
     <g id="line2d_75">
      <path d="M 48.039375 81.153539 
L 382.839375 81.153539 
" clip-path="url(#p4eb91b9e4a)" style="fill: none; stroke: #b0b0b0; stroke-width: 0.5; stroke-linecap: square"/>
     </g>
     <g id="line2d_76">
      <g>
       <use xlink:href="#m25279fe3f1" x="48.039375" y="81.153539" style="stroke: #000000; stroke-width: 0.5"/>
      </g>
     </g>
     <g id="line2d_77">
      <g>
       <use xlink:href="#m3344a0ac78" x="382.839375" y="81.153539" style="stroke: #000000; stroke-width: 0.5"/>
      </g>
     </g>
     <g id="text_12">
      <!-- 0 -->
      <g transform="translate(36.904375 85.712601) scale(0.12 -0.12)">
       <use xlink:href="#DejaVuSans-30"/>
      </g>
     </g>
    </g>
    <g id="ytick_6">
     <g id="line2d_78">
      <path d="M 48.039375 45.105077 
L 382.839375 45.105077 
" clip-path="url(#p4eb91b9e4a)" style="fill: none; stroke: #b0b0b0; stroke-width: 0.5; stroke-linecap: square"/>
     </g>
     <g id="line2d_79">
      <g>
       <use xlink:href="#m25279fe3f1" x="48.039375" y="45.105077" style="stroke: #000000; stroke-width: 0.5"/>
      </g>
     </g>
     <g id="line2d_80">
      <g>
       <use xlink:href="#m3344a0ac78" x="382.839375" y="45.105077" style="stroke: #000000; stroke-width: 0.5"/>
      </g>
     </g>
     <g id="text_13">
      <!-- 10 -->
      <g transform="translate(29.269375 49.66414) scale(0.12 -0.12)">
       <use xlink:href="#DejaVuSans-31"/>
       <use xlink:href="#DejaVuSans-30" x="63.623047"/>
      </g>
     </g>
    </g>
    <g id="ytick_7">
     <g id="line2d_81">
      <path d="M 48.039375 9.056616 
L 382.839375 9.056616 
" clip-path="url(#p4eb91b9e4a)" style="fill: none; stroke: #b0b0b0; stroke-width: 0.5; stroke-linecap: square"/>
     </g>
     <g id="line2d_82">
      <g>
       <use xlink:href="#m25279fe3f1" x="48.039375" y="9.056616" style="stroke: #000000; stroke-width: 0.5"/>
      </g>
     </g>
     <g id="line2d_83">
      <g>
       <use xlink:href="#m3344a0ac78" x="382.839375" y="9.056616" style="stroke: #000000; stroke-width: 0.5"/>
      </g>
     </g>
     <g id="text_14">
      <!-- 20 -->
      <g transform="translate(29.269375 13.615678) scale(0.12 -0.12)">
       <use xlink:href="#DejaVuSans-32"/>
       <use xlink:href="#DejaVuSans-30" x="63.623047"/>
      </g>
     </g>
    </g>
    <g id="ytick_8">
     <g id="line2d_84">
      <defs>
       <path id="m30a089a508" d="M 0 0 
L 1.5 0 
" style="stroke: #000000; stroke-width: 0.5"/>
      </defs>
      <g>
       <use xlink:href="#m30a089a508" x="48.039375" y="246.976462" style="stroke: #000000; stroke-width: 0.5"/>
      </g>
     </g>
     <g id="line2d_85">
      <defs>
       <path id="mda838a80fb" d="M 0 0 
L -1.5 0 
" style="stroke: #000000; stroke-width: 0.5"/>
      </defs>
      <g>
       <use xlink:href="#mda838a80fb" x="382.839375" y="246.976462" style="stroke: #000000; stroke-width: 0.5"/>
      </g>
     </g>
    </g>
    <g id="ytick_9">
     <g id="line2d_86">
      <g>
       <use xlink:href="#m30a089a508" x="48.039375" y="239.76677" style="stroke: #000000; stroke-width: 0.5"/>
      </g>
     </g>
     <g id="line2d_87">
      <g>
       <use xlink:href="#mda838a80fb" x="382.839375" y="239.76677" style="stroke: #000000; stroke-width: 0.5"/>
      </g>
     </g>
    </g>
    <g id="ytick_10">
     <g id="line2d_88">
      <g>
       <use xlink:href="#m30a089a508" x="48.039375" y="232.557078" style="stroke: #000000; stroke-width: 0.5"/>
      </g>
     </g>
     <g id="line2d_89">
      <g>
       <use xlink:href="#mda838a80fb" x="382.839375" y="232.557078" style="stroke: #000000; stroke-width: 0.5"/>
      </g>
     </g>
    </g>
    <g id="ytick_11">
     <g id="line2d_90">
      <g>
       <use xlink:href="#m30a089a508" x="48.039375" y="218.137693" style="stroke: #000000; stroke-width: 0.5"/>
      </g>
     </g>
     <g id="line2d_91">
      <g>
       <use xlink:href="#mda838a80fb" x="382.839375" y="218.137693" style="stroke: #000000; stroke-width: 0.5"/>
      </g>
     </g>
    </g>
    <g id="ytick_12">
     <g id="line2d_92">
      <g>
       <use xlink:href="#m30a089a508" x="48.039375" y="210.928001" style="stroke: #000000; stroke-width: 0.5"/>
      </g>
     </g>
     <g id="line2d_93">
      <g>
       <use xlink:href="#mda838a80fb" x="382.839375" y="210.928001" style="stroke: #000000; stroke-width: 0.5"/>
      </g>
     </g>
    </g>
    <g id="ytick_13">
     <g id="line2d_94">
      <g>
       <use xlink:href="#m30a089a508" x="48.039375" y="203.718308" style="stroke: #000000; stroke-width: 0.5"/>
      </g>
     </g>
     <g id="line2d_95">
      <g>
       <use xlink:href="#mda838a80fb" x="382.839375" y="203.718308" style="stroke: #000000; stroke-width: 0.5"/>
      </g>
     </g>
    </g>
    <g id="ytick_14">
     <g id="line2d_96">
      <g>
       <use xlink:href="#m30a089a508" x="48.039375" y="196.508616" style="stroke: #000000; stroke-width: 0.5"/>
      </g>
     </g>
     <g id="line2d_97">
      <g>
       <use xlink:href="#mda838a80fb" x="382.839375" y="196.508616" style="stroke: #000000; stroke-width: 0.5"/>
      </g>
     </g>
    </g>
    <g id="ytick_15">
     <g id="line2d_98">
      <g>
       <use xlink:href="#m30a089a508" x="48.039375" y="182.089231" style="stroke: #000000; stroke-width: 0.5"/>
      </g>
     </g>
     <g id="line2d_99">
      <g>
       <use xlink:href="#mda838a80fb" x="382.839375" y="182.089231" style="stroke: #000000; stroke-width: 0.5"/>
      </g>
     </g>
    </g>
    <g id="ytick_16">
     <g id="line2d_100">
      <g>
       <use xlink:href="#m30a089a508" x="48.039375" y="174.879539" style="stroke: #000000; stroke-width: 0.5"/>
      </g>
     </g>
     <g id="line2d_101">
      <g>
       <use xlink:href="#mda838a80fb" x="382.839375" y="174.879539" style="stroke: #000000; stroke-width: 0.5"/>
      </g>
     </g>
    </g>
    <g id="ytick_17">
     <g id="line2d_102">
      <g>
       <use xlink:href="#m30a089a508" x="48.039375" y="167.669847" style="stroke: #000000; stroke-width: 0.5"/>
      </g>
     </g>
     <g id="line2d_103">
      <g>
       <use xlink:href="#mda838a80fb" x="382.839375" y="167.669847" style="stroke: #000000; stroke-width: 0.5"/>
      </g>
     </g>
    </g>
    <g id="ytick_18">
     <g id="line2d_104">
      <g>
       <use xlink:href="#m30a089a508" x="48.039375" y="160.460154" style="stroke: #000000; stroke-width: 0.5"/>
      </g>
     </g>
     <g id="line2d_105">
      <g>
       <use xlink:href="#mda838a80fb" x="382.839375" y="160.460154" style="stroke: #000000; stroke-width: 0.5"/>
      </g>
     </g>
    </g>
    <g id="ytick_19">
     <g id="line2d_106">
      <g>
       <use xlink:href="#m30a089a508" x="48.039375" y="146.04077" style="stroke: #000000; stroke-width: 0.5"/>
      </g>
     </g>
     <g id="line2d_107">
      <g>
       <use xlink:href="#mda838a80fb" x="382.839375" y="146.04077" style="stroke: #000000; stroke-width: 0.5"/>
      </g>
     </g>
    </g>
    <g id="ytick_20">
     <g id="line2d_108">
      <g>
       <use xlink:href="#m30a089a508" x="48.039375" y="138.831077" style="stroke: #000000; stroke-width: 0.5"/>
      </g>
     </g>
     <g id="line2d_109">
      <g>
       <use xlink:href="#mda838a80fb" x="382.839375" y="138.831077" style="stroke: #000000; stroke-width: 0.5"/>
      </g>
     </g>
    </g>
    <g id="ytick_21">
     <g id="line2d_110">
      <g>
       <use xlink:href="#m30a089a508" x="48.039375" y="131.621385" style="stroke: #000000; stroke-width: 0.5"/>
      </g>
     </g>
     <g id="line2d_111">
      <g>
       <use xlink:href="#mda838a80fb" x="382.839375" y="131.621385" style="stroke: #000000; stroke-width: 0.5"/>
      </g>
     </g>
    </g>
    <g id="ytick_22">
     <g id="line2d_112">
      <g>
       <use xlink:href="#m30a089a508" x="48.039375" y="124.411693" style="stroke: #000000; stroke-width: 0.5"/>
      </g>
     </g>
     <g id="line2d_113">
      <g>
       <use xlink:href="#mda838a80fb" x="382.839375" y="124.411693" style="stroke: #000000; stroke-width: 0.5"/>
      </g>
     </g>
    </g>
    <g id="ytick_23">
     <g id="line2d_114">
      <g>
       <use xlink:href="#m30a089a508" x="48.039375" y="109.992308" style="stroke: #000000; stroke-width: 0.5"/>
      </g>
     </g>
     <g id="line2d_115">
      <g>
       <use xlink:href="#mda838a80fb" x="382.839375" y="109.992308" style="stroke: #000000; stroke-width: 0.5"/>
      </g>
     </g>
    </g>
    <g id="ytick_24">
     <g id="line2d_116">
      <g>
       <use xlink:href="#m30a089a508" x="48.039375" y="102.782616" style="stroke: #000000; stroke-width: 0.5"/>
      </g>
     </g>
     <g id="line2d_117">
      <g>
       <use xlink:href="#mda838a80fb" x="382.839375" y="102.782616" style="stroke: #000000; stroke-width: 0.5"/>
      </g>
     </g>
    </g>
    <g id="ytick_25">
     <g id="line2d_118">
      <g>
       <use xlink:href="#m30a089a508" x="48.039375" y="95.572923" style="stroke: #000000; stroke-width: 0.5"/>
      </g>
     </g>
     <g id="line2d_119">
      <g>
       <use xlink:href="#mda838a80fb" x="382.839375" y="95.572923" style="stroke: #000000; stroke-width: 0.5"/>
      </g>
     </g>
    </g>
    <g id="ytick_26">
     <g id="line2d_120">
      <g>
       <use xlink:href="#m30a089a508" x="48.039375" y="88.363231" style="stroke: #000000; stroke-width: 0.5"/>
      </g>
     </g>
     <g id="line2d_121">
      <g>
       <use xlink:href="#mda838a80fb" x="382.839375" y="88.363231" style="stroke: #000000; stroke-width: 0.5"/>
      </g>
     </g>
    </g>
    <g id="ytick_27">
     <g id="line2d_122">
      <g>
       <use xlink:href="#m30a089a508" x="48.039375" y="73.943846" style="stroke: #000000; stroke-width: 0.5"/>
      </g>
     </g>
     <g id="line2d_123">
      <g>
       <use xlink:href="#mda838a80fb" x="382.839375" y="73.943846" style="stroke: #000000; stroke-width: 0.5"/>
      </g>
     </g>
    </g>
    <g id="ytick_28">
     <g id="line2d_124">
      <g>
       <use xlink:href="#m30a089a508" x="48.039375" y="66.734154" style="stroke: #000000; stroke-width: 0.5"/>
      </g>
     </g>
     <g id="line2d_125">
      <g>
       <use xlink:href="#mda838a80fb" x="382.839375" y="66.734154" style="stroke: #000000; stroke-width: 0.5"/>
      </g>
     </g>
    </g>
    <g id="ytick_29">
     <g id="line2d_126">
      <g>
       <use xlink:href="#m30a089a508" x="48.039375" y="59.524462" style="stroke: #000000; stroke-width: 0.5"/>
      </g>
     </g>
     <g id="line2d_127">
      <g>
       <use xlink:href="#mda838a80fb" x="382.839375" y="59.524462" style="stroke: #000000; stroke-width: 0.5"/>
      </g>
     </g>
    </g>
    <g id="ytick_30">
     <g id="line2d_128">
      <g>
       <use xlink:href="#m30a089a508" x="48.039375" y="52.314769" style="stroke: #000000; stroke-width: 0.5"/>
      </g>
     </g>
     <g id="line2d_129">
      <g>
       <use xlink:href="#mda838a80fb" x="382.839375" y="52.314769" style="stroke: #000000; stroke-width: 0.5"/>
      </g>
     </g>
    </g>
    <g id="ytick_31">
     <g id="line2d_130">
      <g>
       <use xlink:href="#m30a089a508" x="48.039375" y="37.895385" style="stroke: #000000; stroke-width: 0.5"/>
      </g>
     </g>
     <g id="line2d_131">
      <g>
       <use xlink:href="#mda838a80fb" x="382.839375" y="37.895385" style="stroke: #000000; stroke-width: 0.5"/>
      </g>
     </g>
    </g>
    <g id="ytick_32">
     <g id="line2d_132">
      <g>
       <use xlink:href="#m30a089a508" x="48.039375" y="30.685692" style="stroke: #000000; stroke-width: 0.5"/>
      </g>
     </g>
     <g id="line2d_133">
      <g>
       <use xlink:href="#mda838a80fb" x="382.839375" y="30.685692" style="stroke: #000000; stroke-width: 0.5"/>
      </g>
     </g>
    </g>
    <g id="ytick_33">
     <g id="line2d_134">
      <g>
       <use xlink:href="#m30a089a508" x="48.039375" y="23.476" style="stroke: #000000; stroke-width: 0.5"/>
      </g>
     </g>
     <g id="line2d_135">
      <g>
       <use xlink:href="#mda838a80fb" x="382.839375" y="23.476" style="stroke: #000000; stroke-width: 0.5"/>
      </g>
     </g>
    </g>
    <g id="ytick_34">
     <g id="line2d_136">
      <g>
       <use xlink:href="#m30a089a508" x="48.039375" y="16.266308" style="stroke: #000000; stroke-width: 0.5"/>
      </g>
     </g>
     <g id="line2d_137">
      <g>
       <use xlink:href="#mda838a80fb" x="382.839375" y="16.266308" style="stroke: #000000; stroke-width: 0.5"/>
      </g>
     </g>
    </g>
    <g id="text_15">
     <!-- Fitness -->
     <g transform="translate(12.718125 149.120625) rotate(-90) scale(0.12 -0.12)">
      <defs>
       <path id="DejaVuSans-46" d="M 628 4666 
L 3309 4666 
L 3309 4134 
L 1259 4134 
L 1259 2759 
L 3109 2759 
L 3109 2228 
L 1259 2228 
L 1259 0 
L 628 0 
L 628 4666 
z
" transform="scale(0.015625)"/>
      </defs>
      <use xlink:href="#DejaVuSans-46"/>
      <use xlink:href="#DejaVuSans-69" x="50.269531"/>
      <use xlink:href="#DejaVuSans-74" x="78.052734"/>
      <use xlink:href="#DejaVuSans-6e" x="117.261719"/>
      <use xlink:href="#DejaVuSans-65" x="180.640625"/>
      <use xlink:href="#DejaVuSans-73" x="242.164062"/>
      <use xlink:href="#DejaVuSans-73" x="294.263672"/>
     </g>
    </g>
   </g>
   <g id="line2d_138">
    <path d="M 63.257557 47.962498 
L 63.867504 44.47634 
L 66.307293 44.477087 
L 66.91724 44.107082 
L 67.527187 41.05836 
L 68.137134 38.613566 
L 68.747081 37.804157 
L 72.406764 37.804201 
L 73.016711 31.585866 
L 76.676394 31.585568 
L 77.286342 30.961556 
L 81.555972 30.929852 
L 82.165919 22.027893 
L 84.605708 22.027839 
L 85.215655 21.711382 
L 85.825602 20.549199 
L 86.435549 20.005643 
L 88.265391 20.00564 
L 88.875338 19.747558 
L 89.485285 19.747543 
L 90.095232 19.484624 
L 98.024545 19.484454 
L 98.634493 19.266992 
L 111.443383 19.266948 
L 112.05333 18.929836 
L 118.152802 18.922292 
L 118.762749 18.238579 
L 132.181587 18.238559 
L 132.791534 17.991203 
L 134.011428 17.991216 
L 134.621375 17.5172 
L 138.891006 17.517211 
L 139.500953 17.054704 
L 141.330794 17.054692 
L 141.940741 16.756779 
L 143.770583 16.756754 
L 144.38053 16.533279 
L 152.91979 16.445151 
L 153.529738 16.281203 
L 154.749632 16.281198 
L 155.359579 15.862339 
L 233.432816 15.783225 
L 235.262658 15.737366 
L 248.681496 15.737343 
L 249.291443 15.508998 
L 259.050597 15.405936 
L 260.880439 15.361209 
L 271.249541 15.361131 
L 272.469435 15.083264 
L 303.576741 14.97612 
L 308.456318 14.961187 
L 367.621193 14.940003 
L 367.621193 14.940003 
" clip-path="url(#p4eb91b9e4a)" style="fill: none; stroke: #000000; stroke-linecap: square"/>
   </g>
   <g id="line2d_139">
    <path d="M 63.257557 194.969953 
L 63.867504 149.196954 
L 64.477451 183.761264 
L 65.087398 134.545192 
L 65.697345 133.965454 
L 66.307293 118.023112 
L 66.91724 122.961622 
L 67.527187 117.152167 
L 68.137134 157.977817 
L 68.747081 123.894394 
L 69.357028 118.056724 
L 69.966976 118.632746 
L 70.576923 129.884671 
L 71.18687 106.564365 
L 71.796817 103.801092 
L 72.406764 116.929057 
L 73.016711 117.819047 
L 73.626659 108.35766 
L 74.236606 135.535716 
L 74.846553 120.708257 
L 75.4565 112.031522 
L 76.066447 135.521233 
L 76.676394 114.43148 
L 77.286342 119.503566 
L 77.896289 92.786104 
L 78.506236 90.509005 
L 79.116183 95.003861 
L 80.336077 76.772876 
L 81.555972 46.372896 
L 82.165919 48.429228 
L 82.775866 49.462267 
L 83.385813 48.659598 
L 83.99576 43.27728 
L 84.605708 45.685925 
L 85.215655 37.855575 
L 85.825602 41.660129 
L 86.435549 39.311059 
L 87.045496 35.734835 
L 87.655444 37.807211 
L 88.265391 35.187287 
L 88.875338 38.328165 
L 89.485285 32.45975 
L 90.095232 38.893077 
L 90.705179 40.103323 
L 91.315127 38.348507 
L 91.925074 33.71276 
L 93.144968 36.290376 
L 93.754915 31.48806 
L 94.364862 31.21268 
L 94.97481 33.738657 
L 95.584757 30.147546 
L 96.194704 32.592403 
L 96.804651 29.912291 
L 97.414598 35.062092 
L 98.024545 29.001889 
L 98.634493 28.790454 
L 99.24444 26.455364 
L 99.854387 28.571329 
L 100.464334 31.208783 
L 101.074281 26.398519 
L 101.684228 25.587789 
L 102.294176 26.119815 
L 102.904123 24.958718 
L 103.51407 25.200852 
L 104.124017 26.96642 
L 104.733964 31.350674 
L 105.343911 27.535312 
L 105.953859 27.257243 
L 107.173753 27.755852 
L 107.7837 24.925268 
L 108.393647 25.659239 
L 109.003594 24.458309 
L 110.223489 22.778801 
L 110.833436 23.404358 
L 111.443383 23.52389 
L 112.05333 25.07954 
L 112.663277 24.789691 
L 113.273225 23.195023 
L 113.883172 24.487824 
L 114.493119 24.701187 
L 115.103066 25.179187 
L 115.713013 22.987001 
L 116.32296 21.938778 
L 116.932908 22.226063 
L 117.542855 21.697221 
L 118.152802 24.716026 
L 118.762749 23.499051 
L 119.372696 23.281426 
L 119.982643 21.709359 
L 121.202538 24.237629 
L 121.812485 27.020256 
L 122.422432 22.396268 
L 123.032379 20.761128 
L 123.642326 21.995278 
L 124.252274 21.607486 
L 124.862221 23.645245 
L 125.472168 21.638711 
L 126.082115 22.454876 
L 126.692062 23.459854 
L 127.302009 23.658093 
L 127.911957 21.820206 
L 128.521904 21.920364 
L 129.131851 21.038281 
L 129.741798 22.308176 
L 130.351745 25.402916 
L 130.961692 25.767224 
L 131.57164 24.450179 
L 132.181587 25.974927 
L 132.791534 23.401336 
L 133.401481 23.923302 
L 134.011428 21.033607 
L 134.621375 21.069259 
L 135.231323 20.897074 
L 135.84127 21.192955 
L 136.451217 22.083468 
L 137.061164 22.530481 
L 137.671111 20.595328 
L 138.281058 21.982845 
L 138.891006 20.46284 
L 139.500953 22.043024 
L 140.1109 21.550403 
L 140.720847 20.264286 
L 141.330794 20.85105 
L 141.940741 21.134787 
L 142.550689 20.369908 
L 143.160636 20.095529 
L 143.770583 23.070539 
L 144.38053 23.350589 
L 145.600424 21.621836 
L 146.210372 21.726602 
L 147.430266 19.363736 
L 148.040213 20.704378 
L 148.65016 20.9573 
L 149.260107 23.442245 
L 149.870055 19.918931 
L 150.480002 20.046158 
L 151.089949 20.819981 
L 151.699896 20.032962 
L 152.309843 20.932405 
L 152.91979 22.236707 
L 153.529738 21.656042 
L 154.139685 24.299786 
L 154.749632 21.636388 
L 155.359579 23.482899 
L 155.969526 22.158085 
L 156.579473 23.431079 
L 157.189421 21.526122 
L 157.799368 20.389606 
L 158.409315 18.677046 
L 159.019262 19.555023 
L 159.629209 19.846379 
L 160.239156 23.897801 
L 161.459051 22.483483 
L 162.068998 21.11634 
L 162.678945 20.5494 
L 163.288892 22.974399 
L 163.898839 21.255595 
L 164.508787 20.804006 
L 165.118734 20.535871 
L 165.728681 19.905628 
L 166.338628 23.555947 
L 166.948575 22.497548 
L 167.558522 22.299501 
L 168.16847 20.072417 
L 168.778417 22.553433 
L 169.388364 20.777567 
L 169.998311 20.852394 
L 170.608258 19.774614 
L 171.218205 19.690506 
L 171.828153 22.956541 
L 172.4381 22.287863 
L 173.657994 21.621896 
L 174.267941 19.20763 
L 174.877888 19.701362 
L 175.487836 19.436355 
L 176.097783 22.348915 
L 176.70773 22.324417 
L 177.317677 21.993255 
L 177.927624 22.983932 
L 178.537571 22.100714 
L 179.147519 26.719272 
L 179.757466 24.020505 
L 180.367413 22.233753 
L 180.97736 27.837045 
L 181.587307 24.026352 
L 182.197254 22.087197 
L 182.807202 21.732398 
L 183.417149 20.504898 
L 184.027096 22.418283 
L 184.637043 21.711615 
L 185.24699 21.852918 
L 185.856937 21.748759 
L 186.466885 20.551209 
L 187.076832 19.600023 
L 187.686779 19.574591 
L 188.296726 21.819025 
L 188.906673 20.785815 
L 189.51662 21.273555 
L 190.126568 21.48104 
L 190.736515 21.267655 
L 191.346462 22.571021 
L 191.956409 23.469835 
L 192.566356 19.460433 
L 193.176303 21.086147 
L 193.786251 19.542997 
L 195.616092 18.374616 
L 196.226039 20.32015 
L 196.835986 19.302574 
L 197.445934 19.066568 
L 198.055881 18.683181 
L 198.665828 18.993164 
L 199.885722 20.131727 
L 200.495669 19.653046 
L 201.105617 20.259168 
L 201.715564 19.818238 
L 202.325511 20.862464 
L 202.935458 19.158522 
L 203.545405 19.988253 
L 204.155352 19.337209 
L 204.7653 19.436671 
L 205.375247 20.414665 
L 205.985194 19.857697 
L 206.595141 22.297891 
L 207.205088 19.966752 
L 207.815035 20.706696 
L 208.424983 21.953449 
L 209.03493 21.47054 
L 209.644877 19.344971 
L 210.254824 20.000164 
L 210.864771 20.058715 
L 211.474718 21.505847 
L 212.084666 23.280028 
L 212.694613 23.765953 
L 213.914507 22.254941 
L 214.524454 20.355153 
L 215.134401 21.9294 
L 215.744349 22.562982 
L 216.354296 21.919172 
L 216.964243 22.790581 
L 217.57419 19.888958 
L 218.184137 20.157539 
L 218.794084 19.991616 
L 219.404032 20.05795 
L 220.013979 19.390632 
L 220.623926 22.096425 
L 221.233873 21.248307 
L 221.84382 22.876871 
L 222.453767 19.637909 
L 223.063715 18.322424 
L 223.673662 20.114181 
L 224.283609 17.927755 
L 224.893556 17.865542 
L 225.503503 19.16309 
L 226.11345 19.901186 
L 226.723398 20.030299 
L 227.333345 21.996398 
L 227.943292 22.137758 
L 228.553239 23.443312 
L 229.163186 20.635349 
L 229.773133 22.588159 
L 230.993028 21.817967 
L 231.602975 20.839111 
L 232.212922 20.830306 
L 232.822869 20.589087 
L 233.432816 19.832347 
L 234.042764 21.256238 
L 234.652711 22.217772 
L 235.262658 22.739045 
L 235.872605 21.604901 
L 236.482552 21.366044 
L 237.092499 20.048585 
L 237.702447 20.092718 
L 238.312394 19.775669 
L 238.922341 20.483796 
L 239.532288 20.077578 
L 240.142235 21.269793 
L 240.752182 19.534449 
L 241.36213 19.909328 
L 241.972077 19.123007 
L 242.582024 21.881628 
L 243.191971 19.994152 
L 243.801918 22.631167 
L 244.411865 21.904211 
L 245.021813 23.945314 
L 245.63176 20.20816 
L 246.241707 18.6211 
L 247.461601 21.555153 
L 248.071548 21.083744 
L 248.681496 17.986256 
L 249.291443 17.305476 
L 249.90139 19.583995 
L 250.511337 18.970323 
L 251.121284 22.761454 
L 251.731231 22.731495 
L 252.341179 21.904423 
L 252.951126 23.048726 
L 253.561073 20.830485 
L 254.17102 20.917363 
L 255.390914 23.690675 
L 256.000862 23.368237 
L 256.610809 25.927213 
L 257.220756 23.64007 
L 257.830703 22.620445 
L 258.44065 23.765106 
L 259.050597 20.141632 
L 259.660545 19.211266 
L 260.270492 18.574177 
L 260.880439 19.983388 
L 261.490386 23.634723 
L 262.100333 21.228963 
L 262.71028 20.818304 
L 263.320228 19.796204 
L 263.930175 19.513892 
L 264.540122 20.326492 
L 265.150069 22.231195 
L 265.760016 23.338534 
L 266.369963 21.568676 
L 266.979911 22.736374 
L 267.589858 23.236301 
L 268.199805 24.769496 
L 268.809752 21.752949 
L 269.419699 19.417155 
L 270.029646 17.762978 
L 270.639594 19.306256 
L 271.249541 19.340866 
L 271.859488 18.668549 
L 272.469435 18.345042 
L 273.079382 19.643506 
L 273.689329 18.121637 
L 274.299277 20.535241 
L 274.909224 18.499506 
L 275.519171 17.32813 
L 276.129118 17.630466 
L 276.739065 16.924491 
L 277.349012 16.909329 
L 277.95896 18.696406 
L 278.568907 20.113078 
L 279.178854 19.801977 
L 280.398748 22.617653 
L 281.008695 19.045689 
L 281.618643 19.402043 
L 282.22859 20.980265 
L 282.838537 19.314021 
L 283.448484 19.080535 
L 284.058431 20.106816 
L 284.668378 18.064463 
L 285.888273 17.28874 
L 286.49822 19.499046 
L 287.108167 19.528511 
L 287.718114 16.875913 
L 288.328061 16.544997 
L 288.938009 18.258772 
L 289.547956 20.794357 
L 290.157903 18.855386 
L 290.76785 17.945686 
L 291.377797 20.010337 
L 291.987744 22.508098 
L 292.597692 21.91476 
L 293.207639 19.916211 
L 293.817586 21.385581 
L 294.427533 20.869741 
L 295.03748 19.912569 
L 295.647427 21.349208 
L 296.257375 20.936949 
L 296.867322 19.69729 
L 297.477269 19.747829 
L 298.697163 19.019665 
L 299.30711 19.544743 
L 299.917058 18.283993 
L 300.527005 19.028339 
L 301.136952 17.290126 
L 301.746899 19.211524 
L 302.356846 18.210677 
L 302.966793 17.940532 
L 303.576741 17.895144 
L 304.186688 17.450895 
L 304.796635 20.298782 
L 305.406582 19.377421 
L 306.016529 20.201851 
L 306.626476 18.309647 
L 307.846371 20.228173 
L 308.456318 20.83944 
L 309.066265 19.579311 
L 309.676212 21.345769 
L 310.286159 19.956531 
L 310.896107 19.044083 
L 311.506054 18.441207 
L 312.116001 18.439526 
L 312.725948 18.236365 
L 313.335895 18.560136 
L 313.945842 17.784943 
L 314.55579 17.384891 
L 315.165737 18.672624 
L 315.775684 17.051674 
L 316.385631 17.352503 
L 316.995578 16.293772 
L 317.605525 15.932526 
L 318.215473 17.252483 
L 318.82542 16.622738 
L 319.435367 18.201259 
L 320.045314 18.515126 
L 320.655261 17.671063 
L 321.875156 16.481415 
L 323.09505 20.133949 
L 323.704997 18.729758 
L 324.924891 18.572875 
L 325.534839 18.895144 
L 326.144786 17.824771 
L 326.754733 18.899381 
L 327.36468 19.416934 
L 327.974627 20.936213 
L 328.584574 18.612796 
L 329.194522 19.762557 
L 329.804469 17.510697 
L 330.414416 17.05399 
L 331.024363 18.104514 
L 332.244257 18.095302 
L 332.854205 18.268959 
L 333.464152 17.191262 
L 334.074099 19.134952 
L 334.684046 17.192236 
L 335.293993 16.407204 
L 335.90394 16.106265 
L 336.513888 18.738871 
L 337.123835 15.905348 
L 337.733782 18.608885 
L 338.343729 18.71857 
L 339.563623 16.949616 
L 340.783518 18.485221 
L 341.393465 16.175999 
L 342.003412 16.015894 
L 342.613359 16.79304 
L 343.223306 18.232691 
L 343.833254 18.55785 
L 344.443201 17.447421 
L 345.053148 17.075943 
L 345.663095 17.814336 
L 346.273042 16.335623 
L 346.88299 16.752139 
L 347.492937 18.799432 
L 348.102884 18.031859 
L 348.712831 18.521112 
L 349.322778 17.070913 
L 349.932725 17.218062 
L 351.15262 16.748679 
L 351.762567 17.881859 
L 352.372514 19.887222 
L 352.982461 20.654237 
L 353.592408 22.39464 
L 354.202356 20.725787 
L 354.812303 18.27621 
L 355.42225 19.650602 
L 356.032197 20.527662 
L 356.642144 19.097736 
L 357.252091 21.834256 
L 357.862039 21.256868 
L 358.471986 20.11271 
L 359.081933 21.906004 
L 359.69188 21.335274 
L 360.301827 20.928752 
L 360.911774 20.271453 
L 361.521722 19.848413 
L 362.131669 19.209377 
L 362.741616 19.029265 
L 363.351563 20.808485 
L 363.96151 20.220098 
L 364.571457 20.255019 
L 365.181405 18.861605 
L 365.791352 17.122746 
L 366.401299 17.720145 
L 367.011246 17.951593 
L 367.621193 19.015447 
L 367.621193 19.015447 
" clip-path="url(#p4eb91b9e4a)" style="fill: none; stroke-dasharray: 3.7,1.6; stroke-dashoffset: 0; stroke: #000000"/>
   </g>
   <g id="patch_3">
    <path d="M 48.039375 253.08 
L 48.039375 3.6 
" style="fill: none; stroke: #000000; stroke-width: 0.5; stroke-linejoin: miter; stroke-linecap: square"/>
   </g>
   <g id="patch_4">
    <path d="M 382.839375 253.08 
L 382.839375 3.6 
" style="fill: none; stroke: #000000; stroke-width: 0.5; stroke-linejoin: miter; stroke-linecap: square"/>
   </g>
   <g id="patch_5">
    <path d="M 48.039375 253.08 
L 382.839375 253.08 
" style="fill: none; stroke: #000000; stroke-width: 0.5; stroke-linejoin: miter; stroke-linecap: square"/>
   </g>
   <g id="patch_6">
    <path d="M 48.039375 3.6 
L 382.839375 3.6 
" style="fill: none; stroke: #000000; stroke-width: 0.5; stroke-linejoin: miter; stroke-linecap: square"/>
   </g>
   <g id="legend_1">
    <g id="patch_7">
     <path d="M 256.633125 247.08 
L 374.439375 247.08 
Q 376.839375 247.08 376.839375 244.68 
L 376.839375 193.03875 
Q 376.839375 190.63875 374.439375 190.63875 
L 256.633125 190.63875 
Q 254.233125 190.63875 254.233125 193.03875 
L 254.233125 244.68 
Q 254.233125 247.08 256.633125 247.08 
z
" style="fill: #ffffff; opacity: 0.8; stroke: #cccccc; stroke-linejoin: miter"/>
    </g>
    <g id="line2d_140">
     <path d="M 259.033125 200.356875 
L 271.033125 200.356875 
L 283.033125 200.356875 
" style="fill: none; stroke: #000000; stroke-linecap: square"/>
    </g>
    <g id="text_16">
     <!-- Max fitness -->
     <g transform="translate(292.633125 204.556875) scale(0.12 -0.12)">
      <defs>
       <path id="DejaVuSans-4d" d="M 628 4666 
L 1569 4666 
L 2759 1491 
L 3956 4666 
L 4897 4666 
L 4897 0 
L 4281 0 
L 4281 4097 
L 3078 897 
L 2444 897 
L 1241 4097 
L 1241 0 
L 628 0 
L 628 4666 
z
" transform="scale(0.015625)"/>
       <path id="DejaVuSans-78" d="M 3513 3500 
L 2247 1797 
L 3578 0 
L 2900 0 
L 1881 1375 
L 863 0 
L 184 0 
L 1544 1831 
L 300 3500 
L 978 3500 
L 1906 2253 
L 2834 3500 
L 3513 3500 
z
" transform="scale(0.015625)"/>
       <path id="DejaVuSans-20" transform="scale(0.015625)"/>
       <path id="DejaVuSans-66" d="M 2375 4863 
L 2375 4384 
L 1825 4384 
Q 1516 4384 1395 4259 
Q 1275 4134 1275 3809 
L 1275 3500 
L 2222 3500 
L 2222 3053 
L 1275 3053 
L 1275 0 
L 697 0 
L 697 3053 
L 147 3053 
L 147 3500 
L 697 3500 
L 697 3744 
Q 697 4328 969 4595 
Q 1241 4863 1831 4863 
L 2375 4863 
z
" transform="scale(0.015625)"/>
      </defs>
      <use xlink:href="#DejaVuSans-4d"/>
      <use xlink:href="#DejaVuSans-61" x="86.279297"/>
      <use xlink:href="#DejaVuSans-78" x="147.558594"/>
      <use xlink:href="#DejaVuSans-20" x="206.738281"/>
      <use xlink:href="#DejaVuSans-66" x="238.525391"/>
      <use xlink:href="#DejaVuSans-69" x="273.730469"/>
      <use xlink:href="#DejaVuSans-74" x="301.513672"/>
      <use xlink:href="#DejaVuSans-6e" x="340.722656"/>
      <use xlink:href="#DejaVuSans-65" x="404.101562"/>
      <use xlink:href="#DejaVuSans-73" x="465.625"/>
      <use xlink:href="#DejaVuSans-73" x="517.724609"/>
     </g>
    </g>
    <g id="patch_8">
     <path d="M 259.033125 222.170625 
L 283.033125 222.170625 
L 283.033125 213.770625 
L 259.033125 213.770625 
z
" style="fill: #0000ff; fill-opacity: 0.2; stroke: #0000ff; stroke-opacity: 0.2; stroke-linejoin: miter"/>
    </g>
    <g id="text_17">
     <!-- Top 90% -->
     <g transform="translate(292.633125 222.170625) scale(0.12 -0.12)">
      <defs>
       <path id="DejaVuSans-54" d="M -19 4666 
L 3928 4666 
L 3928 4134 
L 2272 4134 
L 2272 0 
L 1638 0 
L 1638 4134 
L -19 4134 
L -19 4666 
z
" transform="scale(0.015625)"/>
       <path id="DejaVuSans-70" d="M 1159 525 
L 1159 -1331 
L 581 -1331 
L 581 3500 
L 1159 3500 
L 1159 2969 
Q 1341 3281 1617 3432 
Q 1894 3584 2278 3584 
Q 2916 3584 3314 3078 
Q 3713 2572 3713 1747 
Q 3713 922 3314 415 
Q 2916 -91 2278 -91 
Q 1894 -91 1617 61 
Q 1341 213 1159 525 
z
M 3116 1747 
Q 3116 2381 2855 2742 
Q 2594 3103 2138 3103 
Q 1681 3103 1420 2742 
Q 1159 2381 1159 1747 
Q 1159 1113 1420 752 
Q 1681 391 2138 391 
Q 2594 391 2855 752 
Q 3116 1113 3116 1747 
z
" transform="scale(0.015625)"/>
       <path id="DejaVuSans-39" d="M 703 97 
L 703 672 
Q 941 559 1184 500 
Q 1428 441 1663 441 
Q 2288 441 2617 861 
Q 2947 1281 2994 2138 
Q 2813 1869 2534 1725 
Q 2256 1581 1919 1581 
Q 1219 1581 811 2004 
Q 403 2428 403 3163 
Q 403 3881 828 4315 
Q 1253 4750 1959 4750 
Q 2769 4750 3195 4129 
Q 3622 3509 3622 2328 
Q 3622 1225 3098 567 
Q 2575 -91 1691 -91 
Q 1453 -91 1209 -44 
Q 966 3 703 97 
z
M 1959 2075 
Q 2384 2075 2632 2365 
Q 2881 2656 2881 3163 
Q 2881 3666 2632 3958 
Q 2384 4250 1959 4250 
Q 1534 4250 1286 3958 
Q 1038 3666 1038 3163 
Q 1038 2656 1286 2365 
Q 1534 2075 1959 2075 
z
" transform="scale(0.015625)"/>
       <path id="DejaVuSans-25" d="M 4653 2053 
Q 4381 2053 4226 1822 
Q 4072 1591 4072 1178 
Q 4072 772 4226 539 
Q 4381 306 4653 306 
Q 4919 306 5073 539 
Q 5228 772 5228 1178 
Q 5228 1588 5073 1820 
Q 4919 2053 4653 2053 
z
M 4653 2450 
Q 5147 2450 5437 2106 
Q 5728 1763 5728 1178 
Q 5728 594 5436 251 
Q 5144 -91 4653 -91 
Q 4153 -91 3862 251 
Q 3572 594 3572 1178 
Q 3572 1766 3864 2108 
Q 4156 2450 4653 2450 
z
M 1428 4353 
Q 1159 4353 1004 4120 
Q 850 3888 850 3481 
Q 850 3069 1003 2837 
Q 1156 2606 1428 2606 
Q 1700 2606 1854 2837 
Q 2009 3069 2009 3481 
Q 2009 3884 1853 4118 
Q 1697 4353 1428 4353 
z
M 4250 4750 
L 4750 4750 
L 1831 -91 
L 1331 -91 
L 4250 4750 
z
M 1428 4750 
Q 1922 4750 2215 4408 
Q 2509 4066 2509 3481 
Q 2509 2891 2217 2550 
Q 1925 2209 1428 2209 
Q 931 2209 642 2551 
Q 353 2894 353 3481 
Q 353 4063 643 4406 
Q 934 4750 1428 4750 
z
" transform="scale(0.015625)"/>
      </defs>
      <use xlink:href="#DejaVuSans-54"/>
      <use xlink:href="#DejaVuSans-6f" x="44.083984"/>
      <use xlink:href="#DejaVuSans-70" x="105.265625"/>
      <use xlink:href="#DejaVuSans-20" x="168.742188"/>
      <use xlink:href="#DejaVuSans-39" x="200.529297"/>
      <use xlink:href="#DejaVuSans-30" x="264.152344"/>
      <use xlink:href="#DejaVuSans-25" x="327.775391"/>
     </g>
    </g>
    <g id="line2d_141">
     <path d="M 259.033125 235.584375 
L 271.033125 235.584375 
L 283.033125 235.584375 
" style="fill: none; stroke-dasharray: 3.7,1.6; stroke-dashoffset: 0; stroke: #000000"/>
    </g>
    <g id="text_18">
     <!-- Fitness mean -->
     <g transform="translate(292.633125 239.784375) scale(0.12 -0.12)">
      <defs>
       <path id="DejaVuSans-6d" d="M 3328 2828 
Q 3544 3216 3844 3400 
Q 4144 3584 4550 3584 
Q 5097 3584 5394 3201 
Q 5691 2819 5691 2113 
L 5691 0 
L 5113 0 
L 5113 2094 
Q 5113 2597 4934 2840 
Q 4756 3084 4391 3084 
Q 3944 3084 3684 2787 
Q 3425 2491 3425 1978 
L 3425 0 
L 2847 0 
L 2847 2094 
Q 2847 2600 2669 2842 
Q 2491 3084 2119 3084 
Q 1678 3084 1418 2786 
Q 1159 2488 1159 1978 
L 1159 0 
L 581 0 
L 581 3500 
L 1159 3500 
L 1159 2956 
Q 1356 3278 1631 3431 
Q 1906 3584 2284 3584 
Q 2666 3584 2933 3390 
Q 3200 3197 3328 2828 
z
" transform="scale(0.015625)"/>
      </defs>
      <use xlink:href="#DejaVuSans-46"/>
      <use xlink:href="#DejaVuSans-69" x="50.269531"/>
      <use xlink:href="#DejaVuSans-74" x="78.052734"/>
      <use xlink:href="#DejaVuSans-6e" x="117.261719"/>
      <use xlink:href="#DejaVuSans-65" x="180.640625"/>
      <use xlink:href="#DejaVuSans-73" x="242.164062"/>
      <use xlink:href="#DejaVuSans-73" x="294.263672"/>
      <use xlink:href="#DejaVuSans-20" x="346.363281"/>
      <use xlink:href="#DejaVuSans-6d" x="378.150391"/>
      <use xlink:href="#DejaVuSans-65" x="475.5625"/>
      <use xlink:href="#DejaVuSans-61" x="537.085938"/>
      <use xlink:href="#DejaVuSans-6e" x="598.365234"/>
     </g>
    </g>
   </g>
  </g>
 </g>
 <defs>
  <clipPath id="p4eb91b9e4a">
   <rect x="48.039375" y="3.6" width="334.8" height="249.48"/>
  </clipPath>
 </defs>
</svg>
