<?xml version="1.0" encoding="utf-8" standalone="no"?>
<!DOCTYPE svg PUBLIC "-//W3C//DTD SVG 1.1//EN"
  "http://www.w3.org/Graphics/SVG/1.1/DTD/svg11.dtd">
<svg xmlns:xlink="http://www.w3.org/1999/xlink" width="386.439375pt" height="287.4075pt" viewBox="0 0 386.439375 287.4075" xmlns="http://www.w3.org/2000/svg" version="1.1">
 <metadata>
  <rdf:RDF xmlns:dc="http://purl.org/dc/elements/1.1/" xmlns:cc="http://creativecommons.org/ns#" xmlns:rdf="http://www.w3.org/1999/02/22-rdf-syntax-ns#">
   <cc:Work>
    <dc:type rdf:resource="http://purl.org/dc/dcmitype/StillImage"/>
    <dc:date>2024-06-04T10:27:51.792508</dc:date>
    <dc:format>image/svg+xml</dc:format>
    <dc:creator>
     <cc:Agent>
      <dc:title>Matplotlib v3.9.0, https://matplotlib.org/</dc:title>
     </cc:Agent>
    </dc:creator>
   </cc:Work>
  </rdf:RDF>
 </metadata>
 <defs>
  <style type="text/css">*{stroke-linejoin: round; stroke-linecap: butt}</style>
 </defs>
 <g id="figure_1">
  <g id="patch_1">
   <path d="M 0 287.4075 
L 386.439375 287.4075 
L 386.439375 0 
L 0 0 
z
" style="fill: #ffffff"/>
  </g>
  <g id="axes_1">
   <g id="patch_2">
    <path d="M 48.039375 253.08 
L 382.839375 253.08 
L 382.839375 3.6 
L 48.039375 3.6 
z
" style="fill: #ffffff"/>
   </g>
   <g id="PolyCollection_1">
    <defs>
     <path id="m99e8409310" d="M 63.257557 -233.901618 
L 63.257557 -81.743049 
L 63.867504 -70.61805 
L 64.477451 -128.099627 
L 65.087398 -113.807986 
L 65.697345 -68.729211 
L 66.307293 -82.032066 
L 66.91724 -57.200397 
L 67.527187 -45.6675 
L 68.137134 -109.587924 
L 68.747081 -136.729428 
L 69.357028 -130.633667 
L 69.966976 -128.927918 
L 70.576923 -78.301321 
L 71.18687 -119.423303 
L 71.796817 -147.832862 
L 72.406764 -149.545092 
L 73.016711 -149.955869 
L 73.626659 -155.002597 
L 74.236606 -155.423208 
L 74.846553 -151.301274 
L 75.4565 -155.105862 
L 76.066447 -159.909646 
L 76.676394 -161.141455 
L 77.286342 -161.338499 
L 77.896289 -157.036295 
L 78.506236 -161.185576 
L 79.116183 -160.877099 
L 79.72613 -158.057137 
L 80.336077 -159.983288 
L 80.946025 -157.951627 
L 81.555972 -167.555494 
L 82.165919 -168.621752 
L 82.775866 -170.074666 
L 83.385813 -169.408775 
L 83.99576 -170.681819 
L 84.605708 -210.44242 
L 85.215655 -170.279306 
L 85.825602 -170.54416 
L 86.435549 -169.446593 
L 87.045496 -170.786962 
L 87.655444 -171.293589 
L 88.265391 -207.716848 
L 88.875338 -169.711391 
L 89.485285 -168.454146 
L 90.095232 -169.141312 
L 90.705179 -167.336845 
L 91.315127 -159.983819 
L 91.925074 -163.428605 
L 92.535021 -164.241993 
L 93.144968 -166.909162 
L 93.754915 -167.72575 
L 94.364862 -167.72575 
L 94.97481 -165.228286 
L 95.584757 -168.917059 
L 96.194704 -169.38498 
L 96.804651 -167.72575 
L 97.414598 -168.693231 
L 98.024545 -168.802122 
L 98.634493 -170.545729 
L 99.24444 -171.108399 
L 99.854387 -216.480821 
L 100.464334 -216.480828 
L 101.074281 -221.777736 
L 101.684228 -247.654263 
L 102.294176 -248.633286 
L 102.904123 -252.421771 
L 103.51407 -258.168284 
L 104.124017 -256.270195 
L 104.733964 -261.078552 
L 105.343911 -261.220372 
L 105.953859 -261.220339 
L 106.563806 -261.547368 
L 107.173753 -261.078586 
L 107.7837 -261.07859 
L 108.393647 -261.608554 
L 109.003594 -261.608485 
L 109.613542 -263.666227 
L 110.223489 -267.293129 
L 110.833436 -267.616344 
L 111.443383 -267.26207 
L 112.05333 -265.01239 
L 112.663277 -263.389949 
L 113.273225 -262.109613 
L 113.883172 -262.109721 
L 114.493119 -261.982498 
L 115.103066 -264.536645 
L 115.713013 -269.29612 
L 116.32296 -268.942752 
L 116.932908 -268.389485 
L 117.542855 -268.942729 
L 118.152802 -268.942726 
L 118.762749 -269.242121 
L 119.372696 -268.942802 
L 119.982643 -265.938931 
L 120.592591 -263.211152 
L 121.202538 -265.938916 
L 121.812485 -267.977258 
L 122.422432 -267.97884 
L 123.032379 -267.637407 
L 123.642326 -265.93886 
L 124.252274 -268.028196 
L 124.862221 -268.144469 
L 125.472168 -265.344918 
L 126.082115 -265.432346 
L 126.692062 -264.814639 
L 127.302009 -264.671381 
L 127.911957 -262.903382 
L 128.521904 -264.572346 
L 129.131851 -264.567433 
L 129.741798 -261.661528 
L 130.351745 -261.661505 
L 130.961692 -265.169775 
L 131.57164 -265.16974 
L 132.181587 -266.702628 
L 132.791534 -266.702629 
L 133.401481 -266.702669 
L 134.011428 -266.776556 
L 134.621375 -265.143702 
L 135.231323 -269.247143 
L 135.84127 -269.473254 
L 136.451217 -264.967118 
L 137.061164 -264.304907 
L 137.671111 -265.902285 
L 138.281058 -264.499516 
L 138.891006 -265.251478 
L 139.500953 -266.045001 
L 140.1109 -265.549205 
L 140.720847 -265.425034 
L 141.330794 -265.301018 
L 141.940741 -267.159969 
L 142.550689 -268.550694 
L 143.160636 -268.595708 
L 143.770583 -268.385419 
L 144.38053 -266.588749 
L 144.990477 -265.545903 
L 145.600424 -266.030341 
L 146.210372 -266.030223 
L 146.820319 -267.490302 
L 147.430266 -268.49103 
L 148.040213 -268.457929 
L 148.65016 -268.892094 
L 149.260107 -269.05848 
L 149.870055 -267.20392 
L 150.480002 -266.887701 
L 151.089949 -266.887686 
L 151.699896 -267.593506 
L 152.309843 -267.554295 
L 152.91979 -267.840087 
L 153.529738 -265.722314 
L 154.139685 -264.121716 
L 154.749632 -269.455141 
L 155.359579 -269.988325 
L 155.969526 -269.790071 
L 156.579473 -269.988349 
L 157.189421 -267.12557 
L 157.799368 -265.323224 
L 158.409315 -260.032778 
L 159.019262 -257.420907 
L 159.629209 -260.032759 
L 160.239156 -261.233397 
L 160.849104 -262.423127 
L 161.459051 -267.253958 
L 162.068998 -267.125435 
L 162.678945 -267.125301 
L 163.288892 -267.125431 
L 163.898839 -266.978704 
L 164.508787 -267.12543 
L 165.118734 -267.125419 
L 165.728681 -267.125448 
L 166.338628 -267.125404 
L 166.948575 -265.963982 
L 167.558522 -265.963983 
L 168.16847 -266.786331 
L 168.778417 -261.581298 
L 169.388364 -262.177559 
L 169.998311 -266.442839 
L 170.608258 -266.442953 
L 171.218205 -266.442966 
L 171.828153 -266.443019 
L 172.4381 -265.826193 
L 173.048047 -266.982172 
L 173.657994 -267.999408 
L 174.267941 -267.881422 
L 174.877888 -270.039069 
L 175.487836 -270.039074 
L 176.097783 -270.690011 
L 176.70773 -270.07844 
L 177.317677 -270.078595 
L 177.927624 -265.016141 
L 178.537571 -265.016088 
L 179.147519 -263.072319 
L 179.757466 -266.892101 
L 180.367413 -264.676125 
L 180.97736 -263.145697 
L 181.587307 -264.170539 
L 182.197254 -266.163426 
L 182.807202 -267.319614 
L 183.417149 -267.97887 
L 184.027096 -267.978896 
L 184.637043 -267.768025 
L 185.24699 -268.890299 
L 185.856937 -270.138837 
L 186.466885 -266.518048 
L 187.076832 -270.68993 
L 187.686779 -269.752828 
L 188.296726 -269.740675 
L 188.906673 -266.097195 
L 189.51662 -265.066738 
L 190.126568 -265.983004 
L 190.736515 -263.038532 
L 191.346462 -264.149768 
L 191.956409 -262.205538 
L 192.566356 -265.238849 
L 193.176303 -265.956363 
L 193.786251 -264.288015 
L 194.396198 -265.649962 
L 195.006145 -265.262155 
L 195.616092 -264.752276 
L 196.226039 -263.261058 
L 196.835986 -262.996271 
L 197.445934 -262.131734 
L 198.055881 -262.504571 
L 198.665828 -264.769467 
L 199.275775 -264.19242 
L 199.885722 -264.107489 
L 200.495669 -263.436781 
L 201.105617 -260.837475 
L 201.715564 -259.246428 
L 202.325511 -259.076467 
L 202.935458 -261.705639 
L 203.545405 -263.842499 
L 204.155352 -265.093807 
L 204.7653 -263.42024 
L 205.375247 -265.196434 
L 205.985194 -266.051471 
L 206.595141 -267.10971 
L 207.205088 -266.170541 
L 207.815035 -261.870554 
L 208.424983 -267.018997 
L 209.03493 -264.187057 
L 209.644877 -268.389317 
L 210.254824 -266.841531 
L 210.864771 -262.3375 
L 211.474718 -260.810618 
L 212.084666 -266.009386 
L 212.694613 -266.225337 
L 213.30456 -266.917128 
L 213.914507 -267.340493 
L 214.524454 -266.917163 
L 215.134401 -264.556077 
L 215.744349 -265.936993 
L 216.354296 -266.917152 
L 216.964243 -264.836116 
L 217.57419 -264.45651 
L 218.184137 -265.492023 
L 218.794084 -265.913907 
L 219.404032 -267.026874 
L 220.013979 -267.026891 
L 220.623926 -268.65668 
L 221.233873 -268.656699 
L 221.84382 -269.144375 
L 222.453767 -268.209607 
L 223.063715 -268.838976 
L 223.673662 -265.316693 
L 224.283609 -264.881894 
L 224.893556 -266.312145 
L 225.503503 -267.675304 
L 226.11345 -267.929563 
L 226.723398 -268.04035 
L 227.333345 -268.163319 
L 227.943292 -265.962071 
L 228.553239 -259.079907 
L 229.163186 -265.63403 
L 229.773133 -262.411516 
L 230.383081 -268.401156 
L 230.993028 -267.845076 
L 231.602975 -266.941823 
L 232.212922 -263.741799 
L 232.822869 -263.956981 
L 233.432816 -264.975397 
L 234.042764 -264.939088 
L 234.652711 -263.67728 
L 235.262658 -263.608344 
L 235.872605 -264.953852 
L 236.482552 -265.968657 
L 237.092499 -264.810478 
L 237.702447 -264.81051 
L 238.312394 -263.228268 
L 238.922341 -261.861813 
L 239.532288 -257.400733 
L 240.142235 -266.463393 
L 240.752182 -265.578141 
L 241.36213 -264.461238 
L 241.972077 -263.625892 
L 242.582024 -264.616113 
L 243.191971 -266.329157 
L 243.801918 -266.345183 
L 244.411865 -263.445521 
L 245.021813 -265.990825 
L 245.63176 -260.443027 
L 246.241707 -259.200655 
L 246.851654 -255.207038 
L 247.461601 -257.367138 
L 248.071548 -252.441616 
L 248.681496 -255.561343 
L 249.291443 -257.12226 
L 249.90139 -259.788841 
L 250.511337 -264.109717 
L 251.121284 -265.714177 
L 251.731231 -265.526717 
L 252.341179 -265.432226 
L 252.951126 -264.109706 
L 253.561073 -264.109679 
L 254.17102 -264.824985 
L 254.780967 -264.824979 
L 255.390914 -264.825006 
L 256.000862 -264.826146 
L 256.610809 -265.011627 
L 257.220756 -267.991462 
L 257.830703 -268.422077 
L 258.44065 -268.417209 
L 259.050597 -268.417204 
L 259.660545 -264.887644 
L 260.270492 -265.916171 
L 260.880439 -266.617173 
L 261.490386 -266.620942 
L 262.100333 -266.011732 
L 262.71028 -267.147865 
L 263.320228 -264.678799 
L 263.930175 -263.749536 
L 264.540122 -261.542391 
L 265.150069 -260.970295 
L 265.760016 -264.1678 
L 266.369963 -261.783661 
L 266.979911 -265.525529 
L 267.589858 -263.421033 
L 268.199805 -265.923409 
L 268.809752 -265.923426 
L 269.419699 -268.387807 
L 270.029646 -267.009515 
L 270.639594 -267.224159 
L 271.249541 -267.407107 
L 271.859488 -268.809684 
L 272.469435 -268.498813 
L 273.079382 -268.218908 
L 273.689329 -267.407108 
L 274.299277 -268.519074 
L 274.909224 -267.255323 
L 275.519171 -264.117797 
L 276.129118 -267.458658 
L 276.739065 -265.872263 
L 277.349012 -262.738559 
L 277.95896 -262.738637 
L 278.568907 -268.392385 
L 279.178854 -268.798122 
L 279.788801 -268.055473 
L 280.398748 -268.055589 
L 281.008695 -265.891435 
L 281.618643 -263.56043 
L 282.22859 -264.086383 
L 282.838537 -263.659406 
L 283.448484 -264.086421 
L 284.058431 -264.114679 
L 284.668378 -259.981215 
L 285.278326 -255.316014 
L 285.888273 -256.128142 
L 286.49822 -256.948271 
L 287.108167 -264.114709 
L 287.718114 -264.492234 
L 288.328061 -263.728631 
L 288.938009 -260.190761 
L 289.547956 -260.86431 
L 290.157903 -262.730649 
L 290.76785 -262.85613 
L 291.377797 -261.651223 
L 291.987744 -263.038091 
L 292.597692 -261.856471 
L 293.207639 -263.106307 
L 293.817586 -264.289114 
L 294.427533 -265.765731 
L 295.03748 -267.233576 
L 295.647427 -267.494402 
L 296.257375 -268.364927 
L 296.867322 -267.765342 
L 297.477269 -268.486 
L 298.087216 -269.755937 
L 298.697163 -270.077667 
L 299.30711 -271.000774 
L 299.917058 -270.077592 
L 300.527005 -263.946363 
L 301.136952 -267.864986 
L 301.746899 -267.864961 
L 302.356846 -267.865016 
L 302.966793 -265.574278 
L 303.576741 -265.541846 
L 304.186688 -265.96973 
L 304.796635 -265.607009 
L 305.406582 -266.048473 
L 306.016529 -266.724352 
L 306.626476 -267.472951 
L 307.236424 -269.50937 
L 307.846371 -269.509338 
L 308.456318 -269.534425 
L 309.066265 -269.509168 
L 309.676212 -269.509427 
L 310.286159 -269.509423 
L 310.896107 -265.592869 
L 311.506054 -265.900306 
L 312.116001 -265.900289 
L 312.725948 -269.629801 
L 313.335895 -267.09111 
L 313.945842 -259.050037 
L 314.55579 -261.84164 
L 315.165737 -261.493004 
L 315.775684 -271.704139 
L 316.385631 -269.631387 
L 316.995578 -267.33223 
L 317.605525 -271.704326 
L 318.215473 -271.704316 
L 318.82542 -271.704299 
L 319.435367 -271.704253 
L 320.045314 -266.159508 
L 320.655261 -265.413333 
L 321.265208 -264.554 
L 321.875156 -265.085768 
L 322.485103 -264.452883 
L 323.09505 -267.336406 
L 323.704997 -266.704554 
L 324.314944 -266.704553 
L 324.924891 -266.361152 
L 325.534839 -266.136635 
L 326.144786 -260.86816 
L 326.754733 -262.688618 
L 327.36468 -267.108962 
L 327.974627 -266.361157 
L 328.584574 -266.361103 
L 329.194522 -266.361157 
L 329.804469 -266.902236 
L 330.414416 -266.902261 
L 331.024363 -266.857413 
L 331.63431 -266.802309 
L 332.244257 -266.178384 
L 332.854205 -267.059808 
L 333.464152 -270.400563 
L 334.074099 -271.0096 
L 334.684046 -271.663701 
L 335.293993 -272.402015 
L 335.90394 -272.40414 
L 336.513888 -272.465143 
L 337.123835 -272.465183 
L 337.733782 -272.404235 
L 338.343729 -272.465202 
L 338.953676 -263.188026 
L 339.563623 -259.562803 
L 340.173571 -260.47832 
L 340.783518 -259.56283 
L 341.393465 -259.382229 
L 342.003412 -259.56285 
L 342.613359 -258.991502 
L 343.223306 -262.90711 
L 343.833254 -266.155136 
L 344.443201 -264.483065 
L 345.053148 -264.340901 
L 345.663095 -264.340935 
L 346.273042 -264.340903 
L 346.88299 -264.340902 
L 347.492937 -263.332227 
L 348.102884 -262.245072 
L 348.712831 -262.913944 
L 349.322778 -259.578234 
L 349.932725 -262.932953 
L 350.542673 -261.691297 
L 351.15262 -264.514745 
L 351.762567 -265.587914 
L 352.372514 -265.131749 
L 352.982461 -265.869407 
L 353.592408 -267.138963 
L 354.202356 -265.587202 
L 354.812303 -265.587265 
L 355.42225 -257.431114 
L 356.032197 -255.840322 
L 356.642144 -255.511043 
L 357.252091 -256.634733 
L 357.862039 -263.556318 
L 358.471986 -264.747538 
L 359.081933 -266.851989 
L 359.69188 -268.9846 
L 360.301827 -268.448148 
L 360.911774 -267.926519 
L 361.521722 -266.218395 
L 362.131669 -266.309462 
L 362.741616 -266.090984 
L 363.351563 -266.309475 
L 363.96151 -266.309476 
L 364.571457 -266.309499 
L 365.181405 -268.295974 
L 365.791352 -270.42867 
L 366.401299 -270.42887 
L 367.011246 -267.699027 
L 367.621193 -267.699033 
L 367.621193 -272.467311 
L 367.621193 -272.467311 
L 367.011246 -272.467308 
L 366.401299 -272.467325 
L 365.791352 -272.46733 
L 365.181405 -272.467295 
L 364.571457 -272.467395 
L 363.96151 -272.467368 
L 363.351563 -272.467315 
L 362.741616 -272.467334 
L 362.131669 -272.467315 
L 361.521722 -272.467367 
L 360.911774 -272.467365 
L 360.301827 -272.467357 
L 359.69188 -272.467379 
L 359.081933 -272.467378 
L 358.471986 -272.467355 
L 357.862039 -272.467389 
L 357.252091 -272.467357 
L 356.642144 -272.467305 
L 356.032197 -272.467355 
L 355.42225 -272.467291 
L 354.812303 -272.46731 
L 354.202356 -272.467312 
L 353.592408 -272.467353 
L 352.982461 -272.467321 
L 352.372514 -272.467311 
L 351.762567 -272.467306 
L 351.15262 -272.467334 
L 350.542673 -272.467292 
L 349.932725 -272.467388 
L 349.322778 -272.467281 
L 348.712831 -272.467335 
L 348.102884 -272.467411 
L 347.492937 -272.467364 
L 346.88299 -272.467355 
L 346.273042 -272.467316 
L 345.663095 -272.467307 
L 345.053148 -272.467325 
L 344.443201 -272.467363 
L 343.833254 -272.467337 
L 343.223306 -272.467334 
L 342.613359 -272.467333 
L 342.003412 -272.467316 
L 341.393465 -272.467374 
L 340.783518 -272.467299 
L 340.173571 -272.467332 
L 339.563623 -272.467344 
L 338.953676 -272.467296 
L 338.343729 -272.467351 
L 337.733782 -272.467327 
L 337.123835 -272.467354 
L 336.513888 -272.467345 
L 335.90394 -272.467328 
L 335.293993 -272.467336 
L 334.684046 -272.467334 
L 334.074099 -272.467322 
L 333.464152 -272.467432 
L 332.854205 -272.467444 
L 332.244257 -272.467329 
L 331.63431 -272.467298 
L 331.024363 -272.467331 
L 330.414416 -272.467396 
L 329.804469 -272.467317 
L 329.194522 -272.467315 
L 328.584574 -272.467329 
L 327.974627 -272.46731 
L 327.36468 -272.46732 
L 326.754733 -272.467357 
L 326.144786 -272.467318 
L 325.534839 -272.467326 
L 324.924891 -272.467349 
L 324.314944 -272.467316 
L 323.704997 -272.467313 
L 323.09505 -272.467322 
L 322.485103 -272.467311 
L 321.875156 -272.467369 
L 321.265208 -272.467382 
L 320.655261 -272.467318 
L 320.045314 -272.467326 
L 319.435367 -272.467356 
L 318.82542 -272.467328 
L 318.215473 -272.467384 
L 317.605525 -272.467317 
L 316.995578 -272.467361 
L 316.385631 -272.467339 
L 315.775684 -272.467315 
L 315.165737 -272.467354 
L 314.55579 -272.467326 
L 313.945842 -272.467324 
L 313.335895 -272.467352 
L 312.725948 -272.467301 
L 312.116001 -272.467313 
L 311.506054 -272.467343 
L 310.896107 -272.467363 
L 310.286159 -272.467364 
L 309.676212 -272.467335 
L 309.066265 -272.467363 
L 308.456318 -272.467341 
L 307.846371 -272.467302 
L 307.236424 -272.467317 
L 306.626476 -272.467355 
L 306.016529 -272.467466 
L 305.406582 -272.467314 
L 304.796635 -272.467335 
L 304.186688 -272.467341 
L 303.576741 -272.467323 
L 302.966793 -272.467349 
L 302.356846 -272.467321 
L 301.746899 -272.467344 
L 301.136952 -272.467329 
L 300.527005 -272.467323 
L 299.917058 -272.467324 
L 299.30711 -272.467321 
L 298.697163 -272.467371 
L 298.087216 -272.467344 
L 297.477269 -272.46731 
L 296.867322 -272.46731 
L 296.257375 -272.467358 
L 295.647427 -272.467376 
L 295.03748 -272.467321 
L 294.427533 -272.4675 
L 293.817586 -272.467311 
L 293.207639 -272.467331 
L 292.597692 -272.46729 
L 291.987744 -272.467335 
L 291.377797 -272.467308 
L 290.76785 -272.467308 
L 290.157903 -272.467335 
L 289.547956 -272.467396 
L 288.938009 -272.467326 
L 288.328061 -272.467333 
L 287.718114 -272.46732 
L 287.108167 -272.467355 
L 286.49822 -272.467348 
L 285.888273 -272.467307 
L 285.278326 -272.467373 
L 284.668378 -272.467343 
L 284.058431 -272.467324 
L 283.448484 -272.467342 
L 282.838537 -272.467306 
L 282.22859 -272.467288 
L 281.618643 -272.467344 
L 281.008695 -272.467314 
L 280.398748 -272.467304 
L 279.788801 -272.467336 
L 279.178854 -272.46736 
L 278.568907 -272.467337 
L 277.95896 -272.467284 
L 277.349012 -272.46728 
L 276.739065 -272.467373 
L 276.129118 -272.467325 
L 275.519171 -272.467307 
L 274.909224 -272.467321 
L 274.299277 -272.46729 
L 273.689329 -272.46728 
L 273.079382 -272.467297 
L 272.469435 -272.467291 
L 271.859488 -272.467252 
L 271.249541 -272.46725 
L 270.639594 -272.467275 
L 270.029646 -272.467237 
L 269.419699 -272.461285 
L 268.809752 -272.461149 
L 268.199805 -272.461187 
L 267.589858 -272.461191 
L 266.979911 -272.461195 
L 266.369963 -272.461176 
L 265.760016 -272.461173 
L 265.150069 -272.461157 
L 264.540122 -272.461176 
L 263.930175 -272.461158 
L 263.320228 -272.461168 
L 262.71028 -272.461139 
L 262.100333 -272.461094 
L 261.490386 -272.410267 
L 260.880439 -272.410265 
L 260.270492 -272.410237 
L 259.660545 -272.410235 
L 259.050597 -272.404979 
L 258.44065 -272.404955 
L 257.830703 -272.40497 
L 257.220756 -272.40497 
L 256.610809 -272.404964 
L 256.000862 -272.404958 
L 255.390914 -272.404954 
L 254.780967 -272.404962 
L 254.17102 -272.404977 
L 253.561073 -272.404943 
L 252.951126 -272.404968 
L 252.341179 -272.404919 
L 251.731231 -272.404922 
L 251.121284 -272.404919 
L 250.511337 -272.404931 
L 249.90139 -272.40491 
L 249.291443 -272.404925 
L 248.681496 -272.404902 
L 248.071548 -272.404913 
L 247.461601 -272.404853 
L 246.851654 -272.400639 
L 246.241707 -272.400704 
L 245.63176 -272.400681 
L 245.021813 -272.400668 
L 244.411865 -272.400684 
L 243.801918 -272.40066 
L 243.191971 -272.400655 
L 242.582024 -272.400645 
L 241.972077 -272.400657 
L 241.36213 -272.400616 
L 240.752182 -272.400622 
L 240.142235 -272.400631 
L 239.532288 -272.400654 
L 238.922341 -272.400647 
L 238.312394 -272.400668 
L 237.702447 -272.400638 
L 237.092499 -272.400685 
L 236.482552 -272.400623 
L 235.872605 -272.400662 
L 235.262658 -272.400637 
L 234.652711 -272.400617 
L 234.042764 -272.400603 
L 233.432816 -272.400614 
L 232.822869 -272.400592 
L 232.212922 -272.400658 
L 231.602975 -272.383623 
L 230.993028 -272.383608 
L 230.383081 -272.383625 
L 229.773133 -272.383624 
L 229.163186 -272.383607 
L 228.553239 -272.38363 
L 227.943292 -272.383527 
L 227.333345 -272.383594 
L 226.723398 -272.383537 
L 226.11345 -272.348706 
L 225.503503 -272.348708 
L 224.893556 -272.348708 
L 224.283609 -272.348739 
L 223.673662 -272.348708 
L 223.063715 -272.348735 
L 222.453767 -272.348716 
L 221.84382 -272.34871 
L 221.233873 -272.348698 
L 220.623926 -272.348711 
L 220.013979 -272.348709 
L 219.404032 -272.348711 
L 218.794084 -272.348702 
L 218.184137 -272.348686 
L 217.57419 -272.348657 
L 216.964243 -272.34867 
L 216.354296 -272.348681 
L 215.744349 -272.3487 
L 215.134401 -272.348667 
L 214.524454 -272.348617 
L 213.914507 -272.348664 
L 213.30456 -272.348667 
L 212.694613 -272.348672 
L 212.084666 -272.348646 
L 211.474718 -272.348657 
L 210.864771 -272.149851 
L 210.254824 -272.067979 
L 209.644877 -272.067977 
L 209.03493 -272.067968 
L 208.424983 -272.067993 
L 207.815035 -272.067953 
L 207.205088 -272.032753 
L 206.595141 -272.032696 
L 205.985194 -272.032755 
L 205.375247 -272.032753 
L 204.7653 -272.032734 
L 204.155352 -272.032745 
L 203.545405 -272.032701 
L 202.935458 -272.032741 
L 202.325511 -272.032728 
L 201.715564 -272.032748 
L 201.105617 -272.032695 
L 200.495669 -272.032766 
L 199.885722 -272.032683 
L 199.275775 -272.032679 
L 198.665828 -272.032694 
L 198.055881 -272.032684 
L 197.445934 -272.032679 
L 196.835986 -272.032646 
L 196.226039 -272.032695 
L 195.616092 -272.032733 
L 195.006145 -272.032676 
L 194.396198 -272.032676 
L 193.786251 -271.763134 
L 193.176303 -271.292929 
L 192.566356 -271.292888 
L 191.956409 -271.000382 
L 191.346462 -271.000377 
L 190.736515 -271.000292 
L 190.126568 -271.000362 
L 189.51662 -271.000291 
L 188.906673 -271.000347 
L 188.296726 -271.000265 
L 187.686779 -271.000375 
L 187.076832 -271.000252 
L 186.466885 -271.000278 
L 185.856937 -271.000137 
L 185.24699 -270.803852 
L 184.637043 -270.803852 
L 184.027096 -270.803848 
L 183.417149 -270.803832 
L 182.807202 -270.803845 
L 182.197254 -270.803853 
L 181.587307 -270.803835 
L 180.97736 -270.803856 
L 180.367413 -270.803857 
L 179.757466 -270.803851 
L 179.147519 -270.803777 
L 178.537571 -270.803835 
L 177.927624 -270.803851 
L 177.317677 -270.803823 
L 176.70773 -270.803851 
L 176.097783 -270.803836 
L 175.487836 -270.803834 
L 174.877888 -270.803844 
L 174.267941 -270.803841 
L 173.657994 -270.803822 
L 173.048047 -270.803849 
L 172.4381 -270.80384 
L 171.828153 -270.803844 
L 171.218205 -270.803819 
L 170.608258 -270.80386 
L 169.998311 -270.803845 
L 169.388364 -270.803844 
L 168.778417 -270.803855 
L 168.16847 -270.803835 
L 167.558522 -270.803821 
L 166.948575 -270.803822 
L 166.338628 -270.803863 
L 165.728681 -270.803846 
L 165.118734 -270.803836 
L 164.508787 -270.803833 
L 163.898839 -270.803855 
L 163.288892 -270.803845 
L 162.678945 -270.803842 
L 162.068998 -270.803836 
L 161.459051 -270.803845 
L 160.849104 -270.80385 
L 160.239156 -270.80381 
L 159.629209 -270.803841 
L 159.019262 -270.803844 
L 158.409315 -270.803852 
L 157.799368 -270.803821 
L 157.189421 -270.803838 
L 156.579473 -270.803857 
L 155.969526 -270.803843 
L 155.359579 -270.803853 
L 154.749632 -270.803846 
L 154.139685 -270.80385 
L 153.529738 -270.803838 
L 152.91979 -270.803862 
L 152.309843 -270.80385 
L 151.699896 -270.803831 
L 151.089949 -270.803821 
L 150.480002 -270.803801 
L 149.870055 -270.803819 
L 149.260107 -270.803817 
L 148.65016 -270.80379 
L 148.040213 -270.80384 
L 147.430266 -270.803845 
L 146.820319 -270.80382 
L 146.210372 -270.803837 
L 145.600424 -270.803733 
L 144.990477 -270.803703 
L 144.38053 -270.803759 
L 143.770583 -270.803738 
L 143.160636 -270.803666 
L 142.550689 -270.803699 
L 141.940741 -270.793603 
L 141.330794 -270.793617 
L 140.720847 -270.793604 
L 140.1109 -270.793606 
L 139.500953 -270.793544 
L 138.891006 -270.774252 
L 138.281058 -270.774237 
L 137.671111 -270.774239 
L 137.061164 -270.774242 
L 136.451217 -270.774239 
L 135.84127 -270.774234 
L 135.231323 -270.774237 
L 134.621375 -270.774226 
L 134.011428 -270.774247 
L 133.401481 -270.774225 
L 132.791534 -270.774243 
L 132.181587 -270.774221 
L 131.57164 -270.774228 
L 130.961692 -270.77424 
L 130.351745 -270.774232 
L 129.741798 -270.774221 
L 129.131851 -270.77424 
L 128.521904 -270.774222 
L 127.911957 -270.774225 
L 127.302009 -270.774209 
L 126.692062 -270.774158 
L 126.082115 -270.774177 
L 125.472168 -270.774165 
L 124.862221 -270.690133 
L 124.252274 -270.690129 
L 123.642326 -270.690143 
L 123.032379 -270.690142 
L 122.422432 -270.690135 
L 121.812485 -270.690148 
L 121.202538 -270.690073 
L 120.592591 -270.690122 
L 119.982643 -270.690153 
L 119.372696 -270.690041 
L 118.762749 -270.690129 
L 118.152802 -270.690132 
L 117.542855 -270.690053 
L 116.932908 -270.690129 
L 116.32296 -270.690047 
L 115.713013 -270.69007 
L 115.103066 -270.690041 
L 114.493119 -270.690112 
L 113.883172 -270.689945 
L 113.273225 -270.601623 
L 112.663277 -270.601618 
L 112.05333 -270.60161 
L 111.443383 -270.601624 
L 110.833436 -270.601608 
L 110.223489 -270.601619 
L 109.613542 -270.601612 
L 109.003594 -270.601619 
L 108.393647 -270.601591 
L 107.7837 -270.601614 
L 107.173753 -270.601602 
L 106.563806 -270.601607 
L 105.953859 -270.601543 
L 105.343911 -270.4635 
L 104.733964 -270.463476 
L 104.124017 -270.463485 
L 103.51407 -270.463476 
L 102.904123 -270.463484 
L 102.294176 -270.117735 
L 101.684228 -270.117605 
L 101.074281 -270.117623 
L 100.464334 -270.025776 
L 99.854387 -270.0257 
L 99.24444 -270.025753 
L 98.634493 -269.296149 
L 98.024545 -269.296121 
L 97.414598 -267.798692 
L 96.804651 -267.798696 
L 96.194704 -267.076119 
L 95.584757 -267.076052 
L 94.97481 -267.076114 
L 94.364862 -267.076093 
L 93.754915 -267.07602 
L 93.144968 -267.076046 
L 92.535021 -267.076064 
L 91.925074 -267.076105 
L 91.315127 -266.349158 
L 90.705179 -266.349167 
L 90.095232 -266.348674 
L 89.485285 -266.349051 
L 88.875338 -266.349487 
L 88.265391 -266.34925 
L 87.655444 -266.348843 
L 87.045496 -265.52277 
L 86.435549 -265.522368 
L 85.825602 -265.522182 
L 85.215655 -265.522505 
L 84.605708 -265.521823 
L 83.99576 -265.52155 
L 83.385813 -265.522727 
L 82.775866 -265.52241 
L 82.165919 -265.522258 
L 81.555972 -265.522292 
L 80.946025 -265.523307 
L 80.336077 -265.523461 
L 79.72613 -265.520826 
L 79.116183 -265.523148 
L 78.506236 -265.52258 
L 77.896289 -262.953563 
L 77.286342 -262.953522 
L 76.676394 -262.953544 
L 76.066447 -262.953512 
L 75.4565 -262.9535 
L 74.846553 -259.996139 
L 74.236606 -259.996063 
L 73.626659 -256.894627 
L 73.016711 -252.005206 
L 72.406764 -252.005185 
L 71.796817 -252.005197 
L 71.18687 -251.369889 
L 70.576923 -251.369861 
L 69.966976 -249.150539 
L 69.357028 -249.150518 
L 68.747081 -248.530821 
L 68.137134 -248.530824 
L 67.527187 -248.530817 
L 66.91724 -247.595424 
L 66.307293 -247.595383 
L 65.697345 -247.595416 
L 65.087398 -247.595333 
L 64.477451 -247.595344 
L 63.867504 -237.251142 
L 63.257557 -233.901618 
z
" style="stroke: #0000ff; stroke-opacity: 0.2"/>
    </defs>
    <g clip-path="url(#p91c05def72)">
     <use xlink:href="#m99e8409310" x="0" y="287.4075" style="fill: #0000ff; fill-opacity: 0.2; stroke: #0000ff; stroke-opacity: 0.2"/>
    </g>
   </g>
   <g id="matplotlib.axis_1">
    <g id="xtick_1">
     <g id="line2d_1">
      <path d="M 63.257557 253.08 
L 63.257557 3.6 
" clip-path="url(#p91c05def72)" style="fill: none; stroke: #b0b0b0; stroke-width: 0.5; stroke-linecap: square"/>
     </g>
     <g id="line2d_2">
      <defs>
       <path id="m75439caec5" d="M 0 0 
L 0 -3 
" style="stroke: #000000; stroke-width: 0.5"/>
      </defs>
      <g>
       <use xlink:href="#m75439caec5" x="63.257557" y="253.08" style="stroke: #000000; stroke-width: 0.5"/>
      </g>
     </g>
     <g id="line2d_3">
      <defs>
       <path id="m3e97a6348f" d="M 0 0 
L 0 3 
" style="stroke: #000000; stroke-width: 0.5"/>
      </defs>
      <g>
       <use xlink:href="#m3e97a6348f" x="63.257557" y="3.6" style="stroke: #000000; stroke-width: 0.5"/>
      </g>
     </g>
     <g id="text_1">
      <!-- 0 -->
      <g transform="translate(59.440057 265.698125) scale(0.12 -0.12)">
       <defs>
        <path id="DejaVuSans-30" d="M 2034 4250 
Q 1547 4250 1301 3770 
Q 1056 3291 1056 2328 
Q 1056 1369 1301 889 
Q 1547 409 2034 409 
Q 2525 409 2770 889 
Q 3016 1369 3016 2328 
Q 3016 3291 2770 3770 
Q 2525 4250 2034 4250 
z
M 2034 4750 
Q 2819 4750 3233 4129 
Q 3647 3509 3647 2328 
Q 3647 1150 3233 529 
Q 2819 -91 2034 -91 
Q 1250 -91 836 529 
Q 422 1150 422 2328 
Q 422 3509 836 4129 
Q 1250 4750 2034 4750 
z
" transform="scale(0.015625)"/>
       </defs>
       <use xlink:href="#DejaVuSans-30"/>
      </g>
     </g>
    </g>
    <g id="xtick_2">
     <g id="line2d_4">
      <path d="M 124.252274 253.08 
L 124.252274 3.6 
" clip-path="url(#p91c05def72)" style="fill: none; stroke: #b0b0b0; stroke-width: 0.5; stroke-linecap: square"/>
     </g>
     <g id="line2d_5">
      <g>
       <use xlink:href="#m75439caec5" x="124.252274" y="253.08" style="stroke: #000000; stroke-width: 0.5"/>
      </g>
     </g>
     <g id="line2d_6">
      <g>
       <use xlink:href="#m3e97a6348f" x="124.252274" y="3.6" style="stroke: #000000; stroke-width: 0.5"/>
      </g>
     </g>
     <g id="text_2">
      <!-- 100 -->
      <g transform="translate(112.799774 265.698125) scale(0.12 -0.12)">
       <defs>
        <path id="DejaVuSans-31" d="M 794 531 
L 1825 531 
L 1825 4091 
L 703 3866 
L 703 4441 
L 1819 4666 
L 2450 4666 
L 2450 531 
L 3481 531 
L 3481 0 
L 794 0 
L 794 531 
z
" transform="scale(0.015625)"/>
       </defs>
       <use xlink:href="#DejaVuSans-31"/>
       <use xlink:href="#DejaVuSans-30" x="63.623047"/>
       <use xlink:href="#DejaVuSans-30" x="127.246094"/>
      </g>
     </g>
    </g>
    <g id="xtick_3">
     <g id="line2d_7">
      <path d="M 185.24699 253.08 
L 185.24699 3.6 
" clip-path="url(#p91c05def72)" style="fill: none; stroke: #b0b0b0; stroke-width: 0.5; stroke-linecap: square"/>
     </g>
     <g id="line2d_8">
      <g>
       <use xlink:href="#m75439caec5" x="185.24699" y="253.08" style="stroke: #000000; stroke-width: 0.5"/>
      </g>
     </g>
     <g id="line2d_9">
      <g>
       <use xlink:href="#m3e97a6348f" x="185.24699" y="3.6" style="stroke: #000000; stroke-width: 0.5"/>
      </g>
     </g>
     <g id="text_3">
      <!-- 200 -->
      <g transform="translate(173.79449 265.698125) scale(0.12 -0.12)">
       <defs>
        <path id="DejaVuSans-32" d="M 1228 531 
L 3431 531 
L 3431 0 
L 469 0 
L 469 531 
Q 828 903 1448 1529 
Q 2069 2156 2228 2338 
Q 2531 2678 2651 2914 
Q 2772 3150 2772 3378 
Q 2772 3750 2511 3984 
Q 2250 4219 1831 4219 
Q 1534 4219 1204 4116 
Q 875 4013 500 3803 
L 500 4441 
Q 881 4594 1212 4672 
Q 1544 4750 1819 4750 
Q 2544 4750 2975 4387 
Q 3406 4025 3406 3419 
Q 3406 3131 3298 2873 
Q 3191 2616 2906 2266 
Q 2828 2175 2409 1742 
Q 1991 1309 1228 531 
z
" transform="scale(0.015625)"/>
       </defs>
       <use xlink:href="#DejaVuSans-32"/>
       <use xlink:href="#DejaVuSans-30" x="63.623047"/>
       <use xlink:href="#DejaVuSans-30" x="127.246094"/>
      </g>
     </g>
    </g>
    <g id="xtick_4">
     <g id="line2d_10">
      <path d="M 246.241707 253.08 
L 246.241707 3.6 
" clip-path="url(#p91c05def72)" style="fill: none; stroke: #b0b0b0; stroke-width: 0.5; stroke-linecap: square"/>
     </g>
     <g id="line2d_11">
      <g>
       <use xlink:href="#m75439caec5" x="246.241707" y="253.08" style="stroke: #000000; stroke-width: 0.5"/>
      </g>
     </g>
     <g id="line2d_12">
      <g>
       <use xlink:href="#m3e97a6348f" x="246.241707" y="3.6" style="stroke: #000000; stroke-width: 0.5"/>
      </g>
     </g>
     <g id="text_4">
      <!-- 300 -->
      <g transform="translate(234.789207 265.698125) scale(0.12 -0.12)">
       <defs>
        <path id="DejaVuSans-33" d="M 2597 2516 
Q 3050 2419 3304 2112 
Q 3559 1806 3559 1356 
Q 3559 666 3084 287 
Q 2609 -91 1734 -91 
Q 1441 -91 1130 -33 
Q 819 25 488 141 
L 488 750 
Q 750 597 1062 519 
Q 1375 441 1716 441 
Q 2309 441 2620 675 
Q 2931 909 2931 1356 
Q 2931 1769 2642 2001 
Q 2353 2234 1838 2234 
L 1294 2234 
L 1294 2753 
L 1863 2753 
Q 2328 2753 2575 2939 
Q 2822 3125 2822 3475 
Q 2822 3834 2567 4026 
Q 2313 4219 1838 4219 
Q 1578 4219 1281 4162 
Q 984 4106 628 3988 
L 628 4550 
Q 988 4650 1302 4700 
Q 1616 4750 1894 4750 
Q 2613 4750 3031 4423 
Q 3450 4097 3450 3541 
Q 3450 3153 3228 2886 
Q 3006 2619 2597 2516 
z
" transform="scale(0.015625)"/>
       </defs>
       <use xlink:href="#DejaVuSans-33"/>
       <use xlink:href="#DejaVuSans-30" x="63.623047"/>
       <use xlink:href="#DejaVuSans-30" x="127.246094"/>
      </g>
     </g>
    </g>
    <g id="xtick_5">
     <g id="line2d_13">
      <path d="M 307.236424 253.08 
L 307.236424 3.6 
" clip-path="url(#p91c05def72)" style="fill: none; stroke: #b0b0b0; stroke-width: 0.5; stroke-linecap: square"/>
     </g>
     <g id="line2d_14">
      <g>
       <use xlink:href="#m75439caec5" x="307.236424" y="253.08" style="stroke: #000000; stroke-width: 0.5"/>
      </g>
     </g>
     <g id="line2d_15">
      <g>
       <use xlink:href="#m3e97a6348f" x="307.236424" y="3.6" style="stroke: #000000; stroke-width: 0.5"/>
      </g>
     </g>
     <g id="text_5">
      <!-- 400 -->
      <g transform="translate(295.783924 265.698125) scale(0.12 -0.12)">
       <defs>
        <path id="DejaVuSans-34" d="M 2419 4116 
L 825 1625 
L 2419 1625 
L 2419 4116 
z
M 2253 4666 
L 3047 4666 
L 3047 1625 
L 3713 1625 
L 3713 1100 
L 3047 1100 
L 3047 0 
L 2419 0 
L 2419 1100 
L 313 1100 
L 313 1709 
L 2253 4666 
z
" transform="scale(0.015625)"/>
       </defs>
       <use xlink:href="#DejaVuSans-34"/>
       <use xlink:href="#DejaVuSans-30" x="63.623047"/>
       <use xlink:href="#DejaVuSans-30" x="127.246094"/>
      </g>
     </g>
    </g>
    <g id="xtick_6">
     <g id="line2d_16">
      <path d="M 368.23114 253.08 
L 368.23114 3.6 
" clip-path="url(#p91c05def72)" style="fill: none; stroke: #b0b0b0; stroke-width: 0.5; stroke-linecap: square"/>
     </g>
     <g id="line2d_17">
      <g>
       <use xlink:href="#m75439caec5" x="368.23114" y="253.08" style="stroke: #000000; stroke-width: 0.5"/>
      </g>
     </g>
     <g id="line2d_18">
      <g>
       <use xlink:href="#m3e97a6348f" x="368.23114" y="3.6" style="stroke: #000000; stroke-width: 0.5"/>
      </g>
     </g>
     <g id="text_6">
      <!-- 500 -->
      <g transform="translate(356.77864 265.698125) scale(0.12 -0.12)">
       <defs>
        <path id="DejaVuSans-35" d="M 691 4666 
L 3169 4666 
L 3169 4134 
L 1269 4134 
L 1269 2991 
Q 1406 3038 1543 3061 
Q 1681 3084 1819 3084 
Q 2600 3084 3056 2656 
Q 3513 2228 3513 1497 
Q 3513 744 3044 326 
Q 2575 -91 1722 -91 
Q 1428 -91 1123 -41 
Q 819 9 494 109 
L 494 744 
Q 775 591 1075 516 
Q 1375 441 1709 441 
Q 2250 441 2565 725 
Q 2881 1009 2881 1497 
Q 2881 1984 2565 2268 
Q 2250 2553 1709 2553 
Q 1456 2553 1204 2497 
Q 953 2441 691 2322 
L 691 4666 
z
" transform="scale(0.015625)"/>
       </defs>
       <use xlink:href="#DejaVuSans-35"/>
       <use xlink:href="#DejaVuSans-30" x="63.623047"/>
       <use xlink:href="#DejaVuSans-30" x="127.246094"/>
      </g>
     </g>
    </g>
    <g id="xtick_7">
     <g id="line2d_19">
      <defs>
       <path id="maa3d84404c" d="M 0 0 
L 0 -1.5 
" style="stroke: #000000; stroke-width: 0.5"/>
      </defs>
      <g>
       <use xlink:href="#maa3d84404c" x="51.058613" y="253.08" style="stroke: #000000; stroke-width: 0.5"/>
      </g>
     </g>
     <g id="line2d_20">
      <defs>
       <path id="m60b00d588a" d="M 0 0 
L 0 1.5 
" style="stroke: #000000; stroke-width: 0.5"/>
      </defs>
      <g>
       <use xlink:href="#m60b00d588a" x="51.058613" y="3.6" style="stroke: #000000; stroke-width: 0.5"/>
      </g>
     </g>
    </g>
    <g id="xtick_8">
     <g id="line2d_21">
      <g>
       <use xlink:href="#maa3d84404c" x="75.4565" y="253.08" style="stroke: #000000; stroke-width: 0.5"/>
      </g>
     </g>
     <g id="line2d_22">
      <g>
       <use xlink:href="#m60b00d588a" x="75.4565" y="3.6" style="stroke: #000000; stroke-width: 0.5"/>
      </g>
     </g>
    </g>
    <g id="xtick_9">
     <g id="line2d_23">
      <g>
       <use xlink:href="#maa3d84404c" x="87.655444" y="253.08" style="stroke: #000000; stroke-width: 0.5"/>
      </g>
     </g>
     <g id="line2d_24">
      <g>
       <use xlink:href="#m60b00d588a" x="87.655444" y="3.6" style="stroke: #000000; stroke-width: 0.5"/>
      </g>
     </g>
    </g>
    <g id="xtick_10">
     <g id="line2d_25">
      <g>
       <use xlink:href="#maa3d84404c" x="99.854387" y="253.08" style="stroke: #000000; stroke-width: 0.5"/>
      </g>
     </g>
     <g id="line2d_26">
      <g>
       <use xlink:href="#m60b00d588a" x="99.854387" y="3.6" style="stroke: #000000; stroke-width: 0.5"/>
      </g>
     </g>
    </g>
    <g id="xtick_11">
     <g id="line2d_27">
      <g>
       <use xlink:href="#maa3d84404c" x="112.05333" y="253.08" style="stroke: #000000; stroke-width: 0.5"/>
      </g>
     </g>
     <g id="line2d_28">
      <g>
       <use xlink:href="#m60b00d588a" x="112.05333" y="3.6" style="stroke: #000000; stroke-width: 0.5"/>
      </g>
     </g>
    </g>
    <g id="xtick_12">
     <g id="line2d_29">
      <g>
       <use xlink:href="#maa3d84404c" x="136.451217" y="253.08" style="stroke: #000000; stroke-width: 0.5"/>
      </g>
     </g>
     <g id="line2d_30">
      <g>
       <use xlink:href="#m60b00d588a" x="136.451217" y="3.6" style="stroke: #000000; stroke-width: 0.5"/>
      </g>
     </g>
    </g>
    <g id="xtick_13">
     <g id="line2d_31">
      <g>
       <use xlink:href="#maa3d84404c" x="148.65016" y="253.08" style="stroke: #000000; stroke-width: 0.5"/>
      </g>
     </g>
     <g id="line2d_32">
      <g>
       <use xlink:href="#m60b00d588a" x="148.65016" y="3.6" style="stroke: #000000; stroke-width: 0.5"/>
      </g>
     </g>
    </g>
    <g id="xtick_14">
     <g id="line2d_33">
      <g>
       <use xlink:href="#maa3d84404c" x="160.849104" y="253.08" style="stroke: #000000; stroke-width: 0.5"/>
      </g>
     </g>
     <g id="line2d_34">
      <g>
       <use xlink:href="#m60b00d588a" x="160.849104" y="3.6" style="stroke: #000000; stroke-width: 0.5"/>
      </g>
     </g>
    </g>
    <g id="xtick_15">
     <g id="line2d_35">
      <g>
       <use xlink:href="#maa3d84404c" x="173.048047" y="253.08" style="stroke: #000000; stroke-width: 0.5"/>
      </g>
     </g>
     <g id="line2d_36">
      <g>
       <use xlink:href="#m60b00d588a" x="173.048047" y="3.6" style="stroke: #000000; stroke-width: 0.5"/>
      </g>
     </g>
    </g>
    <g id="xtick_16">
     <g id="line2d_37">
      <g>
       <use xlink:href="#maa3d84404c" x="197.445934" y="253.08" style="stroke: #000000; stroke-width: 0.5"/>
      </g>
     </g>
     <g id="line2d_38">
      <g>
       <use xlink:href="#m60b00d588a" x="197.445934" y="3.6" style="stroke: #000000; stroke-width: 0.5"/>
      </g>
     </g>
    </g>
    <g id="xtick_17">
     <g id="line2d_39">
      <g>
       <use xlink:href="#maa3d84404c" x="209.644877" y="253.08" style="stroke: #000000; stroke-width: 0.5"/>
      </g>
     </g>
     <g id="line2d_40">
      <g>
       <use xlink:href="#m60b00d588a" x="209.644877" y="3.6" style="stroke: #000000; stroke-width: 0.5"/>
      </g>
     </g>
    </g>
    <g id="xtick_18">
     <g id="line2d_41">
      <g>
       <use xlink:href="#maa3d84404c" x="221.84382" y="253.08" style="stroke: #000000; stroke-width: 0.5"/>
      </g>
     </g>
     <g id="line2d_42">
      <g>
       <use xlink:href="#m60b00d588a" x="221.84382" y="3.6" style="stroke: #000000; stroke-width: 0.5"/>
      </g>
     </g>
    </g>
    <g id="xtick_19">
     <g id="line2d_43">
      <g>
       <use xlink:href="#maa3d84404c" x="234.042764" y="253.08" style="stroke: #000000; stroke-width: 0.5"/>
      </g>
     </g>
     <g id="line2d_44">
      <g>
       <use xlink:href="#m60b00d588a" x="234.042764" y="3.6" style="stroke: #000000; stroke-width: 0.5"/>
      </g>
     </g>
    </g>
    <g id="xtick_20">
     <g id="line2d_45">
      <g>
       <use xlink:href="#maa3d84404c" x="258.44065" y="253.08" style="stroke: #000000; stroke-width: 0.5"/>
      </g>
     </g>
     <g id="line2d_46">
      <g>
       <use xlink:href="#m60b00d588a" x="258.44065" y="3.6" style="stroke: #000000; stroke-width: 0.5"/>
      </g>
     </g>
    </g>
    <g id="xtick_21">
     <g id="line2d_47">
      <g>
       <use xlink:href="#maa3d84404c" x="270.639594" y="253.08" style="stroke: #000000; stroke-width: 0.5"/>
      </g>
     </g>
     <g id="line2d_48">
      <g>
       <use xlink:href="#m60b00d588a" x="270.639594" y="3.6" style="stroke: #000000; stroke-width: 0.5"/>
      </g>
     </g>
    </g>
    <g id="xtick_22">
     <g id="line2d_49">
      <g>
       <use xlink:href="#maa3d84404c" x="282.838537" y="253.08" style="stroke: #000000; stroke-width: 0.5"/>
      </g>
     </g>
     <g id="line2d_50">
      <g>
       <use xlink:href="#m60b00d588a" x="282.838537" y="3.6" style="stroke: #000000; stroke-width: 0.5"/>
      </g>
     </g>
    </g>
    <g id="xtick_23">
     <g id="line2d_51">
      <g>
       <use xlink:href="#maa3d84404c" x="295.03748" y="253.08" style="stroke: #000000; stroke-width: 0.5"/>
      </g>
     </g>
     <g id="line2d_52">
      <g>
       <use xlink:href="#m60b00d588a" x="295.03748" y="3.6" style="stroke: #000000; stroke-width: 0.5"/>
      </g>
     </g>
    </g>
    <g id="xtick_24">
     <g id="line2d_53">
      <g>
       <use xlink:href="#maa3d84404c" x="319.435367" y="253.08" style="stroke: #000000; stroke-width: 0.5"/>
      </g>
     </g>
     <g id="line2d_54">
      <g>
       <use xlink:href="#m60b00d588a" x="319.435367" y="3.6" style="stroke: #000000; stroke-width: 0.5"/>
      </g>
     </g>
    </g>
    <g id="xtick_25">
     <g id="line2d_55">
      <g>
       <use xlink:href="#maa3d84404c" x="331.63431" y="253.08" style="stroke: #000000; stroke-width: 0.5"/>
      </g>
     </g>
     <g id="line2d_56">
      <g>
       <use xlink:href="#m60b00d588a" x="331.63431" y="3.6" style="stroke: #000000; stroke-width: 0.5"/>
      </g>
     </g>
    </g>
    <g id="xtick_26">
     <g id="line2d_57">
      <g>
       <use xlink:href="#maa3d84404c" x="343.833254" y="253.08" style="stroke: #000000; stroke-width: 0.5"/>
      </g>
     </g>
     <g id="line2d_58">
      <g>
       <use xlink:href="#m60b00d588a" x="343.833254" y="3.6" style="stroke: #000000; stroke-width: 0.5"/>
      </g>
     </g>
    </g>
    <g id="xtick_27">
     <g id="line2d_59">
      <g>
       <use xlink:href="#maa3d84404c" x="356.032197" y="253.08" style="stroke: #000000; stroke-width: 0.5"/>
      </g>
     </g>
     <g id="line2d_60">
      <g>
       <use xlink:href="#m60b00d588a" x="356.032197" y="3.6" style="stroke: #000000; stroke-width: 0.5"/>
      </g>
     </g>
    </g>
    <g id="xtick_28">
     <g id="line2d_61">
      <g>
       <use xlink:href="#maa3d84404c" x="380.430084" y="253.08" style="stroke: #000000; stroke-width: 0.5"/>
      </g>
     </g>
     <g id="line2d_62">
      <g>
       <use xlink:href="#m60b00d588a" x="380.430084" y="3.6" style="stroke: #000000; stroke-width: 0.5"/>
      </g>
     </g>
    </g>
    <g id="text_7">
     <!-- Generations -->
     <g transform="translate(178.842188 281.311875) scale(0.12 -0.12)">
      <defs>
       <path id="DejaVuSans-47" d="M 3809 666 
L 3809 1919 
L 2778 1919 
L 2778 2438 
L 4434 2438 
L 4434 434 
Q 4069 175 3628 42 
Q 3188 -91 2688 -91 
Q 1594 -91 976 548 
Q 359 1188 359 2328 
Q 359 3472 976 4111 
Q 1594 4750 2688 4750 
Q 3144 4750 3555 4637 
Q 3966 4525 4313 4306 
L 4313 3634 
Q 3963 3931 3569 4081 
Q 3175 4231 2741 4231 
Q 1884 4231 1454 3753 
Q 1025 3275 1025 2328 
Q 1025 1384 1454 906 
Q 1884 428 2741 428 
Q 3075 428 3337 486 
Q 3600 544 3809 666 
z
" transform="scale(0.015625)"/>
       <path id="DejaVuSans-65" d="M 3597 1894 
L 3597 1613 
L 953 1613 
Q 991 1019 1311 708 
Q 1631 397 2203 397 
Q 2534 397 2845 478 
Q 3156 559 3463 722 
L 3463 178 
Q 3153 47 2828 -22 
Q 2503 -91 2169 -91 
Q 1331 -91 842 396 
Q 353 884 353 1716 
Q 353 2575 817 3079 
Q 1281 3584 2069 3584 
Q 2775 3584 3186 3129 
Q 3597 2675 3597 1894 
z
M 3022 2063 
Q 3016 2534 2758 2815 
Q 2500 3097 2075 3097 
Q 1594 3097 1305 2825 
Q 1016 2553 972 2059 
L 3022 2063 
z
" transform="scale(0.015625)"/>
       <path id="DejaVuSans-6e" d="M 3513 2113 
L 3513 0 
L 2938 0 
L 2938 2094 
Q 2938 2591 2744 2837 
Q 2550 3084 2163 3084 
Q 1697 3084 1428 2787 
Q 1159 2491 1159 1978 
L 1159 0 
L 581 0 
L 581 3500 
L 1159 3500 
L 1159 2956 
Q 1366 3272 1645 3428 
Q 1925 3584 2291 3584 
Q 2894 3584 3203 3211 
Q 3513 2838 3513 2113 
z
" transform="scale(0.015625)"/>
       <path id="DejaVuSans-72" d="M 2631 2963 
Q 2534 3019 2420 3045 
Q 2306 3072 2169 3072 
Q 1681 3072 1420 2755 
Q 1159 2438 1159 1844 
L 1159 0 
L 581 0 
L 581 3500 
L 1159 3500 
L 1159 2956 
Q 1341 3275 1631 3429 
Q 1922 3584 2338 3584 
Q 2397 3584 2469 3576 
Q 2541 3569 2628 3553 
L 2631 2963 
z
" transform="scale(0.015625)"/>
       <path id="DejaVuSans-61" d="M 2194 1759 
Q 1497 1759 1228 1600 
Q 959 1441 959 1056 
Q 959 750 1161 570 
Q 1363 391 1709 391 
Q 2188 391 2477 730 
Q 2766 1069 2766 1631 
L 2766 1759 
L 2194 1759 
z
M 3341 1997 
L 3341 0 
L 2766 0 
L 2766 531 
Q 2569 213 2275 61 
Q 1981 -91 1556 -91 
Q 1019 -91 701 211 
Q 384 513 384 1019 
Q 384 1609 779 1909 
Q 1175 2209 1959 2209 
L 2766 2209 
L 2766 2266 
Q 2766 2663 2505 2880 
Q 2244 3097 1772 3097 
Q 1472 3097 1187 3025 
Q 903 2953 641 2809 
L 641 3341 
Q 956 3463 1253 3523 
Q 1550 3584 1831 3584 
Q 2591 3584 2966 3190 
Q 3341 2797 3341 1997 
z
" transform="scale(0.015625)"/>
       <path id="DejaVuSans-74" d="M 1172 4494 
L 1172 3500 
L 2356 3500 
L 2356 3053 
L 1172 3053 
L 1172 1153 
Q 1172 725 1289 603 
Q 1406 481 1766 481 
L 2356 481 
L 2356 0 
L 1766 0 
Q 1100 0 847 248 
Q 594 497 594 1153 
L 594 3053 
L 172 3053 
L 172 3500 
L 594 3500 
L 594 4494 
L 1172 4494 
z
" transform="scale(0.015625)"/>
       <path id="DejaVuSans-69" d="M 603 3500 
L 1178 3500 
L 1178 0 
L 603 0 
L 603 3500 
z
M 603 4863 
L 1178 4863 
L 1178 4134 
L 603 4134 
L 603 4863 
z
" transform="scale(0.015625)"/>
       <path id="DejaVuSans-6f" d="M 1959 3097 
Q 1497 3097 1228 2736 
Q 959 2375 959 1747 
Q 959 1119 1226 758 
Q 1494 397 1959 397 
Q 2419 397 2687 759 
Q 2956 1122 2956 1747 
Q 2956 2369 2687 2733 
Q 2419 3097 1959 3097 
z
M 1959 3584 
Q 2709 3584 3137 3096 
Q 3566 2609 3566 1747 
Q 3566 888 3137 398 
Q 2709 -91 1959 -91 
Q 1206 -91 779 398 
Q 353 888 353 1747 
Q 353 2609 779 3096 
Q 1206 3584 1959 3584 
z
" transform="scale(0.015625)"/>
       <path id="DejaVuSans-73" d="M 2834 3397 
L 2834 2853 
Q 2591 2978 2328 3040 
Q 2066 3103 1784 3103 
Q 1356 3103 1142 2972 
Q 928 2841 928 2578 
Q 928 2378 1081 2264 
Q 1234 2150 1697 2047 
L 1894 2003 
Q 2506 1872 2764 1633 
Q 3022 1394 3022 966 
Q 3022 478 2636 193 
Q 2250 -91 1575 -91 
Q 1294 -91 989 -36 
Q 684 19 347 128 
L 347 722 
Q 666 556 975 473 
Q 1284 391 1588 391 
Q 1994 391 2212 530 
Q 2431 669 2431 922 
Q 2431 1156 2273 1281 
Q 2116 1406 1581 1522 
L 1381 1569 
Q 847 1681 609 1914 
Q 372 2147 372 2553 
Q 372 3047 722 3315 
Q 1072 3584 1716 3584 
Q 2034 3584 2315 3537 
Q 2597 3491 2834 3397 
z
" transform="scale(0.015625)"/>
      </defs>
      <use xlink:href="#DejaVuSans-47"/>
      <use xlink:href="#DejaVuSans-65" x="77.490234"/>
      <use xlink:href="#DejaVuSans-6e" x="139.013672"/>
      <use xlink:href="#DejaVuSans-65" x="202.392578"/>
      <use xlink:href="#DejaVuSans-72" x="263.916016"/>
      <use xlink:href="#DejaVuSans-61" x="305.029297"/>
      <use xlink:href="#DejaVuSans-74" x="366.308594"/>
      <use xlink:href="#DejaVuSans-69" x="405.517578"/>
      <use xlink:href="#DejaVuSans-6f" x="433.300781"/>
      <use xlink:href="#DejaVuSans-6e" x="494.482422"/>
      <use xlink:href="#DejaVuSans-73" x="557.861328"/>
     </g>
    </g>
   </g>
   <g id="matplotlib.axis_2">
    <g id="ytick_1">
     <g id="line2d_63">
      <path d="M 48.039375 249.017185 
L 382.839375 249.017185 
" clip-path="url(#p91c05def72)" style="fill: none; stroke: #b0b0b0; stroke-width: 0.5; stroke-linecap: square"/>
     </g>
     <g id="line2d_64">
      <defs>
       <path id="m7d1ea22421" d="M 0 0 
L 3 0 
" style="stroke: #000000; stroke-width: 0.5"/>
      </defs>
      <g>
       <use xlink:href="#m7d1ea22421" x="48.039375" y="249.017185" style="stroke: #000000; stroke-width: 0.5"/>
      </g>
     </g>
     <g id="line2d_65">
      <defs>
       <path id="m06f705aa3d" d="M 0 0 
L -3 0 
" style="stroke: #000000; stroke-width: 0.5"/>
      </defs>
      <g>
       <use xlink:href="#m06f705aa3d" x="382.839375" y="249.017185" style="stroke: #000000; stroke-width: 0.5"/>
      </g>
     </g>
     <g id="text_8">
      <!-- −50 -->
      <g transform="translate(19.21375 253.576248) scale(0.12 -0.12)">
       <defs>
        <path id="DejaVuSans-2212" d="M 678 2272 
L 4684 2272 
L 4684 1741 
L 678 1741 
L 678 2272 
z
" transform="scale(0.015625)"/>
       </defs>
       <use xlink:href="#DejaVuSans-2212"/>
       <use xlink:href="#DejaVuSans-35" x="83.789062"/>
       <use xlink:href="#DejaVuSans-30" x="147.412109"/>
      </g>
     </g>
    </g>
    <g id="ytick_2">
     <g id="line2d_66">
      <path d="M 48.039375 214.876481 
L 382.839375 214.876481 
" clip-path="url(#p91c05def72)" style="fill: none; stroke: #b0b0b0; stroke-width: 0.5; stroke-linecap: square"/>
     </g>
     <g id="line2d_67">
      <g>
       <use xlink:href="#m7d1ea22421" x="48.039375" y="214.876481" style="stroke: #000000; stroke-width: 0.5"/>
      </g>
     </g>
     <g id="line2d_68">
      <g>
       <use xlink:href="#m06f705aa3d" x="382.839375" y="214.876481" style="stroke: #000000; stroke-width: 0.5"/>
      </g>
     </g>
     <g id="text_9">
      <!-- −40 -->
      <g transform="translate(19.21375 219.435544) scale(0.12 -0.12)">
       <use xlink:href="#DejaVuSans-2212"/>
       <use xlink:href="#DejaVuSans-34" x="83.789062"/>
       <use xlink:href="#DejaVuSans-30" x="147.412109"/>
      </g>
     </g>
    </g>
    <g id="ytick_3">
     <g id="line2d_69">
      <path d="M 48.039375 180.735777 
L 382.839375 180.735777 
" clip-path="url(#p91c05def72)" style="fill: none; stroke: #b0b0b0; stroke-width: 0.5; stroke-linecap: square"/>
     </g>
     <g id="line2d_70">
      <g>
       <use xlink:href="#m7d1ea22421" x="48.039375" y="180.735777" style="stroke: #000000; stroke-width: 0.5"/>
      </g>
     </g>
     <g id="line2d_71">
      <g>
       <use xlink:href="#m06f705aa3d" x="382.839375" y="180.735777" style="stroke: #000000; stroke-width: 0.5"/>
      </g>
     </g>
     <g id="text_10">
      <!-- −30 -->
      <g transform="translate(19.21375 185.29484) scale(0.12 -0.12)">
       <use xlink:href="#DejaVuSans-2212"/>
       <use xlink:href="#DejaVuSans-33" x="83.789062"/>
       <use xlink:href="#DejaVuSans-30" x="147.412109"/>
      </g>
     </g>
    </g>
    <g id="ytick_4">
     <g id="line2d_72">
      <path d="M 48.039375 146.595073 
L 382.839375 146.595073 
" clip-path="url(#p91c05def72)" style="fill: none; stroke: #b0b0b0; stroke-width: 0.5; stroke-linecap: square"/>
     </g>
     <g id="line2d_73">
      <g>
       <use xlink:href="#m7d1ea22421" x="48.039375" y="146.595073" style="stroke: #000000; stroke-width: 0.5"/>
      </g>
     </g>
     <g id="line2d_74">
      <g>
       <use xlink:href="#m06f705aa3d" x="382.839375" y="146.595073" style="stroke: #000000; stroke-width: 0.5"/>
      </g>
     </g>
     <g id="text_11">
      <!-- −20 -->
      <g transform="translate(19.21375 151.154136) scale(0.12 -0.12)">
       <use xlink:href="#DejaVuSans-2212"/>
       <use xlink:href="#DejaVuSans-32" x="83.789062"/>
       <use xlink:href="#DejaVuSans-30" x="147.412109"/>
      </g>
     </g>
    </g>
    <g id="ytick_5">
     <g id="line2d_75">
      <path d="M 48.039375 112.454369 
L 382.839375 112.454369 
" clip-path="url(#p91c05def72)" style="fill: none; stroke: #b0b0b0; stroke-width: 0.5; stroke-linecap: square"/>
     </g>
     <g id="line2d_76">
      <g>
       <use xlink:href="#m7d1ea22421" x="48.039375" y="112.454369" style="stroke: #000000; stroke-width: 0.5"/>
      </g>
     </g>
     <g id="line2d_77">
      <g>
       <use xlink:href="#m06f705aa3d" x="382.839375" y="112.454369" style="stroke: #000000; stroke-width: 0.5"/>
      </g>
     </g>
     <g id="text_12">
      <!-- −10 -->
      <g transform="translate(19.21375 117.013431) scale(0.12 -0.12)">
       <use xlink:href="#DejaVuSans-2212"/>
       <use xlink:href="#DejaVuSans-31" x="83.789062"/>
       <use xlink:href="#DejaVuSans-30" x="147.412109"/>
      </g>
     </g>
    </g>
    <g id="ytick_6">
     <g id="line2d_78">
      <path d="M 48.039375 78.313665 
L 382.839375 78.313665 
" clip-path="url(#p91c05def72)" style="fill: none; stroke: #b0b0b0; stroke-width: 0.5; stroke-linecap: square"/>
     </g>
     <g id="line2d_79">
      <g>
       <use xlink:href="#m7d1ea22421" x="48.039375" y="78.313665" style="stroke: #000000; stroke-width: 0.5"/>
      </g>
     </g>
     <g id="line2d_80">
      <g>
       <use xlink:href="#m06f705aa3d" x="382.839375" y="78.313665" style="stroke: #000000; stroke-width: 0.5"/>
      </g>
     </g>
     <g id="text_13">
      <!-- 0 -->
      <g transform="translate(36.904375 82.872727) scale(0.12 -0.12)">
       <use xlink:href="#DejaVuSans-30"/>
      </g>
     </g>
    </g>
    <g id="ytick_7">
     <g id="line2d_81">
      <path d="M 48.039375 44.172961 
L 382.839375 44.172961 
" clip-path="url(#p91c05def72)" style="fill: none; stroke: #b0b0b0; stroke-width: 0.5; stroke-linecap: square"/>
     </g>
     <g id="line2d_82">
      <g>
       <use xlink:href="#m7d1ea22421" x="48.039375" y="44.172961" style="stroke: #000000; stroke-width: 0.5"/>
      </g>
     </g>
     <g id="line2d_83">
      <g>
       <use xlink:href="#m06f705aa3d" x="382.839375" y="44.172961" style="stroke: #000000; stroke-width: 0.5"/>
      </g>
     </g>
     <g id="text_14">
      <!-- 10 -->
      <g transform="translate(29.269375 48.732023) scale(0.12 -0.12)">
       <use xlink:href="#DejaVuSans-31"/>
       <use xlink:href="#DejaVuSans-30" x="63.623047"/>
      </g>
     </g>
    </g>
    <g id="ytick_8">
     <g id="line2d_84">
      <path d="M 48.039375 10.032257 
L 382.839375 10.032257 
" clip-path="url(#p91c05def72)" style="fill: none; stroke: #b0b0b0; stroke-width: 0.5; stroke-linecap: square"/>
     </g>
     <g id="line2d_85">
      <g>
       <use xlink:href="#m7d1ea22421" x="48.039375" y="10.032257" style="stroke: #000000; stroke-width: 0.5"/>
      </g>
     </g>
     <g id="line2d_86">
      <g>
       <use xlink:href="#m06f705aa3d" x="382.839375" y="10.032257" style="stroke: #000000; stroke-width: 0.5"/>
      </g>
     </g>
     <g id="text_15">
      <!-- 20 -->
      <g transform="translate(29.269375 14.591319) scale(0.12 -0.12)">
       <use xlink:href="#DejaVuSans-32"/>
       <use xlink:href="#DejaVuSans-30" x="63.623047"/>
      </g>
     </g>
    </g>
    <g id="ytick_9">
     <g id="line2d_87">
      <defs>
       <path id="m580d14ce47" d="M 0 0 
L 1.5 0 
" style="stroke: #000000; stroke-width: 0.5"/>
      </defs>
      <g>
       <use xlink:href="#m580d14ce47" x="48.039375" y="242.189045" style="stroke: #000000; stroke-width: 0.5"/>
      </g>
     </g>
     <g id="line2d_88">
      <defs>
       <path id="m35bdbcfc5a" d="M 0 0 
L -1.5 0 
" style="stroke: #000000; stroke-width: 0.5"/>
      </defs>
      <g>
       <use xlink:href="#m35bdbcfc5a" x="382.839375" y="242.189045" style="stroke: #000000; stroke-width: 0.5"/>
      </g>
     </g>
    </g>
    <g id="ytick_10">
     <g id="line2d_89">
      <g>
       <use xlink:href="#m580d14ce47" x="48.039375" y="235.360904" style="stroke: #000000; stroke-width: 0.5"/>
      </g>
     </g>
     <g id="line2d_90">
      <g>
       <use xlink:href="#m35bdbcfc5a" x="382.839375" y="235.360904" style="stroke: #000000; stroke-width: 0.5"/>
      </g>
     </g>
    </g>
    <g id="ytick_11">
     <g id="line2d_91">
      <g>
       <use xlink:href="#m580d14ce47" x="48.039375" y="228.532763" style="stroke: #000000; stroke-width: 0.5"/>
      </g>
     </g>
     <g id="line2d_92">
      <g>
       <use xlink:href="#m35bdbcfc5a" x="382.839375" y="228.532763" style="stroke: #000000; stroke-width: 0.5"/>
      </g>
     </g>
    </g>
    <g id="ytick_12">
     <g id="line2d_93">
      <g>
       <use xlink:href="#m580d14ce47" x="48.039375" y="221.704622" style="stroke: #000000; stroke-width: 0.5"/>
      </g>
     </g>
     <g id="line2d_94">
      <g>
       <use xlink:href="#m35bdbcfc5a" x="382.839375" y="221.704622" style="stroke: #000000; stroke-width: 0.5"/>
      </g>
     </g>
    </g>
    <g id="ytick_13">
     <g id="line2d_95">
      <g>
       <use xlink:href="#m580d14ce47" x="48.039375" y="208.04834" style="stroke: #000000; stroke-width: 0.5"/>
      </g>
     </g>
     <g id="line2d_96">
      <g>
       <use xlink:href="#m35bdbcfc5a" x="382.839375" y="208.04834" style="stroke: #000000; stroke-width: 0.5"/>
      </g>
     </g>
    </g>
    <g id="ytick_14">
     <g id="line2d_97">
      <g>
       <use xlink:href="#m580d14ce47" x="48.039375" y="201.2202" style="stroke: #000000; stroke-width: 0.5"/>
      </g>
     </g>
     <g id="line2d_98">
      <g>
       <use xlink:href="#m35bdbcfc5a" x="382.839375" y="201.2202" style="stroke: #000000; stroke-width: 0.5"/>
      </g>
     </g>
    </g>
    <g id="ytick_15">
     <g id="line2d_99">
      <g>
       <use xlink:href="#m580d14ce47" x="48.039375" y="194.392059" style="stroke: #000000; stroke-width: 0.5"/>
      </g>
     </g>
     <g id="line2d_100">
      <g>
       <use xlink:href="#m35bdbcfc5a" x="382.839375" y="194.392059" style="stroke: #000000; stroke-width: 0.5"/>
      </g>
     </g>
    </g>
    <g id="ytick_16">
     <g id="line2d_101">
      <g>
       <use xlink:href="#m580d14ce47" x="48.039375" y="187.563918" style="stroke: #000000; stroke-width: 0.5"/>
      </g>
     </g>
     <g id="line2d_102">
      <g>
       <use xlink:href="#m35bdbcfc5a" x="382.839375" y="187.563918" style="stroke: #000000; stroke-width: 0.5"/>
      </g>
     </g>
    </g>
    <g id="ytick_17">
     <g id="line2d_103">
      <g>
       <use xlink:href="#m580d14ce47" x="48.039375" y="173.907636" style="stroke: #000000; stroke-width: 0.5"/>
      </g>
     </g>
     <g id="line2d_104">
      <g>
       <use xlink:href="#m35bdbcfc5a" x="382.839375" y="173.907636" style="stroke: #000000; stroke-width: 0.5"/>
      </g>
     </g>
    </g>
    <g id="ytick_18">
     <g id="line2d_105">
      <g>
       <use xlink:href="#m580d14ce47" x="48.039375" y="167.079496" style="stroke: #000000; stroke-width: 0.5"/>
      </g>
     </g>
     <g id="line2d_106">
      <g>
       <use xlink:href="#m35bdbcfc5a" x="382.839375" y="167.079496" style="stroke: #000000; stroke-width: 0.5"/>
      </g>
     </g>
    </g>
    <g id="ytick_19">
     <g id="line2d_107">
      <g>
       <use xlink:href="#m580d14ce47" x="48.039375" y="160.251355" style="stroke: #000000; stroke-width: 0.5"/>
      </g>
     </g>
     <g id="line2d_108">
      <g>
       <use xlink:href="#m35bdbcfc5a" x="382.839375" y="160.251355" style="stroke: #000000; stroke-width: 0.5"/>
      </g>
     </g>
    </g>
    <g id="ytick_20">
     <g id="line2d_109">
      <g>
       <use xlink:href="#m580d14ce47" x="48.039375" y="153.423214" style="stroke: #000000; stroke-width: 0.5"/>
      </g>
     </g>
     <g id="line2d_110">
      <g>
       <use xlink:href="#m35bdbcfc5a" x="382.839375" y="153.423214" style="stroke: #000000; stroke-width: 0.5"/>
      </g>
     </g>
    </g>
    <g id="ytick_21">
     <g id="line2d_111">
      <g>
       <use xlink:href="#m580d14ce47" x="48.039375" y="139.766932" style="stroke: #000000; stroke-width: 0.5"/>
      </g>
     </g>
     <g id="line2d_112">
      <g>
       <use xlink:href="#m35bdbcfc5a" x="382.839375" y="139.766932" style="stroke: #000000; stroke-width: 0.5"/>
      </g>
     </g>
    </g>
    <g id="ytick_22">
     <g id="line2d_113">
      <g>
       <use xlink:href="#m580d14ce47" x="48.039375" y="132.938791" style="stroke: #000000; stroke-width: 0.5"/>
      </g>
     </g>
     <g id="line2d_114">
      <g>
       <use xlink:href="#m35bdbcfc5a" x="382.839375" y="132.938791" style="stroke: #000000; stroke-width: 0.5"/>
      </g>
     </g>
    </g>
    <g id="ytick_23">
     <g id="line2d_115">
      <g>
       <use xlink:href="#m580d14ce47" x="48.039375" y="126.110651" style="stroke: #000000; stroke-width: 0.5"/>
      </g>
     </g>
     <g id="line2d_116">
      <g>
       <use xlink:href="#m35bdbcfc5a" x="382.839375" y="126.110651" style="stroke: #000000; stroke-width: 0.5"/>
      </g>
     </g>
    </g>
    <g id="ytick_24">
     <g id="line2d_117">
      <g>
       <use xlink:href="#m580d14ce47" x="48.039375" y="119.28251" style="stroke: #000000; stroke-width: 0.5"/>
      </g>
     </g>
     <g id="line2d_118">
      <g>
       <use xlink:href="#m35bdbcfc5a" x="382.839375" y="119.28251" style="stroke: #000000; stroke-width: 0.5"/>
      </g>
     </g>
    </g>
    <g id="ytick_25">
     <g id="line2d_119">
      <g>
       <use xlink:href="#m580d14ce47" x="48.039375" y="105.626228" style="stroke: #000000; stroke-width: 0.5"/>
      </g>
     </g>
     <g id="line2d_120">
      <g>
       <use xlink:href="#m35bdbcfc5a" x="382.839375" y="105.626228" style="stroke: #000000; stroke-width: 0.5"/>
      </g>
     </g>
    </g>
    <g id="ytick_26">
     <g id="line2d_121">
      <g>
       <use xlink:href="#m580d14ce47" x="48.039375" y="98.798087" style="stroke: #000000; stroke-width: 0.5"/>
      </g>
     </g>
     <g id="line2d_122">
      <g>
       <use xlink:href="#m35bdbcfc5a" x="382.839375" y="98.798087" style="stroke: #000000; stroke-width: 0.5"/>
      </g>
     </g>
    </g>
    <g id="ytick_27">
     <g id="line2d_123">
      <g>
       <use xlink:href="#m580d14ce47" x="48.039375" y="91.969946" style="stroke: #000000; stroke-width: 0.5"/>
      </g>
     </g>
     <g id="line2d_124">
      <g>
       <use xlink:href="#m35bdbcfc5a" x="382.839375" y="91.969946" style="stroke: #000000; stroke-width: 0.5"/>
      </g>
     </g>
    </g>
    <g id="ytick_28">
     <g id="line2d_125">
      <g>
       <use xlink:href="#m580d14ce47" x="48.039375" y="85.141806" style="stroke: #000000; stroke-width: 0.5"/>
      </g>
     </g>
     <g id="line2d_126">
      <g>
       <use xlink:href="#m35bdbcfc5a" x="382.839375" y="85.141806" style="stroke: #000000; stroke-width: 0.5"/>
      </g>
     </g>
    </g>
    <g id="ytick_29">
     <g id="line2d_127">
      <g>
       <use xlink:href="#m580d14ce47" x="48.039375" y="71.485524" style="stroke: #000000; stroke-width: 0.5"/>
      </g>
     </g>
     <g id="line2d_128">
      <g>
       <use xlink:href="#m35bdbcfc5a" x="382.839375" y="71.485524" style="stroke: #000000; stroke-width: 0.5"/>
      </g>
     </g>
    </g>
    <g id="ytick_30">
     <g id="line2d_129">
      <g>
       <use xlink:href="#m580d14ce47" x="48.039375" y="64.657383" style="stroke: #000000; stroke-width: 0.5"/>
      </g>
     </g>
     <g id="line2d_130">
      <g>
       <use xlink:href="#m35bdbcfc5a" x="382.839375" y="64.657383" style="stroke: #000000; stroke-width: 0.5"/>
      </g>
     </g>
    </g>
    <g id="ytick_31">
     <g id="line2d_131">
      <g>
       <use xlink:href="#m580d14ce47" x="48.039375" y="57.829242" style="stroke: #000000; stroke-width: 0.5"/>
      </g>
     </g>
     <g id="line2d_132">
      <g>
       <use xlink:href="#m35bdbcfc5a" x="382.839375" y="57.829242" style="stroke: #000000; stroke-width: 0.5"/>
      </g>
     </g>
    </g>
    <g id="ytick_32">
     <g id="line2d_133">
      <g>
       <use xlink:href="#m580d14ce47" x="48.039375" y="51.001101" style="stroke: #000000; stroke-width: 0.5"/>
      </g>
     </g>
     <g id="line2d_134">
      <g>
       <use xlink:href="#m35bdbcfc5a" x="382.839375" y="51.001101" style="stroke: #000000; stroke-width: 0.5"/>
      </g>
     </g>
    </g>
    <g id="ytick_33">
     <g id="line2d_135">
      <g>
       <use xlink:href="#m580d14ce47" x="48.039375" y="37.34482" style="stroke: #000000; stroke-width: 0.5"/>
      </g>
     </g>
     <g id="line2d_136">
      <g>
       <use xlink:href="#m35bdbcfc5a" x="382.839375" y="37.34482" style="stroke: #000000; stroke-width: 0.5"/>
      </g>
     </g>
    </g>
    <g id="ytick_34">
     <g id="line2d_137">
      <g>
       <use xlink:href="#m580d14ce47" x="48.039375" y="30.516679" style="stroke: #000000; stroke-width: 0.5"/>
      </g>
     </g>
     <g id="line2d_138">
      <g>
       <use xlink:href="#m35bdbcfc5a" x="382.839375" y="30.516679" style="stroke: #000000; stroke-width: 0.5"/>
      </g>
     </g>
    </g>
    <g id="ytick_35">
     <g id="line2d_139">
      <g>
       <use xlink:href="#m580d14ce47" x="48.039375" y="23.688538" style="stroke: #000000; stroke-width: 0.5"/>
      </g>
     </g>
     <g id="line2d_140">
      <g>
       <use xlink:href="#m35bdbcfc5a" x="382.839375" y="23.688538" style="stroke: #000000; stroke-width: 0.5"/>
      </g>
     </g>
    </g>
    <g id="ytick_36">
     <g id="line2d_141">
      <g>
       <use xlink:href="#m580d14ce47" x="48.039375" y="16.860397" style="stroke: #000000; stroke-width: 0.5"/>
      </g>
     </g>
     <g id="line2d_142">
      <g>
       <use xlink:href="#m35bdbcfc5a" x="382.839375" y="16.860397" style="stroke: #000000; stroke-width: 0.5"/>
      </g>
     </g>
    </g>
    <g id="text_16">
     <!-- Fitness -->
     <g transform="translate(12.718125 149.120625) rotate(-90) scale(0.12 -0.12)">
      <defs>
       <path id="DejaVuSans-46" d="M 628 4666 
L 3309 4666 
L 3309 4134 
L 1259 4134 
L 1259 2759 
L 3109 2759 
L 3109 2228 
L 1259 2228 
L 1259 0 
L 628 0 
L 628 4666 
z
" transform="scale(0.015625)"/>
      </defs>
      <use xlink:href="#DejaVuSans-46"/>
      <use xlink:href="#DejaVuSans-69" x="50.269531"/>
      <use xlink:href="#DejaVuSans-74" x="78.052734"/>
      <use xlink:href="#DejaVuSans-6e" x="117.261719"/>
      <use xlink:href="#DejaVuSans-65" x="180.640625"/>
      <use xlink:href="#DejaVuSans-73" x="242.164062"/>
      <use xlink:href="#DejaVuSans-73" x="294.263672"/>
     </g>
    </g>
   </g>
   <g id="line2d_143">
    <path d="M 63.257557 53.505882 
L 63.867504 50.156358 
L 64.477451 39.812156 
L 66.91724 39.812076 
L 67.527187 38.876683 
L 68.747081 38.876679 
L 69.357028 38.256982 
L 69.966976 38.256961 
L 70.576923 36.037639 
L 71.18687 36.037611 
L 71.796817 35.402303 
L 73.016711 35.402294 
L 73.626659 30.512873 
L 74.236606 27.411437 
L 74.846553 27.411361 
L 75.4565 24.454 
L 77.896289 24.453937 
L 78.506236 21.88492 
L 87.045496 21.88473 
L 87.655444 21.058657 
L 91.315127 21.058342 
L 91.925074 20.331395 
L 96.194704 20.331381 
L 96.804651 19.608804 
L 97.414598 19.608808 
L 98.024545 18.111379 
L 98.634493 18.111351 
L 99.24444 17.381747 
L 102.294176 17.289765 
L 102.904123 16.944016 
L 105.343911 16.944 
L 105.953859 16.805957 
L 124.862221 16.717367 
L 126.082115 16.633323 
L 185.24699 16.603648 
L 185.856937 16.407363 
L 191.956409 16.407118 
L 192.566356 16.114612 
L 193.176303 16.114571 
L 193.786251 15.644366 
L 194.396198 15.374824 
L 210.254824 15.339521 
L 210.864771 15.257649 
L 211.474718 15.058843 
L 261.490386 14.997233 
L 263.320228 14.946332 
L 367.621193 14.940189 
L 367.621193 14.940189 
" clip-path="url(#p91c05def72)" style="fill: none; stroke: #000000; stroke-linecap: square"/>
   </g>
   <g id="line2d_144">
    <path d="M 63.257557 183.474511 
L 63.867504 134.40199 
L 64.477451 191.448595 
L 65.087398 122.570017 
L 65.697345 157.993189 
L 66.307293 140.927721 
L 66.91724 133.174869 
L 67.527187 145.814722 
L 68.137134 125.699065 
L 69.357028 113.487764 
L 69.966976 117.981561 
L 70.576923 148.523489 
L 71.18687 127.891812 
L 71.796817 101.541709 
L 72.406764 96.228901 
L 73.016711 94.582242 
L 73.626659 98.973032 
L 74.236606 91.220812 
L 76.066447 117.580818 
L 76.676394 81.514362 
L 77.286342 82.820557 
L 77.896289 91.980139 
L 78.506236 78.350452 
L 79.116183 81.381769 
L 79.72613 86.066872 
L 80.336077 74.689282 
L 81.555972 88.628736 
L 82.165919 70.976774 
L 82.775866 67.743084 
L 83.385813 67.281467 
L 83.99576 60.750943 
L 84.605708 51.03198 
L 85.215655 56.622553 
L 85.825602 54.797205 
L 86.435549 57.28451 
L 87.045496 54.83734 
L 87.655444 50.629196 
L 88.265391 49.909023 
L 88.875338 55.518998 
L 89.485285 58.299386 
L 90.095232 64.164491 
L 90.705179 67.886736 
L 91.315127 84.772572 
L 91.925074 136.093744 
L 92.535021 93.007744 
L 93.144968 98.539441 
L 93.754915 81.227688 
L 94.364862 82.095818 
L 94.97481 74.786568 
L 95.584757 82.436473 
L 96.194704 67.069831 
L 96.804651 69.402304 
L 98.024545 57.706439 
L 98.634493 58.227407 
L 99.24444 49.923854 
L 99.854387 48.41375 
L 100.464334 39.328524 
L 101.684228 29.903369 
L 102.294176 26.513958 
L 102.904123 25.279962 
L 103.51407 22.973791 
L 104.124017 22.105194 
L 104.733964 21.568857 
L 105.343911 20.843551 
L 105.953859 21.108674 
L 106.563806 21.779871 
L 107.173753 21.835494 
L 107.7837 21.112516 
L 109.003594 20.212705 
L 110.223489 18.202322 
L 110.833436 18.446981 
L 111.443383 18.368475 
L 112.05333 19.280876 
L 112.663277 19.084362 
L 113.273225 19.761481 
L 113.883172 19.107146 
L 114.493119 19.070239 
L 115.103066 18.264153 
L 115.713013 18.019539 
L 116.32296 19.387792 
L 116.932908 19.022397 
L 117.542855 17.511123 
L 118.152802 17.761652 
L 118.762749 17.578329 
L 119.372696 19.707256 
L 119.982643 19.98435 
L 120.592591 19.209968 
L 121.202538 18.808869 
L 121.812485 19.231687 
L 122.422432 17.876707 
L 123.032379 18.453159 
L 123.642326 18.128338 
L 124.252274 18.115379 
L 124.862221 19.171724 
L 125.472168 19.15023 
L 126.082115 18.277971 
L 126.692062 29.516473 
L 127.302009 19.317982 
L 127.911957 18.990519 
L 129.131851 19.166042 
L 129.741798 19.890595 
L 130.351745 19.476614 
L 130.961692 18.770524 
L 131.57164 18.435262 
L 133.401481 17.855035 
L 134.621375 18.087547 
L 135.231323 17.252908 
L 135.84127 17.091759 
L 136.451217 19.687528 
L 137.061164 19.070346 
L 137.671111 18.216228 
L 138.891006 18.626084 
L 140.1109 18.702538 
L 140.720847 19.018882 
L 141.330794 18.501747 
L 141.940741 17.701139 
L 142.550689 17.411698 
L 143.160636 17.402874 
L 143.770583 17.521348 
L 144.38053 18.388161 
L 144.990477 19.019054 
L 145.600424 18.147842 
L 146.210372 18.265469 
L 146.820319 17.957244 
L 147.430266 18.297835 
L 148.040213 17.452447 
L 148.65016 17.945551 
L 149.260107 17.776897 
L 150.480002 18.145947 
L 151.089949 19.410856 
L 152.309843 17.752207 
L 153.529738 18.642749 
L 154.139685 20.426568 
L 154.749632 17.423641 
L 155.359579 17.043586 
L 155.969526 17.102671 
L 156.579473 19.251621 
L 157.189421 20.009377 
L 157.799368 19.076341 
L 159.019262 21.025293 
L 159.629209 19.794098 
L 160.239156 18.867026 
L 160.849104 19.091322 
L 161.459051 17.727261 
L 162.678945 18.231354 
L 163.288892 17.887042 
L 165.118734 17.708257 
L 165.728681 18.58073 
L 166.338628 18.125597 
L 166.948575 18.262184 
L 167.558522 18.534948 
L 168.16847 18.37348 
L 168.778417 19.329034 
L 169.388364 18.834577 
L 169.998311 18.032944 
L 170.608258 19.012777 
L 171.218205 18.086737 
L 171.828153 19.822119 
L 172.4381 19.440409 
L 173.048047 18.173882 
L 173.657994 17.615897 
L 174.267941 17.867467 
L 174.877888 17.625895 
L 175.487836 17.058948 
L 176.097783 17.157778 
L 176.70773 18.8206 
L 177.317677 17.71933 
L 177.927624 17.679593 
L 179.147519 18.461681 
L 179.757466 19.368733 
L 180.367413 18.362465 
L 180.97736 19.283934 
L 181.587307 18.283188 
L 182.197254 17.978747 
L 184.027096 18.015039 
L 184.637043 17.776568 
L 185.24699 18.528515 
L 185.856937 17.454436 
L 186.466885 17.775156 
L 188.296726 17.657361 
L 188.906673 18.570036 
L 189.51662 18.11349 
L 190.126568 18.486831 
L 190.736515 21.117564 
L 191.346462 19.584343 
L 191.956409 19.272752 
L 192.566356 18.70178 
L 193.176303 19.04954 
L 193.786251 19.932138 
L 194.396198 18.681843 
L 195.006145 20.813137 
L 195.616092 19.739626 
L 196.226039 19.468143 
L 196.835986 19.346085 
L 197.445934 20.273113 
L 198.055881 19.851457 
L 198.665828 19.197152 
L 199.275775 20.832521 
L 199.885722 19.343209 
L 201.105617 19.875876 
L 201.715564 20.538501 
L 202.325511 20.210868 
L 203.545405 18.59523 
L 204.155352 18.44229 
L 204.7653 21.254398 
L 205.375247 18.319818 
L 205.985194 17.705821 
L 206.595141 18.772391 
L 207.205088 18.894494 
L 207.815035 20.892488 
L 208.424983 17.838661 
L 209.03493 17.719711 
L 209.644877 16.664701 
L 210.254824 17.938676 
L 210.864771 18.080667 
L 211.474718 18.45216 
L 212.084666 18.552261 
L 212.694613 17.796729 
L 213.30456 17.285019 
L 213.914507 17.811727 
L 214.524454 17.810606 
L 215.134401 17.514004 
L 215.744349 17.0157 
L 216.354296 19.041107 
L 216.964243 17.780479 
L 217.57419 17.916672 
L 218.184137 18.925333 
L 218.794084 17.262 
L 219.404032 17.549454 
L 220.013979 16.746839 
L 220.623926 16.487764 
L 221.233873 18.840521 
L 221.84382 17.009631 
L 222.453767 16.783653 
L 223.063715 16.861717 
L 223.673662 18.075917 
L 224.283609 17.140046 
L 224.893556 18.287184 
L 225.503503 17.662587 
L 226.11345 16.587417 
L 226.723398 16.60575 
L 227.333345 16.971459 
L 227.943292 18.032412 
L 228.553239 18.632498 
L 229.163186 18.198989 
L 229.773133 18.028713 
L 230.383081 16.877279 
L 230.993028 17.151649 
L 232.212922 18.524992 
L 232.822869 19.81442 
L 233.432816 17.993443 
L 234.042764 19.233038 
L 234.652711 18.176965 
L 235.262658 17.883719 
L 235.872605 17.781601 
L 236.482552 16.885294 
L 237.092499 17.184856 
L 237.702447 19.901884 
L 238.312394 17.862694 
L 238.922341 19.424014 
L 239.532288 18.698605 
L 240.142235 16.864471 
L 240.752182 17.557165 
L 241.36213 16.985348 
L 241.972077 17.240349 
L 242.582024 17.656885 
L 243.191971 17.167809 
L 243.801918 16.904421 
L 244.411865 18.390169 
L 245.021813 17.065211 
L 245.63176 18.18072 
L 246.241707 19.610214 
L 246.851654 19.877705 
L 247.461601 55.684398 
L 248.071548 21.391452 
L 248.681496 20.866901 
L 249.291443 20.70672 
L 249.90139 19.380743 
L 250.511337 17.596659 
L 251.121284 16.887312 
L 251.731231 18.001638 
L 252.951126 17.894961 
L 253.561073 19.851613 
L 254.17102 17.38212 
L 254.780967 17.983918 
L 255.390914 17.938965 
L 256.610809 16.732512 
L 257.220756 17.068466 
L 257.830703 16.350233 
L 258.44065 16.122286 
L 259.050597 17.173883 
L 259.660545 17.821514 
L 260.270492 17.03803 
L 260.880439 16.666032 
L 261.490386 16.644934 
L 262.100333 18.551171 
L 262.71028 16.869203 
L 263.320228 17.568919 
L 263.930175 19.405572 
L 264.540122 18.368344 
L 265.150069 18.828128 
L 265.760016 18.11389 
L 266.369963 18.573917 
L 266.979911 18.465432 
L 268.199805 18.586186 
L 268.809752 17.28635 
L 269.419699 17.192601 
L 270.029646 17.796409 
L 270.639594 16.912481 
L 271.249541 16.801351 
L 271.859488 16.360049 
L 272.469435 16.747083 
L 273.079382 16.994101 
L 274.299277 16.851292 
L 274.909224 17.65302 
L 275.519171 17.786239 
L 276.129118 16.560925 
L 276.739065 17.414086 
L 277.349012 18.48896 
L 277.95896 17.948021 
L 278.568907 16.509302 
L 279.178854 17.23276 
L 280.398748 16.50608 
L 281.008695 17.624415 
L 281.618643 17.733734 
L 282.22859 18.430814 
L 282.838537 18.706125 
L 283.448484 17.652377 
L 284.058431 19.976093 
L 285.278326 20.896325 
L 285.888273 22.449739 
L 286.49822 20.541361 
L 287.108167 19.030259 
L 287.718114 18.426042 
L 288.328061 21.368269 
L 288.938009 21.295829 
L 289.547956 20.391005 
L 290.76785 20.591956 
L 291.377797 21.022428 
L 291.987744 19.633362 
L 292.597692 18.967462 
L 293.207639 18.721692 
L 293.817586 18.309426 
L 294.427533 17.137219 
L 295.647427 16.942262 
L 296.257375 16.238449 
L 296.867322 17.118151 
L 297.477269 16.291294 
L 298.087216 15.846399 
L 298.697163 15.922192 
L 299.30711 15.71964 
L 299.917058 16.952549 
L 300.527005 17.855221 
L 301.136952 18.00449 
L 301.746899 16.634175 
L 302.356846 18.112507 
L 302.966793 17.386227 
L 304.186688 17.041936 
L 304.796635 16.490629 
L 306.016529 16.909647 
L 306.626476 16.062977 
L 307.236424 16.438571 
L 307.846371 16.13622 
L 308.456318 16.390399 
L 309.066265 16.239925 
L 309.676212 15.642251 
L 310.896107 17.662683 
L 312.116001 16.202709 
L 312.725948 16.103581 
L 313.335895 17.346749 
L 313.945842 17.88227 
L 314.55579 17.956575 
L 315.165737 17.280625 
L 315.775684 15.818418 
L 316.385631 16.578569 
L 316.995578 16.573997 
L 317.605525 15.29866 
L 318.82542 15.581184 
L 319.435367 16.378382 
L 320.045314 16.613274 
L 320.655261 17.666631 
L 321.265208 20.671626 
L 321.875156 18.492175 
L 322.485103 17.372122 
L 323.09505 17.088347 
L 323.704997 18.66852 
L 324.314944 18.07748 
L 324.924891 16.634236 
L 325.534839 19.353144 
L 326.144786 19.480958 
L 327.36468 17.821393 
L 327.974627 17.445177 
L 329.194522 20.864256 
L 330.414416 17.607642 
L 331.024363 17.305306 
L 331.63431 17.287105 
L 332.244257 16.745634 
L 332.854205 17.294614 
L 333.464152 16.164605 
L 334.074099 15.72908 
L 334.684046 15.561693 
L 335.293993 17.371052 
L 335.90394 16.087576 
L 336.513888 15.75911 
L 337.123835 16.613138 
L 337.733782 17.11915 
L 338.343729 16.329367 
L 338.953676 18.102971 
L 339.563623 17.764693 
L 340.783518 18.7564 
L 341.393465 20.226402 
L 342.003412 17.951479 
L 342.613359 18.503269 
L 343.223306 17.447635 
L 343.833254 17.71094 
L 344.443201 18.889193 
L 345.053148 17.568582 
L 345.663095 18.417656 
L 346.273042 17.924349 
L 346.88299 17.978504 
L 347.492937 19.292018 
L 348.102884 18.585031 
L 348.712831 18.382347 
L 349.322778 19.753903 
L 349.932725 20.187826 
L 351.15262 18.499223 
L 351.762567 18.364212 
L 352.982461 17.769852 
L 353.592408 17.711027 
L 354.202356 18.898486 
L 354.812303 18.362129 
L 355.42225 21.808877 
L 356.032197 20.943223 
L 356.642144 21.350228 
L 357.252091 19.21632 
L 358.471986 17.57544 
L 359.69188 16.155295 
L 360.301827 19.019133 
L 360.911774 16.754468 
L 361.521722 17.559384 
L 362.131669 18.657725 
L 362.741616 18.307996 
L 363.351563 17.487308 
L 363.96151 17.162536 
L 364.571457 17.191838 
L 365.181405 16.347372 
L 365.791352 16.012115 
L 366.401299 17.610463 
L 367.011246 17.075691 
L 367.621193 17.134871 
L 367.621193 17.134871 
" clip-path="url(#p91c05def72)" style="fill: none; stroke-dasharray: 3.7,1.6; stroke-dashoffset: 0; stroke: #000000"/>
   </g>
   <g id="patch_3">
    <path d="M 48.039375 253.08 
L 48.039375 3.6 
" style="fill: none; stroke: #000000; stroke-width: 0.5; stroke-linejoin: miter; stroke-linecap: square"/>
   </g>
   <g id="patch_4">
    <path d="M 382.839375 253.08 
L 382.839375 3.6 
" style="fill: none; stroke: #000000; stroke-width: 0.5; stroke-linejoin: miter; stroke-linecap: square"/>
   </g>
   <g id="patch_5">
    <path d="M 48.039375 253.08 
L 382.839375 253.08 
" style="fill: none; stroke: #000000; stroke-width: 0.5; stroke-linejoin: miter; stroke-linecap: square"/>
   </g>
   <g id="patch_6">
    <path d="M 48.039375 3.6 
L 382.839375 3.6 
" style="fill: none; stroke: #000000; stroke-width: 0.5; stroke-linejoin: miter; stroke-linecap: square"/>
   </g>
   <g id="legend_1">
    <g id="patch_7">
     <path d="M 256.633125 247.08 
L 374.439375 247.08 
Q 376.839375 247.08 376.839375 244.68 
L 376.839375 193.03875 
Q 376.839375 190.63875 374.439375 190.63875 
L 256.633125 190.63875 
Q 254.233125 190.63875 254.233125 193.03875 
L 254.233125 244.68 
Q 254.233125 247.08 256.633125 247.08 
z
" style="fill: #ffffff; opacity: 0.8; stroke: #cccccc; stroke-linejoin: miter"/>
    </g>
    <g id="line2d_145">
     <path d="M 259.033125 200.356875 
L 271.033125 200.356875 
L 283.033125 200.356875 
" style="fill: none; stroke: #000000; stroke-linecap: square"/>
    </g>
    <g id="text_17">
     <!-- Max fitness -->
     <g transform="translate(292.633125 204.556875) scale(0.12 -0.12)">
      <defs>
       <path id="DejaVuSans-4d" d="M 628 4666 
L 1569 4666 
L 2759 1491 
L 3956 4666 
L 4897 4666 
L 4897 0 
L 4281 0 
L 4281 4097 
L 3078 897 
L 2444 897 
L 1241 4097 
L 1241 0 
L 628 0 
L 628 4666 
z
" transform="scale(0.015625)"/>
       <path id="DejaVuSans-78" d="M 3513 3500 
L 2247 1797 
L 3578 0 
L 2900 0 
L 1881 1375 
L 863 0 
L 184 0 
L 1544 1831 
L 300 3500 
L 978 3500 
L 1906 2253 
L 2834 3500 
L 3513 3500 
z
" transform="scale(0.015625)"/>
       <path id="DejaVuSans-20" transform="scale(0.015625)"/>
       <path id="DejaVuSans-66" d="M 2375 4863 
L 2375 4384 
L 1825 4384 
Q 1516 4384 1395 4259 
Q 1275 4134 1275 3809 
L 1275 3500 
L 2222 3500 
L 2222 3053 
L 1275 3053 
L 1275 0 
L 697 0 
L 697 3053 
L 147 3053 
L 147 3500 
L 697 3500 
L 697 3744 
Q 697 4328 969 4595 
Q 1241 4863 1831 4863 
L 2375 4863 
z
" transform="scale(0.015625)"/>
      </defs>
      <use xlink:href="#DejaVuSans-4d"/>
      <use xlink:href="#DejaVuSans-61" x="86.279297"/>
      <use xlink:href="#DejaVuSans-78" x="147.558594"/>
      <use xlink:href="#DejaVuSans-20" x="206.738281"/>
      <use xlink:href="#DejaVuSans-66" x="238.525391"/>
      <use xlink:href="#DejaVuSans-69" x="273.730469"/>
      <use xlink:href="#DejaVuSans-74" x="301.513672"/>
      <use xlink:href="#DejaVuSans-6e" x="340.722656"/>
      <use xlink:href="#DejaVuSans-65" x="404.101562"/>
      <use xlink:href="#DejaVuSans-73" x="465.625"/>
      <use xlink:href="#DejaVuSans-73" x="517.724609"/>
     </g>
    </g>
    <g id="patch_8">
     <path d="M 259.033125 222.170625 
L 283.033125 222.170625 
L 283.033125 213.770625 
L 259.033125 213.770625 
z
" style="fill: #0000ff; fill-opacity: 0.2; stroke: #0000ff; stroke-opacity: 0.2; stroke-linejoin: miter"/>
    </g>
    <g id="text_18">
     <!-- Top 90% -->
     <g transform="translate(292.633125 222.170625) scale(0.12 -0.12)">
      <defs>
       <path id="DejaVuSans-54" d="M -19 4666 
L 3928 4666 
L 3928 4134 
L 2272 4134 
L 2272 0 
L 1638 0 
L 1638 4134 
L -19 4134 
L -19 4666 
z
" transform="scale(0.015625)"/>
       <path id="DejaVuSans-70" d="M 1159 525 
L 1159 -1331 
L 581 -1331 
L 581 3500 
L 1159 3500 
L 1159 2969 
Q 1341 3281 1617 3432 
Q 1894 3584 2278 3584 
Q 2916 3584 3314 3078 
Q 3713 2572 3713 1747 
Q 3713 922 3314 415 
Q 2916 -91 2278 -91 
Q 1894 -91 1617 61 
Q 1341 213 1159 525 
z
M 3116 1747 
Q 3116 2381 2855 2742 
Q 2594 3103 2138 3103 
Q 1681 3103 1420 2742 
Q 1159 2381 1159 1747 
Q 1159 1113 1420 752 
Q 1681 391 2138 391 
Q 2594 391 2855 752 
Q 3116 1113 3116 1747 
z
" transform="scale(0.015625)"/>
       <path id="DejaVuSans-39" d="M 703 97 
L 703 672 
Q 941 559 1184 500 
Q 1428 441 1663 441 
Q 2288 441 2617 861 
Q 2947 1281 2994 2138 
Q 2813 1869 2534 1725 
Q 2256 1581 1919 1581 
Q 1219 1581 811 2004 
Q 403 2428 403 3163 
Q 403 3881 828 4315 
Q 1253 4750 1959 4750 
Q 2769 4750 3195 4129 
Q 3622 3509 3622 2328 
Q 3622 1225 3098 567 
Q 2575 -91 1691 -91 
Q 1453 -91 1209 -44 
Q 966 3 703 97 
z
M 1959 2075 
Q 2384 2075 2632 2365 
Q 2881 2656 2881 3163 
Q 2881 3666 2632 3958 
Q 2384 4250 1959 4250 
Q 1534 4250 1286 3958 
Q 1038 3666 1038 3163 
Q 1038 2656 1286 2365 
Q 1534 2075 1959 2075 
z
" transform="scale(0.015625)"/>
       <path id="DejaVuSans-25" d="M 4653 2053 
Q 4381 2053 4226 1822 
Q 4072 1591 4072 1178 
Q 4072 772 4226 539 
Q 4381 306 4653 306 
Q 4919 306 5073 539 
Q 5228 772 5228 1178 
Q 5228 1588 5073 1820 
Q 4919 2053 4653 2053 
z
M 4653 2450 
Q 5147 2450 5437 2106 
Q 5728 1763 5728 1178 
Q 5728 594 5436 251 
Q 5144 -91 4653 -91 
Q 4153 -91 3862 251 
Q 3572 594 3572 1178 
Q 3572 1766 3864 2108 
Q 4156 2450 4653 2450 
z
M 1428 4353 
Q 1159 4353 1004 4120 
Q 850 3888 850 3481 
Q 850 3069 1003 2837 
Q 1156 2606 1428 2606 
Q 1700 2606 1854 2837 
Q 2009 3069 2009 3481 
Q 2009 3884 1853 4118 
Q 1697 4353 1428 4353 
z
M 4250 4750 
L 4750 4750 
L 1831 -91 
L 1331 -91 
L 4250 4750 
z
M 1428 4750 
Q 1922 4750 2215 4408 
Q 2509 4066 2509 3481 
Q 2509 2891 2217 2550 
Q 1925 2209 1428 2209 
Q 931 2209 642 2551 
Q 353 2894 353 3481 
Q 353 4063 643 4406 
Q 934 4750 1428 4750 
z
" transform="scale(0.015625)"/>
      </defs>
      <use xlink:href="#DejaVuSans-54"/>
      <use xlink:href="#DejaVuSans-6f" x="44.083984"/>
      <use xlink:href="#DejaVuSans-70" x="105.265625"/>
      <use xlink:href="#DejaVuSans-20" x="168.742188"/>
      <use xlink:href="#DejaVuSans-39" x="200.529297"/>
      <use xlink:href="#DejaVuSans-30" x="264.152344"/>
      <use xlink:href="#DejaVuSans-25" x="327.775391"/>
     </g>
    </g>
    <g id="line2d_146">
     <path d="M 259.033125 235.584375 
L 271.033125 235.584375 
L 283.033125 235.584375 
" style="fill: none; stroke-dasharray: 3.7,1.6; stroke-dashoffset: 0; stroke: #000000"/>
    </g>
    <g id="text_19">
     <!-- Fitness mean -->
     <g transform="translate(292.633125 239.784375) scale(0.12 -0.12)">
      <defs>
       <path id="DejaVuSans-6d" d="M 3328 2828 
Q 3544 3216 3844 3400 
Q 4144 3584 4550 3584 
Q 5097 3584 5394 3201 
Q 5691 2819 5691 2113 
L 5691 0 
L 5113 0 
L 5113 2094 
Q 5113 2597 4934 2840 
Q 4756 3084 4391 3084 
Q 3944 3084 3684 2787 
Q 3425 2491 3425 1978 
L 3425 0 
L 2847 0 
L 2847 2094 
Q 2847 2600 2669 2842 
Q 2491 3084 2119 3084 
Q 1678 3084 1418 2786 
Q 1159 2488 1159 1978 
L 1159 0 
L 581 0 
L 581 3500 
L 1159 3500 
L 1159 2956 
Q 1356 3278 1631 3431 
Q 1906 3584 2284 3584 
Q 2666 3584 2933 3390 
Q 3200 3197 3328 2828 
z
" transform="scale(0.015625)"/>
      </defs>
      <use xlink:href="#DejaVuSans-46"/>
      <use xlink:href="#DejaVuSans-69" x="50.269531"/>
      <use xlink:href="#DejaVuSans-74" x="78.052734"/>
      <use xlink:href="#DejaVuSans-6e" x="117.261719"/>
      <use xlink:href="#DejaVuSans-65" x="180.640625"/>
      <use xlink:href="#DejaVuSans-73" x="242.164062"/>
      <use xlink:href="#DejaVuSans-73" x="294.263672"/>
      <use xlink:href="#DejaVuSans-20" x="346.363281"/>
      <use xlink:href="#DejaVuSans-6d" x="378.150391"/>
      <use xlink:href="#DejaVuSans-65" x="475.5625"/>
      <use xlink:href="#DejaVuSans-61" x="537.085938"/>
      <use xlink:href="#DejaVuSans-6e" x="598.365234"/>
     </g>
    </g>
   </g>
  </g>
 </g>
 <defs>
  <clipPath id="p91c05def72">
   <rect x="48.039375" y="3.6" width="334.8" height="249.48"/>
  </clipPath>
 </defs>
</svg>
