<?xml version="1.0" encoding="utf-8" standalone="no"?>
<!DOCTYPE svg PUBLIC "-//W3C//DTD SVG 1.1//EN"
  "http://www.w3.org/Graphics/SVG/1.1/DTD/svg11.dtd">
<svg xmlns:xlink="http://www.w3.org/1999/xlink" width="386.439375pt" height="287.4075pt" viewBox="0 0 386.439375 287.4075" xmlns="http://www.w3.org/2000/svg" version="1.1">
 <metadata>
  <rdf:RDF xmlns:dc="http://purl.org/dc/elements/1.1/" xmlns:cc="http://creativecommons.org/ns#" xmlns:rdf="http://www.w3.org/1999/02/22-rdf-syntax-ns#">
   <cc:Work>
    <dc:type rdf:resource="http://purl.org/dc/dcmitype/StillImage"/>
    <dc:date>2024-06-04T10:27:07.400074</dc:date>
    <dc:format>image/svg+xml</dc:format>
    <dc:creator>
     <cc:Agent>
      <dc:title>Matplotlib v3.9.0, https://matplotlib.org/</dc:title>
     </cc:Agent>
    </dc:creator>
   </cc:Work>
  </rdf:RDF>
 </metadata>
 <defs>
  <style type="text/css">*{stroke-linejoin: round; stroke-linecap: butt}</style>
 </defs>
 <g id="figure_1">
  <g id="patch_1">
   <path d="M 0 287.4075 
L 386.439375 287.4075 
L 386.439375 0 
L 0 0 
z
" style="fill: #ffffff"/>
  </g>
  <g id="axes_1">
   <g id="patch_2">
    <path d="M 48.039375 253.08 
L 382.839375 253.08 
L 382.839375 3.6 
L 48.039375 3.6 
z
" style="fill: #ffffff"/>
   </g>
   <g id="PolyCollection_1">
    <defs>
     <path id="mf841aba414" d="M 63.257557 -255.065456 
L 63.257557 -45.6675 
L 63.867504 -49.676633 
L 64.477451 -118.91386 
L 65.087398 -159.756909 
L 65.697345 -127.262157 
L 66.307293 -165.05898 
L 66.91724 -152.037825 
L 67.527187 -160.049092 
L 68.137134 -161.017395 
L 68.747081 -162.916287 
L 69.357028 -172.387609 
L 69.966976 -166.831893 
L 70.576923 -170.607292 
L 71.18687 -171.22877 
L 71.796817 -163.55019 
L 72.406764 -164.393706 
L 73.016711 -153.038917 
L 73.626659 -170.467356 
L 74.236606 -172.353857 
L 74.846553 -180.466833 
L 75.4565 -183.406777 
L 76.066447 -176.63376 
L 76.676394 -188.351739 
L 77.286342 -190.505054 
L 77.896289 -187.895829 
L 78.506236 -190.505054 
L 79.116183 -192.472798 
L 79.72613 -223.957283 
L 80.336077 -241.523551 
L 80.946025 -248.46806 
L 81.555972 -250.614387 
L 82.165919 -249.35618 
L 82.775866 -251.162659 
L 83.385813 -256.492617 
L 83.99576 -258.244968 
L 84.605708 -258.411866 
L 85.215655 -258.421483 
L 85.825602 -260.417406 
L 86.435549 -260.417413 
L 87.045496 -260.692295 
L 87.655444 -260.798933 
L 88.265391 -260.919226 
L 88.875338 -260.870964 
L 89.485285 -260.923992 
L 90.095232 -262.17515 
L 90.705179 -260.819926 
L 91.315127 -256.056314 
L 91.925074 -260.972928 
L 92.535021 -262.136114 
L 93.144968 -262.136099 
L 93.754915 -257.577304 
L 94.364862 -258.568614 
L 94.97481 -256.736681 
L 95.584757 -253.988526 
L 96.194704 -254.117043 
L 96.804651 -255.914214 
L 97.414598 -254.117099 
L 98.024545 -256.459502 
L 98.634493 -259.327123 
L 99.24444 -260.884648 
L 99.854387 -262.114164 
L 100.464334 -260.755591 
L 101.074281 -262.653097 
L 101.684228 -261.213184 
L 102.294176 -261.784979 
L 102.904123 -260.985046 
L 103.51407 -258.321628 
L 104.124017 -262.017518 
L 104.733964 -264.640559 
L 105.343911 -265.130597 
L 105.953859 -265.724087 
L 106.563806 -265.182439 
L 107.173753 -263.744842 
L 107.7837 -258.742562 
L 108.393647 -260.161305 
L 109.003594 -261.294702 
L 109.613542 -262.29171 
L 110.223489 -263.242148 
L 110.833436 -265.44029 
L 111.443383 -262.292026 
L 112.05333 -263.846717 
L 112.663277 -264.34658 
L 113.273225 -264.061788 
L 113.883172 -264.014205 
L 114.493119 -264.519483 
L 115.103066 -264.870296 
L 115.713013 -264.619612 
L 116.32296 -265.049006 
L 116.932908 -264.619606 
L 117.542855 -262.906878 
L 118.152802 -264.231362 
L 118.762749 -264.23133 
L 119.372696 -263.302866 
L 119.982643 -263.930132 
L 120.592591 -264.001469 
L 121.202538 -261.241107 
L 121.812485 -261.240924 
L 122.422432 -262.819919 
L 123.032379 -263.560775 
L 123.642326 -264.839329 
L 124.252274 -265.286589 
L 124.862221 -265.28659 
L 125.472168 -265.274189 
L 126.082115 -265.166687 
L 126.692062 -264.863509 
L 127.302009 -263.656945 
L 127.911957 -262.747722 
L 128.521904 -263.566281 
L 129.131851 -261.871381 
L 129.741798 -264.274393 
L 130.351745 -265.286579 
L 130.961692 -265.681207 
L 131.57164 -265.063025 
L 132.181587 -264.460762 
L 132.791534 -264.136267 
L 133.401481 -263.819694 
L 134.011428 -264.88451 
L 134.621375 -264.319166 
L 135.231323 -265.619441 
L 135.84127 -264.272703 
L 136.451217 -261.455419 
L 137.061164 -264.880717 
L 137.671111 -262.068264 
L 138.281058 -263.731335 
L 138.891006 -260.074806 
L 139.500953 -257.89187 
L 140.1109 -261.666773 
L 140.720847 -264.255585 
L 141.330794 -264.255636 
L 141.940741 -264.370568 
L 142.550689 -263.66898 
L 143.160636 -265.028516 
L 143.770583 -264.272052 
L 144.38053 -264.781605 
L 144.990477 -266.454605 
L 145.600424 -267.143166 
L 146.210372 -266.105262 
L 146.820319 -265.511154 
L 147.430266 -265.794187 
L 148.040213 -262.335641 
L 148.65016 -259.192811 
L 149.260107 -261.853581 
L 149.870055 -259.612647 
L 150.480002 -262.007372 
L 151.089949 -262.458878 
L 151.699896 -261.57027 
L 152.309843 -262.429578 
L 152.91979 -262.045941 
L 153.529738 -262.419681 
L 154.139685 -260.101452 
L 154.749632 -258.719686 
L 155.359579 -258.620978 
L 155.969526 -258.114098 
L 156.579473 -258.92044 
L 157.189421 -260.76459 
L 157.799368 -262.806424 
L 158.409315 -264.855223 
L 159.019262 -266.371109 
L 159.629209 -266.936473 
L 160.239156 -263.59355 
L 160.849104 -267.291966 
L 161.459051 -267.34382 
L 162.068998 -267.29193 
L 162.678945 -263.596781 
L 163.288892 -263.851762 
L 163.898839 -267.343798 
L 164.508787 -263.512523 
L 165.118734 -263.523787 
L 165.728681 -268.220358 
L 166.338628 -269.050863 
L 166.948575 -269.050831 
L 167.558522 -268.280626 
L 168.16847 -269.781995 
L 168.778417 -270.318245 
L 169.388364 -268.878691 
L 169.998311 -270.390206 
L 170.608258 -268.615761 
L 171.218205 -262.343861 
L 171.828153 -261.420595 
L 172.4381 -266.906089 
L 173.048047 -265.235872 
L 173.657994 -265.032605 
L 174.267941 -263.368898 
L 174.877888 -267.815663 
L 175.487836 -267.100944 
L 176.097783 -264.867311 
L 176.70773 -266.321634 
L 177.317677 -264.122706 
L 177.927624 -267.484131 
L 178.537571 -267.855397 
L 179.147519 -267.358773 
L 179.757466 -265.867153 
L 180.367413 -264.060721 
L 180.97736 -265.171597 
L 181.587307 -266.45723 
L 182.197254 -268.225566 
L 182.807202 -266.001229 
L 183.417149 -265.787367 
L 184.027096 -265.318911 
L 184.637043 -265.915914 
L 185.24699 -265.348442 
L 185.856937 -264.296812 
L 186.466885 -261.435897 
L 187.076832 -260.307611 
L 187.686779 -264.407729 
L 188.296726 -268.305311 
L 188.906673 -268.957063 
L 189.51662 -268.225571 
L 190.126568 -266.578101 
L 190.736515 -266.56715 
L 191.346462 -267.571387 
L 191.956409 -267.468413 
L 192.566356 -265.628428 
L 193.176303 -266.567145 
L 193.786251 -264.316928 
L 194.396198 -268.119726 
L 195.006145 -263.46989 
L 195.616092 -263.326485 
L 196.226039 -267.42971 
L 196.835986 -266.920978 
L 197.445934 -266.32417 
L 198.055881 -265.703324 
L 198.665828 -265.360428 
L 199.275775 -266.253802 
L 199.885722 -264.280718 
L 200.495669 -266.699655 
L 201.105617 -265.952429 
L 201.715564 -266.909682 
L 202.325511 -266.942024 
L 202.935458 -265.517954 
L 203.545405 -267.459409 
L 204.155352 -271.639588 
L 204.7653 -268.158865 
L 205.375247 -266.108177 
L 205.985194 -266.325853 
L 206.595141 -266.325868 
L 207.205088 -267.975333 
L 207.815035 -267.746454 
L 208.424983 -266.291127 
L 209.03493 -268.377811 
L 209.644877 -268.310058 
L 210.254824 -268.25122 
L 210.864771 -268.251258 
L 211.474718 -266.856326 
L 212.084666 -267.862713 
L 212.694613 -268.516475 
L 213.30456 -268.581702 
L 213.914507 -268.581727 
L 214.524454 -268.581705 
L 215.134401 -268.731481 
L 215.744349 -268.731508 
L 216.354296 -267.853365 
L 216.964243 -262.789869 
L 217.57419 -260.348021 
L 218.184137 -260.3575 
L 218.794084 -262.789879 
L 219.404032 -263.330155 
L 220.013979 -263.744866 
L 220.623926 -263.88652 
L 221.233873 -263.361447 
L 221.84382 -263.361449 
L 222.453767 -264.199906 
L 223.063715 -263.361444 
L 223.673662 -266.331332 
L 224.283609 -264.629679 
L 224.893556 -266.256284 
L 225.503503 -266.937074 
L 226.11345 -266.450957 
L 226.723398 -267.00754 
L 227.333345 -267.3633 
L 227.943292 -266.225939 
L 228.553239 -266.225883 
L 229.163186 -266.536042 
L 229.773133 -266.536087 
L 230.383081 -262.905581 
L 230.993028 -263.341522 
L 231.602975 -266.342066 
L 232.212922 -265.576599 
L 232.822869 -266.5908 
L 233.432816 -268.486888 
L 234.042764 -267.025326 
L 234.652711 -266.219386 
L 235.262658 -262.343465 
L 235.872605 -261.82512 
L 236.482552 -263.259065 
L 237.092499 -264.056327 
L 237.702447 -265.696665 
L 238.312394 -268.524705 
L 238.922341 -268.43282 
L 239.532288 -268.432878 
L 240.142235 -268.432886 
L 240.752182 -264.375706 
L 241.36213 -264.375658 
L 241.972077 -270.144703 
L 242.582024 -265.111634 
L 243.191971 -265.111623 
L 243.801918 -265.650496 
L 244.411865 -265.111645 
L 245.021813 -265.160648 
L 245.63176 -264.71049 
L 246.241707 -265.592039 
L 246.851654 -264.38458 
L 247.461601 -264.384638 
L 248.071548 -266.382716 
L 248.681496 -268.467149 
L 249.291443 -270.520522 
L 249.90139 -269.852012 
L 250.511337 -271.099611 
L 251.121284 -271.285638 
L 251.731231 -269.896808 
L 252.341179 -268.196886 
L 252.951126 -267.090354 
L 253.561073 -269.852022 
L 254.17102 -269.89682 
L 254.780967 -270.507294 
L 255.390914 -270.982466 
L 256.000862 -272.240051 
L 256.610809 -271.195679 
L 257.220756 -271.0575 
L 257.830703 -271.135355 
L 258.44065 -268.346517 
L 259.050597 -271.169881 
L 259.660545 -272.288564 
L 260.270492 -272.240004 
L 260.880439 -272.28862 
L 261.490386 -272.240059 
L 262.100333 -272.288445 
L 262.71028 -272.040915 
L 263.320228 -271.948699 
L 263.930175 -271.930328 
L 264.540122 -267.47923 
L 265.150069 -264.317921 
L 265.760016 -265.781467 
L 266.369963 -265.429283 
L 266.979911 -265.908756 
L 267.589858 -267.541857 
L 268.199805 -269.137577 
L 268.809752 -269.137544 
L 269.419699 -271.891447 
L 270.029646 -271.869904 
L 270.639594 -267.324449 
L 271.249541 -266.401832 
L 271.859488 -264.976714 
L 272.469435 -264.502084 
L 273.079382 -266.618859 
L 273.689329 -264.545211 
L 274.299277 -264.960746 
L 274.909224 -265.889846 
L 275.519171 -269.137499 
L 276.129118 -268.713841 
L 276.739065 -264.750232 
L 277.349012 -267.06643 
L 277.95896 -267.036979 
L 278.568907 -268.85324 
L 279.178854 -269.307545 
L 279.788801 -268.378424 
L 280.398748 -268.778252 
L 281.008695 -266.799607 
L 281.618643 -265.675508 
L 282.22859 -265.493055 
L 282.838537 -263.253774 
L 283.448484 -263.912779 
L 284.058431 -263.996819 
L 284.668378 -265.489209 
L 285.278326 -264.4028 
L 285.888273 -267.106075 
L 286.49822 -264.98962 
L 287.108167 -267.186611 
L 287.718114 -265.391023 
L 288.328061 -262.837225 
L 288.938009 -262.837192 
L 289.547956 -263.942389 
L 290.157903 -262.070755 
L 290.76785 -263.711717 
L 291.377797 -262.623136 
L 291.987744 -262.019851 
L 292.597692 -264.957397 
L 293.207639 -264.211231 
L 293.817586 -266.431038 
L 294.427533 -266.091357 
L 295.03748 -265.567092 
L 295.647427 -266.549601 
L 296.257375 -266.798413 
L 296.867322 -266.671335 
L 297.477269 -267.577184 
L 298.087216 -266.923367 
L 298.697163 -266.833389 
L 299.30711 -267.881955 
L 299.917058 -265.658519 
L 300.527005 -264.477784 
L 301.136952 -264.346609 
L 301.746899 -266.784791 
L 302.356846 -266.064641 
L 302.966793 -265.60368 
L 303.576741 -265.888043 
L 304.186688 -265.888003 
L 304.796635 -268.243061 
L 305.406582 -268.108395 
L 306.016529 -268.10841 
L 306.626476 -266.101914 
L 307.236424 -268.173895 
L 307.846371 -269.822404 
L 308.456318 -270.586843 
L 309.066265 -270.586692 
L 309.676212 -270.58688 
L 310.286159 -267.972733 
L 310.896107 -267.972656 
L 311.506054 -269.233281 
L 312.116001 -266.652874 
L 312.725948 -269.530525 
L 313.335895 -270.535335 
L 313.945842 -270.535361 
L 314.55579 -269.994025 
L 315.165737 -268.969052 
L 315.775684 -267.618719 
L 316.385631 -263.637416 
L 316.995578 -264.198301 
L 317.605525 -264.61773 
L 318.215473 -264.211219 
L 318.82542 -262.821903 
L 319.435367 -264.272254 
L 320.045314 -264.82384 
L 320.655261 -266.897983 
L 321.265208 -267.825656 
L 321.875156 -267.625709 
L 322.485103 -268.503998 
L 323.09505 -270.925674 
L 323.704997 -270.853482 
L 324.314944 -270.89038 
L 324.924891 -270.850888 
L 325.534839 -266.032959 
L 326.144786 -271.12607 
L 326.754733 -270.890294 
L 327.36468 -269.583597 
L 327.974627 -264.389716 
L 328.584574 -262.691705 
L 329.194522 -264.05395 
L 329.804469 -263.621595 
L 330.414416 -267.277781 
L 331.024363 -267.519596 
L 331.63431 -266.801453 
L 332.244257 -269.111514 
L 332.854205 -270.890397 
L 333.464152 -269.111474 
L 334.074099 -269.021793 
L 334.684046 -266.601082 
L 335.293993 -269.451147 
L 335.90394 -271.871741 
L 336.513888 -271.87187 
L 337.123835 -267.89013 
L 337.733782 -271.871807 
L 338.343729 -266.585557 
L 338.953676 -271.713049 
L 339.563623 -270.528189 
L 340.173571 -265.347234 
L 340.783518 -266.141866 
L 341.393465 -266.307953 
L 342.003412 -265.347198 
L 342.613359 -264.249447 
L 343.223306 -264.249423 
L 343.833254 -264.249347 
L 344.443201 -265.347246 
L 345.053148 -266.469317 
L 345.663095 -267.462179 
L 346.273042 -268.013142 
L 346.88299 -268.013091 
L 347.492937 -268.12435 
L 348.102884 -268.784189 
L 348.712831 -268.963577 
L 349.322778 -268.784195 
L 349.932725 -268.311308 
L 350.542673 -268.53358 
L 351.15262 -268.533671 
L 351.762567 -268.784186 
L 352.372514 -268.784171 
L 352.982461 -268.784192 
L 353.592408 -267.946971 
L 354.202356 -268.784275 
L 354.812303 -268.784013 
L 355.42225 -268.446343 
L 356.032197 -268.784063 
L 356.642144 -266.308994 
L 357.252091 -267.605754 
L 357.862039 -265.866418 
L 358.471986 -267.810793 
L 359.081933 -267.969838 
L 359.69188 -268.005535 
L 360.301827 -266.920164 
L 360.911774 -265.916361 
L 361.521722 -263.497642 
L 362.131669 -263.497618 
L 362.741616 -263.848486 
L 363.351563 -268.327416 
L 363.96151 -269.604518 
L 364.571457 -269.827272 
L 365.181405 -270.367801 
L 365.791352 -271.017519 
L 366.401299 -269.62734 
L 367.011246 -269.752144 
L 367.621193 -269.99615 
L 367.621193 -272.466863 
L 367.621193 -272.466863 
L 367.011246 -272.466863 
L 366.401299 -272.466846 
L 365.791352 -272.466845 
L 365.181405 -272.46689 
L 364.571457 -272.466858 
L 363.96151 -272.466829 
L 363.351563 -272.466867 
L 362.741616 -272.466914 
L 362.131669 -272.466846 
L 361.521722 -272.466833 
L 360.911774 -272.466856 
L 360.301827 -272.46687 
L 359.69188 -272.466879 
L 359.081933 -272.466852 
L 358.471986 -272.466837 
L 357.862039 -272.46687 
L 357.252091 -272.466871 
L 356.642144 -272.466855 
L 356.032197 -272.466844 
L 355.42225 -272.466851 
L 354.812303 -272.466849 
L 354.202356 -272.466953 
L 353.592408 -272.466904 
L 352.982461 -272.46688 
L 352.372514 -272.466874 
L 351.762567 -272.4675 
L 351.15262 -272.466867 
L 350.542673 -272.466869 
L 349.932725 -272.466864 
L 349.322778 -272.467439 
L 348.712831 -272.467353 
L 348.102884 -272.466889 
L 347.492937 -272.466853 
L 346.88299 -272.466875 
L 346.273042 -272.466859 
L 345.663095 -272.466874 
L 345.053148 -272.466863 
L 344.443201 -272.466867 
L 343.833254 -272.466856 
L 343.223306 -272.467154 
L 342.613359 -272.466864 
L 342.003412 -272.466872 
L 341.393465 -272.466888 
L 340.783518 -272.466876 
L 340.173571 -272.466884 
L 339.563623 -272.466853 
L 338.953676 -272.467109 
L 338.343729 -272.466874 
L 337.733782 -272.466857 
L 337.123835 -272.466888 
L 336.513888 -272.466921 
L 335.90394 -272.466868 
L 335.293993 -272.466871 
L 334.684046 -272.466872 
L 334.074099 -272.466908 
L 333.464152 -272.466869 
L 332.854205 -272.466878 
L 332.244257 -272.466876 
L 331.63431 -272.466868 
L 331.024363 -272.466888 
L 330.414416 -272.466834 
L 329.804469 -272.466882 
L 329.194522 -272.466866 
L 328.584574 -272.466854 
L 327.974627 -272.466907 
L 327.36468 -272.466843 
L 326.754733 -272.466887 
L 326.144786 -272.466833 
L 325.534839 -272.466857 
L 324.924891 -272.466884 
L 324.314944 -272.466867 
L 323.704997 -272.46735 
L 323.09505 -272.466925 
L 322.485103 -272.466869 
L 321.875156 -272.466931 
L 321.265208 -272.466841 
L 320.655261 -272.466856 
L 320.045314 -272.46683 
L 319.435367 -272.466865 
L 318.82542 -272.466853 
L 318.215473 -272.46694 
L 317.605525 -272.466873 
L 316.995578 -272.466809 
L 316.385631 -272.466851 
L 315.775684 -272.467283 
L 315.165737 -272.466855 
L 314.55579 -272.466868 
L 313.945842 -272.466845 
L 313.335895 -272.467475 
L 312.725948 -272.46687 
L 312.116001 -272.46687 
L 311.506054 -272.466846 
L 310.896107 -272.466852 
L 310.286159 -272.466862 
L 309.676212 -272.466838 
L 309.066265 -272.466853 
L 308.456318 -272.466861 
L 307.846371 -272.466847 
L 307.236424 -272.466873 
L 306.626476 -272.466841 
L 306.016529 -272.46682 
L 305.406582 -272.46685 
L 304.796635 -272.466844 
L 304.186688 -272.466853 
L 303.576741 -272.46687 
L 302.966793 -272.466845 
L 302.356846 -272.4668 
L 301.746899 -272.466818 
L 301.136952 -272.466836 
L 300.527005 -272.46681 
L 299.917058 -272.466796 
L 299.30711 -272.466714 
L 298.697163 -272.466735 
L 298.087216 -272.466741 
L 297.477269 -272.466664 
L 296.867322 -272.462997 
L 296.257375 -272.462997 
L 295.647427 -272.463004 
L 295.03748 -272.462989 
L 294.427533 -272.462983 
L 293.817586 -272.463006 
L 293.207639 -272.462972 
L 292.597692 -272.462989 
L 291.987744 -272.460577 
L 291.377797 -272.460582 
L 290.76785 -272.460586 
L 290.157903 -272.460575 
L 289.547956 -272.460575 
L 288.938009 -272.460595 
L 288.328061 -272.460572 
L 287.718114 -272.46057 
L 287.108167 -272.460573 
L 286.49822 -272.460597 
L 285.888273 -272.460577 
L 285.278326 -272.460577 
L 284.668378 -272.460574 
L 284.058431 -272.46057 
L 283.448484 -272.460565 
L 282.838537 -272.460576 
L 282.22859 -272.460586 
L 281.618643 -272.460567 
L 281.008695 -272.460561 
L 280.398748 -272.460571 
L 279.788801 -272.460572 
L 279.178854 -272.460569 
L 278.568907 -272.460588 
L 277.95896 -272.460573 
L 277.349012 -272.460563 
L 276.739065 -272.460603 
L 276.129118 -272.460567 
L 275.519171 -272.46056 
L 274.909224 -272.460575 
L 274.299277 -272.460588 
L 273.689329 -272.46056 
L 273.079382 -272.460566 
L 272.469435 -272.460563 
L 271.859488 -272.460579 
L 271.249541 -272.460596 
L 270.639594 -272.460595 
L 270.029646 -272.460569 
L 269.419699 -272.460562 
L 268.809752 -272.460577 
L 268.199805 -272.460591 
L 267.589858 -272.460578 
L 266.979911 -272.460577 
L 266.369963 -272.460572 
L 265.760016 -272.460574 
L 265.150069 -272.460568 
L 264.540122 -272.460575 
L 263.930175 -272.460567 
L 263.320228 -272.460571 
L 262.71028 -272.460567 
L 262.100333 -272.460578 
L 261.490386 -272.460582 
L 260.880439 -272.460582 
L 260.270492 -272.46057 
L 259.660545 -272.460583 
L 259.050597 -272.46057 
L 258.44065 -272.460561 
L 257.830703 -272.460579 
L 257.220756 -272.460574 
L 256.610809 -272.460564 
L 256.000862 -272.460568 
L 255.390914 -272.460569 
L 254.780967 -272.460567 
L 254.17102 -272.460581 
L 253.561073 -272.460585 
L 252.951126 -272.460571 
L 252.341179 -272.460575 
L 251.731231 -272.46059 
L 251.121284 -272.460564 
L 250.511337 -272.460583 
L 249.90139 -272.460573 
L 249.291443 -272.46058 
L 248.681496 -272.460578 
L 248.071548 -272.460567 
L 247.461601 -272.460606 
L 246.851654 -272.460571 
L 246.241707 -272.460589 
L 245.63176 -272.460572 
L 245.021813 -272.460575 
L 244.411865 -272.46055 
L 243.801918 -272.460586 
L 243.191971 -272.460581 
L 242.582024 -272.460559 
L 241.972077 -272.460545 
L 241.36213 -272.460552 
L 240.752182 -272.460551 
L 240.142235 -272.460561 
L 239.532288 -272.46055 
L 238.922341 -272.460522 
L 238.312394 -272.460552 
L 237.702447 -272.451838 
L 237.092499 -272.451817 
L 236.482552 -272.451809 
L 235.872605 -272.45183 
L 235.262658 -272.451808 
L 234.652711 -272.451849 
L 234.042764 -272.451851 
L 233.432816 -272.451839 
L 232.822869 -272.451822 
L 232.212922 -272.451815 
L 231.602975 -272.451829 
L 230.993028 -272.451813 
L 230.383081 -272.451811 
L 229.773133 -272.451818 
L 229.163186 -272.451867 
L 228.553239 -272.451811 
L 227.943292 -272.45184 
L 227.333345 -272.451829 
L 226.723398 -272.451882 
L 226.11345 -272.45183 
L 225.503503 -272.451855 
L 224.893556 -272.451827 
L 224.283609 -272.451823 
L 223.673662 -272.451808 
L 223.063715 -272.45183 
L 222.453767 -272.451809 
L 221.84382 -272.451851 
L 221.233873 -272.45182 
L 220.623926 -272.451867 
L 220.013979 -272.451848 
L 219.404032 -272.451839 
L 218.794084 -272.451824 
L 218.184137 -272.451824 
L 217.57419 -272.451806 
L 216.964243 -272.451832 
L 216.354296 -272.451806 
L 215.744349 -272.45182 
L 215.134401 -272.451806 
L 214.524454 -272.451802 
L 213.914507 -272.451802 
L 213.30456 -272.451794 
L 212.694613 -272.428494 
L 212.084666 -272.428506 
L 211.474718 -272.428511 
L 210.864771 -272.428499 
L 210.254824 -272.428497 
L 209.644877 -272.428494 
L 209.03493 -272.428493 
L 208.424983 -272.42852 
L 207.815035 -272.428525 
L 207.205088 -272.428494 
L 206.595141 -272.428492 
L 205.985194 -272.428486 
L 205.375247 -272.428507 
L 204.7653 -272.428533 
L 204.155352 -272.428494 
L 203.545405 -272.428487 
L 202.935458 -272.428511 
L 202.325511 -272.428487 
L 201.715564 -272.428492 
L 201.105617 -272.428485 
L 200.495669 -272.428456 
L 199.885722 -272.428473 
L 199.275775 -272.416219 
L 198.665828 -272.416165 
L 198.055881 -272.413992 
L 197.445934 -272.413989 
L 196.835986 -272.413988 
L 196.226039 -272.413997 
L 195.616092 -272.413989 
L 195.006145 -272.413996 
L 194.396198 -272.414 
L 193.786251 -272.413999 
L 193.176303 -272.413987 
L 192.566356 -272.413995 
L 191.956409 -272.413984 
L 191.346462 -272.413977 
L 190.736515 -272.413999 
L 190.126568 -272.413989 
L 189.51662 -272.413997 
L 188.906673 -272.413996 
L 188.296726 -272.414 
L 187.686779 -272.413992 
L 187.076832 -272.413988 
L 186.466885 -272.413977 
L 185.856937 -272.413988 
L 185.24699 -272.41399 
L 184.637043 -272.413987 
L 184.027096 -272.413995 
L 183.417149 -272.413976 
L 182.807202 -272.413982 
L 182.197254 -272.413987 
L 181.587307 -272.414001 
L 180.97736 -272.414 
L 180.367413 -272.413938 
L 179.757466 -272.413976 
L 179.147519 -272.413932 
L 178.537571 -272.413951 
L 177.927624 -272.413961 
L 177.317677 -272.413983 
L 176.70773 -272.303506 
L 176.097783 -272.303539 
L 175.487836 -272.303522 
L 174.877888 -272.303523 
L 174.267941 -272.3035 
L 173.657994 -272.30353 
L 173.048047 -272.303516 
L 172.4381 -272.30351 
L 171.828153 -272.303507 
L 171.218205 -272.303511 
L 170.608258 -272.303515 
L 169.998311 -272.303506 
L 169.388364 -272.303534 
L 168.778417 -272.303502 
L 168.16847 -272.303547 
L 167.558522 -272.303503 
L 166.948575 -272.303507 
L 166.338628 -272.303523 
L 165.728681 -272.303482 
L 165.118734 -272.303435 
L 164.508787 -272.30345 
L 163.898839 -272.303295 
L 163.288892 -272.303457 
L 162.678945 -272.247322 
L 162.068998 -272.247403 
L 161.459051 -272.247395 
L 160.849104 -272.247291 
L 160.239156 -272.247253 
L 159.629209 -272.24728 
L 159.019262 -272.247368 
L 158.409315 -272.207685 
L 157.799368 -272.207703 
L 157.189421 -272.207703 
L 156.579473 -272.207688 
L 155.969526 -272.207688 
L 155.359579 -272.207702 
L 154.749632 -272.207692 
L 154.139685 -272.207705 
L 153.529738 -272.207696 
L 152.91979 -272.207695 
L 152.309843 -272.207693 
L 151.699896 -272.207686 
L 151.089949 -272.207675 
L 150.480002 -272.207694 
L 149.870055 -272.207684 
L 149.260107 -272.207652 
L 148.65016 -272.207654 
L 148.040213 -272.207646 
L 147.430266 -272.022134 
L 146.820319 -272.02214 
L 146.210372 -272.022141 
L 145.600424 -272.022144 
L 144.990477 -272.022136 
L 144.38053 -272.022139 
L 143.770583 -272.022135 
L 143.160636 -272.022113 
L 142.550689 -272.022101 
L 141.940741 -272.022124 
L 141.330794 -272.022139 
L 140.720847 -271.425021 
L 140.1109 -271.425045 
L 139.500953 -271.424991 
L 138.891006 -271.424992 
L 138.281058 -271.425036 
L 137.671111 -271.424943 
L 137.061164 -270.933907 
L 136.451217 -270.933895 
L 135.84127 -270.933884 
L 135.231323 -270.933945 
L 134.621375 -270.933902 
L 134.011428 -270.933888 
L 133.401481 -270.933893 
L 132.791534 -270.933891 
L 132.181587 -270.933895 
L 131.57164 -270.933884 
L 130.961692 -270.892805 
L 130.351745 -270.312685 
L 129.741798 -270.312665 
L 129.131851 -270.312659 
L 128.521904 -270.312656 
L 127.911957 -270.312652 
L 127.302009 -270.258631 
L 126.692062 -270.258622 
L 126.082115 -270.253218 
L 125.472168 -270.253221 
L 124.862221 -270.253213 
L 124.252274 -270.25321 
L 123.642326 -270.253214 
L 123.032379 -270.253235 
L 122.422432 -270.253218 
L 121.812485 -270.253235 
L 121.202538 -270.25321 
L 120.592591 -270.253203 
L 119.982643 -270.253117 
L 119.372696 -270.253163 
L 118.762749 -270.253165 
L 118.152802 -270.253148 
L 117.542855 -270.253119 
L 116.932908 -270.253161 
L 116.32296 -270.253149 
L 115.713013 -270.253169 
L 115.103066 -270.104401 
L 114.493119 -270.104409 
L 113.883172 -270.104394 
L 113.273225 -270.104396 
L 112.663277 -270.104398 
L 112.05333 -270.104408 
L 111.443383 -270.104395 
L 110.833436 -270.104382 
L 110.223489 -270.104399 
L 109.613542 -270.10431 
L 109.003594 -270.104335 
L 108.393647 -270.104384 
L 107.7837 -270.104215 
L 107.173753 -270.104321 
L 106.563806 -270.104212 
L 105.953859 -270.104394 
L 105.343911 -270.104267 
L 104.733964 -270.075932 
L 104.124017 -270.075898 
L 103.51407 -270.075894 
L 102.904123 -270.075849 
L 102.294176 -270.037144 
L 101.684228 -270.037181 
L 101.074281 -270.037154 
L 100.464334 -270.037151 
L 99.854387 -270.037119 
L 99.24444 -270.000343 
L 98.634493 -269.926616 
L 98.024545 -269.926667 
L 97.414598 -269.92654 
L 96.804651 -269.861679 
L 96.194704 -269.861635 
L 95.584757 -269.861664 
L 94.97481 -269.861681 
L 94.364862 -269.861656 
L 93.754915 -269.861632 
L 93.144968 -269.861666 
L 92.535021 -269.861578 
L 91.925074 -269.861582 
L 91.315127 -269.86158 
L 90.705179 -268.382128 
L 90.095232 -268.38212 
L 89.485285 -268.382102 
L 88.875338 -268.382132 
L 88.265391 -268.382112 
L 87.655444 -267.097878 
L 87.045496 -267.097858 
L 86.435549 -267.097833 
L 85.825602 -267.097809 
L 85.215655 -267.097826 
L 84.605708 -266.936523 
L 83.99576 -266.889461 
L 83.385813 -266.869811 
L 82.775866 -266.863869 
L 82.165919 -266.863783 
L 81.555972 -266.692268 
L 80.946025 -266.692282 
L 80.336077 -266.692218 
L 79.72613 -266.692291 
L 79.116183 -266.692221 
L 78.506236 -266.692212 
L 77.896289 -266.692284 
L 77.286342 -266.692255 
L 76.676394 -265.015603 
L 76.066447 -264.840245 
L 75.4565 -264.700566 
L 74.846553 -264.700567 
L 74.236606 -264.700588 
L 73.626659 -264.700558 
L 73.016711 -264.700559 
L 72.406764 -264.700536 
L 71.796817 -264.700593 
L 71.18687 -260.301758 
L 70.576923 -260.301767 
L 69.966976 -260.301782 
L 69.357028 -260.301731 
L 68.747081 -260.301752 
L 68.137134 -260.301732 
L 67.527187 -256.22054 
L 66.91724 -255.066488 
L 66.307293 -255.065555 
L 65.697345 -255.064809 
L 65.087398 -255.064305 
L 64.477451 -255.06466 
L 63.867504 -255.066427 
L 63.257557 -255.065456 
z
" style="stroke: #0000ff; stroke-opacity: 0.2"/>
    </defs>
    <g clip-path="url(#pf0aa14ecb2)">
     <use xlink:href="#mf841aba414" x="0" y="287.4075" style="fill: #0000ff; fill-opacity: 0.2; stroke: #0000ff; stroke-opacity: 0.2"/>
    </g>
   </g>
   <g id="matplotlib.axis_1">
    <g id="xtick_1">
     <g id="line2d_1">
      <path d="M 63.257557 253.08 
L 63.257557 3.6 
" clip-path="url(#pf0aa14ecb2)" style="fill: none; stroke: #b0b0b0; stroke-width: 0.5; stroke-linecap: square"/>
     </g>
     <g id="line2d_2">
      <defs>
       <path id="m8d1c6c6931" d="M 0 0 
L 0 -3 
" style="stroke: #000000; stroke-width: 0.5"/>
      </defs>
      <g>
       <use xlink:href="#m8d1c6c6931" x="63.257557" y="253.08" style="stroke: #000000; stroke-width: 0.5"/>
      </g>
     </g>
     <g id="line2d_3">
      <defs>
       <path id="m19ce82a831" d="M 0 0 
L 0 3 
" style="stroke: #000000; stroke-width: 0.5"/>
      </defs>
      <g>
       <use xlink:href="#m19ce82a831" x="63.257557" y="3.6" style="stroke: #000000; stroke-width: 0.5"/>
      </g>
     </g>
     <g id="text_1">
      <!-- 0 -->
      <g transform="translate(59.440057 265.698125) scale(0.12 -0.12)">
       <defs>
        <path id="DejaVuSans-30" d="M 2034 4250 
Q 1547 4250 1301 3770 
Q 1056 3291 1056 2328 
Q 1056 1369 1301 889 
Q 1547 409 2034 409 
Q 2525 409 2770 889 
Q 3016 1369 3016 2328 
Q 3016 3291 2770 3770 
Q 2525 4250 2034 4250 
z
M 2034 4750 
Q 2819 4750 3233 4129 
Q 3647 3509 3647 2328 
Q 3647 1150 3233 529 
Q 2819 -91 2034 -91 
Q 1250 -91 836 529 
Q 422 1150 422 2328 
Q 422 3509 836 4129 
Q 1250 4750 2034 4750 
z
" transform="scale(0.015625)"/>
       </defs>
       <use xlink:href="#DejaVuSans-30"/>
      </g>
     </g>
    </g>
    <g id="xtick_2">
     <g id="line2d_4">
      <path d="M 124.252274 253.08 
L 124.252274 3.6 
" clip-path="url(#pf0aa14ecb2)" style="fill: none; stroke: #b0b0b0; stroke-width: 0.5; stroke-linecap: square"/>
     </g>
     <g id="line2d_5">
      <g>
       <use xlink:href="#m8d1c6c6931" x="124.252274" y="253.08" style="stroke: #000000; stroke-width: 0.5"/>
      </g>
     </g>
     <g id="line2d_6">
      <g>
       <use xlink:href="#m19ce82a831" x="124.252274" y="3.6" style="stroke: #000000; stroke-width: 0.5"/>
      </g>
     </g>
     <g id="text_2">
      <!-- 100 -->
      <g transform="translate(112.799774 265.698125) scale(0.12 -0.12)">
       <defs>
        <path id="DejaVuSans-31" d="M 794 531 
L 1825 531 
L 1825 4091 
L 703 3866 
L 703 4441 
L 1819 4666 
L 2450 4666 
L 2450 531 
L 3481 531 
L 3481 0 
L 794 0 
L 794 531 
z
" transform="scale(0.015625)"/>
       </defs>
       <use xlink:href="#DejaVuSans-31"/>
       <use xlink:href="#DejaVuSans-30" x="63.623047"/>
       <use xlink:href="#DejaVuSans-30" x="127.246094"/>
      </g>
     </g>
    </g>
    <g id="xtick_3">
     <g id="line2d_7">
      <path d="M 185.24699 253.08 
L 185.24699 3.6 
" clip-path="url(#pf0aa14ecb2)" style="fill: none; stroke: #b0b0b0; stroke-width: 0.5; stroke-linecap: square"/>
     </g>
     <g id="line2d_8">
      <g>
       <use xlink:href="#m8d1c6c6931" x="185.24699" y="253.08" style="stroke: #000000; stroke-width: 0.5"/>
      </g>
     </g>
     <g id="line2d_9">
      <g>
       <use xlink:href="#m19ce82a831" x="185.24699" y="3.6" style="stroke: #000000; stroke-width: 0.5"/>
      </g>
     </g>
     <g id="text_3">
      <!-- 200 -->
      <g transform="translate(173.79449 265.698125) scale(0.12 -0.12)">
       <defs>
        <path id="DejaVuSans-32" d="M 1228 531 
L 3431 531 
L 3431 0 
L 469 0 
L 469 531 
Q 828 903 1448 1529 
Q 2069 2156 2228 2338 
Q 2531 2678 2651 2914 
Q 2772 3150 2772 3378 
Q 2772 3750 2511 3984 
Q 2250 4219 1831 4219 
Q 1534 4219 1204 4116 
Q 875 4013 500 3803 
L 500 4441 
Q 881 4594 1212 4672 
Q 1544 4750 1819 4750 
Q 2544 4750 2975 4387 
Q 3406 4025 3406 3419 
Q 3406 3131 3298 2873 
Q 3191 2616 2906 2266 
Q 2828 2175 2409 1742 
Q 1991 1309 1228 531 
z
" transform="scale(0.015625)"/>
       </defs>
       <use xlink:href="#DejaVuSans-32"/>
       <use xlink:href="#DejaVuSans-30" x="63.623047"/>
       <use xlink:href="#DejaVuSans-30" x="127.246094"/>
      </g>
     </g>
    </g>
    <g id="xtick_4">
     <g id="line2d_10">
      <path d="M 246.241707 253.08 
L 246.241707 3.6 
" clip-path="url(#pf0aa14ecb2)" style="fill: none; stroke: #b0b0b0; stroke-width: 0.5; stroke-linecap: square"/>
     </g>
     <g id="line2d_11">
      <g>
       <use xlink:href="#m8d1c6c6931" x="246.241707" y="253.08" style="stroke: #000000; stroke-width: 0.5"/>
      </g>
     </g>
     <g id="line2d_12">
      <g>
       <use xlink:href="#m19ce82a831" x="246.241707" y="3.6" style="stroke: #000000; stroke-width: 0.5"/>
      </g>
     </g>
     <g id="text_4">
      <!-- 300 -->
      <g transform="translate(234.789207 265.698125) scale(0.12 -0.12)">
       <defs>
        <path id="DejaVuSans-33" d="M 2597 2516 
Q 3050 2419 3304 2112 
Q 3559 1806 3559 1356 
Q 3559 666 3084 287 
Q 2609 -91 1734 -91 
Q 1441 -91 1130 -33 
Q 819 25 488 141 
L 488 750 
Q 750 597 1062 519 
Q 1375 441 1716 441 
Q 2309 441 2620 675 
Q 2931 909 2931 1356 
Q 2931 1769 2642 2001 
Q 2353 2234 1838 2234 
L 1294 2234 
L 1294 2753 
L 1863 2753 
Q 2328 2753 2575 2939 
Q 2822 3125 2822 3475 
Q 2822 3834 2567 4026 
Q 2313 4219 1838 4219 
Q 1578 4219 1281 4162 
Q 984 4106 628 3988 
L 628 4550 
Q 988 4650 1302 4700 
Q 1616 4750 1894 4750 
Q 2613 4750 3031 4423 
Q 3450 4097 3450 3541 
Q 3450 3153 3228 2886 
Q 3006 2619 2597 2516 
z
" transform="scale(0.015625)"/>
       </defs>
       <use xlink:href="#DejaVuSans-33"/>
       <use xlink:href="#DejaVuSans-30" x="63.623047"/>
       <use xlink:href="#DejaVuSans-30" x="127.246094"/>
      </g>
     </g>
    </g>
    <g id="xtick_5">
     <g id="line2d_13">
      <path d="M 307.236424 253.08 
L 307.236424 3.6 
" clip-path="url(#pf0aa14ecb2)" style="fill: none; stroke: #b0b0b0; stroke-width: 0.5; stroke-linecap: square"/>
     </g>
     <g id="line2d_14">
      <g>
       <use xlink:href="#m8d1c6c6931" x="307.236424" y="253.08" style="stroke: #000000; stroke-width: 0.5"/>
      </g>
     </g>
     <g id="line2d_15">
      <g>
       <use xlink:href="#m19ce82a831" x="307.236424" y="3.6" style="stroke: #000000; stroke-width: 0.5"/>
      </g>
     </g>
     <g id="text_5">
      <!-- 400 -->
      <g transform="translate(295.783924 265.698125) scale(0.12 -0.12)">
       <defs>
        <path id="DejaVuSans-34" d="M 2419 4116 
L 825 1625 
L 2419 1625 
L 2419 4116 
z
M 2253 4666 
L 3047 4666 
L 3047 1625 
L 3713 1625 
L 3713 1100 
L 3047 1100 
L 3047 0 
L 2419 0 
L 2419 1100 
L 313 1100 
L 313 1709 
L 2253 4666 
z
" transform="scale(0.015625)"/>
       </defs>
       <use xlink:href="#DejaVuSans-34"/>
       <use xlink:href="#DejaVuSans-30" x="63.623047"/>
       <use xlink:href="#DejaVuSans-30" x="127.246094"/>
      </g>
     </g>
    </g>
    <g id="xtick_6">
     <g id="line2d_16">
      <path d="M 368.23114 253.08 
L 368.23114 3.6 
" clip-path="url(#pf0aa14ecb2)" style="fill: none; stroke: #b0b0b0; stroke-width: 0.5; stroke-linecap: square"/>
     </g>
     <g id="line2d_17">
      <g>
       <use xlink:href="#m8d1c6c6931" x="368.23114" y="253.08" style="stroke: #000000; stroke-width: 0.5"/>
      </g>
     </g>
     <g id="line2d_18">
      <g>
       <use xlink:href="#m19ce82a831" x="368.23114" y="3.6" style="stroke: #000000; stroke-width: 0.5"/>
      </g>
     </g>
     <g id="text_6">
      <!-- 500 -->
      <g transform="translate(356.77864 265.698125) scale(0.12 -0.12)">
       <defs>
        <path id="DejaVuSans-35" d="M 691 4666 
L 3169 4666 
L 3169 4134 
L 1269 4134 
L 1269 2991 
Q 1406 3038 1543 3061 
Q 1681 3084 1819 3084 
Q 2600 3084 3056 2656 
Q 3513 2228 3513 1497 
Q 3513 744 3044 326 
Q 2575 -91 1722 -91 
Q 1428 -91 1123 -41 
Q 819 9 494 109 
L 494 744 
Q 775 591 1075 516 
Q 1375 441 1709 441 
Q 2250 441 2565 725 
Q 2881 1009 2881 1497 
Q 2881 1984 2565 2268 
Q 2250 2553 1709 2553 
Q 1456 2553 1204 2497 
Q 953 2441 691 2322 
L 691 4666 
z
" transform="scale(0.015625)"/>
       </defs>
       <use xlink:href="#DejaVuSans-35"/>
       <use xlink:href="#DejaVuSans-30" x="63.623047"/>
       <use xlink:href="#DejaVuSans-30" x="127.246094"/>
      </g>
     </g>
    </g>
    <g id="xtick_7">
     <g id="line2d_19">
      <defs>
       <path id="m43480a8fac" d="M 0 0 
L 0 -1.5 
" style="stroke: #000000; stroke-width: 0.5"/>
      </defs>
      <g>
       <use xlink:href="#m43480a8fac" x="51.058613" y="253.08" style="stroke: #000000; stroke-width: 0.5"/>
      </g>
     </g>
     <g id="line2d_20">
      <defs>
       <path id="md11c093130" d="M 0 0 
L 0 1.5 
" style="stroke: #000000; stroke-width: 0.5"/>
      </defs>
      <g>
       <use xlink:href="#md11c093130" x="51.058613" y="3.6" style="stroke: #000000; stroke-width: 0.5"/>
      </g>
     </g>
    </g>
    <g id="xtick_8">
     <g id="line2d_21">
      <g>
       <use xlink:href="#m43480a8fac" x="75.4565" y="253.08" style="stroke: #000000; stroke-width: 0.5"/>
      </g>
     </g>
     <g id="line2d_22">
      <g>
       <use xlink:href="#md11c093130" x="75.4565" y="3.6" style="stroke: #000000; stroke-width: 0.5"/>
      </g>
     </g>
    </g>
    <g id="xtick_9">
     <g id="line2d_23">
      <g>
       <use xlink:href="#m43480a8fac" x="87.655444" y="253.08" style="stroke: #000000; stroke-width: 0.5"/>
      </g>
     </g>
     <g id="line2d_24">
      <g>
       <use xlink:href="#md11c093130" x="87.655444" y="3.6" style="stroke: #000000; stroke-width: 0.5"/>
      </g>
     </g>
    </g>
    <g id="xtick_10">
     <g id="line2d_25">
      <g>
       <use xlink:href="#m43480a8fac" x="99.854387" y="253.08" style="stroke: #000000; stroke-width: 0.5"/>
      </g>
     </g>
     <g id="line2d_26">
      <g>
       <use xlink:href="#md11c093130" x="99.854387" y="3.6" style="stroke: #000000; stroke-width: 0.5"/>
      </g>
     </g>
    </g>
    <g id="xtick_11">
     <g id="line2d_27">
      <g>
       <use xlink:href="#m43480a8fac" x="112.05333" y="253.08" style="stroke: #000000; stroke-width: 0.5"/>
      </g>
     </g>
     <g id="line2d_28">
      <g>
       <use xlink:href="#md11c093130" x="112.05333" y="3.6" style="stroke: #000000; stroke-width: 0.5"/>
      </g>
     </g>
    </g>
    <g id="xtick_12">
     <g id="line2d_29">
      <g>
       <use xlink:href="#m43480a8fac" x="136.451217" y="253.08" style="stroke: #000000; stroke-width: 0.5"/>
      </g>
     </g>
     <g id="line2d_30">
      <g>
       <use xlink:href="#md11c093130" x="136.451217" y="3.6" style="stroke: #000000; stroke-width: 0.5"/>
      </g>
     </g>
    </g>
    <g id="xtick_13">
     <g id="line2d_31">
      <g>
       <use xlink:href="#m43480a8fac" x="148.65016" y="253.08" style="stroke: #000000; stroke-width: 0.5"/>
      </g>
     </g>
     <g id="line2d_32">
      <g>
       <use xlink:href="#md11c093130" x="148.65016" y="3.6" style="stroke: #000000; stroke-width: 0.5"/>
      </g>
     </g>
    </g>
    <g id="xtick_14">
     <g id="line2d_33">
      <g>
       <use xlink:href="#m43480a8fac" x="160.849104" y="253.08" style="stroke: #000000; stroke-width: 0.5"/>
      </g>
     </g>
     <g id="line2d_34">
      <g>
       <use xlink:href="#md11c093130" x="160.849104" y="3.6" style="stroke: #000000; stroke-width: 0.5"/>
      </g>
     </g>
    </g>
    <g id="xtick_15">
     <g id="line2d_35">
      <g>
       <use xlink:href="#m43480a8fac" x="173.048047" y="253.08" style="stroke: #000000; stroke-width: 0.5"/>
      </g>
     </g>
     <g id="line2d_36">
      <g>
       <use xlink:href="#md11c093130" x="173.048047" y="3.6" style="stroke: #000000; stroke-width: 0.5"/>
      </g>
     </g>
    </g>
    <g id="xtick_16">
     <g id="line2d_37">
      <g>
       <use xlink:href="#m43480a8fac" x="197.445934" y="253.08" style="stroke: #000000; stroke-width: 0.5"/>
      </g>
     </g>
     <g id="line2d_38">
      <g>
       <use xlink:href="#md11c093130" x="197.445934" y="3.6" style="stroke: #000000; stroke-width: 0.5"/>
      </g>
     </g>
    </g>
    <g id="xtick_17">
     <g id="line2d_39">
      <g>
       <use xlink:href="#m43480a8fac" x="209.644877" y="253.08" style="stroke: #000000; stroke-width: 0.5"/>
      </g>
     </g>
     <g id="line2d_40">
      <g>
       <use xlink:href="#md11c093130" x="209.644877" y="3.6" style="stroke: #000000; stroke-width: 0.5"/>
      </g>
     </g>
    </g>
    <g id="xtick_18">
     <g id="line2d_41">
      <g>
       <use xlink:href="#m43480a8fac" x="221.84382" y="253.08" style="stroke: #000000; stroke-width: 0.5"/>
      </g>
     </g>
     <g id="line2d_42">
      <g>
       <use xlink:href="#md11c093130" x="221.84382" y="3.6" style="stroke: #000000; stroke-width: 0.5"/>
      </g>
     </g>
    </g>
    <g id="xtick_19">
     <g id="line2d_43">
      <g>
       <use xlink:href="#m43480a8fac" x="234.042764" y="253.08" style="stroke: #000000; stroke-width: 0.5"/>
      </g>
     </g>
     <g id="line2d_44">
      <g>
       <use xlink:href="#md11c093130" x="234.042764" y="3.6" style="stroke: #000000; stroke-width: 0.5"/>
      </g>
     </g>
    </g>
    <g id="xtick_20">
     <g id="line2d_45">
      <g>
       <use xlink:href="#m43480a8fac" x="258.44065" y="253.08" style="stroke: #000000; stroke-width: 0.5"/>
      </g>
     </g>
     <g id="line2d_46">
      <g>
       <use xlink:href="#md11c093130" x="258.44065" y="3.6" style="stroke: #000000; stroke-width: 0.5"/>
      </g>
     </g>
    </g>
    <g id="xtick_21">
     <g id="line2d_47">
      <g>
       <use xlink:href="#m43480a8fac" x="270.639594" y="253.08" style="stroke: #000000; stroke-width: 0.5"/>
      </g>
     </g>
     <g id="line2d_48">
      <g>
       <use xlink:href="#md11c093130" x="270.639594" y="3.6" style="stroke: #000000; stroke-width: 0.5"/>
      </g>
     </g>
    </g>
    <g id="xtick_22">
     <g id="line2d_49">
      <g>
       <use xlink:href="#m43480a8fac" x="282.838537" y="253.08" style="stroke: #000000; stroke-width: 0.5"/>
      </g>
     </g>
     <g id="line2d_50">
      <g>
       <use xlink:href="#md11c093130" x="282.838537" y="3.6" style="stroke: #000000; stroke-width: 0.5"/>
      </g>
     </g>
    </g>
    <g id="xtick_23">
     <g id="line2d_51">
      <g>
       <use xlink:href="#m43480a8fac" x="295.03748" y="253.08" style="stroke: #000000; stroke-width: 0.5"/>
      </g>
     </g>
     <g id="line2d_52">
      <g>
       <use xlink:href="#md11c093130" x="295.03748" y="3.6" style="stroke: #000000; stroke-width: 0.5"/>
      </g>
     </g>
    </g>
    <g id="xtick_24">
     <g id="line2d_53">
      <g>
       <use xlink:href="#m43480a8fac" x="319.435367" y="253.08" style="stroke: #000000; stroke-width: 0.5"/>
      </g>
     </g>
     <g id="line2d_54">
      <g>
       <use xlink:href="#md11c093130" x="319.435367" y="3.6" style="stroke: #000000; stroke-width: 0.5"/>
      </g>
     </g>
    </g>
    <g id="xtick_25">
     <g id="line2d_55">
      <g>
       <use xlink:href="#m43480a8fac" x="331.63431" y="253.08" style="stroke: #000000; stroke-width: 0.5"/>
      </g>
     </g>
     <g id="line2d_56">
      <g>
       <use xlink:href="#md11c093130" x="331.63431" y="3.6" style="stroke: #000000; stroke-width: 0.5"/>
      </g>
     </g>
    </g>
    <g id="xtick_26">
     <g id="line2d_57">
      <g>
       <use xlink:href="#m43480a8fac" x="343.833254" y="253.08" style="stroke: #000000; stroke-width: 0.5"/>
      </g>
     </g>
     <g id="line2d_58">
      <g>
       <use xlink:href="#md11c093130" x="343.833254" y="3.6" style="stroke: #000000; stroke-width: 0.5"/>
      </g>
     </g>
    </g>
    <g id="xtick_27">
     <g id="line2d_59">
      <g>
       <use xlink:href="#m43480a8fac" x="356.032197" y="253.08" style="stroke: #000000; stroke-width: 0.5"/>
      </g>
     </g>
     <g id="line2d_60">
      <g>
       <use xlink:href="#md11c093130" x="356.032197" y="3.6" style="stroke: #000000; stroke-width: 0.5"/>
      </g>
     </g>
    </g>
    <g id="xtick_28">
     <g id="line2d_61">
      <g>
       <use xlink:href="#m43480a8fac" x="380.430084" y="253.08" style="stroke: #000000; stroke-width: 0.5"/>
      </g>
     </g>
     <g id="line2d_62">
      <g>
       <use xlink:href="#md11c093130" x="380.430084" y="3.6" style="stroke: #000000; stroke-width: 0.5"/>
      </g>
     </g>
    </g>
    <g id="text_7">
     <!-- Generations -->
     <g transform="translate(178.842188 281.311875) scale(0.12 -0.12)">
      <defs>
       <path id="DejaVuSans-47" d="M 3809 666 
L 3809 1919 
L 2778 1919 
L 2778 2438 
L 4434 2438 
L 4434 434 
Q 4069 175 3628 42 
Q 3188 -91 2688 -91 
Q 1594 -91 976 548 
Q 359 1188 359 2328 
Q 359 3472 976 4111 
Q 1594 4750 2688 4750 
Q 3144 4750 3555 4637 
Q 3966 4525 4313 4306 
L 4313 3634 
Q 3963 3931 3569 4081 
Q 3175 4231 2741 4231 
Q 1884 4231 1454 3753 
Q 1025 3275 1025 2328 
Q 1025 1384 1454 906 
Q 1884 428 2741 428 
Q 3075 428 3337 486 
Q 3600 544 3809 666 
z
" transform="scale(0.015625)"/>
       <path id="DejaVuSans-65" d="M 3597 1894 
L 3597 1613 
L 953 1613 
Q 991 1019 1311 708 
Q 1631 397 2203 397 
Q 2534 397 2845 478 
Q 3156 559 3463 722 
L 3463 178 
Q 3153 47 2828 -22 
Q 2503 -91 2169 -91 
Q 1331 -91 842 396 
Q 353 884 353 1716 
Q 353 2575 817 3079 
Q 1281 3584 2069 3584 
Q 2775 3584 3186 3129 
Q 3597 2675 3597 1894 
z
M 3022 2063 
Q 3016 2534 2758 2815 
Q 2500 3097 2075 3097 
Q 1594 3097 1305 2825 
Q 1016 2553 972 2059 
L 3022 2063 
z
" transform="scale(0.015625)"/>
       <path id="DejaVuSans-6e" d="M 3513 2113 
L 3513 0 
L 2938 0 
L 2938 2094 
Q 2938 2591 2744 2837 
Q 2550 3084 2163 3084 
Q 1697 3084 1428 2787 
Q 1159 2491 1159 1978 
L 1159 0 
L 581 0 
L 581 3500 
L 1159 3500 
L 1159 2956 
Q 1366 3272 1645 3428 
Q 1925 3584 2291 3584 
Q 2894 3584 3203 3211 
Q 3513 2838 3513 2113 
z
" transform="scale(0.015625)"/>
       <path id="DejaVuSans-72" d="M 2631 2963 
Q 2534 3019 2420 3045 
Q 2306 3072 2169 3072 
Q 1681 3072 1420 2755 
Q 1159 2438 1159 1844 
L 1159 0 
L 581 0 
L 581 3500 
L 1159 3500 
L 1159 2956 
Q 1341 3275 1631 3429 
Q 1922 3584 2338 3584 
Q 2397 3584 2469 3576 
Q 2541 3569 2628 3553 
L 2631 2963 
z
" transform="scale(0.015625)"/>
       <path id="DejaVuSans-61" d="M 2194 1759 
Q 1497 1759 1228 1600 
Q 959 1441 959 1056 
Q 959 750 1161 570 
Q 1363 391 1709 391 
Q 2188 391 2477 730 
Q 2766 1069 2766 1631 
L 2766 1759 
L 2194 1759 
z
M 3341 1997 
L 3341 0 
L 2766 0 
L 2766 531 
Q 2569 213 2275 61 
Q 1981 -91 1556 -91 
Q 1019 -91 701 211 
Q 384 513 384 1019 
Q 384 1609 779 1909 
Q 1175 2209 1959 2209 
L 2766 2209 
L 2766 2266 
Q 2766 2663 2505 2880 
Q 2244 3097 1772 3097 
Q 1472 3097 1187 3025 
Q 903 2953 641 2809 
L 641 3341 
Q 956 3463 1253 3523 
Q 1550 3584 1831 3584 
Q 2591 3584 2966 3190 
Q 3341 2797 3341 1997 
z
" transform="scale(0.015625)"/>
       <path id="DejaVuSans-74" d="M 1172 4494 
L 1172 3500 
L 2356 3500 
L 2356 3053 
L 1172 3053 
L 1172 1153 
Q 1172 725 1289 603 
Q 1406 481 1766 481 
L 2356 481 
L 2356 0 
L 1766 0 
Q 1100 0 847 248 
Q 594 497 594 1153 
L 594 3053 
L 172 3053 
L 172 3500 
L 594 3500 
L 594 4494 
L 1172 4494 
z
" transform="scale(0.015625)"/>
       <path id="DejaVuSans-69" d="M 603 3500 
L 1178 3500 
L 1178 0 
L 603 0 
L 603 3500 
z
M 603 4863 
L 1178 4863 
L 1178 4134 
L 603 4134 
L 603 4863 
z
" transform="scale(0.015625)"/>
       <path id="DejaVuSans-6f" d="M 1959 3097 
Q 1497 3097 1228 2736 
Q 959 2375 959 1747 
Q 959 1119 1226 758 
Q 1494 397 1959 397 
Q 2419 397 2687 759 
Q 2956 1122 2956 1747 
Q 2956 2369 2687 2733 
Q 2419 3097 1959 3097 
z
M 1959 3584 
Q 2709 3584 3137 3096 
Q 3566 2609 3566 1747 
Q 3566 888 3137 398 
Q 2709 -91 1959 -91 
Q 1206 -91 779 398 
Q 353 888 353 1747 
Q 353 2609 779 3096 
Q 1206 3584 1959 3584 
z
" transform="scale(0.015625)"/>
       <path id="DejaVuSans-73" d="M 2834 3397 
L 2834 2853 
Q 2591 2978 2328 3040 
Q 2066 3103 1784 3103 
Q 1356 3103 1142 2972 
Q 928 2841 928 2578 
Q 928 2378 1081 2264 
Q 1234 2150 1697 2047 
L 1894 2003 
Q 2506 1872 2764 1633 
Q 3022 1394 3022 966 
Q 3022 478 2636 193 
Q 2250 -91 1575 -91 
Q 1294 -91 989 -36 
Q 684 19 347 128 
L 347 722 
Q 666 556 975 473 
Q 1284 391 1588 391 
Q 1994 391 2212 530 
Q 2431 669 2431 922 
Q 2431 1156 2273 1281 
Q 2116 1406 1581 1522 
L 1381 1569 
Q 847 1681 609 1914 
Q 372 2147 372 2553 
Q 372 3047 722 3315 
Q 1072 3584 1716 3584 
Q 2034 3584 2315 3537 
Q 2597 3491 2834 3397 
z
" transform="scale(0.015625)"/>
      </defs>
      <use xlink:href="#DejaVuSans-47"/>
      <use xlink:href="#DejaVuSans-65" x="77.490234"/>
      <use xlink:href="#DejaVuSans-6e" x="139.013672"/>
      <use xlink:href="#DejaVuSans-65" x="202.392578"/>
      <use xlink:href="#DejaVuSans-72" x="263.916016"/>
      <use xlink:href="#DejaVuSans-61" x="305.029297"/>
      <use xlink:href="#DejaVuSans-74" x="366.308594"/>
      <use xlink:href="#DejaVuSans-69" x="405.517578"/>
      <use xlink:href="#DejaVuSans-6f" x="433.300781"/>
      <use xlink:href="#DejaVuSans-6e" x="494.482422"/>
      <use xlink:href="#DejaVuSans-73" x="557.861328"/>
     </g>
    </g>
   </g>
   <g id="matplotlib.axis_2">
    <g id="ytick_1">
     <g id="line2d_63">
      <path d="M 48.039375 222.737097 
L 382.839375 222.737097 
" clip-path="url(#pf0aa14ecb2)" style="fill: none; stroke: #b0b0b0; stroke-width: 0.5; stroke-linecap: square"/>
     </g>
     <g id="line2d_64">
      <defs>
       <path id="m719a5f20a2" d="M 0 0 
L 3 0 
" style="stroke: #000000; stroke-width: 0.5"/>
      </defs>
      <g>
       <use xlink:href="#m719a5f20a2" x="48.039375" y="222.737097" style="stroke: #000000; stroke-width: 0.5"/>
      </g>
     </g>
     <g id="line2d_65">
      <defs>
       <path id="m98b822d44b" d="M 0 0 
L -3 0 
" style="stroke: #000000; stroke-width: 0.5"/>
      </defs>
      <g>
       <use xlink:href="#m98b822d44b" x="382.839375" y="222.737097" style="stroke: #000000; stroke-width: 0.5"/>
      </g>
     </g>
     <g id="text_8">
      <!-- −60 -->
      <g transform="translate(19.21375 227.296159) scale(0.12 -0.12)">
       <defs>
        <path id="DejaVuSans-2212" d="M 678 2272 
L 4684 2272 
L 4684 1741 
L 678 1741 
L 678 2272 
z
" transform="scale(0.015625)"/>
        <path id="DejaVuSans-36" d="M 2113 2584 
Q 1688 2584 1439 2293 
Q 1191 2003 1191 1497 
Q 1191 994 1439 701 
Q 1688 409 2113 409 
Q 2538 409 2786 701 
Q 3034 994 3034 1497 
Q 3034 2003 2786 2293 
Q 2538 2584 2113 2584 
z
M 3366 4563 
L 3366 3988 
Q 3128 4100 2886 4159 
Q 2644 4219 2406 4219 
Q 1781 4219 1451 3797 
Q 1122 3375 1075 2522 
Q 1259 2794 1537 2939 
Q 1816 3084 2150 3084 
Q 2853 3084 3261 2657 
Q 3669 2231 3669 1497 
Q 3669 778 3244 343 
Q 2819 -91 2113 -91 
Q 1303 -91 875 529 
Q 447 1150 447 2328 
Q 447 3434 972 4092 
Q 1497 4750 2381 4750 
Q 2619 4750 2861 4703 
Q 3103 4656 3366 4563 
z
" transform="scale(0.015625)"/>
       </defs>
       <use xlink:href="#DejaVuSans-2212"/>
       <use xlink:href="#DejaVuSans-36" x="83.789062"/>
       <use xlink:href="#DejaVuSans-30" x="147.412109"/>
      </g>
     </g>
    </g>
    <g id="ytick_2">
     <g id="line2d_66">
      <path d="M 48.039375 169.648595 
L 382.839375 169.648595 
" clip-path="url(#pf0aa14ecb2)" style="fill: none; stroke: #b0b0b0; stroke-width: 0.5; stroke-linecap: square"/>
     </g>
     <g id="line2d_67">
      <g>
       <use xlink:href="#m719a5f20a2" x="48.039375" y="169.648595" style="stroke: #000000; stroke-width: 0.5"/>
      </g>
     </g>
     <g id="line2d_68">
      <g>
       <use xlink:href="#m98b822d44b" x="382.839375" y="169.648595" style="stroke: #000000; stroke-width: 0.5"/>
      </g>
     </g>
     <g id="text_9">
      <!-- −40 -->
      <g transform="translate(19.21375 174.207657) scale(0.12 -0.12)">
       <use xlink:href="#DejaVuSans-2212"/>
       <use xlink:href="#DejaVuSans-34" x="83.789062"/>
       <use xlink:href="#DejaVuSans-30" x="147.412109"/>
      </g>
     </g>
    </g>
    <g id="ytick_3">
     <g id="line2d_69">
      <path d="M 48.039375 116.560093 
L 382.839375 116.560093 
" clip-path="url(#pf0aa14ecb2)" style="fill: none; stroke: #b0b0b0; stroke-width: 0.5; stroke-linecap: square"/>
     </g>
     <g id="line2d_70">
      <g>
       <use xlink:href="#m719a5f20a2" x="48.039375" y="116.560093" style="stroke: #000000; stroke-width: 0.5"/>
      </g>
     </g>
     <g id="line2d_71">
      <g>
       <use xlink:href="#m98b822d44b" x="382.839375" y="116.560093" style="stroke: #000000; stroke-width: 0.5"/>
      </g>
     </g>
     <g id="text_10">
      <!-- −20 -->
      <g transform="translate(19.21375 121.119155) scale(0.12 -0.12)">
       <use xlink:href="#DejaVuSans-2212"/>
       <use xlink:href="#DejaVuSans-32" x="83.789062"/>
       <use xlink:href="#DejaVuSans-30" x="147.412109"/>
      </g>
     </g>
    </g>
    <g id="ytick_4">
     <g id="line2d_72">
      <path d="M 48.039375 63.471591 
L 382.839375 63.471591 
" clip-path="url(#pf0aa14ecb2)" style="fill: none; stroke: #b0b0b0; stroke-width: 0.5; stroke-linecap: square"/>
     </g>
     <g id="line2d_73">
      <g>
       <use xlink:href="#m719a5f20a2" x="48.039375" y="63.471591" style="stroke: #000000; stroke-width: 0.5"/>
      </g>
     </g>
     <g id="line2d_74">
      <g>
       <use xlink:href="#m98b822d44b" x="382.839375" y="63.471591" style="stroke: #000000; stroke-width: 0.5"/>
      </g>
     </g>
     <g id="text_11">
      <!-- 0 -->
      <g transform="translate(36.904375 68.030653) scale(0.12 -0.12)">
       <use xlink:href="#DejaVuSans-30"/>
      </g>
     </g>
    </g>
    <g id="ytick_5">
     <g id="line2d_75">
      <path d="M 48.039375 10.383089 
L 382.839375 10.383089 
" clip-path="url(#pf0aa14ecb2)" style="fill: none; stroke: #b0b0b0; stroke-width: 0.5; stroke-linecap: square"/>
     </g>
     <g id="line2d_76">
      <g>
       <use xlink:href="#m719a5f20a2" x="48.039375" y="10.383089" style="stroke: #000000; stroke-width: 0.5"/>
      </g>
     </g>
     <g id="line2d_77">
      <g>
       <use xlink:href="#m98b822d44b" x="382.839375" y="10.383089" style="stroke: #000000; stroke-width: 0.5"/>
      </g>
     </g>
     <g id="text_12">
      <!-- 20 -->
      <g transform="translate(29.269375 14.942152) scale(0.12 -0.12)">
       <use xlink:href="#DejaVuSans-32"/>
       <use xlink:href="#DejaVuSans-30" x="63.623047"/>
      </g>
     </g>
    </g>
    <g id="ytick_6">
     <g id="line2d_78">
      <defs>
       <path id="m4d74245211" d="M 0 0 
L 1.5 0 
" style="stroke: #000000; stroke-width: 0.5"/>
      </defs>
      <g>
       <use xlink:href="#m4d74245211" x="48.039375" y="249.281348" style="stroke: #000000; stroke-width: 0.5"/>
      </g>
     </g>
     <g id="line2d_79">
      <defs>
       <path id="m712a68edd5" d="M 0 0 
L -1.5 0 
" style="stroke: #000000; stroke-width: 0.5"/>
      </defs>
      <g>
       <use xlink:href="#m712a68edd5" x="382.839375" y="249.281348" style="stroke: #000000; stroke-width: 0.5"/>
      </g>
     </g>
    </g>
    <g id="ytick_7">
     <g id="line2d_80">
      <g>
       <use xlink:href="#m4d74245211" x="48.039375" y="236.009222" style="stroke: #000000; stroke-width: 0.5"/>
      </g>
     </g>
     <g id="line2d_81">
      <g>
       <use xlink:href="#m712a68edd5" x="382.839375" y="236.009222" style="stroke: #000000; stroke-width: 0.5"/>
      </g>
     </g>
    </g>
    <g id="ytick_8">
     <g id="line2d_82">
      <g>
       <use xlink:href="#m4d74245211" x="48.039375" y="209.464971" style="stroke: #000000; stroke-width: 0.5"/>
      </g>
     </g>
     <g id="line2d_83">
      <g>
       <use xlink:href="#m712a68edd5" x="382.839375" y="209.464971" style="stroke: #000000; stroke-width: 0.5"/>
      </g>
     </g>
    </g>
    <g id="ytick_9">
     <g id="line2d_84">
      <g>
       <use xlink:href="#m4d74245211" x="48.039375" y="196.192846" style="stroke: #000000; stroke-width: 0.5"/>
      </g>
     </g>
     <g id="line2d_85">
      <g>
       <use xlink:href="#m712a68edd5" x="382.839375" y="196.192846" style="stroke: #000000; stroke-width: 0.5"/>
      </g>
     </g>
    </g>
    <g id="ytick_10">
     <g id="line2d_86">
      <g>
       <use xlink:href="#m4d74245211" x="48.039375" y="182.92072" style="stroke: #000000; stroke-width: 0.5"/>
      </g>
     </g>
     <g id="line2d_87">
      <g>
       <use xlink:href="#m712a68edd5" x="382.839375" y="182.92072" style="stroke: #000000; stroke-width: 0.5"/>
      </g>
     </g>
    </g>
    <g id="ytick_11">
     <g id="line2d_88">
      <g>
       <use xlink:href="#m4d74245211" x="48.039375" y="156.376469" style="stroke: #000000; stroke-width: 0.5"/>
      </g>
     </g>
     <g id="line2d_89">
      <g>
       <use xlink:href="#m712a68edd5" x="382.839375" y="156.376469" style="stroke: #000000; stroke-width: 0.5"/>
      </g>
     </g>
    </g>
    <g id="ytick_12">
     <g id="line2d_90">
      <g>
       <use xlink:href="#m4d74245211" x="48.039375" y="143.104344" style="stroke: #000000; stroke-width: 0.5"/>
      </g>
     </g>
     <g id="line2d_91">
      <g>
       <use xlink:href="#m712a68edd5" x="382.839375" y="143.104344" style="stroke: #000000; stroke-width: 0.5"/>
      </g>
     </g>
    </g>
    <g id="ytick_13">
     <g id="line2d_92">
      <g>
       <use xlink:href="#m4d74245211" x="48.039375" y="129.832218" style="stroke: #000000; stroke-width: 0.5"/>
      </g>
     </g>
     <g id="line2d_93">
      <g>
       <use xlink:href="#m712a68edd5" x="382.839375" y="129.832218" style="stroke: #000000; stroke-width: 0.5"/>
      </g>
     </g>
    </g>
    <g id="ytick_14">
     <g id="line2d_94">
      <g>
       <use xlink:href="#m4d74245211" x="48.039375" y="103.287967" style="stroke: #000000; stroke-width: 0.5"/>
      </g>
     </g>
     <g id="line2d_95">
      <g>
       <use xlink:href="#m712a68edd5" x="382.839375" y="103.287967" style="stroke: #000000; stroke-width: 0.5"/>
      </g>
     </g>
    </g>
    <g id="ytick_15">
     <g id="line2d_96">
      <g>
       <use xlink:href="#m4d74245211" x="48.039375" y="90.015842" style="stroke: #000000; stroke-width: 0.5"/>
      </g>
     </g>
     <g id="line2d_97">
      <g>
       <use xlink:href="#m712a68edd5" x="382.839375" y="90.015842" style="stroke: #000000; stroke-width: 0.5"/>
      </g>
     </g>
    </g>
    <g id="ytick_16">
     <g id="line2d_98">
      <g>
       <use xlink:href="#m4d74245211" x="48.039375" y="76.743716" style="stroke: #000000; stroke-width: 0.5"/>
      </g>
     </g>
     <g id="line2d_99">
      <g>
       <use xlink:href="#m712a68edd5" x="382.839375" y="76.743716" style="stroke: #000000; stroke-width: 0.5"/>
      </g>
     </g>
    </g>
    <g id="ytick_17">
     <g id="line2d_100">
      <g>
       <use xlink:href="#m4d74245211" x="48.039375" y="50.199465" style="stroke: #000000; stroke-width: 0.5"/>
      </g>
     </g>
     <g id="line2d_101">
      <g>
       <use xlink:href="#m712a68edd5" x="382.839375" y="50.199465" style="stroke: #000000; stroke-width: 0.5"/>
      </g>
     </g>
    </g>
    <g id="ytick_18">
     <g id="line2d_102">
      <g>
       <use xlink:href="#m4d74245211" x="48.039375" y="36.92734" style="stroke: #000000; stroke-width: 0.5"/>
      </g>
     </g>
     <g id="line2d_103">
      <g>
       <use xlink:href="#m712a68edd5" x="382.839375" y="36.92734" style="stroke: #000000; stroke-width: 0.5"/>
      </g>
     </g>
    </g>
    <g id="ytick_19">
     <g id="line2d_104">
      <g>
       <use xlink:href="#m4d74245211" x="48.039375" y="23.655214" style="stroke: #000000; stroke-width: 0.5"/>
      </g>
     </g>
     <g id="line2d_105">
      <g>
       <use xlink:href="#m712a68edd5" x="382.839375" y="23.655214" style="stroke: #000000; stroke-width: 0.5"/>
      </g>
     </g>
    </g>
    <g id="text_13">
     <!-- Fitness -->
     <g transform="translate(12.718125 149.120625) rotate(-90) scale(0.12 -0.12)">
      <defs>
       <path id="DejaVuSans-46" d="M 628 4666 
L 3309 4666 
L 3309 4134 
L 1259 4134 
L 1259 2759 
L 3109 2759 
L 3109 2228 
L 1259 2228 
L 1259 0 
L 628 0 
L 628 4666 
z
" transform="scale(0.015625)"/>
      </defs>
      <use xlink:href="#DejaVuSans-46"/>
      <use xlink:href="#DejaVuSans-69" x="50.269531"/>
      <use xlink:href="#DejaVuSans-74" x="78.052734"/>
      <use xlink:href="#DejaVuSans-6e" x="117.261719"/>
      <use xlink:href="#DejaVuSans-65" x="180.640625"/>
      <use xlink:href="#DejaVuSans-73" x="242.164062"/>
      <use xlink:href="#DejaVuSans-73" x="294.263672"/>
     </g>
    </g>
   </g>
   <g id="line2d_106">
    <path d="M 63.257557 32.342044 
L 66.91724 32.341012 
L 67.527187 31.18696 
L 68.137134 27.105768 
L 71.18687 27.105742 
L 71.796817 22.706907 
L 75.4565 22.706934 
L 76.676394 22.391897 
L 77.286342 20.715245 
L 81.555972 20.715232 
L 82.165919 20.543717 
L 84.605708 20.470977 
L 85.215655 20.309674 
L 87.655444 20.309622 
L 88.265391 19.025388 
L 90.705179 19.025372 
L 91.315127 17.54592 
L 98.634493 17.480884 
L 100.464334 17.370349 
L 115.103066 17.303099 
L 115.713013 17.154331 
L 130.351745 17.094815 
L 130.961692 16.514695 
L 132.791534 16.473609 
L 137.061164 16.473593 
L 137.671111 15.982557 
L 140.720847 15.982479 
L 141.330794 15.385361 
L 147.430266 15.385366 
L 148.040213 15.199854 
L 176.70773 15.103994 
L 177.927624 14.993539 
L 367.621193 14.940637 
L 367.621193 14.940637 
" clip-path="url(#pf0aa14ecb2)" style="fill: none; stroke: #000000; stroke-linecap: square"/>
   </g>
   <g id="line2d_107">
    <path d="M 63.257557 174.284122 
L 64.477451 104.786856 
L 65.087398 96.550831 
L 65.697345 99.678189 
L 66.307293 105.827453 
L 66.91724 95.007589 
L 67.527187 110.554596 
L 68.137134 89.989669 
L 68.747081 98.860948 
L 69.357028 92.672952 
L 69.966976 188.255445 
L 70.576923 94.097584 
L 71.18687 85.868074 
L 71.796817 149.932359 
L 72.406764 131.40329 
L 73.016711 102.218831 
L 73.626659 78.619094 
L 74.236606 75.75986 
L 74.846553 70.065028 
L 75.4565 109.534418 
L 76.066447 65.738177 
L 76.676394 63.139911 
L 77.286342 57.944426 
L 77.896289 111.062057 
L 78.506236 52.086264 
L 79.72613 36.2491 
L 80.946025 29.940068 
L 81.555972 28.362996 
L 82.165919 27.773003 
L 82.775866 26.498049 
L 83.99576 24.780134 
L 84.605708 24.653284 
L 85.215655 23.869466 
L 85.825602 23.383686 
L 86.435549 23.88371 
L 87.045496 23.196747 
L 88.265391 23.705635 
L 88.875338 24.429726 
L 89.485285 22.913542 
L 90.095232 21.928988 
L 90.705179 24.387641 
L 91.315127 25.524675 
L 92.535021 22.527662 
L 93.144968 22.853868 
L 93.754915 23.344876 
L 94.364862 24.661074 
L 94.97481 24.312523 
L 95.584757 24.745617 
L 96.194704 24.859287 
L 96.804651 23.167926 
L 97.414598 23.827331 
L 98.024545 23.547575 
L 98.634493 22.129483 
L 99.24444 21.636901 
L 99.854387 21.827228 
L 100.464334 21.694357 
L 101.074281 21.740528 
L 101.684228 22.340567 
L 102.294176 21.531981 
L 102.904123 22.555054 
L 103.51407 22.764087 
L 104.124017 20.350759 
L 104.733964 20.142493 
L 105.343911 19.17012 
L 106.563806 19.610104 
L 107.173753 21.939051 
L 107.7837 22.845733 
L 109.003594 22.121678 
L 109.613542 20.787671 
L 110.223489 20.109083 
L 110.833436 19.624157 
L 111.443383 21.315771 
L 112.05333 19.788992 
L 112.663277 20.307412 
L 113.883172 19.720868 
L 114.493119 19.876886 
L 115.103066 19.542032 
L 115.713013 21.934593 
L 116.32296 19.808288 
L 116.932908 20.606856 
L 117.542855 20.064537 
L 118.152802 20.308153 
L 118.762749 20.161096 
L 119.372696 20.487328 
L 119.982643 21.515857 
L 120.592591 20.907091 
L 121.202538 23.213278 
L 121.812485 21.776669 
L 122.422432 22.113484 
L 123.642326 20.212948 
L 124.862221 19.99959 
L 125.472168 20.382573 
L 126.082115 19.733144 
L 126.692062 20.022618 
L 127.302009 21.071793 
L 127.911957 21.238891 
L 128.521904 20.35734 
L 129.131851 19.974287 
L 129.741798 19.069568 
L 130.351745 19.624714 
L 130.961692 18.911531 
L 131.57164 19.04645 
L 132.181587 19.726883 
L 132.791534 19.21499 
L 133.401481 19.817034 
L 134.011428 19.691259 
L 134.621375 19.222525 
L 135.231323 20.017704 
L 135.84127 19.766374 
L 136.451217 20.110514 
L 137.061164 19.636234 
L 138.281058 19.770653 
L 138.891006 20.392887 
L 139.500953 22.091317 
L 140.1109 23.227198 
L 140.720847 20.481548 
L 141.330794 19.498475 
L 141.940741 20.054898 
L 142.550689 19.600424 
L 143.160636 18.73172 
L 143.770583 19.169692 
L 144.38053 20.489773 
L 144.990477 19.55001 
L 145.600424 19.108763 
L 146.210372 18.911994 
L 146.820319 19.275886 
L 147.430266 18.960145 
L 148.65016 19.894225 
L 149.260107 20.751219 
L 149.870055 20.904596 
L 150.480002 19.745595 
L 151.089949 19.560569 
L 151.699896 21.363525 
L 152.91979 20.496572 
L 153.529738 18.882212 
L 154.139685 19.121386 
L 154.749632 21.833759 
L 155.359579 22.027212 
L 155.969526 21.575947 
L 156.579473 19.989537 
L 157.799368 18.212299 
L 158.409315 18.874977 
L 159.019262 17.408937 
L 160.239156 17.912104 
L 161.459051 16.899049 
L 162.678945 18.703084 
L 163.288892 17.860243 
L 163.898839 17.978981 
L 164.508787 19.849114 
L 165.118734 19.450559 
L 165.728681 17.41177 
L 166.338628 16.458053 
L 166.948575 16.734951 
L 168.16847 16.130465 
L 168.778417 16.659582 
L 169.388364 16.157538 
L 169.998311 17.073746 
L 170.608258 17.333516 
L 171.218205 18.572727 
L 171.828153 18.33968 
L 172.4381 17.243429 
L 173.048047 18.943825 
L 173.657994 18.4812 
L 174.267941 18.750417 
L 174.877888 18.749632 
L 175.487836 17.637031 
L 176.097783 19.092291 
L 176.70773 19.281368 
L 177.317677 17.768202 
L 177.927624 17.253794 
L 178.537571 16.472606 
L 179.147519 16.857007 
L 179.757466 17.545222 
L 180.367413 17.904519 
L 180.97736 17.454094 
L 181.587307 16.803521 
L 182.197254 17.933962 
L 182.807202 17.572369 
L 183.417149 19.060368 
L 184.027096 17.841452 
L 184.637043 17.143927 
L 185.24699 18.695886 
L 185.856937 18.640089 
L 186.466885 19.367429 
L 187.076832 19.197832 
L 187.686779 17.454006 
L 188.296726 16.484001 
L 188.906673 16.485201 
L 189.51662 16.922274 
L 190.126568 16.56476 
L 190.736515 17.435864 
L 191.346462 16.655563 
L 191.956409 16.99701 
L 193.786251 16.78799 
L 194.396198 17.255995 
L 195.006145 19.086019 
L 195.616092 18.369953 
L 196.226039 16.432137 
L 196.835986 17.586861 
L 198.055881 18.393546 
L 198.665828 19.247981 
L 199.275775 17.465915 
L 199.885722 17.894593 
L 200.495669 16.48542 
L 201.105617 17.236502 
L 201.715564 17.50295 
L 202.325511 16.614376 
L 202.935458 17.72888 
L 203.545405 16.216176 
L 204.155352 16.688255 
L 204.7653 16.162491 
L 205.375247 20.244369 
L 205.985194 17.708652 
L 206.595141 17.050609 
L 207.205088 17.197382 
L 207.815035 18.054225 
L 208.424983 16.882193 
L 209.03493 17.079961 
L 209.644877 18.100769 
L 210.254824 17.545796 
L 210.864771 17.19741 
L 211.474718 17.814894 
L 212.084666 17.53576 
L 212.694613 16.470604 
L 213.30456 16.177211 
L 213.914507 16.105832 
L 214.524454 16.634507 
L 215.134401 16.372605 
L 215.744349 17.302283 
L 216.964243 19.600644 
L 217.57419 18.525736 
L 218.184137 18.036401 
L 218.794084 18.128712 
L 219.404032 17.874797 
L 221.233873 18.366188 
L 221.84382 18.542106 
L 222.453767 17.587795 
L 223.063715 18.444587 
L 223.673662 17.761189 
L 224.283609 17.915248 
L 224.893556 17.290818 
L 225.503503 17.281982 
L 226.11345 17.535129 
L 226.723398 16.848754 
L 227.333345 17.17401 
L 227.943292 17.759822 
L 228.553239 17.361381 
L 229.163186 17.666689 
L 229.773133 18.719659 
L 230.383081 18.6165 
L 230.993028 17.714395 
L 231.602975 17.096565 
L 232.212922 17.622726 
L 232.822869 16.974008 
L 233.432816 16.601405 
L 234.042764 17.410859 
L 234.652711 17.376164 
L 235.262658 18.428778 
L 235.872605 18.735972 
L 236.482552 18.858521 
L 237.092499 17.207281 
L 237.702447 16.870253 
L 238.312394 16.856279 
L 238.922341 17.159134 
L 239.532288 18.98453 
L 240.142235 16.907828 
L 240.752182 17.766104 
L 241.36213 16.902047 
L 243.191971 17.716881 
L 243.801918 17.134169 
L 244.411865 19.370638 
L 245.021813 18.032801 
L 245.63176 17.936407 
L 246.241707 17.472428 
L 246.851654 17.872007 
L 247.461601 17.338143 
L 248.071548 16.290753 
L 248.681496 17.409242 
L 249.291443 16.452325 
L 249.90139 15.951009 
L 250.511337 16.316001 
L 251.121284 15.483363 
L 251.731231 16.29099 
L 252.341179 16.785536 
L 252.951126 16.595589 
L 253.561073 15.963099 
L 254.17102 15.950685 
L 254.780967 16.462586 
L 255.390914 16.694532 
L 256.000862 15.414477 
L 256.610809 15.705837 
L 257.220756 15.858092 
L 257.830703 15.499086 
L 258.44065 17.31911 
L 259.050597 16.076783 
L 259.660545 16.429218 
L 260.270492 15.418938 
L 260.880439 15.373626 
L 261.490386 15.967718 
L 262.100333 15.582 
L 262.71028 15.608086 
L 263.320228 15.891815 
L 263.930175 16.322946 
L 264.540122 16.55534 
L 265.150069 19.71154 
L 265.760016 17.022182 
L 266.369963 17.187848 
L 266.979911 18.594639 
L 267.589858 16.523697 
L 268.199805 15.910536 
L 268.809752 15.98009 
L 270.029646 15.541181 
L 270.639594 17.273394 
L 271.249541 17.504234 
L 271.859488 17.343878 
L 272.469435 17.595257 
L 273.079382 19.92704 
L 273.689329 18.267517 
L 274.299277 17.161163 
L 274.909224 16.66547 
L 275.519171 16.423763 
L 276.129118 17.410143 
L 276.739065 17.661468 
L 277.349012 17.19723 
L 277.95896 17.369798 
L 278.568907 16.768922 
L 279.178854 16.937355 
L 279.788801 16.859682 
L 280.398748 16.326756 
L 281.008695 17.692316 
L 281.618643 18.478633 
L 282.22859 19.045258 
L 282.838537 18.095507 
L 283.448484 18.082889 
L 284.058431 17.36963 
L 284.668378 16.891823 
L 285.278326 17.186033 
L 285.888273 16.77903 
L 286.49822 18.273016 
L 287.108167 17.039025 
L 287.718114 17.601182 
L 288.328061 18.554987 
L 288.938009 18.940149 
L 289.547956 18.022938 
L 290.157903 18.765052 
L 290.76785 18.390324 
L 291.377797 18.680207 
L 291.987744 18.628733 
L 292.597692 18.444802 
L 293.207639 18.127596 
L 293.817586 17.358652 
L 294.427533 17.686319 
L 295.03748 18.230208 
L 295.647427 16.999718 
L 296.257375 16.809245 
L 296.867322 16.878382 
L 297.477269 16.45125 
L 298.087216 18.025557 
L 298.697163 18.123694 
L 299.30711 16.833721 
L 300.527005 17.250281 
L 301.136952 17.598587 
L 301.746899 16.90209 
L 302.356846 17.490498 
L 302.966793 19.873721 
L 303.576741 18.268309 
L 304.186688 17.770986 
L 304.796635 16.471888 
L 305.406582 16.454362 
L 306.016529 17.722739 
L 307.846371 16.21535 
L 308.456318 16.52788 
L 309.066265 17.331796 
L 309.676212 16.695944 
L 310.286159 16.401341 
L 310.896107 17.458453 
L 311.506054 16.410616 
L 312.116001 16.770798 
L 312.725948 15.899846 
L 313.335895 15.607104 
L 313.945842 16.000409 
L 314.55579 15.720118 
L 315.775684 16.817482 
L 316.995578 18.460662 
L 317.605525 17.441225 
L 318.215473 18.448424 
L 319.435367 18.107204 
L 320.045314 17.322513 
L 320.655261 17.509974 
L 321.265208 16.341483 
L 321.875156 17.855493 
L 323.09505 15.68131 
L 323.704997 15.895807 
L 324.314944 15.636143 
L 324.924891 15.880754 
L 325.534839 16.421924 
L 326.144786 16.029627 
L 326.754733 15.880456 
L 327.974627 17.913707 
L 328.584574 17.890033 
L 329.194522 18.01478 
L 329.804469 17.407206 
L 330.414416 16.616171 
L 331.63431 16.243829 
L 332.244257 15.722478 
L 332.854205 15.705441 
L 333.464152 16.649136 
L 334.074099 16.822381 
L 334.684046 18.539267 
L 335.293993 15.820027 
L 335.90394 15.327426 
L 336.513888 15.576381 
L 337.123835 16.957367 
L 337.733782 15.860461 
L 338.343729 16.100791 
L 338.953676 15.542915 
L 340.173571 16.666862 
L 340.783518 16.451733 
L 342.003412 18.116272 
L 342.613359 18.269871 
L 343.223306 17.408217 
L 343.833254 19.04694 
L 344.443201 17.006892 
L 345.053148 17.338427 
L 345.663095 16.29203 
L 346.273042 17.51871 
L 346.88299 17.619911 
L 347.492937 16.620559 
L 348.102884 15.944685 
L 348.712831 16.28257 
L 349.322778 17.102017 
L 349.932725 17.119407 
L 350.542673 16.737693 
L 351.15262 15.879534 
L 351.762567 15.833871 
L 352.372514 16.558126 
L 352.982461 16.138128 
L 353.592408 16.913878 
L 354.202356 16.254167 
L 354.812303 16.143251 
L 355.42225 16.23592 
L 356.032197 16.919436 
L 356.642144 17.853345 
L 357.252091 16.371501 
L 357.862039 16.684034 
L 359.081933 16.538322 
L 359.69188 17.054563 
L 360.301827 17.091921 
L 361.521722 17.864312 
L 362.131669 17.731081 
L 362.741616 17.223911 
L 363.351563 16.525548 
L 363.96151 16.363548 
L 365.181405 15.585336 
L 365.791352 15.714084 
L 366.401299 16.122459 
L 367.011246 15.811384 
L 367.621193 16.463159 
L 367.621193 16.463159 
" clip-path="url(#pf0aa14ecb2)" style="fill: none; stroke-dasharray: 3.7,1.6; stroke-dashoffset: 0; stroke: #000000"/>
   </g>
   <g id="patch_3">
    <path d="M 48.039375 253.08 
L 48.039375 3.6 
" style="fill: none; stroke: #000000; stroke-width: 0.5; stroke-linejoin: miter; stroke-linecap: square"/>
   </g>
   <g id="patch_4">
    <path d="M 382.839375 253.08 
L 382.839375 3.6 
" style="fill: none; stroke: #000000; stroke-width: 0.5; stroke-linejoin: miter; stroke-linecap: square"/>
   </g>
   <g id="patch_5">
    <path d="M 48.039375 253.08 
L 382.839375 253.08 
" style="fill: none; stroke: #000000; stroke-width: 0.5; stroke-linejoin: miter; stroke-linecap: square"/>
   </g>
   <g id="patch_6">
    <path d="M 48.039375 3.6 
L 382.839375 3.6 
" style="fill: none; stroke: #000000; stroke-width: 0.5; stroke-linejoin: miter; stroke-linecap: square"/>
   </g>
   <g id="legend_1">
    <g id="patch_7">
     <path d="M 256.633125 247.08 
L 374.439375 247.08 
Q 376.839375 247.08 376.839375 244.68 
L 376.839375 193.03875 
Q 376.839375 190.63875 374.439375 190.63875 
L 256.633125 190.63875 
Q 254.233125 190.63875 254.233125 193.03875 
L 254.233125 244.68 
Q 254.233125 247.08 256.633125 247.08 
z
" style="fill: #ffffff; opacity: 0.8; stroke: #cccccc; stroke-linejoin: miter"/>
    </g>
    <g id="line2d_108">
     <path d="M 259.033125 200.356875 
L 271.033125 200.356875 
L 283.033125 200.356875 
" style="fill: none; stroke: #000000; stroke-linecap: square"/>
    </g>
    <g id="text_14">
     <!-- Max fitness -->
     <g transform="translate(292.633125 204.556875) scale(0.12 -0.12)">
      <defs>
       <path id="DejaVuSans-4d" d="M 628 4666 
L 1569 4666 
L 2759 1491 
L 3956 4666 
L 4897 4666 
L 4897 0 
L 4281 0 
L 4281 4097 
L 3078 897 
L 2444 897 
L 1241 4097 
L 1241 0 
L 628 0 
L 628 4666 
z
" transform="scale(0.015625)"/>
       <path id="DejaVuSans-78" d="M 3513 3500 
L 2247 1797 
L 3578 0 
L 2900 0 
L 1881 1375 
L 863 0 
L 184 0 
L 1544 1831 
L 300 3500 
L 978 3500 
L 1906 2253 
L 2834 3500 
L 3513 3500 
z
" transform="scale(0.015625)"/>
       <path id="DejaVuSans-20" transform="scale(0.015625)"/>
       <path id="DejaVuSans-66" d="M 2375 4863 
L 2375 4384 
L 1825 4384 
Q 1516 4384 1395 4259 
Q 1275 4134 1275 3809 
L 1275 3500 
L 2222 3500 
L 2222 3053 
L 1275 3053 
L 1275 0 
L 697 0 
L 697 3053 
L 147 3053 
L 147 3500 
L 697 3500 
L 697 3744 
Q 697 4328 969 4595 
Q 1241 4863 1831 4863 
L 2375 4863 
z
" transform="scale(0.015625)"/>
      </defs>
      <use xlink:href="#DejaVuSans-4d"/>
      <use xlink:href="#DejaVuSans-61" x="86.279297"/>
      <use xlink:href="#DejaVuSans-78" x="147.558594"/>
      <use xlink:href="#DejaVuSans-20" x="206.738281"/>
      <use xlink:href="#DejaVuSans-66" x="238.525391"/>
      <use xlink:href="#DejaVuSans-69" x="273.730469"/>
      <use xlink:href="#DejaVuSans-74" x="301.513672"/>
      <use xlink:href="#DejaVuSans-6e" x="340.722656"/>
      <use xlink:href="#DejaVuSans-65" x="404.101562"/>
      <use xlink:href="#DejaVuSans-73" x="465.625"/>
      <use xlink:href="#DejaVuSans-73" x="517.724609"/>
     </g>
    </g>
    <g id="patch_8">
     <path d="M 259.033125 222.170625 
L 283.033125 222.170625 
L 283.033125 213.770625 
L 259.033125 213.770625 
z
" style="fill: #0000ff; fill-opacity: 0.2; stroke: #0000ff; stroke-opacity: 0.2; stroke-linejoin: miter"/>
    </g>
    <g id="text_15">
     <!-- Top 90% -->
     <g transform="translate(292.633125 222.170625) scale(0.12 -0.12)">
      <defs>
       <path id="DejaVuSans-54" d="M -19 4666 
L 3928 4666 
L 3928 4134 
L 2272 4134 
L 2272 0 
L 1638 0 
L 1638 4134 
L -19 4134 
L -19 4666 
z
" transform="scale(0.015625)"/>
       <path id="DejaVuSans-70" d="M 1159 525 
L 1159 -1331 
L 581 -1331 
L 581 3500 
L 1159 3500 
L 1159 2969 
Q 1341 3281 1617 3432 
Q 1894 3584 2278 3584 
Q 2916 3584 3314 3078 
Q 3713 2572 3713 1747 
Q 3713 922 3314 415 
Q 2916 -91 2278 -91 
Q 1894 -91 1617 61 
Q 1341 213 1159 525 
z
M 3116 1747 
Q 3116 2381 2855 2742 
Q 2594 3103 2138 3103 
Q 1681 3103 1420 2742 
Q 1159 2381 1159 1747 
Q 1159 1113 1420 752 
Q 1681 391 2138 391 
Q 2594 391 2855 752 
Q 3116 1113 3116 1747 
z
" transform="scale(0.015625)"/>
       <path id="DejaVuSans-39" d="M 703 97 
L 703 672 
Q 941 559 1184 500 
Q 1428 441 1663 441 
Q 2288 441 2617 861 
Q 2947 1281 2994 2138 
Q 2813 1869 2534 1725 
Q 2256 1581 1919 1581 
Q 1219 1581 811 2004 
Q 403 2428 403 3163 
Q 403 3881 828 4315 
Q 1253 4750 1959 4750 
Q 2769 4750 3195 4129 
Q 3622 3509 3622 2328 
Q 3622 1225 3098 567 
Q 2575 -91 1691 -91 
Q 1453 -91 1209 -44 
Q 966 3 703 97 
z
M 1959 2075 
Q 2384 2075 2632 2365 
Q 2881 2656 2881 3163 
Q 2881 3666 2632 3958 
Q 2384 4250 1959 4250 
Q 1534 4250 1286 3958 
Q 1038 3666 1038 3163 
Q 1038 2656 1286 2365 
Q 1534 2075 1959 2075 
z
" transform="scale(0.015625)"/>
       <path id="DejaVuSans-25" d="M 4653 2053 
Q 4381 2053 4226 1822 
Q 4072 1591 4072 1178 
Q 4072 772 4226 539 
Q 4381 306 4653 306 
Q 4919 306 5073 539 
Q 5228 772 5228 1178 
Q 5228 1588 5073 1820 
Q 4919 2053 4653 2053 
z
M 4653 2450 
Q 5147 2450 5437 2106 
Q 5728 1763 5728 1178 
Q 5728 594 5436 251 
Q 5144 -91 4653 -91 
Q 4153 -91 3862 251 
Q 3572 594 3572 1178 
Q 3572 1766 3864 2108 
Q 4156 2450 4653 2450 
z
M 1428 4353 
Q 1159 4353 1004 4120 
Q 850 3888 850 3481 
Q 850 3069 1003 2837 
Q 1156 2606 1428 2606 
Q 1700 2606 1854 2837 
Q 2009 3069 2009 3481 
Q 2009 3884 1853 4118 
Q 1697 4353 1428 4353 
z
M 4250 4750 
L 4750 4750 
L 1831 -91 
L 1331 -91 
L 4250 4750 
z
M 1428 4750 
Q 1922 4750 2215 4408 
Q 2509 4066 2509 3481 
Q 2509 2891 2217 2550 
Q 1925 2209 1428 2209 
Q 931 2209 642 2551 
Q 353 2894 353 3481 
Q 353 4063 643 4406 
Q 934 4750 1428 4750 
z
" transform="scale(0.015625)"/>
      </defs>
      <use xlink:href="#DejaVuSans-54"/>
      <use xlink:href="#DejaVuSans-6f" x="44.083984"/>
      <use xlink:href="#DejaVuSans-70" x="105.265625"/>
      <use xlink:href="#DejaVuSans-20" x="168.742188"/>
      <use xlink:href="#DejaVuSans-39" x="200.529297"/>
      <use xlink:href="#DejaVuSans-30" x="264.152344"/>
      <use xlink:href="#DejaVuSans-25" x="327.775391"/>
     </g>
    </g>
    <g id="line2d_109">
     <path d="M 259.033125 235.584375 
L 271.033125 235.584375 
L 283.033125 235.584375 
" style="fill: none; stroke-dasharray: 3.7,1.6; stroke-dashoffset: 0; stroke: #000000"/>
    </g>
    <g id="text_16">
     <!-- Fitness mean -->
     <g transform="translate(292.633125 239.784375) scale(0.12 -0.12)">
      <defs>
       <path id="DejaVuSans-6d" d="M 3328 2828 
Q 3544 3216 3844 3400 
Q 4144 3584 4550 3584 
Q 5097 3584 5394 3201 
Q 5691 2819 5691 2113 
L 5691 0 
L 5113 0 
L 5113 2094 
Q 5113 2597 4934 2840 
Q 4756 3084 4391 3084 
Q 3944 3084 3684 2787 
Q 3425 2491 3425 1978 
L 3425 0 
L 2847 0 
L 2847 2094 
Q 2847 2600 2669 2842 
Q 2491 3084 2119 3084 
Q 1678 3084 1418 2786 
Q 1159 2488 1159 1978 
L 1159 0 
L 581 0 
L 581 3500 
L 1159 3500 
L 1159 2956 
Q 1356 3278 1631 3431 
Q 1906 3584 2284 3584 
Q 2666 3584 2933 3390 
Q 3200 3197 3328 2828 
z
" transform="scale(0.015625)"/>
      </defs>
      <use xlink:href="#DejaVuSans-46"/>
      <use xlink:href="#DejaVuSans-69" x="50.269531"/>
      <use xlink:href="#DejaVuSans-74" x="78.052734"/>
      <use xlink:href="#DejaVuSans-6e" x="117.261719"/>
      <use xlink:href="#DejaVuSans-65" x="180.640625"/>
      <use xlink:href="#DejaVuSans-73" x="242.164062"/>
      <use xlink:href="#DejaVuSans-73" x="294.263672"/>
      <use xlink:href="#DejaVuSans-20" x="346.363281"/>
      <use xlink:href="#DejaVuSans-6d" x="378.150391"/>
      <use xlink:href="#DejaVuSans-65" x="475.5625"/>
      <use xlink:href="#DejaVuSans-61" x="537.085938"/>
      <use xlink:href="#DejaVuSans-6e" x="598.365234"/>
     </g>
    </g>
   </g>
  </g>
 </g>
 <defs>
  <clipPath id="pf0aa14ecb2">
   <rect x="48.039375" y="3.6" width="334.8" height="249.48"/>
  </clipPath>
 </defs>
</svg>
