<?xml version="1.0" encoding="utf-8" standalone="no"?>
<!DOCTYPE svg PUBLIC "-//W3C//DTD SVG 1.1//EN"
  "http://www.w3.org/Graphics/SVG/1.1/DTD/svg11.dtd">
<svg xmlns:xlink="http://www.w3.org/1999/xlink" width="401.709375pt" height="287.4075pt" viewBox="0 0 401.709375 287.4075" xmlns="http://www.w3.org/2000/svg" version="1.1">
 <metadata>
  <rdf:RDF xmlns:dc="http://purl.org/dc/elements/1.1/" xmlns:cc="http://creativecommons.org/ns#" xmlns:rdf="http://www.w3.org/1999/02/22-rdf-syntax-ns#">
   <cc:Work>
    <dc:type rdf:resource="http://purl.org/dc/dcmitype/StillImage"/>
    <dc:date>2024-06-25T09:35:51.669094</dc:date>
    <dc:format>image/svg+xml</dc:format>
    <dc:creator>
     <cc:Agent>
      <dc:title>Matplotlib v3.9.0, https://matplotlib.org/</dc:title>
     </cc:Agent>
    </dc:creator>
   </cc:Work>
  </rdf:RDF>
 </metadata>
 <defs>
  <style type="text/css">*{stroke-linejoin: round; stroke-linecap: butt}</style>
 </defs>
 <g id="figure_1">
  <g id="patch_1">
   <path d="M 0 287.4075 
L 401.709375 287.4075 
L 401.709375 0 
L 0 0 
z
" style="fill: #ffffff"/>
  </g>
  <g id="axes_1">
   <g id="patch_2">
    <path d="M 63.309375 253.08 
L 398.109375 253.08 
L 398.109375 3.6 
L 63.309375 3.6 
z
" style="fill: #ffffff"/>
   </g>
   <g id="PolyCollection_1">
    <defs>
     <path id="m8603ed8371" d="M 78.527557 -270.966904 
L 78.527557 -266.91965 
L 79.137504 -267.557561 
L 79.747451 -267.564176 
L 80.357398 -267.226623 
L 80.967345 -267.300167 
L 81.577293 -267.235579 
L 82.18724 -267.039523 
L 82.797187 -267.26774 
L 83.407134 -267.334371 
L 84.017081 -267.054024 
L 84.627028 -267.765095 
L 85.236976 -267.714996 
L 85.846923 -267.127888 
L 86.45687 -267.5789 
L 87.066817 -267.699723 
L 87.676764 -267.771605 
L 88.286711 -267.837545 
L 88.896659 -267.84727 
L 89.506606 -267.803873 
L 90.116553 -267.711399 
L 90.7265 -267.80806 
L 91.336447 -268.175947 
L 91.946394 -268.006018 
L 92.556342 -268.462289 
L 93.166289 -268.490413 
L 93.776236 -268.490296 
L 94.386183 -268.413775 
L 94.99613 -268.415992 
L 95.606077 -268.392565 
L 96.216025 -268.423705 
L 96.825972 -268.532134 
L 97.435919 -268.657706 
L 98.045866 -268.907432 
L 98.655813 -268.592856 
L 99.26576 -268.745885 
L 99.875708 -268.83576 
L 100.485655 -268.93218 
L 101.095602 -269.17978 
L 101.705549 -269.061136 
L 102.315496 -268.971225 
L 102.925444 -268.925012 
L 103.535391 -269.431706 
L 104.145338 -269.344899 
L 104.755285 -269.103515 
L 105.365232 -269.2263 
L 105.975179 -269.16307 
L 106.585127 -269.262156 
L 107.195074 -269.177154 
L 107.805021 -269.5379 
L 108.414968 -269.300242 
L 109.024915 -269.512946 
L 109.634862 -271.595227 
L 110.24481 -271.656303 
L 110.854757 -271.982356 
L 111.464704 -272.019525 
L 112.074651 -271.987953 
L 112.684598 -272.086371 
L 113.294545 -272.0837 
L 113.904493 -272.086514 
L 114.51444 -272.100744 
L 115.124387 -272.136954 
L 115.734334 -272.12553 
L 116.344281 -272.110141 
L 116.954228 -272.075345 
L 117.564176 -272.102833 
L 118.174123 -272.167749 
L 118.78407 -272.19276 
L 119.394017 -272.201465 
L 120.003964 -272.206987 
L 120.613911 -272.214646 
L 121.223859 -272.219842 
L 121.833806 -272.202225 
L 122.443753 -272.199849 
L 123.0537 -272.218112 
L 123.663647 -272.218998 
L 124.273594 -272.226449 
L 124.883542 -272.211929 
L 125.493489 -272.214708 
L 126.103436 -272.194115 
L 126.713383 -272.204586 
L 127.32333 -272.213919 
L 127.933277 -272.194855 
L 128.543225 -272.198517 
L 129.153172 -272.234277 
L 129.763119 -272.212139 
L 130.373066 -272.23157 
L 130.983013 -272.24399 
L 131.59296 -272.232892 
L 132.202908 -272.223877 
L 132.812855 -272.208696 
L 133.422802 -272.228841 
L 134.032749 -272.222649 
L 134.642696 -272.224321 
L 135.252643 -272.181368 
L 135.862591 -272.18206 
L 136.472538 -272.185123 
L 137.082485 -272.197164 
L 137.692432 -272.19916 
L 138.302379 -272.226939 
L 138.912326 -272.218918 
L 139.522274 -272.204125 
L 140.132221 -272.199145 
L 140.742168 -272.220378 
L 141.352115 -272.22305 
L 141.962062 -272.220994 
L 142.572009 -272.202859 
L 143.181957 -272.214105 
L 143.791904 -272.206702 
L 144.401851 -272.215318 
L 145.011798 -272.190148 
L 145.621745 -272.191184 
L 146.231692 -272.204868 
L 146.84164 -272.20576 
L 147.451587 -272.180566 
L 148.061534 -272.238604 
L 148.671481 -272.199034 
L 149.281428 -272.194629 
L 149.891375 -272.244518 
L 150.501323 -272.236225 
L 151.11127 -272.25258 
L 151.721217 -272.255823 
L 152.331164 -272.31369 
L 152.941111 -272.32187 
L 153.551058 -272.323752 
L 154.161006 -272.335054 
L 154.770953 -272.306968 
L 155.3809 -272.317784 
L 155.990847 -272.312989 
L 156.600794 -272.309888 
L 157.210741 -272.33391 
L 157.820689 -272.319307 
L 158.430636 -272.34027 
L 159.040583 -272.311409 
L 159.65053 -272.288845 
L 160.260477 -272.292202 
L 160.870424 -272.331771 
L 161.480372 -272.331583 
L 162.090319 -272.342891 
L 162.700266 -272.345784 
L 163.310213 -272.3566 
L 163.92016 -272.354966 
L 164.530107 -272.342249 
L 165.140055 -272.352604 
L 165.750002 -272.362861 
L 166.359949 -272.363704 
L 166.969896 -272.364705 
L 167.579843 -272.370571 
L 168.18979 -272.383711 
L 168.799738 -272.385193 
L 169.409685 -272.346519 
L 170.019632 -272.323016 
L 170.629579 -272.313086 
L 171.239526 -272.339633 
L 171.849473 -272.319001 
L 172.459421 -272.346239 
L 173.069368 -272.322735 
L 173.679315 -272.285413 
L 174.289262 -272.303326 
L 174.899209 -272.2899 
L 175.509156 -272.312112 
L 176.119104 -272.348476 
L 176.729051 -272.380801 
L 177.338998 -272.323283 
L 177.948945 -272.358648 
L 178.558892 -272.362848 
L 179.168839 -272.330419 
L 179.778787 -272.339502 
L 180.388734 -272.334802 
L 180.998681 -272.357378 
L 181.608628 -272.367483 
L 182.218575 -272.357379 
L 182.828522 -272.380062 
L 183.43847 -272.359008 
L 184.048417 -272.370653 
L 184.658364 -272.366978 
L 185.268311 -272.324121 
L 185.878258 -272.338043 
L 186.488205 -272.373626 
L 187.098153 -272.400726 
L 187.7081 -272.341062 
L 188.318047 -272.400393 
L 188.927994 -272.373626 
L 189.537941 -272.370588 
L 190.147888 -272.350536 
L 190.757836 -272.373626 
L 191.367783 -272.352175 
L 191.97773 -272.367499 
L 192.587677 -272.342723 
L 193.197624 -272.321256 
L 193.807571 -272.301708 
L 194.417519 -272.310091 
L 195.027466 -272.313418 
L 195.637413 -272.305178 
L 196.24736 -272.308827 
L 196.857307 -272.297945 
L 197.467254 -272.327325 
L 198.077202 -272.313828 
L 198.687149 -272.319409 
L 199.297096 -272.294377 
L 199.907043 -272.303694 
L 200.51699 -272.305803 
L 201.126937 -272.314667 
L 201.736885 -272.351931 
L 202.346832 -272.372462 
L 202.956779 -272.352413 
L 203.566726 -272.335449 
L 204.176673 -272.375508 
L 204.78662 -272.313446 
L 205.396568 -272.373556 
L 206.006515 -272.387149 
L 206.616462 -272.417861 
L 207.226409 -272.421495 
L 207.836356 -272.417675 
L 208.446303 -272.413495 
L 209.056251 -272.456804 
L 209.666198 -272.45555 
L 210.276145 -272.455387 
L 210.886092 -272.434967 
L 211.496039 -272.434967 
L 212.105986 -272.434151 
L 212.715934 -272.421493 
L 213.325881 -272.421238 
L 213.935828 -272.412324 
L 214.545775 -272.403858 
L 215.155722 -272.396527 
L 215.765669 -272.355913 
L 216.375617 -272.355913 
L 216.985564 -272.382678 
L 217.595511 -272.395532 
L 218.205458 -272.41731 
L 218.815405 -272.413784 
L 219.425352 -272.416663 
L 220.0353 -272.421237 
L 220.645247 -272.421237 
L 221.255194 -272.421238 
L 221.865141 -272.421494 
L 222.475088 -272.421494 
L 223.085035 -272.42602 
L 223.694983 -272.426021 
L 224.30493 -272.434967 
L 224.914877 -272.444865 
L 225.524824 -272.443845 
L 226.134771 -272.443611 
L 226.744718 -272.443611 
L 227.354666 -272.457767 
L 227.964613 -272.457768 
L 228.57456 -272.459243 
L 229.184507 -272.456886 
L 229.794454 -272.459002 
L 230.404401 -272.4413 
L 231.014349 -272.457768 
L 231.624296 -272.459978 
L 232.234243 -272.457767 
L 232.84419 -272.457767 
L 233.454137 -272.439627 
L 234.064084 -272.389061 
L 234.674032 -272.387414 
L 235.283979 -272.424739 
L 235.893926 -272.44267 
L 236.503873 -272.424888 
L 237.11382 -272.382774 
L 237.723767 -272.355029 
L 238.333715 -272.34577 
L 238.943662 -272.34654 
L 239.553609 -272.345057 
L 240.163556 -272.382773 
L 240.773503 -272.392187 
L 241.38345 -272.36753 
L 241.993398 -272.3931 
L 242.603345 -272.434757 
L 243.213292 -272.45426 
L 243.823239 -272.438887 
L 244.433186 -272.419332 
L 245.043133 -272.424522 
L 245.653081 -272.419332 
L 246.263028 -272.3931 
L 246.872975 -272.386013 
L 247.482922 -272.432683 
L 248.092869 -272.431673 
L 248.702816 -272.408928 
L 249.312764 -272.408524 
L 249.922711 -272.395887 
L 250.532658 -272.376039 
L 251.142605 -272.446244 
L 251.752552 -272.447598 
L 252.362499 -272.44532 
L 252.972447 -272.444129 
L 253.582394 -272.44532 
L 254.192341 -272.445322 
L 254.802288 -272.44532 
L 255.412235 -272.416941 
L 256.022182 -272.447333 
L 256.63213 -272.454266 
L 257.242077 -272.442511 
L 257.852024 -272.39723 
L 258.461971 -272.419147 
L 259.071918 -272.367858 
L 259.681865 -272.362831 
L 260.291813 -272.357853 
L 260.90176 -272.362831 
L 261.511707 -272.371663 
L 262.121654 -272.380166 
L 262.731601 -272.426094 
L 263.341548 -272.438527 
L 263.951496 -272.433661 
L 264.561443 -272.444135 
L 265.17139 -272.448476 
L 265.781337 -272.452649 
L 266.391284 -272.456844 
L 267.001231 -272.444725 
L 267.611179 -272.438526 
L 268.221126 -272.407917 
L 268.831073 -272.363148 
L 269.44102 -272.371663 
L 270.050967 -272.416769 
L 270.660914 -272.446871 
L 271.270862 -272.447395 
L 271.880809 -272.430948 
L 272.490756 -272.400921 
L 273.100703 -272.391807 
L 273.71065 -272.376226 
L 274.320597 -272.356175 
L 274.930545 -272.358507 
L 275.540492 -272.346397 
L 276.150439 -272.357511 
L 276.760386 -272.366818 
L 277.370333 -272.397436 
L 277.98028 -272.351759 
L 278.590228 -272.389776 
L 279.200175 -272.411374 
L 279.810122 -272.395328 
L 280.420069 -272.415297 
L 281.030016 -272.425171 
L 281.639963 -272.411373 
L 282.249911 -272.411374 
L 282.859858 -272.391807 
L 283.469805 -272.397651 
L 284.079752 -272.417582 
L 284.689699 -272.372461 
L 285.299646 -272.391807 
L 285.909594 -272.395955 
L 286.519541 -272.4023 
L 287.129488 -272.399735 
L 287.739435 -272.417757 
L 288.349382 -272.406949 
L 288.959329 -272.396841 
L 289.569277 -272.397746 
L 290.179224 -272.389762 
L 290.789171 -272.411549 
L 291.399118 -272.420563 
L 292.009065 -272.401075 
L 292.619012 -272.412497 
L 293.22896 -272.412497 
L 293.838907 -272.418952 
L 294.448854 -272.434361 
L 295.058801 -272.420747 
L 295.668748 -272.421607 
L 296.278695 -272.416136 
L 296.888643 -272.417757 
L 297.49859 -272.417756 
L 298.108537 -272.443071 
L 298.718484 -272.45146 
L 299.328431 -272.459593 
L 299.938378 -272.449605 
L 300.548326 -272.42631 
L 301.158273 -272.449605 
L 301.76822 -272.451198 
L 302.378167 -272.450111 
L 302.988114 -272.413209 
L 303.598061 -272.436096 
L 304.208009 -272.408124 
L 304.817956 -272.409273 
L 305.427903 -272.413208 
L 306.03785 -272.45011 
L 306.647797 -272.391821 
L 307.257744 -272.349876 
L 307.867692 -272.361805 
L 308.477639 -272.329493 
L 309.087586 -272.352133 
L 309.697533 -272.365985 
L 310.30748 -272.320835 
L 310.917427 -272.323158 
L 311.527375 -272.294741 
L 312.137322 -272.34123 
L 312.747269 -272.365984 
L 313.357216 -272.342608 
L 313.967163 -272.379952 
L 314.57711 -272.31058 
L 315.187058 -272.348493 
L 315.797005 -272.339001 
L 316.406952 -272.340596 
L 317.016899 -272.417218 
L 317.626846 -272.363684 
L 318.236793 -272.348507 
L 318.846741 -272.344065 
L 319.456688 -272.340597 
L 320.066635 -272.363684 
L 320.676582 -272.425337 
L 321.286529 -272.431083 
L 321.896476 -272.428293 
L 322.506424 -272.428294 
L 323.116371 -272.412344 
L 323.726318 -272.379952 
L 324.336265 -272.411337 
L 324.946212 -272.427722 
L 325.556159 -272.408752 
L 326.166107 -272.428293 
L 326.776054 -272.428294 
L 327.386001 -272.421394 
L 327.995948 -272.40809 
L 328.605895 -272.394462 
L 329.215842 -272.401073 
L 329.82579 -272.428294 
L 330.435737 -272.449407 
L 331.045684 -272.436928 
L 331.655631 -272.455548 
L 332.265578 -272.455549 
L 332.875525 -272.417926 
L 333.485473 -272.325928 
L 334.09542 -272.363074 
L 334.705367 -272.409337 
L 335.315314 -272.41698 
L 335.925261 -272.426537 
L 336.535208 -272.448204 
L 337.145156 -272.435549 
L 337.755103 -272.454324 
L 338.36505 -272.438809 
L 338.974997 -272.397703 
L 339.584944 -272.401926 
L 340.194891 -272.382785 
L 340.804839 -272.38641 
L 341.414786 -272.398533 
L 342.024733 -272.432419 
L 342.63468 -272.426289 
L 343.244627 -272.454528 
L 343.854574 -272.434346 
L 344.464522 -272.409793 
L 345.074469 -272.426248 
L 345.684416 -272.408125 
L 346.294363 -272.367452 
L 346.90431 -272.404259 
L 347.514257 -272.376503 
L 348.124205 -272.40986 
L 348.734152 -272.376503 
L 349.344099 -272.383148 
L 349.954046 -272.356046 
L 350.563993 -272.318953 
L 351.17394 -272.284075 
L 351.783888 -272.300282 
L 352.393835 -272.293947 
L 353.003782 -272.34789 
L 353.613729 -272.327862 
L 354.223676 -272.347849 
L 354.833623 -272.305365 
L 355.443571 -272.304208 
L 356.053518 -272.322747 
L 356.663465 -272.293957 
L 357.273412 -272.31049 
L 357.883359 -272.347888 
L 358.493306 -272.294095 
L 359.103254 -272.32477 
L 359.713201 -272.337316 
L 360.323148 -272.386361 
L 360.933095 -272.38919 
L 361.543042 -272.416046 
L 362.15299 -272.416046 
L 362.762937 -272.467497 
L 363.372884 -272.467497 
L 363.982831 -272.438936 
L 364.592778 -272.45189 
L 365.202725 -272.457706 
L 365.812673 -272.416046 
L 366.42262 -272.391464 
L 367.032567 -272.423825 
L 367.642514 -272.382076 
L 368.252461 -272.382076 
L 368.862408 -272.382076 
L 369.472356 -272.418509 
L 370.082303 -272.418509 
L 370.69225 -272.416045 
L 371.302197 -272.409213 
L 371.912144 -272.439358 
L 372.522091 -272.434203 
L 373.132039 -272.458748 
L 373.741986 -272.450921 
L 374.351933 -272.447796 
L 374.96188 -272.453832 
L 375.571827 -272.45189 
L 376.181774 -272.45189 
L 376.791722 -272.451949 
L 377.401669 -272.453832 
L 378.011616 -272.451949 
L 378.621563 -272.450147 
L 379.23151 -272.453832 
L 379.841457 -272.450921 
L 380.451405 -272.441054 
L 381.061352 -272.445184 
L 381.671299 -272.438979 
L 382.281246 -272.401542 
L 382.891193 -272.401542 
L 382.891193 -272.4675 
L 382.891193 -272.4675 
L 382.281246 -272.4675 
L 381.671299 -272.4675 
L 381.061352 -272.4675 
L 380.451405 -272.4675 
L 379.841457 -272.4675 
L 379.23151 -272.4675 
L 378.621563 -272.467499 
L 378.011616 -272.4675 
L 377.401669 -272.4675 
L 376.791722 -272.4675 
L 376.181774 -272.4675 
L 375.571827 -272.4675 
L 374.96188 -272.4675 
L 374.351933 -272.4675 
L 373.741986 -272.4675 
L 373.132039 -272.4675 
L 372.522091 -272.467499 
L 371.912144 -272.4675 
L 371.302197 -272.4675 
L 370.69225 -272.4675 
L 370.082303 -272.4675 
L 369.472356 -272.4675 
L 368.862408 -272.4675 
L 368.252461 -272.4675 
L 367.642514 -272.4675 
L 367.032567 -272.4675 
L 366.42262 -272.4675 
L 365.812673 -272.4675 
L 365.202725 -272.4675 
L 364.592778 -272.4675 
L 363.982831 -272.4675 
L 363.372884 -272.4675 
L 362.762937 -272.4675 
L 362.15299 -272.4675 
L 361.543042 -272.4675 
L 360.933095 -272.4675 
L 360.323148 -272.4675 
L 359.713201 -272.4675 
L 359.103254 -272.4675 
L 358.493306 -272.4675 
L 357.883359 -272.4675 
L 357.273412 -272.4675 
L 356.663465 -272.4675 
L 356.053518 -272.4675 
L 355.443571 -272.4675 
L 354.833623 -272.4675 
L 354.223676 -272.4675 
L 353.613729 -272.4675 
L 353.003782 -272.4675 
L 352.393835 -272.4675 
L 351.783888 -272.4675 
L 351.17394 -272.4675 
L 350.563993 -272.4675 
L 349.954046 -272.4675 
L 349.344099 -272.4675 
L 348.734152 -272.4675 
L 348.124205 -272.4675 
L 347.514257 -272.4675 
L 346.90431 -272.4675 
L 346.294363 -272.4675 
L 345.684416 -272.4675 
L 345.074469 -272.4675 
L 344.464522 -272.467499 
L 343.854574 -272.4675 
L 343.244627 -272.4675 
L 342.63468 -272.467499 
L 342.024733 -272.4675 
L 341.414786 -272.4675 
L 340.804839 -272.4675 
L 340.194891 -272.4675 
L 339.584944 -272.4675 
L 338.974997 -272.4675 
L 338.36505 -272.4675 
L 337.755103 -272.4675 
L 337.145156 -272.4675 
L 336.535208 -272.4675 
L 335.925261 -272.4675 
L 335.315314 -272.467499 
L 334.705367 -272.4675 
L 334.09542 -272.4675 
L 333.485473 -272.4675 
L 332.875525 -272.467499 
L 332.265578 -272.467499 
L 331.655631 -272.467498 
L 331.045684 -272.467497 
L 330.435737 -272.467498 
L 329.82579 -272.467348 
L 329.215842 -272.467348 
L 328.605895 -272.467348 
L 327.995948 -272.467348 
L 327.386001 -272.467348 
L 326.776054 -272.467348 
L 326.166107 -272.467348 
L 325.556159 -272.467348 
L 324.946212 -272.467348 
L 324.336265 -272.467348 
L 323.726318 -272.467348 
L 323.116371 -272.467348 
L 322.506424 -272.467348 
L 321.896476 -272.467348 
L 321.286529 -272.467348 
L 320.676582 -272.467348 
L 320.066635 -272.467348 
L 319.456688 -272.467348 
L 318.846741 -272.467348 
L 318.236793 -272.467348 
L 317.626846 -272.467348 
L 317.016899 -272.467348 
L 316.406952 -272.467348 
L 315.797005 -272.467348 
L 315.187058 -272.467348 
L 314.57711 -272.467348 
L 313.967163 -272.467348 
L 313.357216 -272.467348 
L 312.747269 -272.467348 
L 312.137322 -272.467348 
L 311.527375 -272.467348 
L 310.917427 -272.467348 
L 310.30748 -272.467348 
L 309.697533 -272.467348 
L 309.087586 -272.467348 
L 308.477639 -272.467348 
L 307.867692 -272.467348 
L 307.257744 -272.467348 
L 306.647797 -272.467348 
L 306.03785 -272.467348 
L 305.427903 -272.467348 
L 304.817956 -272.467348 
L 304.208009 -272.467348 
L 303.598061 -272.467348 
L 302.988114 -272.467348 
L 302.378167 -272.467348 
L 301.76822 -272.467348 
L 301.158273 -272.467348 
L 300.548326 -272.467348 
L 299.938378 -272.467348 
L 299.328431 -272.467348 
L 298.718484 -272.467348 
L 298.108537 -272.467348 
L 297.49859 -272.467348 
L 296.888643 -272.467348 
L 296.278695 -272.467348 
L 295.668748 -272.467348 
L 295.058801 -272.467348 
L 294.448854 -272.467348 
L 293.838907 -272.467348 
L 293.22896 -272.467348 
L 292.619012 -272.467348 
L 292.009065 -272.467348 
L 291.399118 -272.467348 
L 290.789171 -272.467348 
L 290.179224 -272.467348 
L 289.569277 -272.467348 
L 288.959329 -272.467348 
L 288.349382 -272.467348 
L 287.739435 -272.467348 
L 287.129488 -272.467348 
L 286.519541 -272.467348 
L 285.909594 -272.467348 
L 285.299646 -272.467348 
L 284.689699 -272.467348 
L 284.079752 -272.467348 
L 283.469805 -272.467348 
L 282.859858 -272.467348 
L 282.249911 -272.467348 
L 281.639963 -272.467348 
L 281.030016 -272.467348 
L 280.420069 -272.467348 
L 279.810122 -272.467348 
L 279.200175 -272.467348 
L 278.590228 -272.467348 
L 277.98028 -272.467347 
L 277.370333 -272.467167 
L 276.760386 -272.467167 
L 276.150439 -272.467167 
L 275.540492 -272.467167 
L 274.930545 -272.467167 
L 274.320597 -272.467167 
L 273.71065 -272.467167 
L 273.100703 -272.467167 
L 272.490756 -272.467167 
L 271.880809 -272.467167 
L 271.270862 -272.467167 
L 270.660914 -272.467167 
L 270.050967 -272.467167 
L 269.44102 -272.467167 
L 268.831073 -272.467167 
L 268.221126 -272.467167 
L 267.611179 -272.467167 
L 267.001231 -272.467167 
L 266.391284 -272.467167 
L 265.781337 -272.467167 
L 265.17139 -272.467167 
L 264.561443 -272.467167 
L 263.951496 -272.467167 
L 263.341548 -272.467167 
L 262.731601 -272.467167 
L 262.121654 -272.467167 
L 261.511707 -272.467167 
L 260.90176 -272.467167 
L 260.291813 -272.467167 
L 259.681865 -272.467167 
L 259.071918 -272.467167 
L 258.461971 -272.467167 
L 257.852024 -272.467167 
L 257.242077 -272.467167 
L 256.63213 -272.467167 
L 256.022182 -272.467167 
L 255.412235 -272.467167 
L 254.802288 -272.467167 
L 254.192341 -272.467167 
L 253.582394 -272.467167 
L 252.972447 -272.467167 
L 252.362499 -272.467166 
L 251.752552 -272.467167 
L 251.142605 -272.467167 
L 250.532658 -272.467166 
L 249.922711 -272.467167 
L 249.312764 -272.466197 
L 248.702816 -272.466196 
L 248.092869 -272.466196 
L 247.482922 -272.466196 
L 246.872975 -272.466197 
L 246.263028 -272.466197 
L 245.653081 -272.466196 
L 245.043133 -272.466197 
L 244.433186 -272.466196 
L 243.823239 -272.466197 
L 243.213292 -272.466196 
L 242.603345 -272.466197 
L 241.993398 -272.466196 
L 241.38345 -272.466196 
L 240.773503 -272.466196 
L 240.163556 -272.466195 
L 239.553609 -272.466196 
L 238.943662 -272.466196 
L 238.333715 -272.466194 
L 237.723767 -272.466194 
L 237.11382 -272.466196 
L 236.503873 -272.466196 
L 235.893926 -272.466195 
L 235.283979 -272.465776 
L 234.674032 -272.465776 
L 234.064084 -272.465777 
L 233.454137 -272.465777 
L 232.84419 -272.465777 
L 232.234243 -272.465776 
L 231.624296 -272.465777 
L 231.014349 -272.465777 
L 230.404401 -272.465777 
L 229.794454 -272.465777 
L 229.184507 -272.465776 
L 228.57456 -272.465776 
L 227.964613 -272.465777 
L 227.354666 -272.465777 
L 226.744718 -272.465776 
L 226.134771 -272.465777 
L 225.524824 -272.465777 
L 224.914877 -272.465774 
L 224.30493 -272.46473 
L 223.694983 -272.46473 
L 223.085035 -272.46473 
L 222.475088 -272.46473 
L 221.865141 -272.46473 
L 221.255194 -272.464729 
L 220.645247 -272.464729 
L 220.0353 -272.464729 
L 219.425352 -272.464729 
L 218.815405 -272.464728 
L 218.205458 -272.464451 
L 217.595511 -272.464451 
L 216.985564 -272.464449 
L 216.375617 -272.464449 
L 215.765669 -272.464449 
L 215.155722 -272.464448 
L 214.545775 -272.462081 
L 213.935828 -272.462081 
L 213.325881 -272.462081 
L 212.715934 -272.462082 
L 212.105986 -272.462081 
L 211.496039 -272.46208 
L 210.886092 -272.46208 
L 210.276145 -272.462081 
L 209.666198 -272.46208 
L 209.056251 -272.462081 
L 208.446303 -272.462079 
L 207.836356 -272.462079 
L 207.226409 -272.46208 
L 206.616462 -272.462079 
L 206.006515 -272.45882 
L 205.396568 -272.45882 
L 204.78662 -272.45882 
L 204.176673 -272.458819 
L 203.566726 -272.458819 
L 202.956779 -272.458819 
L 202.346832 -272.458819 
L 201.736885 -272.45882 
L 201.126937 -272.45882 
L 200.51699 -272.458819 
L 199.907043 -272.45882 
L 199.297096 -272.45882 
L 198.687149 -272.45882 
L 198.077202 -272.45882 
L 197.467254 -272.458819 
L 196.857307 -272.45882 
L 196.24736 -272.458819 
L 195.637413 -272.45882 
L 195.027466 -272.458819 
L 194.417519 -272.45882 
L 193.807571 -272.458819 
L 193.197624 -272.458818 
L 192.587677 -272.458818 
L 191.97773 -272.458558 
L 191.367783 -272.458558 
L 190.757836 -272.458559 
L 190.147888 -272.458559 
L 189.537941 -272.458557 
L 188.927994 -272.457753 
L 188.318047 -272.457753 
L 187.7081 -272.457753 
L 187.098153 -272.457753 
L 186.488205 -272.457753 
L 185.878258 -272.457753 
L 185.268311 -272.457753 
L 184.658364 -272.457752 
L 184.048417 -272.457752 
L 183.43847 -272.457751 
L 182.828522 -272.457751 
L 182.218575 -272.457753 
L 181.608628 -272.457753 
L 180.998681 -272.457753 
L 180.388734 -272.457752 
L 179.778787 -272.457751 
L 179.168839 -272.45775 
L 178.558892 -272.457751 
L 177.948945 -272.457751 
L 177.338998 -272.457751 
L 176.729051 -272.457751 
L 176.119104 -272.45775 
L 175.509156 -272.45775 
L 174.899209 -272.45775 
L 174.289262 -272.457008 
L 173.679315 -272.457008 
L 173.069368 -272.457009 
L 172.459421 -272.457008 
L 171.849473 -272.457008 
L 171.239526 -272.457008 
L 170.629579 -272.457008 
L 170.019632 -272.457008 
L 169.409685 -272.457008 
L 168.799738 -272.457008 
L 168.18979 -272.457008 
L 167.579843 -272.457008 
L 166.969896 -272.457008 
L 166.359949 -272.457008 
L 165.750002 -272.457008 
L 165.140055 -272.457007 
L 164.530107 -272.457007 
L 163.92016 -272.457008 
L 163.310213 -272.457007 
L 162.700266 -272.457006 
L 162.090319 -272.457007 
L 161.480372 -272.457007 
L 160.870424 -272.455549 
L 160.260477 -272.454892 
L 159.65053 -272.454893 
L 159.040583 -272.454893 
L 158.430636 -272.454892 
L 157.820689 -272.454893 
L 157.210741 -272.454893 
L 156.600794 -272.454891 
L 155.990847 -272.452309 
L 155.3809 -272.452309 
L 154.770953 -272.452309 
L 154.161006 -272.45231 
L 153.551058 -272.451534 
L 152.941111 -272.451535 
L 152.331164 -272.451536 
L 151.721217 -272.451534 
L 151.11127 -272.442112 
L 150.501323 -272.442114 
L 149.891375 -272.442112 
L 149.281428 -272.436782 
L 148.671481 -272.436782 
L 148.061534 -272.436632 
L 147.451587 -272.436632 
L 146.84164 -272.436632 
L 146.231692 -272.436631 
L 145.621745 -272.436632 
L 145.011798 -272.430499 
L 144.401851 -272.431854 
L 143.791904 -272.431854 
L 143.181957 -272.431854 
L 142.572009 -272.429212 
L 141.962062 -272.42469 
L 141.352115 -272.424689 
L 140.742168 -272.410565 
L 140.132221 -272.410565 
L 139.522274 -272.406869 
L 138.912326 -272.406869 
L 138.302379 -272.406867 
L 137.692432 -272.406868 
L 137.082485 -272.406869 
L 136.472538 -272.397682 
L 135.862591 -272.397684 
L 135.252643 -272.397034 
L 134.642696 -272.397034 
L 134.032749 -272.397034 
L 133.422802 -272.397034 
L 132.812855 -272.397034 
L 132.202908 -272.397034 
L 131.59296 -272.397034 
L 130.983013 -272.397034 
L 130.373066 -272.388385 
L 129.763119 -272.387502 
L 129.153172 -272.387501 
L 128.543225 -272.387503 
L 127.933277 -272.387501 
L 127.32333 -272.387501 
L 126.713383 -272.387501 
L 126.103436 -272.387503 
L 125.493489 -272.387503 
L 124.883542 -272.381815 
L 124.273594 -272.381816 
L 123.663647 -272.381816 
L 123.0537 -272.381816 
L 122.443753 -272.374174 
L 121.833806 -272.374174 
L 121.223859 -272.372102 
L 120.613911 -272.362665 
L 120.003964 -272.362665 
L 119.394017 -272.362665 
L 118.78407 -272.345067 
L 118.174123 -272.343021 
L 117.564176 -272.336863 
L 116.954228 -272.336862 
L 116.344281 -272.332805 
L 115.734334 -272.320007 
L 115.124387 -272.311233 
L 114.51444 -272.311233 
L 113.904493 -272.311234 
L 113.294545 -272.309376 
L 112.684598 -272.309376 
L 112.074651 -272.309375 
L 111.464704 -272.300137 
L 110.854757 -272.300138 
L 110.24481 -272.300136 
L 109.634862 -272.300137 
L 109.024915 -272.300138 
L 108.414968 -272.265881 
L 107.805021 -272.265881 
L 107.195074 -272.247827 
L 106.585127 -272.217373 
L 105.975179 -272.217372 
L 105.365232 -272.217372 
L 104.755285 -272.217373 
L 104.145338 -272.217373 
L 103.535391 -272.217373 
L 102.925444 -272.217373 
L 102.315496 -272.217373 
L 101.705549 -272.092548 
L 101.095602 -272.092548 
L 100.485655 -271.935446 
L 99.875708 -271.935447 
L 99.26576 -271.935447 
L 98.655813 -271.935447 
L 98.045866 -271.935447 
L 97.435919 -271.935447 
L 96.825972 -271.935446 
L 96.216025 -271.935447 
L 95.606077 -271.935447 
L 94.99613 -271.935445 
L 94.386183 -271.915382 
L 93.776236 -271.915382 
L 93.166289 -271.915383 
L 92.556342 -271.915381 
L 91.946394 -271.915383 
L 91.336447 -271.915382 
L 90.7265 -271.915382 
L 90.116553 -271.915382 
L 89.506606 -271.580829 
L 88.896659 -271.580822 
L 88.286711 -271.580853 
L 87.676764 -271.580863 
L 87.066817 -271.533068 
L 86.45687 -271.532799 
L 85.846923 -271.533025 
L 85.236976 -271.495217 
L 84.627028 -271.495259 
L 84.017081 -271.495295 
L 83.407134 -271.495341 
L 82.797187 -271.495304 
L 82.18724 -271.495277 
L 81.577293 -271.495253 
L 80.967345 -271.495245 
L 80.357398 -271.003492 
L 79.747451 -270.966904 
L 79.137504 -270.966903 
L 78.527557 -270.966904 
z
" style="stroke: #0000ff; stroke-opacity: 0.2"/>
    </defs>
    <g clip-path="url(#pad54c016e4)">
     <use xlink:href="#m8603ed8371" x="0" y="287.4075" style="fill: #0000ff; fill-opacity: 0.2; stroke: #0000ff; stroke-opacity: 0.2"/>
    </g>
   </g>
   <g id="matplotlib.axis_1">
    <g id="xtick_1">
     <g id="line2d_1">
      <path d="M 78.527557 253.08 
L 78.527557 3.6 
" clip-path="url(#pad54c016e4)" style="fill: none; stroke: #b0b0b0; stroke-width: 0.5; stroke-linecap: square"/>
     </g>
     <g id="line2d_2">
      <defs>
       <path id="med76be395e" d="M 0 0 
L 0 -3 
" style="stroke: #000000; stroke-width: 0.5"/>
      </defs>
      <g>
       <use xlink:href="#med76be395e" x="78.527557" y="253.08" style="stroke: #000000; stroke-width: 0.5"/>
      </g>
     </g>
     <g id="line2d_3">
      <defs>
       <path id="mb5f1f51bba" d="M 0 0 
L 0 3 
" style="stroke: #000000; stroke-width: 0.5"/>
      </defs>
      <g>
       <use xlink:href="#mb5f1f51bba" x="78.527557" y="3.6" style="stroke: #000000; stroke-width: 0.5"/>
      </g>
     </g>
     <g id="text_1">
      <!-- 0 -->
      <g transform="translate(74.710057 265.698125) scale(0.12 -0.12)">
       <defs>
        <path id="DejaVuSans-30" d="M 2034 4250 
Q 1547 4250 1301 3770 
Q 1056 3291 1056 2328 
Q 1056 1369 1301 889 
Q 1547 409 2034 409 
Q 2525 409 2770 889 
Q 3016 1369 3016 2328 
Q 3016 3291 2770 3770 
Q 2525 4250 2034 4250 
z
M 2034 4750 
Q 2819 4750 3233 4129 
Q 3647 3509 3647 2328 
Q 3647 1150 3233 529 
Q 2819 -91 2034 -91 
Q 1250 -91 836 529 
Q 422 1150 422 2328 
Q 422 3509 836 4129 
Q 1250 4750 2034 4750 
z
" transform="scale(0.015625)"/>
       </defs>
       <use xlink:href="#DejaVuSans-30"/>
      </g>
     </g>
    </g>
    <g id="xtick_2">
     <g id="line2d_4">
      <path d="M 139.522274 253.08 
L 139.522274 3.6 
" clip-path="url(#pad54c016e4)" style="fill: none; stroke: #b0b0b0; stroke-width: 0.5; stroke-linecap: square"/>
     </g>
     <g id="line2d_5">
      <g>
       <use xlink:href="#med76be395e" x="139.522274" y="253.08" style="stroke: #000000; stroke-width: 0.5"/>
      </g>
     </g>
     <g id="line2d_6">
      <g>
       <use xlink:href="#mb5f1f51bba" x="139.522274" y="3.6" style="stroke: #000000; stroke-width: 0.5"/>
      </g>
     </g>
     <g id="text_2">
      <!-- 100 -->
      <g transform="translate(128.069774 265.698125) scale(0.12 -0.12)">
       <defs>
        <path id="DejaVuSans-31" d="M 794 531 
L 1825 531 
L 1825 4091 
L 703 3866 
L 703 4441 
L 1819 4666 
L 2450 4666 
L 2450 531 
L 3481 531 
L 3481 0 
L 794 0 
L 794 531 
z
" transform="scale(0.015625)"/>
       </defs>
       <use xlink:href="#DejaVuSans-31"/>
       <use xlink:href="#DejaVuSans-30" x="63.623047"/>
       <use xlink:href="#DejaVuSans-30" x="127.246094"/>
      </g>
     </g>
    </g>
    <g id="xtick_3">
     <g id="line2d_7">
      <path d="M 200.51699 253.08 
L 200.51699 3.6 
" clip-path="url(#pad54c016e4)" style="fill: none; stroke: #b0b0b0; stroke-width: 0.5; stroke-linecap: square"/>
     </g>
     <g id="line2d_8">
      <g>
       <use xlink:href="#med76be395e" x="200.51699" y="253.08" style="stroke: #000000; stroke-width: 0.5"/>
      </g>
     </g>
     <g id="line2d_9">
      <g>
       <use xlink:href="#mb5f1f51bba" x="200.51699" y="3.6" style="stroke: #000000; stroke-width: 0.5"/>
      </g>
     </g>
     <g id="text_3">
      <!-- 200 -->
      <g transform="translate(189.06449 265.698125) scale(0.12 -0.12)">
       <defs>
        <path id="DejaVuSans-32" d="M 1228 531 
L 3431 531 
L 3431 0 
L 469 0 
L 469 531 
Q 828 903 1448 1529 
Q 2069 2156 2228 2338 
Q 2531 2678 2651 2914 
Q 2772 3150 2772 3378 
Q 2772 3750 2511 3984 
Q 2250 4219 1831 4219 
Q 1534 4219 1204 4116 
Q 875 4013 500 3803 
L 500 4441 
Q 881 4594 1212 4672 
Q 1544 4750 1819 4750 
Q 2544 4750 2975 4387 
Q 3406 4025 3406 3419 
Q 3406 3131 3298 2873 
Q 3191 2616 2906 2266 
Q 2828 2175 2409 1742 
Q 1991 1309 1228 531 
z
" transform="scale(0.015625)"/>
       </defs>
       <use xlink:href="#DejaVuSans-32"/>
       <use xlink:href="#DejaVuSans-30" x="63.623047"/>
       <use xlink:href="#DejaVuSans-30" x="127.246094"/>
      </g>
     </g>
    </g>
    <g id="xtick_4">
     <g id="line2d_10">
      <path d="M 261.511707 253.08 
L 261.511707 3.6 
" clip-path="url(#pad54c016e4)" style="fill: none; stroke: #b0b0b0; stroke-width: 0.5; stroke-linecap: square"/>
     </g>
     <g id="line2d_11">
      <g>
       <use xlink:href="#med76be395e" x="261.511707" y="253.08" style="stroke: #000000; stroke-width: 0.5"/>
      </g>
     </g>
     <g id="line2d_12">
      <g>
       <use xlink:href="#mb5f1f51bba" x="261.511707" y="3.6" style="stroke: #000000; stroke-width: 0.5"/>
      </g>
     </g>
     <g id="text_4">
      <!-- 300 -->
      <g transform="translate(250.059207 265.698125) scale(0.12 -0.12)">
       <defs>
        <path id="DejaVuSans-33" d="M 2597 2516 
Q 3050 2419 3304 2112 
Q 3559 1806 3559 1356 
Q 3559 666 3084 287 
Q 2609 -91 1734 -91 
Q 1441 -91 1130 -33 
Q 819 25 488 141 
L 488 750 
Q 750 597 1062 519 
Q 1375 441 1716 441 
Q 2309 441 2620 675 
Q 2931 909 2931 1356 
Q 2931 1769 2642 2001 
Q 2353 2234 1838 2234 
L 1294 2234 
L 1294 2753 
L 1863 2753 
Q 2328 2753 2575 2939 
Q 2822 3125 2822 3475 
Q 2822 3834 2567 4026 
Q 2313 4219 1838 4219 
Q 1578 4219 1281 4162 
Q 984 4106 628 3988 
L 628 4550 
Q 988 4650 1302 4700 
Q 1616 4750 1894 4750 
Q 2613 4750 3031 4423 
Q 3450 4097 3450 3541 
Q 3450 3153 3228 2886 
Q 3006 2619 2597 2516 
z
" transform="scale(0.015625)"/>
       </defs>
       <use xlink:href="#DejaVuSans-33"/>
       <use xlink:href="#DejaVuSans-30" x="63.623047"/>
       <use xlink:href="#DejaVuSans-30" x="127.246094"/>
      </g>
     </g>
    </g>
    <g id="xtick_5">
     <g id="line2d_13">
      <path d="M 322.506424 253.08 
L 322.506424 3.6 
" clip-path="url(#pad54c016e4)" style="fill: none; stroke: #b0b0b0; stroke-width: 0.5; stroke-linecap: square"/>
     </g>
     <g id="line2d_14">
      <g>
       <use xlink:href="#med76be395e" x="322.506424" y="253.08" style="stroke: #000000; stroke-width: 0.5"/>
      </g>
     </g>
     <g id="line2d_15">
      <g>
       <use xlink:href="#mb5f1f51bba" x="322.506424" y="3.6" style="stroke: #000000; stroke-width: 0.5"/>
      </g>
     </g>
     <g id="text_5">
      <!-- 400 -->
      <g transform="translate(311.053924 265.698125) scale(0.12 -0.12)">
       <defs>
        <path id="DejaVuSans-34" d="M 2419 4116 
L 825 1625 
L 2419 1625 
L 2419 4116 
z
M 2253 4666 
L 3047 4666 
L 3047 1625 
L 3713 1625 
L 3713 1100 
L 3047 1100 
L 3047 0 
L 2419 0 
L 2419 1100 
L 313 1100 
L 313 1709 
L 2253 4666 
z
" transform="scale(0.015625)"/>
       </defs>
       <use xlink:href="#DejaVuSans-34"/>
       <use xlink:href="#DejaVuSans-30" x="63.623047"/>
       <use xlink:href="#DejaVuSans-30" x="127.246094"/>
      </g>
     </g>
    </g>
    <g id="xtick_6">
     <g id="line2d_16">
      <path d="M 383.50114 253.08 
L 383.50114 3.6 
" clip-path="url(#pad54c016e4)" style="fill: none; stroke: #b0b0b0; stroke-width: 0.5; stroke-linecap: square"/>
     </g>
     <g id="line2d_17">
      <g>
       <use xlink:href="#med76be395e" x="383.50114" y="253.08" style="stroke: #000000; stroke-width: 0.5"/>
      </g>
     </g>
     <g id="line2d_18">
      <g>
       <use xlink:href="#mb5f1f51bba" x="383.50114" y="3.6" style="stroke: #000000; stroke-width: 0.5"/>
      </g>
     </g>
     <g id="text_6">
      <!-- 500 -->
      <g transform="translate(372.04864 265.698125) scale(0.12 -0.12)">
       <defs>
        <path id="DejaVuSans-35" d="M 691 4666 
L 3169 4666 
L 3169 4134 
L 1269 4134 
L 1269 2991 
Q 1406 3038 1543 3061 
Q 1681 3084 1819 3084 
Q 2600 3084 3056 2656 
Q 3513 2228 3513 1497 
Q 3513 744 3044 326 
Q 2575 -91 1722 -91 
Q 1428 -91 1123 -41 
Q 819 9 494 109 
L 494 744 
Q 775 591 1075 516 
Q 1375 441 1709 441 
Q 2250 441 2565 725 
Q 2881 1009 2881 1497 
Q 2881 1984 2565 2268 
Q 2250 2553 1709 2553 
Q 1456 2553 1204 2497 
Q 953 2441 691 2322 
L 691 4666 
z
" transform="scale(0.015625)"/>
       </defs>
       <use xlink:href="#DejaVuSans-35"/>
       <use xlink:href="#DejaVuSans-30" x="63.623047"/>
       <use xlink:href="#DejaVuSans-30" x="127.246094"/>
      </g>
     </g>
    </g>
    <g id="xtick_7">
     <g id="line2d_19">
      <defs>
       <path id="m0ca6ff3a0e" d="M 0 0 
L 0 -1.5 
" style="stroke: #000000; stroke-width: 0.5"/>
      </defs>
      <g>
       <use xlink:href="#m0ca6ff3a0e" x="66.328613" y="253.08" style="stroke: #000000; stroke-width: 0.5"/>
      </g>
     </g>
     <g id="line2d_20">
      <defs>
       <path id="mc907ec77aa" d="M 0 0 
L 0 1.5 
" style="stroke: #000000; stroke-width: 0.5"/>
      </defs>
      <g>
       <use xlink:href="#mc907ec77aa" x="66.328613" y="3.6" style="stroke: #000000; stroke-width: 0.5"/>
      </g>
     </g>
    </g>
    <g id="xtick_8">
     <g id="line2d_21">
      <g>
       <use xlink:href="#m0ca6ff3a0e" x="90.7265" y="253.08" style="stroke: #000000; stroke-width: 0.5"/>
      </g>
     </g>
     <g id="line2d_22">
      <g>
       <use xlink:href="#mc907ec77aa" x="90.7265" y="3.6" style="stroke: #000000; stroke-width: 0.5"/>
      </g>
     </g>
    </g>
    <g id="xtick_9">
     <g id="line2d_23">
      <g>
       <use xlink:href="#m0ca6ff3a0e" x="102.925444" y="253.08" style="stroke: #000000; stroke-width: 0.5"/>
      </g>
     </g>
     <g id="line2d_24">
      <g>
       <use xlink:href="#mc907ec77aa" x="102.925444" y="3.6" style="stroke: #000000; stroke-width: 0.5"/>
      </g>
     </g>
    </g>
    <g id="xtick_10">
     <g id="line2d_25">
      <g>
       <use xlink:href="#m0ca6ff3a0e" x="115.124387" y="253.08" style="stroke: #000000; stroke-width: 0.5"/>
      </g>
     </g>
     <g id="line2d_26">
      <g>
       <use xlink:href="#mc907ec77aa" x="115.124387" y="3.6" style="stroke: #000000; stroke-width: 0.5"/>
      </g>
     </g>
    </g>
    <g id="xtick_11">
     <g id="line2d_27">
      <g>
       <use xlink:href="#m0ca6ff3a0e" x="127.32333" y="253.08" style="stroke: #000000; stroke-width: 0.5"/>
      </g>
     </g>
     <g id="line2d_28">
      <g>
       <use xlink:href="#mc907ec77aa" x="127.32333" y="3.6" style="stroke: #000000; stroke-width: 0.5"/>
      </g>
     </g>
    </g>
    <g id="xtick_12">
     <g id="line2d_29">
      <g>
       <use xlink:href="#m0ca6ff3a0e" x="151.721217" y="253.08" style="stroke: #000000; stroke-width: 0.5"/>
      </g>
     </g>
     <g id="line2d_30">
      <g>
       <use xlink:href="#mc907ec77aa" x="151.721217" y="3.6" style="stroke: #000000; stroke-width: 0.5"/>
      </g>
     </g>
    </g>
    <g id="xtick_13">
     <g id="line2d_31">
      <g>
       <use xlink:href="#m0ca6ff3a0e" x="163.92016" y="253.08" style="stroke: #000000; stroke-width: 0.5"/>
      </g>
     </g>
     <g id="line2d_32">
      <g>
       <use xlink:href="#mc907ec77aa" x="163.92016" y="3.6" style="stroke: #000000; stroke-width: 0.5"/>
      </g>
     </g>
    </g>
    <g id="xtick_14">
     <g id="line2d_33">
      <g>
       <use xlink:href="#m0ca6ff3a0e" x="176.119104" y="253.08" style="stroke: #000000; stroke-width: 0.5"/>
      </g>
     </g>
     <g id="line2d_34">
      <g>
       <use xlink:href="#mc907ec77aa" x="176.119104" y="3.6" style="stroke: #000000; stroke-width: 0.5"/>
      </g>
     </g>
    </g>
    <g id="xtick_15">
     <g id="line2d_35">
      <g>
       <use xlink:href="#m0ca6ff3a0e" x="188.318047" y="253.08" style="stroke: #000000; stroke-width: 0.5"/>
      </g>
     </g>
     <g id="line2d_36">
      <g>
       <use xlink:href="#mc907ec77aa" x="188.318047" y="3.6" style="stroke: #000000; stroke-width: 0.5"/>
      </g>
     </g>
    </g>
    <g id="xtick_16">
     <g id="line2d_37">
      <g>
       <use xlink:href="#m0ca6ff3a0e" x="212.715934" y="253.08" style="stroke: #000000; stroke-width: 0.5"/>
      </g>
     </g>
     <g id="line2d_38">
      <g>
       <use xlink:href="#mc907ec77aa" x="212.715934" y="3.6" style="stroke: #000000; stroke-width: 0.5"/>
      </g>
     </g>
    </g>
    <g id="xtick_17">
     <g id="line2d_39">
      <g>
       <use xlink:href="#m0ca6ff3a0e" x="224.914877" y="253.08" style="stroke: #000000; stroke-width: 0.5"/>
      </g>
     </g>
     <g id="line2d_40">
      <g>
       <use xlink:href="#mc907ec77aa" x="224.914877" y="3.6" style="stroke: #000000; stroke-width: 0.5"/>
      </g>
     </g>
    </g>
    <g id="xtick_18">
     <g id="line2d_41">
      <g>
       <use xlink:href="#m0ca6ff3a0e" x="237.11382" y="253.08" style="stroke: #000000; stroke-width: 0.5"/>
      </g>
     </g>
     <g id="line2d_42">
      <g>
       <use xlink:href="#mc907ec77aa" x="237.11382" y="3.6" style="stroke: #000000; stroke-width: 0.5"/>
      </g>
     </g>
    </g>
    <g id="xtick_19">
     <g id="line2d_43">
      <g>
       <use xlink:href="#m0ca6ff3a0e" x="249.312764" y="253.08" style="stroke: #000000; stroke-width: 0.5"/>
      </g>
     </g>
     <g id="line2d_44">
      <g>
       <use xlink:href="#mc907ec77aa" x="249.312764" y="3.6" style="stroke: #000000; stroke-width: 0.5"/>
      </g>
     </g>
    </g>
    <g id="xtick_20">
     <g id="line2d_45">
      <g>
       <use xlink:href="#m0ca6ff3a0e" x="273.71065" y="253.08" style="stroke: #000000; stroke-width: 0.5"/>
      </g>
     </g>
     <g id="line2d_46">
      <g>
       <use xlink:href="#mc907ec77aa" x="273.71065" y="3.6" style="stroke: #000000; stroke-width: 0.5"/>
      </g>
     </g>
    </g>
    <g id="xtick_21">
     <g id="line2d_47">
      <g>
       <use xlink:href="#m0ca6ff3a0e" x="285.909594" y="253.08" style="stroke: #000000; stroke-width: 0.5"/>
      </g>
     </g>
     <g id="line2d_48">
      <g>
       <use xlink:href="#mc907ec77aa" x="285.909594" y="3.6" style="stroke: #000000; stroke-width: 0.5"/>
      </g>
     </g>
    </g>
    <g id="xtick_22">
     <g id="line2d_49">
      <g>
       <use xlink:href="#m0ca6ff3a0e" x="298.108537" y="253.08" style="stroke: #000000; stroke-width: 0.5"/>
      </g>
     </g>
     <g id="line2d_50">
      <g>
       <use xlink:href="#mc907ec77aa" x="298.108537" y="3.6" style="stroke: #000000; stroke-width: 0.5"/>
      </g>
     </g>
    </g>
    <g id="xtick_23">
     <g id="line2d_51">
      <g>
       <use xlink:href="#m0ca6ff3a0e" x="310.30748" y="253.08" style="stroke: #000000; stroke-width: 0.5"/>
      </g>
     </g>
     <g id="line2d_52">
      <g>
       <use xlink:href="#mc907ec77aa" x="310.30748" y="3.6" style="stroke: #000000; stroke-width: 0.5"/>
      </g>
     </g>
    </g>
    <g id="xtick_24">
     <g id="line2d_53">
      <g>
       <use xlink:href="#m0ca6ff3a0e" x="334.705367" y="253.08" style="stroke: #000000; stroke-width: 0.5"/>
      </g>
     </g>
     <g id="line2d_54">
      <g>
       <use xlink:href="#mc907ec77aa" x="334.705367" y="3.6" style="stroke: #000000; stroke-width: 0.5"/>
      </g>
     </g>
    </g>
    <g id="xtick_25">
     <g id="line2d_55">
      <g>
       <use xlink:href="#m0ca6ff3a0e" x="346.90431" y="253.08" style="stroke: #000000; stroke-width: 0.5"/>
      </g>
     </g>
     <g id="line2d_56">
      <g>
       <use xlink:href="#mc907ec77aa" x="346.90431" y="3.6" style="stroke: #000000; stroke-width: 0.5"/>
      </g>
     </g>
    </g>
    <g id="xtick_26">
     <g id="line2d_57">
      <g>
       <use xlink:href="#m0ca6ff3a0e" x="359.103254" y="253.08" style="stroke: #000000; stroke-width: 0.5"/>
      </g>
     </g>
     <g id="line2d_58">
      <g>
       <use xlink:href="#mc907ec77aa" x="359.103254" y="3.6" style="stroke: #000000; stroke-width: 0.5"/>
      </g>
     </g>
    </g>
    <g id="xtick_27">
     <g id="line2d_59">
      <g>
       <use xlink:href="#m0ca6ff3a0e" x="371.302197" y="253.08" style="stroke: #000000; stroke-width: 0.5"/>
      </g>
     </g>
     <g id="line2d_60">
      <g>
       <use xlink:href="#mc907ec77aa" x="371.302197" y="3.6" style="stroke: #000000; stroke-width: 0.5"/>
      </g>
     </g>
    </g>
    <g id="xtick_28">
     <g id="line2d_61">
      <g>
       <use xlink:href="#m0ca6ff3a0e" x="395.700084" y="253.08" style="stroke: #000000; stroke-width: 0.5"/>
      </g>
     </g>
     <g id="line2d_62">
      <g>
       <use xlink:href="#mc907ec77aa" x="395.700084" y="3.6" style="stroke: #000000; stroke-width: 0.5"/>
      </g>
     </g>
    </g>
    <g id="text_7">
     <!-- Generations -->
     <g transform="translate(194.112188 281.311875) scale(0.12 -0.12)">
      <defs>
       <path id="DejaVuSans-47" d="M 3809 666 
L 3809 1919 
L 2778 1919 
L 2778 2438 
L 4434 2438 
L 4434 434 
Q 4069 175 3628 42 
Q 3188 -91 2688 -91 
Q 1594 -91 976 548 
Q 359 1188 359 2328 
Q 359 3472 976 4111 
Q 1594 4750 2688 4750 
Q 3144 4750 3555 4637 
Q 3966 4525 4313 4306 
L 4313 3634 
Q 3963 3931 3569 4081 
Q 3175 4231 2741 4231 
Q 1884 4231 1454 3753 
Q 1025 3275 1025 2328 
Q 1025 1384 1454 906 
Q 1884 428 2741 428 
Q 3075 428 3337 486 
Q 3600 544 3809 666 
z
" transform="scale(0.015625)"/>
       <path id="DejaVuSans-65" d="M 3597 1894 
L 3597 1613 
L 953 1613 
Q 991 1019 1311 708 
Q 1631 397 2203 397 
Q 2534 397 2845 478 
Q 3156 559 3463 722 
L 3463 178 
Q 3153 47 2828 -22 
Q 2503 -91 2169 -91 
Q 1331 -91 842 396 
Q 353 884 353 1716 
Q 353 2575 817 3079 
Q 1281 3584 2069 3584 
Q 2775 3584 3186 3129 
Q 3597 2675 3597 1894 
z
M 3022 2063 
Q 3016 2534 2758 2815 
Q 2500 3097 2075 3097 
Q 1594 3097 1305 2825 
Q 1016 2553 972 2059 
L 3022 2063 
z
" transform="scale(0.015625)"/>
       <path id="DejaVuSans-6e" d="M 3513 2113 
L 3513 0 
L 2938 0 
L 2938 2094 
Q 2938 2591 2744 2837 
Q 2550 3084 2163 3084 
Q 1697 3084 1428 2787 
Q 1159 2491 1159 1978 
L 1159 0 
L 581 0 
L 581 3500 
L 1159 3500 
L 1159 2956 
Q 1366 3272 1645 3428 
Q 1925 3584 2291 3584 
Q 2894 3584 3203 3211 
Q 3513 2838 3513 2113 
z
" transform="scale(0.015625)"/>
       <path id="DejaVuSans-72" d="M 2631 2963 
Q 2534 3019 2420 3045 
Q 2306 3072 2169 3072 
Q 1681 3072 1420 2755 
Q 1159 2438 1159 1844 
L 1159 0 
L 581 0 
L 581 3500 
L 1159 3500 
L 1159 2956 
Q 1341 3275 1631 3429 
Q 1922 3584 2338 3584 
Q 2397 3584 2469 3576 
Q 2541 3569 2628 3553 
L 2631 2963 
z
" transform="scale(0.015625)"/>
       <path id="DejaVuSans-61" d="M 2194 1759 
Q 1497 1759 1228 1600 
Q 959 1441 959 1056 
Q 959 750 1161 570 
Q 1363 391 1709 391 
Q 2188 391 2477 730 
Q 2766 1069 2766 1631 
L 2766 1759 
L 2194 1759 
z
M 3341 1997 
L 3341 0 
L 2766 0 
L 2766 531 
Q 2569 213 2275 61 
Q 1981 -91 1556 -91 
Q 1019 -91 701 211 
Q 384 513 384 1019 
Q 384 1609 779 1909 
Q 1175 2209 1959 2209 
L 2766 2209 
L 2766 2266 
Q 2766 2663 2505 2880 
Q 2244 3097 1772 3097 
Q 1472 3097 1187 3025 
Q 903 2953 641 2809 
L 641 3341 
Q 956 3463 1253 3523 
Q 1550 3584 1831 3584 
Q 2591 3584 2966 3190 
Q 3341 2797 3341 1997 
z
" transform="scale(0.015625)"/>
       <path id="DejaVuSans-74" d="M 1172 4494 
L 1172 3500 
L 2356 3500 
L 2356 3053 
L 1172 3053 
L 1172 1153 
Q 1172 725 1289 603 
Q 1406 481 1766 481 
L 2356 481 
L 2356 0 
L 1766 0 
Q 1100 0 847 248 
Q 594 497 594 1153 
L 594 3053 
L 172 3053 
L 172 3500 
L 594 3500 
L 594 4494 
L 1172 4494 
z
" transform="scale(0.015625)"/>
       <path id="DejaVuSans-69" d="M 603 3500 
L 1178 3500 
L 1178 0 
L 603 0 
L 603 3500 
z
M 603 4863 
L 1178 4863 
L 1178 4134 
L 603 4134 
L 603 4863 
z
" transform="scale(0.015625)"/>
       <path id="DejaVuSans-6f" d="M 1959 3097 
Q 1497 3097 1228 2736 
Q 959 2375 959 1747 
Q 959 1119 1226 758 
Q 1494 397 1959 397 
Q 2419 397 2687 759 
Q 2956 1122 2956 1747 
Q 2956 2369 2687 2733 
Q 2419 3097 1959 3097 
z
M 1959 3584 
Q 2709 3584 3137 3096 
Q 3566 2609 3566 1747 
Q 3566 888 3137 398 
Q 2709 -91 1959 -91 
Q 1206 -91 779 398 
Q 353 888 353 1747 
Q 353 2609 779 3096 
Q 1206 3584 1959 3584 
z
" transform="scale(0.015625)"/>
       <path id="DejaVuSans-73" d="M 2834 3397 
L 2834 2853 
Q 2591 2978 2328 3040 
Q 2066 3103 1784 3103 
Q 1356 3103 1142 2972 
Q 928 2841 928 2578 
Q 928 2378 1081 2264 
Q 1234 2150 1697 2047 
L 1894 2003 
Q 2506 1872 2764 1633 
Q 3022 1394 3022 966 
Q 3022 478 2636 193 
Q 2250 -91 1575 -91 
Q 1294 -91 989 -36 
Q 684 19 347 128 
L 347 722 
Q 666 556 975 473 
Q 1284 391 1588 391 
Q 1994 391 2212 530 
Q 2431 669 2431 922 
Q 2431 1156 2273 1281 
Q 2116 1406 1581 1522 
L 1381 1569 
Q 847 1681 609 1914 
Q 372 2147 372 2553 
Q 372 3047 722 3315 
Q 1072 3584 1716 3584 
Q 2034 3584 2315 3537 
Q 2597 3491 2834 3397 
z
" transform="scale(0.015625)"/>
      </defs>
      <use xlink:href="#DejaVuSans-47"/>
      <use xlink:href="#DejaVuSans-65" x="77.490234"/>
      <use xlink:href="#DejaVuSans-6e" x="139.013672"/>
      <use xlink:href="#DejaVuSans-65" x="202.392578"/>
      <use xlink:href="#DejaVuSans-72" x="263.916016"/>
      <use xlink:href="#DejaVuSans-61" x="305.029297"/>
      <use xlink:href="#DejaVuSans-74" x="366.308594"/>
      <use xlink:href="#DejaVuSans-69" x="405.517578"/>
      <use xlink:href="#DejaVuSans-6f" x="433.300781"/>
      <use xlink:href="#DejaVuSans-6e" x="494.482422"/>
      <use xlink:href="#DejaVuSans-73" x="557.861328"/>
     </g>
    </g>
   </g>
   <g id="matplotlib.axis_2">
    <g id="ytick_1">
     <g id="line2d_63">
      <path d="M 63.309375 229.739033 
L 398.109375 229.739033 
" clip-path="url(#pad54c016e4)" style="fill: none; stroke: #b0b0b0; stroke-width: 0.5; stroke-linecap: square"/>
     </g>
     <g id="line2d_64">
      <defs>
       <path id="mdc75c55ae5" d="M 0 0 
L 3 0 
" style="stroke: #000000; stroke-width: 0.5"/>
      </defs>
      <g>
       <use xlink:href="#mdc75c55ae5" x="63.309375" y="229.739033" style="stroke: #000000; stroke-width: 0.5"/>
      </g>
     </g>
     <g id="line2d_65">
      <defs>
       <path id="mbdf535e331" d="M 0 0 
L -3 0 
" style="stroke: #000000; stroke-width: 0.5"/>
      </defs>
      <g>
       <use xlink:href="#mbdf535e331" x="398.109375" y="229.739033" style="stroke: #000000; stroke-width: 0.5"/>
      </g>
     </g>
     <g id="text_8">
      <!-- −1400 -->
      <g transform="translate(19.21375 234.298096) scale(0.12 -0.12)">
       <defs>
        <path id="DejaVuSans-2212" d="M 678 2272 
L 4684 2272 
L 4684 1741 
L 678 1741 
L 678 2272 
z
" transform="scale(0.015625)"/>
       </defs>
       <use xlink:href="#DejaVuSans-2212"/>
       <use xlink:href="#DejaVuSans-31" x="83.789062"/>
       <use xlink:href="#DejaVuSans-34" x="147.412109"/>
       <use xlink:href="#DejaVuSans-30" x="211.035156"/>
       <use xlink:href="#DejaVuSans-30" x="274.658203"/>
      </g>
     </g>
    </g>
    <g id="ytick_2">
     <g id="line2d_66">
      <path d="M 63.309375 199.568119 
L 398.109375 199.568119 
" clip-path="url(#pad54c016e4)" style="fill: none; stroke: #b0b0b0; stroke-width: 0.5; stroke-linecap: square"/>
     </g>
     <g id="line2d_67">
      <g>
       <use xlink:href="#mdc75c55ae5" x="63.309375" y="199.568119" style="stroke: #000000; stroke-width: 0.5"/>
      </g>
     </g>
     <g id="line2d_68">
      <g>
       <use xlink:href="#mbdf535e331" x="398.109375" y="199.568119" style="stroke: #000000; stroke-width: 0.5"/>
      </g>
     </g>
     <g id="text_9">
      <!-- −1200 -->
      <g transform="translate(19.21375 204.127181) scale(0.12 -0.12)">
       <use xlink:href="#DejaVuSans-2212"/>
       <use xlink:href="#DejaVuSans-31" x="83.789062"/>
       <use xlink:href="#DejaVuSans-32" x="147.412109"/>
       <use xlink:href="#DejaVuSans-30" x="211.035156"/>
       <use xlink:href="#DejaVuSans-30" x="274.658203"/>
      </g>
     </g>
    </g>
    <g id="ytick_3">
     <g id="line2d_69">
      <path d="M 63.309375 169.397204 
L 398.109375 169.397204 
" clip-path="url(#pad54c016e4)" style="fill: none; stroke: #b0b0b0; stroke-width: 0.5; stroke-linecap: square"/>
     </g>
     <g id="line2d_70">
      <g>
       <use xlink:href="#mdc75c55ae5" x="63.309375" y="169.397204" style="stroke: #000000; stroke-width: 0.5"/>
      </g>
     </g>
     <g id="line2d_71">
      <g>
       <use xlink:href="#mbdf535e331" x="398.109375" y="169.397204" style="stroke: #000000; stroke-width: 0.5"/>
      </g>
     </g>
     <g id="text_10">
      <!-- −1000 -->
      <g transform="translate(19.21375 173.956267) scale(0.12 -0.12)">
       <use xlink:href="#DejaVuSans-2212"/>
       <use xlink:href="#DejaVuSans-31" x="83.789062"/>
       <use xlink:href="#DejaVuSans-30" x="147.412109"/>
       <use xlink:href="#DejaVuSans-30" x="211.035156"/>
       <use xlink:href="#DejaVuSans-30" x="274.658203"/>
      </g>
     </g>
    </g>
    <g id="ytick_4">
     <g id="line2d_72">
      <path d="M 63.309375 139.22629 
L 398.109375 139.22629 
" clip-path="url(#pad54c016e4)" style="fill: none; stroke: #b0b0b0; stroke-width: 0.5; stroke-linecap: square"/>
     </g>
     <g id="line2d_73">
      <g>
       <use xlink:href="#mdc75c55ae5" x="63.309375" y="139.22629" style="stroke: #000000; stroke-width: 0.5"/>
      </g>
     </g>
     <g id="line2d_74">
      <g>
       <use xlink:href="#mbdf535e331" x="398.109375" y="139.22629" style="stroke: #000000; stroke-width: 0.5"/>
      </g>
     </g>
     <g id="text_11">
      <!-- −800 -->
      <g transform="translate(26.84875 143.785353) scale(0.12 -0.12)">
       <defs>
        <path id="DejaVuSans-38" d="M 2034 2216 
Q 1584 2216 1326 1975 
Q 1069 1734 1069 1313 
Q 1069 891 1326 650 
Q 1584 409 2034 409 
Q 2484 409 2743 651 
Q 3003 894 3003 1313 
Q 3003 1734 2745 1975 
Q 2488 2216 2034 2216 
z
M 1403 2484 
Q 997 2584 770 2862 
Q 544 3141 544 3541 
Q 544 4100 942 4425 
Q 1341 4750 2034 4750 
Q 2731 4750 3128 4425 
Q 3525 4100 3525 3541 
Q 3525 3141 3298 2862 
Q 3072 2584 2669 2484 
Q 3125 2378 3379 2068 
Q 3634 1759 3634 1313 
Q 3634 634 3220 271 
Q 2806 -91 2034 -91 
Q 1263 -91 848 271 
Q 434 634 434 1313 
Q 434 1759 690 2068 
Q 947 2378 1403 2484 
z
M 1172 3481 
Q 1172 3119 1398 2916 
Q 1625 2713 2034 2713 
Q 2441 2713 2670 2916 
Q 2900 3119 2900 3481 
Q 2900 3844 2670 4047 
Q 2441 4250 2034 4250 
Q 1625 4250 1398 4047 
Q 1172 3844 1172 3481 
z
" transform="scale(0.015625)"/>
       </defs>
       <use xlink:href="#DejaVuSans-2212"/>
       <use xlink:href="#DejaVuSans-38" x="83.789062"/>
       <use xlink:href="#DejaVuSans-30" x="147.412109"/>
       <use xlink:href="#DejaVuSans-30" x="211.035156"/>
      </g>
     </g>
    </g>
    <g id="ytick_5">
     <g id="line2d_75">
      <path d="M 63.309375 109.055376 
L 398.109375 109.055376 
" clip-path="url(#pad54c016e4)" style="fill: none; stroke: #b0b0b0; stroke-width: 0.5; stroke-linecap: square"/>
     </g>
     <g id="line2d_76">
      <g>
       <use xlink:href="#mdc75c55ae5" x="63.309375" y="109.055376" style="stroke: #000000; stroke-width: 0.5"/>
      </g>
     </g>
     <g id="line2d_77">
      <g>
       <use xlink:href="#mbdf535e331" x="398.109375" y="109.055376" style="stroke: #000000; stroke-width: 0.5"/>
      </g>
     </g>
     <g id="text_12">
      <!-- −600 -->
      <g transform="translate(26.84875 113.614438) scale(0.12 -0.12)">
       <defs>
        <path id="DejaVuSans-36" d="M 2113 2584 
Q 1688 2584 1439 2293 
Q 1191 2003 1191 1497 
Q 1191 994 1439 701 
Q 1688 409 2113 409 
Q 2538 409 2786 701 
Q 3034 994 3034 1497 
Q 3034 2003 2786 2293 
Q 2538 2584 2113 2584 
z
M 3366 4563 
L 3366 3988 
Q 3128 4100 2886 4159 
Q 2644 4219 2406 4219 
Q 1781 4219 1451 3797 
Q 1122 3375 1075 2522 
Q 1259 2794 1537 2939 
Q 1816 3084 2150 3084 
Q 2853 3084 3261 2657 
Q 3669 2231 3669 1497 
Q 3669 778 3244 343 
Q 2819 -91 2113 -91 
Q 1303 -91 875 529 
Q 447 1150 447 2328 
Q 447 3434 972 4092 
Q 1497 4750 2381 4750 
Q 2619 4750 2861 4703 
Q 3103 4656 3366 4563 
z
" transform="scale(0.015625)"/>
       </defs>
       <use xlink:href="#DejaVuSans-2212"/>
       <use xlink:href="#DejaVuSans-36" x="83.789062"/>
       <use xlink:href="#DejaVuSans-30" x="147.412109"/>
       <use xlink:href="#DejaVuSans-30" x="211.035156"/>
      </g>
     </g>
    </g>
    <g id="ytick_6">
     <g id="line2d_78">
      <path d="M 63.309375 78.884462 
L 398.109375 78.884462 
" clip-path="url(#pad54c016e4)" style="fill: none; stroke: #b0b0b0; stroke-width: 0.5; stroke-linecap: square"/>
     </g>
     <g id="line2d_79">
      <g>
       <use xlink:href="#mdc75c55ae5" x="63.309375" y="78.884462" style="stroke: #000000; stroke-width: 0.5"/>
      </g>
     </g>
     <g id="line2d_80">
      <g>
       <use xlink:href="#mbdf535e331" x="398.109375" y="78.884462" style="stroke: #000000; stroke-width: 0.5"/>
      </g>
     </g>
     <g id="text_13">
      <!-- −400 -->
      <g transform="translate(26.84875 83.443524) scale(0.12 -0.12)">
       <use xlink:href="#DejaVuSans-2212"/>
       <use xlink:href="#DejaVuSans-34" x="83.789062"/>
       <use xlink:href="#DejaVuSans-30" x="147.412109"/>
       <use xlink:href="#DejaVuSans-30" x="211.035156"/>
      </g>
     </g>
    </g>
    <g id="ytick_7">
     <g id="line2d_81">
      <path d="M 63.309375 48.713547 
L 398.109375 48.713547 
" clip-path="url(#pad54c016e4)" style="fill: none; stroke: #b0b0b0; stroke-width: 0.5; stroke-linecap: square"/>
     </g>
     <g id="line2d_82">
      <g>
       <use xlink:href="#mdc75c55ae5" x="63.309375" y="48.713547" style="stroke: #000000; stroke-width: 0.5"/>
      </g>
     </g>
     <g id="line2d_83">
      <g>
       <use xlink:href="#mbdf535e331" x="398.109375" y="48.713547" style="stroke: #000000; stroke-width: 0.5"/>
      </g>
     </g>
     <g id="text_14">
      <!-- −200 -->
      <g transform="translate(26.84875 53.27261) scale(0.12 -0.12)">
       <use xlink:href="#DejaVuSans-2212"/>
       <use xlink:href="#DejaVuSans-32" x="83.789062"/>
       <use xlink:href="#DejaVuSans-30" x="147.412109"/>
       <use xlink:href="#DejaVuSans-30" x="211.035156"/>
      </g>
     </g>
    </g>
    <g id="ytick_8">
     <g id="line2d_84">
      <path d="M 63.309375 18.542633 
L 398.109375 18.542633 
" clip-path="url(#pad54c016e4)" style="fill: none; stroke: #b0b0b0; stroke-width: 0.5; stroke-linecap: square"/>
     </g>
     <g id="line2d_85">
      <g>
       <use xlink:href="#mdc75c55ae5" x="63.309375" y="18.542633" style="stroke: #000000; stroke-width: 0.5"/>
      </g>
     </g>
     <g id="line2d_86">
      <g>
       <use xlink:href="#mbdf535e331" x="398.109375" y="18.542633" style="stroke: #000000; stroke-width: 0.5"/>
      </g>
     </g>
     <g id="text_15">
      <!-- 0 -->
      <g transform="translate(52.174375 23.101695) scale(0.12 -0.12)">
       <use xlink:href="#DejaVuSans-30"/>
      </g>
     </g>
    </g>
    <g id="ytick_9">
     <g id="line2d_87">
      <defs>
       <path id="me64942e68a" d="M 0 0 
L 1.5 0 
" style="stroke: #000000; stroke-width: 0.5"/>
      </defs>
      <g>
       <use xlink:href="#me64942e68a" x="63.309375" y="252.367219" style="stroke: #000000; stroke-width: 0.5"/>
      </g>
     </g>
     <g id="line2d_88">
      <defs>
       <path id="m88b08020e1" d="M 0 0 
L -1.5 0 
" style="stroke: #000000; stroke-width: 0.5"/>
      </defs>
      <g>
       <use xlink:href="#m88b08020e1" x="398.109375" y="252.367219" style="stroke: #000000; stroke-width: 0.5"/>
      </g>
     </g>
    </g>
    <g id="ytick_10">
     <g id="line2d_89">
      <g>
       <use xlink:href="#me64942e68a" x="63.309375" y="244.82449" style="stroke: #000000; stroke-width: 0.5"/>
      </g>
     </g>
     <g id="line2d_90">
      <g>
       <use xlink:href="#m88b08020e1" x="398.109375" y="244.82449" style="stroke: #000000; stroke-width: 0.5"/>
      </g>
     </g>
    </g>
    <g id="ytick_11">
     <g id="line2d_91">
      <g>
       <use xlink:href="#me64942e68a" x="63.309375" y="237.281762" style="stroke: #000000; stroke-width: 0.5"/>
      </g>
     </g>
     <g id="line2d_92">
      <g>
       <use xlink:href="#m88b08020e1" x="398.109375" y="237.281762" style="stroke: #000000; stroke-width: 0.5"/>
      </g>
     </g>
    </g>
    <g id="ytick_12">
     <g id="line2d_93">
      <g>
       <use xlink:href="#me64942e68a" x="63.309375" y="222.196304" style="stroke: #000000; stroke-width: 0.5"/>
      </g>
     </g>
     <g id="line2d_94">
      <g>
       <use xlink:href="#m88b08020e1" x="398.109375" y="222.196304" style="stroke: #000000; stroke-width: 0.5"/>
      </g>
     </g>
    </g>
    <g id="ytick_13">
     <g id="line2d_95">
      <g>
       <use xlink:href="#me64942e68a" x="63.309375" y="214.653576" style="stroke: #000000; stroke-width: 0.5"/>
      </g>
     </g>
     <g id="line2d_96">
      <g>
       <use xlink:href="#m88b08020e1" x="398.109375" y="214.653576" style="stroke: #000000; stroke-width: 0.5"/>
      </g>
     </g>
    </g>
    <g id="ytick_14">
     <g id="line2d_97">
      <g>
       <use xlink:href="#me64942e68a" x="63.309375" y="207.110847" style="stroke: #000000; stroke-width: 0.5"/>
      </g>
     </g>
     <g id="line2d_98">
      <g>
       <use xlink:href="#m88b08020e1" x="398.109375" y="207.110847" style="stroke: #000000; stroke-width: 0.5"/>
      </g>
     </g>
    </g>
    <g id="ytick_15">
     <g id="line2d_99">
      <g>
       <use xlink:href="#me64942e68a" x="63.309375" y="192.02539" style="stroke: #000000; stroke-width: 0.5"/>
      </g>
     </g>
     <g id="line2d_100">
      <g>
       <use xlink:href="#m88b08020e1" x="398.109375" y="192.02539" style="stroke: #000000; stroke-width: 0.5"/>
      </g>
     </g>
    </g>
    <g id="ytick_16">
     <g id="line2d_101">
      <g>
       <use xlink:href="#me64942e68a" x="63.309375" y="184.482662" style="stroke: #000000; stroke-width: 0.5"/>
      </g>
     </g>
     <g id="line2d_102">
      <g>
       <use xlink:href="#m88b08020e1" x="398.109375" y="184.482662" style="stroke: #000000; stroke-width: 0.5"/>
      </g>
     </g>
    </g>
    <g id="ytick_17">
     <g id="line2d_103">
      <g>
       <use xlink:href="#me64942e68a" x="63.309375" y="176.939933" style="stroke: #000000; stroke-width: 0.5"/>
      </g>
     </g>
     <g id="line2d_104">
      <g>
       <use xlink:href="#m88b08020e1" x="398.109375" y="176.939933" style="stroke: #000000; stroke-width: 0.5"/>
      </g>
     </g>
    </g>
    <g id="ytick_18">
     <g id="line2d_105">
      <g>
       <use xlink:href="#me64942e68a" x="63.309375" y="161.854476" style="stroke: #000000; stroke-width: 0.5"/>
      </g>
     </g>
     <g id="line2d_106">
      <g>
       <use xlink:href="#m88b08020e1" x="398.109375" y="161.854476" style="stroke: #000000; stroke-width: 0.5"/>
      </g>
     </g>
    </g>
    <g id="ytick_19">
     <g id="line2d_107">
      <g>
       <use xlink:href="#me64942e68a" x="63.309375" y="154.311747" style="stroke: #000000; stroke-width: 0.5"/>
      </g>
     </g>
     <g id="line2d_108">
      <g>
       <use xlink:href="#m88b08020e1" x="398.109375" y="154.311747" style="stroke: #000000; stroke-width: 0.5"/>
      </g>
     </g>
    </g>
    <g id="ytick_20">
     <g id="line2d_109">
      <g>
       <use xlink:href="#me64942e68a" x="63.309375" y="146.769019" style="stroke: #000000; stroke-width: 0.5"/>
      </g>
     </g>
     <g id="line2d_110">
      <g>
       <use xlink:href="#m88b08020e1" x="398.109375" y="146.769019" style="stroke: #000000; stroke-width: 0.5"/>
      </g>
     </g>
    </g>
    <g id="ytick_21">
     <g id="line2d_111">
      <g>
       <use xlink:href="#me64942e68a" x="63.309375" y="131.683562" style="stroke: #000000; stroke-width: 0.5"/>
      </g>
     </g>
     <g id="line2d_112">
      <g>
       <use xlink:href="#m88b08020e1" x="398.109375" y="131.683562" style="stroke: #000000; stroke-width: 0.5"/>
      </g>
     </g>
    </g>
    <g id="ytick_22">
     <g id="line2d_113">
      <g>
       <use xlink:href="#me64942e68a" x="63.309375" y="124.140833" style="stroke: #000000; stroke-width: 0.5"/>
      </g>
     </g>
     <g id="line2d_114">
      <g>
       <use xlink:href="#m88b08020e1" x="398.109375" y="124.140833" style="stroke: #000000; stroke-width: 0.5"/>
      </g>
     </g>
    </g>
    <g id="ytick_23">
     <g id="line2d_115">
      <g>
       <use xlink:href="#me64942e68a" x="63.309375" y="116.598104" style="stroke: #000000; stroke-width: 0.5"/>
      </g>
     </g>
     <g id="line2d_116">
      <g>
       <use xlink:href="#m88b08020e1" x="398.109375" y="116.598104" style="stroke: #000000; stroke-width: 0.5"/>
      </g>
     </g>
    </g>
    <g id="ytick_24">
     <g id="line2d_117">
      <g>
       <use xlink:href="#me64942e68a" x="63.309375" y="101.512647" style="stroke: #000000; stroke-width: 0.5"/>
      </g>
     </g>
     <g id="line2d_118">
      <g>
       <use xlink:href="#m88b08020e1" x="398.109375" y="101.512647" style="stroke: #000000; stroke-width: 0.5"/>
      </g>
     </g>
    </g>
    <g id="ytick_25">
     <g id="line2d_119">
      <g>
       <use xlink:href="#me64942e68a" x="63.309375" y="93.969919" style="stroke: #000000; stroke-width: 0.5"/>
      </g>
     </g>
     <g id="line2d_120">
      <g>
       <use xlink:href="#m88b08020e1" x="398.109375" y="93.969919" style="stroke: #000000; stroke-width: 0.5"/>
      </g>
     </g>
    </g>
    <g id="ytick_26">
     <g id="line2d_121">
      <g>
       <use xlink:href="#me64942e68a" x="63.309375" y="86.42719" style="stroke: #000000; stroke-width: 0.5"/>
      </g>
     </g>
     <g id="line2d_122">
      <g>
       <use xlink:href="#m88b08020e1" x="398.109375" y="86.42719" style="stroke: #000000; stroke-width: 0.5"/>
      </g>
     </g>
    </g>
    <g id="ytick_27">
     <g id="line2d_123">
      <g>
       <use xlink:href="#me64942e68a" x="63.309375" y="71.341733" style="stroke: #000000; stroke-width: 0.5"/>
      </g>
     </g>
     <g id="line2d_124">
      <g>
       <use xlink:href="#m88b08020e1" x="398.109375" y="71.341733" style="stroke: #000000; stroke-width: 0.5"/>
      </g>
     </g>
    </g>
    <g id="ytick_28">
     <g id="line2d_125">
      <g>
       <use xlink:href="#me64942e68a" x="63.309375" y="63.799004" style="stroke: #000000; stroke-width: 0.5"/>
      </g>
     </g>
     <g id="line2d_126">
      <g>
       <use xlink:href="#m88b08020e1" x="398.109375" y="63.799004" style="stroke: #000000; stroke-width: 0.5"/>
      </g>
     </g>
    </g>
    <g id="ytick_29">
     <g id="line2d_127">
      <g>
       <use xlink:href="#me64942e68a" x="63.309375" y="56.256276" style="stroke: #000000; stroke-width: 0.5"/>
      </g>
     </g>
     <g id="line2d_128">
      <g>
       <use xlink:href="#m88b08020e1" x="398.109375" y="56.256276" style="stroke: #000000; stroke-width: 0.5"/>
      </g>
     </g>
    </g>
    <g id="ytick_30">
     <g id="line2d_129">
      <g>
       <use xlink:href="#me64942e68a" x="63.309375" y="41.170819" style="stroke: #000000; stroke-width: 0.5"/>
      </g>
     </g>
     <g id="line2d_130">
      <g>
       <use xlink:href="#m88b08020e1" x="398.109375" y="41.170819" style="stroke: #000000; stroke-width: 0.5"/>
      </g>
     </g>
    </g>
    <g id="ytick_31">
     <g id="line2d_131">
      <g>
       <use xlink:href="#me64942e68a" x="63.309375" y="33.62809" style="stroke: #000000; stroke-width: 0.5"/>
      </g>
     </g>
     <g id="line2d_132">
      <g>
       <use xlink:href="#m88b08020e1" x="398.109375" y="33.62809" style="stroke: #000000; stroke-width: 0.5"/>
      </g>
     </g>
    </g>
    <g id="ytick_32">
     <g id="line2d_133">
      <g>
       <use xlink:href="#me64942e68a" x="63.309375" y="26.085362" style="stroke: #000000; stroke-width: 0.5"/>
      </g>
     </g>
     <g id="line2d_134">
      <g>
       <use xlink:href="#m88b08020e1" x="398.109375" y="26.085362" style="stroke: #000000; stroke-width: 0.5"/>
      </g>
     </g>
    </g>
    <g id="ytick_33">
     <g id="line2d_135">
      <g>
       <use xlink:href="#me64942e68a" x="63.309375" y="10.999904" style="stroke: #000000; stroke-width: 0.5"/>
      </g>
     </g>
     <g id="line2d_136">
      <g>
       <use xlink:href="#m88b08020e1" x="398.109375" y="10.999904" style="stroke: #000000; stroke-width: 0.5"/>
      </g>
     </g>
    </g>
    <g id="text_16">
     <!-- Fitness -->
     <g transform="translate(12.718125 149.120625) rotate(-90) scale(0.12 -0.12)">
      <defs>
       <path id="DejaVuSans-46" d="M 628 4666 
L 3309 4666 
L 3309 4134 
L 1259 4134 
L 1259 2759 
L 3109 2759 
L 3109 2228 
L 1259 2228 
L 1259 0 
L 628 0 
L 628 4666 
z
" transform="scale(0.015625)"/>
      </defs>
      <use xlink:href="#DejaVuSans-46"/>
      <use xlink:href="#DejaVuSans-69" x="50.269531"/>
      <use xlink:href="#DejaVuSans-74" x="78.052734"/>
      <use xlink:href="#DejaVuSans-6e" x="117.261719"/>
      <use xlink:href="#DejaVuSans-65" x="180.640625"/>
      <use xlink:href="#DejaVuSans-73" x="242.164062"/>
      <use xlink:href="#DejaVuSans-73" x="294.263672"/>
     </g>
    </g>
   </g>
   <g id="line2d_137">
    <path d="M 78.527557 16.440596 
L 80.357398 16.404008 
L 80.967345 15.912255 
L 89.506606 15.826671 
L 90.116553 15.492118 
L 100.485655 15.472054 
L 101.095602 15.314952 
L 101.705549 15.314952 
L 102.315496 15.190127 
L 115.734334 15.087493 
L 123.663647 15.025684 
L 382.891193 14.94 
L 382.891193 14.94 
" clip-path="url(#pad54c016e4)" style="fill: none; stroke: #000000; stroke-linecap: square"/>
   </g>
   <g id="line2d_138">
    <path d="M 78.527557 241.74 
L 79.137504 23.644827 
L 79.747451 21.861415 
L 80.967345 21.454839 
L 81.577293 21.587537 
L 82.18724 20.905772 
L 82.797187 20.994722 
L 83.407134 20.473054 
L 84.017081 30.088017 
L 84.627028 21.61174 
L 85.236976 21.248379 
L 85.846923 21.513949 
L 86.45687 21.175401 
L 87.066817 21.013656 
L 87.676764 20.617121 
L 88.286711 20.871095 
L 88.896659 21.776399 
L 89.506606 20.962556 
L 90.116553 21.71707 
L 90.7265 20.539461 
L 91.336447 20.031155 
L 92.556342 22.26105 
L 93.166289 21.69845 
L 93.776236 19.716397 
L 94.99613 19.478836 
L 95.606077 19.673395 
L 96.216025 25.711906 
L 96.825972 19.470928 
L 97.435919 19.175837 
L 98.045866 19.66404 
L 98.655813 19.740358 
L 99.26576 19.090346 
L 99.875708 51.142329 
L 100.485655 18.944319 
L 101.095602 18.497344 
L 101.705549 18.983657 
L 102.925444 18.754342 
L 103.535391 18.192307 
L 104.755285 18.496293 
L 105.975179 18.294323 
L 106.585127 18.156941 
L 107.195074 18.1564 
L 107.805021 17.879434 
L 108.414968 18.093276 
L 109.024915 17.839218 
L 109.634862 17.047643 
L 110.24481 17.120346 
L 110.854757 16.308286 
L 111.464704 16.915659 
L 112.684598 15.847185 
L 113.294545 15.564087 
L 115.734334 15.366144 
L 117.564176 15.485031 
L 119.394017 15.328542 
L 120.613911 15.358499 
L 123.0537 15.337603 
L 124.273594 15.30244 
L 126.713383 15.475449 
L 127.32333 15.350392 
L 127.933277 15.438442 
L 128.543225 15.340679 
L 129.153172 15.389071 
L 130.373066 15.31087 
L 133.422802 15.330731 
L 134.032749 15.454417 
L 138.302379 15.304653 
L 139.522274 15.437998 
L 140.132221 15.37388 
L 141.352115 15.433217 
L 141.962062 15.352752 
L 143.181957 15.391832 
L 143.791904 15.320126 
L 145.621745 15.458704 
L 148.061534 15.354822 
L 149.281428 15.553582 
L 149.891375 15.407995 
L 153.551058 15.400658 
L 156.600794 15.34887 
L 158.430636 15.436371 
L 159.040583 15.395878 
L 159.65053 15.234119 
L 161.480372 15.34025 
L 162.090319 15.223727 
L 163.92016 15.277935 
L 164.530107 15.200173 
L 165.750002 15.439494 
L 166.969896 15.205822 
L 168.18979 15.137784 
L 168.799738 15.232587 
L 170.019632 15.22779 
L 172.459421 15.368556 
L 173.069368 15.256986 
L 174.899209 15.340162 
L 176.729051 15.202632 
L 177.338998 15.322693 
L 178.558892 15.248574 
L 179.168839 15.389613 
L 179.778787 15.254919 
L 180.388734 15.316859 
L 181.608628 15.248356 
L 182.218575 15.298177 
L 183.43847 15.17108 
L 184.658364 15.239506 
L 190.147888 15.314789 
L 190.757836 15.45934 
L 191.367783 15.386238 
L 191.97773 15.190232 
L 194.417519 15.327529 
L 196.24736 15.231826 
L 197.467254 15.300031 
L 198.687149 15.226955 
L 199.907043 15.255521 
L 205.396568 15.204722 
L 206.006515 15.298123 
L 207.226409 15.247406 
L 208.446303 15.278638 
L 209.056251 15.150523 
L 210.886092 15.228291 
L 212.715934 15.212028 
L 214.545775 15.341461 
L 216.375617 15.295108 
L 217.595511 15.224846 
L 218.205458 15.128712 
L 221.255194 15.229647 
L 224.914877 15.107464 
L 226.134771 15.124934 
L 229.184507 15.091747 
L 235.283979 15.102249 
L 237.11382 15.149944 
L 240.163556 15.205249 
L 241.38345 15.140836 
L 243.213292 15.138255 
L 243.823239 15.219175 
L 245.043133 15.115201 
L 246.263028 15.193162 
L 247.482922 15.102492 
L 250.532658 15.108274 
L 251.142605 15.067425 
L 251.752552 15.146662 
L 253.582394 15.061821 
L 255.412235 15.215604 
L 256.63213 15.196154 
L 257.242077 15.262111 
L 257.852024 15.167584 
L 262.121654 15.224481 
L 266.391284 15.088575 
L 267.001231 15.10869 
L 267.611179 15.241101 
L 268.221126 15.171172 
L 269.44102 15.212944 
L 275.540492 15.249182 
L 276.150439 15.159304 
L 276.760386 15.206537 
L 277.98028 15.139498 
L 286.519541 15.193025 
L 287.739435 15.144227 
L 294.448854 15.109398 
L 301.158273 15.136599 
L 302.378167 15.120685 
L 306.03785 15.122552 
L 306.647797 15.240666 
L 309.087586 15.169263 
L 317.626846 15.26267 
L 318.236793 15.183591 
L 319.456688 15.212436 
L 320.676582 15.164326 
L 324.946212 15.182205 
L 326.166107 15.168107 
L 327.386001 15.200381 
L 327.995948 15.137956 
L 329.215842 15.25583 
L 330.435737 15.166305 
L 331.045684 15.311103 
L 331.655631 15.143617 
L 334.705367 15.24655 
L 335.925261 15.169019 
L 339.584944 15.129879 
L 340.804839 15.213337 
L 343.854574 15.173135 
L 345.074469 15.211539 
L 346.294363 15.234793 
L 349.344099 15.265394 
L 349.954046 15.206544 
L 350.563993 15.312109 
L 353.003782 15.197142 
L 354.223676 15.376879 
L 354.833623 15.389407 
L 356.053518 15.229145 
L 359.103254 15.259221 
L 365.202725 15.144648 
L 367.032567 15.304826 
L 368.252461 15.255607 
L 369.472356 15.344724 
L 370.69225 15.22512 
L 376.181774 15.126671 
L 382.281246 15.19772 
L 382.891193 15.223827 
L 382.891193 15.223827 
" clip-path="url(#pad54c016e4)" style="fill: none; stroke-dasharray: 3.7,1.6; stroke-dashoffset: 0; stroke: #000000"/>
   </g>
   <g id="patch_3">
    <path d="M 63.309375 253.08 
L 63.309375 3.6 
" style="fill: none; stroke: #000000; stroke-width: 0.5; stroke-linejoin: miter; stroke-linecap: square"/>
   </g>
   <g id="patch_4">
    <path d="M 398.109375 253.08 
L 398.109375 3.6 
" style="fill: none; stroke: #000000; stroke-width: 0.5; stroke-linejoin: miter; stroke-linecap: square"/>
   </g>
   <g id="patch_5">
    <path d="M 63.309375 253.08 
L 398.109375 253.08 
" style="fill: none; stroke: #000000; stroke-width: 0.5; stroke-linejoin: miter; stroke-linecap: square"/>
   </g>
   <g id="patch_6">
    <path d="M 63.309375 3.6 
L 398.109375 3.6 
" style="fill: none; stroke: #000000; stroke-width: 0.5; stroke-linejoin: miter; stroke-linecap: square"/>
   </g>
   <g id="legend_1">
    <g id="patch_7">
     <path d="M 273.238125 247.08 
L 389.709375 247.08 
Q 392.109375 247.08 392.109375 244.68 
L 392.109375 193.03875 
Q 392.109375 190.63875 389.709375 190.63875 
L 273.238125 190.63875 
Q 270.838125 190.63875 270.838125 193.03875 
L 270.838125 244.68 
Q 270.838125 247.08 273.238125 247.08 
z
" style="fill: #ffffff; opacity: 0.8; stroke: #cccccc; stroke-linejoin: miter"/>
    </g>
    <g id="line2d_139">
     <path d="M 275.638125 200.356875 
L 287.638125 200.356875 
L 299.638125 200.356875 
" style="fill: none; stroke: #000000; stroke-linecap: square"/>
    </g>
    <g id="text_17">
     <!-- Best fitness -->
     <g transform="translate(309.238125 204.556875) scale(0.12 -0.12)">
      <defs>
       <path id="DejaVuSans-42" d="M 1259 2228 
L 1259 519 
L 2272 519 
Q 2781 519 3026 730 
Q 3272 941 3272 1375 
Q 3272 1813 3026 2020 
Q 2781 2228 2272 2228 
L 1259 2228 
z
M 1259 4147 
L 1259 2741 
L 2194 2741 
Q 2656 2741 2882 2914 
Q 3109 3088 3109 3444 
Q 3109 3797 2882 3972 
Q 2656 4147 2194 4147 
L 1259 4147 
z
M 628 4666 
L 2241 4666 
Q 2963 4666 3353 4366 
Q 3744 4066 3744 3513 
Q 3744 3084 3544 2831 
Q 3344 2578 2956 2516 
Q 3422 2416 3680 2098 
Q 3938 1781 3938 1306 
Q 3938 681 3513 340 
Q 3088 0 2303 0 
L 628 0 
L 628 4666 
z
" transform="scale(0.015625)"/>
       <path id="DejaVuSans-20" transform="scale(0.015625)"/>
       <path id="DejaVuSans-66" d="M 2375 4863 
L 2375 4384 
L 1825 4384 
Q 1516 4384 1395 4259 
Q 1275 4134 1275 3809 
L 1275 3500 
L 2222 3500 
L 2222 3053 
L 1275 3053 
L 1275 0 
L 697 0 
L 697 3053 
L 147 3053 
L 147 3500 
L 697 3500 
L 697 3744 
Q 697 4328 969 4595 
Q 1241 4863 1831 4863 
L 2375 4863 
z
" transform="scale(0.015625)"/>
      </defs>
      <use xlink:href="#DejaVuSans-42"/>
      <use xlink:href="#DejaVuSans-65" x="68.603516"/>
      <use xlink:href="#DejaVuSans-73" x="130.126953"/>
      <use xlink:href="#DejaVuSans-74" x="182.226562"/>
      <use xlink:href="#DejaVuSans-20" x="221.435547"/>
      <use xlink:href="#DejaVuSans-66" x="253.222656"/>
      <use xlink:href="#DejaVuSans-69" x="288.427734"/>
      <use xlink:href="#DejaVuSans-74" x="316.210938"/>
      <use xlink:href="#DejaVuSans-6e" x="355.419922"/>
      <use xlink:href="#DejaVuSans-65" x="418.798828"/>
      <use xlink:href="#DejaVuSans-73" x="480.322266"/>
      <use xlink:href="#DejaVuSans-73" x="532.421875"/>
     </g>
    </g>
    <g id="patch_8">
     <path d="M 275.638125 222.170625 
L 299.638125 222.170625 
L 299.638125 213.770625 
L 275.638125 213.770625 
z
" style="fill: #0000ff; fill-opacity: 0.2; stroke: #0000ff; stroke-opacity: 0.2; stroke-linejoin: miter"/>
    </g>
    <g id="text_18">
     <!-- Top 90% -->
     <g transform="translate(309.238125 222.170625) scale(0.12 -0.12)">
      <defs>
       <path id="DejaVuSans-54" d="M -19 4666 
L 3928 4666 
L 3928 4134 
L 2272 4134 
L 2272 0 
L 1638 0 
L 1638 4134 
L -19 4134 
L -19 4666 
z
" transform="scale(0.015625)"/>
       <path id="DejaVuSans-70" d="M 1159 525 
L 1159 -1331 
L 581 -1331 
L 581 3500 
L 1159 3500 
L 1159 2969 
Q 1341 3281 1617 3432 
Q 1894 3584 2278 3584 
Q 2916 3584 3314 3078 
Q 3713 2572 3713 1747 
Q 3713 922 3314 415 
Q 2916 -91 2278 -91 
Q 1894 -91 1617 61 
Q 1341 213 1159 525 
z
M 3116 1747 
Q 3116 2381 2855 2742 
Q 2594 3103 2138 3103 
Q 1681 3103 1420 2742 
Q 1159 2381 1159 1747 
Q 1159 1113 1420 752 
Q 1681 391 2138 391 
Q 2594 391 2855 752 
Q 3116 1113 3116 1747 
z
" transform="scale(0.015625)"/>
       <path id="DejaVuSans-39" d="M 703 97 
L 703 672 
Q 941 559 1184 500 
Q 1428 441 1663 441 
Q 2288 441 2617 861 
Q 2947 1281 2994 2138 
Q 2813 1869 2534 1725 
Q 2256 1581 1919 1581 
Q 1219 1581 811 2004 
Q 403 2428 403 3163 
Q 403 3881 828 4315 
Q 1253 4750 1959 4750 
Q 2769 4750 3195 4129 
Q 3622 3509 3622 2328 
Q 3622 1225 3098 567 
Q 2575 -91 1691 -91 
Q 1453 -91 1209 -44 
Q 966 3 703 97 
z
M 1959 2075 
Q 2384 2075 2632 2365 
Q 2881 2656 2881 3163 
Q 2881 3666 2632 3958 
Q 2384 4250 1959 4250 
Q 1534 4250 1286 3958 
Q 1038 3666 1038 3163 
Q 1038 2656 1286 2365 
Q 1534 2075 1959 2075 
z
" transform="scale(0.015625)"/>
       <path id="DejaVuSans-25" d="M 4653 2053 
Q 4381 2053 4226 1822 
Q 4072 1591 4072 1178 
Q 4072 772 4226 539 
Q 4381 306 4653 306 
Q 4919 306 5073 539 
Q 5228 772 5228 1178 
Q 5228 1588 5073 1820 
Q 4919 2053 4653 2053 
z
M 4653 2450 
Q 5147 2450 5437 2106 
Q 5728 1763 5728 1178 
Q 5728 594 5436 251 
Q 5144 -91 4653 -91 
Q 4153 -91 3862 251 
Q 3572 594 3572 1178 
Q 3572 1766 3864 2108 
Q 4156 2450 4653 2450 
z
M 1428 4353 
Q 1159 4353 1004 4120 
Q 850 3888 850 3481 
Q 850 3069 1003 2837 
Q 1156 2606 1428 2606 
Q 1700 2606 1854 2837 
Q 2009 3069 2009 3481 
Q 2009 3884 1853 4118 
Q 1697 4353 1428 4353 
z
M 4250 4750 
L 4750 4750 
L 1831 -91 
L 1331 -91 
L 4250 4750 
z
M 1428 4750 
Q 1922 4750 2215 4408 
Q 2509 4066 2509 3481 
Q 2509 2891 2217 2550 
Q 1925 2209 1428 2209 
Q 931 2209 642 2551 
Q 353 2894 353 3481 
Q 353 4063 643 4406 
Q 934 4750 1428 4750 
z
" transform="scale(0.015625)"/>
      </defs>
      <use xlink:href="#DejaVuSans-54"/>
      <use xlink:href="#DejaVuSans-6f" x="44.083984"/>
      <use xlink:href="#DejaVuSans-70" x="105.265625"/>
      <use xlink:href="#DejaVuSans-20" x="168.742188"/>
      <use xlink:href="#DejaVuSans-39" x="200.529297"/>
      <use xlink:href="#DejaVuSans-30" x="264.152344"/>
      <use xlink:href="#DejaVuSans-25" x="327.775391"/>
     </g>
    </g>
    <g id="line2d_140">
     <path d="M 275.638125 235.584375 
L 287.638125 235.584375 
L 299.638125 235.584375 
" style="fill: none; stroke-dasharray: 3.7,1.6; stroke-dashoffset: 0; stroke: #000000"/>
    </g>
    <g id="text_19">
     <!-- Mean Fitness -->
     <g transform="translate(309.238125 239.784375) scale(0.12 -0.12)">
      <defs>
       <path id="DejaVuSans-4d" d="M 628 4666 
L 1569 4666 
L 2759 1491 
L 3956 4666 
L 4897 4666 
L 4897 0 
L 4281 0 
L 4281 4097 
L 3078 897 
L 2444 897 
L 1241 4097 
L 1241 0 
L 628 0 
L 628 4666 
z
" transform="scale(0.015625)"/>
      </defs>
      <use xlink:href="#DejaVuSans-4d"/>
      <use xlink:href="#DejaVuSans-65" x="86.279297"/>
      <use xlink:href="#DejaVuSans-61" x="147.802734"/>
      <use xlink:href="#DejaVuSans-6e" x="209.082031"/>
      <use xlink:href="#DejaVuSans-20" x="272.460938"/>
      <use xlink:href="#DejaVuSans-46" x="304.248047"/>
      <use xlink:href="#DejaVuSans-69" x="354.517578"/>
      <use xlink:href="#DejaVuSans-74" x="382.300781"/>
      <use xlink:href="#DejaVuSans-6e" x="421.509766"/>
      <use xlink:href="#DejaVuSans-65" x="484.888672"/>
      <use xlink:href="#DejaVuSans-73" x="546.412109"/>
      <use xlink:href="#DejaVuSans-73" x="598.511719"/>
     </g>
    </g>
   </g>
  </g>
 </g>
 <defs>
  <clipPath id="pad54c016e4">
   <rect x="63.309375" y="3.6" width="334.8" height="249.48"/>
  </clipPath>
 </defs>
</svg>
