<?xml version="1.0" encoding="utf-8" standalone="no"?>
<!DOCTYPE svg PUBLIC "-//W3C//DTD SVG 1.1//EN"
  "http://www.w3.org/Graphics/SVG/1.1/DTD/svg11.dtd">
<svg xmlns:xlink="http://www.w3.org/1999/xlink" width="401.709375pt" height="287.4075pt" viewBox="0 0 401.709375 287.4075" xmlns="http://www.w3.org/2000/svg" version="1.1">
 <metadata>
  <rdf:RDF xmlns:dc="http://purl.org/dc/elements/1.1/" xmlns:cc="http://creativecommons.org/ns#" xmlns:rdf="http://www.w3.org/1999/02/22-rdf-syntax-ns#">
   <cc:Work>
    <dc:type rdf:resource="http://purl.org/dc/dcmitype/StillImage"/>
    <dc:date>2024-06-05T09:17:02.277395</dc:date>
    <dc:format>image/svg+xml</dc:format>
    <dc:creator>
     <cc:Agent>
      <dc:title>Matplotlib v3.9.0, https://matplotlib.org/</dc:title>
     </cc:Agent>
    </dc:creator>
   </cc:Work>
  </rdf:RDF>
 </metadata>
 <defs>
  <style type="text/css">*{stroke-linejoin: round; stroke-linecap: butt}</style>
 </defs>
 <g id="figure_1">
  <g id="patch_1">
   <path d="M 0 287.4075 
L 401.709375 287.4075 
L 401.709375 0 
L 0 0 
z
" style="fill: #ffffff"/>
  </g>
  <g id="axes_1">
   <g id="patch_2">
    <path d="M 63.309375 253.08 
L 398.109375 253.08 
L 398.109375 3.6 
L 63.309375 3.6 
z
" style="fill: #ffffff"/>
   </g>
   <g id="PolyCollection_1">
    <defs>
     <path id="m0c6b7a8493" d="M 78.527557 -270.966904 
L 78.527557 -262.061341 
L 79.137504 -259.954662 
L 79.747451 -262.694814 
L 80.357398 -262.92215 
L 80.967345 -262.725183 
L 81.577293 -263.855605 
L 82.18724 -264.667296 
L 82.797187 -263.990853 
L 83.407134 -264.127151 
L 84.017081 -263.859472 
L 84.627028 -264.668134 
L 85.236976 -264.339861 
L 85.846923 -264.660392 
L 86.45687 -265.051155 
L 87.066817 -265.371708 
L 87.676764 -265.357287 
L 88.286711 -265.180452 
L 88.896659 -265.719243 
L 89.506606 -265.365344 
L 90.116553 -263.124867 
L 90.7265 -264.521405 
L 91.336447 -265.314054 
L 91.946394 -265.010658 
L 92.556342 -265.213304 
L 93.166289 -264.556427 
L 93.776236 -265.460621 
L 94.386183 -265.735836 
L 94.99613 -265.65938 
L 95.606077 -265.808017 
L 96.216025 -265.905337 
L 96.825972 -265.785308 
L 97.435919 -265.822583 
L 98.045866 -266.039158 
L 98.655813 -266.144104 
L 99.26576 -266.084322 
L 99.875708 -266.202159 
L 100.485655 -266.107609 
L 101.095602 -266.442039 
L 101.705549 -266.30189 
L 102.315496 -266.302189 
L 102.925444 -266.514377 
L 103.535391 -266.607824 
L 104.145338 -266.612517 
L 104.755285 -266.57691 
L 105.365232 -266.469331 
L 105.975179 -266.676653 
L 106.585127 -266.775529 
L 107.195074 -266.578978 
L 107.805021 -266.818575 
L 108.414968 -266.766311 
L 109.024915 -266.858157 
L 109.634862 -267.350724 
L 110.24481 -266.88206 
L 110.854757 -268.713586 
L 111.464704 -268.691235 
L 112.074651 -267.110159 
L 112.684598 -269.3168 
L 113.294545 -271.56907 
L 113.904493 -271.635715 
L 114.51444 -271.698548 
L 115.124387 -271.763541 
L 115.734334 -271.810647 
L 116.344281 -271.795719 
L 116.954228 -271.788604 
L 117.564176 -271.741753 
L 118.174123 -271.800097 
L 118.78407 -271.832116 
L 119.394017 -271.852569 
L 120.003964 -271.833906 
L 120.613911 -271.807675 
L 121.223859 -271.800628 
L 121.833806 -271.795316 
L 122.443753 -271.864405 
L 123.0537 -271.870345 
L 123.663647 -271.880553 
L 124.273594 -271.870345 
L 124.883542 -271.846428 
L 125.493489 -271.79812 
L 126.103436 -271.757553 
L 126.713383 -271.744295 
L 127.32333 -271.759173 
L 127.933277 -271.732472 
L 128.543225 -271.753098 
L 129.153172 -271.801433 
L 129.763119 -271.893629 
L 130.373066 -271.845491 
L 130.983013 -271.815576 
L 131.59296 -271.771143 
L 132.202908 -271.765935 
L 132.812855 -271.850676 
L 133.422802 -271.797904 
L 134.032749 -271.809197 
L 134.642696 -271.806806 
L 135.252643 -271.806476 
L 135.862591 -271.798633 
L 136.472538 -271.799841 
L 137.082485 -271.841276 
L 137.692432 -271.865589 
L 138.302379 -271.837416 
L 138.912326 -271.826729 
L 139.522274 -271.780619 
L 140.132221 -271.8163 
L 140.742168 -271.675902 
L 141.352115 -271.616298 
L 141.962062 -271.745313 
L 142.572009 -271.710841 
L 143.181957 -271.706365 
L 143.791904 -271.775194 
L 144.401851 -271.685362 
L 145.011798 -271.692007 
L 145.621745 -271.695596 
L 146.231692 -271.685362 
L 146.84164 -271.808394 
L 147.451587 -271.784007 
L 148.061534 -271.816318 
L 148.671481 -271.733108 
L 149.281428 -271.644505 
L 149.891375 -271.72036 
L 150.501323 -271.723137 
L 151.11127 -271.817292 
L 151.721217 -271.72433 
L 152.331164 -271.776976 
L 152.941111 -271.747081 
L 153.551058 -271.576174 
L 154.161006 -271.755251 
L 154.770953 -271.779886 
L 155.3809 -271.765943 
L 155.990847 -271.817292 
L 156.600794 -271.753166 
L 157.210741 -271.699987 
L 157.820689 -271.819706 
L 158.430636 -271.691394 
L 159.040583 -271.897221 
L 159.65053 -271.880907 
L 160.260477 -271.87534 
L 160.870424 -271.850934 
L 161.480372 -271.83607 
L 162.090319 -271.959858 
L 162.700266 -271.945656 
L 163.310213 -271.940353 
L 163.92016 -271.961831 
L 164.530107 -272.032387 
L 165.140055 -271.939972 
L 165.750002 -271.768392 
L 166.359949 -272.069917 
L 166.969896 -272.024269 
L 167.579843 -272.057418 
L 168.18979 -272.081395 
L 168.799738 -271.956124 
L 169.409685 -271.856756 
L 170.019632 -271.856756 
L 170.629579 -271.80544 
L 171.239526 -271.762992 
L 171.849473 -271.684105 
L 172.459421 -271.682101 
L 173.069368 -271.746384 
L 173.679315 -271.724735 
L 174.289262 -271.729558 
L 174.899209 -271.792053 
L 175.509156 -271.792583 
L 176.119104 -271.871237 
L 176.729051 -271.873819 
L 177.338998 -271.801786 
L 177.948945 -271.806339 
L 178.558892 -271.873537 
L 179.168839 -271.714562 
L 179.778787 -271.827971 
L 180.388734 -271.825478 
L 180.998681 -271.842895 
L 181.608628 -271.895143 
L 182.218575 -271.869844 
L 182.828522 -271.9211 
L 183.43847 -271.966579 
L 184.048417 -271.924946 
L 184.658364 -271.855142 
L 185.268311 -271.801015 
L 185.878258 -271.812472 
L 186.488205 -271.895861 
L 187.098153 -271.825085 
L 187.7081 -271.61478 
L 188.318047 -271.761068 
L 188.927994 -271.702324 
L 189.537941 -271.781619 
L 190.147888 -271.665345 
L 190.757836 -271.69682 
L 191.367783 -271.770328 
L 191.97773 -271.955047 
L 192.587677 -271.867481 
L 193.197624 -271.798334 
L 193.807571 -271.761666 
L 194.417519 -271.788192 
L 195.027466 -271.807982 
L 195.637413 -271.777108 
L 196.24736 -271.962956 
L 196.857307 -271.879402 
L 197.467254 -271.843943 
L 198.077202 -271.852554 
L 198.687149 -271.890635 
L 199.297096 -271.875892 
L 199.907043 -271.805637 
L 200.51699 -271.805255 
L 201.126937 -271.806849 
L 201.736885 -271.890156 
L 202.346832 -271.928153 
L 202.956779 -271.955308 
L 203.566726 -271.939739 
L 204.176673 -271.953283 
L 204.78662 -271.933507 
L 205.396568 -271.913466 
L 206.006515 -271.844447 
L 206.616462 -271.982028 
L 207.226409 -271.920009 
L 207.836356 -271.754331 
L 208.446303 -271.809569 
L 209.056251 -271.910032 
L 209.666198 -271.837915 
L 210.276145 -271.882491 
L 210.886092 -271.904308 
L 211.496039 -271.983787 
L 212.105986 -271.942083 
L 212.715934 -271.923044 
L 213.325881 -271.80865 
L 213.935828 -271.720809 
L 214.545775 -271.741833 
L 215.155722 -271.744954 
L 215.765669 -271.906396 
L 216.375617 -271.790663 
L 216.985564 -271.721991 
L 217.595511 -271.854828 
L 218.205458 -271.98983 
L 218.815405 -271.989829 
L 219.425352 -271.910917 
L 220.0353 -271.986458 
L 220.645247 -271.897173 
L 221.255194 -271.876883 
L 221.865141 -271.909226 
L 222.475088 -271.993166 
L 223.085035 -271.993164 
L 223.694983 -271.983874 
L 224.30493 -271.987004 
L 224.914877 -271.992513 
L 225.524824 -272.017121 
L 226.134771 -271.953564 
L 226.744718 -272.102625 
L 227.354666 -271.976176 
L 227.964613 -272.016117 
L 228.57456 -272.001251 
L 229.184507 -271.930888 
L 229.794454 -272.116842 
L 230.404401 -272.054821 
L 231.014349 -272.037195 
L 231.624296 -271.956149 
L 232.234243 -271.930556 
L 232.84419 -271.921169 
L 233.454137 -271.926062 
L 234.064084 -271.930507 
L 234.674032 -272.041106 
L 235.283979 -272.067208 
L 235.893926 -272.072819 
L 236.503873 -272.085522 
L 237.11382 -271.937124 
L 237.723767 -271.956505 
L 238.333715 -271.8722 
L 238.943662 -271.948507 
L 239.553609 -271.968172 
L 240.163556 -271.909763 
L 240.773503 -272.032638 
L 241.38345 -272.015892 
L 241.993398 -272.046627 
L 242.603345 -272.038918 
L 243.213292 -272.010939 
L 243.823239 -272.010939 
L 244.433186 -272.013834 
L 245.043133 -272.056767 
L 245.653081 -271.941475 
L 246.263028 -271.941475 
L 246.872975 -272.056767 
L 247.482922 -272.055848 
L 248.092869 -272.085733 
L 248.702816 -272.085733 
L 249.312764 -272.072044 
L 249.922711 -271.98017 
L 250.532658 -271.999323 
L 251.142605 -272.132982 
L 251.752552 -272.172187 
L 252.362499 -272.172518 
L 252.972447 -272.154048 
L 253.582394 -272.154048 
L 254.192341 -272.064269 
L 254.802288 -271.995932 
L 255.412235 -271.992348 
L 256.022182 -271.995635 
L 256.63213 -271.885935 
L 257.242077 -271.984409 
L 257.852024 -271.984952 
L 258.461971 -271.923468 
L 259.071918 -271.782115 
L 259.681865 -271.850709 
L 260.291813 -271.753494 
L 260.90176 -271.838455 
L 261.511707 -271.870751 
L 262.121654 -271.716837 
L 262.731601 -271.841923 
L 263.341548 -271.987212 
L 263.951496 -271.922313 
L 264.561443 -272.052944 
L 265.17139 -272.068695 
L 265.781337 -272.103245 
L 266.391284 -272.119889 
L 267.001231 -272.01297 
L 267.611179 -271.922312 
L 268.221126 -271.943694 
L 268.831073 -271.922313 
L 269.44102 -271.933528 
L 270.050967 -271.922035 
L 270.660914 -271.941042 
L 271.270862 -271.913732 
L 271.880809 -271.922313 
L 272.490756 -271.943553 
L 273.100703 -271.972599 
L 273.71065 -272.077605 
L 274.320597 -271.767921 
L 274.930545 -271.980085 
L 275.540492 -271.804584 
L 276.150439 -272.03303 
L 276.760386 -272.012441 
L 277.370333 -272.0145 
L 277.98028 -271.967052 
L 278.590228 -271.982534 
L 279.200175 -271.933659 
L 279.810122 -271.903792 
L 280.420069 -271.854123 
L 281.030016 -271.90385 
L 281.639963 -271.923145 
L 282.249911 -271.871288 
L 282.859858 -271.889959 
L 283.469805 -271.829175 
L 284.079752 -271.917208 
L 284.689699 -271.829175 
L 285.299646 -271.83937 
L 285.909594 -271.875049 
L 286.519541 -272.005528 
L 287.129488 -272.083683 
L 287.739435 -272.074868 
L 288.349382 -272.015396 
L 288.959329 -271.993737 
L 289.569277 -272.040679 
L 290.179224 -272.044229 
L 290.789171 -272.09171 
L 291.399118 -272.041907 
L 292.009065 -272.080902 
L 292.619012 -272.096646 
L 293.22896 -272.071897 
L 293.838907 -272.099873 
L 294.448854 -272.07357 
L 295.058801 -272.046227 
L 295.668748 -272.037137 
L 296.278695 -272.070394 
L 296.888643 -272.036487 
L 297.49859 -272.011352 
L 298.108537 -272.063768 
L 298.718484 -272.063768 
L 299.328431 -272.139872 
L 299.938378 -272.078481 
L 300.548326 -272.049444 
L 301.158273 -272.081998 
L 301.76822 -272.085403 
L 302.378167 -272.108044 
L 302.988114 -272.107838 
L 303.598061 -272.082 
L 304.208009 -272.081999 
L 304.817956 -272.081844 
L 305.427903 -272.043719 
L 306.03785 -272.036153 
L 306.647797 -271.951307 
L 307.257744 -271.867201 
L 307.867692 -271.877739 
L 308.477639 -271.90116 
L 309.087586 -271.953499 
L 309.697533 -271.920745 
L 310.30748 -271.893905 
L 310.917427 -271.90888 
L 311.527375 -271.845864 
L 312.137322 -271.630484 
L 312.747269 -271.908879 
L 313.357216 -271.909989 
L 313.967163 -271.84215 
L 314.57711 -271.812512 
L 315.187058 -271.851429 
L 315.797005 -271.768023 
L 316.406952 -271.840737 
L 317.016899 -271.839969 
L 317.626846 -271.840737 
L 318.236793 -271.882945 
L 318.846741 -271.848478 
L 319.456688 -271.906003 
L 320.066635 -271.855973 
L 320.676582 -271.968607 
L 321.286529 -271.994464 
L 321.896476 -272.067488 
L 322.506424 -272.074116 
L 323.116371 -272.00566 
L 323.726318 -272.062945 
L 324.336265 -272.039363 
L 324.946212 -271.978724 
L 325.556159 -271.982115 
L 326.166107 -271.930567 
L 326.776054 -271.926994 
L 327.386001 -271.997241 
L 327.995948 -271.966785 
L 328.605895 -271.923209 
L 329.215842 -271.877558 
L 329.82579 -271.919233 
L 330.435737 -271.920733 
L 331.045684 -271.877557 
L 331.655631 -271.906076 
L 332.265578 -271.885984 
L 332.875525 -271.776562 
L 333.485473 -271.776562 
L 334.09542 -271.798423 
L 334.705367 -271.804454 
L 335.315314 -271.917357 
L 335.925261 -271.962437 
L 336.535208 -271.937482 
L 337.145156 -271.937279 
L 337.755103 -271.937279 
L 338.36505 -271.99217 
L 338.974997 -271.995811 
L 339.584944 -272.002198 
L 340.194891 -271.954032 
L 340.804839 -271.94434 
L 341.414786 -271.954032 
L 342.024733 -272.046985 
L 342.63468 -271.937419 
L 343.244627 -271.946106 
L 343.854574 -271.906459 
L 344.464522 -271.8761 
L 345.074469 -271.862641 
L 345.684416 -271.956878 
L 346.294363 -271.779629 
L 346.90431 -271.780758 
L 347.514257 -271.845703 
L 348.124205 -271.756229 
L 348.734152 -271.716086 
L 349.344099 -271.799088 
L 349.954046 -271.773214 
L 350.563993 -271.756229 
L 351.17394 -271.757671 
L 351.783888 -271.762921 
L 352.393835 -271.789427 
L 353.003782 -271.834178 
L 353.613729 -271.78668 
L 354.223676 -271.719095 
L 354.833623 -271.713085 
L 355.443571 -271.798229 
L 356.053518 -271.856509 
L 356.663465 -271.848652 
L 357.273412 -271.758592 
L 357.883359 -271.851978 
L 358.493306 -271.761531 
L 359.103254 -271.792646 
L 359.713201 -271.841389 
L 360.323148 -271.824523 
L 360.933095 -271.795322 
L 361.543042 -272.014992 
L 362.15299 -271.993471 
L 362.762937 -272.127332 
L 363.372884 -272.161635 
L 363.982831 -271.987088 
L 364.592778 -271.987087 
L 365.202725 -272.036082 
L 365.812673 -271.794999 
L 366.42262 -271.77259 
L 367.032567 -271.793602 
L 367.642514 -271.757521 
L 368.252461 -271.72932 
L 368.862408 -271.690586 
L 369.472356 -271.825463 
L 370.082303 -271.859879 
L 370.69225 -271.85988 
L 371.302197 -271.791482 
L 371.912144 -271.867306 
L 372.522091 -271.856157 
L 373.132039 -271.883562 
L 373.741986 -271.967121 
L 374.351933 -272.023933 
L 374.96188 -272.007809 
L 375.571827 -272.029137 
L 376.181774 -272.035716 
L 376.791722 -272.038614 
L 377.401669 -272.067725 
L 378.011616 -272.122996 
L 378.621563 -272.095904 
L 379.23151 -272.129264 
L 379.841457 -272.047314 
L 380.451405 -271.949214 
L 381.061352 -271.971951 
L 381.671299 -271.89047 
L 382.281246 -271.89047 
L 382.891193 -271.9344 
L 382.891193 -272.4675 
L 382.891193 -272.4675 
L 382.281246 -272.4675 
L 381.671299 -272.4675 
L 381.061352 -272.4675 
L 380.451405 -272.4675 
L 379.841457 -272.4675 
L 379.23151 -272.4675 
L 378.621563 -272.467499 
L 378.011616 -272.4675 
L 377.401669 -272.4675 
L 376.791722 -272.4675 
L 376.181774 -272.4675 
L 375.571827 -272.4675 
L 374.96188 -272.4675 
L 374.351933 -272.4675 
L 373.741986 -272.4675 
L 373.132039 -272.4675 
L 372.522091 -272.467499 
L 371.912144 -272.4675 
L 371.302197 -272.4675 
L 370.69225 -272.4675 
L 370.082303 -272.4675 
L 369.472356 -272.4675 
L 368.862408 -272.4675 
L 368.252461 -272.4675 
L 367.642514 -272.4675 
L 367.032567 -272.4675 
L 366.42262 -272.4675 
L 365.812673 -272.4675 
L 365.202725 -272.4675 
L 364.592778 -272.4675 
L 363.982831 -272.4675 
L 363.372884 -272.4675 
L 362.762937 -272.4675 
L 362.15299 -272.4675 
L 361.543042 -272.4675 
L 360.933095 -272.4675 
L 360.323148 -272.4675 
L 359.713201 -272.4675 
L 359.103254 -272.4675 
L 358.493306 -272.4675 
L 357.883359 -272.4675 
L 357.273412 -272.4675 
L 356.663465 -272.4675 
L 356.053518 -272.4675 
L 355.443571 -272.4675 
L 354.833623 -272.4675 
L 354.223676 -272.4675 
L 353.613729 -272.4675 
L 353.003782 -272.4675 
L 352.393835 -272.4675 
L 351.783888 -272.4675 
L 351.17394 -272.4675 
L 350.563993 -272.4675 
L 349.954046 -272.4675 
L 349.344099 -272.4675 
L 348.734152 -272.4675 
L 348.124205 -272.4675 
L 347.514257 -272.4675 
L 346.90431 -272.4675 
L 346.294363 -272.4675 
L 345.684416 -272.4675 
L 345.074469 -272.4675 
L 344.464522 -272.467499 
L 343.854574 -272.4675 
L 343.244627 -272.4675 
L 342.63468 -272.467499 
L 342.024733 -272.4675 
L 341.414786 -272.4675 
L 340.804839 -272.4675 
L 340.194891 -272.4675 
L 339.584944 -272.4675 
L 338.974997 -272.4675 
L 338.36505 -272.4675 
L 337.755103 -272.4675 
L 337.145156 -272.4675 
L 336.535208 -272.4675 
L 335.925261 -272.4675 
L 335.315314 -272.467499 
L 334.705367 -272.4675 
L 334.09542 -272.4675 
L 333.485473 -272.4675 
L 332.875525 -272.467499 
L 332.265578 -272.467499 
L 331.655631 -272.467498 
L 331.045684 -272.467497 
L 330.435737 -272.467498 
L 329.82579 -272.467348 
L 329.215842 -272.467348 
L 328.605895 -272.467348 
L 327.995948 -272.467348 
L 327.386001 -272.467348 
L 326.776054 -272.467348 
L 326.166107 -272.467348 
L 325.556159 -272.467348 
L 324.946212 -272.467348 
L 324.336265 -272.467348 
L 323.726318 -272.467348 
L 323.116371 -272.467348 
L 322.506424 -272.467348 
L 321.896476 -272.467348 
L 321.286529 -272.467348 
L 320.676582 -272.467348 
L 320.066635 -272.467348 
L 319.456688 -272.467348 
L 318.846741 -272.467348 
L 318.236793 -272.467348 
L 317.626846 -272.467348 
L 317.016899 -272.467348 
L 316.406952 -272.467348 
L 315.797005 -272.467348 
L 315.187058 -272.467348 
L 314.57711 -272.467348 
L 313.967163 -272.467348 
L 313.357216 -272.467348 
L 312.747269 -272.467348 
L 312.137322 -272.467348 
L 311.527375 -272.467348 
L 310.917427 -272.467348 
L 310.30748 -272.467348 
L 309.697533 -272.467348 
L 309.087586 -272.467348 
L 308.477639 -272.467348 
L 307.867692 -272.467348 
L 307.257744 -272.467348 
L 306.647797 -272.467348 
L 306.03785 -272.467348 
L 305.427903 -272.467348 
L 304.817956 -272.467348 
L 304.208009 -272.467348 
L 303.598061 -272.467348 
L 302.988114 -272.467348 
L 302.378167 -272.467348 
L 301.76822 -272.467348 
L 301.158273 -272.467348 
L 300.548326 -272.467348 
L 299.938378 -272.467348 
L 299.328431 -272.467348 
L 298.718484 -272.467348 
L 298.108537 -272.467348 
L 297.49859 -272.467348 
L 296.888643 -272.467348 
L 296.278695 -272.467348 
L 295.668748 -272.467348 
L 295.058801 -272.467348 
L 294.448854 -272.467348 
L 293.838907 -272.467348 
L 293.22896 -272.467348 
L 292.619012 -272.467348 
L 292.009065 -272.467348 
L 291.399118 -272.467348 
L 290.789171 -272.467348 
L 290.179224 -272.467348 
L 289.569277 -272.467348 
L 288.959329 -272.467348 
L 288.349382 -272.467348 
L 287.739435 -272.467348 
L 287.129488 -272.467348 
L 286.519541 -272.467348 
L 285.909594 -272.467348 
L 285.299646 -272.467348 
L 284.689699 -272.467348 
L 284.079752 -272.467348 
L 283.469805 -272.467348 
L 282.859858 -272.467348 
L 282.249911 -272.467348 
L 281.639963 -272.467348 
L 281.030016 -272.467348 
L 280.420069 -272.467348 
L 279.810122 -272.467348 
L 279.200175 -272.467348 
L 278.590228 -272.467348 
L 277.98028 -272.467347 
L 277.370333 -272.467167 
L 276.760386 -272.467167 
L 276.150439 -272.467167 
L 275.540492 -272.467167 
L 274.930545 -272.467167 
L 274.320597 -272.467167 
L 273.71065 -272.467167 
L 273.100703 -272.467167 
L 272.490756 -272.467167 
L 271.880809 -272.467167 
L 271.270862 -272.467167 
L 270.660914 -272.467167 
L 270.050967 -272.467167 
L 269.44102 -272.467167 
L 268.831073 -272.467167 
L 268.221126 -272.467167 
L 267.611179 -272.467167 
L 267.001231 -272.467167 
L 266.391284 -272.467167 
L 265.781337 -272.467167 
L 265.17139 -272.467167 
L 264.561443 -272.467167 
L 263.951496 -272.467167 
L 263.341548 -272.467167 
L 262.731601 -272.467167 
L 262.121654 -272.467167 
L 261.511707 -272.467167 
L 260.90176 -272.467167 
L 260.291813 -272.467167 
L 259.681865 -272.467167 
L 259.071918 -272.467167 
L 258.461971 -272.467167 
L 257.852024 -272.467167 
L 257.242077 -272.467167 
L 256.63213 -272.467167 
L 256.022182 -272.467167 
L 255.412235 -272.467167 
L 254.802288 -272.467167 
L 254.192341 -272.467167 
L 253.582394 -272.467167 
L 252.972447 -272.467167 
L 252.362499 -272.467166 
L 251.752552 -272.467167 
L 251.142605 -272.467167 
L 250.532658 -272.467166 
L 249.922711 -272.467167 
L 249.312764 -272.466197 
L 248.702816 -272.466196 
L 248.092869 -272.466196 
L 247.482922 -272.466196 
L 246.872975 -272.466197 
L 246.263028 -272.466197 
L 245.653081 -272.466196 
L 245.043133 -272.466197 
L 244.433186 -272.466196 
L 243.823239 -272.466197 
L 243.213292 -272.466196 
L 242.603345 -272.466197 
L 241.993398 -272.466196 
L 241.38345 -272.466196 
L 240.773503 -272.466196 
L 240.163556 -272.466195 
L 239.553609 -272.466196 
L 238.943662 -272.466196 
L 238.333715 -272.466194 
L 237.723767 -272.466194 
L 237.11382 -272.466196 
L 236.503873 -272.466196 
L 235.893926 -272.466195 
L 235.283979 -272.465776 
L 234.674032 -272.465776 
L 234.064084 -272.465777 
L 233.454137 -272.465777 
L 232.84419 -272.465777 
L 232.234243 -272.465776 
L 231.624296 -272.465777 
L 231.014349 -272.465777 
L 230.404401 -272.465777 
L 229.794454 -272.465777 
L 229.184507 -272.465776 
L 228.57456 -272.465776 
L 227.964613 -272.465777 
L 227.354666 -272.465777 
L 226.744718 -272.465776 
L 226.134771 -272.465777 
L 225.524824 -272.465777 
L 224.914877 -272.465774 
L 224.30493 -272.46473 
L 223.694983 -272.46473 
L 223.085035 -272.46473 
L 222.475088 -272.46473 
L 221.865141 -272.46473 
L 221.255194 -272.464729 
L 220.645247 -272.464729 
L 220.0353 -272.464729 
L 219.425352 -272.464729 
L 218.815405 -272.464728 
L 218.205458 -272.464451 
L 217.595511 -272.464451 
L 216.985564 -272.464449 
L 216.375617 -272.464449 
L 215.765669 -272.464449 
L 215.155722 -272.464448 
L 214.545775 -272.462081 
L 213.935828 -272.462081 
L 213.325881 -272.462081 
L 212.715934 -272.462082 
L 212.105986 -272.462081 
L 211.496039 -272.46208 
L 210.886092 -272.46208 
L 210.276145 -272.462081 
L 209.666198 -272.46208 
L 209.056251 -272.462081 
L 208.446303 -272.462079 
L 207.836356 -272.462079 
L 207.226409 -272.46208 
L 206.616462 -272.462079 
L 206.006515 -272.45882 
L 205.396568 -272.45882 
L 204.78662 -272.45882 
L 204.176673 -272.458819 
L 203.566726 -272.458819 
L 202.956779 -272.458819 
L 202.346832 -272.458819 
L 201.736885 -272.45882 
L 201.126937 -272.45882 
L 200.51699 -272.458819 
L 199.907043 -272.45882 
L 199.297096 -272.45882 
L 198.687149 -272.45882 
L 198.077202 -272.45882 
L 197.467254 -272.458819 
L 196.857307 -272.45882 
L 196.24736 -272.458819 
L 195.637413 -272.45882 
L 195.027466 -272.458819 
L 194.417519 -272.45882 
L 193.807571 -272.458819 
L 193.197624 -272.458818 
L 192.587677 -272.458818 
L 191.97773 -272.458558 
L 191.367783 -272.458558 
L 190.757836 -272.458559 
L 190.147888 -272.458559 
L 189.537941 -272.458557 
L 188.927994 -272.457753 
L 188.318047 -272.457753 
L 187.7081 -272.457753 
L 187.098153 -272.457753 
L 186.488205 -272.457753 
L 185.878258 -272.457753 
L 185.268311 -272.457753 
L 184.658364 -272.457752 
L 184.048417 -272.457752 
L 183.43847 -272.457751 
L 182.828522 -272.457751 
L 182.218575 -272.457753 
L 181.608628 -272.457753 
L 180.998681 -272.457753 
L 180.388734 -272.457752 
L 179.778787 -272.457751 
L 179.168839 -272.45775 
L 178.558892 -272.457751 
L 177.948945 -272.457751 
L 177.338998 -272.457751 
L 176.729051 -272.457751 
L 176.119104 -272.45775 
L 175.509156 -272.45775 
L 174.899209 -272.45775 
L 174.289262 -272.457008 
L 173.679315 -272.457008 
L 173.069368 -272.457009 
L 172.459421 -272.457008 
L 171.849473 -272.457008 
L 171.239526 -272.457008 
L 170.629579 -272.457008 
L 170.019632 -272.457008 
L 169.409685 -272.457008 
L 168.799738 -272.457008 
L 168.18979 -272.457008 
L 167.579843 -272.457008 
L 166.969896 -272.457008 
L 166.359949 -272.457008 
L 165.750002 -272.457008 
L 165.140055 -272.457007 
L 164.530107 -272.457007 
L 163.92016 -272.457008 
L 163.310213 -272.457007 
L 162.700266 -272.457006 
L 162.090319 -272.457007 
L 161.480372 -272.457007 
L 160.870424 -272.455549 
L 160.260477 -272.454892 
L 159.65053 -272.454893 
L 159.040583 -272.454893 
L 158.430636 -272.454892 
L 157.820689 -272.454893 
L 157.210741 -272.454893 
L 156.600794 -272.454891 
L 155.990847 -272.452309 
L 155.3809 -272.452309 
L 154.770953 -272.452309 
L 154.161006 -272.45231 
L 153.551058 -272.451534 
L 152.941111 -272.451535 
L 152.331164 -272.451536 
L 151.721217 -272.451534 
L 151.11127 -272.442112 
L 150.501323 -272.442114 
L 149.891375 -272.442112 
L 149.281428 -272.436782 
L 148.671481 -272.436782 
L 148.061534 -272.436632 
L 147.451587 -272.436632 
L 146.84164 -272.436632 
L 146.231692 -272.436631 
L 145.621745 -272.436632 
L 145.011798 -272.430499 
L 144.401851 -272.431854 
L 143.791904 -272.431854 
L 143.181957 -272.431854 
L 142.572009 -272.429212 
L 141.962062 -272.42469 
L 141.352115 -272.424689 
L 140.742168 -272.410565 
L 140.132221 -272.410565 
L 139.522274 -272.406869 
L 138.912326 -272.406869 
L 138.302379 -272.406867 
L 137.692432 -272.406868 
L 137.082485 -272.406869 
L 136.472538 -272.397682 
L 135.862591 -272.397684 
L 135.252643 -272.397034 
L 134.642696 -272.397034 
L 134.032749 -272.397034 
L 133.422802 -272.397034 
L 132.812855 -272.397034 
L 132.202908 -272.397034 
L 131.59296 -272.397034 
L 130.983013 -272.397034 
L 130.373066 -272.388385 
L 129.763119 -272.387502 
L 129.153172 -272.387501 
L 128.543225 -272.387503 
L 127.933277 -272.387501 
L 127.32333 -272.387501 
L 126.713383 -272.387501 
L 126.103436 -272.387503 
L 125.493489 -272.387503 
L 124.883542 -272.381815 
L 124.273594 -272.381816 
L 123.663647 -272.381816 
L 123.0537 -272.381816 
L 122.443753 -272.374174 
L 121.833806 -272.374174 
L 121.223859 -272.372102 
L 120.613911 -272.362665 
L 120.003964 -272.362665 
L 119.394017 -272.362665 
L 118.78407 -272.345067 
L 118.174123 -272.343021 
L 117.564176 -272.336863 
L 116.954228 -272.336862 
L 116.344281 -272.332805 
L 115.734334 -272.320007 
L 115.124387 -272.311233 
L 114.51444 -272.311233 
L 113.904493 -272.311234 
L 113.294545 -272.309376 
L 112.684598 -272.309376 
L 112.074651 -272.309375 
L 111.464704 -272.300137 
L 110.854757 -272.300138 
L 110.24481 -272.300136 
L 109.634862 -272.300137 
L 109.024915 -272.300138 
L 108.414968 -272.265881 
L 107.805021 -272.265881 
L 107.195074 -272.247827 
L 106.585127 -272.217373 
L 105.975179 -272.217372 
L 105.365232 -272.217372 
L 104.755285 -272.217373 
L 104.145338 -272.217373 
L 103.535391 -272.217373 
L 102.925444 -272.217373 
L 102.315496 -272.217373 
L 101.705549 -272.092548 
L 101.095602 -272.092548 
L 100.485655 -271.935446 
L 99.875708 -271.935447 
L 99.26576 -271.935447 
L 98.655813 -271.935447 
L 98.045866 -271.935447 
L 97.435919 -271.935447 
L 96.825972 -271.935446 
L 96.216025 -271.935447 
L 95.606077 -271.935447 
L 94.99613 -271.935445 
L 94.386183 -271.915382 
L 93.776236 -271.915382 
L 93.166289 -271.915383 
L 92.556342 -271.915381 
L 91.946394 -271.915383 
L 91.336447 -271.915382 
L 90.7265 -271.915382 
L 90.116553 -271.915382 
L 89.506606 -271.580829 
L 88.896659 -271.580822 
L 88.286711 -271.580853 
L 87.676764 -271.580863 
L 87.066817 -271.533068 
L 86.45687 -271.532799 
L 85.846923 -271.533025 
L 85.236976 -271.495217 
L 84.627028 -271.495259 
L 84.017081 -271.495295 
L 83.407134 -271.495341 
L 82.797187 -271.495304 
L 82.18724 -271.495277 
L 81.577293 -271.495253 
L 80.967345 -271.495245 
L 80.357398 -271.003492 
L 79.747451 -270.966904 
L 79.137504 -270.966903 
L 78.527557 -270.966904 
z
" style="stroke: #0000ff; stroke-opacity: 0.2"/>
    </defs>
    <g clip-path="url(#p87f625aca4)">
     <use xlink:href="#m0c6b7a8493" x="0" y="287.4075" style="fill: #0000ff; fill-opacity: 0.2; stroke: #0000ff; stroke-opacity: 0.2"/>
    </g>
   </g>
   <g id="matplotlib.axis_1">
    <g id="xtick_1">
     <g id="line2d_1">
      <path d="M 78.527557 253.08 
L 78.527557 3.6 
" clip-path="url(#p87f625aca4)" style="fill: none; stroke: #b0b0b0; stroke-width: 0.5; stroke-linecap: square"/>
     </g>
     <g id="line2d_2">
      <defs>
       <path id="mbe21084139" d="M 0 0 
L 0 -3 
" style="stroke: #000000; stroke-width: 0.5"/>
      </defs>
      <g>
       <use xlink:href="#mbe21084139" x="78.527557" y="253.08" style="stroke: #000000; stroke-width: 0.5"/>
      </g>
     </g>
     <g id="line2d_3">
      <defs>
       <path id="mcd0eedb8cf" d="M 0 0 
L 0 3 
" style="stroke: #000000; stroke-width: 0.5"/>
      </defs>
      <g>
       <use xlink:href="#mcd0eedb8cf" x="78.527557" y="3.6" style="stroke: #000000; stroke-width: 0.5"/>
      </g>
     </g>
     <g id="text_1">
      <!-- 0 -->
      <g transform="translate(74.710057 265.698125) scale(0.12 -0.12)">
       <defs>
        <path id="DejaVuSans-30" d="M 2034 4250 
Q 1547 4250 1301 3770 
Q 1056 3291 1056 2328 
Q 1056 1369 1301 889 
Q 1547 409 2034 409 
Q 2525 409 2770 889 
Q 3016 1369 3016 2328 
Q 3016 3291 2770 3770 
Q 2525 4250 2034 4250 
z
M 2034 4750 
Q 2819 4750 3233 4129 
Q 3647 3509 3647 2328 
Q 3647 1150 3233 529 
Q 2819 -91 2034 -91 
Q 1250 -91 836 529 
Q 422 1150 422 2328 
Q 422 3509 836 4129 
Q 1250 4750 2034 4750 
z
" transform="scale(0.015625)"/>
       </defs>
       <use xlink:href="#DejaVuSans-30"/>
      </g>
     </g>
    </g>
    <g id="xtick_2">
     <g id="line2d_4">
      <path d="M 139.522274 253.08 
L 139.522274 3.6 
" clip-path="url(#p87f625aca4)" style="fill: none; stroke: #b0b0b0; stroke-width: 0.5; stroke-linecap: square"/>
     </g>
     <g id="line2d_5">
      <g>
       <use xlink:href="#mbe21084139" x="139.522274" y="253.08" style="stroke: #000000; stroke-width: 0.5"/>
      </g>
     </g>
     <g id="line2d_6">
      <g>
       <use xlink:href="#mcd0eedb8cf" x="139.522274" y="3.6" style="stroke: #000000; stroke-width: 0.5"/>
      </g>
     </g>
     <g id="text_2">
      <!-- 100 -->
      <g transform="translate(128.069774 265.698125) scale(0.12 -0.12)">
       <defs>
        <path id="DejaVuSans-31" d="M 794 531 
L 1825 531 
L 1825 4091 
L 703 3866 
L 703 4441 
L 1819 4666 
L 2450 4666 
L 2450 531 
L 3481 531 
L 3481 0 
L 794 0 
L 794 531 
z
" transform="scale(0.015625)"/>
       </defs>
       <use xlink:href="#DejaVuSans-31"/>
       <use xlink:href="#DejaVuSans-30" x="63.623047"/>
       <use xlink:href="#DejaVuSans-30" x="127.246094"/>
      </g>
     </g>
    </g>
    <g id="xtick_3">
     <g id="line2d_7">
      <path d="M 200.51699 253.08 
L 200.51699 3.6 
" clip-path="url(#p87f625aca4)" style="fill: none; stroke: #b0b0b0; stroke-width: 0.5; stroke-linecap: square"/>
     </g>
     <g id="line2d_8">
      <g>
       <use xlink:href="#mbe21084139" x="200.51699" y="253.08" style="stroke: #000000; stroke-width: 0.5"/>
      </g>
     </g>
     <g id="line2d_9">
      <g>
       <use xlink:href="#mcd0eedb8cf" x="200.51699" y="3.6" style="stroke: #000000; stroke-width: 0.5"/>
      </g>
     </g>
     <g id="text_3">
      <!-- 200 -->
      <g transform="translate(189.06449 265.698125) scale(0.12 -0.12)">
       <defs>
        <path id="DejaVuSans-32" d="M 1228 531 
L 3431 531 
L 3431 0 
L 469 0 
L 469 531 
Q 828 903 1448 1529 
Q 2069 2156 2228 2338 
Q 2531 2678 2651 2914 
Q 2772 3150 2772 3378 
Q 2772 3750 2511 3984 
Q 2250 4219 1831 4219 
Q 1534 4219 1204 4116 
Q 875 4013 500 3803 
L 500 4441 
Q 881 4594 1212 4672 
Q 1544 4750 1819 4750 
Q 2544 4750 2975 4387 
Q 3406 4025 3406 3419 
Q 3406 3131 3298 2873 
Q 3191 2616 2906 2266 
Q 2828 2175 2409 1742 
Q 1991 1309 1228 531 
z
" transform="scale(0.015625)"/>
       </defs>
       <use xlink:href="#DejaVuSans-32"/>
       <use xlink:href="#DejaVuSans-30" x="63.623047"/>
       <use xlink:href="#DejaVuSans-30" x="127.246094"/>
      </g>
     </g>
    </g>
    <g id="xtick_4">
     <g id="line2d_10">
      <path d="M 261.511707 253.08 
L 261.511707 3.6 
" clip-path="url(#p87f625aca4)" style="fill: none; stroke: #b0b0b0; stroke-width: 0.5; stroke-linecap: square"/>
     </g>
     <g id="line2d_11">
      <g>
       <use xlink:href="#mbe21084139" x="261.511707" y="253.08" style="stroke: #000000; stroke-width: 0.5"/>
      </g>
     </g>
     <g id="line2d_12">
      <g>
       <use xlink:href="#mcd0eedb8cf" x="261.511707" y="3.6" style="stroke: #000000; stroke-width: 0.5"/>
      </g>
     </g>
     <g id="text_4">
      <!-- 300 -->
      <g transform="translate(250.059207 265.698125) scale(0.12 -0.12)">
       <defs>
        <path id="DejaVuSans-33" d="M 2597 2516 
Q 3050 2419 3304 2112 
Q 3559 1806 3559 1356 
Q 3559 666 3084 287 
Q 2609 -91 1734 -91 
Q 1441 -91 1130 -33 
Q 819 25 488 141 
L 488 750 
Q 750 597 1062 519 
Q 1375 441 1716 441 
Q 2309 441 2620 675 
Q 2931 909 2931 1356 
Q 2931 1769 2642 2001 
Q 2353 2234 1838 2234 
L 1294 2234 
L 1294 2753 
L 1863 2753 
Q 2328 2753 2575 2939 
Q 2822 3125 2822 3475 
Q 2822 3834 2567 4026 
Q 2313 4219 1838 4219 
Q 1578 4219 1281 4162 
Q 984 4106 628 3988 
L 628 4550 
Q 988 4650 1302 4700 
Q 1616 4750 1894 4750 
Q 2613 4750 3031 4423 
Q 3450 4097 3450 3541 
Q 3450 3153 3228 2886 
Q 3006 2619 2597 2516 
z
" transform="scale(0.015625)"/>
       </defs>
       <use xlink:href="#DejaVuSans-33"/>
       <use xlink:href="#DejaVuSans-30" x="63.623047"/>
       <use xlink:href="#DejaVuSans-30" x="127.246094"/>
      </g>
     </g>
    </g>
    <g id="xtick_5">
     <g id="line2d_13">
      <path d="M 322.506424 253.08 
L 322.506424 3.6 
" clip-path="url(#p87f625aca4)" style="fill: none; stroke: #b0b0b0; stroke-width: 0.5; stroke-linecap: square"/>
     </g>
     <g id="line2d_14">
      <g>
       <use xlink:href="#mbe21084139" x="322.506424" y="253.08" style="stroke: #000000; stroke-width: 0.5"/>
      </g>
     </g>
     <g id="line2d_15">
      <g>
       <use xlink:href="#mcd0eedb8cf" x="322.506424" y="3.6" style="stroke: #000000; stroke-width: 0.5"/>
      </g>
     </g>
     <g id="text_5">
      <!-- 400 -->
      <g transform="translate(311.053924 265.698125) scale(0.12 -0.12)">
       <defs>
        <path id="DejaVuSans-34" d="M 2419 4116 
L 825 1625 
L 2419 1625 
L 2419 4116 
z
M 2253 4666 
L 3047 4666 
L 3047 1625 
L 3713 1625 
L 3713 1100 
L 3047 1100 
L 3047 0 
L 2419 0 
L 2419 1100 
L 313 1100 
L 313 1709 
L 2253 4666 
z
" transform="scale(0.015625)"/>
       </defs>
       <use xlink:href="#DejaVuSans-34"/>
       <use xlink:href="#DejaVuSans-30" x="63.623047"/>
       <use xlink:href="#DejaVuSans-30" x="127.246094"/>
      </g>
     </g>
    </g>
    <g id="xtick_6">
     <g id="line2d_16">
      <path d="M 383.50114 253.08 
L 383.50114 3.6 
" clip-path="url(#p87f625aca4)" style="fill: none; stroke: #b0b0b0; stroke-width: 0.5; stroke-linecap: square"/>
     </g>
     <g id="line2d_17">
      <g>
       <use xlink:href="#mbe21084139" x="383.50114" y="253.08" style="stroke: #000000; stroke-width: 0.5"/>
      </g>
     </g>
     <g id="line2d_18">
      <g>
       <use xlink:href="#mcd0eedb8cf" x="383.50114" y="3.6" style="stroke: #000000; stroke-width: 0.5"/>
      </g>
     </g>
     <g id="text_6">
      <!-- 500 -->
      <g transform="translate(372.04864 265.698125) scale(0.12 -0.12)">
       <defs>
        <path id="DejaVuSans-35" d="M 691 4666 
L 3169 4666 
L 3169 4134 
L 1269 4134 
L 1269 2991 
Q 1406 3038 1543 3061 
Q 1681 3084 1819 3084 
Q 2600 3084 3056 2656 
Q 3513 2228 3513 1497 
Q 3513 744 3044 326 
Q 2575 -91 1722 -91 
Q 1428 -91 1123 -41 
Q 819 9 494 109 
L 494 744 
Q 775 591 1075 516 
Q 1375 441 1709 441 
Q 2250 441 2565 725 
Q 2881 1009 2881 1497 
Q 2881 1984 2565 2268 
Q 2250 2553 1709 2553 
Q 1456 2553 1204 2497 
Q 953 2441 691 2322 
L 691 4666 
z
" transform="scale(0.015625)"/>
       </defs>
       <use xlink:href="#DejaVuSans-35"/>
       <use xlink:href="#DejaVuSans-30" x="63.623047"/>
       <use xlink:href="#DejaVuSans-30" x="127.246094"/>
      </g>
     </g>
    </g>
    <g id="xtick_7">
     <g id="line2d_19">
      <defs>
       <path id="mbc92484a12" d="M 0 0 
L 0 -1.5 
" style="stroke: #000000; stroke-width: 0.5"/>
      </defs>
      <g>
       <use xlink:href="#mbc92484a12" x="66.328613" y="253.08" style="stroke: #000000; stroke-width: 0.5"/>
      </g>
     </g>
     <g id="line2d_20">
      <defs>
       <path id="m218b05d03e" d="M 0 0 
L 0 1.5 
" style="stroke: #000000; stroke-width: 0.5"/>
      </defs>
      <g>
       <use xlink:href="#m218b05d03e" x="66.328613" y="3.6" style="stroke: #000000; stroke-width: 0.5"/>
      </g>
     </g>
    </g>
    <g id="xtick_8">
     <g id="line2d_21">
      <g>
       <use xlink:href="#mbc92484a12" x="90.7265" y="253.08" style="stroke: #000000; stroke-width: 0.5"/>
      </g>
     </g>
     <g id="line2d_22">
      <g>
       <use xlink:href="#m218b05d03e" x="90.7265" y="3.6" style="stroke: #000000; stroke-width: 0.5"/>
      </g>
     </g>
    </g>
    <g id="xtick_9">
     <g id="line2d_23">
      <g>
       <use xlink:href="#mbc92484a12" x="102.925444" y="253.08" style="stroke: #000000; stroke-width: 0.5"/>
      </g>
     </g>
     <g id="line2d_24">
      <g>
       <use xlink:href="#m218b05d03e" x="102.925444" y="3.6" style="stroke: #000000; stroke-width: 0.5"/>
      </g>
     </g>
    </g>
    <g id="xtick_10">
     <g id="line2d_25">
      <g>
       <use xlink:href="#mbc92484a12" x="115.124387" y="253.08" style="stroke: #000000; stroke-width: 0.5"/>
      </g>
     </g>
     <g id="line2d_26">
      <g>
       <use xlink:href="#m218b05d03e" x="115.124387" y="3.6" style="stroke: #000000; stroke-width: 0.5"/>
      </g>
     </g>
    </g>
    <g id="xtick_11">
     <g id="line2d_27">
      <g>
       <use xlink:href="#mbc92484a12" x="127.32333" y="253.08" style="stroke: #000000; stroke-width: 0.5"/>
      </g>
     </g>
     <g id="line2d_28">
      <g>
       <use xlink:href="#m218b05d03e" x="127.32333" y="3.6" style="stroke: #000000; stroke-width: 0.5"/>
      </g>
     </g>
    </g>
    <g id="xtick_12">
     <g id="line2d_29">
      <g>
       <use xlink:href="#mbc92484a12" x="151.721217" y="253.08" style="stroke: #000000; stroke-width: 0.5"/>
      </g>
     </g>
     <g id="line2d_30">
      <g>
       <use xlink:href="#m218b05d03e" x="151.721217" y="3.6" style="stroke: #000000; stroke-width: 0.5"/>
      </g>
     </g>
    </g>
    <g id="xtick_13">
     <g id="line2d_31">
      <g>
       <use xlink:href="#mbc92484a12" x="163.92016" y="253.08" style="stroke: #000000; stroke-width: 0.5"/>
      </g>
     </g>
     <g id="line2d_32">
      <g>
       <use xlink:href="#m218b05d03e" x="163.92016" y="3.6" style="stroke: #000000; stroke-width: 0.5"/>
      </g>
     </g>
    </g>
    <g id="xtick_14">
     <g id="line2d_33">
      <g>
       <use xlink:href="#mbc92484a12" x="176.119104" y="253.08" style="stroke: #000000; stroke-width: 0.5"/>
      </g>
     </g>
     <g id="line2d_34">
      <g>
       <use xlink:href="#m218b05d03e" x="176.119104" y="3.6" style="stroke: #000000; stroke-width: 0.5"/>
      </g>
     </g>
    </g>
    <g id="xtick_15">
     <g id="line2d_35">
      <g>
       <use xlink:href="#mbc92484a12" x="188.318047" y="253.08" style="stroke: #000000; stroke-width: 0.5"/>
      </g>
     </g>
     <g id="line2d_36">
      <g>
       <use xlink:href="#m218b05d03e" x="188.318047" y="3.6" style="stroke: #000000; stroke-width: 0.5"/>
      </g>
     </g>
    </g>
    <g id="xtick_16">
     <g id="line2d_37">
      <g>
       <use xlink:href="#mbc92484a12" x="212.715934" y="253.08" style="stroke: #000000; stroke-width: 0.5"/>
      </g>
     </g>
     <g id="line2d_38">
      <g>
       <use xlink:href="#m218b05d03e" x="212.715934" y="3.6" style="stroke: #000000; stroke-width: 0.5"/>
      </g>
     </g>
    </g>
    <g id="xtick_17">
     <g id="line2d_39">
      <g>
       <use xlink:href="#mbc92484a12" x="224.914877" y="253.08" style="stroke: #000000; stroke-width: 0.5"/>
      </g>
     </g>
     <g id="line2d_40">
      <g>
       <use xlink:href="#m218b05d03e" x="224.914877" y="3.6" style="stroke: #000000; stroke-width: 0.5"/>
      </g>
     </g>
    </g>
    <g id="xtick_18">
     <g id="line2d_41">
      <g>
       <use xlink:href="#mbc92484a12" x="237.11382" y="253.08" style="stroke: #000000; stroke-width: 0.5"/>
      </g>
     </g>
     <g id="line2d_42">
      <g>
       <use xlink:href="#m218b05d03e" x="237.11382" y="3.6" style="stroke: #000000; stroke-width: 0.5"/>
      </g>
     </g>
    </g>
    <g id="xtick_19">
     <g id="line2d_43">
      <g>
       <use xlink:href="#mbc92484a12" x="249.312764" y="253.08" style="stroke: #000000; stroke-width: 0.5"/>
      </g>
     </g>
     <g id="line2d_44">
      <g>
       <use xlink:href="#m218b05d03e" x="249.312764" y="3.6" style="stroke: #000000; stroke-width: 0.5"/>
      </g>
     </g>
    </g>
    <g id="xtick_20">
     <g id="line2d_45">
      <g>
       <use xlink:href="#mbc92484a12" x="273.71065" y="253.08" style="stroke: #000000; stroke-width: 0.5"/>
      </g>
     </g>
     <g id="line2d_46">
      <g>
       <use xlink:href="#m218b05d03e" x="273.71065" y="3.6" style="stroke: #000000; stroke-width: 0.5"/>
      </g>
     </g>
    </g>
    <g id="xtick_21">
     <g id="line2d_47">
      <g>
       <use xlink:href="#mbc92484a12" x="285.909594" y="253.08" style="stroke: #000000; stroke-width: 0.5"/>
      </g>
     </g>
     <g id="line2d_48">
      <g>
       <use xlink:href="#m218b05d03e" x="285.909594" y="3.6" style="stroke: #000000; stroke-width: 0.5"/>
      </g>
     </g>
    </g>
    <g id="xtick_22">
     <g id="line2d_49">
      <g>
       <use xlink:href="#mbc92484a12" x="298.108537" y="253.08" style="stroke: #000000; stroke-width: 0.5"/>
      </g>
     </g>
     <g id="line2d_50">
      <g>
       <use xlink:href="#m218b05d03e" x="298.108537" y="3.6" style="stroke: #000000; stroke-width: 0.5"/>
      </g>
     </g>
    </g>
    <g id="xtick_23">
     <g id="line2d_51">
      <g>
       <use xlink:href="#mbc92484a12" x="310.30748" y="253.08" style="stroke: #000000; stroke-width: 0.5"/>
      </g>
     </g>
     <g id="line2d_52">
      <g>
       <use xlink:href="#m218b05d03e" x="310.30748" y="3.6" style="stroke: #000000; stroke-width: 0.5"/>
      </g>
     </g>
    </g>
    <g id="xtick_24">
     <g id="line2d_53">
      <g>
       <use xlink:href="#mbc92484a12" x="334.705367" y="253.08" style="stroke: #000000; stroke-width: 0.5"/>
      </g>
     </g>
     <g id="line2d_54">
      <g>
       <use xlink:href="#m218b05d03e" x="334.705367" y="3.6" style="stroke: #000000; stroke-width: 0.5"/>
      </g>
     </g>
    </g>
    <g id="xtick_25">
     <g id="line2d_55">
      <g>
       <use xlink:href="#mbc92484a12" x="346.90431" y="253.08" style="stroke: #000000; stroke-width: 0.5"/>
      </g>
     </g>
     <g id="line2d_56">
      <g>
       <use xlink:href="#m218b05d03e" x="346.90431" y="3.6" style="stroke: #000000; stroke-width: 0.5"/>
      </g>
     </g>
    </g>
    <g id="xtick_26">
     <g id="line2d_57">
      <g>
       <use xlink:href="#mbc92484a12" x="359.103254" y="253.08" style="stroke: #000000; stroke-width: 0.5"/>
      </g>
     </g>
     <g id="line2d_58">
      <g>
       <use xlink:href="#m218b05d03e" x="359.103254" y="3.6" style="stroke: #000000; stroke-width: 0.5"/>
      </g>
     </g>
    </g>
    <g id="xtick_27">
     <g id="line2d_59">
      <g>
       <use xlink:href="#mbc92484a12" x="371.302197" y="253.08" style="stroke: #000000; stroke-width: 0.5"/>
      </g>
     </g>
     <g id="line2d_60">
      <g>
       <use xlink:href="#m218b05d03e" x="371.302197" y="3.6" style="stroke: #000000; stroke-width: 0.5"/>
      </g>
     </g>
    </g>
    <g id="xtick_28">
     <g id="line2d_61">
      <g>
       <use xlink:href="#mbc92484a12" x="395.700084" y="253.08" style="stroke: #000000; stroke-width: 0.5"/>
      </g>
     </g>
     <g id="line2d_62">
      <g>
       <use xlink:href="#m218b05d03e" x="395.700084" y="3.6" style="stroke: #000000; stroke-width: 0.5"/>
      </g>
     </g>
    </g>
    <g id="text_7">
     <!-- Generations -->
     <g transform="translate(194.112188 281.311875) scale(0.12 -0.12)">
      <defs>
       <path id="DejaVuSans-47" d="M 3809 666 
L 3809 1919 
L 2778 1919 
L 2778 2438 
L 4434 2438 
L 4434 434 
Q 4069 175 3628 42 
Q 3188 -91 2688 -91 
Q 1594 -91 976 548 
Q 359 1188 359 2328 
Q 359 3472 976 4111 
Q 1594 4750 2688 4750 
Q 3144 4750 3555 4637 
Q 3966 4525 4313 4306 
L 4313 3634 
Q 3963 3931 3569 4081 
Q 3175 4231 2741 4231 
Q 1884 4231 1454 3753 
Q 1025 3275 1025 2328 
Q 1025 1384 1454 906 
Q 1884 428 2741 428 
Q 3075 428 3337 486 
Q 3600 544 3809 666 
z
" transform="scale(0.015625)"/>
       <path id="DejaVuSans-65" d="M 3597 1894 
L 3597 1613 
L 953 1613 
Q 991 1019 1311 708 
Q 1631 397 2203 397 
Q 2534 397 2845 478 
Q 3156 559 3463 722 
L 3463 178 
Q 3153 47 2828 -22 
Q 2503 -91 2169 -91 
Q 1331 -91 842 396 
Q 353 884 353 1716 
Q 353 2575 817 3079 
Q 1281 3584 2069 3584 
Q 2775 3584 3186 3129 
Q 3597 2675 3597 1894 
z
M 3022 2063 
Q 3016 2534 2758 2815 
Q 2500 3097 2075 3097 
Q 1594 3097 1305 2825 
Q 1016 2553 972 2059 
L 3022 2063 
z
" transform="scale(0.015625)"/>
       <path id="DejaVuSans-6e" d="M 3513 2113 
L 3513 0 
L 2938 0 
L 2938 2094 
Q 2938 2591 2744 2837 
Q 2550 3084 2163 3084 
Q 1697 3084 1428 2787 
Q 1159 2491 1159 1978 
L 1159 0 
L 581 0 
L 581 3500 
L 1159 3500 
L 1159 2956 
Q 1366 3272 1645 3428 
Q 1925 3584 2291 3584 
Q 2894 3584 3203 3211 
Q 3513 2838 3513 2113 
z
" transform="scale(0.015625)"/>
       <path id="DejaVuSans-72" d="M 2631 2963 
Q 2534 3019 2420 3045 
Q 2306 3072 2169 3072 
Q 1681 3072 1420 2755 
Q 1159 2438 1159 1844 
L 1159 0 
L 581 0 
L 581 3500 
L 1159 3500 
L 1159 2956 
Q 1341 3275 1631 3429 
Q 1922 3584 2338 3584 
Q 2397 3584 2469 3576 
Q 2541 3569 2628 3553 
L 2631 2963 
z
" transform="scale(0.015625)"/>
       <path id="DejaVuSans-61" d="M 2194 1759 
Q 1497 1759 1228 1600 
Q 959 1441 959 1056 
Q 959 750 1161 570 
Q 1363 391 1709 391 
Q 2188 391 2477 730 
Q 2766 1069 2766 1631 
L 2766 1759 
L 2194 1759 
z
M 3341 1997 
L 3341 0 
L 2766 0 
L 2766 531 
Q 2569 213 2275 61 
Q 1981 -91 1556 -91 
Q 1019 -91 701 211 
Q 384 513 384 1019 
Q 384 1609 779 1909 
Q 1175 2209 1959 2209 
L 2766 2209 
L 2766 2266 
Q 2766 2663 2505 2880 
Q 2244 3097 1772 3097 
Q 1472 3097 1187 3025 
Q 903 2953 641 2809 
L 641 3341 
Q 956 3463 1253 3523 
Q 1550 3584 1831 3584 
Q 2591 3584 2966 3190 
Q 3341 2797 3341 1997 
z
" transform="scale(0.015625)"/>
       <path id="DejaVuSans-74" d="M 1172 4494 
L 1172 3500 
L 2356 3500 
L 2356 3053 
L 1172 3053 
L 1172 1153 
Q 1172 725 1289 603 
Q 1406 481 1766 481 
L 2356 481 
L 2356 0 
L 1766 0 
Q 1100 0 847 248 
Q 594 497 594 1153 
L 594 3053 
L 172 3053 
L 172 3500 
L 594 3500 
L 594 4494 
L 1172 4494 
z
" transform="scale(0.015625)"/>
       <path id="DejaVuSans-69" d="M 603 3500 
L 1178 3500 
L 1178 0 
L 603 0 
L 603 3500 
z
M 603 4863 
L 1178 4863 
L 1178 4134 
L 603 4134 
L 603 4863 
z
" transform="scale(0.015625)"/>
       <path id="DejaVuSans-6f" d="M 1959 3097 
Q 1497 3097 1228 2736 
Q 959 2375 959 1747 
Q 959 1119 1226 758 
Q 1494 397 1959 397 
Q 2419 397 2687 759 
Q 2956 1122 2956 1747 
Q 2956 2369 2687 2733 
Q 2419 3097 1959 3097 
z
M 1959 3584 
Q 2709 3584 3137 3096 
Q 3566 2609 3566 1747 
Q 3566 888 3137 398 
Q 2709 -91 1959 -91 
Q 1206 -91 779 398 
Q 353 888 353 1747 
Q 353 2609 779 3096 
Q 1206 3584 1959 3584 
z
" transform="scale(0.015625)"/>
       <path id="DejaVuSans-73" d="M 2834 3397 
L 2834 2853 
Q 2591 2978 2328 3040 
Q 2066 3103 1784 3103 
Q 1356 3103 1142 2972 
Q 928 2841 928 2578 
Q 928 2378 1081 2264 
Q 1234 2150 1697 2047 
L 1894 2003 
Q 2506 1872 2764 1633 
Q 3022 1394 3022 966 
Q 3022 478 2636 193 
Q 2250 -91 1575 -91 
Q 1294 -91 989 -36 
Q 684 19 347 128 
L 347 722 
Q 666 556 975 473 
Q 1284 391 1588 391 
Q 1994 391 2212 530 
Q 2431 669 2431 922 
Q 2431 1156 2273 1281 
Q 2116 1406 1581 1522 
L 1381 1569 
Q 847 1681 609 1914 
Q 372 2147 372 2553 
Q 372 3047 722 3315 
Q 1072 3584 1716 3584 
Q 2034 3584 2315 3537 
Q 2597 3491 2834 3397 
z
" transform="scale(0.015625)"/>
      </defs>
      <use xlink:href="#DejaVuSans-47"/>
      <use xlink:href="#DejaVuSans-65" x="77.490234"/>
      <use xlink:href="#DejaVuSans-6e" x="139.013672"/>
      <use xlink:href="#DejaVuSans-65" x="202.392578"/>
      <use xlink:href="#DejaVuSans-72" x="263.916016"/>
      <use xlink:href="#DejaVuSans-61" x="305.029297"/>
      <use xlink:href="#DejaVuSans-74" x="366.308594"/>
      <use xlink:href="#DejaVuSans-69" x="405.517578"/>
      <use xlink:href="#DejaVuSans-6f" x="433.300781"/>
      <use xlink:href="#DejaVuSans-6e" x="494.482422"/>
      <use xlink:href="#DejaVuSans-73" x="557.861328"/>
     </g>
    </g>
   </g>
   <g id="matplotlib.axis_2">
    <g id="ytick_1">
     <g id="line2d_63">
      <path d="M 63.309375 229.739033 
L 398.109375 229.739033 
" clip-path="url(#p87f625aca4)" style="fill: none; stroke: #b0b0b0; stroke-width: 0.5; stroke-linecap: square"/>
     </g>
     <g id="line2d_64">
      <defs>
       <path id="m1b88c52a05" d="M 0 0 
L 3 0 
" style="stroke: #000000; stroke-width: 0.5"/>
      </defs>
      <g>
       <use xlink:href="#m1b88c52a05" x="63.309375" y="229.739033" style="stroke: #000000; stroke-width: 0.5"/>
      </g>
     </g>
     <g id="line2d_65">
      <defs>
       <path id="m497a12706e" d="M 0 0 
L -3 0 
" style="stroke: #000000; stroke-width: 0.5"/>
      </defs>
      <g>
       <use xlink:href="#m497a12706e" x="398.109375" y="229.739033" style="stroke: #000000; stroke-width: 0.5"/>
      </g>
     </g>
     <g id="text_8">
      <!-- −1400 -->
      <g transform="translate(19.21375 234.298096) scale(0.12 -0.12)">
       <defs>
        <path id="DejaVuSans-2212" d="M 678 2272 
L 4684 2272 
L 4684 1741 
L 678 1741 
L 678 2272 
z
" transform="scale(0.015625)"/>
       </defs>
       <use xlink:href="#DejaVuSans-2212"/>
       <use xlink:href="#DejaVuSans-31" x="83.789062"/>
       <use xlink:href="#DejaVuSans-34" x="147.412109"/>
       <use xlink:href="#DejaVuSans-30" x="211.035156"/>
       <use xlink:href="#DejaVuSans-30" x="274.658203"/>
      </g>
     </g>
    </g>
    <g id="ytick_2">
     <g id="line2d_66">
      <path d="M 63.309375 199.568119 
L 398.109375 199.568119 
" clip-path="url(#p87f625aca4)" style="fill: none; stroke: #b0b0b0; stroke-width: 0.5; stroke-linecap: square"/>
     </g>
     <g id="line2d_67">
      <g>
       <use xlink:href="#m1b88c52a05" x="63.309375" y="199.568119" style="stroke: #000000; stroke-width: 0.5"/>
      </g>
     </g>
     <g id="line2d_68">
      <g>
       <use xlink:href="#m497a12706e" x="398.109375" y="199.568119" style="stroke: #000000; stroke-width: 0.5"/>
      </g>
     </g>
     <g id="text_9">
      <!-- −1200 -->
      <g transform="translate(19.21375 204.127181) scale(0.12 -0.12)">
       <use xlink:href="#DejaVuSans-2212"/>
       <use xlink:href="#DejaVuSans-31" x="83.789062"/>
       <use xlink:href="#DejaVuSans-32" x="147.412109"/>
       <use xlink:href="#DejaVuSans-30" x="211.035156"/>
       <use xlink:href="#DejaVuSans-30" x="274.658203"/>
      </g>
     </g>
    </g>
    <g id="ytick_3">
     <g id="line2d_69">
      <path d="M 63.309375 169.397204 
L 398.109375 169.397204 
" clip-path="url(#p87f625aca4)" style="fill: none; stroke: #b0b0b0; stroke-width: 0.5; stroke-linecap: square"/>
     </g>
     <g id="line2d_70">
      <g>
       <use xlink:href="#m1b88c52a05" x="63.309375" y="169.397204" style="stroke: #000000; stroke-width: 0.5"/>
      </g>
     </g>
     <g id="line2d_71">
      <g>
       <use xlink:href="#m497a12706e" x="398.109375" y="169.397204" style="stroke: #000000; stroke-width: 0.5"/>
      </g>
     </g>
     <g id="text_10">
      <!-- −1000 -->
      <g transform="translate(19.21375 173.956267) scale(0.12 -0.12)">
       <use xlink:href="#DejaVuSans-2212"/>
       <use xlink:href="#DejaVuSans-31" x="83.789062"/>
       <use xlink:href="#DejaVuSans-30" x="147.412109"/>
       <use xlink:href="#DejaVuSans-30" x="211.035156"/>
       <use xlink:href="#DejaVuSans-30" x="274.658203"/>
      </g>
     </g>
    </g>
    <g id="ytick_4">
     <g id="line2d_72">
      <path d="M 63.309375 139.22629 
L 398.109375 139.22629 
" clip-path="url(#p87f625aca4)" style="fill: none; stroke: #b0b0b0; stroke-width: 0.5; stroke-linecap: square"/>
     </g>
     <g id="line2d_73">
      <g>
       <use xlink:href="#m1b88c52a05" x="63.309375" y="139.22629" style="stroke: #000000; stroke-width: 0.5"/>
      </g>
     </g>
     <g id="line2d_74">
      <g>
       <use xlink:href="#m497a12706e" x="398.109375" y="139.22629" style="stroke: #000000; stroke-width: 0.5"/>
      </g>
     </g>
     <g id="text_11">
      <!-- −800 -->
      <g transform="translate(26.84875 143.785353) scale(0.12 -0.12)">
       <defs>
        <path id="DejaVuSans-38" d="M 2034 2216 
Q 1584 2216 1326 1975 
Q 1069 1734 1069 1313 
Q 1069 891 1326 650 
Q 1584 409 2034 409 
Q 2484 409 2743 651 
Q 3003 894 3003 1313 
Q 3003 1734 2745 1975 
Q 2488 2216 2034 2216 
z
M 1403 2484 
Q 997 2584 770 2862 
Q 544 3141 544 3541 
Q 544 4100 942 4425 
Q 1341 4750 2034 4750 
Q 2731 4750 3128 4425 
Q 3525 4100 3525 3541 
Q 3525 3141 3298 2862 
Q 3072 2584 2669 2484 
Q 3125 2378 3379 2068 
Q 3634 1759 3634 1313 
Q 3634 634 3220 271 
Q 2806 -91 2034 -91 
Q 1263 -91 848 271 
Q 434 634 434 1313 
Q 434 1759 690 2068 
Q 947 2378 1403 2484 
z
M 1172 3481 
Q 1172 3119 1398 2916 
Q 1625 2713 2034 2713 
Q 2441 2713 2670 2916 
Q 2900 3119 2900 3481 
Q 2900 3844 2670 4047 
Q 2441 4250 2034 4250 
Q 1625 4250 1398 4047 
Q 1172 3844 1172 3481 
z
" transform="scale(0.015625)"/>
       </defs>
       <use xlink:href="#DejaVuSans-2212"/>
       <use xlink:href="#DejaVuSans-38" x="83.789062"/>
       <use xlink:href="#DejaVuSans-30" x="147.412109"/>
       <use xlink:href="#DejaVuSans-30" x="211.035156"/>
      </g>
     </g>
    </g>
    <g id="ytick_5">
     <g id="line2d_75">
      <path d="M 63.309375 109.055376 
L 398.109375 109.055376 
" clip-path="url(#p87f625aca4)" style="fill: none; stroke: #b0b0b0; stroke-width: 0.5; stroke-linecap: square"/>
     </g>
     <g id="line2d_76">
      <g>
       <use xlink:href="#m1b88c52a05" x="63.309375" y="109.055376" style="stroke: #000000; stroke-width: 0.5"/>
      </g>
     </g>
     <g id="line2d_77">
      <g>
       <use xlink:href="#m497a12706e" x="398.109375" y="109.055376" style="stroke: #000000; stroke-width: 0.5"/>
      </g>
     </g>
     <g id="text_12">
      <!-- −600 -->
      <g transform="translate(26.84875 113.614438) scale(0.12 -0.12)">
       <defs>
        <path id="DejaVuSans-36" d="M 2113 2584 
Q 1688 2584 1439 2293 
Q 1191 2003 1191 1497 
Q 1191 994 1439 701 
Q 1688 409 2113 409 
Q 2538 409 2786 701 
Q 3034 994 3034 1497 
Q 3034 2003 2786 2293 
Q 2538 2584 2113 2584 
z
M 3366 4563 
L 3366 3988 
Q 3128 4100 2886 4159 
Q 2644 4219 2406 4219 
Q 1781 4219 1451 3797 
Q 1122 3375 1075 2522 
Q 1259 2794 1537 2939 
Q 1816 3084 2150 3084 
Q 2853 3084 3261 2657 
Q 3669 2231 3669 1497 
Q 3669 778 3244 343 
Q 2819 -91 2113 -91 
Q 1303 -91 875 529 
Q 447 1150 447 2328 
Q 447 3434 972 4092 
Q 1497 4750 2381 4750 
Q 2619 4750 2861 4703 
Q 3103 4656 3366 4563 
z
" transform="scale(0.015625)"/>
       </defs>
       <use xlink:href="#DejaVuSans-2212"/>
       <use xlink:href="#DejaVuSans-36" x="83.789062"/>
       <use xlink:href="#DejaVuSans-30" x="147.412109"/>
       <use xlink:href="#DejaVuSans-30" x="211.035156"/>
      </g>
     </g>
    </g>
    <g id="ytick_6">
     <g id="line2d_78">
      <path d="M 63.309375 78.884462 
L 398.109375 78.884462 
" clip-path="url(#p87f625aca4)" style="fill: none; stroke: #b0b0b0; stroke-width: 0.5; stroke-linecap: square"/>
     </g>
     <g id="line2d_79">
      <g>
       <use xlink:href="#m1b88c52a05" x="63.309375" y="78.884462" style="stroke: #000000; stroke-width: 0.5"/>
      </g>
     </g>
     <g id="line2d_80">
      <g>
       <use xlink:href="#m497a12706e" x="398.109375" y="78.884462" style="stroke: #000000; stroke-width: 0.5"/>
      </g>
     </g>
     <g id="text_13">
      <!-- −400 -->
      <g transform="translate(26.84875 83.443524) scale(0.12 -0.12)">
       <use xlink:href="#DejaVuSans-2212"/>
       <use xlink:href="#DejaVuSans-34" x="83.789062"/>
       <use xlink:href="#DejaVuSans-30" x="147.412109"/>
       <use xlink:href="#DejaVuSans-30" x="211.035156"/>
      </g>
     </g>
    </g>
    <g id="ytick_7">
     <g id="line2d_81">
      <path d="M 63.309375 48.713547 
L 398.109375 48.713547 
" clip-path="url(#p87f625aca4)" style="fill: none; stroke: #b0b0b0; stroke-width: 0.5; stroke-linecap: square"/>
     </g>
     <g id="line2d_82">
      <g>
       <use xlink:href="#m1b88c52a05" x="63.309375" y="48.713547" style="stroke: #000000; stroke-width: 0.5"/>
      </g>
     </g>
     <g id="line2d_83">
      <g>
       <use xlink:href="#m497a12706e" x="398.109375" y="48.713547" style="stroke: #000000; stroke-width: 0.5"/>
      </g>
     </g>
     <g id="text_14">
      <!-- −200 -->
      <g transform="translate(26.84875 53.27261) scale(0.12 -0.12)">
       <use xlink:href="#DejaVuSans-2212"/>
       <use xlink:href="#DejaVuSans-32" x="83.789062"/>
       <use xlink:href="#DejaVuSans-30" x="147.412109"/>
       <use xlink:href="#DejaVuSans-30" x="211.035156"/>
      </g>
     </g>
    </g>
    <g id="ytick_8">
     <g id="line2d_84">
      <path d="M 63.309375 18.542633 
L 398.109375 18.542633 
" clip-path="url(#p87f625aca4)" style="fill: none; stroke: #b0b0b0; stroke-width: 0.5; stroke-linecap: square"/>
     </g>
     <g id="line2d_85">
      <g>
       <use xlink:href="#m1b88c52a05" x="63.309375" y="18.542633" style="stroke: #000000; stroke-width: 0.5"/>
      </g>
     </g>
     <g id="line2d_86">
      <g>
       <use xlink:href="#m497a12706e" x="398.109375" y="18.542633" style="stroke: #000000; stroke-width: 0.5"/>
      </g>
     </g>
     <g id="text_15">
      <!-- 0 -->
      <g transform="translate(52.174375 23.101695) scale(0.12 -0.12)">
       <use xlink:href="#DejaVuSans-30"/>
      </g>
     </g>
    </g>
    <g id="ytick_9">
     <g id="line2d_87">
      <defs>
       <path id="m6ee7ef1cb8" d="M 0 0 
L 1.5 0 
" style="stroke: #000000; stroke-width: 0.5"/>
      </defs>
      <g>
       <use xlink:href="#m6ee7ef1cb8" x="63.309375" y="252.367219" style="stroke: #000000; stroke-width: 0.5"/>
      </g>
     </g>
     <g id="line2d_88">
      <defs>
       <path id="m73a4ec792f" d="M 0 0 
L -1.5 0 
" style="stroke: #000000; stroke-width: 0.5"/>
      </defs>
      <g>
       <use xlink:href="#m73a4ec792f" x="398.109375" y="252.367219" style="stroke: #000000; stroke-width: 0.5"/>
      </g>
     </g>
    </g>
    <g id="ytick_10">
     <g id="line2d_89">
      <g>
       <use xlink:href="#m6ee7ef1cb8" x="63.309375" y="244.82449" style="stroke: #000000; stroke-width: 0.5"/>
      </g>
     </g>
     <g id="line2d_90">
      <g>
       <use xlink:href="#m73a4ec792f" x="398.109375" y="244.82449" style="stroke: #000000; stroke-width: 0.5"/>
      </g>
     </g>
    </g>
    <g id="ytick_11">
     <g id="line2d_91">
      <g>
       <use xlink:href="#m6ee7ef1cb8" x="63.309375" y="237.281762" style="stroke: #000000; stroke-width: 0.5"/>
      </g>
     </g>
     <g id="line2d_92">
      <g>
       <use xlink:href="#m73a4ec792f" x="398.109375" y="237.281762" style="stroke: #000000; stroke-width: 0.5"/>
      </g>
     </g>
    </g>
    <g id="ytick_12">
     <g id="line2d_93">
      <g>
       <use xlink:href="#m6ee7ef1cb8" x="63.309375" y="222.196304" style="stroke: #000000; stroke-width: 0.5"/>
      </g>
     </g>
     <g id="line2d_94">
      <g>
       <use xlink:href="#m73a4ec792f" x="398.109375" y="222.196304" style="stroke: #000000; stroke-width: 0.5"/>
      </g>
     </g>
    </g>
    <g id="ytick_13">
     <g id="line2d_95">
      <g>
       <use xlink:href="#m6ee7ef1cb8" x="63.309375" y="214.653576" style="stroke: #000000; stroke-width: 0.5"/>
      </g>
     </g>
     <g id="line2d_96">
      <g>
       <use xlink:href="#m73a4ec792f" x="398.109375" y="214.653576" style="stroke: #000000; stroke-width: 0.5"/>
      </g>
     </g>
    </g>
    <g id="ytick_14">
     <g id="line2d_97">
      <g>
       <use xlink:href="#m6ee7ef1cb8" x="63.309375" y="207.110847" style="stroke: #000000; stroke-width: 0.5"/>
      </g>
     </g>
     <g id="line2d_98">
      <g>
       <use xlink:href="#m73a4ec792f" x="398.109375" y="207.110847" style="stroke: #000000; stroke-width: 0.5"/>
      </g>
     </g>
    </g>
    <g id="ytick_15">
     <g id="line2d_99">
      <g>
       <use xlink:href="#m6ee7ef1cb8" x="63.309375" y="192.02539" style="stroke: #000000; stroke-width: 0.5"/>
      </g>
     </g>
     <g id="line2d_100">
      <g>
       <use xlink:href="#m73a4ec792f" x="398.109375" y="192.02539" style="stroke: #000000; stroke-width: 0.5"/>
      </g>
     </g>
    </g>
    <g id="ytick_16">
     <g id="line2d_101">
      <g>
       <use xlink:href="#m6ee7ef1cb8" x="63.309375" y="184.482662" style="stroke: #000000; stroke-width: 0.5"/>
      </g>
     </g>
     <g id="line2d_102">
      <g>
       <use xlink:href="#m73a4ec792f" x="398.109375" y="184.482662" style="stroke: #000000; stroke-width: 0.5"/>
      </g>
     </g>
    </g>
    <g id="ytick_17">
     <g id="line2d_103">
      <g>
       <use xlink:href="#m6ee7ef1cb8" x="63.309375" y="176.939933" style="stroke: #000000; stroke-width: 0.5"/>
      </g>
     </g>
     <g id="line2d_104">
      <g>
       <use xlink:href="#m73a4ec792f" x="398.109375" y="176.939933" style="stroke: #000000; stroke-width: 0.5"/>
      </g>
     </g>
    </g>
    <g id="ytick_18">
     <g id="line2d_105">
      <g>
       <use xlink:href="#m6ee7ef1cb8" x="63.309375" y="161.854476" style="stroke: #000000; stroke-width: 0.5"/>
      </g>
     </g>
     <g id="line2d_106">
      <g>
       <use xlink:href="#m73a4ec792f" x="398.109375" y="161.854476" style="stroke: #000000; stroke-width: 0.5"/>
      </g>
     </g>
    </g>
    <g id="ytick_19">
     <g id="line2d_107">
      <g>
       <use xlink:href="#m6ee7ef1cb8" x="63.309375" y="154.311747" style="stroke: #000000; stroke-width: 0.5"/>
      </g>
     </g>
     <g id="line2d_108">
      <g>
       <use xlink:href="#m73a4ec792f" x="398.109375" y="154.311747" style="stroke: #000000; stroke-width: 0.5"/>
      </g>
     </g>
    </g>
    <g id="ytick_20">
     <g id="line2d_109">
      <g>
       <use xlink:href="#m6ee7ef1cb8" x="63.309375" y="146.769019" style="stroke: #000000; stroke-width: 0.5"/>
      </g>
     </g>
     <g id="line2d_110">
      <g>
       <use xlink:href="#m73a4ec792f" x="398.109375" y="146.769019" style="stroke: #000000; stroke-width: 0.5"/>
      </g>
     </g>
    </g>
    <g id="ytick_21">
     <g id="line2d_111">
      <g>
       <use xlink:href="#m6ee7ef1cb8" x="63.309375" y="131.683562" style="stroke: #000000; stroke-width: 0.5"/>
      </g>
     </g>
     <g id="line2d_112">
      <g>
       <use xlink:href="#m73a4ec792f" x="398.109375" y="131.683562" style="stroke: #000000; stroke-width: 0.5"/>
      </g>
     </g>
    </g>
    <g id="ytick_22">
     <g id="line2d_113">
      <g>
       <use xlink:href="#m6ee7ef1cb8" x="63.309375" y="124.140833" style="stroke: #000000; stroke-width: 0.5"/>
      </g>
     </g>
     <g id="line2d_114">
      <g>
       <use xlink:href="#m73a4ec792f" x="398.109375" y="124.140833" style="stroke: #000000; stroke-width: 0.5"/>
      </g>
     </g>
    </g>
    <g id="ytick_23">
     <g id="line2d_115">
      <g>
       <use xlink:href="#m6ee7ef1cb8" x="63.309375" y="116.598104" style="stroke: #000000; stroke-width: 0.5"/>
      </g>
     </g>
     <g id="line2d_116">
      <g>
       <use xlink:href="#m73a4ec792f" x="398.109375" y="116.598104" style="stroke: #000000; stroke-width: 0.5"/>
      </g>
     </g>
    </g>
    <g id="ytick_24">
     <g id="line2d_117">
      <g>
       <use xlink:href="#m6ee7ef1cb8" x="63.309375" y="101.512647" style="stroke: #000000; stroke-width: 0.5"/>
      </g>
     </g>
     <g id="line2d_118">
      <g>
       <use xlink:href="#m73a4ec792f" x="398.109375" y="101.512647" style="stroke: #000000; stroke-width: 0.5"/>
      </g>
     </g>
    </g>
    <g id="ytick_25">
     <g id="line2d_119">
      <g>
       <use xlink:href="#m6ee7ef1cb8" x="63.309375" y="93.969919" style="stroke: #000000; stroke-width: 0.5"/>
      </g>
     </g>
     <g id="line2d_120">
      <g>
       <use xlink:href="#m73a4ec792f" x="398.109375" y="93.969919" style="stroke: #000000; stroke-width: 0.5"/>
      </g>
     </g>
    </g>
    <g id="ytick_26">
     <g id="line2d_121">
      <g>
       <use xlink:href="#m6ee7ef1cb8" x="63.309375" y="86.42719" style="stroke: #000000; stroke-width: 0.5"/>
      </g>
     </g>
     <g id="line2d_122">
      <g>
       <use xlink:href="#m73a4ec792f" x="398.109375" y="86.42719" style="stroke: #000000; stroke-width: 0.5"/>
      </g>
     </g>
    </g>
    <g id="ytick_27">
     <g id="line2d_123">
      <g>
       <use xlink:href="#m6ee7ef1cb8" x="63.309375" y="71.341733" style="stroke: #000000; stroke-width: 0.5"/>
      </g>
     </g>
     <g id="line2d_124">
      <g>
       <use xlink:href="#m73a4ec792f" x="398.109375" y="71.341733" style="stroke: #000000; stroke-width: 0.5"/>
      </g>
     </g>
    </g>
    <g id="ytick_28">
     <g id="line2d_125">
      <g>
       <use xlink:href="#m6ee7ef1cb8" x="63.309375" y="63.799004" style="stroke: #000000; stroke-width: 0.5"/>
      </g>
     </g>
     <g id="line2d_126">
      <g>
       <use xlink:href="#m73a4ec792f" x="398.109375" y="63.799004" style="stroke: #000000; stroke-width: 0.5"/>
      </g>
     </g>
    </g>
    <g id="ytick_29">
     <g id="line2d_127">
      <g>
       <use xlink:href="#m6ee7ef1cb8" x="63.309375" y="56.256276" style="stroke: #000000; stroke-width: 0.5"/>
      </g>
     </g>
     <g id="line2d_128">
      <g>
       <use xlink:href="#m73a4ec792f" x="398.109375" y="56.256276" style="stroke: #000000; stroke-width: 0.5"/>
      </g>
     </g>
    </g>
    <g id="ytick_30">
     <g id="line2d_129">
      <g>
       <use xlink:href="#m6ee7ef1cb8" x="63.309375" y="41.170819" style="stroke: #000000; stroke-width: 0.5"/>
      </g>
     </g>
     <g id="line2d_130">
      <g>
       <use xlink:href="#m73a4ec792f" x="398.109375" y="41.170819" style="stroke: #000000; stroke-width: 0.5"/>
      </g>
     </g>
    </g>
    <g id="ytick_31">
     <g id="line2d_131">
      <g>
       <use xlink:href="#m6ee7ef1cb8" x="63.309375" y="33.62809" style="stroke: #000000; stroke-width: 0.5"/>
      </g>
     </g>
     <g id="line2d_132">
      <g>
       <use xlink:href="#m73a4ec792f" x="398.109375" y="33.62809" style="stroke: #000000; stroke-width: 0.5"/>
      </g>
     </g>
    </g>
    <g id="ytick_32">
     <g id="line2d_133">
      <g>
       <use xlink:href="#m6ee7ef1cb8" x="63.309375" y="26.085362" style="stroke: #000000; stroke-width: 0.5"/>
      </g>
     </g>
     <g id="line2d_134">
      <g>
       <use xlink:href="#m73a4ec792f" x="398.109375" y="26.085362" style="stroke: #000000; stroke-width: 0.5"/>
      </g>
     </g>
    </g>
    <g id="ytick_33">
     <g id="line2d_135">
      <g>
       <use xlink:href="#m6ee7ef1cb8" x="63.309375" y="10.999904" style="stroke: #000000; stroke-width: 0.5"/>
      </g>
     </g>
     <g id="line2d_136">
      <g>
       <use xlink:href="#m73a4ec792f" x="398.109375" y="10.999904" style="stroke: #000000; stroke-width: 0.5"/>
      </g>
     </g>
    </g>
    <g id="text_16">
     <!-- Fitness -->
     <g transform="translate(12.718125 149.120625) rotate(-90) scale(0.12 -0.12)">
      <defs>
       <path id="DejaVuSans-46" d="M 628 4666 
L 3309 4666 
L 3309 4134 
L 1259 4134 
L 1259 2759 
L 3109 2759 
L 3109 2228 
L 1259 2228 
L 1259 0 
L 628 0 
L 628 4666 
z
" transform="scale(0.015625)"/>
      </defs>
      <use xlink:href="#DejaVuSans-46"/>
      <use xlink:href="#DejaVuSans-69" x="50.269531"/>
      <use xlink:href="#DejaVuSans-74" x="78.052734"/>
      <use xlink:href="#DejaVuSans-6e" x="117.261719"/>
      <use xlink:href="#DejaVuSans-65" x="180.640625"/>
      <use xlink:href="#DejaVuSans-73" x="242.164062"/>
      <use xlink:href="#DejaVuSans-73" x="294.263672"/>
     </g>
    </g>
   </g>
   <g id="line2d_137">
    <path d="M 78.527557 16.440596 
L 80.357398 16.404008 
L 80.967345 15.912255 
L 89.506606 15.826671 
L 90.116553 15.492118 
L 100.485655 15.472054 
L 101.095602 15.314952 
L 101.705549 15.314952 
L 102.315496 15.190127 
L 115.734334 15.087493 
L 123.663647 15.025684 
L 382.891193 14.94 
L 382.891193 14.94 
" clip-path="url(#p87f625aca4)" style="fill: none; stroke: #000000; stroke-linecap: square"/>
   </g>
   <g id="line2d_138">
    <path d="M 78.527557 241.74 
L 79.137504 23.644827 
L 79.747451 21.861415 
L 80.967345 21.454839 
L 81.577293 21.587537 
L 82.18724 20.905772 
L 82.797187 20.994722 
L 83.407134 20.473054 
L 84.017081 30.088017 
L 84.627028 21.61174 
L 85.236976 21.248379 
L 85.846923 21.513949 
L 86.45687 21.175401 
L 87.066817 21.013656 
L 87.676764 20.617121 
L 88.286711 20.871095 
L 88.896659 21.776399 
L 89.506606 20.962556 
L 90.116553 21.71707 
L 90.7265 20.539461 
L 91.336447 20.031155 
L 92.556342 22.26105 
L 93.166289 21.69845 
L 93.776236 19.716397 
L 94.99613 19.478836 
L 95.606077 19.673395 
L 96.216025 25.711906 
L 96.825972 19.470928 
L 97.435919 19.175837 
L 98.045866 19.66404 
L 98.655813 19.740358 
L 99.26576 19.090346 
L 99.875708 51.142329 
L 100.485655 18.944319 
L 101.095602 18.497344 
L 101.705549 18.983657 
L 102.925444 18.754342 
L 103.535391 18.192307 
L 104.755285 18.496293 
L 105.975179 18.294323 
L 106.585127 18.156941 
L 107.195074 18.1564 
L 107.805021 17.879434 
L 108.414968 18.093276 
L 109.024915 17.839218 
L 109.634862 17.047643 
L 110.24481 17.120346 
L 110.854757 16.308286 
L 111.464704 16.915659 
L 112.684598 15.847185 
L 113.294545 15.564087 
L 115.734334 15.366144 
L 117.564176 15.485031 
L 119.394017 15.328542 
L 120.613911 15.358499 
L 123.0537 15.337603 
L 124.273594 15.30244 
L 126.713383 15.475449 
L 127.32333 15.350392 
L 127.933277 15.438442 
L 128.543225 15.340679 
L 129.153172 15.389071 
L 130.373066 15.31087 
L 133.422802 15.330731 
L 134.032749 15.454417 
L 138.302379 15.304653 
L 139.522274 15.437998 
L 140.132221 15.37388 
L 141.352115 15.433217 
L 141.962062 15.352752 
L 143.181957 15.391832 
L 143.791904 15.320126 
L 145.621745 15.458704 
L 148.061534 15.354822 
L 149.281428 15.553582 
L 149.891375 15.407995 
L 153.551058 15.400658 
L 156.600794 15.34887 
L 158.430636 15.436371 
L 159.040583 15.395878 
L 159.65053 15.234119 
L 161.480372 15.34025 
L 162.090319 15.223727 
L 163.92016 15.277935 
L 164.530107 15.200173 
L 165.750002 15.439494 
L 166.969896 15.205822 
L 168.18979 15.137784 
L 168.799738 15.232587 
L 170.019632 15.22779 
L 172.459421 15.368556 
L 173.069368 15.256986 
L 174.899209 15.340162 
L 176.729051 15.202632 
L 177.338998 15.322693 
L 178.558892 15.248574 
L 179.168839 15.389613 
L 179.778787 15.254919 
L 180.388734 15.316859 
L 181.608628 15.248356 
L 182.218575 15.298177 
L 183.43847 15.17108 
L 184.658364 15.239506 
L 190.147888 15.314789 
L 190.757836 15.45934 
L 191.367783 15.386238 
L 191.97773 15.190232 
L 194.417519 15.327529 
L 196.24736 15.231826 
L 197.467254 15.300031 
L 198.687149 15.226955 
L 199.907043 15.255521 
L 205.396568 15.204722 
L 206.006515 15.298123 
L 207.226409 15.247406 
L 208.446303 15.278638 
L 209.056251 15.150523 
L 210.886092 15.228291 
L 212.715934 15.212028 
L 214.545775 15.341461 
L 216.375617 15.295108 
L 217.595511 15.224846 
L 218.205458 15.128712 
L 221.255194 15.229647 
L 224.914877 15.107464 
L 226.134771 15.124934 
L 229.184507 15.091747 
L 235.283979 15.102249 
L 237.11382 15.149944 
L 240.163556 15.205249 
L 241.38345 15.140836 
L 243.213292 15.138255 
L 243.823239 15.219175 
L 245.043133 15.115201 
L 246.263028 15.193162 
L 247.482922 15.102492 
L 250.532658 15.108274 
L 251.142605 15.067425 
L 251.752552 15.146662 
L 253.582394 15.061821 
L 255.412235 15.215604 
L 256.63213 15.196154 
L 257.242077 15.262111 
L 257.852024 15.167584 
L 262.121654 15.224481 
L 266.391284 15.088575 
L 267.001231 15.10869 
L 267.611179 15.241101 
L 268.221126 15.171172 
L 269.44102 15.212944 
L 275.540492 15.249182 
L 276.150439 15.159304 
L 276.760386 15.206537 
L 277.98028 15.139498 
L 286.519541 15.193025 
L 287.739435 15.144227 
L 294.448854 15.109398 
L 301.158273 15.136599 
L 302.378167 15.120685 
L 306.03785 15.122552 
L 306.647797 15.240666 
L 309.087586 15.169263 
L 317.626846 15.26267 
L 318.236793 15.183591 
L 319.456688 15.212436 
L 320.676582 15.164326 
L 324.946212 15.182205 
L 326.166107 15.168107 
L 327.386001 15.200381 
L 327.995948 15.137956 
L 329.215842 15.25583 
L 330.435737 15.166305 
L 331.045684 15.311103 
L 331.655631 15.143617 
L 334.705367 15.24655 
L 335.925261 15.169019 
L 339.584944 15.129879 
L 340.804839 15.213337 
L 343.854574 15.173135 
L 345.074469 15.211539 
L 346.294363 15.234793 
L 349.344099 15.265394 
L 349.954046 15.206544 
L 350.563993 15.312109 
L 353.003782 15.197142 
L 354.223676 15.376879 
L 354.833623 15.389407 
L 356.053518 15.229145 
L 359.103254 15.259221 
L 365.202725 15.144648 
L 367.032567 15.304826 
L 368.252461 15.255607 
L 369.472356 15.344724 
L 370.69225 15.22512 
L 376.181774 15.126671 
L 382.281246 15.19772 
L 382.891193 15.223827 
L 382.891193 15.223827 
" clip-path="url(#p87f625aca4)" style="fill: none; stroke-dasharray: 3.7,1.6; stroke-dashoffset: 0; stroke: #000000"/>
   </g>
   <g id="patch_3">
    <path d="M 63.309375 253.08 
L 63.309375 3.6 
" style="fill: none; stroke: #000000; stroke-width: 0.5; stroke-linejoin: miter; stroke-linecap: square"/>
   </g>
   <g id="patch_4">
    <path d="M 398.109375 253.08 
L 398.109375 3.6 
" style="fill: none; stroke: #000000; stroke-width: 0.5; stroke-linejoin: miter; stroke-linecap: square"/>
   </g>
   <g id="patch_5">
    <path d="M 63.309375 253.08 
L 398.109375 253.08 
" style="fill: none; stroke: #000000; stroke-width: 0.5; stroke-linejoin: miter; stroke-linecap: square"/>
   </g>
   <g id="patch_6">
    <path d="M 63.309375 3.6 
L 398.109375 3.6 
" style="fill: none; stroke: #000000; stroke-width: 0.5; stroke-linejoin: miter; stroke-linecap: square"/>
   </g>
   <g id="legend_1">
    <g id="patch_7">
     <path d="M 271.903125 247.08 
L 389.709375 247.08 
Q 392.109375 247.08 392.109375 244.68 
L 392.109375 193.03875 
Q 392.109375 190.63875 389.709375 190.63875 
L 271.903125 190.63875 
Q 269.503125 190.63875 269.503125 193.03875 
L 269.503125 244.68 
Q 269.503125 247.08 271.903125 247.08 
z
" style="fill: #ffffff; opacity: 0.8; stroke: #cccccc; stroke-linejoin: miter"/>
    </g>
    <g id="line2d_139">
     <path d="M 274.303125 200.356875 
L 286.303125 200.356875 
L 298.303125 200.356875 
" style="fill: none; stroke: #000000; stroke-linecap: square"/>
    </g>
    <g id="text_17">
     <!-- Max fitness -->
     <g transform="translate(307.903125 204.556875) scale(0.12 -0.12)">
      <defs>
       <path id="DejaVuSans-4d" d="M 628 4666 
L 1569 4666 
L 2759 1491 
L 3956 4666 
L 4897 4666 
L 4897 0 
L 4281 0 
L 4281 4097 
L 3078 897 
L 2444 897 
L 1241 4097 
L 1241 0 
L 628 0 
L 628 4666 
z
" transform="scale(0.015625)"/>
       <path id="DejaVuSans-78" d="M 3513 3500 
L 2247 1797 
L 3578 0 
L 2900 0 
L 1881 1375 
L 863 0 
L 184 0 
L 1544 1831 
L 300 3500 
L 978 3500 
L 1906 2253 
L 2834 3500 
L 3513 3500 
z
" transform="scale(0.015625)"/>
       <path id="DejaVuSans-20" transform="scale(0.015625)"/>
       <path id="DejaVuSans-66" d="M 2375 4863 
L 2375 4384 
L 1825 4384 
Q 1516 4384 1395 4259 
Q 1275 4134 1275 3809 
L 1275 3500 
L 2222 3500 
L 2222 3053 
L 1275 3053 
L 1275 0 
L 697 0 
L 697 3053 
L 147 3053 
L 147 3500 
L 697 3500 
L 697 3744 
Q 697 4328 969 4595 
Q 1241 4863 1831 4863 
L 2375 4863 
z
" transform="scale(0.015625)"/>
      </defs>
      <use xlink:href="#DejaVuSans-4d"/>
      <use xlink:href="#DejaVuSans-61" x="86.279297"/>
      <use xlink:href="#DejaVuSans-78" x="147.558594"/>
      <use xlink:href="#DejaVuSans-20" x="206.738281"/>
      <use xlink:href="#DejaVuSans-66" x="238.525391"/>
      <use xlink:href="#DejaVuSans-69" x="273.730469"/>
      <use xlink:href="#DejaVuSans-74" x="301.513672"/>
      <use xlink:href="#DejaVuSans-6e" x="340.722656"/>
      <use xlink:href="#DejaVuSans-65" x="404.101562"/>
      <use xlink:href="#DejaVuSans-73" x="465.625"/>
      <use xlink:href="#DejaVuSans-73" x="517.724609"/>
     </g>
    </g>
    <g id="patch_8">
     <path d="M 274.303125 222.170625 
L 298.303125 222.170625 
L 298.303125 213.770625 
L 274.303125 213.770625 
z
" style="fill: #0000ff; fill-opacity: 0.2; stroke: #0000ff; stroke-opacity: 0.2; stroke-linejoin: miter"/>
    </g>
    <g id="text_18">
     <!-- Top 90% -->
     <g transform="translate(307.903125 222.170625) scale(0.12 -0.12)">
      <defs>
       <path id="DejaVuSans-54" d="M -19 4666 
L 3928 4666 
L 3928 4134 
L 2272 4134 
L 2272 0 
L 1638 0 
L 1638 4134 
L -19 4134 
L -19 4666 
z
" transform="scale(0.015625)"/>
       <path id="DejaVuSans-70" d="M 1159 525 
L 1159 -1331 
L 581 -1331 
L 581 3500 
L 1159 3500 
L 1159 2969 
Q 1341 3281 1617 3432 
Q 1894 3584 2278 3584 
Q 2916 3584 3314 3078 
Q 3713 2572 3713 1747 
Q 3713 922 3314 415 
Q 2916 -91 2278 -91 
Q 1894 -91 1617 61 
Q 1341 213 1159 525 
z
M 3116 1747 
Q 3116 2381 2855 2742 
Q 2594 3103 2138 3103 
Q 1681 3103 1420 2742 
Q 1159 2381 1159 1747 
Q 1159 1113 1420 752 
Q 1681 391 2138 391 
Q 2594 391 2855 752 
Q 3116 1113 3116 1747 
z
" transform="scale(0.015625)"/>
       <path id="DejaVuSans-39" d="M 703 97 
L 703 672 
Q 941 559 1184 500 
Q 1428 441 1663 441 
Q 2288 441 2617 861 
Q 2947 1281 2994 2138 
Q 2813 1869 2534 1725 
Q 2256 1581 1919 1581 
Q 1219 1581 811 2004 
Q 403 2428 403 3163 
Q 403 3881 828 4315 
Q 1253 4750 1959 4750 
Q 2769 4750 3195 4129 
Q 3622 3509 3622 2328 
Q 3622 1225 3098 567 
Q 2575 -91 1691 -91 
Q 1453 -91 1209 -44 
Q 966 3 703 97 
z
M 1959 2075 
Q 2384 2075 2632 2365 
Q 2881 2656 2881 3163 
Q 2881 3666 2632 3958 
Q 2384 4250 1959 4250 
Q 1534 4250 1286 3958 
Q 1038 3666 1038 3163 
Q 1038 2656 1286 2365 
Q 1534 2075 1959 2075 
z
" transform="scale(0.015625)"/>
       <path id="DejaVuSans-25" d="M 4653 2053 
Q 4381 2053 4226 1822 
Q 4072 1591 4072 1178 
Q 4072 772 4226 539 
Q 4381 306 4653 306 
Q 4919 306 5073 539 
Q 5228 772 5228 1178 
Q 5228 1588 5073 1820 
Q 4919 2053 4653 2053 
z
M 4653 2450 
Q 5147 2450 5437 2106 
Q 5728 1763 5728 1178 
Q 5728 594 5436 251 
Q 5144 -91 4653 -91 
Q 4153 -91 3862 251 
Q 3572 594 3572 1178 
Q 3572 1766 3864 2108 
Q 4156 2450 4653 2450 
z
M 1428 4353 
Q 1159 4353 1004 4120 
Q 850 3888 850 3481 
Q 850 3069 1003 2837 
Q 1156 2606 1428 2606 
Q 1700 2606 1854 2837 
Q 2009 3069 2009 3481 
Q 2009 3884 1853 4118 
Q 1697 4353 1428 4353 
z
M 4250 4750 
L 4750 4750 
L 1831 -91 
L 1331 -91 
L 4250 4750 
z
M 1428 4750 
Q 1922 4750 2215 4408 
Q 2509 4066 2509 3481 
Q 2509 2891 2217 2550 
Q 1925 2209 1428 2209 
Q 931 2209 642 2551 
Q 353 2894 353 3481 
Q 353 4063 643 4406 
Q 934 4750 1428 4750 
z
" transform="scale(0.015625)"/>
      </defs>
      <use xlink:href="#DejaVuSans-54"/>
      <use xlink:href="#DejaVuSans-6f" x="44.083984"/>
      <use xlink:href="#DejaVuSans-70" x="105.265625"/>
      <use xlink:href="#DejaVuSans-20" x="168.742188"/>
      <use xlink:href="#DejaVuSans-39" x="200.529297"/>
      <use xlink:href="#DejaVuSans-30" x="264.152344"/>
      <use xlink:href="#DejaVuSans-25" x="327.775391"/>
     </g>
    </g>
    <g id="line2d_140">
     <path d="M 274.303125 235.584375 
L 286.303125 235.584375 
L 298.303125 235.584375 
" style="fill: none; stroke-dasharray: 3.7,1.6; stroke-dashoffset: 0; stroke: #000000"/>
    </g>
    <g id="text_19">
     <!-- Fitness mean -->
     <g transform="translate(307.903125 239.784375) scale(0.12 -0.12)">
      <defs>
       <path id="DejaVuSans-6d" d="M 3328 2828 
Q 3544 3216 3844 3400 
Q 4144 3584 4550 3584 
Q 5097 3584 5394 3201 
Q 5691 2819 5691 2113 
L 5691 0 
L 5113 0 
L 5113 2094 
Q 5113 2597 4934 2840 
Q 4756 3084 4391 3084 
Q 3944 3084 3684 2787 
Q 3425 2491 3425 1978 
L 3425 0 
L 2847 0 
L 2847 2094 
Q 2847 2600 2669 2842 
Q 2491 3084 2119 3084 
Q 1678 3084 1418 2786 
Q 1159 2488 1159 1978 
L 1159 0 
L 581 0 
L 581 3500 
L 1159 3500 
L 1159 2956 
Q 1356 3278 1631 3431 
Q 1906 3584 2284 3584 
Q 2666 3584 2933 3390 
Q 3200 3197 3328 2828 
z
" transform="scale(0.015625)"/>
      </defs>
      <use xlink:href="#DejaVuSans-46"/>
      <use xlink:href="#DejaVuSans-69" x="50.269531"/>
      <use xlink:href="#DejaVuSans-74" x="78.052734"/>
      <use xlink:href="#DejaVuSans-6e" x="117.261719"/>
      <use xlink:href="#DejaVuSans-65" x="180.640625"/>
      <use xlink:href="#DejaVuSans-73" x="242.164062"/>
      <use xlink:href="#DejaVuSans-73" x="294.263672"/>
      <use xlink:href="#DejaVuSans-20" x="346.363281"/>
      <use xlink:href="#DejaVuSans-6d" x="378.150391"/>
      <use xlink:href="#DejaVuSans-65" x="475.5625"/>
      <use xlink:href="#DejaVuSans-61" x="537.085938"/>
      <use xlink:href="#DejaVuSans-6e" x="598.365234"/>
     </g>
    </g>
   </g>
  </g>
 </g>
 <defs>
  <clipPath id="p87f625aca4">
   <rect x="63.309375" y="3.6" width="334.8" height="249.48"/>
  </clipPath>
 </defs>
</svg>
