<?xml version="1.0" encoding="utf-8" standalone="no"?>
<!DOCTYPE svg PUBLIC "-//W3C//DTD SVG 1.1//EN"
  "http://www.w3.org/Graphics/SVG/1.1/DTD/svg11.dtd">
<svg xmlns:xlink="http://www.w3.org/1999/xlink" width="386.439375pt" height="287.4075pt" viewBox="0 0 386.439375 287.4075" xmlns="http://www.w3.org/2000/svg" version="1.1">
 <metadata>
  <rdf:RDF xmlns:dc="http://purl.org/dc/elements/1.1/" xmlns:cc="http://creativecommons.org/ns#" xmlns:rdf="http://www.w3.org/1999/02/22-rdf-syntax-ns#">
   <cc:Work>
    <dc:type rdf:resource="http://purl.org/dc/dcmitype/StillImage"/>
    <dc:date>2024-06-25T10:21:33.228922</dc:date>
    <dc:format>image/svg+xml</dc:format>
    <dc:creator>
     <cc:Agent>
      <dc:title>Matplotlib v3.9.0, https://matplotlib.org/</dc:title>
     </cc:Agent>
    </dc:creator>
   </cc:Work>
  </rdf:RDF>
 </metadata>
 <defs>
  <style type="text/css">*{stroke-linejoin: round; stroke-linecap: butt}</style>
 </defs>
 <g id="figure_1">
  <g id="patch_1">
   <path d="M 0 287.4075 
L 386.439375 287.4075 
L 386.439375 0 
L 0 0 
z
" style="fill: #ffffff"/>
  </g>
  <g id="axes_1">
   <g id="patch_2">
    <path d="M 48.039375 253.08 
L 382.839375 253.08 
L 382.839375 3.6 
L 48.039375 3.6 
z
" style="fill: #ffffff"/>
   </g>
   <g id="PolyCollection_1">
    <defs>
     <path id="md3a47f2011" d="M 63.257557 -245.268623 
L 63.257557 -83.851862 
L 63.867504 -45.6675 
L 64.477451 -95.333816 
L 65.087398 -99.454354 
L 65.697345 -95.884263 
L 66.307293 -116.373592 
L 66.91724 -131.085809 
L 67.527187 -118.825021 
L 68.137134 -121.295474 
L 68.747081 -116.443682 
L 69.357028 -131.100999 
L 69.966976 -125.150916 
L 70.576923 -130.96067 
L 71.18687 -138.043388 
L 71.796817 -143.853544 
L 72.406764 -143.592147 
L 73.016711 -140.386957 
L 73.626659 -150.152739 
L 74.236606 -143.738184 
L 74.846553 -103.128676 
L 75.4565 -128.441467 
L 76.066447 -142.808536 
L 76.676394 -137.309362 
L 77.286342 -140.982413 
L 77.896289 -129.07626 
L 78.506236 -145.46512 
L 79.116183 -150.453494 
L 79.72613 -149.067702 
L 80.336077 -151.761812 
L 80.946025 -153.525767 
L 81.555972 -151.350207 
L 82.165919 -152.02582 
L 82.775866 -155.95132 
L 83.385813 -157.853515 
L 83.99576 -156.769949 
L 84.605708 -158.90578 
L 85.215655 -157.192026 
L 85.825602 -163.253699 
L 86.435549 -160.713453 
L 87.045496 -160.718872 
L 87.655444 -164.564847 
L 88.265391 -166.258615 
L 88.875338 -166.343682 
L 89.485285 -165.698298 
L 90.095232 -163.748374 
L 90.705179 -167.506176 
L 91.315127 -169.298334 
L 91.925074 -165.735782 
L 92.535021 -170.078558 
L 93.144968 -169.131252 
L 93.754915 -170.795997 
L 94.364862 -179.723959 
L 94.97481 -171.229258 
L 95.584757 -204.426368 
L 96.194704 -204.021252 
L 96.804651 -175.363633 
L 97.414598 -215.359855 
L 98.024545 -256.183116 
L 98.634493 -257.391083 
L 99.24444 -258.529957 
L 99.854387 -259.707969 
L 100.464334 -260.561791 
L 101.074281 -260.291217 
L 101.684228 -260.162249 
L 102.294176 -259.313055 
L 102.904123 -260.370565 
L 103.51407 -260.950919 
L 104.124017 -261.321634 
L 104.733964 -260.983357 
L 105.343911 -260.507919 
L 105.953859 -260.38019 
L 106.563806 -260.283908 
L 107.173753 -261.536175 
L 107.7837 -261.643834 
L 108.393647 -261.828866 
L 109.003594 -261.643832 
L 109.613542 -261.210329 
L 110.223489 -260.334735 
L 110.833436 -259.599437 
L 111.443383 -259.359133 
L 112.05333 -259.628806 
L 112.663277 -259.144839 
L 113.273225 -259.518682 
L 113.883172 -260.394783 
L 114.493119 -262.06586 
L 115.103066 -261.19335 
L 115.713013 -260.651118 
L 116.32296 -259.845769 
L 116.932908 -259.751371 
L 117.542855 -261.287328 
L 118.152802 -260.330819 
L 118.762749 -260.535501 
L 119.372696 -260.492173 
L 119.982643 -260.486183 
L 120.592591 -260.344029 
L 121.202538 -260.365922 
L 121.812485 -261.116955 
L 122.422432 -261.557624 
L 123.032379 -261.046983 
L 123.642326 -260.853283 
L 124.252274 -260.017521 
L 124.862221 -260.664252 
L 125.472168 -258.119482 
L 126.082115 -257.039135 
L 126.692062 -259.377582 
L 127.302009 -258.752756 
L 127.911957 -258.671637 
L 128.521904 -259.919193 
L 129.131851 -258.29094 
L 129.741798 -258.411396 
L 130.351745 -258.476449 
L 130.961692 -258.290941 
L 131.57164 -260.520943 
L 132.181587 -260.078931 
L 132.791534 -260.664582 
L 133.401481 -259.156368 
L 134.011428 -257.550391 
L 134.621375 -258.925302 
L 135.231323 -258.975628 
L 135.84127 -260.682225 
L 136.451217 -258.997256 
L 137.061164 -259.951488 
L 137.671111 -259.409628 
L 138.281058 -256.311876 
L 138.891006 -259.557707 
L 139.500953 -260.004237 
L 140.1109 -259.751501 
L 140.720847 -260.682224 
L 141.330794 -259.519915 
L 141.940741 -258.556035 
L 142.550689 -260.72598 
L 143.160636 -258.400278 
L 143.770583 -262.130967 
L 144.38053 -261.835279 
L 144.990477 -261.734371 
L 145.600424 -261.292012 
L 146.210372 -261.022593 
L 146.820319 -263.266297 
L 147.430266 -263.008878 
L 148.040213 -262.912761 
L 148.65016 -263.302055 
L 149.260107 -264.580913 
L 149.870055 -262.905849 
L 150.480002 -259.79589 
L 151.089949 -265.261163 
L 151.699896 -264.433761 
L 152.309843 -265.034608 
L 152.91979 -265.469206 
L 153.529738 -263.198614 
L 154.139685 -261.397522 
L 154.749632 -261.397526 
L 155.359579 -260.467406 
L 155.969526 -259.698018 
L 156.579473 -258.268166 
L 157.189421 -258.231835 
L 157.799368 -259.396997 
L 158.409315 -259.0046 
L 159.019262 -259.092014 
L 159.629209 -260.224759 
L 160.239156 -260.234364 
L 160.849104 -261.660003 
L 161.459051 -261.706795 
L 162.068998 -260.401171 
L 162.678945 -260.483705 
L 163.288892 -261.701685 
L 163.898839 -258.820202 
L 164.508787 -260.875789 
L 165.118734 -260.830598 
L 165.728681 -261.146299 
L 166.338628 -262.0933 
L 166.948575 -261.634754 
L 167.558522 -262.563787 
L 168.16847 -263.388117 
L 168.778417 -262.633505 
L 169.388364 -261.368274 
L 169.998311 -260.387204 
L 170.608258 -260.594869 
L 171.218205 -262.106325 
L 171.828153 -260.823488 
L 172.4381 -257.011628 
L 173.048047 -259.663153 
L 173.657994 -258.598384 
L 174.267941 -260.035644 
L 174.877888 -257.928129 
L 175.487836 -258.498631 
L 176.097783 -259.830986 
L 176.70773 -263.17909 
L 177.317677 -261.591929 
L 177.927624 -260.33861 
L 178.537571 -259.673988 
L 179.147519 -260.154774 
L 179.757466 -260.513477 
L 180.367413 -259.953872 
L 180.97736 -263.322442 
L 181.587307 -261.807989 
L 182.197254 -261.165297 
L 182.807202 -261.321363 
L 183.417149 -262.011607 
L 184.027096 -261.744386 
L 184.637043 -260.470987 
L 185.24699 -260.464056 
L 185.856937 -260.492946 
L 186.466885 -262.002925 
L 187.076832 -262.691636 
L 187.686779 -263.183824 
L 188.296726 -262.901631 
L 188.906673 -263.147117 
L 189.51662 -262.788663 
L 190.126568 -262.425429 
L 190.736515 -261.174417 
L 191.346462 -263.66814 
L 191.956409 -262.544011 
L 192.566356 -259.541044 
L 193.176303 -260.54225 
L 193.786251 -262.363173 
L 194.396198 -261.056033 
L 195.006145 -261.863983 
L 195.616092 -262.259431 
L 196.226039 -263.700022 
L 196.835986 -262.944111 
L 197.445934 -262.599034 
L 198.055881 -260.525587 
L 198.665828 -258.933445 
L 199.275775 -259.314508 
L 199.885722 -259.371078 
L 200.495669 -262.297275 
L 201.105617 -260.199561 
L 201.715564 -258.954861 
L 202.325511 -261.36259 
L 202.935458 -263.809551 
L 203.545405 -263.809527 
L 204.155352 -262.379219 
L 204.7653 -263.748431 
L 205.375247 -262.1301 
L 205.985194 -261.762347 
L 206.595141 -262.34856 
L 207.205088 -263.870011 
L 207.815035 -263.869982 
L 208.424983 -263.701587 
L 209.03493 -263.758331 
L 209.644877 -263.858176 
L 210.254824 -264.304215 
L 210.864771 -263.15222 
L 211.474718 -265.854008 
L 212.084666 -263.562065 
L 212.694613 -264.286008 
L 213.30456 -264.016564 
L 213.914507 -262.741204 
L 214.524454 -266.111698 
L 215.134401 -264.987533 
L 215.744349 -264.668053 
L 216.354296 -263.199074 
L 216.964243 -262.735177 
L 217.57419 -262.565046 
L 218.184137 -262.653725 
L 218.794084 -262.734298 
L 219.404032 -264.73895 
L 220.013979 -265.212049 
L 220.623926 -265.313749 
L 221.233873 -265.54401 
L 221.84382 -262.854239 
L 222.453767 -263.20552 
L 223.063715 -261.677462 
L 223.673662 -263.06055 
L 224.283609 -263.41698 
L 224.893556 -262.35831 
L 225.503503 -264.585456 
L 226.11345 -264.281939 
L 226.723398 -264.839011 
L 227.333345 -264.699289 
L 227.943292 -264.192162 
L 228.553239 -264.192159 
L 229.163186 -264.244637 
L 229.773133 -265.022805 
L 230.383081 -262.933092 
L 230.993028 -262.933087 
L 231.602975 -265.022805 
L 232.212922 -265.006148 
L 232.822869 -265.547825 
L 233.432816 -265.547829 
L 234.042764 -265.299702 
L 234.652711 -263.634463 
L 235.262658 -263.981612 
L 235.872605 -266.404237 
L 236.482552 -267.11484 
L 237.092499 -267.120832 
L 237.702447 -266.786059 
L 238.312394 -266.786054 
L 238.922341 -265.158781 
L 239.532288 -263.920145 
L 240.142235 -263.855182 
L 240.752182 -263.914774 
L 241.36213 -261.926402 
L 241.972077 -263.711298 
L 242.582024 -263.721129 
L 243.191971 -262.606707 
L 243.801918 -260.044637 
L 244.411865 -261.287928 
L 245.021813 -259.525864 
L 245.63176 -261.065817 
L 246.241707 -261.651192 
L 246.851654 -258.861436 
L 247.461601 -261.128679 
L 248.071548 -263.762099 
L 248.681496 -262.585783 
L 249.291443 -264.953504 
L 249.90139 -265.239011 
L 250.511337 -265.86524 
L 251.121284 -266.166919 
L 251.731231 -264.228978 
L 252.341179 -262.585759 
L 252.951126 -262.973306 
L 253.561073 -262.585779 
L 254.17102 -262.789047 
L 254.780967 -262.580735 
L 255.390914 -262.925238 
L 256.000862 -262.430246 
L 256.610809 -262.585774 
L 257.220756 -262.970765 
L 257.830703 -263.497224 
L 258.44065 -265.400499 
L 259.050597 -259.787365 
L 259.660545 -263.632909 
L 260.270492 -260.451886 
L 260.880439 -264.592556 
L 261.490386 -264.219373 
L 262.100333 -264.256696 
L 262.71028 -263.39669 
L 263.320228 -263.677306 
L 263.930175 -262.791425 
L 264.540122 -262.250084 
L 265.150069 -261.34981 
L 265.760016 -262.251118 
L 266.369963 -262.600852 
L 266.979911 -261.66093 
L 267.589858 -261.99935 
L 268.199805 -260.897614 
L 268.809752 -262.493249 
L 269.419699 -260.897611 
L 270.029646 -261.082405 
L 270.639594 -261.729097 
L 271.249541 -264.094088 
L 271.859488 -265.510661 
L 272.469435 -265.350899 
L 273.079382 -264.272935 
L 273.689329 -263.880358 
L 274.299277 -264.731197 
L 274.909224 -264.795554 
L 275.519171 -265.656155 
L 276.129118 -264.753465 
L 276.739065 -265.460272 
L 277.349012 -265.74562 
L 277.95896 -265.297038 
L 278.568907 -265.804116 
L 279.178854 -265.327375 
L 279.788801 -264.831759 
L 280.398748 -264.667013 
L 281.008695 -265.269799 
L 281.618643 -264.655222 
L 282.22859 -264.199647 
L 282.838537 -265.149699 
L 283.448484 -265.149701 
L 284.058431 -266.529114 
L 284.668378 -265.416379 
L 285.278326 -264.890076 
L 285.888273 -265.480128 
L 286.49822 -265.541849 
L 287.108167 -265.952213 
L 287.718114 -265.948493 
L 288.328061 -265.480163 
L 288.938009 -265.480142 
L 289.547956 -265.477329 
L 290.157903 -264.786309 
L 290.76785 -264.649165 
L 291.377797 -263.111306 
L 291.987744 -261.586848 
L 292.597692 -261.777851 
L 293.207639 -262.202362 
L 293.817586 -263.15104 
L 294.427533 -262.557356 
L 295.03748 -262.070871 
L 295.647427 -262.342291 
L 296.257375 -261.200113 
L 296.867322 -257.296268 
L 297.477269 -262.342285 
L 298.087216 -262.362392 
L 298.697163 -261.132792 
L 299.30711 -260.595585 
L 299.917058 -261.300976 
L 300.527005 -259.789214 
L 301.136952 -261.107185 
L 301.746899 -261.093263 
L 302.356846 -261.107188 
L 302.966793 -261.872215 
L 303.576741 -261.247491 
L 304.186688 -262.290158 
L 304.796635 -261.383347 
L 305.406582 -263.424865 
L 306.016529 -263.893548 
L 306.626476 -265.217132 
L 307.236424 -265.337268 
L 307.846371 -264.09648 
L 308.456318 -265.134787 
L 309.066265 -264.707345 
L 309.676212 -263.608239 
L 310.286159 -263.669701 
L 310.896107 -262.735375 
L 311.506054 -262.670619 
L 312.116001 -263.943871 
L 312.725948 -263.391843 
L 313.335895 -262.602014 
L 313.945842 -261.774566 
L 314.55579 -262.529945 
L 315.165737 -262.557143 
L 315.775684 -261.774561 
L 316.385631 -262.291467 
L 316.995578 -261.927303 
L 317.605525 -259.943978 
L 318.215473 -259.943989 
L 318.82542 -260.340225 
L 319.435367 -260.44954 
L 320.045314 -262.495945 
L 320.655261 -263.313045 
L 321.265208 -262.860718 
L 321.875156 -262.857035 
L 322.485103 -262.857033 
L 323.09505 -263.851955 
L 323.704997 -263.917958 
L 324.314944 -264.033729 
L 324.924891 -263.160693 
L 325.534839 -262.985015 
L 326.144786 -263.16069 
L 326.754733 -264.845502 
L 327.36468 -262.859578 
L 327.974627 -263.017037 
L 328.584574 -262.298414 
L 329.194522 -261.748146 
L 329.804469 -261.5042 
L 330.414416 -263.212274 
L 331.024363 -259.999573 
L 331.63431 -260.020033 
L 332.244257 -261.197194 
L 332.854205 -259.575436 
L 333.464152 -258.847828 
L 334.074099 -260.352281 
L 334.684046 -259.883304 
L 335.293993 -259.575434 
L 335.90394 -259.601576 
L 336.513888 -259.69673 
L 337.123835 -260.177168 
L 337.733782 -260.9883 
L 338.343729 -260.127378 
L 338.953676 -258.902365 
L 339.563623 -258.793446 
L 340.173571 -260.336707 
L 340.783518 -261.393053 
L 341.393465 -261.250646 
L 342.003412 -259.618272 
L 342.613359 -261.310934 
L 343.223306 -259.671534 
L 343.833254 -260.235519 
L 344.443201 -261.119003 
L 345.053148 -260.813287 
L 345.663095 -260.284017 
L 346.273042 -264.265615 
L 346.88299 -263.875551 
L 347.492937 -266.301817 
L 348.102884 -266.923579 
L 348.712831 -263.759849 
L 349.322778 -263.759829 
L 349.932725 -264.647877 
L 350.542673 -260.278161 
L 351.15262 -259.871991 
L 351.762567 -260.252836 
L 352.372514 -259.59886 
L 352.982461 -259.087704 
L 353.592408 -258.385635 
L 354.202356 -260.830329 
L 354.812303 -261.454139 
L 355.42225 -261.45415 
L 356.032197 -260.214422 
L 356.642144 -261.588747 
L 357.252091 -261.386666 
L 357.862039 -261.883391 
L 358.471986 -263.397944 
L 359.081933 -264.427669 
L 359.69188 -264.135431 
L 360.301827 -264.521998 
L 360.911774 -264.641253 
L 361.521722 -264.693774 
L 362.131669 -265.221417 
L 362.741616 -266.223241 
L 363.351563 -265.732171 
L 363.96151 -266.336848 
L 364.571457 -264.851467 
L 365.181405 -263.073369 
L 365.791352 -263.485477 
L 366.401299 -262.008614 
L 367.011246 -262.008606 
L 367.621193 -262.804854 
L 367.621193 -272.467495 
L 367.621193 -272.467495 
L 367.011246 -272.467493 
L 366.401299 -272.467499 
L 365.791352 -272.467496 
L 365.181405 -272.467493 
L 364.571457 -272.467494 
L 363.96151 -272.467494 
L 363.351563 -272.467487 
L 362.741616 -272.467496 
L 362.131669 -272.467499 
L 361.521722 -272.467492 
L 360.911774 -272.467498 
L 360.301827 -272.467493 
L 359.69188 -272.467495 
L 359.081933 -272.467496 
L 358.471986 -272.467497 
L 357.862039 -272.467491 
L 357.252091 -272.467491 
L 356.642144 -272.467492 
L 356.032197 -272.467498 
L 355.42225 -272.467497 
L 354.812303 -272.467498 
L 354.202356 -272.467491 
L 353.592408 -272.467499 
L 352.982461 -272.467492 
L 352.372514 -272.467492 
L 351.762567 -272.467495 
L 351.15262 -272.467493 
L 350.542673 -272.467492 
L 349.932725 -272.467494 
L 349.322778 -272.467493 
L 348.712831 -272.467493 
L 348.102884 -272.467496 
L 347.492937 -272.467493 
L 346.88299 -272.467493 
L 346.273042 -272.467495 
L 345.663095 -272.467497 
L 345.053148 -272.467493 
L 344.443201 -272.467492 
L 343.833254 -272.467493 
L 343.223306 -272.467493 
L 342.613359 -272.467493 
L 342.003412 -272.467493 
L 341.393465 -272.467496 
L 340.783518 -272.467497 
L 340.173571 -272.467492 
L 339.563623 -272.467495 
L 338.953676 -272.467496 
L 338.343729 -272.467492 
L 337.733782 -272.467492 
L 337.123835 -272.467495 
L 336.513888 -272.467491 
L 335.90394 -272.467494 
L 335.293993 -272.467493 
L 334.684046 -272.467494 
L 334.074099 -272.467494 
L 333.464152 -272.467493 
L 332.854205 -272.467499 
L 332.244257 -272.467492 
L 331.63431 -272.467492 
L 331.024363 -272.467493 
L 330.414416 -272.467492 
L 329.804469 -272.467498 
L 329.194522 -272.467491 
L 328.584574 -272.467497 
L 327.974627 -272.467492 
L 327.36468 -272.467488 
L 326.754733 -272.467496 
L 326.144786 -272.4675 
L 325.534839 -272.467491 
L 324.924891 -272.467494 
L 324.314944 -272.467499 
L 323.704997 -272.467493 
L 323.09505 -272.467494 
L 322.485103 -272.467492 
L 321.875156 -272.467494 
L 321.265208 -272.467495 
L 320.655261 -272.467492 
L 320.045314 -272.46749 
L 319.435367 -272.467491 
L 318.82542 -272.467493 
L 318.215473 -272.467496 
L 317.605525 -272.467487 
L 316.995578 -272.467477 
L 316.385631 -272.467459 
L 315.775684 -272.467445 
L 315.165737 -272.467466 
L 314.55579 -272.464752 
L 313.945842 -272.46475 
L 313.335895 -272.464752 
L 312.725948 -272.464752 
L 312.116001 -272.464752 
L 311.506054 -272.464752 
L 310.896107 -272.464751 
L 310.286159 -272.464751 
L 309.676212 -272.464752 
L 309.066265 -272.464752 
L 308.456318 -272.464751 
L 307.846371 -272.464752 
L 307.236424 -272.464752 
L 306.626476 -272.464752 
L 306.016529 -272.46475 
L 305.406582 -272.464753 
L 304.796635 -272.464751 
L 304.186688 -272.464751 
L 303.576741 -272.464752 
L 302.966793 -272.464752 
L 302.356846 -272.464751 
L 301.746899 -272.464752 
L 301.136952 -272.464752 
L 300.527005 -272.464752 
L 299.917058 -272.464751 
L 299.30711 -272.464752 
L 298.697163 -272.464752 
L 298.087216 -272.464749 
L 297.477269 -272.464752 
L 296.867322 -272.464752 
L 296.257375 -272.464749 
L 295.647427 -272.464752 
L 295.03748 -272.464751 
L 294.427533 -272.464751 
L 293.817586 -272.464751 
L 293.207639 -272.464751 
L 292.597692 -272.464752 
L 291.987744 -272.46475 
L 291.377797 -272.464751 
L 290.76785 -272.46475 
L 290.157903 -272.464752 
L 289.547956 -272.464752 
L 288.938009 -272.464752 
L 288.328061 -272.464753 
L 287.718114 -272.464751 
L 287.108167 -272.464752 
L 286.49822 -272.464751 
L 285.888273 -272.464752 
L 285.278326 -272.464749 
L 284.668378 -272.464752 
L 284.058431 -272.464753 
L 283.448484 -272.464752 
L 282.838537 -272.464753 
L 282.22859 -272.464751 
L 281.618643 -272.464752 
L 281.008695 -272.464752 
L 280.398748 -272.464752 
L 279.788801 -272.464752 
L 279.178854 -272.464751 
L 278.568907 -272.464753 
L 277.95896 -272.464753 
L 277.349012 -272.464748 
L 276.739065 -272.464752 
L 276.129118 -272.464751 
L 275.519171 -272.464752 
L 274.909224 -272.46475 
L 274.299277 -272.464752 
L 273.689329 -272.464752 
L 273.079382 -272.464751 
L 272.469435 -272.464752 
L 271.859488 -272.464752 
L 271.249541 -272.464751 
L 270.639594 -272.464749 
L 270.029646 -272.464752 
L 269.419699 -272.464751 
L 268.809752 -272.464751 
L 268.199805 -272.464751 
L 267.589858 -272.464747 
L 266.979911 -272.46475 
L 266.369963 -272.46475 
L 265.760016 -272.464752 
L 265.150069 -272.464752 
L 264.540122 -272.46475 
L 263.930175 -272.464745 
L 263.320228 -272.464743 
L 262.71028 -272.464727 
L 262.100333 -272.461464 
L 261.490386 -272.461465 
L 260.880439 -272.461461 
L 260.270492 -272.461465 
L 259.660545 -272.461462 
L 259.050597 -272.461464 
L 258.44065 -272.461464 
L 257.830703 -272.461465 
L 257.220756 -272.461466 
L 256.610809 -272.461464 
L 256.000862 -272.461465 
L 255.390914 -272.461466 
L 254.780967 -272.461465 
L 254.17102 -272.461465 
L 253.561073 -272.461465 
L 252.951126 -272.461464 
L 252.341179 -272.461465 
L 251.731231 -272.461464 
L 251.121284 -272.461464 
L 250.511337 -272.461465 
L 249.90139 -272.461465 
L 249.291443 -272.461466 
L 248.681496 -272.461465 
L 248.071548 -272.461463 
L 247.461601 -272.461465 
L 246.851654 -272.461463 
L 246.241707 -272.461464 
L 245.63176 -272.461463 
L 245.021813 -272.461464 
L 244.411865 -272.461464 
L 243.801918 -272.461461 
L 243.191971 -272.461464 
L 242.582024 -272.461461 
L 241.972077 -272.461464 
L 241.36213 -272.461463 
L 240.752182 -272.461461 
L 240.142235 -272.461462 
L 239.532288 -272.461463 
L 238.922341 -272.461456 
L 238.312394 -272.461465 
L 237.702447 -272.461462 
L 237.092499 -272.461453 
L 236.482552 -272.461464 
L 235.872605 -272.461462 
L 235.262658 -272.461447 
L 234.652711 -272.461465 
L 234.042764 -272.443882 
L 233.432816 -272.443872 
L 232.822869 -272.443873 
L 232.212922 -272.443873 
L 231.602975 -272.443875 
L 230.993028 -272.443876 
L 230.383081 -272.443871 
L 229.773133 -272.443878 
L 229.163186 -272.443872 
L 228.553239 -272.443881 
L 227.943292 -272.443873 
L 227.333345 -272.443874 
L 226.723398 -272.443873 
L 226.11345 -272.443871 
L 225.503503 -272.443869 
L 224.893556 -272.443854 
L 224.283609 -272.44386 
L 223.673662 -272.443873 
L 223.063715 -272.443834 
L 222.453767 -272.443837 
L 221.84382 -272.44386 
L 221.233873 -272.443863 
L 220.623926 -272.443838 
L 220.013979 -272.436259 
L 219.404032 -272.436258 
L 218.794084 -272.436264 
L 218.184137 -272.436261 
L 217.57419 -272.436262 
L 216.964243 -272.436255 
L 216.354296 -272.43627 
L 215.744349 -272.436267 
L 215.134401 -272.436262 
L 214.524454 -272.436266 
L 213.914507 -272.436259 
L 213.30456 -272.436253 
L 212.694613 -272.436264 
L 212.084666 -272.436265 
L 211.474718 -272.436252 
L 210.864771 -272.436264 
L 210.254824 -272.436266 
L 209.644877 -272.436221 
L 209.03493 -272.417301 
L 208.424983 -272.4173 
L 207.815035 -272.417299 
L 207.205088 -272.417301 
L 206.595141 -272.4173 
L 205.985194 -272.41728 
L 205.375247 -272.417272 
L 204.7653 -272.417267 
L 204.155352 -272.417281 
L 203.545405 -272.417265 
L 202.935458 -272.412238 
L 202.325511 -272.412232 
L 201.715564 -272.4122 
L 201.105617 -272.412202 
L 200.495669 -272.412196 
L 199.885722 -272.412187 
L 199.275775 -272.369271 
L 198.665828 -272.369276 
L 198.055881 -272.369279 
L 197.445934 -272.369293 
L 196.835986 -272.369278 
L 196.226039 -272.369266 
L 195.616092 -272.369266 
L 195.006145 -272.369278 
L 194.396198 -272.369261 
L 193.786251 -272.369272 
L 193.176303 -272.369248 
L 192.566356 -272.36924 
L 191.956409 -272.369268 
L 191.346462 -272.369245 
L 190.736515 -272.310166 
L 190.126568 -272.310167 
L 189.51662 -272.310169 
L 188.906673 -272.310161 
L 188.296726 -272.31016 
L 187.686779 -272.310161 
L 187.076832 -272.310161 
L 186.466885 -272.310166 
L 185.856937 -272.310168 
L 185.24699 -272.310162 
L 184.637043 -272.310166 
L 184.027096 -272.310165 
L 183.417149 -272.310169 
L 182.807202 -272.310163 
L 182.197254 -272.31016 
L 181.587307 -272.310167 
L 180.97736 -272.310162 
L 180.367413 -272.310163 
L 179.757466 -272.310149 
L 179.147519 -272.310166 
L 178.537571 -272.310161 
L 177.927624 -272.310127 
L 177.317677 -272.310133 
L 176.70773 -272.305421 
L 176.097783 -272.305416 
L 175.487836 -272.305436 
L 174.877888 -272.305439 
L 174.267941 -272.305413 
L 173.657994 -272.290838 
L 173.048047 -272.290835 
L 172.4381 -272.290835 
L 171.828153 -272.290838 
L 171.218205 -272.290832 
L 170.608258 -272.290829 
L 169.998311 -272.290831 
L 169.388364 -272.290819 
L 168.778417 -272.29082 
L 168.16847 -272.290796 
L 167.558522 -272.290793 
L 166.948575 -272.290831 
L 166.338628 -272.290826 
L 165.728681 -272.290835 
L 165.118734 -272.290807 
L 164.508787 -272.290787 
L 163.898839 -272.290786 
L 163.288892 -272.290796 
L 162.678945 -272.290804 
L 162.068998 -272.290794 
L 161.459051 -272.290792 
L 160.849104 -272.290786 
L 160.239156 -272.290785 
L 159.629209 -272.290784 
L 159.019262 -272.277329 
L 158.409315 -272.277336 
L 157.799368 -272.277338 
L 157.189421 -272.277337 
L 156.579473 -272.277336 
L 155.969526 -272.277335 
L 155.359579 -272.277336 
L 154.749632 -272.277334 
L 154.139685 -272.27733 
L 153.529738 -272.277336 
L 152.91979 -272.277333 
L 152.309843 -272.277337 
L 151.699896 -272.27733 
L 151.089949 -272.277336 
L 150.480002 -272.277326 
L 149.870055 -272.277314 
L 149.260107 -272.277317 
L 148.65016 -272.277331 
L 148.040213 -272.277304 
L 147.430266 -272.277297 
L 146.820319 -272.277316 
L 146.210372 -272.277319 
L 145.600424 -272.250888 
L 144.990477 -272.238976 
L 144.38053 -272.23899 
L 143.770583 -272.238986 
L 143.160636 -272.238967 
L 142.550689 -272.238996 
L 141.940741 -272.238994 
L 141.330794 -272.238956 
L 140.720847 -272.19216 
L 140.1109 -272.192155 
L 139.500953 -272.192158 
L 138.891006 -272.192177 
L 138.281058 -272.17811 
L 137.671111 -272.178135 
L 137.061164 -272.178145 
L 136.451217 -272.178119 
L 135.84127 -272.007338 
L 135.231323 -272.007372 
L 134.621375 -272.007329 
L 134.011428 -271.910718 
L 133.401481 -271.910724 
L 132.791534 -271.908005 
L 132.181587 -271.908008 
L 131.57164 -271.908001 
L 130.961692 -271.907994 
L 130.351745 -271.907999 
L 129.741798 -271.796836 
L 129.131851 -271.821395 
L 128.521904 -271.821394 
L 127.911957 -271.821394 
L 127.302009 -271.773519 
L 126.692062 -271.691547 
L 126.082115 -271.691534 
L 125.472168 -271.435534 
L 124.862221 -271.435534 
L 124.252274 -271.368548 
L 123.642326 -271.368535 
L 123.032379 -271.368507 
L 122.422432 -271.368522 
L 121.812485 -271.368535 
L 121.202538 -271.20203 
L 120.592591 -271.202054 
L 119.982643 -271.19028 
L 119.372696 -271.19028 
L 118.762749 -271.190282 
L 118.152802 -271.190282 
L 117.542855 -271.190278 
L 116.932908 -271.19028 
L 116.32296 -271.190279 
L 115.713013 -271.190277 
L 115.103066 -271.033516 
L 114.493119 -271.017513 
L 113.883172 -271.017495 
L 113.273225 -271.017521 
L 112.663277 -271.017494 
L 112.05333 -271.017487 
L 111.443383 -271.017485 
L 110.833436 -271.017518 
L 110.223489 -271.017521 
L 109.613542 -270.914431 
L 109.003594 -270.914447 
L 108.393647 -270.914453 
L 107.7837 -270.914445 
L 107.173753 -270.775925 
L 106.563806 -270.775926 
L 105.953859 -270.738375 
L 105.343911 -270.567317 
L 104.733964 -270.567317 
L 104.124017 -270.567317 
L 103.51407 -270.248351 
L 102.904123 -270.211269 
L 102.294176 -270.099661 
L 101.684228 -270.09963 
L 101.074281 -270.026095 
L 100.464334 -269.794138 
L 99.854387 -269.635107 
L 99.24444 -269.635106 
L 98.634493 -269.63511 
L 98.024545 -269.601433 
L 97.414598 -269.601433 
L 96.804651 -269.601432 
L 96.194704 -269.433981 
L 95.584757 -269.434004 
L 94.97481 -269.433972 
L 94.364862 -269.433974 
L 93.754915 -269.434002 
L 93.144968 -268.813082 
L 92.535021 -268.813073 
L 91.925074 -268.485837 
L 91.315127 -267.933846 
L 90.705179 -267.933843 
L 90.095232 -267.933842 
L 89.485285 -267.933848 
L 88.875338 -267.933851 
L 88.265391 -267.933846 
L 87.655444 -267.933847 
L 87.045496 -267.933845 
L 86.435549 -265.671342 
L 85.825602 -265.671342 
L 85.215655 -262.823824 
L 84.605708 -262.823827 
L 83.99576 -262.823829 
L 83.385813 -262.823834 
L 82.775866 -262.823828 
L 82.165919 -262.823832 
L 81.555972 -262.823811 
L 80.946025 -262.823826 
L 80.336077 -262.823826 
L 79.72613 -262.823803 
L 79.116183 -262.460144 
L 78.506236 -262.460142 
L 77.896289 -262.460169 
L 77.286342 -262.46014 
L 76.676394 -262.460167 
L 76.066447 -262.460142 
L 75.4565 -262.46014 
L 74.846553 -262.460157 
L 74.236606 -256.396248 
L 73.626659 -256.396112 
L 73.016711 -256.396673 
L 72.406764 -256.39686 
L 71.796817 -255.530568 
L 71.18687 -255.525691 
L 70.576923 -255.529789 
L 69.966976 -254.844491 
L 69.357028 -254.845261 
L 68.747081 -254.845918 
L 68.137134 -254.846736 
L 67.527187 -254.846074 
L 66.91724 -254.845582 
L 66.307293 -254.845151 
L 65.697345 -254.845009 
L 65.087398 -245.931794 
L 64.477451 -245.268628 
L 63.867504 -245.268608 
L 63.257557 -245.268623 
z
" style="stroke: #0000ff; stroke-opacity: 0.2"/>
    </defs>
    <g clip-path="url(#p02b7ebc649)">
     <use xlink:href="#md3a47f2011" x="0" y="287.4075" style="fill: #0000ff; fill-opacity: 0.2; stroke: #0000ff; stroke-opacity: 0.2"/>
    </g>
   </g>
   <g id="matplotlib.axis_1">
    <g id="xtick_1">
     <g id="line2d_1">
      <path d="M 63.257557 253.08 
L 63.257557 3.6 
" clip-path="url(#p02b7ebc649)" style="fill: none; stroke: #b0b0b0; stroke-width: 0.5; stroke-linecap: square"/>
     </g>
     <g id="line2d_2">
      <defs>
       <path id="m0c5b66a408" d="M 0 0 
L 0 -3 
" style="stroke: #000000; stroke-width: 0.5"/>
      </defs>
      <g>
       <use xlink:href="#m0c5b66a408" x="63.257557" y="253.08" style="stroke: #000000; stroke-width: 0.5"/>
      </g>
     </g>
     <g id="line2d_3">
      <defs>
       <path id="m65414551e7" d="M 0 0 
L 0 3 
" style="stroke: #000000; stroke-width: 0.5"/>
      </defs>
      <g>
       <use xlink:href="#m65414551e7" x="63.257557" y="3.6" style="stroke: #000000; stroke-width: 0.5"/>
      </g>
     </g>
     <g id="text_1">
      <!-- 0 -->
      <g transform="translate(59.440057 265.698125) scale(0.12 -0.12)">
       <defs>
        <path id="DejaVuSans-30" d="M 2034 4250 
Q 1547 4250 1301 3770 
Q 1056 3291 1056 2328 
Q 1056 1369 1301 889 
Q 1547 409 2034 409 
Q 2525 409 2770 889 
Q 3016 1369 3016 2328 
Q 3016 3291 2770 3770 
Q 2525 4250 2034 4250 
z
M 2034 4750 
Q 2819 4750 3233 4129 
Q 3647 3509 3647 2328 
Q 3647 1150 3233 529 
Q 2819 -91 2034 -91 
Q 1250 -91 836 529 
Q 422 1150 422 2328 
Q 422 3509 836 4129 
Q 1250 4750 2034 4750 
z
" transform="scale(0.015625)"/>
       </defs>
       <use xlink:href="#DejaVuSans-30"/>
      </g>
     </g>
    </g>
    <g id="xtick_2">
     <g id="line2d_4">
      <path d="M 124.252274 253.08 
L 124.252274 3.6 
" clip-path="url(#p02b7ebc649)" style="fill: none; stroke: #b0b0b0; stroke-width: 0.5; stroke-linecap: square"/>
     </g>
     <g id="line2d_5">
      <g>
       <use xlink:href="#m0c5b66a408" x="124.252274" y="253.08" style="stroke: #000000; stroke-width: 0.5"/>
      </g>
     </g>
     <g id="line2d_6">
      <g>
       <use xlink:href="#m65414551e7" x="124.252274" y="3.6" style="stroke: #000000; stroke-width: 0.5"/>
      </g>
     </g>
     <g id="text_2">
      <!-- 100 -->
      <g transform="translate(112.799774 265.698125) scale(0.12 -0.12)">
       <defs>
        <path id="DejaVuSans-31" d="M 794 531 
L 1825 531 
L 1825 4091 
L 703 3866 
L 703 4441 
L 1819 4666 
L 2450 4666 
L 2450 531 
L 3481 531 
L 3481 0 
L 794 0 
L 794 531 
z
" transform="scale(0.015625)"/>
       </defs>
       <use xlink:href="#DejaVuSans-31"/>
       <use xlink:href="#DejaVuSans-30" x="63.623047"/>
       <use xlink:href="#DejaVuSans-30" x="127.246094"/>
      </g>
     </g>
    </g>
    <g id="xtick_3">
     <g id="line2d_7">
      <path d="M 185.24699 253.08 
L 185.24699 3.6 
" clip-path="url(#p02b7ebc649)" style="fill: none; stroke: #b0b0b0; stroke-width: 0.5; stroke-linecap: square"/>
     </g>
     <g id="line2d_8">
      <g>
       <use xlink:href="#m0c5b66a408" x="185.24699" y="253.08" style="stroke: #000000; stroke-width: 0.5"/>
      </g>
     </g>
     <g id="line2d_9">
      <g>
       <use xlink:href="#m65414551e7" x="185.24699" y="3.6" style="stroke: #000000; stroke-width: 0.5"/>
      </g>
     </g>
     <g id="text_3">
      <!-- 200 -->
      <g transform="translate(173.79449 265.698125) scale(0.12 -0.12)">
       <defs>
        <path id="DejaVuSans-32" d="M 1228 531 
L 3431 531 
L 3431 0 
L 469 0 
L 469 531 
Q 828 903 1448 1529 
Q 2069 2156 2228 2338 
Q 2531 2678 2651 2914 
Q 2772 3150 2772 3378 
Q 2772 3750 2511 3984 
Q 2250 4219 1831 4219 
Q 1534 4219 1204 4116 
Q 875 4013 500 3803 
L 500 4441 
Q 881 4594 1212 4672 
Q 1544 4750 1819 4750 
Q 2544 4750 2975 4387 
Q 3406 4025 3406 3419 
Q 3406 3131 3298 2873 
Q 3191 2616 2906 2266 
Q 2828 2175 2409 1742 
Q 1991 1309 1228 531 
z
" transform="scale(0.015625)"/>
       </defs>
       <use xlink:href="#DejaVuSans-32"/>
       <use xlink:href="#DejaVuSans-30" x="63.623047"/>
       <use xlink:href="#DejaVuSans-30" x="127.246094"/>
      </g>
     </g>
    </g>
    <g id="xtick_4">
     <g id="line2d_10">
      <path d="M 246.241707 253.08 
L 246.241707 3.6 
" clip-path="url(#p02b7ebc649)" style="fill: none; stroke: #b0b0b0; stroke-width: 0.5; stroke-linecap: square"/>
     </g>
     <g id="line2d_11">
      <g>
       <use xlink:href="#m0c5b66a408" x="246.241707" y="253.08" style="stroke: #000000; stroke-width: 0.5"/>
      </g>
     </g>
     <g id="line2d_12">
      <g>
       <use xlink:href="#m65414551e7" x="246.241707" y="3.6" style="stroke: #000000; stroke-width: 0.5"/>
      </g>
     </g>
     <g id="text_4">
      <!-- 300 -->
      <g transform="translate(234.789207 265.698125) scale(0.12 -0.12)">
       <defs>
        <path id="DejaVuSans-33" d="M 2597 2516 
Q 3050 2419 3304 2112 
Q 3559 1806 3559 1356 
Q 3559 666 3084 287 
Q 2609 -91 1734 -91 
Q 1441 -91 1130 -33 
Q 819 25 488 141 
L 488 750 
Q 750 597 1062 519 
Q 1375 441 1716 441 
Q 2309 441 2620 675 
Q 2931 909 2931 1356 
Q 2931 1769 2642 2001 
Q 2353 2234 1838 2234 
L 1294 2234 
L 1294 2753 
L 1863 2753 
Q 2328 2753 2575 2939 
Q 2822 3125 2822 3475 
Q 2822 3834 2567 4026 
Q 2313 4219 1838 4219 
Q 1578 4219 1281 4162 
Q 984 4106 628 3988 
L 628 4550 
Q 988 4650 1302 4700 
Q 1616 4750 1894 4750 
Q 2613 4750 3031 4423 
Q 3450 4097 3450 3541 
Q 3450 3153 3228 2886 
Q 3006 2619 2597 2516 
z
" transform="scale(0.015625)"/>
       </defs>
       <use xlink:href="#DejaVuSans-33"/>
       <use xlink:href="#DejaVuSans-30" x="63.623047"/>
       <use xlink:href="#DejaVuSans-30" x="127.246094"/>
      </g>
     </g>
    </g>
    <g id="xtick_5">
     <g id="line2d_13">
      <path d="M 307.236424 253.08 
L 307.236424 3.6 
" clip-path="url(#p02b7ebc649)" style="fill: none; stroke: #b0b0b0; stroke-width: 0.5; stroke-linecap: square"/>
     </g>
     <g id="line2d_14">
      <g>
       <use xlink:href="#m0c5b66a408" x="307.236424" y="253.08" style="stroke: #000000; stroke-width: 0.5"/>
      </g>
     </g>
     <g id="line2d_15">
      <g>
       <use xlink:href="#m65414551e7" x="307.236424" y="3.6" style="stroke: #000000; stroke-width: 0.5"/>
      </g>
     </g>
     <g id="text_5">
      <!-- 400 -->
      <g transform="translate(295.783924 265.698125) scale(0.12 -0.12)">
       <defs>
        <path id="DejaVuSans-34" d="M 2419 4116 
L 825 1625 
L 2419 1625 
L 2419 4116 
z
M 2253 4666 
L 3047 4666 
L 3047 1625 
L 3713 1625 
L 3713 1100 
L 3047 1100 
L 3047 0 
L 2419 0 
L 2419 1100 
L 313 1100 
L 313 1709 
L 2253 4666 
z
" transform="scale(0.015625)"/>
       </defs>
       <use xlink:href="#DejaVuSans-34"/>
       <use xlink:href="#DejaVuSans-30" x="63.623047"/>
       <use xlink:href="#DejaVuSans-30" x="127.246094"/>
      </g>
     </g>
    </g>
    <g id="xtick_6">
     <g id="line2d_16">
      <path d="M 368.23114 253.08 
L 368.23114 3.6 
" clip-path="url(#p02b7ebc649)" style="fill: none; stroke: #b0b0b0; stroke-width: 0.5; stroke-linecap: square"/>
     </g>
     <g id="line2d_17">
      <g>
       <use xlink:href="#m0c5b66a408" x="368.23114" y="253.08" style="stroke: #000000; stroke-width: 0.5"/>
      </g>
     </g>
     <g id="line2d_18">
      <g>
       <use xlink:href="#m65414551e7" x="368.23114" y="3.6" style="stroke: #000000; stroke-width: 0.5"/>
      </g>
     </g>
     <g id="text_6">
      <!-- 500 -->
      <g transform="translate(356.77864 265.698125) scale(0.12 -0.12)">
       <defs>
        <path id="DejaVuSans-35" d="M 691 4666 
L 3169 4666 
L 3169 4134 
L 1269 4134 
L 1269 2991 
Q 1406 3038 1543 3061 
Q 1681 3084 1819 3084 
Q 2600 3084 3056 2656 
Q 3513 2228 3513 1497 
Q 3513 744 3044 326 
Q 2575 -91 1722 -91 
Q 1428 -91 1123 -41 
Q 819 9 494 109 
L 494 744 
Q 775 591 1075 516 
Q 1375 441 1709 441 
Q 2250 441 2565 725 
Q 2881 1009 2881 1497 
Q 2881 1984 2565 2268 
Q 2250 2553 1709 2553 
Q 1456 2553 1204 2497 
Q 953 2441 691 2322 
L 691 4666 
z
" transform="scale(0.015625)"/>
       </defs>
       <use xlink:href="#DejaVuSans-35"/>
       <use xlink:href="#DejaVuSans-30" x="63.623047"/>
       <use xlink:href="#DejaVuSans-30" x="127.246094"/>
      </g>
     </g>
    </g>
    <g id="xtick_7">
     <g id="line2d_19">
      <defs>
       <path id="m937fd16808" d="M 0 0 
L 0 -1.5 
" style="stroke: #000000; stroke-width: 0.5"/>
      </defs>
      <g>
       <use xlink:href="#m937fd16808" x="51.058613" y="253.08" style="stroke: #000000; stroke-width: 0.5"/>
      </g>
     </g>
     <g id="line2d_20">
      <defs>
       <path id="m6919d85dd4" d="M 0 0 
L 0 1.5 
" style="stroke: #000000; stroke-width: 0.5"/>
      </defs>
      <g>
       <use xlink:href="#m6919d85dd4" x="51.058613" y="3.6" style="stroke: #000000; stroke-width: 0.5"/>
      </g>
     </g>
    </g>
    <g id="xtick_8">
     <g id="line2d_21">
      <g>
       <use xlink:href="#m937fd16808" x="75.4565" y="253.08" style="stroke: #000000; stroke-width: 0.5"/>
      </g>
     </g>
     <g id="line2d_22">
      <g>
       <use xlink:href="#m6919d85dd4" x="75.4565" y="3.6" style="stroke: #000000; stroke-width: 0.5"/>
      </g>
     </g>
    </g>
    <g id="xtick_9">
     <g id="line2d_23">
      <g>
       <use xlink:href="#m937fd16808" x="87.655444" y="253.08" style="stroke: #000000; stroke-width: 0.5"/>
      </g>
     </g>
     <g id="line2d_24">
      <g>
       <use xlink:href="#m6919d85dd4" x="87.655444" y="3.6" style="stroke: #000000; stroke-width: 0.5"/>
      </g>
     </g>
    </g>
    <g id="xtick_10">
     <g id="line2d_25">
      <g>
       <use xlink:href="#m937fd16808" x="99.854387" y="253.08" style="stroke: #000000; stroke-width: 0.5"/>
      </g>
     </g>
     <g id="line2d_26">
      <g>
       <use xlink:href="#m6919d85dd4" x="99.854387" y="3.6" style="stroke: #000000; stroke-width: 0.5"/>
      </g>
     </g>
    </g>
    <g id="xtick_11">
     <g id="line2d_27">
      <g>
       <use xlink:href="#m937fd16808" x="112.05333" y="253.08" style="stroke: #000000; stroke-width: 0.5"/>
      </g>
     </g>
     <g id="line2d_28">
      <g>
       <use xlink:href="#m6919d85dd4" x="112.05333" y="3.6" style="stroke: #000000; stroke-width: 0.5"/>
      </g>
     </g>
    </g>
    <g id="xtick_12">
     <g id="line2d_29">
      <g>
       <use xlink:href="#m937fd16808" x="136.451217" y="253.08" style="stroke: #000000; stroke-width: 0.5"/>
      </g>
     </g>
     <g id="line2d_30">
      <g>
       <use xlink:href="#m6919d85dd4" x="136.451217" y="3.6" style="stroke: #000000; stroke-width: 0.5"/>
      </g>
     </g>
    </g>
    <g id="xtick_13">
     <g id="line2d_31">
      <g>
       <use xlink:href="#m937fd16808" x="148.65016" y="253.08" style="stroke: #000000; stroke-width: 0.5"/>
      </g>
     </g>
     <g id="line2d_32">
      <g>
       <use xlink:href="#m6919d85dd4" x="148.65016" y="3.6" style="stroke: #000000; stroke-width: 0.5"/>
      </g>
     </g>
    </g>
    <g id="xtick_14">
     <g id="line2d_33">
      <g>
       <use xlink:href="#m937fd16808" x="160.849104" y="253.08" style="stroke: #000000; stroke-width: 0.5"/>
      </g>
     </g>
     <g id="line2d_34">
      <g>
       <use xlink:href="#m6919d85dd4" x="160.849104" y="3.6" style="stroke: #000000; stroke-width: 0.5"/>
      </g>
     </g>
    </g>
    <g id="xtick_15">
     <g id="line2d_35">
      <g>
       <use xlink:href="#m937fd16808" x="173.048047" y="253.08" style="stroke: #000000; stroke-width: 0.5"/>
      </g>
     </g>
     <g id="line2d_36">
      <g>
       <use xlink:href="#m6919d85dd4" x="173.048047" y="3.6" style="stroke: #000000; stroke-width: 0.5"/>
      </g>
     </g>
    </g>
    <g id="xtick_16">
     <g id="line2d_37">
      <g>
       <use xlink:href="#m937fd16808" x="197.445934" y="253.08" style="stroke: #000000; stroke-width: 0.5"/>
      </g>
     </g>
     <g id="line2d_38">
      <g>
       <use xlink:href="#m6919d85dd4" x="197.445934" y="3.6" style="stroke: #000000; stroke-width: 0.5"/>
      </g>
     </g>
    </g>
    <g id="xtick_17">
     <g id="line2d_39">
      <g>
       <use xlink:href="#m937fd16808" x="209.644877" y="253.08" style="stroke: #000000; stroke-width: 0.5"/>
      </g>
     </g>
     <g id="line2d_40">
      <g>
       <use xlink:href="#m6919d85dd4" x="209.644877" y="3.6" style="stroke: #000000; stroke-width: 0.5"/>
      </g>
     </g>
    </g>
    <g id="xtick_18">
     <g id="line2d_41">
      <g>
       <use xlink:href="#m937fd16808" x="221.84382" y="253.08" style="stroke: #000000; stroke-width: 0.5"/>
      </g>
     </g>
     <g id="line2d_42">
      <g>
       <use xlink:href="#m6919d85dd4" x="221.84382" y="3.6" style="stroke: #000000; stroke-width: 0.5"/>
      </g>
     </g>
    </g>
    <g id="xtick_19">
     <g id="line2d_43">
      <g>
       <use xlink:href="#m937fd16808" x="234.042764" y="253.08" style="stroke: #000000; stroke-width: 0.5"/>
      </g>
     </g>
     <g id="line2d_44">
      <g>
       <use xlink:href="#m6919d85dd4" x="234.042764" y="3.6" style="stroke: #000000; stroke-width: 0.5"/>
      </g>
     </g>
    </g>
    <g id="xtick_20">
     <g id="line2d_45">
      <g>
       <use xlink:href="#m937fd16808" x="258.44065" y="253.08" style="stroke: #000000; stroke-width: 0.5"/>
      </g>
     </g>
     <g id="line2d_46">
      <g>
       <use xlink:href="#m6919d85dd4" x="258.44065" y="3.6" style="stroke: #000000; stroke-width: 0.5"/>
      </g>
     </g>
    </g>
    <g id="xtick_21">
     <g id="line2d_47">
      <g>
       <use xlink:href="#m937fd16808" x="270.639594" y="253.08" style="stroke: #000000; stroke-width: 0.5"/>
      </g>
     </g>
     <g id="line2d_48">
      <g>
       <use xlink:href="#m6919d85dd4" x="270.639594" y="3.6" style="stroke: #000000; stroke-width: 0.5"/>
      </g>
     </g>
    </g>
    <g id="xtick_22">
     <g id="line2d_49">
      <g>
       <use xlink:href="#m937fd16808" x="282.838537" y="253.08" style="stroke: #000000; stroke-width: 0.5"/>
      </g>
     </g>
     <g id="line2d_50">
      <g>
       <use xlink:href="#m6919d85dd4" x="282.838537" y="3.6" style="stroke: #000000; stroke-width: 0.5"/>
      </g>
     </g>
    </g>
    <g id="xtick_23">
     <g id="line2d_51">
      <g>
       <use xlink:href="#m937fd16808" x="295.03748" y="253.08" style="stroke: #000000; stroke-width: 0.5"/>
      </g>
     </g>
     <g id="line2d_52">
      <g>
       <use xlink:href="#m6919d85dd4" x="295.03748" y="3.6" style="stroke: #000000; stroke-width: 0.5"/>
      </g>
     </g>
    </g>
    <g id="xtick_24">
     <g id="line2d_53">
      <g>
       <use xlink:href="#m937fd16808" x="319.435367" y="253.08" style="stroke: #000000; stroke-width: 0.5"/>
      </g>
     </g>
     <g id="line2d_54">
      <g>
       <use xlink:href="#m6919d85dd4" x="319.435367" y="3.6" style="stroke: #000000; stroke-width: 0.5"/>
      </g>
     </g>
    </g>
    <g id="xtick_25">
     <g id="line2d_55">
      <g>
       <use xlink:href="#m937fd16808" x="331.63431" y="253.08" style="stroke: #000000; stroke-width: 0.5"/>
      </g>
     </g>
     <g id="line2d_56">
      <g>
       <use xlink:href="#m6919d85dd4" x="331.63431" y="3.6" style="stroke: #000000; stroke-width: 0.5"/>
      </g>
     </g>
    </g>
    <g id="xtick_26">
     <g id="line2d_57">
      <g>
       <use xlink:href="#m937fd16808" x="343.833254" y="253.08" style="stroke: #000000; stroke-width: 0.5"/>
      </g>
     </g>
     <g id="line2d_58">
      <g>
       <use xlink:href="#m6919d85dd4" x="343.833254" y="3.6" style="stroke: #000000; stroke-width: 0.5"/>
      </g>
     </g>
    </g>
    <g id="xtick_27">
     <g id="line2d_59">
      <g>
       <use xlink:href="#m937fd16808" x="356.032197" y="253.08" style="stroke: #000000; stroke-width: 0.5"/>
      </g>
     </g>
     <g id="line2d_60">
      <g>
       <use xlink:href="#m6919d85dd4" x="356.032197" y="3.6" style="stroke: #000000; stroke-width: 0.5"/>
      </g>
     </g>
    </g>
    <g id="xtick_28">
     <g id="line2d_61">
      <g>
       <use xlink:href="#m937fd16808" x="380.430084" y="253.08" style="stroke: #000000; stroke-width: 0.5"/>
      </g>
     </g>
     <g id="line2d_62">
      <g>
       <use xlink:href="#m6919d85dd4" x="380.430084" y="3.6" style="stroke: #000000; stroke-width: 0.5"/>
      </g>
     </g>
    </g>
    <g id="text_7">
     <!-- Generations -->
     <g transform="translate(178.842188 281.311875) scale(0.12 -0.12)">
      <defs>
       <path id="DejaVuSans-47" d="M 3809 666 
L 3809 1919 
L 2778 1919 
L 2778 2438 
L 4434 2438 
L 4434 434 
Q 4069 175 3628 42 
Q 3188 -91 2688 -91 
Q 1594 -91 976 548 
Q 359 1188 359 2328 
Q 359 3472 976 4111 
Q 1594 4750 2688 4750 
Q 3144 4750 3555 4637 
Q 3966 4525 4313 4306 
L 4313 3634 
Q 3963 3931 3569 4081 
Q 3175 4231 2741 4231 
Q 1884 4231 1454 3753 
Q 1025 3275 1025 2328 
Q 1025 1384 1454 906 
Q 1884 428 2741 428 
Q 3075 428 3337 486 
Q 3600 544 3809 666 
z
" transform="scale(0.015625)"/>
       <path id="DejaVuSans-65" d="M 3597 1894 
L 3597 1613 
L 953 1613 
Q 991 1019 1311 708 
Q 1631 397 2203 397 
Q 2534 397 2845 478 
Q 3156 559 3463 722 
L 3463 178 
Q 3153 47 2828 -22 
Q 2503 -91 2169 -91 
Q 1331 -91 842 396 
Q 353 884 353 1716 
Q 353 2575 817 3079 
Q 1281 3584 2069 3584 
Q 2775 3584 3186 3129 
Q 3597 2675 3597 1894 
z
M 3022 2063 
Q 3016 2534 2758 2815 
Q 2500 3097 2075 3097 
Q 1594 3097 1305 2825 
Q 1016 2553 972 2059 
L 3022 2063 
z
" transform="scale(0.015625)"/>
       <path id="DejaVuSans-6e" d="M 3513 2113 
L 3513 0 
L 2938 0 
L 2938 2094 
Q 2938 2591 2744 2837 
Q 2550 3084 2163 3084 
Q 1697 3084 1428 2787 
Q 1159 2491 1159 1978 
L 1159 0 
L 581 0 
L 581 3500 
L 1159 3500 
L 1159 2956 
Q 1366 3272 1645 3428 
Q 1925 3584 2291 3584 
Q 2894 3584 3203 3211 
Q 3513 2838 3513 2113 
z
" transform="scale(0.015625)"/>
       <path id="DejaVuSans-72" d="M 2631 2963 
Q 2534 3019 2420 3045 
Q 2306 3072 2169 3072 
Q 1681 3072 1420 2755 
Q 1159 2438 1159 1844 
L 1159 0 
L 581 0 
L 581 3500 
L 1159 3500 
L 1159 2956 
Q 1341 3275 1631 3429 
Q 1922 3584 2338 3584 
Q 2397 3584 2469 3576 
Q 2541 3569 2628 3553 
L 2631 2963 
z
" transform="scale(0.015625)"/>
       <path id="DejaVuSans-61" d="M 2194 1759 
Q 1497 1759 1228 1600 
Q 959 1441 959 1056 
Q 959 750 1161 570 
Q 1363 391 1709 391 
Q 2188 391 2477 730 
Q 2766 1069 2766 1631 
L 2766 1759 
L 2194 1759 
z
M 3341 1997 
L 3341 0 
L 2766 0 
L 2766 531 
Q 2569 213 2275 61 
Q 1981 -91 1556 -91 
Q 1019 -91 701 211 
Q 384 513 384 1019 
Q 384 1609 779 1909 
Q 1175 2209 1959 2209 
L 2766 2209 
L 2766 2266 
Q 2766 2663 2505 2880 
Q 2244 3097 1772 3097 
Q 1472 3097 1187 3025 
Q 903 2953 641 2809 
L 641 3341 
Q 956 3463 1253 3523 
Q 1550 3584 1831 3584 
Q 2591 3584 2966 3190 
Q 3341 2797 3341 1997 
z
" transform="scale(0.015625)"/>
       <path id="DejaVuSans-74" d="M 1172 4494 
L 1172 3500 
L 2356 3500 
L 2356 3053 
L 1172 3053 
L 1172 1153 
Q 1172 725 1289 603 
Q 1406 481 1766 481 
L 2356 481 
L 2356 0 
L 1766 0 
Q 1100 0 847 248 
Q 594 497 594 1153 
L 594 3053 
L 172 3053 
L 172 3500 
L 594 3500 
L 594 4494 
L 1172 4494 
z
" transform="scale(0.015625)"/>
       <path id="DejaVuSans-69" d="M 603 3500 
L 1178 3500 
L 1178 0 
L 603 0 
L 603 3500 
z
M 603 4863 
L 1178 4863 
L 1178 4134 
L 603 4134 
L 603 4863 
z
" transform="scale(0.015625)"/>
       <path id="DejaVuSans-6f" d="M 1959 3097 
Q 1497 3097 1228 2736 
Q 959 2375 959 1747 
Q 959 1119 1226 758 
Q 1494 397 1959 397 
Q 2419 397 2687 759 
Q 2956 1122 2956 1747 
Q 2956 2369 2687 2733 
Q 2419 3097 1959 3097 
z
M 1959 3584 
Q 2709 3584 3137 3096 
Q 3566 2609 3566 1747 
Q 3566 888 3137 398 
Q 2709 -91 1959 -91 
Q 1206 -91 779 398 
Q 353 888 353 1747 
Q 353 2609 779 3096 
Q 1206 3584 1959 3584 
z
" transform="scale(0.015625)"/>
       <path id="DejaVuSans-73" d="M 2834 3397 
L 2834 2853 
Q 2591 2978 2328 3040 
Q 2066 3103 1784 3103 
Q 1356 3103 1142 2972 
Q 928 2841 928 2578 
Q 928 2378 1081 2264 
Q 1234 2150 1697 2047 
L 1894 2003 
Q 2506 1872 2764 1633 
Q 3022 1394 3022 966 
Q 3022 478 2636 193 
Q 2250 -91 1575 -91 
Q 1294 -91 989 -36 
Q 684 19 347 128 
L 347 722 
Q 666 556 975 473 
Q 1284 391 1588 391 
Q 1994 391 2212 530 
Q 2431 669 2431 922 
Q 2431 1156 2273 1281 
Q 2116 1406 1581 1522 
L 1381 1569 
Q 847 1681 609 1914 
Q 372 2147 372 2553 
Q 372 3047 722 3315 
Q 1072 3584 1716 3584 
Q 2034 3584 2315 3537 
Q 2597 3491 2834 3397 
z
" transform="scale(0.015625)"/>
      </defs>
      <use xlink:href="#DejaVuSans-47"/>
      <use xlink:href="#DejaVuSans-65" x="77.490234"/>
      <use xlink:href="#DejaVuSans-6e" x="139.013672"/>
      <use xlink:href="#DejaVuSans-65" x="202.392578"/>
      <use xlink:href="#DejaVuSans-72" x="263.916016"/>
      <use xlink:href="#DejaVuSans-61" x="305.029297"/>
      <use xlink:href="#DejaVuSans-74" x="366.308594"/>
      <use xlink:href="#DejaVuSans-69" x="405.517578"/>
      <use xlink:href="#DejaVuSans-6f" x="433.300781"/>
      <use xlink:href="#DejaVuSans-6e" x="494.482422"/>
      <use xlink:href="#DejaVuSans-73" x="557.861328"/>
     </g>
    </g>
   </g>
   <g id="matplotlib.axis_2">
    <g id="ytick_1">
     <g id="line2d_63">
      <path d="M 48.039375 244.296936 
L 382.839375 244.296936 
" clip-path="url(#p02b7ebc649)" style="fill: none; stroke: #b0b0b0; stroke-width: 0.5; stroke-linecap: square"/>
     </g>
     <g id="line2d_64">
      <defs>
       <path id="m7a042ea817" d="M 0 0 
L 3 0 
" style="stroke: #000000; stroke-width: 0.5"/>
      </defs>
      <g>
       <use xlink:href="#m7a042ea817" x="48.039375" y="244.296936" style="stroke: #000000; stroke-width: 0.5"/>
      </g>
     </g>
     <g id="line2d_65">
      <defs>
       <path id="m8395ffbe4a" d="M 0 0 
L -3 0 
" style="stroke: #000000; stroke-width: 0.5"/>
      </defs>
      <g>
       <use xlink:href="#m8395ffbe4a" x="382.839375" y="244.296936" style="stroke: #000000; stroke-width: 0.5"/>
      </g>
     </g>
     <g id="text_8">
      <!-- −60 -->
      <g transform="translate(19.21375 248.855998) scale(0.12 -0.12)">
       <defs>
        <path id="DejaVuSans-2212" d="M 678 2272 
L 4684 2272 
L 4684 1741 
L 678 1741 
L 678 2272 
z
" transform="scale(0.015625)"/>
        <path id="DejaVuSans-36" d="M 2113 2584 
Q 1688 2584 1439 2293 
Q 1191 2003 1191 1497 
Q 1191 994 1439 701 
Q 1688 409 2113 409 
Q 2538 409 2786 701 
Q 3034 994 3034 1497 
Q 3034 2003 2786 2293 
Q 2538 2584 2113 2584 
z
M 3366 4563 
L 3366 3988 
Q 3128 4100 2886 4159 
Q 2644 4219 2406 4219 
Q 1781 4219 1451 3797 
Q 1122 3375 1075 2522 
Q 1259 2794 1537 2939 
Q 1816 3084 2150 3084 
Q 2853 3084 3261 2657 
Q 3669 2231 3669 1497 
Q 3669 778 3244 343 
Q 2819 -91 2113 -91 
Q 1303 -91 875 529 
Q 447 1150 447 2328 
Q 447 3434 972 4092 
Q 1497 4750 2381 4750 
Q 2619 4750 2861 4703 
Q 3103 4656 3366 4563 
z
" transform="scale(0.015625)"/>
       </defs>
       <use xlink:href="#DejaVuSans-2212"/>
       <use xlink:href="#DejaVuSans-36" x="83.789062"/>
       <use xlink:href="#DejaVuSans-30" x="147.412109"/>
      </g>
     </g>
    </g>
    <g id="ytick_2">
     <g id="line2d_66">
      <path d="M 48.039375 189.610993 
L 382.839375 189.610993 
" clip-path="url(#p02b7ebc649)" style="fill: none; stroke: #b0b0b0; stroke-width: 0.5; stroke-linecap: square"/>
     </g>
     <g id="line2d_67">
      <g>
       <use xlink:href="#m7a042ea817" x="48.039375" y="189.610993" style="stroke: #000000; stroke-width: 0.5"/>
      </g>
     </g>
     <g id="line2d_68">
      <g>
       <use xlink:href="#m8395ffbe4a" x="382.839375" y="189.610993" style="stroke: #000000; stroke-width: 0.5"/>
      </g>
     </g>
     <g id="text_9">
      <!-- −40 -->
      <g transform="translate(19.21375 194.170056) scale(0.12 -0.12)">
       <use xlink:href="#DejaVuSans-2212"/>
       <use xlink:href="#DejaVuSans-34" x="83.789062"/>
       <use xlink:href="#DejaVuSans-30" x="147.412109"/>
      </g>
     </g>
    </g>
    <g id="ytick_3">
     <g id="line2d_69">
      <path d="M 48.039375 134.92505 
L 382.839375 134.92505 
" clip-path="url(#p02b7ebc649)" style="fill: none; stroke: #b0b0b0; stroke-width: 0.5; stroke-linecap: square"/>
     </g>
     <g id="line2d_70">
      <g>
       <use xlink:href="#m7a042ea817" x="48.039375" y="134.92505" style="stroke: #000000; stroke-width: 0.5"/>
      </g>
     </g>
     <g id="line2d_71">
      <g>
       <use xlink:href="#m8395ffbe4a" x="382.839375" y="134.92505" style="stroke: #000000; stroke-width: 0.5"/>
      </g>
     </g>
     <g id="text_10">
      <!-- −20 -->
      <g transform="translate(19.21375 139.484113) scale(0.12 -0.12)">
       <use xlink:href="#DejaVuSans-2212"/>
       <use xlink:href="#DejaVuSans-32" x="83.789062"/>
       <use xlink:href="#DejaVuSans-30" x="147.412109"/>
      </g>
     </g>
    </g>
    <g id="ytick_4">
     <g id="line2d_72">
      <path d="M 48.039375 80.239108 
L 382.839375 80.239108 
" clip-path="url(#p02b7ebc649)" style="fill: none; stroke: #b0b0b0; stroke-width: 0.5; stroke-linecap: square"/>
     </g>
     <g id="line2d_73">
      <g>
       <use xlink:href="#m7a042ea817" x="48.039375" y="80.239108" style="stroke: #000000; stroke-width: 0.5"/>
      </g>
     </g>
     <g id="line2d_74">
      <g>
       <use xlink:href="#m8395ffbe4a" x="382.839375" y="80.239108" style="stroke: #000000; stroke-width: 0.5"/>
      </g>
     </g>
     <g id="text_11">
      <!-- 0 -->
      <g transform="translate(36.904375 84.79817) scale(0.12 -0.12)">
       <use xlink:href="#DejaVuSans-30"/>
      </g>
     </g>
    </g>
    <g id="ytick_5">
     <g id="line2d_75">
      <path d="M 48.039375 25.553165 
L 382.839375 25.553165 
" clip-path="url(#p02b7ebc649)" style="fill: none; stroke: #b0b0b0; stroke-width: 0.5; stroke-linecap: square"/>
     </g>
     <g id="line2d_76">
      <g>
       <use xlink:href="#m7a042ea817" x="48.039375" y="25.553165" style="stroke: #000000; stroke-width: 0.5"/>
      </g>
     </g>
     <g id="line2d_77">
      <g>
       <use xlink:href="#m8395ffbe4a" x="382.839375" y="25.553165" style="stroke: #000000; stroke-width: 0.5"/>
      </g>
     </g>
     <g id="text_12">
      <!-- 20 -->
      <g transform="translate(29.269375 30.112228) scale(0.12 -0.12)">
       <use xlink:href="#DejaVuSans-32"/>
       <use xlink:href="#DejaVuSans-30" x="63.623047"/>
      </g>
     </g>
    </g>
    <g id="ytick_6">
     <g id="line2d_78">
      <defs>
       <path id="m258080dd12" d="M 0 0 
L 1.5 0 
" style="stroke: #000000; stroke-width: 0.5"/>
      </defs>
      <g>
       <use xlink:href="#m258080dd12" x="48.039375" y="230.62545" style="stroke: #000000; stroke-width: 0.5"/>
      </g>
     </g>
     <g id="line2d_79">
      <defs>
       <path id="mf616787fbb" d="M 0 0 
L -1.5 0 
" style="stroke: #000000; stroke-width: 0.5"/>
      </defs>
      <g>
       <use xlink:href="#mf616787fbb" x="382.839375" y="230.62545" style="stroke: #000000; stroke-width: 0.5"/>
      </g>
     </g>
    </g>
    <g id="ytick_7">
     <g id="line2d_80">
      <g>
       <use xlink:href="#m258080dd12" x="48.039375" y="216.953964" style="stroke: #000000; stroke-width: 0.5"/>
      </g>
     </g>
     <g id="line2d_81">
      <g>
       <use xlink:href="#mf616787fbb" x="382.839375" y="216.953964" style="stroke: #000000; stroke-width: 0.5"/>
      </g>
     </g>
    </g>
    <g id="ytick_8">
     <g id="line2d_82">
      <g>
       <use xlink:href="#m258080dd12" x="48.039375" y="203.282479" style="stroke: #000000; stroke-width: 0.5"/>
      </g>
     </g>
     <g id="line2d_83">
      <g>
       <use xlink:href="#mf616787fbb" x="382.839375" y="203.282479" style="stroke: #000000; stroke-width: 0.5"/>
      </g>
     </g>
    </g>
    <g id="ytick_9">
     <g id="line2d_84">
      <g>
       <use xlink:href="#m258080dd12" x="48.039375" y="175.939507" style="stroke: #000000; stroke-width: 0.5"/>
      </g>
     </g>
     <g id="line2d_85">
      <g>
       <use xlink:href="#mf616787fbb" x="382.839375" y="175.939507" style="stroke: #000000; stroke-width: 0.5"/>
      </g>
     </g>
    </g>
    <g id="ytick_10">
     <g id="line2d_86">
      <g>
       <use xlink:href="#m258080dd12" x="48.039375" y="162.268022" style="stroke: #000000; stroke-width: 0.5"/>
      </g>
     </g>
     <g id="line2d_87">
      <g>
       <use xlink:href="#mf616787fbb" x="382.839375" y="162.268022" style="stroke: #000000; stroke-width: 0.5"/>
      </g>
     </g>
    </g>
    <g id="ytick_11">
     <g id="line2d_88">
      <g>
       <use xlink:href="#m258080dd12" x="48.039375" y="148.596536" style="stroke: #000000; stroke-width: 0.5"/>
      </g>
     </g>
     <g id="line2d_89">
      <g>
       <use xlink:href="#mf616787fbb" x="382.839375" y="148.596536" style="stroke: #000000; stroke-width: 0.5"/>
      </g>
     </g>
    </g>
    <g id="ytick_12">
     <g id="line2d_90">
      <g>
       <use xlink:href="#m258080dd12" x="48.039375" y="121.253565" style="stroke: #000000; stroke-width: 0.5"/>
      </g>
     </g>
     <g id="line2d_91">
      <g>
       <use xlink:href="#mf616787fbb" x="382.839375" y="121.253565" style="stroke: #000000; stroke-width: 0.5"/>
      </g>
     </g>
    </g>
    <g id="ytick_13">
     <g id="line2d_92">
      <g>
       <use xlink:href="#m258080dd12" x="48.039375" y="107.582079" style="stroke: #000000; stroke-width: 0.5"/>
      </g>
     </g>
     <g id="line2d_93">
      <g>
       <use xlink:href="#mf616787fbb" x="382.839375" y="107.582079" style="stroke: #000000; stroke-width: 0.5"/>
      </g>
     </g>
    </g>
    <g id="ytick_14">
     <g id="line2d_94">
      <g>
       <use xlink:href="#m258080dd12" x="48.039375" y="93.910594" style="stroke: #000000; stroke-width: 0.5"/>
      </g>
     </g>
     <g id="line2d_95">
      <g>
       <use xlink:href="#mf616787fbb" x="382.839375" y="93.910594" style="stroke: #000000; stroke-width: 0.5"/>
      </g>
     </g>
    </g>
    <g id="ytick_15">
     <g id="line2d_96">
      <g>
       <use xlink:href="#m258080dd12" x="48.039375" y="66.567622" style="stroke: #000000; stroke-width: 0.5"/>
      </g>
     </g>
     <g id="line2d_97">
      <g>
       <use xlink:href="#mf616787fbb" x="382.839375" y="66.567622" style="stroke: #000000; stroke-width: 0.5"/>
      </g>
     </g>
    </g>
    <g id="ytick_16">
     <g id="line2d_98">
      <g>
       <use xlink:href="#m258080dd12" x="48.039375" y="52.896137" style="stroke: #000000; stroke-width: 0.5"/>
      </g>
     </g>
     <g id="line2d_99">
      <g>
       <use xlink:href="#mf616787fbb" x="382.839375" y="52.896137" style="stroke: #000000; stroke-width: 0.5"/>
      </g>
     </g>
    </g>
    <g id="ytick_17">
     <g id="line2d_100">
      <g>
       <use xlink:href="#m258080dd12" x="48.039375" y="39.224651" style="stroke: #000000; stroke-width: 0.5"/>
      </g>
     </g>
     <g id="line2d_101">
      <g>
       <use xlink:href="#mf616787fbb" x="382.839375" y="39.224651" style="stroke: #000000; stroke-width: 0.5"/>
      </g>
     </g>
    </g>
    <g id="ytick_18">
     <g id="line2d_102">
      <g>
       <use xlink:href="#m258080dd12" x="48.039375" y="11.88168" style="stroke: #000000; stroke-width: 0.5"/>
      </g>
     </g>
     <g id="line2d_103">
      <g>
       <use xlink:href="#mf616787fbb" x="382.839375" y="11.88168" style="stroke: #000000; stroke-width: 0.5"/>
      </g>
     </g>
    </g>
    <g id="text_13">
     <!-- Fitness -->
     <g transform="translate(12.718125 149.120625) rotate(-90) scale(0.12 -0.12)">
      <defs>
       <path id="DejaVuSans-46" d="M 628 4666 
L 3309 4666 
L 3309 4134 
L 1259 4134 
L 1259 2759 
L 3109 2759 
L 3109 2228 
L 1259 2228 
L 1259 0 
L 628 0 
L 628 4666 
z
" transform="scale(0.015625)"/>
      </defs>
      <use xlink:href="#DejaVuSans-46"/>
      <use xlink:href="#DejaVuSans-69" x="50.269531"/>
      <use xlink:href="#DejaVuSans-74" x="78.052734"/>
      <use xlink:href="#DejaVuSans-6e" x="117.261719"/>
      <use xlink:href="#DejaVuSans-65" x="180.640625"/>
      <use xlink:href="#DejaVuSans-73" x="242.164062"/>
      <use xlink:href="#DejaVuSans-73" x="294.263672"/>
     </g>
    </g>
   </g>
   <g id="line2d_104">
    <path d="M 63.257557 42.138877 
L 64.477451 42.138872 
L 65.087398 41.475706 
L 65.697345 32.562491 
L 69.966976 32.563009 
L 70.576923 31.877711 
L 71.796817 31.876932 
L 72.406764 31.01064 
L 74.236606 31.011252 
L 74.846553 24.947343 
L 79.116183 24.947356 
L 79.72613 24.583697 
L 85.215655 24.583676 
L 85.825602 21.736158 
L 86.435549 21.736158 
L 87.045496 19.473655 
L 91.315127 19.473654 
L 91.925074 18.921663 
L 92.535021 18.594427 
L 93.144968 18.594418 
L 93.754915 17.973498 
L 96.194704 17.973519 
L 96.804651 17.806068 
L 99.854387 17.772393 
L 101.684228 17.30787 
L 102.294176 17.307839 
L 103.51407 17.159149 
L 104.124017 16.840183 
L 105.343911 16.840183 
L 105.953859 16.669125 
L 112.05333 16.390013 
L 115.103066 16.373984 
L 115.713013 16.217223 
L 121.202538 16.20547 
L 121.812485 16.038965 
L 125.472168 15.971966 
L 126.082115 15.715966 
L 127.302009 15.633981 
L 129.131851 15.586105 
L 129.741798 15.610664 
L 130.961692 15.499506 
L 135.84127 15.400162 
L 136.451217 15.229381 
L 159.019262 15.130171 
L 164.508787 15.116713 
L 199.275775 15.038229 
L 201.105617 14.995298 
L 367.621193 14.940005 
L 367.621193 14.940005 
" clip-path="url(#p02b7ebc649)" style="fill: none; stroke: #000000; stroke-linecap: square"/>
   </g>
   <g id="line2d_105">
    <path d="M 63.257557 27.509208 
L 367.621193 27.509208 
L 367.621193 27.509208 
" clip-path="url(#p02b7ebc649)" style="fill: none; stroke-dasharray: 3.7,1.6; stroke-dashoffset: 0; stroke: #000000"/>
   </g>
   <g id="patch_3">
    <path d="M 48.039375 253.08 
L 48.039375 3.6 
" style="fill: none; stroke: #000000; stroke-width: 0.5; stroke-linejoin: miter; stroke-linecap: square"/>
   </g>
   <g id="patch_4">
    <path d="M 382.839375 253.08 
L 382.839375 3.6 
" style="fill: none; stroke: #000000; stroke-width: 0.5; stroke-linejoin: miter; stroke-linecap: square"/>
   </g>
   <g id="patch_5">
    <path d="M 48.039375 253.08 
L 382.839375 253.08 
" style="fill: none; stroke: #000000; stroke-width: 0.5; stroke-linejoin: miter; stroke-linecap: square"/>
   </g>
   <g id="patch_6">
    <path d="M 48.039375 3.6 
L 382.839375 3.6 
" style="fill: none; stroke: #000000; stroke-width: 0.5; stroke-linejoin: miter; stroke-linecap: square"/>
   </g>
   <g id="legend_1">
    <g id="patch_7">
     <path d="M 253.92 247.08 
L 374.439375 247.08 
Q 376.839375 247.08 376.839375 244.68 
L 376.839375 193.03875 
Q 376.839375 190.63875 374.439375 190.63875 
L 253.92 190.63875 
Q 251.52 190.63875 251.52 193.03875 
L 251.52 244.68 
Q 251.52 247.08 253.92 247.08 
z
" style="fill: #ffffff; opacity: 0.8; stroke: #cccccc; stroke-linejoin: miter"/>
    </g>
    <g id="line2d_106">
     <path d="M 256.32 200.356875 
L 268.32 200.356875 
L 280.32 200.356875 
" style="fill: none; stroke: #000000; stroke-linecap: square"/>
    </g>
    <g id="text_14">
     <!-- Best fitness -->
     <g transform="translate(289.92 204.556875) scale(0.12 -0.12)">
      <defs>
       <path id="DejaVuSans-42" d="M 1259 2228 
L 1259 519 
L 2272 519 
Q 2781 519 3026 730 
Q 3272 941 3272 1375 
Q 3272 1813 3026 2020 
Q 2781 2228 2272 2228 
L 1259 2228 
z
M 1259 4147 
L 1259 2741 
L 2194 2741 
Q 2656 2741 2882 2914 
Q 3109 3088 3109 3444 
Q 3109 3797 2882 3972 
Q 2656 4147 2194 4147 
L 1259 4147 
z
M 628 4666 
L 2241 4666 
Q 2963 4666 3353 4366 
Q 3744 4066 3744 3513 
Q 3744 3084 3544 2831 
Q 3344 2578 2956 2516 
Q 3422 2416 3680 2098 
Q 3938 1781 3938 1306 
Q 3938 681 3513 340 
Q 3088 0 2303 0 
L 628 0 
L 628 4666 
z
" transform="scale(0.015625)"/>
       <path id="DejaVuSans-20" transform="scale(0.015625)"/>
       <path id="DejaVuSans-66" d="M 2375 4863 
L 2375 4384 
L 1825 4384 
Q 1516 4384 1395 4259 
Q 1275 4134 1275 3809 
L 1275 3500 
L 2222 3500 
L 2222 3053 
L 1275 3053 
L 1275 0 
L 697 0 
L 697 3053 
L 147 3053 
L 147 3500 
L 697 3500 
L 697 3744 
Q 697 4328 969 4595 
Q 1241 4863 1831 4863 
L 2375 4863 
z
" transform="scale(0.015625)"/>
      </defs>
      <use xlink:href="#DejaVuSans-42"/>
      <use xlink:href="#DejaVuSans-65" x="68.603516"/>
      <use xlink:href="#DejaVuSans-73" x="130.126953"/>
      <use xlink:href="#DejaVuSans-74" x="182.226562"/>
      <use xlink:href="#DejaVuSans-20" x="221.435547"/>
      <use xlink:href="#DejaVuSans-66" x="253.222656"/>
      <use xlink:href="#DejaVuSans-69" x="288.427734"/>
      <use xlink:href="#DejaVuSans-74" x="316.210938"/>
      <use xlink:href="#DejaVuSans-6e" x="355.419922"/>
      <use xlink:href="#DejaVuSans-65" x="418.798828"/>
      <use xlink:href="#DejaVuSans-73" x="480.322266"/>
      <use xlink:href="#DejaVuSans-73" x="532.421875"/>
     </g>
    </g>
    <g id="patch_8">
     <path d="M 256.32 222.170625 
L 280.32 222.170625 
L 280.32 213.770625 
L 256.32 213.770625 
z
" style="fill: #0000ff; fill-opacity: 0.2; stroke: #0000ff; stroke-opacity: 0.2; stroke-linejoin: miter"/>
    </g>
    <g id="text_15">
     <!-- Top 90% -->
     <g transform="translate(289.92 222.170625) scale(0.12 -0.12)">
      <defs>
       <path id="DejaVuSans-54" d="M -19 4666 
L 3928 4666 
L 3928 4134 
L 2272 4134 
L 2272 0 
L 1638 0 
L 1638 4134 
L -19 4134 
L -19 4666 
z
" transform="scale(0.015625)"/>
       <path id="DejaVuSans-70" d="M 1159 525 
L 1159 -1331 
L 581 -1331 
L 581 3500 
L 1159 3500 
L 1159 2969 
Q 1341 3281 1617 3432 
Q 1894 3584 2278 3584 
Q 2916 3584 3314 3078 
Q 3713 2572 3713 1747 
Q 3713 922 3314 415 
Q 2916 -91 2278 -91 
Q 1894 -91 1617 61 
Q 1341 213 1159 525 
z
M 3116 1747 
Q 3116 2381 2855 2742 
Q 2594 3103 2138 3103 
Q 1681 3103 1420 2742 
Q 1159 2381 1159 1747 
Q 1159 1113 1420 752 
Q 1681 391 2138 391 
Q 2594 391 2855 752 
Q 3116 1113 3116 1747 
z
" transform="scale(0.015625)"/>
       <path id="DejaVuSans-39" d="M 703 97 
L 703 672 
Q 941 559 1184 500 
Q 1428 441 1663 441 
Q 2288 441 2617 861 
Q 2947 1281 2994 2138 
Q 2813 1869 2534 1725 
Q 2256 1581 1919 1581 
Q 1219 1581 811 2004 
Q 403 2428 403 3163 
Q 403 3881 828 4315 
Q 1253 4750 1959 4750 
Q 2769 4750 3195 4129 
Q 3622 3509 3622 2328 
Q 3622 1225 3098 567 
Q 2575 -91 1691 -91 
Q 1453 -91 1209 -44 
Q 966 3 703 97 
z
M 1959 2075 
Q 2384 2075 2632 2365 
Q 2881 2656 2881 3163 
Q 2881 3666 2632 3958 
Q 2384 4250 1959 4250 
Q 1534 4250 1286 3958 
Q 1038 3666 1038 3163 
Q 1038 2656 1286 2365 
Q 1534 2075 1959 2075 
z
" transform="scale(0.015625)"/>
       <path id="DejaVuSans-25" d="M 4653 2053 
Q 4381 2053 4226 1822 
Q 4072 1591 4072 1178 
Q 4072 772 4226 539 
Q 4381 306 4653 306 
Q 4919 306 5073 539 
Q 5228 772 5228 1178 
Q 5228 1588 5073 1820 
Q 4919 2053 4653 2053 
z
M 4653 2450 
Q 5147 2450 5437 2106 
Q 5728 1763 5728 1178 
Q 5728 594 5436 251 
Q 5144 -91 4653 -91 
Q 4153 -91 3862 251 
Q 3572 594 3572 1178 
Q 3572 1766 3864 2108 
Q 4156 2450 4653 2450 
z
M 1428 4353 
Q 1159 4353 1004 4120 
Q 850 3888 850 3481 
Q 850 3069 1003 2837 
Q 1156 2606 1428 2606 
Q 1700 2606 1854 2837 
Q 2009 3069 2009 3481 
Q 2009 3884 1853 4118 
Q 1697 4353 1428 4353 
z
M 4250 4750 
L 4750 4750 
L 1831 -91 
L 1331 -91 
L 4250 4750 
z
M 1428 4750 
Q 1922 4750 2215 4408 
Q 2509 4066 2509 3481 
Q 2509 2891 2217 2550 
Q 1925 2209 1428 2209 
Q 931 2209 642 2551 
Q 353 2894 353 3481 
Q 353 4063 643 4406 
Q 934 4750 1428 4750 
z
" transform="scale(0.015625)"/>
      </defs>
      <use xlink:href="#DejaVuSans-54"/>
      <use xlink:href="#DejaVuSans-6f" x="44.083984"/>
      <use xlink:href="#DejaVuSans-70" x="105.265625"/>
      <use xlink:href="#DejaVuSans-20" x="168.742188"/>
      <use xlink:href="#DejaVuSans-39" x="200.529297"/>
      <use xlink:href="#DejaVuSans-30" x="264.152344"/>
      <use xlink:href="#DejaVuSans-25" x="327.775391"/>
     </g>
    </g>
    <g id="line2d_107">
     <path d="M 256.32 235.584375 
L 268.32 235.584375 
L 280.32 235.584375 
" style="fill: none; stroke-dasharray: 3.7,1.6; stroke-dashoffset: 0; stroke: #000000"/>
    </g>
    <g id="text_16">
     <!-- 180mm Quad -->
     <g transform="translate(289.92 239.784375) scale(0.12 -0.12)">
      <defs>
       <path id="DejaVuSans-38" d="M 2034 2216 
Q 1584 2216 1326 1975 
Q 1069 1734 1069 1313 
Q 1069 891 1326 650 
Q 1584 409 2034 409 
Q 2484 409 2743 651 
Q 3003 894 3003 1313 
Q 3003 1734 2745 1975 
Q 2488 2216 2034 2216 
z
M 1403 2484 
Q 997 2584 770 2862 
Q 544 3141 544 3541 
Q 544 4100 942 4425 
Q 1341 4750 2034 4750 
Q 2731 4750 3128 4425 
Q 3525 4100 3525 3541 
Q 3525 3141 3298 2862 
Q 3072 2584 2669 2484 
Q 3125 2378 3379 2068 
Q 3634 1759 3634 1313 
Q 3634 634 3220 271 
Q 2806 -91 2034 -91 
Q 1263 -91 848 271 
Q 434 634 434 1313 
Q 434 1759 690 2068 
Q 947 2378 1403 2484 
z
M 1172 3481 
Q 1172 3119 1398 2916 
Q 1625 2713 2034 2713 
Q 2441 2713 2670 2916 
Q 2900 3119 2900 3481 
Q 2900 3844 2670 4047 
Q 2441 4250 2034 4250 
Q 1625 4250 1398 4047 
Q 1172 3844 1172 3481 
z
" transform="scale(0.015625)"/>
       <path id="DejaVuSans-6d" d="M 3328 2828 
Q 3544 3216 3844 3400 
Q 4144 3584 4550 3584 
Q 5097 3584 5394 3201 
Q 5691 2819 5691 2113 
L 5691 0 
L 5113 0 
L 5113 2094 
Q 5113 2597 4934 2840 
Q 4756 3084 4391 3084 
Q 3944 3084 3684 2787 
Q 3425 2491 3425 1978 
L 3425 0 
L 2847 0 
L 2847 2094 
Q 2847 2600 2669 2842 
Q 2491 3084 2119 3084 
Q 1678 3084 1418 2786 
Q 1159 2488 1159 1978 
L 1159 0 
L 581 0 
L 581 3500 
L 1159 3500 
L 1159 2956 
Q 1356 3278 1631 3431 
Q 1906 3584 2284 3584 
Q 2666 3584 2933 3390 
Q 3200 3197 3328 2828 
z
" transform="scale(0.015625)"/>
       <path id="DejaVuSans-51" d="M 2522 4238 
Q 1834 4238 1429 3725 
Q 1025 3213 1025 2328 
Q 1025 1447 1429 934 
Q 1834 422 2522 422 
Q 3209 422 3611 934 
Q 4013 1447 4013 2328 
Q 4013 3213 3611 3725 
Q 3209 4238 2522 4238 
z
M 3406 84 
L 4238 -825 
L 3475 -825 
L 2784 -78 
Q 2681 -84 2626 -87 
Q 2572 -91 2522 -91 
Q 1538 -91 948 567 
Q 359 1225 359 2328 
Q 359 3434 948 4092 
Q 1538 4750 2522 4750 
Q 3503 4750 4090 4092 
Q 4678 3434 4678 2328 
Q 4678 1516 4351 937 
Q 4025 359 3406 84 
z
" transform="scale(0.015625)"/>
       <path id="DejaVuSans-75" d="M 544 1381 
L 544 3500 
L 1119 3500 
L 1119 1403 
Q 1119 906 1312 657 
Q 1506 409 1894 409 
Q 2359 409 2629 706 
Q 2900 1003 2900 1516 
L 2900 3500 
L 3475 3500 
L 3475 0 
L 2900 0 
L 2900 538 
Q 2691 219 2414 64 
Q 2138 -91 1772 -91 
Q 1169 -91 856 284 
Q 544 659 544 1381 
z
M 1991 3584 
L 1991 3584 
z
" transform="scale(0.015625)"/>
       <path id="DejaVuSans-64" d="M 2906 2969 
L 2906 4863 
L 3481 4863 
L 3481 0 
L 2906 0 
L 2906 525 
Q 2725 213 2448 61 
Q 2172 -91 1784 -91 
Q 1150 -91 751 415 
Q 353 922 353 1747 
Q 353 2572 751 3078 
Q 1150 3584 1784 3584 
Q 2172 3584 2448 3432 
Q 2725 3281 2906 2969 
z
M 947 1747 
Q 947 1113 1208 752 
Q 1469 391 1925 391 
Q 2381 391 2643 752 
Q 2906 1113 2906 1747 
Q 2906 2381 2643 2742 
Q 2381 3103 1925 3103 
Q 1469 3103 1208 2742 
Q 947 2381 947 1747 
z
" transform="scale(0.015625)"/>
      </defs>
      <use xlink:href="#DejaVuSans-31"/>
      <use xlink:href="#DejaVuSans-38" x="63.623047"/>
      <use xlink:href="#DejaVuSans-30" x="127.246094"/>
      <use xlink:href="#DejaVuSans-6d" x="190.869141"/>
      <use xlink:href="#DejaVuSans-6d" x="288.28125"/>
      <use xlink:href="#DejaVuSans-20" x="385.693359"/>
      <use xlink:href="#DejaVuSans-51" x="417.480469"/>
      <use xlink:href="#DejaVuSans-75" x="496.191406"/>
      <use xlink:href="#DejaVuSans-61" x="559.570312"/>
      <use xlink:href="#DejaVuSans-64" x="620.849609"/>
     </g>
    </g>
   </g>
  </g>
 </g>
 <defs>
  <clipPath id="p02b7ebc649">
   <rect x="48.039375" y="3.6" width="334.8" height="249.48"/>
  </clipPath>
 </defs>
</svg>
