<?xml version="1.0" encoding="utf-8" standalone="no"?>
<!DOCTYPE svg PUBLIC "-//W3C//DTD SVG 1.1//EN"
  "http://www.w3.org/Graphics/SVG/1.1/DTD/svg11.dtd">
<svg xmlns:xlink="http://www.w3.org/1999/xlink" width="390.253125pt" height="232.923813pt" viewBox="0 0 390.253125 232.923813" xmlns="http://www.w3.org/2000/svg" version="1.1">
 <metadata>
  <rdf:RDF xmlns:dc="http://purl.org/dc/elements/1.1/" xmlns:cc="http://creativecommons.org/ns#" xmlns:rdf="http://www.w3.org/1999/02/22-rdf-syntax-ns#">
   <cc:Work>
    <dc:type rdf:resource="http://purl.org/dc/dcmitype/StillImage"/>
    <dc:date>2024-06-05T09:27:13.619537</dc:date>
    <dc:format>image/svg+xml</dc:format>
    <dc:creator>
     <cc:Agent>
      <dc:title>Matplotlib v3.9.0, https://matplotlib.org/</dc:title>
     </cc:Agent>
    </dc:creator>
   </cc:Work>
  </rdf:RDF>
 </metadata>
 <defs>
  <style type="text/css">*{stroke-linejoin: round; stroke-linecap: butt}</style>
 </defs>
 <g id="figure_1">
  <g id="patch_1">
   <path d="M 0 232.923813 
L 390.253125 232.923813 
L 390.253125 0 
L 0 0 
z
" style="fill: #ffffff"/>
  </g>
  <g id="axes_1">
   <g id="patch_2">
    <path d="M 51.853125 198.596313 
L 386.653125 198.596313 
L 386.653125 3.6 
L 51.853125 3.6 
z
" style="fill: #ffffff"/>
   </g>
   <g id="PathCollection_1">
    <defs>
     <path id="mdc71d130e7" d="M 0 3 
C 0.795609 3 1.55874 2.683901 2.12132 2.12132 
C 2.683901 1.55874 3 0.795609 3 0 
C 3 -0.795609 2.683901 -1.55874 2.12132 -2.12132 
C 1.55874 -2.683901 0.795609 -3 0 -3 
C -0.795609 -3 -1.55874 -2.683901 -2.12132 -2.12132 
C -2.683901 -1.55874 -3 -0.795609 -3 0 
C -3 0.795609 -2.683901 1.55874 -2.12132 2.12132 
C -1.55874 2.683901 -0.795609 3 0 3 
z
" style="stroke: #000000"/>
    </defs>
    <g clip-path="url(#p1da03ed06c)">
     <use xlink:href="#mdc71d130e7" x="145.85264" y="164.728422" style="stroke: #000000"/>
    </g>
   </g>
   <g id="patch_3">
    <path d="M 253.344878 167.287009 
L 251.368488 167.893947 
L 251.37886 167.458207 
L 145.847454 164.946292 
L 145.857826 164.510552 
L 251.389232 167.022466 
L 251.399603 166.586726 
z
" clip-path="url(#p1da03ed06c)" style="fill: #008000; stroke-dasharray: 3.7,1.6; stroke-dashoffset: 0; stroke: #008000; stroke-linejoin: miter"/>
   </g>
   <g id="PathCollection_2">
    <g clip-path="url(#p1da03ed06c)">
     <use xlink:href="#mdc71d130e7" x="179.443341" y="52.189065" style="stroke: #000000"/>
    </g>
   </g>
   <g id="patch_4">
    <path d="M 177.084389 52.62499 
L 178.894313 51.625658 
L 178.973518 52.054265 
L 179.403739 51.974762 
L 179.482943 52.403369 
L 179.052723 52.482872 
L 179.131927 52.911479 
z
" clip-path="url(#p1da03ed06c)" style="fill: #008000; stroke-dasharray: 3.7,1.6; stroke-dashoffset: 0; stroke: #008000; stroke-linejoin: miter"/>
   </g>
   <g id="PathCollection_3">
    <g clip-path="url(#p1da03ed06c)">
     <use xlink:href="#mdc71d130e7" x="111.153442" y="41.98481" style="stroke: #000000"/>
    </g>
   </g>
   <g id="patch_5">
    <path d="M 196.047555 12.463469 
L 194.409722 13.725212 
L 194.266563 13.313529 
L 111.225022 42.190651 
L 111.081862 41.778968 
L 194.123403 12.901847 
L 193.980243 12.490164 
z
" clip-path="url(#p1da03ed06c)" style="fill: #008000; stroke-dasharray: 3.7,1.6; stroke-dashoffset: 0; stroke: #008000; stroke-linejoin: miter"/>
   </g>
   <g id="PathCollection_4">
    <g clip-path="url(#p1da03ed06c)">
     <use xlink:href="#mdc71d130e7" x="228.127248" y="134.914271" style="stroke: #000000"/>
    </g>
   </g>
   <g id="patch_6">
    <path d="M 285.560002 39.209413 
L 285.111349 41.22763 
L 284.737616 41.003352 
L 228.314115 135.02641 
L 227.940382 134.802132 
L 284.363883 40.779073 
L 283.990149 40.554795 
z
" clip-path="url(#p1da03ed06c)" style="fill: #008000; stroke-dasharray: 3.7,1.6; stroke-dashoffset: 0; stroke: #008000; stroke-linejoin: miter"/>
   </g>
   <g id="PathCollection_5">
    <g clip-path="url(#p1da03ed06c)">
     <use xlink:href="#mdc71d130e7" x="272.441812" y="56.454874" style="stroke: #000000"/>
    </g>
   </g>
   <g id="patch_7">
    <path d="M 340.513869 71.335893 
L 338.458105 71.555724 
L 338.55119 71.129916 
L 272.39527 56.667778 
L 272.488355 56.24197 
L 338.644274 70.704108 
L 338.737359 70.2783 
z
" clip-path="url(#p1da03ed06c)" style="fill: #008000; stroke-dasharray: 3.7,1.6; stroke-dashoffset: 0; stroke: #008000; stroke-linejoin: miter"/>
   </g>
   <g id="PathCollection_6">
    <g clip-path="url(#p1da03ed06c)">
     <use xlink:href="#mdc71d130e7" x="90.528642" y="107.351223" style="stroke: #000000"/>
    </g>
   </g>
   <g id="patch_8">
    <path d="M 170.505356 161.160148 
L 168.513046 160.607706 
L 168.756355 160.246073 
L 90.406987 107.53204 
L 90.650296 107.170407 
L 168.999664 159.884441 
L 169.242973 159.522808 
z
" clip-path="url(#p1da03ed06c)" style="fill: #008000; stroke-dasharray: 3.7,1.6; stroke-dashoffset: 0; stroke: #008000; stroke-linejoin: miter"/>
   </g>
   <g id="PathCollection_7">
    <g clip-path="url(#p1da03ed06c)">
     <use xlink:href="#mdc71d130e7" x="89.20182" y="167.636448" style="stroke: #000000"/>
    </g>
   </g>
   <g id="patch_9">
    <path d="M 108.297646 63.689187 
L 108.586291 65.736423 
L 108.157601 65.657669 
L 89.416165 167.675825 
L 88.987475 167.597071 
L 107.728911 65.578916 
L 107.300221 65.500163 
z
" clip-path="url(#p1da03ed06c)" style="fill: #008000; stroke-dasharray: 3.7,1.6; stroke-dashoffset: 0; stroke: #008000; stroke-linejoin: miter"/>
   </g>
   <g id="PathCollection_8">
    <g clip-path="url(#p1da03ed06c)">
     <use xlink:href="#mdc71d130e7" x="324.029238" y="142.758454" style="stroke: #000000"/>
    </g>
   </g>
   <g id="patch_10">
    <path d="M 371.434943 44.947148 
L 371.167841 46.997306 
L 370.775616 46.807208 
L 324.225351 142.853503 
L 323.833126 142.663405 
L 370.383392 46.61711 
L 369.991167 46.427013 
z
" clip-path="url(#p1da03ed06c)" style="fill: #008000; stroke-dasharray: 3.7,1.6; stroke-dashoffset: 0; stroke: #008000; stroke-linejoin: miter"/>
   </g>
   <g id="PathCollection_9">
    <defs>
     <path id="m37ce6ab727" d="M -7.071068 7.071068 
L 7.071068 -7.071068 
M -7.071068 -7.071068 
L 7.071068 7.071068 
" style="stroke: #ff0000"/>
    </defs>
    <g clip-path="url(#p1da03ed06c)">
     <use xlink:href="#m37ce6ab727" x="181.580471" y="108.758816" style="fill: #ff0000; stroke: #ff0000"/>
    </g>
   </g>
   <g id="matplotlib.axis_1">
    <g id="xtick_1">
     <g id="line2d_1">
      <path d="M 52.081936 198.596313 
L 52.081936 3.6 
" clip-path="url(#p1da03ed06c)" style="fill: none; stroke: #b0b0b0; stroke-width: 0.5; stroke-linecap: square"/>
     </g>
     <g id="line2d_2">
      <defs>
       <path id="mc832ded51a" d="M 0 0 
L 0 -3 
" style="stroke: #000000; stroke-width: 0.5"/>
      </defs>
      <g>
       <use xlink:href="#mc832ded51a" x="52.081936" y="198.596313" style="stroke: #000000; stroke-width: 0.5"/>
      </g>
     </g>
     <g id="line2d_3">
      <defs>
       <path id="m2efd3a28e1" d="M 0 0 
L 0 3 
" style="stroke: #000000; stroke-width: 0.5"/>
      </defs>
      <g>
       <use xlink:href="#m2efd3a28e1" x="52.081936" y="3.6" style="stroke: #000000; stroke-width: 0.5"/>
      </g>
     </g>
     <g id="text_1">
      <!-- −0.3 -->
      <g transform="translate(37.512249 211.214438) scale(0.12 -0.12)">
       <defs>
        <path id="DejaVuSans-2212" d="M 678 2272 
L 4684 2272 
L 4684 1741 
L 678 1741 
L 678 2272 
z
" transform="scale(0.015625)"/>
        <path id="DejaVuSans-30" d="M 2034 4250 
Q 1547 4250 1301 3770 
Q 1056 3291 1056 2328 
Q 1056 1369 1301 889 
Q 1547 409 2034 409 
Q 2525 409 2770 889 
Q 3016 1369 3016 2328 
Q 3016 3291 2770 3770 
Q 2525 4250 2034 4250 
z
M 2034 4750 
Q 2819 4750 3233 4129 
Q 3647 3509 3647 2328 
Q 3647 1150 3233 529 
Q 2819 -91 2034 -91 
Q 1250 -91 836 529 
Q 422 1150 422 2328 
Q 422 3509 836 4129 
Q 1250 4750 2034 4750 
z
" transform="scale(0.015625)"/>
        <path id="DejaVuSans-2e" d="M 684 794 
L 1344 794 
L 1344 0 
L 684 0 
L 684 794 
z
" transform="scale(0.015625)"/>
        <path id="DejaVuSans-33" d="M 2597 2516 
Q 3050 2419 3304 2112 
Q 3559 1806 3559 1356 
Q 3559 666 3084 287 
Q 2609 -91 1734 -91 
Q 1441 -91 1130 -33 
Q 819 25 488 141 
L 488 750 
Q 750 597 1062 519 
Q 1375 441 1716 441 
Q 2309 441 2620 675 
Q 2931 909 2931 1356 
Q 2931 1769 2642 2001 
Q 2353 2234 1838 2234 
L 1294 2234 
L 1294 2753 
L 1863 2753 
Q 2328 2753 2575 2939 
Q 2822 3125 2822 3475 
Q 2822 3834 2567 4026 
Q 2313 4219 1838 4219 
Q 1578 4219 1281 4162 
Q 984 4106 628 3988 
L 628 4550 
Q 988 4650 1302 4700 
Q 1616 4750 1894 4750 
Q 2613 4750 3031 4423 
Q 3450 4097 3450 3541 
Q 3450 3153 3228 2886 
Q 3006 2619 2597 2516 
z
" transform="scale(0.015625)"/>
       </defs>
       <use xlink:href="#DejaVuSans-2212"/>
       <use xlink:href="#DejaVuSans-30" x="83.789062"/>
       <use xlink:href="#DejaVuSans-2e" x="147.412109"/>
       <use xlink:href="#DejaVuSans-33" x="179.199219"/>
      </g>
     </g>
    </g>
    <g id="xtick_2">
     <g id="line2d_4">
      <path d="M 95.668333 198.596313 
L 95.668333 3.6 
" clip-path="url(#p1da03ed06c)" style="fill: none; stroke: #b0b0b0; stroke-width: 0.5; stroke-linecap: square"/>
     </g>
     <g id="line2d_5">
      <g>
       <use xlink:href="#mc832ded51a" x="95.668333" y="198.596313" style="stroke: #000000; stroke-width: 0.5"/>
      </g>
     </g>
     <g id="line2d_6">
      <g>
       <use xlink:href="#m2efd3a28e1" x="95.668333" y="3.6" style="stroke: #000000; stroke-width: 0.5"/>
      </g>
     </g>
     <g id="text_2">
      <!-- −0.2 -->
      <g transform="translate(81.098645 211.214438) scale(0.12 -0.12)">
       <defs>
        <path id="DejaVuSans-32" d="M 1228 531 
L 3431 531 
L 3431 0 
L 469 0 
L 469 531 
Q 828 903 1448 1529 
Q 2069 2156 2228 2338 
Q 2531 2678 2651 2914 
Q 2772 3150 2772 3378 
Q 2772 3750 2511 3984 
Q 2250 4219 1831 4219 
Q 1534 4219 1204 4116 
Q 875 4013 500 3803 
L 500 4441 
Q 881 4594 1212 4672 
Q 1544 4750 1819 4750 
Q 2544 4750 2975 4387 
Q 3406 4025 3406 3419 
Q 3406 3131 3298 2873 
Q 3191 2616 2906 2266 
Q 2828 2175 2409 1742 
Q 1991 1309 1228 531 
z
" transform="scale(0.015625)"/>
       </defs>
       <use xlink:href="#DejaVuSans-2212"/>
       <use xlink:href="#DejaVuSans-30" x="83.789062"/>
       <use xlink:href="#DejaVuSans-2e" x="147.412109"/>
       <use xlink:href="#DejaVuSans-32" x="179.199219"/>
      </g>
     </g>
    </g>
    <g id="xtick_3">
     <g id="line2d_7">
      <path d="M 139.254729 198.596313 
L 139.254729 3.6 
" clip-path="url(#p1da03ed06c)" style="fill: none; stroke: #b0b0b0; stroke-width: 0.5; stroke-linecap: square"/>
     </g>
     <g id="line2d_8">
      <g>
       <use xlink:href="#mc832ded51a" x="139.254729" y="198.596313" style="stroke: #000000; stroke-width: 0.5"/>
      </g>
     </g>
     <g id="line2d_9">
      <g>
       <use xlink:href="#m2efd3a28e1" x="139.254729" y="3.6" style="stroke: #000000; stroke-width: 0.5"/>
      </g>
     </g>
     <g id="text_3">
      <!-- −0.1 -->
      <g transform="translate(124.685042 211.214438) scale(0.12 -0.12)">
       <defs>
        <path id="DejaVuSans-31" d="M 794 531 
L 1825 531 
L 1825 4091 
L 703 3866 
L 703 4441 
L 1819 4666 
L 2450 4666 
L 2450 531 
L 3481 531 
L 3481 0 
L 794 0 
L 794 531 
z
" transform="scale(0.015625)"/>
       </defs>
       <use xlink:href="#DejaVuSans-2212"/>
       <use xlink:href="#DejaVuSans-30" x="83.789062"/>
       <use xlink:href="#DejaVuSans-2e" x="147.412109"/>
       <use xlink:href="#DejaVuSans-31" x="179.199219"/>
      </g>
     </g>
    </g>
    <g id="xtick_4">
     <g id="line2d_10">
      <path d="M 182.841126 198.596313 
L 182.841126 3.6 
" clip-path="url(#p1da03ed06c)" style="fill: none; stroke: #b0b0b0; stroke-width: 0.5; stroke-linecap: square"/>
     </g>
     <g id="line2d_11">
      <g>
       <use xlink:href="#mc832ded51a" x="182.841126" y="198.596313" style="stroke: #000000; stroke-width: 0.5"/>
      </g>
     </g>
     <g id="line2d_12">
      <g>
       <use xlink:href="#m2efd3a28e1" x="182.841126" y="3.6" style="stroke: #000000; stroke-width: 0.5"/>
      </g>
     </g>
     <g id="text_4">
      <!-- 0.0 -->
      <g transform="translate(173.299251 211.214438) scale(0.12 -0.12)">
       <use xlink:href="#DejaVuSans-30"/>
       <use xlink:href="#DejaVuSans-2e" x="63.623047"/>
       <use xlink:href="#DejaVuSans-30" x="95.410156"/>
      </g>
     </g>
    </g>
    <g id="xtick_5">
     <g id="line2d_13">
      <path d="M 226.427522 198.596313 
L 226.427522 3.6 
" clip-path="url(#p1da03ed06c)" style="fill: none; stroke: #b0b0b0; stroke-width: 0.5; stroke-linecap: square"/>
     </g>
     <g id="line2d_14">
      <g>
       <use xlink:href="#mc832ded51a" x="226.427522" y="198.596313" style="stroke: #000000; stroke-width: 0.5"/>
      </g>
     </g>
     <g id="line2d_15">
      <g>
       <use xlink:href="#m2efd3a28e1" x="226.427522" y="3.6" style="stroke: #000000; stroke-width: 0.5"/>
      </g>
     </g>
     <g id="text_5">
      <!-- 0.1 -->
      <g transform="translate(216.885647 211.214438) scale(0.12 -0.12)">
       <use xlink:href="#DejaVuSans-30"/>
       <use xlink:href="#DejaVuSans-2e" x="63.623047"/>
       <use xlink:href="#DejaVuSans-31" x="95.410156"/>
      </g>
     </g>
    </g>
    <g id="xtick_6">
     <g id="line2d_16">
      <path d="M 270.013919 198.596313 
L 270.013919 3.6 
" clip-path="url(#p1da03ed06c)" style="fill: none; stroke: #b0b0b0; stroke-width: 0.5; stroke-linecap: square"/>
     </g>
     <g id="line2d_17">
      <g>
       <use xlink:href="#mc832ded51a" x="270.013919" y="198.596313" style="stroke: #000000; stroke-width: 0.5"/>
      </g>
     </g>
     <g id="line2d_18">
      <g>
       <use xlink:href="#m2efd3a28e1" x="270.013919" y="3.6" style="stroke: #000000; stroke-width: 0.5"/>
      </g>
     </g>
     <g id="text_6">
      <!-- 0.2 -->
      <g transform="translate(260.472044 211.214438) scale(0.12 -0.12)">
       <use xlink:href="#DejaVuSans-30"/>
       <use xlink:href="#DejaVuSans-2e" x="63.623047"/>
       <use xlink:href="#DejaVuSans-32" x="95.410156"/>
      </g>
     </g>
    </g>
    <g id="xtick_7">
     <g id="line2d_19">
      <path d="M 313.600315 198.596313 
L 313.600315 3.6 
" clip-path="url(#p1da03ed06c)" style="fill: none; stroke: #b0b0b0; stroke-width: 0.5; stroke-linecap: square"/>
     </g>
     <g id="line2d_20">
      <g>
       <use xlink:href="#mc832ded51a" x="313.600315" y="198.596313" style="stroke: #000000; stroke-width: 0.5"/>
      </g>
     </g>
     <g id="line2d_21">
      <g>
       <use xlink:href="#m2efd3a28e1" x="313.600315" y="3.6" style="stroke: #000000; stroke-width: 0.5"/>
      </g>
     </g>
     <g id="text_7">
      <!-- 0.3 -->
      <g transform="translate(304.05844 211.214438) scale(0.12 -0.12)">
       <use xlink:href="#DejaVuSans-30"/>
       <use xlink:href="#DejaVuSans-2e" x="63.623047"/>
       <use xlink:href="#DejaVuSans-33" x="95.410156"/>
      </g>
     </g>
    </g>
    <g id="xtick_8">
     <g id="line2d_22">
      <path d="M 357.186712 198.596313 
L 357.186712 3.6 
" clip-path="url(#p1da03ed06c)" style="fill: none; stroke: #b0b0b0; stroke-width: 0.5; stroke-linecap: square"/>
     </g>
     <g id="line2d_23">
      <g>
       <use xlink:href="#mc832ded51a" x="357.186712" y="198.596313" style="stroke: #000000; stroke-width: 0.5"/>
      </g>
     </g>
     <g id="line2d_24">
      <g>
       <use xlink:href="#m2efd3a28e1" x="357.186712" y="3.6" style="stroke: #000000; stroke-width: 0.5"/>
      </g>
     </g>
     <g id="text_8">
      <!-- 0.4 -->
      <g transform="translate(347.644837 211.214438) scale(0.12 -0.12)">
       <defs>
        <path id="DejaVuSans-34" d="M 2419 4116 
L 825 1625 
L 2419 1625 
L 2419 4116 
z
M 2253 4666 
L 3047 4666 
L 3047 1625 
L 3713 1625 
L 3713 1100 
L 3047 1100 
L 3047 0 
L 2419 0 
L 2419 1100 
L 313 1100 
L 313 1709 
L 2253 4666 
z
" transform="scale(0.015625)"/>
       </defs>
       <use xlink:href="#DejaVuSans-30"/>
       <use xlink:href="#DejaVuSans-2e" x="63.623047"/>
       <use xlink:href="#DejaVuSans-34" x="95.410156"/>
      </g>
     </g>
    </g>
    <g id="xtick_9">
     <g id="line2d_25">
      <defs>
       <path id="mc8b654a868" d="M 0 0 
L 0 -1.5 
" style="stroke: #000000; stroke-width: 0.5"/>
      </defs>
      <g>
       <use xlink:href="#mc8b654a868" x="60.799215" y="198.596313" style="stroke: #000000; stroke-width: 0.5"/>
      </g>
     </g>
     <g id="line2d_26">
      <defs>
       <path id="m35a3c4fb18" d="M 0 0 
L 0 1.5 
" style="stroke: #000000; stroke-width: 0.5"/>
      </defs>
      <g>
       <use xlink:href="#m35a3c4fb18" x="60.799215" y="3.6" style="stroke: #000000; stroke-width: 0.5"/>
      </g>
     </g>
    </g>
    <g id="xtick_10">
     <g id="line2d_27">
      <g>
       <use xlink:href="#mc8b654a868" x="69.516495" y="198.596313" style="stroke: #000000; stroke-width: 0.5"/>
      </g>
     </g>
     <g id="line2d_28">
      <g>
       <use xlink:href="#m35a3c4fb18" x="69.516495" y="3.6" style="stroke: #000000; stroke-width: 0.5"/>
      </g>
     </g>
    </g>
    <g id="xtick_11">
     <g id="line2d_29">
      <g>
       <use xlink:href="#mc8b654a868" x="78.233774" y="198.596313" style="stroke: #000000; stroke-width: 0.5"/>
      </g>
     </g>
     <g id="line2d_30">
      <g>
       <use xlink:href="#m35a3c4fb18" x="78.233774" y="3.6" style="stroke: #000000; stroke-width: 0.5"/>
      </g>
     </g>
    </g>
    <g id="xtick_12">
     <g id="line2d_31">
      <g>
       <use xlink:href="#mc8b654a868" x="86.951053" y="198.596313" style="stroke: #000000; stroke-width: 0.5"/>
      </g>
     </g>
     <g id="line2d_32">
      <g>
       <use xlink:href="#m35a3c4fb18" x="86.951053" y="3.6" style="stroke: #000000; stroke-width: 0.5"/>
      </g>
     </g>
    </g>
    <g id="xtick_13">
     <g id="line2d_33">
      <g>
       <use xlink:href="#mc8b654a868" x="104.385612" y="198.596313" style="stroke: #000000; stroke-width: 0.5"/>
      </g>
     </g>
     <g id="line2d_34">
      <g>
       <use xlink:href="#m35a3c4fb18" x="104.385612" y="3.6" style="stroke: #000000; stroke-width: 0.5"/>
      </g>
     </g>
    </g>
    <g id="xtick_14">
     <g id="line2d_35">
      <g>
       <use xlink:href="#mc8b654a868" x="113.102891" y="198.596313" style="stroke: #000000; stroke-width: 0.5"/>
      </g>
     </g>
     <g id="line2d_36">
      <g>
       <use xlink:href="#m35a3c4fb18" x="113.102891" y="3.6" style="stroke: #000000; stroke-width: 0.5"/>
      </g>
     </g>
    </g>
    <g id="xtick_15">
     <g id="line2d_37">
      <g>
       <use xlink:href="#mc8b654a868" x="121.820171" y="198.596313" style="stroke: #000000; stroke-width: 0.5"/>
      </g>
     </g>
     <g id="line2d_38">
      <g>
       <use xlink:href="#m35a3c4fb18" x="121.820171" y="3.6" style="stroke: #000000; stroke-width: 0.5"/>
      </g>
     </g>
    </g>
    <g id="xtick_16">
     <g id="line2d_39">
      <g>
       <use xlink:href="#mc8b654a868" x="130.53745" y="198.596313" style="stroke: #000000; stroke-width: 0.5"/>
      </g>
     </g>
     <g id="line2d_40">
      <g>
       <use xlink:href="#m35a3c4fb18" x="130.53745" y="3.6" style="stroke: #000000; stroke-width: 0.5"/>
      </g>
     </g>
    </g>
    <g id="xtick_17">
     <g id="line2d_41">
      <g>
       <use xlink:href="#mc8b654a868" x="147.972008" y="198.596313" style="stroke: #000000; stroke-width: 0.5"/>
      </g>
     </g>
     <g id="line2d_42">
      <g>
       <use xlink:href="#m35a3c4fb18" x="147.972008" y="3.6" style="stroke: #000000; stroke-width: 0.5"/>
      </g>
     </g>
    </g>
    <g id="xtick_18">
     <g id="line2d_43">
      <g>
       <use xlink:href="#mc8b654a868" x="156.689288" y="198.596313" style="stroke: #000000; stroke-width: 0.5"/>
      </g>
     </g>
     <g id="line2d_44">
      <g>
       <use xlink:href="#m35a3c4fb18" x="156.689288" y="3.6" style="stroke: #000000; stroke-width: 0.5"/>
      </g>
     </g>
    </g>
    <g id="xtick_19">
     <g id="line2d_45">
      <g>
       <use xlink:href="#mc8b654a868" x="165.406567" y="198.596313" style="stroke: #000000; stroke-width: 0.5"/>
      </g>
     </g>
     <g id="line2d_46">
      <g>
       <use xlink:href="#m35a3c4fb18" x="165.406567" y="3.6" style="stroke: #000000; stroke-width: 0.5"/>
      </g>
     </g>
    </g>
    <g id="xtick_20">
     <g id="line2d_47">
      <g>
       <use xlink:href="#mc8b654a868" x="174.123846" y="198.596313" style="stroke: #000000; stroke-width: 0.5"/>
      </g>
     </g>
     <g id="line2d_48">
      <g>
       <use xlink:href="#m35a3c4fb18" x="174.123846" y="3.6" style="stroke: #000000; stroke-width: 0.5"/>
      </g>
     </g>
    </g>
    <g id="xtick_21">
     <g id="line2d_49">
      <g>
       <use xlink:href="#mc8b654a868" x="191.558405" y="198.596313" style="stroke: #000000; stroke-width: 0.5"/>
      </g>
     </g>
     <g id="line2d_50">
      <g>
       <use xlink:href="#m35a3c4fb18" x="191.558405" y="3.6" style="stroke: #000000; stroke-width: 0.5"/>
      </g>
     </g>
    </g>
    <g id="xtick_22">
     <g id="line2d_51">
      <g>
       <use xlink:href="#mc8b654a868" x="200.275684" y="198.596313" style="stroke: #000000; stroke-width: 0.5"/>
      </g>
     </g>
     <g id="line2d_52">
      <g>
       <use xlink:href="#m35a3c4fb18" x="200.275684" y="3.6" style="stroke: #000000; stroke-width: 0.5"/>
      </g>
     </g>
    </g>
    <g id="xtick_23">
     <g id="line2d_53">
      <g>
       <use xlink:href="#mc8b654a868" x="208.992964" y="198.596313" style="stroke: #000000; stroke-width: 0.5"/>
      </g>
     </g>
     <g id="line2d_54">
      <g>
       <use xlink:href="#m35a3c4fb18" x="208.992964" y="3.6" style="stroke: #000000; stroke-width: 0.5"/>
      </g>
     </g>
    </g>
    <g id="xtick_24">
     <g id="line2d_55">
      <g>
       <use xlink:href="#mc8b654a868" x="217.710243" y="198.596313" style="stroke: #000000; stroke-width: 0.5"/>
      </g>
     </g>
     <g id="line2d_56">
      <g>
       <use xlink:href="#m35a3c4fb18" x="217.710243" y="3.6" style="stroke: #000000; stroke-width: 0.5"/>
      </g>
     </g>
    </g>
    <g id="xtick_25">
     <g id="line2d_57">
      <g>
       <use xlink:href="#mc8b654a868" x="235.144801" y="198.596313" style="stroke: #000000; stroke-width: 0.5"/>
      </g>
     </g>
     <g id="line2d_58">
      <g>
       <use xlink:href="#m35a3c4fb18" x="235.144801" y="3.6" style="stroke: #000000; stroke-width: 0.5"/>
      </g>
     </g>
    </g>
    <g id="xtick_26">
     <g id="line2d_59">
      <g>
       <use xlink:href="#mc8b654a868" x="243.862081" y="198.596313" style="stroke: #000000; stroke-width: 0.5"/>
      </g>
     </g>
     <g id="line2d_60">
      <g>
       <use xlink:href="#m35a3c4fb18" x="243.862081" y="3.6" style="stroke: #000000; stroke-width: 0.5"/>
      </g>
     </g>
    </g>
    <g id="xtick_27">
     <g id="line2d_61">
      <g>
       <use xlink:href="#mc8b654a868" x="252.57936" y="198.596313" style="stroke: #000000; stroke-width: 0.5"/>
      </g>
     </g>
     <g id="line2d_62">
      <g>
       <use xlink:href="#m35a3c4fb18" x="252.57936" y="3.6" style="stroke: #000000; stroke-width: 0.5"/>
      </g>
     </g>
    </g>
    <g id="xtick_28">
     <g id="line2d_63">
      <g>
       <use xlink:href="#mc8b654a868" x="261.296639" y="198.596313" style="stroke: #000000; stroke-width: 0.5"/>
      </g>
     </g>
     <g id="line2d_64">
      <g>
       <use xlink:href="#m35a3c4fb18" x="261.296639" y="3.6" style="stroke: #000000; stroke-width: 0.5"/>
      </g>
     </g>
    </g>
    <g id="xtick_29">
     <g id="line2d_65">
      <g>
       <use xlink:href="#mc8b654a868" x="278.731198" y="198.596313" style="stroke: #000000; stroke-width: 0.5"/>
      </g>
     </g>
     <g id="line2d_66">
      <g>
       <use xlink:href="#m35a3c4fb18" x="278.731198" y="3.6" style="stroke: #000000; stroke-width: 0.5"/>
      </g>
     </g>
    </g>
    <g id="xtick_30">
     <g id="line2d_67">
      <g>
       <use xlink:href="#mc8b654a868" x="287.448477" y="198.596313" style="stroke: #000000; stroke-width: 0.5"/>
      </g>
     </g>
     <g id="line2d_68">
      <g>
       <use xlink:href="#m35a3c4fb18" x="287.448477" y="3.6" style="stroke: #000000; stroke-width: 0.5"/>
      </g>
     </g>
    </g>
    <g id="xtick_31">
     <g id="line2d_69">
      <g>
       <use xlink:href="#mc8b654a868" x="296.165756" y="198.596313" style="stroke: #000000; stroke-width: 0.5"/>
      </g>
     </g>
     <g id="line2d_70">
      <g>
       <use xlink:href="#m35a3c4fb18" x="296.165756" y="3.6" style="stroke: #000000; stroke-width: 0.5"/>
      </g>
     </g>
    </g>
    <g id="xtick_32">
     <g id="line2d_71">
      <g>
       <use xlink:href="#mc8b654a868" x="304.883036" y="198.596313" style="stroke: #000000; stroke-width: 0.5"/>
      </g>
     </g>
     <g id="line2d_72">
      <g>
       <use xlink:href="#m35a3c4fb18" x="304.883036" y="3.6" style="stroke: #000000; stroke-width: 0.5"/>
      </g>
     </g>
    </g>
    <g id="xtick_33">
     <g id="line2d_73">
      <g>
       <use xlink:href="#mc8b654a868" x="322.317594" y="198.596313" style="stroke: #000000; stroke-width: 0.5"/>
      </g>
     </g>
     <g id="line2d_74">
      <g>
       <use xlink:href="#m35a3c4fb18" x="322.317594" y="3.6" style="stroke: #000000; stroke-width: 0.5"/>
      </g>
     </g>
    </g>
    <g id="xtick_34">
     <g id="line2d_75">
      <g>
       <use xlink:href="#mc8b654a868" x="331.034874" y="198.596313" style="stroke: #000000; stroke-width: 0.5"/>
      </g>
     </g>
     <g id="line2d_76">
      <g>
       <use xlink:href="#m35a3c4fb18" x="331.034874" y="3.6" style="stroke: #000000; stroke-width: 0.5"/>
      </g>
     </g>
    </g>
    <g id="xtick_35">
     <g id="line2d_77">
      <g>
       <use xlink:href="#mc8b654a868" x="339.752153" y="198.596313" style="stroke: #000000; stroke-width: 0.5"/>
      </g>
     </g>
     <g id="line2d_78">
      <g>
       <use xlink:href="#m35a3c4fb18" x="339.752153" y="3.6" style="stroke: #000000; stroke-width: 0.5"/>
      </g>
     </g>
    </g>
    <g id="xtick_36">
     <g id="line2d_79">
      <g>
       <use xlink:href="#mc8b654a868" x="348.469432" y="198.596313" style="stroke: #000000; stroke-width: 0.5"/>
      </g>
     </g>
     <g id="line2d_80">
      <g>
       <use xlink:href="#m35a3c4fb18" x="348.469432" y="3.6" style="stroke: #000000; stroke-width: 0.5"/>
      </g>
     </g>
    </g>
    <g id="xtick_37">
     <g id="line2d_81">
      <g>
       <use xlink:href="#mc8b654a868" x="365.903991" y="198.596313" style="stroke: #000000; stroke-width: 0.5"/>
      </g>
     </g>
     <g id="line2d_82">
      <g>
       <use xlink:href="#m35a3c4fb18" x="365.903991" y="3.6" style="stroke: #000000; stroke-width: 0.5"/>
      </g>
     </g>
    </g>
    <g id="xtick_38">
     <g id="line2d_83">
      <g>
       <use xlink:href="#mc8b654a868" x="374.62127" y="198.596313" style="stroke: #000000; stroke-width: 0.5"/>
      </g>
     </g>
     <g id="line2d_84">
      <g>
       <use xlink:href="#m35a3c4fb18" x="374.62127" y="3.6" style="stroke: #000000; stroke-width: 0.5"/>
      </g>
     </g>
    </g>
    <g id="xtick_39">
     <g id="line2d_85">
      <g>
       <use xlink:href="#mc8b654a868" x="383.338549" y="198.596313" style="stroke: #000000; stroke-width: 0.5"/>
      </g>
     </g>
     <g id="line2d_86">
      <g>
       <use xlink:href="#m35a3c4fb18" x="383.338549" y="3.6" style="stroke: #000000; stroke-width: 0.5"/>
      </g>
     </g>
    </g>
    <g id="text_9">
     <!-- y -->
     <g transform="translate(215.701875 226.828188) scale(0.12 -0.12)">
      <defs>
       <path id="DejaVuSans-79" d="M 2059 -325 
Q 1816 -950 1584 -1140 
Q 1353 -1331 966 -1331 
L 506 -1331 
L 506 -850 
L 844 -850 
Q 1081 -850 1212 -737 
Q 1344 -625 1503 -206 
L 1606 56 
L 191 3500 
L 800 3500 
L 1894 763 
L 2988 3500 
L 3597 3500 
L 2059 -325 
z
" transform="scale(0.015625)"/>
      </defs>
      <use xlink:href="#DejaVuSans-79"/>
     </g>
    </g>
   </g>
   <g id="matplotlib.axis_2">
    <g id="ytick_1">
     <g id="line2d_87">
      <path d="M 51.853125 196.494236 
L 386.653125 196.494236 
" clip-path="url(#p1da03ed06c)" style="fill: none; stroke: #b0b0b0; stroke-width: 0.5; stroke-linecap: square"/>
     </g>
     <g id="line2d_88">
      <defs>
       <path id="m7adf4457ba" d="M 0 0 
L 3 0 
" style="stroke: #000000; stroke-width: 0.5"/>
      </defs>
      <g>
       <use xlink:href="#m7adf4457ba" x="51.853125" y="196.494236" style="stroke: #000000; stroke-width: 0.5"/>
      </g>
     </g>
     <g id="line2d_89">
      <defs>
       <path id="m3bda1da28d" d="M 0 0 
L -3 0 
" style="stroke: #000000; stroke-width: 0.5"/>
      </defs>
      <g>
       <use xlink:href="#m3bda1da28d" x="386.653125" y="196.494236" style="stroke: #000000; stroke-width: 0.5"/>
      </g>
     </g>
     <g id="text_10">
      <!-- −0.2 -->
      <g transform="translate(19.21375 201.053299) scale(0.12 -0.12)">
       <use xlink:href="#DejaVuSans-2212"/>
       <use xlink:href="#DejaVuSans-30" x="83.789062"/>
       <use xlink:href="#DejaVuSans-2e" x="147.412109"/>
       <use xlink:href="#DejaVuSans-32" x="179.199219"/>
      </g>
     </g>
    </g>
    <g id="ytick_2">
     <g id="line2d_90">
      <path d="M 51.853125 152.90784 
L 386.653125 152.90784 
" clip-path="url(#p1da03ed06c)" style="fill: none; stroke: #b0b0b0; stroke-width: 0.5; stroke-linecap: square"/>
     </g>
     <g id="line2d_91">
      <g>
       <use xlink:href="#m7adf4457ba" x="51.853125" y="152.90784" style="stroke: #000000; stroke-width: 0.5"/>
      </g>
     </g>
     <g id="line2d_92">
      <g>
       <use xlink:href="#m3bda1da28d" x="386.653125" y="152.90784" style="stroke: #000000; stroke-width: 0.5"/>
      </g>
     </g>
     <g id="text_11">
      <!-- −0.1 -->
      <g transform="translate(19.21375 157.466902) scale(0.12 -0.12)">
       <use xlink:href="#DejaVuSans-2212"/>
       <use xlink:href="#DejaVuSans-30" x="83.789062"/>
       <use xlink:href="#DejaVuSans-2e" x="147.412109"/>
       <use xlink:href="#DejaVuSans-31" x="179.199219"/>
      </g>
     </g>
    </g>
    <g id="ytick_3">
     <g id="line2d_93">
      <path d="M 51.853125 109.321443 
L 386.653125 109.321443 
" clip-path="url(#p1da03ed06c)" style="fill: none; stroke: #b0b0b0; stroke-width: 0.5; stroke-linecap: square"/>
     </g>
     <g id="line2d_94">
      <g>
       <use xlink:href="#m7adf4457ba" x="51.853125" y="109.321443" style="stroke: #000000; stroke-width: 0.5"/>
      </g>
     </g>
     <g id="line2d_95">
      <g>
       <use xlink:href="#m3bda1da28d" x="386.653125" y="109.321443" style="stroke: #000000; stroke-width: 0.5"/>
      </g>
     </g>
     <g id="text_12">
      <!-- 0.0 -->
      <g transform="translate(29.269375 113.880506) scale(0.12 -0.12)">
       <use xlink:href="#DejaVuSans-30"/>
       <use xlink:href="#DejaVuSans-2e" x="63.623047"/>
       <use xlink:href="#DejaVuSans-30" x="95.410156"/>
      </g>
     </g>
    </g>
    <g id="ytick_4">
     <g id="line2d_96">
      <path d="M 51.853125 65.735047 
L 386.653125 65.735047 
" clip-path="url(#p1da03ed06c)" style="fill: none; stroke: #b0b0b0; stroke-width: 0.5; stroke-linecap: square"/>
     </g>
     <g id="line2d_97">
      <g>
       <use xlink:href="#m7adf4457ba" x="51.853125" y="65.735047" style="stroke: #000000; stroke-width: 0.5"/>
      </g>
     </g>
     <g id="line2d_98">
      <g>
       <use xlink:href="#m3bda1da28d" x="386.653125" y="65.735047" style="stroke: #000000; stroke-width: 0.5"/>
      </g>
     </g>
     <g id="text_13">
      <!-- 0.1 -->
      <g transform="translate(29.269375 70.29411) scale(0.12 -0.12)">
       <use xlink:href="#DejaVuSans-30"/>
       <use xlink:href="#DejaVuSans-2e" x="63.623047"/>
       <use xlink:href="#DejaVuSans-31" x="95.410156"/>
      </g>
     </g>
    </g>
    <g id="ytick_5">
     <g id="line2d_99">
      <path d="M 51.853125 22.148651 
L 386.653125 22.148651 
" clip-path="url(#p1da03ed06c)" style="fill: none; stroke: #b0b0b0; stroke-width: 0.5; stroke-linecap: square"/>
     </g>
     <g id="line2d_100">
      <g>
       <use xlink:href="#m7adf4457ba" x="51.853125" y="22.148651" style="stroke: #000000; stroke-width: 0.5"/>
      </g>
     </g>
     <g id="line2d_101">
      <g>
       <use xlink:href="#m3bda1da28d" x="386.653125" y="22.148651" style="stroke: #000000; stroke-width: 0.5"/>
      </g>
     </g>
     <g id="text_14">
      <!-- 0.2 -->
      <g transform="translate(29.269375 26.707713) scale(0.12 -0.12)">
       <use xlink:href="#DejaVuSans-30"/>
       <use xlink:href="#DejaVuSans-2e" x="63.623047"/>
       <use xlink:href="#DejaVuSans-32" x="95.410156"/>
      </g>
     </g>
    </g>
    <g id="ytick_6">
     <g id="line2d_102">
      <defs>
       <path id="m20153a63da" d="M 0 0 
L 1.5 0 
" style="stroke: #000000; stroke-width: 0.5"/>
      </defs>
      <g>
       <use xlink:href="#m20153a63da" x="51.853125" y="187.776957" style="stroke: #000000; stroke-width: 0.5"/>
      </g>
     </g>
     <g id="line2d_103">
      <defs>
       <path id="mea378f4fc4" d="M 0 0 
L -1.5 0 
" style="stroke: #000000; stroke-width: 0.5"/>
      </defs>
      <g>
       <use xlink:href="#mea378f4fc4" x="386.653125" y="187.776957" style="stroke: #000000; stroke-width: 0.5"/>
      </g>
     </g>
    </g>
    <g id="ytick_7">
     <g id="line2d_104">
      <g>
       <use xlink:href="#m20153a63da" x="51.853125" y="179.059678" style="stroke: #000000; stroke-width: 0.5"/>
      </g>
     </g>
     <g id="line2d_105">
      <g>
       <use xlink:href="#mea378f4fc4" x="386.653125" y="179.059678" style="stroke: #000000; stroke-width: 0.5"/>
      </g>
     </g>
    </g>
    <g id="ytick_8">
     <g id="line2d_106">
      <g>
       <use xlink:href="#m20153a63da" x="51.853125" y="170.342399" style="stroke: #000000; stroke-width: 0.5"/>
      </g>
     </g>
     <g id="line2d_107">
      <g>
       <use xlink:href="#mea378f4fc4" x="386.653125" y="170.342399" style="stroke: #000000; stroke-width: 0.5"/>
      </g>
     </g>
    </g>
    <g id="ytick_9">
     <g id="line2d_108">
      <g>
       <use xlink:href="#m20153a63da" x="51.853125" y="161.625119" style="stroke: #000000; stroke-width: 0.5"/>
      </g>
     </g>
     <g id="line2d_109">
      <g>
       <use xlink:href="#mea378f4fc4" x="386.653125" y="161.625119" style="stroke: #000000; stroke-width: 0.5"/>
      </g>
     </g>
    </g>
    <g id="ytick_10">
     <g id="line2d_110">
      <g>
       <use xlink:href="#m20153a63da" x="51.853125" y="144.190561" style="stroke: #000000; stroke-width: 0.5"/>
      </g>
     </g>
     <g id="line2d_111">
      <g>
       <use xlink:href="#mea378f4fc4" x="386.653125" y="144.190561" style="stroke: #000000; stroke-width: 0.5"/>
      </g>
     </g>
    </g>
    <g id="ytick_11">
     <g id="line2d_112">
      <g>
       <use xlink:href="#m20153a63da" x="51.853125" y="135.473281" style="stroke: #000000; stroke-width: 0.5"/>
      </g>
     </g>
     <g id="line2d_113">
      <g>
       <use xlink:href="#mea378f4fc4" x="386.653125" y="135.473281" style="stroke: #000000; stroke-width: 0.5"/>
      </g>
     </g>
    </g>
    <g id="ytick_12">
     <g id="line2d_114">
      <g>
       <use xlink:href="#m20153a63da" x="51.853125" y="126.756002" style="stroke: #000000; stroke-width: 0.5"/>
      </g>
     </g>
     <g id="line2d_115">
      <g>
       <use xlink:href="#mea378f4fc4" x="386.653125" y="126.756002" style="stroke: #000000; stroke-width: 0.5"/>
      </g>
     </g>
    </g>
    <g id="ytick_13">
     <g id="line2d_116">
      <g>
       <use xlink:href="#m20153a63da" x="51.853125" y="118.038723" style="stroke: #000000; stroke-width: 0.5"/>
      </g>
     </g>
     <g id="line2d_117">
      <g>
       <use xlink:href="#mea378f4fc4" x="386.653125" y="118.038723" style="stroke: #000000; stroke-width: 0.5"/>
      </g>
     </g>
    </g>
    <g id="ytick_14">
     <g id="line2d_118">
      <g>
       <use xlink:href="#m20153a63da" x="51.853125" y="100.604164" style="stroke: #000000; stroke-width: 0.5"/>
      </g>
     </g>
     <g id="line2d_119">
      <g>
       <use xlink:href="#mea378f4fc4" x="386.653125" y="100.604164" style="stroke: #000000; stroke-width: 0.5"/>
      </g>
     </g>
    </g>
    <g id="ytick_15">
     <g id="line2d_120">
      <g>
       <use xlink:href="#m20153a63da" x="51.853125" y="91.886885" style="stroke: #000000; stroke-width: 0.5"/>
      </g>
     </g>
     <g id="line2d_121">
      <g>
       <use xlink:href="#mea378f4fc4" x="386.653125" y="91.886885" style="stroke: #000000; stroke-width: 0.5"/>
      </g>
     </g>
    </g>
    <g id="ytick_16">
     <g id="line2d_122">
      <g>
       <use xlink:href="#m20153a63da" x="51.853125" y="83.169606" style="stroke: #000000; stroke-width: 0.5"/>
      </g>
     </g>
     <g id="line2d_123">
      <g>
       <use xlink:href="#mea378f4fc4" x="386.653125" y="83.169606" style="stroke: #000000; stroke-width: 0.5"/>
      </g>
     </g>
    </g>
    <g id="ytick_17">
     <g id="line2d_124">
      <g>
       <use xlink:href="#m20153a63da" x="51.853125" y="74.452326" style="stroke: #000000; stroke-width: 0.5"/>
      </g>
     </g>
     <g id="line2d_125">
      <g>
       <use xlink:href="#mea378f4fc4" x="386.653125" y="74.452326" style="stroke: #000000; stroke-width: 0.5"/>
      </g>
     </g>
    </g>
    <g id="ytick_18">
     <g id="line2d_126">
      <g>
       <use xlink:href="#m20153a63da" x="51.853125" y="57.017768" style="stroke: #000000; stroke-width: 0.5"/>
      </g>
     </g>
     <g id="line2d_127">
      <g>
       <use xlink:href="#mea378f4fc4" x="386.653125" y="57.017768" style="stroke: #000000; stroke-width: 0.5"/>
      </g>
     </g>
    </g>
    <g id="ytick_19">
     <g id="line2d_128">
      <g>
       <use xlink:href="#m20153a63da" x="51.853125" y="48.300488" style="stroke: #000000; stroke-width: 0.5"/>
      </g>
     </g>
     <g id="line2d_129">
      <g>
       <use xlink:href="#mea378f4fc4" x="386.653125" y="48.300488" style="stroke: #000000; stroke-width: 0.5"/>
      </g>
     </g>
    </g>
    <g id="ytick_20">
     <g id="line2d_130">
      <g>
       <use xlink:href="#m20153a63da" x="51.853125" y="39.583209" style="stroke: #000000; stroke-width: 0.5"/>
      </g>
     </g>
     <g id="line2d_131">
      <g>
       <use xlink:href="#mea378f4fc4" x="386.653125" y="39.583209" style="stroke: #000000; stroke-width: 0.5"/>
      </g>
     </g>
    </g>
    <g id="ytick_21">
     <g id="line2d_132">
      <g>
       <use xlink:href="#m20153a63da" x="51.853125" y="30.86593" style="stroke: #000000; stroke-width: 0.5"/>
      </g>
     </g>
     <g id="line2d_133">
      <g>
       <use xlink:href="#mea378f4fc4" x="386.653125" y="30.86593" style="stroke: #000000; stroke-width: 0.5"/>
      </g>
     </g>
    </g>
    <g id="ytick_22">
     <g id="line2d_134">
      <g>
       <use xlink:href="#m20153a63da" x="51.853125" y="13.431371" style="stroke: #000000; stroke-width: 0.5"/>
      </g>
     </g>
     <g id="line2d_135">
      <g>
       <use xlink:href="#mea378f4fc4" x="386.653125" y="13.431371" style="stroke: #000000; stroke-width: 0.5"/>
      </g>
     </g>
    </g>
    <g id="ytick_23">
     <g id="line2d_136">
      <g>
       <use xlink:href="#m20153a63da" x="51.853125" y="4.714092" style="stroke: #000000; stroke-width: 0.5"/>
      </g>
     </g>
     <g id="line2d_137">
      <g>
       <use xlink:href="#mea378f4fc4" x="386.653125" y="4.714092" style="stroke: #000000; stroke-width: 0.5"/>
      </g>
     </g>
    </g>
    <g id="text_15">
     <!-- x -->
     <g transform="translate(12.718125 104.649407) rotate(-90) scale(0.12 -0.12)">
      <defs>
       <path id="DejaVuSans-78" d="M 3513 3500 
L 2247 1797 
L 3578 0 
L 2900 0 
L 1881 1375 
L 863 0 
L 184 0 
L 1544 1831 
L 300 3500 
L 978 3500 
L 1906 2253 
L 2834 3500 
L 3513 3500 
z
" transform="scale(0.015625)"/>
      </defs>
      <use xlink:href="#DejaVuSans-78"/>
     </g>
    </g>
   </g>
   <g id="line2d_138">
    <path d="M 182.841126 109.321443 
L 145.85264 164.728422 
" clip-path="url(#p1da03ed06c)" style="fill: none; stroke: #000000; stroke-linecap: square"/>
   </g>
   <g id="line2d_139">
    <path d="M 145.85264 142.586533 
L 148.684082 142.768317 
L 151.469032 143.310686 
L 154.161761 144.204734 
L 156.718054 145.43578 
L 159.095937 146.98361 
L 161.256366 148.82281 
L 163.163866 150.92318 
L 164.787117 153.250231 
L 166.099463 155.765754 
L 167.079358 158.428444 
L 167.71071 161.194579 
L 167.983153 164.018739 
L 167.892214 166.854553 
L 167.439386 169.655456 
L 166.632104 172.375457 
L 165.483624 174.969894 
L 164.012803 177.396166 
L 162.243794 179.614434 
L 160.205641 181.588274 
L 157.931813 183.285276 
L 155.459646 184.677575 
L 152.829731 185.742309 
L 150.085253 186.461996 
L 147.271276 186.824818 
L 144.434004 186.824818 
L 141.620027 186.461996 
L 138.875549 185.742309 
L 136.245634 184.677575 
L 133.773467 183.285276 
L 131.499639 181.588274 
L 129.461486 179.614434 
L 127.692477 177.396166 
L 126.221656 174.969894 
L 125.073176 172.375457 
L 124.265894 169.655456 
L 123.813066 166.854553 
L 123.722127 164.018739 
L 123.99457 161.194579 
L 124.625922 158.428444 
L 125.605817 155.765754 
L 126.918164 153.250231 
L 128.541414 150.92318 
L 130.448914 148.82281 
L 132.609343 146.98361 
L 134.987226 145.43578 
L 137.543519 144.204734 
L 140.236248 143.310686 
L 143.021198 142.768317 
L 145.85264 142.586533 
" clip-path="url(#p1da03ed06c)" style="fill: none; stroke: #0000ff; stroke-linecap: square"/>
   </g>
   <g id="line2d_140">
    <path d="M 182.841126 109.321443 
L 179.443341 52.189065 
" clip-path="url(#p1da03ed06c)" style="fill: none; stroke: #000000; stroke-linecap: square"/>
   </g>
   <g id="line2d_141">
    <path d="M 179.443341 30.047176 
L 182.274783 30.228961 
L 185.059733 30.77133 
L 187.752462 31.665377 
L 190.308755 32.896423 
L 192.686638 34.444254 
L 194.847067 36.283454 
L 196.754567 38.383823 
L 198.377818 40.710875 
L 199.690164 43.226397 
L 200.670059 45.889087 
L 201.301411 48.655222 
L 201.573854 51.479383 
L 201.482915 54.315197 
L 201.030087 57.116099 
L 200.222805 59.8361 
L 199.074325 62.430537 
L 197.603504 64.856809 
L 195.834495 67.075077 
L 193.796343 69.048918 
L 191.522515 70.74592 
L 189.050347 72.138218 
L 186.420432 73.202953 
L 183.675954 73.92264 
L 180.861977 74.285462 
L 178.024705 74.285462 
L 175.210728 73.92264 
L 172.46625 73.202953 
L 169.836335 72.138218 
L 167.364168 70.74592 
L 165.09034 69.048918 
L 163.052188 67.075077 
L 161.283178 64.856809 
L 159.812357 62.430537 
L 158.663877 59.8361 
L 157.856595 57.116099 
L 157.403767 54.315197 
L 157.312828 51.479383 
L 157.585271 48.655222 
L 158.216624 45.889087 
L 159.196518 43.226397 
L 160.508865 40.710875 
L 162.132115 38.383823 
L 164.039615 36.283454 
L 166.200044 34.444254 
L 168.577927 32.896423 
L 171.134221 31.665377 
L 173.826949 30.77133 
L 176.611899 30.228961 
L 179.443341 30.047176 
" clip-path="url(#p1da03ed06c)" style="fill: none; stroke: #ff0000; stroke-linecap: square"/>
   </g>
   <g id="line2d_142">
    <path d="M 182.841126 109.321443 
L 111.153442 41.98481 
" clip-path="url(#p1da03ed06c)" style="fill: none; stroke: #000000; stroke-linecap: square"/>
   </g>
   <g id="line2d_143">
    <path d="M 111.153442 19.84292 
L 113.984884 20.024705 
L 116.769833 20.567074 
L 119.462562 21.461121 
L 122.018855 22.692167 
L 124.396739 24.239998 
L 126.557168 26.079198 
L 128.464668 28.179568 
L 130.087918 30.506619 
L 131.400265 33.022142 
L 132.380159 35.684831 
L 133.011512 38.450967 
L 133.283955 41.275127 
L 133.193016 44.110941 
L 132.740188 46.911844 
L 131.932906 49.631845 
L 130.784426 52.226281 
L 129.313605 54.652554 
L 127.544595 56.870822 
L 125.506443 58.844662 
L 123.232615 60.541664 
L 120.760447 61.933963 
L 118.130533 62.998697 
L 115.386055 63.718384 
L 112.572077 64.081206 
L 109.734806 64.081206 
L 106.920828 63.718384 
L 104.17635 62.998697 
L 101.546436 61.933963 
L 99.074268 60.541664 
L 96.80044 58.844662 
L 94.762288 56.870822 
L 92.993278 54.652554 
L 91.522458 52.226281 
L 90.373978 49.631845 
L 89.566696 46.911844 
L 89.113867 44.110941 
L 89.022928 41.275127 
L 89.295372 38.450967 
L 89.926724 35.684831 
L 90.906619 33.022142 
L 92.218965 30.506619 
L 93.842215 28.179568 
L 95.749716 26.079198 
L 97.910144 24.239998 
L 100.288028 22.692167 
L 102.844321 21.461121 
L 105.53705 20.567074 
L 108.322 20.024705 
L 111.153442 19.84292 
" clip-path="url(#p1da03ed06c)" style="fill: none; stroke: #0000ff; stroke-linecap: square"/>
   </g>
   <g id="line2d_144">
    <path d="M 182.841126 109.321443 
L 228.127248 134.914271 
" clip-path="url(#p1da03ed06c)" style="fill: none; stroke: #000000; stroke-linecap: square"/>
   </g>
   <g id="line2d_145">
    <path d="M 228.127248 112.772382 
L 230.95869 112.954166 
L 233.74364 113.496535 
L 236.436369 114.390583 
L 238.992662 115.621629 
L 241.370546 117.169459 
L 243.530975 119.008659 
L 245.438475 121.109029 
L 247.061725 123.43608 
L 248.374072 125.951603 
L 249.353966 128.614293 
L 249.985318 131.380428 
L 250.257762 134.204589 
L 250.166823 137.040402 
L 249.713995 139.841305 
L 248.906713 142.561306 
L 247.758232 145.155743 
L 246.287412 147.582015 
L 244.518402 149.800283 
L 242.48025 151.774123 
L 240.206422 153.471125 
L 237.734254 154.863424 
L 235.10434 155.928159 
L 232.359862 156.647846 
L 229.545884 157.010668 
L 226.708613 157.010668 
L 223.894635 156.647846 
L 221.150157 155.928159 
L 218.520243 154.863424 
L 216.048075 153.471125 
L 213.774247 151.774123 
L 211.736095 149.800283 
L 209.967085 147.582015 
L 208.496265 145.155743 
L 207.347784 142.561306 
L 206.540502 139.841305 
L 206.087674 137.040402 
L 205.996735 134.204589 
L 206.269179 131.380428 
L 206.900531 128.614293 
L 207.880425 125.951603 
L 209.192772 123.43608 
L 210.816022 121.109029 
L 212.723522 119.008659 
L 214.883951 117.169459 
L 217.261835 115.621629 
L 219.818128 114.390583 
L 222.510857 113.496535 
L 225.295807 112.954166 
L 228.127248 112.772382 
" clip-path="url(#p1da03ed06c)" style="fill: none; stroke: #0000ff; stroke-linecap: square"/>
   </g>
   <g id="line2d_146">
    <path d="M 182.841126 109.321443 
L 272.441812 56.454874 
" clip-path="url(#p1da03ed06c)" style="fill: none; stroke: #000000; stroke-linecap: square"/>
   </g>
   <g id="line2d_147">
    <path d="M 272.441812 34.312984 
L 275.273254 34.494769 
L 278.058204 35.037138 
L 280.750933 35.931185 
L 283.307226 37.162231 
L 285.68511 38.710062 
L 287.845538 40.549262 
L 289.753039 42.649632 
L 291.376289 44.976683 
L 292.688636 47.492206 
L 293.66853 50.154895 
L 294.299882 52.921031 
L 294.572326 55.745191 
L 294.481387 58.581005 
L 294.028558 61.381908 
L 293.221276 64.101909 
L 292.072796 66.696345 
L 290.601976 69.122618 
L 288.832966 71.340886 
L 286.794814 73.314726 
L 284.520986 75.011728 
L 282.048818 76.404027 
L 279.418904 77.468761 
L 276.674426 78.188448 
L 273.860448 78.55127 
L 271.023177 78.55127 
L 268.209199 78.188448 
L 265.464721 77.468761 
L 262.834807 76.404027 
L 260.362639 75.011728 
L 258.088811 73.314726 
L 256.050659 71.340886 
L 254.281649 69.122618 
L 252.810829 66.696345 
L 251.662348 64.101909 
L 250.855066 61.381908 
L 250.402238 58.581005 
L 250.311299 55.745191 
L 250.583742 52.921031 
L 251.215095 50.154895 
L 252.194989 47.492206 
L 253.507336 44.976683 
L 255.130586 42.649632 
L 257.038086 40.549262 
L 259.198515 38.710062 
L 261.576399 37.162231 
L 264.132692 35.931185 
L 266.825421 35.037138 
L 269.61037 34.494769 
L 272.441812 34.312984 
" clip-path="url(#p1da03ed06c)" style="fill: none; stroke: #0000ff; stroke-linecap: square"/>
   </g>
   <g id="line2d_148">
    <path d="M 182.841126 109.321443 
L 90.528642 107.351223 
" clip-path="url(#p1da03ed06c)" style="fill: none; stroke: #000000; stroke-linecap: square"/>
   </g>
   <g id="line2d_149">
    <path d="M 90.528642 85.209334 
L 93.360084 85.391118 
L 96.145033 85.933487 
L 98.837762 86.827535 
L 101.394055 88.058581 
L 103.771939 89.606411 
L 105.932368 91.445611 
L 107.839868 93.545981 
L 109.463118 95.873032 
L 110.775465 98.388555 
L 111.755359 101.051245 
L 112.386711 103.81738 
L 112.659155 106.641541 
L 112.568216 109.477354 
L 112.115388 112.278257 
L 111.308106 114.998258 
L 110.159625 117.592695 
L 108.688805 120.018967 
L 106.919795 122.237235 
L 104.881643 124.211075 
L 102.607815 125.908077 
L 100.135647 127.300376 
L 97.505733 128.365111 
L 94.761255 129.084798 
L 91.947277 129.44762 
L 89.110006 129.44762 
L 86.296028 129.084798 
L 83.55155 128.365111 
L 80.921636 127.300376 
L 78.449468 125.908077 
L 76.17564 124.211075 
L 74.137488 122.237235 
L 72.368478 120.018967 
L 70.897658 117.592695 
L 69.749178 114.998258 
L 68.941896 112.278257 
L 68.489067 109.477354 
L 68.398128 106.641541 
L 68.670572 103.81738 
L 69.301924 101.051245 
L 70.281818 98.388555 
L 71.594165 95.873032 
L 73.217415 93.545981 
L 75.124916 91.445611 
L 77.285344 89.606411 
L 79.663228 88.058581 
L 82.219521 86.827535 
L 84.91225 85.933487 
L 87.6972 85.391118 
L 90.528642 85.209334 
" clip-path="url(#p1da03ed06c)" style="fill: none; stroke: #ff0000; stroke-linecap: square"/>
   </g>
   <g id="line2d_150">
    <path d="M 182.841126 109.321443 
L 89.20182 167.636448 
" clip-path="url(#p1da03ed06c)" style="fill: none; stroke: #000000; stroke-linecap: square"/>
   </g>
   <g id="line2d_151">
    <path d="M 89.20182 145.494559 
L 92.033262 145.676343 
L 94.818212 146.218712 
L 97.510941 147.11276 
L 100.067234 148.343806 
L 102.445117 149.891636 
L 104.605546 151.730836 
L 106.513046 153.831206 
L 108.136297 156.158257 
L 109.448643 158.67378 
L 110.428538 161.33647 
L 111.05989 164.102605 
L 111.332333 166.926766 
L 111.241394 169.762579 
L 110.788566 172.563482 
L 109.981284 175.283483 
L 108.832804 177.87792 
L 107.361983 180.304192 
L 105.592974 182.52246 
L 103.554822 184.4963 
L 101.280994 186.193302 
L 98.808826 187.585601 
L 96.178911 188.650335 
L 93.434433 189.370022 
L 90.620456 189.732845 
L 87.783184 189.732845 
L 84.969207 189.370022 
L 82.224729 188.650335 
L 79.594814 187.585601 
L 77.122647 186.193302 
L 74.848819 184.4963 
L 72.810667 182.52246 
L 71.041657 180.304192 
L 69.570836 177.87792 
L 68.422356 175.283483 
L 67.615074 172.563482 
L 67.162246 169.762579 
L 67.071307 166.926766 
L 67.34375 164.102605 
L 67.975103 161.33647 
L 68.954997 158.67378 
L 70.267344 156.158257 
L 71.890594 153.831206 
L 73.798094 151.730836 
L 75.958523 149.891636 
L 78.336406 148.343806 
L 80.8927 147.11276 
L 83.585428 146.218712 
L 86.370378 145.676343 
L 89.20182 145.494559 
" clip-path="url(#p1da03ed06c)" style="fill: none; stroke: #0000ff; stroke-linecap: square"/>
   </g>
   <g id="line2d_152">
    <path d="M 182.841126 109.321443 
L 324.029238 142.758454 
" clip-path="url(#p1da03ed06c)" style="fill: none; stroke: #000000; stroke-linecap: square"/>
   </g>
   <g id="line2d_153">
    <path d="M 324.029238 120.616565 
L 326.86068 120.798349 
L 329.64563 121.340718 
L 332.338359 122.234766 
L 334.894652 123.465812 
L 337.272535 125.013642 
L 339.432964 126.852842 
L 341.340464 128.953212 
L 342.963715 131.280263 
L 344.276061 133.795786 
L 345.255956 136.458476 
L 345.887308 139.224611 
L 346.159752 142.048772 
L 346.068812 144.884585 
L 345.615984 147.685488 
L 344.808702 150.405489 
L 343.660222 152.999926 
L 342.189402 155.426198 
L 340.420392 157.644466 
L 338.38224 159.618306 
L 336.108412 161.315308 
L 333.636244 162.707607 
L 331.00633 163.772342 
L 328.261851 164.492028 
L 325.447874 164.854851 
L 322.610603 164.854851 
L 319.796625 164.492028 
L 317.052147 163.772342 
L 314.422232 162.707607 
L 311.950065 161.315308 
L 309.676237 159.618306 
L 307.638085 157.644466 
L 305.869075 155.426198 
L 304.398254 152.999926 
L 303.249774 150.405489 
L 302.442492 147.685488 
L 301.989664 144.884585 
L 301.898725 142.048772 
L 302.171168 139.224611 
L 302.802521 136.458476 
L 303.782415 133.795786 
L 305.094762 131.280263 
L 306.718012 128.953212 
L 308.625512 126.852842 
L 310.785941 125.013642 
L 313.163824 123.465812 
L 315.720118 122.234766 
L 318.412847 121.340718 
L 321.197796 120.798349 
L 324.029238 120.616565 
" clip-path="url(#p1da03ed06c)" style="fill: none; stroke: #0000ff; stroke-linecap: square"/>
   </g>
   <g id="patch_11">
    <path d="M 51.853125 198.596313 
L 51.853125 3.6 
" style="fill: none; stroke: #000000; stroke-width: 0.5; stroke-linejoin: miter; stroke-linecap: square"/>
   </g>
   <g id="patch_12">
    <path d="M 386.653125 198.596313 
L 386.653125 3.6 
" style="fill: none; stroke: #000000; stroke-width: 0.5; stroke-linejoin: miter; stroke-linecap: square"/>
   </g>
   <g id="patch_13">
    <path d="M 51.853125 198.596313 
L 386.653125 198.596313 
" style="fill: none; stroke: #000000; stroke-width: 0.5; stroke-linejoin: miter; stroke-linecap: square"/>
   </g>
   <g id="patch_14">
    <path d="M 51.853125 3.6 
L 386.653125 3.6 
" style="fill: none; stroke: #000000; stroke-width: 0.5; stroke-linejoin: miter; stroke-linecap: square"/>
   </g>
   <g id="text_16">
    <!-- 0 -->
    <g transform="translate(145.85264 164.728422) scale(0.12 -0.12)">
     <use xlink:href="#DejaVuSans-30"/>
    </g>
   </g>
   <g id="text_17">
    <!-- 1 -->
    <g transform="translate(179.443341 52.189065) scale(0.12 -0.12)">
     <use xlink:href="#DejaVuSans-31"/>
    </g>
   </g>
   <g id="text_18">
    <!-- 2 -->
    <g transform="translate(111.153442 41.98481) scale(0.12 -0.12)">
     <use xlink:href="#DejaVuSans-32"/>
    </g>
   </g>
   <g id="text_19">
    <!-- 3 -->
    <g transform="translate(228.127248 134.914271) scale(0.12 -0.12)">
     <use xlink:href="#DejaVuSans-33"/>
    </g>
   </g>
   <g id="text_20">
    <!-- 4 -->
    <g transform="translate(272.441812 56.454874) scale(0.12 -0.12)">
     <use xlink:href="#DejaVuSans-34"/>
    </g>
   </g>
   <g id="text_21">
    <!-- 5 -->
    <g transform="translate(90.528642 107.351223) scale(0.12 -0.12)">
     <defs>
      <path id="DejaVuSans-35" d="M 691 4666 
L 3169 4666 
L 3169 4134 
L 1269 4134 
L 1269 2991 
Q 1406 3038 1543 3061 
Q 1681 3084 1819 3084 
Q 2600 3084 3056 2656 
Q 3513 2228 3513 1497 
Q 3513 744 3044 326 
Q 2575 -91 1722 -91 
Q 1428 -91 1123 -41 
Q 819 9 494 109 
L 494 744 
Q 775 591 1075 516 
Q 1375 441 1709 441 
Q 2250 441 2565 725 
Q 2881 1009 2881 1497 
Q 2881 1984 2565 2268 
Q 2250 2553 1709 2553 
Q 1456 2553 1204 2497 
Q 953 2441 691 2322 
L 691 4666 
z
" transform="scale(0.015625)"/>
     </defs>
     <use xlink:href="#DejaVuSans-35"/>
    </g>
   </g>
   <g id="text_22">
    <!-- 6 -->
    <g transform="translate(89.20182 167.636448) scale(0.12 -0.12)">
     <defs>
      <path id="DejaVuSans-36" d="M 2113 2584 
Q 1688 2584 1439 2293 
Q 1191 2003 1191 1497 
Q 1191 994 1439 701 
Q 1688 409 2113 409 
Q 2538 409 2786 701 
Q 3034 994 3034 1497 
Q 3034 2003 2786 2293 
Q 2538 2584 2113 2584 
z
M 3366 4563 
L 3366 3988 
Q 3128 4100 2886 4159 
Q 2644 4219 2406 4219 
Q 1781 4219 1451 3797 
Q 1122 3375 1075 2522 
Q 1259 2794 1537 2939 
Q 1816 3084 2150 3084 
Q 2853 3084 3261 2657 
Q 3669 2231 3669 1497 
Q 3669 778 3244 343 
Q 2819 -91 2113 -91 
Q 1303 -91 875 529 
Q 447 1150 447 2328 
Q 447 3434 972 4092 
Q 1497 4750 2381 4750 
Q 2619 4750 2861 4703 
Q 3103 4656 3366 4563 
z
" transform="scale(0.015625)"/>
     </defs>
     <use xlink:href="#DejaVuSans-36"/>
    </g>
   </g>
   <g id="text_23">
    <!-- 7 -->
    <g transform="translate(324.029238 142.758454) scale(0.12 -0.12)">
     <defs>
      <path id="DejaVuSans-37" d="M 525 4666 
L 3525 4666 
L 3525 4397 
L 1831 0 
L 1172 0 
L 2766 4134 
L 525 4134 
L 525 4666 
z
" transform="scale(0.015625)"/>
     </defs>
     <use xlink:href="#DejaVuSans-37"/>
    </g>
   </g>
   <g id="text_24">
    <!-- C.G. -->
    <g transform="translate(181.580471 108.758816) scale(0.12 -0.12)">
     <defs>
      <path id="DejaVuSans-43" d="M 4122 4306 
L 4122 3641 
Q 3803 3938 3442 4084 
Q 3081 4231 2675 4231 
Q 1875 4231 1450 3742 
Q 1025 3253 1025 2328 
Q 1025 1406 1450 917 
Q 1875 428 2675 428 
Q 3081 428 3442 575 
Q 3803 722 4122 1019 
L 4122 359 
Q 3791 134 3420 21 
Q 3050 -91 2638 -91 
Q 1578 -91 968 557 
Q 359 1206 359 2328 
Q 359 3453 968 4101 
Q 1578 4750 2638 4750 
Q 3056 4750 3426 4639 
Q 3797 4528 4122 4306 
z
" transform="scale(0.015625)"/>
      <path id="DejaVuSans-47" d="M 3809 666 
L 3809 1919 
L 2778 1919 
L 2778 2438 
L 4434 2438 
L 4434 434 
Q 4069 175 3628 42 
Q 3188 -91 2688 -91 
Q 1594 -91 976 548 
Q 359 1188 359 2328 
Q 359 3472 976 4111 
Q 1594 4750 2688 4750 
Q 3144 4750 3555 4637 
Q 3966 4525 4313 4306 
L 4313 3634 
Q 3963 3931 3569 4081 
Q 3175 4231 2741 4231 
Q 1884 4231 1454 3753 
Q 1025 3275 1025 2328 
Q 1025 1384 1454 906 
Q 1884 428 2741 428 
Q 3075 428 3337 486 
Q 3600 544 3809 666 
z
" transform="scale(0.015625)"/>
     </defs>
     <use xlink:href="#DejaVuSans-43"/>
     <use xlink:href="#DejaVuSans-2e" x="69.824219"/>
     <use xlink:href="#DejaVuSans-47" x="101.611328"/>
     <use xlink:href="#DejaVuSans-2e" x="179.101562"/>
    </g>
   </g>
   <g id="legend_1">
    <g id="patch_15">
     <path d="M 285.64875 129.318782 
L 378.253125 129.318782 
Q 380.653125 129.318782 380.653125 126.918782 
L 380.653125 75.277532 
Q 380.653125 72.877532 378.253125 72.877532 
L 285.64875 72.877532 
Q 283.24875 72.877532 283.24875 75.277532 
L 283.24875 126.918782 
Q 283.24875 129.318782 285.64875 129.318782 
z
" style="fill: #ffffff; opacity: 0.8; stroke: #cccccc; stroke-linejoin: miter"/>
    </g>
    <g id="line2d_154">
     <path d="M 288.04875 82.595657 
L 300.04875 82.595657 
L 312.04875 82.595657 
" style="fill: none; stroke: #ff0000; stroke-linecap: square"/>
    </g>
    <g id="text_25">
     <!-- CCW -->
     <g transform="translate(321.64875 86.795657) scale(0.12 -0.12)">
      <defs>
       <path id="DejaVuSans-57" d="M 213 4666 
L 850 4666 
L 1831 722 
L 2809 4666 
L 3519 4666 
L 4500 722 
L 5478 4666 
L 6119 4666 
L 4947 0 
L 4153 0 
L 3169 4050 
L 2175 0 
L 1381 0 
L 213 4666 
z
" transform="scale(0.015625)"/>
      </defs>
      <use xlink:href="#DejaVuSans-43"/>
      <use xlink:href="#DejaVuSans-43" x="69.824219"/>
      <use xlink:href="#DejaVuSans-57" x="139.648438"/>
     </g>
    </g>
    <g id="line2d_155">
     <path d="M 288.04875 100.209407 
L 300.04875 100.209407 
L 312.04875 100.209407 
" style="fill: none; stroke: #0000ff; stroke-linecap: square"/>
    </g>
    <g id="text_26">
     <!-- CW -->
     <g transform="translate(321.64875 104.409407) scale(0.12 -0.12)">
      <use xlink:href="#DejaVuSans-43"/>
      <use xlink:href="#DejaVuSans-57" x="69.824219"/>
     </g>
    </g>
    <g id="line2d_156">
     <path d="M 288.04875 117.823157 
L 300.04875 117.823157 
L 312.04875 117.823157 
" style="fill: none; stroke-dasharray: 3.7,1.6; stroke-dashoffset: 0; stroke: #008000"/>
    </g>
    <g id="text_27">
     <!-- Direction -->
     <g transform="translate(321.64875 122.023157) scale(0.12 -0.12)">
      <defs>
       <path id="DejaVuSans-44" d="M 1259 4147 
L 1259 519 
L 2022 519 
Q 2988 519 3436 956 
Q 3884 1394 3884 2338 
Q 3884 3275 3436 3711 
Q 2988 4147 2022 4147 
L 1259 4147 
z
M 628 4666 
L 1925 4666 
Q 3281 4666 3915 4102 
Q 4550 3538 4550 2338 
Q 4550 1131 3912 565 
Q 3275 0 1925 0 
L 628 0 
L 628 4666 
z
" transform="scale(0.015625)"/>
       <path id="DejaVuSans-69" d="M 603 3500 
L 1178 3500 
L 1178 0 
L 603 0 
L 603 3500 
z
M 603 4863 
L 1178 4863 
L 1178 4134 
L 603 4134 
L 603 4863 
z
" transform="scale(0.015625)"/>
       <path id="DejaVuSans-72" d="M 2631 2963 
Q 2534 3019 2420 3045 
Q 2306 3072 2169 3072 
Q 1681 3072 1420 2755 
Q 1159 2438 1159 1844 
L 1159 0 
L 581 0 
L 581 3500 
L 1159 3500 
L 1159 2956 
Q 1341 3275 1631 3429 
Q 1922 3584 2338 3584 
Q 2397 3584 2469 3576 
Q 2541 3569 2628 3553 
L 2631 2963 
z
" transform="scale(0.015625)"/>
       <path id="DejaVuSans-65" d="M 3597 1894 
L 3597 1613 
L 953 1613 
Q 991 1019 1311 708 
Q 1631 397 2203 397 
Q 2534 397 2845 478 
Q 3156 559 3463 722 
L 3463 178 
Q 3153 47 2828 -22 
Q 2503 -91 2169 -91 
Q 1331 -91 842 396 
Q 353 884 353 1716 
Q 353 2575 817 3079 
Q 1281 3584 2069 3584 
Q 2775 3584 3186 3129 
Q 3597 2675 3597 1894 
z
M 3022 2063 
Q 3016 2534 2758 2815 
Q 2500 3097 2075 3097 
Q 1594 3097 1305 2825 
Q 1016 2553 972 2059 
L 3022 2063 
z
" transform="scale(0.015625)"/>
       <path id="DejaVuSans-63" d="M 3122 3366 
L 3122 2828 
Q 2878 2963 2633 3030 
Q 2388 3097 2138 3097 
Q 1578 3097 1268 2742 
Q 959 2388 959 1747 
Q 959 1106 1268 751 
Q 1578 397 2138 397 
Q 2388 397 2633 464 
Q 2878 531 3122 666 
L 3122 134 
Q 2881 22 2623 -34 
Q 2366 -91 2075 -91 
Q 1284 -91 818 406 
Q 353 903 353 1747 
Q 353 2603 823 3093 
Q 1294 3584 2113 3584 
Q 2378 3584 2631 3529 
Q 2884 3475 3122 3366 
z
" transform="scale(0.015625)"/>
       <path id="DejaVuSans-74" d="M 1172 4494 
L 1172 3500 
L 2356 3500 
L 2356 3053 
L 1172 3053 
L 1172 1153 
Q 1172 725 1289 603 
Q 1406 481 1766 481 
L 2356 481 
L 2356 0 
L 1766 0 
Q 1100 0 847 248 
Q 594 497 594 1153 
L 594 3053 
L 172 3053 
L 172 3500 
L 594 3500 
L 594 4494 
L 1172 4494 
z
" transform="scale(0.015625)"/>
       <path id="DejaVuSans-6f" d="M 1959 3097 
Q 1497 3097 1228 2736 
Q 959 2375 959 1747 
Q 959 1119 1226 758 
Q 1494 397 1959 397 
Q 2419 397 2687 759 
Q 2956 1122 2956 1747 
Q 2956 2369 2687 2733 
Q 2419 3097 1959 3097 
z
M 1959 3584 
Q 2709 3584 3137 3096 
Q 3566 2609 3566 1747 
Q 3566 888 3137 398 
Q 2709 -91 1959 -91 
Q 1206 -91 779 398 
Q 353 888 353 1747 
Q 353 2609 779 3096 
Q 1206 3584 1959 3584 
z
" transform="scale(0.015625)"/>
       <path id="DejaVuSans-6e" d="M 3513 2113 
L 3513 0 
L 2938 0 
L 2938 2094 
Q 2938 2591 2744 2837 
Q 2550 3084 2163 3084 
Q 1697 3084 1428 2787 
Q 1159 2491 1159 1978 
L 1159 0 
L 581 0 
L 581 3500 
L 1159 3500 
L 1159 2956 
Q 1366 3272 1645 3428 
Q 1925 3584 2291 3584 
Q 2894 3584 3203 3211 
Q 3513 2838 3513 2113 
z
" transform="scale(0.015625)"/>
      </defs>
      <use xlink:href="#DejaVuSans-44"/>
      <use xlink:href="#DejaVuSans-69" x="77.001953"/>
      <use xlink:href="#DejaVuSans-72" x="104.785156"/>
      <use xlink:href="#DejaVuSans-65" x="143.648438"/>
      <use xlink:href="#DejaVuSans-63" x="205.171875"/>
      <use xlink:href="#DejaVuSans-74" x="260.152344"/>
      <use xlink:href="#DejaVuSans-69" x="299.361328"/>
      <use xlink:href="#DejaVuSans-6f" x="327.144531"/>
      <use xlink:href="#DejaVuSans-6e" x="388.326172"/>
     </g>
    </g>
   </g>
  </g>
 </g>
 <defs>
  <clipPath id="p1da03ed06c">
   <rect x="51.853125" y="3.6" width="334.8" height="194.996313"/>
  </clipPath>
 </defs>
</svg>
