<?xml version="1.0" encoding="utf-8" standalone="no"?>
<!DOCTYPE svg PUBLIC "-//W3C//DTD SVG 1.1//EN"
  "http://www.w3.org/Graphics/SVG/1.1/DTD/svg11.dtd">
<svg xmlns:xlink="http://www.w3.org/1999/xlink" width="386.439375pt" height="287.4075pt" viewBox="0 0 386.439375 287.4075" xmlns="http://www.w3.org/2000/svg" version="1.1">
 <metadata>
  <rdf:RDF xmlns:dc="http://purl.org/dc/elements/1.1/" xmlns:cc="http://creativecommons.org/ns#" xmlns:rdf="http://www.w3.org/1999/02/22-rdf-syntax-ns#">
   <cc:Work>
    <dc:type rdf:resource="http://purl.org/dc/dcmitype/StillImage"/>
    <dc:date>2024-06-04T12:15:12.401567</dc:date>
    <dc:format>image/svg+xml</dc:format>
    <dc:creator>
     <cc:Agent>
      <dc:title>Matplotlib v3.9.0, https://matplotlib.org/</dc:title>
     </cc:Agent>
    </dc:creator>
   </cc:Work>
  </rdf:RDF>
 </metadata>
 <defs>
  <style type="text/css">*{stroke-linejoin: round; stroke-linecap: butt}</style>
 </defs>
 <g id="figure_1">
  <g id="patch_1">
   <path d="M 0 287.4075 
L 386.439375 287.4075 
L 386.439375 0 
L 0 0 
z
" style="fill: #ffffff"/>
  </g>
  <g id="axes_1">
   <g id="patch_2">
    <path d="M 48.039375 253.08 
L 382.839375 253.08 
L 382.839375 3.6 
L 48.039375 3.6 
z
" style="fill: #ffffff"/>
   </g>
   <g id="PolyCollection_1">
    <defs>
     <path id="mfd8e589b9f" d="M 63.257557 -232.598936 
L 63.257557 -45.6675 
L 63.867504 -45.908195 
L 64.477451 -46.85687 
L 65.087398 -46.759521 
L 65.697345 -47.776992 
L 66.307293 -47.364369 
L 66.91724 -48.740493 
L 67.527187 -49.520486 
L 68.137134 -49.750182 
L 68.747081 -54.963803 
L 69.357028 -51.944141 
L 69.966976 -97.126545 
L 70.576923 -128.740213 
L 71.18687 -49.400681 
L 71.796817 -57.672748 
L 72.406764 -134.201343 
L 73.016711 -67.882738 
L 73.626659 -48.933473 
L 74.236606 -52.851805 
L 74.846553 -62.234149 
L 75.4565 -59.115961 
L 76.066447 -48.490975 
L 76.676394 -49.93694 
L 77.286342 -48.741055 
L 77.896289 -49.987831 
L 78.506236 -138.299195 
L 79.116183 -124.021501 
L 79.72613 -137.846394 
L 80.336077 -51.836358 
L 80.946025 -141.791927 
L 81.555972 -139.423149 
L 82.165919 -163.050415 
L 82.775866 -173.057171 
L 83.385813 -165.602607 
L 83.99576 -155.893346 
L 84.605708 -177.316534 
L 85.215655 -176.445628 
L 85.825602 -175.543944 
L 86.435549 -178.210263 
L 87.045496 -189.189543 
L 87.655444 -184.333382 
L 88.265391 -175.467048 
L 88.875338 -178.769236 
L 89.485285 -175.265128 
L 90.095232 -176.490075 
L 90.705179 -172.167121 
L 91.315127 -182.627549 
L 91.925074 -180.407925 
L 92.535021 -178.795696 
L 93.144968 -175.15176 
L 93.754915 -183.062274 
L 94.364862 -188.238862 
L 94.97481 -187.587857 
L 95.584757 -183.205536 
L 96.194704 -193.192815 
L 96.804651 -189.895518 
L 97.414598 -185.182791 
L 98.024545 -185.881228 
L 98.634493 -235.442149 
L 99.24444 -234.815015 
L 99.854387 -234.836785 
L 100.464334 -192.845594 
L 101.074281 -191.26359 
L 101.684228 -194.690535 
L 102.294176 -220.365396 
L 102.904123 -192.745375 
L 103.51407 -232.600593 
L 104.124017 -190.21341 
L 104.733964 -191.758648 
L 105.343911 -227.379424 
L 105.953859 -188.33446 
L 106.563806 -194.623535 
L 107.173753 -244.973646 
L 107.7837 -246.869295 
L 108.393647 -248.320416 
L 109.003594 -246.057764 
L 109.613542 -247.485225 
L 110.223489 -241.659428 
L 110.833436 -195.555978 
L 111.443383 -191.98322 
L 112.05333 -182.288965 
L 112.663277 -194.58871 
L 113.273225 -238.046488 
L 113.883172 -238.932343 
L 114.493119 -242.205265 
L 115.103066 -249.485213 
L 115.713013 -228.809623 
L 116.32296 -245.181734 
L 116.932908 -231.039045 
L 117.542855 -247.595315 
L 118.152802 -232.606583 
L 118.762749 -195.705085 
L 119.372696 -197.421852 
L 119.982643 -246.909976 
L 120.592591 -197.334332 
L 121.202538 -213.873239 
L 121.812485 -190.605515 
L 122.422432 -194.238489 
L 123.032379 -233.477414 
L 123.642326 -235.616226 
L 124.252274 -233.883812 
L 124.862221 -196.800666 
L 125.472168 -233.829059 
L 126.082115 -195.795449 
L 126.692062 -192.120334 
L 127.302009 -232.483198 
L 127.911957 -221.813667 
L 128.521904 -233.587942 
L 129.131851 -231.015768 
L 129.741798 -190.653148 
L 130.351745 -235.998431 
L 130.961692 -241.199203 
L 131.57164 -246.172456 
L 132.181587 -244.893576 
L 132.791534 -235.608563 
L 133.401481 -243.663061 
L 134.011428 -245.778103 
L 134.621375 -235.870676 
L 135.231323 -197.47048 
L 135.84127 -197.433731 
L 136.451217 -240.779053 
L 137.061164 -246.37493 
L 137.671111 -247.285854 
L 138.281058 -226.442596 
L 138.891006 -233.858383 
L 139.500953 -246.757814 
L 140.1109 -195.997526 
L 140.720847 -195.705848 
L 141.330794 -195.842905 
L 141.940741 -188.695865 
L 142.550689 -186.380992 
L 143.160636 -201.741746 
L 143.770583 -188.323866 
L 144.38053 -197.225523 
L 144.990477 -195.896044 
L 145.600424 -194.061555 
L 146.210372 -190.921471 
L 146.820319 -187.229356 
L 147.430266 -190.993874 
L 148.040213 -219.669003 
L 148.65016 -198.304401 
L 149.260107 -238.844818 
L 149.870055 -245.419048 
L 150.480002 -200.025214 
L 151.089949 -195.089095 
L 151.699896 -199.292046 
L 152.309843 -192.137775 
L 152.91979 -192.514961 
L 153.529738 -186.053721 
L 154.139685 -186.281 
L 154.749632 -185.58935 
L 155.359579 -194.765273 
L 155.969526 -188.162286 
L 156.579473 -186.216175 
L 157.189421 -187.8756 
L 157.799368 -193.326681 
L 158.409315 -196.625779 
L 159.019262 -197.697593 
L 159.629209 -196.358433 
L 160.239156 -196.305485 
L 160.849104 -195.711268 
L 161.459051 -196.969217 
L 162.068998 -197.124726 
L 162.678945 -199.78334 
L 163.288892 -200.38494 
L 163.898839 -197.525061 
L 164.508787 -195.969098 
L 165.118734 -197.582816 
L 165.728681 -191.295962 
L 166.338628 -193.862296 
L 166.948575 -199.537426 
L 167.558522 -201.121361 
L 168.16847 -198.227556 
L 168.778417 -193.460536 
L 169.388364 -195.179734 
L 169.998311 -191.809047 
L 170.608258 -193.712801 
L 171.218205 -194.875432 
L 171.828153 -189.783912 
L 172.4381 -192.906771 
L 173.048047 -197.732527 
L 173.657994 -186.431642 
L 174.267941 -187.935737 
L 174.877888 -189.945594 
L 175.487836 -190.663663 
L 176.097783 -188.889996 
L 176.70773 -187.727966 
L 177.317677 -184.745039 
L 177.927624 -176.275816 
L 178.537571 -188.278546 
L 179.147519 -189.857959 
L 179.757466 -188.726182 
L 180.367413 -195.252062 
L 180.97736 -195.273849 
L 181.587307 -198.064152 
L 182.197254 -223.313374 
L 182.807202 -192.281765 
L 183.417149 -191.280775 
L 184.027096 -194.905573 
L 184.637043 -193.343423 
L 185.24699 -198.58523 
L 185.856937 -219.256732 
L 186.466885 -199.691958 
L 187.076832 -190.919421 
L 187.686779 -197.658287 
L 188.296726 -190.902304 
L 188.906673 -192.65056 
L 189.51662 -196.037391 
L 190.126568 -196.259201 
L 190.736515 -198.583708 
L 191.346462 -198.954147 
L 191.956409 -198.490014 
L 192.566356 -255.776146 
L 193.176303 -248.979053 
L 193.786251 -224.124195 
L 194.396198 -216.257905 
L 195.006145 -197.526159 
L 195.616092 -196.175703 
L 196.226039 -195.99601 
L 196.835986 -241.699444 
L 197.445934 -250.645263 
L 198.055881 -249.908156 
L 198.665828 -244.768146 
L 199.275775 -252.286701 
L 199.885722 -255.282851 
L 200.495669 -244.091133 
L 201.105617 -246.389851 
L 201.715564 -258.62787 
L 202.325511 -262.122935 
L 202.935458 -258.785571 
L 203.545405 -261.551329 
L 204.155352 -262.322954 
L 204.7653 -262.323224 
L 205.375247 -262.337597 
L 205.985194 -260.334722 
L 206.595141 -250.393517 
L 207.205088 -260.710492 
L 207.815035 -251.373511 
L 208.424983 -259.552117 
L 209.03493 -254.874951 
L 209.644877 -236.492704 
L 210.254824 -224.240447 
L 210.864771 -200.189108 
L 211.474718 -199.854 
L 212.084666 -201.495004 
L 212.694613 -251.392656 
L 213.30456 -256.207065 
L 213.914507 -260.443055 
L 214.524454 -261.466179 
L 215.134401 -256.105817 
L 215.744349 -247.940393 
L 216.354296 -259.073787 
L 216.964243 -261.517294 
L 217.57419 -256.069915 
L 218.184137 -246.172305 
L 218.794084 -199.305217 
L 219.404032 -202.055556 
L 220.013979 -238.705191 
L 220.623926 -234.528332 
L 221.233873 -251.081273 
L 221.84382 -252.337176 
L 222.453767 -252.466239 
L 223.063715 -259.998315 
L 223.673662 -247.587032 
L 224.283609 -246.866651 
L 224.893556 -235.162584 
L 225.503503 -250.429645 
L 226.11345 -253.201936 
L 226.723398 -200.133787 
L 227.333345 -229.331552 
L 227.943292 -237.328005 
L 228.553239 -237.326358 
L 229.163186 -244.9117 
L 229.773133 -192.789127 
L 230.383081 -189.292242 
L 230.993028 -201.254844 
L 231.602975 -203.667478 
L 232.212922 -228.943115 
L 232.822869 -198.88323 
L 233.432816 -211.228486 
L 234.042764 -230.183936 
L 234.652711 -208.48699 
L 235.262658 -208.642599 
L 235.872605 -235.357386 
L 236.482552 -245.959791 
L 237.092499 -247.415438 
L 237.702447 -247.092322 
L 238.312394 -245.685678 
L 238.922341 -247.21072 
L 239.532288 -241.355601 
L 240.142235 -202.941062 
L 240.752182 -203.420574 
L 241.36213 -203.104146 
L 241.972077 -204.535586 
L 242.582024 -228.331726 
L 243.191971 -240.392517 
L 243.801918 -240.873482 
L 244.411865 -244.962648 
L 245.021813 -255.265968 
L 245.63176 -231.673292 
L 246.241707 -245.276736 
L 246.851654 -244.720326 
L 247.461601 -233.168546 
L 248.071548 -244.723776 
L 248.681496 -236.418453 
L 249.291443 -199.26013 
L 249.90139 -238.479048 
L 250.511337 -238.018936 
L 251.121284 -235.31077 
L 251.731231 -199.757546 
L 252.341179 -241.682273 
L 252.951126 -241.313026 
L 253.561073 -243.552257 
L 254.17102 -231.110228 
L 254.780967 -231.068585 
L 255.390914 -197.009641 
L 256.000862 -195.864828 
L 256.610809 -198.518812 
L 257.220756 -202.397176 
L 257.830703 -205.997383 
L 258.44065 -240.199897 
L 259.050597 -201.591053 
L 259.660545 -200.588106 
L 260.270492 -199.319483 
L 260.880439 -196.062204 
L 261.490386 -200.768511 
L 262.100333 -246.021083 
L 262.71028 -247.302929 
L 263.320228 -246.077087 
L 263.930175 -247.65915 
L 264.540122 -229.0045 
L 265.150069 -202.84295 
L 265.760016 -204.494268 
L 266.369963 -226.251259 
L 266.979911 -227.821711 
L 267.589858 -246.236766 
L 268.199805 -201.556997 
L 268.809752 -203.553708 
L 269.419699 -199.98724 
L 270.029646 -201.244918 
L 270.639594 -201.239851 
L 271.249541 -199.653727 
L 271.859488 -196.063445 
L 272.469435 -197.705223 
L 273.079382 -195.029408 
L 273.689329 -201.663404 
L 274.299277 -188.151824 
L 274.909224 -202.159906 
L 275.519171 -198.541358 
L 276.129118 -198.900654 
L 276.739065 -199.291317 
L 277.349012 -194.855533 
L 277.95896 -197.685423 
L 278.568907 -198.332549 
L 279.178854 -200.550282 
L 279.788801 -204.284606 
L 280.398748 -201.439937 
L 281.008695 -204.316725 
L 281.618643 -203.418865 
L 282.22859 -202.29157 
L 282.838537 -201.22593 
L 283.448484 -197.454958 
L 284.058431 -197.713398 
L 284.668378 -192.821095 
L 285.278326 -196.796742 
L 285.888273 -198.851806 
L 286.49822 -202.987896 
L 287.108167 -195.960084 
L 287.718114 -189.970637 
L 288.328061 -189.143137 
L 288.938009 -189.377637 
L 289.547956 -196.089873 
L 290.157903 -191.433707 
L 290.76785 -197.025367 
L 291.377797 -201.140999 
L 291.987744 -195.167935 
L 292.597692 -192.867719 
L 293.207639 -204.261087 
L 293.817586 -207.35876 
L 294.427533 -206.034508 
L 295.03748 -203.351894 
L 295.647427 -203.430113 
L 296.257375 -193.554323 
L 296.867322 -201.843209 
L 297.477269 -202.407087 
L 298.087216 -202.423695 
L 298.697163 -200.466304 
L 299.30711 -208.491397 
L 299.917058 -198.350252 
L 300.527005 -207.871995 
L 301.136952 -207.711233 
L 301.746899 -206.765167 
L 302.356846 -208.153301 
L 302.966793 -247.377213 
L 303.576741 -219.753381 
L 304.186688 -249.703366 
L 304.796635 -250.975881 
L 305.406582 -259.51585 
L 306.016529 -257.141939 
L 306.626476 -250.895022 
L 307.236424 -207.922355 
L 307.846371 -208.877126 
L 308.456318 -197.281517 
L 309.066265 -205.195701 
L 309.676212 -207.000969 
L 310.286159 -202.132178 
L 310.896107 -207.183509 
L 311.506054 -208.108864 
L 312.116001 -208.782483 
L 312.725948 -206.839067 
L 313.335895 -208.908787 
L 313.945842 -251.124208 
L 314.55579 -234.602336 
L 315.165737 -247.69418 
L 315.775684 -246.196905 
L 316.385631 -252.904205 
L 316.995578 -232.972041 
L 317.605525 -260.716341 
L 318.215473 -249.894808 
L 318.82542 -221.970946 
L 319.435367 -208.735737 
L 320.045314 -208.685245 
L 320.655261 -255.002743 
L 321.265208 -254.174489 
L 321.875156 -204.204872 
L 322.485103 -204.565495 
L 323.09505 -187.903935 
L 323.704997 -196.263475 
L 324.314944 -186.963471 
L 324.924891 -187.420467 
L 325.534839 -194.224414 
L 326.144786 -192.603445 
L 326.754733 -197.130542 
L 327.36468 -205.59848 
L 327.974627 -193.458431 
L 328.584574 -201.481071 
L 329.194522 -208.673478 
L 329.804469 -208.292931 
L 330.414416 -231.441101 
L 331.024363 -242.400502 
L 331.63431 -226.39893 
L 332.244257 -203.924237 
L 332.854205 -203.904779 
L 333.464152 -208.711476 
L 334.074099 -259.159092 
L 334.684046 -256.133989 
L 335.293993 -257.268206 
L 335.90394 -257.230369 
L 336.513888 -259.190331 
L 337.123835 -259.190733 
L 337.733782 -260.081183 
L 338.343729 -260.08505 
L 338.953676 -267.889843 
L 339.563623 -270.028295 
L 340.173571 -270.029824 
L 340.783518 -272.215423 
L 341.393465 -272.265557 
L 342.003412 -272.261169 
L 342.613359 -265.064849 
L 343.223306 -268.608276 
L 343.833254 -234.138449 
L 344.443201 -234.104876 
L 345.053148 -238.935899 
L 345.663095 -257.758611 
L 346.273042 -261.079932 
L 346.88299 -260.86466 
L 347.492937 -241.221271 
L 348.102884 -204.229825 
L 348.712831 -196.829336 
L 349.322778 -233.978879 
L 349.932725 -247.166912 
L 350.542673 -207.736885 
L 351.15262 -202.483166 
L 351.762567 -198.182706 
L 352.372514 -202.113542 
L 352.982461 -200.483124 
L 353.592408 -200.030298 
L 354.202356 -196.310307 
L 354.812303 -206.507379 
L 355.42225 -194.242477 
L 356.032197 -206.528472 
L 356.642144 -245.121223 
L 357.252091 -230.326136 
L 357.862039 -205.714878 
L 358.471986 -205.721323 
L 359.081933 -205.87554 
L 359.69188 -205.722633 
L 360.301827 -194.204068 
L 360.911774 -188.363417 
L 361.521722 -189.24317 
L 362.131669 -185.439946 
L 362.741616 -201.120456 
L 363.351563 -198.278746 
L 363.96151 -207.945277 
L 364.571457 -199.507937 
L 365.181405 -207.579626 
L 365.791352 -204.723724 
L 366.401299 -192.729642 
L 367.011246 -200.68106 
L 367.621193 -204.434078 
L 367.621193 -272.456154 
L 367.621193 -272.456154 
L 367.011246 -272.460001 
L 366.401299 -272.462459 
L 365.791352 -272.4675 
L 365.181405 -272.454697 
L 364.571457 -272.466197 
L 363.96151 -272.463693 
L 363.351563 -272.456249 
L 362.741616 -272.45426 
L 362.131669 -272.455602 
L 361.521722 -272.453808 
L 360.911774 -272.456984 
L 360.301827 -272.454475 
L 359.69188 -272.453839 
L 359.081933 -272.424998 
L 358.471986 -272.425859 
L 357.862039 -272.37939 
L 357.252091 -272.38118 
L 356.642144 -272.379225 
L 356.032197 -272.379149 
L 355.42225 -272.379096 
L 354.812303 -272.378958 
L 354.202356 -272.379105 
L 353.592408 -272.377671 
L 352.982461 -272.336468 
L 352.372514 -272.334873 
L 351.762567 -272.333122 
L 351.15262 -272.317385 
L 350.542673 -272.316925 
L 349.932725 -272.316649 
L 349.322778 -272.31753 
L 348.712831 -272.31684 
L 348.102884 -272.274402 
L 347.492937 -272.291452 
L 346.88299 -272.275195 
L 346.273042 -272.275569 
L 345.663095 -272.278453 
L 345.053148 -272.281049 
L 344.443201 -272.275062 
L 343.833254 -272.274933 
L 343.223306 -272.274974 
L 342.613359 -272.278912 
L 342.003412 -272.288568 
L 341.393465 -272.297091 
L 340.783518 -272.275303 
L 340.173571 -272.279649 
L 339.563623 -272.273964 
L 338.953676 -272.287735 
L 338.343729 -272.306136 
L 337.733782 -272.285517 
L 337.123835 -272.275098 
L 336.513888 -272.278673 
L 335.90394 -272.275022 
L 335.293993 -272.276937 
L 334.684046 -272.283864 
L 334.074099 -272.281042 
L 333.464152 -272.275005 
L 332.854205 -272.275789 
L 332.244257 -272.274008 
L 331.63431 -272.276052 
L 331.024363 -272.275712 
L 330.414416 -272.277539 
L 329.804469 -272.275509 
L 329.194522 -272.278582 
L 328.584574 -272.27614 
L 327.974627 -272.273617 
L 327.36468 -272.275924 
L 326.754733 -272.290357 
L 326.144786 -272.273754 
L 325.534839 -272.291041 
L 324.924891 -272.274322 
L 324.314944 -272.273418 
L 323.704997 -272.274932 
L 323.09505 -272.274155 
L 322.485103 -272.275053 
L 321.875156 -272.276849 
L 321.265208 -272.273781 
L 320.655261 -272.285353 
L 320.045314 -272.27631 
L 319.435367 -272.279387 
L 318.82542 -272.290382 
L 318.215473 -272.274238 
L 317.605525 -272.274109 
L 316.995578 -272.273995 
L 316.385631 -272.274398 
L 315.775684 -272.275636 
L 315.165737 -272.274286 
L 314.55579 -272.294048 
L 313.945842 -272.273976 
L 313.335895 -272.275198 
L 312.725948 -272.280752 
L 312.116001 -272.275886 
L 311.506054 -272.274305 
L 310.896107 -272.274226 
L 310.286159 -272.278798 
L 309.676212 -272.273795 
L 309.066265 -272.277036 
L 308.456318 -272.289199 
L 307.846371 -272.273032 
L 307.236424 -272.273333 
L 306.626476 -272.276059 
L 306.016529 -272.312047 
L 305.406582 -272.273766 
L 304.796635 -272.273213 
L 304.186688 -272.277195 
L 303.576741 -272.272746 
L 302.966793 -272.275546 
L 302.356846 -272.273627 
L 301.746899 -272.274279 
L 301.136952 -272.272656 
L 300.527005 -272.272508 
L 299.917058 -272.276463 
L 299.30711 -272.274603 
L 298.697163 -272.27411 
L 298.087216 -272.265185 
L 297.477269 -272.272946 
L 296.867322 -272.271989 
L 296.257375 -272.147957 
L 295.647427 -272.147022 
L 295.03748 -272.1323 
L 294.427533 -272.131147 
L 293.817586 -272.130558 
L 293.207639 -271.535719 
L 292.597692 -271.5348 
L 291.987744 -271.535405 
L 291.377797 -271.494191 
L 290.76785 -271.351642 
L 290.157903 -271.352471 
L 289.547956 -271.351591 
L 288.938009 -270.896468 
L 288.328061 -270.897446 
L 287.718114 -270.895653 
L 287.108167 -270.895078 
L 286.49822 -270.893611 
L 285.888273 -270.895027 
L 285.278326 -270.893155 
L 284.668378 -270.892963 
L 284.058431 -270.896757 
L 283.448484 -270.893334 
L 282.838537 -270.892785 
L 282.22859 -270.894545 
L 281.618643 -270.660926 
L 281.008695 -270.658774 
L 280.398748 -270.658606 
L 279.788801 -270.65931 
L 279.178854 -270.659727 
L 278.568907 -270.241593 
L 277.95896 -269.600758 
L 277.349012 -269.598411 
L 276.739065 -269.601595 
L 276.129118 -269.60111 
L 275.519171 -269.601294 
L 274.909224 -269.597214 
L 274.299277 -268.583357 
L 273.689329 -268.584287 
L 273.079382 -268.584131 
L 272.469435 -268.583381 
L 271.859488 -268.584777 
L 271.249541 -268.507958 
L 270.639594 -268.398659 
L 270.029646 -268.397978 
L 269.419699 -268.399306 
L 268.809752 -268.396565 
L 268.199805 -268.156593 
L 267.589858 -268.155827 
L 266.979911 -268.155509 
L 266.369963 -268.152333 
L 265.760016 -268.155116 
L 265.150069 -268.153637 
L 264.540122 -268.157199 
L 263.930175 -268.155542 
L 263.320228 -268.133816 
L 262.71028 -266.917572 
L 262.100333 -266.916111 
L 261.490386 -266.917803 
L 260.880439 -266.914152 
L 260.270492 -266.912063 
L 259.660545 -266.893672 
L 259.050597 -266.888363 
L 258.44065 -266.893492 
L 257.830703 -266.890086 
L 257.220756 -266.893222 
L 256.610809 -266.867423 
L 256.000862 -266.872326 
L 255.390914 -266.871561 
L 254.780967 -266.867921 
L 254.17102 -266.839472 
L 253.561073 -266.849846 
L 252.951126 -266.874953 
L 252.341179 -266.839298 
L 251.731231 -266.839924 
L 251.121284 -266.853267 
L 250.511337 -266.830763 
L 249.90139 -266.819981 
L 249.291443 -266.819608 
L 248.681496 -266.821161 
L 248.071548 -266.823378 
L 247.461601 -266.835211 
L 246.851654 -266.822625 
L 246.241707 -266.83151 
L 245.63176 -266.820796 
L 245.021813 -266.82006 
L 244.411865 -266.820611 
L 243.801918 -266.820599 
L 243.191971 -266.818979 
L 242.582024 -266.829767 
L 241.972077 -266.819605 
L 241.36213 -266.748056 
L 240.752182 -266.747829 
L 240.142235 -266.748302 
L 239.532288 -266.746787 
L 238.922341 -266.747466 
L 238.312394 -266.748929 
L 237.702447 -266.746457 
L 237.092499 -266.748579 
L 236.482552 -266.748009 
L 235.872605 -266.747101 
L 235.262658 -266.748299 
L 234.652711 -266.72748 
L 234.042764 -266.727551 
L 233.432816 -266.727752 
L 232.822869 -266.727078 
L 232.212922 -266.727993 
L 231.602975 -266.727183 
L 230.993028 -266.729339 
L 230.383081 -266.729998 
L 229.773133 -266.724853 
L 229.163186 -266.72462 
L 228.553239 -266.724289 
L 227.943292 -266.729309 
L 227.333345 -266.723898 
L 226.723398 -266.723535 
L 226.11345 -266.728315 
L 225.503503 -266.724196 
L 224.893556 -266.720904 
L 224.283609 -266.72313 
L 223.673662 -266.723955 
L 223.063715 -266.719326 
L 222.453767 -266.72348 
L 221.84382 -266.724273 
L 221.233873 -266.567061 
L 220.623926 -266.568278 
L 220.013979 -266.565821 
L 219.404032 -266.567254 
L 218.794084 -266.566978 
L 218.184137 -266.335289 
L 217.57419 -266.317208 
L 216.964243 -266.262378 
L 216.354296 -266.25614 
L 215.744349 -266.257489 
L 215.134401 -266.257634 
L 214.524454 -266.254235 
L 213.914507 -266.256316 
L 213.30456 -266.257156 
L 212.694613 -266.23665 
L 212.084666 -266.238419 
L 211.474718 -266.236391 
L 210.864771 -266.243347 
L 210.254824 -266.236804 
L 209.644877 -266.236562 
L 209.03493 -266.236435 
L 208.424983 -266.235805 
L 207.815035 -266.236507 
L 207.205088 -266.236847 
L 206.595141 -266.235053 
L 205.985194 -266.183055 
L 205.375247 -266.18316 
L 204.7653 -266.114537 
L 204.155352 -266.113863 
L 203.545405 -266.115062 
L 202.935458 -266.115892 
L 202.325511 -266.115626 
L 201.715564 -266.004027 
L 201.105617 -266.0034 
L 200.495669 -265.926241 
L 199.885722 -265.907144 
L 199.275775 -265.90769 
L 198.665828 -265.811881 
L 198.055881 -265.811803 
L 197.445934 -265.686633 
L 196.835986 -265.68655 
L 196.226039 -265.199541 
L 195.616092 -265.186616 
L 195.006145 -265.204493 
L 194.396198 -265.19009 
L 193.786251 -265.205879 
L 193.176303 -265.168361 
L 192.566356 -265.18639 
L 191.956409 -265.174173 
L 191.346462 -265.169489 
L 190.736515 -265.165706 
L 190.126568 -265.163081 
L 189.51662 -265.163477 
L 188.906673 -265.163534 
L 188.296726 -264.968382 
L 187.686779 -264.968014 
L 187.076832 -264.971513 
L 186.466885 -264.987419 
L 185.856937 -264.968498 
L 185.24699 -264.966792 
L 184.637043 -264.966243 
L 184.027096 -264.965797 
L 183.417149 -264.966691 
L 182.807202 -264.968932 
L 182.197254 -264.969132 
L 181.587307 -264.958491 
L 180.97736 -264.962296 
L 180.367413 -264.956576 
L 179.757466 -264.955181 
L 179.147519 -264.95785 
L 178.537571 -264.95657 
L 177.927624 -264.95366 
L 177.317677 -264.954337 
L 176.70773 -264.954771 
L 176.097783 -264.956321 
L 175.487836 -264.95451 
L 174.877888 -264.956101 
L 174.267941 -264.709547 
L 173.657994 -264.70951 
L 173.048047 -264.710324 
L 172.4381 -264.709372 
L 171.828153 -264.707501 
L 171.218205 -264.709106 
L 170.608258 -264.709426 
L 169.998311 -264.709022 
L 169.388364 -264.545158 
L 168.778417 -264.545402 
L 168.16847 -264.545043 
L 167.558522 -264.543735 
L 166.948575 -264.546488 
L 166.338628 -264.54529 
L 165.728681 -264.488934 
L 165.118734 -264.489438 
L 164.508787 -264.489665 
L 163.898839 -264.489372 
L 163.288892 -264.488691 
L 162.678945 -264.487694 
L 162.068998 -264.489485 
L 161.459051 -264.465394 
L 160.849104 -264.466905 
L 160.239156 -264.466491 
L 159.629209 -264.467008 
L 159.019262 -264.332304 
L 158.409315 -264.293603 
L 157.799368 -264.295055 
L 157.189421 -264.293951 
L 156.579473 -264.183112 
L 155.969526 -264.180477 
L 155.359579 -264.180812 
L 154.749632 -264.181024 
L 154.139685 -264.183576 
L 153.529738 -264.178752 
L 152.91979 -264.182871 
L 152.309843 -263.88964 
L 151.699896 -263.893183 
L 151.089949 -263.892297 
L 150.480002 -263.897162 
L 149.870055 -263.890731 
L 149.260107 -263.198759 
L 148.65016 -263.198365 
L 148.040213 -263.198349 
L 147.430266 -263.197204 
L 146.820319 -262.643939 
L 146.210372 -262.644282 
L 145.600424 -262.644929 
L 144.990477 -262.644857 
L 144.38053 -262.645231 
L 143.770583 -262.645865 
L 143.160636 -262.644052 
L 142.550689 -262.472717 
L 141.940741 -262.472018 
L 141.330794 -262.471681 
L 140.720847 -262.309816 
L 140.1109 -262.312711 
L 139.500953 -262.105147 
L 138.891006 -262.105403 
L 138.281058 -262.106735 
L 137.671111 -262.104747 
L 137.061164 -262.104328 
L 136.451217 -262.103531 
L 135.84127 -262.101815 
L 135.231323 -262.102494 
L 134.621375 -262.002204 
L 134.011428 -261.999555 
L 133.401481 -262.005487 
L 132.791534 -261.66238 
L 132.181587 -261.676953 
L 131.57164 -261.66234 
L 130.961692 -261.640619 
L 130.351745 -261.581102 
L 129.741798 -261.579622 
L 129.131851 -261.579784 
L 128.521904 -261.575061 
L 127.911957 -261.574094 
L 127.302009 -261.572698 
L 126.692062 -261.572916 
L 126.082115 -261.572686 
L 125.472168 -261.572181 
L 124.862221 -261.557785 
L 124.252274 -261.126017 
L 123.642326 -261.126148 
L 123.032379 -261.126915 
L 122.422432 -261.132691 
L 121.812485 -261.112775 
L 121.202538 -261.127762 
L 120.592591 -261.124321 
L 119.982643 -261.129168 
L 119.372696 -261.124728 
L 118.762749 -261.127754 
L 118.152802 -261.12757 
L 117.542855 -261.013025 
L 116.932908 -261.013136 
L 116.32296 -261.013715 
L 115.713013 -259.793209 
L 115.103066 -259.793588 
L 114.493119 -259.792377 
L 113.883172 -259.794555 
L 113.273225 -259.792141 
L 112.663277 -259.793305 
L 112.05333 -259.792072 
L 111.443383 -259.791552 
L 110.833436 -259.792786 
L 110.223489 -259.792131 
L 109.613542 -259.794591 
L 109.003594 -259.792976 
L 108.393647 -259.791675 
L 107.7837 -259.793408 
L 107.173753 -259.034821 
L 106.563806 -259.036218 
L 105.953859 -259.047084 
L 105.343911 -259.033428 
L 104.733964 -258.787868 
L 104.124017 -258.399512 
L 103.51407 -258.398932 
L 102.904123 -258.396473 
L 102.294176 -258.396237 
L 101.684228 -258.395284 
L 101.074281 -258.3985 
L 100.464334 -258.396456 
L 99.854387 -257.666275 
L 99.24444 -257.665017 
L 98.634493 -257.66577 
L 98.024545 -257.664198 
L 97.414598 -255.996974 
L 96.804651 -255.996114 
L 96.194704 -255.999317 
L 95.584757 -255.996579 
L 94.97481 -255.999186 
L 94.364862 -255.999526 
L 93.754915 -255.99746 
L 93.144968 -255.789497 
L 92.535021 -255.786233 
L 91.925074 -255.518592 
L 91.315127 -255.506519 
L 90.705179 -255.505808 
L 90.095232 -254.806315 
L 89.485285 -254.806469 
L 88.875338 -254.807768 
L 88.265391 -254.807169 
L 87.655444 -254.739319 
L 87.045496 -254.73776 
L 86.435549 -251.638355 
L 85.825602 -251.58952 
L 85.215655 -251.591592 
L 84.605708 -251.592703 
L 83.99576 -251.590274 
L 83.385813 -251.5921 
L 82.775866 -251.558015 
L 82.165919 -251.55481 
L 81.555972 -249.375264 
L 80.946025 -248.30666 
L 80.336077 -248.30674 
L 79.72613 -248.305732 
L 79.116183 -245.669479 
L 78.506236 -245.058306 
L 77.896289 -245.058844 
L 77.286342 -245.059189 
L 76.676394 -245.05694 
L 76.066447 -244.288126 
L 75.4565 -244.285446 
L 74.846553 -244.284553 
L 74.236606 -244.248681 
L 73.626659 -244.247687 
L 73.016711 -244.2482 
L 72.406764 -244.2455 
L 71.796817 -235.766567 
L 71.18687 -235.764367 
L 70.576923 -235.767035 
L 69.966976 -233.216306 
L 69.357028 -233.216022 
L 68.747081 -233.219282 
L 68.137134 -232.598827 
L 67.527187 -232.598145 
L 66.91724 -232.59892 
L 66.307293 -232.59853 
L 65.697345 -232.597902 
L 65.087398 -232.598768 
L 64.477451 -232.597624 
L 63.867504 -232.598193 
L 63.257557 -232.598936 
z
" style="stroke: #0000ff; stroke-opacity: 0.2"/>
    </defs>
    <g clip-path="url(#pc634c82e8a)">
     <use xlink:href="#mfd8e589b9f" x="0" y="287.4075" style="fill: #0000ff; fill-opacity: 0.2; stroke: #0000ff; stroke-opacity: 0.2"/>
    </g>
   </g>
   <g id="matplotlib.axis_1">
    <g id="xtick_1">
     <g id="line2d_1">
      <path d="M 63.257557 253.08 
L 63.257557 3.6 
" clip-path="url(#pc634c82e8a)" style="fill: none; stroke: #b0b0b0; stroke-width: 0.5; stroke-linecap: square"/>
     </g>
     <g id="line2d_2">
      <defs>
       <path id="m52d3ecc81c" d="M 0 0 
L 0 -3 
" style="stroke: #000000; stroke-width: 0.5"/>
      </defs>
      <g>
       <use xlink:href="#m52d3ecc81c" x="63.257557" y="253.08" style="stroke: #000000; stroke-width: 0.5"/>
      </g>
     </g>
     <g id="line2d_3">
      <defs>
       <path id="m9662d1186a" d="M 0 0 
L 0 3 
" style="stroke: #000000; stroke-width: 0.5"/>
      </defs>
      <g>
       <use xlink:href="#m9662d1186a" x="63.257557" y="3.6" style="stroke: #000000; stroke-width: 0.5"/>
      </g>
     </g>
     <g id="text_1">
      <!-- 0 -->
      <g transform="translate(59.440057 265.698125) scale(0.12 -0.12)">
       <defs>
        <path id="DejaVuSans-30" d="M 2034 4250 
Q 1547 4250 1301 3770 
Q 1056 3291 1056 2328 
Q 1056 1369 1301 889 
Q 1547 409 2034 409 
Q 2525 409 2770 889 
Q 3016 1369 3016 2328 
Q 3016 3291 2770 3770 
Q 2525 4250 2034 4250 
z
M 2034 4750 
Q 2819 4750 3233 4129 
Q 3647 3509 3647 2328 
Q 3647 1150 3233 529 
Q 2819 -91 2034 -91 
Q 1250 -91 836 529 
Q 422 1150 422 2328 
Q 422 3509 836 4129 
Q 1250 4750 2034 4750 
z
" transform="scale(0.015625)"/>
       </defs>
       <use xlink:href="#DejaVuSans-30"/>
      </g>
     </g>
    </g>
    <g id="xtick_2">
     <g id="line2d_4">
      <path d="M 124.252274 253.08 
L 124.252274 3.6 
" clip-path="url(#pc634c82e8a)" style="fill: none; stroke: #b0b0b0; stroke-width: 0.5; stroke-linecap: square"/>
     </g>
     <g id="line2d_5">
      <g>
       <use xlink:href="#m52d3ecc81c" x="124.252274" y="253.08" style="stroke: #000000; stroke-width: 0.5"/>
      </g>
     </g>
     <g id="line2d_6">
      <g>
       <use xlink:href="#m9662d1186a" x="124.252274" y="3.6" style="stroke: #000000; stroke-width: 0.5"/>
      </g>
     </g>
     <g id="text_2">
      <!-- 100 -->
      <g transform="translate(112.799774 265.698125) scale(0.12 -0.12)">
       <defs>
        <path id="DejaVuSans-31" d="M 794 531 
L 1825 531 
L 1825 4091 
L 703 3866 
L 703 4441 
L 1819 4666 
L 2450 4666 
L 2450 531 
L 3481 531 
L 3481 0 
L 794 0 
L 794 531 
z
" transform="scale(0.015625)"/>
       </defs>
       <use xlink:href="#DejaVuSans-31"/>
       <use xlink:href="#DejaVuSans-30" x="63.623047"/>
       <use xlink:href="#DejaVuSans-30" x="127.246094"/>
      </g>
     </g>
    </g>
    <g id="xtick_3">
     <g id="line2d_7">
      <path d="M 185.24699 253.08 
L 185.24699 3.6 
" clip-path="url(#pc634c82e8a)" style="fill: none; stroke: #b0b0b0; stroke-width: 0.5; stroke-linecap: square"/>
     </g>
     <g id="line2d_8">
      <g>
       <use xlink:href="#m52d3ecc81c" x="185.24699" y="253.08" style="stroke: #000000; stroke-width: 0.5"/>
      </g>
     </g>
     <g id="line2d_9">
      <g>
       <use xlink:href="#m9662d1186a" x="185.24699" y="3.6" style="stroke: #000000; stroke-width: 0.5"/>
      </g>
     </g>
     <g id="text_3">
      <!-- 200 -->
      <g transform="translate(173.79449 265.698125) scale(0.12 -0.12)">
       <defs>
        <path id="DejaVuSans-32" d="M 1228 531 
L 3431 531 
L 3431 0 
L 469 0 
L 469 531 
Q 828 903 1448 1529 
Q 2069 2156 2228 2338 
Q 2531 2678 2651 2914 
Q 2772 3150 2772 3378 
Q 2772 3750 2511 3984 
Q 2250 4219 1831 4219 
Q 1534 4219 1204 4116 
Q 875 4013 500 3803 
L 500 4441 
Q 881 4594 1212 4672 
Q 1544 4750 1819 4750 
Q 2544 4750 2975 4387 
Q 3406 4025 3406 3419 
Q 3406 3131 3298 2873 
Q 3191 2616 2906 2266 
Q 2828 2175 2409 1742 
Q 1991 1309 1228 531 
z
" transform="scale(0.015625)"/>
       </defs>
       <use xlink:href="#DejaVuSans-32"/>
       <use xlink:href="#DejaVuSans-30" x="63.623047"/>
       <use xlink:href="#DejaVuSans-30" x="127.246094"/>
      </g>
     </g>
    </g>
    <g id="xtick_4">
     <g id="line2d_10">
      <path d="M 246.241707 253.08 
L 246.241707 3.6 
" clip-path="url(#pc634c82e8a)" style="fill: none; stroke: #b0b0b0; stroke-width: 0.5; stroke-linecap: square"/>
     </g>
     <g id="line2d_11">
      <g>
       <use xlink:href="#m52d3ecc81c" x="246.241707" y="253.08" style="stroke: #000000; stroke-width: 0.5"/>
      </g>
     </g>
     <g id="line2d_12">
      <g>
       <use xlink:href="#m9662d1186a" x="246.241707" y="3.6" style="stroke: #000000; stroke-width: 0.5"/>
      </g>
     </g>
     <g id="text_4">
      <!-- 300 -->
      <g transform="translate(234.789207 265.698125) scale(0.12 -0.12)">
       <defs>
        <path id="DejaVuSans-33" d="M 2597 2516 
Q 3050 2419 3304 2112 
Q 3559 1806 3559 1356 
Q 3559 666 3084 287 
Q 2609 -91 1734 -91 
Q 1441 -91 1130 -33 
Q 819 25 488 141 
L 488 750 
Q 750 597 1062 519 
Q 1375 441 1716 441 
Q 2309 441 2620 675 
Q 2931 909 2931 1356 
Q 2931 1769 2642 2001 
Q 2353 2234 1838 2234 
L 1294 2234 
L 1294 2753 
L 1863 2753 
Q 2328 2753 2575 2939 
Q 2822 3125 2822 3475 
Q 2822 3834 2567 4026 
Q 2313 4219 1838 4219 
Q 1578 4219 1281 4162 
Q 984 4106 628 3988 
L 628 4550 
Q 988 4650 1302 4700 
Q 1616 4750 1894 4750 
Q 2613 4750 3031 4423 
Q 3450 4097 3450 3541 
Q 3450 3153 3228 2886 
Q 3006 2619 2597 2516 
z
" transform="scale(0.015625)"/>
       </defs>
       <use xlink:href="#DejaVuSans-33"/>
       <use xlink:href="#DejaVuSans-30" x="63.623047"/>
       <use xlink:href="#DejaVuSans-30" x="127.246094"/>
      </g>
     </g>
    </g>
    <g id="xtick_5">
     <g id="line2d_13">
      <path d="M 307.236424 253.08 
L 307.236424 3.6 
" clip-path="url(#pc634c82e8a)" style="fill: none; stroke: #b0b0b0; stroke-width: 0.5; stroke-linecap: square"/>
     </g>
     <g id="line2d_14">
      <g>
       <use xlink:href="#m52d3ecc81c" x="307.236424" y="253.08" style="stroke: #000000; stroke-width: 0.5"/>
      </g>
     </g>
     <g id="line2d_15">
      <g>
       <use xlink:href="#m9662d1186a" x="307.236424" y="3.6" style="stroke: #000000; stroke-width: 0.5"/>
      </g>
     </g>
     <g id="text_5">
      <!-- 400 -->
      <g transform="translate(295.783924 265.698125) scale(0.12 -0.12)">
       <defs>
        <path id="DejaVuSans-34" d="M 2419 4116 
L 825 1625 
L 2419 1625 
L 2419 4116 
z
M 2253 4666 
L 3047 4666 
L 3047 1625 
L 3713 1625 
L 3713 1100 
L 3047 1100 
L 3047 0 
L 2419 0 
L 2419 1100 
L 313 1100 
L 313 1709 
L 2253 4666 
z
" transform="scale(0.015625)"/>
       </defs>
       <use xlink:href="#DejaVuSans-34"/>
       <use xlink:href="#DejaVuSans-30" x="63.623047"/>
       <use xlink:href="#DejaVuSans-30" x="127.246094"/>
      </g>
     </g>
    </g>
    <g id="xtick_6">
     <g id="line2d_16">
      <path d="M 368.23114 253.08 
L 368.23114 3.6 
" clip-path="url(#pc634c82e8a)" style="fill: none; stroke: #b0b0b0; stroke-width: 0.5; stroke-linecap: square"/>
     </g>
     <g id="line2d_17">
      <g>
       <use xlink:href="#m52d3ecc81c" x="368.23114" y="253.08" style="stroke: #000000; stroke-width: 0.5"/>
      </g>
     </g>
     <g id="line2d_18">
      <g>
       <use xlink:href="#m9662d1186a" x="368.23114" y="3.6" style="stroke: #000000; stroke-width: 0.5"/>
      </g>
     </g>
     <g id="text_6">
      <!-- 500 -->
      <g transform="translate(356.77864 265.698125) scale(0.12 -0.12)">
       <defs>
        <path id="DejaVuSans-35" d="M 691 4666 
L 3169 4666 
L 3169 4134 
L 1269 4134 
L 1269 2991 
Q 1406 3038 1543 3061 
Q 1681 3084 1819 3084 
Q 2600 3084 3056 2656 
Q 3513 2228 3513 1497 
Q 3513 744 3044 326 
Q 2575 -91 1722 -91 
Q 1428 -91 1123 -41 
Q 819 9 494 109 
L 494 744 
Q 775 591 1075 516 
Q 1375 441 1709 441 
Q 2250 441 2565 725 
Q 2881 1009 2881 1497 
Q 2881 1984 2565 2268 
Q 2250 2553 1709 2553 
Q 1456 2553 1204 2497 
Q 953 2441 691 2322 
L 691 4666 
z
" transform="scale(0.015625)"/>
       </defs>
       <use xlink:href="#DejaVuSans-35"/>
       <use xlink:href="#DejaVuSans-30" x="63.623047"/>
       <use xlink:href="#DejaVuSans-30" x="127.246094"/>
      </g>
     </g>
    </g>
    <g id="xtick_7">
     <g id="line2d_19">
      <defs>
       <path id="m3512f4740b" d="M 0 0 
L 0 -1.5 
" style="stroke: #000000; stroke-width: 0.5"/>
      </defs>
      <g>
       <use xlink:href="#m3512f4740b" x="51.058613" y="253.08" style="stroke: #000000; stroke-width: 0.5"/>
      </g>
     </g>
     <g id="line2d_20">
      <defs>
       <path id="m04da2cb58e" d="M 0 0 
L 0 1.5 
" style="stroke: #000000; stroke-width: 0.5"/>
      </defs>
      <g>
       <use xlink:href="#m04da2cb58e" x="51.058613" y="3.6" style="stroke: #000000; stroke-width: 0.5"/>
      </g>
     </g>
    </g>
    <g id="xtick_8">
     <g id="line2d_21">
      <g>
       <use xlink:href="#m3512f4740b" x="75.4565" y="253.08" style="stroke: #000000; stroke-width: 0.5"/>
      </g>
     </g>
     <g id="line2d_22">
      <g>
       <use xlink:href="#m04da2cb58e" x="75.4565" y="3.6" style="stroke: #000000; stroke-width: 0.5"/>
      </g>
     </g>
    </g>
    <g id="xtick_9">
     <g id="line2d_23">
      <g>
       <use xlink:href="#m3512f4740b" x="87.655444" y="253.08" style="stroke: #000000; stroke-width: 0.5"/>
      </g>
     </g>
     <g id="line2d_24">
      <g>
       <use xlink:href="#m04da2cb58e" x="87.655444" y="3.6" style="stroke: #000000; stroke-width: 0.5"/>
      </g>
     </g>
    </g>
    <g id="xtick_10">
     <g id="line2d_25">
      <g>
       <use xlink:href="#m3512f4740b" x="99.854387" y="253.08" style="stroke: #000000; stroke-width: 0.5"/>
      </g>
     </g>
     <g id="line2d_26">
      <g>
       <use xlink:href="#m04da2cb58e" x="99.854387" y="3.6" style="stroke: #000000; stroke-width: 0.5"/>
      </g>
     </g>
    </g>
    <g id="xtick_11">
     <g id="line2d_27">
      <g>
       <use xlink:href="#m3512f4740b" x="112.05333" y="253.08" style="stroke: #000000; stroke-width: 0.5"/>
      </g>
     </g>
     <g id="line2d_28">
      <g>
       <use xlink:href="#m04da2cb58e" x="112.05333" y="3.6" style="stroke: #000000; stroke-width: 0.5"/>
      </g>
     </g>
    </g>
    <g id="xtick_12">
     <g id="line2d_29">
      <g>
       <use xlink:href="#m3512f4740b" x="136.451217" y="253.08" style="stroke: #000000; stroke-width: 0.5"/>
      </g>
     </g>
     <g id="line2d_30">
      <g>
       <use xlink:href="#m04da2cb58e" x="136.451217" y="3.6" style="stroke: #000000; stroke-width: 0.5"/>
      </g>
     </g>
    </g>
    <g id="xtick_13">
     <g id="line2d_31">
      <g>
       <use xlink:href="#m3512f4740b" x="148.65016" y="253.08" style="stroke: #000000; stroke-width: 0.5"/>
      </g>
     </g>
     <g id="line2d_32">
      <g>
       <use xlink:href="#m04da2cb58e" x="148.65016" y="3.6" style="stroke: #000000; stroke-width: 0.5"/>
      </g>
     </g>
    </g>
    <g id="xtick_14">
     <g id="line2d_33">
      <g>
       <use xlink:href="#m3512f4740b" x="160.849104" y="253.08" style="stroke: #000000; stroke-width: 0.5"/>
      </g>
     </g>
     <g id="line2d_34">
      <g>
       <use xlink:href="#m04da2cb58e" x="160.849104" y="3.6" style="stroke: #000000; stroke-width: 0.5"/>
      </g>
     </g>
    </g>
    <g id="xtick_15">
     <g id="line2d_35">
      <g>
       <use xlink:href="#m3512f4740b" x="173.048047" y="253.08" style="stroke: #000000; stroke-width: 0.5"/>
      </g>
     </g>
     <g id="line2d_36">
      <g>
       <use xlink:href="#m04da2cb58e" x="173.048047" y="3.6" style="stroke: #000000; stroke-width: 0.5"/>
      </g>
     </g>
    </g>
    <g id="xtick_16">
     <g id="line2d_37">
      <g>
       <use xlink:href="#m3512f4740b" x="197.445934" y="253.08" style="stroke: #000000; stroke-width: 0.5"/>
      </g>
     </g>
     <g id="line2d_38">
      <g>
       <use xlink:href="#m04da2cb58e" x="197.445934" y="3.6" style="stroke: #000000; stroke-width: 0.5"/>
      </g>
     </g>
    </g>
    <g id="xtick_17">
     <g id="line2d_39">
      <g>
       <use xlink:href="#m3512f4740b" x="209.644877" y="253.08" style="stroke: #000000; stroke-width: 0.5"/>
      </g>
     </g>
     <g id="line2d_40">
      <g>
       <use xlink:href="#m04da2cb58e" x="209.644877" y="3.6" style="stroke: #000000; stroke-width: 0.5"/>
      </g>
     </g>
    </g>
    <g id="xtick_18">
     <g id="line2d_41">
      <g>
       <use xlink:href="#m3512f4740b" x="221.84382" y="253.08" style="stroke: #000000; stroke-width: 0.5"/>
      </g>
     </g>
     <g id="line2d_42">
      <g>
       <use xlink:href="#m04da2cb58e" x="221.84382" y="3.6" style="stroke: #000000; stroke-width: 0.5"/>
      </g>
     </g>
    </g>
    <g id="xtick_19">
     <g id="line2d_43">
      <g>
       <use xlink:href="#m3512f4740b" x="234.042764" y="253.08" style="stroke: #000000; stroke-width: 0.5"/>
      </g>
     </g>
     <g id="line2d_44">
      <g>
       <use xlink:href="#m04da2cb58e" x="234.042764" y="3.6" style="stroke: #000000; stroke-width: 0.5"/>
      </g>
     </g>
    </g>
    <g id="xtick_20">
     <g id="line2d_45">
      <g>
       <use xlink:href="#m3512f4740b" x="258.44065" y="253.08" style="stroke: #000000; stroke-width: 0.5"/>
      </g>
     </g>
     <g id="line2d_46">
      <g>
       <use xlink:href="#m04da2cb58e" x="258.44065" y="3.6" style="stroke: #000000; stroke-width: 0.5"/>
      </g>
     </g>
    </g>
    <g id="xtick_21">
     <g id="line2d_47">
      <g>
       <use xlink:href="#m3512f4740b" x="270.639594" y="253.08" style="stroke: #000000; stroke-width: 0.5"/>
      </g>
     </g>
     <g id="line2d_48">
      <g>
       <use xlink:href="#m04da2cb58e" x="270.639594" y="3.6" style="stroke: #000000; stroke-width: 0.5"/>
      </g>
     </g>
    </g>
    <g id="xtick_22">
     <g id="line2d_49">
      <g>
       <use xlink:href="#m3512f4740b" x="282.838537" y="253.08" style="stroke: #000000; stroke-width: 0.5"/>
      </g>
     </g>
     <g id="line2d_50">
      <g>
       <use xlink:href="#m04da2cb58e" x="282.838537" y="3.6" style="stroke: #000000; stroke-width: 0.5"/>
      </g>
     </g>
    </g>
    <g id="xtick_23">
     <g id="line2d_51">
      <g>
       <use xlink:href="#m3512f4740b" x="295.03748" y="253.08" style="stroke: #000000; stroke-width: 0.5"/>
      </g>
     </g>
     <g id="line2d_52">
      <g>
       <use xlink:href="#m04da2cb58e" x="295.03748" y="3.6" style="stroke: #000000; stroke-width: 0.5"/>
      </g>
     </g>
    </g>
    <g id="xtick_24">
     <g id="line2d_53">
      <g>
       <use xlink:href="#m3512f4740b" x="319.435367" y="253.08" style="stroke: #000000; stroke-width: 0.5"/>
      </g>
     </g>
     <g id="line2d_54">
      <g>
       <use xlink:href="#m04da2cb58e" x="319.435367" y="3.6" style="stroke: #000000; stroke-width: 0.5"/>
      </g>
     </g>
    </g>
    <g id="xtick_25">
     <g id="line2d_55">
      <g>
       <use xlink:href="#m3512f4740b" x="331.63431" y="253.08" style="stroke: #000000; stroke-width: 0.5"/>
      </g>
     </g>
     <g id="line2d_56">
      <g>
       <use xlink:href="#m04da2cb58e" x="331.63431" y="3.6" style="stroke: #000000; stroke-width: 0.5"/>
      </g>
     </g>
    </g>
    <g id="xtick_26">
     <g id="line2d_57">
      <g>
       <use xlink:href="#m3512f4740b" x="343.833254" y="253.08" style="stroke: #000000; stroke-width: 0.5"/>
      </g>
     </g>
     <g id="line2d_58">
      <g>
       <use xlink:href="#m04da2cb58e" x="343.833254" y="3.6" style="stroke: #000000; stroke-width: 0.5"/>
      </g>
     </g>
    </g>
    <g id="xtick_27">
     <g id="line2d_59">
      <g>
       <use xlink:href="#m3512f4740b" x="356.032197" y="253.08" style="stroke: #000000; stroke-width: 0.5"/>
      </g>
     </g>
     <g id="line2d_60">
      <g>
       <use xlink:href="#m04da2cb58e" x="356.032197" y="3.6" style="stroke: #000000; stroke-width: 0.5"/>
      </g>
     </g>
    </g>
    <g id="xtick_28">
     <g id="line2d_61">
      <g>
       <use xlink:href="#m3512f4740b" x="380.430084" y="253.08" style="stroke: #000000; stroke-width: 0.5"/>
      </g>
     </g>
     <g id="line2d_62">
      <g>
       <use xlink:href="#m04da2cb58e" x="380.430084" y="3.6" style="stroke: #000000; stroke-width: 0.5"/>
      </g>
     </g>
    </g>
    <g id="text_7">
     <!-- Generations -->
     <g transform="translate(178.842188 281.311875) scale(0.12 -0.12)">
      <defs>
       <path id="DejaVuSans-47" d="M 3809 666 
L 3809 1919 
L 2778 1919 
L 2778 2438 
L 4434 2438 
L 4434 434 
Q 4069 175 3628 42 
Q 3188 -91 2688 -91 
Q 1594 -91 976 548 
Q 359 1188 359 2328 
Q 359 3472 976 4111 
Q 1594 4750 2688 4750 
Q 3144 4750 3555 4637 
Q 3966 4525 4313 4306 
L 4313 3634 
Q 3963 3931 3569 4081 
Q 3175 4231 2741 4231 
Q 1884 4231 1454 3753 
Q 1025 3275 1025 2328 
Q 1025 1384 1454 906 
Q 1884 428 2741 428 
Q 3075 428 3337 486 
Q 3600 544 3809 666 
z
" transform="scale(0.015625)"/>
       <path id="DejaVuSans-65" d="M 3597 1894 
L 3597 1613 
L 953 1613 
Q 991 1019 1311 708 
Q 1631 397 2203 397 
Q 2534 397 2845 478 
Q 3156 559 3463 722 
L 3463 178 
Q 3153 47 2828 -22 
Q 2503 -91 2169 -91 
Q 1331 -91 842 396 
Q 353 884 353 1716 
Q 353 2575 817 3079 
Q 1281 3584 2069 3584 
Q 2775 3584 3186 3129 
Q 3597 2675 3597 1894 
z
M 3022 2063 
Q 3016 2534 2758 2815 
Q 2500 3097 2075 3097 
Q 1594 3097 1305 2825 
Q 1016 2553 972 2059 
L 3022 2063 
z
" transform="scale(0.015625)"/>
       <path id="DejaVuSans-6e" d="M 3513 2113 
L 3513 0 
L 2938 0 
L 2938 2094 
Q 2938 2591 2744 2837 
Q 2550 3084 2163 3084 
Q 1697 3084 1428 2787 
Q 1159 2491 1159 1978 
L 1159 0 
L 581 0 
L 581 3500 
L 1159 3500 
L 1159 2956 
Q 1366 3272 1645 3428 
Q 1925 3584 2291 3584 
Q 2894 3584 3203 3211 
Q 3513 2838 3513 2113 
z
" transform="scale(0.015625)"/>
       <path id="DejaVuSans-72" d="M 2631 2963 
Q 2534 3019 2420 3045 
Q 2306 3072 2169 3072 
Q 1681 3072 1420 2755 
Q 1159 2438 1159 1844 
L 1159 0 
L 581 0 
L 581 3500 
L 1159 3500 
L 1159 2956 
Q 1341 3275 1631 3429 
Q 1922 3584 2338 3584 
Q 2397 3584 2469 3576 
Q 2541 3569 2628 3553 
L 2631 2963 
z
" transform="scale(0.015625)"/>
       <path id="DejaVuSans-61" d="M 2194 1759 
Q 1497 1759 1228 1600 
Q 959 1441 959 1056 
Q 959 750 1161 570 
Q 1363 391 1709 391 
Q 2188 391 2477 730 
Q 2766 1069 2766 1631 
L 2766 1759 
L 2194 1759 
z
M 3341 1997 
L 3341 0 
L 2766 0 
L 2766 531 
Q 2569 213 2275 61 
Q 1981 -91 1556 -91 
Q 1019 -91 701 211 
Q 384 513 384 1019 
Q 384 1609 779 1909 
Q 1175 2209 1959 2209 
L 2766 2209 
L 2766 2266 
Q 2766 2663 2505 2880 
Q 2244 3097 1772 3097 
Q 1472 3097 1187 3025 
Q 903 2953 641 2809 
L 641 3341 
Q 956 3463 1253 3523 
Q 1550 3584 1831 3584 
Q 2591 3584 2966 3190 
Q 3341 2797 3341 1997 
z
" transform="scale(0.015625)"/>
       <path id="DejaVuSans-74" d="M 1172 4494 
L 1172 3500 
L 2356 3500 
L 2356 3053 
L 1172 3053 
L 1172 1153 
Q 1172 725 1289 603 
Q 1406 481 1766 481 
L 2356 481 
L 2356 0 
L 1766 0 
Q 1100 0 847 248 
Q 594 497 594 1153 
L 594 3053 
L 172 3053 
L 172 3500 
L 594 3500 
L 594 4494 
L 1172 4494 
z
" transform="scale(0.015625)"/>
       <path id="DejaVuSans-69" d="M 603 3500 
L 1178 3500 
L 1178 0 
L 603 0 
L 603 3500 
z
M 603 4863 
L 1178 4863 
L 1178 4134 
L 603 4134 
L 603 4863 
z
" transform="scale(0.015625)"/>
       <path id="DejaVuSans-6f" d="M 1959 3097 
Q 1497 3097 1228 2736 
Q 959 2375 959 1747 
Q 959 1119 1226 758 
Q 1494 397 1959 397 
Q 2419 397 2687 759 
Q 2956 1122 2956 1747 
Q 2956 2369 2687 2733 
Q 2419 3097 1959 3097 
z
M 1959 3584 
Q 2709 3584 3137 3096 
Q 3566 2609 3566 1747 
Q 3566 888 3137 398 
Q 2709 -91 1959 -91 
Q 1206 -91 779 398 
Q 353 888 353 1747 
Q 353 2609 779 3096 
Q 1206 3584 1959 3584 
z
" transform="scale(0.015625)"/>
       <path id="DejaVuSans-73" d="M 2834 3397 
L 2834 2853 
Q 2591 2978 2328 3040 
Q 2066 3103 1784 3103 
Q 1356 3103 1142 2972 
Q 928 2841 928 2578 
Q 928 2378 1081 2264 
Q 1234 2150 1697 2047 
L 1894 2003 
Q 2506 1872 2764 1633 
Q 3022 1394 3022 966 
Q 3022 478 2636 193 
Q 2250 -91 1575 -91 
Q 1294 -91 989 -36 
Q 684 19 347 128 
L 347 722 
Q 666 556 975 473 
Q 1284 391 1588 391 
Q 1994 391 2212 530 
Q 2431 669 2431 922 
Q 2431 1156 2273 1281 
Q 2116 1406 1581 1522 
L 1381 1569 
Q 847 1681 609 1914 
Q 372 2147 372 2553 
Q 372 3047 722 3315 
Q 1072 3584 1716 3584 
Q 2034 3584 2315 3537 
Q 2597 3491 2834 3397 
z
" transform="scale(0.015625)"/>
      </defs>
      <use xlink:href="#DejaVuSans-47"/>
      <use xlink:href="#DejaVuSans-65" x="77.490234"/>
      <use xlink:href="#DejaVuSans-6e" x="139.013672"/>
      <use xlink:href="#DejaVuSans-65" x="202.392578"/>
      <use xlink:href="#DejaVuSans-72" x="263.916016"/>
      <use xlink:href="#DejaVuSans-61" x="305.029297"/>
      <use xlink:href="#DejaVuSans-74" x="366.308594"/>
      <use xlink:href="#DejaVuSans-69" x="405.517578"/>
      <use xlink:href="#DejaVuSans-6f" x="433.300781"/>
      <use xlink:href="#DejaVuSans-6e" x="494.482422"/>
      <use xlink:href="#DejaVuSans-73" x="557.861328"/>
     </g>
    </g>
   </g>
   <g id="matplotlib.axis_2">
    <g id="ytick_1">
     <g id="line2d_63">
      <path d="M 48.039375 244.326384 
L 382.839375 244.326384 
" clip-path="url(#pc634c82e8a)" style="fill: none; stroke: #b0b0b0; stroke-width: 0.5; stroke-linecap: square"/>
     </g>
     <g id="line2d_64">
      <defs>
       <path id="m1c50844437" d="M 0 0 
L 3 0 
" style="stroke: #000000; stroke-width: 0.5"/>
      </defs>
      <g>
       <use xlink:href="#m1c50844437" x="48.039375" y="244.326384" style="stroke: #000000; stroke-width: 0.5"/>
      </g>
     </g>
     <g id="line2d_65">
      <defs>
       <path id="m2f7661bc9f" d="M 0 0 
L -3 0 
" style="stroke: #000000; stroke-width: 0.5"/>
      </defs>
      <g>
       <use xlink:href="#m2f7661bc9f" x="382.839375" y="244.326384" style="stroke: #000000; stroke-width: 0.5"/>
      </g>
     </g>
     <g id="text_8">
      <!-- −10 -->
      <g transform="translate(19.21375 248.885446) scale(0.12 -0.12)">
       <defs>
        <path id="DejaVuSans-2212" d="M 678 2272 
L 4684 2272 
L 4684 1741 
L 678 1741 
L 678 2272 
z
" transform="scale(0.015625)"/>
       </defs>
       <use xlink:href="#DejaVuSans-2212"/>
       <use xlink:href="#DejaVuSans-31" x="83.789062"/>
       <use xlink:href="#DejaVuSans-30" x="147.412109"/>
      </g>
     </g>
    </g>
    <g id="ytick_2">
     <g id="line2d_66">
      <path d="M 48.039375 212.625162 
L 382.839375 212.625162 
" clip-path="url(#pc634c82e8a)" style="fill: none; stroke: #b0b0b0; stroke-width: 0.5; stroke-linecap: square"/>
     </g>
     <g id="line2d_67">
      <g>
       <use xlink:href="#m1c50844437" x="48.039375" y="212.625162" style="stroke: #000000; stroke-width: 0.5"/>
      </g>
     </g>
     <g id="line2d_68">
      <g>
       <use xlink:href="#m2f7661bc9f" x="382.839375" y="212.625162" style="stroke: #000000; stroke-width: 0.5"/>
      </g>
     </g>
     <g id="text_9">
      <!-- −5 -->
      <g transform="translate(26.84875 217.184224) scale(0.12 -0.12)">
       <use xlink:href="#DejaVuSans-2212"/>
       <use xlink:href="#DejaVuSans-35" x="83.789062"/>
      </g>
     </g>
    </g>
    <g id="ytick_3">
     <g id="line2d_69">
      <path d="M 48.039375 180.92394 
L 382.839375 180.92394 
" clip-path="url(#pc634c82e8a)" style="fill: none; stroke: #b0b0b0; stroke-width: 0.5; stroke-linecap: square"/>
     </g>
     <g id="line2d_70">
      <g>
       <use xlink:href="#m1c50844437" x="48.039375" y="180.92394" style="stroke: #000000; stroke-width: 0.5"/>
      </g>
     </g>
     <g id="line2d_71">
      <g>
       <use xlink:href="#m2f7661bc9f" x="382.839375" y="180.92394" style="stroke: #000000; stroke-width: 0.5"/>
      </g>
     </g>
     <g id="text_10">
      <!-- 0 -->
      <g transform="translate(36.904375 185.483003) scale(0.12 -0.12)">
       <use xlink:href="#DejaVuSans-30"/>
      </g>
     </g>
    </g>
    <g id="ytick_4">
     <g id="line2d_72">
      <path d="M 48.039375 149.222718 
L 382.839375 149.222718 
" clip-path="url(#pc634c82e8a)" style="fill: none; stroke: #b0b0b0; stroke-width: 0.5; stroke-linecap: square"/>
     </g>
     <g id="line2d_73">
      <g>
       <use xlink:href="#m1c50844437" x="48.039375" y="149.222718" style="stroke: #000000; stroke-width: 0.5"/>
      </g>
     </g>
     <g id="line2d_74">
      <g>
       <use xlink:href="#m2f7661bc9f" x="382.839375" y="149.222718" style="stroke: #000000; stroke-width: 0.5"/>
      </g>
     </g>
     <g id="text_11">
      <!-- 5 -->
      <g transform="translate(36.904375 153.781781) scale(0.12 -0.12)">
       <use xlink:href="#DejaVuSans-35"/>
      </g>
     </g>
    </g>
    <g id="ytick_5">
     <g id="line2d_75">
      <path d="M 48.039375 117.521496 
L 382.839375 117.521496 
" clip-path="url(#pc634c82e8a)" style="fill: none; stroke: #b0b0b0; stroke-width: 0.5; stroke-linecap: square"/>
     </g>
     <g id="line2d_76">
      <g>
       <use xlink:href="#m1c50844437" x="48.039375" y="117.521496" style="stroke: #000000; stroke-width: 0.5"/>
      </g>
     </g>
     <g id="line2d_77">
      <g>
       <use xlink:href="#m2f7661bc9f" x="382.839375" y="117.521496" style="stroke: #000000; stroke-width: 0.5"/>
      </g>
     </g>
     <g id="text_12">
      <!-- 10 -->
      <g transform="translate(29.269375 122.080559) scale(0.12 -0.12)">
       <use xlink:href="#DejaVuSans-31"/>
       <use xlink:href="#DejaVuSans-30" x="63.623047"/>
      </g>
     </g>
    </g>
    <g id="ytick_6">
     <g id="line2d_78">
      <path d="M 48.039375 85.820274 
L 382.839375 85.820274 
" clip-path="url(#pc634c82e8a)" style="fill: none; stroke: #b0b0b0; stroke-width: 0.5; stroke-linecap: square"/>
     </g>
     <g id="line2d_79">
      <g>
       <use xlink:href="#m1c50844437" x="48.039375" y="85.820274" style="stroke: #000000; stroke-width: 0.5"/>
      </g>
     </g>
     <g id="line2d_80">
      <g>
       <use xlink:href="#m2f7661bc9f" x="382.839375" y="85.820274" style="stroke: #000000; stroke-width: 0.5"/>
      </g>
     </g>
     <g id="text_13">
      <!-- 15 -->
      <g transform="translate(29.269375 90.379337) scale(0.12 -0.12)">
       <use xlink:href="#DejaVuSans-31"/>
       <use xlink:href="#DejaVuSans-35" x="63.623047"/>
      </g>
     </g>
    </g>
    <g id="ytick_7">
     <g id="line2d_81">
      <path d="M 48.039375 54.119052 
L 382.839375 54.119052 
" clip-path="url(#pc634c82e8a)" style="fill: none; stroke: #b0b0b0; stroke-width: 0.5; stroke-linecap: square"/>
     </g>
     <g id="line2d_82">
      <g>
       <use xlink:href="#m1c50844437" x="48.039375" y="54.119052" style="stroke: #000000; stroke-width: 0.5"/>
      </g>
     </g>
     <g id="line2d_83">
      <g>
       <use xlink:href="#m2f7661bc9f" x="382.839375" y="54.119052" style="stroke: #000000; stroke-width: 0.5"/>
      </g>
     </g>
     <g id="text_14">
      <!-- 20 -->
      <g transform="translate(29.269375 58.678115) scale(0.12 -0.12)">
       <use xlink:href="#DejaVuSans-32"/>
       <use xlink:href="#DejaVuSans-30" x="63.623047"/>
      </g>
     </g>
    </g>
    <g id="ytick_8">
     <g id="line2d_84">
      <path d="M 48.039375 22.41783 
L 382.839375 22.41783 
" clip-path="url(#pc634c82e8a)" style="fill: none; stroke: #b0b0b0; stroke-width: 0.5; stroke-linecap: square"/>
     </g>
     <g id="line2d_85">
      <g>
       <use xlink:href="#m1c50844437" x="48.039375" y="22.41783" style="stroke: #000000; stroke-width: 0.5"/>
      </g>
     </g>
     <g id="line2d_86">
      <g>
       <use xlink:href="#m2f7661bc9f" x="382.839375" y="22.41783" style="stroke: #000000; stroke-width: 0.5"/>
      </g>
     </g>
     <g id="text_15">
      <!-- 25 -->
      <g transform="translate(29.269375 26.976893) scale(0.12 -0.12)">
       <use xlink:href="#DejaVuSans-32"/>
       <use xlink:href="#DejaVuSans-35" x="63.623047"/>
      </g>
     </g>
    </g>
    <g id="ytick_9">
     <g id="line2d_87">
      <defs>
       <path id="mf914bb5be4" d="M 0 0 
L 1.5 0 
" style="stroke: #000000; stroke-width: 0.5"/>
      </defs>
      <g>
       <use xlink:href="#mf914bb5be4" x="48.039375" y="250.666628" style="stroke: #000000; stroke-width: 0.5"/>
      </g>
     </g>
     <g id="line2d_88">
      <defs>
       <path id="m1434975b66" d="M 0 0 
L -1.5 0 
" style="stroke: #000000; stroke-width: 0.5"/>
      </defs>
      <g>
       <use xlink:href="#m1434975b66" x="382.839375" y="250.666628" style="stroke: #000000; stroke-width: 0.5"/>
      </g>
     </g>
    </g>
    <g id="ytick_10">
     <g id="line2d_89">
      <g>
       <use xlink:href="#mf914bb5be4" x="48.039375" y="237.98614" style="stroke: #000000; stroke-width: 0.5"/>
      </g>
     </g>
     <g id="line2d_90">
      <g>
       <use xlink:href="#m1434975b66" x="382.839375" y="237.98614" style="stroke: #000000; stroke-width: 0.5"/>
      </g>
     </g>
    </g>
    <g id="ytick_11">
     <g id="line2d_91">
      <g>
       <use xlink:href="#mf914bb5be4" x="48.039375" y="231.645895" style="stroke: #000000; stroke-width: 0.5"/>
      </g>
     </g>
     <g id="line2d_92">
      <g>
       <use xlink:href="#m1434975b66" x="382.839375" y="231.645895" style="stroke: #000000; stroke-width: 0.5"/>
      </g>
     </g>
    </g>
    <g id="ytick_12">
     <g id="line2d_93">
      <g>
       <use xlink:href="#mf914bb5be4" x="48.039375" y="225.305651" style="stroke: #000000; stroke-width: 0.5"/>
      </g>
     </g>
     <g id="line2d_94">
      <g>
       <use xlink:href="#m1434975b66" x="382.839375" y="225.305651" style="stroke: #000000; stroke-width: 0.5"/>
      </g>
     </g>
    </g>
    <g id="ytick_13">
     <g id="line2d_95">
      <g>
       <use xlink:href="#mf914bb5be4" x="48.039375" y="218.965406" style="stroke: #000000; stroke-width: 0.5"/>
      </g>
     </g>
     <g id="line2d_96">
      <g>
       <use xlink:href="#m1434975b66" x="382.839375" y="218.965406" style="stroke: #000000; stroke-width: 0.5"/>
      </g>
     </g>
    </g>
    <g id="ytick_14">
     <g id="line2d_97">
      <g>
       <use xlink:href="#mf914bb5be4" x="48.039375" y="206.284918" style="stroke: #000000; stroke-width: 0.5"/>
      </g>
     </g>
     <g id="line2d_98">
      <g>
       <use xlink:href="#m1434975b66" x="382.839375" y="206.284918" style="stroke: #000000; stroke-width: 0.5"/>
      </g>
     </g>
    </g>
    <g id="ytick_15">
     <g id="line2d_99">
      <g>
       <use xlink:href="#mf914bb5be4" x="48.039375" y="199.944673" style="stroke: #000000; stroke-width: 0.5"/>
      </g>
     </g>
     <g id="line2d_100">
      <g>
       <use xlink:href="#m1434975b66" x="382.839375" y="199.944673" style="stroke: #000000; stroke-width: 0.5"/>
      </g>
     </g>
    </g>
    <g id="ytick_16">
     <g id="line2d_101">
      <g>
       <use xlink:href="#mf914bb5be4" x="48.039375" y="193.604429" style="stroke: #000000; stroke-width: 0.5"/>
      </g>
     </g>
     <g id="line2d_102">
      <g>
       <use xlink:href="#m1434975b66" x="382.839375" y="193.604429" style="stroke: #000000; stroke-width: 0.5"/>
      </g>
     </g>
    </g>
    <g id="ytick_17">
     <g id="line2d_103">
      <g>
       <use xlink:href="#mf914bb5be4" x="48.039375" y="187.264184" style="stroke: #000000; stroke-width: 0.5"/>
      </g>
     </g>
     <g id="line2d_104">
      <g>
       <use xlink:href="#m1434975b66" x="382.839375" y="187.264184" style="stroke: #000000; stroke-width: 0.5"/>
      </g>
     </g>
    </g>
    <g id="ytick_18">
     <g id="line2d_105">
      <g>
       <use xlink:href="#mf914bb5be4" x="48.039375" y="174.583696" style="stroke: #000000; stroke-width: 0.5"/>
      </g>
     </g>
     <g id="line2d_106">
      <g>
       <use xlink:href="#m1434975b66" x="382.839375" y="174.583696" style="stroke: #000000; stroke-width: 0.5"/>
      </g>
     </g>
    </g>
    <g id="ytick_19">
     <g id="line2d_107">
      <g>
       <use xlink:href="#mf914bb5be4" x="48.039375" y="168.243451" style="stroke: #000000; stroke-width: 0.5"/>
      </g>
     </g>
     <g id="line2d_108">
      <g>
       <use xlink:href="#m1434975b66" x="382.839375" y="168.243451" style="stroke: #000000; stroke-width: 0.5"/>
      </g>
     </g>
    </g>
    <g id="ytick_20">
     <g id="line2d_109">
      <g>
       <use xlink:href="#mf914bb5be4" x="48.039375" y="161.903207" style="stroke: #000000; stroke-width: 0.5"/>
      </g>
     </g>
     <g id="line2d_110">
      <g>
       <use xlink:href="#m1434975b66" x="382.839375" y="161.903207" style="stroke: #000000; stroke-width: 0.5"/>
      </g>
     </g>
    </g>
    <g id="ytick_21">
     <g id="line2d_111">
      <g>
       <use xlink:href="#mf914bb5be4" x="48.039375" y="155.562963" style="stroke: #000000; stroke-width: 0.5"/>
      </g>
     </g>
     <g id="line2d_112">
      <g>
       <use xlink:href="#m1434975b66" x="382.839375" y="155.562963" style="stroke: #000000; stroke-width: 0.5"/>
      </g>
     </g>
    </g>
    <g id="ytick_22">
     <g id="line2d_113">
      <g>
       <use xlink:href="#mf914bb5be4" x="48.039375" y="142.882474" style="stroke: #000000; stroke-width: 0.5"/>
      </g>
     </g>
     <g id="line2d_114">
      <g>
       <use xlink:href="#m1434975b66" x="382.839375" y="142.882474" style="stroke: #000000; stroke-width: 0.5"/>
      </g>
     </g>
    </g>
    <g id="ytick_23">
     <g id="line2d_115">
      <g>
       <use xlink:href="#mf914bb5be4" x="48.039375" y="136.542229" style="stroke: #000000; stroke-width: 0.5"/>
      </g>
     </g>
     <g id="line2d_116">
      <g>
       <use xlink:href="#m1434975b66" x="382.839375" y="136.542229" style="stroke: #000000; stroke-width: 0.5"/>
      </g>
     </g>
    </g>
    <g id="ytick_24">
     <g id="line2d_117">
      <g>
       <use xlink:href="#mf914bb5be4" x="48.039375" y="130.201985" style="stroke: #000000; stroke-width: 0.5"/>
      </g>
     </g>
     <g id="line2d_118">
      <g>
       <use xlink:href="#m1434975b66" x="382.839375" y="130.201985" style="stroke: #000000; stroke-width: 0.5"/>
      </g>
     </g>
    </g>
    <g id="ytick_25">
     <g id="line2d_119">
      <g>
       <use xlink:href="#mf914bb5be4" x="48.039375" y="123.861741" style="stroke: #000000; stroke-width: 0.5"/>
      </g>
     </g>
     <g id="line2d_120">
      <g>
       <use xlink:href="#m1434975b66" x="382.839375" y="123.861741" style="stroke: #000000; stroke-width: 0.5"/>
      </g>
     </g>
    </g>
    <g id="ytick_26">
     <g id="line2d_121">
      <g>
       <use xlink:href="#mf914bb5be4" x="48.039375" y="111.181252" style="stroke: #000000; stroke-width: 0.5"/>
      </g>
     </g>
     <g id="line2d_122">
      <g>
       <use xlink:href="#m1434975b66" x="382.839375" y="111.181252" style="stroke: #000000; stroke-width: 0.5"/>
      </g>
     </g>
    </g>
    <g id="ytick_27">
     <g id="line2d_123">
      <g>
       <use xlink:href="#mf914bb5be4" x="48.039375" y="104.841007" style="stroke: #000000; stroke-width: 0.5"/>
      </g>
     </g>
     <g id="line2d_124">
      <g>
       <use xlink:href="#m1434975b66" x="382.839375" y="104.841007" style="stroke: #000000; stroke-width: 0.5"/>
      </g>
     </g>
    </g>
    <g id="ytick_28">
     <g id="line2d_125">
      <g>
       <use xlink:href="#mf914bb5be4" x="48.039375" y="98.500763" style="stroke: #000000; stroke-width: 0.5"/>
      </g>
     </g>
     <g id="line2d_126">
      <g>
       <use xlink:href="#m1434975b66" x="382.839375" y="98.500763" style="stroke: #000000; stroke-width: 0.5"/>
      </g>
     </g>
    </g>
    <g id="ytick_29">
     <g id="line2d_127">
      <g>
       <use xlink:href="#mf914bb5be4" x="48.039375" y="92.160519" style="stroke: #000000; stroke-width: 0.5"/>
      </g>
     </g>
     <g id="line2d_128">
      <g>
       <use xlink:href="#m1434975b66" x="382.839375" y="92.160519" style="stroke: #000000; stroke-width: 0.5"/>
      </g>
     </g>
    </g>
    <g id="ytick_30">
     <g id="line2d_129">
      <g>
       <use xlink:href="#mf914bb5be4" x="48.039375" y="79.48003" style="stroke: #000000; stroke-width: 0.5"/>
      </g>
     </g>
     <g id="line2d_130">
      <g>
       <use xlink:href="#m1434975b66" x="382.839375" y="79.48003" style="stroke: #000000; stroke-width: 0.5"/>
      </g>
     </g>
    </g>
    <g id="ytick_31">
     <g id="line2d_131">
      <g>
       <use xlink:href="#mf914bb5be4" x="48.039375" y="73.139786" style="stroke: #000000; stroke-width: 0.5"/>
      </g>
     </g>
     <g id="line2d_132">
      <g>
       <use xlink:href="#m1434975b66" x="382.839375" y="73.139786" style="stroke: #000000; stroke-width: 0.5"/>
      </g>
     </g>
    </g>
    <g id="ytick_32">
     <g id="line2d_133">
      <g>
       <use xlink:href="#mf914bb5be4" x="48.039375" y="66.799541" style="stroke: #000000; stroke-width: 0.5"/>
      </g>
     </g>
     <g id="line2d_134">
      <g>
       <use xlink:href="#m1434975b66" x="382.839375" y="66.799541" style="stroke: #000000; stroke-width: 0.5"/>
      </g>
     </g>
    </g>
    <g id="ytick_33">
     <g id="line2d_135">
      <g>
       <use xlink:href="#mf914bb5be4" x="48.039375" y="60.459297" style="stroke: #000000; stroke-width: 0.5"/>
      </g>
     </g>
     <g id="line2d_136">
      <g>
       <use xlink:href="#m1434975b66" x="382.839375" y="60.459297" style="stroke: #000000; stroke-width: 0.5"/>
      </g>
     </g>
    </g>
    <g id="ytick_34">
     <g id="line2d_137">
      <g>
       <use xlink:href="#mf914bb5be4" x="48.039375" y="47.778808" style="stroke: #000000; stroke-width: 0.5"/>
      </g>
     </g>
     <g id="line2d_138">
      <g>
       <use xlink:href="#m1434975b66" x="382.839375" y="47.778808" style="stroke: #000000; stroke-width: 0.5"/>
      </g>
     </g>
    </g>
    <g id="ytick_35">
     <g id="line2d_139">
      <g>
       <use xlink:href="#mf914bb5be4" x="48.039375" y="41.438564" style="stroke: #000000; stroke-width: 0.5"/>
      </g>
     </g>
     <g id="line2d_140">
      <g>
       <use xlink:href="#m1434975b66" x="382.839375" y="41.438564" style="stroke: #000000; stroke-width: 0.5"/>
      </g>
     </g>
    </g>
    <g id="ytick_36">
     <g id="line2d_141">
      <g>
       <use xlink:href="#mf914bb5be4" x="48.039375" y="35.098319" style="stroke: #000000; stroke-width: 0.5"/>
      </g>
     </g>
     <g id="line2d_142">
      <g>
       <use xlink:href="#m1434975b66" x="382.839375" y="35.098319" style="stroke: #000000; stroke-width: 0.5"/>
      </g>
     </g>
    </g>
    <g id="ytick_37">
     <g id="line2d_143">
      <g>
       <use xlink:href="#mf914bb5be4" x="48.039375" y="28.758075" style="stroke: #000000; stroke-width: 0.5"/>
      </g>
     </g>
     <g id="line2d_144">
      <g>
       <use xlink:href="#m1434975b66" x="382.839375" y="28.758075" style="stroke: #000000; stroke-width: 0.5"/>
      </g>
     </g>
    </g>
    <g id="ytick_38">
     <g id="line2d_145">
      <g>
       <use xlink:href="#mf914bb5be4" x="48.039375" y="16.077586" style="stroke: #000000; stroke-width: 0.5"/>
      </g>
     </g>
     <g id="line2d_146">
      <g>
       <use xlink:href="#m1434975b66" x="382.839375" y="16.077586" style="stroke: #000000; stroke-width: 0.5"/>
      </g>
     </g>
    </g>
    <g id="ytick_39">
     <g id="line2d_147">
      <g>
       <use xlink:href="#mf914bb5be4" x="48.039375" y="9.737342" style="stroke: #000000; stroke-width: 0.5"/>
      </g>
     </g>
     <g id="line2d_148">
      <g>
       <use xlink:href="#m1434975b66" x="382.839375" y="9.737342" style="stroke: #000000; stroke-width: 0.5"/>
      </g>
     </g>
    </g>
    <g id="text_16">
     <!-- Fitness -->
     <g transform="translate(12.718125 149.120625) rotate(-90) scale(0.12 -0.12)">
      <defs>
       <path id="DejaVuSans-46" d="M 628 4666 
L 3309 4666 
L 3309 4134 
L 1259 4134 
L 1259 2759 
L 3109 2759 
L 3109 2228 
L 1259 2228 
L 1259 0 
L 628 0 
L 628 4666 
z
" transform="scale(0.015625)"/>
      </defs>
      <use xlink:href="#DejaVuSans-46"/>
      <use xlink:href="#DejaVuSans-69" x="50.269531"/>
      <use xlink:href="#DejaVuSans-74" x="78.052734"/>
      <use xlink:href="#DejaVuSans-6e" x="117.261719"/>
      <use xlink:href="#DejaVuSans-65" x="180.640625"/>
      <use xlink:href="#DejaVuSans-73" x="242.164062"/>
      <use xlink:href="#DejaVuSans-73" x="294.263672"/>
     </g>
    </g>
   </g>
   <g id="line2d_149">
    <path d="M 63.257557 54.808564 
L 68.137134 54.808673 
L 68.747081 54.188218 
L 69.966976 54.191194 
L 70.576923 51.640465 
L 71.796817 51.640933 
L 72.406764 43.162 
L 76.066447 43.119374 
L 76.676394 42.35056 
L 78.506236 42.349194 
L 79.116183 41.738021 
L 79.72613 39.101768 
L 80.946025 39.10084 
L 81.555972 38.032236 
L 82.165919 35.85269 
L 86.435549 35.769145 
L 87.045496 32.66974 
L 90.095232 32.601185 
L 90.705179 31.901692 
L 91.925074 31.888908 
L 92.535021 31.621267 
L 93.144968 31.618003 
L 93.754915 31.41004 
L 97.414598 31.410526 
L 98.024545 29.743302 
L 99.854387 29.741225 
L 100.464334 29.011044 
L 104.124017 29.007988 
L 104.733964 28.619632 
L 105.343911 28.374072 
L 107.173753 28.372679 
L 107.7837 27.614092 
L 115.713013 27.614291 
L 116.32296 26.393785 
L 117.542855 26.394475 
L 118.152802 26.27993 
L 124.252274 26.281483 
L 124.862221 25.849715 
L 132.791534 25.74512 
L 133.401481 25.402013 
L 134.621375 25.405296 
L 135.84127 25.305685 
L 139.500953 25.302353 
L 140.1109 25.094789 
L 140.720847 25.097684 
L 141.330794 24.935819 
L 142.550689 24.934783 
L 143.160636 24.763448 
L 146.820319 24.763561 
L 147.430266 24.210296 
L 149.260107 24.208741 
L 149.870055 23.516769 
L 152.309843 23.51786 
L 152.91979 23.224629 
L 156.579473 23.224388 
L 157.799368 23.112445 
L 159.019262 23.075196 
L 159.629209 22.940492 
L 169.388364 22.862342 
L 169.998311 22.698478 
L 174.267941 22.697953 
L 174.877888 22.451399 
L 188.296726 22.439118 
L 188.906673 22.243966 
L 196.226039 22.207959 
L 196.835986 21.72095 
L 197.445934 21.720867 
L 198.055881 21.595697 
L 199.885722 21.500356 
L 201.715564 21.403473 
L 202.935458 21.291608 
L 205.985194 21.224445 
L 207.815035 21.170993 
L 218.184137 21.072211 
L 218.794084 20.840522 
L 221.233873 20.840439 
L 221.84382 20.683227 
L 241.36213 20.659444 
L 242.582024 20.577733 
L 249.291443 20.587892 
L 262.71028 20.489928 
L 263.320228 19.273684 
L 266.979911 19.251991 
L 268.199805 19.250907 
L 268.809752 19.010935 
L 271.249541 18.899542 
L 272.469435 18.824119 
L 274.299277 18.824143 
L 274.909224 17.810286 
L 277.95896 17.806742 
L 278.568907 17.165907 
L 279.178854 16.747773 
L 281.618643 16.746574 
L 282.22859 16.512955 
L 288.938009 16.511032 
L 289.547956 16.055909 
L 290.76785 16.055858 
L 291.987744 15.872095 
L 293.207639 15.871781 
L 293.817586 15.276942 
L 296.257375 15.259543 
L 296.867322 15.135511 
L 367.621193 14.951346 
L 367.621193 14.951346 
" clip-path="url(#pc634c82e8a)" style="fill: none; stroke: #000000; stroke-linecap: square"/>
   </g>
   <g id="line2d_150">
    <path d="M 63.257557 187.015312 
L 63.867504 171.925119 
L 64.477451 160.134893 
L 65.087398 161.623773 
L 65.697345 153.005021 
L 66.307293 139.401723 
L 66.91724 139.908513 
L 67.527187 134.532856 
L 68.137134 126.320897 
L 68.747081 114.055496 
L 69.357028 119.871533 
L 69.966976 108.201512 
L 70.576923 100.347528 
L 71.18687 121.777002 
L 71.796817 114.711236 
L 72.406764 105.095744 
L 73.016711 113.115254 
L 73.626659 122.716173 
L 74.236606 117.899581 
L 75.4565 122.717407 
L 76.066447 152.404743 
L 76.676394 138.022104 
L 77.286342 141.809593 
L 77.896289 129.628464 
L 78.506236 101.777106 
L 79.116183 108.585548 
L 79.72613 109.880665 
L 80.336077 108.952115 
L 80.946025 89.033952 
L 81.555972 84.547338 
L 82.775866 67.46259 
L 83.99576 80.984319 
L 84.605708 71.418183 
L 85.215655 65.113275 
L 85.825602 70.253978 
L 86.435549 66.877235 
L 87.045496 55.152722 
L 87.655444 56.45472 
L 88.265391 64.700848 
L 88.875338 63.31282 
L 89.485285 68.132218 
L 90.095232 63.556136 
L 90.705179 65.848867 
L 91.315127 61.6272 
L 91.925074 61.297287 
L 92.535021 66.240431 
L 93.144968 68.038954 
L 93.754915 60.858727 
L 94.364862 56.780321 
L 94.97481 63.446373 
L 95.584757 59.805783 
L 96.194704 49.211061 
L 96.804651 51.241212 
L 97.414598 53.921656 
L 98.024545 48.963156 
L 98.634493 42.541719 
L 99.24444 46.179768 
L 99.854387 42.265339 
L 101.074281 48.328276 
L 101.684228 46.982603 
L 102.294176 42.552483 
L 102.904123 45.148559 
L 103.51407 42.774103 
L 104.124017 49.027091 
L 105.343911 44.606966 
L 105.953859 45.286883 
L 106.563806 47.420113 
L 107.173753 35.293366 
L 107.7837 38.673968 
L 108.393647 36.033907 
L 109.003594 40.788567 
L 109.613542 37.896353 
L 110.223489 40.582385 
L 110.833436 41.014844 
L 111.443383 45.007536 
L 112.05333 45.408316 
L 112.663277 42.779117 
L 113.273225 38.857509 
L 113.883172 37.88879 
L 114.493119 35.685521 
L 115.103066 33.916084 
L 115.713013 41.602634 
L 116.32296 37.822333 
L 116.932908 42.782559 
L 117.542855 37.167728 
L 118.152802 40.530116 
L 118.762749 40.708929 
L 119.372696 40.403062 
L 119.982643 37.596061 
L 120.592591 41.388987 
L 121.202538 39.483386 
L 121.812485 50.3846 
L 122.422432 41.546776 
L 123.032379 40.48062 
L 123.642326 42.294693 
L 124.252274 40.516388 
L 124.862221 40.915171 
L 125.472168 39.966531 
L 126.082115 47.419524 
L 126.692062 43.537647 
L 127.302009 42.081047 
L 127.911957 40.304545 
L 128.521904 39.593068 
L 129.741798 42.539057 
L 130.351745 38.849874 
L 130.961692 38.885796 
L 131.57164 38.779504 
L 132.181587 37.939732 
L 132.791534 37.597526 
L 133.401481 35.577636 
L 134.011428 37.059644 
L 135.231323 42.152247 
L 135.84127 43.01262 
L 136.451217 36.789585 
L 137.061164 37.073031 
L 137.671111 41.585705 
L 138.281058 39.31825 
L 138.891006 38.530297 
L 139.500953 35.730802 
L 140.1109 41.120682 
L 140.720847 44.872944 
L 141.330794 42.524073 
L 141.940741 51.132664 
L 142.550689 50.121777 
L 143.160636 44.401609 
L 143.770583 49.156559 
L 144.38053 45.372404 
L 144.990477 40.304802 
L 145.600424 42.160854 
L 146.210372 46.237531 
L 146.820319 45.807925 
L 147.430266 44.29991 
L 148.040213 38.836814 
L 148.65016 38.973028 
L 149.260107 36.741827 
L 149.870055 36.054205 
L 150.480002 38.145819 
L 151.089949 42.165691 
L 151.699896 39.510604 
L 152.309843 45.06053 
L 152.91979 45.907167 
L 153.529738 55.666743 
L 154.139685 53.114463 
L 154.749632 58.36401 
L 155.359579 44.320609 
L 155.969526 53.74836 
L 156.579473 53.22461 
L 159.019262 44.036776 
L 159.629209 45.858494 
L 160.239156 45.923035 
L 160.849104 45.014262 
L 161.459051 48.771785 
L 162.068998 40.76535 
L 162.678945 38.963511 
L 163.288892 39.608684 
L 163.898839 46.341043 
L 164.508787 48.23629 
L 165.118734 44.568898 
L 165.728681 43.596207 
L 166.338628 46.673081 
L 166.948575 39.367631 
L 167.558522 38.454324 
L 168.16847 43.584276 
L 168.778417 43.177301 
L 169.388364 45.227436 
L 169.998311 44.091099 
L 170.608258 46.882527 
L 171.218205 44.465139 
L 171.828153 47.240701 
L 172.4381 46.591063 
L 173.048047 43.494655 
L 173.657994 54.9367 
L 174.267941 51.029993 
L 174.877888 48.970144 
L 175.487836 49.126182 
L 176.097783 50.581617 
L 176.70773 51.590842 
L 177.317677 56.54389 
L 177.927624 55.668213 
L 178.537571 49.611833 
L 179.147519 48.09665 
L 179.757466 59.581751 
L 180.367413 44.575123 
L 180.97736 45.226082 
L 181.587307 41.384586 
L 182.197254 42.793988 
L 182.807202 46.27769 
L 183.417149 45.815456 
L 184.027096 48.141546 
L 184.637043 49.431565 
L 185.24699 42.560895 
L 185.856937 40.243076 
L 186.466885 39.443802 
L 187.076832 42.678361 
L 187.686779 43.173475 
L 188.296726 45.612986 
L 188.906673 43.194106 
L 189.51662 44.516348 
L 190.126568 42.325347 
L 190.736515 37.666164 
L 191.346462 37.93261 
L 191.956409 36.281066 
L 192.566356 31.81 
L 193.176303 33.521831 
L 193.786251 34.163758 
L 194.396198 33.94687 
L 195.006145 37.285388 
L 195.616092 38.163321 
L 196.226039 37.518666 
L 196.835986 33.523823 
L 197.445934 30.427744 
L 198.055881 30.778339 
L 198.665828 30.119117 
L 199.275775 31.610366 
L 199.885722 28.505796 
L 200.495669 33.263731 
L 201.105617 27.980069 
L 201.715564 29.102205 
L 202.325511 26.402192 
L 202.935458 25.540599 
L 203.545405 27.987436 
L 204.155352 26.617169 
L 204.7653 25.910567 
L 205.375247 26.966807 
L 205.985194 29.104927 
L 206.595141 29.715212 
L 207.205088 26.810428 
L 207.815035 30.039759 
L 208.424983 29.000355 
L 209.644877 33.66091 
L 210.254824 31.233957 
L 210.864771 36.196295 
L 211.474718 37.537991 
L 212.084666 37.441916 
L 212.694613 30.897395 
L 213.30456 29.096508 
L 213.914507 26.617089 
L 214.524454 25.839396 
L 215.134401 29.333922 
L 215.744349 29.684077 
L 216.964243 25.902955 
L 218.184137 32.377918 
L 218.794084 38.373522 
L 219.404032 33.744278 
L 220.013979 32.107352 
L 220.623926 30.861844 
L 221.233873 27.99148 
L 222.453767 28.700673 
L 223.063715 30.910104 
L 223.673662 32.354114 
L 224.283609 31.504146 
L 224.893556 30.010951 
L 226.11345 30.902523 
L 226.723398 34.203191 
L 227.333345 34.888053 
L 227.943292 34.942605 
L 228.553239 33.105761 
L 229.163186 32.649352 
L 230.383081 48.579531 
L 230.993028 38.68679 
L 232.212922 35.36636 
L 232.822869 39.017792 
L 233.432816 35.844154 
L 234.042764 32.052054 
L 234.652711 39.462708 
L 235.262658 40.879415 
L 235.872605 32.494804 
L 237.092499 28.533462 
L 237.702447 32.979853 
L 238.312394 30.904306 
L 238.922341 30.60625 
L 239.532288 32.480086 
L 240.142235 41.170964 
L 240.752182 39.637096 
L 241.36213 38.485947 
L 241.972077 36.151391 
L 242.582024 37.410754 
L 244.411865 27.51524 
L 245.021813 34.522328 
L 245.63176 33.988779 
L 246.241707 31.356161 
L 246.851654 31.071049 
L 247.461601 31.927468 
L 248.071548 30.163152 
L 248.681496 34.292635 
L 249.291443 37.465141 
L 249.90139 31.981953 
L 251.121284 34.253909 
L 251.731231 37.925526 
L 252.341179 35.166108 
L 252.951126 30.873892 
L 253.561073 33.583227 
L 254.17102 33.421021 
L 254.780967 34.248245 
L 255.390914 40.843598 
L 256.000862 38.574309 
L 256.610809 40.041378 
L 257.220756 39.609508 
L 257.830703 36.939606 
L 258.44065 33.473822 
L 259.050597 40.841711 
L 259.660545 41.629321 
L 261.490386 38.148604 
L 262.100333 31.568617 
L 263.320228 30.031445 
L 263.930175 31.239553 
L 264.540122 33.893695 
L 265.150069 33.410099 
L 265.760016 34.718823 
L 266.369963 33.816354 
L 266.979911 32.66646 
L 267.589858 29.994017 
L 268.199805 35.432957 
L 268.809752 32.586397 
L 269.419699 37.215823 
L 270.029646 35.637481 
L 270.639594 36.847538 
L 271.859488 43.253608 
L 272.469435 41.914315 
L 273.079382 46.137912 
L 273.689329 39.360518 
L 274.299277 44.707976 
L 274.909224 36.385373 
L 275.519171 41.80657 
L 276.129118 43.009458 
L 276.739065 45.285913 
L 277.349012 49.040738 
L 277.95896 46.827763 
L 279.178854 36.618101 
L 279.788801 33.167733 
L 280.398748 38.194472 
L 281.008695 32.575103 
L 282.22859 41.0081 
L 282.838537 39.971803 
L 283.448484 47.411876 
L 284.058431 49.496165 
L 284.668378 52.379458 
L 285.278326 49.967056 
L 285.888273 46.160383 
L 286.49822 43.33123 
L 287.718114 54.313542 
L 288.328061 56.672638 
L 288.938009 54.367876 
L 289.547956 54.841618 
L 290.157903 59.283609 
L 290.76785 57.246812 
L 291.377797 51.084925 
L 291.987744 50.65787 
L 292.597692 47.906427 
L 293.207639 37.132672 
L 293.817586 34.751939 
L 294.427533 34.139723 
L 295.03748 43.451164 
L 295.647427 43.044615 
L 296.257375 48.899076 
L 296.867322 50.454786 
L 297.477269 42.314953 
L 298.087216 44.970132 
L 298.697163 44.482585 
L 299.30711 35.135741 
L 299.917058 41.159589 
L 300.527005 33.904478 
L 301.136952 30.921515 
L 301.746899 30.24748 
L 302.356846 27.922367 
L 302.966793 26.325341 
L 303.576741 27.656669 
L 304.186688 21.492437 
L 304.796635 20.456799 
L 305.406582 22.254465 
L 306.016529 20.926469 
L 306.626476 26.408028 
L 307.236424 30.784345 
L 308.456318 36.036428 
L 309.066265 32.311513 
L 309.676212 32.723919 
L 310.286159 34.061664 
L 310.896107 32.208268 
L 311.506054 30.936533 
L 312.116001 31.694251 
L 312.725948 33.245159 
L 313.335895 29.8152 
L 313.945842 23.632009 
L 314.55579 27.646206 
L 315.165737 25.078498 
L 315.775684 24.755982 
L 316.385631 24.176463 
L 316.995578 24.814502 
L 317.605525 21.396072 
L 318.215473 26.642482 
L 318.82542 26.768573 
L 319.435367 28.699383 
L 320.045314 27.677975 
L 320.655261 25.154345 
L 321.265208 25.629054 
L 321.875156 29.143216 
L 322.485103 31.048874 
L 323.09505 37.469178 
L 323.704997 38.769544 
L 324.314944 45.787403 
L 324.924891 44.955059 
L 325.534839 41.430801 
L 326.144786 41.616333 
L 326.754733 36.184672 
L 327.36468 34.059407 
L 327.974627 37.437702 
L 328.584574 33.387089 
L 329.194522 28.212481 
L 329.804469 27.89295 
L 330.414416 26.574699 
L 331.024363 26.164208 
L 331.63431 27.482417 
L 332.244257 29.504815 
L 332.854205 29.874705 
L 333.464152 25.26766 
L 334.074099 22.818474 
L 334.684046 25.888892 
L 335.293993 25.045787 
L 335.90394 23.784688 
L 336.513888 22.853999 
L 337.123835 22.224908 
L 337.733782 18.149769 
L 338.343729 20.342399 
L 338.953676 18.414873 
L 339.563623 19.333344 
L 340.173571 19.091452 
L 340.783518 19.321745 
L 341.393465 18.501067 
L 342.003412 17.975651 
L 342.613359 22.125158 
L 343.223306 21.931966 
L 343.833254 25.124168 
L 344.443201 26.908604 
L 345.053148 23.987545 
L 345.663095 22.159659 
L 346.273042 21.272619 
L 347.492937 24.729678 
L 348.102884 31.524795 
L 348.712831 31.775334 
L 349.322778 25.646453 
L 349.932725 25.817353 
L 350.542673 30.923885 
L 351.15262 32.44806 
L 351.762567 33.170276 
L 352.372514 32.193225 
L 352.982461 32.157249 
L 353.592408 33.636494 
L 354.202356 31.322811 
L 354.812303 30.472921 
L 355.42225 34.549117 
L 356.032197 28.145869 
L 356.642144 24.465605 
L 357.252091 26.938793 
L 357.862039 33.214309 
L 358.471986 34.711794 
L 359.081933 34.743679 
L 359.69188 32.180886 
L 360.301827 37.317493 
L 360.911774 40.087889 
L 361.521722 41.340227 
L 362.131669 42.044216 
L 362.741616 38.404555 
L 363.351563 42.640709 
L 363.96151 33.188048 
L 364.571457 39.556625 
L 365.181405 35.177169 
L 365.791352 33.918162 
L 366.401299 35.743756 
L 367.011246 33.828426 
L 367.621193 35.532589 
L 367.621193 35.532589 
" clip-path="url(#pc634c82e8a)" style="fill: none; stroke-dasharray: 3.7,1.6; stroke-dashoffset: 0; stroke: #000000"/>
   </g>
   <g id="patch_3">
    <path d="M 48.039375 253.08 
L 48.039375 3.6 
" style="fill: none; stroke: #000000; stroke-width: 0.5; stroke-linejoin: miter; stroke-linecap: square"/>
   </g>
   <g id="patch_4">
    <path d="M 382.839375 253.08 
L 382.839375 3.6 
" style="fill: none; stroke: #000000; stroke-width: 0.5; stroke-linejoin: miter; stroke-linecap: square"/>
   </g>
   <g id="patch_5">
    <path d="M 48.039375 253.08 
L 382.839375 253.08 
" style="fill: none; stroke: #000000; stroke-width: 0.5; stroke-linejoin: miter; stroke-linecap: square"/>
   </g>
   <g id="patch_6">
    <path d="M 48.039375 3.6 
L 382.839375 3.6 
" style="fill: none; stroke: #000000; stroke-width: 0.5; stroke-linejoin: miter; stroke-linecap: square"/>
   </g>
   <g id="legend_1">
    <g id="patch_7">
     <path d="M 256.633125 247.08 
L 374.439375 247.08 
Q 376.839375 247.08 376.839375 244.68 
L 376.839375 193.03875 
Q 376.839375 190.63875 374.439375 190.63875 
L 256.633125 190.63875 
Q 254.233125 190.63875 254.233125 193.03875 
L 254.233125 244.68 
Q 254.233125 247.08 256.633125 247.08 
z
" style="fill: #ffffff; opacity: 0.8; stroke: #cccccc; stroke-linejoin: miter"/>
    </g>
    <g id="line2d_151">
     <path d="M 259.033125 200.356875 
L 271.033125 200.356875 
L 283.033125 200.356875 
" style="fill: none; stroke: #000000; stroke-linecap: square"/>
    </g>
    <g id="text_17">
     <!-- Max fitness -->
     <g transform="translate(292.633125 204.556875) scale(0.12 -0.12)">
      <defs>
       <path id="DejaVuSans-4d" d="M 628 4666 
L 1569 4666 
L 2759 1491 
L 3956 4666 
L 4897 4666 
L 4897 0 
L 4281 0 
L 4281 4097 
L 3078 897 
L 2444 897 
L 1241 4097 
L 1241 0 
L 628 0 
L 628 4666 
z
" transform="scale(0.015625)"/>
       <path id="DejaVuSans-78" d="M 3513 3500 
L 2247 1797 
L 3578 0 
L 2900 0 
L 1881 1375 
L 863 0 
L 184 0 
L 1544 1831 
L 300 3500 
L 978 3500 
L 1906 2253 
L 2834 3500 
L 3513 3500 
z
" transform="scale(0.015625)"/>
       <path id="DejaVuSans-20" transform="scale(0.015625)"/>
       <path id="DejaVuSans-66" d="M 2375 4863 
L 2375 4384 
L 1825 4384 
Q 1516 4384 1395 4259 
Q 1275 4134 1275 3809 
L 1275 3500 
L 2222 3500 
L 2222 3053 
L 1275 3053 
L 1275 0 
L 697 0 
L 697 3053 
L 147 3053 
L 147 3500 
L 697 3500 
L 697 3744 
Q 697 4328 969 4595 
Q 1241 4863 1831 4863 
L 2375 4863 
z
" transform="scale(0.015625)"/>
      </defs>
      <use xlink:href="#DejaVuSans-4d"/>
      <use xlink:href="#DejaVuSans-61" x="86.279297"/>
      <use xlink:href="#DejaVuSans-78" x="147.558594"/>
      <use xlink:href="#DejaVuSans-20" x="206.738281"/>
      <use xlink:href="#DejaVuSans-66" x="238.525391"/>
      <use xlink:href="#DejaVuSans-69" x="273.730469"/>
      <use xlink:href="#DejaVuSans-74" x="301.513672"/>
      <use xlink:href="#DejaVuSans-6e" x="340.722656"/>
      <use xlink:href="#DejaVuSans-65" x="404.101562"/>
      <use xlink:href="#DejaVuSans-73" x="465.625"/>
      <use xlink:href="#DejaVuSans-73" x="517.724609"/>
     </g>
    </g>
    <g id="patch_8">
     <path d="M 259.033125 222.170625 
L 283.033125 222.170625 
L 283.033125 213.770625 
L 259.033125 213.770625 
z
" style="fill: #0000ff; fill-opacity: 0.2; stroke: #0000ff; stroke-opacity: 0.2; stroke-linejoin: miter"/>
    </g>
    <g id="text_18">
     <!-- Top 90% -->
     <g transform="translate(292.633125 222.170625) scale(0.12 -0.12)">
      <defs>
       <path id="DejaVuSans-54" d="M -19 4666 
L 3928 4666 
L 3928 4134 
L 2272 4134 
L 2272 0 
L 1638 0 
L 1638 4134 
L -19 4134 
L -19 4666 
z
" transform="scale(0.015625)"/>
       <path id="DejaVuSans-70" d="M 1159 525 
L 1159 -1331 
L 581 -1331 
L 581 3500 
L 1159 3500 
L 1159 2969 
Q 1341 3281 1617 3432 
Q 1894 3584 2278 3584 
Q 2916 3584 3314 3078 
Q 3713 2572 3713 1747 
Q 3713 922 3314 415 
Q 2916 -91 2278 -91 
Q 1894 -91 1617 61 
Q 1341 213 1159 525 
z
M 3116 1747 
Q 3116 2381 2855 2742 
Q 2594 3103 2138 3103 
Q 1681 3103 1420 2742 
Q 1159 2381 1159 1747 
Q 1159 1113 1420 752 
Q 1681 391 2138 391 
Q 2594 391 2855 752 
Q 3116 1113 3116 1747 
z
" transform="scale(0.015625)"/>
       <path id="DejaVuSans-39" d="M 703 97 
L 703 672 
Q 941 559 1184 500 
Q 1428 441 1663 441 
Q 2288 441 2617 861 
Q 2947 1281 2994 2138 
Q 2813 1869 2534 1725 
Q 2256 1581 1919 1581 
Q 1219 1581 811 2004 
Q 403 2428 403 3163 
Q 403 3881 828 4315 
Q 1253 4750 1959 4750 
Q 2769 4750 3195 4129 
Q 3622 3509 3622 2328 
Q 3622 1225 3098 567 
Q 2575 -91 1691 -91 
Q 1453 -91 1209 -44 
Q 966 3 703 97 
z
M 1959 2075 
Q 2384 2075 2632 2365 
Q 2881 2656 2881 3163 
Q 2881 3666 2632 3958 
Q 2384 4250 1959 4250 
Q 1534 4250 1286 3958 
Q 1038 3666 1038 3163 
Q 1038 2656 1286 2365 
Q 1534 2075 1959 2075 
z
" transform="scale(0.015625)"/>
       <path id="DejaVuSans-25" d="M 4653 2053 
Q 4381 2053 4226 1822 
Q 4072 1591 4072 1178 
Q 4072 772 4226 539 
Q 4381 306 4653 306 
Q 4919 306 5073 539 
Q 5228 772 5228 1178 
Q 5228 1588 5073 1820 
Q 4919 2053 4653 2053 
z
M 4653 2450 
Q 5147 2450 5437 2106 
Q 5728 1763 5728 1178 
Q 5728 594 5436 251 
Q 5144 -91 4653 -91 
Q 4153 -91 3862 251 
Q 3572 594 3572 1178 
Q 3572 1766 3864 2108 
Q 4156 2450 4653 2450 
z
M 1428 4353 
Q 1159 4353 1004 4120 
Q 850 3888 850 3481 
Q 850 3069 1003 2837 
Q 1156 2606 1428 2606 
Q 1700 2606 1854 2837 
Q 2009 3069 2009 3481 
Q 2009 3884 1853 4118 
Q 1697 4353 1428 4353 
z
M 4250 4750 
L 4750 4750 
L 1831 -91 
L 1331 -91 
L 4250 4750 
z
M 1428 4750 
Q 1922 4750 2215 4408 
Q 2509 4066 2509 3481 
Q 2509 2891 2217 2550 
Q 1925 2209 1428 2209 
Q 931 2209 642 2551 
Q 353 2894 353 3481 
Q 353 4063 643 4406 
Q 934 4750 1428 4750 
z
" transform="scale(0.015625)"/>
      </defs>
      <use xlink:href="#DejaVuSans-54"/>
      <use xlink:href="#DejaVuSans-6f" x="44.083984"/>
      <use xlink:href="#DejaVuSans-70" x="105.265625"/>
      <use xlink:href="#DejaVuSans-20" x="168.742188"/>
      <use xlink:href="#DejaVuSans-39" x="200.529297"/>
      <use xlink:href="#DejaVuSans-30" x="264.152344"/>
      <use xlink:href="#DejaVuSans-25" x="327.775391"/>
     </g>
    </g>
    <g id="line2d_152">
     <path d="M 259.033125 235.584375 
L 271.033125 235.584375 
L 283.033125 235.584375 
" style="fill: none; stroke-dasharray: 3.7,1.6; stroke-dashoffset: 0; stroke: #000000"/>
    </g>
    <g id="text_19">
     <!-- Fitness mean -->
     <g transform="translate(292.633125 239.784375) scale(0.12 -0.12)">
      <defs>
       <path id="DejaVuSans-6d" d="M 3328 2828 
Q 3544 3216 3844 3400 
Q 4144 3584 4550 3584 
Q 5097 3584 5394 3201 
Q 5691 2819 5691 2113 
L 5691 0 
L 5113 0 
L 5113 2094 
Q 5113 2597 4934 2840 
Q 4756 3084 4391 3084 
Q 3944 3084 3684 2787 
Q 3425 2491 3425 1978 
L 3425 0 
L 2847 0 
L 2847 2094 
Q 2847 2600 2669 2842 
Q 2491 3084 2119 3084 
Q 1678 3084 1418 2786 
Q 1159 2488 1159 1978 
L 1159 0 
L 581 0 
L 581 3500 
L 1159 3500 
L 1159 2956 
Q 1356 3278 1631 3431 
Q 1906 3584 2284 3584 
Q 2666 3584 2933 3390 
Q 3200 3197 3328 2828 
z
" transform="scale(0.015625)"/>
      </defs>
      <use xlink:href="#DejaVuSans-46"/>
      <use xlink:href="#DejaVuSans-69" x="50.269531"/>
      <use xlink:href="#DejaVuSans-74" x="78.052734"/>
      <use xlink:href="#DejaVuSans-6e" x="117.261719"/>
      <use xlink:href="#DejaVuSans-65" x="180.640625"/>
      <use xlink:href="#DejaVuSans-73" x="242.164062"/>
      <use xlink:href="#DejaVuSans-73" x="294.263672"/>
      <use xlink:href="#DejaVuSans-20" x="346.363281"/>
      <use xlink:href="#DejaVuSans-6d" x="378.150391"/>
      <use xlink:href="#DejaVuSans-65" x="475.5625"/>
      <use xlink:href="#DejaVuSans-61" x="537.085938"/>
      <use xlink:href="#DejaVuSans-6e" x="598.365234"/>
     </g>
    </g>
   </g>
  </g>
 </g>
 <defs>
  <clipPath id="pc634c82e8a">
   <rect x="48.039375" y="3.6" width="334.8" height="249.48"/>
  </clipPath>
 </defs>
</svg>
