<?xml version="1.0" encoding="utf-8" standalone="no"?>
<!DOCTYPE svg PUBLIC "-//W3C//DTD SVG 1.1//EN"
  "http://www.w3.org/Graphics/SVG/1.1/DTD/svg11.dtd">
<svg xmlns:xlink="http://www.w3.org/1999/xlink" width="344.237658pt" height="287.4075pt" viewBox="0 0 344.237658 287.4075" xmlns="http://www.w3.org/2000/svg" version="1.1">
 <metadata>
  <rdf:RDF xmlns:dc="http://purl.org/dc/elements/1.1/" xmlns:cc="http://creativecommons.org/ns#" xmlns:rdf="http://www.w3.org/1999/02/22-rdf-syntax-ns#">
   <cc:Work>
    <dc:type rdf:resource="http://purl.org/dc/dcmitype/StillImage"/>
    <dc:date>2024-06-05T09:26:51.891504</dc:date>
    <dc:format>image/svg+xml</dc:format>
    <dc:creator>
     <cc:Agent>
      <dc:title>Matplotlib v3.9.0, https://matplotlib.org/</dc:title>
     </cc:Agent>
    </dc:creator>
   </cc:Work>
  </rdf:RDF>
 </metadata>
 <defs>
  <style type="text/css">*{stroke-linejoin: round; stroke-linecap: butt}</style>
 </defs>
 <g id="figure_1">
  <g id="patch_1">
   <path d="M 0 287.4075 
L 344.237658 287.4075 
L 344.237658 0 
L 0 0 
z
" style="fill: #ffffff"/>
  </g>
  <g id="axes_1">
   <g id="patch_2">
    <path d="M 51.853125 253.08 
L 340.637658 253.08 
L 340.637658 3.6 
L 51.853125 3.6 
z
" style="fill: #ffffff"/>
   </g>
   <g id="PathCollection_1">
    <defs>
     <path id="m80762dad6c" d="M 0 3 
C 0.795609 3 1.55874 2.683901 2.12132 2.12132 
C 2.683901 1.55874 3 0.795609 3 0 
C 3 -0.795609 2.683901 -1.55874 2.12132 -2.12132 
C 1.55874 -2.683901 0.795609 -3 0 -3 
C -0.795609 -3 -1.55874 -2.683901 -2.12132 -2.12132 
C -2.683901 -1.55874 -3 -0.795609 -3 0 
C -3 0.795609 -2.683901 1.55874 -2.12132 2.12132 
C -1.55874 2.683901 -0.795609 3 0 3 
z
" style="stroke: #000000"/>
    </defs>
    <g clip-path="url(#p0ea8654875)">
     <use xlink:href="#m80762dad6c" x="274.270919" y="223.546811" style="stroke: #000000"/>
    </g>
   </g>
   <g id="patch_3">
    <path d="M 327.511089 235.727823 
L 326.053339 235.869417 
L 326.122204 235.568428 
L 274.236487 223.697306 
L 274.305352 223.396317 
L 326.191068 235.267438 
L 326.259933 234.966449 
z
" clip-path="url(#p0ea8654875)" style="fill: #008000; stroke-dasharray: 3.7,1.6; stroke-dashoffset: 0; stroke: #008000; stroke-linejoin: miter"/>
   </g>
   <g id="PathCollection_2">
    <g clip-path="url(#p0ea8654875)">
     <use xlink:href="#m80762dad6c" x="96.551246" y="114.703763" style="stroke: #000000"/>
    </g>
   </g>
   <g id="patch_4">
    <path d="M 64.979695 135.769448 
L 65.878422 134.613 
L 66.049797 134.869842 
L 96.465559 114.575342 
L 96.636933 114.832184 
L 66.221171 135.126684 
L 66.392545 135.383526 
z
" clip-path="url(#p0ea8654875)" style="fill: #008000; stroke-dasharray: 3.7,1.6; stroke-dashoffset: 0; stroke: #008000; stroke-linejoin: miter"/>
   </g>
   <g id="PathCollection_3">
    <g clip-path="url(#p0ea8654875)">
     <use xlink:href="#m80762dad6c" x="222.039847" y="200.496229" style="stroke: #000000"/>
    </g>
   </g>
   <g id="patch_5">
    <path d="M 176.425003 241.74 
L 177.14501 240.464589 
L 177.352091 240.693617 
L 221.936306 200.381714 
L 222.143388 200.610743 
L 177.559173 240.922646 
L 177.766255 241.151675 
z
" clip-path="url(#p0ea8654875)" style="fill: #008000; stroke-dasharray: 3.7,1.6; stroke-dashoffset: 0; stroke: #008000; stroke-linejoin: miter"/>
   </g>
   <g id="PathCollection_4">
    <g clip-path="url(#p0ea8654875)">
     <use xlink:href="#m80762dad6c" x="178.342402" y="30.625358" style="stroke: #000000"/>
    </g>
   </g>
   <g id="patch_6">
    <path d="M 237.47802 58.632961 
L 236.024043 58.456803 
L 236.156206 58.177751 
L 178.276321 30.764884 
L 178.408484 30.485833 
L 236.28837 57.8987 
L 236.420533 57.619648 
z
" clip-path="url(#p0ea8654875)" style="fill: #008000; stroke-dasharray: 3.7,1.6; stroke-dashoffset: 0; stroke: #008000; stroke-linejoin: miter"/>
   </g>
   <g id="PathCollection_5">
    <g clip-path="url(#p0ea8654875)">
     <use xlink:href="#m80762dad6c" x="249.296231" y="92.36789" style="stroke: #000000"/>
    </g>
   </g>
   <g id="patch_7">
    <path d="M 248.670859 96.126921 
L 248.44201 94.680301 
L 248.746591 94.730973 
L 249.14394 92.342554 
L 249.448521 92.393225 
L 249.051171 94.781644 
L 249.355752 94.832316 
z
" clip-path="url(#p0ea8654875)" style="fill: #008000; stroke-dasharray: 3.7,1.6; stroke-dashoffset: 0; stroke: #008000; stroke-linejoin: miter"/>
   </g>
   <g id="PathCollection_6">
    <g clip-path="url(#p0ea8654875)">
     <use xlink:href="#m80762dad6c" x="143.749635" y="93.189468" style="stroke: #000000"/>
    </g>
   </g>
   <g id="patch_8">
    <path d="M 185.523891 99.459232 
L 184.081087 99.711024 
L 184.126915 99.405677 
L 143.726721 93.342142 
L 143.77255 93.036795 
L 184.172744 99.10033 
L 184.218572 98.794983 
z
" clip-path="url(#p0ea8654875)" style="fill: #008000; stroke-dasharray: 3.7,1.6; stroke-dashoffset: 0; stroke: #008000; stroke-linejoin: miter"/>
   </g>
   <g id="PathCollection_7">
    <g clip-path="url(#p0ea8654875)">
     <use xlink:href="#m80762dad6c" x="242.584191" y="154.941665" style="stroke: #000000"/>
    </g>
   </g>
   <g id="patch_9">
    <path d="M 291.570867 152.544053 
L 290.205719 153.074574 
L 290.190624 152.766176 
L 242.591738 155.095864 
L 242.576643 154.787466 
L 290.17553 152.457778 
L 290.160436 152.149381 
z
" clip-path="url(#p0ea8654875)" style="fill: #008000; stroke-dasharray: 3.7,1.6; stroke-dashoffset: 0; stroke: #008000; stroke-linejoin: miter"/>
   </g>
   <g id="PathCollection_8">
    <g clip-path="url(#p0ea8654875)">
     <use xlink:href="#m80762dad6c" x="128.946263" y="58.684883" style="stroke: #000000"/>
    </g>
   </g>
   <g id="patch_10">
    <path d="M 159.282294 73.412625 
L 157.830085 73.222444 
L 157.964935 72.94468 
L 128.878838 58.823765 
L 129.013688 58.546001 
L 158.099785 72.666917 
L 158.234636 72.389154 
z
" clip-path="url(#p0ea8654875)" style="fill: #008000; stroke-dasharray: 3.7,1.6; stroke-dashoffset: 0; stroke: #008000; stroke-linejoin: miter"/>
   </g>
   <g id="PathCollection_9">
    <defs>
     <path id="md8f2f94c00" d="M -7.071068 7.071068 
L 7.071068 -7.071068 
M -7.071068 -7.071068 
L 7.071068 7.071068 
" style="stroke: #ff0000"/>
    </defs>
    <g clip-path="url(#p0ea8654875)">
     <use xlink:href="#md8f2f94c00" x="191.923996" y="122.48979" style="fill: #ff0000; stroke: #ff0000"/>
    </g>
   </g>
   <g id="matplotlib.axis_1">
    <g id="xtick_1">
     <g id="line2d_1">
      <path d="M 67.998865 253.08 
L 67.998865 3.6 
" clip-path="url(#p0ea8654875)" style="fill: none; stroke: #b0b0b0; stroke-width: 0.5; stroke-linecap: square"/>
     </g>
     <g id="line2d_2">
      <defs>
       <path id="m8ee48a8dc6" d="M 0 0 
L 0 -3 
" style="stroke: #000000; stroke-width: 0.5"/>
      </defs>
      <g>
       <use xlink:href="#m8ee48a8dc6" x="67.998865" y="253.08" style="stroke: #000000; stroke-width: 0.5"/>
      </g>
     </g>
     <g id="line2d_3">
      <defs>
       <path id="ma0e126b42c" d="M 0 0 
L 0 3 
" style="stroke: #000000; stroke-width: 0.5"/>
      </defs>
      <g>
       <use xlink:href="#ma0e126b42c" x="67.998865" y="3.6" style="stroke: #000000; stroke-width: 0.5"/>
      </g>
     </g>
     <g id="text_1">
      <!-- −0.4 -->
      <g transform="translate(53.429177 265.698125) scale(0.12 -0.12)">
       <defs>
        <path id="DejaVuSans-2212" d="M 678 2272 
L 4684 2272 
L 4684 1741 
L 678 1741 
L 678 2272 
z
" transform="scale(0.015625)"/>
        <path id="DejaVuSans-30" d="M 2034 4250 
Q 1547 4250 1301 3770 
Q 1056 3291 1056 2328 
Q 1056 1369 1301 889 
Q 1547 409 2034 409 
Q 2525 409 2770 889 
Q 3016 1369 3016 2328 
Q 3016 3291 2770 3770 
Q 2525 4250 2034 4250 
z
M 2034 4750 
Q 2819 4750 3233 4129 
Q 3647 3509 3647 2328 
Q 3647 1150 3233 529 
Q 2819 -91 2034 -91 
Q 1250 -91 836 529 
Q 422 1150 422 2328 
Q 422 3509 836 4129 
Q 1250 4750 2034 4750 
z
" transform="scale(0.015625)"/>
        <path id="DejaVuSans-2e" d="M 684 794 
L 1344 794 
L 1344 0 
L 684 0 
L 684 794 
z
" transform="scale(0.015625)"/>
        <path id="DejaVuSans-34" d="M 2419 4116 
L 825 1625 
L 2419 1625 
L 2419 4116 
z
M 2253 4666 
L 3047 4666 
L 3047 1625 
L 3713 1625 
L 3713 1100 
L 3047 1100 
L 3047 0 
L 2419 0 
L 2419 1100 
L 313 1100 
L 313 1709 
L 2253 4666 
z
" transform="scale(0.015625)"/>
       </defs>
       <use xlink:href="#DejaVuSans-2212"/>
       <use xlink:href="#DejaVuSans-30" x="83.789062"/>
       <use xlink:href="#DejaVuSans-2e" x="147.412109"/>
       <use xlink:href="#DejaVuSans-34" x="179.199219"/>
      </g>
     </g>
    </g>
    <g id="xtick_2">
     <g id="line2d_4">
      <path d="M 129.752244 253.08 
L 129.752244 3.6 
" clip-path="url(#p0ea8654875)" style="fill: none; stroke: #b0b0b0; stroke-width: 0.5; stroke-linecap: square"/>
     </g>
     <g id="line2d_5">
      <g>
       <use xlink:href="#m8ee48a8dc6" x="129.752244" y="253.08" style="stroke: #000000; stroke-width: 0.5"/>
      </g>
     </g>
     <g id="line2d_6">
      <g>
       <use xlink:href="#ma0e126b42c" x="129.752244" y="3.6" style="stroke: #000000; stroke-width: 0.5"/>
      </g>
     </g>
     <g id="text_2">
      <!-- −0.2 -->
      <g transform="translate(115.182557 265.698125) scale(0.12 -0.12)">
       <defs>
        <path id="DejaVuSans-32" d="M 1228 531 
L 3431 531 
L 3431 0 
L 469 0 
L 469 531 
Q 828 903 1448 1529 
Q 2069 2156 2228 2338 
Q 2531 2678 2651 2914 
Q 2772 3150 2772 3378 
Q 2772 3750 2511 3984 
Q 2250 4219 1831 4219 
Q 1534 4219 1204 4116 
Q 875 4013 500 3803 
L 500 4441 
Q 881 4594 1212 4672 
Q 1544 4750 1819 4750 
Q 2544 4750 2975 4387 
Q 3406 4025 3406 3419 
Q 3406 3131 3298 2873 
Q 3191 2616 2906 2266 
Q 2828 2175 2409 1742 
Q 1991 1309 1228 531 
z
" transform="scale(0.015625)"/>
       </defs>
       <use xlink:href="#DejaVuSans-2212"/>
       <use xlink:href="#DejaVuSans-30" x="83.789062"/>
       <use xlink:href="#DejaVuSans-2e" x="147.412109"/>
       <use xlink:href="#DejaVuSans-32" x="179.199219"/>
      </g>
     </g>
    </g>
    <g id="xtick_3">
     <g id="line2d_7">
      <path d="M 191.505624 253.08 
L 191.505624 3.6 
" clip-path="url(#p0ea8654875)" style="fill: none; stroke: #b0b0b0; stroke-width: 0.5; stroke-linecap: square"/>
     </g>
     <g id="line2d_8">
      <g>
       <use xlink:href="#m8ee48a8dc6" x="191.505624" y="253.08" style="stroke: #000000; stroke-width: 0.5"/>
      </g>
     </g>
     <g id="line2d_9">
      <g>
       <use xlink:href="#ma0e126b42c" x="191.505624" y="3.6" style="stroke: #000000; stroke-width: 0.5"/>
      </g>
     </g>
     <g id="text_3">
      <!-- 0.0 -->
      <g transform="translate(181.963749 265.698125) scale(0.12 -0.12)">
       <use xlink:href="#DejaVuSans-30"/>
       <use xlink:href="#DejaVuSans-2e" x="63.623047"/>
       <use xlink:href="#DejaVuSans-30" x="95.410156"/>
      </g>
     </g>
    </g>
    <g id="xtick_4">
     <g id="line2d_10">
      <path d="M 253.259003 253.08 
L 253.259003 3.6 
" clip-path="url(#p0ea8654875)" style="fill: none; stroke: #b0b0b0; stroke-width: 0.5; stroke-linecap: square"/>
     </g>
     <g id="line2d_11">
      <g>
       <use xlink:href="#m8ee48a8dc6" x="253.259003" y="253.08" style="stroke: #000000; stroke-width: 0.5"/>
      </g>
     </g>
     <g id="line2d_12">
      <g>
       <use xlink:href="#ma0e126b42c" x="253.259003" y="3.6" style="stroke: #000000; stroke-width: 0.5"/>
      </g>
     </g>
     <g id="text_4">
      <!-- 0.2 -->
      <g transform="translate(243.717128 265.698125) scale(0.12 -0.12)">
       <use xlink:href="#DejaVuSans-30"/>
       <use xlink:href="#DejaVuSans-2e" x="63.623047"/>
       <use xlink:href="#DejaVuSans-32" x="95.410156"/>
      </g>
     </g>
    </g>
    <g id="xtick_5">
     <g id="line2d_13">
      <path d="M 315.012383 253.08 
L 315.012383 3.6 
" clip-path="url(#p0ea8654875)" style="fill: none; stroke: #b0b0b0; stroke-width: 0.5; stroke-linecap: square"/>
     </g>
     <g id="line2d_14">
      <g>
       <use xlink:href="#m8ee48a8dc6" x="315.012383" y="253.08" style="stroke: #000000; stroke-width: 0.5"/>
      </g>
     </g>
     <g id="line2d_15">
      <g>
       <use xlink:href="#ma0e126b42c" x="315.012383" y="3.6" style="stroke: #000000; stroke-width: 0.5"/>
      </g>
     </g>
     <g id="text_5">
      <!-- 0.4 -->
      <g transform="translate(305.470508 265.698125) scale(0.12 -0.12)">
       <use xlink:href="#DejaVuSans-30"/>
       <use xlink:href="#DejaVuSans-2e" x="63.623047"/>
       <use xlink:href="#DejaVuSans-34" x="95.410156"/>
      </g>
     </g>
    </g>
    <g id="xtick_6">
     <g id="line2d_16">
      <defs>
       <path id="m6add2a1a69" d="M 0 0 
L 0 -1.5 
" style="stroke: #000000; stroke-width: 0.5"/>
      </defs>
      <g>
       <use xlink:href="#m6add2a1a69" x="52.56052" y="253.08" style="stroke: #000000; stroke-width: 0.5"/>
      </g>
     </g>
     <g id="line2d_17">
      <defs>
       <path id="maccbf61070" d="M 0 0 
L 0 1.5 
" style="stroke: #000000; stroke-width: 0.5"/>
      </defs>
      <g>
       <use xlink:href="#maccbf61070" x="52.56052" y="3.6" style="stroke: #000000; stroke-width: 0.5"/>
      </g>
     </g>
    </g>
    <g id="xtick_7">
     <g id="line2d_18">
      <g>
       <use xlink:href="#m6add2a1a69" x="83.437209" y="253.08" style="stroke: #000000; stroke-width: 0.5"/>
      </g>
     </g>
     <g id="line2d_19">
      <g>
       <use xlink:href="#maccbf61070" x="83.437209" y="3.6" style="stroke: #000000; stroke-width: 0.5"/>
      </g>
     </g>
    </g>
    <g id="xtick_8">
     <g id="line2d_20">
      <g>
       <use xlink:href="#m6add2a1a69" x="98.875554" y="253.08" style="stroke: #000000; stroke-width: 0.5"/>
      </g>
     </g>
     <g id="line2d_21">
      <g>
       <use xlink:href="#maccbf61070" x="98.875554" y="3.6" style="stroke: #000000; stroke-width: 0.5"/>
      </g>
     </g>
    </g>
    <g id="xtick_9">
     <g id="line2d_22">
      <g>
       <use xlink:href="#m6add2a1a69" x="114.313899" y="253.08" style="stroke: #000000; stroke-width: 0.5"/>
      </g>
     </g>
     <g id="line2d_23">
      <g>
       <use xlink:href="#maccbf61070" x="114.313899" y="3.6" style="stroke: #000000; stroke-width: 0.5"/>
      </g>
     </g>
    </g>
    <g id="xtick_10">
     <g id="line2d_24">
      <g>
       <use xlink:href="#m6add2a1a69" x="145.190589" y="253.08" style="stroke: #000000; stroke-width: 0.5"/>
      </g>
     </g>
     <g id="line2d_25">
      <g>
       <use xlink:href="#maccbf61070" x="145.190589" y="3.6" style="stroke: #000000; stroke-width: 0.5"/>
      </g>
     </g>
    </g>
    <g id="xtick_11">
     <g id="line2d_26">
      <g>
       <use xlink:href="#m6add2a1a69" x="160.628934" y="253.08" style="stroke: #000000; stroke-width: 0.5"/>
      </g>
     </g>
     <g id="line2d_27">
      <g>
       <use xlink:href="#maccbf61070" x="160.628934" y="3.6" style="stroke: #000000; stroke-width: 0.5"/>
      </g>
     </g>
    </g>
    <g id="xtick_12">
     <g id="line2d_28">
      <g>
       <use xlink:href="#m6add2a1a69" x="176.067279" y="253.08" style="stroke: #000000; stroke-width: 0.5"/>
      </g>
     </g>
     <g id="line2d_29">
      <g>
       <use xlink:href="#maccbf61070" x="176.067279" y="3.6" style="stroke: #000000; stroke-width: 0.5"/>
      </g>
     </g>
    </g>
    <g id="xtick_13">
     <g id="line2d_30">
      <g>
       <use xlink:href="#m6add2a1a69" x="206.943969" y="253.08" style="stroke: #000000; stroke-width: 0.5"/>
      </g>
     </g>
     <g id="line2d_31">
      <g>
       <use xlink:href="#maccbf61070" x="206.943969" y="3.6" style="stroke: #000000; stroke-width: 0.5"/>
      </g>
     </g>
    </g>
    <g id="xtick_14">
     <g id="line2d_32">
      <g>
       <use xlink:href="#m6add2a1a69" x="222.382313" y="253.08" style="stroke: #000000; stroke-width: 0.5"/>
      </g>
     </g>
     <g id="line2d_33">
      <g>
       <use xlink:href="#maccbf61070" x="222.382313" y="3.6" style="stroke: #000000; stroke-width: 0.5"/>
      </g>
     </g>
    </g>
    <g id="xtick_15">
     <g id="line2d_34">
      <g>
       <use xlink:href="#m6add2a1a69" x="237.820658" y="253.08" style="stroke: #000000; stroke-width: 0.5"/>
      </g>
     </g>
     <g id="line2d_35">
      <g>
       <use xlink:href="#maccbf61070" x="237.820658" y="3.6" style="stroke: #000000; stroke-width: 0.5"/>
      </g>
     </g>
    </g>
    <g id="xtick_16">
     <g id="line2d_36">
      <g>
       <use xlink:href="#m6add2a1a69" x="268.697348" y="253.08" style="stroke: #000000; stroke-width: 0.5"/>
      </g>
     </g>
     <g id="line2d_37">
      <g>
       <use xlink:href="#maccbf61070" x="268.697348" y="3.6" style="stroke: #000000; stroke-width: 0.5"/>
      </g>
     </g>
    </g>
    <g id="xtick_17">
     <g id="line2d_38">
      <g>
       <use xlink:href="#m6add2a1a69" x="284.135693" y="253.08" style="stroke: #000000; stroke-width: 0.5"/>
      </g>
     </g>
     <g id="line2d_39">
      <g>
       <use xlink:href="#maccbf61070" x="284.135693" y="3.6" style="stroke: #000000; stroke-width: 0.5"/>
      </g>
     </g>
    </g>
    <g id="xtick_18">
     <g id="line2d_40">
      <g>
       <use xlink:href="#m6add2a1a69" x="299.574038" y="253.08" style="stroke: #000000; stroke-width: 0.5"/>
      </g>
     </g>
     <g id="line2d_41">
      <g>
       <use xlink:href="#maccbf61070" x="299.574038" y="3.6" style="stroke: #000000; stroke-width: 0.5"/>
      </g>
     </g>
    </g>
    <g id="xtick_19">
     <g id="line2d_42">
      <g>
       <use xlink:href="#m6add2a1a69" x="330.450728" y="253.08" style="stroke: #000000; stroke-width: 0.5"/>
      </g>
     </g>
     <g id="line2d_43">
      <g>
       <use xlink:href="#maccbf61070" x="330.450728" y="3.6" style="stroke: #000000; stroke-width: 0.5"/>
      </g>
     </g>
    </g>
    <g id="text_6">
     <!-- y -->
     <g transform="translate(192.694142 281.311875) scale(0.12 -0.12)">
      <defs>
       <path id="DejaVuSans-79" d="M 2059 -325 
Q 1816 -950 1584 -1140 
Q 1353 -1331 966 -1331 
L 506 -1331 
L 506 -850 
L 844 -850 
Q 1081 -850 1212 -737 
Q 1344 -625 1503 -206 
L 1606 56 
L 191 3500 
L 800 3500 
L 1894 763 
L 2988 3500 
L 3597 3500 
L 2059 -325 
z
" transform="scale(0.015625)"/>
      </defs>
      <use xlink:href="#DejaVuSans-79"/>
     </g>
    </g>
   </g>
   <g id="matplotlib.axis_2">
    <g id="ytick_1">
     <g id="line2d_44">
      <path d="M 51.853125 245.370389 
L 340.637658 245.370389 
" clip-path="url(#p0ea8654875)" style="fill: none; stroke: #b0b0b0; stroke-width: 0.5; stroke-linecap: square"/>
     </g>
     <g id="line2d_45">
      <defs>
       <path id="m1377842619" d="M 0 0 
L 3 0 
" style="stroke: #000000; stroke-width: 0.5"/>
      </defs>
      <g>
       <use xlink:href="#m1377842619" x="51.853125" y="245.370389" style="stroke: #000000; stroke-width: 0.5"/>
      </g>
     </g>
     <g id="line2d_46">
      <defs>
       <path id="mfbdda33126" d="M 0 0 
L -3 0 
" style="stroke: #000000; stroke-width: 0.5"/>
      </defs>
      <g>
       <use xlink:href="#mfbdda33126" x="340.637658" y="245.370389" style="stroke: #000000; stroke-width: 0.5"/>
      </g>
     </g>
     <g id="text_7">
      <!-- −0.4 -->
      <g transform="translate(19.21375 249.929451) scale(0.12 -0.12)">
       <use xlink:href="#DejaVuSans-2212"/>
       <use xlink:href="#DejaVuSans-30" x="83.789062"/>
       <use xlink:href="#DejaVuSans-2e" x="147.412109"/>
       <use xlink:href="#DejaVuSans-34" x="179.199219"/>
      </g>
     </g>
    </g>
    <g id="ytick_2">
     <g id="line2d_47">
      <path d="M 51.853125 214.493699 
L 340.637658 214.493699 
" clip-path="url(#p0ea8654875)" style="fill: none; stroke: #b0b0b0; stroke-width: 0.5; stroke-linecap: square"/>
     </g>
     <g id="line2d_48">
      <g>
       <use xlink:href="#m1377842619" x="51.853125" y="214.493699" style="stroke: #000000; stroke-width: 0.5"/>
      </g>
     </g>
     <g id="line2d_49">
      <g>
       <use xlink:href="#mfbdda33126" x="340.637658" y="214.493699" style="stroke: #000000; stroke-width: 0.5"/>
      </g>
     </g>
     <g id="text_8">
      <!-- −0.3 -->
      <g transform="translate(19.21375 219.052761) scale(0.12 -0.12)">
       <defs>
        <path id="DejaVuSans-33" d="M 2597 2516 
Q 3050 2419 3304 2112 
Q 3559 1806 3559 1356 
Q 3559 666 3084 287 
Q 2609 -91 1734 -91 
Q 1441 -91 1130 -33 
Q 819 25 488 141 
L 488 750 
Q 750 597 1062 519 
Q 1375 441 1716 441 
Q 2309 441 2620 675 
Q 2931 909 2931 1356 
Q 2931 1769 2642 2001 
Q 2353 2234 1838 2234 
L 1294 2234 
L 1294 2753 
L 1863 2753 
Q 2328 2753 2575 2939 
Q 2822 3125 2822 3475 
Q 2822 3834 2567 4026 
Q 2313 4219 1838 4219 
Q 1578 4219 1281 4162 
Q 984 4106 628 3988 
L 628 4550 
Q 988 4650 1302 4700 
Q 1616 4750 1894 4750 
Q 2613 4750 3031 4423 
Q 3450 4097 3450 3541 
Q 3450 3153 3228 2886 
Q 3006 2619 2597 2516 
z
" transform="scale(0.015625)"/>
       </defs>
       <use xlink:href="#DejaVuSans-2212"/>
       <use xlink:href="#DejaVuSans-30" x="83.789062"/>
       <use xlink:href="#DejaVuSans-2e" x="147.412109"/>
       <use xlink:href="#DejaVuSans-33" x="179.199219"/>
      </g>
     </g>
    </g>
    <g id="ytick_3">
     <g id="line2d_50">
      <path d="M 51.853125 183.617009 
L 340.637658 183.617009 
" clip-path="url(#p0ea8654875)" style="fill: none; stroke: #b0b0b0; stroke-width: 0.5; stroke-linecap: square"/>
     </g>
     <g id="line2d_51">
      <g>
       <use xlink:href="#m1377842619" x="51.853125" y="183.617009" style="stroke: #000000; stroke-width: 0.5"/>
      </g>
     </g>
     <g id="line2d_52">
      <g>
       <use xlink:href="#mfbdda33126" x="340.637658" y="183.617009" style="stroke: #000000; stroke-width: 0.5"/>
      </g>
     </g>
     <g id="text_9">
      <!-- −0.2 -->
      <g transform="translate(19.21375 188.176072) scale(0.12 -0.12)">
       <use xlink:href="#DejaVuSans-2212"/>
       <use xlink:href="#DejaVuSans-30" x="83.789062"/>
       <use xlink:href="#DejaVuSans-2e" x="147.412109"/>
       <use xlink:href="#DejaVuSans-32" x="179.199219"/>
      </g>
     </g>
    </g>
    <g id="ytick_4">
     <g id="line2d_53">
      <path d="M 51.853125 152.740319 
L 340.637658 152.740319 
" clip-path="url(#p0ea8654875)" style="fill: none; stroke: #b0b0b0; stroke-width: 0.5; stroke-linecap: square"/>
     </g>
     <g id="line2d_54">
      <g>
       <use xlink:href="#m1377842619" x="51.853125" y="152.740319" style="stroke: #000000; stroke-width: 0.5"/>
      </g>
     </g>
     <g id="line2d_55">
      <g>
       <use xlink:href="#mfbdda33126" x="340.637658" y="152.740319" style="stroke: #000000; stroke-width: 0.5"/>
      </g>
     </g>
     <g id="text_10">
      <!-- −0.1 -->
      <g transform="translate(19.21375 157.299382) scale(0.12 -0.12)">
       <defs>
        <path id="DejaVuSans-31" d="M 794 531 
L 1825 531 
L 1825 4091 
L 703 3866 
L 703 4441 
L 1819 4666 
L 2450 4666 
L 2450 531 
L 3481 531 
L 3481 0 
L 794 0 
L 794 531 
z
" transform="scale(0.015625)"/>
       </defs>
       <use xlink:href="#DejaVuSans-2212"/>
       <use xlink:href="#DejaVuSans-30" x="83.789062"/>
       <use xlink:href="#DejaVuSans-2e" x="147.412109"/>
       <use xlink:href="#DejaVuSans-31" x="179.199219"/>
      </g>
     </g>
    </g>
    <g id="ytick_5">
     <g id="line2d_56">
      <path d="M 51.853125 121.86363 
L 340.637658 121.86363 
" clip-path="url(#p0ea8654875)" style="fill: none; stroke: #b0b0b0; stroke-width: 0.5; stroke-linecap: square"/>
     </g>
     <g id="line2d_57">
      <g>
       <use xlink:href="#m1377842619" x="51.853125" y="121.86363" style="stroke: #000000; stroke-width: 0.5"/>
      </g>
     </g>
     <g id="line2d_58">
      <g>
       <use xlink:href="#mfbdda33126" x="340.637658" y="121.86363" style="stroke: #000000; stroke-width: 0.5"/>
      </g>
     </g>
     <g id="text_11">
      <!-- 0.0 -->
      <g transform="translate(29.269375 126.422692) scale(0.12 -0.12)">
       <use xlink:href="#DejaVuSans-30"/>
       <use xlink:href="#DejaVuSans-2e" x="63.623047"/>
       <use xlink:href="#DejaVuSans-30" x="95.410156"/>
      </g>
     </g>
    </g>
    <g id="ytick_6">
     <g id="line2d_59">
      <path d="M 51.853125 90.98694 
L 340.637658 90.98694 
" clip-path="url(#p0ea8654875)" style="fill: none; stroke: #b0b0b0; stroke-width: 0.5; stroke-linecap: square"/>
     </g>
     <g id="line2d_60">
      <g>
       <use xlink:href="#m1377842619" x="51.853125" y="90.98694" style="stroke: #000000; stroke-width: 0.5"/>
      </g>
     </g>
     <g id="line2d_61">
      <g>
       <use xlink:href="#mfbdda33126" x="340.637658" y="90.98694" style="stroke: #000000; stroke-width: 0.5"/>
      </g>
     </g>
     <g id="text_12">
      <!-- 0.1 -->
      <g transform="translate(29.269375 95.546002) scale(0.12 -0.12)">
       <use xlink:href="#DejaVuSans-30"/>
       <use xlink:href="#DejaVuSans-2e" x="63.623047"/>
       <use xlink:href="#DejaVuSans-31" x="95.410156"/>
      </g>
     </g>
    </g>
    <g id="ytick_7">
     <g id="line2d_62">
      <path d="M 51.853125 60.11025 
L 340.637658 60.11025 
" clip-path="url(#p0ea8654875)" style="fill: none; stroke: #b0b0b0; stroke-width: 0.5; stroke-linecap: square"/>
     </g>
     <g id="line2d_63">
      <g>
       <use xlink:href="#m1377842619" x="51.853125" y="60.11025" style="stroke: #000000; stroke-width: 0.5"/>
      </g>
     </g>
     <g id="line2d_64">
      <g>
       <use xlink:href="#mfbdda33126" x="340.637658" y="60.11025" style="stroke: #000000; stroke-width: 0.5"/>
      </g>
     </g>
     <g id="text_13">
      <!-- 0.2 -->
      <g transform="translate(29.269375 64.669313) scale(0.12 -0.12)">
       <use xlink:href="#DejaVuSans-30"/>
       <use xlink:href="#DejaVuSans-2e" x="63.623047"/>
       <use xlink:href="#DejaVuSans-32" x="95.410156"/>
      </g>
     </g>
    </g>
    <g id="ytick_8">
     <g id="line2d_65">
      <path d="M 51.853125 29.23356 
L 340.637658 29.23356 
" clip-path="url(#p0ea8654875)" style="fill: none; stroke: #b0b0b0; stroke-width: 0.5; stroke-linecap: square"/>
     </g>
     <g id="line2d_66">
      <g>
       <use xlink:href="#m1377842619" x="51.853125" y="29.23356" style="stroke: #000000; stroke-width: 0.5"/>
      </g>
     </g>
     <g id="line2d_67">
      <g>
       <use xlink:href="#mfbdda33126" x="340.637658" y="29.23356" style="stroke: #000000; stroke-width: 0.5"/>
      </g>
     </g>
     <g id="text_14">
      <!-- 0.3 -->
      <g transform="translate(29.269375 33.792623) scale(0.12 -0.12)">
       <use xlink:href="#DejaVuSans-30"/>
       <use xlink:href="#DejaVuSans-2e" x="63.623047"/>
       <use xlink:href="#DejaVuSans-33" x="95.410156"/>
      </g>
     </g>
    </g>
    <g id="ytick_9">
     <g id="line2d_68">
      <defs>
       <path id="m63cce1e665" d="M 0 0 
L 1.5 0 
" style="stroke: #000000; stroke-width: 0.5"/>
      </defs>
      <g>
       <use xlink:href="#m63cce1e665" x="51.853125" y="251.545727" style="stroke: #000000; stroke-width: 0.5"/>
      </g>
     </g>
     <g id="line2d_69">
      <defs>
       <path id="m4757946b98" d="M 0 0 
L -1.5 0 
" style="stroke: #000000; stroke-width: 0.5"/>
      </defs>
      <g>
       <use xlink:href="#m4757946b98" x="340.637658" y="251.545727" style="stroke: #000000; stroke-width: 0.5"/>
      </g>
     </g>
    </g>
    <g id="ytick_10">
     <g id="line2d_70">
      <g>
       <use xlink:href="#m63cce1e665" x="51.853125" y="239.195051" style="stroke: #000000; stroke-width: 0.5"/>
      </g>
     </g>
     <g id="line2d_71">
      <g>
       <use xlink:href="#m4757946b98" x="340.637658" y="239.195051" style="stroke: #000000; stroke-width: 0.5"/>
      </g>
     </g>
    </g>
    <g id="ytick_11">
     <g id="line2d_72">
      <g>
       <use xlink:href="#m63cce1e665" x="51.853125" y="233.019713" style="stroke: #000000; stroke-width: 0.5"/>
      </g>
     </g>
     <g id="line2d_73">
      <g>
       <use xlink:href="#m4757946b98" x="340.637658" y="233.019713" style="stroke: #000000; stroke-width: 0.5"/>
      </g>
     </g>
    </g>
    <g id="ytick_12">
     <g id="line2d_74">
      <g>
       <use xlink:href="#m63cce1e665" x="51.853125" y="226.844375" style="stroke: #000000; stroke-width: 0.5"/>
      </g>
     </g>
     <g id="line2d_75">
      <g>
       <use xlink:href="#m4757946b98" x="340.637658" y="226.844375" style="stroke: #000000; stroke-width: 0.5"/>
      </g>
     </g>
    </g>
    <g id="ytick_13">
     <g id="line2d_76">
      <g>
       <use xlink:href="#m63cce1e665" x="51.853125" y="220.669037" style="stroke: #000000; stroke-width: 0.5"/>
      </g>
     </g>
     <g id="line2d_77">
      <g>
       <use xlink:href="#m4757946b98" x="340.637658" y="220.669037" style="stroke: #000000; stroke-width: 0.5"/>
      </g>
     </g>
    </g>
    <g id="ytick_14">
     <g id="line2d_78">
      <g>
       <use xlink:href="#m63cce1e665" x="51.853125" y="208.318361" style="stroke: #000000; stroke-width: 0.5"/>
      </g>
     </g>
     <g id="line2d_79">
      <g>
       <use xlink:href="#m4757946b98" x="340.637658" y="208.318361" style="stroke: #000000; stroke-width: 0.5"/>
      </g>
     </g>
    </g>
    <g id="ytick_15">
     <g id="line2d_80">
      <g>
       <use xlink:href="#m63cce1e665" x="51.853125" y="202.143023" style="stroke: #000000; stroke-width: 0.5"/>
      </g>
     </g>
     <g id="line2d_81">
      <g>
       <use xlink:href="#m4757946b98" x="340.637658" y="202.143023" style="stroke: #000000; stroke-width: 0.5"/>
      </g>
     </g>
    </g>
    <g id="ytick_16">
     <g id="line2d_82">
      <g>
       <use xlink:href="#m63cce1e665" x="51.853125" y="195.967685" style="stroke: #000000; stroke-width: 0.5"/>
      </g>
     </g>
     <g id="line2d_83">
      <g>
       <use xlink:href="#m4757946b98" x="340.637658" y="195.967685" style="stroke: #000000; stroke-width: 0.5"/>
      </g>
     </g>
    </g>
    <g id="ytick_17">
     <g id="line2d_84">
      <g>
       <use xlink:href="#m63cce1e665" x="51.853125" y="189.792347" style="stroke: #000000; stroke-width: 0.5"/>
      </g>
     </g>
     <g id="line2d_85">
      <g>
       <use xlink:href="#m4757946b98" x="340.637658" y="189.792347" style="stroke: #000000; stroke-width: 0.5"/>
      </g>
     </g>
    </g>
    <g id="ytick_18">
     <g id="line2d_86">
      <g>
       <use xlink:href="#m63cce1e665" x="51.853125" y="177.441671" style="stroke: #000000; stroke-width: 0.5"/>
      </g>
     </g>
     <g id="line2d_87">
      <g>
       <use xlink:href="#m4757946b98" x="340.637658" y="177.441671" style="stroke: #000000; stroke-width: 0.5"/>
      </g>
     </g>
    </g>
    <g id="ytick_19">
     <g id="line2d_88">
      <g>
       <use xlink:href="#m63cce1e665" x="51.853125" y="171.266333" style="stroke: #000000; stroke-width: 0.5"/>
      </g>
     </g>
     <g id="line2d_89">
      <g>
       <use xlink:href="#m4757946b98" x="340.637658" y="171.266333" style="stroke: #000000; stroke-width: 0.5"/>
      </g>
     </g>
    </g>
    <g id="ytick_20">
     <g id="line2d_90">
      <g>
       <use xlink:href="#m63cce1e665" x="51.853125" y="165.090995" style="stroke: #000000; stroke-width: 0.5"/>
      </g>
     </g>
     <g id="line2d_91">
      <g>
       <use xlink:href="#m4757946b98" x="340.637658" y="165.090995" style="stroke: #000000; stroke-width: 0.5"/>
      </g>
     </g>
    </g>
    <g id="ytick_21">
     <g id="line2d_92">
      <g>
       <use xlink:href="#m63cce1e665" x="51.853125" y="158.915657" style="stroke: #000000; stroke-width: 0.5"/>
      </g>
     </g>
     <g id="line2d_93">
      <g>
       <use xlink:href="#m4757946b98" x="340.637658" y="158.915657" style="stroke: #000000; stroke-width: 0.5"/>
      </g>
     </g>
    </g>
    <g id="ytick_22">
     <g id="line2d_94">
      <g>
       <use xlink:href="#m63cce1e665" x="51.853125" y="146.564981" style="stroke: #000000; stroke-width: 0.5"/>
      </g>
     </g>
     <g id="line2d_95">
      <g>
       <use xlink:href="#m4757946b98" x="340.637658" y="146.564981" style="stroke: #000000; stroke-width: 0.5"/>
      </g>
     </g>
    </g>
    <g id="ytick_23">
     <g id="line2d_96">
      <g>
       <use xlink:href="#m63cce1e665" x="51.853125" y="140.389643" style="stroke: #000000; stroke-width: 0.5"/>
      </g>
     </g>
     <g id="line2d_97">
      <g>
       <use xlink:href="#m4757946b98" x="340.637658" y="140.389643" style="stroke: #000000; stroke-width: 0.5"/>
      </g>
     </g>
    </g>
    <g id="ytick_24">
     <g id="line2d_98">
      <g>
       <use xlink:href="#m63cce1e665" x="51.853125" y="134.214305" style="stroke: #000000; stroke-width: 0.5"/>
      </g>
     </g>
     <g id="line2d_99">
      <g>
       <use xlink:href="#m4757946b98" x="340.637658" y="134.214305" style="stroke: #000000; stroke-width: 0.5"/>
      </g>
     </g>
    </g>
    <g id="ytick_25">
     <g id="line2d_100">
      <g>
       <use xlink:href="#m63cce1e665" x="51.853125" y="128.038968" style="stroke: #000000; stroke-width: 0.5"/>
      </g>
     </g>
     <g id="line2d_101">
      <g>
       <use xlink:href="#m4757946b98" x="340.637658" y="128.038968" style="stroke: #000000; stroke-width: 0.5"/>
      </g>
     </g>
    </g>
    <g id="ytick_26">
     <g id="line2d_102">
      <g>
       <use xlink:href="#m63cce1e665" x="51.853125" y="115.688292" style="stroke: #000000; stroke-width: 0.5"/>
      </g>
     </g>
     <g id="line2d_103">
      <g>
       <use xlink:href="#m4757946b98" x="340.637658" y="115.688292" style="stroke: #000000; stroke-width: 0.5"/>
      </g>
     </g>
    </g>
    <g id="ytick_27">
     <g id="line2d_104">
      <g>
       <use xlink:href="#m63cce1e665" x="51.853125" y="109.512954" style="stroke: #000000; stroke-width: 0.5"/>
      </g>
     </g>
     <g id="line2d_105">
      <g>
       <use xlink:href="#m4757946b98" x="340.637658" y="109.512954" style="stroke: #000000; stroke-width: 0.5"/>
      </g>
     </g>
    </g>
    <g id="ytick_28">
     <g id="line2d_106">
      <g>
       <use xlink:href="#m63cce1e665" x="51.853125" y="103.337616" style="stroke: #000000; stroke-width: 0.5"/>
      </g>
     </g>
     <g id="line2d_107">
      <g>
       <use xlink:href="#m4757946b98" x="340.637658" y="103.337616" style="stroke: #000000; stroke-width: 0.5"/>
      </g>
     </g>
    </g>
    <g id="ytick_29">
     <g id="line2d_108">
      <g>
       <use xlink:href="#m63cce1e665" x="51.853125" y="97.162278" style="stroke: #000000; stroke-width: 0.5"/>
      </g>
     </g>
     <g id="line2d_109">
      <g>
       <use xlink:href="#m4757946b98" x="340.637658" y="97.162278" style="stroke: #000000; stroke-width: 0.5"/>
      </g>
     </g>
    </g>
    <g id="ytick_30">
     <g id="line2d_110">
      <g>
       <use xlink:href="#m63cce1e665" x="51.853125" y="84.811602" style="stroke: #000000; stroke-width: 0.5"/>
      </g>
     </g>
     <g id="line2d_111">
      <g>
       <use xlink:href="#m4757946b98" x="340.637658" y="84.811602" style="stroke: #000000; stroke-width: 0.5"/>
      </g>
     </g>
    </g>
    <g id="ytick_31">
     <g id="line2d_112">
      <g>
       <use xlink:href="#m63cce1e665" x="51.853125" y="78.636264" style="stroke: #000000; stroke-width: 0.5"/>
      </g>
     </g>
     <g id="line2d_113">
      <g>
       <use xlink:href="#m4757946b98" x="340.637658" y="78.636264" style="stroke: #000000; stroke-width: 0.5"/>
      </g>
     </g>
    </g>
    <g id="ytick_32">
     <g id="line2d_114">
      <g>
       <use xlink:href="#m63cce1e665" x="51.853125" y="72.460926" style="stroke: #000000; stroke-width: 0.5"/>
      </g>
     </g>
     <g id="line2d_115">
      <g>
       <use xlink:href="#m4757946b98" x="340.637658" y="72.460926" style="stroke: #000000; stroke-width: 0.5"/>
      </g>
     </g>
    </g>
    <g id="ytick_33">
     <g id="line2d_116">
      <g>
       <use xlink:href="#m63cce1e665" x="51.853125" y="66.285588" style="stroke: #000000; stroke-width: 0.5"/>
      </g>
     </g>
     <g id="line2d_117">
      <g>
       <use xlink:href="#m4757946b98" x="340.637658" y="66.285588" style="stroke: #000000; stroke-width: 0.5"/>
      </g>
     </g>
    </g>
    <g id="ytick_34">
     <g id="line2d_118">
      <g>
       <use xlink:href="#m63cce1e665" x="51.853125" y="53.934912" style="stroke: #000000; stroke-width: 0.5"/>
      </g>
     </g>
     <g id="line2d_119">
      <g>
       <use xlink:href="#m4757946b98" x="340.637658" y="53.934912" style="stroke: #000000; stroke-width: 0.5"/>
      </g>
     </g>
    </g>
    <g id="ytick_35">
     <g id="line2d_120">
      <g>
       <use xlink:href="#m63cce1e665" x="51.853125" y="47.759574" style="stroke: #000000; stroke-width: 0.5"/>
      </g>
     </g>
     <g id="line2d_121">
      <g>
       <use xlink:href="#m4757946b98" x="340.637658" y="47.759574" style="stroke: #000000; stroke-width: 0.5"/>
      </g>
     </g>
    </g>
    <g id="ytick_36">
     <g id="line2d_122">
      <g>
       <use xlink:href="#m63cce1e665" x="51.853125" y="41.584236" style="stroke: #000000; stroke-width: 0.5"/>
      </g>
     </g>
     <g id="line2d_123">
      <g>
       <use xlink:href="#m4757946b98" x="340.637658" y="41.584236" style="stroke: #000000; stroke-width: 0.5"/>
      </g>
     </g>
    </g>
    <g id="ytick_37">
     <g id="line2d_124">
      <g>
       <use xlink:href="#m63cce1e665" x="51.853125" y="35.408898" style="stroke: #000000; stroke-width: 0.5"/>
      </g>
     </g>
     <g id="line2d_125">
      <g>
       <use xlink:href="#m4757946b98" x="340.637658" y="35.408898" style="stroke: #000000; stroke-width: 0.5"/>
      </g>
     </g>
    </g>
    <g id="ytick_38">
     <g id="line2d_126">
      <g>
       <use xlink:href="#m63cce1e665" x="51.853125" y="23.058222" style="stroke: #000000; stroke-width: 0.5"/>
      </g>
     </g>
     <g id="line2d_127">
      <g>
       <use xlink:href="#m4757946b98" x="340.637658" y="23.058222" style="stroke: #000000; stroke-width: 0.5"/>
      </g>
     </g>
    </g>
    <g id="ytick_39">
     <g id="line2d_128">
      <g>
       <use xlink:href="#m63cce1e665" x="51.853125" y="16.882884" style="stroke: #000000; stroke-width: 0.5"/>
      </g>
     </g>
     <g id="line2d_129">
      <g>
       <use xlink:href="#m4757946b98" x="340.637658" y="16.882884" style="stroke: #000000; stroke-width: 0.5"/>
      </g>
     </g>
    </g>
    <g id="ytick_40">
     <g id="line2d_130">
      <g>
       <use xlink:href="#m63cce1e665" x="51.853125" y="10.707546" style="stroke: #000000; stroke-width: 0.5"/>
      </g>
     </g>
     <g id="line2d_131">
      <g>
       <use xlink:href="#m4757946b98" x="340.637658" y="10.707546" style="stroke: #000000; stroke-width: 0.5"/>
      </g>
     </g>
    </g>
    <g id="ytick_41">
     <g id="line2d_132">
      <g>
       <use xlink:href="#m63cce1e665" x="51.853125" y="4.532208" style="stroke: #000000; stroke-width: 0.5"/>
      </g>
     </g>
     <g id="line2d_133">
      <g>
       <use xlink:href="#m4757946b98" x="340.637658" y="4.532208" style="stroke: #000000; stroke-width: 0.5"/>
      </g>
     </g>
    </g>
    <g id="text_15">
     <!-- x -->
     <g transform="translate(12.718125 131.89125) rotate(-90) scale(0.12 -0.12)">
      <defs>
       <path id="DejaVuSans-78" d="M 3513 3500 
L 2247 1797 
L 3578 0 
L 2900 0 
L 1881 1375 
L 863 0 
L 184 0 
L 1544 1831 
L 300 3500 
L 978 3500 
L 1906 2253 
L 2834 3500 
L 3513 3500 
z
" transform="scale(0.015625)"/>
      </defs>
      <use xlink:href="#DejaVuSans-78"/>
     </g>
    </g>
   </g>
   <g id="line2d_134">
    <path d="M 191.505624 121.86363 
L 274.270919 223.546811 
" clip-path="url(#p0ea8654875)" style="fill: none; stroke: #000000; stroke-linecap: square"/>
   </g>
   <g id="line2d_135">
    <path d="M 274.270919 207.861453 
L 276.276718 207.99023 
L 278.249582 208.374445 
L 280.157117 209.00779 
L 281.968 209.879865 
L 283.652497 210.976352 
L 285.182949 212.279244 
L 286.534226 213.76715 
L 287.68414 215.415638 
L 288.613809 217.19764 
L 289.307968 219.083894 
L 289.755219 221.04343 
L 289.948219 223.044071 
L 289.883797 225.052967 
L 289.563013 227.037132 
L 288.991133 228.963986 
L 288.177547 230.80189 
L 287.135615 232.520666 
L 285.882445 234.092092 
L 284.438614 235.490364 
L 282.82783 236.692524 
L 281.076541 237.678831 
L 279.213505 238.433091 
L 277.269311 238.942919 
L 275.275884 239.199943 
L 273.265955 239.199943 
L 271.272528 238.942919 
L 269.328334 238.433091 
L 267.465297 237.678831 
L 265.714009 236.692524 
L 264.103225 235.490364 
L 262.659394 234.092092 
L 261.406224 232.520666 
L 260.364291 230.80189 
L 259.550706 228.963986 
L 258.978826 227.037132 
L 258.658041 225.052967 
L 258.59362 223.044071 
L 258.786619 221.04343 
L 259.23387 219.083894 
L 259.92803 217.19764 
L 260.857699 215.415638 
L 262.007612 213.76715 
L 263.358889 212.279244 
L 264.889341 210.976352 
L 266.573839 209.879865 
L 268.384722 209.00779 
L 270.292256 208.374445 
L 272.26512 207.99023 
L 274.270919 207.861453 
" clip-path="url(#p0ea8654875)" style="fill: none; stroke: #0000ff; stroke-linecap: square"/>
   </g>
   <g id="line2d_136">
    <path d="M 191.505624 121.86363 
L 96.551246 114.703763 
" clip-path="url(#p0ea8654875)" style="fill: none; stroke: #000000; stroke-linecap: square"/>
   </g>
   <g id="line2d_137">
    <path d="M 96.551246 99.018405 
L 98.557045 99.147181 
L 100.529909 99.531396 
L 102.437444 100.164741 
L 104.248327 101.036817 
L 105.932824 102.133303 
L 107.463276 103.436196 
L 108.814553 104.924102 
L 109.964467 106.57259 
L 110.894136 108.354591 
L 111.588295 110.240846 
L 112.035546 112.200381 
L 112.228546 114.201022 
L 112.164124 116.209918 
L 111.84334 118.194084 
L 111.27146 120.120938 
L 110.457874 121.958842 
L 109.415942 123.677618 
L 108.162772 125.249043 
L 106.718941 126.647316 
L 105.108157 127.849475 
L 103.356868 128.835783 
L 101.493831 129.590042 
L 99.549638 130.09987 
L 97.55621 130.356894 
L 95.546282 130.356894 
L 93.552855 130.09987 
L 91.608661 129.590042 
L 89.745624 128.835783 
L 87.994336 127.849475 
L 86.383551 126.647316 
L 84.93972 125.249043 
L 83.68655 123.677618 
L 82.644618 121.958842 
L 81.831033 120.120938 
L 81.259152 118.194084 
L 80.938368 116.209918 
L 80.873947 114.201022 
L 81.066946 112.200381 
L 81.514197 110.240846 
L 82.208356 108.354591 
L 83.138025 106.57259 
L 84.287939 104.924102 
L 85.639216 103.436196 
L 87.169668 102.133303 
L 88.854165 101.036817 
L 90.665049 100.164741 
L 92.572583 99.531396 
L 94.545447 99.147181 
L 96.551246 99.018405 
" clip-path="url(#p0ea8654875)" style="fill: none; stroke: #ff0000; stroke-linecap: square"/>
   </g>
   <g id="line2d_138">
    <path d="M 191.505624 121.86363 
L 222.039847 200.496229 
" clip-path="url(#p0ea8654875)" style="fill: none; stroke: #000000; stroke-linecap: square"/>
   </g>
   <g id="line2d_139">
    <path d="M 222.039847 184.81087 
L 224.045646 184.939647 
L 226.01851 185.323862 
L 227.926044 185.957207 
L 229.736928 186.829282 
L 231.421425 187.925769 
L 232.951877 189.228662 
L 234.303154 190.716568 
L 235.453068 192.365055 
L 236.382737 194.147057 
L 237.076896 196.033311 
L 237.524147 197.992847 
L 237.717147 199.993488 
L 237.652725 202.002384 
L 237.331941 203.986549 
L 236.760061 205.913403 
L 235.946475 207.751307 
L 234.904543 209.470083 
L 233.651373 211.041509 
L 232.207542 212.439781 
L 230.596757 213.641941 
L 228.845469 214.628248 
L 226.982432 215.382508 
L 225.038239 215.892336 
L 223.044811 216.14936 
L 221.034883 216.14936 
L 219.041455 215.892336 
L 217.097262 215.382508 
L 215.234225 214.628248 
L 213.482937 213.641941 
L 211.872152 212.439781 
L 210.428321 211.041509 
L 209.175151 209.470083 
L 208.133219 207.751307 
L 207.319633 205.913403 
L 206.747753 203.986549 
L 206.426969 202.002384 
L 206.362547 199.993488 
L 206.555547 197.992847 
L 207.002798 196.033311 
L 207.696957 194.147057 
L 208.626626 192.365055 
L 209.77654 190.716568 
L 211.127817 189.228662 
L 212.658269 187.925769 
L 214.342766 186.829282 
L 216.15365 185.957207 
L 218.061184 185.323862 
L 220.034048 184.939647 
L 222.039847 184.81087 
" clip-path="url(#p0ea8654875)" style="fill: none; stroke: #0000ff; stroke-linecap: square"/>
   </g>
   <g id="line2d_140">
    <path d="M 191.505624 121.86363 
L 178.342402 30.625358 
" clip-path="url(#p0ea8654875)" style="fill: none; stroke: #000000; stroke-linecap: square"/>
   </g>
   <g id="line2d_141">
    <path d="M 178.342402 14.94 
L 180.348201 15.068777 
L 182.321065 15.452992 
L 184.2286 16.086337 
L 186.039483 16.958412 
L 187.72398 18.054899 
L 189.254432 19.357791 
L 190.605709 20.845697 
L 191.755623 22.494185 
L 192.685292 24.276187 
L 193.379451 26.162441 
L 193.826702 28.121977 
L 194.019702 30.122618 
L 193.95528 32.131514 
L 193.634496 34.115679 
L 193.062616 36.042533 
L 192.24903 37.880437 
L 191.207098 39.599213 
L 189.953928 41.170639 
L 188.510097 42.568911 
L 186.899313 43.771071 
L 185.148024 44.757378 
L 183.284988 45.511638 
L 181.340794 46.021466 
L 179.347367 46.27849 
L 177.337438 46.27849 
L 175.344011 46.021466 
L 173.399817 45.511638 
L 171.53678 44.757378 
L 169.785492 43.771071 
L 168.174708 42.568911 
L 166.730877 41.170639 
L 165.477707 39.599213 
L 164.435774 37.880437 
L 163.622189 36.042533 
L 163.050309 34.115679 
L 162.729524 32.131514 
L 162.665103 30.122618 
L 162.858102 28.121977 
L 163.305353 26.162441 
L 163.999513 24.276187 
L 164.929182 22.494185 
L 166.079095 20.845697 
L 167.430372 19.357791 
L 168.960824 18.054899 
L 170.645322 16.958412 
L 172.456205 16.086337 
L 174.363739 15.452992 
L 176.336603 15.068777 
L 178.342402 14.94 
" clip-path="url(#p0ea8654875)" style="fill: none; stroke: #ff0000; stroke-linecap: square"/>
   </g>
   <g id="line2d_142">
    <path d="M 191.505624 121.86363 
L 249.296231 92.36789 
" clip-path="url(#p0ea8654875)" style="fill: none; stroke: #000000; stroke-linecap: square"/>
   </g>
   <g id="line2d_143">
    <path d="M 249.296231 76.682531 
L 251.30203 76.811308 
L 253.274894 77.195523 
L 255.182428 77.828868 
L 256.993311 78.700943 
L 258.677809 79.79743 
L 260.208261 81.100323 
L 261.559538 82.588229 
L 262.709451 84.236716 
L 263.63912 86.018718 
L 264.33328 87.904972 
L 264.780531 89.864508 
L 264.97353 91.865149 
L 264.909109 93.874045 
L 264.588324 95.85821 
L 264.016444 97.785064 
L 263.202859 99.622968 
L 262.160927 101.341744 
L 260.907756 102.91317 
L 259.463925 104.311442 
L 257.853141 105.513602 
L 256.101853 106.499909 
L 254.238816 107.254169 
L 252.294622 107.763997 
L 250.301195 108.021021 
L 248.291266 108.021021 
L 246.297839 107.763997 
L 244.353645 107.254169 
L 242.490609 106.499909 
L 240.73932 105.513602 
L 239.128536 104.311442 
L 237.684705 102.91317 
L 236.431535 101.341744 
L 235.389603 99.622968 
L 234.576017 97.785064 
L 234.004137 95.85821 
L 233.683353 93.874045 
L 233.618931 91.865149 
L 233.811931 89.864508 
L 234.259182 87.904972 
L 234.953341 86.018718 
L 235.88301 84.236716 
L 237.032924 82.588229 
L 238.384201 81.100323 
L 239.914653 79.79743 
L 241.59915 78.700943 
L 243.410033 77.828868 
L 245.317568 77.195523 
L 247.290432 76.811308 
L 249.296231 76.682531 
" clip-path="url(#p0ea8654875)" style="fill: none; stroke: #ff0000; stroke-linecap: square"/>
   </g>
   <g id="line2d_144">
    <path d="M 191.505624 121.86363 
L 143.749635 93.189468 
" clip-path="url(#p0ea8654875)" style="fill: none; stroke: #000000; stroke-linecap: square"/>
   </g>
   <g id="line2d_145">
    <path d="M 143.749635 77.50411 
L 145.755434 77.632887 
L 147.728298 78.017102 
L 149.635833 78.650447 
L 151.446716 79.522522 
L 153.131213 80.619008 
L 154.661665 81.921901 
L 156.012942 83.409807 
L 157.162856 85.058295 
L 158.092525 86.840297 
L 158.786684 88.726551 
L 159.233935 90.686087 
L 159.426935 92.686728 
L 159.362513 94.695624 
L 159.041729 96.679789 
L 158.469849 98.606643 
L 157.656263 100.444547 
L 156.614331 102.163323 
L 155.361161 103.734749 
L 153.91733 105.133021 
L 152.306546 106.335181 
L 150.555257 107.321488 
L 148.692221 108.075748 
L 146.748027 108.585576 
L 144.7546 108.842599 
L 142.744671 108.842599 
L 140.751244 108.585576 
L 138.80705 108.075748 
L 136.944013 107.321488 
L 135.192725 106.335181 
L 133.581941 105.133021 
L 132.13811 103.734749 
L 130.88494 102.163323 
L 129.843007 100.444547 
L 129.029422 98.606643 
L 128.457542 96.679789 
L 128.136757 94.695624 
L 128.072336 92.686728 
L 128.265335 90.686087 
L 128.712586 88.726551 
L 129.406746 86.840297 
L 130.336415 85.058295 
L 131.486328 83.409807 
L 132.837605 81.921901 
L 134.368057 80.619008 
L 136.052555 79.522522 
L 137.863438 78.650447 
L 139.770972 78.017102 
L 141.743836 77.632887 
L 143.749635 77.50411 
" clip-path="url(#p0ea8654875)" style="fill: none; stroke: #0000ff; stroke-linecap: square"/>
   </g>
   <g id="line2d_146">
    <path d="M 191.505624 121.86363 
L 242.584191 154.941665 
" clip-path="url(#p0ea8654875)" style="fill: none; stroke: #000000; stroke-linecap: square"/>
   </g>
   <g id="line2d_147">
    <path d="M 242.584191 139.256306 
L 244.58999 139.385083 
L 246.562854 139.769298 
L 248.470388 140.402643 
L 250.281271 141.274718 
L 251.965769 142.371205 
L 253.496221 143.674098 
L 254.847498 145.162004 
L 255.997411 146.810491 
L 256.92708 148.592493 
L 257.621239 150.478747 
L 258.068491 152.438283 
L 258.26149 154.438924 
L 258.197069 156.44782 
L 257.876284 158.431985 
L 257.304404 160.358839 
L 256.490818 162.196744 
L 255.448886 163.91552 
L 254.195716 165.486945 
L 252.751885 166.885217 
L 251.141101 168.087377 
L 249.389813 169.073684 
L 247.526776 169.827944 
L 245.582582 170.337772 
L 243.589155 170.594796 
L 241.579226 170.594796 
L 239.585799 170.337772 
L 237.641605 169.827944 
L 235.778569 169.073684 
L 234.02728 168.087377 
L 232.416496 166.885217 
L 230.972665 165.486945 
L 229.719495 163.91552 
L 228.677563 162.196744 
L 227.863977 160.358839 
L 227.292097 158.431985 
L 226.971312 156.44782 
L 226.906891 154.438924 
L 227.099891 152.438283 
L 227.547142 150.478747 
L 228.241301 148.592493 
L 229.17097 146.810491 
L 230.320884 145.162004 
L 231.67216 143.674098 
L 233.202613 142.371205 
L 234.88711 141.274718 
L 236.697993 140.402643 
L 238.605528 139.769298 
L 240.578391 139.385083 
L 242.584191 139.256306 
" clip-path="url(#p0ea8654875)" style="fill: none; stroke: #ff0000; stroke-linecap: square"/>
   </g>
   <g id="line2d_148">
    <path d="M 191.505624 121.86363 
L 128.946263 58.684883 
" clip-path="url(#p0ea8654875)" style="fill: none; stroke: #000000; stroke-linecap: square"/>
   </g>
   <g id="line2d_149">
    <path d="M 128.946263 42.999525 
L 130.952062 43.128301 
L 132.924926 43.512516 
L 134.832461 44.145862 
L 136.643344 45.017937 
L 138.327841 46.114423 
L 139.858293 47.417316 
L 141.20957 48.905222 
L 142.359484 50.55371 
L 143.289153 52.335711 
L 143.983312 54.221966 
L 144.430563 56.181502 
L 144.623563 58.182143 
L 144.559141 60.191039 
L 144.238357 62.175204 
L 143.666477 64.102058 
L 142.852891 65.939962 
L 141.810959 67.658738 
L 140.557789 69.230163 
L 139.113958 70.628436 
L 137.503174 71.830595 
L 135.751885 72.816903 
L 133.888849 73.571163 
L 131.944655 74.08099 
L 129.951228 74.338014 
L 127.941299 74.338014 
L 125.947872 74.08099 
L 124.003678 73.571163 
L 122.140641 72.816903 
L 120.389353 71.830595 
L 118.778569 70.628436 
L 117.334738 69.230163 
L 116.081568 67.658738 
L 115.039635 65.939962 
L 114.22605 64.102058 
L 113.65417 62.175204 
L 113.333385 60.191039 
L 113.268964 58.182143 
L 113.461963 56.181502 
L 113.909214 54.221966 
L 114.603374 52.335711 
L 115.533043 50.55371 
L 116.682956 48.905222 
L 118.034233 47.417316 
L 119.564685 46.114423 
L 121.249183 45.017937 
L 123.060066 44.145862 
L 124.9676 43.512516 
L 126.940464 43.128301 
L 128.946263 42.999525 
" clip-path="url(#p0ea8654875)" style="fill: none; stroke: #ff0000; stroke-linecap: square"/>
   </g>
   <g id="patch_11">
    <path d="M 51.853125 253.08 
L 51.853125 3.6 
" style="fill: none; stroke: #000000; stroke-width: 0.5; stroke-linejoin: miter; stroke-linecap: square"/>
   </g>
   <g id="patch_12">
    <path d="M 340.637658 253.08 
L 340.637658 3.6 
" style="fill: none; stroke: #000000; stroke-width: 0.5; stroke-linejoin: miter; stroke-linecap: square"/>
   </g>
   <g id="patch_13">
    <path d="M 51.853125 253.08 
L 340.637658 253.08 
" style="fill: none; stroke: #000000; stroke-width: 0.5; stroke-linejoin: miter; stroke-linecap: square"/>
   </g>
   <g id="patch_14">
    <path d="M 51.853125 3.6 
L 340.637658 3.6 
" style="fill: none; stroke: #000000; stroke-width: 0.5; stroke-linejoin: miter; stroke-linecap: square"/>
   </g>
   <g id="text_16">
    <!-- 0 -->
    <g transform="translate(274.270919 223.546811) scale(0.12 -0.12)">
     <use xlink:href="#DejaVuSans-30"/>
    </g>
   </g>
   <g id="text_17">
    <!-- 1 -->
    <g transform="translate(96.551246 114.703763) scale(0.12 -0.12)">
     <use xlink:href="#DejaVuSans-31"/>
    </g>
   </g>
   <g id="text_18">
    <!-- 2 -->
    <g transform="translate(222.039847 200.496229) scale(0.12 -0.12)">
     <use xlink:href="#DejaVuSans-32"/>
    </g>
   </g>
   <g id="text_19">
    <!-- 3 -->
    <g transform="translate(178.342402 30.625358) scale(0.12 -0.12)">
     <use xlink:href="#DejaVuSans-33"/>
    </g>
   </g>
   <g id="text_20">
    <!-- 4 -->
    <g transform="translate(249.296231 92.36789) scale(0.12 -0.12)">
     <use xlink:href="#DejaVuSans-34"/>
    </g>
   </g>
   <g id="text_21">
    <!-- 5 -->
    <g transform="translate(143.749635 93.189468) scale(0.12 -0.12)">
     <defs>
      <path id="DejaVuSans-35" d="M 691 4666 
L 3169 4666 
L 3169 4134 
L 1269 4134 
L 1269 2991 
Q 1406 3038 1543 3061 
Q 1681 3084 1819 3084 
Q 2600 3084 3056 2656 
Q 3513 2228 3513 1497 
Q 3513 744 3044 326 
Q 2575 -91 1722 -91 
Q 1428 -91 1123 -41 
Q 819 9 494 109 
L 494 744 
Q 775 591 1075 516 
Q 1375 441 1709 441 
Q 2250 441 2565 725 
Q 2881 1009 2881 1497 
Q 2881 1984 2565 2268 
Q 2250 2553 1709 2553 
Q 1456 2553 1204 2497 
Q 953 2441 691 2322 
L 691 4666 
z
" transform="scale(0.015625)"/>
     </defs>
     <use xlink:href="#DejaVuSans-35"/>
    </g>
   </g>
   <g id="text_22">
    <!-- 6 -->
    <g transform="translate(242.584191 154.941665) scale(0.12 -0.12)">
     <defs>
      <path id="DejaVuSans-36" d="M 2113 2584 
Q 1688 2584 1439 2293 
Q 1191 2003 1191 1497 
Q 1191 994 1439 701 
Q 1688 409 2113 409 
Q 2538 409 2786 701 
Q 3034 994 3034 1497 
Q 3034 2003 2786 2293 
Q 2538 2584 2113 2584 
z
M 3366 4563 
L 3366 3988 
Q 3128 4100 2886 4159 
Q 2644 4219 2406 4219 
Q 1781 4219 1451 3797 
Q 1122 3375 1075 2522 
Q 1259 2794 1537 2939 
Q 1816 3084 2150 3084 
Q 2853 3084 3261 2657 
Q 3669 2231 3669 1497 
Q 3669 778 3244 343 
Q 2819 -91 2113 -91 
Q 1303 -91 875 529 
Q 447 1150 447 2328 
Q 447 3434 972 4092 
Q 1497 4750 2381 4750 
Q 2619 4750 2861 4703 
Q 3103 4656 3366 4563 
z
" transform="scale(0.015625)"/>
     </defs>
     <use xlink:href="#DejaVuSans-36"/>
    </g>
   </g>
   <g id="text_23">
    <!-- 7 -->
    <g transform="translate(128.946263 58.684883) scale(0.12 -0.12)">
     <defs>
      <path id="DejaVuSans-37" d="M 525 4666 
L 3525 4666 
L 3525 4397 
L 1831 0 
L 1172 0 
L 2766 4134 
L 525 4134 
L 525 4666 
z
" transform="scale(0.015625)"/>
     </defs>
     <use xlink:href="#DejaVuSans-37"/>
    </g>
   </g>
   <g id="text_24">
    <!-- C.G. -->
    <g transform="translate(191.923996 122.48979) scale(0.12 -0.12)">
     <defs>
      <path id="DejaVuSans-43" d="M 4122 4306 
L 4122 3641 
Q 3803 3938 3442 4084 
Q 3081 4231 2675 4231 
Q 1875 4231 1450 3742 
Q 1025 3253 1025 2328 
Q 1025 1406 1450 917 
Q 1875 428 2675 428 
Q 3081 428 3442 575 
Q 3803 722 4122 1019 
L 4122 359 
Q 3791 134 3420 21 
Q 3050 -91 2638 -91 
Q 1578 -91 968 557 
Q 359 1206 359 2328 
Q 359 3453 968 4101 
Q 1578 4750 2638 4750 
Q 3056 4750 3426 4639 
Q 3797 4528 4122 4306 
z
" transform="scale(0.015625)"/>
      <path id="DejaVuSans-47" d="M 3809 666 
L 3809 1919 
L 2778 1919 
L 2778 2438 
L 4434 2438 
L 4434 434 
Q 4069 175 3628 42 
Q 3188 -91 2688 -91 
Q 1594 -91 976 548 
Q 359 1188 359 2328 
Q 359 3472 976 4111 
Q 1594 4750 2688 4750 
Q 3144 4750 3555 4637 
Q 3966 4525 4313 4306 
L 4313 3634 
Q 3963 3931 3569 4081 
Q 3175 4231 2741 4231 
Q 1884 4231 1454 3753 
Q 1025 3275 1025 2328 
Q 1025 1384 1454 906 
Q 1884 428 2741 428 
Q 3075 428 3337 486 
Q 3600 544 3809 666 
z
" transform="scale(0.015625)"/>
     </defs>
     <use xlink:href="#DejaVuSans-43"/>
     <use xlink:href="#DejaVuSans-2e" x="69.824219"/>
     <use xlink:href="#DejaVuSans-47" x="101.611328"/>
     <use xlink:href="#DejaVuSans-2e" x="179.101562"/>
    </g>
   </g>
   <g id="legend_1">
    <g id="patch_15">
     <path d="M 60.253125 247.08 
L 152.8575 247.08 
Q 155.2575 247.08 155.2575 244.68 
L 155.2575 193.03875 
Q 155.2575 190.63875 152.8575 190.63875 
L 60.253125 190.63875 
Q 57.853125 190.63875 57.853125 193.03875 
L 57.853125 244.68 
Q 57.853125 247.08 60.253125 247.08 
z
" style="fill: #ffffff; opacity: 0.8; stroke: #cccccc; stroke-linejoin: miter"/>
    </g>
    <g id="line2d_150">
     <path d="M 62.653125 200.356875 
L 74.653125 200.356875 
L 86.653125 200.356875 
" style="fill: none; stroke: #ff0000; stroke-linecap: square"/>
    </g>
    <g id="text_25">
     <!-- CCW -->
     <g transform="translate(96.253125 204.556875) scale(0.12 -0.12)">
      <defs>
       <path id="DejaVuSans-57" d="M 213 4666 
L 850 4666 
L 1831 722 
L 2809 4666 
L 3519 4666 
L 4500 722 
L 5478 4666 
L 6119 4666 
L 4947 0 
L 4153 0 
L 3169 4050 
L 2175 0 
L 1381 0 
L 213 4666 
z
" transform="scale(0.015625)"/>
      </defs>
      <use xlink:href="#DejaVuSans-43"/>
      <use xlink:href="#DejaVuSans-43" x="69.824219"/>
      <use xlink:href="#DejaVuSans-57" x="139.648438"/>
     </g>
    </g>
    <g id="line2d_151">
     <path d="M 62.653125 217.970625 
L 74.653125 217.970625 
L 86.653125 217.970625 
" style="fill: none; stroke: #0000ff; stroke-linecap: square"/>
    </g>
    <g id="text_26">
     <!-- CW -->
     <g transform="translate(96.253125 222.170625) scale(0.12 -0.12)">
      <use xlink:href="#DejaVuSans-43"/>
      <use xlink:href="#DejaVuSans-57" x="69.824219"/>
     </g>
    </g>
    <g id="line2d_152">
     <path d="M 62.653125 235.584375 
L 74.653125 235.584375 
L 86.653125 235.584375 
" style="fill: none; stroke-dasharray: 3.7,1.6; stroke-dashoffset: 0; stroke: #008000"/>
    </g>
    <g id="text_27">
     <!-- Direction -->
     <g transform="translate(96.253125 239.784375) scale(0.12 -0.12)">
      <defs>
       <path id="DejaVuSans-44" d="M 1259 4147 
L 1259 519 
L 2022 519 
Q 2988 519 3436 956 
Q 3884 1394 3884 2338 
Q 3884 3275 3436 3711 
Q 2988 4147 2022 4147 
L 1259 4147 
z
M 628 4666 
L 1925 4666 
Q 3281 4666 3915 4102 
Q 4550 3538 4550 2338 
Q 4550 1131 3912 565 
Q 3275 0 1925 0 
L 628 0 
L 628 4666 
z
" transform="scale(0.015625)"/>
       <path id="DejaVuSans-69" d="M 603 3500 
L 1178 3500 
L 1178 0 
L 603 0 
L 603 3500 
z
M 603 4863 
L 1178 4863 
L 1178 4134 
L 603 4134 
L 603 4863 
z
" transform="scale(0.015625)"/>
       <path id="DejaVuSans-72" d="M 2631 2963 
Q 2534 3019 2420 3045 
Q 2306 3072 2169 3072 
Q 1681 3072 1420 2755 
Q 1159 2438 1159 1844 
L 1159 0 
L 581 0 
L 581 3500 
L 1159 3500 
L 1159 2956 
Q 1341 3275 1631 3429 
Q 1922 3584 2338 3584 
Q 2397 3584 2469 3576 
Q 2541 3569 2628 3553 
L 2631 2963 
z
" transform="scale(0.015625)"/>
       <path id="DejaVuSans-65" d="M 3597 1894 
L 3597 1613 
L 953 1613 
Q 991 1019 1311 708 
Q 1631 397 2203 397 
Q 2534 397 2845 478 
Q 3156 559 3463 722 
L 3463 178 
Q 3153 47 2828 -22 
Q 2503 -91 2169 -91 
Q 1331 -91 842 396 
Q 353 884 353 1716 
Q 353 2575 817 3079 
Q 1281 3584 2069 3584 
Q 2775 3584 3186 3129 
Q 3597 2675 3597 1894 
z
M 3022 2063 
Q 3016 2534 2758 2815 
Q 2500 3097 2075 3097 
Q 1594 3097 1305 2825 
Q 1016 2553 972 2059 
L 3022 2063 
z
" transform="scale(0.015625)"/>
       <path id="DejaVuSans-63" d="M 3122 3366 
L 3122 2828 
Q 2878 2963 2633 3030 
Q 2388 3097 2138 3097 
Q 1578 3097 1268 2742 
Q 959 2388 959 1747 
Q 959 1106 1268 751 
Q 1578 397 2138 397 
Q 2388 397 2633 464 
Q 2878 531 3122 666 
L 3122 134 
Q 2881 22 2623 -34 
Q 2366 -91 2075 -91 
Q 1284 -91 818 406 
Q 353 903 353 1747 
Q 353 2603 823 3093 
Q 1294 3584 2113 3584 
Q 2378 3584 2631 3529 
Q 2884 3475 3122 3366 
z
" transform="scale(0.015625)"/>
       <path id="DejaVuSans-74" d="M 1172 4494 
L 1172 3500 
L 2356 3500 
L 2356 3053 
L 1172 3053 
L 1172 1153 
Q 1172 725 1289 603 
Q 1406 481 1766 481 
L 2356 481 
L 2356 0 
L 1766 0 
Q 1100 0 847 248 
Q 594 497 594 1153 
L 594 3053 
L 172 3053 
L 172 3500 
L 594 3500 
L 594 4494 
L 1172 4494 
z
" transform="scale(0.015625)"/>
       <path id="DejaVuSans-6f" d="M 1959 3097 
Q 1497 3097 1228 2736 
Q 959 2375 959 1747 
Q 959 1119 1226 758 
Q 1494 397 1959 397 
Q 2419 397 2687 759 
Q 2956 1122 2956 1747 
Q 2956 2369 2687 2733 
Q 2419 3097 1959 3097 
z
M 1959 3584 
Q 2709 3584 3137 3096 
Q 3566 2609 3566 1747 
Q 3566 888 3137 398 
Q 2709 -91 1959 -91 
Q 1206 -91 779 398 
Q 353 888 353 1747 
Q 353 2609 779 3096 
Q 1206 3584 1959 3584 
z
" transform="scale(0.015625)"/>
       <path id="DejaVuSans-6e" d="M 3513 2113 
L 3513 0 
L 2938 0 
L 2938 2094 
Q 2938 2591 2744 2837 
Q 2550 3084 2163 3084 
Q 1697 3084 1428 2787 
Q 1159 2491 1159 1978 
L 1159 0 
L 581 0 
L 581 3500 
L 1159 3500 
L 1159 2956 
Q 1366 3272 1645 3428 
Q 1925 3584 2291 3584 
Q 2894 3584 3203 3211 
Q 3513 2838 3513 2113 
z
" transform="scale(0.015625)"/>
      </defs>
      <use xlink:href="#DejaVuSans-44"/>
      <use xlink:href="#DejaVuSans-69" x="77.001953"/>
      <use xlink:href="#DejaVuSans-72" x="104.785156"/>
      <use xlink:href="#DejaVuSans-65" x="143.648438"/>
      <use xlink:href="#DejaVuSans-63" x="205.171875"/>
      <use xlink:href="#DejaVuSans-74" x="260.152344"/>
      <use xlink:href="#DejaVuSans-69" x="299.361328"/>
      <use xlink:href="#DejaVuSans-6f" x="327.144531"/>
      <use xlink:href="#DejaVuSans-6e" x="388.326172"/>
     </g>
    </g>
   </g>
  </g>
 </g>
 <defs>
  <clipPath id="p0ea8654875">
   <rect x="51.853125" y="3.6" width="288.784533" height="249.48"/>
  </clipPath>
 </defs>
</svg>
