<?xml version="1.0" encoding="utf-8" standalone="no"?>
<!DOCTYPE svg PUBLIC "-//W3C//DTD SVG 1.1//EN"
  "http://www.w3.org/Graphics/SVG/1.1/DTD/svg11.dtd">
<svg xmlns:xlink="http://www.w3.org/1999/xlink" width="386.439375pt" height="287.4075pt" viewBox="0 0 386.439375 287.4075" xmlns="http://www.w3.org/2000/svg" version="1.1">
 <metadata>
  <rdf:RDF xmlns:dc="http://purl.org/dc/elements/1.1/" xmlns:cc="http://creativecommons.org/ns#" xmlns:rdf="http://www.w3.org/1999/02/22-rdf-syntax-ns#">
   <cc:Work>
    <dc:type rdf:resource="http://purl.org/dc/dcmitype/StillImage"/>
    <dc:date>2024-06-04T12:14:24.131079</dc:date>
    <dc:format>image/svg+xml</dc:format>
    <dc:creator>
     <cc:Agent>
      <dc:title>Matplotlib v3.9.0, https://matplotlib.org/</dc:title>
     </cc:Agent>
    </dc:creator>
   </cc:Work>
  </rdf:RDF>
 </metadata>
 <defs>
  <style type="text/css">*{stroke-linejoin: round; stroke-linecap: butt}</style>
 </defs>
 <g id="figure_1">
  <g id="patch_1">
   <path d="M 0 287.4075 
L 386.439375 287.4075 
L 386.439375 0 
L 0 0 
z
" style="fill: #ffffff"/>
  </g>
  <g id="axes_1">
   <g id="patch_2">
    <path d="M 48.039375 253.08 
L 382.839375 253.08 
L 382.839375 3.6 
L 48.039375 3.6 
z
" style="fill: #ffffff"/>
   </g>
   <g id="PolyCollection_1">
    <defs>
     <path id="md13acc8d68" d="M 63.257557 -230.677845 
L 63.257557 -45.6675 
L 63.867504 -46.370686 
L 64.477451 -46.814465 
L 65.087398 -47.558105 
L 65.697345 -46.597697 
L 66.307293 -48.026845 
L 66.91724 -48.761532 
L 67.527187 -46.954366 
L 68.137134 -48.806119 
L 68.747081 -48.07816 
L 69.357028 -47.584586 
L 69.966976 -47.188839 
L 70.576923 -49.45139 
L 71.18687 -48.559194 
L 71.796817 -47.454886 
L 72.406764 -46.759992 
L 73.016711 -48.305193 
L 73.626659 -48.834334 
L 74.236606 -47.435238 
L 74.846553 -48.259993 
L 75.4565 -52.921193 
L 76.066447 -46.907542 
L 76.676394 -48.706701 
L 77.286342 -47.20967 
L 77.896289 -51.021537 
L 78.506236 -49.230856 
L 79.116183 -49.880171 
L 79.72613 -49.248284 
L 80.336077 -49.503216 
L 80.946025 -47.025975 
L 81.555972 -47.807036 
L 82.165919 -53.501158 
L 82.775866 -145.269473 
L 83.385813 -47.785019 
L 83.99576 -134.304846 
L 84.605708 -151.661565 
L 85.215655 -152.567415 
L 85.825602 -47.7541 
L 86.435549 -156.732523 
L 87.045496 -158.340278 
L 87.655444 -152.693499 
L 88.265391 -155.868964 
L 88.875338 -167.464357 
L 89.485285 -149.619559 
L 90.095232 -174.61447 
L 90.705179 -170.68505 
L 91.315127 -182.289093 
L 91.925074 -171.588182 
L 92.535021 -167.743507 
L 93.144968 -173.104825 
L 93.754915 -167.33805 
L 94.364862 -169.455792 
L 94.97481 -171.408573 
L 95.584757 -185.550215 
L 96.194704 -170.488577 
L 96.804651 -163.275724 
L 97.414598 -154.307495 
L 98.024545 -174.62633 
L 98.634493 -160.463482 
L 99.24444 -174.408219 
L 99.854387 -157.677555 
L 100.464334 -168.220141 
L 101.074281 -174.766844 
L 101.684228 -166.724139 
L 102.294176 -180.087527 
L 102.904123 -165.517272 
L 103.51407 -177.786737 
L 104.124017 -167.997037 
L 104.733964 -168.877996 
L 105.343911 -170.173956 
L 105.953859 -173.964841 
L 106.563806 -187.461985 
L 107.173753 -178.967335 
L 107.7837 -177.195387 
L 108.393647 -176.361323 
L 109.003594 -170.808682 
L 109.613542 -176.139716 
L 110.223489 -162.441464 
L 110.833436 -164.239296 
L 111.443383 -126.389814 
L 112.05333 -167.673103 
L 112.663277 -171.648783 
L 113.273225 -152.083763 
L 113.883172 -181.077331 
L 114.493119 -181.047128 
L 115.103066 -170.325543 
L 115.713013 -183.667409 
L 116.32296 -179.46786 
L 116.932908 -184.000044 
L 117.542855 -179.810551 
L 118.152802 -181.236834 
L 118.762749 -173.841191 
L 119.372696 -181.214584 
L 119.982643 -173.012937 
L 120.592591 -175.738329 
L 121.202538 -185.913237 
L 121.812485 -191.372152 
L 122.422432 -199.508666 
L 123.032379 -192.555217 
L 123.642326 -194.604158 
L 124.252274 -175.585567 
L 124.862221 -194.078366 
L 125.472168 -194.046747 
L 126.082115 -194.076718 
L 126.692062 -189.471666 
L 127.302009 -200.289878 
L 127.911957 -194.529118 
L 128.521904 -164.902942 
L 129.131851 -200.921406 
L 129.741798 -202.510463 
L 130.351745 -222.222681 
L 130.961692 -176.858525 
L 131.57164 -201.271673 
L 132.181587 -173.228316 
L 132.791534 -172.009183 
L 133.401481 -194.880855 
L 134.011428 -179.870829 
L 134.621375 -192.482695 
L 135.231323 -173.522821 
L 135.84127 -200.760158 
L 136.451217 -180.629234 
L 137.061164 -185.360657 
L 137.671111 -198.688756 
L 138.281058 -187.13483 
L 138.891006 -179.327578 
L 139.500953 -189.620038 
L 140.1109 -175.442292 
L 140.720847 -175.304022 
L 141.330794 -173.058427 
L 141.940741 -191.694067 
L 142.550689 -192.192475 
L 143.160636 -202.500309 
L 143.770583 -195.729277 
L 144.38053 -177.276196 
L 144.990477 -176.90883 
L 145.600424 -186.293136 
L 146.210372 -197.191369 
L 146.820319 -194.137458 
L 147.430266 -202.149069 
L 148.040213 -220.893282 
L 148.65016 -204.157329 
L 149.260107 -197.239269 
L 149.870055 -202.476632 
L 150.480002 -201.021077 
L 151.089949 -182.857069 
L 151.699896 -188.00306 
L 152.309843 -192.276322 
L 152.91979 -186.829652 
L 153.529738 -202.674779 
L 154.139685 -178.969522 
L 154.749632 -177.036168 
L 155.359579 -179.342815 
L 155.969526 -179.351327 
L 156.579473 -180.383233 
L 157.189421 -182.282823 
L 157.799368 -172.670033 
L 158.409315 -179.356304 
L 159.019262 -152.047374 
L 159.629209 -186.026529 
L 160.239156 -189.951483 
L 160.849104 -189.967364 
L 161.459051 -189.086509 
L 162.068998 -189.659545 
L 162.678945 -200.255548 
L 163.288892 -188.674083 
L 163.898839 -190.143147 
L 164.508787 -158.949679 
L 165.118734 -145.899204 
L 165.728681 -163.527968 
L 166.338628 -172.106566 
L 166.948575 -180.342889 
L 167.558522 -194.088012 
L 168.16847 -200.076178 
L 168.778417 -184.818403 
L 169.388364 -178.27808 
L 169.998311 -201.122478 
L 170.608258 -262.310632 
L 171.218205 -205.053975 
L 171.828153 -197.497369 
L 172.4381 -194.661577 
L 173.048047 -204.741176 
L 173.657994 -195.679313 
L 174.267941 -196.960955 
L 174.877888 -197.488149 
L 175.487836 -194.881074 
L 176.097783 -197.722392 
L 176.70773 -196.752338 
L 177.317677 -202.57175 
L 177.927624 -190.094444 
L 178.537571 -201.001274 
L 179.147519 -184.129612 
L 179.757466 -198.838207 
L 180.367413 -204.859701 
L 180.97736 -195.522187 
L 181.587307 -194.781052 
L 182.197254 -196.943029 
L 182.807202 -196.818484 
L 183.417149 -189.445204 
L 184.027096 -201.655486 
L 184.637043 -200.687545 
L 185.24699 -192.094749 
L 185.856937 -197.442706 
L 186.466885 -200.638097 
L 187.076832 -187.320934 
L 187.686779 -179.003108 
L 188.296726 -178.990682 
L 188.906673 -186.419875 
L 189.51662 -192.708518 
L 190.126568 -191.268017 
L 190.736515 -204.867302 
L 191.346462 -217.276566 
L 191.956409 -191.292164 
L 192.566356 -191.28467 
L 193.176303 -204.730326 
L 193.786251 -245.198826 
L 194.396198 -201.213623 
L 195.006145 -269.552446 
L 195.616092 -269.556409 
L 196.226039 -199.786514 
L 196.835986 -181.844805 
L 197.445934 -196.583276 
L 198.055881 -199.404743 
L 198.665828 -207.096779 
L 199.275775 -269.561582 
L 199.885722 -269.895716 
L 200.495669 -270.196771 
L 201.105617 -270.199387 
L 201.715564 -270.416881 
L 202.325511 -269.899379 
L 202.935458 -196.315312 
L 203.545405 -187.204514 
L 204.155352 -183.744855 
L 204.7653 -186.011793 
L 205.375247 -180.197176 
L 205.985194 -184.772415 
L 206.595141 -188.233218 
L 207.205088 -184.856846 
L 207.815035 -188.475978 
L 208.424983 -179.163711 
L 209.03493 -204.732058 
L 209.644877 -201.052822 
L 210.254824 -204.449786 
L 210.864771 -201.037723 
L 211.474718 -204.5199 
L 212.084666 -181.865883 
L 212.694613 -241.321031 
L 213.30456 -234.525097 
L 213.914507 -188.13388 
L 214.524454 -203.087593 
L 215.134401 -188.58988 
L 215.744349 -203.096201 
L 216.354296 -270.41372 
L 216.964243 -270.416927 
L 217.57419 -270.416644 
L 218.184137 -189.318214 
L 218.794084 -190.857292 
L 219.404032 -189.592426 
L 220.013979 -192.606795 
L 220.623926 -192.419035 
L 221.233873 -197.767621 
L 221.84382 -197.787941 
L 222.453767 -200.994012 
L 223.063715 -201.970465 
L 223.673662 -270.417498 
L 224.283609 -236.114647 
L 224.893556 -216.267123 
L 225.503503 -174.337909 
L 226.11345 -180.185582 
L 226.723398 -190.932421 
L 227.333345 -190.120984 
L 227.943292 -191.625403 
L 228.553239 -256.913738 
L 229.163186 -270.47336 
L 229.773133 -270.458254 
L 230.383081 -270.482368 
L 230.993028 -202.818474 
L 231.602975 -189.401448 
L 232.212922 -183.16602 
L 232.822869 -184.514509 
L 233.432816 -184.509351 
L 234.042764 -193.701299 
L 234.652711 -193.684573 
L 235.262658 -203.942247 
L 235.872605 -204.381184 
L 236.482552 -204.365196 
L 237.092499 -204.364261 
L 237.702447 -270.386865 
L 238.312394 -270.385944 
L 238.922341 -189.19018 
L 239.532288 -194.928404 
L 240.142235 -200.99394 
L 240.752182 -265.582153 
L 241.36213 -201.798277 
L 241.972077 -204.788685 
L 242.582024 -270.453834 
L 243.191971 -270.48879 
L 243.801918 -270.484503 
L 244.411865 -270.489608 
L 245.021813 -270.489533 
L 245.63176 -270.485503 
L 246.241707 -270.487445 
L 246.851654 -270.479725 
L 247.461601 -270.482919 
L 248.071548 -270.485257 
L 248.681496 -270.48599 
L 249.291443 -270.489116 
L 249.90139 -193.678979 
L 250.511337 -195.163772 
L 251.121284 -199.926204 
L 251.731231 -204.923309 
L 252.341179 -201.891415 
L 252.951126 -270.479352 
L 253.561073 -270.484165 
L 254.17102 -270.489003 
L 254.780967 -270.486355 
L 255.390914 -188.482362 
L 256.000862 -188.431142 
L 256.610809 -182.440819 
L 257.220756 -195.689153 
L 257.830703 -204.823652 
L 258.44065 -202.203388 
L 259.050597 -193.572924 
L 259.660545 -178.408569 
L 260.270492 -183.519475 
L 260.880439 -198.247368 
L 261.490386 -205.29964 
L 262.100333 -184.814263 
L 262.71028 -173.394711 
L 263.320228 -191.632982 
L 263.930175 -192.65511 
L 264.540122 -204.582972 
L 265.150069 -193.108357 
L 265.760016 -203.453218 
L 266.369963 -265.176714 
L 266.979911 -204.706584 
L 267.589858 -203.323289 
L 268.199805 -189.748438 
L 268.809752 -183.004989 
L 269.419699 -179.165423 
L 270.029646 -171.723913 
L 270.639594 -196.356045 
L 271.249541 -191.69627 
L 271.859488 -175.133218 
L 272.469435 -197.784889 
L 273.079382 -196.866742 
L 273.689329 -190.181348 
L 274.299277 -204.692677 
L 274.909224 -196.289714 
L 275.519171 -191.540389 
L 276.129118 -178.168132 
L 276.739065 -191.880676 
L 277.349012 -193.083489 
L 277.95896 -172.896109 
L 278.568907 -166.667293 
L 279.178854 -178.266755 
L 279.788801 -182.978699 
L 280.398748 -180.321532 
L 281.008695 -177.976624 
L 281.618643 -184.341905 
L 282.22859 -184.042836 
L 282.838537 -189.834269 
L 283.448484 -189.426371 
L 284.058431 -187.26059 
L 284.668378 -224.646286 
L 285.278326 -196.259518 
L 285.888273 -204.71435 
L 286.49822 -212.908403 
L 287.108167 -177.09161 
L 287.718114 -204.86216 
L 288.328061 -198.597477 
L 288.938009 -250.123015 
L 289.547956 -269.742299 
L 290.157903 -270.486409 
L 290.76785 -269.744345 
L 291.377797 -270.467463 
L 291.987744 -194.43714 
L 292.597692 -266.019753 
L 293.207639 -195.028544 
L 293.817586 -270.485819 
L 294.427533 -270.314532 
L 295.03748 -270.32884 
L 295.647427 -270.487091 
L 296.257375 -233.198611 
L 296.867322 -205.347214 
L 297.477269 -235.93994 
L 298.087216 -195.334213 
L 298.697163 -221.290287 
L 299.30711 -204.766152 
L 299.917058 -201.363553 
L 300.527005 -187.13594 
L 301.136952 -199.164507 
L 301.746899 -195.935486 
L 302.356846 -186.175544 
L 302.966793 -189.433596 
L 303.576741 -177.977048 
L 304.186688 -192.234311 
L 304.796635 -183.679387 
L 305.406582 -188.607557 
L 306.016529 -184.740025 
L 306.626476 -185.336298 
L 307.236424 -181.712337 
L 307.846371 -179.715277 
L 308.456318 -181.441455 
L 309.066265 -200.261713 
L 309.676212 -202.166005 
L 310.286159 -199.799595 
L 310.896107 -199.030078 
L 311.506054 -200.423325 
L 312.116001 -184.431826 
L 312.725948 -181.957405 
L 313.335895 -194.6594 
L 313.945842 -194.680417 
L 314.55579 -194.661509 
L 315.165737 -194.21682 
L 315.775684 -200.144573 
L 316.385631 -190.365381 
L 316.995578 -270.18481 
L 317.605525 -270.110899 
L 318.215473 -192.958723 
L 318.82542 -204.455479 
L 319.435367 -205.233157 
L 320.045314 -180.646337 
L 320.655261 -193.564294 
L 321.265208 -202.694524 
L 321.875156 -194.352421 
L 322.485103 -196.361048 
L 323.09505 -193.47547 
L 323.704997 -198.282441 
L 324.314944 -205.301829 
L 324.924891 -213.090726 
L 325.534839 -209.156219 
L 326.144786 -205.991729 
L 326.754733 -184.529768 
L 327.36468 -190.800503 
L 327.974627 -195.189614 
L 328.584574 -181.800451 
L 329.194522 -202.917679 
L 329.804469 -204.626663 
L 330.414416 -202.906793 
L 331.024363 -203.211047 
L 331.63431 -203.962264 
L 332.244257 -205.305575 
L 332.854205 -202.886659 
L 333.464152 -202.573967 
L 334.074099 -201.175359 
L 334.684046 -253.394485 
L 335.293993 -205.03286 
L 335.90394 -194.712369 
L 336.513888 -191.049339 
L 337.123835 -188.794165 
L 337.733782 -188.720976 
L 338.343729 -192.523145 
L 338.953676 -196.641891 
L 339.563623 -205.171494 
L 340.173571 -270.653787 
L 340.783518 -270.653357 
L 341.393465 -253.934113 
L 342.003412 -270.654682 
L 342.613359 -270.740432 
L 343.223306 -193.646094 
L 343.833254 -196.228359 
L 344.443201 -185.652611 
L 345.053148 -187.24128 
L 345.663095 -180.719411 
L 346.273042 -184.285532 
L 346.88299 -203.141794 
L 347.492937 -239.330662 
L 348.102884 -205.122462 
L 348.712831 -187.796274 
L 349.322778 -188.664862 
L 349.932725 -199.298435 
L 350.542673 -181.261017 
L 351.15262 -199.34582 
L 351.762567 -197.077858 
L 352.372514 -195.826597 
L 352.982461 -197.798121 
L 353.592408 -185.344743 
L 354.202356 -198.318655 
L 354.812303 -204.660717 
L 355.42225 -242.834802 
L 356.032197 -205.39336 
L 356.642144 -243.419521 
L 357.252091 -204.489867 
L 357.862039 -270.760036 
L 358.471986 -269.87737 
L 359.081933 -202.104845 
L 359.69188 -201.984714 
L 360.301827 -203.644986 
L 360.911774 -205.667232 
L 361.521722 -270.753554 
L 362.131669 -270.768452 
L 362.741616 -270.768693 
L 363.351563 -270.768922 
L 363.96151 -270.722978 
L 364.571457 -269.877075 
L 365.181405 -175.523658 
L 365.791352 -199.554574 
L 366.401299 -200.707937 
L 367.011246 -270.663468 
L 367.621193 -205.780583 
L 367.621193 -271.130445 
L 367.621193 -271.130445 
L 367.011246 -271.133064 
L 366.401299 -271.127802 
L 365.791352 -271.131356 
L 365.181405 -271.129552 
L 364.571457 -271.127855 
L 363.96151 -271.132863 
L 363.351563 -271.131365 
L 362.741616 -271.128249 
L 362.131669 -271.128744 
L 361.521722 -271.129635 
L 360.911774 -271.129388 
L 360.301827 -271.127608 
L 359.69188 -271.12919 
L 359.081933 -271.127639 
L 358.471986 -271.12799 
L 357.862039 -271.134585 
L 357.252091 -271.284947 
L 356.642144 -271.27788 
L 356.032197 -271.126875 
L 355.42225 -271.126074 
L 354.812303 -271.06346 
L 354.202356 -271.062133 
L 353.592408 -271.060634 
L 352.982461 -270.827471 
L 352.372514 -270.827705 
L 351.762567 -270.827932 
L 351.15262 -270.824012 
L 350.542673 -270.830002 
L 349.932725 -270.818731 
L 349.322778 -270.816434 
L 348.712831 -270.812438 
L 348.102884 -270.813734 
L 347.492937 -270.821301 
L 346.88299 -270.809986 
L 346.273042 -270.815199 
L 345.663095 -270.829165 
L 345.053148 -270.816213 
L 344.443201 -270.827671 
L 343.833254 -270.811829 
L 343.223306 -270.818529 
L 342.613359 -270.820006 
L 342.003412 -270.821212 
L 341.393465 -270.82519 
L 340.783518 -270.820678 
L 340.173571 -270.839089 
L 339.563623 -270.822812 
L 338.953676 -270.817666 
L 338.343729 -270.826471 
L 337.733782 -270.844099 
L 337.123835 -270.813095 
L 336.513888 -270.824853 
L 335.90394 -270.823464 
L 335.293993 -270.813451 
L 334.684046 -270.829417 
L 334.074099 -270.817436 
L 333.464152 -270.831163 
L 332.854205 -270.824678 
L 332.244257 -270.825154 
L 331.63431 -270.816964 
L 331.024363 -270.814931 
L 330.414416 -270.816464 
L 329.804469 -270.81118 
L 329.194522 -270.813217 
L 328.584574 -270.826787 
L 327.974627 -270.814259 
L 327.36468 -270.811362 
L 326.754733 -270.808208 
L 326.144786 -270.821254 
L 325.534839 -270.821367 
L 324.924891 -270.819794 
L 324.314944 -270.812404 
L 323.704997 -270.814178 
L 323.09505 -270.809755 
L 322.485103 -270.826 
L 321.875156 -270.820735 
L 321.265208 -270.820662 
L 320.655261 -270.824083 
L 320.045314 -270.812359 
L 319.435367 -270.808922 
L 318.82542 -270.815364 
L 318.215473 -270.82223 
L 317.605525 -270.808139 
L 316.995578 -270.811861 
L 316.385631 -270.810285 
L 315.775684 -270.813965 
L 315.165737 -270.818201 
L 314.55579 -270.814064 
L 313.945842 -270.807361 
L 313.335895 -270.835863 
L 312.725948 -270.815219 
L 312.116001 -270.814838 
L 311.506054 -270.807322 
L 310.896107 -270.807762 
L 310.286159 -270.800321 
L 309.676212 -270.744977 
L 309.066265 -270.746761 
L 308.456318 -270.758916 
L 307.846371 -270.740804 
L 307.236424 -270.740795 
L 306.626476 -270.551052 
L 306.016529 -270.553771 
L 305.406582 -270.546232 
L 304.796635 -270.54697 
L 304.186688 -270.557818 
L 303.576741 -270.557603 
L 302.966793 -270.539319 
L 302.356846 -270.539283 
L 301.746899 -270.561291 
L 301.136952 -270.651762 
L 300.527005 -270.549765 
L 299.917058 -270.537702 
L 299.30711 -270.560053 
L 298.697163 -270.55089 
L 298.087216 -270.548459 
L 297.477269 -270.540261 
L 296.867322 -270.544747 
L 296.257375 -270.537044 
L 295.647427 -270.536466 
L 295.03748 -270.554285 
L 294.427533 -270.535642 
L 293.817586 -270.536491 
L 293.207639 -270.504178 
L 292.597692 -270.500453 
L 291.987744 -270.555334 
L 291.377797 -270.50017 
L 290.76785 -270.523214 
L 290.157903 -270.510675 
L 289.547956 -270.519419 
L 288.938009 -270.496727 
L 288.328061 -270.508042 
L 287.718114 -270.499853 
L 287.108167 -270.514451 
L 286.49822 -270.499051 
L 285.888273 -270.507981 
L 285.278326 -270.502953 
L 284.668378 -270.50171 
L 284.058431 -270.506078 
L 283.448484 -270.496617 
L 282.838537 -270.539187 
L 282.22859 -270.52364 
L 281.618643 -270.537056 
L 281.008695 -270.510101 
L 280.398748 -270.504368 
L 279.788801 -270.502395 
L 279.178854 -270.500583 
L 278.568907 -270.496101 
L 277.95896 -270.507353 
L 277.349012 -270.508181 
L 276.739065 -270.496299 
L 276.129118 -270.495854 
L 275.519171 -270.496579 
L 274.909224 -270.502178 
L 274.299277 -270.511595 
L 273.689329 -270.507387 
L 273.079382 -270.498571 
L 272.469435 -270.497627 
L 271.859488 -270.497362 
L 271.249541 -270.514472 
L 270.639594 -270.502992 
L 270.029646 -270.514545 
L 269.419699 -270.500242 
L 268.809752 -270.64193 
L 268.199805 -270.499033 
L 267.589858 -270.496397 
L 266.979911 -270.530389 
L 266.369963 -270.5084 
L 265.760016 -270.498224 
L 265.150069 -270.505552 
L 264.540122 -270.516704 
L 263.930175 -270.50638 
L 263.320228 -270.498716 
L 262.71028 -270.520496 
L 262.100333 -270.509324 
L 261.490386 -270.520855 
L 260.880439 -272.4675 
L 260.270492 -270.617274 
L 259.660545 -270.516765 
L 259.050597 -270.500542 
L 258.44065 -270.50637 
L 257.830703 -270.504057 
L 257.220756 -270.49862 
L 256.610809 -270.514122 
L 256.000862 -270.499031 
L 255.390914 -270.49746 
L 254.780967 -270.508333 
L 254.17102 -270.515073 
L 253.561073 -270.495934 
L 252.951126 -270.515853 
L 252.341179 -270.496908 
L 251.731231 -270.510156 
L 251.121284 -270.505857 
L 250.511337 -270.495714 
L 249.90139 -270.500925 
L 249.291443 -270.496992 
L 248.681496 -270.599192 
L 248.071548 -270.515483 
L 247.461601 -270.497897 
L 246.851654 -270.497833 
L 246.241707 -270.498646 
L 245.63176 -270.505558 
L 245.021813 -270.496232 
L 244.411865 -270.507978 
L 243.801918 -270.512521 
L 243.191971 -270.507725 
L 242.582024 -270.497451 
L 241.972077 -270.50811 
L 241.36213 -270.496664 
L 240.752182 -270.497831 
L 240.142235 -270.496527 
L 239.532288 -270.496332 
L 238.922341 -270.508093 
L 238.312394 -270.508756 
L 237.702447 -270.511576 
L 237.092499 -270.503405 
L 236.482552 -270.505643 
L 235.872605 -270.497568 
L 235.262658 -270.507645 
L 234.652711 -270.503855 
L 234.042764 -270.495957 
L 233.432816 -270.513518 
L 232.822869 -270.496004 
L 232.212922 -270.51054 
L 231.602975 -270.508622 
L 230.993028 -270.515 
L 230.383081 -270.512253 
L 229.773133 -270.537744 
L 229.163186 -270.505106 
L 228.553239 -270.507999 
L 227.943292 -270.505266 
L 227.333345 -270.499297 
L 226.723398 -270.499001 
L 226.11345 -270.507055 
L 225.503503 -270.502516 
L 224.893556 -270.499984 
L 224.283609 -270.511592 
L 223.673662 -270.523814 
L 223.063715 -270.501047 
L 222.453767 -270.498639 
L 221.84382 -270.513592 
L 221.233873 -270.496803 
L 220.623926 -270.496536 
L 220.013979 -270.499251 
L 219.404032 -270.50868 
L 218.794084 -270.520401 
L 218.184137 -270.511559 
L 217.57419 -270.528985 
L 216.964243 -270.499109 
L 216.354296 -270.497852 
L 215.744349 -270.502867 
L 215.134401 -270.515223 
L 214.524454 -270.495849 
L 213.914507 -270.496129 
L 213.30456 -270.496802 
L 212.694613 -270.505496 
L 212.084666 -270.505475 
L 211.474718 -270.513799 
L 210.864771 -270.496473 
L 210.254824 -270.496888 
L 209.644877 -270.495735 
L 209.03493 -270.496006 
L 208.424983 -270.501494 
L 207.815035 -270.529288 
L 207.205088 -270.495698 
L 206.595141 -270.510807 
L 205.985194 -270.542394 
L 205.375247 -270.554892 
L 204.7653 -270.495451 
L 204.155352 -270.496556 
L 203.545405 -270.49638 
L 202.935458 -270.499911 
L 202.325511 -270.496186 
L 201.715564 -270.505329 
L 201.105617 -270.536034 
L 200.495669 -270.496152 
L 199.885722 -270.515406 
L 199.275775 -270.504236 
L 198.665828 -270.496353 
L 198.055881 -270.49758 
L 197.445934 -270.499581 
L 196.835986 -270.496711 
L 196.226039 -270.495757 
L 195.616092 -270.498653 
L 195.006145 -270.496136 
L 194.396198 -270.497306 
L 193.786251 -270.524577 
L 193.176303 -270.495712 
L 192.566356 -270.494784 
L 191.956409 -270.4948 
L 191.346462 -270.49504 
L 190.736515 -270.492821 
L 190.126568 -270.490758 
L 189.51662 -270.451341 
L 188.906673 -270.425771 
L 188.296726 -270.440371 
L 187.686779 -270.44148 
L 187.076832 -270.436858 
L 186.466885 -270.428949 
L 185.856937 -270.436003 
L 185.24699 -270.424027 
L 184.637043 -270.434197 
L 184.027096 -270.452219 
L 183.417149 -270.426204 
L 182.807202 -270.422256 
L 182.197254 -270.437158 
L 181.587307 -270.454093 
L 180.97736 -270.422729 
L 180.367413 -270.42265 
L 179.757466 -270.423503 
L 179.147519 -270.421222 
L 178.537571 -270.435027 
L 177.927624 -270.429557 
L 177.317677 -270.440523 
L 176.70773 -270.440679 
L 176.097783 -270.436854 
L 175.487836 -270.424579 
L 174.877888 -270.435584 
L 174.267941 -270.436968 
L 173.657994 -270.432217 
L 173.048047 -270.441245 
L 172.4381 -270.430098 
L 171.828153 -270.424573 
L 171.218205 -270.430796 
L 170.608258 -270.422507 
L 169.998311 -270.424961 
L 169.388364 -270.426508 
L 168.778417 -270.438848 
L 168.16847 -270.434064 
L 167.558522 -270.4285 
L 166.948575 -270.440492 
L 166.338628 -270.425752 
L 165.728681 -270.426647 
L 165.118734 -270.420597 
L 164.508787 -270.426323 
L 163.898839 -270.425666 
L 163.288892 -270.43211 
L 162.678945 -270.427223 
L 162.068998 -270.427293 
L 161.459051 -270.4224 
L 160.849104 -270.441709 
L 160.239156 -270.433273 
L 159.629209 -270.428014 
L 159.019262 -270.427401 
L 158.409315 -270.465293 
L 157.799368 -270.44227 
L 157.189421 -270.423936 
L 156.579473 -270.426721 
L 155.969526 -270.501694 
L 155.359579 -270.420192 
L 154.749632 -270.440248 
L 154.139685 -270.424342 
L 153.529738 -270.436232 
L 152.91979 -270.422932 
L 152.309843 -270.424002 
L 151.699896 -270.424305 
L 151.089949 -270.421581 
L 150.480002 -270.422654 
L 149.870055 -270.450989 
L 149.260107 -270.43322 
L 148.65016 -270.429295 
L 148.040213 -270.423852 
L 147.430266 -270.440229 
L 146.820319 -270.423132 
L 146.210372 -270.436742 
L 145.600424 -270.440727 
L 144.990477 -270.425682 
L 144.38053 -270.42425 
L 143.770583 -270.426836 
L 143.160636 -270.426897 
L 142.550689 -270.420454 
L 141.940741 -270.421773 
L 141.330794 -270.420477 
L 140.720847 -270.419343 
L 140.1109 -270.418645 
L 139.500953 -270.418552 
L 138.891006 -270.418348 
L 138.281058 -270.426235 
L 137.671111 -270.227086 
L 137.061164 -270.22723 
L 136.451217 -270.093376 
L 135.84127 -269.725458 
L 135.231323 -269.724678 
L 134.621375 -269.723998 
L 134.011428 -269.724828 
L 133.401481 -269.357072 
L 132.791534 -269.342903 
L 132.181587 -269.3326 
L 131.57164 -269.333204 
L 130.961692 -269.333864 
L 130.351745 -269.333538 
L 129.741798 -269.335071 
L 129.131851 -269.334853 
L 128.521904 -269.334923 
L 127.911957 -269.331901 
L 127.302009 -269.337947 
L 126.692062 -269.335075 
L 126.082115 -269.332593 
L 125.472168 -269.332458 
L 124.862221 -269.33191 
L 124.252274 -269.331609 
L 123.642326 -269.332341 
L 123.032379 -269.334566 
L 122.422432 -269.310111 
L 121.812485 -269.31008 
L 121.202538 -269.308677 
L 120.592591 -269.139275 
L 119.982643 -269.140843 
L 119.372696 -269.142732 
L 118.762749 -269.139693 
L 118.152802 -269.141483 
L 117.542855 -269.142551 
L 116.932908 -269.141069 
L 116.32296 -269.140558 
L 115.713013 -269.137373 
L 115.103066 -268.973302 
L 114.493119 -268.721987 
L 113.883172 -268.721473 
L 113.273225 -268.721667 
L 112.663277 -268.476811 
L 112.05333 -268.478358 
L 111.443383 -268.476118 
L 110.833436 -268.482843 
L 110.223489 -268.87416 
L 109.613542 -268.477976 
L 109.003594 -268.475554 
L 108.393647 -268.477499 
L 107.7837 -268.477112 
L 107.173753 -268.476054 
L 106.563806 -268.475582 
L 105.953859 -268.475085 
L 105.343911 -268.475543 
L 104.733964 -268.475284 
L 104.124017 -268.475744 
L 103.51407 -268.475513 
L 102.904123 -268.474535 
L 102.294176 -268.474695 
L 101.684228 -268.472726 
L 101.074281 -267.031216 
L 100.464334 -267.030766 
L 99.854387 -267.031173 
L 99.24444 -267.029804 
L 98.634493 -267.031136 
L 98.024545 -267.029753 
L 97.414598 -267.030051 
L 96.804651 -267.031544 
L 96.194704 -267.032534 
L 95.584757 -267.029999 
L 94.97481 -267.029051 
L 94.364862 -267.030783 
L 93.754915 -267.030211 
L 93.144968 -267.029824 
L 92.535021 -267.030257 
L 91.925074 -267.030557 
L 91.315127 -267.030822 
L 90.705179 -267.031939 
L 90.095232 -267.031105 
L 89.485285 -267.030496 
L 88.875338 -267.028889 
L 88.265391 -262.860155 
L 87.655444 -262.858254 
L 87.045496 -262.859634 
L 86.435549 -262.858152 
L 85.825602 -262.126321 
L 85.215655 -262.126066 
L 84.605708 -261.84196 
L 83.99576 -261.842345 
L 83.385813 -261.842377 
L 82.775866 -261.842423 
L 82.165919 -261.842092 
L 81.555972 -261.841043 
L 80.946025 -261.839442 
L 80.336077 -261.83908 
L 79.72613 -261.839844 
L 79.116183 -261.839922 
L 78.506236 -261.838987 
L 77.896289 -261.841145 
L 77.286342 -261.839869 
L 76.676394 -261.840151 
L 76.066447 -261.836451 
L 75.4565 -261.841223 
L 74.846553 -261.839671 
L 74.236606 -257.586513 
L 73.626659 -257.58332 
L 73.016711 -257.587853 
L 72.406764 -257.583279 
L 71.796817 -257.58573 
L 71.18687 -257.586664 
L 70.576923 -257.587247 
L 69.966976 -257.583505 
L 69.357028 -257.58296 
L 68.747081 -257.588075 
L 68.137134 -246.241383 
L 67.527187 -246.240765 
L 66.91724 -246.239644 
L 66.307293 -246.242959 
L 65.697345 -230.680637 
L 65.087398 -230.678119 
L 64.477451 -230.675314 
L 63.867504 -230.680039 
L 63.257557 -230.677845 
z
" style="stroke: #0000ff; stroke-opacity: 0.2"/>
    </defs>
    <g clip-path="url(#p7adb3b08de)">
     <use xlink:href="#md13acc8d68" x="0" y="287.4075" style="fill: #0000ff; fill-opacity: 0.2; stroke: #0000ff; stroke-opacity: 0.2"/>
    </g>
   </g>
   <g id="matplotlib.axis_1">
    <g id="xtick_1">
     <g id="line2d_1">
      <path d="M 63.257557 253.08 
L 63.257557 3.6 
" clip-path="url(#p7adb3b08de)" style="fill: none; stroke: #b0b0b0; stroke-width: 0.5; stroke-linecap: square"/>
     </g>
     <g id="line2d_2">
      <defs>
       <path id="m82fa716bc0" d="M 0 0 
L 0 -3 
" style="stroke: #000000; stroke-width: 0.5"/>
      </defs>
      <g>
       <use xlink:href="#m82fa716bc0" x="63.257557" y="253.08" style="stroke: #000000; stroke-width: 0.5"/>
      </g>
     </g>
     <g id="line2d_3">
      <defs>
       <path id="mc19aa4edb9" d="M 0 0 
L 0 3 
" style="stroke: #000000; stroke-width: 0.5"/>
      </defs>
      <g>
       <use xlink:href="#mc19aa4edb9" x="63.257557" y="3.6" style="stroke: #000000; stroke-width: 0.5"/>
      </g>
     </g>
     <g id="text_1">
      <!-- 0 -->
      <g transform="translate(59.440057 265.698125) scale(0.12 -0.12)">
       <defs>
        <path id="DejaVuSans-30" d="M 2034 4250 
Q 1547 4250 1301 3770 
Q 1056 3291 1056 2328 
Q 1056 1369 1301 889 
Q 1547 409 2034 409 
Q 2525 409 2770 889 
Q 3016 1369 3016 2328 
Q 3016 3291 2770 3770 
Q 2525 4250 2034 4250 
z
M 2034 4750 
Q 2819 4750 3233 4129 
Q 3647 3509 3647 2328 
Q 3647 1150 3233 529 
Q 2819 -91 2034 -91 
Q 1250 -91 836 529 
Q 422 1150 422 2328 
Q 422 3509 836 4129 
Q 1250 4750 2034 4750 
z
" transform="scale(0.015625)"/>
       </defs>
       <use xlink:href="#DejaVuSans-30"/>
      </g>
     </g>
    </g>
    <g id="xtick_2">
     <g id="line2d_4">
      <path d="M 124.252274 253.08 
L 124.252274 3.6 
" clip-path="url(#p7adb3b08de)" style="fill: none; stroke: #b0b0b0; stroke-width: 0.5; stroke-linecap: square"/>
     </g>
     <g id="line2d_5">
      <g>
       <use xlink:href="#m82fa716bc0" x="124.252274" y="253.08" style="stroke: #000000; stroke-width: 0.5"/>
      </g>
     </g>
     <g id="line2d_6">
      <g>
       <use xlink:href="#mc19aa4edb9" x="124.252274" y="3.6" style="stroke: #000000; stroke-width: 0.5"/>
      </g>
     </g>
     <g id="text_2">
      <!-- 100 -->
      <g transform="translate(112.799774 265.698125) scale(0.12 -0.12)">
       <defs>
        <path id="DejaVuSans-31" d="M 794 531 
L 1825 531 
L 1825 4091 
L 703 3866 
L 703 4441 
L 1819 4666 
L 2450 4666 
L 2450 531 
L 3481 531 
L 3481 0 
L 794 0 
L 794 531 
z
" transform="scale(0.015625)"/>
       </defs>
       <use xlink:href="#DejaVuSans-31"/>
       <use xlink:href="#DejaVuSans-30" x="63.623047"/>
       <use xlink:href="#DejaVuSans-30" x="127.246094"/>
      </g>
     </g>
    </g>
    <g id="xtick_3">
     <g id="line2d_7">
      <path d="M 185.24699 253.08 
L 185.24699 3.6 
" clip-path="url(#p7adb3b08de)" style="fill: none; stroke: #b0b0b0; stroke-width: 0.5; stroke-linecap: square"/>
     </g>
     <g id="line2d_8">
      <g>
       <use xlink:href="#m82fa716bc0" x="185.24699" y="253.08" style="stroke: #000000; stroke-width: 0.5"/>
      </g>
     </g>
     <g id="line2d_9">
      <g>
       <use xlink:href="#mc19aa4edb9" x="185.24699" y="3.6" style="stroke: #000000; stroke-width: 0.5"/>
      </g>
     </g>
     <g id="text_3">
      <!-- 200 -->
      <g transform="translate(173.79449 265.698125) scale(0.12 -0.12)">
       <defs>
        <path id="DejaVuSans-32" d="M 1228 531 
L 3431 531 
L 3431 0 
L 469 0 
L 469 531 
Q 828 903 1448 1529 
Q 2069 2156 2228 2338 
Q 2531 2678 2651 2914 
Q 2772 3150 2772 3378 
Q 2772 3750 2511 3984 
Q 2250 4219 1831 4219 
Q 1534 4219 1204 4116 
Q 875 4013 500 3803 
L 500 4441 
Q 881 4594 1212 4672 
Q 1544 4750 1819 4750 
Q 2544 4750 2975 4387 
Q 3406 4025 3406 3419 
Q 3406 3131 3298 2873 
Q 3191 2616 2906 2266 
Q 2828 2175 2409 1742 
Q 1991 1309 1228 531 
z
" transform="scale(0.015625)"/>
       </defs>
       <use xlink:href="#DejaVuSans-32"/>
       <use xlink:href="#DejaVuSans-30" x="63.623047"/>
       <use xlink:href="#DejaVuSans-30" x="127.246094"/>
      </g>
     </g>
    </g>
    <g id="xtick_4">
     <g id="line2d_10">
      <path d="M 246.241707 253.08 
L 246.241707 3.6 
" clip-path="url(#p7adb3b08de)" style="fill: none; stroke: #b0b0b0; stroke-width: 0.5; stroke-linecap: square"/>
     </g>
     <g id="line2d_11">
      <g>
       <use xlink:href="#m82fa716bc0" x="246.241707" y="253.08" style="stroke: #000000; stroke-width: 0.5"/>
      </g>
     </g>
     <g id="line2d_12">
      <g>
       <use xlink:href="#mc19aa4edb9" x="246.241707" y="3.6" style="stroke: #000000; stroke-width: 0.5"/>
      </g>
     </g>
     <g id="text_4">
      <!-- 300 -->
      <g transform="translate(234.789207 265.698125) scale(0.12 -0.12)">
       <defs>
        <path id="DejaVuSans-33" d="M 2597 2516 
Q 3050 2419 3304 2112 
Q 3559 1806 3559 1356 
Q 3559 666 3084 287 
Q 2609 -91 1734 -91 
Q 1441 -91 1130 -33 
Q 819 25 488 141 
L 488 750 
Q 750 597 1062 519 
Q 1375 441 1716 441 
Q 2309 441 2620 675 
Q 2931 909 2931 1356 
Q 2931 1769 2642 2001 
Q 2353 2234 1838 2234 
L 1294 2234 
L 1294 2753 
L 1863 2753 
Q 2328 2753 2575 2939 
Q 2822 3125 2822 3475 
Q 2822 3834 2567 4026 
Q 2313 4219 1838 4219 
Q 1578 4219 1281 4162 
Q 984 4106 628 3988 
L 628 4550 
Q 988 4650 1302 4700 
Q 1616 4750 1894 4750 
Q 2613 4750 3031 4423 
Q 3450 4097 3450 3541 
Q 3450 3153 3228 2886 
Q 3006 2619 2597 2516 
z
" transform="scale(0.015625)"/>
       </defs>
       <use xlink:href="#DejaVuSans-33"/>
       <use xlink:href="#DejaVuSans-30" x="63.623047"/>
       <use xlink:href="#DejaVuSans-30" x="127.246094"/>
      </g>
     </g>
    </g>
    <g id="xtick_5">
     <g id="line2d_13">
      <path d="M 307.236424 253.08 
L 307.236424 3.6 
" clip-path="url(#p7adb3b08de)" style="fill: none; stroke: #b0b0b0; stroke-width: 0.5; stroke-linecap: square"/>
     </g>
     <g id="line2d_14">
      <g>
       <use xlink:href="#m82fa716bc0" x="307.236424" y="253.08" style="stroke: #000000; stroke-width: 0.5"/>
      </g>
     </g>
     <g id="line2d_15">
      <g>
       <use xlink:href="#mc19aa4edb9" x="307.236424" y="3.6" style="stroke: #000000; stroke-width: 0.5"/>
      </g>
     </g>
     <g id="text_5">
      <!-- 400 -->
      <g transform="translate(295.783924 265.698125) scale(0.12 -0.12)">
       <defs>
        <path id="DejaVuSans-34" d="M 2419 4116 
L 825 1625 
L 2419 1625 
L 2419 4116 
z
M 2253 4666 
L 3047 4666 
L 3047 1625 
L 3713 1625 
L 3713 1100 
L 3047 1100 
L 3047 0 
L 2419 0 
L 2419 1100 
L 313 1100 
L 313 1709 
L 2253 4666 
z
" transform="scale(0.015625)"/>
       </defs>
       <use xlink:href="#DejaVuSans-34"/>
       <use xlink:href="#DejaVuSans-30" x="63.623047"/>
       <use xlink:href="#DejaVuSans-30" x="127.246094"/>
      </g>
     </g>
    </g>
    <g id="xtick_6">
     <g id="line2d_16">
      <path d="M 368.23114 253.08 
L 368.23114 3.6 
" clip-path="url(#p7adb3b08de)" style="fill: none; stroke: #b0b0b0; stroke-width: 0.5; stroke-linecap: square"/>
     </g>
     <g id="line2d_17">
      <g>
       <use xlink:href="#m82fa716bc0" x="368.23114" y="253.08" style="stroke: #000000; stroke-width: 0.5"/>
      </g>
     </g>
     <g id="line2d_18">
      <g>
       <use xlink:href="#mc19aa4edb9" x="368.23114" y="3.6" style="stroke: #000000; stroke-width: 0.5"/>
      </g>
     </g>
     <g id="text_6">
      <!-- 500 -->
      <g transform="translate(356.77864 265.698125) scale(0.12 -0.12)">
       <defs>
        <path id="DejaVuSans-35" d="M 691 4666 
L 3169 4666 
L 3169 4134 
L 1269 4134 
L 1269 2991 
Q 1406 3038 1543 3061 
Q 1681 3084 1819 3084 
Q 2600 3084 3056 2656 
Q 3513 2228 3513 1497 
Q 3513 744 3044 326 
Q 2575 -91 1722 -91 
Q 1428 -91 1123 -41 
Q 819 9 494 109 
L 494 744 
Q 775 591 1075 516 
Q 1375 441 1709 441 
Q 2250 441 2565 725 
Q 2881 1009 2881 1497 
Q 2881 1984 2565 2268 
Q 2250 2553 1709 2553 
Q 1456 2553 1204 2497 
Q 953 2441 691 2322 
L 691 4666 
z
" transform="scale(0.015625)"/>
       </defs>
       <use xlink:href="#DejaVuSans-35"/>
       <use xlink:href="#DejaVuSans-30" x="63.623047"/>
       <use xlink:href="#DejaVuSans-30" x="127.246094"/>
      </g>
     </g>
    </g>
    <g id="xtick_7">
     <g id="line2d_19">
      <defs>
       <path id="mfbae597f60" d="M 0 0 
L 0 -1.5 
" style="stroke: #000000; stroke-width: 0.5"/>
      </defs>
      <g>
       <use xlink:href="#mfbae597f60" x="51.058613" y="253.08" style="stroke: #000000; stroke-width: 0.5"/>
      </g>
     </g>
     <g id="line2d_20">
      <defs>
       <path id="ma3350d2ac6" d="M 0 0 
L 0 1.5 
" style="stroke: #000000; stroke-width: 0.5"/>
      </defs>
      <g>
       <use xlink:href="#ma3350d2ac6" x="51.058613" y="3.6" style="stroke: #000000; stroke-width: 0.5"/>
      </g>
     </g>
    </g>
    <g id="xtick_8">
     <g id="line2d_21">
      <g>
       <use xlink:href="#mfbae597f60" x="75.4565" y="253.08" style="stroke: #000000; stroke-width: 0.5"/>
      </g>
     </g>
     <g id="line2d_22">
      <g>
       <use xlink:href="#ma3350d2ac6" x="75.4565" y="3.6" style="stroke: #000000; stroke-width: 0.5"/>
      </g>
     </g>
    </g>
    <g id="xtick_9">
     <g id="line2d_23">
      <g>
       <use xlink:href="#mfbae597f60" x="87.655444" y="253.08" style="stroke: #000000; stroke-width: 0.5"/>
      </g>
     </g>
     <g id="line2d_24">
      <g>
       <use xlink:href="#ma3350d2ac6" x="87.655444" y="3.6" style="stroke: #000000; stroke-width: 0.5"/>
      </g>
     </g>
    </g>
    <g id="xtick_10">
     <g id="line2d_25">
      <g>
       <use xlink:href="#mfbae597f60" x="99.854387" y="253.08" style="stroke: #000000; stroke-width: 0.5"/>
      </g>
     </g>
     <g id="line2d_26">
      <g>
       <use xlink:href="#ma3350d2ac6" x="99.854387" y="3.6" style="stroke: #000000; stroke-width: 0.5"/>
      </g>
     </g>
    </g>
    <g id="xtick_11">
     <g id="line2d_27">
      <g>
       <use xlink:href="#mfbae597f60" x="112.05333" y="253.08" style="stroke: #000000; stroke-width: 0.5"/>
      </g>
     </g>
     <g id="line2d_28">
      <g>
       <use xlink:href="#ma3350d2ac6" x="112.05333" y="3.6" style="stroke: #000000; stroke-width: 0.5"/>
      </g>
     </g>
    </g>
    <g id="xtick_12">
     <g id="line2d_29">
      <g>
       <use xlink:href="#mfbae597f60" x="136.451217" y="253.08" style="stroke: #000000; stroke-width: 0.5"/>
      </g>
     </g>
     <g id="line2d_30">
      <g>
       <use xlink:href="#ma3350d2ac6" x="136.451217" y="3.6" style="stroke: #000000; stroke-width: 0.5"/>
      </g>
     </g>
    </g>
    <g id="xtick_13">
     <g id="line2d_31">
      <g>
       <use xlink:href="#mfbae597f60" x="148.65016" y="253.08" style="stroke: #000000; stroke-width: 0.5"/>
      </g>
     </g>
     <g id="line2d_32">
      <g>
       <use xlink:href="#ma3350d2ac6" x="148.65016" y="3.6" style="stroke: #000000; stroke-width: 0.5"/>
      </g>
     </g>
    </g>
    <g id="xtick_14">
     <g id="line2d_33">
      <g>
       <use xlink:href="#mfbae597f60" x="160.849104" y="253.08" style="stroke: #000000; stroke-width: 0.5"/>
      </g>
     </g>
     <g id="line2d_34">
      <g>
       <use xlink:href="#ma3350d2ac6" x="160.849104" y="3.6" style="stroke: #000000; stroke-width: 0.5"/>
      </g>
     </g>
    </g>
    <g id="xtick_15">
     <g id="line2d_35">
      <g>
       <use xlink:href="#mfbae597f60" x="173.048047" y="253.08" style="stroke: #000000; stroke-width: 0.5"/>
      </g>
     </g>
     <g id="line2d_36">
      <g>
       <use xlink:href="#ma3350d2ac6" x="173.048047" y="3.6" style="stroke: #000000; stroke-width: 0.5"/>
      </g>
     </g>
    </g>
    <g id="xtick_16">
     <g id="line2d_37">
      <g>
       <use xlink:href="#mfbae597f60" x="197.445934" y="253.08" style="stroke: #000000; stroke-width: 0.5"/>
      </g>
     </g>
     <g id="line2d_38">
      <g>
       <use xlink:href="#ma3350d2ac6" x="197.445934" y="3.6" style="stroke: #000000; stroke-width: 0.5"/>
      </g>
     </g>
    </g>
    <g id="xtick_17">
     <g id="line2d_39">
      <g>
       <use xlink:href="#mfbae597f60" x="209.644877" y="253.08" style="stroke: #000000; stroke-width: 0.5"/>
      </g>
     </g>
     <g id="line2d_40">
      <g>
       <use xlink:href="#ma3350d2ac6" x="209.644877" y="3.6" style="stroke: #000000; stroke-width: 0.5"/>
      </g>
     </g>
    </g>
    <g id="xtick_18">
     <g id="line2d_41">
      <g>
       <use xlink:href="#mfbae597f60" x="221.84382" y="253.08" style="stroke: #000000; stroke-width: 0.5"/>
      </g>
     </g>
     <g id="line2d_42">
      <g>
       <use xlink:href="#ma3350d2ac6" x="221.84382" y="3.6" style="stroke: #000000; stroke-width: 0.5"/>
      </g>
     </g>
    </g>
    <g id="xtick_19">
     <g id="line2d_43">
      <g>
       <use xlink:href="#mfbae597f60" x="234.042764" y="253.08" style="stroke: #000000; stroke-width: 0.5"/>
      </g>
     </g>
     <g id="line2d_44">
      <g>
       <use xlink:href="#ma3350d2ac6" x="234.042764" y="3.6" style="stroke: #000000; stroke-width: 0.5"/>
      </g>
     </g>
    </g>
    <g id="xtick_20">
     <g id="line2d_45">
      <g>
       <use xlink:href="#mfbae597f60" x="258.44065" y="253.08" style="stroke: #000000; stroke-width: 0.5"/>
      </g>
     </g>
     <g id="line2d_46">
      <g>
       <use xlink:href="#ma3350d2ac6" x="258.44065" y="3.6" style="stroke: #000000; stroke-width: 0.5"/>
      </g>
     </g>
    </g>
    <g id="xtick_21">
     <g id="line2d_47">
      <g>
       <use xlink:href="#mfbae597f60" x="270.639594" y="253.08" style="stroke: #000000; stroke-width: 0.5"/>
      </g>
     </g>
     <g id="line2d_48">
      <g>
       <use xlink:href="#ma3350d2ac6" x="270.639594" y="3.6" style="stroke: #000000; stroke-width: 0.5"/>
      </g>
     </g>
    </g>
    <g id="xtick_22">
     <g id="line2d_49">
      <g>
       <use xlink:href="#mfbae597f60" x="282.838537" y="253.08" style="stroke: #000000; stroke-width: 0.5"/>
      </g>
     </g>
     <g id="line2d_50">
      <g>
       <use xlink:href="#ma3350d2ac6" x="282.838537" y="3.6" style="stroke: #000000; stroke-width: 0.5"/>
      </g>
     </g>
    </g>
    <g id="xtick_23">
     <g id="line2d_51">
      <g>
       <use xlink:href="#mfbae597f60" x="295.03748" y="253.08" style="stroke: #000000; stroke-width: 0.5"/>
      </g>
     </g>
     <g id="line2d_52">
      <g>
       <use xlink:href="#ma3350d2ac6" x="295.03748" y="3.6" style="stroke: #000000; stroke-width: 0.5"/>
      </g>
     </g>
    </g>
    <g id="xtick_24">
     <g id="line2d_53">
      <g>
       <use xlink:href="#mfbae597f60" x="319.435367" y="253.08" style="stroke: #000000; stroke-width: 0.5"/>
      </g>
     </g>
     <g id="line2d_54">
      <g>
       <use xlink:href="#ma3350d2ac6" x="319.435367" y="3.6" style="stroke: #000000; stroke-width: 0.5"/>
      </g>
     </g>
    </g>
    <g id="xtick_25">
     <g id="line2d_55">
      <g>
       <use xlink:href="#mfbae597f60" x="331.63431" y="253.08" style="stroke: #000000; stroke-width: 0.5"/>
      </g>
     </g>
     <g id="line2d_56">
      <g>
       <use xlink:href="#ma3350d2ac6" x="331.63431" y="3.6" style="stroke: #000000; stroke-width: 0.5"/>
      </g>
     </g>
    </g>
    <g id="xtick_26">
     <g id="line2d_57">
      <g>
       <use xlink:href="#mfbae597f60" x="343.833254" y="253.08" style="stroke: #000000; stroke-width: 0.5"/>
      </g>
     </g>
     <g id="line2d_58">
      <g>
       <use xlink:href="#ma3350d2ac6" x="343.833254" y="3.6" style="stroke: #000000; stroke-width: 0.5"/>
      </g>
     </g>
    </g>
    <g id="xtick_27">
     <g id="line2d_59">
      <g>
       <use xlink:href="#mfbae597f60" x="356.032197" y="253.08" style="stroke: #000000; stroke-width: 0.5"/>
      </g>
     </g>
     <g id="line2d_60">
      <g>
       <use xlink:href="#ma3350d2ac6" x="356.032197" y="3.6" style="stroke: #000000; stroke-width: 0.5"/>
      </g>
     </g>
    </g>
    <g id="xtick_28">
     <g id="line2d_61">
      <g>
       <use xlink:href="#mfbae597f60" x="380.430084" y="253.08" style="stroke: #000000; stroke-width: 0.5"/>
      </g>
     </g>
     <g id="line2d_62">
      <g>
       <use xlink:href="#ma3350d2ac6" x="380.430084" y="3.6" style="stroke: #000000; stroke-width: 0.5"/>
      </g>
     </g>
    </g>
    <g id="text_7">
     <!-- Generations -->
     <g transform="translate(178.842188 281.311875) scale(0.12 -0.12)">
      <defs>
       <path id="DejaVuSans-47" d="M 3809 666 
L 3809 1919 
L 2778 1919 
L 2778 2438 
L 4434 2438 
L 4434 434 
Q 4069 175 3628 42 
Q 3188 -91 2688 -91 
Q 1594 -91 976 548 
Q 359 1188 359 2328 
Q 359 3472 976 4111 
Q 1594 4750 2688 4750 
Q 3144 4750 3555 4637 
Q 3966 4525 4313 4306 
L 4313 3634 
Q 3963 3931 3569 4081 
Q 3175 4231 2741 4231 
Q 1884 4231 1454 3753 
Q 1025 3275 1025 2328 
Q 1025 1384 1454 906 
Q 1884 428 2741 428 
Q 3075 428 3337 486 
Q 3600 544 3809 666 
z
" transform="scale(0.015625)"/>
       <path id="DejaVuSans-65" d="M 3597 1894 
L 3597 1613 
L 953 1613 
Q 991 1019 1311 708 
Q 1631 397 2203 397 
Q 2534 397 2845 478 
Q 3156 559 3463 722 
L 3463 178 
Q 3153 47 2828 -22 
Q 2503 -91 2169 -91 
Q 1331 -91 842 396 
Q 353 884 353 1716 
Q 353 2575 817 3079 
Q 1281 3584 2069 3584 
Q 2775 3584 3186 3129 
Q 3597 2675 3597 1894 
z
M 3022 2063 
Q 3016 2534 2758 2815 
Q 2500 3097 2075 3097 
Q 1594 3097 1305 2825 
Q 1016 2553 972 2059 
L 3022 2063 
z
" transform="scale(0.015625)"/>
       <path id="DejaVuSans-6e" d="M 3513 2113 
L 3513 0 
L 2938 0 
L 2938 2094 
Q 2938 2591 2744 2837 
Q 2550 3084 2163 3084 
Q 1697 3084 1428 2787 
Q 1159 2491 1159 1978 
L 1159 0 
L 581 0 
L 581 3500 
L 1159 3500 
L 1159 2956 
Q 1366 3272 1645 3428 
Q 1925 3584 2291 3584 
Q 2894 3584 3203 3211 
Q 3513 2838 3513 2113 
z
" transform="scale(0.015625)"/>
       <path id="DejaVuSans-72" d="M 2631 2963 
Q 2534 3019 2420 3045 
Q 2306 3072 2169 3072 
Q 1681 3072 1420 2755 
Q 1159 2438 1159 1844 
L 1159 0 
L 581 0 
L 581 3500 
L 1159 3500 
L 1159 2956 
Q 1341 3275 1631 3429 
Q 1922 3584 2338 3584 
Q 2397 3584 2469 3576 
Q 2541 3569 2628 3553 
L 2631 2963 
z
" transform="scale(0.015625)"/>
       <path id="DejaVuSans-61" d="M 2194 1759 
Q 1497 1759 1228 1600 
Q 959 1441 959 1056 
Q 959 750 1161 570 
Q 1363 391 1709 391 
Q 2188 391 2477 730 
Q 2766 1069 2766 1631 
L 2766 1759 
L 2194 1759 
z
M 3341 1997 
L 3341 0 
L 2766 0 
L 2766 531 
Q 2569 213 2275 61 
Q 1981 -91 1556 -91 
Q 1019 -91 701 211 
Q 384 513 384 1019 
Q 384 1609 779 1909 
Q 1175 2209 1959 2209 
L 2766 2209 
L 2766 2266 
Q 2766 2663 2505 2880 
Q 2244 3097 1772 3097 
Q 1472 3097 1187 3025 
Q 903 2953 641 2809 
L 641 3341 
Q 956 3463 1253 3523 
Q 1550 3584 1831 3584 
Q 2591 3584 2966 3190 
Q 3341 2797 3341 1997 
z
" transform="scale(0.015625)"/>
       <path id="DejaVuSans-74" d="M 1172 4494 
L 1172 3500 
L 2356 3500 
L 2356 3053 
L 1172 3053 
L 1172 1153 
Q 1172 725 1289 603 
Q 1406 481 1766 481 
L 2356 481 
L 2356 0 
L 1766 0 
Q 1100 0 847 248 
Q 594 497 594 1153 
L 594 3053 
L 172 3053 
L 172 3500 
L 594 3500 
L 594 4494 
L 1172 4494 
z
" transform="scale(0.015625)"/>
       <path id="DejaVuSans-69" d="M 603 3500 
L 1178 3500 
L 1178 0 
L 603 0 
L 603 3500 
z
M 603 4863 
L 1178 4863 
L 1178 4134 
L 603 4134 
L 603 4863 
z
" transform="scale(0.015625)"/>
       <path id="DejaVuSans-6f" d="M 1959 3097 
Q 1497 3097 1228 2736 
Q 959 2375 959 1747 
Q 959 1119 1226 758 
Q 1494 397 1959 397 
Q 2419 397 2687 759 
Q 2956 1122 2956 1747 
Q 2956 2369 2687 2733 
Q 2419 3097 1959 3097 
z
M 1959 3584 
Q 2709 3584 3137 3096 
Q 3566 2609 3566 1747 
Q 3566 888 3137 398 
Q 2709 -91 1959 -91 
Q 1206 -91 779 398 
Q 353 888 353 1747 
Q 353 2609 779 3096 
Q 1206 3584 1959 3584 
z
" transform="scale(0.015625)"/>
       <path id="DejaVuSans-73" d="M 2834 3397 
L 2834 2853 
Q 2591 2978 2328 3040 
Q 2066 3103 1784 3103 
Q 1356 3103 1142 2972 
Q 928 2841 928 2578 
Q 928 2378 1081 2264 
Q 1234 2150 1697 2047 
L 1894 2003 
Q 2506 1872 2764 1633 
Q 3022 1394 3022 966 
Q 3022 478 2636 193 
Q 2250 -91 1575 -91 
Q 1294 -91 989 -36 
Q 684 19 347 128 
L 347 722 
Q 666 556 975 473 
Q 1284 391 1588 391 
Q 1994 391 2212 530 
Q 2431 669 2431 922 
Q 2431 1156 2273 1281 
Q 2116 1406 1581 1522 
L 1381 1569 
Q 847 1681 609 1914 
Q 372 2147 372 2553 
Q 372 3047 722 3315 
Q 1072 3584 1716 3584 
Q 2034 3584 2315 3537 
Q 2597 3491 2834 3397 
z
" transform="scale(0.015625)"/>
      </defs>
      <use xlink:href="#DejaVuSans-47"/>
      <use xlink:href="#DejaVuSans-65" x="77.490234"/>
      <use xlink:href="#DejaVuSans-6e" x="139.013672"/>
      <use xlink:href="#DejaVuSans-65" x="202.392578"/>
      <use xlink:href="#DejaVuSans-72" x="263.916016"/>
      <use xlink:href="#DejaVuSans-61" x="305.029297"/>
      <use xlink:href="#DejaVuSans-74" x="366.308594"/>
      <use xlink:href="#DejaVuSans-69" x="405.517578"/>
      <use xlink:href="#DejaVuSans-6f" x="433.300781"/>
      <use xlink:href="#DejaVuSans-6e" x="494.482422"/>
      <use xlink:href="#DejaVuSans-73" x="557.861328"/>
     </g>
    </g>
   </g>
   <g id="matplotlib.axis_2">
    <g id="ytick_1">
     <g id="line2d_63">
      <path d="M 48.039375 243.663878 
L 382.839375 243.663878 
" clip-path="url(#p7adb3b08de)" style="fill: none; stroke: #b0b0b0; stroke-width: 0.5; stroke-linecap: square"/>
     </g>
     <g id="line2d_64">
      <defs>
       <path id="mfd7faae1b3" d="M 0 0 
L 3 0 
" style="stroke: #000000; stroke-width: 0.5"/>
      </defs>
      <g>
       <use xlink:href="#mfd7faae1b3" x="48.039375" y="243.663878" style="stroke: #000000; stroke-width: 0.5"/>
      </g>
     </g>
     <g id="line2d_65">
      <defs>
       <path id="m3b45f69540" d="M 0 0 
L -3 0 
" style="stroke: #000000; stroke-width: 0.5"/>
      </defs>
      <g>
       <use xlink:href="#m3b45f69540" x="382.839375" y="243.663878" style="stroke: #000000; stroke-width: 0.5"/>
      </g>
     </g>
     <g id="text_8">
      <!-- −10 -->
      <g transform="translate(19.21375 248.22294) scale(0.12 -0.12)">
       <defs>
        <path id="DejaVuSans-2212" d="M 678 2272 
L 4684 2272 
L 4684 1741 
L 678 1741 
L 678 2272 
z
" transform="scale(0.015625)"/>
       </defs>
       <use xlink:href="#DejaVuSans-2212"/>
       <use xlink:href="#DejaVuSans-31" x="83.789062"/>
       <use xlink:href="#DejaVuSans-30" x="147.412109"/>
      </g>
     </g>
    </g>
    <g id="ytick_2">
     <g id="line2d_66">
      <path d="M 48.039375 210.994461 
L 382.839375 210.994461 
" clip-path="url(#p7adb3b08de)" style="fill: none; stroke: #b0b0b0; stroke-width: 0.5; stroke-linecap: square"/>
     </g>
     <g id="line2d_67">
      <g>
       <use xlink:href="#mfd7faae1b3" x="48.039375" y="210.994461" style="stroke: #000000; stroke-width: 0.5"/>
      </g>
     </g>
     <g id="line2d_68">
      <g>
       <use xlink:href="#m3b45f69540" x="382.839375" y="210.994461" style="stroke: #000000; stroke-width: 0.5"/>
      </g>
     </g>
     <g id="text_9">
      <!-- −5 -->
      <g transform="translate(26.84875 215.553523) scale(0.12 -0.12)">
       <use xlink:href="#DejaVuSans-2212"/>
       <use xlink:href="#DejaVuSans-35" x="83.789062"/>
      </g>
     </g>
    </g>
    <g id="ytick_3">
     <g id="line2d_69">
      <path d="M 48.039375 178.325044 
L 382.839375 178.325044 
" clip-path="url(#p7adb3b08de)" style="fill: none; stroke: #b0b0b0; stroke-width: 0.5; stroke-linecap: square"/>
     </g>
     <g id="line2d_70">
      <g>
       <use xlink:href="#mfd7faae1b3" x="48.039375" y="178.325044" style="stroke: #000000; stroke-width: 0.5"/>
      </g>
     </g>
     <g id="line2d_71">
      <g>
       <use xlink:href="#m3b45f69540" x="382.839375" y="178.325044" style="stroke: #000000; stroke-width: 0.5"/>
      </g>
     </g>
     <g id="text_10">
      <!-- 0 -->
      <g transform="translate(36.904375 182.884106) scale(0.12 -0.12)">
       <use xlink:href="#DejaVuSans-30"/>
      </g>
     </g>
    </g>
    <g id="ytick_4">
     <g id="line2d_72">
      <path d="M 48.039375 145.655627 
L 382.839375 145.655627 
" clip-path="url(#p7adb3b08de)" style="fill: none; stroke: #b0b0b0; stroke-width: 0.5; stroke-linecap: square"/>
     </g>
     <g id="line2d_73">
      <g>
       <use xlink:href="#mfd7faae1b3" x="48.039375" y="145.655627" style="stroke: #000000; stroke-width: 0.5"/>
      </g>
     </g>
     <g id="line2d_74">
      <g>
       <use xlink:href="#m3b45f69540" x="382.839375" y="145.655627" style="stroke: #000000; stroke-width: 0.5"/>
      </g>
     </g>
     <g id="text_11">
      <!-- 5 -->
      <g transform="translate(36.904375 150.214689) scale(0.12 -0.12)">
       <use xlink:href="#DejaVuSans-35"/>
      </g>
     </g>
    </g>
    <g id="ytick_5">
     <g id="line2d_75">
      <path d="M 48.039375 112.98621 
L 382.839375 112.98621 
" clip-path="url(#p7adb3b08de)" style="fill: none; stroke: #b0b0b0; stroke-width: 0.5; stroke-linecap: square"/>
     </g>
     <g id="line2d_76">
      <g>
       <use xlink:href="#mfd7faae1b3" x="48.039375" y="112.98621" style="stroke: #000000; stroke-width: 0.5"/>
      </g>
     </g>
     <g id="line2d_77">
      <g>
       <use xlink:href="#m3b45f69540" x="382.839375" y="112.98621" style="stroke: #000000; stroke-width: 0.5"/>
      </g>
     </g>
     <g id="text_12">
      <!-- 10 -->
      <g transform="translate(29.269375 117.545272) scale(0.12 -0.12)">
       <use xlink:href="#DejaVuSans-31"/>
       <use xlink:href="#DejaVuSans-30" x="63.623047"/>
      </g>
     </g>
    </g>
    <g id="ytick_6">
     <g id="line2d_78">
      <path d="M 48.039375 80.316793 
L 382.839375 80.316793 
" clip-path="url(#p7adb3b08de)" style="fill: none; stroke: #b0b0b0; stroke-width: 0.5; stroke-linecap: square"/>
     </g>
     <g id="line2d_79">
      <g>
       <use xlink:href="#mfd7faae1b3" x="48.039375" y="80.316793" style="stroke: #000000; stroke-width: 0.5"/>
      </g>
     </g>
     <g id="line2d_80">
      <g>
       <use xlink:href="#m3b45f69540" x="382.839375" y="80.316793" style="stroke: #000000; stroke-width: 0.5"/>
      </g>
     </g>
     <g id="text_13">
      <!-- 15 -->
      <g transform="translate(29.269375 84.875855) scale(0.12 -0.12)">
       <use xlink:href="#DejaVuSans-31"/>
       <use xlink:href="#DejaVuSans-35" x="63.623047"/>
      </g>
     </g>
    </g>
    <g id="ytick_7">
     <g id="line2d_81">
      <path d="M 48.039375 47.647376 
L 382.839375 47.647376 
" clip-path="url(#p7adb3b08de)" style="fill: none; stroke: #b0b0b0; stroke-width: 0.5; stroke-linecap: square"/>
     </g>
     <g id="line2d_82">
      <g>
       <use xlink:href="#mfd7faae1b3" x="48.039375" y="47.647376" style="stroke: #000000; stroke-width: 0.5"/>
      </g>
     </g>
     <g id="line2d_83">
      <g>
       <use xlink:href="#m3b45f69540" x="382.839375" y="47.647376" style="stroke: #000000; stroke-width: 0.5"/>
      </g>
     </g>
     <g id="text_14">
      <!-- 20 -->
      <g transform="translate(29.269375 52.206438) scale(0.12 -0.12)">
       <use xlink:href="#DejaVuSans-32"/>
       <use xlink:href="#DejaVuSans-30" x="63.623047"/>
      </g>
     </g>
    </g>
    <g id="ytick_8">
     <g id="line2d_84">
      <path d="M 48.039375 14.977958 
L 382.839375 14.977958 
" clip-path="url(#p7adb3b08de)" style="fill: none; stroke: #b0b0b0; stroke-width: 0.5; stroke-linecap: square"/>
     </g>
     <g id="line2d_85">
      <g>
       <use xlink:href="#mfd7faae1b3" x="48.039375" y="14.977958" style="stroke: #000000; stroke-width: 0.5"/>
      </g>
     </g>
     <g id="line2d_86">
      <g>
       <use xlink:href="#m3b45f69540" x="382.839375" y="14.977958" style="stroke: #000000; stroke-width: 0.5"/>
      </g>
     </g>
     <g id="text_15">
      <!-- 25 -->
      <g transform="translate(29.269375 19.537021) scale(0.12 -0.12)">
       <use xlink:href="#DejaVuSans-32"/>
       <use xlink:href="#DejaVuSans-35" x="63.623047"/>
      </g>
     </g>
    </g>
    <g id="ytick_9">
     <g id="line2d_87">
      <defs>
       <path id="m95381b4f2c" d="M 0 0 
L 1.5 0 
" style="stroke: #000000; stroke-width: 0.5"/>
      </defs>
      <g>
       <use xlink:href="#m95381b4f2c" x="48.039375" y="250.197761" style="stroke: #000000; stroke-width: 0.5"/>
      </g>
     </g>
     <g id="line2d_88">
      <defs>
       <path id="ma43e81381d" d="M 0 0 
L -1.5 0 
" style="stroke: #000000; stroke-width: 0.5"/>
      </defs>
      <g>
       <use xlink:href="#ma43e81381d" x="382.839375" y="250.197761" style="stroke: #000000; stroke-width: 0.5"/>
      </g>
     </g>
    </g>
    <g id="ytick_10">
     <g id="line2d_89">
      <g>
       <use xlink:href="#m95381b4f2c" x="48.039375" y="237.129994" style="stroke: #000000; stroke-width: 0.5"/>
      </g>
     </g>
     <g id="line2d_90">
      <g>
       <use xlink:href="#ma43e81381d" x="382.839375" y="237.129994" style="stroke: #000000; stroke-width: 0.5"/>
      </g>
     </g>
    </g>
    <g id="ytick_11">
     <g id="line2d_91">
      <g>
       <use xlink:href="#m95381b4f2c" x="48.039375" y="230.596111" style="stroke: #000000; stroke-width: 0.5"/>
      </g>
     </g>
     <g id="line2d_92">
      <g>
       <use xlink:href="#ma43e81381d" x="382.839375" y="230.596111" style="stroke: #000000; stroke-width: 0.5"/>
      </g>
     </g>
    </g>
    <g id="ytick_12">
     <g id="line2d_93">
      <g>
       <use xlink:href="#m95381b4f2c" x="48.039375" y="224.062227" style="stroke: #000000; stroke-width: 0.5"/>
      </g>
     </g>
     <g id="line2d_94">
      <g>
       <use xlink:href="#ma43e81381d" x="382.839375" y="224.062227" style="stroke: #000000; stroke-width: 0.5"/>
      </g>
     </g>
    </g>
    <g id="ytick_13">
     <g id="line2d_95">
      <g>
       <use xlink:href="#m95381b4f2c" x="48.039375" y="217.528344" style="stroke: #000000; stroke-width: 0.5"/>
      </g>
     </g>
     <g id="line2d_96">
      <g>
       <use xlink:href="#ma43e81381d" x="382.839375" y="217.528344" style="stroke: #000000; stroke-width: 0.5"/>
      </g>
     </g>
    </g>
    <g id="ytick_14">
     <g id="line2d_97">
      <g>
       <use xlink:href="#m95381b4f2c" x="48.039375" y="204.460577" style="stroke: #000000; stroke-width: 0.5"/>
      </g>
     </g>
     <g id="line2d_98">
      <g>
       <use xlink:href="#ma43e81381d" x="382.839375" y="204.460577" style="stroke: #000000; stroke-width: 0.5"/>
      </g>
     </g>
    </g>
    <g id="ytick_15">
     <g id="line2d_99">
      <g>
       <use xlink:href="#m95381b4f2c" x="48.039375" y="197.926694" style="stroke: #000000; stroke-width: 0.5"/>
      </g>
     </g>
     <g id="line2d_100">
      <g>
       <use xlink:href="#ma43e81381d" x="382.839375" y="197.926694" style="stroke: #000000; stroke-width: 0.5"/>
      </g>
     </g>
    </g>
    <g id="ytick_16">
     <g id="line2d_101">
      <g>
       <use xlink:href="#m95381b4f2c" x="48.039375" y="191.39281" style="stroke: #000000; stroke-width: 0.5"/>
      </g>
     </g>
     <g id="line2d_102">
      <g>
       <use xlink:href="#ma43e81381d" x="382.839375" y="191.39281" style="stroke: #000000; stroke-width: 0.5"/>
      </g>
     </g>
    </g>
    <g id="ytick_17">
     <g id="line2d_103">
      <g>
       <use xlink:href="#m95381b4f2c" x="48.039375" y="184.858927" style="stroke: #000000; stroke-width: 0.5"/>
      </g>
     </g>
     <g id="line2d_104">
      <g>
       <use xlink:href="#ma43e81381d" x="382.839375" y="184.858927" style="stroke: #000000; stroke-width: 0.5"/>
      </g>
     </g>
    </g>
    <g id="ytick_18">
     <g id="line2d_105">
      <g>
       <use xlink:href="#m95381b4f2c" x="48.039375" y="171.79116" style="stroke: #000000; stroke-width: 0.5"/>
      </g>
     </g>
     <g id="line2d_106">
      <g>
       <use xlink:href="#ma43e81381d" x="382.839375" y="171.79116" style="stroke: #000000; stroke-width: 0.5"/>
      </g>
     </g>
    </g>
    <g id="ytick_19">
     <g id="line2d_107">
      <g>
       <use xlink:href="#m95381b4f2c" x="48.039375" y="165.257277" style="stroke: #000000; stroke-width: 0.5"/>
      </g>
     </g>
     <g id="line2d_108">
      <g>
       <use xlink:href="#ma43e81381d" x="382.839375" y="165.257277" style="stroke: #000000; stroke-width: 0.5"/>
      </g>
     </g>
    </g>
    <g id="ytick_20">
     <g id="line2d_109">
      <g>
       <use xlink:href="#m95381b4f2c" x="48.039375" y="158.723393" style="stroke: #000000; stroke-width: 0.5"/>
      </g>
     </g>
     <g id="line2d_110">
      <g>
       <use xlink:href="#ma43e81381d" x="382.839375" y="158.723393" style="stroke: #000000; stroke-width: 0.5"/>
      </g>
     </g>
    </g>
    <g id="ytick_21">
     <g id="line2d_111">
      <g>
       <use xlink:href="#m95381b4f2c" x="48.039375" y="152.18951" style="stroke: #000000; stroke-width: 0.5"/>
      </g>
     </g>
     <g id="line2d_112">
      <g>
       <use xlink:href="#ma43e81381d" x="382.839375" y="152.18951" style="stroke: #000000; stroke-width: 0.5"/>
      </g>
     </g>
    </g>
    <g id="ytick_22">
     <g id="line2d_113">
      <g>
       <use xlink:href="#m95381b4f2c" x="48.039375" y="139.121743" style="stroke: #000000; stroke-width: 0.5"/>
      </g>
     </g>
     <g id="line2d_114">
      <g>
       <use xlink:href="#ma43e81381d" x="382.839375" y="139.121743" style="stroke: #000000; stroke-width: 0.5"/>
      </g>
     </g>
    </g>
    <g id="ytick_23">
     <g id="line2d_115">
      <g>
       <use xlink:href="#m95381b4f2c" x="48.039375" y="132.58786" style="stroke: #000000; stroke-width: 0.5"/>
      </g>
     </g>
     <g id="line2d_116">
      <g>
       <use xlink:href="#ma43e81381d" x="382.839375" y="132.58786" style="stroke: #000000; stroke-width: 0.5"/>
      </g>
     </g>
    </g>
    <g id="ytick_24">
     <g id="line2d_117">
      <g>
       <use xlink:href="#m95381b4f2c" x="48.039375" y="126.053976" style="stroke: #000000; stroke-width: 0.5"/>
      </g>
     </g>
     <g id="line2d_118">
      <g>
       <use xlink:href="#ma43e81381d" x="382.839375" y="126.053976" style="stroke: #000000; stroke-width: 0.5"/>
      </g>
     </g>
    </g>
    <g id="ytick_25">
     <g id="line2d_119">
      <g>
       <use xlink:href="#m95381b4f2c" x="48.039375" y="119.520093" style="stroke: #000000; stroke-width: 0.5"/>
      </g>
     </g>
     <g id="line2d_120">
      <g>
       <use xlink:href="#ma43e81381d" x="382.839375" y="119.520093" style="stroke: #000000; stroke-width: 0.5"/>
      </g>
     </g>
    </g>
    <g id="ytick_26">
     <g id="line2d_121">
      <g>
       <use xlink:href="#m95381b4f2c" x="48.039375" y="106.452326" style="stroke: #000000; stroke-width: 0.5"/>
      </g>
     </g>
     <g id="line2d_122">
      <g>
       <use xlink:href="#ma43e81381d" x="382.839375" y="106.452326" style="stroke: #000000; stroke-width: 0.5"/>
      </g>
     </g>
    </g>
    <g id="ytick_27">
     <g id="line2d_123">
      <g>
       <use xlink:href="#m95381b4f2c" x="48.039375" y="99.918443" style="stroke: #000000; stroke-width: 0.5"/>
      </g>
     </g>
     <g id="line2d_124">
      <g>
       <use xlink:href="#ma43e81381d" x="382.839375" y="99.918443" style="stroke: #000000; stroke-width: 0.5"/>
      </g>
     </g>
    </g>
    <g id="ytick_28">
     <g id="line2d_125">
      <g>
       <use xlink:href="#m95381b4f2c" x="48.039375" y="93.384559" style="stroke: #000000; stroke-width: 0.5"/>
      </g>
     </g>
     <g id="line2d_126">
      <g>
       <use xlink:href="#ma43e81381d" x="382.839375" y="93.384559" style="stroke: #000000; stroke-width: 0.5"/>
      </g>
     </g>
    </g>
    <g id="ytick_29">
     <g id="line2d_127">
      <g>
       <use xlink:href="#m95381b4f2c" x="48.039375" y="86.850676" style="stroke: #000000; stroke-width: 0.5"/>
      </g>
     </g>
     <g id="line2d_128">
      <g>
       <use xlink:href="#ma43e81381d" x="382.839375" y="86.850676" style="stroke: #000000; stroke-width: 0.5"/>
      </g>
     </g>
    </g>
    <g id="ytick_30">
     <g id="line2d_129">
      <g>
       <use xlink:href="#m95381b4f2c" x="48.039375" y="73.782909" style="stroke: #000000; stroke-width: 0.5"/>
      </g>
     </g>
     <g id="line2d_130">
      <g>
       <use xlink:href="#ma43e81381d" x="382.839375" y="73.782909" style="stroke: #000000; stroke-width: 0.5"/>
      </g>
     </g>
    </g>
    <g id="ytick_31">
     <g id="line2d_131">
      <g>
       <use xlink:href="#m95381b4f2c" x="48.039375" y="67.249026" style="stroke: #000000; stroke-width: 0.5"/>
      </g>
     </g>
     <g id="line2d_132">
      <g>
       <use xlink:href="#ma43e81381d" x="382.839375" y="67.249026" style="stroke: #000000; stroke-width: 0.5"/>
      </g>
     </g>
    </g>
    <g id="ytick_32">
     <g id="line2d_133">
      <g>
       <use xlink:href="#m95381b4f2c" x="48.039375" y="60.715142" style="stroke: #000000; stroke-width: 0.5"/>
      </g>
     </g>
     <g id="line2d_134">
      <g>
       <use xlink:href="#ma43e81381d" x="382.839375" y="60.715142" style="stroke: #000000; stroke-width: 0.5"/>
      </g>
     </g>
    </g>
    <g id="ytick_33">
     <g id="line2d_135">
      <g>
       <use xlink:href="#m95381b4f2c" x="48.039375" y="54.181259" style="stroke: #000000; stroke-width: 0.5"/>
      </g>
     </g>
     <g id="line2d_136">
      <g>
       <use xlink:href="#ma43e81381d" x="382.839375" y="54.181259" style="stroke: #000000; stroke-width: 0.5"/>
      </g>
     </g>
    </g>
    <g id="ytick_34">
     <g id="line2d_137">
      <g>
       <use xlink:href="#m95381b4f2c" x="48.039375" y="41.113492" style="stroke: #000000; stroke-width: 0.5"/>
      </g>
     </g>
     <g id="line2d_138">
      <g>
       <use xlink:href="#ma43e81381d" x="382.839375" y="41.113492" style="stroke: #000000; stroke-width: 0.5"/>
      </g>
     </g>
    </g>
    <g id="ytick_35">
     <g id="line2d_139">
      <g>
       <use xlink:href="#m95381b4f2c" x="48.039375" y="34.579609" style="stroke: #000000; stroke-width: 0.5"/>
      </g>
     </g>
     <g id="line2d_140">
      <g>
       <use xlink:href="#ma43e81381d" x="382.839375" y="34.579609" style="stroke: #000000; stroke-width: 0.5"/>
      </g>
     </g>
    </g>
    <g id="ytick_36">
     <g id="line2d_141">
      <g>
       <use xlink:href="#m95381b4f2c" x="48.039375" y="28.045725" style="stroke: #000000; stroke-width: 0.5"/>
      </g>
     </g>
     <g id="line2d_142">
      <g>
       <use xlink:href="#ma43e81381d" x="382.839375" y="28.045725" style="stroke: #000000; stroke-width: 0.5"/>
      </g>
     </g>
    </g>
    <g id="ytick_37">
     <g id="line2d_143">
      <g>
       <use xlink:href="#m95381b4f2c" x="48.039375" y="21.511842" style="stroke: #000000; stroke-width: 0.5"/>
      </g>
     </g>
     <g id="line2d_144">
      <g>
       <use xlink:href="#ma43e81381d" x="382.839375" y="21.511842" style="stroke: #000000; stroke-width: 0.5"/>
      </g>
     </g>
    </g>
    <g id="ytick_38">
     <g id="line2d_145">
      <g>
       <use xlink:href="#m95381b4f2c" x="48.039375" y="8.444075" style="stroke: #000000; stroke-width: 0.5"/>
      </g>
     </g>
     <g id="line2d_146">
      <g>
       <use xlink:href="#ma43e81381d" x="382.839375" y="8.444075" style="stroke: #000000; stroke-width: 0.5"/>
      </g>
     </g>
    </g>
    <g id="text_16">
     <!-- Fitness -->
     <g transform="translate(12.718125 149.120625) rotate(-90) scale(0.12 -0.12)">
      <defs>
       <path id="DejaVuSans-46" d="M 628 4666 
L 3309 4666 
L 3309 4134 
L 1259 4134 
L 1259 2759 
L 3109 2759 
L 3109 2228 
L 1259 2228 
L 1259 0 
L 628 0 
L 628 4666 
z
" transform="scale(0.015625)"/>
      </defs>
      <use xlink:href="#DejaVuSans-46"/>
      <use xlink:href="#DejaVuSans-69" x="50.269531"/>
      <use xlink:href="#DejaVuSans-74" x="78.052734"/>
      <use xlink:href="#DejaVuSans-6e" x="117.261719"/>
      <use xlink:href="#DejaVuSans-65" x="180.640625"/>
      <use xlink:href="#DejaVuSans-73" x="242.164062"/>
      <use xlink:href="#DejaVuSans-73" x="294.263672"/>
     </g>
    </g>
   </g>
   <g id="line2d_147">
    <path d="M 63.257557 56.729655 
L 65.697345 56.726863 
L 66.307293 41.164541 
L 68.137134 41.166117 
L 68.747081 29.819425 
L 74.236606 29.820987 
L 74.846553 25.567829 
L 84.605708 25.56554 
L 85.215655 25.281434 
L 85.825602 25.281179 
L 86.435549 24.549348 
L 88.265391 24.547345 
L 88.875338 20.378611 
L 101.074281 20.376284 
L 101.684228 18.934774 
L 109.613542 18.929524 
L 110.223489 18.53334 
L 110.833436 18.924657 
L 112.663277 18.930689 
L 113.273225 18.685833 
L 114.493119 18.685513 
L 115.713013 18.270127 
L 120.592591 18.268225 
L 121.202538 18.098823 
L 133.401481 18.050428 
L 134.011428 17.682672 
L 135.84127 17.682042 
L 136.451217 17.314124 
L 137.061164 17.18027 
L 137.671111 17.180414 
L 138.281058 16.981265 
L 145.600424 16.966773 
L 155.359579 16.987308 
L 155.969526 16.905806 
L 157.189421 16.983564 
L 160.849104 16.965791 
L 164.508787 16.981177 
L 175.487836 16.982921 
L 180.367413 16.98485 
L 204.7653 16.912049 
L 205.985194 16.865106 
L 208.424983 16.906006 
L 218.184137 16.895941 
L 224.893556 16.907516 
L 251.731231 16.897344 
L 257.220756 16.90888 
L 260.270492 16.790226 
L 260.880439 14.94 
L 261.490386 16.886645 
L 266.369963 16.8991 
L 268.809752 16.76557 
L 269.419699 16.907258 
L 274.299277 16.895905 
L 281.008695 16.897399 
L 282.838537 16.868313 
L 284.668378 16.90579 
L 300.527005 16.857735 
L 301.136952 16.755738 
L 302.356846 16.868217 
L 306.626476 16.856448 
L 307.236424 16.666705 
L 352.982461 16.580029 
L 353.592408 16.346866 
L 356.032197 16.280625 
L 356.642144 16.12962 
L 357.252091 16.122553 
L 357.862039 16.272915 
L 367.621193 16.277055 
L 367.621193 16.277055 
" clip-path="url(#p7adb3b08de)" style="fill: none; stroke: #000000; stroke-linecap: square"/>
   </g>
   <g id="line2d_148">
    <path d="M 63.257557 172.841331 
L 63.867504 173.051557 
L 65.087398 156.088967 
L 65.697345 152.062569 
L 66.307293 149.533351 
L 66.91724 146.511377 
L 67.527187 161.03739 
L 68.137134 140.914761 
L 68.747081 138.452964 
L 69.357028 140.780649 
L 69.966976 145.916229 
L 70.576923 140.508511 
L 71.18687 142.028844 
L 71.796817 138.993866 
L 72.406764 140.01993 
L 73.016711 144.019203 
L 74.236606 125.95686 
L 74.846553 129.102956 
L 75.4565 128.510061 
L 76.066447 135.946191 
L 76.676394 130.641229 
L 77.286342 139.337383 
L 77.896289 132.179868 
L 78.506236 129.856863 
L 79.116183 125.818611 
L 79.72613 128.982713 
L 80.336077 123.893111 
L 80.946025 128.425273 
L 81.555972 128.560099 
L 82.165919 116.770625 
L 82.775866 109.319917 
L 83.385813 117.060687 
L 84.605708 95.130638 
L 85.215655 99.468126 
L 85.825602 127.034898 
L 86.435549 90.87889 
L 87.045496 88.90892 
L 87.655444 91.776553 
L 88.265391 86.135294 
L 88.875338 82.508408 
L 89.485285 89.409855 
L 90.095232 81.753767 
L 90.705179 83.890458 
L 91.315127 78.698124 
L 91.925074 77.193892 
L 92.535021 85.574339 
L 93.144968 80.703109 
L 93.754915 81.553925 
L 94.364862 83.668546 
L 94.97481 81.082388 
L 95.584757 70.443563 
L 96.194704 69.899236 
L 96.804651 80.796019 
L 97.414598 78.550239 
L 98.024545 78.222119 
L 98.634493 82.992887 
L 99.24444 82.757112 
L 99.854387 85.90167 
L 100.464334 88.380643 
L 101.074281 78.567205 
L 101.684228 79.933927 
L 102.294176 76.804669 
L 102.904123 84.589305 
L 103.51407 82.460006 
L 104.124017 83.404688 
L 104.733964 83.102451 
L 105.343911 84.045439 
L 106.563806 76.414951 
L 107.173753 80.398002 
L 107.7837 79.750565 
L 108.393647 82.574698 
L 109.003594 82.365487 
L 109.613542 77.744571 
L 110.223489 74.032734 
L 110.833436 74.720036 
L 111.443383 84.040796 
L 112.05333 73.499824 
L 112.663277 69.705824 
L 113.273225 71.804631 
L 113.883172 62.909675 
L 114.493119 64.081586 
L 115.713013 68.503095 
L 116.32296 61.954199 
L 116.932908 72.196943 
L 118.152802 64.00114 
L 118.762749 61.29541 
L 119.372696 63.578955 
L 119.982643 59.791836 
L 120.592591 59.195177 
L 121.202538 58.063296 
L 121.812485 61.039431 
L 122.422432 51.473407 
L 123.032379 45.570713 
L 123.642326 54.013308 
L 124.252274 59.525735 
L 124.862221 57.604807 
L 125.472168 54.979977 
L 126.082115 54.998582 
L 126.692062 49.587593 
L 127.302009 37.255082 
L 128.521904 52.031001 
L 129.131851 42.206085 
L 129.741798 37.966899 
L 130.351745 31.437447 
L 130.961692 48.010242 
L 131.57164 35.343015 
L 132.791534 44.076903 
L 133.401481 38.823121 
L 134.011428 48.083209 
L 134.621375 47.443497 
L 135.231323 45.420732 
L 135.84127 38.962965 
L 136.451217 54.65247 
L 137.061164 55.458877 
L 137.671111 46.801459 
L 138.891006 53.365646 
L 139.500953 49.750032 
L 140.1109 56.003207 
L 140.720847 49.842773 
L 141.330794 48.404486 
L 141.940741 37.824405 
L 142.550689 38.379352 
L 143.160636 34.07347 
L 143.770583 39.295135 
L 144.38053 48.200592 
L 144.990477 53.367045 
L 145.600424 50.986617 
L 146.210372 43.990398 
L 146.820319 46.026445 
L 147.430266 32.515304 
L 148.040213 29.084225 
L 148.65016 29.596494 
L 149.260107 32.0447 
L 149.870055 33.956716 
L 150.480002 38.21227 
L 151.089949 49.141369 
L 152.309843 40.561452 
L 152.91979 42.50487 
L 153.529738 37.732005 
L 154.139685 50.017956 
L 154.749632 51.482125 
L 155.359579 47.70342 
L 155.969526 56.791081 
L 156.579473 48.383378 
L 157.799368 54.861562 
L 158.409315 54.432846 
L 159.019262 54.271186 
L 159.629209 43.933353 
L 160.239156 40.876955 
L 160.849104 39.214525 
L 162.068998 38.285097 
L 162.678945 38.003555 
L 163.288892 45.89399 
L 163.898839 50.932447 
L 164.508787 61.729205 
L 165.118734 66.431289 
L 165.728681 57.530134 
L 166.338628 58.545966 
L 166.948575 44.974122 
L 167.558522 43.589419 
L 168.16847 36.612261 
L 168.778417 42.207011 
L 169.388364 45.958697 
L 170.608258 23.786985 
L 171.828153 36.382718 
L 172.4381 33.826778 
L 173.048047 28.567334 
L 173.657994 34.160817 
L 174.877888 35.710684 
L 175.487836 34.986189 
L 176.097783 38.218338 
L 176.70773 35.577739 
L 177.317677 28.760016 
L 177.927624 41.163057 
L 178.537571 30.666099 
L 179.147519 33.754912 
L 179.757466 30.365308 
L 180.367413 30.260598 
L 180.97736 40.265563 
L 181.587307 39.718458 
L 182.197254 36.144422 
L 182.807202 40.486851 
L 183.417149 35.50981 
L 184.027096 32.847244 
L 184.637043 38.46858 
L 185.24699 39.374288 
L 185.856937 39.305353 
L 186.466885 33.566255 
L 187.076832 35.163561 
L 187.686779 38.877273 
L 188.296726 46.454327 
L 188.906673 46.045231 
L 189.51662 42.257205 
L 190.126568 41.282656 
L 190.736515 28.994587 
L 191.346462 30.693777 
L 192.566356 37.172203 
L 193.176303 32.841364 
L 193.786251 29.721048 
L 194.396198 34.624707 
L 195.006145 23.462206 
L 195.616092 24.003655 
L 196.226039 33.453478 
L 196.835986 36.281748 
L 197.445934 34.674652 
L 198.055881 28.528995 
L 198.665828 29.84127 
L 199.275775 23.406015 
L 199.885722 21.760619 
L 200.495669 19.426599 
L 201.105617 20.223461 
L 201.715564 17.86916 
L 202.325511 23.060762 
L 203.545405 38.470126 
L 204.155352 45.011808 
L 204.7653 39.987798 
L 205.375247 44.524752 
L 205.985194 38.538883 
L 206.595141 41.123368 
L 207.205088 41.966638 
L 207.815035 40.638059 
L 208.424983 46.16768 
L 209.03493 30.826159 
L 209.644877 34.061229 
L 210.254824 29.388423 
L 210.864771 33.712599 
L 211.474718 30.697298 
L 212.084666 34.892851 
L 212.694613 25.598713 
L 213.30456 26.854606 
L 213.914507 38.277645 
L 214.524454 30.707171 
L 215.134401 38.506004 
L 215.744349 36.228735 
L 216.354296 26.116503 
L 216.964243 26.557405 
L 217.57419 26.346957 
L 218.184137 34.300481 
L 218.794084 32.524851 
L 219.404032 32.975275 
L 220.013979 32.502961 
L 220.623926 37.347957 
L 221.233873 35.321533 
L 221.84382 36.266584 
L 222.453767 31.753943 
L 223.063715 29.938926 
L 223.673662 20.86393 
L 224.283609 29.152222 
L 224.893556 27.52318 
L 225.503503 43.323168 
L 226.11345 40.238617 
L 226.723398 38.961456 
L 227.333345 33.652171 
L 227.943292 31.717352 
L 228.553239 23.327986 
L 229.163186 21.350977 
L 229.773133 26.926808 
L 230.383081 24.704016 
L 230.993028 28.303708 
L 231.602975 41.479683 
L 232.212922 42.794936 
L 232.822869 43.115862 
L 233.432816 41.091174 
L 234.042764 37.187375 
L 234.652711 39.42461 
L 235.262658 31.94531 
L 235.872605 31.259439 
L 236.482552 33.062025 
L 237.092499 33.524949 
L 237.702447 24.35236 
L 238.312394 26.639954 
L 238.922341 32.23023 
L 239.532288 41.774128 
L 240.142235 29.620308 
L 240.752182 25.856953 
L 241.36213 31.769576 
L 241.972077 30.485169 
L 243.191971 18.604242 
L 243.801918 23.652564 
L 244.411865 21.754569 
L 245.021813 25.113443 
L 245.63176 24.440067 
L 246.241707 23.366547 
L 246.851654 21.440478 
L 247.461601 21.966629 
L 248.071548 20.505331 
L 248.681496 23.970988 
L 249.291443 22.351281 
L 249.90139 34.545339 
L 250.511337 34.636086 
L 251.121284 29.273738 
L 251.731231 30.560649 
L 252.341179 28.682528 
L 252.951126 25.077525 
L 253.561073 27.23877 
L 254.17102 23.478669 
L 255.390914 32.996627 
L 256.000862 39.550214 
L 256.610809 36.982951 
L 257.220756 36.915012 
L 257.830703 31.780323 
L 258.44065 31.544512 
L 259.050597 33.889759 
L 259.660545 41.693226 
L 260.270492 38.039444 
L 260.880439 32.745879 
L 261.490386 28.99799 
L 262.100333 42.171218 
L 262.71028 52.499331 
L 263.320228 38.590621 
L 263.930175 34.46834 
L 264.540122 27.434924 
L 265.150069 35.963743 
L 266.369963 25.765953 
L 266.979911 34.345295 
L 267.589858 32.506287 
L 268.809752 40.536507 
L 269.419699 39.311516 
L 270.029646 42.85422 
L 270.639594 35.017912 
L 271.249541 38.296836 
L 271.859488 45.15354 
L 272.469435 34.550434 
L 273.079382 35.690035 
L 273.689329 46.53603 
L 274.299277 29.817215 
L 274.909224 35.726259 
L 275.519171 38.979887 
L 276.129118 49.104414 
L 276.739065 37.286024 
L 277.349012 40.12687 
L 277.95896 44.500625 
L 278.568907 50.273283 
L 279.178854 47.627723 
L 279.788801 42.067544 
L 280.398748 41.205327 
L 281.008695 40.87725 
L 281.618643 43.717664 
L 282.22859 43.209969 
L 282.838537 38.054849 
L 284.058431 39.255313 
L 284.668378 29.22649 
L 285.278326 31.01511 
L 285.888273 27.128668 
L 286.49822 28.153008 
L 287.108167 39.064461 
L 287.718114 33.853978 
L 288.328061 33.376041 
L 289.547956 26.530253 
L 290.157903 21.27079 
L 290.76785 24.607002 
L 291.377797 23.435857 
L 291.987744 29.075133 
L 292.597692 27.679024 
L 293.207639 32.180932 
L 293.817586 27.290412 
L 294.427533 26.283905 
L 295.03748 25.593468 
L 295.647427 23.249751 
L 296.257375 30.900108 
L 296.867322 32.7206 
L 297.477269 25.486834 
L 298.087216 34.284896 
L 298.697163 27.157783 
L 299.30711 27.07995 
L 299.917058 32.320334 
L 300.527005 43.441472 
L 301.136952 34.893983 
L 301.746899 37.482689 
L 302.356846 43.071832 
L 302.966793 45.202429 
L 303.576741 49.156632 
L 304.186688 40.436415 
L 304.796635 47.478174 
L 305.406582 36.537483 
L 306.016529 46.806549 
L 306.626476 43.779035 
L 307.236424 54.752677 
L 307.846371 47.689933 
L 308.456318 45.509953 
L 309.066265 34.700329 
L 309.676212 33.425531 
L 310.286159 32.888326 
L 310.896107 39.176182 
L 311.506054 37.082573 
L 312.116001 40.009614 
L 312.725948 41.41032 
L 313.335895 37.109329 
L 313.945842 34.449028 
L 315.165737 34.925873 
L 315.775684 31.356661 
L 316.385631 37.747261 
L 316.995578 23.061049 
L 317.605525 24.197505 
L 318.215473 32.949382 
L 318.82542 30.868223 
L 319.435367 29.688185 
L 320.045314 40.522026 
L 320.655261 38.373571 
L 321.265208 30.273309 
L 321.875156 36.409046 
L 322.485103 37.639065 
L 323.09505 38.488601 
L 323.704997 37.22957 
L 324.314944 25.851459 
L 324.924891 27.488734 
L 325.534839 27.701297 
L 326.144786 29.749432 
L 326.754733 36.340473 
L 327.36468 36.055625 
L 327.974627 35.955609 
L 328.584574 43.409573 
L 329.194522 33.871807 
L 329.804469 30.363391 
L 330.414416 31.934238 
L 331.024363 28.034541 
L 331.63431 31.310125 
L 332.244257 27.216509 
L 332.854205 28.079312 
L 333.464152 29.54152 
L 334.074099 29.731663 
L 334.684046 26.941042 
L 335.293993 28.692036 
L 335.90394 31.576666 
L 337.123835 40.469577 
L 337.733782 40.040392 
L 338.343729 34.355479 
L 338.953676 35.710951 
L 339.563623 32.446931 
L 340.173571 24.304528 
L 340.783518 25.857891 
L 341.393465 25.396749 
L 342.003412 25.37456 
L 342.613359 26.707786 
L 343.223306 34.814518 
L 343.833254 33.346515 
L 344.443201 42.129852 
L 345.053148 41.556193 
L 346.273042 44.879157 
L 346.88299 33.967662 
L 347.492937 26.133383 
L 348.102884 27.84256 
L 348.712831 39.158924 
L 349.322778 42.62603 
L 349.932725 31.731336 
L 350.542673 43.324734 
L 351.15262 34.781274 
L 351.762567 36.633406 
L 352.372514 36.326845 
L 352.982461 37.878081 
L 353.592408 39.824606 
L 354.202356 33.295965 
L 355.42225 24.230498 
L 356.032197 27.200229 
L 356.642144 25.073645 
L 357.252091 27.018065 
L 357.862039 25.09185 
L 358.471986 25.470585 
L 359.081933 33.074229 
L 359.69188 30.422983 
L 360.301827 32.252804 
L 360.911774 25.38465 
L 361.521722 20.319889 
L 362.131669 17.979622 
L 362.741616 20.437787 
L 363.351563 19.107465 
L 364.571457 26.5311 
L 365.181405 38.088297 
L 365.791352 29.844897 
L 366.401299 32.853101 
L 367.011246 26.736159 
L 367.621193 28.243736 
L 367.621193 28.243736 
" clip-path="url(#p7adb3b08de)" style="fill: none; stroke-dasharray: 3.7,1.6; stroke-dashoffset: 0; stroke: #000000"/>
   </g>
   <g id="patch_3">
    <path d="M 48.039375 253.08 
L 48.039375 3.6 
" style="fill: none; stroke: #000000; stroke-width: 0.5; stroke-linejoin: miter; stroke-linecap: square"/>
   </g>
   <g id="patch_4">
    <path d="M 382.839375 253.08 
L 382.839375 3.6 
" style="fill: none; stroke: #000000; stroke-width: 0.5; stroke-linejoin: miter; stroke-linecap: square"/>
   </g>
   <g id="patch_5">
    <path d="M 48.039375 253.08 
L 382.839375 253.08 
" style="fill: none; stroke: #000000; stroke-width: 0.5; stroke-linejoin: miter; stroke-linecap: square"/>
   </g>
   <g id="patch_6">
    <path d="M 48.039375 3.6 
L 382.839375 3.6 
" style="fill: none; stroke: #000000; stroke-width: 0.5; stroke-linejoin: miter; stroke-linecap: square"/>
   </g>
   <g id="legend_1">
    <g id="patch_7">
     <path d="M 256.633125 247.08 
L 374.439375 247.08 
Q 376.839375 247.08 376.839375 244.68 
L 376.839375 193.03875 
Q 376.839375 190.63875 374.439375 190.63875 
L 256.633125 190.63875 
Q 254.233125 190.63875 254.233125 193.03875 
L 254.233125 244.68 
Q 254.233125 247.08 256.633125 247.08 
z
" style="fill: #ffffff; opacity: 0.8; stroke: #cccccc; stroke-linejoin: miter"/>
    </g>
    <g id="line2d_149">
     <path d="M 259.033125 200.356875 
L 271.033125 200.356875 
L 283.033125 200.356875 
" style="fill: none; stroke: #000000; stroke-linecap: square"/>
    </g>
    <g id="text_17">
     <!-- Max fitness -->
     <g transform="translate(292.633125 204.556875) scale(0.12 -0.12)">
      <defs>
       <path id="DejaVuSans-4d" d="M 628 4666 
L 1569 4666 
L 2759 1491 
L 3956 4666 
L 4897 4666 
L 4897 0 
L 4281 0 
L 4281 4097 
L 3078 897 
L 2444 897 
L 1241 4097 
L 1241 0 
L 628 0 
L 628 4666 
z
" transform="scale(0.015625)"/>
       <path id="DejaVuSans-78" d="M 3513 3500 
L 2247 1797 
L 3578 0 
L 2900 0 
L 1881 1375 
L 863 0 
L 184 0 
L 1544 1831 
L 300 3500 
L 978 3500 
L 1906 2253 
L 2834 3500 
L 3513 3500 
z
" transform="scale(0.015625)"/>
       <path id="DejaVuSans-20" transform="scale(0.015625)"/>
       <path id="DejaVuSans-66" d="M 2375 4863 
L 2375 4384 
L 1825 4384 
Q 1516 4384 1395 4259 
Q 1275 4134 1275 3809 
L 1275 3500 
L 2222 3500 
L 2222 3053 
L 1275 3053 
L 1275 0 
L 697 0 
L 697 3053 
L 147 3053 
L 147 3500 
L 697 3500 
L 697 3744 
Q 697 4328 969 4595 
Q 1241 4863 1831 4863 
L 2375 4863 
z
" transform="scale(0.015625)"/>
      </defs>
      <use xlink:href="#DejaVuSans-4d"/>
      <use xlink:href="#DejaVuSans-61" x="86.279297"/>
      <use xlink:href="#DejaVuSans-78" x="147.558594"/>
      <use xlink:href="#DejaVuSans-20" x="206.738281"/>
      <use xlink:href="#DejaVuSans-66" x="238.525391"/>
      <use xlink:href="#DejaVuSans-69" x="273.730469"/>
      <use xlink:href="#DejaVuSans-74" x="301.513672"/>
      <use xlink:href="#DejaVuSans-6e" x="340.722656"/>
      <use xlink:href="#DejaVuSans-65" x="404.101562"/>
      <use xlink:href="#DejaVuSans-73" x="465.625"/>
      <use xlink:href="#DejaVuSans-73" x="517.724609"/>
     </g>
    </g>
    <g id="patch_8">
     <path d="M 259.033125 222.170625 
L 283.033125 222.170625 
L 283.033125 213.770625 
L 259.033125 213.770625 
z
" style="fill: #0000ff; fill-opacity: 0.2; stroke: #0000ff; stroke-opacity: 0.2; stroke-linejoin: miter"/>
    </g>
    <g id="text_18">
     <!-- Top 90% -->
     <g transform="translate(292.633125 222.170625) scale(0.12 -0.12)">
      <defs>
       <path id="DejaVuSans-54" d="M -19 4666 
L 3928 4666 
L 3928 4134 
L 2272 4134 
L 2272 0 
L 1638 0 
L 1638 4134 
L -19 4134 
L -19 4666 
z
" transform="scale(0.015625)"/>
       <path id="DejaVuSans-70" d="M 1159 525 
L 1159 -1331 
L 581 -1331 
L 581 3500 
L 1159 3500 
L 1159 2969 
Q 1341 3281 1617 3432 
Q 1894 3584 2278 3584 
Q 2916 3584 3314 3078 
Q 3713 2572 3713 1747 
Q 3713 922 3314 415 
Q 2916 -91 2278 -91 
Q 1894 -91 1617 61 
Q 1341 213 1159 525 
z
M 3116 1747 
Q 3116 2381 2855 2742 
Q 2594 3103 2138 3103 
Q 1681 3103 1420 2742 
Q 1159 2381 1159 1747 
Q 1159 1113 1420 752 
Q 1681 391 2138 391 
Q 2594 391 2855 752 
Q 3116 1113 3116 1747 
z
" transform="scale(0.015625)"/>
       <path id="DejaVuSans-39" d="M 703 97 
L 703 672 
Q 941 559 1184 500 
Q 1428 441 1663 441 
Q 2288 441 2617 861 
Q 2947 1281 2994 2138 
Q 2813 1869 2534 1725 
Q 2256 1581 1919 1581 
Q 1219 1581 811 2004 
Q 403 2428 403 3163 
Q 403 3881 828 4315 
Q 1253 4750 1959 4750 
Q 2769 4750 3195 4129 
Q 3622 3509 3622 2328 
Q 3622 1225 3098 567 
Q 2575 -91 1691 -91 
Q 1453 -91 1209 -44 
Q 966 3 703 97 
z
M 1959 2075 
Q 2384 2075 2632 2365 
Q 2881 2656 2881 3163 
Q 2881 3666 2632 3958 
Q 2384 4250 1959 4250 
Q 1534 4250 1286 3958 
Q 1038 3666 1038 3163 
Q 1038 2656 1286 2365 
Q 1534 2075 1959 2075 
z
" transform="scale(0.015625)"/>
       <path id="DejaVuSans-25" d="M 4653 2053 
Q 4381 2053 4226 1822 
Q 4072 1591 4072 1178 
Q 4072 772 4226 539 
Q 4381 306 4653 306 
Q 4919 306 5073 539 
Q 5228 772 5228 1178 
Q 5228 1588 5073 1820 
Q 4919 2053 4653 2053 
z
M 4653 2450 
Q 5147 2450 5437 2106 
Q 5728 1763 5728 1178 
Q 5728 594 5436 251 
Q 5144 -91 4653 -91 
Q 4153 -91 3862 251 
Q 3572 594 3572 1178 
Q 3572 1766 3864 2108 
Q 4156 2450 4653 2450 
z
M 1428 4353 
Q 1159 4353 1004 4120 
Q 850 3888 850 3481 
Q 850 3069 1003 2837 
Q 1156 2606 1428 2606 
Q 1700 2606 1854 2837 
Q 2009 3069 2009 3481 
Q 2009 3884 1853 4118 
Q 1697 4353 1428 4353 
z
M 4250 4750 
L 4750 4750 
L 1831 -91 
L 1331 -91 
L 4250 4750 
z
M 1428 4750 
Q 1922 4750 2215 4408 
Q 2509 4066 2509 3481 
Q 2509 2891 2217 2550 
Q 1925 2209 1428 2209 
Q 931 2209 642 2551 
Q 353 2894 353 3481 
Q 353 4063 643 4406 
Q 934 4750 1428 4750 
z
" transform="scale(0.015625)"/>
      </defs>
      <use xlink:href="#DejaVuSans-54"/>
      <use xlink:href="#DejaVuSans-6f" x="44.083984"/>
      <use xlink:href="#DejaVuSans-70" x="105.265625"/>
      <use xlink:href="#DejaVuSans-20" x="168.742188"/>
      <use xlink:href="#DejaVuSans-39" x="200.529297"/>
      <use xlink:href="#DejaVuSans-30" x="264.152344"/>
      <use xlink:href="#DejaVuSans-25" x="327.775391"/>
     </g>
    </g>
    <g id="line2d_150">
     <path d="M 259.033125 235.584375 
L 271.033125 235.584375 
L 283.033125 235.584375 
" style="fill: none; stroke-dasharray: 3.7,1.6; stroke-dashoffset: 0; stroke: #000000"/>
    </g>
    <g id="text_19">
     <!-- Fitness mean -->
     <g transform="translate(292.633125 239.784375) scale(0.12 -0.12)">
      <defs>
       <path id="DejaVuSans-6d" d="M 3328 2828 
Q 3544 3216 3844 3400 
Q 4144 3584 4550 3584 
Q 5097 3584 5394 3201 
Q 5691 2819 5691 2113 
L 5691 0 
L 5113 0 
L 5113 2094 
Q 5113 2597 4934 2840 
Q 4756 3084 4391 3084 
Q 3944 3084 3684 2787 
Q 3425 2491 3425 1978 
L 3425 0 
L 2847 0 
L 2847 2094 
Q 2847 2600 2669 2842 
Q 2491 3084 2119 3084 
Q 1678 3084 1418 2786 
Q 1159 2488 1159 1978 
L 1159 0 
L 581 0 
L 581 3500 
L 1159 3500 
L 1159 2956 
Q 1356 3278 1631 3431 
Q 1906 3584 2284 3584 
Q 2666 3584 2933 3390 
Q 3200 3197 3328 2828 
z
" transform="scale(0.015625)"/>
      </defs>
      <use xlink:href="#DejaVuSans-46"/>
      <use xlink:href="#DejaVuSans-69" x="50.269531"/>
      <use xlink:href="#DejaVuSans-74" x="78.052734"/>
      <use xlink:href="#DejaVuSans-6e" x="117.261719"/>
      <use xlink:href="#DejaVuSans-65" x="180.640625"/>
      <use xlink:href="#DejaVuSans-73" x="242.164062"/>
      <use xlink:href="#DejaVuSans-73" x="294.263672"/>
      <use xlink:href="#DejaVuSans-20" x="346.363281"/>
      <use xlink:href="#DejaVuSans-6d" x="378.150391"/>
      <use xlink:href="#DejaVuSans-65" x="475.5625"/>
      <use xlink:href="#DejaVuSans-61" x="537.085938"/>
      <use xlink:href="#DejaVuSans-6e" x="598.365234"/>
     </g>
    </g>
   </g>
  </g>
 </g>
 <defs>
  <clipPath id="p7adb3b08de">
   <rect x="48.039375" y="3.6" width="334.8" height="249.48"/>
  </clipPath>
 </defs>
</svg>
