<?xml version="1.0" encoding="utf-8" standalone="no"?>
<!DOCTYPE svg PUBLIC "-//W3C//DTD SVG 1.1//EN"
  "http://www.w3.org/Graphics/SVG/1.1/DTD/svg11.dtd">
<svg xmlns:xlink="http://www.w3.org/1999/xlink" width="386.439375pt" height="287.4075pt" viewBox="0 0 386.439375 287.4075" xmlns="http://www.w3.org/2000/svg" version="1.1">
 <metadata>
  <rdf:RDF xmlns:dc="http://purl.org/dc/elements/1.1/" xmlns:cc="http://creativecommons.org/ns#" xmlns:rdf="http://www.w3.org/1999/02/22-rdf-syntax-ns#">
   <cc:Work>
    <dc:type rdf:resource="http://purl.org/dc/dcmitype/StillImage"/>
    <dc:date>2024-06-25T09:50:29.460556</dc:date>
    <dc:format>image/svg+xml</dc:format>
    <dc:creator>
     <cc:Agent>
      <dc:title>Matplotlib v3.9.0, https://matplotlib.org/</dc:title>
     </cc:Agent>
    </dc:creator>
   </cc:Work>
  </rdf:RDF>
 </metadata>
 <defs>
  <style type="text/css">*{stroke-linejoin: round; stroke-linecap: butt}</style>
 </defs>
 <g id="figure_1">
  <g id="patch_1">
   <path d="M 0 287.4075 
L 386.439375 287.4075 
L 386.439375 0 
L 0 0 
z
" style="fill: #ffffff"/>
  </g>
  <g id="axes_1">
   <g id="patch_2">
    <path d="M 48.039375 253.08 
L 382.839375 253.08 
L 382.839375 3.6 
L 48.039375 3.6 
z
" style="fill: #ffffff"/>
   </g>
   <g id="PolyCollection_1">
    <defs>
     <path id="m99aac083db" d="M 63.257557 -246.630809 
L 63.257557 -71.408139 
L 63.867504 -109.966934 
L 64.477451 -71.533692 
L 65.087398 -125.455349 
L 65.697345 -138.607101 
L 66.307293 -153.204528 
L 66.91724 -127.893182 
L 67.527187 -130.563192 
L 68.137134 -146.71098 
L 68.747081 -144.094465 
L 69.357028 -158.106418 
L 69.966976 -152.671157 
L 70.576923 -165.740789 
L 71.18687 -153.289311 
L 71.796817 -139.98305 
L 72.406764 -141.297875 
L 73.016711 -133.402164 
L 73.626659 -153.289311 
L 74.236606 -159.207479 
L 74.846553 -156.446572 
L 75.4565 -157.610725 
L 76.066447 -163.206515 
L 76.676394 -158.2763 
L 77.286342 -167.967841 
L 77.896289 -160.99877 
L 78.506236 -166.443531 
L 79.116183 -168.20319 
L 79.72613 -171.612439 
L 80.336077 -168.591389 
L 80.946025 -176.955304 
L 81.555972 -173.735042 
L 82.165919 -177.554825 
L 82.775866 -175.451435 
L 83.385813 -179.490689 
L 83.99576 -181.507895 
L 84.605708 -252.665919 
L 85.215655 -232.24255 
L 85.825602 -250.714445 
L 86.435549 -224.377382 
L 87.045496 -228.027952 
L 87.655444 -233.546788 
L 88.265391 -259.144731 
L 88.875338 -252.179332 
L 89.485285 -258.98724 
L 90.095232 -258.97153 
L 90.705179 -259.699218 
L 91.315127 -249.451813 
L 91.925074 -258.962722 
L 92.535021 -252.353523 
L 93.144968 -249.48546 
L 93.754915 -256.356645 
L 94.364862 -231.059222 
L 94.97481 -253.598104 
L 95.584757 -253.981011 
L 96.194704 -258.097399 
L 96.804651 -217.654143 
L 97.414598 -230.467003 
L 98.024545 -259.646512 
L 98.634493 -258.605351 
L 99.24444 -233.040555 
L 99.854387 -234.53313 
L 100.464334 -256.35991 
L 101.074281 -256.612681 
L 101.684228 -250.223069 
L 102.294176 -232.554474 
L 102.904123 -229.667283 
L 103.51407 -230.887367 
L 104.124017 -233.400638 
L 104.733964 -232.370096 
L 105.343911 -232.665939 
L 105.953859 -230.216001 
L 106.563806 -232.100889 
L 107.173753 -224.581478 
L 107.7837 -233.656975 
L 108.393647 -233.35892 
L 109.003594 -233.439135 
L 109.613542 -229.902496 
L 110.223489 -234.248677 
L 110.833436 -233.854513 
L 111.443383 -233.438401 
L 112.05333 -233.586949 
L 112.663277 -252.334976 
L 113.273225 -257.777194 
L 113.883172 -239.64324 
L 114.493119 -239.123671 
L 115.103066 -231.720975 
L 115.713013 -231.77758 
L 116.32296 -231.46018 
L 116.932908 -232.695848 
L 117.542855 -234.63973 
L 118.152802 -231.767179 
L 118.762749 -225.166265 
L 119.372696 -232.608479 
L 119.982643 -251.611134 
L 120.592591 -233.953975 
L 121.202538 -259.555523 
L 121.812485 -246.090598 
L 122.422432 -236.302859 
L 123.032379 -226.891621 
L 123.642326 -239.958937 
L 124.252274 -257.354557 
L 124.862221 -257.943859 
L 125.472168 -257.306888 
L 126.082115 -255.202526 
L 126.692062 -237.057707 
L 127.302009 -255.084202 
L 127.911957 -255.09447 
L 128.521904 -249.445874 
L 129.131851 -247.987078 
L 129.741798 -247.761087 
L 130.351745 -251.943376 
L 130.961692 -257.763485 
L 131.57164 -258.105766 
L 132.181587 -253.618815 
L 132.791534 -250.078938 
L 133.401481 -256.701881 
L 134.011428 -256.010394 
L 134.621375 -236.332051 
L 135.231323 -237.426029 
L 135.84127 -251.658832 
L 136.451217 -251.1979 
L 137.061164 -255.315037 
L 137.671111 -251.271618 
L 138.281058 -255.409104 
L 138.891006 -257.790575 
L 139.500953 -256.623136 
L 140.1109 -232.208002 
L 140.720847 -235.489564 
L 141.330794 -233.173254 
L 141.940741 -263.495095 
L 142.550689 -255.677136 
L 143.160636 -259.996832 
L 143.770583 -263.311707 
L 144.38053 -263.616799 
L 144.990477 -263.286661 
L 145.600424 -262.684288 
L 146.210372 -258.485825 
L 146.820319 -255.076231 
L 147.430266 -256.256676 
L 148.040213 -244.753126 
L 148.65016 -255.136064 
L 149.260107 -254.434548 
L 149.870055 -245.518376 
L 150.480002 -240.059001 
L 151.089949 -254.312387 
L 151.699896 -262.052081 
L 152.309843 -261.960313 
L 152.91979 -262.142601 
L 153.529738 -260.857194 
L 154.139685 -244.708984 
L 154.749632 -244.487771 
L 155.359579 -241.934719 
L 155.969526 -231.864557 
L 156.579473 -251.007882 
L 157.189421 -256.457321 
L 157.799368 -257.34174 
L 158.409315 -258.76387 
L 159.019262 -255.960188 
L 159.629209 -257.508494 
L 160.239156 -256.016462 
L 160.849104 -250.918665 
L 161.459051 -255.880115 
L 162.068998 -263.774543 
L 162.678945 -245.139047 
L 163.288892 -261.252747 
L 163.898839 -262.798861 
L 164.508787 -261.404237 
L 165.118734 -260.344344 
L 165.728681 -261.392166 
L 166.338628 -261.406218 
L 166.948575 -260.939845 
L 167.558522 -241.448582 
L 168.16847 -252.224248 
L 168.778417 -254.831921 
L 169.388364 -259.499423 
L 169.998311 -261.644269 
L 170.608258 -259.175188 
L 171.218205 -262.791772 
L 171.828153 -262.792322 
L 172.4381 -251.562439 
L 173.048047 -258.132028 
L 173.657994 -263.864552 
L 174.267941 -264.681448 
L 174.877888 -263.773742 
L 175.487836 -256.770912 
L 176.097783 -263.960611 
L 176.70773 -263.590031 
L 177.317677 -264.26617 
L 177.927624 -264.284092 
L 178.537571 -264.283979 
L 179.147519 -261.90212 
L 179.757466 -263.172578 
L 180.367413 -263.16661 
L 180.97736 -264.125951 
L 181.587307 -258.767748 
L 182.197254 -259.605459 
L 182.807202 -258.60132 
L 183.417149 -262.882672 
L 184.027096 -260.616151 
L 184.637043 -263.750682 
L 185.24699 -263.749725 
L 185.856937 -261.660112 
L 186.466885 -260.122553 
L 187.076832 -261.989065 
L 187.686779 -263.264584 
L 188.296726 -263.612766 
L 188.906673 -265.736217 
L 189.51662 -265.167774 
L 190.126568 -264.174391 
L 190.736515 -266.048512 
L 191.346462 -266.265346 
L 191.956409 -266.912956 
L 192.566356 -261.772897 
L 193.176303 -261.75596 
L 193.786251 -262.252356 
L 194.396198 -267.604442 
L 195.006145 -261.427692 
L 195.616092 -267.537018 
L 196.226039 -267.486213 
L 196.835986 -267.35255 
L 197.445934 -261.3366 
L 198.055881 -260.206486 
L 198.665828 -264.441081 
L 199.275775 -263.685403 
L 199.885722 -265.8338 
L 200.495669 -263.350092 
L 201.105617 -262.142784 
L 201.715564 -260.963091 
L 202.325511 -251.842514 
L 202.935458 -261.206678 
L 203.545405 -258.885741 
L 204.155352 -260.551312 
L 204.7653 -259.977598 
L 205.375247 -261.96169 
L 205.985194 -255.842756 
L 206.595141 -255.842685 
L 207.205088 -261.497109 
L 207.815035 -261.585458 
L 208.424983 -261.52501 
L 209.03493 -261.41864 
L 209.644877 -263.288726 
L 210.254824 -265.904333 
L 210.864771 -262.527729 
L 211.474718 -262.78052 
L 212.084666 -264.152946 
L 212.694613 -258.630962 
L 213.30456 -264.577881 
L 213.914507 -258.394417 
L 214.524454 -264.894611 
L 215.134401 -266.277889 
L 215.744349 -266.615367 
L 216.354296 -260.87263 
L 216.964243 -264.952579 
L 217.57419 -261.487731 
L 218.184137 -269.86937 
L 218.794084 -258.693143 
L 219.404032 -258.619874 
L 220.013979 -257.517631 
L 220.623926 -258.577331 
L 221.233873 -262.967035 
L 221.84382 -262.824246 
L 222.453767 -259.670207 
L 223.063715 -258.318374 
L 223.673662 -258.588426 
L 224.283609 -254.851425 
L 224.893556 -257.291311 
L 225.503503 -257.667474 
L 226.11345 -255.459441 
L 226.723398 -264.130386 
L 227.333345 -264.449576 
L 227.943292 -256.148323 
L 228.553239 -258.501579 
L 229.163186 -255.136474 
L 229.773133 -254.712295 
L 230.383081 -245.856834 
L 230.993028 -248.242226 
L 231.602975 -253.570371 
L 232.212922 -254.407205 
L 232.822869 -257.646405 
L 233.432816 -255.923152 
L 234.042764 -255.337009 
L 234.652711 -257.008988 
L 235.262658 -258.1213 
L 235.872605 -257.726501 
L 236.482552 -257.726997 
L 237.092499 -258.080831 
L 237.702447 -259.034951 
L 238.312394 -261.992126 
L 238.922341 -263.025873 
L 239.532288 -261.990509 
L 240.142235 -257.674532 
L 240.752182 -258.215722 
L 241.36213 -260.83838 
L 241.972077 -258.139596 
L 242.582024 -256.199175 
L 243.191971 -256.951557 
L 243.801918 -256.828346 
L 244.411865 -256.902519 
L 245.021813 -256.120147 
L 245.63176 -257.110746 
L 246.241707 -260.273258 
L 246.851654 -260.860508 
L 247.461601 -260.860234 
L 248.071548 -258.58128 
L 248.681496 -258.587686 
L 249.291443 -259.304218 
L 249.90139 -258.970694 
L 250.511337 -260.657803 
L 251.121284 -258.239383 
L 251.731231 -262.55422 
L 252.341179 -264.136629 
L 252.951126 -262.672008 
L 253.561073 -259.832199 
L 254.17102 -260.06135 
L 254.780967 -255.591634 
L 255.390914 -252.327598 
L 256.000862 -258.302864 
L 256.610809 -262.487876 
L 257.220756 -261.601695 
L 257.830703 -261.481713 
L 258.44065 -257.309493 
L 259.050597 -260.770246 
L 259.660545 -255.399538 
L 260.270492 -255.549793 
L 260.880439 -239.786367 
L 261.490386 -239.687008 
L 262.100333 -239.604339 
L 262.71028 -255.64619 
L 263.320228 -253.266418 
L 263.930175 -252.935787 
L 264.540122 -255.085613 
L 265.150069 -252.165596 
L 265.760016 -260.458851 
L 266.369963 -262.42198 
L 266.979911 -261.369173 
L 267.589858 -261.359938 
L 268.199805 -260.944136 
L 268.809752 -261.359177 
L 269.419699 -261.876881 
L 270.029646 -255.325917 
L 270.639594 -254.373383 
L 271.249541 -261.530833 
L 271.859488 -262.233038 
L 272.469435 -263.003214 
L 273.079382 -261.752652 
L 273.689329 -254.023689 
L 274.299277 -261.458448 
L 274.909224 -261.237524 
L 275.519171 -261.467561 
L 276.129118 -251.108634 
L 276.739065 -260.38287 
L 277.349012 -261.751029 
L 277.95896 -261.338268 
L 278.568907 -255.534207 
L 279.178854 -260.006164 
L 279.788801 -261.511791 
L 280.398748 -238.561559 
L 281.008695 -251.331735 
L 281.618643 -252.454036 
L 282.22859 -254.153724 
L 282.838537 -254.0814 
L 283.448484 -254.491076 
L 284.058431 -258.752581 
L 284.668378 -257.272177 
L 285.278326 -263.692537 
L 285.888273 -256.051966 
L 286.49822 -263.847733 
L 287.108167 -263.633602 
L 287.718114 -263.847778 
L 288.328061 -262.734965 
L 288.938009 -260.830086 
L 289.547956 -263.675161 
L 290.157903 -262.425504 
L 290.76785 -263.850438 
L 291.377797 -263.790638 
L 291.987744 -258.494086 
L 292.597692 -268.295333 
L 293.207639 -268.296182 
L 293.817586 -268.295433 
L 294.427533 -267.148885 
L 295.03748 -266.254077 
L 295.647427 -263.779889 
L 296.257375 -266.114119 
L 296.867322 -266.091201 
L 297.477269 -263.40883 
L 298.087216 -262.530995 
L 298.697163 -263.52266 
L 299.30711 -257.170364 
L 299.917058 -258.079847 
L 300.527005 -257.171389 
L 301.136952 -255.58377 
L 301.746899 -258.215824 
L 302.356846 -264.550464 
L 302.966793 -264.164455 
L 303.576741 -261.73448 
L 304.186688 -261.949169 
L 304.796635 -265.044134 
L 305.406582 -266.700434 
L 306.016529 -266.756843 
L 306.626476 -267.347646 
L 307.236424 -266.613384 
L 307.846371 -265.185364 
L 308.456318 -258.151975 
L 309.066265 -265.911823 
L 309.676212 -267.245665 
L 310.286159 -260.670373 
L 310.896107 -264.479216 
L 311.506054 -233.268872 
L 312.116001 -260.692592 
L 312.725948 -264.543038 
L 313.335895 -256.880659 
L 313.945842 -260.013994 
L 314.55579 -256.876896 
L 315.165737 -254.90331 
L 315.775684 -256.145124 
L 316.385631 -256.595878 
L 316.995578 -256.144179 
L 317.605525 -252.054584 
L 318.215473 -253.449222 
L 318.82542 -262.008656 
L 319.435367 -262.008399 
L 320.045314 -263.321877 
L 320.655261 -264.477569 
L 321.265208 -264.943316 
L 321.875156 -264.477405 
L 322.485103 -260.249566 
L 323.09505 -266.61997 
L 323.704997 -258.458873 
L 324.314944 -258.44501 
L 324.924891 -263.124535 
L 325.534839 -261.276796 
L 326.144786 -264.84936 
L 326.754733 -263.125744 
L 327.36468 -257.663775 
L 327.974627 -250.05961 
L 328.584574 -255.570053 
L 329.194522 -250.056358 
L 329.804469 -258.302117 
L 330.414416 -258.398781 
L 331.024363 -260.646656 
L 331.63431 -259.298277 
L 332.244257 -253.3904 
L 332.854205 -249.46221 
L 333.464152 -260.289423 
L 334.074099 -260.866082 
L 334.684046 -260.844197 
L 335.293993 -255.501062 
L 335.90394 -239.415331 
L 336.513888 -249.086194 
L 337.123835 -260.971452 
L 337.733782 -260.819863 
L 338.343729 -261.052663 
L 338.953676 -257.384596 
L 339.563623 -262.819473 
L 340.173571 -263.552383 
L 340.783518 -263.543538 
L 341.393465 -258.973828 
L 342.003412 -262.985257 
L 342.613359 -254.451096 
L 343.223306 -261.788211 
L 343.833254 -259.63819 
L 344.443201 -258.497032 
L 345.053148 -259.088598 
L 345.663095 -252.243113 
L 346.273042 -261.602736 
L 346.88299 -261.574467 
L 347.492937 -264.794998 
L 348.102884 -263.114 
L 348.712831 -263.147901 
L 349.322778 -262.181212 
L 349.932725 -262.181285 
L 350.542673 -255.603973 
L 351.15262 -257.764132 
L 351.762567 -259.959526 
L 352.372514 -259.959677 
L 352.982461 -261.628319 
L 353.592408 -255.185126 
L 354.202356 -252.743444 
L 354.812303 -261.232703 
L 355.42225 -267.918589 
L 356.032197 -268.653251 
L 356.642144 -266.263051 
L 357.252091 -268.65329 
L 357.862039 -268.647706 
L 358.471986 -262.219018 
L 359.081933 -265.236201 
L 359.69188 -267.915932 
L 360.301827 -266.519176 
L 360.911774 -266.105347 
L 361.521722 -268.173025 
L 362.131669 -268.647316 
L 362.741616 -268.647702 
L 363.351563 -268.647385 
L 363.96151 -268.195261 
L 364.571457 -267.318458 
L 365.181405 -267.333656 
L 365.791352 -267.653852 
L 366.401299 -264.628206 
L 367.011246 -258.145125 
L 367.621193 -262.377832 
L 367.621193 -272.458234 
L 367.621193 -272.458234 
L 367.011246 -272.460749 
L 366.401299 -272.46283 
L 365.791352 -272.459259 
L 365.181405 -272.46084 
L 364.571457 -272.460975 
L 363.96151 -272.461824 
L 363.351563 -272.459707 
L 362.741616 -272.460724 
L 362.131669 -272.461403 
L 361.521722 -272.463013 
L 360.911774 -272.459197 
L 360.301827 -272.459257 
L 359.69188 -272.459401 
L 359.081933 -272.465411 
L 358.471986 -272.461199 
L 357.862039 -272.465271 
L 357.252091 -272.460324 
L 356.642144 -272.463455 
L 356.032197 -272.463 
L 355.42225 -272.464036 
L 354.812303 -272.436355 
L 354.202356 -272.460253 
L 353.592408 -272.462917 
L 352.982461 -272.460611 
L 352.372514 -272.462237 
L 351.762567 -272.466073 
L 351.15262 -272.454862 
L 350.542673 -272.463101 
L 349.932725 -272.461472 
L 349.322778 -272.45995 
L 348.712831 -272.461981 
L 348.102884 -272.461906 
L 347.492937 -272.455125 
L 346.88299 -272.46247 
L 346.273042 -272.460934 
L 345.663095 -272.45967 
L 345.053148 -272.462372 
L 344.443201 -272.46118 
L 343.833254 -272.466196 
L 343.223306 -272.462294 
L 342.613359 -272.462708 
L 342.003412 -272.461621 
L 341.393465 -272.463117 
L 340.783518 -272.460539 
L 340.173571 -272.458719 
L 339.563623 -272.45686 
L 338.953676 -272.461478 
L 338.343729 -272.435865 
L 337.733782 -272.459706 
L 337.123835 -272.462432 
L 336.513888 -272.46227 
L 335.90394 -272.45462 
L 335.293993 -272.460928 
L 334.684046 -272.458657 
L 334.074099 -272.460906 
L 333.464152 -272.463059 
L 332.854205 -272.460093 
L 332.244257 -272.46197 
L 331.63431 -272.461132 
L 331.024363 -272.457874 
L 330.414416 -272.459021 
L 329.804469 -272.462395 
L 329.194522 -272.461352 
L 328.584574 -272.463275 
L 327.974627 -272.461473 
L 327.36468 -272.459161 
L 326.754733 -272.461366 
L 326.144786 -272.460139 
L 325.534839 -272.458071 
L 324.924891 -272.461416 
L 324.314944 -272.462104 
L 323.704997 -272.461117 
L 323.09505 -272.462906 
L 322.485103 -272.46234 
L 321.875156 -272.460817 
L 321.265208 -272.461393 
L 320.655261 -272.463127 
L 320.045314 -272.46213 
L 319.435367 -272.453279 
L 318.82542 -272.461783 
L 318.215473 -272.459867 
L 317.605525 -272.461977 
L 316.995578 -272.462872 
L 316.385631 -272.462091 
L 315.775684 -272.461287 
L 315.165737 -272.461625 
L 314.55579 -272.452802 
L 313.945842 -272.463092 
L 313.335895 -272.464956 
L 312.725948 -272.462816 
L 312.116001 -272.462087 
L 311.506054 -272.463019 
L 310.896107 -272.46218 
L 310.286159 -272.4675 
L 309.676212 -272.460667 
L 309.066265 -272.460349 
L 308.456318 -272.46319 
L 307.846371 -272.459616 
L 307.236424 -272.463028 
L 306.626476 -272.460919 
L 306.016529 -272.458457 
L 305.406582 -272.461124 
L 304.796635 -272.454292 
L 304.186688 -272.459671 
L 303.576741 -272.460567 
L 302.966793 -272.463065 
L 302.356846 -272.461114 
L 301.746899 -272.461153 
L 301.136952 -272.461329 
L 300.527005 -272.462532 
L 299.917058 -272.462704 
L 299.30711 -272.437608 
L 298.697163 -272.460375 
L 298.087216 -272.459959 
L 297.477269 -272.462338 
L 296.867322 -272.459045 
L 296.257375 -272.462722 
L 295.647427 -272.458661 
L 295.03748 -272.461198 
L 294.427533 -272.458255 
L 293.817586 -272.461271 
L 293.207639 -272.458337 
L 292.597692 -272.463518 
L 291.987744 -272.462021 
L 291.377797 -272.462255 
L 290.76785 -272.443526 
L 290.157903 -272.461626 
L 289.547956 -272.46195 
L 288.938009 -272.463322 
L 288.328061 -272.461922 
L 287.718114 -272.458904 
L 287.108167 -272.455711 
L 286.49822 -272.460847 
L 285.888273 -272.437588 
L 285.278326 -272.459172 
L 284.668378 -272.457722 
L 284.058431 -272.454879 
L 283.448484 -272.457413 
L 282.838537 -272.461583 
L 282.22859 -272.451367 
L 281.618643 -272.447486 
L 281.008695 -272.454238 
L 280.398748 -272.460974 
L 279.788801 -272.460356 
L 279.178854 -272.459345 
L 278.568907 -272.462671 
L 277.95896 -272.460967 
L 277.349012 -272.461906 
L 276.739065 -272.460171 
L 276.129118 -272.441486 
L 275.519171 -272.460727 
L 274.909224 -272.460963 
L 274.299277 -272.436553 
L 273.689329 -272.455869 
L 273.079382 -272.46053 
L 272.469435 -272.462664 
L 271.859488 -272.461708 
L 271.249541 -272.443562 
L 270.639594 -272.458147 
L 270.029646 -272.443452 
L 269.419699 -272.461847 
L 268.809752 -272.462924 
L 268.199805 -272.460113 
L 267.589858 -272.456614 
L 266.979911 -272.447623 
L 266.369963 -272.459125 
L 265.760016 -272.458082 
L 265.150069 -272.457873 
L 264.540122 -272.448347 
L 263.930175 -272.461874 
L 263.320228 -272.457581 
L 262.71028 -272.461242 
L 262.100333 -272.436649 
L 261.490386 -272.440262 
L 260.880439 -272.435708 
L 260.270492 -272.437245 
L 259.660545 -272.458951 
L 259.050597 -272.435793 
L 258.44065 -272.435725 
L 257.830703 -272.435572 
L 257.220756 -272.428239 
L 256.610809 -272.406782 
L 256.000862 -272.405357 
L 255.390914 -272.399648 
L 254.780967 -272.398581 
L 254.17102 -272.393063 
L 253.561073 -272.396194 
L 252.951126 -272.395591 
L 252.341179 -272.394811 
L 251.731231 -272.392879 
L 251.121284 -272.39272 
L 250.511337 -272.395857 
L 249.90139 -272.389601 
L 249.291443 -272.389325 
L 248.681496 -272.383383 
L 248.071548 -272.375078 
L 247.461601 -272.367894 
L 246.851654 -272.362741 
L 246.241707 -272.352258 
L 245.63176 -272.366967 
L 245.021813 -272.363078 
L 244.411865 -272.354337 
L 243.801918 -272.360153 
L 243.191971 -272.362064 
L 242.582024 -272.352501 
L 241.972077 -272.355901 
L 241.36213 -272.362666 
L 240.752182 -272.362064 
L 240.142235 -272.362894 
L 239.532288 -272.361273 
L 238.922341 -272.352528 
L 238.312394 -272.361714 
L 237.702447 -272.35941 
L 237.092499 -272.373854 
L 236.482552 -272.362535 
L 235.872605 -272.361827 
L 235.262658 -272.348279 
L 234.652711 -272.351881 
L 234.042764 -272.376315 
L 233.432816 -272.356888 
L 232.822869 -272.357692 
L 232.212922 -272.361198 
L 231.602975 -272.36303 
L 230.993028 -272.357353 
L 230.383081 -272.345912 
L 229.773133 -272.361227 
L 229.163186 -272.360963 
L 228.553239 -272.361584 
L 227.943292 -272.357234 
L 227.333345 -272.347286 
L 226.723398 -272.347144 
L 226.11345 -272.344312 
L 225.503503 -272.344354 
L 224.893556 -272.347169 
L 224.283609 -272.344245 
L 223.673662 -272.344286 
L 223.063715 -272.34423 
L 222.453767 -272.344369 
L 221.84382 -272.297845 
L 221.233873 -272.256679 
L 220.623926 -272.261485 
L 220.013979 -272.277754 
L 219.404032 -272.256321 
L 218.794084 -272.256224 
L 218.184137 -272.236863 
L 217.57419 -272.248901 
L 216.964243 -272.231042 
L 216.354296 -272.23101 
L 215.744349 -272.231057 
L 215.134401 -272.231039 
L 214.524454 -272.231019 
L 213.914507 -272.230985 
L 213.30456 -272.230788 
L 212.694613 -272.230688 
L 212.084666 -272.226426 
L 211.474718 -272.232752 
L 210.864771 -272.221574 
L 210.254824 -272.221552 
L 209.644877 -272.244118 
L 209.03493 -272.223705 
L 208.424983 -272.221853 
L 207.815035 -272.22672 
L 207.205088 -272.231736 
L 206.595141 -272.227587 
L 205.985194 -272.221539 
L 205.375247 -272.221453 
L 204.7653 -272.221464 
L 204.155352 -272.221301 
L 203.545405 -272.221571 
L 202.935458 -272.221592 
L 202.325511 -272.221304 
L 201.715564 -272.186729 
L 201.105617 -272.122541 
L 200.495669 -272.122054 
L 199.885722 -272.122341 
L 199.275775 -272.122378 
L 198.665828 -272.120934 
L 198.055881 -272.120657 
L 197.445934 -272.120558 
L 196.835986 -272.122477 
L 196.226039 -272.121465 
L 195.616092 -272.120628 
L 195.006145 -272.12209 
L 194.396198 -272.121661 
L 193.786251 -272.120574 
L 193.176303 -272.122067 
L 192.566356 -272.121801 
L 191.956409 -272.120599 
L 191.346462 -272.120426 
L 190.736515 -272.094108 
L 190.126568 -272.090929 
L 189.51662 -272.0858 
L 188.906673 -272.095923 
L 188.296726 -272.087029 
L 187.686779 -272.085661 
L 187.076832 -272.084439 
L 186.466885 -272.010229 
L 185.856937 -272.0102 
L 185.24699 -272.010143 
L 184.637043 -272.015821 
L 184.027096 -272.015307 
L 183.417149 -272.010366 
L 182.807202 -272.010298 
L 182.197254 -272.010128 
L 181.587307 -272.010274 
L 180.97736 -272.008801 
L 180.367413 -272.008759 
L 179.757466 -272.008934 
L 179.147519 -272.008829 
L 178.537571 -272.008348 
L 177.927624 -272.008757 
L 177.317677 -272.0087 
L 176.70773 -272.008894 
L 176.097783 -272.008777 
L 175.487836 -271.608161 
L 174.877888 -271.607932 
L 174.267941 -271.608051 
L 173.657994 -271.607772 
L 173.048047 -271.607833 
L 172.4381 -271.607952 
L 171.828153 -271.608176 
L 171.218205 -271.608037 
L 170.608258 -271.369783 
L 169.998311 -271.365332 
L 169.388364 -271.365336 
L 168.778417 -271.364769 
L 168.16847 -271.365337 
L 167.558522 -271.364914 
L 166.948575 -271.354406 
L 166.338628 -271.215828 
L 165.728681 -271.20163 
L 165.118734 -271.202562 
L 164.508787 -271.201756 
L 163.898839 -271.214131 
L 163.288892 -271.201414 
L 162.678945 -271.201277 
L 162.068998 -271.197975 
L 161.459051 -271.196995 
L 160.849104 -271.220926 
L 160.239156 -271.19799 
L 159.629209 -271.219962 
L 159.019262 -271.023155 
L 158.409315 -271.023164 
L 157.799368 -270.950719 
L 157.189421 -270.950016 
L 156.579473 -270.949771 
L 155.969526 -270.949939 
L 155.359579 -270.949794 
L 154.749632 -270.950159 
L 154.139685 -270.950245 
L 153.529738 -270.949922 
L 152.91979 -270.950148 
L 152.309843 -270.950033 
L 151.699896 -270.950124 
L 151.089949 -270.736182 
L 150.480002 -270.736102 
L 149.870055 -270.672002 
L 149.260107 -270.671406 
L 148.65016 -270.671124 
L 148.040213 -270.671669 
L 147.430266 -270.428158 
L 146.820319 -270.427676 
L 146.210372 -270.417737 
L 145.600424 -270.427578 
L 144.990477 -270.434486 
L 144.38053 -270.417561 
L 143.770583 -270.416212 
L 143.160636 -270.416354 
L 142.550689 -270.418336 
L 141.940741 -270.417393 
L 141.330794 -270.41755 
L 140.720847 -270.082871 
L 140.1109 -269.907155 
L 139.500953 -269.907578 
L 138.891006 -269.840491 
L 138.281058 -269.840435 
L 137.671111 -269.840532 
L 137.061164 -269.840472 
L 136.451217 -269.840276 
L 135.84127 -269.670332 
L 135.231323 -269.68065 
L 134.621375 -268.725766 
L 134.011428 -268.72577 
L 133.401481 -268.725887 
L 132.791534 -268.424489 
L 132.181587 -268.353873 
L 131.57164 -268.355258 
L 130.961692 -268.355684 
L 130.351745 -268.354923 
L 129.741798 -268.161029 
L 129.131851 -268.146113 
L 128.521904 -268.146727 
L 127.911957 -268.146449 
L 127.302009 -268.145507 
L 126.692062 -268.146853 
L 126.082115 -268.107787 
L 125.472168 -267.544649 
L 124.862221 -267.54466 
L 124.252274 -267.544696 
L 123.642326 -267.40791 
L 123.032379 -267.408053 
L 122.422432 -267.264071 
L 121.812485 -266.810624 
L 121.202538 -266.810839 
L 120.592591 -266.810307 
L 119.982643 -266.810408 
L 119.372696 -265.981406 
L 118.762749 -265.981705 
L 118.152802 -265.981415 
L 117.542855 -265.981354 
L 116.932908 -265.659934 
L 116.32296 -265.660024 
L 115.713013 -265.659823 
L 115.103066 -265.660198 
L 114.493119 -265.57598 
L 113.883172 -265.572436 
L 113.273225 -265.572251 
L 112.663277 -265.445047 
L 112.05333 -265.443646 
L 111.443383 -265.309817 
L 110.833436 -265.309445 
L 110.223489 -265.30986 
L 109.613542 -265.309069 
L 109.003594 -265.198676 
L 108.393647 -265.199289 
L 107.7837 -265.198864 
L 107.173753 -265.198412 
L 106.563806 -265.198738 
L 105.953859 -265.19898 
L 105.343911 -265.198137 
L 104.733964 -265.198473 
L 104.124017 -265.198408 
L 103.51407 -265.19673 
L 102.904123 -264.876799 
L 102.294176 -264.876422 
L 101.684228 -264.875822 
L 101.074281 -264.876512 
L 100.464334 -264.876514 
L 99.854387 -264.875833 
L 99.24444 -264.876498 
L 98.634493 -264.870469 
L 98.024545 -264.199241 
L 97.414598 -264.199065 
L 96.804651 -264.199008 
L 96.194704 -264.199165 
L 95.584757 -264.198922 
L 94.97481 -264.114826 
L 94.364862 -263.423659 
L 93.754915 -263.42554 
L 93.144968 -263.052784 
L 92.535021 -263.05281 
L 91.925074 -263.052681 
L 91.315127 -263.052812 
L 90.705179 -263.052647 
L 90.095232 -262.955044 
L 89.485285 -262.954797 
L 88.875338 -262.93925 
L 88.265391 -262.939225 
L 87.655444 -262.939189 
L 87.045496 -262.938996 
L 86.435549 -262.938863 
L 85.825602 -262.896574 
L 85.215655 -262.896828 
L 84.605708 -262.581856 
L 83.99576 -262.581973 
L 83.385813 -262.582304 
L 82.775866 -262.578451 
L 82.165919 -262.569806 
L 81.555972 -262.429262 
L 80.946025 -262.428561 
L 80.336077 -262.426881 
L 79.72613 -261.943659 
L 79.116183 -261.943578 
L 78.506236 -261.94361 
L 77.896289 -261.943596 
L 77.286342 -261.943631 
L 76.676394 -261.94351 
L 76.066447 -261.943592 
L 75.4565 -261.943448 
L 74.846553 -261.943642 
L 74.236606 -261.943429 
L 73.626659 -261.943521 
L 73.016711 -261.943493 
L 72.406764 -261.943349 
L 71.796817 -261.943456 
L 71.18687 -261.943551 
L 70.576923 -261.866092 
L 69.966976 -261.865772 
L 69.357028 -261.866246 
L 68.747081 -261.866228 
L 68.137134 -261.86641 
L 67.527187 -261.866159 
L 66.91724 -261.866316 
L 66.307293 -261.866376 
L 65.697345 -261.866087 
L 65.087398 -261.866066 
L 64.477451 -260.446445 
L 63.867504 -250.512138 
L 63.257557 -246.630809 
z
" style="stroke: #0000ff; stroke-opacity: 0.2"/>
    </defs>
    <g clip-path="url(#p7ecfb51d4c)">
     <use xlink:href="#m99aac083db" x="0" y="287.4075" style="fill: #0000ff; fill-opacity: 0.2; stroke: #0000ff; stroke-opacity: 0.2"/>
    </g>
   </g>
   <g id="matplotlib.axis_1">
    <g id="xtick_1">
     <g id="line2d_1">
      <path d="M 63.257557 253.08 
L 63.257557 3.6 
" clip-path="url(#p7ecfb51d4c)" style="fill: none; stroke: #b0b0b0; stroke-width: 0.5; stroke-linecap: square"/>
     </g>
     <g id="line2d_2">
      <defs>
       <path id="m329f8ebed4" d="M 0 0 
L 0 -3 
" style="stroke: #000000; stroke-width: 0.5"/>
      </defs>
      <g>
       <use xlink:href="#m329f8ebed4" x="63.257557" y="253.08" style="stroke: #000000; stroke-width: 0.5"/>
      </g>
     </g>
     <g id="line2d_3">
      <defs>
       <path id="m14543c0233" d="M 0 0 
L 0 3 
" style="stroke: #000000; stroke-width: 0.5"/>
      </defs>
      <g>
       <use xlink:href="#m14543c0233" x="63.257557" y="3.6" style="stroke: #000000; stroke-width: 0.5"/>
      </g>
     </g>
     <g id="text_1">
      <!-- 0 -->
      <g transform="translate(59.440057 265.698125) scale(0.12 -0.12)">
       <defs>
        <path id="DejaVuSans-30" d="M 2034 4250 
Q 1547 4250 1301 3770 
Q 1056 3291 1056 2328 
Q 1056 1369 1301 889 
Q 1547 409 2034 409 
Q 2525 409 2770 889 
Q 3016 1369 3016 2328 
Q 3016 3291 2770 3770 
Q 2525 4250 2034 4250 
z
M 2034 4750 
Q 2819 4750 3233 4129 
Q 3647 3509 3647 2328 
Q 3647 1150 3233 529 
Q 2819 -91 2034 -91 
Q 1250 -91 836 529 
Q 422 1150 422 2328 
Q 422 3509 836 4129 
Q 1250 4750 2034 4750 
z
" transform="scale(0.015625)"/>
       </defs>
       <use xlink:href="#DejaVuSans-30"/>
      </g>
     </g>
    </g>
    <g id="xtick_2">
     <g id="line2d_4">
      <path d="M 124.252274 253.08 
L 124.252274 3.6 
" clip-path="url(#p7ecfb51d4c)" style="fill: none; stroke: #b0b0b0; stroke-width: 0.5; stroke-linecap: square"/>
     </g>
     <g id="line2d_5">
      <g>
       <use xlink:href="#m329f8ebed4" x="124.252274" y="253.08" style="stroke: #000000; stroke-width: 0.5"/>
      </g>
     </g>
     <g id="line2d_6">
      <g>
       <use xlink:href="#m14543c0233" x="124.252274" y="3.6" style="stroke: #000000; stroke-width: 0.5"/>
      </g>
     </g>
     <g id="text_2">
      <!-- 100 -->
      <g transform="translate(112.799774 265.698125) scale(0.12 -0.12)">
       <defs>
        <path id="DejaVuSans-31" d="M 794 531 
L 1825 531 
L 1825 4091 
L 703 3866 
L 703 4441 
L 1819 4666 
L 2450 4666 
L 2450 531 
L 3481 531 
L 3481 0 
L 794 0 
L 794 531 
z
" transform="scale(0.015625)"/>
       </defs>
       <use xlink:href="#DejaVuSans-31"/>
       <use xlink:href="#DejaVuSans-30" x="63.623047"/>
       <use xlink:href="#DejaVuSans-30" x="127.246094"/>
      </g>
     </g>
    </g>
    <g id="xtick_3">
     <g id="line2d_7">
      <path d="M 185.24699 253.08 
L 185.24699 3.6 
" clip-path="url(#p7ecfb51d4c)" style="fill: none; stroke: #b0b0b0; stroke-width: 0.5; stroke-linecap: square"/>
     </g>
     <g id="line2d_8">
      <g>
       <use xlink:href="#m329f8ebed4" x="185.24699" y="253.08" style="stroke: #000000; stroke-width: 0.5"/>
      </g>
     </g>
     <g id="line2d_9">
      <g>
       <use xlink:href="#m14543c0233" x="185.24699" y="3.6" style="stroke: #000000; stroke-width: 0.5"/>
      </g>
     </g>
     <g id="text_3">
      <!-- 200 -->
      <g transform="translate(173.79449 265.698125) scale(0.12 -0.12)">
       <defs>
        <path id="DejaVuSans-32" d="M 1228 531 
L 3431 531 
L 3431 0 
L 469 0 
L 469 531 
Q 828 903 1448 1529 
Q 2069 2156 2228 2338 
Q 2531 2678 2651 2914 
Q 2772 3150 2772 3378 
Q 2772 3750 2511 3984 
Q 2250 4219 1831 4219 
Q 1534 4219 1204 4116 
Q 875 4013 500 3803 
L 500 4441 
Q 881 4594 1212 4672 
Q 1544 4750 1819 4750 
Q 2544 4750 2975 4387 
Q 3406 4025 3406 3419 
Q 3406 3131 3298 2873 
Q 3191 2616 2906 2266 
Q 2828 2175 2409 1742 
Q 1991 1309 1228 531 
z
" transform="scale(0.015625)"/>
       </defs>
       <use xlink:href="#DejaVuSans-32"/>
       <use xlink:href="#DejaVuSans-30" x="63.623047"/>
       <use xlink:href="#DejaVuSans-30" x="127.246094"/>
      </g>
     </g>
    </g>
    <g id="xtick_4">
     <g id="line2d_10">
      <path d="M 246.241707 253.08 
L 246.241707 3.6 
" clip-path="url(#p7ecfb51d4c)" style="fill: none; stroke: #b0b0b0; stroke-width: 0.5; stroke-linecap: square"/>
     </g>
     <g id="line2d_11">
      <g>
       <use xlink:href="#m329f8ebed4" x="246.241707" y="253.08" style="stroke: #000000; stroke-width: 0.5"/>
      </g>
     </g>
     <g id="line2d_12">
      <g>
       <use xlink:href="#m14543c0233" x="246.241707" y="3.6" style="stroke: #000000; stroke-width: 0.5"/>
      </g>
     </g>
     <g id="text_4">
      <!-- 300 -->
      <g transform="translate(234.789207 265.698125) scale(0.12 -0.12)">
       <defs>
        <path id="DejaVuSans-33" d="M 2597 2516 
Q 3050 2419 3304 2112 
Q 3559 1806 3559 1356 
Q 3559 666 3084 287 
Q 2609 -91 1734 -91 
Q 1441 -91 1130 -33 
Q 819 25 488 141 
L 488 750 
Q 750 597 1062 519 
Q 1375 441 1716 441 
Q 2309 441 2620 675 
Q 2931 909 2931 1356 
Q 2931 1769 2642 2001 
Q 2353 2234 1838 2234 
L 1294 2234 
L 1294 2753 
L 1863 2753 
Q 2328 2753 2575 2939 
Q 2822 3125 2822 3475 
Q 2822 3834 2567 4026 
Q 2313 4219 1838 4219 
Q 1578 4219 1281 4162 
Q 984 4106 628 3988 
L 628 4550 
Q 988 4650 1302 4700 
Q 1616 4750 1894 4750 
Q 2613 4750 3031 4423 
Q 3450 4097 3450 3541 
Q 3450 3153 3228 2886 
Q 3006 2619 2597 2516 
z
" transform="scale(0.015625)"/>
       </defs>
       <use xlink:href="#DejaVuSans-33"/>
       <use xlink:href="#DejaVuSans-30" x="63.623047"/>
       <use xlink:href="#DejaVuSans-30" x="127.246094"/>
      </g>
     </g>
    </g>
    <g id="xtick_5">
     <g id="line2d_13">
      <path d="M 307.236424 253.08 
L 307.236424 3.6 
" clip-path="url(#p7ecfb51d4c)" style="fill: none; stroke: #b0b0b0; stroke-width: 0.5; stroke-linecap: square"/>
     </g>
     <g id="line2d_14">
      <g>
       <use xlink:href="#m329f8ebed4" x="307.236424" y="253.08" style="stroke: #000000; stroke-width: 0.5"/>
      </g>
     </g>
     <g id="line2d_15">
      <g>
       <use xlink:href="#m14543c0233" x="307.236424" y="3.6" style="stroke: #000000; stroke-width: 0.5"/>
      </g>
     </g>
     <g id="text_5">
      <!-- 400 -->
      <g transform="translate(295.783924 265.698125) scale(0.12 -0.12)">
       <defs>
        <path id="DejaVuSans-34" d="M 2419 4116 
L 825 1625 
L 2419 1625 
L 2419 4116 
z
M 2253 4666 
L 3047 4666 
L 3047 1625 
L 3713 1625 
L 3713 1100 
L 3047 1100 
L 3047 0 
L 2419 0 
L 2419 1100 
L 313 1100 
L 313 1709 
L 2253 4666 
z
" transform="scale(0.015625)"/>
       </defs>
       <use xlink:href="#DejaVuSans-34"/>
       <use xlink:href="#DejaVuSans-30" x="63.623047"/>
       <use xlink:href="#DejaVuSans-30" x="127.246094"/>
      </g>
     </g>
    </g>
    <g id="xtick_6">
     <g id="line2d_16">
      <path d="M 368.23114 253.08 
L 368.23114 3.6 
" clip-path="url(#p7ecfb51d4c)" style="fill: none; stroke: #b0b0b0; stroke-width: 0.5; stroke-linecap: square"/>
     </g>
     <g id="line2d_17">
      <g>
       <use xlink:href="#m329f8ebed4" x="368.23114" y="253.08" style="stroke: #000000; stroke-width: 0.5"/>
      </g>
     </g>
     <g id="line2d_18">
      <g>
       <use xlink:href="#m14543c0233" x="368.23114" y="3.6" style="stroke: #000000; stroke-width: 0.5"/>
      </g>
     </g>
     <g id="text_6">
      <!-- 500 -->
      <g transform="translate(356.77864 265.698125) scale(0.12 -0.12)">
       <defs>
        <path id="DejaVuSans-35" d="M 691 4666 
L 3169 4666 
L 3169 4134 
L 1269 4134 
L 1269 2991 
Q 1406 3038 1543 3061 
Q 1681 3084 1819 3084 
Q 2600 3084 3056 2656 
Q 3513 2228 3513 1497 
Q 3513 744 3044 326 
Q 2575 -91 1722 -91 
Q 1428 -91 1123 -41 
Q 819 9 494 109 
L 494 744 
Q 775 591 1075 516 
Q 1375 441 1709 441 
Q 2250 441 2565 725 
Q 2881 1009 2881 1497 
Q 2881 1984 2565 2268 
Q 2250 2553 1709 2553 
Q 1456 2553 1204 2497 
Q 953 2441 691 2322 
L 691 4666 
z
" transform="scale(0.015625)"/>
       </defs>
       <use xlink:href="#DejaVuSans-35"/>
       <use xlink:href="#DejaVuSans-30" x="63.623047"/>
       <use xlink:href="#DejaVuSans-30" x="127.246094"/>
      </g>
     </g>
    </g>
    <g id="xtick_7">
     <g id="line2d_19">
      <defs>
       <path id="m38adf7c10e" d="M 0 0 
L 0 -1.5 
" style="stroke: #000000; stroke-width: 0.5"/>
      </defs>
      <g>
       <use xlink:href="#m38adf7c10e" x="51.058613" y="253.08" style="stroke: #000000; stroke-width: 0.5"/>
      </g>
     </g>
     <g id="line2d_20">
      <defs>
       <path id="m143ab25821" d="M 0 0 
L 0 1.5 
" style="stroke: #000000; stroke-width: 0.5"/>
      </defs>
      <g>
       <use xlink:href="#m143ab25821" x="51.058613" y="3.6" style="stroke: #000000; stroke-width: 0.5"/>
      </g>
     </g>
    </g>
    <g id="xtick_8">
     <g id="line2d_21">
      <g>
       <use xlink:href="#m38adf7c10e" x="75.4565" y="253.08" style="stroke: #000000; stroke-width: 0.5"/>
      </g>
     </g>
     <g id="line2d_22">
      <g>
       <use xlink:href="#m143ab25821" x="75.4565" y="3.6" style="stroke: #000000; stroke-width: 0.5"/>
      </g>
     </g>
    </g>
    <g id="xtick_9">
     <g id="line2d_23">
      <g>
       <use xlink:href="#m38adf7c10e" x="87.655444" y="253.08" style="stroke: #000000; stroke-width: 0.5"/>
      </g>
     </g>
     <g id="line2d_24">
      <g>
       <use xlink:href="#m143ab25821" x="87.655444" y="3.6" style="stroke: #000000; stroke-width: 0.5"/>
      </g>
     </g>
    </g>
    <g id="xtick_10">
     <g id="line2d_25">
      <g>
       <use xlink:href="#m38adf7c10e" x="99.854387" y="253.08" style="stroke: #000000; stroke-width: 0.5"/>
      </g>
     </g>
     <g id="line2d_26">
      <g>
       <use xlink:href="#m143ab25821" x="99.854387" y="3.6" style="stroke: #000000; stroke-width: 0.5"/>
      </g>
     </g>
    </g>
    <g id="xtick_11">
     <g id="line2d_27">
      <g>
       <use xlink:href="#m38adf7c10e" x="112.05333" y="253.08" style="stroke: #000000; stroke-width: 0.5"/>
      </g>
     </g>
     <g id="line2d_28">
      <g>
       <use xlink:href="#m143ab25821" x="112.05333" y="3.6" style="stroke: #000000; stroke-width: 0.5"/>
      </g>
     </g>
    </g>
    <g id="xtick_12">
     <g id="line2d_29">
      <g>
       <use xlink:href="#m38adf7c10e" x="136.451217" y="253.08" style="stroke: #000000; stroke-width: 0.5"/>
      </g>
     </g>
     <g id="line2d_30">
      <g>
       <use xlink:href="#m143ab25821" x="136.451217" y="3.6" style="stroke: #000000; stroke-width: 0.5"/>
      </g>
     </g>
    </g>
    <g id="xtick_13">
     <g id="line2d_31">
      <g>
       <use xlink:href="#m38adf7c10e" x="148.65016" y="253.08" style="stroke: #000000; stroke-width: 0.5"/>
      </g>
     </g>
     <g id="line2d_32">
      <g>
       <use xlink:href="#m143ab25821" x="148.65016" y="3.6" style="stroke: #000000; stroke-width: 0.5"/>
      </g>
     </g>
    </g>
    <g id="xtick_14">
     <g id="line2d_33">
      <g>
       <use xlink:href="#m38adf7c10e" x="160.849104" y="253.08" style="stroke: #000000; stroke-width: 0.5"/>
      </g>
     </g>
     <g id="line2d_34">
      <g>
       <use xlink:href="#m143ab25821" x="160.849104" y="3.6" style="stroke: #000000; stroke-width: 0.5"/>
      </g>
     </g>
    </g>
    <g id="xtick_15">
     <g id="line2d_35">
      <g>
       <use xlink:href="#m38adf7c10e" x="173.048047" y="253.08" style="stroke: #000000; stroke-width: 0.5"/>
      </g>
     </g>
     <g id="line2d_36">
      <g>
       <use xlink:href="#m143ab25821" x="173.048047" y="3.6" style="stroke: #000000; stroke-width: 0.5"/>
      </g>
     </g>
    </g>
    <g id="xtick_16">
     <g id="line2d_37">
      <g>
       <use xlink:href="#m38adf7c10e" x="197.445934" y="253.08" style="stroke: #000000; stroke-width: 0.5"/>
      </g>
     </g>
     <g id="line2d_38">
      <g>
       <use xlink:href="#m143ab25821" x="197.445934" y="3.6" style="stroke: #000000; stroke-width: 0.5"/>
      </g>
     </g>
    </g>
    <g id="xtick_17">
     <g id="line2d_39">
      <g>
       <use xlink:href="#m38adf7c10e" x="209.644877" y="253.08" style="stroke: #000000; stroke-width: 0.5"/>
      </g>
     </g>
     <g id="line2d_40">
      <g>
       <use xlink:href="#m143ab25821" x="209.644877" y="3.6" style="stroke: #000000; stroke-width: 0.5"/>
      </g>
     </g>
    </g>
    <g id="xtick_18">
     <g id="line2d_41">
      <g>
       <use xlink:href="#m38adf7c10e" x="221.84382" y="253.08" style="stroke: #000000; stroke-width: 0.5"/>
      </g>
     </g>
     <g id="line2d_42">
      <g>
       <use xlink:href="#m143ab25821" x="221.84382" y="3.6" style="stroke: #000000; stroke-width: 0.5"/>
      </g>
     </g>
    </g>
    <g id="xtick_19">
     <g id="line2d_43">
      <g>
       <use xlink:href="#m38adf7c10e" x="234.042764" y="253.08" style="stroke: #000000; stroke-width: 0.5"/>
      </g>
     </g>
     <g id="line2d_44">
      <g>
       <use xlink:href="#m143ab25821" x="234.042764" y="3.6" style="stroke: #000000; stroke-width: 0.5"/>
      </g>
     </g>
    </g>
    <g id="xtick_20">
     <g id="line2d_45">
      <g>
       <use xlink:href="#m38adf7c10e" x="258.44065" y="253.08" style="stroke: #000000; stroke-width: 0.5"/>
      </g>
     </g>
     <g id="line2d_46">
      <g>
       <use xlink:href="#m143ab25821" x="258.44065" y="3.6" style="stroke: #000000; stroke-width: 0.5"/>
      </g>
     </g>
    </g>
    <g id="xtick_21">
     <g id="line2d_47">
      <g>
       <use xlink:href="#m38adf7c10e" x="270.639594" y="253.08" style="stroke: #000000; stroke-width: 0.5"/>
      </g>
     </g>
     <g id="line2d_48">
      <g>
       <use xlink:href="#m143ab25821" x="270.639594" y="3.6" style="stroke: #000000; stroke-width: 0.5"/>
      </g>
     </g>
    </g>
    <g id="xtick_22">
     <g id="line2d_49">
      <g>
       <use xlink:href="#m38adf7c10e" x="282.838537" y="253.08" style="stroke: #000000; stroke-width: 0.5"/>
      </g>
     </g>
     <g id="line2d_50">
      <g>
       <use xlink:href="#m143ab25821" x="282.838537" y="3.6" style="stroke: #000000; stroke-width: 0.5"/>
      </g>
     </g>
    </g>
    <g id="xtick_23">
     <g id="line2d_51">
      <g>
       <use xlink:href="#m38adf7c10e" x="295.03748" y="253.08" style="stroke: #000000; stroke-width: 0.5"/>
      </g>
     </g>
     <g id="line2d_52">
      <g>
       <use xlink:href="#m143ab25821" x="295.03748" y="3.6" style="stroke: #000000; stroke-width: 0.5"/>
      </g>
     </g>
    </g>
    <g id="xtick_24">
     <g id="line2d_53">
      <g>
       <use xlink:href="#m38adf7c10e" x="319.435367" y="253.08" style="stroke: #000000; stroke-width: 0.5"/>
      </g>
     </g>
     <g id="line2d_54">
      <g>
       <use xlink:href="#m143ab25821" x="319.435367" y="3.6" style="stroke: #000000; stroke-width: 0.5"/>
      </g>
     </g>
    </g>
    <g id="xtick_25">
     <g id="line2d_55">
      <g>
       <use xlink:href="#m38adf7c10e" x="331.63431" y="253.08" style="stroke: #000000; stroke-width: 0.5"/>
      </g>
     </g>
     <g id="line2d_56">
      <g>
       <use xlink:href="#m143ab25821" x="331.63431" y="3.6" style="stroke: #000000; stroke-width: 0.5"/>
      </g>
     </g>
    </g>
    <g id="xtick_26">
     <g id="line2d_57">
      <g>
       <use xlink:href="#m38adf7c10e" x="343.833254" y="253.08" style="stroke: #000000; stroke-width: 0.5"/>
      </g>
     </g>
     <g id="line2d_58">
      <g>
       <use xlink:href="#m143ab25821" x="343.833254" y="3.6" style="stroke: #000000; stroke-width: 0.5"/>
      </g>
     </g>
    </g>
    <g id="xtick_27">
     <g id="line2d_59">
      <g>
       <use xlink:href="#m38adf7c10e" x="356.032197" y="253.08" style="stroke: #000000; stroke-width: 0.5"/>
      </g>
     </g>
     <g id="line2d_60">
      <g>
       <use xlink:href="#m143ab25821" x="356.032197" y="3.6" style="stroke: #000000; stroke-width: 0.5"/>
      </g>
     </g>
    </g>
    <g id="xtick_28">
     <g id="line2d_61">
      <g>
       <use xlink:href="#m38adf7c10e" x="380.430084" y="253.08" style="stroke: #000000; stroke-width: 0.5"/>
      </g>
     </g>
     <g id="line2d_62">
      <g>
       <use xlink:href="#m143ab25821" x="380.430084" y="3.6" style="stroke: #000000; stroke-width: 0.5"/>
      </g>
     </g>
    </g>
    <g id="text_7">
     <!-- Generations -->
     <g transform="translate(178.842188 281.311875) scale(0.12 -0.12)">
      <defs>
       <path id="DejaVuSans-47" d="M 3809 666 
L 3809 1919 
L 2778 1919 
L 2778 2438 
L 4434 2438 
L 4434 434 
Q 4069 175 3628 42 
Q 3188 -91 2688 -91 
Q 1594 -91 976 548 
Q 359 1188 359 2328 
Q 359 3472 976 4111 
Q 1594 4750 2688 4750 
Q 3144 4750 3555 4637 
Q 3966 4525 4313 4306 
L 4313 3634 
Q 3963 3931 3569 4081 
Q 3175 4231 2741 4231 
Q 1884 4231 1454 3753 
Q 1025 3275 1025 2328 
Q 1025 1384 1454 906 
Q 1884 428 2741 428 
Q 3075 428 3337 486 
Q 3600 544 3809 666 
z
" transform="scale(0.015625)"/>
       <path id="DejaVuSans-65" d="M 3597 1894 
L 3597 1613 
L 953 1613 
Q 991 1019 1311 708 
Q 1631 397 2203 397 
Q 2534 397 2845 478 
Q 3156 559 3463 722 
L 3463 178 
Q 3153 47 2828 -22 
Q 2503 -91 2169 -91 
Q 1331 -91 842 396 
Q 353 884 353 1716 
Q 353 2575 817 3079 
Q 1281 3584 2069 3584 
Q 2775 3584 3186 3129 
Q 3597 2675 3597 1894 
z
M 3022 2063 
Q 3016 2534 2758 2815 
Q 2500 3097 2075 3097 
Q 1594 3097 1305 2825 
Q 1016 2553 972 2059 
L 3022 2063 
z
" transform="scale(0.015625)"/>
       <path id="DejaVuSans-6e" d="M 3513 2113 
L 3513 0 
L 2938 0 
L 2938 2094 
Q 2938 2591 2744 2837 
Q 2550 3084 2163 3084 
Q 1697 3084 1428 2787 
Q 1159 2491 1159 1978 
L 1159 0 
L 581 0 
L 581 3500 
L 1159 3500 
L 1159 2956 
Q 1366 3272 1645 3428 
Q 1925 3584 2291 3584 
Q 2894 3584 3203 3211 
Q 3513 2838 3513 2113 
z
" transform="scale(0.015625)"/>
       <path id="DejaVuSans-72" d="M 2631 2963 
Q 2534 3019 2420 3045 
Q 2306 3072 2169 3072 
Q 1681 3072 1420 2755 
Q 1159 2438 1159 1844 
L 1159 0 
L 581 0 
L 581 3500 
L 1159 3500 
L 1159 2956 
Q 1341 3275 1631 3429 
Q 1922 3584 2338 3584 
Q 2397 3584 2469 3576 
Q 2541 3569 2628 3553 
L 2631 2963 
z
" transform="scale(0.015625)"/>
       <path id="DejaVuSans-61" d="M 2194 1759 
Q 1497 1759 1228 1600 
Q 959 1441 959 1056 
Q 959 750 1161 570 
Q 1363 391 1709 391 
Q 2188 391 2477 730 
Q 2766 1069 2766 1631 
L 2766 1759 
L 2194 1759 
z
M 3341 1997 
L 3341 0 
L 2766 0 
L 2766 531 
Q 2569 213 2275 61 
Q 1981 -91 1556 -91 
Q 1019 -91 701 211 
Q 384 513 384 1019 
Q 384 1609 779 1909 
Q 1175 2209 1959 2209 
L 2766 2209 
L 2766 2266 
Q 2766 2663 2505 2880 
Q 2244 3097 1772 3097 
Q 1472 3097 1187 3025 
Q 903 2953 641 2809 
L 641 3341 
Q 956 3463 1253 3523 
Q 1550 3584 1831 3584 
Q 2591 3584 2966 3190 
Q 3341 2797 3341 1997 
z
" transform="scale(0.015625)"/>
       <path id="DejaVuSans-74" d="M 1172 4494 
L 1172 3500 
L 2356 3500 
L 2356 3053 
L 1172 3053 
L 1172 1153 
Q 1172 725 1289 603 
Q 1406 481 1766 481 
L 2356 481 
L 2356 0 
L 1766 0 
Q 1100 0 847 248 
Q 594 497 594 1153 
L 594 3053 
L 172 3053 
L 172 3500 
L 594 3500 
L 594 4494 
L 1172 4494 
z
" transform="scale(0.015625)"/>
       <path id="DejaVuSans-69" d="M 603 3500 
L 1178 3500 
L 1178 0 
L 603 0 
L 603 3500 
z
M 603 4863 
L 1178 4863 
L 1178 4134 
L 603 4134 
L 603 4863 
z
" transform="scale(0.015625)"/>
       <path id="DejaVuSans-6f" d="M 1959 3097 
Q 1497 3097 1228 2736 
Q 959 2375 959 1747 
Q 959 1119 1226 758 
Q 1494 397 1959 397 
Q 2419 397 2687 759 
Q 2956 1122 2956 1747 
Q 2956 2369 2687 2733 
Q 2419 3097 1959 3097 
z
M 1959 3584 
Q 2709 3584 3137 3096 
Q 3566 2609 3566 1747 
Q 3566 888 3137 398 
Q 2709 -91 1959 -91 
Q 1206 -91 779 398 
Q 353 888 353 1747 
Q 353 2609 779 3096 
Q 1206 3584 1959 3584 
z
" transform="scale(0.015625)"/>
       <path id="DejaVuSans-73" d="M 2834 3397 
L 2834 2853 
Q 2591 2978 2328 3040 
Q 2066 3103 1784 3103 
Q 1356 3103 1142 2972 
Q 928 2841 928 2578 
Q 928 2378 1081 2264 
Q 1234 2150 1697 2047 
L 1894 2003 
Q 2506 1872 2764 1633 
Q 3022 1394 3022 966 
Q 3022 478 2636 193 
Q 2250 -91 1575 -91 
Q 1294 -91 989 -36 
Q 684 19 347 128 
L 347 722 
Q 666 556 975 473 
Q 1284 391 1588 391 
Q 1994 391 2212 530 
Q 2431 669 2431 922 
Q 2431 1156 2273 1281 
Q 2116 1406 1581 1522 
L 1381 1569 
Q 847 1681 609 1914 
Q 372 2147 372 2553 
Q 372 3047 722 3315 
Q 1072 3584 1716 3584 
Q 2034 3584 2315 3537 
Q 2597 3491 2834 3397 
z
" transform="scale(0.015625)"/>
      </defs>
      <use xlink:href="#DejaVuSans-47"/>
      <use xlink:href="#DejaVuSans-65" x="77.490234"/>
      <use xlink:href="#DejaVuSans-6e" x="139.013672"/>
      <use xlink:href="#DejaVuSans-65" x="202.392578"/>
      <use xlink:href="#DejaVuSans-72" x="263.916016"/>
      <use xlink:href="#DejaVuSans-61" x="305.029297"/>
      <use xlink:href="#DejaVuSans-74" x="366.308594"/>
      <use xlink:href="#DejaVuSans-69" x="405.517578"/>
      <use xlink:href="#DejaVuSans-6f" x="433.300781"/>
      <use xlink:href="#DejaVuSans-6e" x="494.482422"/>
      <use xlink:href="#DejaVuSans-73" x="557.861328"/>
     </g>
    </g>
   </g>
   <g id="matplotlib.axis_2">
    <g id="ytick_1">
     <g id="line2d_63">
      <path d="M 48.039375 247.607202 
L 382.839375 247.607202 
" clip-path="url(#p7ecfb51d4c)" style="fill: none; stroke: #b0b0b0; stroke-width: 0.5; stroke-linecap: square"/>
     </g>
     <g id="line2d_64">
      <defs>
       <path id="ma222b556f7" d="M 0 0 
L 3 0 
" style="stroke: #000000; stroke-width: 0.5"/>
      </defs>
      <g>
       <use xlink:href="#ma222b556f7" x="48.039375" y="247.607202" style="stroke: #000000; stroke-width: 0.5"/>
      </g>
     </g>
     <g id="line2d_65">
      <defs>
       <path id="m0976ea6a6f" d="M 0 0 
L -3 0 
" style="stroke: #000000; stroke-width: 0.5"/>
      </defs>
      <g>
       <use xlink:href="#m0976ea6a6f" x="382.839375" y="247.607202" style="stroke: #000000; stroke-width: 0.5"/>
      </g>
     </g>
     <g id="text_8">
      <!-- −60 -->
      <g transform="translate(19.21375 252.166265) scale(0.12 -0.12)">
       <defs>
        <path id="DejaVuSans-2212" d="M 678 2272 
L 4684 2272 
L 4684 1741 
L 678 1741 
L 678 2272 
z
" transform="scale(0.015625)"/>
        <path id="DejaVuSans-36" d="M 2113 2584 
Q 1688 2584 1439 2293 
Q 1191 2003 1191 1497 
Q 1191 994 1439 701 
Q 1688 409 2113 409 
Q 2538 409 2786 701 
Q 3034 994 3034 1497 
Q 3034 2003 2786 2293 
Q 2538 2584 2113 2584 
z
M 3366 4563 
L 3366 3988 
Q 3128 4100 2886 4159 
Q 2644 4219 2406 4219 
Q 1781 4219 1451 3797 
Q 1122 3375 1075 2522 
Q 1259 2794 1537 2939 
Q 1816 3084 2150 3084 
Q 2853 3084 3261 2657 
Q 3669 2231 3669 1497 
Q 3669 778 3244 343 
Q 2819 -91 2113 -91 
Q 1303 -91 875 529 
Q 447 1150 447 2328 
Q 447 3434 972 4092 
Q 1497 4750 2381 4750 
Q 2619 4750 2861 4703 
Q 3103 4656 3366 4563 
z
" transform="scale(0.015625)"/>
       </defs>
       <use xlink:href="#DejaVuSans-2212"/>
       <use xlink:href="#DejaVuSans-36" x="83.789062"/>
       <use xlink:href="#DejaVuSans-30" x="147.412109"/>
      </g>
     </g>
    </g>
    <g id="ytick_2">
     <g id="line2d_66">
      <path d="M 48.039375 218.0699 
L 382.839375 218.0699 
" clip-path="url(#p7ecfb51d4c)" style="fill: none; stroke: #b0b0b0; stroke-width: 0.5; stroke-linecap: square"/>
     </g>
     <g id="line2d_67">
      <g>
       <use xlink:href="#ma222b556f7" x="48.039375" y="218.0699" style="stroke: #000000; stroke-width: 0.5"/>
      </g>
     </g>
     <g id="line2d_68">
      <g>
       <use xlink:href="#m0976ea6a6f" x="382.839375" y="218.0699" style="stroke: #000000; stroke-width: 0.5"/>
      </g>
     </g>
     <g id="text_9">
      <!-- −50 -->
      <g transform="translate(19.21375 222.628962) scale(0.12 -0.12)">
       <use xlink:href="#DejaVuSans-2212"/>
       <use xlink:href="#DejaVuSans-35" x="83.789062"/>
       <use xlink:href="#DejaVuSans-30" x="147.412109"/>
      </g>
     </g>
    </g>
    <g id="ytick_3">
     <g id="line2d_69">
      <path d="M 48.039375 188.532597 
L 382.839375 188.532597 
" clip-path="url(#p7ecfb51d4c)" style="fill: none; stroke: #b0b0b0; stroke-width: 0.5; stroke-linecap: square"/>
     </g>
     <g id="line2d_70">
      <g>
       <use xlink:href="#ma222b556f7" x="48.039375" y="188.532597" style="stroke: #000000; stroke-width: 0.5"/>
      </g>
     </g>
     <g id="line2d_71">
      <g>
       <use xlink:href="#m0976ea6a6f" x="382.839375" y="188.532597" style="stroke: #000000; stroke-width: 0.5"/>
      </g>
     </g>
     <g id="text_10">
      <!-- −40 -->
      <g transform="translate(19.21375 193.09166) scale(0.12 -0.12)">
       <use xlink:href="#DejaVuSans-2212"/>
       <use xlink:href="#DejaVuSans-34" x="83.789062"/>
       <use xlink:href="#DejaVuSans-30" x="147.412109"/>
      </g>
     </g>
    </g>
    <g id="ytick_4">
     <g id="line2d_72">
      <path d="M 48.039375 158.995295 
L 382.839375 158.995295 
" clip-path="url(#p7ecfb51d4c)" style="fill: none; stroke: #b0b0b0; stroke-width: 0.5; stroke-linecap: square"/>
     </g>
     <g id="line2d_73">
      <g>
       <use xlink:href="#ma222b556f7" x="48.039375" y="158.995295" style="stroke: #000000; stroke-width: 0.5"/>
      </g>
     </g>
     <g id="line2d_74">
      <g>
       <use xlink:href="#m0976ea6a6f" x="382.839375" y="158.995295" style="stroke: #000000; stroke-width: 0.5"/>
      </g>
     </g>
     <g id="text_11">
      <!-- −30 -->
      <g transform="translate(19.21375 163.554357) scale(0.12 -0.12)">
       <use xlink:href="#DejaVuSans-2212"/>
       <use xlink:href="#DejaVuSans-33" x="83.789062"/>
       <use xlink:href="#DejaVuSans-30" x="147.412109"/>
      </g>
     </g>
    </g>
    <g id="ytick_5">
     <g id="line2d_75">
      <path d="M 48.039375 129.457992 
L 382.839375 129.457992 
" clip-path="url(#p7ecfb51d4c)" style="fill: none; stroke: #b0b0b0; stroke-width: 0.5; stroke-linecap: square"/>
     </g>
     <g id="line2d_76">
      <g>
       <use xlink:href="#ma222b556f7" x="48.039375" y="129.457992" style="stroke: #000000; stroke-width: 0.5"/>
      </g>
     </g>
     <g id="line2d_77">
      <g>
       <use xlink:href="#m0976ea6a6f" x="382.839375" y="129.457992" style="stroke: #000000; stroke-width: 0.5"/>
      </g>
     </g>
     <g id="text_12">
      <!-- −20 -->
      <g transform="translate(19.21375 134.017055) scale(0.12 -0.12)">
       <use xlink:href="#DejaVuSans-2212"/>
       <use xlink:href="#DejaVuSans-32" x="83.789062"/>
       <use xlink:href="#DejaVuSans-30" x="147.412109"/>
      </g>
     </g>
    </g>
    <g id="ytick_6">
     <g id="line2d_78">
      <path d="M 48.039375 99.92069 
L 382.839375 99.92069 
" clip-path="url(#p7ecfb51d4c)" style="fill: none; stroke: #b0b0b0; stroke-width: 0.5; stroke-linecap: square"/>
     </g>
     <g id="line2d_79">
      <g>
       <use xlink:href="#ma222b556f7" x="48.039375" y="99.92069" style="stroke: #000000; stroke-width: 0.5"/>
      </g>
     </g>
     <g id="line2d_80">
      <g>
       <use xlink:href="#m0976ea6a6f" x="382.839375" y="99.92069" style="stroke: #000000; stroke-width: 0.5"/>
      </g>
     </g>
     <g id="text_13">
      <!-- −10 -->
      <g transform="translate(19.21375 104.479752) scale(0.12 -0.12)">
       <use xlink:href="#DejaVuSans-2212"/>
       <use xlink:href="#DejaVuSans-31" x="83.789062"/>
       <use xlink:href="#DejaVuSans-30" x="147.412109"/>
      </g>
     </g>
    </g>
    <g id="ytick_7">
     <g id="line2d_81">
      <path d="M 48.039375 70.383387 
L 382.839375 70.383387 
" clip-path="url(#p7ecfb51d4c)" style="fill: none; stroke: #b0b0b0; stroke-width: 0.5; stroke-linecap: square"/>
     </g>
     <g id="line2d_82">
      <g>
       <use xlink:href="#ma222b556f7" x="48.039375" y="70.383387" style="stroke: #000000; stroke-width: 0.5"/>
      </g>
     </g>
     <g id="line2d_83">
      <g>
       <use xlink:href="#m0976ea6a6f" x="382.839375" y="70.383387" style="stroke: #000000; stroke-width: 0.5"/>
      </g>
     </g>
     <g id="text_14">
      <!-- 0 -->
      <g transform="translate(36.904375 74.94245) scale(0.12 -0.12)">
       <use xlink:href="#DejaVuSans-30"/>
      </g>
     </g>
    </g>
    <g id="ytick_8">
     <g id="line2d_84">
      <path d="M 48.039375 40.846084 
L 382.839375 40.846084 
" clip-path="url(#p7ecfb51d4c)" style="fill: none; stroke: #b0b0b0; stroke-width: 0.5; stroke-linecap: square"/>
     </g>
     <g id="line2d_85">
      <g>
       <use xlink:href="#ma222b556f7" x="48.039375" y="40.846084" style="stroke: #000000; stroke-width: 0.5"/>
      </g>
     </g>
     <g id="line2d_86">
      <g>
       <use xlink:href="#m0976ea6a6f" x="382.839375" y="40.846084" style="stroke: #000000; stroke-width: 0.5"/>
      </g>
     </g>
     <g id="text_15">
      <!-- 10 -->
      <g transform="translate(29.269375 45.405147) scale(0.12 -0.12)">
       <use xlink:href="#DejaVuSans-31"/>
       <use xlink:href="#DejaVuSans-30" x="63.623047"/>
      </g>
     </g>
    </g>
    <g id="ytick_9">
     <g id="line2d_87">
      <path d="M 48.039375 11.308782 
L 382.839375 11.308782 
" clip-path="url(#p7ecfb51d4c)" style="fill: none; stroke: #b0b0b0; stroke-width: 0.5; stroke-linecap: square"/>
     </g>
     <g id="line2d_88">
      <g>
       <use xlink:href="#ma222b556f7" x="48.039375" y="11.308782" style="stroke: #000000; stroke-width: 0.5"/>
      </g>
     </g>
     <g id="line2d_89">
      <g>
       <use xlink:href="#m0976ea6a6f" x="382.839375" y="11.308782" style="stroke: #000000; stroke-width: 0.5"/>
      </g>
     </g>
     <g id="text_16">
      <!-- 20 -->
      <g transform="translate(29.269375 15.867844) scale(0.12 -0.12)">
       <use xlink:href="#DejaVuSans-32"/>
       <use xlink:href="#DejaVuSans-30" x="63.623047"/>
      </g>
     </g>
    </g>
    <g id="ytick_10">
     <g id="line2d_90">
      <defs>
       <path id="mfea07f1f1e" d="M 0 0 
L 1.5 0 
" style="stroke: #000000; stroke-width: 0.5"/>
      </defs>
      <g>
       <use xlink:href="#mfea07f1f1e" x="48.039375" y="241.699742" style="stroke: #000000; stroke-width: 0.5"/>
      </g>
     </g>
     <g id="line2d_91">
      <defs>
       <path id="me59693f4dd" d="M 0 0 
L -1.5 0 
" style="stroke: #000000; stroke-width: 0.5"/>
      </defs>
      <g>
       <use xlink:href="#me59693f4dd" x="382.839375" y="241.699742" style="stroke: #000000; stroke-width: 0.5"/>
      </g>
     </g>
    </g>
    <g id="ytick_11">
     <g id="line2d_92">
      <g>
       <use xlink:href="#mfea07f1f1e" x="48.039375" y="235.792281" style="stroke: #000000; stroke-width: 0.5"/>
      </g>
     </g>
     <g id="line2d_93">
      <g>
       <use xlink:href="#me59693f4dd" x="382.839375" y="235.792281" style="stroke: #000000; stroke-width: 0.5"/>
      </g>
     </g>
    </g>
    <g id="ytick_12">
     <g id="line2d_94">
      <g>
       <use xlink:href="#mfea07f1f1e" x="48.039375" y="229.884821" style="stroke: #000000; stroke-width: 0.5"/>
      </g>
     </g>
     <g id="line2d_95">
      <g>
       <use xlink:href="#me59693f4dd" x="382.839375" y="229.884821" style="stroke: #000000; stroke-width: 0.5"/>
      </g>
     </g>
    </g>
    <g id="ytick_13">
     <g id="line2d_96">
      <g>
       <use xlink:href="#mfea07f1f1e" x="48.039375" y="223.97736" style="stroke: #000000; stroke-width: 0.5"/>
      </g>
     </g>
     <g id="line2d_97">
      <g>
       <use xlink:href="#me59693f4dd" x="382.839375" y="223.97736" style="stroke: #000000; stroke-width: 0.5"/>
      </g>
     </g>
    </g>
    <g id="ytick_14">
     <g id="line2d_98">
      <g>
       <use xlink:href="#mfea07f1f1e" x="48.039375" y="212.162439" style="stroke: #000000; stroke-width: 0.5"/>
      </g>
     </g>
     <g id="line2d_99">
      <g>
       <use xlink:href="#me59693f4dd" x="382.839375" y="212.162439" style="stroke: #000000; stroke-width: 0.5"/>
      </g>
     </g>
    </g>
    <g id="ytick_15">
     <g id="line2d_100">
      <g>
       <use xlink:href="#mfea07f1f1e" x="48.039375" y="206.254979" style="stroke: #000000; stroke-width: 0.5"/>
      </g>
     </g>
     <g id="line2d_101">
      <g>
       <use xlink:href="#me59693f4dd" x="382.839375" y="206.254979" style="stroke: #000000; stroke-width: 0.5"/>
      </g>
     </g>
    </g>
    <g id="ytick_16">
     <g id="line2d_102">
      <g>
       <use xlink:href="#mfea07f1f1e" x="48.039375" y="200.347518" style="stroke: #000000; stroke-width: 0.5"/>
      </g>
     </g>
     <g id="line2d_103">
      <g>
       <use xlink:href="#me59693f4dd" x="382.839375" y="200.347518" style="stroke: #000000; stroke-width: 0.5"/>
      </g>
     </g>
    </g>
    <g id="ytick_17">
     <g id="line2d_104">
      <g>
       <use xlink:href="#mfea07f1f1e" x="48.039375" y="194.440058" style="stroke: #000000; stroke-width: 0.5"/>
      </g>
     </g>
     <g id="line2d_105">
      <g>
       <use xlink:href="#me59693f4dd" x="382.839375" y="194.440058" style="stroke: #000000; stroke-width: 0.5"/>
      </g>
     </g>
    </g>
    <g id="ytick_18">
     <g id="line2d_106">
      <g>
       <use xlink:href="#mfea07f1f1e" x="48.039375" y="182.625137" style="stroke: #000000; stroke-width: 0.5"/>
      </g>
     </g>
     <g id="line2d_107">
      <g>
       <use xlink:href="#me59693f4dd" x="382.839375" y="182.625137" style="stroke: #000000; stroke-width: 0.5"/>
      </g>
     </g>
    </g>
    <g id="ytick_19">
     <g id="line2d_108">
      <g>
       <use xlink:href="#mfea07f1f1e" x="48.039375" y="176.717676" style="stroke: #000000; stroke-width: 0.5"/>
      </g>
     </g>
     <g id="line2d_109">
      <g>
       <use xlink:href="#me59693f4dd" x="382.839375" y="176.717676" style="stroke: #000000; stroke-width: 0.5"/>
      </g>
     </g>
    </g>
    <g id="ytick_20">
     <g id="line2d_110">
      <g>
       <use xlink:href="#mfea07f1f1e" x="48.039375" y="170.810216" style="stroke: #000000; stroke-width: 0.5"/>
      </g>
     </g>
     <g id="line2d_111">
      <g>
       <use xlink:href="#me59693f4dd" x="382.839375" y="170.810216" style="stroke: #000000; stroke-width: 0.5"/>
      </g>
     </g>
    </g>
    <g id="ytick_21">
     <g id="line2d_112">
      <g>
       <use xlink:href="#mfea07f1f1e" x="48.039375" y="164.902755" style="stroke: #000000; stroke-width: 0.5"/>
      </g>
     </g>
     <g id="line2d_113">
      <g>
       <use xlink:href="#me59693f4dd" x="382.839375" y="164.902755" style="stroke: #000000; stroke-width: 0.5"/>
      </g>
     </g>
    </g>
    <g id="ytick_22">
     <g id="line2d_114">
      <g>
       <use xlink:href="#mfea07f1f1e" x="48.039375" y="153.087834" style="stroke: #000000; stroke-width: 0.5"/>
      </g>
     </g>
     <g id="line2d_115">
      <g>
       <use xlink:href="#me59693f4dd" x="382.839375" y="153.087834" style="stroke: #000000; stroke-width: 0.5"/>
      </g>
     </g>
    </g>
    <g id="ytick_23">
     <g id="line2d_116">
      <g>
       <use xlink:href="#mfea07f1f1e" x="48.039375" y="147.180374" style="stroke: #000000; stroke-width: 0.5"/>
      </g>
     </g>
     <g id="line2d_117">
      <g>
       <use xlink:href="#me59693f4dd" x="382.839375" y="147.180374" style="stroke: #000000; stroke-width: 0.5"/>
      </g>
     </g>
    </g>
    <g id="ytick_24">
     <g id="line2d_118">
      <g>
       <use xlink:href="#mfea07f1f1e" x="48.039375" y="141.272913" style="stroke: #000000; stroke-width: 0.5"/>
      </g>
     </g>
     <g id="line2d_119">
      <g>
       <use xlink:href="#me59693f4dd" x="382.839375" y="141.272913" style="stroke: #000000; stroke-width: 0.5"/>
      </g>
     </g>
    </g>
    <g id="ytick_25">
     <g id="line2d_120">
      <g>
       <use xlink:href="#mfea07f1f1e" x="48.039375" y="135.365453" style="stroke: #000000; stroke-width: 0.5"/>
      </g>
     </g>
     <g id="line2d_121">
      <g>
       <use xlink:href="#me59693f4dd" x="382.839375" y="135.365453" style="stroke: #000000; stroke-width: 0.5"/>
      </g>
     </g>
    </g>
    <g id="ytick_26">
     <g id="line2d_122">
      <g>
       <use xlink:href="#mfea07f1f1e" x="48.039375" y="123.550532" style="stroke: #000000; stroke-width: 0.5"/>
      </g>
     </g>
     <g id="line2d_123">
      <g>
       <use xlink:href="#me59693f4dd" x="382.839375" y="123.550532" style="stroke: #000000; stroke-width: 0.5"/>
      </g>
     </g>
    </g>
    <g id="ytick_27">
     <g id="line2d_124">
      <g>
       <use xlink:href="#mfea07f1f1e" x="48.039375" y="117.643071" style="stroke: #000000; stroke-width: 0.5"/>
      </g>
     </g>
     <g id="line2d_125">
      <g>
       <use xlink:href="#me59693f4dd" x="382.839375" y="117.643071" style="stroke: #000000; stroke-width: 0.5"/>
      </g>
     </g>
    </g>
    <g id="ytick_28">
     <g id="line2d_126">
      <g>
       <use xlink:href="#mfea07f1f1e" x="48.039375" y="111.735611" style="stroke: #000000; stroke-width: 0.5"/>
      </g>
     </g>
     <g id="line2d_127">
      <g>
       <use xlink:href="#me59693f4dd" x="382.839375" y="111.735611" style="stroke: #000000; stroke-width: 0.5"/>
      </g>
     </g>
    </g>
    <g id="ytick_29">
     <g id="line2d_128">
      <g>
       <use xlink:href="#mfea07f1f1e" x="48.039375" y="105.82815" style="stroke: #000000; stroke-width: 0.5"/>
      </g>
     </g>
     <g id="line2d_129">
      <g>
       <use xlink:href="#me59693f4dd" x="382.839375" y="105.82815" style="stroke: #000000; stroke-width: 0.5"/>
      </g>
     </g>
    </g>
    <g id="ytick_30">
     <g id="line2d_130">
      <g>
       <use xlink:href="#mfea07f1f1e" x="48.039375" y="94.013229" style="stroke: #000000; stroke-width: 0.5"/>
      </g>
     </g>
     <g id="line2d_131">
      <g>
       <use xlink:href="#me59693f4dd" x="382.839375" y="94.013229" style="stroke: #000000; stroke-width: 0.5"/>
      </g>
     </g>
    </g>
    <g id="ytick_31">
     <g id="line2d_132">
      <g>
       <use xlink:href="#mfea07f1f1e" x="48.039375" y="88.105769" style="stroke: #000000; stroke-width: 0.5"/>
      </g>
     </g>
     <g id="line2d_133">
      <g>
       <use xlink:href="#me59693f4dd" x="382.839375" y="88.105769" style="stroke: #000000; stroke-width: 0.5"/>
      </g>
     </g>
    </g>
    <g id="ytick_32">
     <g id="line2d_134">
      <g>
       <use xlink:href="#mfea07f1f1e" x="48.039375" y="82.198308" style="stroke: #000000; stroke-width: 0.5"/>
      </g>
     </g>
     <g id="line2d_135">
      <g>
       <use xlink:href="#me59693f4dd" x="382.839375" y="82.198308" style="stroke: #000000; stroke-width: 0.5"/>
      </g>
     </g>
    </g>
    <g id="ytick_33">
     <g id="line2d_136">
      <g>
       <use xlink:href="#mfea07f1f1e" x="48.039375" y="76.290848" style="stroke: #000000; stroke-width: 0.5"/>
      </g>
     </g>
     <g id="line2d_137">
      <g>
       <use xlink:href="#me59693f4dd" x="382.839375" y="76.290848" style="stroke: #000000; stroke-width: 0.5"/>
      </g>
     </g>
    </g>
    <g id="ytick_34">
     <g id="line2d_138">
      <g>
       <use xlink:href="#mfea07f1f1e" x="48.039375" y="64.475927" style="stroke: #000000; stroke-width: 0.5"/>
      </g>
     </g>
     <g id="line2d_139">
      <g>
       <use xlink:href="#me59693f4dd" x="382.839375" y="64.475927" style="stroke: #000000; stroke-width: 0.5"/>
      </g>
     </g>
    </g>
    <g id="ytick_35">
     <g id="line2d_140">
      <g>
       <use xlink:href="#mfea07f1f1e" x="48.039375" y="58.568466" style="stroke: #000000; stroke-width: 0.5"/>
      </g>
     </g>
     <g id="line2d_141">
      <g>
       <use xlink:href="#me59693f4dd" x="382.839375" y="58.568466" style="stroke: #000000; stroke-width: 0.5"/>
      </g>
     </g>
    </g>
    <g id="ytick_36">
     <g id="line2d_142">
      <g>
       <use xlink:href="#mfea07f1f1e" x="48.039375" y="52.661005" style="stroke: #000000; stroke-width: 0.5"/>
      </g>
     </g>
     <g id="line2d_143">
      <g>
       <use xlink:href="#me59693f4dd" x="382.839375" y="52.661005" style="stroke: #000000; stroke-width: 0.5"/>
      </g>
     </g>
    </g>
    <g id="ytick_37">
     <g id="line2d_144">
      <g>
       <use xlink:href="#mfea07f1f1e" x="48.039375" y="46.753545" style="stroke: #000000; stroke-width: 0.5"/>
      </g>
     </g>
     <g id="line2d_145">
      <g>
       <use xlink:href="#me59693f4dd" x="382.839375" y="46.753545" style="stroke: #000000; stroke-width: 0.5"/>
      </g>
     </g>
    </g>
    <g id="ytick_38">
     <g id="line2d_146">
      <g>
       <use xlink:href="#mfea07f1f1e" x="48.039375" y="34.938624" style="stroke: #000000; stroke-width: 0.5"/>
      </g>
     </g>
     <g id="line2d_147">
      <g>
       <use xlink:href="#me59693f4dd" x="382.839375" y="34.938624" style="stroke: #000000; stroke-width: 0.5"/>
      </g>
     </g>
    </g>
    <g id="ytick_39">
     <g id="line2d_148">
      <g>
       <use xlink:href="#mfea07f1f1e" x="48.039375" y="29.031163" style="stroke: #000000; stroke-width: 0.5"/>
      </g>
     </g>
     <g id="line2d_149">
      <g>
       <use xlink:href="#me59693f4dd" x="382.839375" y="29.031163" style="stroke: #000000; stroke-width: 0.5"/>
      </g>
     </g>
    </g>
    <g id="ytick_40">
     <g id="line2d_150">
      <g>
       <use xlink:href="#mfea07f1f1e" x="48.039375" y="23.123703" style="stroke: #000000; stroke-width: 0.5"/>
      </g>
     </g>
     <g id="line2d_151">
      <g>
       <use xlink:href="#me59693f4dd" x="382.839375" y="23.123703" style="stroke: #000000; stroke-width: 0.5"/>
      </g>
     </g>
    </g>
    <g id="ytick_41">
     <g id="line2d_152">
      <g>
       <use xlink:href="#mfea07f1f1e" x="48.039375" y="17.216242" style="stroke: #000000; stroke-width: 0.5"/>
      </g>
     </g>
     <g id="line2d_153">
      <g>
       <use xlink:href="#me59693f4dd" x="382.839375" y="17.216242" style="stroke: #000000; stroke-width: 0.5"/>
      </g>
     </g>
    </g>
    <g id="ytick_42">
     <g id="line2d_154">
      <g>
       <use xlink:href="#mfea07f1f1e" x="48.039375" y="5.401321" style="stroke: #000000; stroke-width: 0.5"/>
      </g>
     </g>
     <g id="line2d_155">
      <g>
       <use xlink:href="#me59693f4dd" x="382.839375" y="5.401321" style="stroke: #000000; stroke-width: 0.5"/>
      </g>
     </g>
    </g>
    <g id="text_17">
     <!-- Fitness -->
     <g transform="translate(12.718125 149.120625) rotate(-90) scale(0.12 -0.12)">
      <defs>
       <path id="DejaVuSans-46" d="M 628 4666 
L 3309 4666 
L 3309 4134 
L 1259 4134 
L 1259 2759 
L 3109 2759 
L 3109 2228 
L 1259 2228 
L 1259 0 
L 628 0 
L 628 4666 
z
" transform="scale(0.015625)"/>
      </defs>
      <use xlink:href="#DejaVuSans-46"/>
      <use xlink:href="#DejaVuSans-69" x="50.269531"/>
      <use xlink:href="#DejaVuSans-74" x="78.052734"/>
      <use xlink:href="#DejaVuSans-6e" x="117.261719"/>
      <use xlink:href="#DejaVuSans-65" x="180.640625"/>
      <use xlink:href="#DejaVuSans-73" x="242.164062"/>
      <use xlink:href="#DejaVuSans-73" x="294.263672"/>
     </g>
    </g>
   </g>
   <g id="line2d_156">
    <path d="M 63.257557 40.776691 
L 63.867504 36.895362 
L 64.477451 26.961055 
L 65.087398 25.541434 
L 79.72613 25.463841 
L 80.336077 24.980619 
L 81.555972 24.978238 
L 82.165919 24.837694 
L 84.605708 24.825644 
L 85.215655 24.510672 
L 90.095232 24.452456 
L 91.315127 24.354688 
L 93.144968 24.354716 
L 93.754915 23.98196 
L 94.364862 23.983841 
L 94.97481 23.292674 
L 96.194704 23.208335 
L 98.024545 23.208259 
L 98.634493 22.537031 
L 102.904123 22.530701 
L 103.51407 22.21077 
L 111.443383 22.097683 
L 112.05333 21.963854 
L 112.663277 21.962453 
L 113.273225 21.835249 
L 116.932908 21.747566 
L 117.542855 21.426146 
L 119.372696 21.426094 
L 119.982643 20.597092 
L 121.812485 20.596876 
L 122.422432 20.143429 
L 123.032379 19.999447 
L 123.642326 19.99959 
L 124.252274 19.862804 
L 125.472168 19.862851 
L 126.082115 19.299713 
L 127.911957 19.261051 
L 129.741798 19.246471 
L 130.351745 19.052577 
L 132.791534 18.983011 
L 133.401481 18.681613 
L 134.621375 18.681734 
L 135.231323 17.72685 
L 135.84127 17.737168 
L 136.451217 17.567224 
L 140.1109 17.500345 
L 140.720847 17.324629 
L 141.330794 16.98995 
L 147.430266 16.979342 
L 148.040213 16.735831 
L 151.089949 16.671318 
L 151.699896 16.457376 
L 159.019262 16.384345 
L 159.629209 16.187538 
L 162.678945 16.206223 
L 166.338628 16.191672 
L 166.948575 16.053094 
L 170.608258 16.037717 
L 171.218205 15.799463 
L 175.487836 15.799339 
L 176.097783 15.398723 
L 201.105617 15.284959 
L 202.935458 15.185908 
L 221.84382 15.109655 
L 223.673662 15.063214 
L 259.050597 14.971707 
L 261.490386 14.967238 
L 276.739065 14.947329 
L 313.945842 14.944408 
L 320.045314 14.94537 
L 367.621193 14.949266 
L 367.621193 14.949266 
" clip-path="url(#p7ecfb51d4c)" style="fill: none; stroke: #000000; stroke-linecap: square"/>
   </g>
   <g id="line2d_157">
    <path d="M 63.257557 128.425922 
L 63.867504 146.439772 
L 64.477451 123.417288 
L 65.087398 189.224376 
L 65.697345 110.243003 
L 66.307293 97.514851 
L 66.91724 241.74 
L 67.527187 117.231344 
L 68.137134 109.554051 
L 68.747081 106.405473 
L 69.357028 92.369889 
L 69.966976 95.46515 
L 70.576923 90.981438 
L 71.18687 92.330993 
L 71.796817 116.405754 
L 72.406764 102.625274 
L 73.016711 97.531891 
L 73.626659 94.41627 
L 74.236606 87.428224 
L 75.4565 95.144082 
L 76.066447 101.081958 
L 76.676394 94.476376 
L 77.286342 100.426031 
L 77.896289 97.285421 
L 79.72613 82.018817 
L 80.336077 70.5947 
L 80.946025 68.400681 
L 81.555972 72.370366 
L 82.165919 66.66501 
L 82.775866 52.989772 
L 83.385813 46.305818 
L 83.99576 42.020988 
L 84.605708 30.475506 
L 85.215655 32.683467 
L 85.825602 31.650762 
L 86.435549 34.570292 
L 87.045496 33.44825 
L 87.655444 34.321962 
L 88.265391 29.388489 
L 88.875338 28.445324 
L 89.485285 28.472642 
L 90.095232 29.912387 
L 90.705179 27.502303 
L 91.315127 31.891573 
L 91.925074 30.26823 
L 92.535021 29.472519 
L 93.144968 29.018301 
L 93.754915 28.843811 
L 94.364862 33.875023 
L 94.97481 30.285603 
L 95.584757 29.305555 
L 96.194704 29.89085 
L 96.804651 38.232748 
L 97.414598 32.654583 
L 98.024545 29.341053 
L 98.634493 29.397135 
L 99.24444 30.823894 
L 99.854387 31.076102 
L 100.464334 30.325821 
L 101.684228 29.6157 
L 102.294176 32.049964 
L 102.904123 33.5531 
L 103.51407 32.316675 
L 104.124017 30.821243 
L 104.733964 33.808619 
L 105.343911 37.41896 
L 105.953859 43.677857 
L 106.563806 34.91937 
L 107.173753 34.364014 
L 107.7837 30.45753 
L 108.393647 31.458284 
L 109.003594 30.441833 
L 109.613542 34.220405 
L 110.223489 30.475597 
L 110.833436 30.008493 
L 111.443383 31.904338 
L 112.05333 31.502862 
L 112.663277 28.168961 
L 113.273225 27.204896 
L 113.883172 29.490439 
L 114.493119 28.460625 
L 115.103066 34.122055 
L 115.713013 32.98553 
L 116.32296 32.357661 
L 116.932908 30.003015 
L 117.542855 29.00855 
L 118.152802 31.815317 
L 118.762749 31.857924 
L 119.372696 31.54178 
L 119.982643 28.507944 
L 120.592591 29.713782 
L 121.202538 28.138131 
L 121.812485 28.932541 
L 122.422432 31.005605 
L 123.032379 30.84385 
L 123.642326 29.268776 
L 124.252274 26.50852 
L 124.862221 25.422524 
L 125.472168 25.750703 
L 126.082115 26.797582 
L 126.692062 30.401602 
L 127.302009 27.183324 
L 127.911957 27.851714 
L 128.521904 27.540004 
L 129.131851 26.156587 
L 129.741798 27.335733 
L 130.351745 25.601753 
L 130.961692 25.384381 
L 131.57164 24.571493 
L 132.181587 25.865904 
L 132.791534 28.517829 
L 133.401481 25.269199 
L 134.621375 29.624296 
L 135.84127 26.818566 
L 136.451217 27.061254 
L 137.061164 26.192599 
L 137.671111 28.89544 
L 138.281058 25.727955 
L 138.891006 24.936068 
L 139.500953 26.090857 
L 140.1109 30.952926 
L 140.720847 64.401502 
L 141.330794 28.477663 
L 141.940741 21.885448 
L 142.550689 25.350645 
L 143.160636 23.177964 
L 143.770583 22.993472 
L 144.990477 21.195619 
L 146.210372 23.19857 
L 146.820319 23.510652 
L 147.430266 24.546508 
L 148.040213 26.449996 
L 148.65016 24.921938 
L 149.260107 24.792944 
L 149.870055 25.455522 
L 150.480002 24.905568 
L 151.089949 25.670116 
L 151.699896 21.148666 
L 152.309843 20.31971 
L 152.91979 21.016081 
L 153.529738 22.563813 
L 154.139685 27.116527 
L 154.749632 24.82798 
L 155.359579 26.02987 
L 155.969526 27.765927 
L 157.189421 23.036436 
L 157.799368 21.973757 
L 158.409315 24.01026 
L 159.019262 23.990544 
L 159.629209 23.604998 
L 160.239156 22.558589 
L 160.849104 25.521024 
L 161.459051 21.769634 
L 162.068998 22.768009 
L 162.678945 23.43797 
L 163.288892 22.793895 
L 163.898839 21.671165 
L 164.508787 23.12729 
L 165.118734 22.029087 
L 165.728681 21.877954 
L 166.948575 23.288391 
L 167.558522 24.577324 
L 168.16847 24.385975 
L 168.778417 24.389078 
L 169.388364 23.122631 
L 169.998311 20.709252 
L 170.608258 21.409385 
L 171.218205 21.341199 
L 171.828153 22.491979 
L 173.048047 25.302633 
L 173.657994 20.466745 
L 174.267941 19.507766 
L 174.877888 20.235784 
L 175.487836 22.316193 
L 176.097783 22.274552 
L 177.317677 20.090741 
L 177.927624 20.448908 
L 178.537571 21.303651 
L 179.147519 21.922292 
L 179.757466 21.2313 
L 180.367413 20.91023 
L 180.97736 19.957484 
L 181.587307 21.641451 
L 182.197254 21.236493 
L 182.807202 23.266712 
L 183.417149 21.213098 
L 184.027096 22.152117 
L 184.637043 20.219097 
L 185.24699 19.893526 
L 185.856937 20.395569 
L 186.466885 22.178628 
L 187.076832 22.741406 
L 187.686779 21.455626 
L 188.296726 21.44607 
L 188.906673 19.286556 
L 189.51662 21.603534 
L 190.126568 19.623639 
L 190.736515 18.766049 
L 191.346462 18.182784 
L 191.956409 18.354338 
L 192.566356 20.838192 
L 193.176303 20.437076 
L 193.786251 20.636252 
L 194.396198 18.844368 
L 195.006145 22.263226 
L 195.616092 19.767588 
L 196.226039 18.688871 
L 196.835986 20.210257 
L 197.445934 22.855175 
L 198.055881 20.06522 
L 198.665828 21.610998 
L 199.275775 21.23859 
L 199.885722 19.921719 
L 200.495669 19.250245 
L 201.105617 20.503913 
L 201.715564 21.225233 
L 202.325511 23.253914 
L 202.935458 21.840501 
L 203.545405 21.624362 
L 204.155352 22.246165 
L 204.7653 23.074005 
L 205.375247 20.835033 
L 205.985194 24.291437 
L 206.595141 21.715918 
L 207.205088 21.887836 
L 207.815035 21.790204 
L 208.424983 20.994075 
L 209.03493 21.291201 
L 209.644877 18.40603 
L 210.254824 18.329243 
L 210.864771 20.821029 
L 211.474718 20.731253 
L 212.084666 19.826552 
L 212.694613 22.590501 
L 213.30456 19.516076 
L 213.914507 20.877937 
L 214.524454 19.361165 
L 215.134401 20.404536 
L 215.744349 19.473523 
L 216.354296 20.50888 
L 216.964243 19.236998 
L 217.57419 19.712394 
L 218.184137 17.827578 
L 218.794084 20.256077 
L 219.404032 21.384311 
L 220.013979 20.652076 
L 220.623926 20.802704 
L 221.233873 18.172211 
L 221.84382 18.672377 
L 222.453767 20.782732 
L 223.063715 21.815941 
L 223.673662 21.357111 
L 224.283609 23.149959 
L 224.893556 21.471973 
L 225.503503 22.59549 
L 226.11345 22.904272 
L 226.723398 18.171462 
L 227.333345 20.690189 
L 227.943292 20.78687 
L 228.553239 20.655813 
L 229.163186 22.89956 
L 229.773133 21.339946 
L 230.383081 24.539069 
L 231.602975 22.008641 
L 232.212922 21.812274 
L 232.822869 20.808802 
L 233.432816 21.452514 
L 234.042764 21.503024 
L 234.652711 19.612816 
L 235.262658 19.943956 
L 235.872605 19.328669 
L 236.482552 20.446684 
L 237.092499 20.480739 
L 237.702447 19.650682 
L 238.312394 19.472039 
L 238.922341 19.098586 
L 239.532288 19.936098 
L 240.142235 21.56438 
L 240.752182 22.760774 
L 241.36213 20.714411 
L 241.972077 21.248229 
L 242.582024 21.074977 
L 243.191971 20.774379 
L 243.801918 21.023815 
L 244.411865 20.444172 
L 245.021813 23.204786 
L 245.63176 21.83757 
L 246.241707 20.158872 
L 246.851654 18.970042 
L 247.461601 18.771659 
L 248.681496 20.739604 
L 249.90139 19.640552 
L 250.511337 20.45532 
L 251.121284 22.099221 
L 251.731231 18.409922 
L 252.951126 19.582484 
L 253.561073 22.063199 
L 254.17102 22.149605 
L 254.780967 22.912201 
L 255.390914 23.368453 
L 256.000862 22.479067 
L 256.610809 22.011282 
L 257.220756 19.823664 
L 257.830703 21.049519 
L 258.44065 23.056297 
L 259.050597 20.922093 
L 259.660545 22.420613 
L 260.270492 22.160979 
L 260.880439 24.675654 
L 261.490386 23.835445 
L 262.100333 24.292437 
L 262.71028 20.942331 
L 263.320228 23.479578 
L 264.540122 21.585102 
L 265.150069 22.176793 
L 265.760016 20.686186 
L 266.369963 18.530486 
L 266.979911 19.760679 
L 267.589858 20.061972 
L 268.199805 21.998865 
L 269.419699 19.28064 
L 270.029646 22.103302 
L 270.639594 22.427926 
L 271.249541 20.609902 
L 271.859488 18.366097 
L 272.469435 19.041396 
L 273.079382 21.869082 
L 273.689329 22.081481 
L 274.299277 20.825243 
L 274.909224 23.216221 
L 275.519171 20.917549 
L 276.129118 22.216435 
L 276.739065 21.507264 
L 277.349012 18.984497 
L 277.95896 20.315353 
L 278.568907 22.167966 
L 279.178854 20.992168 
L 279.788801 21.707391 
L 280.398748 23.623657 
L 281.008695 22.217566 
L 281.618643 22.745927 
L 282.838537 24.624658 
L 283.448484 23.768628 
L 284.058431 21.342377 
L 284.668378 23.041346 
L 285.278326 19.998951 
L 285.888273 20.40129 
L 286.49822 18.777087 
L 287.108167 20.872521 
L 287.718114 18.486113 
L 288.328061 18.088916 
L 288.938009 21.450965 
L 289.547956 18.958365 
L 290.157903 19.807649 
L 290.76785 18.974327 
L 291.377797 19.96917 
L 291.987744 21.394169 
L 292.597692 20.447735 
L 293.207639 17.241446 
L 294.427533 19.354268 
L 295.03748 19.041212 
L 295.647427 18.25125 
L 297.477269 19.893984 
L 298.087216 21.012308 
L 298.697163 19.731534 
L 299.30711 22.683135 
L 299.917058 21.682988 
L 300.527005 24.361834 
L 301.136952 21.770923 
L 301.746899 20.991891 
L 302.356846 19.631179 
L 302.966793 19.561546 
L 303.576741 21.889778 
L 304.186688 19.817993 
L 305.406582 17.825324 
L 306.016529 18.491358 
L 306.626476 16.947879 
L 307.236424 18.091274 
L 308.456318 21.111738 
L 309.066265 19.547256 
L 309.676212 19.022721 
L 310.286159 20.895925 
L 310.896107 19.786745 
L 311.506054 24.044574 
L 312.116001 20.040702 
L 312.725948 18.830543 
L 313.335895 20.094754 
L 313.945842 20.388388 
L 314.55579 19.748245 
L 315.165737 19.800535 
L 315.775684 21.235033 
L 316.385631 19.596466 
L 316.995578 20.325359 
L 317.605525 23.421555 
L 318.215473 21.555357 
L 318.82542 19.111411 
L 319.435367 19.566448 
L 320.045314 20.451286 
L 320.655261 18.823734 
L 321.265208 19.13749 
L 321.875156 18.520292 
L 322.485103 21.276486 
L 323.09505 18.860885 
L 323.704997 19.802917 
L 324.314944 21.386877 
L 324.924891 19.269492 
L 325.534839 21.284939 
L 326.144786 19.530274 
L 326.754733 20.807592 
L 327.36468 21.110513 
L 327.974627 23.540513 
L 328.584574 21.851871 
L 329.194522 23.933868 
L 329.804469 21.920987 
L 331.024363 22.982511 
L 331.63431 21.790852 
L 332.244257 23.313792 
L 332.854205 26.086245 
L 334.074099 19.900107 
L 334.684046 21.591743 
L 335.293993 21.73835 
L 335.90394 25.883722 
L 336.513888 26.547837 
L 337.123835 20.27615 
L 337.733782 21.338557 
L 338.343729 20.858263 
L 338.953676 24.502538 
L 339.563623 21.540337 
L 340.173571 21.604003 
L 340.783518 20.912186 
L 341.393465 21.257826 
L 342.003412 20.498907 
L 342.613359 22.528228 
L 343.223306 18.872065 
L 343.833254 20.414693 
L 344.443201 22.430343 
L 345.053148 20.829338 
L 345.663095 22.54444 
L 346.273042 19.464382 
L 346.88299 19.804786 
L 347.492937 17.829551 
L 348.102884 18.783682 
L 348.712831 19.033789 
L 349.322778 18.941292 
L 349.932725 19.38715 
L 350.542673 20.83956 
L 351.15262 20.240115 
L 351.762567 19.239618 
L 352.372514 20.080555 
L 352.982461 18.814589 
L 353.592408 20.18701 
L 354.202356 23.348208 
L 354.812303 20.669962 
L 355.42225 16.63855 
L 356.032197 16.921339 
L 356.642144 19.187984 
L 357.252091 17.160708 
L 357.862039 16.826461 
L 358.471986 19.792627 
L 359.081933 19.862464 
L 359.69188 16.661755 
L 360.301827 17.768263 
L 360.911774 17.795272 
L 361.521722 17.479984 
L 362.131669 17.696455 
L 362.741616 17.221528 
L 363.351563 16.303153 
L 363.96151 18.65362 
L 364.571457 19.59449 
L 365.791352 18.125708 
L 366.401299 18.964362 
L 367.011246 22.652211 
L 367.621193 20.090695 
L 367.621193 20.090695 
" clip-path="url(#p7ecfb51d4c)" style="fill: none; stroke-dasharray: 3.7,1.6; stroke-dashoffset: 0; stroke: #000000"/>
   </g>
   <g id="patch_3">
    <path d="M 48.039375 253.08 
L 48.039375 3.6 
" style="fill: none; stroke: #000000; stroke-width: 0.5; stroke-linejoin: miter; stroke-linecap: square"/>
   </g>
   <g id="patch_4">
    <path d="M 382.839375 253.08 
L 382.839375 3.6 
" style="fill: none; stroke: #000000; stroke-width: 0.5; stroke-linejoin: miter; stroke-linecap: square"/>
   </g>
   <g id="patch_5">
    <path d="M 48.039375 253.08 
L 382.839375 253.08 
" style="fill: none; stroke: #000000; stroke-width: 0.5; stroke-linejoin: miter; stroke-linecap: square"/>
   </g>
   <g id="patch_6">
    <path d="M 48.039375 3.6 
L 382.839375 3.6 
" style="fill: none; stroke: #000000; stroke-width: 0.5; stroke-linejoin: miter; stroke-linecap: square"/>
   </g>
   <g id="legend_1">
    <g id="patch_7">
     <path d="M 257.968125 247.08 
L 374.439375 247.08 
Q 376.839375 247.08 376.839375 244.68 
L 376.839375 193.03875 
Q 376.839375 190.63875 374.439375 190.63875 
L 257.968125 190.63875 
Q 255.568125 190.63875 255.568125 193.03875 
L 255.568125 244.68 
Q 255.568125 247.08 257.968125 247.08 
z
" style="fill: #ffffff; opacity: 0.8; stroke: #cccccc; stroke-linejoin: miter"/>
    </g>
    <g id="line2d_158">
     <path d="M 260.368125 200.356875 
L 272.368125 200.356875 
L 284.368125 200.356875 
" style="fill: none; stroke: #000000; stroke-linecap: square"/>
    </g>
    <g id="text_18">
     <!-- Best fitness -->
     <g transform="translate(293.968125 204.556875) scale(0.12 -0.12)">
      <defs>
       <path id="DejaVuSans-42" d="M 1259 2228 
L 1259 519 
L 2272 519 
Q 2781 519 3026 730 
Q 3272 941 3272 1375 
Q 3272 1813 3026 2020 
Q 2781 2228 2272 2228 
L 1259 2228 
z
M 1259 4147 
L 1259 2741 
L 2194 2741 
Q 2656 2741 2882 2914 
Q 3109 3088 3109 3444 
Q 3109 3797 2882 3972 
Q 2656 4147 2194 4147 
L 1259 4147 
z
M 628 4666 
L 2241 4666 
Q 2963 4666 3353 4366 
Q 3744 4066 3744 3513 
Q 3744 3084 3544 2831 
Q 3344 2578 2956 2516 
Q 3422 2416 3680 2098 
Q 3938 1781 3938 1306 
Q 3938 681 3513 340 
Q 3088 0 2303 0 
L 628 0 
L 628 4666 
z
" transform="scale(0.015625)"/>
       <path id="DejaVuSans-20" transform="scale(0.015625)"/>
       <path id="DejaVuSans-66" d="M 2375 4863 
L 2375 4384 
L 1825 4384 
Q 1516 4384 1395 4259 
Q 1275 4134 1275 3809 
L 1275 3500 
L 2222 3500 
L 2222 3053 
L 1275 3053 
L 1275 0 
L 697 0 
L 697 3053 
L 147 3053 
L 147 3500 
L 697 3500 
L 697 3744 
Q 697 4328 969 4595 
Q 1241 4863 1831 4863 
L 2375 4863 
z
" transform="scale(0.015625)"/>
      </defs>
      <use xlink:href="#DejaVuSans-42"/>
      <use xlink:href="#DejaVuSans-65" x="68.603516"/>
      <use xlink:href="#DejaVuSans-73" x="130.126953"/>
      <use xlink:href="#DejaVuSans-74" x="182.226562"/>
      <use xlink:href="#DejaVuSans-20" x="221.435547"/>
      <use xlink:href="#DejaVuSans-66" x="253.222656"/>
      <use xlink:href="#DejaVuSans-69" x="288.427734"/>
      <use xlink:href="#DejaVuSans-74" x="316.210938"/>
      <use xlink:href="#DejaVuSans-6e" x="355.419922"/>
      <use xlink:href="#DejaVuSans-65" x="418.798828"/>
      <use xlink:href="#DejaVuSans-73" x="480.322266"/>
      <use xlink:href="#DejaVuSans-73" x="532.421875"/>
     </g>
    </g>
    <g id="patch_8">
     <path d="M 260.368125 222.170625 
L 284.368125 222.170625 
L 284.368125 213.770625 
L 260.368125 213.770625 
z
" style="fill: #0000ff; fill-opacity: 0.2; stroke: #0000ff; stroke-opacity: 0.2; stroke-linejoin: miter"/>
    </g>
    <g id="text_19">
     <!-- Top 90% -->
     <g transform="translate(293.968125 222.170625) scale(0.12 -0.12)">
      <defs>
       <path id="DejaVuSans-54" d="M -19 4666 
L 3928 4666 
L 3928 4134 
L 2272 4134 
L 2272 0 
L 1638 0 
L 1638 4134 
L -19 4134 
L -19 4666 
z
" transform="scale(0.015625)"/>
       <path id="DejaVuSans-70" d="M 1159 525 
L 1159 -1331 
L 581 -1331 
L 581 3500 
L 1159 3500 
L 1159 2969 
Q 1341 3281 1617 3432 
Q 1894 3584 2278 3584 
Q 2916 3584 3314 3078 
Q 3713 2572 3713 1747 
Q 3713 922 3314 415 
Q 2916 -91 2278 -91 
Q 1894 -91 1617 61 
Q 1341 213 1159 525 
z
M 3116 1747 
Q 3116 2381 2855 2742 
Q 2594 3103 2138 3103 
Q 1681 3103 1420 2742 
Q 1159 2381 1159 1747 
Q 1159 1113 1420 752 
Q 1681 391 2138 391 
Q 2594 391 2855 752 
Q 3116 1113 3116 1747 
z
" transform="scale(0.015625)"/>
       <path id="DejaVuSans-39" d="M 703 97 
L 703 672 
Q 941 559 1184 500 
Q 1428 441 1663 441 
Q 2288 441 2617 861 
Q 2947 1281 2994 2138 
Q 2813 1869 2534 1725 
Q 2256 1581 1919 1581 
Q 1219 1581 811 2004 
Q 403 2428 403 3163 
Q 403 3881 828 4315 
Q 1253 4750 1959 4750 
Q 2769 4750 3195 4129 
Q 3622 3509 3622 2328 
Q 3622 1225 3098 567 
Q 2575 -91 1691 -91 
Q 1453 -91 1209 -44 
Q 966 3 703 97 
z
M 1959 2075 
Q 2384 2075 2632 2365 
Q 2881 2656 2881 3163 
Q 2881 3666 2632 3958 
Q 2384 4250 1959 4250 
Q 1534 4250 1286 3958 
Q 1038 3666 1038 3163 
Q 1038 2656 1286 2365 
Q 1534 2075 1959 2075 
z
" transform="scale(0.015625)"/>
       <path id="DejaVuSans-25" d="M 4653 2053 
Q 4381 2053 4226 1822 
Q 4072 1591 4072 1178 
Q 4072 772 4226 539 
Q 4381 306 4653 306 
Q 4919 306 5073 539 
Q 5228 772 5228 1178 
Q 5228 1588 5073 1820 
Q 4919 2053 4653 2053 
z
M 4653 2450 
Q 5147 2450 5437 2106 
Q 5728 1763 5728 1178 
Q 5728 594 5436 251 
Q 5144 -91 4653 -91 
Q 4153 -91 3862 251 
Q 3572 594 3572 1178 
Q 3572 1766 3864 2108 
Q 4156 2450 4653 2450 
z
M 1428 4353 
Q 1159 4353 1004 4120 
Q 850 3888 850 3481 
Q 850 3069 1003 2837 
Q 1156 2606 1428 2606 
Q 1700 2606 1854 2837 
Q 2009 3069 2009 3481 
Q 2009 3884 1853 4118 
Q 1697 4353 1428 4353 
z
M 4250 4750 
L 4750 4750 
L 1831 -91 
L 1331 -91 
L 4250 4750 
z
M 1428 4750 
Q 1922 4750 2215 4408 
Q 2509 4066 2509 3481 
Q 2509 2891 2217 2550 
Q 1925 2209 1428 2209 
Q 931 2209 642 2551 
Q 353 2894 353 3481 
Q 353 4063 643 4406 
Q 934 4750 1428 4750 
z
" transform="scale(0.015625)"/>
      </defs>
      <use xlink:href="#DejaVuSans-54"/>
      <use xlink:href="#DejaVuSans-6f" x="44.083984"/>
      <use xlink:href="#DejaVuSans-70" x="105.265625"/>
      <use xlink:href="#DejaVuSans-20" x="168.742188"/>
      <use xlink:href="#DejaVuSans-39" x="200.529297"/>
      <use xlink:href="#DejaVuSans-30" x="264.152344"/>
      <use xlink:href="#DejaVuSans-25" x="327.775391"/>
     </g>
    </g>
    <g id="line2d_159">
     <path d="M 260.368125 235.584375 
L 272.368125 235.584375 
L 284.368125 235.584375 
" style="fill: none; stroke-dasharray: 3.7,1.6; stroke-dashoffset: 0; stroke: #000000"/>
    </g>
    <g id="text_20">
     <!-- Mean Fitness -->
     <g transform="translate(293.968125 239.784375) scale(0.12 -0.12)">
      <defs>
       <path id="DejaVuSans-4d" d="M 628 4666 
L 1569 4666 
L 2759 1491 
L 3956 4666 
L 4897 4666 
L 4897 0 
L 4281 0 
L 4281 4097 
L 3078 897 
L 2444 897 
L 1241 4097 
L 1241 0 
L 628 0 
L 628 4666 
z
" transform="scale(0.015625)"/>
      </defs>
      <use xlink:href="#DejaVuSans-4d"/>
      <use xlink:href="#DejaVuSans-65" x="86.279297"/>
      <use xlink:href="#DejaVuSans-61" x="147.802734"/>
      <use xlink:href="#DejaVuSans-6e" x="209.082031"/>
      <use xlink:href="#DejaVuSans-20" x="272.460938"/>
      <use xlink:href="#DejaVuSans-46" x="304.248047"/>
      <use xlink:href="#DejaVuSans-69" x="354.517578"/>
      <use xlink:href="#DejaVuSans-74" x="382.300781"/>
      <use xlink:href="#DejaVuSans-6e" x="421.509766"/>
      <use xlink:href="#DejaVuSans-65" x="484.888672"/>
      <use xlink:href="#DejaVuSans-73" x="546.412109"/>
      <use xlink:href="#DejaVuSans-73" x="598.511719"/>
     </g>
    </g>
   </g>
  </g>
 </g>
 <defs>
  <clipPath id="p7ecfb51d4c">
   <rect x="48.039375" y="3.6" width="334.8" height="249.48"/>
  </clipPath>
 </defs>
</svg>
