<?xml version="1.0" encoding="utf-8" standalone="no"?>
<!DOCTYPE svg PUBLIC "-//W3C//DTD SVG 1.1//EN"
  "http://www.w3.org/Graphics/SVG/1.1/DTD/svg11.dtd">
<svg xmlns:xlink="http://www.w3.org/1999/xlink" width="394.074375pt" height="287.4075pt" viewBox="0 0 394.074375 287.4075" xmlns="http://www.w3.org/2000/svg" version="1.1">
 <metadata>
  <rdf:RDF xmlns:dc="http://purl.org/dc/elements/1.1/" xmlns:cc="http://creativecommons.org/ns#" xmlns:rdf="http://www.w3.org/1999/02/22-rdf-syntax-ns#">
   <cc:Work>
    <dc:type rdf:resource="http://purl.org/dc/dcmitype/StillImage"/>
    <dc:date>2024-06-05T09:16:51.728371</dc:date>
    <dc:format>image/svg+xml</dc:format>
    <dc:creator>
     <cc:Agent>
      <dc:title>Matplotlib v3.9.0, https://matplotlib.org/</dc:title>
     </cc:Agent>
    </dc:creator>
   </cc:Work>
  </rdf:RDF>
 </metadata>
 <defs>
  <style type="text/css">*{stroke-linejoin: round; stroke-linecap: butt}</style>
 </defs>
 <g id="figure_1">
  <g id="patch_1">
   <path d="M 0 287.4075 
L 394.074375 287.4075 
L 394.074375 0 
L 0 0 
z
" style="fill: #ffffff"/>
  </g>
  <g id="axes_1">
   <g id="patch_2">
    <path d="M 55.674375 253.08 
L 390.474375 253.08 
L 390.474375 3.6 
L 55.674375 3.6 
z
" style="fill: #ffffff"/>
   </g>
   <g id="PolyCollection_1">
    <defs>
     <path id="mbde2d03755" d="M 70.892557 -269.507938 
L 70.892557 -234.121681 
L 71.502504 -245.232757 
L 72.112451 -250.78973 
L 72.722398 -252.312039 
L 73.332345 -247.922913 
L 73.942293 -253.940047 
L 74.55224 -256.046066 
L 75.162187 -251.58435 
L 75.772134 -251.313743 
L 76.382081 -250.112751 
L 76.992028 -254.353153 
L 77.601976 -256.007521 
L 78.211923 -253.599323 
L 78.82187 -255.527249 
L 79.431817 -253.809133 
L 80.041764 -253.244243 
L 80.651711 -253.199632 
L 81.261659 -255.294341 
L 81.871606 -255.171422 
L 82.481553 -255.674463 
L 83.0915 -257.35669 
L 83.701447 -257.458039 
L 84.311394 -257.303234 
L 84.921342 -256.813744 
L 85.531289 -256.755118 
L 86.141236 -257.966352 
L 86.751183 -258.322894 
L 87.36113 -258.315802 
L 87.971077 -258.73727 
L 88.581025 -258.908474 
L 89.190972 -258.857731 
L 89.800919 -258.764096 
L 90.410866 -259.015169 
L 91.020813 -259.505885 
L 91.63076 -259.453611 
L 92.240708 -259.546727 
L 92.850655 -259.729152 
L 93.460602 -263.887678 
L 94.070549 -263.797506 
L 94.680496 -264.471124 
L 95.290444 -264.797138 
L 95.900391 -265.808492 
L 96.510338 -266.176088 
L 97.120285 -270.10083 
L 97.730232 -270.129012 
L 98.340179 -266.392061 
L 98.950127 -269.71321 
L 99.560074 -266.583222 
L 100.170021 -270.073273 
L 100.779968 -270.19597 
L 101.389915 -270.195998 
L 101.999862 -270.43917 
L 102.60981 -270.473444 
L 103.219757 -270.526896 
L 103.829704 -270.355149 
L 104.439651 -270.455579 
L 105.049598 -270.480964 
L 105.659545 -270.199493 
L 106.269493 -270.336245 
L 106.87944 -270.365126 
L 107.489387 -270.357634 
L 108.099334 -270.415912 
L 108.709281 -270.076161 
L 109.319228 -270.415915 
L 109.929176 -270.187146 
L 110.539123 -270.156195 
L 111.14907 -270.349527 
L 111.759017 -270.527518 
L 112.368964 -270.012153 
L 112.978911 -270.162618 
L 113.588859 -270.402416 
L 114.198806 -270.475439 
L 114.808753 -270.340103 
L 115.4187 -270.33354 
L 116.028647 -270.620739 
L 116.638594 -270.832912 
L 117.248542 -270.629603 
L 117.858489 -270.910511 
L 118.468436 -271.107884 
L 119.078383 -271.166541 
L 119.68833 -271.150326 
L 120.298277 -271.170729 
L 120.908225 -271.271077 
L 121.518172 -271.170731 
L 122.128119 -271.183182 
L 122.738066 -271.072048 
L 123.348013 -270.338552 
L 123.95796 -270.896202 
L 124.567908 -270.900172 
L 125.177855 -271.154054 
L 125.787802 -271.418911 
L 126.397749 -271.46274 
L 127.007696 -271.483356 
L 127.617643 -271.655791 
L 128.227591 -271.62304 
L 128.837538 -271.519211 
L 129.447485 -271.445029 
L 130.057432 -271.42248 
L 130.667379 -271.390772 
L 131.277326 -271.198321 
L 131.887274 -271.446052 
L 132.497221 -271.128683 
L 133.107168 -271.162402 
L 133.717115 -270.974833 
L 134.327062 -271.198157 
L 134.937009 -271.048152 
L 135.546957 -271.291279 
L 136.156904 -271.291275 
L 136.766851 -270.948721 
L 137.376798 -271.13188 
L 137.986745 -271.218349 
L 138.596692 -271.180502 
L 139.20664 -271.247906 
L 139.816587 -271.167645 
L 140.426534 -271.167647 
L 141.036481 -271.206918 
L 141.646428 -271.265911 
L 142.256375 -271.316263 
L 142.866323 -271.278503 
L 143.47627 -271.278494 
L 144.086217 -271.278503 
L 144.696164 -271.29002 
L 145.306111 -271.305482 
L 145.916058 -271.203716 
L 146.526006 -271.167643 
L 147.135953 -271.286514 
L 147.7459 -271.18909 
L 148.355847 -271.220245 
L 148.965794 -271.141148 
L 149.575741 -271.041036 
L 150.185689 -271.251357 
L 150.795636 -271.489068 
L 151.405583 -271.374592 
L 152.01553 -271.101726 
L 152.625477 -271.104929 
L 153.235424 -271.493466 
L 153.845372 -271.349142 
L 154.455319 -271.408812 
L 155.065266 -271.438194 
L 155.675213 -271.430822 
L 156.28516 -271.374819 
L 156.895107 -271.268934 
L 157.505055 -271.330838 
L 158.115002 -271.371224 
L 158.724949 -271.381558 
L 159.334896 -271.505468 
L 159.944843 -271.521713 
L 160.55479 -271.571845 
L 161.164738 -271.5018 
L 161.774685 -271.5018 
L 162.384632 -271.124977 
L 162.994579 -271.419749 
L 163.604526 -271.413646 
L 164.214473 -271.37611 
L 164.824421 -271.111046 
L 165.434368 -271.111045 
L 166.044315 -271.039625 
L 166.654262 -270.909226 
L 167.264209 -271.263682 
L 167.874156 -271.333874 
L 168.484104 -271.403814 
L 169.094051 -271.473441 
L 169.703998 -271.348619 
L 170.313945 -271.310562 
L 170.923892 -271.485399 
L 171.533839 -271.306801 
L 172.143787 -271.280169 
L 172.753734 -271.269116 
L 173.363681 -271.274467 
L 173.973628 -271.312069 
L 174.583575 -271.308574 
L 175.193522 -271.357538 
L 175.80347 -271.440099 
L 176.413417 -271.598142 
L 177.023364 -271.518806 
L 177.633311 -271.452539 
L 178.243258 -271.363581 
L 178.853205 -271.440396 
L 179.463153 -271.550945 
L 180.0731 -271.590142 
L 180.683047 -271.405115 
L 181.292994 -271.543735 
L 181.902941 -271.418016 
L 182.512888 -271.255939 
L 183.122836 -271.471802 
L 183.732783 -271.568799 
L 184.34273 -271.513046 
L 184.952677 -271.568237 
L 185.562624 -271.444926 
L 186.172571 -271.568802 
L 186.782519 -271.301095 
L 187.392466 -271.372609 
L 188.002413 -271.387909 
L 188.61236 -271.201976 
L 189.222307 -271.367275 
L 189.832254 -271.60534 
L 190.442202 -271.552505 
L 191.052149 -271.496604 
L 191.662096 -271.552505 
L 192.272043 -271.45363 
L 192.88199 -271.509515 
L 193.491937 -271.420586 
L 194.101885 -271.31744 
L 194.711832 -271.52588 
L 195.321779 -271.667944 
L 195.931726 -271.604483 
L 196.541673 -271.309077 
L 197.15162 -271.08816 
L 197.761568 -271.269518 
L 198.371515 -271.382727 
L 198.981462 -271.321397 
L 199.591409 -271.276137 
L 200.201356 -271.259122 
L 200.811303 -271.232987 
L 201.421251 -271.31774 
L 202.031198 -271.310846 
L 202.641145 -271.232989 
L 203.251092 -271.491461 
L 203.861039 -271.487497 
L 204.470986 -271.47463 
L 205.080934 -271.313642 
L 205.690881 -271.289299 
L 206.300828 -271.487496 
L 206.910775 -271.487497 
L 207.520722 -271.517479 
L 208.130669 -271.549246 
L 208.740617 -271.487494 
L 209.350564 -271.331201 
L 209.960511 -271.574656 
L 210.570458 -271.446444 
L 211.180405 -271.656708 
L 211.790352 -271.519442 
L 212.4003 -271.703571 
L 213.010247 -271.574662 
L 213.620194 -271.574661 
L 214.230141 -271.574664 
L 214.840088 -271.472367 
L 215.450035 -271.70839 
L 216.059983 -271.708391 
L 216.66993 -271.675081 
L 217.279877 -271.348965 
L 217.889824 -271.434531 
L 218.499771 -271.259472 
L 219.109718 -271.264943 
L 219.719666 -271.673998 
L 220.329613 -271.674004 
L 220.93956 -271.798695 
L 221.549507 -271.708393 
L 222.159454 -271.574602 
L 222.769401 -271.47043 
L 223.379349 -271.698149 
L 223.989296 -271.484476 
L 224.599243 -271.236685 
L 225.20919 -271.618136 
L 225.819137 -271.642765 
L 226.429084 -271.503091 
L 227.039032 -271.57805 
L 227.648979 -271.578054 
L 228.258926 -271.531908 
L 228.868873 -271.550913 
L 229.47882 -271.501796 
L 230.088767 -271.509717 
L 230.698715 -271.317083 
L 231.308662 -271.317081 
L 231.918609 -271.469113 
L 232.528556 -271.460752 
L 233.138503 -271.460752 
L 233.74845 -271.491973 
L 234.358398 -271.736232 
L 234.968345 -271.491975 
L 235.578292 -271.426098 
L 236.188239 -271.441713 
L 236.798186 -271.434826 
L 237.408133 -271.392596 
L 238.018081 -271.463799 
L 238.628028 -271.021924 
L 239.237975 -271.197445 
L 239.847922 -271.21873 
L 240.457869 -271.326287 
L 241.067816 -271.257078 
L 241.677764 -271.39544 
L 242.287711 -271.635073 
L 242.897658 -271.708635 
L 243.507605 -271.67478 
L 244.117552 -271.816408 
L 244.727499 -271.612336 
L 245.337447 -271.615609 
L 245.947394 -271.572139 
L 246.557341 -271.411627 
L 247.167288 -271.647225 
L 247.777235 -271.848919 
L 248.387182 -271.602738 
L 248.99713 -271.890172 
L 249.607077 -271.702229 
L 250.217024 -271.526524 
L 250.826971 -270.824438 
L 251.436918 -270.89783 
L 252.046865 -271.057791 
L 252.656813 -271.61218 
L 253.26676 -271.524121 
L 253.876707 -271.701712 
L 254.486654 -271.763153 
L 255.096601 -271.644632 
L 255.706548 -271.790489 
L 256.316496 -271.783496 
L 256.926443 -271.85109 
L 257.53639 -271.868679 
L 258.146337 -271.756793 
L 258.756284 -271.696336 
L 259.366231 -271.377881 
L 259.976179 -271.650158 
L 260.586126 -271.51187 
L 261.196073 -271.599019 
L 261.80602 -271.614016 
L 262.415967 -271.599013 
L 263.025914 -271.558963 
L 263.635862 -271.558962 
L 264.245809 -271.543233 
L 264.855756 -271.537735 
L 265.465703 -272.043727 
L 266.07565 -271.98602 
L 266.685597 -271.986021 
L 267.295545 -271.962712 
L 267.905492 -271.489581 
L 268.515439 -271.777306 
L 269.125386 -271.604769 
L 269.735333 -271.555484 
L 270.34528 -271.43477 
L 270.955228 -271.432745 
L 271.565175 -271.54982 
L 272.175122 -271.524956 
L 272.785069 -271.515078 
L 273.395016 -271.465674 
L 274.004963 -271.294266 
L 274.614911 -271.520847 
L 275.224858 -271.61622 
L 275.834805 -271.616223 
L 276.444752 -271.520848 
L 277.054699 -271.490457 
L 277.664646 -271.308198 
L 278.274594 -271.683713 
L 278.884541 -271.663722 
L 279.494488 -271.631116 
L 280.104435 -271.645217 
L 280.714382 -271.919066 
L 281.324329 -271.989247 
L 281.934277 -271.805849 
L 282.544224 -271.687117 
L 283.154171 -271.643121 
L 283.764118 -271.62184 
L 284.374065 -271.505784 
L 284.984012 -271.563318 
L 285.59396 -271.674784 
L 286.203907 -271.502486 
L 286.813854 -271.426323 
L 287.423801 -271.426325 
L 288.033748 -271.287165 
L 288.643695 -271.287167 
L 289.253643 -271.461268 
L 289.86359 -271.534402 
L 290.473537 -271.610641 
L 291.083484 -271.48905 
L 291.693431 -271.620637 
L 292.303378 -271.820857 
L 292.913326 -271.517742 
L 293.523273 -271.884781 
L 294.13322 -271.803516 
L 294.743167 -271.711004 
L 295.353114 -271.583432 
L 295.963061 -271.564515 
L 296.573009 -271.505672 
L 297.182956 -271.505681 
L 297.792903 -271.631858 
L 298.40285 -271.68156 
L 299.012797 -271.66935 
L 299.622744 -271.604109 
L 300.232692 -271.649739 
L 300.842639 -271.688162 
L 301.452586 -271.420009 
L 302.062533 -271.820198 
L 302.67248 -271.869985 
L 303.282427 -271.589728 
L 303.892375 -271.726875 
L 304.502322 -271.750219 
L 305.112269 -271.561392 
L 305.722216 -271.620974 
L 306.332163 -271.343095 
L 306.94211 -271.343095 
L 307.552058 -271.095725 
L 308.162005 -271.31386 
L 308.771952 -271.313867 
L 309.381899 -271.292345 
L 309.991846 -271.287149 
L 310.601793 -271.287147 
L 311.211741 -271.137987 
L 311.821688 -270.933368 
L 312.431635 -271.287154 
L 313.041582 -271.487626 
L 313.651529 -271.726874 
L 314.261476 -271.734982 
L 314.871424 -271.692574 
L 315.481371 -271.615979 
L 316.091318 -271.692579 
L 316.701265 -271.616408 
L 317.311212 -271.361754 
L 317.921159 -271.508042 
L 318.531107 -271.473745 
L 319.141054 -271.571429 
L 319.751001 -271.563356 
L 320.360948 -271.508038 
L 320.970895 -271.508039 
L 321.580842 -271.567026 
L 322.19079 -271.563359 
L 322.800737 -271.720864 
L 323.410684 -271.946094 
L 324.020631 -271.849175 
L 324.630578 -272.023085 
L 325.240525 -271.925397 
L 325.850473 -271.701926 
L 326.46042 -271.664855 
L 327.070367 -271.664856 
L 327.680314 -271.712931 
L 328.290261 -271.733056 
L 328.900208 -271.712932 
L 329.510156 -271.712649 
L 330.120103 -271.638638 
L 330.73005 -271.806163 
L 331.339997 -271.941266 
L 331.949944 -271.775649 
L 332.559891 -271.788881 
L 333.169839 -271.775655 
L 333.779786 -271.834359 
L 334.389733 -271.891606 
L 334.99968 -271.810728 
L 335.609627 -271.81073 
L 336.219574 -271.573547 
L 336.829522 -271.345919 
L 337.439469 -271.791813 
L 338.049416 -271.558078 
L 338.659363 -271.558073 
L 339.26931 -271.693707 
L 339.879257 -271.693708 
L 340.489205 -271.693708 
L 341.099152 -271.737478 
L 341.709099 -271.233913 
L 342.319046 -271.298675 
L 342.928993 -271.268481 
L 343.53894 -271.252773 
L 344.148888 -271.17367 
L 344.758835 -270.795004 
L 345.368782 -270.943229 
L 345.978729 -270.943234 
L 346.588676 -271.012268 
L 347.198623 -271.415958 
L 347.808571 -271.334698 
L 348.418518 -271.53952 
L 349.028465 -271.688401 
L 349.638412 -271.278876 
L 350.248359 -271.221747 
L 350.858306 -271.430027 
L 351.468254 -271.345775 
L 352.078201 -271.565135 
L 352.688148 -271.601475 
L 353.298095 -271.595535 
L 353.908042 -271.671905 
L 354.51799 -271.450694 
L 355.127937 -271.502904 
L 355.737884 -271.638179 
L 356.347831 -271.638178 
L 356.957778 -271.729533 
L 357.567725 -271.86114 
L 358.177673 -271.861135 
L 358.78762 -271.861141 
L 359.397567 -271.62961 
L 360.007514 -271.389976 
L 360.617461 -271.380595 
L 361.227408 -271.371472 
L 361.837356 -271.389974 
L 362.447303 -271.389971 
L 363.05725 -271.467513 
L 363.667197 -271.458715 
L 364.277144 -271.467509 
L 364.887091 -271.537995 
L 365.497039 -271.467511 
L 366.106986 -271.399571 
L 366.716933 -271.694281 
L 367.32688 -271.613831 
L 367.936827 -271.715464 
L 368.546774 -271.600839 
L 369.156722 -271.763956 
L 369.766669 -271.559081 
L 370.376616 -271.559081 
L 370.986563 -271.83743 
L 371.59651 -271.812197 
L 372.206457 -271.597467 
L 372.816405 -271.305754 
L 373.426352 -271.635116 
L 374.036299 -271.92833 
L 374.646246 -271.717349 
L 375.256193 -271.526184 
L 375.256193 -272.467497 
L 375.256193 -272.467497 
L 374.646246 -272.467498 
L 374.036299 -272.467497 
L 373.426352 -272.467496 
L 372.816405 -272.467497 
L 372.206457 -272.467495 
L 371.59651 -272.467495 
L 370.986563 -272.467495 
L 370.376616 -272.467497 
L 369.766669 -272.467497 
L 369.156722 -272.467496 
L 368.546774 -272.467497 
L 367.936827 -272.467494 
L 367.32688 -272.4675 
L 366.716933 -272.467497 
L 366.106986 -272.467496 
L 365.497039 -272.467495 
L 364.887091 -272.467496 
L 364.277144 -272.467496 
L 363.667197 -272.467497 
L 363.05725 -272.467498 
L 362.447303 -272.467499 
L 361.837356 -272.467497 
L 361.227408 -272.467496 
L 360.617461 -272.467496 
L 360.007514 -272.467497 
L 359.397567 -272.467497 
L 358.78762 -272.467497 
L 358.177673 -272.467495 
L 357.567725 -272.467498 
L 356.957778 -272.467497 
L 356.347831 -272.467496 
L 355.737884 -272.467496 
L 355.127937 -272.467496 
L 354.51799 -272.467497 
L 353.908042 -272.467499 
L 353.298095 -272.467497 
L 352.688148 -272.467496 
L 352.078201 -272.467496 
L 351.468254 -272.467496 
L 350.858306 -272.467496 
L 350.248359 -272.467496 
L 349.638412 -272.467497 
L 349.028465 -272.467498 
L 348.418518 -272.467497 
L 347.808571 -272.467495 
L 347.198623 -272.467497 
L 346.588676 -272.467495 
L 345.978729 -272.467496 
L 345.368782 -272.467496 
L 344.758835 -272.467497 
L 344.148888 -272.467496 
L 343.53894 -272.467496 
L 342.928993 -272.467496 
L 342.319046 -272.467496 
L 341.709099 -272.467498 
L 341.099152 -272.467496 
L 340.489205 -272.467497 
L 339.879257 -272.467496 
L 339.26931 -272.467496 
L 338.659363 -272.467498 
L 338.049416 -272.467496 
L 337.439469 -272.467495 
L 336.829522 -272.467497 
L 336.219574 -272.467496 
L 335.609627 -272.4675 
L 334.99968 -272.467497 
L 334.389733 -272.467495 
L 333.779786 -272.467496 
L 333.169839 -272.467497 
L 332.559891 -272.467496 
L 331.949944 -272.467497 
L 331.339997 -272.467496 
L 330.73005 -272.467496 
L 330.120103 -272.467497 
L 329.510156 -272.467496 
L 328.900208 -272.467496 
L 328.290261 -272.467496 
L 327.680314 -272.467497 
L 327.070367 -272.467496 
L 326.46042 -272.467498 
L 325.850473 -272.467495 
L 325.240525 -272.467496 
L 324.630578 -272.467497 
L 324.020631 -272.467496 
L 323.410684 -272.467496 
L 322.800737 -272.467495 
L 322.19079 -272.467498 
L 321.580842 -272.467496 
L 320.970895 -272.467495 
L 320.360948 -272.467495 
L 319.751001 -272.467495 
L 319.141054 -272.467496 
L 318.531107 -272.467496 
L 317.921159 -272.467495 
L 317.311212 -272.467497 
L 316.701265 -272.467496 
L 316.091318 -272.467499 
L 315.481371 -272.467497 
L 314.871424 -272.467496 
L 314.261476 -272.467497 
L 313.651529 -272.467497 
L 313.041582 -272.4675 
L 312.431635 -272.467497 
L 311.821688 -272.467498 
L 311.211741 -272.467497 
L 310.601793 -272.467499 
L 309.991846 -272.467496 
L 309.381899 -272.467495 
L 308.771952 -272.467499 
L 308.162005 -272.467498 
L 307.552058 -272.467497 
L 306.94211 -272.467496 
L 306.332163 -272.467496 
L 305.722216 -272.467496 
L 305.112269 -272.467496 
L 304.502322 -272.467498 
L 303.892375 -272.467496 
L 303.282427 -272.467496 
L 302.67248 -272.467498 
L 302.062533 -272.467495 
L 301.452586 -272.467496 
L 300.842639 -272.467496 
L 300.232692 -272.467499 
L 299.622744 -272.467498 
L 299.012797 -272.467498 
L 298.40285 -272.467497 
L 297.792903 -272.467499 
L 297.182956 -272.467496 
L 296.573009 -272.467497 
L 295.963061 -272.467496 
L 295.353114 -272.467496 
L 294.743167 -272.467496 
L 294.13322 -272.467496 
L 293.523273 -272.467496 
L 292.913326 -272.467497 
L 292.303378 -272.467496 
L 291.693431 -272.467496 
L 291.083484 -272.467495 
L 290.473537 -272.467496 
L 289.86359 -272.467497 
L 289.253643 -272.467499 
L 288.643695 -272.467498 
L 288.033748 -272.467496 
L 287.423801 -272.467497 
L 286.813854 -272.467498 
L 286.203907 -272.467497 
L 285.59396 -272.4675 
L 284.984012 -272.467497 
L 284.374065 -272.467496 
L 283.764118 -272.467495 
L 283.154171 -272.467495 
L 282.544224 -272.467498 
L 281.934277 -272.467498 
L 281.324329 -272.467496 
L 280.714382 -272.467496 
L 280.104435 -272.467496 
L 279.494488 -272.467499 
L 278.884541 -272.467496 
L 278.274594 -272.467497 
L 277.664646 -272.467496 
L 277.054699 -272.467496 
L 276.444752 -272.467498 
L 275.834805 -272.467496 
L 275.224858 -272.467496 
L 274.614911 -272.467497 
L 274.004963 -272.467496 
L 273.395016 -272.467497 
L 272.785069 -272.467497 
L 272.175122 -272.467496 
L 271.565175 -272.467496 
L 270.955228 -272.467496 
L 270.34528 -272.467497 
L 269.735333 -272.467497 
L 269.125386 -272.467496 
L 268.515439 -272.467497 
L 267.905492 -272.467498 
L 267.295545 -272.467497 
L 266.685597 -272.467498 
L 266.07565 -272.467497 
L 265.465703 -272.467497 
L 264.855756 -272.467496 
L 264.245809 -272.467497 
L 263.635862 -272.467497 
L 263.025914 -272.467499 
L 262.415967 -272.467497 
L 261.80602 -272.467496 
L 261.196073 -272.467496 
L 260.586126 -272.467497 
L 259.976179 -272.467495 
L 259.366231 -272.467497 
L 258.756284 -272.467499 
L 258.146337 -272.467496 
L 257.53639 -272.467495 
L 256.926443 -272.467496 
L 256.316496 -272.467496 
L 255.706548 -272.467497 
L 255.096601 -272.467495 
L 254.486654 -272.467497 
L 253.876707 -272.467496 
L 253.26676 -272.467496 
L 252.656813 -272.467496 
L 252.046865 -272.467497 
L 251.436918 -272.467497 
L 250.826971 -272.467496 
L 250.217024 -272.467495 
L 249.607077 -272.467496 
L 248.99713 -272.467496 
L 248.387182 -272.467496 
L 247.777235 -272.467496 
L 247.167288 -272.467496 
L 246.557341 -272.467497 
L 245.947394 -272.467497 
L 245.337447 -272.467495 
L 244.727499 -272.467496 
L 244.117552 -272.467495 
L 243.507605 -272.467495 
L 242.897658 -272.467495 
L 242.287711 -272.467496 
L 241.677764 -272.467496 
L 241.067816 -272.467496 
L 240.457869 -272.467496 
L 239.847922 -272.467495 
L 239.237975 -272.467496 
L 238.628028 -272.467495 
L 238.018081 -272.467496 
L 237.408133 -272.467497 
L 236.798186 -272.467496 
L 236.188239 -272.467498 
L 235.578292 -272.467496 
L 234.968345 -272.467497 
L 234.358398 -272.467496 
L 233.74845 -272.467498 
L 233.138503 -272.467496 
L 232.528556 -272.467495 
L 231.918609 -272.467495 
L 231.308662 -272.467495 
L 230.698715 -272.467495 
L 230.088767 -272.467496 
L 229.47882 -272.467496 
L 228.868873 -272.467496 
L 228.258926 -272.467496 
L 227.648979 -272.467497 
L 227.039032 -272.467496 
L 226.429084 -272.467495 
L 225.819137 -272.467496 
L 225.20919 -272.467498 
L 224.599243 -272.467495 
L 223.989296 -272.467496 
L 223.379349 -272.467497 
L 222.769401 -272.467496 
L 222.159454 -272.467496 
L 221.549507 -272.467497 
L 220.93956 -272.467496 
L 220.329613 -272.467495 
L 219.719666 -272.467496 
L 219.109718 -272.467496 
L 218.499771 -272.467496 
L 217.889824 -272.467496 
L 217.279877 -272.467496 
L 216.66993 -272.467499 
L 216.059983 -272.467497 
L 215.450035 -272.467497 
L 214.840088 -272.467498 
L 214.230141 -272.467497 
L 213.620194 -272.467496 
L 213.010247 -272.467496 
L 212.4003 -272.467496 
L 211.790352 -272.467496 
L 211.180405 -272.467498 
L 210.570458 -272.467498 
L 209.960511 -272.467497 
L 209.350564 -272.467496 
L 208.740617 -272.467497 
L 208.130669 -272.467497 
L 207.520722 -272.467496 
L 206.910775 -272.467496 
L 206.300828 -272.467497 
L 205.690881 -272.467497 
L 205.080934 -272.467496 
L 204.470986 -272.467497 
L 203.861039 -272.467496 
L 203.251092 -272.467497 
L 202.641145 -272.467497 
L 202.031198 -272.467496 
L 201.421251 -272.467497 
L 200.811303 -272.467495 
L 200.201356 -272.467495 
L 199.591409 -272.467495 
L 198.981462 -272.467496 
L 198.371515 -272.467497 
L 197.761568 -272.467497 
L 197.15162 -272.467496 
L 196.541673 -272.467495 
L 195.931726 -272.467495 
L 195.321779 -272.467496 
L 194.711832 -272.467496 
L 194.101885 -272.467497 
L 193.491937 -272.467496 
L 192.88199 -272.467498 
L 192.272043 -272.467497 
L 191.662096 -272.467498 
L 191.052149 -272.467496 
L 190.442202 -272.467496 
L 189.832254 -272.467495 
L 189.222307 -272.467496 
L 188.61236 -272.467496 
L 188.002413 -272.467496 
L 187.392466 -272.467494 
L 186.782519 -272.467496 
L 186.172571 -272.467499 
L 185.562624 -272.467497 
L 184.952677 -272.467496 
L 184.34273 -272.467496 
L 183.732783 -272.467497 
L 183.122836 -272.467497 
L 182.512888 -272.467497 
L 181.902941 -272.467497 
L 181.292994 -272.467496 
L 180.683047 -272.467497 
L 180.0731 -272.467496 
L 179.463153 -272.467496 
L 178.853205 -272.467496 
L 178.243258 -272.467497 
L 177.633311 -272.467495 
L 177.023364 -272.467496 
L 176.413417 -272.467498 
L 175.80347 -272.467495 
L 175.193522 -272.467495 
L 174.583575 -272.467494 
L 173.973628 -272.467496 
L 173.363681 -272.467495 
L 172.753734 -272.467499 
L 172.143787 -272.467496 
L 171.533839 -272.467496 
L 170.923892 -272.467496 
L 170.313945 -272.467495 
L 169.703998 -272.467495 
L 169.094051 -272.467495 
L 168.484104 -272.467497 
L 167.874156 -272.467495 
L 167.264209 -272.467498 
L 166.654262 -272.467497 
L 166.044315 -272.467492 
L 165.434368 -272.467496 
L 164.824421 -272.467495 
L 164.214473 -272.467496 
L 163.604526 -272.467496 
L 162.994579 -272.467495 
L 162.384632 -272.467494 
L 161.774685 -272.467496 
L 161.164738 -272.467497 
L 160.55479 -272.467495 
L 159.944843 -272.467494 
L 159.334896 -272.467494 
L 158.724949 -272.467495 
L 158.115002 -272.4675 
L 157.505055 -272.467495 
L 156.895107 -272.467494 
L 156.28516 -272.467495 
L 155.675213 -272.467498 
L 155.065266 -272.467493 
L 154.455319 -272.467494 
L 153.845372 -272.467494 
L 153.235424 -272.467493 
L 152.625477 -272.467493 
L 152.01553 -272.46749 
L 151.405583 -272.467418 
L 150.795636 -272.467415 
L 150.185689 -272.467416 
L 149.575741 -272.467419 
L 148.965794 -272.46741 
L 148.355847 -272.465287 
L 147.7459 -272.465296 
L 147.135953 -272.465291 
L 146.526006 -272.465282 
L 145.916058 -272.465295 
L 145.306111 -272.465299 
L 144.696164 -272.465287 
L 144.086217 -272.465283 
L 143.47627 -272.46528 
L 142.866323 -272.465286 
L 142.256375 -272.463058 
L 141.646428 -272.46306 
L 141.036481 -272.438677 
L 140.426534 -272.438676 
L 139.816587 -272.438675 
L 139.20664 -272.438681 
L 138.596692 -272.438676 
L 137.986745 -272.422098 
L 137.376798 -272.418744 
L 136.766851 -272.418743 
L 136.156904 -272.418744 
L 135.546957 -272.418743 
L 134.937009 -272.418743 
L 134.327062 -272.418742 
L 133.717115 -272.418743 
L 133.107168 -272.418737 
L 132.497221 -272.418723 
L 131.887274 -272.376888 
L 131.277326 -272.376888 
L 130.667379 -272.376888 
L 130.057432 -272.376888 
L 129.447485 -272.376888 
L 128.837538 -272.376888 
L 128.227591 -272.376885 
L 127.617643 -272.376888 
L 127.007696 -272.376888 
L 126.397749 -272.376886 
L 125.787802 -272.376886 
L 125.177855 -272.376885 
L 124.567908 -272.376881 
L 123.95796 -272.376884 
L 123.348013 -272.353504 
L 122.738066 -272.3535 
L 122.128119 -272.353503 
L 121.518172 -272.353497 
L 120.908225 -272.317406 
L 120.298277 -272.317402 
L 119.68833 -272.317406 
L 119.078383 -272.317402 
L 118.468436 -272.31423 
L 117.858489 -272.314228 
L 117.248542 -272.314235 
L 116.638594 -272.314234 
L 116.028647 -272.297802 
L 115.4187 -272.297801 
L 114.808753 -272.297803 
L 114.198806 -272.297798 
L 113.588859 -272.274217 
L 112.978911 -272.274213 
L 112.368964 -272.274213 
L 111.759017 -272.274214 
L 111.14907 -272.274219 
L 110.539123 -272.274215 
L 109.929176 -272.274216 
L 109.319228 -272.274214 
L 108.709281 -272.274216 
L 108.099334 -272.27421 
L 107.489387 -272.274216 
L 106.87944 -272.274219 
L 106.269493 -272.274219 
L 105.659545 -272.274219 
L 105.049598 -272.274214 
L 104.439651 -272.274214 
L 103.829704 -272.274204 
L 103.219757 -272.274201 
L 102.60981 -272.274218 
L 101.999862 -272.2742 
L 101.389915 -272.274201 
L 100.779968 -272.274203 
L 100.170021 -272.274205 
L 99.560074 -272.274201 
L 98.950127 -272.274201 
L 98.340179 -272.098217 
L 97.730232 -272.098216 
L 97.120285 -272.098213 
L 96.510338 -272.098214 
L 95.900391 -272.029013 
L 95.290444 -271.996224 
L 94.680496 -271.996224 
L 94.070549 -271.996221 
L 93.460602 -271.996217 
L 92.850655 -271.81331 
L 92.240708 -271.813309 
L 91.63076 -271.813309 
L 91.020813 -271.81331 
L 90.410866 -271.813309 
L 89.800919 -271.813304 
L 89.190972 -271.8133 
L 88.581025 -271.813299 
L 87.971077 -271.813308 
L 87.36113 -271.48462 
L 86.751183 -271.357922 
L 86.141236 -271.357924 
L 85.531289 -271.357919 
L 84.921342 -271.357922 
L 84.311394 -271.357924 
L 83.701447 -271.357922 
L 83.0915 -271.357921 
L 82.481553 -271.357921 
L 81.871606 -271.357919 
L 81.261659 -271.084995 
L 80.651711 -271.084992 
L 80.041764 -271.084995 
L 79.431817 -271.084995 
L 78.82187 -271.084995 
L 78.211923 -271.084996 
L 77.601976 -271.084996 
L 76.992028 -270.51802 
L 76.382081 -270.518025 
L 75.772134 -270.518015 
L 75.162187 -270.518013 
L 74.55224 -269.60653 
L 73.942293 -269.606536 
L 73.332345 -269.606285 
L 72.722398 -269.507925 
L 72.112451 -269.507869 
L 71.502504 -269.508001 
L 70.892557 -269.507938 
z
" style="stroke: #0000ff; stroke-opacity: 0.2"/>
    </defs>
    <g clip-path="url(#p15f7963a48)">
     <use xlink:href="#mbde2d03755" x="0" y="287.4075" style="fill: #0000ff; fill-opacity: 0.2; stroke: #0000ff; stroke-opacity: 0.2"/>
    </g>
   </g>
   <g id="matplotlib.axis_1">
    <g id="xtick_1">
     <g id="line2d_1">
      <path d="M 70.892557 253.08 
L 70.892557 3.6 
" clip-path="url(#p15f7963a48)" style="fill: none; stroke: #b0b0b0; stroke-width: 0.5; stroke-linecap: square"/>
     </g>
     <g id="line2d_2">
      <defs>
       <path id="md7f0543183" d="M 0 0 
L 0 -3 
" style="stroke: #000000; stroke-width: 0.5"/>
      </defs>
      <g>
       <use xlink:href="#md7f0543183" x="70.892557" y="253.08" style="stroke: #000000; stroke-width: 0.5"/>
      </g>
     </g>
     <g id="line2d_3">
      <defs>
       <path id="m887923d3b2" d="M 0 0 
L 0 3 
" style="stroke: #000000; stroke-width: 0.5"/>
      </defs>
      <g>
       <use xlink:href="#m887923d3b2" x="70.892557" y="3.6" style="stroke: #000000; stroke-width: 0.5"/>
      </g>
     </g>
     <g id="text_1">
      <!-- 0 -->
      <g transform="translate(67.075057 265.698125) scale(0.12 -0.12)">
       <defs>
        <path id="DejaVuSans-30" d="M 2034 4250 
Q 1547 4250 1301 3770 
Q 1056 3291 1056 2328 
Q 1056 1369 1301 889 
Q 1547 409 2034 409 
Q 2525 409 2770 889 
Q 3016 1369 3016 2328 
Q 3016 3291 2770 3770 
Q 2525 4250 2034 4250 
z
M 2034 4750 
Q 2819 4750 3233 4129 
Q 3647 3509 3647 2328 
Q 3647 1150 3233 529 
Q 2819 -91 2034 -91 
Q 1250 -91 836 529 
Q 422 1150 422 2328 
Q 422 3509 836 4129 
Q 1250 4750 2034 4750 
z
" transform="scale(0.015625)"/>
       </defs>
       <use xlink:href="#DejaVuSans-30"/>
      </g>
     </g>
    </g>
    <g id="xtick_2">
     <g id="line2d_4">
      <path d="M 131.887274 253.08 
L 131.887274 3.6 
" clip-path="url(#p15f7963a48)" style="fill: none; stroke: #b0b0b0; stroke-width: 0.5; stroke-linecap: square"/>
     </g>
     <g id="line2d_5">
      <g>
       <use xlink:href="#md7f0543183" x="131.887274" y="253.08" style="stroke: #000000; stroke-width: 0.5"/>
      </g>
     </g>
     <g id="line2d_6">
      <g>
       <use xlink:href="#m887923d3b2" x="131.887274" y="3.6" style="stroke: #000000; stroke-width: 0.5"/>
      </g>
     </g>
     <g id="text_2">
      <!-- 100 -->
      <g transform="translate(120.434774 265.698125) scale(0.12 -0.12)">
       <defs>
        <path id="DejaVuSans-31" d="M 794 531 
L 1825 531 
L 1825 4091 
L 703 3866 
L 703 4441 
L 1819 4666 
L 2450 4666 
L 2450 531 
L 3481 531 
L 3481 0 
L 794 0 
L 794 531 
z
" transform="scale(0.015625)"/>
       </defs>
       <use xlink:href="#DejaVuSans-31"/>
       <use xlink:href="#DejaVuSans-30" x="63.623047"/>
       <use xlink:href="#DejaVuSans-30" x="127.246094"/>
      </g>
     </g>
    </g>
    <g id="xtick_3">
     <g id="line2d_7">
      <path d="M 192.88199 253.08 
L 192.88199 3.6 
" clip-path="url(#p15f7963a48)" style="fill: none; stroke: #b0b0b0; stroke-width: 0.5; stroke-linecap: square"/>
     </g>
     <g id="line2d_8">
      <g>
       <use xlink:href="#md7f0543183" x="192.88199" y="253.08" style="stroke: #000000; stroke-width: 0.5"/>
      </g>
     </g>
     <g id="line2d_9">
      <g>
       <use xlink:href="#m887923d3b2" x="192.88199" y="3.6" style="stroke: #000000; stroke-width: 0.5"/>
      </g>
     </g>
     <g id="text_3">
      <!-- 200 -->
      <g transform="translate(181.42949 265.698125) scale(0.12 -0.12)">
       <defs>
        <path id="DejaVuSans-32" d="M 1228 531 
L 3431 531 
L 3431 0 
L 469 0 
L 469 531 
Q 828 903 1448 1529 
Q 2069 2156 2228 2338 
Q 2531 2678 2651 2914 
Q 2772 3150 2772 3378 
Q 2772 3750 2511 3984 
Q 2250 4219 1831 4219 
Q 1534 4219 1204 4116 
Q 875 4013 500 3803 
L 500 4441 
Q 881 4594 1212 4672 
Q 1544 4750 1819 4750 
Q 2544 4750 2975 4387 
Q 3406 4025 3406 3419 
Q 3406 3131 3298 2873 
Q 3191 2616 2906 2266 
Q 2828 2175 2409 1742 
Q 1991 1309 1228 531 
z
" transform="scale(0.015625)"/>
       </defs>
       <use xlink:href="#DejaVuSans-32"/>
       <use xlink:href="#DejaVuSans-30" x="63.623047"/>
       <use xlink:href="#DejaVuSans-30" x="127.246094"/>
      </g>
     </g>
    </g>
    <g id="xtick_4">
     <g id="line2d_10">
      <path d="M 253.876707 253.08 
L 253.876707 3.6 
" clip-path="url(#p15f7963a48)" style="fill: none; stroke: #b0b0b0; stroke-width: 0.5; stroke-linecap: square"/>
     </g>
     <g id="line2d_11">
      <g>
       <use xlink:href="#md7f0543183" x="253.876707" y="253.08" style="stroke: #000000; stroke-width: 0.5"/>
      </g>
     </g>
     <g id="line2d_12">
      <g>
       <use xlink:href="#m887923d3b2" x="253.876707" y="3.6" style="stroke: #000000; stroke-width: 0.5"/>
      </g>
     </g>
     <g id="text_4">
      <!-- 300 -->
      <g transform="translate(242.424207 265.698125) scale(0.12 -0.12)">
       <defs>
        <path id="DejaVuSans-33" d="M 2597 2516 
Q 3050 2419 3304 2112 
Q 3559 1806 3559 1356 
Q 3559 666 3084 287 
Q 2609 -91 1734 -91 
Q 1441 -91 1130 -33 
Q 819 25 488 141 
L 488 750 
Q 750 597 1062 519 
Q 1375 441 1716 441 
Q 2309 441 2620 675 
Q 2931 909 2931 1356 
Q 2931 1769 2642 2001 
Q 2353 2234 1838 2234 
L 1294 2234 
L 1294 2753 
L 1863 2753 
Q 2328 2753 2575 2939 
Q 2822 3125 2822 3475 
Q 2822 3834 2567 4026 
Q 2313 4219 1838 4219 
Q 1578 4219 1281 4162 
Q 984 4106 628 3988 
L 628 4550 
Q 988 4650 1302 4700 
Q 1616 4750 1894 4750 
Q 2613 4750 3031 4423 
Q 3450 4097 3450 3541 
Q 3450 3153 3228 2886 
Q 3006 2619 2597 2516 
z
" transform="scale(0.015625)"/>
       </defs>
       <use xlink:href="#DejaVuSans-33"/>
       <use xlink:href="#DejaVuSans-30" x="63.623047"/>
       <use xlink:href="#DejaVuSans-30" x="127.246094"/>
      </g>
     </g>
    </g>
    <g id="xtick_5">
     <g id="line2d_13">
      <path d="M 314.871424 253.08 
L 314.871424 3.6 
" clip-path="url(#p15f7963a48)" style="fill: none; stroke: #b0b0b0; stroke-width: 0.5; stroke-linecap: square"/>
     </g>
     <g id="line2d_14">
      <g>
       <use xlink:href="#md7f0543183" x="314.871424" y="253.08" style="stroke: #000000; stroke-width: 0.5"/>
      </g>
     </g>
     <g id="line2d_15">
      <g>
       <use xlink:href="#m887923d3b2" x="314.871424" y="3.6" style="stroke: #000000; stroke-width: 0.5"/>
      </g>
     </g>
     <g id="text_5">
      <!-- 400 -->
      <g transform="translate(303.418924 265.698125) scale(0.12 -0.12)">
       <defs>
        <path id="DejaVuSans-34" d="M 2419 4116 
L 825 1625 
L 2419 1625 
L 2419 4116 
z
M 2253 4666 
L 3047 4666 
L 3047 1625 
L 3713 1625 
L 3713 1100 
L 3047 1100 
L 3047 0 
L 2419 0 
L 2419 1100 
L 313 1100 
L 313 1709 
L 2253 4666 
z
" transform="scale(0.015625)"/>
       </defs>
       <use xlink:href="#DejaVuSans-34"/>
       <use xlink:href="#DejaVuSans-30" x="63.623047"/>
       <use xlink:href="#DejaVuSans-30" x="127.246094"/>
      </g>
     </g>
    </g>
    <g id="xtick_6">
     <g id="line2d_16">
      <path d="M 375.86614 253.08 
L 375.86614 3.6 
" clip-path="url(#p15f7963a48)" style="fill: none; stroke: #b0b0b0; stroke-width: 0.5; stroke-linecap: square"/>
     </g>
     <g id="line2d_17">
      <g>
       <use xlink:href="#md7f0543183" x="375.86614" y="253.08" style="stroke: #000000; stroke-width: 0.5"/>
      </g>
     </g>
     <g id="line2d_18">
      <g>
       <use xlink:href="#m887923d3b2" x="375.86614" y="3.6" style="stroke: #000000; stroke-width: 0.5"/>
      </g>
     </g>
     <g id="text_6">
      <!-- 500 -->
      <g transform="translate(364.41364 265.698125) scale(0.12 -0.12)">
       <defs>
        <path id="DejaVuSans-35" d="M 691 4666 
L 3169 4666 
L 3169 4134 
L 1269 4134 
L 1269 2991 
Q 1406 3038 1543 3061 
Q 1681 3084 1819 3084 
Q 2600 3084 3056 2656 
Q 3513 2228 3513 1497 
Q 3513 744 3044 326 
Q 2575 -91 1722 -91 
Q 1428 -91 1123 -41 
Q 819 9 494 109 
L 494 744 
Q 775 591 1075 516 
Q 1375 441 1709 441 
Q 2250 441 2565 725 
Q 2881 1009 2881 1497 
Q 2881 1984 2565 2268 
Q 2250 2553 1709 2553 
Q 1456 2553 1204 2497 
Q 953 2441 691 2322 
L 691 4666 
z
" transform="scale(0.015625)"/>
       </defs>
       <use xlink:href="#DejaVuSans-35"/>
       <use xlink:href="#DejaVuSans-30" x="63.623047"/>
       <use xlink:href="#DejaVuSans-30" x="127.246094"/>
      </g>
     </g>
    </g>
    <g id="xtick_7">
     <g id="line2d_19">
      <defs>
       <path id="mebaa9f3e60" d="M 0 0 
L 0 -1.5 
" style="stroke: #000000; stroke-width: 0.5"/>
      </defs>
      <g>
       <use xlink:href="#mebaa9f3e60" x="58.693613" y="253.08" style="stroke: #000000; stroke-width: 0.5"/>
      </g>
     </g>
     <g id="line2d_20">
      <defs>
       <path id="mc96bcd478d" d="M 0 0 
L 0 1.5 
" style="stroke: #000000; stroke-width: 0.5"/>
      </defs>
      <g>
       <use xlink:href="#mc96bcd478d" x="58.693613" y="3.6" style="stroke: #000000; stroke-width: 0.5"/>
      </g>
     </g>
    </g>
    <g id="xtick_8">
     <g id="line2d_21">
      <g>
       <use xlink:href="#mebaa9f3e60" x="83.0915" y="253.08" style="stroke: #000000; stroke-width: 0.5"/>
      </g>
     </g>
     <g id="line2d_22">
      <g>
       <use xlink:href="#mc96bcd478d" x="83.0915" y="3.6" style="stroke: #000000; stroke-width: 0.5"/>
      </g>
     </g>
    </g>
    <g id="xtick_9">
     <g id="line2d_23">
      <g>
       <use xlink:href="#mebaa9f3e60" x="95.290444" y="253.08" style="stroke: #000000; stroke-width: 0.5"/>
      </g>
     </g>
     <g id="line2d_24">
      <g>
       <use xlink:href="#mc96bcd478d" x="95.290444" y="3.6" style="stroke: #000000; stroke-width: 0.5"/>
      </g>
     </g>
    </g>
    <g id="xtick_10">
     <g id="line2d_25">
      <g>
       <use xlink:href="#mebaa9f3e60" x="107.489387" y="253.08" style="stroke: #000000; stroke-width: 0.5"/>
      </g>
     </g>
     <g id="line2d_26">
      <g>
       <use xlink:href="#mc96bcd478d" x="107.489387" y="3.6" style="stroke: #000000; stroke-width: 0.5"/>
      </g>
     </g>
    </g>
    <g id="xtick_11">
     <g id="line2d_27">
      <g>
       <use xlink:href="#mebaa9f3e60" x="119.68833" y="253.08" style="stroke: #000000; stroke-width: 0.5"/>
      </g>
     </g>
     <g id="line2d_28">
      <g>
       <use xlink:href="#mc96bcd478d" x="119.68833" y="3.6" style="stroke: #000000; stroke-width: 0.5"/>
      </g>
     </g>
    </g>
    <g id="xtick_12">
     <g id="line2d_29">
      <g>
       <use xlink:href="#mebaa9f3e60" x="144.086217" y="253.08" style="stroke: #000000; stroke-width: 0.5"/>
      </g>
     </g>
     <g id="line2d_30">
      <g>
       <use xlink:href="#mc96bcd478d" x="144.086217" y="3.6" style="stroke: #000000; stroke-width: 0.5"/>
      </g>
     </g>
    </g>
    <g id="xtick_13">
     <g id="line2d_31">
      <g>
       <use xlink:href="#mebaa9f3e60" x="156.28516" y="253.08" style="stroke: #000000; stroke-width: 0.5"/>
      </g>
     </g>
     <g id="line2d_32">
      <g>
       <use xlink:href="#mc96bcd478d" x="156.28516" y="3.6" style="stroke: #000000; stroke-width: 0.5"/>
      </g>
     </g>
    </g>
    <g id="xtick_14">
     <g id="line2d_33">
      <g>
       <use xlink:href="#mebaa9f3e60" x="168.484104" y="253.08" style="stroke: #000000; stroke-width: 0.5"/>
      </g>
     </g>
     <g id="line2d_34">
      <g>
       <use xlink:href="#mc96bcd478d" x="168.484104" y="3.6" style="stroke: #000000; stroke-width: 0.5"/>
      </g>
     </g>
    </g>
    <g id="xtick_15">
     <g id="line2d_35">
      <g>
       <use xlink:href="#mebaa9f3e60" x="180.683047" y="253.08" style="stroke: #000000; stroke-width: 0.5"/>
      </g>
     </g>
     <g id="line2d_36">
      <g>
       <use xlink:href="#mc96bcd478d" x="180.683047" y="3.6" style="stroke: #000000; stroke-width: 0.5"/>
      </g>
     </g>
    </g>
    <g id="xtick_16">
     <g id="line2d_37">
      <g>
       <use xlink:href="#mebaa9f3e60" x="205.080934" y="253.08" style="stroke: #000000; stroke-width: 0.5"/>
      </g>
     </g>
     <g id="line2d_38">
      <g>
       <use xlink:href="#mc96bcd478d" x="205.080934" y="3.6" style="stroke: #000000; stroke-width: 0.5"/>
      </g>
     </g>
    </g>
    <g id="xtick_17">
     <g id="line2d_39">
      <g>
       <use xlink:href="#mebaa9f3e60" x="217.279877" y="253.08" style="stroke: #000000; stroke-width: 0.5"/>
      </g>
     </g>
     <g id="line2d_40">
      <g>
       <use xlink:href="#mc96bcd478d" x="217.279877" y="3.6" style="stroke: #000000; stroke-width: 0.5"/>
      </g>
     </g>
    </g>
    <g id="xtick_18">
     <g id="line2d_41">
      <g>
       <use xlink:href="#mebaa9f3e60" x="229.47882" y="253.08" style="stroke: #000000; stroke-width: 0.5"/>
      </g>
     </g>
     <g id="line2d_42">
      <g>
       <use xlink:href="#mc96bcd478d" x="229.47882" y="3.6" style="stroke: #000000; stroke-width: 0.5"/>
      </g>
     </g>
    </g>
    <g id="xtick_19">
     <g id="line2d_43">
      <g>
       <use xlink:href="#mebaa9f3e60" x="241.677764" y="253.08" style="stroke: #000000; stroke-width: 0.5"/>
      </g>
     </g>
     <g id="line2d_44">
      <g>
       <use xlink:href="#mc96bcd478d" x="241.677764" y="3.6" style="stroke: #000000; stroke-width: 0.5"/>
      </g>
     </g>
    </g>
    <g id="xtick_20">
     <g id="line2d_45">
      <g>
       <use xlink:href="#mebaa9f3e60" x="266.07565" y="253.08" style="stroke: #000000; stroke-width: 0.5"/>
      </g>
     </g>
     <g id="line2d_46">
      <g>
       <use xlink:href="#mc96bcd478d" x="266.07565" y="3.6" style="stroke: #000000; stroke-width: 0.5"/>
      </g>
     </g>
    </g>
    <g id="xtick_21">
     <g id="line2d_47">
      <g>
       <use xlink:href="#mebaa9f3e60" x="278.274594" y="253.08" style="stroke: #000000; stroke-width: 0.5"/>
      </g>
     </g>
     <g id="line2d_48">
      <g>
       <use xlink:href="#mc96bcd478d" x="278.274594" y="3.6" style="stroke: #000000; stroke-width: 0.5"/>
      </g>
     </g>
    </g>
    <g id="xtick_22">
     <g id="line2d_49">
      <g>
       <use xlink:href="#mebaa9f3e60" x="290.473537" y="253.08" style="stroke: #000000; stroke-width: 0.5"/>
      </g>
     </g>
     <g id="line2d_50">
      <g>
       <use xlink:href="#mc96bcd478d" x="290.473537" y="3.6" style="stroke: #000000; stroke-width: 0.5"/>
      </g>
     </g>
    </g>
    <g id="xtick_23">
     <g id="line2d_51">
      <g>
       <use xlink:href="#mebaa9f3e60" x="302.67248" y="253.08" style="stroke: #000000; stroke-width: 0.5"/>
      </g>
     </g>
     <g id="line2d_52">
      <g>
       <use xlink:href="#mc96bcd478d" x="302.67248" y="3.6" style="stroke: #000000; stroke-width: 0.5"/>
      </g>
     </g>
    </g>
    <g id="xtick_24">
     <g id="line2d_53">
      <g>
       <use xlink:href="#mebaa9f3e60" x="327.070367" y="253.08" style="stroke: #000000; stroke-width: 0.5"/>
      </g>
     </g>
     <g id="line2d_54">
      <g>
       <use xlink:href="#mc96bcd478d" x="327.070367" y="3.6" style="stroke: #000000; stroke-width: 0.5"/>
      </g>
     </g>
    </g>
    <g id="xtick_25">
     <g id="line2d_55">
      <g>
       <use xlink:href="#mebaa9f3e60" x="339.26931" y="253.08" style="stroke: #000000; stroke-width: 0.5"/>
      </g>
     </g>
     <g id="line2d_56">
      <g>
       <use xlink:href="#mc96bcd478d" x="339.26931" y="3.6" style="stroke: #000000; stroke-width: 0.5"/>
      </g>
     </g>
    </g>
    <g id="xtick_26">
     <g id="line2d_57">
      <g>
       <use xlink:href="#mebaa9f3e60" x="351.468254" y="253.08" style="stroke: #000000; stroke-width: 0.5"/>
      </g>
     </g>
     <g id="line2d_58">
      <g>
       <use xlink:href="#mc96bcd478d" x="351.468254" y="3.6" style="stroke: #000000; stroke-width: 0.5"/>
      </g>
     </g>
    </g>
    <g id="xtick_27">
     <g id="line2d_59">
      <g>
       <use xlink:href="#mebaa9f3e60" x="363.667197" y="253.08" style="stroke: #000000; stroke-width: 0.5"/>
      </g>
     </g>
     <g id="line2d_60">
      <g>
       <use xlink:href="#mc96bcd478d" x="363.667197" y="3.6" style="stroke: #000000; stroke-width: 0.5"/>
      </g>
     </g>
    </g>
    <g id="xtick_28">
     <g id="line2d_61">
      <g>
       <use xlink:href="#mebaa9f3e60" x="388.065084" y="253.08" style="stroke: #000000; stroke-width: 0.5"/>
      </g>
     </g>
     <g id="line2d_62">
      <g>
       <use xlink:href="#mc96bcd478d" x="388.065084" y="3.6" style="stroke: #000000; stroke-width: 0.5"/>
      </g>
     </g>
    </g>
    <g id="text_7">
     <!-- Generations -->
     <g transform="translate(186.477188 281.311875) scale(0.12 -0.12)">
      <defs>
       <path id="DejaVuSans-47" d="M 3809 666 
L 3809 1919 
L 2778 1919 
L 2778 2438 
L 4434 2438 
L 4434 434 
Q 4069 175 3628 42 
Q 3188 -91 2688 -91 
Q 1594 -91 976 548 
Q 359 1188 359 2328 
Q 359 3472 976 4111 
Q 1594 4750 2688 4750 
Q 3144 4750 3555 4637 
Q 3966 4525 4313 4306 
L 4313 3634 
Q 3963 3931 3569 4081 
Q 3175 4231 2741 4231 
Q 1884 4231 1454 3753 
Q 1025 3275 1025 2328 
Q 1025 1384 1454 906 
Q 1884 428 2741 428 
Q 3075 428 3337 486 
Q 3600 544 3809 666 
z
" transform="scale(0.015625)"/>
       <path id="DejaVuSans-65" d="M 3597 1894 
L 3597 1613 
L 953 1613 
Q 991 1019 1311 708 
Q 1631 397 2203 397 
Q 2534 397 2845 478 
Q 3156 559 3463 722 
L 3463 178 
Q 3153 47 2828 -22 
Q 2503 -91 2169 -91 
Q 1331 -91 842 396 
Q 353 884 353 1716 
Q 353 2575 817 3079 
Q 1281 3584 2069 3584 
Q 2775 3584 3186 3129 
Q 3597 2675 3597 1894 
z
M 3022 2063 
Q 3016 2534 2758 2815 
Q 2500 3097 2075 3097 
Q 1594 3097 1305 2825 
Q 1016 2553 972 2059 
L 3022 2063 
z
" transform="scale(0.015625)"/>
       <path id="DejaVuSans-6e" d="M 3513 2113 
L 3513 0 
L 2938 0 
L 2938 2094 
Q 2938 2591 2744 2837 
Q 2550 3084 2163 3084 
Q 1697 3084 1428 2787 
Q 1159 2491 1159 1978 
L 1159 0 
L 581 0 
L 581 3500 
L 1159 3500 
L 1159 2956 
Q 1366 3272 1645 3428 
Q 1925 3584 2291 3584 
Q 2894 3584 3203 3211 
Q 3513 2838 3513 2113 
z
" transform="scale(0.015625)"/>
       <path id="DejaVuSans-72" d="M 2631 2963 
Q 2534 3019 2420 3045 
Q 2306 3072 2169 3072 
Q 1681 3072 1420 2755 
Q 1159 2438 1159 1844 
L 1159 0 
L 581 0 
L 581 3500 
L 1159 3500 
L 1159 2956 
Q 1341 3275 1631 3429 
Q 1922 3584 2338 3584 
Q 2397 3584 2469 3576 
Q 2541 3569 2628 3553 
L 2631 2963 
z
" transform="scale(0.015625)"/>
       <path id="DejaVuSans-61" d="M 2194 1759 
Q 1497 1759 1228 1600 
Q 959 1441 959 1056 
Q 959 750 1161 570 
Q 1363 391 1709 391 
Q 2188 391 2477 730 
Q 2766 1069 2766 1631 
L 2766 1759 
L 2194 1759 
z
M 3341 1997 
L 3341 0 
L 2766 0 
L 2766 531 
Q 2569 213 2275 61 
Q 1981 -91 1556 -91 
Q 1019 -91 701 211 
Q 384 513 384 1019 
Q 384 1609 779 1909 
Q 1175 2209 1959 2209 
L 2766 2209 
L 2766 2266 
Q 2766 2663 2505 2880 
Q 2244 3097 1772 3097 
Q 1472 3097 1187 3025 
Q 903 2953 641 2809 
L 641 3341 
Q 956 3463 1253 3523 
Q 1550 3584 1831 3584 
Q 2591 3584 2966 3190 
Q 3341 2797 3341 1997 
z
" transform="scale(0.015625)"/>
       <path id="DejaVuSans-74" d="M 1172 4494 
L 1172 3500 
L 2356 3500 
L 2356 3053 
L 1172 3053 
L 1172 1153 
Q 1172 725 1289 603 
Q 1406 481 1766 481 
L 2356 481 
L 2356 0 
L 1766 0 
Q 1100 0 847 248 
Q 594 497 594 1153 
L 594 3053 
L 172 3053 
L 172 3500 
L 594 3500 
L 594 4494 
L 1172 4494 
z
" transform="scale(0.015625)"/>
       <path id="DejaVuSans-69" d="M 603 3500 
L 1178 3500 
L 1178 0 
L 603 0 
L 603 3500 
z
M 603 4863 
L 1178 4863 
L 1178 4134 
L 603 4134 
L 603 4863 
z
" transform="scale(0.015625)"/>
       <path id="DejaVuSans-6f" d="M 1959 3097 
Q 1497 3097 1228 2736 
Q 959 2375 959 1747 
Q 959 1119 1226 758 
Q 1494 397 1959 397 
Q 2419 397 2687 759 
Q 2956 1122 2956 1747 
Q 2956 2369 2687 2733 
Q 2419 3097 1959 3097 
z
M 1959 3584 
Q 2709 3584 3137 3096 
Q 3566 2609 3566 1747 
Q 3566 888 3137 398 
Q 2709 -91 1959 -91 
Q 1206 -91 779 398 
Q 353 888 353 1747 
Q 353 2609 779 3096 
Q 1206 3584 1959 3584 
z
" transform="scale(0.015625)"/>
       <path id="DejaVuSans-73" d="M 2834 3397 
L 2834 2853 
Q 2591 2978 2328 3040 
Q 2066 3103 1784 3103 
Q 1356 3103 1142 2972 
Q 928 2841 928 2578 
Q 928 2378 1081 2264 
Q 1234 2150 1697 2047 
L 1894 2003 
Q 2506 1872 2764 1633 
Q 3022 1394 3022 966 
Q 3022 478 2636 193 
Q 2250 -91 1575 -91 
Q 1294 -91 989 -36 
Q 684 19 347 128 
L 347 722 
Q 666 556 975 473 
Q 1284 391 1588 391 
Q 1994 391 2212 530 
Q 2431 669 2431 922 
Q 2431 1156 2273 1281 
Q 2116 1406 1581 1522 
L 1381 1569 
Q 847 1681 609 1914 
Q 372 2147 372 2553 
Q 372 3047 722 3315 
Q 1072 3584 1716 3584 
Q 2034 3584 2315 3537 
Q 2597 3491 2834 3397 
z
" transform="scale(0.015625)"/>
      </defs>
      <use xlink:href="#DejaVuSans-47"/>
      <use xlink:href="#DejaVuSans-65" x="77.490234"/>
      <use xlink:href="#DejaVuSans-6e" x="139.013672"/>
      <use xlink:href="#DejaVuSans-65" x="202.392578"/>
      <use xlink:href="#DejaVuSans-72" x="263.916016"/>
      <use xlink:href="#DejaVuSans-61" x="305.029297"/>
      <use xlink:href="#DejaVuSans-74" x="366.308594"/>
      <use xlink:href="#DejaVuSans-69" x="405.517578"/>
      <use xlink:href="#DejaVuSans-6f" x="433.300781"/>
      <use xlink:href="#DejaVuSans-6e" x="494.482422"/>
      <use xlink:href="#DejaVuSans-73" x="557.861328"/>
     </g>
    </g>
   </g>
   <g id="matplotlib.axis_2">
    <g id="ytick_1">
     <g id="line2d_63">
      <path d="M 55.674375 235.135995 
L 390.474375 235.135995 
" clip-path="url(#p15f7963a48)" style="fill: none; stroke: #b0b0b0; stroke-width: 0.5; stroke-linecap: square"/>
     </g>
     <g id="line2d_64">
      <defs>
       <path id="m4c1381a15b" d="M 0 0 
L 3 0 
" style="stroke: #000000; stroke-width: 0.5"/>
      </defs>
      <g>
       <use xlink:href="#m4c1381a15b" x="55.674375" y="235.135995" style="stroke: #000000; stroke-width: 0.5"/>
      </g>
     </g>
     <g id="line2d_65">
      <defs>
       <path id="mc9ba19f13c" d="M 0 0 
L -3 0 
" style="stroke: #000000; stroke-width: 0.5"/>
      </defs>
      <g>
       <use xlink:href="#mc9ba19f13c" x="390.474375" y="235.135995" style="stroke: #000000; stroke-width: 0.5"/>
      </g>
     </g>
     <g id="text_8">
      <!-- −600 -->
      <g transform="translate(19.21375 239.695058) scale(0.12 -0.12)">
       <defs>
        <path id="DejaVuSans-2212" d="M 678 2272 
L 4684 2272 
L 4684 1741 
L 678 1741 
L 678 2272 
z
" transform="scale(0.015625)"/>
        <path id="DejaVuSans-36" d="M 2113 2584 
Q 1688 2584 1439 2293 
Q 1191 2003 1191 1497 
Q 1191 994 1439 701 
Q 1688 409 2113 409 
Q 2538 409 2786 701 
Q 3034 994 3034 1497 
Q 3034 2003 2786 2293 
Q 2538 2584 2113 2584 
z
M 3366 4563 
L 3366 3988 
Q 3128 4100 2886 4159 
Q 2644 4219 2406 4219 
Q 1781 4219 1451 3797 
Q 1122 3375 1075 2522 
Q 1259 2794 1537 2939 
Q 1816 3084 2150 3084 
Q 2853 3084 3261 2657 
Q 3669 2231 3669 1497 
Q 3669 778 3244 343 
Q 2819 -91 2113 -91 
Q 1303 -91 875 529 
Q 447 1150 447 2328 
Q 447 3434 972 4092 
Q 1497 4750 2381 4750 
Q 2619 4750 2861 4703 
Q 3103 4656 3366 4563 
z
" transform="scale(0.015625)"/>
       </defs>
       <use xlink:href="#DejaVuSans-2212"/>
       <use xlink:href="#DejaVuSans-36" x="83.789062"/>
       <use xlink:href="#DejaVuSans-30" x="147.412109"/>
       <use xlink:href="#DejaVuSans-30" x="211.035156"/>
      </g>
     </g>
    </g>
    <g id="ytick_2">
     <g id="line2d_66">
      <path d="M 55.674375 199.860164 
L 390.474375 199.860164 
" clip-path="url(#p15f7963a48)" style="fill: none; stroke: #b0b0b0; stroke-width: 0.5; stroke-linecap: square"/>
     </g>
     <g id="line2d_67">
      <g>
       <use xlink:href="#m4c1381a15b" x="55.674375" y="199.860164" style="stroke: #000000; stroke-width: 0.5"/>
      </g>
     </g>
     <g id="line2d_68">
      <g>
       <use xlink:href="#mc9ba19f13c" x="390.474375" y="199.860164" style="stroke: #000000; stroke-width: 0.5"/>
      </g>
     </g>
     <g id="text_9">
      <!-- −500 -->
      <g transform="translate(19.21375 204.419227) scale(0.12 -0.12)">
       <use xlink:href="#DejaVuSans-2212"/>
       <use xlink:href="#DejaVuSans-35" x="83.789062"/>
       <use xlink:href="#DejaVuSans-30" x="147.412109"/>
       <use xlink:href="#DejaVuSans-30" x="211.035156"/>
      </g>
     </g>
    </g>
    <g id="ytick_3">
     <g id="line2d_69">
      <path d="M 55.674375 164.584333 
L 390.474375 164.584333 
" clip-path="url(#p15f7963a48)" style="fill: none; stroke: #b0b0b0; stroke-width: 0.5; stroke-linecap: square"/>
     </g>
     <g id="line2d_70">
      <g>
       <use xlink:href="#m4c1381a15b" x="55.674375" y="164.584333" style="stroke: #000000; stroke-width: 0.5"/>
      </g>
     </g>
     <g id="line2d_71">
      <g>
       <use xlink:href="#mc9ba19f13c" x="390.474375" y="164.584333" style="stroke: #000000; stroke-width: 0.5"/>
      </g>
     </g>
     <g id="text_10">
      <!-- −400 -->
      <g transform="translate(19.21375 169.143395) scale(0.12 -0.12)">
       <use xlink:href="#DejaVuSans-2212"/>
       <use xlink:href="#DejaVuSans-34" x="83.789062"/>
       <use xlink:href="#DejaVuSans-30" x="147.412109"/>
       <use xlink:href="#DejaVuSans-30" x="211.035156"/>
      </g>
     </g>
    </g>
    <g id="ytick_4">
     <g id="line2d_72">
      <path d="M 55.674375 129.308502 
L 390.474375 129.308502 
" clip-path="url(#p15f7963a48)" style="fill: none; stroke: #b0b0b0; stroke-width: 0.5; stroke-linecap: square"/>
     </g>
     <g id="line2d_73">
      <g>
       <use xlink:href="#m4c1381a15b" x="55.674375" y="129.308502" style="stroke: #000000; stroke-width: 0.5"/>
      </g>
     </g>
     <g id="line2d_74">
      <g>
       <use xlink:href="#mc9ba19f13c" x="390.474375" y="129.308502" style="stroke: #000000; stroke-width: 0.5"/>
      </g>
     </g>
     <g id="text_11">
      <!-- −300 -->
      <g transform="translate(19.21375 133.867564) scale(0.12 -0.12)">
       <use xlink:href="#DejaVuSans-2212"/>
       <use xlink:href="#DejaVuSans-33" x="83.789062"/>
       <use xlink:href="#DejaVuSans-30" x="147.412109"/>
       <use xlink:href="#DejaVuSans-30" x="211.035156"/>
      </g>
     </g>
    </g>
    <g id="ytick_5">
     <g id="line2d_75">
      <path d="M 55.674375 94.03267 
L 390.474375 94.03267 
" clip-path="url(#p15f7963a48)" style="fill: none; stroke: #b0b0b0; stroke-width: 0.5; stroke-linecap: square"/>
     </g>
     <g id="line2d_76">
      <g>
       <use xlink:href="#m4c1381a15b" x="55.674375" y="94.03267" style="stroke: #000000; stroke-width: 0.5"/>
      </g>
     </g>
     <g id="line2d_77">
      <g>
       <use xlink:href="#mc9ba19f13c" x="390.474375" y="94.03267" style="stroke: #000000; stroke-width: 0.5"/>
      </g>
     </g>
     <g id="text_12">
      <!-- −200 -->
      <g transform="translate(19.21375 98.591733) scale(0.12 -0.12)">
       <use xlink:href="#DejaVuSans-2212"/>
       <use xlink:href="#DejaVuSans-32" x="83.789062"/>
       <use xlink:href="#DejaVuSans-30" x="147.412109"/>
       <use xlink:href="#DejaVuSans-30" x="211.035156"/>
      </g>
     </g>
    </g>
    <g id="ytick_6">
     <g id="line2d_78">
      <path d="M 55.674375 58.756839 
L 390.474375 58.756839 
" clip-path="url(#p15f7963a48)" style="fill: none; stroke: #b0b0b0; stroke-width: 0.5; stroke-linecap: square"/>
     </g>
     <g id="line2d_79">
      <g>
       <use xlink:href="#m4c1381a15b" x="55.674375" y="58.756839" style="stroke: #000000; stroke-width: 0.5"/>
      </g>
     </g>
     <g id="line2d_80">
      <g>
       <use xlink:href="#mc9ba19f13c" x="390.474375" y="58.756839" style="stroke: #000000; stroke-width: 0.5"/>
      </g>
     </g>
     <g id="text_13">
      <!-- −100 -->
      <g transform="translate(19.21375 63.315902) scale(0.12 -0.12)">
       <use xlink:href="#DejaVuSans-2212"/>
       <use xlink:href="#DejaVuSans-31" x="83.789062"/>
       <use xlink:href="#DejaVuSans-30" x="147.412109"/>
       <use xlink:href="#DejaVuSans-30" x="211.035156"/>
      </g>
     </g>
    </g>
    <g id="ytick_7">
     <g id="line2d_81">
      <path d="M 55.674375 23.481008 
L 390.474375 23.481008 
" clip-path="url(#p15f7963a48)" style="fill: none; stroke: #b0b0b0; stroke-width: 0.5; stroke-linecap: square"/>
     </g>
     <g id="line2d_82">
      <g>
       <use xlink:href="#m4c1381a15b" x="55.674375" y="23.481008" style="stroke: #000000; stroke-width: 0.5"/>
      </g>
     </g>
     <g id="line2d_83">
      <g>
       <use xlink:href="#mc9ba19f13c" x="390.474375" y="23.481008" style="stroke: #000000; stroke-width: 0.5"/>
      </g>
     </g>
     <g id="text_14">
      <!-- 0 -->
      <g transform="translate(44.539375 28.040071) scale(0.12 -0.12)">
       <use xlink:href="#DejaVuSans-30"/>
      </g>
     </g>
    </g>
    <g id="ytick_8">
     <g id="line2d_84">
      <defs>
       <path id="m42e1790d68" d="M 0 0 
L 1.5 0 
" style="stroke: #000000; stroke-width: 0.5"/>
      </defs>
      <g>
       <use xlink:href="#m42e1790d68" x="55.674375" y="249.246328" style="stroke: #000000; stroke-width: 0.5"/>
      </g>
     </g>
     <g id="line2d_85">
      <defs>
       <path id="m1c2afb6875" d="M 0 0 
L -1.5 0 
" style="stroke: #000000; stroke-width: 0.5"/>
      </defs>
      <g>
       <use xlink:href="#m1c2afb6875" x="390.474375" y="249.246328" style="stroke: #000000; stroke-width: 0.5"/>
      </g>
     </g>
    </g>
    <g id="ytick_9">
     <g id="line2d_86">
      <g>
       <use xlink:href="#m42e1790d68" x="55.674375" y="242.191161" style="stroke: #000000; stroke-width: 0.5"/>
      </g>
     </g>
     <g id="line2d_87">
      <g>
       <use xlink:href="#m1c2afb6875" x="390.474375" y="242.191161" style="stroke: #000000; stroke-width: 0.5"/>
      </g>
     </g>
    </g>
    <g id="ytick_10">
     <g id="line2d_88">
      <g>
       <use xlink:href="#m42e1790d68" x="55.674375" y="228.080829" style="stroke: #000000; stroke-width: 0.5"/>
      </g>
     </g>
     <g id="line2d_89">
      <g>
       <use xlink:href="#m1c2afb6875" x="390.474375" y="228.080829" style="stroke: #000000; stroke-width: 0.5"/>
      </g>
     </g>
    </g>
    <g id="ytick_11">
     <g id="line2d_90">
      <g>
       <use xlink:href="#m42e1790d68" x="55.674375" y="221.025663" style="stroke: #000000; stroke-width: 0.5"/>
      </g>
     </g>
     <g id="line2d_91">
      <g>
       <use xlink:href="#m1c2afb6875" x="390.474375" y="221.025663" style="stroke: #000000; stroke-width: 0.5"/>
      </g>
     </g>
    </g>
    <g id="ytick_12">
     <g id="line2d_92">
      <g>
       <use xlink:href="#m42e1790d68" x="55.674375" y="213.970496" style="stroke: #000000; stroke-width: 0.5"/>
      </g>
     </g>
     <g id="line2d_93">
      <g>
       <use xlink:href="#m1c2afb6875" x="390.474375" y="213.970496" style="stroke: #000000; stroke-width: 0.5"/>
      </g>
     </g>
    </g>
    <g id="ytick_13">
     <g id="line2d_94">
      <g>
       <use xlink:href="#m42e1790d68" x="55.674375" y="206.91533" style="stroke: #000000; stroke-width: 0.5"/>
      </g>
     </g>
     <g id="line2d_95">
      <g>
       <use xlink:href="#m1c2afb6875" x="390.474375" y="206.91533" style="stroke: #000000; stroke-width: 0.5"/>
      </g>
     </g>
    </g>
    <g id="ytick_14">
     <g id="line2d_96">
      <g>
       <use xlink:href="#m42e1790d68" x="55.674375" y="192.804998" style="stroke: #000000; stroke-width: 0.5"/>
      </g>
     </g>
     <g id="line2d_97">
      <g>
       <use xlink:href="#m1c2afb6875" x="390.474375" y="192.804998" style="stroke: #000000; stroke-width: 0.5"/>
      </g>
     </g>
    </g>
    <g id="ytick_15">
     <g id="line2d_98">
      <g>
       <use xlink:href="#m42e1790d68" x="55.674375" y="185.749832" style="stroke: #000000; stroke-width: 0.5"/>
      </g>
     </g>
     <g id="line2d_99">
      <g>
       <use xlink:href="#m1c2afb6875" x="390.474375" y="185.749832" style="stroke: #000000; stroke-width: 0.5"/>
      </g>
     </g>
    </g>
    <g id="ytick_16">
     <g id="line2d_100">
      <g>
       <use xlink:href="#m42e1790d68" x="55.674375" y="178.694665" style="stroke: #000000; stroke-width: 0.5"/>
      </g>
     </g>
     <g id="line2d_101">
      <g>
       <use xlink:href="#m1c2afb6875" x="390.474375" y="178.694665" style="stroke: #000000; stroke-width: 0.5"/>
      </g>
     </g>
    </g>
    <g id="ytick_17">
     <g id="line2d_102">
      <g>
       <use xlink:href="#m42e1790d68" x="55.674375" y="171.639499" style="stroke: #000000; stroke-width: 0.5"/>
      </g>
     </g>
     <g id="line2d_103">
      <g>
       <use xlink:href="#m1c2afb6875" x="390.474375" y="171.639499" style="stroke: #000000; stroke-width: 0.5"/>
      </g>
     </g>
    </g>
    <g id="ytick_18">
     <g id="line2d_104">
      <g>
       <use xlink:href="#m42e1790d68" x="55.674375" y="157.529167" style="stroke: #000000; stroke-width: 0.5"/>
      </g>
     </g>
     <g id="line2d_105">
      <g>
       <use xlink:href="#m1c2afb6875" x="390.474375" y="157.529167" style="stroke: #000000; stroke-width: 0.5"/>
      </g>
     </g>
    </g>
    <g id="ytick_19">
     <g id="line2d_106">
      <g>
       <use xlink:href="#m42e1790d68" x="55.674375" y="150.474" style="stroke: #000000; stroke-width: 0.5"/>
      </g>
     </g>
     <g id="line2d_107">
      <g>
       <use xlink:href="#m1c2afb6875" x="390.474375" y="150.474" style="stroke: #000000; stroke-width: 0.5"/>
      </g>
     </g>
    </g>
    <g id="ytick_20">
     <g id="line2d_108">
      <g>
       <use xlink:href="#m42e1790d68" x="55.674375" y="143.418834" style="stroke: #000000; stroke-width: 0.5"/>
      </g>
     </g>
     <g id="line2d_109">
      <g>
       <use xlink:href="#m1c2afb6875" x="390.474375" y="143.418834" style="stroke: #000000; stroke-width: 0.5"/>
      </g>
     </g>
    </g>
    <g id="ytick_21">
     <g id="line2d_110">
      <g>
       <use xlink:href="#m42e1790d68" x="55.674375" y="136.363668" style="stroke: #000000; stroke-width: 0.5"/>
      </g>
     </g>
     <g id="line2d_111">
      <g>
       <use xlink:href="#m1c2afb6875" x="390.474375" y="136.363668" style="stroke: #000000; stroke-width: 0.5"/>
      </g>
     </g>
    </g>
    <g id="ytick_22">
     <g id="line2d_112">
      <g>
       <use xlink:href="#m42e1790d68" x="55.674375" y="122.253335" style="stroke: #000000; stroke-width: 0.5"/>
      </g>
     </g>
     <g id="line2d_113">
      <g>
       <use xlink:href="#m1c2afb6875" x="390.474375" y="122.253335" style="stroke: #000000; stroke-width: 0.5"/>
      </g>
     </g>
    </g>
    <g id="ytick_23">
     <g id="line2d_114">
      <g>
       <use xlink:href="#m42e1790d68" x="55.674375" y="115.198169" style="stroke: #000000; stroke-width: 0.5"/>
      </g>
     </g>
     <g id="line2d_115">
      <g>
       <use xlink:href="#m1c2afb6875" x="390.474375" y="115.198169" style="stroke: #000000; stroke-width: 0.5"/>
      </g>
     </g>
    </g>
    <g id="ytick_24">
     <g id="line2d_116">
      <g>
       <use xlink:href="#m42e1790d68" x="55.674375" y="108.143003" style="stroke: #000000; stroke-width: 0.5"/>
      </g>
     </g>
     <g id="line2d_117">
      <g>
       <use xlink:href="#m1c2afb6875" x="390.474375" y="108.143003" style="stroke: #000000; stroke-width: 0.5"/>
      </g>
     </g>
    </g>
    <g id="ytick_25">
     <g id="line2d_118">
      <g>
       <use xlink:href="#m42e1790d68" x="55.674375" y="101.087837" style="stroke: #000000; stroke-width: 0.5"/>
      </g>
     </g>
     <g id="line2d_119">
      <g>
       <use xlink:href="#m1c2afb6875" x="390.474375" y="101.087837" style="stroke: #000000; stroke-width: 0.5"/>
      </g>
     </g>
    </g>
    <g id="ytick_26">
     <g id="line2d_120">
      <g>
       <use xlink:href="#m42e1790d68" x="55.674375" y="86.977504" style="stroke: #000000; stroke-width: 0.5"/>
      </g>
     </g>
     <g id="line2d_121">
      <g>
       <use xlink:href="#m1c2afb6875" x="390.474375" y="86.977504" style="stroke: #000000; stroke-width: 0.5"/>
      </g>
     </g>
    </g>
    <g id="ytick_27">
     <g id="line2d_122">
      <g>
       <use xlink:href="#m42e1790d68" x="55.674375" y="79.922338" style="stroke: #000000; stroke-width: 0.5"/>
      </g>
     </g>
     <g id="line2d_123">
      <g>
       <use xlink:href="#m1c2afb6875" x="390.474375" y="79.922338" style="stroke: #000000; stroke-width: 0.5"/>
      </g>
     </g>
    </g>
    <g id="ytick_28">
     <g id="line2d_124">
      <g>
       <use xlink:href="#m42e1790d68" x="55.674375" y="72.867172" style="stroke: #000000; stroke-width: 0.5"/>
      </g>
     </g>
     <g id="line2d_125">
      <g>
       <use xlink:href="#m1c2afb6875" x="390.474375" y="72.867172" style="stroke: #000000; stroke-width: 0.5"/>
      </g>
     </g>
    </g>
    <g id="ytick_29">
     <g id="line2d_126">
      <g>
       <use xlink:href="#m42e1790d68" x="55.674375" y="65.812006" style="stroke: #000000; stroke-width: 0.5"/>
      </g>
     </g>
     <g id="line2d_127">
      <g>
       <use xlink:href="#m1c2afb6875" x="390.474375" y="65.812006" style="stroke: #000000; stroke-width: 0.5"/>
      </g>
     </g>
    </g>
    <g id="ytick_30">
     <g id="line2d_128">
      <g>
       <use xlink:href="#m42e1790d68" x="55.674375" y="51.701673" style="stroke: #000000; stroke-width: 0.5"/>
      </g>
     </g>
     <g id="line2d_129">
      <g>
       <use xlink:href="#m1c2afb6875" x="390.474375" y="51.701673" style="stroke: #000000; stroke-width: 0.5"/>
      </g>
     </g>
    </g>
    <g id="ytick_31">
     <g id="line2d_130">
      <g>
       <use xlink:href="#m42e1790d68" x="55.674375" y="44.646507" style="stroke: #000000; stroke-width: 0.5"/>
      </g>
     </g>
     <g id="line2d_131">
      <g>
       <use xlink:href="#m1c2afb6875" x="390.474375" y="44.646507" style="stroke: #000000; stroke-width: 0.5"/>
      </g>
     </g>
    </g>
    <g id="ytick_32">
     <g id="line2d_132">
      <g>
       <use xlink:href="#m42e1790d68" x="55.674375" y="37.591341" style="stroke: #000000; stroke-width: 0.5"/>
      </g>
     </g>
     <g id="line2d_133">
      <g>
       <use xlink:href="#m1c2afb6875" x="390.474375" y="37.591341" style="stroke: #000000; stroke-width: 0.5"/>
      </g>
     </g>
    </g>
    <g id="ytick_33">
     <g id="line2d_134">
      <g>
       <use xlink:href="#m42e1790d68" x="55.674375" y="30.536174" style="stroke: #000000; stroke-width: 0.5"/>
      </g>
     </g>
     <g id="line2d_135">
      <g>
       <use xlink:href="#m1c2afb6875" x="390.474375" y="30.536174" style="stroke: #000000; stroke-width: 0.5"/>
      </g>
     </g>
    </g>
    <g id="ytick_34">
     <g id="line2d_136">
      <g>
       <use xlink:href="#m42e1790d68" x="55.674375" y="16.425842" style="stroke: #000000; stroke-width: 0.5"/>
      </g>
     </g>
     <g id="line2d_137">
      <g>
       <use xlink:href="#m1c2afb6875" x="390.474375" y="16.425842" style="stroke: #000000; stroke-width: 0.5"/>
      </g>
     </g>
    </g>
    <g id="ytick_35">
     <g id="line2d_138">
      <g>
       <use xlink:href="#m42e1790d68" x="55.674375" y="9.370676" style="stroke: #000000; stroke-width: 0.5"/>
      </g>
     </g>
     <g id="line2d_139">
      <g>
       <use xlink:href="#m1c2afb6875" x="390.474375" y="9.370676" style="stroke: #000000; stroke-width: 0.5"/>
      </g>
     </g>
    </g>
    <g id="text_15">
     <!-- Fitness -->
     <g transform="translate(12.718125 149.120625) rotate(-90) scale(0.12 -0.12)">
      <defs>
       <path id="DejaVuSans-46" d="M 628 4666 
L 3309 4666 
L 3309 4134 
L 1259 4134 
L 1259 2759 
L 3109 2759 
L 3109 2228 
L 1259 2228 
L 1259 0 
L 628 0 
L 628 4666 
z
" transform="scale(0.015625)"/>
      </defs>
      <use xlink:href="#DejaVuSans-46"/>
      <use xlink:href="#DejaVuSans-69" x="50.269531"/>
      <use xlink:href="#DejaVuSans-74" x="78.052734"/>
      <use xlink:href="#DejaVuSans-6e" x="117.261719"/>
      <use xlink:href="#DejaVuSans-65" x="180.640625"/>
      <use xlink:href="#DejaVuSans-73" x="242.164062"/>
      <use xlink:href="#DejaVuSans-73" x="294.263672"/>
     </g>
    </g>
   </g>
   <g id="line2d_140">
    <path d="M 70.892557 17.899562 
L 74.55224 17.80097 
L 75.162187 16.889487 
L 76.992028 16.88948 
L 77.601976 16.322504 
L 81.261659 16.322505 
L 81.871606 16.049581 
L 86.751183 16.049578 
L 87.36113 15.92288 
L 87.971077 15.594192 
L 92.850655 15.59419 
L 93.460602 15.411283 
L 98.340179 15.309283 
L 98.950127 15.133299 
L 131.887274 15.030612 
L 133.717115 14.988757 
L 375.256193 14.940003 
L 375.256193 14.940003 
" clip-path="url(#p15f7963a48)" style="fill: none; stroke: #000000; stroke-linecap: square"/>
   </g>
   <g id="line2d_141">
    <path d="M 70.892557 38.321542 
L 71.502504 32.464601 
L 72.112451 30.396004 
L 72.722398 39.406933 
L 73.332345 30.047275 
L 73.942293 28.160249 
L 74.55224 36.225045 
L 75.162187 42.397261 
L 75.772134 99.352727 
L 76.382081 31.271455 
L 76.992028 27.20368 
L 77.601976 26.927171 
L 78.211923 27.921706 
L 78.82187 27.455666 
L 79.431817 29.025253 
L 80.041764 45.737994 
L 80.651711 28.340871 
L 81.261659 33.263262 
L 81.871606 29.110507 
L 82.481553 26.717824 
L 83.0915 36.720304 
L 83.701447 28.204297 
L 84.921342 26.022955 
L 85.531289 25.29446 
L 86.141236 25.374516 
L 86.751183 25.736152 
L 87.36113 23.949277 
L 87.971077 23.76092 
L 88.581025 23.253543 
L 89.190972 27.143374 
L 89.800919 29.770115 
L 90.410866 22.163883 
L 91.020813 21.094288 
L 91.63076 20.698567 
L 92.240708 20.580826 
L 92.850655 19.865745 
L 93.460602 18.689003 
L 94.680496 18.435981 
L 95.290444 17.580369 
L 96.510338 17.020361 
L 97.120285 16.5822 
L 97.730232 16.597512 
L 98.340179 17.000993 
L 98.950127 16.874669 
L 99.560074 17.037783 
L 100.779968 16.408504 
L 101.999862 16.270613 
L 102.60981 16.180405 
L 103.219757 16.251587 
L 103.829704 16.476262 
L 104.439651 16.221924 
L 105.049598 16.102482 
L 105.659545 16.289574 
L 108.099334 16.217128 
L 108.709281 16.70552 
L 109.319228 16.272269 
L 110.539123 16.473459 
L 111.14907 16.106854 
L 111.759017 16.192754 
L 112.368964 16.455562 
L 112.978911 16.330772 
L 113.588859 15.98091 
L 114.198806 15.958041 
L 115.4187 16.102485 
L 116.638594 15.75125 
L 117.248542 15.93897 
L 119.078383 15.695768 
L 122.128119 15.645449 
L 122.738066 19.754251 
L 123.348013 16.076087 
L 123.95796 15.818485 
L 126.397749 15.485183 
L 128.837538 15.403262 
L 131.277326 15.585842 
L 131.887274 15.436497 
L 132.497221 16.248432 
L 133.107168 15.707485 
L 133.717115 15.806082 
L 134.327062 15.707567 
L 134.937009 15.774558 
L 135.546957 15.636855 
L 136.766851 15.918429 
L 137.986745 15.516589 
L 140.426534 15.596732 
L 141.646428 15.507732 
L 143.47627 15.60898 
L 144.086217 15.486284 
L 146.526006 15.70142 
L 147.7459 15.5638 
L 156.28516 15.351856 
L 156.895107 15.539701 
L 158.724949 15.58309 
L 159.334896 15.349816 
L 161.774685 15.403373 
L 162.384632 15.576327 
L 162.994579 15.459603 
L 165.434368 15.687887 
L 166.044315 15.862739 
L 167.264209 15.599286 
L 169.094051 15.398444 
L 170.313945 15.497371 
L 170.923892 15.386439 
L 171.533839 15.704317 
L 172.143787 15.504509 
L 173.973628 15.447775 
L 174.583575 15.358704 
L 175.193522 15.497117 
L 175.80347 15.34397 
L 178.853205 15.417476 
L 179.463153 15.291866 
L 180.0731 15.350598 
L 180.683047 15.602668 
L 181.292994 15.422943 
L 181.902941 15.529673 
L 183.122836 15.488324 
L 184.952677 15.398463 
L 187.392466 15.520945 
L 188.002413 15.395106 
L 188.61236 15.670528 
L 189.832254 15.319415 
L 190.442202 15.419191 
L 191.662096 15.33481 
L 192.272043 15.488091 
L 194.711832 15.533967 
L 195.321779 15.317861 
L 195.931726 15.469406 
L 196.541673 15.353983 
L 197.15162 15.44225 
L 200.201356 15.388976 
L 202.641145 15.670718 
L 203.251092 15.392702 
L 206.300828 15.479958 
L 208.130669 15.352192 
L 209.350564 15.457846 
L 209.960511 15.290746 
L 210.570458 15.350732 
L 211.180405 15.232806 
L 211.790352 15.496616 
L 212.4003 15.300846 
L 213.010247 15.596816 
L 213.620194 15.367704 
L 214.230141 15.263277 
L 219.719666 15.30453 
L 220.93956 15.13576 
L 222.769401 15.305509 
L 225.20919 15.284939 
L 226.429084 15.241416 
L 228.868873 15.328704 
L 229.47882 15.488557 
L 232.528556 15.47534 
L 233.138503 15.554763 
L 233.74845 15.33093 
L 235.578292 15.330995 
L 236.188239 15.451917 
L 238.018081 15.399963 
L 238.628028 15.591048 
L 240.457869 15.423976 
L 248.99713 15.188405 
L 249.607077 15.334701 
L 250.217024 15.348644 
L 250.826971 15.492704 
L 253.26676 15.304004 
L 256.926443 15.204417 
L 258.146337 15.245685 
L 263.635862 15.241584 
L 265.465703 15.179286 
L 266.685597 15.098997 
L 267.295545 15.143227 
L 267.905492 15.321458 
L 268.515439 15.241072 
L 270.955228 15.33281 
L 272.175122 15.338719 
L 272.785069 15.331152 
L 273.395016 15.435867 
L 276.444752 15.304724 
L 278.274594 15.371116 
L 281.324329 15.166715 
L 281.934277 15.188199 
L 282.544224 15.340019 
L 283.764118 15.259982 
L 284.374065 15.540818 
L 284.984012 15.418221 
L 286.203907 15.439189 
L 287.423801 15.320627 
L 288.033748 15.505629 
L 290.473537 15.207467 
L 291.083484 15.314034 
L 292.303378 15.193544 
L 292.913326 15.302277 
L 294.13322 15.243212 
L 294.743167 15.238873 
L 295.353114 15.378943 
L 297.792903 15.241056 
L 304.502322 15.295437 
L 305.112269 15.357732 
L 305.722216 15.284921 
L 306.332163 15.416309 
L 309.381899 15.411547 
L 309.991846 15.33387 
L 311.211741 15.517438 
L 311.821688 15.49805 
L 313.041582 15.25361 
L 314.261476 15.192495 
L 314.871424 15.202438 
L 315.481371 15.467722 
L 316.091318 15.30819 
L 317.311212 15.478679 
L 317.921159 15.288495 
L 319.751001 15.333243 
L 323.410684 15.349204 
L 324.020631 15.147914 
L 324.630578 15.188259 
L 325.240525 241.74 
L 325.850473 15.291351 
L 327.680314 15.266174 
L 329.510156 15.31608 
L 331.339997 15.134246 
L 333.169839 15.173392 
L 334.389733 15.160421 
L 335.609627 15.231678 
L 336.219574 15.192818 
L 336.829522 15.725803 
L 337.439469 15.26917 
L 339.879257 15.181049 
L 340.489205 15.274755 
L 341.099152 15.191017 
L 341.709099 15.427275 
L 342.319046 15.377929 
L 342.928993 15.449797 
L 344.148888 15.410692 
L 344.758835 15.626926 
L 345.368782 15.446192 
L 347.808571 15.401696 
L 348.418518 15.242141 
L 349.028465 15.215227 
L 349.638412 15.46694 
L 350.248359 15.486457 
L 351.468254 15.37901 
L 353.908042 15.315965 
L 354.51799 15.424805 
L 355.737884 15.274349 
L 356.957778 15.197855 
L 358.177673 15.20859 
L 359.397567 15.315122 
L 363.667197 15.293701 
L 364.887091 15.319808 
L 371.59651 15.276169 
L 372.206457 15.392527 
L 374.036299 15.163899 
L 375.256193 15.301269 
L 375.256193 15.301269 
" clip-path="url(#p15f7963a48)" style="fill: none; stroke-dasharray: 3.7,1.6; stroke-dashoffset: 0; stroke: #000000"/>
   </g>
   <g id="patch_3">
    <path d="M 55.674375 253.08 
L 55.674375 3.6 
" style="fill: none; stroke: #000000; stroke-width: 0.5; stroke-linejoin: miter; stroke-linecap: square"/>
   </g>
   <g id="patch_4">
    <path d="M 390.474375 253.08 
L 390.474375 3.6 
" style="fill: none; stroke: #000000; stroke-width: 0.5; stroke-linejoin: miter; stroke-linecap: square"/>
   </g>
   <g id="patch_5">
    <path d="M 55.674375 253.08 
L 390.474375 253.08 
" style="fill: none; stroke: #000000; stroke-width: 0.5; stroke-linejoin: miter; stroke-linecap: square"/>
   </g>
   <g id="patch_6">
    <path d="M 55.674375 3.6 
L 390.474375 3.6 
" style="fill: none; stroke: #000000; stroke-width: 0.5; stroke-linejoin: miter; stroke-linecap: square"/>
   </g>
   <g id="legend_1">
    <g id="patch_7">
     <path d="M 64.074375 247.08 
L 181.880625 247.08 
Q 184.280625 247.08 184.280625 244.68 
L 184.280625 193.03875 
Q 184.280625 190.63875 181.880625 190.63875 
L 64.074375 190.63875 
Q 61.674375 190.63875 61.674375 193.03875 
L 61.674375 244.68 
Q 61.674375 247.08 64.074375 247.08 
z
" style="fill: #ffffff; opacity: 0.8; stroke: #cccccc; stroke-linejoin: miter"/>
    </g>
    <g id="line2d_142">
     <path d="M 66.474375 200.356875 
L 78.474375 200.356875 
L 90.474375 200.356875 
" style="fill: none; stroke: #000000; stroke-linecap: square"/>
    </g>
    <g id="text_16">
     <!-- Max fitness -->
     <g transform="translate(100.074375 204.556875) scale(0.12 -0.12)">
      <defs>
       <path id="DejaVuSans-4d" d="M 628 4666 
L 1569 4666 
L 2759 1491 
L 3956 4666 
L 4897 4666 
L 4897 0 
L 4281 0 
L 4281 4097 
L 3078 897 
L 2444 897 
L 1241 4097 
L 1241 0 
L 628 0 
L 628 4666 
z
" transform="scale(0.015625)"/>
       <path id="DejaVuSans-78" d="M 3513 3500 
L 2247 1797 
L 3578 0 
L 2900 0 
L 1881 1375 
L 863 0 
L 184 0 
L 1544 1831 
L 300 3500 
L 978 3500 
L 1906 2253 
L 2834 3500 
L 3513 3500 
z
" transform="scale(0.015625)"/>
       <path id="DejaVuSans-20" transform="scale(0.015625)"/>
       <path id="DejaVuSans-66" d="M 2375 4863 
L 2375 4384 
L 1825 4384 
Q 1516 4384 1395 4259 
Q 1275 4134 1275 3809 
L 1275 3500 
L 2222 3500 
L 2222 3053 
L 1275 3053 
L 1275 0 
L 697 0 
L 697 3053 
L 147 3053 
L 147 3500 
L 697 3500 
L 697 3744 
Q 697 4328 969 4595 
Q 1241 4863 1831 4863 
L 2375 4863 
z
" transform="scale(0.015625)"/>
      </defs>
      <use xlink:href="#DejaVuSans-4d"/>
      <use xlink:href="#DejaVuSans-61" x="86.279297"/>
      <use xlink:href="#DejaVuSans-78" x="147.558594"/>
      <use xlink:href="#DejaVuSans-20" x="206.738281"/>
      <use xlink:href="#DejaVuSans-66" x="238.525391"/>
      <use xlink:href="#DejaVuSans-69" x="273.730469"/>
      <use xlink:href="#DejaVuSans-74" x="301.513672"/>
      <use xlink:href="#DejaVuSans-6e" x="340.722656"/>
      <use xlink:href="#DejaVuSans-65" x="404.101562"/>
      <use xlink:href="#DejaVuSans-73" x="465.625"/>
      <use xlink:href="#DejaVuSans-73" x="517.724609"/>
     </g>
    </g>
    <g id="patch_8">
     <path d="M 66.474375 222.170625 
L 90.474375 222.170625 
L 90.474375 213.770625 
L 66.474375 213.770625 
z
" style="fill: #0000ff; fill-opacity: 0.2; stroke: #0000ff; stroke-opacity: 0.2; stroke-linejoin: miter"/>
    </g>
    <g id="text_17">
     <!-- Top 90% -->
     <g transform="translate(100.074375 222.170625) scale(0.12 -0.12)">
      <defs>
       <path id="DejaVuSans-54" d="M -19 4666 
L 3928 4666 
L 3928 4134 
L 2272 4134 
L 2272 0 
L 1638 0 
L 1638 4134 
L -19 4134 
L -19 4666 
z
" transform="scale(0.015625)"/>
       <path id="DejaVuSans-70" d="M 1159 525 
L 1159 -1331 
L 581 -1331 
L 581 3500 
L 1159 3500 
L 1159 2969 
Q 1341 3281 1617 3432 
Q 1894 3584 2278 3584 
Q 2916 3584 3314 3078 
Q 3713 2572 3713 1747 
Q 3713 922 3314 415 
Q 2916 -91 2278 -91 
Q 1894 -91 1617 61 
Q 1341 213 1159 525 
z
M 3116 1747 
Q 3116 2381 2855 2742 
Q 2594 3103 2138 3103 
Q 1681 3103 1420 2742 
Q 1159 2381 1159 1747 
Q 1159 1113 1420 752 
Q 1681 391 2138 391 
Q 2594 391 2855 752 
Q 3116 1113 3116 1747 
z
" transform="scale(0.015625)"/>
       <path id="DejaVuSans-39" d="M 703 97 
L 703 672 
Q 941 559 1184 500 
Q 1428 441 1663 441 
Q 2288 441 2617 861 
Q 2947 1281 2994 2138 
Q 2813 1869 2534 1725 
Q 2256 1581 1919 1581 
Q 1219 1581 811 2004 
Q 403 2428 403 3163 
Q 403 3881 828 4315 
Q 1253 4750 1959 4750 
Q 2769 4750 3195 4129 
Q 3622 3509 3622 2328 
Q 3622 1225 3098 567 
Q 2575 -91 1691 -91 
Q 1453 -91 1209 -44 
Q 966 3 703 97 
z
M 1959 2075 
Q 2384 2075 2632 2365 
Q 2881 2656 2881 3163 
Q 2881 3666 2632 3958 
Q 2384 4250 1959 4250 
Q 1534 4250 1286 3958 
Q 1038 3666 1038 3163 
Q 1038 2656 1286 2365 
Q 1534 2075 1959 2075 
z
" transform="scale(0.015625)"/>
       <path id="DejaVuSans-25" d="M 4653 2053 
Q 4381 2053 4226 1822 
Q 4072 1591 4072 1178 
Q 4072 772 4226 539 
Q 4381 306 4653 306 
Q 4919 306 5073 539 
Q 5228 772 5228 1178 
Q 5228 1588 5073 1820 
Q 4919 2053 4653 2053 
z
M 4653 2450 
Q 5147 2450 5437 2106 
Q 5728 1763 5728 1178 
Q 5728 594 5436 251 
Q 5144 -91 4653 -91 
Q 4153 -91 3862 251 
Q 3572 594 3572 1178 
Q 3572 1766 3864 2108 
Q 4156 2450 4653 2450 
z
M 1428 4353 
Q 1159 4353 1004 4120 
Q 850 3888 850 3481 
Q 850 3069 1003 2837 
Q 1156 2606 1428 2606 
Q 1700 2606 1854 2837 
Q 2009 3069 2009 3481 
Q 2009 3884 1853 4118 
Q 1697 4353 1428 4353 
z
M 4250 4750 
L 4750 4750 
L 1831 -91 
L 1331 -91 
L 4250 4750 
z
M 1428 4750 
Q 1922 4750 2215 4408 
Q 2509 4066 2509 3481 
Q 2509 2891 2217 2550 
Q 1925 2209 1428 2209 
Q 931 2209 642 2551 
Q 353 2894 353 3481 
Q 353 4063 643 4406 
Q 934 4750 1428 4750 
z
" transform="scale(0.015625)"/>
      </defs>
      <use xlink:href="#DejaVuSans-54"/>
      <use xlink:href="#DejaVuSans-6f" x="44.083984"/>
      <use xlink:href="#DejaVuSans-70" x="105.265625"/>
      <use xlink:href="#DejaVuSans-20" x="168.742188"/>
      <use xlink:href="#DejaVuSans-39" x="200.529297"/>
      <use xlink:href="#DejaVuSans-30" x="264.152344"/>
      <use xlink:href="#DejaVuSans-25" x="327.775391"/>
     </g>
    </g>
    <g id="line2d_143">
     <path d="M 66.474375 235.584375 
L 78.474375 235.584375 
L 90.474375 235.584375 
" style="fill: none; stroke-dasharray: 3.7,1.6; stroke-dashoffset: 0; stroke: #000000"/>
    </g>
    <g id="text_18">
     <!-- Fitness mean -->
     <g transform="translate(100.074375 239.784375) scale(0.12 -0.12)">
      <defs>
       <path id="DejaVuSans-6d" d="M 3328 2828 
Q 3544 3216 3844 3400 
Q 4144 3584 4550 3584 
Q 5097 3584 5394 3201 
Q 5691 2819 5691 2113 
L 5691 0 
L 5113 0 
L 5113 2094 
Q 5113 2597 4934 2840 
Q 4756 3084 4391 3084 
Q 3944 3084 3684 2787 
Q 3425 2491 3425 1978 
L 3425 0 
L 2847 0 
L 2847 2094 
Q 2847 2600 2669 2842 
Q 2491 3084 2119 3084 
Q 1678 3084 1418 2786 
Q 1159 2488 1159 1978 
L 1159 0 
L 581 0 
L 581 3500 
L 1159 3500 
L 1159 2956 
Q 1356 3278 1631 3431 
Q 1906 3584 2284 3584 
Q 2666 3584 2933 3390 
Q 3200 3197 3328 2828 
z
" transform="scale(0.015625)"/>
      </defs>
      <use xlink:href="#DejaVuSans-46"/>
      <use xlink:href="#DejaVuSans-69" x="50.269531"/>
      <use xlink:href="#DejaVuSans-74" x="78.052734"/>
      <use xlink:href="#DejaVuSans-6e" x="117.261719"/>
      <use xlink:href="#DejaVuSans-65" x="180.640625"/>
      <use xlink:href="#DejaVuSans-73" x="242.164062"/>
      <use xlink:href="#DejaVuSans-73" x="294.263672"/>
      <use xlink:href="#DejaVuSans-20" x="346.363281"/>
      <use xlink:href="#DejaVuSans-6d" x="378.150391"/>
      <use xlink:href="#DejaVuSans-65" x="475.5625"/>
      <use xlink:href="#DejaVuSans-61" x="537.085938"/>
      <use xlink:href="#DejaVuSans-6e" x="598.365234"/>
     </g>
    </g>
   </g>
  </g>
 </g>
 <defs>
  <clipPath id="p15f7963a48">
   <rect x="55.674375" y="3.6" width="334.8" height="249.48"/>
  </clipPath>
 </defs>
</svg>
