<?xml version="1.0" encoding="utf-8" standalone="no"?>
<!DOCTYPE svg PUBLIC "-//W3C//DTD SVG 1.1//EN"
  "http://www.w3.org/Graphics/SVG/1.1/DTD/svg11.dtd">
<svg xmlns:xlink="http://www.w3.org/1999/xlink" width="386.439375pt" height="287.4075pt" viewBox="0 0 386.439375 287.4075" xmlns="http://www.w3.org/2000/svg" version="1.1">
 <metadata>
  <rdf:RDF xmlns:dc="http://purl.org/dc/elements/1.1/" xmlns:cc="http://creativecommons.org/ns#" xmlns:rdf="http://www.w3.org/1999/02/22-rdf-syntax-ns#">
   <cc:Work>
    <dc:type rdf:resource="http://purl.org/dc/dcmitype/StillImage"/>
    <dc:date>2024-06-25T10:21:03.631587</dc:date>
    <dc:format>image/svg+xml</dc:format>
    <dc:creator>
     <cc:Agent>
      <dc:title>Matplotlib v3.9.0, https://matplotlib.org/</dc:title>
     </cc:Agent>
    </dc:creator>
   </cc:Work>
  </rdf:RDF>
 </metadata>
 <defs>
  <style type="text/css">*{stroke-linejoin: round; stroke-linecap: butt}</style>
 </defs>
 <g id="figure_1">
  <g id="patch_1">
   <path d="M 0 287.4075 
L 386.439375 287.4075 
L 386.439375 0 
L 0 0 
z
" style="fill: #ffffff"/>
  </g>
  <g id="axes_1">
   <g id="patch_2">
    <path d="M 48.039375 253.08 
L 382.839375 253.08 
L 382.839375 3.6 
L 48.039375 3.6 
z
" style="fill: #ffffff"/>
   </g>
   <g id="PolyCollection_1">
    <defs>
     <path id="m4b3ffde456" d="M 63.257557 -254.962891 
L 63.257557 -45.6675 
L 63.867504 -111.385014 
L 64.477451 -144.252265 
L 65.087398 -153.256102 
L 65.697345 -127.296198 
L 66.307293 -162.885112 
L 66.91724 -175.341366 
L 67.527187 -148.952118 
L 68.137134 -147.351588 
L 68.747081 -140.248209 
L 69.357028 -165.328471 
L 69.966976 -175.113383 
L 70.576923 -160.869869 
L 71.18687 -172.272771 
L 71.796817 -162.110813 
L 72.406764 -158.769713 
L 73.016711 -158.505857 
L 73.626659 -170.895214 
L 74.236606 -170.168198 
L 74.846553 -173.143485 
L 75.4565 -183.093174 
L 76.066447 -183.692611 
L 76.676394 -182.777002 
L 77.286342 -179.881866 
L 77.896289 -179.535118 
L 78.506236 -186.699075 
L 79.116183 -188.807877 
L 79.72613 -188.765931 
L 80.336077 -191.258748 
L 80.946025 -192.271348 
L 81.555972 -191.971223 
L 82.165919 -191.417409 
L 82.775866 -192.902409 
L 83.385813 -195.804794 
L 83.99576 -195.495615 
L 84.605708 -196.046354 
L 85.215655 -197.125329 
L 85.825602 -221.721326 
L 86.435549 -221.187993 
L 87.045496 -225.172173 
L 87.655444 -227.100411 
L 88.265391 -233.082163 
L 88.875338 -235.256343 
L 89.485285 -258.469606 
L 90.095232 -258.636293 
L 90.705179 -236.533735 
L 91.315127 -256.176988 
L 91.925074 -237.664378 
L 92.535021 -258.306616 
L 93.144968 -259.032322 
L 93.754915 -259.032484 
L 94.364862 -260.470749 
L 94.97481 -260.673466 
L 95.584757 -260.989611 
L 96.194704 -259.973796 
L 96.804651 -260.567799 
L 97.414598 -260.717946 
L 98.024545 -259.053158 
L 98.634493 -259.861989 
L 99.24444 -260.03281 
L 99.854387 -259.988495 
L 100.464334 -260.333184 
L 101.074281 -258.3237 
L 101.684228 -260.333205 
L 102.294176 -258.980128 
L 102.904123 -258.797066 
L 103.51407 -259.940549 
L 104.124017 -260.993293 
L 104.733964 -257.945117 
L 105.343911 -258.835059 
L 105.953859 -260.253363 
L 106.563806 -260.685262 
L 107.173753 -259.884809 
L 107.7837 -259.84599 
L 108.393647 -261.544657 
L 109.003594 -262.799573 
L 109.613542 -261.597083 
L 110.223489 -263.258537 
L 110.833436 -264.425924 
L 111.443383 -264.772857 
L 112.05333 -264.676947 
L 112.663277 -264.797627 
L 113.273225 -265.391139 
L 113.883172 -264.797635 
L 114.493119 -264.871278 
L 115.103066 -264.213967 
L 115.713013 -259.875632 
L 116.32296 -263.173906 
L 116.932908 -263.197387 
L 117.542855 -264.698998 
L 118.152802 -266.26552 
L 118.762749 -266.524749 
L 119.372696 -266.646688 
L 119.982643 -267.666572 
L 120.592591 -267.47286 
L 121.202538 -266.858753 
L 121.812485 -266.419997 
L 122.422432 -266.28663 
L 123.032379 -266.099092 
L 123.642326 -264.960818 
L 124.252274 -266.426048 
L 124.862221 -264.548938 
L 125.472168 -264.748375 
L 126.082115 -263.638976 
L 126.692062 -264.959847 
L 127.302009 -264.072633 
L 127.911957 -265.51063 
L 128.521904 -265.510604 
L 129.131851 -263.484538 
L 129.741798 -264.567847 
L 130.351745 -265.079275 
L 130.961692 -264.855426 
L 131.57164 -265.254097 
L 132.181587 -264.779382 
L 132.791534 -264.779396 
L 133.401481 -265.01167 
L 134.011428 -265.360586 
L 134.621375 -265.658401 
L 135.231323 -265.435061 
L 135.84127 -265.435009 
L 136.451217 -265.435065 
L 137.061164 -265.503183 
L 137.671111 -265.594634 
L 138.281058 -264.99273 
L 138.891006 -264.779374 
L 139.500953 -265.482446 
L 140.1109 -264.906224 
L 140.720847 -265.09049 
L 141.330794 -264.622664 
L 141.940741 -264.030541 
L 142.550689 -265.274505 
L 143.160636 -266.680468 
L 143.770583 -266.00339 
L 144.38053 -264.389498 
L 144.990477 -264.408445 
L 145.600424 -266.706485 
L 146.210372 -265.852866 
L 146.820319 -266.205788 
L 147.430266 -266.379572 
L 148.040213 -266.335968 
L 148.65016 -266.004732 
L 149.260107 -265.378466 
L 149.870055 -265.744605 
L 150.480002 -265.983471 
L 151.089949 -266.044595 
L 151.699896 -266.777472 
L 152.309843 -266.873555 
L 152.91979 -267.170062 
L 153.529738 -266.755775 
L 154.139685 -266.755776 
L 154.749632 -264.527019 
L 155.359579 -266.270477 
L 155.969526 -266.234377 
L 156.579473 -266.012372 
L 157.189421 -264.444626 
L 157.799368 -264.444617 
L 158.409315 -264.022197 
L 159.019262 -263.25094 
L 159.629209 -265.347404 
L 160.239156 -265.762562 
L 160.849104 -266.176226 
L 161.459051 -266.588046 
L 162.068998 -265.849772 
L 162.678945 -265.624682 
L 163.288892 -266.65877 
L 163.898839 -265.602433 
L 164.508787 -265.444919 
L 165.118734 -265.379542 
L 165.728681 -265.411193 
L 166.338628 -265.633596 
L 166.948575 -265.612922 
L 167.558522 -265.902524 
L 168.16847 -266.39084 
L 168.778417 -267.325597 
L 169.388364 -266.856361 
L 169.998311 -266.464415 
L 170.608258 -265.938264 
L 171.218205 -266.392593 
L 171.828153 -267.046447 
L 172.4381 -267.278283 
L 173.048047 -266.183922 
L 173.657994 -267.003801 
L 174.267941 -266.260224 
L 174.877888 -265.301609 
L 175.487836 -266.578347 
L 176.097783 -267.152045 
L 176.70773 -266.822293 
L 177.317677 -267.148725 
L 177.927624 -266.419391 
L 178.537571 -267.152065 
L 179.147519 -265.568686 
L 179.757466 -265.991665 
L 180.367413 -266.082154 
L 180.97736 -264.982436 
L 181.587307 -265.960116 
L 182.197254 -267.368172 
L 182.807202 -267.055673 
L 183.417149 -266.725042 
L 184.027096 -267.055677 
L 184.637043 -266.470867 
L 185.24699 -266.801404 
L 185.856937 -266.275429 
L 186.466885 -265.66536 
L 187.076832 -266.898197 
L 187.686779 -267.738452 
L 188.296726 -267.363103 
L 188.906673 -265.615894 
L 189.51662 -264.309264 
L 190.126568 -265.381922 
L 190.736515 -266.051505 
L 191.346462 -265.688764 
L 191.956409 -265.421073 
L 192.566356 -265.320434 
L 193.176303 -265.165858 
L 193.786251 -265.667137 
L 194.396198 -265.626358 
L 195.006145 -265.165865 
L 195.616092 -266.694622 
L 196.226039 -266.671177 
L 196.835986 -266.595074 
L 197.445934 -265.642896 
L 198.055881 -265.49892 
L 198.665828 -266.671173 
L 199.275775 -266.671177 
L 199.885722 -266.848512 
L 200.495669 -267.0364 
L 201.105617 -266.671163 
L 201.715564 -265.746749 
L 202.325511 -267.186691 
L 202.935458 -266.428369 
L 203.545405 -267.671992 
L 204.155352 -266.860118 
L 204.7653 -267.94917 
L 205.375247 -267.186723 
L 205.985194 -267.186717 
L 206.595141 -267.186738 
L 207.205088 -266.58169 
L 207.815035 -267.977674 
L 208.424983 -267.977675 
L 209.03493 -267.780665 
L 209.644877 -265.851816 
L 210.254824 -266.357909 
L 210.864771 -265.322502 
L 211.474718 -265.354863 
L 212.084666 -267.774258 
L 212.694613 -267.774293 
L 213.30456 -268.511787 
L 213.914507 -267.977691 
L 214.524454 -267.186371 
L 215.134401 -266.570237 
L 215.744349 -267.9171 
L 216.354296 -266.653312 
L 216.964243 -265.187725 
L 217.57419 -267.443853 
L 218.184137 -267.589528 
L 218.794084 -266.763408 
L 219.404032 -267.206765 
L 220.013979 -267.206787 
L 220.623926 -266.933849 
L 221.233873 -267.046257 
L 221.84382 -266.755752 
L 222.453767 -266.8026 
L 223.063715 -265.663248 
L 223.673662 -265.663236 
L 224.283609 -266.562448 
L 224.893556 -266.512993 
L 225.503503 -266.512992 
L 226.11345 -266.697651 
L 226.723398 -268.142343 
L 227.333345 -266.697663 
L 227.943292 -266.308031 
L 228.553239 -266.400388 
L 229.163186 -266.359651 
L 229.773133 -266.109875 
L 230.383081 -266.531017 
L 230.993028 -263.917505 
L 231.602975 -264.955639 
L 232.212922 -265.081533 
L 232.822869 -265.717686 
L 233.432816 -265.308343 
L 234.042764 -266.126698 
L 234.652711 -267.544033 
L 235.262658 -267.979122 
L 235.872605 -267.778883 
L 236.482552 -268.616554 
L 237.092499 -267.409549 
L 237.702447 -267.42891 
L 238.312394 -267.171804 
L 238.922341 -266.222439 
L 239.532288 -267.615904 
L 240.142235 -268.808846 
L 240.752182 -267.352785 
L 241.36213 -269.052836 
L 241.972077 -267.94123 
L 242.582024 -266.902006 
L 243.191971 -262.749453 
L 243.801918 -263.183536 
L 244.411865 -264.12964 
L 245.021813 -267.40863 
L 245.63176 -266.887793 
L 246.241707 -267.938175 
L 246.851654 -268.301572 
L 247.461601 -267.600568 
L 248.071548 -268.463257 
L 248.681496 -268.421892 
L 249.291443 -268.821682 
L 249.90139 -268.925715 
L 250.511337 -268.263955 
L 251.121284 -267.906376 
L 251.731231 -266.022845 
L 252.341179 -267.633253 
L 252.951126 -266.815336 
L 253.561073 -267.330788 
L 254.17102 -267.419487 
L 254.780967 -267.330753 
L 255.390914 -267.093872 
L 256.000862 -267.093863 
L 256.610809 -267.000834 
L 257.220756 -266.968317 
L 257.830703 -269.961053 
L 258.44065 -269.619739 
L 259.050597 -269.619747 
L 259.660545 -269.481883 
L 260.270492 -266.683504 
L 260.880439 -268.385284 
L 261.490386 -267.364794 
L 262.100333 -267.073294 
L 262.71028 -266.359318 
L 263.320228 -266.347342 
L 263.930175 -267.039792 
L 264.540122 -266.892735 
L 265.150069 -266.834309 
L 265.760016 -266.542103 
L 266.369963 -265.528293 
L 266.979911 -266.868429 
L 267.589858 -267.432522 
L 268.199805 -267.432538 
L 268.809752 -266.868438 
L 269.419699 -266.688689 
L 270.029646 -265.610696 
L 270.639594 -267.831718 
L 271.249541 -267.713478 
L 271.859488 -267.520625 
L 272.469435 -267.604028 
L 273.079382 -269.223735 
L 273.689329 -269.638826 
L 274.299277 -268.5541 
L 274.909224 -267.851848 
L 275.519171 -267.591633 
L 276.129118 -267.465765 
L 276.739065 -266.779338 
L 277.349012 -267.119626 
L 277.95896 -267.778904 
L 278.568907 -266.75983 
L 279.178854 -266.309358 
L 279.788801 -266.309373 
L 280.398748 -265.486297 
L 281.008695 -265.486305 
L 281.618643 -266.516044 
L 282.22859 -266.948603 
L 282.838537 -267.399527 
L 283.448484 -266.680364 
L 284.058431 -267.45865 
L 284.668378 -268.642866 
L 285.278326 -266.850065 
L 285.888273 -269.020954 
L 286.49822 -268.540304 
L 287.108167 -267.993134 
L 287.718114 -267.238597 
L 288.328061 -267.126708 
L 288.938009 -266.778679 
L 289.547956 -266.778731 
L 290.157903 -267.525013 
L 290.76785 -267.818981 
L 291.377797 -267.746766 
L 291.987744 -267.360892 
L 292.597692 -267.630773 
L 293.207639 -267.858032 
L 293.817586 -266.272013 
L 294.427533 -268.638972 
L 295.03748 -268.933438 
L 295.647427 -267.275836 
L 296.257375 -268.087002 
L 296.867322 -268.225072 
L 297.477269 -267.108238 
L 298.087216 -267.460639 
L 298.697163 -265.817099 
L 299.30711 -265.817102 
L 299.917058 -264.354005 
L 300.527005 -265.644189 
L 301.136952 -265.644226 
L 301.746899 -265.516934 
L 302.356846 -265.486199 
L 302.966793 -265.486192 
L 303.576741 -264.603972 
L 304.186688 -263.393733 
L 304.796635 -265.486233 
L 305.406582 -266.67194 
L 306.016529 -268.086995 
L 306.626476 -268.134955 
L 307.236424 -267.884125 
L 307.846371 -267.4311 
L 308.456318 -267.884155 
L 309.066265 -267.433638 
L 309.676212 -265.92746 
L 310.286159 -266.792694 
L 310.896107 -266.589844 
L 311.506054 -267.1676 
L 312.116001 -267.119857 
L 312.725948 -266.792668 
L 313.335895 -266.792678 
L 313.945842 -267.141562 
L 314.55579 -267.119873 
L 315.165737 -268.05145 
L 315.775684 -269.383594 
L 316.385631 -268.81036 
L 316.995578 -269.838964 
L 317.605525 -269.26118 
L 318.215473 -267.93944 
L 318.82542 -267.72018 
L 319.435367 -267.720188 
L 320.045314 -268.004528 
L 320.655261 -268.123561 
L 321.265208 -268.004536 
L 321.875156 -268.002864 
L 322.485103 -267.565116 
L 323.09505 -268.555958 
L 323.704997 -269.355041 
L 324.314944 -268.375478 
L 324.924891 -268.453744 
L 325.534839 -268.375516 
L 326.144786 -268.722727 
L 326.754733 -269.061317 
L 327.36468 -268.58296 
L 327.974627 -268.582969 
L 328.584574 -267.180127 
L 329.194522 -265.833802 
L 329.804469 -268.471088 
L 330.414416 -267.088635 
L 331.024363 -267.088606 
L 331.63431 -267.89083 
L 332.244257 -267.890835 
L 332.854205 -267.890835 
L 333.464152 -268.149716 
L 334.074099 -265.171334 
L 334.684046 -265.554372 
L 335.293993 -265.375786 
L 335.90394 -265.282881 
L 336.513888 -264.815021 
L 337.123835 -262.575361 
L 337.733782 -263.452056 
L 338.343729 -263.452081 
L 338.953676 -263.860391 
L 339.563623 -266.248056 
L 340.173571 -265.767435 
L 340.783518 -266.978876 
L 341.393465 -267.859446 
L 342.003412 -265.437269 
L 342.613359 -265.099377 
L 343.223306 -266.331267 
L 343.833254 -265.832952 
L 344.443201 -267.130374 
L 345.053148 -267.345313 
L 345.663095 -267.310181 
L 346.273042 -267.761878 
L 346.88299 -266.453507 
L 347.492937 -266.762306 
L 348.102884 -267.5624 
L 348.712831 -267.562398 
L 349.322778 -268.102722 
L 349.932725 -268.881123 
L 350.542673 -268.881099 
L 351.15262 -268.881133 
L 351.762567 -267.51172 
L 352.372514 -266.094384 
L 352.982461 -266.038895 
L 353.592408 -265.984941 
L 354.202356 -266.094368 
L 354.812303 -266.094355 
L 355.42225 -266.552981 
L 356.032197 -266.500947 
L 356.642144 -266.55296 
L 357.252091 -266.969852 
L 357.862039 -266.552969 
L 358.471986 -266.15113 
L 359.081933 -267.894223 
L 359.69188 -267.418396 
L 360.301827 -268.019514 
L 360.911774 -267.341549 
L 361.521722 -268.306324 
L 362.131669 -267.094571 
L 362.741616 -267.094572 
L 363.351563 -268.740893 
L 363.96151 -268.591651 
L 364.571457 -267.321606 
L 365.181405 -265.596244 
L 365.791352 -267.544288 
L 366.401299 -269.278525 
L 367.011246 -268.030658 
L 367.621193 -266.899999 
L 367.621193 -272.46748 
L 367.621193 -272.46748 
L 367.011246 -272.467488 
L 366.401299 -272.467482 
L 365.791352 -272.467477 
L 365.181405 -272.467479 
L 364.571457 -272.467473 
L 363.96151 -272.467473 
L 363.351563 -272.467467 
L 362.741616 -272.467482 
L 362.131669 -272.467483 
L 361.521722 -272.467477 
L 360.911774 -272.467481 
L 360.301827 -272.467467 
L 359.69188 -272.467498 
L 359.081933 -272.467485 
L 358.471986 -272.467476 
L 357.862039 -272.467469 
L 357.252091 -272.467474 
L 356.642144 -272.467474 
L 356.032197 -272.467484 
L 355.42225 -272.467487 
L 354.812303 -272.467493 
L 354.202356 -272.46748 
L 353.592408 -272.467475 
L 352.982461 -272.467475 
L 352.372514 -272.467481 
L 351.762567 -272.467481 
L 351.15262 -272.467483 
L 350.542673 -272.467473 
L 349.932725 -272.467487 
L 349.322778 -272.467483 
L 348.712831 -272.467475 
L 348.102884 -272.467474 
L 347.492937 -272.467477 
L 346.88299 -272.46748 
L 346.273042 -272.467497 
L 345.663095 -272.467481 
L 345.053148 -272.467479 
L 344.443201 -272.467478 
L 343.833254 -272.467476 
L 343.223306 -272.467477 
L 342.613359 -272.467479 
L 342.003412 -272.467484 
L 341.393465 -272.467488 
L 340.783518 -272.46748 
L 340.173571 -272.467469 
L 339.563623 -272.467481 
L 338.953676 -272.467471 
L 338.343729 -272.467476 
L 337.733782 -272.467478 
L 337.123835 -272.46748 
L 336.513888 -272.467478 
L 335.90394 -272.467478 
L 335.293993 -272.467477 
L 334.684046 -272.467477 
L 334.074099 -272.467488 
L 333.464152 -272.467479 
L 332.854205 -272.467481 
L 332.244257 -272.467478 
L 331.63431 -272.467478 
L 331.024363 -272.467486 
L 330.414416 -272.467478 
L 329.804469 -272.467472 
L 329.194522 -272.467481 
L 328.584574 -272.467478 
L 327.974627 -272.467498 
L 327.36468 -272.467482 
L 326.754733 -272.467473 
L 326.144786 -272.467477 
L 325.534839 -272.46748 
L 324.924891 -272.467477 
L 324.314944 -272.467484 
L 323.704997 -272.467475 
L 323.09505 -272.467478 
L 322.485103 -272.467481 
L 321.875156 -272.467479 
L 321.265208 -272.467478 
L 320.655261 -272.467477 
L 320.045314 -272.46748 
L 319.435367 -272.467476 
L 318.82542 -272.467489 
L 318.215473 -272.467471 
L 317.605525 -272.467479 
L 316.995578 -272.467479 
L 316.385631 -272.467476 
L 315.775684 -272.467477 
L 315.165737 -272.467472 
L 314.55579 -272.46749 
L 313.945842 -272.467474 
L 313.335895 -272.467469 
L 312.725948 -272.467472 
L 312.116001 -272.467471 
L 311.506054 -272.467478 
L 310.896107 -272.467477 
L 310.286159 -272.467472 
L 309.676212 -272.46748 
L 309.066265 -272.467478 
L 308.456318 -272.467494 
L 307.846371 -272.467482 
L 307.236424 -272.467477 
L 306.626476 -272.46748 
L 306.016529 -272.467481 
L 305.406582 -272.4675 
L 304.796635 -272.467483 
L 304.186688 -272.467486 
L 303.576741 -272.467481 
L 302.966793 -272.467496 
L 302.356846 -272.467476 
L 301.746899 -272.467471 
L 301.136952 -272.467496 
L 300.527005 -272.46749 
L 299.917058 -272.467484 
L 299.30711 -272.467478 
L 298.697163 -272.467478 
L 298.087216 -272.467478 
L 297.477269 -272.467475 
L 296.867322 -272.467486 
L 296.257375 -272.467475 
L 295.647427 -272.467476 
L 295.03748 -272.467489 
L 294.427533 -272.467473 
L 293.817586 -272.467479 
L 293.207639 -272.467473 
L 292.597692 -272.467491 
L 291.987744 -272.46749 
L 291.377797 -272.46749 
L 290.76785 -272.46748 
L 290.157903 -272.467492 
L 289.547956 -272.467475 
L 288.938009 -272.467483 
L 288.328061 -272.467474 
L 287.718114 -272.467478 
L 287.108167 -272.467477 
L 286.49822 -272.467474 
L 285.888273 -272.467478 
L 285.278326 -272.467483 
L 284.668378 -272.467474 
L 284.058431 -272.467474 
L 283.448484 -272.467473 
L 282.838537 -272.467475 
L 282.22859 -272.46748 
L 281.618643 -272.467494 
L 281.008695 -272.467489 
L 280.398748 -272.467477 
L 279.788801 -272.467484 
L 279.178854 -272.467489 
L 278.568907 -272.46748 
L 277.95896 -272.467499 
L 277.349012 -272.467481 
L 276.739065 -272.467479 
L 276.129118 -272.467473 
L 275.519171 -272.467472 
L 274.909224 -272.467485 
L 274.299277 -272.467487 
L 273.689329 -272.467477 
L 273.079382 -272.467477 
L 272.469435 -272.467478 
L 271.859488 -272.467492 
L 271.249541 -272.467476 
L 270.639594 -272.46748 
L 270.029646 -272.467478 
L 269.419699 -272.467479 
L 268.809752 -272.467487 
L 268.199805 -272.467478 
L 267.589858 -272.467477 
L 266.979911 -272.467482 
L 266.369963 -272.467475 
L 265.760016 -272.46748 
L 265.150069 -272.467479 
L 264.540122 -272.467478 
L 263.930175 -272.467476 
L 263.320228 -272.467476 
L 262.71028 -272.467479 
L 262.100333 -272.467482 
L 261.490386 -272.467478 
L 260.880439 -272.46748 
L 260.270492 -272.467487 
L 259.660545 -272.467483 
L 259.050597 -272.46749 
L 258.44065 -272.467481 
L 257.830703 -272.46748 
L 257.220756 -272.467477 
L 256.610809 -272.467479 
L 256.000862 -272.46748 
L 255.390914 -272.467495 
L 254.780967 -272.46748 
L 254.17102 -272.467476 
L 253.561073 -272.467475 
L 252.951126 -272.467482 
L 252.341179 -272.467472 
L 251.731231 -272.467483 
L 251.121284 -272.467493 
L 250.511337 -272.467478 
L 249.90139 -272.467471 
L 249.291443 -272.467479 
L 248.681496 -272.467479 
L 248.071548 -272.46748 
L 247.461601 -272.467473 
L 246.851654 -272.467484 
L 246.241707 -272.467478 
L 245.63176 -272.467475 
L 245.021813 -272.467475 
L 244.411865 -272.46748 
L 243.801918 -272.467485 
L 243.191971 -272.467476 
L 242.582024 -272.467471 
L 241.972077 -272.467478 
L 241.36213 -272.467475 
L 240.752182 -272.467476 
L 240.142235 -272.467478 
L 239.532288 -272.467474 
L 238.922341 -272.467482 
L 238.312394 -272.467479 
L 237.702447 -272.467473 
L 237.092499 -272.467479 
L 236.482552 -272.467471 
L 235.872605 -272.46747 
L 235.262658 -272.467472 
L 234.652711 -272.467475 
L 234.042764 -272.467478 
L 233.432816 -272.467478 
L 232.822869 -272.467479 
L 232.212922 -272.467473 
L 231.602975 -272.467476 
L 230.993028 -272.467471 
L 230.383081 -272.467475 
L 229.773133 -272.467479 
L 229.163186 -272.467476 
L 228.553239 -272.467487 
L 227.943292 -272.467478 
L 227.333345 -272.467481 
L 226.723398 -272.467475 
L 226.11345 -272.46749 
L 225.503503 -272.467476 
L 224.893556 -272.467469 
L 224.283609 -272.467471 
L 223.673662 -272.46747 
L 223.063715 -272.467472 
L 222.453767 -272.467476 
L 221.84382 -272.467478 
L 221.233873 -272.467478 
L 220.623926 -272.467474 
L 220.013979 -272.467483 
L 219.404032 -272.467479 
L 218.794084 -272.467471 
L 218.184137 -272.467477 
L 217.57419 -272.467486 
L 216.964243 -272.467473 
L 216.354296 -272.467479 
L 215.744349 -272.46748 
L 215.134401 -272.467477 
L 214.524454 -272.467478 
L 213.914507 -272.46748 
L 213.30456 -272.467478 
L 212.694613 -272.467473 
L 212.084666 -272.467478 
L 211.474718 -272.467475 
L 210.864771 -272.467478 
L 210.254824 -272.467477 
L 209.644877 -272.467479 
L 209.03493 -272.467493 
L 208.424983 -272.467482 
L 207.815035 -272.467479 
L 207.205088 -272.467489 
L 206.595141 -272.467484 
L 205.985194 -272.467475 
L 205.375247 -272.467478 
L 204.7653 -272.467477 
L 204.155352 -272.467475 
L 203.545405 -272.46749 
L 202.935458 -272.46749 
L 202.325511 -272.46748 
L 201.715564 -272.467479 
L 201.105617 -272.46748 
L 200.495669 -272.467482 
L 199.885722 -272.467479 
L 199.275775 -272.467476 
L 198.665828 -272.467482 
L 198.055881 -272.467482 
L 197.445934 -272.467476 
L 196.835986 -272.46748 
L 196.226039 -272.467474 
L 195.616092 -272.467481 
L 195.006145 -272.467481 
L 194.396198 -272.467478 
L 193.786251 -272.46748 
L 193.176303 -272.467469 
L 192.566356 -272.467472 
L 191.956409 -272.467471 
L 191.346462 -272.467477 
L 190.736515 -272.467484 
L 190.126568 -272.467484 
L 189.51662 -272.467478 
L 188.906673 -272.467472 
L 188.296726 -272.467473 
L 187.686779 -272.467474 
L 187.076832 -272.467476 
L 186.466885 -272.467484 
L 185.856937 -272.467478 
L 185.24699 -272.467487 
L 184.637043 -272.467483 
L 184.027096 -272.467488 
L 183.417149 -272.467477 
L 182.807202 -272.467478 
L 182.197254 -272.467472 
L 181.587307 -272.467476 
L 180.97736 -272.467475 
L 180.367413 -272.467479 
L 179.757466 -272.467465 
L 179.147519 -272.467476 
L 178.537571 -272.467495 
L 177.927624 -272.467479 
L 177.317677 -272.467478 
L 176.70773 -272.467477 
L 176.097783 -272.467483 
L 175.487836 -272.467482 
L 174.877888 -272.467481 
L 174.267941 -272.467479 
L 173.657994 -272.467477 
L 173.048047 -272.467481 
L 172.4381 -272.467477 
L 171.828153 -272.467476 
L 171.218205 -272.467479 
L 170.608258 -272.467482 
L 169.998311 -272.467468 
L 169.388364 -272.467477 
L 168.778417 -272.467487 
L 168.16847 -272.467472 
L 167.558522 -272.46747 
L 166.948575 -272.467463 
L 166.338628 -272.467479 
L 165.728681 -272.467469 
L 165.118734 -272.467497 
L 164.508787 -272.467475 
L 163.898839 -272.467478 
L 163.288892 -272.467477 
L 162.678945 -272.467473 
L 162.068998 -272.46747 
L 161.459051 -272.467472 
L 160.849104 -272.467483 
L 160.239156 -272.467469 
L 159.629209 -272.467488 
L 159.019262 -272.467481 
L 158.409315 -272.467455 
L 157.799368 -272.467476 
L 157.189421 -272.46747 
L 156.579473 -272.467477 
L 155.969526 -272.467478 
L 155.359579 -272.467472 
L 154.749632 -272.467464 
L 154.139685 -272.467475 
L 153.529738 -272.467484 
L 152.91979 -272.467473 
L 152.309843 -272.467464 
L 151.699896 -272.467462 
L 151.089949 -272.467472 
L 150.480002 -272.4675 
L 149.870055 -272.46747 
L 149.260107 -272.467462 
L 148.65016 -272.467468 
L 148.040213 -272.467487 
L 147.430266 -272.467458 
L 146.820319 -272.467466 
L 146.210372 -272.467467 
L 145.600424 -272.467458 
L 144.990477 -272.467459 
L 144.38053 -272.467439 
L 143.770583 -272.467017 
L 143.160636 -272.466998 
L 142.550689 -272.467001 
L 141.940741 -272.467022 
L 141.330794 -272.466971 
L 140.720847 -272.454408 
L 140.1109 -272.454461 
L 139.500953 -272.454432 
L 138.891006 -272.454382 
L 138.281058 -272.45446 
L 137.671111 -272.454485 
L 137.061164 -272.454414 
L 136.451217 -272.454386 
L 135.84127 -272.454373 
L 135.231323 -272.454407 
L 134.621375 -272.441229 
L 134.011428 -272.44124 
L 133.401481 -272.297025 
L 132.791534 -272.29702 
L 132.181587 -272.29701 
L 131.57164 -272.297047 
L 130.961692 -272.297019 
L 130.351745 -272.198965 
L 129.741798 -272.17913 
L 129.131851 -272.179123 
L 128.521904 -272.179129 
L 127.911957 -272.17912 
L 127.302009 -272.179121 
L 126.692062 -272.179119 
L 126.082115 -272.179123 
L 125.472168 -272.179088 
L 124.862221 -272.179004 
L 124.252274 -271.931568 
L 123.642326 -271.931567 
L 123.032379 -271.931566 
L 122.422432 -271.931566 
L 121.812485 -271.931566 
L 121.202538 -271.931567 
L 120.592591 -271.93155 
L 119.982643 -271.931569 
L 119.372696 -271.931564 
L 118.762749 -271.931555 
L 118.152802 -271.931553 
L 117.542855 -271.931549 
L 116.932908 -271.931525 
L 116.32296 -271.931544 
L 115.713013 -271.793257 
L 115.103066 -271.793237 
L 114.493119 -271.793253 
L 113.883172 -271.793218 
L 113.273225 -271.579756 
L 112.663277 -271.579733 
L 112.05333 -271.579755 
L 111.443383 -271.579733 
L 110.833436 -271.56097 
L 110.223489 -271.56096 
L 109.613542 -271.560999 
L 109.003594 -271.560992 
L 108.393647 -271.463803 
L 107.7837 -271.463801 
L 107.173753 -271.463808 
L 106.563806 -271.463779 
L 105.953859 -271.32431 
L 105.343911 -271.324284 
L 104.733964 -271.324285 
L 104.124017 -271.324291 
L 103.51407 -271.324319 
L 102.904123 -271.324296 
L 102.294176 -271.324304 
L 101.684228 -271.324289 
L 101.074281 -271.324305 
L 100.464334 -271.324271 
L 99.854387 -271.324306 
L 99.24444 -271.324319 
L 98.634493 -271.32432 
L 98.024545 -271.324318 
L 97.414598 -271.324292 
L 96.804651 -271.324293 
L 96.194704 -271.324232 
L 95.584757 -271.324215 
L 94.97481 -271.324314 
L 94.364862 -271.32421 
L 93.754915 -271.324217 
L 93.144968 -271.324225 
L 92.535021 -271.324239 
L 91.925074 -271.324215 
L 91.315127 -271.324215 
L 90.705179 -270.283343 
L 90.095232 -270.283337 
L 89.485285 -270.283314 
L 88.875338 -270.283321 
L 88.265391 -269.874028 
L 87.655444 -269.680092 
L 87.045496 -269.680091 
L 86.435549 -269.680073 
L 85.825602 -269.680053 
L 85.215655 -268.598232 
L 84.605708 -268.598227 
L 83.99576 -268.598224 
L 83.385813 -268.59823 
L 82.775866 -268.598224 
L 82.165919 -268.598197 
L 81.555972 -268.598173 
L 80.946025 -268.598164 
L 80.336077 -268.59822 
L 79.72613 -266.654164 
L 79.116183 -265.904797 
L 78.506236 -265.904808 
L 77.896289 -265.904775 
L 77.286342 -265.904793 
L 76.676394 -265.90481 
L 76.066447 -265.904794 
L 75.4565 -265.904791 
L 74.846553 -265.904789 
L 74.236606 -265.904779 
L 73.626659 -264.290541 
L 73.016711 -264.290526 
L 72.406764 -264.290544 
L 71.796817 -264.290542 
L 71.18687 -264.290545 
L 70.576923 -264.290549 
L 69.966976 -264.290549 
L 69.357028 -260.937113 
L 68.747081 -260.937147 
L 68.137134 -260.937083 
L 67.527187 -260.937075 
L 66.91724 -255.54602 
L 66.307293 -255.546053 
L 65.697345 -255.544572 
L 65.087398 -254.962809 
L 64.477451 -254.962483 
L 63.867504 -254.963264 
L 63.257557 -254.962891 
z
" style="stroke: #0000ff; stroke-opacity: 0.2"/>
    </defs>
    <g clip-path="url(#pb40ccb54e2)">
     <use xlink:href="#m4b3ffde456" x="0" y="287.4075" style="fill: #0000ff; fill-opacity: 0.2; stroke: #0000ff; stroke-opacity: 0.2"/>
    </g>
   </g>
   <g id="matplotlib.axis_1">
    <g id="xtick_1">
     <g id="line2d_1">
      <path d="M 63.257557 253.08 
L 63.257557 3.6 
" clip-path="url(#pb40ccb54e2)" style="fill: none; stroke: #b0b0b0; stroke-width: 0.5; stroke-linecap: square"/>
     </g>
     <g id="line2d_2">
      <defs>
       <path id="m84490c6420" d="M 0 0 
L 0 -3 
" style="stroke: #000000; stroke-width: 0.5"/>
      </defs>
      <g>
       <use xlink:href="#m84490c6420" x="63.257557" y="253.08" style="stroke: #000000; stroke-width: 0.5"/>
      </g>
     </g>
     <g id="line2d_3">
      <defs>
       <path id="m1e3620defc" d="M 0 0 
L 0 3 
" style="stroke: #000000; stroke-width: 0.5"/>
      </defs>
      <g>
       <use xlink:href="#m1e3620defc" x="63.257557" y="3.6" style="stroke: #000000; stroke-width: 0.5"/>
      </g>
     </g>
     <g id="text_1">
      <!-- 0 -->
      <g transform="translate(59.440057 265.698125) scale(0.12 -0.12)">
       <defs>
        <path id="DejaVuSans-30" d="M 2034 4250 
Q 1547 4250 1301 3770 
Q 1056 3291 1056 2328 
Q 1056 1369 1301 889 
Q 1547 409 2034 409 
Q 2525 409 2770 889 
Q 3016 1369 3016 2328 
Q 3016 3291 2770 3770 
Q 2525 4250 2034 4250 
z
M 2034 4750 
Q 2819 4750 3233 4129 
Q 3647 3509 3647 2328 
Q 3647 1150 3233 529 
Q 2819 -91 2034 -91 
Q 1250 -91 836 529 
Q 422 1150 422 2328 
Q 422 3509 836 4129 
Q 1250 4750 2034 4750 
z
" transform="scale(0.015625)"/>
       </defs>
       <use xlink:href="#DejaVuSans-30"/>
      </g>
     </g>
    </g>
    <g id="xtick_2">
     <g id="line2d_4">
      <path d="M 124.252274 253.08 
L 124.252274 3.6 
" clip-path="url(#pb40ccb54e2)" style="fill: none; stroke: #b0b0b0; stroke-width: 0.5; stroke-linecap: square"/>
     </g>
     <g id="line2d_5">
      <g>
       <use xlink:href="#m84490c6420" x="124.252274" y="253.08" style="stroke: #000000; stroke-width: 0.5"/>
      </g>
     </g>
     <g id="line2d_6">
      <g>
       <use xlink:href="#m1e3620defc" x="124.252274" y="3.6" style="stroke: #000000; stroke-width: 0.5"/>
      </g>
     </g>
     <g id="text_2">
      <!-- 100 -->
      <g transform="translate(112.799774 265.698125) scale(0.12 -0.12)">
       <defs>
        <path id="DejaVuSans-31" d="M 794 531 
L 1825 531 
L 1825 4091 
L 703 3866 
L 703 4441 
L 1819 4666 
L 2450 4666 
L 2450 531 
L 3481 531 
L 3481 0 
L 794 0 
L 794 531 
z
" transform="scale(0.015625)"/>
       </defs>
       <use xlink:href="#DejaVuSans-31"/>
       <use xlink:href="#DejaVuSans-30" x="63.623047"/>
       <use xlink:href="#DejaVuSans-30" x="127.246094"/>
      </g>
     </g>
    </g>
    <g id="xtick_3">
     <g id="line2d_7">
      <path d="M 185.24699 253.08 
L 185.24699 3.6 
" clip-path="url(#pb40ccb54e2)" style="fill: none; stroke: #b0b0b0; stroke-width: 0.5; stroke-linecap: square"/>
     </g>
     <g id="line2d_8">
      <g>
       <use xlink:href="#m84490c6420" x="185.24699" y="253.08" style="stroke: #000000; stroke-width: 0.5"/>
      </g>
     </g>
     <g id="line2d_9">
      <g>
       <use xlink:href="#m1e3620defc" x="185.24699" y="3.6" style="stroke: #000000; stroke-width: 0.5"/>
      </g>
     </g>
     <g id="text_3">
      <!-- 200 -->
      <g transform="translate(173.79449 265.698125) scale(0.12 -0.12)">
       <defs>
        <path id="DejaVuSans-32" d="M 1228 531 
L 3431 531 
L 3431 0 
L 469 0 
L 469 531 
Q 828 903 1448 1529 
Q 2069 2156 2228 2338 
Q 2531 2678 2651 2914 
Q 2772 3150 2772 3378 
Q 2772 3750 2511 3984 
Q 2250 4219 1831 4219 
Q 1534 4219 1204 4116 
Q 875 4013 500 3803 
L 500 4441 
Q 881 4594 1212 4672 
Q 1544 4750 1819 4750 
Q 2544 4750 2975 4387 
Q 3406 4025 3406 3419 
Q 3406 3131 3298 2873 
Q 3191 2616 2906 2266 
Q 2828 2175 2409 1742 
Q 1991 1309 1228 531 
z
" transform="scale(0.015625)"/>
       </defs>
       <use xlink:href="#DejaVuSans-32"/>
       <use xlink:href="#DejaVuSans-30" x="63.623047"/>
       <use xlink:href="#DejaVuSans-30" x="127.246094"/>
      </g>
     </g>
    </g>
    <g id="xtick_4">
     <g id="line2d_10">
      <path d="M 246.241707 253.08 
L 246.241707 3.6 
" clip-path="url(#pb40ccb54e2)" style="fill: none; stroke: #b0b0b0; stroke-width: 0.5; stroke-linecap: square"/>
     </g>
     <g id="line2d_11">
      <g>
       <use xlink:href="#m84490c6420" x="246.241707" y="253.08" style="stroke: #000000; stroke-width: 0.5"/>
      </g>
     </g>
     <g id="line2d_12">
      <g>
       <use xlink:href="#m1e3620defc" x="246.241707" y="3.6" style="stroke: #000000; stroke-width: 0.5"/>
      </g>
     </g>
     <g id="text_4">
      <!-- 300 -->
      <g transform="translate(234.789207 265.698125) scale(0.12 -0.12)">
       <defs>
        <path id="DejaVuSans-33" d="M 2597 2516 
Q 3050 2419 3304 2112 
Q 3559 1806 3559 1356 
Q 3559 666 3084 287 
Q 2609 -91 1734 -91 
Q 1441 -91 1130 -33 
Q 819 25 488 141 
L 488 750 
Q 750 597 1062 519 
Q 1375 441 1716 441 
Q 2309 441 2620 675 
Q 2931 909 2931 1356 
Q 2931 1769 2642 2001 
Q 2353 2234 1838 2234 
L 1294 2234 
L 1294 2753 
L 1863 2753 
Q 2328 2753 2575 2939 
Q 2822 3125 2822 3475 
Q 2822 3834 2567 4026 
Q 2313 4219 1838 4219 
Q 1578 4219 1281 4162 
Q 984 4106 628 3988 
L 628 4550 
Q 988 4650 1302 4700 
Q 1616 4750 1894 4750 
Q 2613 4750 3031 4423 
Q 3450 4097 3450 3541 
Q 3450 3153 3228 2886 
Q 3006 2619 2597 2516 
z
" transform="scale(0.015625)"/>
       </defs>
       <use xlink:href="#DejaVuSans-33"/>
       <use xlink:href="#DejaVuSans-30" x="63.623047"/>
       <use xlink:href="#DejaVuSans-30" x="127.246094"/>
      </g>
     </g>
    </g>
    <g id="xtick_5">
     <g id="line2d_13">
      <path d="M 307.236424 253.08 
L 307.236424 3.6 
" clip-path="url(#pb40ccb54e2)" style="fill: none; stroke: #b0b0b0; stroke-width: 0.5; stroke-linecap: square"/>
     </g>
     <g id="line2d_14">
      <g>
       <use xlink:href="#m84490c6420" x="307.236424" y="253.08" style="stroke: #000000; stroke-width: 0.5"/>
      </g>
     </g>
     <g id="line2d_15">
      <g>
       <use xlink:href="#m1e3620defc" x="307.236424" y="3.6" style="stroke: #000000; stroke-width: 0.5"/>
      </g>
     </g>
     <g id="text_5">
      <!-- 400 -->
      <g transform="translate(295.783924 265.698125) scale(0.12 -0.12)">
       <defs>
        <path id="DejaVuSans-34" d="M 2419 4116 
L 825 1625 
L 2419 1625 
L 2419 4116 
z
M 2253 4666 
L 3047 4666 
L 3047 1625 
L 3713 1625 
L 3713 1100 
L 3047 1100 
L 3047 0 
L 2419 0 
L 2419 1100 
L 313 1100 
L 313 1709 
L 2253 4666 
z
" transform="scale(0.015625)"/>
       </defs>
       <use xlink:href="#DejaVuSans-34"/>
       <use xlink:href="#DejaVuSans-30" x="63.623047"/>
       <use xlink:href="#DejaVuSans-30" x="127.246094"/>
      </g>
     </g>
    </g>
    <g id="xtick_6">
     <g id="line2d_16">
      <path d="M 368.23114 253.08 
L 368.23114 3.6 
" clip-path="url(#pb40ccb54e2)" style="fill: none; stroke: #b0b0b0; stroke-width: 0.5; stroke-linecap: square"/>
     </g>
     <g id="line2d_17">
      <g>
       <use xlink:href="#m84490c6420" x="368.23114" y="253.08" style="stroke: #000000; stroke-width: 0.5"/>
      </g>
     </g>
     <g id="line2d_18">
      <g>
       <use xlink:href="#m1e3620defc" x="368.23114" y="3.6" style="stroke: #000000; stroke-width: 0.5"/>
      </g>
     </g>
     <g id="text_6">
      <!-- 500 -->
      <g transform="translate(356.77864 265.698125) scale(0.12 -0.12)">
       <defs>
        <path id="DejaVuSans-35" d="M 691 4666 
L 3169 4666 
L 3169 4134 
L 1269 4134 
L 1269 2991 
Q 1406 3038 1543 3061 
Q 1681 3084 1819 3084 
Q 2600 3084 3056 2656 
Q 3513 2228 3513 1497 
Q 3513 744 3044 326 
Q 2575 -91 1722 -91 
Q 1428 -91 1123 -41 
Q 819 9 494 109 
L 494 744 
Q 775 591 1075 516 
Q 1375 441 1709 441 
Q 2250 441 2565 725 
Q 2881 1009 2881 1497 
Q 2881 1984 2565 2268 
Q 2250 2553 1709 2553 
Q 1456 2553 1204 2497 
Q 953 2441 691 2322 
L 691 4666 
z
" transform="scale(0.015625)"/>
       </defs>
       <use xlink:href="#DejaVuSans-35"/>
       <use xlink:href="#DejaVuSans-30" x="63.623047"/>
       <use xlink:href="#DejaVuSans-30" x="127.246094"/>
      </g>
     </g>
    </g>
    <g id="xtick_7">
     <g id="line2d_19">
      <defs>
       <path id="m242a1f404e" d="M 0 0 
L 0 -1.5 
" style="stroke: #000000; stroke-width: 0.5"/>
      </defs>
      <g>
       <use xlink:href="#m242a1f404e" x="51.058613" y="253.08" style="stroke: #000000; stroke-width: 0.5"/>
      </g>
     </g>
     <g id="line2d_20">
      <defs>
       <path id="mf4f2b38588" d="M 0 0 
L 0 1.5 
" style="stroke: #000000; stroke-width: 0.5"/>
      </defs>
      <g>
       <use xlink:href="#mf4f2b38588" x="51.058613" y="3.6" style="stroke: #000000; stroke-width: 0.5"/>
      </g>
     </g>
    </g>
    <g id="xtick_8">
     <g id="line2d_21">
      <g>
       <use xlink:href="#m242a1f404e" x="75.4565" y="253.08" style="stroke: #000000; stroke-width: 0.5"/>
      </g>
     </g>
     <g id="line2d_22">
      <g>
       <use xlink:href="#mf4f2b38588" x="75.4565" y="3.6" style="stroke: #000000; stroke-width: 0.5"/>
      </g>
     </g>
    </g>
    <g id="xtick_9">
     <g id="line2d_23">
      <g>
       <use xlink:href="#m242a1f404e" x="87.655444" y="253.08" style="stroke: #000000; stroke-width: 0.5"/>
      </g>
     </g>
     <g id="line2d_24">
      <g>
       <use xlink:href="#mf4f2b38588" x="87.655444" y="3.6" style="stroke: #000000; stroke-width: 0.5"/>
      </g>
     </g>
    </g>
    <g id="xtick_10">
     <g id="line2d_25">
      <g>
       <use xlink:href="#m242a1f404e" x="99.854387" y="253.08" style="stroke: #000000; stroke-width: 0.5"/>
      </g>
     </g>
     <g id="line2d_26">
      <g>
       <use xlink:href="#mf4f2b38588" x="99.854387" y="3.6" style="stroke: #000000; stroke-width: 0.5"/>
      </g>
     </g>
    </g>
    <g id="xtick_11">
     <g id="line2d_27">
      <g>
       <use xlink:href="#m242a1f404e" x="112.05333" y="253.08" style="stroke: #000000; stroke-width: 0.5"/>
      </g>
     </g>
     <g id="line2d_28">
      <g>
       <use xlink:href="#mf4f2b38588" x="112.05333" y="3.6" style="stroke: #000000; stroke-width: 0.5"/>
      </g>
     </g>
    </g>
    <g id="xtick_12">
     <g id="line2d_29">
      <g>
       <use xlink:href="#m242a1f404e" x="136.451217" y="253.08" style="stroke: #000000; stroke-width: 0.5"/>
      </g>
     </g>
     <g id="line2d_30">
      <g>
       <use xlink:href="#mf4f2b38588" x="136.451217" y="3.6" style="stroke: #000000; stroke-width: 0.5"/>
      </g>
     </g>
    </g>
    <g id="xtick_13">
     <g id="line2d_31">
      <g>
       <use xlink:href="#m242a1f404e" x="148.65016" y="253.08" style="stroke: #000000; stroke-width: 0.5"/>
      </g>
     </g>
     <g id="line2d_32">
      <g>
       <use xlink:href="#mf4f2b38588" x="148.65016" y="3.6" style="stroke: #000000; stroke-width: 0.5"/>
      </g>
     </g>
    </g>
    <g id="xtick_14">
     <g id="line2d_33">
      <g>
       <use xlink:href="#m242a1f404e" x="160.849104" y="253.08" style="stroke: #000000; stroke-width: 0.5"/>
      </g>
     </g>
     <g id="line2d_34">
      <g>
       <use xlink:href="#mf4f2b38588" x="160.849104" y="3.6" style="stroke: #000000; stroke-width: 0.5"/>
      </g>
     </g>
    </g>
    <g id="xtick_15">
     <g id="line2d_35">
      <g>
       <use xlink:href="#m242a1f404e" x="173.048047" y="253.08" style="stroke: #000000; stroke-width: 0.5"/>
      </g>
     </g>
     <g id="line2d_36">
      <g>
       <use xlink:href="#mf4f2b38588" x="173.048047" y="3.6" style="stroke: #000000; stroke-width: 0.5"/>
      </g>
     </g>
    </g>
    <g id="xtick_16">
     <g id="line2d_37">
      <g>
       <use xlink:href="#m242a1f404e" x="197.445934" y="253.08" style="stroke: #000000; stroke-width: 0.5"/>
      </g>
     </g>
     <g id="line2d_38">
      <g>
       <use xlink:href="#mf4f2b38588" x="197.445934" y="3.6" style="stroke: #000000; stroke-width: 0.5"/>
      </g>
     </g>
    </g>
    <g id="xtick_17">
     <g id="line2d_39">
      <g>
       <use xlink:href="#m242a1f404e" x="209.644877" y="253.08" style="stroke: #000000; stroke-width: 0.5"/>
      </g>
     </g>
     <g id="line2d_40">
      <g>
       <use xlink:href="#mf4f2b38588" x="209.644877" y="3.6" style="stroke: #000000; stroke-width: 0.5"/>
      </g>
     </g>
    </g>
    <g id="xtick_18">
     <g id="line2d_41">
      <g>
       <use xlink:href="#m242a1f404e" x="221.84382" y="253.08" style="stroke: #000000; stroke-width: 0.5"/>
      </g>
     </g>
     <g id="line2d_42">
      <g>
       <use xlink:href="#mf4f2b38588" x="221.84382" y="3.6" style="stroke: #000000; stroke-width: 0.5"/>
      </g>
     </g>
    </g>
    <g id="xtick_19">
     <g id="line2d_43">
      <g>
       <use xlink:href="#m242a1f404e" x="234.042764" y="253.08" style="stroke: #000000; stroke-width: 0.5"/>
      </g>
     </g>
     <g id="line2d_44">
      <g>
       <use xlink:href="#mf4f2b38588" x="234.042764" y="3.6" style="stroke: #000000; stroke-width: 0.5"/>
      </g>
     </g>
    </g>
    <g id="xtick_20">
     <g id="line2d_45">
      <g>
       <use xlink:href="#m242a1f404e" x="258.44065" y="253.08" style="stroke: #000000; stroke-width: 0.5"/>
      </g>
     </g>
     <g id="line2d_46">
      <g>
       <use xlink:href="#mf4f2b38588" x="258.44065" y="3.6" style="stroke: #000000; stroke-width: 0.5"/>
      </g>
     </g>
    </g>
    <g id="xtick_21">
     <g id="line2d_47">
      <g>
       <use xlink:href="#m242a1f404e" x="270.639594" y="253.08" style="stroke: #000000; stroke-width: 0.5"/>
      </g>
     </g>
     <g id="line2d_48">
      <g>
       <use xlink:href="#mf4f2b38588" x="270.639594" y="3.6" style="stroke: #000000; stroke-width: 0.5"/>
      </g>
     </g>
    </g>
    <g id="xtick_22">
     <g id="line2d_49">
      <g>
       <use xlink:href="#m242a1f404e" x="282.838537" y="253.08" style="stroke: #000000; stroke-width: 0.5"/>
      </g>
     </g>
     <g id="line2d_50">
      <g>
       <use xlink:href="#mf4f2b38588" x="282.838537" y="3.6" style="stroke: #000000; stroke-width: 0.5"/>
      </g>
     </g>
    </g>
    <g id="xtick_23">
     <g id="line2d_51">
      <g>
       <use xlink:href="#m242a1f404e" x="295.03748" y="253.08" style="stroke: #000000; stroke-width: 0.5"/>
      </g>
     </g>
     <g id="line2d_52">
      <g>
       <use xlink:href="#mf4f2b38588" x="295.03748" y="3.6" style="stroke: #000000; stroke-width: 0.5"/>
      </g>
     </g>
    </g>
    <g id="xtick_24">
     <g id="line2d_53">
      <g>
       <use xlink:href="#m242a1f404e" x="319.435367" y="253.08" style="stroke: #000000; stroke-width: 0.5"/>
      </g>
     </g>
     <g id="line2d_54">
      <g>
       <use xlink:href="#mf4f2b38588" x="319.435367" y="3.6" style="stroke: #000000; stroke-width: 0.5"/>
      </g>
     </g>
    </g>
    <g id="xtick_25">
     <g id="line2d_55">
      <g>
       <use xlink:href="#m242a1f404e" x="331.63431" y="253.08" style="stroke: #000000; stroke-width: 0.5"/>
      </g>
     </g>
     <g id="line2d_56">
      <g>
       <use xlink:href="#mf4f2b38588" x="331.63431" y="3.6" style="stroke: #000000; stroke-width: 0.5"/>
      </g>
     </g>
    </g>
    <g id="xtick_26">
     <g id="line2d_57">
      <g>
       <use xlink:href="#m242a1f404e" x="343.833254" y="253.08" style="stroke: #000000; stroke-width: 0.5"/>
      </g>
     </g>
     <g id="line2d_58">
      <g>
       <use xlink:href="#mf4f2b38588" x="343.833254" y="3.6" style="stroke: #000000; stroke-width: 0.5"/>
      </g>
     </g>
    </g>
    <g id="xtick_27">
     <g id="line2d_59">
      <g>
       <use xlink:href="#m242a1f404e" x="356.032197" y="253.08" style="stroke: #000000; stroke-width: 0.5"/>
      </g>
     </g>
     <g id="line2d_60">
      <g>
       <use xlink:href="#mf4f2b38588" x="356.032197" y="3.6" style="stroke: #000000; stroke-width: 0.5"/>
      </g>
     </g>
    </g>
    <g id="xtick_28">
     <g id="line2d_61">
      <g>
       <use xlink:href="#m242a1f404e" x="380.430084" y="253.08" style="stroke: #000000; stroke-width: 0.5"/>
      </g>
     </g>
     <g id="line2d_62">
      <g>
       <use xlink:href="#mf4f2b38588" x="380.430084" y="3.6" style="stroke: #000000; stroke-width: 0.5"/>
      </g>
     </g>
    </g>
    <g id="text_7">
     <!-- Generations -->
     <g transform="translate(178.842188 281.311875) scale(0.12 -0.12)">
      <defs>
       <path id="DejaVuSans-47" d="M 3809 666 
L 3809 1919 
L 2778 1919 
L 2778 2438 
L 4434 2438 
L 4434 434 
Q 4069 175 3628 42 
Q 3188 -91 2688 -91 
Q 1594 -91 976 548 
Q 359 1188 359 2328 
Q 359 3472 976 4111 
Q 1594 4750 2688 4750 
Q 3144 4750 3555 4637 
Q 3966 4525 4313 4306 
L 4313 3634 
Q 3963 3931 3569 4081 
Q 3175 4231 2741 4231 
Q 1884 4231 1454 3753 
Q 1025 3275 1025 2328 
Q 1025 1384 1454 906 
Q 1884 428 2741 428 
Q 3075 428 3337 486 
Q 3600 544 3809 666 
z
" transform="scale(0.015625)"/>
       <path id="DejaVuSans-65" d="M 3597 1894 
L 3597 1613 
L 953 1613 
Q 991 1019 1311 708 
Q 1631 397 2203 397 
Q 2534 397 2845 478 
Q 3156 559 3463 722 
L 3463 178 
Q 3153 47 2828 -22 
Q 2503 -91 2169 -91 
Q 1331 -91 842 396 
Q 353 884 353 1716 
Q 353 2575 817 3079 
Q 1281 3584 2069 3584 
Q 2775 3584 3186 3129 
Q 3597 2675 3597 1894 
z
M 3022 2063 
Q 3016 2534 2758 2815 
Q 2500 3097 2075 3097 
Q 1594 3097 1305 2825 
Q 1016 2553 972 2059 
L 3022 2063 
z
" transform="scale(0.015625)"/>
       <path id="DejaVuSans-6e" d="M 3513 2113 
L 3513 0 
L 2938 0 
L 2938 2094 
Q 2938 2591 2744 2837 
Q 2550 3084 2163 3084 
Q 1697 3084 1428 2787 
Q 1159 2491 1159 1978 
L 1159 0 
L 581 0 
L 581 3500 
L 1159 3500 
L 1159 2956 
Q 1366 3272 1645 3428 
Q 1925 3584 2291 3584 
Q 2894 3584 3203 3211 
Q 3513 2838 3513 2113 
z
" transform="scale(0.015625)"/>
       <path id="DejaVuSans-72" d="M 2631 2963 
Q 2534 3019 2420 3045 
Q 2306 3072 2169 3072 
Q 1681 3072 1420 2755 
Q 1159 2438 1159 1844 
L 1159 0 
L 581 0 
L 581 3500 
L 1159 3500 
L 1159 2956 
Q 1341 3275 1631 3429 
Q 1922 3584 2338 3584 
Q 2397 3584 2469 3576 
Q 2541 3569 2628 3553 
L 2631 2963 
z
" transform="scale(0.015625)"/>
       <path id="DejaVuSans-61" d="M 2194 1759 
Q 1497 1759 1228 1600 
Q 959 1441 959 1056 
Q 959 750 1161 570 
Q 1363 391 1709 391 
Q 2188 391 2477 730 
Q 2766 1069 2766 1631 
L 2766 1759 
L 2194 1759 
z
M 3341 1997 
L 3341 0 
L 2766 0 
L 2766 531 
Q 2569 213 2275 61 
Q 1981 -91 1556 -91 
Q 1019 -91 701 211 
Q 384 513 384 1019 
Q 384 1609 779 1909 
Q 1175 2209 1959 2209 
L 2766 2209 
L 2766 2266 
Q 2766 2663 2505 2880 
Q 2244 3097 1772 3097 
Q 1472 3097 1187 3025 
Q 903 2953 641 2809 
L 641 3341 
Q 956 3463 1253 3523 
Q 1550 3584 1831 3584 
Q 2591 3584 2966 3190 
Q 3341 2797 3341 1997 
z
" transform="scale(0.015625)"/>
       <path id="DejaVuSans-74" d="M 1172 4494 
L 1172 3500 
L 2356 3500 
L 2356 3053 
L 1172 3053 
L 1172 1153 
Q 1172 725 1289 603 
Q 1406 481 1766 481 
L 2356 481 
L 2356 0 
L 1766 0 
Q 1100 0 847 248 
Q 594 497 594 1153 
L 594 3053 
L 172 3053 
L 172 3500 
L 594 3500 
L 594 4494 
L 1172 4494 
z
" transform="scale(0.015625)"/>
       <path id="DejaVuSans-69" d="M 603 3500 
L 1178 3500 
L 1178 0 
L 603 0 
L 603 3500 
z
M 603 4863 
L 1178 4863 
L 1178 4134 
L 603 4134 
L 603 4863 
z
" transform="scale(0.015625)"/>
       <path id="DejaVuSans-6f" d="M 1959 3097 
Q 1497 3097 1228 2736 
Q 959 2375 959 1747 
Q 959 1119 1226 758 
Q 1494 397 1959 397 
Q 2419 397 2687 759 
Q 2956 1122 2956 1747 
Q 2956 2369 2687 2733 
Q 2419 3097 1959 3097 
z
M 1959 3584 
Q 2709 3584 3137 3096 
Q 3566 2609 3566 1747 
Q 3566 888 3137 398 
Q 2709 -91 1959 -91 
Q 1206 -91 779 398 
Q 353 888 353 1747 
Q 353 2609 779 3096 
Q 1206 3584 1959 3584 
z
" transform="scale(0.015625)"/>
       <path id="DejaVuSans-73" d="M 2834 3397 
L 2834 2853 
Q 2591 2978 2328 3040 
Q 2066 3103 1784 3103 
Q 1356 3103 1142 2972 
Q 928 2841 928 2578 
Q 928 2378 1081 2264 
Q 1234 2150 1697 2047 
L 1894 2003 
Q 2506 1872 2764 1633 
Q 3022 1394 3022 966 
Q 3022 478 2636 193 
Q 2250 -91 1575 -91 
Q 1294 -91 989 -36 
Q 684 19 347 128 
L 347 722 
Q 666 556 975 473 
Q 1284 391 1588 391 
Q 1994 391 2212 530 
Q 2431 669 2431 922 
Q 2431 1156 2273 1281 
Q 2116 1406 1581 1522 
L 1381 1569 
Q 847 1681 609 1914 
Q 372 2147 372 2553 
Q 372 3047 722 3315 
Q 1072 3584 1716 3584 
Q 2034 3584 2315 3537 
Q 2597 3491 2834 3397 
z
" transform="scale(0.015625)"/>
      </defs>
      <use xlink:href="#DejaVuSans-47"/>
      <use xlink:href="#DejaVuSans-65" x="77.490234"/>
      <use xlink:href="#DejaVuSans-6e" x="139.013672"/>
      <use xlink:href="#DejaVuSans-65" x="202.392578"/>
      <use xlink:href="#DejaVuSans-72" x="263.916016"/>
      <use xlink:href="#DejaVuSans-61" x="305.029297"/>
      <use xlink:href="#DejaVuSans-74" x="366.308594"/>
      <use xlink:href="#DejaVuSans-69" x="405.517578"/>
      <use xlink:href="#DejaVuSans-6f" x="433.300781"/>
      <use xlink:href="#DejaVuSans-6e" x="494.482422"/>
      <use xlink:href="#DejaVuSans-73" x="557.861328"/>
     </g>
    </g>
   </g>
   <g id="matplotlib.axis_2">
    <g id="ytick_1">
     <g id="line2d_63">
      <path d="M 48.039375 232.370419 
L 382.839375 232.370419 
" clip-path="url(#pb40ccb54e2)" style="fill: none; stroke: #b0b0b0; stroke-width: 0.5; stroke-linecap: square"/>
     </g>
     <g id="line2d_64">
      <defs>
       <path id="m63b8ea0d66" d="M 0 0 
L 3 0 
" style="stroke: #000000; stroke-width: 0.5"/>
      </defs>
      <g>
       <use xlink:href="#m63b8ea0d66" x="48.039375" y="232.370419" style="stroke: #000000; stroke-width: 0.5"/>
      </g>
     </g>
     <g id="line2d_65">
      <defs>
       <path id="m65468c5d07" d="M 0 0 
L -3 0 
" style="stroke: #000000; stroke-width: 0.5"/>
      </defs>
      <g>
       <use xlink:href="#m65468c5d07" x="382.839375" y="232.370419" style="stroke: #000000; stroke-width: 0.5"/>
      </g>
     </g>
     <g id="text_8">
      <!-- −80 -->
      <g transform="translate(19.21375 236.929482) scale(0.12 -0.12)">
       <defs>
        <path id="DejaVuSans-2212" d="M 678 2272 
L 4684 2272 
L 4684 1741 
L 678 1741 
L 678 2272 
z
" transform="scale(0.015625)"/>
        <path id="DejaVuSans-38" d="M 2034 2216 
Q 1584 2216 1326 1975 
Q 1069 1734 1069 1313 
Q 1069 891 1326 650 
Q 1584 409 2034 409 
Q 2484 409 2743 651 
Q 3003 894 3003 1313 
Q 3003 1734 2745 1975 
Q 2488 2216 2034 2216 
z
M 1403 2484 
Q 997 2584 770 2862 
Q 544 3141 544 3541 
Q 544 4100 942 4425 
Q 1341 4750 2034 4750 
Q 2731 4750 3128 4425 
Q 3525 4100 3525 3541 
Q 3525 3141 3298 2862 
Q 3072 2584 2669 2484 
Q 3125 2378 3379 2068 
Q 3634 1759 3634 1313 
Q 3634 634 3220 271 
Q 2806 -91 2034 -91 
Q 1263 -91 848 271 
Q 434 634 434 1313 
Q 434 1759 690 2068 
Q 947 2378 1403 2484 
z
M 1172 3481 
Q 1172 3119 1398 2916 
Q 1625 2713 2034 2713 
Q 2441 2713 2670 2916 
Q 2900 3119 2900 3481 
Q 2900 3844 2670 4047 
Q 2441 4250 2034 4250 
Q 1625 4250 1398 4047 
Q 1172 3844 1172 3481 
z
" transform="scale(0.015625)"/>
       </defs>
       <use xlink:href="#DejaVuSans-2212"/>
       <use xlink:href="#DejaVuSans-38" x="83.789062"/>
       <use xlink:href="#DejaVuSans-30" x="147.412109"/>
      </g>
     </g>
    </g>
    <g id="ytick_2">
     <g id="line2d_66">
      <path d="M 48.039375 190.641966 
L 382.839375 190.641966 
" clip-path="url(#pb40ccb54e2)" style="fill: none; stroke: #b0b0b0; stroke-width: 0.5; stroke-linecap: square"/>
     </g>
     <g id="line2d_67">
      <g>
       <use xlink:href="#m63b8ea0d66" x="48.039375" y="190.641966" style="stroke: #000000; stroke-width: 0.5"/>
      </g>
     </g>
     <g id="line2d_68">
      <g>
       <use xlink:href="#m65468c5d07" x="382.839375" y="190.641966" style="stroke: #000000; stroke-width: 0.5"/>
      </g>
     </g>
     <g id="text_9">
      <!-- −60 -->
      <g transform="translate(19.21375 195.201028) scale(0.12 -0.12)">
       <defs>
        <path id="DejaVuSans-36" d="M 2113 2584 
Q 1688 2584 1439 2293 
Q 1191 2003 1191 1497 
Q 1191 994 1439 701 
Q 1688 409 2113 409 
Q 2538 409 2786 701 
Q 3034 994 3034 1497 
Q 3034 2003 2786 2293 
Q 2538 2584 2113 2584 
z
M 3366 4563 
L 3366 3988 
Q 3128 4100 2886 4159 
Q 2644 4219 2406 4219 
Q 1781 4219 1451 3797 
Q 1122 3375 1075 2522 
Q 1259 2794 1537 2939 
Q 1816 3084 2150 3084 
Q 2853 3084 3261 2657 
Q 3669 2231 3669 1497 
Q 3669 778 3244 343 
Q 2819 -91 2113 -91 
Q 1303 -91 875 529 
Q 447 1150 447 2328 
Q 447 3434 972 4092 
Q 1497 4750 2381 4750 
Q 2619 4750 2861 4703 
Q 3103 4656 3366 4563 
z
" transform="scale(0.015625)"/>
       </defs>
       <use xlink:href="#DejaVuSans-2212"/>
       <use xlink:href="#DejaVuSans-36" x="83.789062"/>
       <use xlink:href="#DejaVuSans-30" x="147.412109"/>
      </g>
     </g>
    </g>
    <g id="ytick_3">
     <g id="line2d_69">
      <path d="M 48.039375 148.913513 
L 382.839375 148.913513 
" clip-path="url(#pb40ccb54e2)" style="fill: none; stroke: #b0b0b0; stroke-width: 0.5; stroke-linecap: square"/>
     </g>
     <g id="line2d_70">
      <g>
       <use xlink:href="#m63b8ea0d66" x="48.039375" y="148.913513" style="stroke: #000000; stroke-width: 0.5"/>
      </g>
     </g>
     <g id="line2d_71">
      <g>
       <use xlink:href="#m65468c5d07" x="382.839375" y="148.913513" style="stroke: #000000; stroke-width: 0.5"/>
      </g>
     </g>
     <g id="text_10">
      <!-- −40 -->
      <g transform="translate(19.21375 153.472575) scale(0.12 -0.12)">
       <use xlink:href="#DejaVuSans-2212"/>
       <use xlink:href="#DejaVuSans-34" x="83.789062"/>
       <use xlink:href="#DejaVuSans-30" x="147.412109"/>
      </g>
     </g>
    </g>
    <g id="ytick_4">
     <g id="line2d_72">
      <path d="M 48.039375 107.18506 
L 382.839375 107.18506 
" clip-path="url(#pb40ccb54e2)" style="fill: none; stroke: #b0b0b0; stroke-width: 0.5; stroke-linecap: square"/>
     </g>
     <g id="line2d_73">
      <g>
       <use xlink:href="#m63b8ea0d66" x="48.039375" y="107.18506" style="stroke: #000000; stroke-width: 0.5"/>
      </g>
     </g>
     <g id="line2d_74">
      <g>
       <use xlink:href="#m65468c5d07" x="382.839375" y="107.18506" style="stroke: #000000; stroke-width: 0.5"/>
      </g>
     </g>
     <g id="text_11">
      <!-- −20 -->
      <g transform="translate(19.21375 111.744122) scale(0.12 -0.12)">
       <use xlink:href="#DejaVuSans-2212"/>
       <use xlink:href="#DejaVuSans-32" x="83.789062"/>
       <use xlink:href="#DejaVuSans-30" x="147.412109"/>
      </g>
     </g>
    </g>
    <g id="ytick_5">
     <g id="line2d_75">
      <path d="M 48.039375 65.456607 
L 382.839375 65.456607 
" clip-path="url(#pb40ccb54e2)" style="fill: none; stroke: #b0b0b0; stroke-width: 0.5; stroke-linecap: square"/>
     </g>
     <g id="line2d_76">
      <g>
       <use xlink:href="#m63b8ea0d66" x="48.039375" y="65.456607" style="stroke: #000000; stroke-width: 0.5"/>
      </g>
     </g>
     <g id="line2d_77">
      <g>
       <use xlink:href="#m65468c5d07" x="382.839375" y="65.456607" style="stroke: #000000; stroke-width: 0.5"/>
      </g>
     </g>
     <g id="text_12">
      <!-- 0 -->
      <g transform="translate(36.904375 70.015669) scale(0.12 -0.12)">
       <use xlink:href="#DejaVuSans-30"/>
      </g>
     </g>
    </g>
    <g id="ytick_6">
     <g id="line2d_78">
      <path d="M 48.039375 23.728153 
L 382.839375 23.728153 
" clip-path="url(#pb40ccb54e2)" style="fill: none; stroke: #b0b0b0; stroke-width: 0.5; stroke-linecap: square"/>
     </g>
     <g id="line2d_79">
      <g>
       <use xlink:href="#m63b8ea0d66" x="48.039375" y="23.728153" style="stroke: #000000; stroke-width: 0.5"/>
      </g>
     </g>
     <g id="line2d_80">
      <g>
       <use xlink:href="#m65468c5d07" x="382.839375" y="23.728153" style="stroke: #000000; stroke-width: 0.5"/>
      </g>
     </g>
     <g id="text_13">
      <!-- 20 -->
      <g transform="translate(29.269375 28.287216) scale(0.12 -0.12)">
       <use xlink:href="#DejaVuSans-32"/>
       <use xlink:href="#DejaVuSans-30" x="63.623047"/>
      </g>
     </g>
    </g>
    <g id="ytick_7">
     <g id="line2d_81">
      <defs>
       <path id="me164f62da0" d="M 0 0 
L 1.5 0 
" style="stroke: #000000; stroke-width: 0.5"/>
      </defs>
      <g>
       <use xlink:href="#me164f62da0" x="48.039375" y="242.802532" style="stroke: #000000; stroke-width: 0.5"/>
      </g>
     </g>
     <g id="line2d_82">
      <defs>
       <path id="m7e4d809a51" d="M 0 0 
L -1.5 0 
" style="stroke: #000000; stroke-width: 0.5"/>
      </defs>
      <g>
       <use xlink:href="#m7e4d809a51" x="382.839375" y="242.802532" style="stroke: #000000; stroke-width: 0.5"/>
      </g>
     </g>
    </g>
    <g id="ytick_8">
     <g id="line2d_83">
      <g>
       <use xlink:href="#me164f62da0" x="48.039375" y="221.938306" style="stroke: #000000; stroke-width: 0.5"/>
      </g>
     </g>
     <g id="line2d_84">
      <g>
       <use xlink:href="#m7e4d809a51" x="382.839375" y="221.938306" style="stroke: #000000; stroke-width: 0.5"/>
      </g>
     </g>
    </g>
    <g id="ytick_9">
     <g id="line2d_85">
      <g>
       <use xlink:href="#me164f62da0" x="48.039375" y="211.506192" style="stroke: #000000; stroke-width: 0.5"/>
      </g>
     </g>
     <g id="line2d_86">
      <g>
       <use xlink:href="#m7e4d809a51" x="382.839375" y="211.506192" style="stroke: #000000; stroke-width: 0.5"/>
      </g>
     </g>
    </g>
    <g id="ytick_10">
     <g id="line2d_87">
      <g>
       <use xlink:href="#me164f62da0" x="48.039375" y="201.074079" style="stroke: #000000; stroke-width: 0.5"/>
      </g>
     </g>
     <g id="line2d_88">
      <g>
       <use xlink:href="#m7e4d809a51" x="382.839375" y="201.074079" style="stroke: #000000; stroke-width: 0.5"/>
      </g>
     </g>
    </g>
    <g id="ytick_11">
     <g id="line2d_89">
      <g>
       <use xlink:href="#me164f62da0" x="48.039375" y="180.209853" style="stroke: #000000; stroke-width: 0.5"/>
      </g>
     </g>
     <g id="line2d_90">
      <g>
       <use xlink:href="#m7e4d809a51" x="382.839375" y="180.209853" style="stroke: #000000; stroke-width: 0.5"/>
      </g>
     </g>
    </g>
    <g id="ytick_12">
     <g id="line2d_91">
      <g>
       <use xlink:href="#me164f62da0" x="48.039375" y="169.777739" style="stroke: #000000; stroke-width: 0.5"/>
      </g>
     </g>
     <g id="line2d_92">
      <g>
       <use xlink:href="#m7e4d809a51" x="382.839375" y="169.777739" style="stroke: #000000; stroke-width: 0.5"/>
      </g>
     </g>
    </g>
    <g id="ytick_13">
     <g id="line2d_93">
      <g>
       <use xlink:href="#me164f62da0" x="48.039375" y="159.345626" style="stroke: #000000; stroke-width: 0.5"/>
      </g>
     </g>
     <g id="line2d_94">
      <g>
       <use xlink:href="#m7e4d809a51" x="382.839375" y="159.345626" style="stroke: #000000; stroke-width: 0.5"/>
      </g>
     </g>
    </g>
    <g id="ytick_14">
     <g id="line2d_95">
      <g>
       <use xlink:href="#me164f62da0" x="48.039375" y="138.4814" style="stroke: #000000; stroke-width: 0.5"/>
      </g>
     </g>
     <g id="line2d_96">
      <g>
       <use xlink:href="#m7e4d809a51" x="382.839375" y="138.4814" style="stroke: #000000; stroke-width: 0.5"/>
      </g>
     </g>
    </g>
    <g id="ytick_15">
     <g id="line2d_97">
      <g>
       <use xlink:href="#me164f62da0" x="48.039375" y="128.049286" style="stroke: #000000; stroke-width: 0.5"/>
      </g>
     </g>
     <g id="line2d_98">
      <g>
       <use xlink:href="#m7e4d809a51" x="382.839375" y="128.049286" style="stroke: #000000; stroke-width: 0.5"/>
      </g>
     </g>
    </g>
    <g id="ytick_16">
     <g id="line2d_99">
      <g>
       <use xlink:href="#me164f62da0" x="48.039375" y="117.617173" style="stroke: #000000; stroke-width: 0.5"/>
      </g>
     </g>
     <g id="line2d_100">
      <g>
       <use xlink:href="#m7e4d809a51" x="382.839375" y="117.617173" style="stroke: #000000; stroke-width: 0.5"/>
      </g>
     </g>
    </g>
    <g id="ytick_17">
     <g id="line2d_101">
      <g>
       <use xlink:href="#me164f62da0" x="48.039375" y="96.752946" style="stroke: #000000; stroke-width: 0.5"/>
      </g>
     </g>
     <g id="line2d_102">
      <g>
       <use xlink:href="#m7e4d809a51" x="382.839375" y="96.752946" style="stroke: #000000; stroke-width: 0.5"/>
      </g>
     </g>
    </g>
    <g id="ytick_18">
     <g id="line2d_103">
      <g>
       <use xlink:href="#me164f62da0" x="48.039375" y="86.320833" style="stroke: #000000; stroke-width: 0.5"/>
      </g>
     </g>
     <g id="line2d_104">
      <g>
       <use xlink:href="#m7e4d809a51" x="382.839375" y="86.320833" style="stroke: #000000; stroke-width: 0.5"/>
      </g>
     </g>
    </g>
    <g id="ytick_19">
     <g id="line2d_105">
      <g>
       <use xlink:href="#me164f62da0" x="48.039375" y="75.88872" style="stroke: #000000; stroke-width: 0.5"/>
      </g>
     </g>
     <g id="line2d_106">
      <g>
       <use xlink:href="#m7e4d809a51" x="382.839375" y="75.88872" style="stroke: #000000; stroke-width: 0.5"/>
      </g>
     </g>
    </g>
    <g id="ytick_20">
     <g id="line2d_107">
      <g>
       <use xlink:href="#me164f62da0" x="48.039375" y="55.024493" style="stroke: #000000; stroke-width: 0.5"/>
      </g>
     </g>
     <g id="line2d_108">
      <g>
       <use xlink:href="#m7e4d809a51" x="382.839375" y="55.024493" style="stroke: #000000; stroke-width: 0.5"/>
      </g>
     </g>
    </g>
    <g id="ytick_21">
     <g id="line2d_109">
      <g>
       <use xlink:href="#me164f62da0" x="48.039375" y="44.59238" style="stroke: #000000; stroke-width: 0.5"/>
      </g>
     </g>
     <g id="line2d_110">
      <g>
       <use xlink:href="#m7e4d809a51" x="382.839375" y="44.59238" style="stroke: #000000; stroke-width: 0.5"/>
      </g>
     </g>
    </g>
    <g id="ytick_22">
     <g id="line2d_111">
      <g>
       <use xlink:href="#me164f62da0" x="48.039375" y="34.160267" style="stroke: #000000; stroke-width: 0.5"/>
      </g>
     </g>
     <g id="line2d_112">
      <g>
       <use xlink:href="#m7e4d809a51" x="382.839375" y="34.160267" style="stroke: #000000; stroke-width: 0.5"/>
      </g>
     </g>
    </g>
    <g id="ytick_23">
     <g id="line2d_113">
      <g>
       <use xlink:href="#me164f62da0" x="48.039375" y="13.29604" style="stroke: #000000; stroke-width: 0.5"/>
      </g>
     </g>
     <g id="line2d_114">
      <g>
       <use xlink:href="#m7e4d809a51" x="382.839375" y="13.29604" style="stroke: #000000; stroke-width: 0.5"/>
      </g>
     </g>
    </g>
    <g id="text_14">
     <!-- Fitness -->
     <g transform="translate(12.718125 149.120625) rotate(-90) scale(0.12 -0.12)">
      <defs>
       <path id="DejaVuSans-46" d="M 628 4666 
L 3309 4666 
L 3309 4134 
L 1259 4134 
L 1259 2759 
L 3109 2759 
L 3109 2228 
L 1259 2228 
L 1259 0 
L 628 0 
L 628 4666 
z
" transform="scale(0.015625)"/>
      </defs>
      <use xlink:href="#DejaVuSans-46"/>
      <use xlink:href="#DejaVuSans-69" x="50.269531"/>
      <use xlink:href="#DejaVuSans-74" x="78.052734"/>
      <use xlink:href="#DejaVuSans-6e" x="117.261719"/>
      <use xlink:href="#DejaVuSans-65" x="180.640625"/>
      <use xlink:href="#DejaVuSans-73" x="242.164062"/>
      <use xlink:href="#DejaVuSans-73" x="294.263672"/>
     </g>
    </g>
   </g>
   <g id="line2d_115">
    <path d="M 63.257557 32.444609 
L 65.087398 32.444691 
L 65.697345 31.862928 
L 66.91724 31.86148 
L 67.527187 26.470425 
L 69.357028 26.470387 
L 69.966976 23.116951 
L 73.626659 23.116959 
L 74.236606 21.502721 
L 79.116183 21.502703 
L 79.72613 20.753336 
L 80.336077 18.80928 
L 85.215655 18.809268 
L 85.825602 17.727447 
L 87.655444 17.727408 
L 88.265391 17.533472 
L 88.875338 17.124179 
L 90.705179 17.124157 
L 91.315127 16.083285 
L 105.953859 16.08319 
L 106.563806 15.943721 
L 110.833436 15.84653 
L 113.273225 15.827744 
L 113.883172 15.614282 
L 115.713013 15.614243 
L 116.32296 15.475956 
L 124.252274 15.475932 
L 124.862221 15.228496 
L 130.351745 15.208535 
L 131.57164 15.110453 
L 133.401481 15.110475 
L 134.011428 14.96626 
L 367.621193 14.94002 
L 367.621193 14.94002 
" clip-path="url(#pb40ccb54e2)" style="fill: none; stroke: #000000; stroke-linecap: square"/>
   </g>
   <g id="line2d_116">
    <path d="M 63.257557 25.220381 
L 367.621193 25.220381 
L 367.621193 25.220381 
" clip-path="url(#pb40ccb54e2)" style="fill: none; stroke-dasharray: 3.7,1.6; stroke-dashoffset: 0; stroke: #000000"/>
   </g>
   <g id="patch_3">
    <path d="M 48.039375 253.08 
L 48.039375 3.6 
" style="fill: none; stroke: #000000; stroke-width: 0.5; stroke-linejoin: miter; stroke-linecap: square"/>
   </g>
   <g id="patch_4">
    <path d="M 382.839375 253.08 
L 382.839375 3.6 
" style="fill: none; stroke: #000000; stroke-width: 0.5; stroke-linejoin: miter; stroke-linecap: square"/>
   </g>
   <g id="patch_5">
    <path d="M 48.039375 253.08 
L 382.839375 253.08 
" style="fill: none; stroke: #000000; stroke-width: 0.5; stroke-linejoin: miter; stroke-linecap: square"/>
   </g>
   <g id="patch_6">
    <path d="M 48.039375 3.6 
L 382.839375 3.6 
" style="fill: none; stroke: #000000; stroke-width: 0.5; stroke-linejoin: miter; stroke-linecap: square"/>
   </g>
   <g id="legend_1">
    <g id="patch_7">
     <path d="M 253.92 247.08 
L 374.439375 247.08 
Q 376.839375 247.08 376.839375 244.68 
L 376.839375 193.03875 
Q 376.839375 190.63875 374.439375 190.63875 
L 253.92 190.63875 
Q 251.52 190.63875 251.52 193.03875 
L 251.52 244.68 
Q 251.52 247.08 253.92 247.08 
z
" style="fill: #ffffff; opacity: 0.8; stroke: #cccccc; stroke-linejoin: miter"/>
    </g>
    <g id="line2d_117">
     <path d="M 256.32 200.356875 
L 268.32 200.356875 
L 280.32 200.356875 
" style="fill: none; stroke: #000000; stroke-linecap: square"/>
    </g>
    <g id="text_15">
     <!-- Best fitness -->
     <g transform="translate(289.92 204.556875) scale(0.12 -0.12)">
      <defs>
       <path id="DejaVuSans-42" d="M 1259 2228 
L 1259 519 
L 2272 519 
Q 2781 519 3026 730 
Q 3272 941 3272 1375 
Q 3272 1813 3026 2020 
Q 2781 2228 2272 2228 
L 1259 2228 
z
M 1259 4147 
L 1259 2741 
L 2194 2741 
Q 2656 2741 2882 2914 
Q 3109 3088 3109 3444 
Q 3109 3797 2882 3972 
Q 2656 4147 2194 4147 
L 1259 4147 
z
M 628 4666 
L 2241 4666 
Q 2963 4666 3353 4366 
Q 3744 4066 3744 3513 
Q 3744 3084 3544 2831 
Q 3344 2578 2956 2516 
Q 3422 2416 3680 2098 
Q 3938 1781 3938 1306 
Q 3938 681 3513 340 
Q 3088 0 2303 0 
L 628 0 
L 628 4666 
z
" transform="scale(0.015625)"/>
       <path id="DejaVuSans-20" transform="scale(0.015625)"/>
       <path id="DejaVuSans-66" d="M 2375 4863 
L 2375 4384 
L 1825 4384 
Q 1516 4384 1395 4259 
Q 1275 4134 1275 3809 
L 1275 3500 
L 2222 3500 
L 2222 3053 
L 1275 3053 
L 1275 0 
L 697 0 
L 697 3053 
L 147 3053 
L 147 3500 
L 697 3500 
L 697 3744 
Q 697 4328 969 4595 
Q 1241 4863 1831 4863 
L 2375 4863 
z
" transform="scale(0.015625)"/>
      </defs>
      <use xlink:href="#DejaVuSans-42"/>
      <use xlink:href="#DejaVuSans-65" x="68.603516"/>
      <use xlink:href="#DejaVuSans-73" x="130.126953"/>
      <use xlink:href="#DejaVuSans-74" x="182.226562"/>
      <use xlink:href="#DejaVuSans-20" x="221.435547"/>
      <use xlink:href="#DejaVuSans-66" x="253.222656"/>
      <use xlink:href="#DejaVuSans-69" x="288.427734"/>
      <use xlink:href="#DejaVuSans-74" x="316.210938"/>
      <use xlink:href="#DejaVuSans-6e" x="355.419922"/>
      <use xlink:href="#DejaVuSans-65" x="418.798828"/>
      <use xlink:href="#DejaVuSans-73" x="480.322266"/>
      <use xlink:href="#DejaVuSans-73" x="532.421875"/>
     </g>
    </g>
    <g id="patch_8">
     <path d="M 256.32 222.170625 
L 280.32 222.170625 
L 280.32 213.770625 
L 256.32 213.770625 
z
" style="fill: #0000ff; fill-opacity: 0.2; stroke: #0000ff; stroke-opacity: 0.2; stroke-linejoin: miter"/>
    </g>
    <g id="text_16">
     <!-- Top 90% -->
     <g transform="translate(289.92 222.170625) scale(0.12 -0.12)">
      <defs>
       <path id="DejaVuSans-54" d="M -19 4666 
L 3928 4666 
L 3928 4134 
L 2272 4134 
L 2272 0 
L 1638 0 
L 1638 4134 
L -19 4134 
L -19 4666 
z
" transform="scale(0.015625)"/>
       <path id="DejaVuSans-70" d="M 1159 525 
L 1159 -1331 
L 581 -1331 
L 581 3500 
L 1159 3500 
L 1159 2969 
Q 1341 3281 1617 3432 
Q 1894 3584 2278 3584 
Q 2916 3584 3314 3078 
Q 3713 2572 3713 1747 
Q 3713 922 3314 415 
Q 2916 -91 2278 -91 
Q 1894 -91 1617 61 
Q 1341 213 1159 525 
z
M 3116 1747 
Q 3116 2381 2855 2742 
Q 2594 3103 2138 3103 
Q 1681 3103 1420 2742 
Q 1159 2381 1159 1747 
Q 1159 1113 1420 752 
Q 1681 391 2138 391 
Q 2594 391 2855 752 
Q 3116 1113 3116 1747 
z
" transform="scale(0.015625)"/>
       <path id="DejaVuSans-39" d="M 703 97 
L 703 672 
Q 941 559 1184 500 
Q 1428 441 1663 441 
Q 2288 441 2617 861 
Q 2947 1281 2994 2138 
Q 2813 1869 2534 1725 
Q 2256 1581 1919 1581 
Q 1219 1581 811 2004 
Q 403 2428 403 3163 
Q 403 3881 828 4315 
Q 1253 4750 1959 4750 
Q 2769 4750 3195 4129 
Q 3622 3509 3622 2328 
Q 3622 1225 3098 567 
Q 2575 -91 1691 -91 
Q 1453 -91 1209 -44 
Q 966 3 703 97 
z
M 1959 2075 
Q 2384 2075 2632 2365 
Q 2881 2656 2881 3163 
Q 2881 3666 2632 3958 
Q 2384 4250 1959 4250 
Q 1534 4250 1286 3958 
Q 1038 3666 1038 3163 
Q 1038 2656 1286 2365 
Q 1534 2075 1959 2075 
z
" transform="scale(0.015625)"/>
       <path id="DejaVuSans-25" d="M 4653 2053 
Q 4381 2053 4226 1822 
Q 4072 1591 4072 1178 
Q 4072 772 4226 539 
Q 4381 306 4653 306 
Q 4919 306 5073 539 
Q 5228 772 5228 1178 
Q 5228 1588 5073 1820 
Q 4919 2053 4653 2053 
z
M 4653 2450 
Q 5147 2450 5437 2106 
Q 5728 1763 5728 1178 
Q 5728 594 5436 251 
Q 5144 -91 4653 -91 
Q 4153 -91 3862 251 
Q 3572 594 3572 1178 
Q 3572 1766 3864 2108 
Q 4156 2450 4653 2450 
z
M 1428 4353 
Q 1159 4353 1004 4120 
Q 850 3888 850 3481 
Q 850 3069 1003 2837 
Q 1156 2606 1428 2606 
Q 1700 2606 1854 2837 
Q 2009 3069 2009 3481 
Q 2009 3884 1853 4118 
Q 1697 4353 1428 4353 
z
M 4250 4750 
L 4750 4750 
L 1831 -91 
L 1331 -91 
L 4250 4750 
z
M 1428 4750 
Q 1922 4750 2215 4408 
Q 2509 4066 2509 3481 
Q 2509 2891 2217 2550 
Q 1925 2209 1428 2209 
Q 931 2209 642 2551 
Q 353 2894 353 3481 
Q 353 4063 643 4406 
Q 934 4750 1428 4750 
z
" transform="scale(0.015625)"/>
      </defs>
      <use xlink:href="#DejaVuSans-54"/>
      <use xlink:href="#DejaVuSans-6f" x="44.083984"/>
      <use xlink:href="#DejaVuSans-70" x="105.265625"/>
      <use xlink:href="#DejaVuSans-20" x="168.742188"/>
      <use xlink:href="#DejaVuSans-39" x="200.529297"/>
      <use xlink:href="#DejaVuSans-30" x="264.152344"/>
      <use xlink:href="#DejaVuSans-25" x="327.775391"/>
     </g>
    </g>
    <g id="line2d_118">
     <path d="M 256.32 235.584375 
L 268.32 235.584375 
L 280.32 235.584375 
" style="fill: none; stroke-dasharray: 3.7,1.6; stroke-dashoffset: 0; stroke: #000000"/>
    </g>
    <g id="text_17">
     <!-- 180mm Quad -->
     <g transform="translate(289.92 239.784375) scale(0.12 -0.12)">
      <defs>
       <path id="DejaVuSans-6d" d="M 3328 2828 
Q 3544 3216 3844 3400 
Q 4144 3584 4550 3584 
Q 5097 3584 5394 3201 
Q 5691 2819 5691 2113 
L 5691 0 
L 5113 0 
L 5113 2094 
Q 5113 2597 4934 2840 
Q 4756 3084 4391 3084 
Q 3944 3084 3684 2787 
Q 3425 2491 3425 1978 
L 3425 0 
L 2847 0 
L 2847 2094 
Q 2847 2600 2669 2842 
Q 2491 3084 2119 3084 
Q 1678 3084 1418 2786 
Q 1159 2488 1159 1978 
L 1159 0 
L 581 0 
L 581 3500 
L 1159 3500 
L 1159 2956 
Q 1356 3278 1631 3431 
Q 1906 3584 2284 3584 
Q 2666 3584 2933 3390 
Q 3200 3197 3328 2828 
z
" transform="scale(0.015625)"/>
       <path id="DejaVuSans-51" d="M 2522 4238 
Q 1834 4238 1429 3725 
Q 1025 3213 1025 2328 
Q 1025 1447 1429 934 
Q 1834 422 2522 422 
Q 3209 422 3611 934 
Q 4013 1447 4013 2328 
Q 4013 3213 3611 3725 
Q 3209 4238 2522 4238 
z
M 3406 84 
L 4238 -825 
L 3475 -825 
L 2784 -78 
Q 2681 -84 2626 -87 
Q 2572 -91 2522 -91 
Q 1538 -91 948 567 
Q 359 1225 359 2328 
Q 359 3434 948 4092 
Q 1538 4750 2522 4750 
Q 3503 4750 4090 4092 
Q 4678 3434 4678 2328 
Q 4678 1516 4351 937 
Q 4025 359 3406 84 
z
" transform="scale(0.015625)"/>
       <path id="DejaVuSans-75" d="M 544 1381 
L 544 3500 
L 1119 3500 
L 1119 1403 
Q 1119 906 1312 657 
Q 1506 409 1894 409 
Q 2359 409 2629 706 
Q 2900 1003 2900 1516 
L 2900 3500 
L 3475 3500 
L 3475 0 
L 2900 0 
L 2900 538 
Q 2691 219 2414 64 
Q 2138 -91 1772 -91 
Q 1169 -91 856 284 
Q 544 659 544 1381 
z
M 1991 3584 
L 1991 3584 
z
" transform="scale(0.015625)"/>
       <path id="DejaVuSans-64" d="M 2906 2969 
L 2906 4863 
L 3481 4863 
L 3481 0 
L 2906 0 
L 2906 525 
Q 2725 213 2448 61 
Q 2172 -91 1784 -91 
Q 1150 -91 751 415 
Q 353 922 353 1747 
Q 353 2572 751 3078 
Q 1150 3584 1784 3584 
Q 2172 3584 2448 3432 
Q 2725 3281 2906 2969 
z
M 947 1747 
Q 947 1113 1208 752 
Q 1469 391 1925 391 
Q 2381 391 2643 752 
Q 2906 1113 2906 1747 
Q 2906 2381 2643 2742 
Q 2381 3103 1925 3103 
Q 1469 3103 1208 2742 
Q 947 2381 947 1747 
z
" transform="scale(0.015625)"/>
      </defs>
      <use xlink:href="#DejaVuSans-31"/>
      <use xlink:href="#DejaVuSans-38" x="63.623047"/>
      <use xlink:href="#DejaVuSans-30" x="127.246094"/>
      <use xlink:href="#DejaVuSans-6d" x="190.869141"/>
      <use xlink:href="#DejaVuSans-6d" x="288.28125"/>
      <use xlink:href="#DejaVuSans-20" x="385.693359"/>
      <use xlink:href="#DejaVuSans-51" x="417.480469"/>
      <use xlink:href="#DejaVuSans-75" x="496.191406"/>
      <use xlink:href="#DejaVuSans-61" x="559.570312"/>
      <use xlink:href="#DejaVuSans-64" x="620.849609"/>
     </g>
    </g>
   </g>
  </g>
 </g>
 <defs>
  <clipPath id="pb40ccb54e2">
   <rect x="48.039375" y="3.6" width="334.8" height="249.48"/>
  </clipPath>
 </defs>
</svg>
