<?xml version="1.0" encoding="utf-8" standalone="no"?>
<!DOCTYPE svg PUBLIC "-//W3C//DTD SVG 1.1//EN"
  "http://www.w3.org/Graphics/SVG/1.1/DTD/svg11.dtd">
<svg xmlns:xlink="http://www.w3.org/1999/xlink" width="386.439375pt" height="287.4075pt" viewBox="0 0 386.439375 287.4075" xmlns="http://www.w3.org/2000/svg" version="1.1">
 <metadata>
  <rdf:RDF xmlns:dc="http://purl.org/dc/elements/1.1/" xmlns:cc="http://creativecommons.org/ns#" xmlns:rdf="http://www.w3.org/1999/02/22-rdf-syntax-ns#">
   <cc:Work>
    <dc:type rdf:resource="http://purl.org/dc/dcmitype/StillImage"/>
    <dc:date>2024-06-05T09:17:24.197456</dc:date>
    <dc:format>image/svg+xml</dc:format>
    <dc:creator>
     <cc:Agent>
      <dc:title>Matplotlib v3.9.0, https://matplotlib.org/</dc:title>
     </cc:Agent>
    </dc:creator>
   </cc:Work>
  </rdf:RDF>
 </metadata>
 <defs>
  <style type="text/css">*{stroke-linejoin: round; stroke-linecap: butt}</style>
 </defs>
 <g id="figure_1">
  <g id="patch_1">
   <path d="M 0 287.4075 
L 386.439375 287.4075 
L 386.439375 0 
L 0 0 
z
" style="fill: #ffffff"/>
  </g>
  <g id="axes_1">
   <g id="patch_2">
    <path d="M 48.039375 253.08 
L 382.839375 253.08 
L 382.839375 3.6 
L 48.039375 3.6 
z
" style="fill: #ffffff"/>
   </g>
   <g id="PolyCollection_1">
    <defs>
     <path id="m7d8605b9d7" d="M 63.257557 -246.917507 
L 63.257557 -82.101403 
L 63.867504 -94.580987 
L 64.477451 -100.961982 
L 65.087398 -122.18231 
L 65.697345 -138.313126 
L 66.307293 -147.369941 
L 66.91724 -125.309793 
L 67.527187 -140.026289 
L 68.137134 -152.693382 
L 68.747081 -137.44967 
L 69.357028 -132.994344 
L 69.966976 -148.32018 
L 70.576923 -133.789352 
L 71.18687 -140.518094 
L 71.796817 -120.205693 
L 72.406764 -136.781831 
L 73.016711 -144.254943 
L 73.626659 -144.714201 
L 74.236606 -153.763886 
L 74.846553 -147.601834 
L 75.4565 -158.894428 
L 76.066447 -166.409355 
L 76.676394 -151.125184 
L 77.286342 -156.156913 
L 77.896289 -163.106227 
L 78.506236 -160.745327 
L 79.116183 -160.438121 
L 79.72613 -156.41516 
L 80.336077 -167.012667 
L 80.946025 -163.211391 
L 81.555972 -168.417853 
L 82.165919 -167.818796 
L 82.775866 -169.287143 
L 83.385813 -167.818796 
L 83.99576 -167.818796 
L 84.605708 -169.954907 
L 85.215655 -169.61756 
L 85.825602 -166.970566 
L 86.435549 -169.981966 
L 87.045496 -169.573731 
L 87.655444 -174.912566 
L 88.265391 -175.306236 
L 88.875338 -177.174144 
L 89.485285 -177.256617 
L 90.095232 -179.484323 
L 90.705179 -176.624953 
L 91.315127 -177.595393 
L 91.925074 -177.49131 
L 92.535021 -178.21115 
L 93.144968 -183.539023 
L 93.754915 -184.113955 
L 94.364862 -182.669858 
L 94.97481 -184.709161 
L 95.584757 -186.504078 
L 96.194704 -213.638269 
L 96.804651 -210.979902 
L 97.414598 -217.519383 
L 98.024545 -252.97542 
L 98.634493 -255.966374 
L 99.24444 -256.752737 
L 99.854387 -258.137891 
L 100.464334 -263.366785 
L 101.074281 -262.488152 
L 101.684228 -262.488124 
L 102.294176 -263.311222 
L 102.904123 -263.643169 
L 103.51407 -262.58439 
L 104.124017 -259.585194 
L 104.733964 -259.638445 
L 105.343911 -261.347646 
L 105.953859 -260.368331 
L 106.563806 -261.02146 
L 107.173753 -261.072176 
L 107.7837 -261.012968 
L 108.393647 -264.006152 
L 109.003594 -261.347694 
L 109.613542 -265.176449 
L 110.223489 -264.563297 
L 110.833436 -265.176419 
L 111.443383 -265.505298 
L 112.05333 -265.268883 
L 112.663277 -265.014899 
L 113.273225 -259.588584 
L 113.883172 -261.507557 
L 114.493119 -257.875796 
L 115.103066 -257.234808 
L 115.713013 -260.162682 
L 116.32296 -260.936675 
L 116.932908 -260.966449 
L 117.542855 -261.342381 
L 118.152802 -261.342377 
L 118.762749 -262.205268 
L 119.372696 -262.530262 
L 119.982643 -260.005204 
L 120.592591 -256.62954 
L 121.202538 -259.415441 
L 121.812485 -259.415442 
L 122.422432 -259.415438 
L 123.032379 -261.486981 
L 123.642326 -261.531372 
L 124.252274 -261.280938 
L 124.862221 -260.202826 
L 125.472168 -259.671324 
L 126.082115 -259.671377 
L 126.692062 -260.652101 
L 127.302009 -260.487679 
L 127.911957 -257.195291 
L 128.521904 -256.705834 
L 129.131851 -257.176669 
L 129.741798 -257.699105 
L 130.351745 -261.008924 
L 130.961692 -262.15023 
L 131.57164 -259.24125 
L 132.181587 -257.699067 
L 132.791534 -258.84854 
L 133.401481 -259.152414 
L 134.011428 -260.925779 
L 134.621375 -261.242463 
L 135.231323 -260.045764 
L 135.84127 -258.97455 
L 136.451217 -261.983682 
L 137.061164 -261.691899 
L 137.671111 -260.650253 
L 138.281058 -259.733055 
L 138.891006 -261.108916 
L 139.500953 -261.108917 
L 140.1109 -261.494276 
L 140.720847 -257.147827 
L 141.330794 -256.991763 
L 141.940741 -257.714223 
L 142.550689 -263.08402 
L 143.160636 -265.217789 
L 143.770583 -265.70173 
L 144.38053 -264.81678 
L 144.990477 -259.619642 
L 145.600424 -257.12979 
L 146.210372 -258.130323 
L 146.820319 -264.489714 
L 147.430266 -261.74373 
L 148.040213 -261.208759 
L 148.65016 -258.076428 
L 149.260107 -259.458577 
L 149.870055 -262.215253 
L 150.480002 -265.445484 
L 151.089949 -262.421716 
L 151.699896 -264.529746 
L 152.309843 -258.840158 
L 152.91979 -263.519099 
L 153.529738 -262.136632 
L 154.139685 -264.004827 
L 154.749632 -265.92704 
L 155.359579 -265.144929 
L 155.969526 -263.783932 
L 156.579473 -263.282246 
L 157.189421 -266.34919 
L 157.799368 -261.226452 
L 158.409315 -260.956006 
L 159.019262 -260.956024 
L 159.629209 -259.041563 
L 160.239156 -258.774475 
L 160.849104 -260.522569 
L 161.459051 -261.343413 
L 162.068998 -260.680299 
L 162.678945 -260.80255 
L 163.288892 -262.292178 
L 163.898839 -263.251928 
L 164.508787 -260.815671 
L 165.118734 -258.461204 
L 165.728681 -258.514015 
L 166.338628 -260.831737 
L 166.948575 -263.094623 
L 167.558522 -263.094616 
L 168.16847 -264.549629 
L 168.778417 -263.935807 
L 169.388364 -263.935812 
L 169.998311 -264.925362 
L 170.608258 -264.012991 
L 171.218205 -263.234871 
L 171.828153 -263.031151 
L 172.4381 -258.348606 
L 173.048047 -263.326489 
L 173.657994 -264.597234 
L 174.267941 -265.093567 
L 174.877888 -264.907374 
L 175.487836 -264.721657 
L 176.097783 -264.766464 
L 176.70773 -258.208996 
L 177.317677 -258.147176 
L 177.927624 -260.209275 
L 178.537571 -261.195215 
L 179.147519 -257.862447 
L 179.757466 -260.027771 
L 180.367413 -260.083986 
L 180.97736 -262.985213 
L 181.587307 -263.401634 
L 182.197254 -261.397489 
L 182.807202 -262.65231 
L 183.417149 -261.697415 
L 184.027096 -262.460141 
L 184.637043 -263.580952 
L 185.24699 -262.682696 
L 185.856937 -260.770589 
L 186.466885 -261.348537 
L 187.076832 -262.258839 
L 187.686779 -263.516906 
L 188.296726 -264.173703 
L 188.906673 -263.82031 
L 189.51662 -264.663774 
L 190.126568 -264.758862 
L 190.736515 -264.654212 
L 191.346462 -265.092729 
L 191.956409 -265.421269 
L 192.566356 -264.93569 
L 193.176303 -264.085338 
L 193.786251 -263.352423 
L 194.396198 -263.809752 
L 195.006145 -263.352425 
L 195.616092 -263.352418 
L 196.226039 -264.119366 
L 196.835986 -263.352412 
L 197.445934 -263.261214 
L 198.055881 -263.004946 
L 198.665828 -262.745838 
L 199.275775 -261.798092 
L 199.885722 -263.202551 
L 200.495669 -263.513822 
L 201.105617 -262.064141 
L 201.715564 -262.985879 
L 202.325511 -262.570731 
L 202.935458 -263.263452 
L 203.545405 -263.798326 
L 204.155352 -262.732628 
L 204.7653 -263.798319 
L 205.375247 -261.485439 
L 205.985194 -259.534549 
L 206.595141 -258.9879 
L 207.205088 -256.393478 
L 207.815035 -258.693684 
L 208.424983 -264.170526 
L 209.03493 -264.170527 
L 209.644877 -266.410065 
L 210.254824 -264.969826 
L 210.864771 -264.608551 
L 211.474718 -264.445928 
L 212.084666 -265.882194 
L 212.694613 -265.571014 
L 213.30456 -262.945406 
L 213.914507 -264.052634 
L 214.524454 -263.951438 
L 215.134401 -263.275061 
L 215.744349 -265.079043 
L 216.354296 -264.905891 
L 216.964243 -264.794404 
L 217.57419 -264.218704 
L 218.184137 -266.261027 
L 218.794084 -266.277728 
L 219.404032 -267.330331 
L 220.013979 -264.858579 
L 220.623926 -262.737002 
L 221.233873 -262.803427 
L 221.84382 -264.081567 
L 222.453767 -265.674124 
L 223.063715 -265.418175 
L 223.673662 -264.939209 
L 224.283609 -265.22711 
L 224.893556 -264.639371 
L 225.503503 -265.425424 
L 226.11345 -265.598559 
L 226.723398 -267.904931 
L 227.333345 -267.884882 
L 227.943292 -266.208099 
L 228.553239 -265.114648 
L 229.163186 -261.803168 
L 229.773133 -263.831185 
L 230.383081 -262.071389 
L 230.993028 -264.185455 
L 231.602975 -263.656828 
L 232.212922 -264.785701 
L 232.822869 -263.633526 
L 233.432816 -263.633521 
L 234.042764 -264.242345 
L 234.652711 -263.581423 
L 235.262658 -265.509855 
L 235.872605 -266.43267 
L 236.482552 -264.993378 
L 237.092499 -264.490706 
L 237.702447 -264.24462 
L 238.312394 -262.823009 
L 238.922341 -262.823006 
L 239.532288 -261.819916 
L 240.142235 -260.308904 
L 240.752182 -262.792781 
L 241.36213 -264.812724 
L 241.972077 -264.812724 
L 242.582024 -264.984492 
L 243.191971 -265.213766 
L 243.801918 -266.682931 
L 244.411865 -266.37157 
L 245.021813 -267.073952 
L 245.63176 -266.094282 
L 246.241707 -265.644851 
L 246.851654 -263.005612 
L 247.461601 -265.644872 
L 248.071548 -266.028347 
L 248.681496 -265.78229 
L 249.291443 -265.655169 
L 249.90139 -264.635145 
L 250.511337 -264.785675 
L 251.121284 -264.347943 
L 251.731231 -264.373867 
L 252.341179 -264.525283 
L 252.951126 -264.06419 
L 253.561073 -261.94153 
L 254.17102 -265.850894 
L 254.780967 -266.197438 
L 255.390914 -266.007485 
L 256.000862 -264.100529 
L 256.610809 -264.222034 
L 257.220756 -265.26743 
L 257.830703 -265.663913 
L 258.44065 -264.873073 
L 259.050597 -264.414114 
L 259.660545 -264.479229 
L 260.270492 -263.801835 
L 260.880439 -265.054642 
L 261.490386 -265.054644 
L 262.100333 -265.715375 
L 262.71028 -265.715358 
L 263.320228 -265.715357 
L 263.930175 -265.478966 
L 264.540122 -265.584126 
L 265.150069 -265.073493 
L 265.760016 -266.980604 
L 266.369963 -267.287674 
L 266.979911 -266.29183 
L 267.589858 -265.716531 
L 268.199805 -265.977595 
L 268.809752 -266.231224 
L 269.419699 -266.192838 
L 270.029646 -265.008243 
L 270.639594 -264.682833 
L 271.249541 -266.613261 
L 271.859488 -267.450284 
L 272.469435 -266.498105 
L 273.079382 -267.450289 
L 273.689329 -268.193856 
L 274.299277 -268.220552 
L 274.909224 -266.603563 
L 275.519171 -267.406956 
L 276.129118 -267.626415 
L 276.739065 -267.283489 
L 277.349012 -265.315438 
L 277.95896 -264.984412 
L 278.568907 -264.603864 
L 279.178854 -264.595121 
L 279.788801 -263.89692 
L 280.398748 -264.49184 
L 281.008695 -264.867647 
L 281.618643 -263.896906 
L 282.22859 -264.664474 
L 282.838537 -264.867653 
L 283.448484 -264.619818 
L 284.058431 -264.842532 
L 284.668378 -264.858755 
L 285.278326 -264.917176 
L 285.888273 -264.858788 
L 286.49822 -265.335834 
L 287.108167 -265.40609 
L 287.718114 -265.406091 
L 288.328061 -265.296356 
L 288.938009 -265.836097 
L 289.547956 -265.836099 
L 290.157903 -265.761547 
L 290.76785 -265.669806 
L 291.377797 -264.599759 
L 291.987744 -265.318609 
L 292.597692 -265.407056 
L 293.207639 -264.846659 
L 293.817586 -264.192941 
L 294.427533 -262.423443 
L 295.03748 -261.502045 
L 295.647427 -263.279044 
L 296.257375 -265.311112 
L 296.867322 -265.506585 
L 297.477269 -265.780091 
L 298.087216 -264.28577 
L 298.697163 -262.491205 
L 299.30711 -262.81995 
L 299.917058 -260.211306 
L 300.527005 -261.068518 
L 301.136952 -261.762663 
L 301.746899 -261.761161 
L 302.356846 -262.04605 
L 302.966793 -262.416787 
L 303.576741 -263.958051 
L 304.186688 -263.958059 
L 304.796635 -264.020929 
L 305.406582 -264.610185 
L 306.016529 -264.242693 
L 306.626476 -264.815786 
L 307.236424 -264.663042 
L 307.846371 -265.194685 
L 308.456318 -265.200682 
L 309.066265 -265.470514 
L 309.676212 -265.664742 
L 310.286159 -265.216073 
L 310.896107 -265.647854 
L 311.506054 -264.832221 
L 312.116001 -265.985354 
L 312.725948 -266.335205 
L 313.335895 -264.84434 
L 313.945842 -263.702595 
L 314.55579 -263.702603 
L 315.165737 -264.6469 
L 315.775684 -264.105987 
L 316.385631 -264.105982 
L 316.995578 -265.718015 
L 317.605525 -264.808878 
L 318.215473 -263.825635 
L 318.82542 -264.448078 
L 319.435367 -264.534873 
L 320.045314 -264.534854 
L 320.655261 -263.637333 
L 321.265208 -263.867266 
L 321.875156 -264.65865 
L 322.485103 -262.442373 
L 323.09505 -264.91221 
L 323.704997 -264.658661 
L 324.314944 -264.912206 
L 324.924891 -265.313138 
L 325.534839 -266.96564 
L 326.144786 -266.88441 
L 326.754733 -265.812714 
L 327.36468 -266.484881 
L 327.974627 -265.293823 
L 328.584574 -263.082895 
L 329.194522 -263.028726 
L 329.804469 -263.142382 
L 330.414416 -264.249837 
L 331.024363 -262.172187 
L 331.63431 -263.659937 
L 332.244257 -262.451652 
L 332.854205 -260.731614 
L 333.464152 -263.584415 
L 334.074099 -263.915283 
L 334.684046 -264.344085 
L 335.293993 -265.471638 
L 335.90394 -265.785583 
L 336.513888 -265.785583 
L 337.123835 -264.39375 
L 337.733782 -264.685912 
L 338.343729 -263.405084 
L 338.953676 -264.393713 
L 339.563623 -263.399563 
L 340.173571 -262.653249 
L 340.783518 -262.9784 
L 341.393465 -263.776581 
L 342.003412 -262.883023 
L 342.613359 -262.742354 
L 343.223306 -263.123257 
L 343.833254 -264.063232 
L 344.443201 -264.117567 
L 345.053148 -264.704858 
L 345.663095 -264.882988 
L 346.273042 -264.721793 
L 346.88299 -264.592821 
L 347.492937 -266.797424 
L 348.102884 -266.355611 
L 348.712831 -265.922304 
L 349.322778 -265.154309 
L 349.932725 -261.692853 
L 350.542673 -261.382521 
L 351.15262 -260.537649 
L 351.762567 -260.537644 
L 352.372514 -261.349011 
L 352.982461 -262.744284 
L 353.592408 -263.728505 
L 354.202356 -264.044593 
L 354.812303 -264.366281 
L 355.42225 -263.110527 
L 356.032197 -264.495312 
L 356.642144 -265.193692 
L 357.252091 -264.398324 
L 357.862039 -264.609485 
L 358.471986 -264.154493 
L 359.081933 -262.307486 
L 359.69188 -262.760164 
L 360.301827 -263.610882 
L 360.911774 -265.382948 
L 361.521722 -265.57091 
L 362.131669 -264.494414 
L 362.741616 -263.695782 
L 363.351563 -263.412246 
L 363.96151 -262.729652 
L 364.571457 -263.729006 
L 365.181405 -263.865813 
L 365.791352 -263.311942 
L 366.401299 -262.108011 
L 367.011246 -262.484524 
L 367.621193 -262.714015 
L 367.621193 -272.467473 
L 367.621193 -272.467473 
L 367.011246 -272.467479 
L 366.401299 -272.467473 
L 365.791352 -272.467484 
L 365.181405 -272.467468 
L 364.571457 -272.467479 
L 363.96151 -272.467477 
L 363.351563 -272.467473 
L 362.741616 -272.467484 
L 362.131669 -272.467487 
L 361.521722 -272.46748 
L 360.911774 -272.467496 
L 360.301827 -272.46748 
L 359.69188 -272.467485 
L 359.081933 -272.467481 
L 358.471986 -272.467483 
L 357.862039 -272.467482 
L 357.252091 -272.467484 
L 356.642144 -272.467497 
L 356.032197 -272.467486 
L 355.42225 -272.467474 
L 354.812303 -272.467478 
L 354.202356 -272.467481 
L 353.592408 -272.467479 
L 352.982461 -272.467482 
L 352.372514 -272.467489 
L 351.762567 -272.467474 
L 351.15262 -272.467483 
L 350.542673 -272.467487 
L 349.932725 -272.46749 
L 349.322778 -272.467479 
L 348.712831 -272.467486 
L 348.102884 -272.467473 
L 347.492937 -272.467482 
L 346.88299 -272.467476 
L 346.273042 -272.467485 
L 345.663095 -272.467468 
L 345.053148 -272.467473 
L 344.443201 -272.467484 
L 343.833254 -272.467479 
L 343.223306 -272.467494 
L 342.613359 -272.46748 
L 342.003412 -272.467477 
L 341.393465 -272.467479 
L 340.783518 -272.467479 
L 340.173571 -272.467477 
L 339.563623 -272.467477 
L 338.953676 -272.46748 
L 338.343729 -272.467474 
L 337.733782 -272.467486 
L 337.123835 -272.467489 
L 336.513888 -272.467499 
L 335.90394 -272.46748 
L 335.293993 -272.467482 
L 334.684046 -272.46749 
L 334.074099 -272.467476 
L 333.464152 -272.467484 
L 332.854205 -272.467474 
L 332.244257 -272.46748 
L 331.63431 -272.467483 
L 331.024363 -272.467474 
L 330.414416 -272.467478 
L 329.804469 -272.467481 
L 329.194522 -272.467483 
L 328.584574 -272.467484 
L 327.974627 -272.467478 
L 327.36468 -272.467476 
L 326.754733 -272.467488 
L 326.144786 -272.467473 
L 325.534839 -272.467496 
L 324.924891 -272.46749 
L 324.314944 -272.46748 
L 323.704997 -272.467493 
L 323.09505 -272.467475 
L 322.485103 -272.467486 
L 321.875156 -272.467486 
L 321.265208 -272.46748 
L 320.655261 -272.467473 
L 320.045314 -272.467466 
L 319.435367 -272.467487 
L 318.82542 -272.4675 
L 318.215473 -272.467486 
L 317.605525 -272.467482 
L 316.995578 -272.467487 
L 316.385631 -272.46748 
L 315.775684 -272.467482 
L 315.165737 -272.467479 
L 314.55579 -272.467482 
L 313.945842 -272.467495 
L 313.335895 -272.467486 
L 312.725948 -272.467484 
L 312.116001 -272.467474 
L 311.506054 -272.467476 
L 310.896107 -272.467474 
L 310.286159 -272.46748 
L 309.676212 -272.467485 
L 309.066265 -272.467483 
L 308.456318 -272.467482 
L 307.846371 -272.467492 
L 307.236424 -272.467496 
L 306.626476 -272.46748 
L 306.016529 -272.467487 
L 305.406582 -272.467483 
L 304.796635 -272.467476 
L 304.186688 -272.467485 
L 303.576741 -272.467479 
L 302.966793 -272.467478 
L 302.356846 -272.467457 
L 301.746899 -272.467474 
L 301.136952 -272.467481 
L 300.527005 -272.467471 
L 299.917058 -272.467464 
L 299.30711 -272.467465 
L 298.697163 -272.467474 
L 298.087216 -272.467487 
L 297.477269 -272.467474 
L 296.867322 -272.467485 
L 296.257375 -272.467479 
L 295.647427 -272.467487 
L 295.03748 -272.46747 
L 294.427533 -272.467463 
L 293.817586 -272.467473 
L 293.207639 -272.467467 
L 292.597692 -272.467481 
L 291.987744 -272.467468 
L 291.377797 -272.467467 
L 290.76785 -272.467465 
L 290.157903 -272.467473 
L 289.547956 -272.467454 
L 288.938009 -272.467447 
L 288.328061 -272.467478 
L 287.718114 -272.467437 
L 287.108167 -272.46744 
L 286.49822 -272.442798 
L 285.888273 -272.442807 
L 285.278326 -272.442803 
L 284.668378 -272.442808 
L 284.058431 -272.442805 
L 283.448484 -272.442803 
L 282.838537 -272.442806 
L 282.22859 -272.442802 
L 281.618643 -272.442786 
L 281.008695 -272.4428 
L 280.398748 -272.442798 
L 279.788801 -272.442803 
L 279.178854 -272.442763 
L 278.568907 -272.434928 
L 277.95896 -272.434926 
L 277.349012 -272.434943 
L 276.739065 -272.434932 
L 276.129118 -272.434933 
L 275.519171 -272.434915 
L 274.909224 -272.434909 
L 274.299277 -272.434918 
L 273.689329 -272.413618 
L 273.079382 -272.413617 
L 272.469435 -272.41361 
L 271.859488 -272.413587 
L 271.249541 -272.413607 
L 270.639594 -272.411129 
L 270.029646 -272.41111 
L 269.419699 -272.411133 
L 268.809752 -272.411101 
L 268.199805 -272.411046 
L 267.589858 -272.384475 
L 266.979911 -272.384477 
L 266.369963 -272.384476 
L 265.760016 -272.384478 
L 265.150069 -272.384478 
L 264.540122 -272.384477 
L 263.930175 -272.384471 
L 263.320228 -272.384476 
L 262.71028 -272.384473 
L 262.100333 -272.384475 
L 261.490386 -272.384477 
L 260.880439 -272.384478 
L 260.270492 -272.384479 
L 259.660545 -272.38448 
L 259.050597 -272.38447 
L 258.44065 -272.384474 
L 257.830703 -272.38447 
L 257.220756 -272.384475 
L 256.610809 -272.384481 
L 256.000862 -272.384477 
L 255.390914 -272.384479 
L 254.780967 -272.384476 
L 254.17102 -272.384475 
L 253.561073 -272.384471 
L 252.951126 -272.384477 
L 252.341179 -272.384472 
L 251.731231 -272.384476 
L 251.121284 -272.384475 
L 250.511337 -272.384477 
L 249.90139 -272.384479 
L 249.291443 -272.384473 
L 248.681496 -272.384478 
L 248.071548 -272.384476 
L 247.461601 -272.384479 
L 246.851654 -272.384481 
L 246.241707 -272.384473 
L 245.63176 -272.384478 
L 245.021813 -272.38447 
L 244.411865 -272.384479 
L 243.801918 -272.384432 
L 243.191971 -272.384466 
L 242.582024 -272.38446 
L 241.972077 -272.361881 
L 241.36213 -272.36188 
L 240.752182 -272.361878 
L 240.142235 -272.361881 
L 239.532288 -272.361878 
L 238.922341 -272.361881 
L 238.312394 -272.361883 
L 237.702447 -272.361873 
L 237.092499 -272.361879 
L 236.482552 -272.36188 
L 235.872605 -272.361882 
L 235.262658 -272.361877 
L 234.652711 -272.361878 
L 234.042764 -272.361872 
L 233.432816 -272.361872 
L 232.822869 -272.36186 
L 232.212922 -272.361868 
L 231.602975 -272.320611 
L 230.993028 -272.320607 
L 230.383081 -272.320617 
L 229.773133 -272.320607 
L 229.163186 -272.320622 
L 228.553239 -272.320618 
L 227.943292 -272.320611 
L 227.333345 -272.320608 
L 226.723398 -272.320601 
L 226.11345 -272.320597 
L 225.503503 -272.320599 
L 224.893556 -272.320607 
L 224.283609 -272.320613 
L 223.673662 -272.320607 
L 223.063715 -272.320597 
L 222.453767 -272.320598 
L 221.84382 -272.320584 
L 221.233873 -272.320565 
L 220.623926 -272.25269 
L 220.013979 -272.252682 
L 219.404032 -272.252686 
L 218.794084 -272.252674 
L 218.184137 -272.252687 
L 217.57419 -272.252669 
L 216.964243 -272.252687 
L 216.354296 -272.252674 
L 215.744349 -272.192581 
L 215.134401 -272.189814 
L 214.524454 -272.189798 
L 213.914507 -272.189798 
L 213.30456 -272.189821 
L 212.694613 -272.11492 
L 212.084666 -272.114912 
L 211.474718 -272.114924 
L 210.864771 -272.114921 
L 210.254824 -272.114916 
L 209.644877 -272.114921 
L 209.03493 -272.114918 
L 208.424983 -272.114923 
L 207.815035 -272.114923 
L 207.205088 -272.114915 
L 206.595141 -272.114919 
L 205.985194 -272.114911 
L 205.375247 -272.114916 
L 204.7653 -272.114914 
L 204.155352 -272.114899 
L 203.545405 -272.114909 
L 202.935458 -272.114893 
L 202.325511 -272.11484 
L 201.715564 -272.11488 
L 201.105617 -272.11489 
L 200.495669 -272.114896 
L 199.885722 -272.081992 
L 199.275775 -272.081997 
L 198.665828 -272.081993 
L 198.055881 -272.081994 
L 197.445934 -272.081983 
L 196.835986 -271.936533 
L 196.226039 -271.936548 
L 195.616092 -271.93651 
L 195.006145 -271.936516 
L 194.396198 -271.936516 
L 193.786251 -271.936542 
L 193.176303 -271.936514 
L 192.566356 -271.936535 
L 191.956409 -271.936519 
L 191.346462 -271.936484 
L 190.736515 -271.936499 
L 190.126568 -271.936513 
L 189.51662 -271.936504 
L 188.906673 -271.93648 
L 188.296726 -271.936516 
L 187.686779 -271.93649 
L 187.076832 -271.936526 
L 186.466885 -271.376493 
L 185.856937 -271.376491 
L 185.24699 -271.262039 
L 184.637043 -271.23626 
L 184.027096 -271.236268 
L 183.417149 -271.236245 
L 182.807202 -271.236267 
L 182.197254 -271.234674 
L 181.587307 -271.120003 
L 180.97736 -271.109136 
L 180.367413 -271.109142 
L 179.757466 -270.961742 
L 179.147519 -270.961724 
L 178.537571 -270.961715 
L 177.927624 -270.824464 
L 177.317677 -270.824441 
L 176.70773 -270.824451 
L 176.097783 -270.824433 
L 175.487836 -270.824413 
L 174.877888 -270.82442 
L 174.267941 -270.824329 
L 173.657994 -270.824416 
L 173.048047 -270.824451 
L 172.4381 -270.816183 
L 171.828153 -270.816195 
L 171.218205 -270.816194 
L 170.608258 -270.805373 
L 169.998311 -270.805393 
L 169.388364 -270.805381 
L 168.778417 -270.805361 
L 168.16847 -270.805365 
L 167.558522 -270.805365 
L 166.948575 -270.805357 
L 166.338628 -270.80535 
L 165.728681 -270.805362 
L 165.118734 -270.805358 
L 164.508787 -270.805345 
L 163.898839 -270.805346 
L 163.288892 -270.805356 
L 162.678945 -270.805368 
L 162.068998 -270.805342 
L 161.459051 -270.805346 
L 160.849104 -270.805337 
L 160.239156 -270.805316 
L 159.629209 -270.799398 
L 159.019262 -270.799401 
L 158.409315 -270.7994 
L 157.799368 -270.799405 
L 157.189421 -270.799391 
L 156.579473 -270.799396 
L 155.969526 -270.799384 
L 155.359579 -270.799401 
L 154.749632 -270.799403 
L 154.139685 -270.799385 
L 153.529738 -270.799387 
L 152.91979 -270.79939 
L 152.309843 -270.799382 
L 151.699896 -270.799394 
L 151.089949 -270.799402 
L 150.480002 -270.799395 
L 149.870055 -270.79938 
L 149.260107 -270.799389 
L 148.65016 -270.799405 
L 148.040213 -270.799397 
L 147.430266 -270.799391 
L 146.820319 -270.79938 
L 146.210372 -270.799403 
L 145.600424 -270.799382 
L 144.990477 -270.799381 
L 144.38053 -270.79939 
L 143.770583 -270.799396 
L 143.160636 -270.799394 
L 142.550689 -270.799394 
L 141.940741 -270.79939 
L 141.330794 -270.799383 
L 140.720847 -270.799384 
L 140.1109 -270.799392 
L 139.500953 -270.799383 
L 138.891006 -270.799384 
L 138.281058 -270.799394 
L 137.671111 -270.799375 
L 137.061164 -270.799374 
L 136.451217 -270.799382 
L 135.84127 -270.799377 
L 135.231323 -270.799393 
L 134.621375 -270.799391 
L 134.011428 -270.799385 
L 133.401481 -270.799394 
L 132.791534 -270.799397 
L 132.181587 -270.799404 
L 131.57164 -270.799364 
L 130.961692 -270.799404 
L 130.351745 -270.799404 
L 129.741798 -270.799402 
L 129.131851 -270.799392 
L 128.521904 -270.79939 
L 127.911957 -270.799393 
L 127.302009 -270.799396 
L 126.692062 -270.799384 
L 126.082115 -270.799377 
L 125.472168 -270.799399 
L 124.862221 -270.799398 
L 124.252274 -270.799406 
L 123.642326 -270.799381 
L 123.032379 -270.79939 
L 122.422432 -270.799396 
L 121.812485 -270.799379 
L 121.202538 -270.799386 
L 120.592591 -270.799382 
L 119.982643 -270.799384 
L 119.372696 -270.799377 
L 118.762749 -270.79936 
L 118.152802 -270.799397 
L 117.542855 -270.799374 
L 116.932908 -270.799366 
L 116.32296 -270.799327 
L 115.713013 -270.799403 
L 115.103066 -270.799355 
L 114.493119 -270.799284 
L 113.883172 -270.743032 
L 113.273225 -270.742992 
L 112.663277 -270.743007 
L 112.05333 -270.743008 
L 111.443383 -270.74301 
L 110.833436 -270.743008 
L 110.223489 -270.742981 
L 109.613542 -270.742991 
L 109.003594 -270.743012 
L 108.393647 -270.742987 
L 107.7837 -270.742987 
L 107.173753 -270.742956 
L 106.563806 -270.742952 
L 105.953859 -270.742969 
L 105.343911 -270.742925 
L 104.733964 -270.742946 
L 104.124017 -270.742954 
L 103.51407 -270.72391 
L 102.904123 -270.723946 
L 102.294176 -270.723943 
L 101.684228 -270.723914 
L 101.074281 -270.723923 
L 100.464334 -270.723863 
L 99.854387 -270.723915 
L 99.24444 -270.723921 
L 98.634493 -270.459707 
L 98.024545 -270.178555 
L 97.414598 -269.879018 
L 96.804651 -269.870292 
L 96.194704 -269.616005 
L 95.584757 -269.616028 
L 94.97481 -269.401302 
L 94.364862 -269.09577 
L 93.754915 -269.095768 
L 93.144968 -269.095764 
L 92.535021 -269.095761 
L 91.925074 -269.095771 
L 91.315127 -269.095754 
L 90.705179 -269.095754 
L 90.095232 -269.095762 
L 89.485285 -269.095757 
L 88.875338 -269.095741 
L 88.265391 -269.095759 
L 87.655444 -269.095757 
L 87.045496 -269.095768 
L 86.435549 -263.678467 
L 85.825602 -263.491548 
L 85.215655 -263.491557 
L 84.605708 -263.491541 
L 83.99576 -263.491521 
L 83.385813 -263.491541 
L 82.775866 -262.593341 
L 82.165919 -260.695664 
L 81.555972 -260.695674 
L 80.946025 -260.695704 
L 80.336077 -260.695667 
L 79.72613 -260.69568 
L 79.116183 -260.695695 
L 78.506236 -260.6957 
L 77.896289 -260.695686 
L 77.286342 -259.934312 
L 76.676394 -259.934324 
L 76.066447 -259.934295 
L 75.4565 -259.934321 
L 74.846553 -259.93429 
L 74.236606 -259.934322 
L 73.626659 -259.934321 
L 73.016711 -255.350713 
L 72.406764 -255.350713 
L 71.796817 -255.350712 
L 71.18687 -255.350712 
L 70.576923 -255.350712 
L 69.966976 -255.350713 
L 69.357028 -255.350713 
L 68.747081 -246.917253 
L 68.137134 -246.916961 
L 67.527187 -246.917304 
L 66.91724 -246.914273 
L 66.307293 -246.915448 
L 65.697345 -246.917019 
L 65.087398 -246.916661 
L 64.477451 -246.916212 
L 63.867504 -246.916783 
L 63.257557 -246.917507 
z
" style="stroke: #0000ff; stroke-opacity: 0.2"/>
    </defs>
    <g clip-path="url(#p03184be1e2)">
     <use xlink:href="#m7d8605b9d7" x="0" y="287.4075" style="fill: #0000ff; fill-opacity: 0.2; stroke: #0000ff; stroke-opacity: 0.2"/>
    </g>
   </g>
   <g id="matplotlib.axis_1">
    <g id="xtick_1">
     <g id="line2d_1">
      <path d="M 63.257557 253.08 
L 63.257557 3.6 
" clip-path="url(#p03184be1e2)" style="fill: none; stroke: #b0b0b0; stroke-width: 0.5; stroke-linecap: square"/>
     </g>
     <g id="line2d_2">
      <defs>
       <path id="m17988ceb40" d="M 0 0 
L 0 -3 
" style="stroke: #000000; stroke-width: 0.5"/>
      </defs>
      <g>
       <use xlink:href="#m17988ceb40" x="63.257557" y="253.08" style="stroke: #000000; stroke-width: 0.5"/>
      </g>
     </g>
     <g id="line2d_3">
      <defs>
       <path id="m22abe35c1a" d="M 0 0 
L 0 3 
" style="stroke: #000000; stroke-width: 0.5"/>
      </defs>
      <g>
       <use xlink:href="#m22abe35c1a" x="63.257557" y="3.6" style="stroke: #000000; stroke-width: 0.5"/>
      </g>
     </g>
     <g id="text_1">
      <!-- 0 -->
      <g transform="translate(59.440057 265.698125) scale(0.12 -0.12)">
       <defs>
        <path id="DejaVuSans-30" d="M 2034 4250 
Q 1547 4250 1301 3770 
Q 1056 3291 1056 2328 
Q 1056 1369 1301 889 
Q 1547 409 2034 409 
Q 2525 409 2770 889 
Q 3016 1369 3016 2328 
Q 3016 3291 2770 3770 
Q 2525 4250 2034 4250 
z
M 2034 4750 
Q 2819 4750 3233 4129 
Q 3647 3509 3647 2328 
Q 3647 1150 3233 529 
Q 2819 -91 2034 -91 
Q 1250 -91 836 529 
Q 422 1150 422 2328 
Q 422 3509 836 4129 
Q 1250 4750 2034 4750 
z
" transform="scale(0.015625)"/>
       </defs>
       <use xlink:href="#DejaVuSans-30"/>
      </g>
     </g>
    </g>
    <g id="xtick_2">
     <g id="line2d_4">
      <path d="M 124.252274 253.08 
L 124.252274 3.6 
" clip-path="url(#p03184be1e2)" style="fill: none; stroke: #b0b0b0; stroke-width: 0.5; stroke-linecap: square"/>
     </g>
     <g id="line2d_5">
      <g>
       <use xlink:href="#m17988ceb40" x="124.252274" y="253.08" style="stroke: #000000; stroke-width: 0.5"/>
      </g>
     </g>
     <g id="line2d_6">
      <g>
       <use xlink:href="#m22abe35c1a" x="124.252274" y="3.6" style="stroke: #000000; stroke-width: 0.5"/>
      </g>
     </g>
     <g id="text_2">
      <!-- 100 -->
      <g transform="translate(112.799774 265.698125) scale(0.12 -0.12)">
       <defs>
        <path id="DejaVuSans-31" d="M 794 531 
L 1825 531 
L 1825 4091 
L 703 3866 
L 703 4441 
L 1819 4666 
L 2450 4666 
L 2450 531 
L 3481 531 
L 3481 0 
L 794 0 
L 794 531 
z
" transform="scale(0.015625)"/>
       </defs>
       <use xlink:href="#DejaVuSans-31"/>
       <use xlink:href="#DejaVuSans-30" x="63.623047"/>
       <use xlink:href="#DejaVuSans-30" x="127.246094"/>
      </g>
     </g>
    </g>
    <g id="xtick_3">
     <g id="line2d_7">
      <path d="M 185.24699 253.08 
L 185.24699 3.6 
" clip-path="url(#p03184be1e2)" style="fill: none; stroke: #b0b0b0; stroke-width: 0.5; stroke-linecap: square"/>
     </g>
     <g id="line2d_8">
      <g>
       <use xlink:href="#m17988ceb40" x="185.24699" y="253.08" style="stroke: #000000; stroke-width: 0.5"/>
      </g>
     </g>
     <g id="line2d_9">
      <g>
       <use xlink:href="#m22abe35c1a" x="185.24699" y="3.6" style="stroke: #000000; stroke-width: 0.5"/>
      </g>
     </g>
     <g id="text_3">
      <!-- 200 -->
      <g transform="translate(173.79449 265.698125) scale(0.12 -0.12)">
       <defs>
        <path id="DejaVuSans-32" d="M 1228 531 
L 3431 531 
L 3431 0 
L 469 0 
L 469 531 
Q 828 903 1448 1529 
Q 2069 2156 2228 2338 
Q 2531 2678 2651 2914 
Q 2772 3150 2772 3378 
Q 2772 3750 2511 3984 
Q 2250 4219 1831 4219 
Q 1534 4219 1204 4116 
Q 875 4013 500 3803 
L 500 4441 
Q 881 4594 1212 4672 
Q 1544 4750 1819 4750 
Q 2544 4750 2975 4387 
Q 3406 4025 3406 3419 
Q 3406 3131 3298 2873 
Q 3191 2616 2906 2266 
Q 2828 2175 2409 1742 
Q 1991 1309 1228 531 
z
" transform="scale(0.015625)"/>
       </defs>
       <use xlink:href="#DejaVuSans-32"/>
       <use xlink:href="#DejaVuSans-30" x="63.623047"/>
       <use xlink:href="#DejaVuSans-30" x="127.246094"/>
      </g>
     </g>
    </g>
    <g id="xtick_4">
     <g id="line2d_10">
      <path d="M 246.241707 253.08 
L 246.241707 3.6 
" clip-path="url(#p03184be1e2)" style="fill: none; stroke: #b0b0b0; stroke-width: 0.5; stroke-linecap: square"/>
     </g>
     <g id="line2d_11">
      <g>
       <use xlink:href="#m17988ceb40" x="246.241707" y="253.08" style="stroke: #000000; stroke-width: 0.5"/>
      </g>
     </g>
     <g id="line2d_12">
      <g>
       <use xlink:href="#m22abe35c1a" x="246.241707" y="3.6" style="stroke: #000000; stroke-width: 0.5"/>
      </g>
     </g>
     <g id="text_4">
      <!-- 300 -->
      <g transform="translate(234.789207 265.698125) scale(0.12 -0.12)">
       <defs>
        <path id="DejaVuSans-33" d="M 2597 2516 
Q 3050 2419 3304 2112 
Q 3559 1806 3559 1356 
Q 3559 666 3084 287 
Q 2609 -91 1734 -91 
Q 1441 -91 1130 -33 
Q 819 25 488 141 
L 488 750 
Q 750 597 1062 519 
Q 1375 441 1716 441 
Q 2309 441 2620 675 
Q 2931 909 2931 1356 
Q 2931 1769 2642 2001 
Q 2353 2234 1838 2234 
L 1294 2234 
L 1294 2753 
L 1863 2753 
Q 2328 2753 2575 2939 
Q 2822 3125 2822 3475 
Q 2822 3834 2567 4026 
Q 2313 4219 1838 4219 
Q 1578 4219 1281 4162 
Q 984 4106 628 3988 
L 628 4550 
Q 988 4650 1302 4700 
Q 1616 4750 1894 4750 
Q 2613 4750 3031 4423 
Q 3450 4097 3450 3541 
Q 3450 3153 3228 2886 
Q 3006 2619 2597 2516 
z
" transform="scale(0.015625)"/>
       </defs>
       <use xlink:href="#DejaVuSans-33"/>
       <use xlink:href="#DejaVuSans-30" x="63.623047"/>
       <use xlink:href="#DejaVuSans-30" x="127.246094"/>
      </g>
     </g>
    </g>
    <g id="xtick_5">
     <g id="line2d_13">
      <path d="M 307.236424 253.08 
L 307.236424 3.6 
" clip-path="url(#p03184be1e2)" style="fill: none; stroke: #b0b0b0; stroke-width: 0.5; stroke-linecap: square"/>
     </g>
     <g id="line2d_14">
      <g>
       <use xlink:href="#m17988ceb40" x="307.236424" y="253.08" style="stroke: #000000; stroke-width: 0.5"/>
      </g>
     </g>
     <g id="line2d_15">
      <g>
       <use xlink:href="#m22abe35c1a" x="307.236424" y="3.6" style="stroke: #000000; stroke-width: 0.5"/>
      </g>
     </g>
     <g id="text_5">
      <!-- 400 -->
      <g transform="translate(295.783924 265.698125) scale(0.12 -0.12)">
       <defs>
        <path id="DejaVuSans-34" d="M 2419 4116 
L 825 1625 
L 2419 1625 
L 2419 4116 
z
M 2253 4666 
L 3047 4666 
L 3047 1625 
L 3713 1625 
L 3713 1100 
L 3047 1100 
L 3047 0 
L 2419 0 
L 2419 1100 
L 313 1100 
L 313 1709 
L 2253 4666 
z
" transform="scale(0.015625)"/>
       </defs>
       <use xlink:href="#DejaVuSans-34"/>
       <use xlink:href="#DejaVuSans-30" x="63.623047"/>
       <use xlink:href="#DejaVuSans-30" x="127.246094"/>
      </g>
     </g>
    </g>
    <g id="xtick_6">
     <g id="line2d_16">
      <path d="M 368.23114 253.08 
L 368.23114 3.6 
" clip-path="url(#p03184be1e2)" style="fill: none; stroke: #b0b0b0; stroke-width: 0.5; stroke-linecap: square"/>
     </g>
     <g id="line2d_17">
      <g>
       <use xlink:href="#m17988ceb40" x="368.23114" y="253.08" style="stroke: #000000; stroke-width: 0.5"/>
      </g>
     </g>
     <g id="line2d_18">
      <g>
       <use xlink:href="#m22abe35c1a" x="368.23114" y="3.6" style="stroke: #000000; stroke-width: 0.5"/>
      </g>
     </g>
     <g id="text_6">
      <!-- 500 -->
      <g transform="translate(356.77864 265.698125) scale(0.12 -0.12)">
       <defs>
        <path id="DejaVuSans-35" d="M 691 4666 
L 3169 4666 
L 3169 4134 
L 1269 4134 
L 1269 2991 
Q 1406 3038 1543 3061 
Q 1681 3084 1819 3084 
Q 2600 3084 3056 2656 
Q 3513 2228 3513 1497 
Q 3513 744 3044 326 
Q 2575 -91 1722 -91 
Q 1428 -91 1123 -41 
Q 819 9 494 109 
L 494 744 
Q 775 591 1075 516 
Q 1375 441 1709 441 
Q 2250 441 2565 725 
Q 2881 1009 2881 1497 
Q 2881 1984 2565 2268 
Q 2250 2553 1709 2553 
Q 1456 2553 1204 2497 
Q 953 2441 691 2322 
L 691 4666 
z
" transform="scale(0.015625)"/>
       </defs>
       <use xlink:href="#DejaVuSans-35"/>
       <use xlink:href="#DejaVuSans-30" x="63.623047"/>
       <use xlink:href="#DejaVuSans-30" x="127.246094"/>
      </g>
     </g>
    </g>
    <g id="xtick_7">
     <g id="line2d_19">
      <defs>
       <path id="mb531feb71e" d="M 0 0 
L 0 -1.5 
" style="stroke: #000000; stroke-width: 0.5"/>
      </defs>
      <g>
       <use xlink:href="#mb531feb71e" x="51.058613" y="253.08" style="stroke: #000000; stroke-width: 0.5"/>
      </g>
     </g>
     <g id="line2d_20">
      <defs>
       <path id="m5b89b1d5d3" d="M 0 0 
L 0 1.5 
" style="stroke: #000000; stroke-width: 0.5"/>
      </defs>
      <g>
       <use xlink:href="#m5b89b1d5d3" x="51.058613" y="3.6" style="stroke: #000000; stroke-width: 0.5"/>
      </g>
     </g>
    </g>
    <g id="xtick_8">
     <g id="line2d_21">
      <g>
       <use xlink:href="#mb531feb71e" x="75.4565" y="253.08" style="stroke: #000000; stroke-width: 0.5"/>
      </g>
     </g>
     <g id="line2d_22">
      <g>
       <use xlink:href="#m5b89b1d5d3" x="75.4565" y="3.6" style="stroke: #000000; stroke-width: 0.5"/>
      </g>
     </g>
    </g>
    <g id="xtick_9">
     <g id="line2d_23">
      <g>
       <use xlink:href="#mb531feb71e" x="87.655444" y="253.08" style="stroke: #000000; stroke-width: 0.5"/>
      </g>
     </g>
     <g id="line2d_24">
      <g>
       <use xlink:href="#m5b89b1d5d3" x="87.655444" y="3.6" style="stroke: #000000; stroke-width: 0.5"/>
      </g>
     </g>
    </g>
    <g id="xtick_10">
     <g id="line2d_25">
      <g>
       <use xlink:href="#mb531feb71e" x="99.854387" y="253.08" style="stroke: #000000; stroke-width: 0.5"/>
      </g>
     </g>
     <g id="line2d_26">
      <g>
       <use xlink:href="#m5b89b1d5d3" x="99.854387" y="3.6" style="stroke: #000000; stroke-width: 0.5"/>
      </g>
     </g>
    </g>
    <g id="xtick_11">
     <g id="line2d_27">
      <g>
       <use xlink:href="#mb531feb71e" x="112.05333" y="253.08" style="stroke: #000000; stroke-width: 0.5"/>
      </g>
     </g>
     <g id="line2d_28">
      <g>
       <use xlink:href="#m5b89b1d5d3" x="112.05333" y="3.6" style="stroke: #000000; stroke-width: 0.5"/>
      </g>
     </g>
    </g>
    <g id="xtick_12">
     <g id="line2d_29">
      <g>
       <use xlink:href="#mb531feb71e" x="136.451217" y="253.08" style="stroke: #000000; stroke-width: 0.5"/>
      </g>
     </g>
     <g id="line2d_30">
      <g>
       <use xlink:href="#m5b89b1d5d3" x="136.451217" y="3.6" style="stroke: #000000; stroke-width: 0.5"/>
      </g>
     </g>
    </g>
    <g id="xtick_13">
     <g id="line2d_31">
      <g>
       <use xlink:href="#mb531feb71e" x="148.65016" y="253.08" style="stroke: #000000; stroke-width: 0.5"/>
      </g>
     </g>
     <g id="line2d_32">
      <g>
       <use xlink:href="#m5b89b1d5d3" x="148.65016" y="3.6" style="stroke: #000000; stroke-width: 0.5"/>
      </g>
     </g>
    </g>
    <g id="xtick_14">
     <g id="line2d_33">
      <g>
       <use xlink:href="#mb531feb71e" x="160.849104" y="253.08" style="stroke: #000000; stroke-width: 0.5"/>
      </g>
     </g>
     <g id="line2d_34">
      <g>
       <use xlink:href="#m5b89b1d5d3" x="160.849104" y="3.6" style="stroke: #000000; stroke-width: 0.5"/>
      </g>
     </g>
    </g>
    <g id="xtick_15">
     <g id="line2d_35">
      <g>
       <use xlink:href="#mb531feb71e" x="173.048047" y="253.08" style="stroke: #000000; stroke-width: 0.5"/>
      </g>
     </g>
     <g id="line2d_36">
      <g>
       <use xlink:href="#m5b89b1d5d3" x="173.048047" y="3.6" style="stroke: #000000; stroke-width: 0.5"/>
      </g>
     </g>
    </g>
    <g id="xtick_16">
     <g id="line2d_37">
      <g>
       <use xlink:href="#mb531feb71e" x="197.445934" y="253.08" style="stroke: #000000; stroke-width: 0.5"/>
      </g>
     </g>
     <g id="line2d_38">
      <g>
       <use xlink:href="#m5b89b1d5d3" x="197.445934" y="3.6" style="stroke: #000000; stroke-width: 0.5"/>
      </g>
     </g>
    </g>
    <g id="xtick_17">
     <g id="line2d_39">
      <g>
       <use xlink:href="#mb531feb71e" x="209.644877" y="253.08" style="stroke: #000000; stroke-width: 0.5"/>
      </g>
     </g>
     <g id="line2d_40">
      <g>
       <use xlink:href="#m5b89b1d5d3" x="209.644877" y="3.6" style="stroke: #000000; stroke-width: 0.5"/>
      </g>
     </g>
    </g>
    <g id="xtick_18">
     <g id="line2d_41">
      <g>
       <use xlink:href="#mb531feb71e" x="221.84382" y="253.08" style="stroke: #000000; stroke-width: 0.5"/>
      </g>
     </g>
     <g id="line2d_42">
      <g>
       <use xlink:href="#m5b89b1d5d3" x="221.84382" y="3.6" style="stroke: #000000; stroke-width: 0.5"/>
      </g>
     </g>
    </g>
    <g id="xtick_19">
     <g id="line2d_43">
      <g>
       <use xlink:href="#mb531feb71e" x="234.042764" y="253.08" style="stroke: #000000; stroke-width: 0.5"/>
      </g>
     </g>
     <g id="line2d_44">
      <g>
       <use xlink:href="#m5b89b1d5d3" x="234.042764" y="3.6" style="stroke: #000000; stroke-width: 0.5"/>
      </g>
     </g>
    </g>
    <g id="xtick_20">
     <g id="line2d_45">
      <g>
       <use xlink:href="#mb531feb71e" x="258.44065" y="253.08" style="stroke: #000000; stroke-width: 0.5"/>
      </g>
     </g>
     <g id="line2d_46">
      <g>
       <use xlink:href="#m5b89b1d5d3" x="258.44065" y="3.6" style="stroke: #000000; stroke-width: 0.5"/>
      </g>
     </g>
    </g>
    <g id="xtick_21">
     <g id="line2d_47">
      <g>
       <use xlink:href="#mb531feb71e" x="270.639594" y="253.08" style="stroke: #000000; stroke-width: 0.5"/>
      </g>
     </g>
     <g id="line2d_48">
      <g>
       <use xlink:href="#m5b89b1d5d3" x="270.639594" y="3.6" style="stroke: #000000; stroke-width: 0.5"/>
      </g>
     </g>
    </g>
    <g id="xtick_22">
     <g id="line2d_49">
      <g>
       <use xlink:href="#mb531feb71e" x="282.838537" y="253.08" style="stroke: #000000; stroke-width: 0.5"/>
      </g>
     </g>
     <g id="line2d_50">
      <g>
       <use xlink:href="#m5b89b1d5d3" x="282.838537" y="3.6" style="stroke: #000000; stroke-width: 0.5"/>
      </g>
     </g>
    </g>
    <g id="xtick_23">
     <g id="line2d_51">
      <g>
       <use xlink:href="#mb531feb71e" x="295.03748" y="253.08" style="stroke: #000000; stroke-width: 0.5"/>
      </g>
     </g>
     <g id="line2d_52">
      <g>
       <use xlink:href="#m5b89b1d5d3" x="295.03748" y="3.6" style="stroke: #000000; stroke-width: 0.5"/>
      </g>
     </g>
    </g>
    <g id="xtick_24">
     <g id="line2d_53">
      <g>
       <use xlink:href="#mb531feb71e" x="319.435367" y="253.08" style="stroke: #000000; stroke-width: 0.5"/>
      </g>
     </g>
     <g id="line2d_54">
      <g>
       <use xlink:href="#m5b89b1d5d3" x="319.435367" y="3.6" style="stroke: #000000; stroke-width: 0.5"/>
      </g>
     </g>
    </g>
    <g id="xtick_25">
     <g id="line2d_55">
      <g>
       <use xlink:href="#mb531feb71e" x="331.63431" y="253.08" style="stroke: #000000; stroke-width: 0.5"/>
      </g>
     </g>
     <g id="line2d_56">
      <g>
       <use xlink:href="#m5b89b1d5d3" x="331.63431" y="3.6" style="stroke: #000000; stroke-width: 0.5"/>
      </g>
     </g>
    </g>
    <g id="xtick_26">
     <g id="line2d_57">
      <g>
       <use xlink:href="#mb531feb71e" x="343.833254" y="253.08" style="stroke: #000000; stroke-width: 0.5"/>
      </g>
     </g>
     <g id="line2d_58">
      <g>
       <use xlink:href="#m5b89b1d5d3" x="343.833254" y="3.6" style="stroke: #000000; stroke-width: 0.5"/>
      </g>
     </g>
    </g>
    <g id="xtick_27">
     <g id="line2d_59">
      <g>
       <use xlink:href="#mb531feb71e" x="356.032197" y="253.08" style="stroke: #000000; stroke-width: 0.5"/>
      </g>
     </g>
     <g id="line2d_60">
      <g>
       <use xlink:href="#m5b89b1d5d3" x="356.032197" y="3.6" style="stroke: #000000; stroke-width: 0.5"/>
      </g>
     </g>
    </g>
    <g id="xtick_28">
     <g id="line2d_61">
      <g>
       <use xlink:href="#mb531feb71e" x="380.430084" y="253.08" style="stroke: #000000; stroke-width: 0.5"/>
      </g>
     </g>
     <g id="line2d_62">
      <g>
       <use xlink:href="#m5b89b1d5d3" x="380.430084" y="3.6" style="stroke: #000000; stroke-width: 0.5"/>
      </g>
     </g>
    </g>
    <g id="text_7">
     <!-- Generations -->
     <g transform="translate(178.842188 281.311875) scale(0.12 -0.12)">
      <defs>
       <path id="DejaVuSans-47" d="M 3809 666 
L 3809 1919 
L 2778 1919 
L 2778 2438 
L 4434 2438 
L 4434 434 
Q 4069 175 3628 42 
Q 3188 -91 2688 -91 
Q 1594 -91 976 548 
Q 359 1188 359 2328 
Q 359 3472 976 4111 
Q 1594 4750 2688 4750 
Q 3144 4750 3555 4637 
Q 3966 4525 4313 4306 
L 4313 3634 
Q 3963 3931 3569 4081 
Q 3175 4231 2741 4231 
Q 1884 4231 1454 3753 
Q 1025 3275 1025 2328 
Q 1025 1384 1454 906 
Q 1884 428 2741 428 
Q 3075 428 3337 486 
Q 3600 544 3809 666 
z
" transform="scale(0.015625)"/>
       <path id="DejaVuSans-65" d="M 3597 1894 
L 3597 1613 
L 953 1613 
Q 991 1019 1311 708 
Q 1631 397 2203 397 
Q 2534 397 2845 478 
Q 3156 559 3463 722 
L 3463 178 
Q 3153 47 2828 -22 
Q 2503 -91 2169 -91 
Q 1331 -91 842 396 
Q 353 884 353 1716 
Q 353 2575 817 3079 
Q 1281 3584 2069 3584 
Q 2775 3584 3186 3129 
Q 3597 2675 3597 1894 
z
M 3022 2063 
Q 3016 2534 2758 2815 
Q 2500 3097 2075 3097 
Q 1594 3097 1305 2825 
Q 1016 2553 972 2059 
L 3022 2063 
z
" transform="scale(0.015625)"/>
       <path id="DejaVuSans-6e" d="M 3513 2113 
L 3513 0 
L 2938 0 
L 2938 2094 
Q 2938 2591 2744 2837 
Q 2550 3084 2163 3084 
Q 1697 3084 1428 2787 
Q 1159 2491 1159 1978 
L 1159 0 
L 581 0 
L 581 3500 
L 1159 3500 
L 1159 2956 
Q 1366 3272 1645 3428 
Q 1925 3584 2291 3584 
Q 2894 3584 3203 3211 
Q 3513 2838 3513 2113 
z
" transform="scale(0.015625)"/>
       <path id="DejaVuSans-72" d="M 2631 2963 
Q 2534 3019 2420 3045 
Q 2306 3072 2169 3072 
Q 1681 3072 1420 2755 
Q 1159 2438 1159 1844 
L 1159 0 
L 581 0 
L 581 3500 
L 1159 3500 
L 1159 2956 
Q 1341 3275 1631 3429 
Q 1922 3584 2338 3584 
Q 2397 3584 2469 3576 
Q 2541 3569 2628 3553 
L 2631 2963 
z
" transform="scale(0.015625)"/>
       <path id="DejaVuSans-61" d="M 2194 1759 
Q 1497 1759 1228 1600 
Q 959 1441 959 1056 
Q 959 750 1161 570 
Q 1363 391 1709 391 
Q 2188 391 2477 730 
Q 2766 1069 2766 1631 
L 2766 1759 
L 2194 1759 
z
M 3341 1997 
L 3341 0 
L 2766 0 
L 2766 531 
Q 2569 213 2275 61 
Q 1981 -91 1556 -91 
Q 1019 -91 701 211 
Q 384 513 384 1019 
Q 384 1609 779 1909 
Q 1175 2209 1959 2209 
L 2766 2209 
L 2766 2266 
Q 2766 2663 2505 2880 
Q 2244 3097 1772 3097 
Q 1472 3097 1187 3025 
Q 903 2953 641 2809 
L 641 3341 
Q 956 3463 1253 3523 
Q 1550 3584 1831 3584 
Q 2591 3584 2966 3190 
Q 3341 2797 3341 1997 
z
" transform="scale(0.015625)"/>
       <path id="DejaVuSans-74" d="M 1172 4494 
L 1172 3500 
L 2356 3500 
L 2356 3053 
L 1172 3053 
L 1172 1153 
Q 1172 725 1289 603 
Q 1406 481 1766 481 
L 2356 481 
L 2356 0 
L 1766 0 
Q 1100 0 847 248 
Q 594 497 594 1153 
L 594 3053 
L 172 3053 
L 172 3500 
L 594 3500 
L 594 4494 
L 1172 4494 
z
" transform="scale(0.015625)"/>
       <path id="DejaVuSans-69" d="M 603 3500 
L 1178 3500 
L 1178 0 
L 603 0 
L 603 3500 
z
M 603 4863 
L 1178 4863 
L 1178 4134 
L 603 4134 
L 603 4863 
z
" transform="scale(0.015625)"/>
       <path id="DejaVuSans-6f" d="M 1959 3097 
Q 1497 3097 1228 2736 
Q 959 2375 959 1747 
Q 959 1119 1226 758 
Q 1494 397 1959 397 
Q 2419 397 2687 759 
Q 2956 1122 2956 1747 
Q 2956 2369 2687 2733 
Q 2419 3097 1959 3097 
z
M 1959 3584 
Q 2709 3584 3137 3096 
Q 3566 2609 3566 1747 
Q 3566 888 3137 398 
Q 2709 -91 1959 -91 
Q 1206 -91 779 398 
Q 353 888 353 1747 
Q 353 2609 779 3096 
Q 1206 3584 1959 3584 
z
" transform="scale(0.015625)"/>
       <path id="DejaVuSans-73" d="M 2834 3397 
L 2834 2853 
Q 2591 2978 2328 3040 
Q 2066 3103 1784 3103 
Q 1356 3103 1142 2972 
Q 928 2841 928 2578 
Q 928 2378 1081 2264 
Q 1234 2150 1697 2047 
L 1894 2003 
Q 2506 1872 2764 1633 
Q 3022 1394 3022 966 
Q 3022 478 2636 193 
Q 2250 -91 1575 -91 
Q 1294 -91 989 -36 
Q 684 19 347 128 
L 347 722 
Q 666 556 975 473 
Q 1284 391 1588 391 
Q 1994 391 2212 530 
Q 2431 669 2431 922 
Q 2431 1156 2273 1281 
Q 2116 1406 1581 1522 
L 1381 1569 
Q 847 1681 609 1914 
Q 372 2147 372 2553 
Q 372 3047 722 3315 
Q 1072 3584 1716 3584 
Q 2034 3584 2315 3537 
Q 2597 3491 2834 3397 
z
" transform="scale(0.015625)"/>
      </defs>
      <use xlink:href="#DejaVuSans-47"/>
      <use xlink:href="#DejaVuSans-65" x="77.490234"/>
      <use xlink:href="#DejaVuSans-6e" x="139.013672"/>
      <use xlink:href="#DejaVuSans-65" x="202.392578"/>
      <use xlink:href="#DejaVuSans-72" x="263.916016"/>
      <use xlink:href="#DejaVuSans-61" x="305.029297"/>
      <use xlink:href="#DejaVuSans-74" x="366.308594"/>
      <use xlink:href="#DejaVuSans-69" x="405.517578"/>
      <use xlink:href="#DejaVuSans-6f" x="433.300781"/>
      <use xlink:href="#DejaVuSans-6e" x="494.482422"/>
      <use xlink:href="#DejaVuSans-73" x="557.861328"/>
     </g>
    </g>
   </g>
   <g id="matplotlib.axis_2">
    <g id="ytick_1">
     <g id="line2d_63">
      <path d="M 48.039375 217.103354 
L 382.839375 217.103354 
" clip-path="url(#p03184be1e2)" style="fill: none; stroke: #b0b0b0; stroke-width: 0.5; stroke-linecap: square"/>
     </g>
     <g id="line2d_64">
      <defs>
       <path id="m50c8de081d" d="M 0 0 
L 3 0 
" style="stroke: #000000; stroke-width: 0.5"/>
      </defs>
      <g>
       <use xlink:href="#m50c8de081d" x="48.039375" y="217.103354" style="stroke: #000000; stroke-width: 0.5"/>
      </g>
     </g>
     <g id="line2d_65">
      <defs>
       <path id="m249f9588b0" d="M 0 0 
L -3 0 
" style="stroke: #000000; stroke-width: 0.5"/>
      </defs>
      <g>
       <use xlink:href="#m249f9588b0" x="382.839375" y="217.103354" style="stroke: #000000; stroke-width: 0.5"/>
      </g>
     </g>
     <g id="text_8">
      <!-- −60 -->
      <g transform="translate(19.21375 221.662416) scale(0.12 -0.12)">
       <defs>
        <path id="DejaVuSans-2212" d="M 678 2272 
L 4684 2272 
L 4684 1741 
L 678 1741 
L 678 2272 
z
" transform="scale(0.015625)"/>
        <path id="DejaVuSans-36" d="M 2113 2584 
Q 1688 2584 1439 2293 
Q 1191 2003 1191 1497 
Q 1191 994 1439 701 
Q 1688 409 2113 409 
Q 2538 409 2786 701 
Q 3034 994 3034 1497 
Q 3034 2003 2786 2293 
Q 2538 2584 2113 2584 
z
M 3366 4563 
L 3366 3988 
Q 3128 4100 2886 4159 
Q 2644 4219 2406 4219 
Q 1781 4219 1451 3797 
Q 1122 3375 1075 2522 
Q 1259 2794 1537 2939 
Q 1816 3084 2150 3084 
Q 2853 3084 3261 2657 
Q 3669 2231 3669 1497 
Q 3669 778 3244 343 
Q 2819 -91 2113 -91 
Q 1303 -91 875 529 
Q 447 1150 447 2328 
Q 447 3434 972 4092 
Q 1497 4750 2381 4750 
Q 2619 4750 2861 4703 
Q 3103 4656 3366 4563 
z
" transform="scale(0.015625)"/>
       </defs>
       <use xlink:href="#DejaVuSans-2212"/>
       <use xlink:href="#DejaVuSans-36" x="83.789062"/>
       <use xlink:href="#DejaVuSans-30" x="147.412109"/>
      </g>
     </g>
    </g>
    <g id="ytick_2">
     <g id="line2d_66">
      <path d="M 48.039375 169.480603 
L 382.839375 169.480603 
" clip-path="url(#p03184be1e2)" style="fill: none; stroke: #b0b0b0; stroke-width: 0.5; stroke-linecap: square"/>
     </g>
     <g id="line2d_67">
      <g>
       <use xlink:href="#m50c8de081d" x="48.039375" y="169.480603" style="stroke: #000000; stroke-width: 0.5"/>
      </g>
     </g>
     <g id="line2d_68">
      <g>
       <use xlink:href="#m249f9588b0" x="382.839375" y="169.480603" style="stroke: #000000; stroke-width: 0.5"/>
      </g>
     </g>
     <g id="text_9">
      <!-- −40 -->
      <g transform="translate(19.21375 174.039665) scale(0.12 -0.12)">
       <use xlink:href="#DejaVuSans-2212"/>
       <use xlink:href="#DejaVuSans-34" x="83.789062"/>
       <use xlink:href="#DejaVuSans-30" x="147.412109"/>
      </g>
     </g>
    </g>
    <g id="ytick_3">
     <g id="line2d_69">
      <path d="M 48.039375 121.857852 
L 382.839375 121.857852 
" clip-path="url(#p03184be1e2)" style="fill: none; stroke: #b0b0b0; stroke-width: 0.5; stroke-linecap: square"/>
     </g>
     <g id="line2d_70">
      <g>
       <use xlink:href="#m50c8de081d" x="48.039375" y="121.857852" style="stroke: #000000; stroke-width: 0.5"/>
      </g>
     </g>
     <g id="line2d_71">
      <g>
       <use xlink:href="#m249f9588b0" x="382.839375" y="121.857852" style="stroke: #000000; stroke-width: 0.5"/>
      </g>
     </g>
     <g id="text_10">
      <!-- −20 -->
      <g transform="translate(19.21375 126.416914) scale(0.12 -0.12)">
       <use xlink:href="#DejaVuSans-2212"/>
       <use xlink:href="#DejaVuSans-32" x="83.789062"/>
       <use xlink:href="#DejaVuSans-30" x="147.412109"/>
      </g>
     </g>
    </g>
    <g id="ytick_4">
     <g id="line2d_72">
      <path d="M 48.039375 74.235101 
L 382.839375 74.235101 
" clip-path="url(#p03184be1e2)" style="fill: none; stroke: #b0b0b0; stroke-width: 0.5; stroke-linecap: square"/>
     </g>
     <g id="line2d_73">
      <g>
       <use xlink:href="#m50c8de081d" x="48.039375" y="74.235101" style="stroke: #000000; stroke-width: 0.5"/>
      </g>
     </g>
     <g id="line2d_74">
      <g>
       <use xlink:href="#m249f9588b0" x="382.839375" y="74.235101" style="stroke: #000000; stroke-width: 0.5"/>
      </g>
     </g>
     <g id="text_11">
      <!-- 0 -->
      <g transform="translate(36.904375 78.794163) scale(0.12 -0.12)">
       <use xlink:href="#DejaVuSans-30"/>
      </g>
     </g>
    </g>
    <g id="ytick_5">
     <g id="line2d_75">
      <path d="M 48.039375 26.61235 
L 382.839375 26.61235 
" clip-path="url(#p03184be1e2)" style="fill: none; stroke: #b0b0b0; stroke-width: 0.5; stroke-linecap: square"/>
     </g>
     <g id="line2d_76">
      <g>
       <use xlink:href="#m50c8de081d" x="48.039375" y="26.61235" style="stroke: #000000; stroke-width: 0.5"/>
      </g>
     </g>
     <g id="line2d_77">
      <g>
       <use xlink:href="#m249f9588b0" x="382.839375" y="26.61235" style="stroke: #000000; stroke-width: 0.5"/>
      </g>
     </g>
     <g id="text_12">
      <!-- 20 -->
      <g transform="translate(29.269375 31.171412) scale(0.12 -0.12)">
       <use xlink:href="#DejaVuSans-32"/>
       <use xlink:href="#DejaVuSans-30" x="63.623047"/>
      </g>
     </g>
    </g>
    <g id="ytick_6">
     <g id="line2d_78">
      <defs>
       <path id="m3b5f4113cf" d="M 0 0 
L 1.5 0 
" style="stroke: #000000; stroke-width: 0.5"/>
      </defs>
      <g>
       <use xlink:href="#m3b5f4113cf" x="48.039375" y="252.820417" style="stroke: #000000; stroke-width: 0.5"/>
      </g>
     </g>
     <g id="line2d_79">
      <defs>
       <path id="m50f80d5c56" d="M 0 0 
L -1.5 0 
" style="stroke: #000000; stroke-width: 0.5"/>
      </defs>
      <g>
       <use xlink:href="#m50f80d5c56" x="382.839375" y="252.820417" style="stroke: #000000; stroke-width: 0.5"/>
      </g>
     </g>
    </g>
    <g id="ytick_7">
     <g id="line2d_80">
      <g>
       <use xlink:href="#m3b5f4113cf" x="48.039375" y="240.914729" style="stroke: #000000; stroke-width: 0.5"/>
      </g>
     </g>
     <g id="line2d_81">
      <g>
       <use xlink:href="#m50f80d5c56" x="382.839375" y="240.914729" style="stroke: #000000; stroke-width: 0.5"/>
      </g>
     </g>
    </g>
    <g id="ytick_8">
     <g id="line2d_82">
      <g>
       <use xlink:href="#m3b5f4113cf" x="48.039375" y="229.009042" style="stroke: #000000; stroke-width: 0.5"/>
      </g>
     </g>
     <g id="line2d_83">
      <g>
       <use xlink:href="#m50f80d5c56" x="382.839375" y="229.009042" style="stroke: #000000; stroke-width: 0.5"/>
      </g>
     </g>
    </g>
    <g id="ytick_9">
     <g id="line2d_84">
      <g>
       <use xlink:href="#m3b5f4113cf" x="48.039375" y="205.197666" style="stroke: #000000; stroke-width: 0.5"/>
      </g>
     </g>
     <g id="line2d_85">
      <g>
       <use xlink:href="#m50f80d5c56" x="382.839375" y="205.197666" style="stroke: #000000; stroke-width: 0.5"/>
      </g>
     </g>
    </g>
    <g id="ytick_10">
     <g id="line2d_86">
      <g>
       <use xlink:href="#m3b5f4113cf" x="48.039375" y="193.291978" style="stroke: #000000; stroke-width: 0.5"/>
      </g>
     </g>
     <g id="line2d_87">
      <g>
       <use xlink:href="#m50f80d5c56" x="382.839375" y="193.291978" style="stroke: #000000; stroke-width: 0.5"/>
      </g>
     </g>
    </g>
    <g id="ytick_11">
     <g id="line2d_88">
      <g>
       <use xlink:href="#m3b5f4113cf" x="48.039375" y="181.386291" style="stroke: #000000; stroke-width: 0.5"/>
      </g>
     </g>
     <g id="line2d_89">
      <g>
       <use xlink:href="#m50f80d5c56" x="382.839375" y="181.386291" style="stroke: #000000; stroke-width: 0.5"/>
      </g>
     </g>
    </g>
    <g id="ytick_12">
     <g id="line2d_90">
      <g>
       <use xlink:href="#m3b5f4113cf" x="48.039375" y="157.574915" style="stroke: #000000; stroke-width: 0.5"/>
      </g>
     </g>
     <g id="line2d_91">
      <g>
       <use xlink:href="#m50f80d5c56" x="382.839375" y="157.574915" style="stroke: #000000; stroke-width: 0.5"/>
      </g>
     </g>
    </g>
    <g id="ytick_13">
     <g id="line2d_92">
      <g>
       <use xlink:href="#m3b5f4113cf" x="48.039375" y="145.669227" style="stroke: #000000; stroke-width: 0.5"/>
      </g>
     </g>
     <g id="line2d_93">
      <g>
       <use xlink:href="#m50f80d5c56" x="382.839375" y="145.669227" style="stroke: #000000; stroke-width: 0.5"/>
      </g>
     </g>
    </g>
    <g id="ytick_14">
     <g id="line2d_94">
      <g>
       <use xlink:href="#m3b5f4113cf" x="48.039375" y="133.763539" style="stroke: #000000; stroke-width: 0.5"/>
      </g>
     </g>
     <g id="line2d_95">
      <g>
       <use xlink:href="#m50f80d5c56" x="382.839375" y="133.763539" style="stroke: #000000; stroke-width: 0.5"/>
      </g>
     </g>
    </g>
    <g id="ytick_15">
     <g id="line2d_96">
      <g>
       <use xlink:href="#m3b5f4113cf" x="48.039375" y="109.952164" style="stroke: #000000; stroke-width: 0.5"/>
      </g>
     </g>
     <g id="line2d_97">
      <g>
       <use xlink:href="#m50f80d5c56" x="382.839375" y="109.952164" style="stroke: #000000; stroke-width: 0.5"/>
      </g>
     </g>
    </g>
    <g id="ytick_16">
     <g id="line2d_98">
      <g>
       <use xlink:href="#m3b5f4113cf" x="48.039375" y="98.046476" style="stroke: #000000; stroke-width: 0.5"/>
      </g>
     </g>
     <g id="line2d_99">
      <g>
       <use xlink:href="#m50f80d5c56" x="382.839375" y="98.046476" style="stroke: #000000; stroke-width: 0.5"/>
      </g>
     </g>
    </g>
    <g id="ytick_17">
     <g id="line2d_100">
      <g>
       <use xlink:href="#m3b5f4113cf" x="48.039375" y="86.140788" style="stroke: #000000; stroke-width: 0.5"/>
      </g>
     </g>
     <g id="line2d_101">
      <g>
       <use xlink:href="#m50f80d5c56" x="382.839375" y="86.140788" style="stroke: #000000; stroke-width: 0.5"/>
      </g>
     </g>
    </g>
    <g id="ytick_18">
     <g id="line2d_102">
      <g>
       <use xlink:href="#m3b5f4113cf" x="48.039375" y="62.329413" style="stroke: #000000; stroke-width: 0.5"/>
      </g>
     </g>
     <g id="line2d_103">
      <g>
       <use xlink:href="#m50f80d5c56" x="382.839375" y="62.329413" style="stroke: #000000; stroke-width: 0.5"/>
      </g>
     </g>
    </g>
    <g id="ytick_19">
     <g id="line2d_104">
      <g>
       <use xlink:href="#m3b5f4113cf" x="48.039375" y="50.423725" style="stroke: #000000; stroke-width: 0.5"/>
      </g>
     </g>
     <g id="line2d_105">
      <g>
       <use xlink:href="#m50f80d5c56" x="382.839375" y="50.423725" style="stroke: #000000; stroke-width: 0.5"/>
      </g>
     </g>
    </g>
    <g id="ytick_20">
     <g id="line2d_106">
      <g>
       <use xlink:href="#m3b5f4113cf" x="48.039375" y="38.518037" style="stroke: #000000; stroke-width: 0.5"/>
      </g>
     </g>
     <g id="line2d_107">
      <g>
       <use xlink:href="#m50f80d5c56" x="382.839375" y="38.518037" style="stroke: #000000; stroke-width: 0.5"/>
      </g>
     </g>
    </g>
    <g id="ytick_21">
     <g id="line2d_108">
      <g>
       <use xlink:href="#m3b5f4113cf" x="48.039375" y="14.706662" style="stroke: #000000; stroke-width: 0.5"/>
      </g>
     </g>
     <g id="line2d_109">
      <g>
       <use xlink:href="#m50f80d5c56" x="382.839375" y="14.706662" style="stroke: #000000; stroke-width: 0.5"/>
      </g>
     </g>
    </g>
    <g id="text_13">
     <!-- Fitness -->
     <g transform="translate(12.718125 149.120625) rotate(-90) scale(0.12 -0.12)">
      <defs>
       <path id="DejaVuSans-46" d="M 628 4666 
L 3309 4666 
L 3309 4134 
L 1259 4134 
L 1259 2759 
L 3109 2759 
L 3109 2228 
L 1259 2228 
L 1259 0 
L 628 0 
L 628 4666 
z
" transform="scale(0.015625)"/>
      </defs>
      <use xlink:href="#DejaVuSans-46"/>
      <use xlink:href="#DejaVuSans-69" x="50.269531"/>
      <use xlink:href="#DejaVuSans-74" x="78.052734"/>
      <use xlink:href="#DejaVuSans-6e" x="117.261719"/>
      <use xlink:href="#DejaVuSans-65" x="180.640625"/>
      <use xlink:href="#DejaVuSans-73" x="242.164062"/>
      <use xlink:href="#DejaVuSans-73" x="294.263672"/>
     </g>
    </g>
   </g>
   <g id="line2d_110">
    <path d="M 63.257557 40.489993 
L 68.747081 40.490247 
L 69.357028 32.056787 
L 73.016711 32.056787 
L 73.626659 27.473179 
L 77.286342 27.473188 
L 77.896289 26.711814 
L 82.165919 26.711836 
L 82.775866 24.814159 
L 83.385813 23.915959 
L 85.825602 23.915952 
L 86.435549 23.729033 
L 87.045496 18.311732 
L 94.364862 18.31173 
L 95.584757 17.791472 
L 96.194704 17.791495 
L 96.804651 17.537208 
L 97.414598 17.528482 
L 99.24444 16.683579 
L 177.927624 16.583036 
L 178.537571 16.445785 
L 179.757466 16.445758 
L 180.367413 16.298358 
L 181.587307 16.287497 
L 182.197254 16.172826 
L 185.24699 16.145461 
L 185.856937 16.031009 
L 186.466885 16.031007 
L 187.076832 15.470974 
L 196.835986 15.470967 
L 197.445934 15.325517 
L 215.744349 15.214919 
L 216.964243 15.154813 
L 241.972077 15.045619 
L 245.021813 15.02303 
L 367.621193 14.940027 
L 367.621193 14.940027 
" clip-path="url(#p03184be1e2)" style="fill: none; stroke: #000000; stroke-linecap: square"/>
   </g>
   <g id="line2d_111">
    <path d="M 63.257557 164.990751 
L 63.867504 181.267001 
L 65.087398 116.878901 
L 65.697345 113.167191 
L 66.307293 112.074885 
L 66.91724 155.157086 
L 67.527187 125.344169 
L 68.137134 108.223597 
L 68.747081 107.258416 
L 69.357028 125.421786 
L 69.966976 104.341357 
L 70.576923 110.031182 
L 71.18687 102.83447 
L 71.796817 241.74 
L 72.406764 114.776337 
L 73.016711 102.108852 
L 73.626659 117.698288 
L 74.236606 97.941723 
L 74.846553 123.631802 
L 75.4565 104.683868 
L 76.066447 198.630424 
L 76.676394 114.285624 
L 77.286342 99.239272 
L 77.896289 98.671516 
L 78.506236 97.44698 
L 79.72613 98.6641 
L 80.336077 95.032477 
L 80.946025 98.616122 
L 81.555972 91.184155 
L 82.165919 89.760458 
L 82.775866 94.575238 
L 83.385813 102.25019 
L 83.99576 121.872686 
L 84.605708 99.47495 
L 85.215655 90.122245 
L 85.825602 88.262647 
L 86.435549 91.80289 
L 87.655444 87.739585 
L 88.265391 80.006691 
L 88.875338 80.700108 
L 89.485285 80.292462 
L 90.095232 81.490483 
L 90.705179 97.53327 
L 91.315127 75.101743 
L 91.925074 68.272398 
L 92.535021 66.010234 
L 93.144968 60.585474 
L 94.364862 53.474003 
L 95.584757 45.575941 
L 96.194704 36.677793 
L 96.804651 35.096501 
L 97.414598 31.236515 
L 98.024545 25.689796 
L 99.24444 22.189454 
L 99.854387 22.829834 
L 100.464334 20.342256 
L 101.074281 21.810305 
L 101.684228 20.821455 
L 102.904123 19.899177 
L 103.51407 20.866517 
L 104.124017 22.103892 
L 104.733964 21.638403 
L 105.343911 21.029713 
L 105.953859 22.807394 
L 106.563806 21.724389 
L 107.173753 20.366378 
L 107.7837 21.807905 
L 108.393647 21.059392 
L 109.003594 22.380905 
L 109.613542 20.460013 
L 110.223489 20.579447 
L 110.833436 19.412262 
L 111.443383 20.350199 
L 112.05333 20.652649 
L 112.663277 20.132041 
L 113.273225 20.44537 
L 113.883172 23.170394 
L 114.493119 22.885327 
L 115.713013 19.800555 
L 116.32296 20.219624 
L 116.932908 21.365684 
L 117.542855 19.757301 
L 118.152802 20.300737 
L 118.762749 19.818038 
L 119.372696 20.219959 
L 119.982643 21.783533 
L 120.592591 21.770665 
L 121.202538 20.894727 
L 121.812485 21.905321 
L 122.422432 21.098632 
L 123.032379 20.878044 
L 123.642326 19.906192 
L 124.252274 20.745614 
L 124.862221 21.132513 
L 126.082115 22.363198 
L 126.692062 21.518633 
L 127.302009 21.956442 
L 127.911957 24.451374 
L 128.521904 23.81077 
L 129.131851 22.890539 
L 129.741798 22.684147 
L 130.351745 21.844592 
L 130.961692 20.429052 
L 131.57164 21.370338 
L 132.181587 23.119392 
L 132.791534 22.504534 
L 133.401481 22.200628 
L 134.011428 21.249056 
L 134.621375 24.160894 
L 135.231323 22.317197 
L 135.84127 22.510457 
L 137.061164 20.978706 
L 137.671111 21.937303 
L 138.281058 21.191783 
L 138.891006 25.766118 
L 139.500953 21.316657 
L 140.1109 21.002082 
L 140.720847 21.496406 
L 141.330794 22.761605 
L 142.550689 20.251001 
L 143.160636 20.895259 
L 143.770583 20.408257 
L 144.38053 20.333255 
L 144.990477 21.402799 
L 145.600424 21.57438 
L 146.210372 21.264054 
L 146.820319 19.583735 
L 147.430266 20.720548 
L 148.040213 26.357369 
L 148.65016 20.657201 
L 149.260107 21.206989 
L 149.870055 19.336038 
L 150.480002 18.898445 
L 151.089949 21.189659 
L 151.699896 19.690214 
L 152.309843 20.217473 
L 152.91979 19.928198 
L 153.529738 19.926349 
L 154.749632 18.995013 
L 155.359579 18.996756 
L 155.969526 18.765093 
L 156.579473 18.13765 
L 157.189421 19.065368 
L 157.799368 20.556113 
L 158.409315 20.989571 
L 159.019262 20.539246 
L 159.629209 21.249824 
L 160.239156 20.794579 
L 160.849104 22.021475 
L 161.459051 21.12833 
L 163.288892 20.229247 
L 163.898839 20.628315 
L 164.508787 20.782402 
L 165.118734 21.308087 
L 165.728681 22.764647 
L 166.338628 20.918352 
L 166.948575 20.035018 
L 167.558522 19.792585 
L 169.388364 20.058096 
L 169.998311 19.30579 
L 170.608258 20.631682 
L 171.218205 21.303693 
L 171.828153 21.397577 
L 172.4381 20.624899 
L 173.048047 21.032468 
L 173.657994 20.318867 
L 174.267941 20.525947 
L 174.877888 20.917505 
L 175.487836 20.021196 
L 176.097783 20.673557 
L 176.70773 22.17372 
L 177.927624 20.586647 
L 178.537571 20.853125 
L 179.147519 21.621638 
L 179.757466 20.81684 
L 180.367413 23.185041 
L 180.97736 20.829803 
L 181.587307 20.649966 
L 182.197254 20.84797 
L 182.807202 21.748391 
L 183.417149 21.98059 
L 184.027096 22.351653 
L 184.637043 20.284395 
L 185.24699 20.961894 
L 185.856937 23.618218 
L 186.466885 23.111713 
L 187.076832 20.587687 
L 187.686779 19.758061 
L 188.296726 20.137704 
L 189.51662 20.519262 
L 190.126568 19.881732 
L 190.736515 19.685726 
L 191.346462 18.492611 
L 191.956409 19.125341 
L 192.566356 19.568055 
L 193.176303 23.471485 
L 193.786251 21.883266 
L 194.396198 20.836007 
L 195.006145 21.312515 
L 195.616092 21.231148 
L 196.226039 19.492142 
L 196.835986 19.760468 
L 197.445934 19.579179 
L 198.055881 20.901916 
L 199.275775 20.59561 
L 199.885722 21.0185 
L 200.495669 19.329291 
L 201.105617 20.898199 
L 201.715564 19.702034 
L 202.325511 20.234511 
L 202.935458 20.066342 
L 203.545405 19.10351 
L 204.155352 20.107935 
L 204.7653 20.377801 
L 205.375247 21.476201 
L 205.985194 21.795543 
L 207.205088 23.926678 
L 207.815035 23.06698 
L 208.424983 20.033623 
L 209.03493 19.537767 
L 210.254824 18.907764 
L 210.864771 19.593579 
L 211.474718 19.365751 
L 212.084666 18.693381 
L 212.694613 19.382345 
L 213.30456 20.988728 
L 213.914507 19.307914 
L 214.524454 19.347657 
L 215.134401 20.422479 
L 215.744349 18.491666 
L 216.354296 19.2525 
L 216.964243 19.051137 
L 217.57419 19.895612 
L 218.184137 18.734387 
L 218.794084 17.969549 
L 219.404032 18.419332 
L 220.013979 18.599801 
L 220.623926 19.033674 
L 221.233873 19.035551 
L 221.84382 18.591035 
L 222.453767 18.920761 
L 223.063715 18.030957 
L 224.283609 19.391044 
L 224.893556 20.354004 
L 225.503503 18.927529 
L 226.11345 18.721773 
L 226.723398 17.872153 
L 227.333345 17.704659 
L 227.943292 19.412388 
L 228.553239 18.442295 
L 229.163186 21.436002 
L 229.773133 18.622497 
L 231.602975 19.150254 
L 232.212922 19.808754 
L 232.822869 19.502082 
L 233.432816 20.103191 
L 234.652711 20.086482 
L 235.262658 20.615169 
L 235.872605 17.865549 
L 236.482552 18.458732 
L 237.092499 19.970875 
L 237.702447 19.282655 
L 238.312394 19.559254 
L 238.922341 19.431013 
L 239.532288 20.784082 
L 240.142235 21.441657 
L 240.752182 19.430856 
L 241.36213 18.242907 
L 241.972077 19.156798 
L 242.582024 18.779543 
L 243.191971 19.052171 
L 243.801918 17.244438 
L 244.411865 17.609517 
L 245.021813 17.141093 
L 245.63176 18.074454 
L 246.241707 18.215572 
L 246.851654 20.117766 
L 247.461601 18.571688 
L 248.071548 18.895593 
L 248.681496 18.843946 
L 249.291443 19.214687 
L 249.90139 18.820319 
L 250.511337 17.542746 
L 251.121284 18.525059 
L 251.731231 18.216968 
L 252.341179 18.372598 
L 252.951126 17.893587 
L 253.561073 19.266406 
L 254.17102 17.648919 
L 254.780967 18.315227 
L 255.390914 18.699606 
L 256.000862 18.476882 
L 256.610809 18.028663 
L 257.220756 18.054061 
L 257.830703 18.509188 
L 258.44065 18.754518 
L 259.050597 18.53748 
L 259.660545 19.714608 
L 260.270492 21.259212 
L 260.880439 19.076835 
L 261.490386 18.555453 
L 262.100333 17.701313 
L 262.71028 18.125554 
L 263.320228 17.495538 
L 263.930175 18.449303 
L 264.540122 18.029625 
L 265.150069 18.679978 
L 265.760016 17.95869 
L 266.979911 17.304782 
L 267.589858 18.06921 
L 268.199805 18.527189 
L 268.809752 17.35082 
L 269.419699 17.360744 
L 270.029646 18.309562 
L 270.639594 18.657513 
L 271.249541 16.951754 
L 271.859488 17.082149 
L 272.469435 17.405507 
L 273.689329 17.116964 
L 274.299277 17.121933 
L 275.519171 18.09283 
L 276.129118 17.633745 
L 276.739065 17.51318 
L 277.349012 18.16166 
L 277.95896 18.493578 
L 278.568907 18.317609 
L 279.178854 18.349345 
L 279.788801 18.952867 
L 280.398748 20.134934 
L 281.008695 19.061791 
L 281.618643 19.062517 
L 282.22859 18.117659 
L 282.838537 17.660658 
L 283.448484 17.96445 
L 284.058431 17.688115 
L 284.668378 17.612119 
L 285.278326 18.964234 
L 285.888273 19.574948 
L 286.49822 17.750572 
L 287.108167 17.363442 
L 287.718114 18.420847 
L 288.328061 18.532113 
L 288.938009 17.900921 
L 289.547956 18.534331 
L 290.157903 17.472478 
L 290.76785 18.33848 
L 291.377797 18.953563 
L 291.987744 17.763493 
L 292.597692 17.951563 
L 293.207639 19.031581 
L 294.427533 19.887515 
L 295.03748 19.706888 
L 295.647427 20.380533 
L 296.257375 18.414687 
L 296.867322 18.574446 
L 297.477269 18.11745 
L 298.087216 19.707872 
L 298.697163 19.348723 
L 299.30711 19.732688 
L 299.917058 21.900479 
L 300.527005 21.790356 
L 301.136952 20.718017 
L 301.746899 20.470243 
L 302.356846 20.410853 
L 302.966793 20.566813 
L 303.576741 19.480722 
L 304.186688 20.099977 
L 304.796635 19.076861 
L 306.016529 18.700332 
L 306.626476 19.349528 
L 307.236424 19.797649 
L 307.846371 18.548614 
L 308.456318 19.085794 
L 309.066265 18.940803 
L 309.676212 18.264816 
L 310.286159 18.182539 
L 311.506054 18.878502 
L 312.116001 17.255762 
L 312.725948 17.581903 
L 313.335895 17.760976 
L 313.945842 18.902934 
L 315.165737 18.391721 
L 316.385631 18.506495 
L 316.995578 17.682651 
L 317.605525 18.118574 
L 318.215473 19.295519 
L 318.82542 18.5252 
L 319.435367 19.085455 
L 320.045314 19.348925 
L 320.655261 19.481111 
L 321.265208 18.792739 
L 321.875156 18.972742 
L 322.485103 19.345907 
L 323.09505 17.630095 
L 323.704997 18.032435 
L 324.314944 17.596735 
L 324.924891 18.900742 
L 325.534839 16.830671 
L 326.144786 17.376537 
L 326.754733 16.95515 
L 327.36468 17.146033 
L 328.584574 19.438099 
L 329.194522 18.838504 
L 329.804469 18.465389 
L 330.414416 18.921577 
L 331.024363 18.747676 
L 332.244257 19.534438 
L 332.854205 20.824667 
L 333.464152 19.527376 
L 334.074099 19.142255 
L 334.684046 19.42254 
L 335.293993 18.050236 
L 335.90394 17.770508 
L 336.513888 18.173069 
L 337.123835 18.23972 
L 337.733782 18.776332 
L 338.343729 18.98552 
L 338.953676 18.815473 
L 339.563623 19.374773 
L 340.173571 19.711434 
L 340.783518 18.615124 
L 341.393465 18.167179 
L 342.003412 18.515898 
L 342.613359 18.155528 
L 343.223306 18.459912 
L 344.443201 18.505195 
L 345.663095 18.431529 
L 346.273042 18.142186 
L 346.88299 19.245341 
L 347.492937 17.783083 
L 348.102884 18.342082 
L 348.712831 18.601485 
L 349.322778 18.520139 
L 351.15262 19.878725 
L 352.372514 21.189783 
L 352.982461 19.328049 
L 353.592408 20.264696 
L 354.202356 19.353699 
L 354.812303 18.660019 
L 355.42225 19.859561 
L 356.032197 18.416883 
L 356.642144 20.530848 
L 357.862039 18.617939 
L 358.471986 18.255154 
L 359.081933 19.113373 
L 359.69188 20.529915 
L 360.911774 17.498138 
L 361.521722 17.937686 
L 362.131669 17.902225 
L 362.741616 18.655845 
L 363.351563 19.161057 
L 363.96151 20.283052 
L 364.571457 19.122964 
L 365.181405 19.062789 
L 365.791352 18.430276 
L 366.401299 19.724036 
L 367.011246 18.522708 
L 367.621193 18.012041 
L 367.621193 18.012041 
" clip-path="url(#p03184be1e2)" style="fill: none; stroke-dasharray: 3.7,1.6; stroke-dashoffset: 0; stroke: #000000"/>
   </g>
   <g id="patch_3">
    <path d="M 48.039375 253.08 
L 48.039375 3.6 
" style="fill: none; stroke: #000000; stroke-width: 0.5; stroke-linejoin: miter; stroke-linecap: square"/>
   </g>
   <g id="patch_4">
    <path d="M 382.839375 253.08 
L 382.839375 3.6 
" style="fill: none; stroke: #000000; stroke-width: 0.5; stroke-linejoin: miter; stroke-linecap: square"/>
   </g>
   <g id="patch_5">
    <path d="M 48.039375 253.08 
L 382.839375 253.08 
" style="fill: none; stroke: #000000; stroke-width: 0.5; stroke-linejoin: miter; stroke-linecap: square"/>
   </g>
   <g id="patch_6">
    <path d="M 48.039375 3.6 
L 382.839375 3.6 
" style="fill: none; stroke: #000000; stroke-width: 0.5; stroke-linejoin: miter; stroke-linecap: square"/>
   </g>
   <g id="legend_1">
    <g id="patch_7">
     <path d="M 256.633125 247.08 
L 374.439375 247.08 
Q 376.839375 247.08 376.839375 244.68 
L 376.839375 193.03875 
Q 376.839375 190.63875 374.439375 190.63875 
L 256.633125 190.63875 
Q 254.233125 190.63875 254.233125 193.03875 
L 254.233125 244.68 
Q 254.233125 247.08 256.633125 247.08 
z
" style="fill: #ffffff; opacity: 0.8; stroke: #cccccc; stroke-linejoin: miter"/>
    </g>
    <g id="line2d_112">
     <path d="M 259.033125 200.356875 
L 271.033125 200.356875 
L 283.033125 200.356875 
" style="fill: none; stroke: #000000; stroke-linecap: square"/>
    </g>
    <g id="text_14">
     <!-- Max fitness -->
     <g transform="translate(292.633125 204.556875) scale(0.12 -0.12)">
      <defs>
       <path id="DejaVuSans-4d" d="M 628 4666 
L 1569 4666 
L 2759 1491 
L 3956 4666 
L 4897 4666 
L 4897 0 
L 4281 0 
L 4281 4097 
L 3078 897 
L 2444 897 
L 1241 4097 
L 1241 0 
L 628 0 
L 628 4666 
z
" transform="scale(0.015625)"/>
       <path id="DejaVuSans-78" d="M 3513 3500 
L 2247 1797 
L 3578 0 
L 2900 0 
L 1881 1375 
L 863 0 
L 184 0 
L 1544 1831 
L 300 3500 
L 978 3500 
L 1906 2253 
L 2834 3500 
L 3513 3500 
z
" transform="scale(0.015625)"/>
       <path id="DejaVuSans-20" transform="scale(0.015625)"/>
       <path id="DejaVuSans-66" d="M 2375 4863 
L 2375 4384 
L 1825 4384 
Q 1516 4384 1395 4259 
Q 1275 4134 1275 3809 
L 1275 3500 
L 2222 3500 
L 2222 3053 
L 1275 3053 
L 1275 0 
L 697 0 
L 697 3053 
L 147 3053 
L 147 3500 
L 697 3500 
L 697 3744 
Q 697 4328 969 4595 
Q 1241 4863 1831 4863 
L 2375 4863 
z
" transform="scale(0.015625)"/>
      </defs>
      <use xlink:href="#DejaVuSans-4d"/>
      <use xlink:href="#DejaVuSans-61" x="86.279297"/>
      <use xlink:href="#DejaVuSans-78" x="147.558594"/>
      <use xlink:href="#DejaVuSans-20" x="206.738281"/>
      <use xlink:href="#DejaVuSans-66" x="238.525391"/>
      <use xlink:href="#DejaVuSans-69" x="273.730469"/>
      <use xlink:href="#DejaVuSans-74" x="301.513672"/>
      <use xlink:href="#DejaVuSans-6e" x="340.722656"/>
      <use xlink:href="#DejaVuSans-65" x="404.101562"/>
      <use xlink:href="#DejaVuSans-73" x="465.625"/>
      <use xlink:href="#DejaVuSans-73" x="517.724609"/>
     </g>
    </g>
    <g id="patch_8">
     <path d="M 259.033125 222.170625 
L 283.033125 222.170625 
L 283.033125 213.770625 
L 259.033125 213.770625 
z
" style="fill: #0000ff; fill-opacity: 0.2; stroke: #0000ff; stroke-opacity: 0.2; stroke-linejoin: miter"/>
    </g>
    <g id="text_15">
     <!-- Top 90% -->
     <g transform="translate(292.633125 222.170625) scale(0.12 -0.12)">
      <defs>
       <path id="DejaVuSans-54" d="M -19 4666 
L 3928 4666 
L 3928 4134 
L 2272 4134 
L 2272 0 
L 1638 0 
L 1638 4134 
L -19 4134 
L -19 4666 
z
" transform="scale(0.015625)"/>
       <path id="DejaVuSans-70" d="M 1159 525 
L 1159 -1331 
L 581 -1331 
L 581 3500 
L 1159 3500 
L 1159 2969 
Q 1341 3281 1617 3432 
Q 1894 3584 2278 3584 
Q 2916 3584 3314 3078 
Q 3713 2572 3713 1747 
Q 3713 922 3314 415 
Q 2916 -91 2278 -91 
Q 1894 -91 1617 61 
Q 1341 213 1159 525 
z
M 3116 1747 
Q 3116 2381 2855 2742 
Q 2594 3103 2138 3103 
Q 1681 3103 1420 2742 
Q 1159 2381 1159 1747 
Q 1159 1113 1420 752 
Q 1681 391 2138 391 
Q 2594 391 2855 752 
Q 3116 1113 3116 1747 
z
" transform="scale(0.015625)"/>
       <path id="DejaVuSans-39" d="M 703 97 
L 703 672 
Q 941 559 1184 500 
Q 1428 441 1663 441 
Q 2288 441 2617 861 
Q 2947 1281 2994 2138 
Q 2813 1869 2534 1725 
Q 2256 1581 1919 1581 
Q 1219 1581 811 2004 
Q 403 2428 403 3163 
Q 403 3881 828 4315 
Q 1253 4750 1959 4750 
Q 2769 4750 3195 4129 
Q 3622 3509 3622 2328 
Q 3622 1225 3098 567 
Q 2575 -91 1691 -91 
Q 1453 -91 1209 -44 
Q 966 3 703 97 
z
M 1959 2075 
Q 2384 2075 2632 2365 
Q 2881 2656 2881 3163 
Q 2881 3666 2632 3958 
Q 2384 4250 1959 4250 
Q 1534 4250 1286 3958 
Q 1038 3666 1038 3163 
Q 1038 2656 1286 2365 
Q 1534 2075 1959 2075 
z
" transform="scale(0.015625)"/>
       <path id="DejaVuSans-25" d="M 4653 2053 
Q 4381 2053 4226 1822 
Q 4072 1591 4072 1178 
Q 4072 772 4226 539 
Q 4381 306 4653 306 
Q 4919 306 5073 539 
Q 5228 772 5228 1178 
Q 5228 1588 5073 1820 
Q 4919 2053 4653 2053 
z
M 4653 2450 
Q 5147 2450 5437 2106 
Q 5728 1763 5728 1178 
Q 5728 594 5436 251 
Q 5144 -91 4653 -91 
Q 4153 -91 3862 251 
Q 3572 594 3572 1178 
Q 3572 1766 3864 2108 
Q 4156 2450 4653 2450 
z
M 1428 4353 
Q 1159 4353 1004 4120 
Q 850 3888 850 3481 
Q 850 3069 1003 2837 
Q 1156 2606 1428 2606 
Q 1700 2606 1854 2837 
Q 2009 3069 2009 3481 
Q 2009 3884 1853 4118 
Q 1697 4353 1428 4353 
z
M 4250 4750 
L 4750 4750 
L 1831 -91 
L 1331 -91 
L 4250 4750 
z
M 1428 4750 
Q 1922 4750 2215 4408 
Q 2509 4066 2509 3481 
Q 2509 2891 2217 2550 
Q 1925 2209 1428 2209 
Q 931 2209 642 2551 
Q 353 2894 353 3481 
Q 353 4063 643 4406 
Q 934 4750 1428 4750 
z
" transform="scale(0.015625)"/>
      </defs>
      <use xlink:href="#DejaVuSans-54"/>
      <use xlink:href="#DejaVuSans-6f" x="44.083984"/>
      <use xlink:href="#DejaVuSans-70" x="105.265625"/>
      <use xlink:href="#DejaVuSans-20" x="168.742188"/>
      <use xlink:href="#DejaVuSans-39" x="200.529297"/>
      <use xlink:href="#DejaVuSans-30" x="264.152344"/>
      <use xlink:href="#DejaVuSans-25" x="327.775391"/>
     </g>
    </g>
    <g id="line2d_113">
     <path d="M 259.033125 235.584375 
L 271.033125 235.584375 
L 283.033125 235.584375 
" style="fill: none; stroke-dasharray: 3.7,1.6; stroke-dashoffset: 0; stroke: #000000"/>
    </g>
    <g id="text_16">
     <!-- Fitness mean -->
     <g transform="translate(292.633125 239.784375) scale(0.12 -0.12)">
      <defs>
       <path id="DejaVuSans-6d" d="M 3328 2828 
Q 3544 3216 3844 3400 
Q 4144 3584 4550 3584 
Q 5097 3584 5394 3201 
Q 5691 2819 5691 2113 
L 5691 0 
L 5113 0 
L 5113 2094 
Q 5113 2597 4934 2840 
Q 4756 3084 4391 3084 
Q 3944 3084 3684 2787 
Q 3425 2491 3425 1978 
L 3425 0 
L 2847 0 
L 2847 2094 
Q 2847 2600 2669 2842 
Q 2491 3084 2119 3084 
Q 1678 3084 1418 2786 
Q 1159 2488 1159 1978 
L 1159 0 
L 581 0 
L 581 3500 
L 1159 3500 
L 1159 2956 
Q 1356 3278 1631 3431 
Q 1906 3584 2284 3584 
Q 2666 3584 2933 3390 
Q 3200 3197 3328 2828 
z
" transform="scale(0.015625)"/>
      </defs>
      <use xlink:href="#DejaVuSans-46"/>
      <use xlink:href="#DejaVuSans-69" x="50.269531"/>
      <use xlink:href="#DejaVuSans-74" x="78.052734"/>
      <use xlink:href="#DejaVuSans-6e" x="117.261719"/>
      <use xlink:href="#DejaVuSans-65" x="180.640625"/>
      <use xlink:href="#DejaVuSans-73" x="242.164062"/>
      <use xlink:href="#DejaVuSans-73" x="294.263672"/>
      <use xlink:href="#DejaVuSans-20" x="346.363281"/>
      <use xlink:href="#DejaVuSans-6d" x="378.150391"/>
      <use xlink:href="#DejaVuSans-65" x="475.5625"/>
      <use xlink:href="#DejaVuSans-61" x="537.085938"/>
      <use xlink:href="#DejaVuSans-6e" x="598.365234"/>
     </g>
    </g>
   </g>
  </g>
 </g>
 <defs>
  <clipPath id="p03184be1e2">
   <rect x="48.039375" y="3.6" width="334.8" height="249.48"/>
  </clipPath>
 </defs>
</svg>
