<?xml version="1.0" encoding="utf-8" standalone="no"?>
<!DOCTYPE svg PUBLIC "-//W3C//DTD SVG 1.1//EN"
  "http://www.w3.org/Graphics/SVG/1.1/DTD/svg11.dtd">
<svg xmlns:xlink="http://www.w3.org/1999/xlink" width="386.439375pt" height="287.4075pt" viewBox="0 0 386.439375 287.4075" xmlns="http://www.w3.org/2000/svg" version="1.1">
 <metadata>
  <rdf:RDF xmlns:dc="http://purl.org/dc/elements/1.1/" xmlns:cc="http://creativecommons.org/ns#" xmlns:rdf="http://www.w3.org/1999/02/22-rdf-syntax-ns#">
   <cc:Work>
    <dc:type rdf:resource="http://purl.org/dc/dcmitype/StillImage"/>
    <dc:date>2024-06-25T10:22:12.159815</dc:date>
    <dc:format>image/svg+xml</dc:format>
    <dc:creator>
     <cc:Agent>
      <dc:title>Matplotlib v3.9.0, https://matplotlib.org/</dc:title>
     </cc:Agent>
    </dc:creator>
   </cc:Work>
  </rdf:RDF>
 </metadata>
 <defs>
  <style type="text/css">*{stroke-linejoin: round; stroke-linecap: butt}</style>
 </defs>
 <g id="figure_1">
  <g id="patch_1">
   <path d="M 0 287.4075 
L 386.439375 287.4075 
L 386.439375 0 
L 0 0 
z
" style="fill: #ffffff"/>
  </g>
  <g id="axes_1">
   <g id="patch_2">
    <path d="M 48.039375 253.08 
L 382.839375 253.08 
L 382.839375 3.6 
L 48.039375 3.6 
z
" style="fill: #ffffff"/>
   </g>
   <g id="PolyCollection_1">
    <defs>
     <path id="m5c9850b302" d="M 63.257557 -242.027529 
L 63.257557 -45.6675 
L 63.867504 -60.535535 
L 64.477451 -68.137779 
L 65.087398 -93.419437 
L 65.697345 -112.637507 
L 66.307293 -123.427693 
L 66.91724 -97.145484 
L 67.527187 -114.67855 
L 68.137134 -129.76998 
L 68.747081 -111.608795 
L 69.357028 -106.300771 
L 69.966976 -124.559797 
L 70.576923 -107.247934 
L 71.18687 -115.264481 
L 71.796817 -91.064517 
L 72.406764 -110.81314 
L 73.016711 -119.71652 
L 73.626659 -120.263675 
L 74.236606 -131.045366 
L 74.846553 -123.703968 
L 75.4565 -137.157836 
L 76.066447 -146.111035 
L 76.676394 -127.901647 
L 77.286342 -133.896392 
L 77.896289 -142.175725 
L 78.506236 -139.362976 
L 79.116183 -138.996974 
L 79.72613 -134.204064 
L 80.336077 -146.829814 
L 80.946025 -142.301017 
L 81.555972 -148.503936 
L 82.165919 -147.790226 
L 82.775866 -149.539598 
L 83.385813 -147.790226 
L 83.99576 -147.790226 
L 84.605708 -150.335164 
L 85.215655 -149.933253 
L 85.825602 -146.779654 
L 86.435549 -150.367402 
L 87.045496 -149.881036 
L 87.655444 -156.241663 
L 88.265391 -156.710677 
L 88.875338 -158.936081 
L 89.485285 -159.034339 
L 90.095232 -161.688402 
L 90.705179 -158.281781 
L 91.315127 -159.437952 
L 91.925074 -159.313949 
L 92.535021 -160.171558 
L 93.144968 -166.519126 
L 93.754915 -167.204093 
L 94.364862 -165.483612 
L 94.97481 -167.913215 
L 95.584757 -170.051659 
L 96.194704 -202.379025 
L 96.804651 -199.211876 
L 97.414598 -207.002939 
L 98.024545 -249.244857 
L 98.634493 -252.808246 
L 99.24444 -253.74511 
L 99.854387 -255.395367 
L 100.464334 -261.625012 
L 101.074281 -260.578218 
L 101.684228 -260.578185 
L 102.294176 -261.558815 
L 102.904123 -261.954293 
L 103.51407 -260.692875 
L 104.124017 -257.119667 
L 104.733964 -257.18311 
L 105.343911 -259.219432 
L 105.953859 -258.052688 
L 106.563806 -258.830819 
L 107.173753 -258.891241 
L 107.7837 -258.820702 
L 108.393647 -262.386746 
L 109.003594 -259.21949 
L 109.613542 -263.781025 
L 110.223489 -263.050523 
L 110.833436 -263.780989 
L 111.443383 -264.172812 
L 112.05333 -263.891149 
L 112.663277 -263.588556 
L 113.273225 -257.123706 
L 113.883172 -259.409949 
L 114.493119 -255.08311 
L 115.103066 -254.319445 
L 115.713013 -257.80768 
L 116.32296 -258.729807 
L 116.932908 -258.765279 
L 117.542855 -259.21316 
L 118.152802 -259.213155 
L 118.762749 -260.241194 
L 119.372696 -260.628388 
L 119.982643 -257.620063 
L 120.592591 -253.598335 
L 121.202538 -256.917426 
L 121.812485 -256.917427 
L 122.422432 -256.917423 
L 123.032379 -259.385435 
L 123.642326 -259.438322 
L 124.252274 -259.139957 
L 124.862221 -257.855507 
L 125.472168 -257.222281 
L 126.082115 -257.222345 
L 126.692062 -258.390768 
L 127.302009 -258.194878 
L 127.911957 -254.272364 
L 128.521904 -253.68923 
L 129.131851 -254.250178 
L 129.741798 -254.872602 
L 130.351745 -258.815883 
L 130.961692 -260.175622 
L 131.57164 -256.709897 
L 132.181587 -254.872558 
L 132.791534 -256.242026 
L 133.401481 -256.604058 
L 134.011428 -258.716825 
L 134.621375 -259.094119 
L 135.231323 -257.668385 
L 135.84127 -256.392153 
L 136.451217 -259.977198 
L 137.061164 -259.629572 
L 137.671111 -258.388567 
L 138.281058 -257.295827 
L 138.891006 -258.935013 
L 139.500953 -258.935013 
L 140.1109 -259.394126 
L 140.720847 -254.215816 
L 141.330794 -254.029883 
L 141.940741 -254.890614 
L 142.550689 -261.288129 
L 143.160636 -263.830277 
L 143.770583 -264.406839 
L 144.38053 -263.352519 
L 144.990477 -257.160708 
L 145.600424 -254.194327 
L 146.210372 -255.386351 
L 146.820319 -262.962857 
L 147.430266 -259.691322 
L 148.040213 -259.053964 
L 148.65016 -255.322141 
L 149.260107 -256.968818 
L 149.870055 -260.25309 
L 150.480002 -264.101551 
L 151.089949 -260.499067 
L 151.699896 -263.010551 
L 152.309843 -256.23204 
L 152.91979 -261.806477 
L 153.529738 -260.159422 
L 154.139685 -262.385167 
L 154.749632 -264.67527 
L 155.359579 -263.743472 
L 155.969526 -262.121996 
L 156.579473 -261.524293 
L 157.189421 -265.178215 
L 157.799368 -259.075043 
L 158.409315 -258.752837 
L 159.019262 -258.752859 
L 159.629209 -256.471992 
L 160.239156 -256.153786 
L 160.849104 -258.236445 
L 161.459051 -259.214389 
L 162.068998 -258.424363 
L 162.678945 -258.570011 
L 163.288892 -260.344738 
L 163.898839 -261.488172 
L 164.508787 -258.585643 
L 165.118734 -255.780558 
L 165.728681 -255.843477 
L 166.338628 -258.604785 
L 166.948575 -261.300761 
L 167.558522 -261.300753 
L 168.16847 -263.034238 
L 168.778417 -262.302938 
L 169.388364 -262.302944 
L 169.998311 -263.481883 
L 170.608258 -262.394895 
L 171.218205 -261.467851 
L 171.828153 -261.225141 
L 172.4381 -255.64641 
L 173.048047 -261.577004 
L 173.657994 -263.090955 
L 174.267941 -263.68228 
L 174.877888 -263.460452 
L 175.487836 -263.239191 
L 176.097783 -263.292573 
L 176.70773 -255.480081 
L 177.317677 -255.406429 
L 177.927624 -257.863191 
L 178.537571 -259.037828 
L 179.147519 -255.067206 
L 179.757466 -257.646949 
L 180.367413 -257.713923 
L 180.97736 -261.170411 
L 181.587307 -261.666531 
L 182.197254 -259.278815 
L 182.807202 -260.773795 
L 183.417149 -259.636143 
L 184.027096 -260.544847 
L 184.637043 -261.880168 
L 185.24699 -260.809996 
L 185.856937 -258.531933 
L 186.466885 -259.220495 
L 187.076832 -260.305017 
L 187.686779 -261.803864 
L 188.296726 -262.586364 
L 188.906673 -262.165337 
L 189.51662 -263.17023 
L 190.126568 -263.283516 
L 190.736515 -263.158838 
L 191.346462 -263.681281 
L 191.956409 -264.0727 
L 192.566356 -263.494188 
L 193.176303 -262.481088 
L 193.786251 -261.607901 
L 194.396198 -262.152758 
L 195.006145 -261.607904 
L 195.616092 -261.607895 
L 196.226039 -262.521628 
L 196.835986 -261.607888 
L 197.445934 -261.499236 
L 198.055881 -261.193921 
L 198.665828 -260.885222 
L 199.275775 -259.756089 
L 199.885722 -261.429345 
L 200.495669 -261.80019 
L 201.105617 -260.073056 
L 201.715564 -261.171204 
L 202.325511 -260.676602 
L 202.935458 -261.501902 
L 203.545405 -262.139145 
L 204.155352 -260.869484 
L 204.7653 -262.139137 
L 205.375247 -259.383598 
L 205.985194 -257.059329 
L 206.595141 -256.408058 
L 207.205088 -253.317094 
L 207.815035 -256.057533 
L 208.424983 -262.58258 
L 209.03493 -262.582581 
L 209.644877 -265.250741 
L 210.254824 -263.534857 
L 210.864771 -263.104437 
L 211.474718 -262.91069 
L 212.084666 -264.621842 
L 212.694613 -264.251105 
L 213.30456 -261.122985 
L 213.914507 -262.442125 
L 214.524454 -262.321561 
L 215.134401 -261.515733 
L 215.744349 -263.664977 
L 216.354296 -263.458686 
L 216.964243 -263.32586 
L 217.57419 -262.639978 
L 218.184137 -265.073178 
L 218.794084 -265.093076 
L 219.404032 -266.347136 
L 220.013979 -263.402318 
L 220.623926 -260.874695 
L 221.233873 -260.953834 
L 221.84382 -262.476594 
L 222.453767 -264.373949 
L 223.063715 -264.069014 
L 223.673662 -263.49838 
L 224.283609 -263.841382 
L 224.893556 -263.141156 
L 225.503503 -264.07765 
L 226.11345 -264.283921 
L 226.723398 -267.031708 
L 227.333345 -267.007821 
L 227.943292 -265.010121 
L 228.553239 -263.707396 
L 229.163186 -259.762136 
L 229.773133 -262.178292 
L 230.383081 -260.081692 
L 230.993028 -262.600366 
L 231.602975 -261.970565 
L 232.212922 -263.315492 
L 232.822869 -261.942804 
L 233.432816 -261.942798 
L 234.042764 -262.668144 
L 234.652711 -261.880729 
L 235.262658 -264.178241 
L 235.872605 -265.277672 
L 236.482552 -263.562916 
L 237.092499 -262.964039 
L 237.702447 -262.670855 
L 238.312394 -260.977163 
L 238.922341 -260.977159 
L 239.532288 -259.782089 
L 240.142235 -257.981887 
L 240.752182 -260.94115 
L 241.36213 -263.347687 
L 241.972077 -263.347687 
L 242.582024 -263.55233 
L 243.191971 -263.825483 
L 243.801918 -265.575831 
L 244.411865 -265.204878 
L 245.021813 -266.041688 
L 245.63176 -264.87452 
L 246.241707 -264.339073 
L 246.851654 -261.194714 
L 247.461601 -264.339099 
L 248.071548 -264.795966 
L 248.681496 -264.502817 
L 249.291443 -264.351367 
L 249.90139 -263.136122 
L 250.511337 -263.315462 
L 251.121284 -262.793952 
L 251.731231 -262.824838 
L 252.341179 -263.005234 
L 252.951126 -262.455892 
L 253.561073 -259.926979 
L 254.17102 -264.584551 
L 254.780967 -264.997419 
L 255.390914 -264.771111 
L 256.000862 -262.499186 
L 256.610809 -262.643946 
L 257.220756 -263.889419 
L 257.830703 -264.361784 
L 258.44065 -263.419586 
L 259.050597 -262.872787 
L 259.660545 -262.950365 
L 260.270492 -262.143326 
L 260.880439 -263.635906 
L 261.490386 -263.635908 
L 262.100333 -264.423095 
L 262.71028 -264.423075 
L 263.320228 -264.423074 
L 263.930175 -264.14144 
L 264.540122 -264.266727 
L 265.150069 -263.658364 
L 265.760016 -265.930474 
L 266.369963 -266.296314 
L 266.979911 -265.109877 
L 267.589858 -264.424473 
L 268.199805 -264.735502 
L 268.809752 -265.037672 
L 269.419699 -264.991939 
L 270.029646 -263.580626 
L 270.639594 -263.192937 
L 271.249541 -265.492827 
L 271.859488 -266.490046 
L 272.469435 -265.355631 
L 273.079382 -266.490052 
L 273.689329 -267.375929 
L 274.299277 -267.407734 
L 274.909224 -265.481272 
L 275.519171 -266.438425 
L 276.129118 -266.699886 
L 276.739065 -266.291329 
L 277.349012 -263.946615 
L 277.95896 -263.552234 
L 278.568907 -263.098854 
L 279.178854 -263.088438 
L 279.788801 -262.256608 
L 280.398748 -262.96539 
L 281.008695 -263.413122 
L 281.618643 -262.256592 
L 282.22859 -263.171064 
L 282.838537 -263.413128 
L 283.448484 -263.117861 
L 284.058431 -263.3832 
L 284.668378 -263.402528 
L 285.278326 -263.47213 
L 285.888273 -263.402567 
L 286.49822 -263.970914 
L 287.108167 -264.054617 
L 287.718114 -264.054618 
L 288.328061 -263.923881 
L 288.938009 -264.566922 
L 289.547956 -264.566924 
L 290.157903 -264.478104 
L 290.76785 -264.368805 
L 291.377797 -263.093962 
L 291.987744 -263.950392 
L 292.597692 -264.055767 
L 293.207639 -263.388117 
L 293.817586 -262.609284 
L 294.427533 -260.501125 
L 295.03748 -259.403382 
L 295.647427 -261.520478 
L 296.257375 -263.94146 
L 296.867322 -264.174345 
L 297.477269 -264.500197 
L 298.087216 -262.71988 
L 298.697163 -260.581856 
L 299.30711 -260.973518 
L 299.917058 -257.86561 
L 300.527005 -258.886882 
L 301.136952 -259.713879 
L 301.746899 -259.712089 
L 302.356846 -260.051504 
L 302.966793 -260.493195 
L 303.576741 -262.329439 
L 304.186688 -262.329449 
L 304.796635 -262.404351 
L 305.406582 -263.106384 
L 306.016529 -262.668559 
L 306.626476 -263.351335 
L 307.236424 -263.169357 
L 307.846371 -263.80275 
L 308.456318 -263.809895 
L 309.066265 -264.131371 
L 309.676212 -264.362771 
L 310.286159 -263.828233 
L 310.896107 -264.342652 
L 311.506054 -263.370916 
L 312.116001 -264.744745 
L 312.725948 -265.161553 
L 313.335895 -263.385353 
L 313.945842 -262.025092 
L 314.55579 -262.025101 
L 315.165737 -263.150126 
L 315.775684 -262.505689 
L 316.385631 -262.505683 
L 316.995578 -264.42624 
L 317.605525 -263.343105 
L 318.215473 -262.171681 
L 318.82542 -262.913252 
L 319.435367 -263.016658 
L 320.045314 -263.016636 
L 320.655261 -261.94734 
L 321.265208 -262.221279 
L 321.875156 -263.164125 
L 322.485103 -260.523677 
L 323.09505 -263.466214 
L 323.704997 -263.164138 
L 324.314944 -263.466208 
L 324.924891 -263.943875 
L 325.534839 -265.912647 
L 326.144786 -265.81587 
L 326.754733 -264.539063 
L 327.36468 -265.339876 
L 327.974627 -263.920863 
L 328.584574 -261.286788 
L 329.194522 -261.222252 
L 329.804469 -261.357661 
L 330.414416 -262.67707 
L 331.024363 -260.201781 
L 331.63431 -261.97427 
L 332.244257 -260.534733 
L 332.854205 -258.485499 
L 333.464152 -261.884293 
L 334.074099 -262.278486 
L 334.684046 -262.789356 
L 335.293993 -264.132709 
L 335.90394 -264.50674 
L 336.513888 -264.50674 
L 337.123835 -262.848527 
L 337.733782 -263.196604 
L 338.343729 -261.670641 
L 338.953676 -262.848482 
L 339.563623 -261.664063 
L 340.173571 -260.774913 
L 340.783518 -261.162295 
L 341.393465 -262.113238 
L 342.003412 -261.048664 
L 342.613359 -260.881072 
L 343.223306 -261.334875 
L 343.833254 -262.454751 
L 344.443201 -262.519485 
L 345.053148 -263.219177 
L 345.663095 -263.431399 
L 346.273042 -263.239353 
L 346.88299 -263.085697 
L 347.492937 -265.712236 
L 348.102884 -265.185866 
L 348.712831 -264.669628 
L 349.322778 -263.754647 
L 349.932725 -259.630709 
L 350.542673 -259.260982 
L 351.15262 -258.254412 
L 351.762567 -258.254405 
L 352.372514 -259.221058 
L 352.982461 -260.883372 
L 353.592408 -262.055961 
L 354.202356 -262.432544 
L 354.812303 -262.8158 
L 355.42225 -261.319709 
L 356.032197 -262.969527 
L 356.642144 -263.801568 
L 357.252091 -262.853975 
L 357.862039 -263.105551 
L 358.471986 -262.563478 
L 359.081933 -260.362975 
L 359.69188 -260.90229 
L 360.301827 -261.915826 
L 360.911774 -264.027046 
L 361.521722 -264.250981 
L 362.131669 -262.968456 
L 362.741616 -262.016975 
L 363.351563 -261.679173 
L 363.96151 -260.865938 
L 364.571457 -262.056557 
L 365.181405 -262.219548 
L 365.791352 -261.559673 
L 366.401299 -260.125323 
L 367.011246 -260.573896 
L 367.621193 -260.847309 
L 367.621193 -272.467468 
L 367.621193 -272.467468 
L 367.011246 -272.467475 
L 366.401299 -272.467468 
L 365.791352 -272.467481 
L 365.181405 -272.467461 
L 364.571457 -272.467475 
L 363.96151 -272.467473 
L 363.351563 -272.467468 
L 362.741616 -272.46748 
L 362.131669 -272.467485 
L 361.521722 -272.467477 
L 360.911774 -272.467495 
L 360.301827 -272.467476 
L 359.69188 -272.467482 
L 359.081933 -272.467477 
L 358.471986 -272.46748 
L 357.862039 -272.467478 
L 357.252091 -272.467481 
L 356.642144 -272.467497 
L 356.032197 -272.467483 
L 355.42225 -272.467469 
L 354.812303 -272.467474 
L 354.202356 -272.467478 
L 353.592408 -272.467475 
L 352.982461 -272.467479 
L 352.372514 -272.467487 
L 351.762567 -272.467469 
L 351.15262 -272.467479 
L 350.542673 -272.467484 
L 349.932725 -272.467488 
L 349.322778 -272.467475 
L 348.712831 -272.467483 
L 348.102884 -272.467468 
L 347.492937 -272.467479 
L 346.88299 -272.467471 
L 346.273042 -272.467482 
L 345.663095 -272.467462 
L 345.053148 -272.467467 
L 344.443201 -272.46748 
L 343.833254 -272.467475 
L 343.223306 -272.467493 
L 342.613359 -272.467476 
L 342.003412 -272.467472 
L 341.393465 -272.467475 
L 340.783518 -272.467475 
L 340.173571 -272.467473 
L 339.563623 -272.467472 
L 338.953676 -272.467476 
L 338.343729 -272.467469 
L 337.733782 -272.467483 
L 337.123835 -272.467487 
L 336.513888 -272.467499 
L 335.90394 -272.467476 
L 335.293993 -272.467479 
L 334.684046 -272.467488 
L 334.074099 -272.467471 
L 333.464152 -272.467481 
L 332.854205 -272.467469 
L 332.244257 -272.467476 
L 331.63431 -272.467479 
L 331.024363 -272.467469 
L 330.414416 -272.467473 
L 329.804469 -272.467478 
L 329.194522 -272.46748 
L 328.584574 -272.467481 
L 327.974627 -272.467474 
L 327.36468 -272.467471 
L 326.754733 -272.467485 
L 326.144786 -272.467468 
L 325.534839 -272.467495 
L 324.924891 -272.467489 
L 324.314944 -272.467476 
L 323.704997 -272.467492 
L 323.09505 -272.46747 
L 322.485103 -272.467484 
L 321.875156 -272.467483 
L 321.265208 -272.467476 
L 320.655261 -272.467468 
L 320.045314 -272.46746 
L 319.435367 -272.467485 
L 318.82542 -272.4675 
L 318.215473 -272.467484 
L 317.605525 -272.467478 
L 316.995578 -272.467485 
L 316.385631 -272.467476 
L 315.775684 -272.467479 
L 315.165737 -272.467475 
L 314.55579 -272.467479 
L 313.945842 -272.467495 
L 313.335895 -272.467483 
L 312.725948 -272.467481 
L 312.116001 -272.46747 
L 311.506054 -272.467472 
L 310.896107 -272.467469 
L 310.286159 -272.467477 
L 309.676212 -272.467482 
L 309.066265 -272.467479 
L 308.456318 -272.467478 
L 307.846371 -272.46749 
L 307.236424 -272.467495 
L 306.626476 -272.467476 
L 306.016529 -272.467484 
L 305.406582 -272.46748 
L 304.796635 -272.467471 
L 304.186688 -272.467482 
L 303.576741 -272.467475 
L 302.966793 -272.467474 
L 302.356846 -272.467448 
L 301.746899 -272.467469 
L 301.136952 -272.467477 
L 300.527005 -272.467466 
L 299.917058 -272.467458 
L 299.30711 -272.467458 
L 298.697163 -272.46747 
L 298.087216 -272.467485 
L 297.477269 -272.467469 
L 296.867322 -272.467482 
L 296.257375 -272.467475 
L 295.647427 -272.467484 
L 295.03748 -272.467464 
L 294.427533 -272.467456 
L 293.817586 -272.467468 
L 293.207639 -272.467461 
L 292.597692 -272.467478 
L 291.987744 -272.467461 
L 291.377797 -272.46746 
L 290.76785 -272.467459 
L 290.157903 -272.467468 
L 289.547956 -272.467445 
L 288.938009 -272.467437 
L 288.328061 -272.467473 
L 287.718114 -272.467425 
L 287.108167 -272.467428 
L 286.49822 -272.438071 
L 285.888273 -272.438081 
L 285.278326 -272.438076 
L 284.668378 -272.438083 
L 284.058431 -272.438079 
L 283.448484 -272.438076 
L 282.838537 -272.43808 
L 282.22859 -272.438075 
L 281.618643 -272.438056 
L 281.008695 -272.438072 
L 280.398748 -272.438071 
L 279.788801 -272.438077 
L 279.178854 -272.438029 
L 278.568907 -272.428694 
L 277.95896 -272.428692 
L 277.349012 -272.428713 
L 276.739065 -272.428699 
L 276.129118 -272.4287 
L 275.519171 -272.428678 
L 274.909224 -272.428672 
L 274.299277 -272.428683 
L 273.689329 -272.403306 
L 273.079382 -272.403304 
L 272.469435 -272.403296 
L 271.859488 -272.403269 
L 271.249541 -272.403292 
L 270.639594 -272.40034 
L 270.029646 -272.400317 
L 269.419699 -272.400345 
L 268.809752 -272.400306 
L 268.199805 -272.400242 
L 267.589858 -272.368585 
L 266.979911 -272.368587 
L 266.369963 -272.368587 
L 265.760016 -272.368589 
L 265.150069 -272.368588 
L 264.540122 -272.368587 
L 263.930175 -272.36858 
L 263.320228 -272.368587 
L 262.71028 -272.368583 
L 262.100333 -272.368585 
L 261.490386 -272.368587 
L 260.880439 -272.368589 
L 260.270492 -272.36859 
L 259.660545 -272.36859 
L 259.050597 -272.368579 
L 258.44065 -272.368584 
L 257.830703 -272.36858 
L 257.220756 -272.368585 
L 256.610809 -272.368592 
L 256.000862 -272.368587 
L 255.390914 -272.368589 
L 254.780967 -272.368586 
L 254.17102 -272.368585 
L 253.561073 -272.36858 
L 252.951126 -272.368587 
L 252.341179 -272.368582 
L 251.731231 -272.368586 
L 251.121284 -272.368585 
L 250.511337 -272.368588 
L 249.90139 -272.36859 
L 249.291443 -272.368582 
L 248.681496 -272.368588 
L 248.071548 -272.368587 
L 247.461601 -272.36859 
L 246.851654 -272.368592 
L 246.241707 -272.368583 
L 245.63176 -272.368588 
L 245.021813 -272.368579 
L 244.411865 -272.36859 
L 243.801918 -272.368534 
L 243.191971 -272.368574 
L 242.582024 -272.368567 
L 241.972077 -272.341667 
L 241.36213 -272.341665 
L 240.752182 -272.341664 
L 240.142235 -272.341667 
L 239.532288 -272.341663 
L 238.922341 -272.341667 
L 238.312394 -272.341669 
L 237.702447 -272.341657 
L 237.092499 -272.341664 
L 236.482552 -272.341666 
L 235.872605 -272.341668 
L 235.262658 -272.341662 
L 234.652711 -272.341663 
L 234.042764 -272.341656 
L 233.432816 -272.341656 
L 232.822869 -272.341641 
L 232.212922 -272.341651 
L 231.602975 -272.292498 
L 230.993028 -272.292494 
L 230.383081 -272.292506 
L 229.773133 -272.292494 
L 229.163186 -272.292511 
L 228.553239 -272.292506 
L 227.943292 -272.292498 
L 227.333345 -272.292495 
L 226.723398 -272.292487 
L 226.11345 -272.292482 
L 225.503503 -272.292484 
L 224.893556 -272.292494 
L 224.283609 -272.292501 
L 223.673662 -272.292493 
L 223.063715 -272.292482 
L 222.453767 -272.292482 
L 221.84382 -272.292466 
L 221.233873 -272.292444 
L 220.623926 -272.211577 
L 220.013979 -272.211569 
L 219.404032 -272.211573 
L 218.794084 -272.211559 
L 218.184137 -272.211575 
L 217.57419 -272.211553 
L 216.964243 -272.211575 
L 216.354296 -272.211559 
L 215.744349 -272.139965 
L 215.134401 -272.136668 
L 214.524454 -272.136649 
L 213.914507 -272.136649 
L 213.30456 -272.136676 
L 212.694613 -272.047441 
L 212.084666 -272.04743 
L 211.474718 -272.047445 
L 210.864771 -272.047441 
L 210.254824 -272.047435 
L 209.644877 -272.047442 
L 209.03493 -272.047438 
L 208.424983 -272.047444 
L 207.815035 -272.047443 
L 207.205088 -272.047435 
L 206.595141 -272.047439 
L 205.985194 -272.047429 
L 205.375247 -272.047436 
L 204.7653 -272.047433 
L 204.155352 -272.047416 
L 203.545405 -272.047428 
L 202.935458 -272.047408 
L 202.325511 -272.047345 
L 201.715564 -272.047393 
L 201.105617 -272.047405 
L 200.495669 -272.047411 
L 199.885722 -272.008211 
L 199.275775 -272.008216 
L 198.665828 -272.008212 
L 198.055881 -272.008212 
L 197.445934 -272.0082 
L 196.835986 -271.834912 
L 196.226039 -271.834929 
L 195.616092 -271.834884 
L 195.006145 -271.834892 
L 194.396198 -271.834891 
L 193.786251 -271.834922 
L 193.176303 -271.83489 
L 192.566356 -271.834914 
L 191.956409 -271.834895 
L 191.346462 -271.834854 
L 190.736515 -271.834872 
L 190.126568 -271.834888 
L 189.51662 -271.834878 
L 188.906673 -271.834849 
L 188.296726 -271.834891 
L 187.686779 -271.83486 
L 187.076832 -271.834904 
L 186.466885 -271.167687 
L 185.856937 -271.167685 
L 185.24699 -271.031327 
L 184.637043 -271.000614 
L 184.027096 -271.000625 
L 183.417149 -271.000597 
L 182.807202 -271.000623 
L 182.197254 -270.998726 
L 181.587307 -270.862108 
L 180.97736 -270.84916 
L 180.367413 -270.849168 
L 179.757466 -270.673557 
L 179.147519 -270.673536 
L 178.537571 -270.673525 
L 177.927624 -270.510006 
L 177.317677 -270.509978 
L 176.70773 -270.50999 
L 176.097783 -270.509969 
L 175.487836 -270.509945 
L 174.877888 -270.509954 
L 174.267941 -270.509845 
L 173.657994 -270.509949 
L 173.048047 -270.50999 
L 172.4381 -270.50014 
L 171.828153 -270.500154 
L 171.218205 -270.500152 
L 170.608258 -270.487261 
L 169.998311 -270.487284 
L 169.388364 -270.487271 
L 168.778417 -270.487247 
L 168.16847 -270.487252 
L 167.558522 -270.487251 
L 166.948575 -270.487242 
L 166.338628 -270.487233 
L 165.728681 -270.487248 
L 165.118734 -270.487243 
L 164.508787 -270.487227 
L 163.898839 -270.487229 
L 163.288892 -270.487241 
L 162.678945 -270.487255 
L 162.068998 -270.487224 
L 161.459051 -270.487228 
L 160.849104 -270.487218 
L 160.239156 -270.487193 
L 159.629209 -270.480143 
L 159.019262 -270.480146 
L 158.409315 -270.480145 
L 157.799368 -270.480151 
L 157.189421 -270.480134 
L 156.579473 -270.48014 
L 155.969526 -270.480125 
L 155.359579 -270.480146 
L 154.749632 -270.480148 
L 154.139685 -270.480126 
L 153.529738 -270.48013 
L 152.91979 -270.480133 
L 152.309843 -270.480123 
L 151.699896 -270.480137 
L 151.089949 -270.480147 
L 150.480002 -270.480139 
L 149.870055 -270.48012 
L 149.260107 -270.480131 
L 148.65016 -270.480151 
L 148.040213 -270.480142 
L 147.430266 -270.480134 
L 146.820319 -270.480121 
L 146.210372 -270.480148 
L 145.600424 -270.480123 
L 144.990477 -270.480123 
L 144.38053 -270.480132 
L 143.770583 -270.48014 
L 143.160636 -270.480138 
L 142.550689 -270.480138 
L 141.940741 -270.480133 
L 141.330794 -270.480125 
L 140.720847 -270.480125 
L 140.1109 -270.480135 
L 139.500953 -270.480125 
L 138.891006 -270.480126 
L 138.281058 -270.480138 
L 137.671111 -270.480115 
L 137.061164 -270.480114 
L 136.451217 -270.480123 
L 135.84127 -270.480117 
L 135.231323 -270.480136 
L 134.621375 -270.480133 
L 134.011428 -270.480127 
L 133.401481 -270.480137 
L 132.791534 -270.480141 
L 132.181587 -270.480149 
L 131.57164 -270.480102 
L 130.961692 -270.48015 
L 130.351745 -270.480149 
L 129.741798 -270.480147 
L 129.131851 -270.480135 
L 128.521904 -270.480133 
L 127.911957 -270.480136 
L 127.302009 -270.48014 
L 126.692062 -270.480125 
L 126.082115 -270.480117 
L 125.472168 -270.480143 
L 124.862221 -270.480142 
L 124.252274 -270.480152 
L 123.642326 -270.480122 
L 123.032379 -270.480133 
L 122.422432 -270.48014 
L 121.812485 -270.48012 
L 121.202538 -270.480129 
L 120.592591 -270.480123 
L 119.982643 -270.480125 
L 119.372696 -270.480118 
L 118.762749 -270.480097 
L 118.152802 -270.480141 
L 117.542855 -270.480113 
L 116.932908 -270.480104 
L 116.32296 -270.480057 
L 115.713013 -270.480148 
L 115.103066 -270.480091 
L 114.493119 -270.480007 
L 113.883172 -270.412988 
L 113.273225 -270.412941 
L 112.663277 -270.412959 
L 112.05333 -270.412959 
L 111.443383 -270.412962 
L 110.833436 -270.41296 
L 110.223489 -270.412928 
L 109.613542 -270.412939 
L 109.003594 -270.412965 
L 108.393647 -270.412935 
L 107.7837 -270.412935 
L 107.173753 -270.412898 
L 106.563806 -270.412893 
L 105.953859 -270.412913 
L 105.343911 -270.412861 
L 104.733964 -270.412886 
L 104.124017 -270.412896 
L 103.51407 -270.390207 
L 102.904123 -270.39025 
L 102.294176 -270.390246 
L 101.684228 -270.390212 
L 101.074281 -270.390222 
L 100.464334 -270.390151 
L 99.854387 -270.390212 
L 99.24444 -270.390219 
L 98.634493 -270.075438 
L 98.024545 -269.740476 
L 97.414598 -269.383613 
L 96.804651 -269.373216 
L 96.194704 -269.070261 
L 95.584757 -269.070289 
L 94.97481 -268.814467 
L 94.364862 -268.450459 
L 93.754915 -268.450457 
L 93.144968 -268.450452 
L 92.535021 -268.450448 
L 91.925074 -268.45046 
L 91.315127 -268.45044 
L 90.705179 -268.45044 
L 90.095232 -268.45045 
L 89.485285 -268.450444 
L 88.875338 -268.450425 
L 88.265391 -268.450447 
L 87.655444 -268.450443 
L 87.045496 -268.450457 
L 86.435549 -261.996346 
L 85.825602 -261.773653 
L 85.215655 -261.773663 
L 84.605708 -261.773645 
L 83.99576 -261.77362 
L 83.385813 -261.773644 
L 82.775866 -260.703539 
L 82.165919 -258.442669 
L 81.555972 -258.442681 
L 80.946025 -258.442717 
L 80.336077 -258.442672 
L 79.72613 -258.442687 
L 79.116183 -258.442705 
L 78.506236 -258.442711 
L 77.896289 -258.442695 
L 77.286342 -257.535603 
L 76.676394 -257.535617 
L 76.066447 -257.535582 
L 75.4565 -257.535613 
L 74.846553 -257.535576 
L 74.236606 -257.535614 
L 73.626659 -257.535613 
L 73.016711 -252.074755 
L 72.406764 -252.074755 
L 71.796817 -252.074754 
L 71.18687 -252.074754 
L 70.576923 -252.074754 
L 69.966976 -252.074755 
L 69.357028 -252.074755 
L 68.747081 -242.027227 
L 68.137134 -242.026879 
L 67.527187 -242.027288 
L 66.91724 -242.023676 
L 66.307293 -242.025076 
L 65.697345 -242.026948 
L 65.087398 -242.026521 
L 64.477451 -242.025986 
L 63.867504 -242.026667 
L 63.257557 -242.027529 
z
" style="stroke: #0000ff; stroke-opacity: 0.2"/>
    </defs>
    <g clip-path="url(#p11bd2c1301)">
     <use xlink:href="#m5c9850b302" x="0" y="287.4075" style="fill: #0000ff; fill-opacity: 0.2; stroke: #0000ff; stroke-opacity: 0.2"/>
    </g>
   </g>
   <g id="matplotlib.axis_1">
    <g id="xtick_1">
     <g id="line2d_1">
      <path d="M 63.257557 253.08 
L 63.257557 3.6 
" clip-path="url(#p11bd2c1301)" style="fill: none; stroke: #b0b0b0; stroke-width: 0.5; stroke-linecap: square"/>
     </g>
     <g id="line2d_2">
      <defs>
       <path id="mdeb85188a9" d="M 0 0 
L 0 -3 
" style="stroke: #000000; stroke-width: 0.5"/>
      </defs>
      <g>
       <use xlink:href="#mdeb85188a9" x="63.257557" y="253.08" style="stroke: #000000; stroke-width: 0.5"/>
      </g>
     </g>
     <g id="line2d_3">
      <defs>
       <path id="mc326e70800" d="M 0 0 
L 0 3 
" style="stroke: #000000; stroke-width: 0.5"/>
      </defs>
      <g>
       <use xlink:href="#mc326e70800" x="63.257557" y="3.6" style="stroke: #000000; stroke-width: 0.5"/>
      </g>
     </g>
     <g id="text_1">
      <!-- 0 -->
      <g transform="translate(59.440057 265.698125) scale(0.12 -0.12)">
       <defs>
        <path id="DejaVuSans-30" d="M 2034 4250 
Q 1547 4250 1301 3770 
Q 1056 3291 1056 2328 
Q 1056 1369 1301 889 
Q 1547 409 2034 409 
Q 2525 409 2770 889 
Q 3016 1369 3016 2328 
Q 3016 3291 2770 3770 
Q 2525 4250 2034 4250 
z
M 2034 4750 
Q 2819 4750 3233 4129 
Q 3647 3509 3647 2328 
Q 3647 1150 3233 529 
Q 2819 -91 2034 -91 
Q 1250 -91 836 529 
Q 422 1150 422 2328 
Q 422 3509 836 4129 
Q 1250 4750 2034 4750 
z
" transform="scale(0.015625)"/>
       </defs>
       <use xlink:href="#DejaVuSans-30"/>
      </g>
     </g>
    </g>
    <g id="xtick_2">
     <g id="line2d_4">
      <path d="M 124.252274 253.08 
L 124.252274 3.6 
" clip-path="url(#p11bd2c1301)" style="fill: none; stroke: #b0b0b0; stroke-width: 0.5; stroke-linecap: square"/>
     </g>
     <g id="line2d_5">
      <g>
       <use xlink:href="#mdeb85188a9" x="124.252274" y="253.08" style="stroke: #000000; stroke-width: 0.5"/>
      </g>
     </g>
     <g id="line2d_6">
      <g>
       <use xlink:href="#mc326e70800" x="124.252274" y="3.6" style="stroke: #000000; stroke-width: 0.5"/>
      </g>
     </g>
     <g id="text_2">
      <!-- 100 -->
      <g transform="translate(112.799774 265.698125) scale(0.12 -0.12)">
       <defs>
        <path id="DejaVuSans-31" d="M 794 531 
L 1825 531 
L 1825 4091 
L 703 3866 
L 703 4441 
L 1819 4666 
L 2450 4666 
L 2450 531 
L 3481 531 
L 3481 0 
L 794 0 
L 794 531 
z
" transform="scale(0.015625)"/>
       </defs>
       <use xlink:href="#DejaVuSans-31"/>
       <use xlink:href="#DejaVuSans-30" x="63.623047"/>
       <use xlink:href="#DejaVuSans-30" x="127.246094"/>
      </g>
     </g>
    </g>
    <g id="xtick_3">
     <g id="line2d_7">
      <path d="M 185.24699 253.08 
L 185.24699 3.6 
" clip-path="url(#p11bd2c1301)" style="fill: none; stroke: #b0b0b0; stroke-width: 0.5; stroke-linecap: square"/>
     </g>
     <g id="line2d_8">
      <g>
       <use xlink:href="#mdeb85188a9" x="185.24699" y="253.08" style="stroke: #000000; stroke-width: 0.5"/>
      </g>
     </g>
     <g id="line2d_9">
      <g>
       <use xlink:href="#mc326e70800" x="185.24699" y="3.6" style="stroke: #000000; stroke-width: 0.5"/>
      </g>
     </g>
     <g id="text_3">
      <!-- 200 -->
      <g transform="translate(173.79449 265.698125) scale(0.12 -0.12)">
       <defs>
        <path id="DejaVuSans-32" d="M 1228 531 
L 3431 531 
L 3431 0 
L 469 0 
L 469 531 
Q 828 903 1448 1529 
Q 2069 2156 2228 2338 
Q 2531 2678 2651 2914 
Q 2772 3150 2772 3378 
Q 2772 3750 2511 3984 
Q 2250 4219 1831 4219 
Q 1534 4219 1204 4116 
Q 875 4013 500 3803 
L 500 4441 
Q 881 4594 1212 4672 
Q 1544 4750 1819 4750 
Q 2544 4750 2975 4387 
Q 3406 4025 3406 3419 
Q 3406 3131 3298 2873 
Q 3191 2616 2906 2266 
Q 2828 2175 2409 1742 
Q 1991 1309 1228 531 
z
" transform="scale(0.015625)"/>
       </defs>
       <use xlink:href="#DejaVuSans-32"/>
       <use xlink:href="#DejaVuSans-30" x="63.623047"/>
       <use xlink:href="#DejaVuSans-30" x="127.246094"/>
      </g>
     </g>
    </g>
    <g id="xtick_4">
     <g id="line2d_10">
      <path d="M 246.241707 253.08 
L 246.241707 3.6 
" clip-path="url(#p11bd2c1301)" style="fill: none; stroke: #b0b0b0; stroke-width: 0.5; stroke-linecap: square"/>
     </g>
     <g id="line2d_11">
      <g>
       <use xlink:href="#mdeb85188a9" x="246.241707" y="253.08" style="stroke: #000000; stroke-width: 0.5"/>
      </g>
     </g>
     <g id="line2d_12">
      <g>
       <use xlink:href="#mc326e70800" x="246.241707" y="3.6" style="stroke: #000000; stroke-width: 0.5"/>
      </g>
     </g>
     <g id="text_4">
      <!-- 300 -->
      <g transform="translate(234.789207 265.698125) scale(0.12 -0.12)">
       <defs>
        <path id="DejaVuSans-33" d="M 2597 2516 
Q 3050 2419 3304 2112 
Q 3559 1806 3559 1356 
Q 3559 666 3084 287 
Q 2609 -91 1734 -91 
Q 1441 -91 1130 -33 
Q 819 25 488 141 
L 488 750 
Q 750 597 1062 519 
Q 1375 441 1716 441 
Q 2309 441 2620 675 
Q 2931 909 2931 1356 
Q 2931 1769 2642 2001 
Q 2353 2234 1838 2234 
L 1294 2234 
L 1294 2753 
L 1863 2753 
Q 2328 2753 2575 2939 
Q 2822 3125 2822 3475 
Q 2822 3834 2567 4026 
Q 2313 4219 1838 4219 
Q 1578 4219 1281 4162 
Q 984 4106 628 3988 
L 628 4550 
Q 988 4650 1302 4700 
Q 1616 4750 1894 4750 
Q 2613 4750 3031 4423 
Q 3450 4097 3450 3541 
Q 3450 3153 3228 2886 
Q 3006 2619 2597 2516 
z
" transform="scale(0.015625)"/>
       </defs>
       <use xlink:href="#DejaVuSans-33"/>
       <use xlink:href="#DejaVuSans-30" x="63.623047"/>
       <use xlink:href="#DejaVuSans-30" x="127.246094"/>
      </g>
     </g>
    </g>
    <g id="xtick_5">
     <g id="line2d_13">
      <path d="M 307.236424 253.08 
L 307.236424 3.6 
" clip-path="url(#p11bd2c1301)" style="fill: none; stroke: #b0b0b0; stroke-width: 0.5; stroke-linecap: square"/>
     </g>
     <g id="line2d_14">
      <g>
       <use xlink:href="#mdeb85188a9" x="307.236424" y="253.08" style="stroke: #000000; stroke-width: 0.5"/>
      </g>
     </g>
     <g id="line2d_15">
      <g>
       <use xlink:href="#mc326e70800" x="307.236424" y="3.6" style="stroke: #000000; stroke-width: 0.5"/>
      </g>
     </g>
     <g id="text_5">
      <!-- 400 -->
      <g transform="translate(295.783924 265.698125) scale(0.12 -0.12)">
       <defs>
        <path id="DejaVuSans-34" d="M 2419 4116 
L 825 1625 
L 2419 1625 
L 2419 4116 
z
M 2253 4666 
L 3047 4666 
L 3047 1625 
L 3713 1625 
L 3713 1100 
L 3047 1100 
L 3047 0 
L 2419 0 
L 2419 1100 
L 313 1100 
L 313 1709 
L 2253 4666 
z
" transform="scale(0.015625)"/>
       </defs>
       <use xlink:href="#DejaVuSans-34"/>
       <use xlink:href="#DejaVuSans-30" x="63.623047"/>
       <use xlink:href="#DejaVuSans-30" x="127.246094"/>
      </g>
     </g>
    </g>
    <g id="xtick_6">
     <g id="line2d_16">
      <path d="M 368.23114 253.08 
L 368.23114 3.6 
" clip-path="url(#p11bd2c1301)" style="fill: none; stroke: #b0b0b0; stroke-width: 0.5; stroke-linecap: square"/>
     </g>
     <g id="line2d_17">
      <g>
       <use xlink:href="#mdeb85188a9" x="368.23114" y="253.08" style="stroke: #000000; stroke-width: 0.5"/>
      </g>
     </g>
     <g id="line2d_18">
      <g>
       <use xlink:href="#mc326e70800" x="368.23114" y="3.6" style="stroke: #000000; stroke-width: 0.5"/>
      </g>
     </g>
     <g id="text_6">
      <!-- 500 -->
      <g transform="translate(356.77864 265.698125) scale(0.12 -0.12)">
       <defs>
        <path id="DejaVuSans-35" d="M 691 4666 
L 3169 4666 
L 3169 4134 
L 1269 4134 
L 1269 2991 
Q 1406 3038 1543 3061 
Q 1681 3084 1819 3084 
Q 2600 3084 3056 2656 
Q 3513 2228 3513 1497 
Q 3513 744 3044 326 
Q 2575 -91 1722 -91 
Q 1428 -91 1123 -41 
Q 819 9 494 109 
L 494 744 
Q 775 591 1075 516 
Q 1375 441 1709 441 
Q 2250 441 2565 725 
Q 2881 1009 2881 1497 
Q 2881 1984 2565 2268 
Q 2250 2553 1709 2553 
Q 1456 2553 1204 2497 
Q 953 2441 691 2322 
L 691 4666 
z
" transform="scale(0.015625)"/>
       </defs>
       <use xlink:href="#DejaVuSans-35"/>
       <use xlink:href="#DejaVuSans-30" x="63.623047"/>
       <use xlink:href="#DejaVuSans-30" x="127.246094"/>
      </g>
     </g>
    </g>
    <g id="xtick_7">
     <g id="line2d_19">
      <defs>
       <path id="mfb204a18e5" d="M 0 0 
L 0 -1.5 
" style="stroke: #000000; stroke-width: 0.5"/>
      </defs>
      <g>
       <use xlink:href="#mfb204a18e5" x="51.058613" y="253.08" style="stroke: #000000; stroke-width: 0.5"/>
      </g>
     </g>
     <g id="line2d_20">
      <defs>
       <path id="m94b09e787b" d="M 0 0 
L 0 1.5 
" style="stroke: #000000; stroke-width: 0.5"/>
      </defs>
      <g>
       <use xlink:href="#m94b09e787b" x="51.058613" y="3.6" style="stroke: #000000; stroke-width: 0.5"/>
      </g>
     </g>
    </g>
    <g id="xtick_8">
     <g id="line2d_21">
      <g>
       <use xlink:href="#mfb204a18e5" x="75.4565" y="253.08" style="stroke: #000000; stroke-width: 0.5"/>
      </g>
     </g>
     <g id="line2d_22">
      <g>
       <use xlink:href="#m94b09e787b" x="75.4565" y="3.6" style="stroke: #000000; stroke-width: 0.5"/>
      </g>
     </g>
    </g>
    <g id="xtick_9">
     <g id="line2d_23">
      <g>
       <use xlink:href="#mfb204a18e5" x="87.655444" y="253.08" style="stroke: #000000; stroke-width: 0.5"/>
      </g>
     </g>
     <g id="line2d_24">
      <g>
       <use xlink:href="#m94b09e787b" x="87.655444" y="3.6" style="stroke: #000000; stroke-width: 0.5"/>
      </g>
     </g>
    </g>
    <g id="xtick_10">
     <g id="line2d_25">
      <g>
       <use xlink:href="#mfb204a18e5" x="99.854387" y="253.08" style="stroke: #000000; stroke-width: 0.5"/>
      </g>
     </g>
     <g id="line2d_26">
      <g>
       <use xlink:href="#m94b09e787b" x="99.854387" y="3.6" style="stroke: #000000; stroke-width: 0.5"/>
      </g>
     </g>
    </g>
    <g id="xtick_11">
     <g id="line2d_27">
      <g>
       <use xlink:href="#mfb204a18e5" x="112.05333" y="253.08" style="stroke: #000000; stroke-width: 0.5"/>
      </g>
     </g>
     <g id="line2d_28">
      <g>
       <use xlink:href="#m94b09e787b" x="112.05333" y="3.6" style="stroke: #000000; stroke-width: 0.5"/>
      </g>
     </g>
    </g>
    <g id="xtick_12">
     <g id="line2d_29">
      <g>
       <use xlink:href="#mfb204a18e5" x="136.451217" y="253.08" style="stroke: #000000; stroke-width: 0.5"/>
      </g>
     </g>
     <g id="line2d_30">
      <g>
       <use xlink:href="#m94b09e787b" x="136.451217" y="3.6" style="stroke: #000000; stroke-width: 0.5"/>
      </g>
     </g>
    </g>
    <g id="xtick_13">
     <g id="line2d_31">
      <g>
       <use xlink:href="#mfb204a18e5" x="148.65016" y="253.08" style="stroke: #000000; stroke-width: 0.5"/>
      </g>
     </g>
     <g id="line2d_32">
      <g>
       <use xlink:href="#m94b09e787b" x="148.65016" y="3.6" style="stroke: #000000; stroke-width: 0.5"/>
      </g>
     </g>
    </g>
    <g id="xtick_14">
     <g id="line2d_33">
      <g>
       <use xlink:href="#mfb204a18e5" x="160.849104" y="253.08" style="stroke: #000000; stroke-width: 0.5"/>
      </g>
     </g>
     <g id="line2d_34">
      <g>
       <use xlink:href="#m94b09e787b" x="160.849104" y="3.6" style="stroke: #000000; stroke-width: 0.5"/>
      </g>
     </g>
    </g>
    <g id="xtick_15">
     <g id="line2d_35">
      <g>
       <use xlink:href="#mfb204a18e5" x="173.048047" y="253.08" style="stroke: #000000; stroke-width: 0.5"/>
      </g>
     </g>
     <g id="line2d_36">
      <g>
       <use xlink:href="#m94b09e787b" x="173.048047" y="3.6" style="stroke: #000000; stroke-width: 0.5"/>
      </g>
     </g>
    </g>
    <g id="xtick_16">
     <g id="line2d_37">
      <g>
       <use xlink:href="#mfb204a18e5" x="197.445934" y="253.08" style="stroke: #000000; stroke-width: 0.5"/>
      </g>
     </g>
     <g id="line2d_38">
      <g>
       <use xlink:href="#m94b09e787b" x="197.445934" y="3.6" style="stroke: #000000; stroke-width: 0.5"/>
      </g>
     </g>
    </g>
    <g id="xtick_17">
     <g id="line2d_39">
      <g>
       <use xlink:href="#mfb204a18e5" x="209.644877" y="253.08" style="stroke: #000000; stroke-width: 0.5"/>
      </g>
     </g>
     <g id="line2d_40">
      <g>
       <use xlink:href="#m94b09e787b" x="209.644877" y="3.6" style="stroke: #000000; stroke-width: 0.5"/>
      </g>
     </g>
    </g>
    <g id="xtick_18">
     <g id="line2d_41">
      <g>
       <use xlink:href="#mfb204a18e5" x="221.84382" y="253.08" style="stroke: #000000; stroke-width: 0.5"/>
      </g>
     </g>
     <g id="line2d_42">
      <g>
       <use xlink:href="#m94b09e787b" x="221.84382" y="3.6" style="stroke: #000000; stroke-width: 0.5"/>
      </g>
     </g>
    </g>
    <g id="xtick_19">
     <g id="line2d_43">
      <g>
       <use xlink:href="#mfb204a18e5" x="234.042764" y="253.08" style="stroke: #000000; stroke-width: 0.5"/>
      </g>
     </g>
     <g id="line2d_44">
      <g>
       <use xlink:href="#m94b09e787b" x="234.042764" y="3.6" style="stroke: #000000; stroke-width: 0.5"/>
      </g>
     </g>
    </g>
    <g id="xtick_20">
     <g id="line2d_45">
      <g>
       <use xlink:href="#mfb204a18e5" x="258.44065" y="253.08" style="stroke: #000000; stroke-width: 0.5"/>
      </g>
     </g>
     <g id="line2d_46">
      <g>
       <use xlink:href="#m94b09e787b" x="258.44065" y="3.6" style="stroke: #000000; stroke-width: 0.5"/>
      </g>
     </g>
    </g>
    <g id="xtick_21">
     <g id="line2d_47">
      <g>
       <use xlink:href="#mfb204a18e5" x="270.639594" y="253.08" style="stroke: #000000; stroke-width: 0.5"/>
      </g>
     </g>
     <g id="line2d_48">
      <g>
       <use xlink:href="#m94b09e787b" x="270.639594" y="3.6" style="stroke: #000000; stroke-width: 0.5"/>
      </g>
     </g>
    </g>
    <g id="xtick_22">
     <g id="line2d_49">
      <g>
       <use xlink:href="#mfb204a18e5" x="282.838537" y="253.08" style="stroke: #000000; stroke-width: 0.5"/>
      </g>
     </g>
     <g id="line2d_50">
      <g>
       <use xlink:href="#m94b09e787b" x="282.838537" y="3.6" style="stroke: #000000; stroke-width: 0.5"/>
      </g>
     </g>
    </g>
    <g id="xtick_23">
     <g id="line2d_51">
      <g>
       <use xlink:href="#mfb204a18e5" x="295.03748" y="253.08" style="stroke: #000000; stroke-width: 0.5"/>
      </g>
     </g>
     <g id="line2d_52">
      <g>
       <use xlink:href="#m94b09e787b" x="295.03748" y="3.6" style="stroke: #000000; stroke-width: 0.5"/>
      </g>
     </g>
    </g>
    <g id="xtick_24">
     <g id="line2d_53">
      <g>
       <use xlink:href="#mfb204a18e5" x="319.435367" y="253.08" style="stroke: #000000; stroke-width: 0.5"/>
      </g>
     </g>
     <g id="line2d_54">
      <g>
       <use xlink:href="#m94b09e787b" x="319.435367" y="3.6" style="stroke: #000000; stroke-width: 0.5"/>
      </g>
     </g>
    </g>
    <g id="xtick_25">
     <g id="line2d_55">
      <g>
       <use xlink:href="#mfb204a18e5" x="331.63431" y="253.08" style="stroke: #000000; stroke-width: 0.5"/>
      </g>
     </g>
     <g id="line2d_56">
      <g>
       <use xlink:href="#m94b09e787b" x="331.63431" y="3.6" style="stroke: #000000; stroke-width: 0.5"/>
      </g>
     </g>
    </g>
    <g id="xtick_26">
     <g id="line2d_57">
      <g>
       <use xlink:href="#mfb204a18e5" x="343.833254" y="253.08" style="stroke: #000000; stroke-width: 0.5"/>
      </g>
     </g>
     <g id="line2d_58">
      <g>
       <use xlink:href="#m94b09e787b" x="343.833254" y="3.6" style="stroke: #000000; stroke-width: 0.5"/>
      </g>
     </g>
    </g>
    <g id="xtick_27">
     <g id="line2d_59">
      <g>
       <use xlink:href="#mfb204a18e5" x="356.032197" y="253.08" style="stroke: #000000; stroke-width: 0.5"/>
      </g>
     </g>
     <g id="line2d_60">
      <g>
       <use xlink:href="#m94b09e787b" x="356.032197" y="3.6" style="stroke: #000000; stroke-width: 0.5"/>
      </g>
     </g>
    </g>
    <g id="xtick_28">
     <g id="line2d_61">
      <g>
       <use xlink:href="#mfb204a18e5" x="380.430084" y="253.08" style="stroke: #000000; stroke-width: 0.5"/>
      </g>
     </g>
     <g id="line2d_62">
      <g>
       <use xlink:href="#m94b09e787b" x="380.430084" y="3.6" style="stroke: #000000; stroke-width: 0.5"/>
      </g>
     </g>
    </g>
    <g id="text_7">
     <!-- Generations -->
     <g transform="translate(178.842188 281.311875) scale(0.12 -0.12)">
      <defs>
       <path id="DejaVuSans-47" d="M 3809 666 
L 3809 1919 
L 2778 1919 
L 2778 2438 
L 4434 2438 
L 4434 434 
Q 4069 175 3628 42 
Q 3188 -91 2688 -91 
Q 1594 -91 976 548 
Q 359 1188 359 2328 
Q 359 3472 976 4111 
Q 1594 4750 2688 4750 
Q 3144 4750 3555 4637 
Q 3966 4525 4313 4306 
L 4313 3634 
Q 3963 3931 3569 4081 
Q 3175 4231 2741 4231 
Q 1884 4231 1454 3753 
Q 1025 3275 1025 2328 
Q 1025 1384 1454 906 
Q 1884 428 2741 428 
Q 3075 428 3337 486 
Q 3600 544 3809 666 
z
" transform="scale(0.015625)"/>
       <path id="DejaVuSans-65" d="M 3597 1894 
L 3597 1613 
L 953 1613 
Q 991 1019 1311 708 
Q 1631 397 2203 397 
Q 2534 397 2845 478 
Q 3156 559 3463 722 
L 3463 178 
Q 3153 47 2828 -22 
Q 2503 -91 2169 -91 
Q 1331 -91 842 396 
Q 353 884 353 1716 
Q 353 2575 817 3079 
Q 1281 3584 2069 3584 
Q 2775 3584 3186 3129 
Q 3597 2675 3597 1894 
z
M 3022 2063 
Q 3016 2534 2758 2815 
Q 2500 3097 2075 3097 
Q 1594 3097 1305 2825 
Q 1016 2553 972 2059 
L 3022 2063 
z
" transform="scale(0.015625)"/>
       <path id="DejaVuSans-6e" d="M 3513 2113 
L 3513 0 
L 2938 0 
L 2938 2094 
Q 2938 2591 2744 2837 
Q 2550 3084 2163 3084 
Q 1697 3084 1428 2787 
Q 1159 2491 1159 1978 
L 1159 0 
L 581 0 
L 581 3500 
L 1159 3500 
L 1159 2956 
Q 1366 3272 1645 3428 
Q 1925 3584 2291 3584 
Q 2894 3584 3203 3211 
Q 3513 2838 3513 2113 
z
" transform="scale(0.015625)"/>
       <path id="DejaVuSans-72" d="M 2631 2963 
Q 2534 3019 2420 3045 
Q 2306 3072 2169 3072 
Q 1681 3072 1420 2755 
Q 1159 2438 1159 1844 
L 1159 0 
L 581 0 
L 581 3500 
L 1159 3500 
L 1159 2956 
Q 1341 3275 1631 3429 
Q 1922 3584 2338 3584 
Q 2397 3584 2469 3576 
Q 2541 3569 2628 3553 
L 2631 2963 
z
" transform="scale(0.015625)"/>
       <path id="DejaVuSans-61" d="M 2194 1759 
Q 1497 1759 1228 1600 
Q 959 1441 959 1056 
Q 959 750 1161 570 
Q 1363 391 1709 391 
Q 2188 391 2477 730 
Q 2766 1069 2766 1631 
L 2766 1759 
L 2194 1759 
z
M 3341 1997 
L 3341 0 
L 2766 0 
L 2766 531 
Q 2569 213 2275 61 
Q 1981 -91 1556 -91 
Q 1019 -91 701 211 
Q 384 513 384 1019 
Q 384 1609 779 1909 
Q 1175 2209 1959 2209 
L 2766 2209 
L 2766 2266 
Q 2766 2663 2505 2880 
Q 2244 3097 1772 3097 
Q 1472 3097 1187 3025 
Q 903 2953 641 2809 
L 641 3341 
Q 956 3463 1253 3523 
Q 1550 3584 1831 3584 
Q 2591 3584 2966 3190 
Q 3341 2797 3341 1997 
z
" transform="scale(0.015625)"/>
       <path id="DejaVuSans-74" d="M 1172 4494 
L 1172 3500 
L 2356 3500 
L 2356 3053 
L 1172 3053 
L 1172 1153 
Q 1172 725 1289 603 
Q 1406 481 1766 481 
L 2356 481 
L 2356 0 
L 1766 0 
Q 1100 0 847 248 
Q 594 497 594 1153 
L 594 3053 
L 172 3053 
L 172 3500 
L 594 3500 
L 594 4494 
L 1172 4494 
z
" transform="scale(0.015625)"/>
       <path id="DejaVuSans-69" d="M 603 3500 
L 1178 3500 
L 1178 0 
L 603 0 
L 603 3500 
z
M 603 4863 
L 1178 4863 
L 1178 4134 
L 603 4134 
L 603 4863 
z
" transform="scale(0.015625)"/>
       <path id="DejaVuSans-6f" d="M 1959 3097 
Q 1497 3097 1228 2736 
Q 959 2375 959 1747 
Q 959 1119 1226 758 
Q 1494 397 1959 397 
Q 2419 397 2687 759 
Q 2956 1122 2956 1747 
Q 2956 2369 2687 2733 
Q 2419 3097 1959 3097 
z
M 1959 3584 
Q 2709 3584 3137 3096 
Q 3566 2609 3566 1747 
Q 3566 888 3137 398 
Q 2709 -91 1959 -91 
Q 1206 -91 779 398 
Q 353 888 353 1747 
Q 353 2609 779 3096 
Q 1206 3584 1959 3584 
z
" transform="scale(0.015625)"/>
       <path id="DejaVuSans-73" d="M 2834 3397 
L 2834 2853 
Q 2591 2978 2328 3040 
Q 2066 3103 1784 3103 
Q 1356 3103 1142 2972 
Q 928 2841 928 2578 
Q 928 2378 1081 2264 
Q 1234 2150 1697 2047 
L 1894 2003 
Q 2506 1872 2764 1633 
Q 3022 1394 3022 966 
Q 3022 478 2636 193 
Q 2250 -91 1575 -91 
Q 1294 -91 989 -36 
Q 684 19 347 128 
L 347 722 
Q 666 556 975 473 
Q 1284 391 1588 391 
Q 1994 391 2212 530 
Q 2431 669 2431 922 
Q 2431 1156 2273 1281 
Q 2116 1406 1581 1522 
L 1381 1569 
Q 847 1681 609 1914 
Q 372 2147 372 2553 
Q 372 3047 722 3315 
Q 1072 3584 1716 3584 
Q 2034 3584 2315 3537 
Q 2597 3491 2834 3397 
z
" transform="scale(0.015625)"/>
      </defs>
      <use xlink:href="#DejaVuSans-47"/>
      <use xlink:href="#DejaVuSans-65" x="77.490234"/>
      <use xlink:href="#DejaVuSans-6e" x="139.013672"/>
      <use xlink:href="#DejaVuSans-65" x="202.392578"/>
      <use xlink:href="#DejaVuSans-72" x="263.916016"/>
      <use xlink:href="#DejaVuSans-61" x="305.029297"/>
      <use xlink:href="#DejaVuSans-74" x="366.308594"/>
      <use xlink:href="#DejaVuSans-69" x="405.517578"/>
      <use xlink:href="#DejaVuSans-6f" x="433.300781"/>
      <use xlink:href="#DejaVuSans-6e" x="494.482422"/>
      <use xlink:href="#DejaVuSans-73" x="557.861328"/>
     </g>
    </g>
   </g>
   <g id="matplotlib.axis_2">
    <g id="ytick_1">
     <g id="line2d_63">
      <path d="M 48.039375 227.426515 
L 382.839375 227.426515 
" clip-path="url(#p11bd2c1301)" style="fill: none; stroke: #b0b0b0; stroke-width: 0.5; stroke-linecap: square"/>
     </g>
     <g id="line2d_64">
      <defs>
       <path id="m0560d1bde9" d="M 0 0 
L 3 0 
" style="stroke: #000000; stroke-width: 0.5"/>
      </defs>
      <g>
       <use xlink:href="#m0560d1bde9" x="48.039375" y="227.426515" style="stroke: #000000; stroke-width: 0.5"/>
      </g>
     </g>
     <g id="line2d_65">
      <defs>
       <path id="m4c622f841f" d="M 0 0 
L -3 0 
" style="stroke: #000000; stroke-width: 0.5"/>
      </defs>
      <g>
       <use xlink:href="#m4c622f841f" x="382.839375" y="227.426515" style="stroke: #000000; stroke-width: 0.5"/>
      </g>
     </g>
     <g id="text_8">
      <!-- −50 -->
      <g transform="translate(19.21375 231.985578) scale(0.12 -0.12)">
       <defs>
        <path id="DejaVuSans-2212" d="M 678 2272 
L 4684 2272 
L 4684 1741 
L 678 1741 
L 678 2272 
z
" transform="scale(0.015625)"/>
       </defs>
       <use xlink:href="#DejaVuSans-2212"/>
       <use xlink:href="#DejaVuSans-35" x="83.789062"/>
       <use xlink:href="#DejaVuSans-30" x="147.412109"/>
      </g>
     </g>
    </g>
    <g id="ytick_2">
     <g id="line2d_66">
      <path d="M 48.039375 199.057914 
L 382.839375 199.057914 
" clip-path="url(#p11bd2c1301)" style="fill: none; stroke: #b0b0b0; stroke-width: 0.5; stroke-linecap: square"/>
     </g>
     <g id="line2d_67">
      <g>
       <use xlink:href="#m0560d1bde9" x="48.039375" y="199.057914" style="stroke: #000000; stroke-width: 0.5"/>
      </g>
     </g>
     <g id="line2d_68">
      <g>
       <use xlink:href="#m4c622f841f" x="382.839375" y="199.057914" style="stroke: #000000; stroke-width: 0.5"/>
      </g>
     </g>
     <g id="text_9">
      <!-- −40 -->
      <g transform="translate(19.21375 203.616976) scale(0.12 -0.12)">
       <use xlink:href="#DejaVuSans-2212"/>
       <use xlink:href="#DejaVuSans-34" x="83.789062"/>
       <use xlink:href="#DejaVuSans-30" x="147.412109"/>
      </g>
     </g>
    </g>
    <g id="ytick_3">
     <g id="line2d_69">
      <path d="M 48.039375 170.689312 
L 382.839375 170.689312 
" clip-path="url(#p11bd2c1301)" style="fill: none; stroke: #b0b0b0; stroke-width: 0.5; stroke-linecap: square"/>
     </g>
     <g id="line2d_70">
      <g>
       <use xlink:href="#m0560d1bde9" x="48.039375" y="170.689312" style="stroke: #000000; stroke-width: 0.5"/>
      </g>
     </g>
     <g id="line2d_71">
      <g>
       <use xlink:href="#m4c622f841f" x="382.839375" y="170.689312" style="stroke: #000000; stroke-width: 0.5"/>
      </g>
     </g>
     <g id="text_10">
      <!-- −30 -->
      <g transform="translate(19.21375 175.248375) scale(0.12 -0.12)">
       <use xlink:href="#DejaVuSans-2212"/>
       <use xlink:href="#DejaVuSans-33" x="83.789062"/>
       <use xlink:href="#DejaVuSans-30" x="147.412109"/>
      </g>
     </g>
    </g>
    <g id="ytick_4">
     <g id="line2d_72">
      <path d="M 48.039375 142.320711 
L 382.839375 142.320711 
" clip-path="url(#p11bd2c1301)" style="fill: none; stroke: #b0b0b0; stroke-width: 0.5; stroke-linecap: square"/>
     </g>
     <g id="line2d_73">
      <g>
       <use xlink:href="#m0560d1bde9" x="48.039375" y="142.320711" style="stroke: #000000; stroke-width: 0.5"/>
      </g>
     </g>
     <g id="line2d_74">
      <g>
       <use xlink:href="#m4c622f841f" x="382.839375" y="142.320711" style="stroke: #000000; stroke-width: 0.5"/>
      </g>
     </g>
     <g id="text_11">
      <!-- −20 -->
      <g transform="translate(19.21375 146.879773) scale(0.12 -0.12)">
       <use xlink:href="#DejaVuSans-2212"/>
       <use xlink:href="#DejaVuSans-32" x="83.789062"/>
       <use xlink:href="#DejaVuSans-30" x="147.412109"/>
      </g>
     </g>
    </g>
    <g id="ytick_5">
     <g id="line2d_75">
      <path d="M 48.039375 113.952109 
L 382.839375 113.952109 
" clip-path="url(#p11bd2c1301)" style="fill: none; stroke: #b0b0b0; stroke-width: 0.5; stroke-linecap: square"/>
     </g>
     <g id="line2d_76">
      <g>
       <use xlink:href="#m0560d1bde9" x="48.039375" y="113.952109" style="stroke: #000000; stroke-width: 0.5"/>
      </g>
     </g>
     <g id="line2d_77">
      <g>
       <use xlink:href="#m4c622f841f" x="382.839375" y="113.952109" style="stroke: #000000; stroke-width: 0.5"/>
      </g>
     </g>
     <g id="text_12">
      <!-- −10 -->
      <g transform="translate(19.21375 118.511172) scale(0.12 -0.12)">
       <use xlink:href="#DejaVuSans-2212"/>
       <use xlink:href="#DejaVuSans-31" x="83.789062"/>
       <use xlink:href="#DejaVuSans-30" x="147.412109"/>
      </g>
     </g>
    </g>
    <g id="ytick_6">
     <g id="line2d_78">
      <path d="M 48.039375 85.583507 
L 382.839375 85.583507 
" clip-path="url(#p11bd2c1301)" style="fill: none; stroke: #b0b0b0; stroke-width: 0.5; stroke-linecap: square"/>
     </g>
     <g id="line2d_79">
      <g>
       <use xlink:href="#m0560d1bde9" x="48.039375" y="85.583507" style="stroke: #000000; stroke-width: 0.5"/>
      </g>
     </g>
     <g id="line2d_80">
      <g>
       <use xlink:href="#m4c622f841f" x="382.839375" y="85.583507" style="stroke: #000000; stroke-width: 0.5"/>
      </g>
     </g>
     <g id="text_13">
      <!-- 0 -->
      <g transform="translate(36.904375 90.14257) scale(0.12 -0.12)">
       <use xlink:href="#DejaVuSans-30"/>
      </g>
     </g>
    </g>
    <g id="ytick_7">
     <g id="line2d_81">
      <path d="M 48.039375 57.214906 
L 382.839375 57.214906 
" clip-path="url(#p11bd2c1301)" style="fill: none; stroke: #b0b0b0; stroke-width: 0.5; stroke-linecap: square"/>
     </g>
     <g id="line2d_82">
      <g>
       <use xlink:href="#m0560d1bde9" x="48.039375" y="57.214906" style="stroke: #000000; stroke-width: 0.5"/>
      </g>
     </g>
     <g id="line2d_83">
      <g>
       <use xlink:href="#m4c622f841f" x="382.839375" y="57.214906" style="stroke: #000000; stroke-width: 0.5"/>
      </g>
     </g>
     <g id="text_14">
      <!-- 10 -->
      <g transform="translate(29.269375 61.773968) scale(0.12 -0.12)">
       <use xlink:href="#DejaVuSans-31"/>
       <use xlink:href="#DejaVuSans-30" x="63.623047"/>
      </g>
     </g>
    </g>
    <g id="ytick_8">
     <g id="line2d_84">
      <path d="M 48.039375 28.846304 
L 382.839375 28.846304 
" clip-path="url(#p11bd2c1301)" style="fill: none; stroke: #b0b0b0; stroke-width: 0.5; stroke-linecap: square"/>
     </g>
     <g id="line2d_85">
      <g>
       <use xlink:href="#m0560d1bde9" x="48.039375" y="28.846304" style="stroke: #000000; stroke-width: 0.5"/>
      </g>
     </g>
     <g id="line2d_86">
      <g>
       <use xlink:href="#m4c622f841f" x="382.839375" y="28.846304" style="stroke: #000000; stroke-width: 0.5"/>
      </g>
     </g>
     <g id="text_15">
      <!-- 20 -->
      <g transform="translate(29.269375 33.405367) scale(0.12 -0.12)">
       <use xlink:href="#DejaVuSans-32"/>
       <use xlink:href="#DejaVuSans-30" x="63.623047"/>
      </g>
     </g>
    </g>
    <g id="ytick_9">
     <g id="line2d_87">
      <defs>
       <path id="m7d26aaceb9" d="M 0 0 
L 1.5 0 
" style="stroke: #000000; stroke-width: 0.5"/>
      </defs>
      <g>
       <use xlink:href="#m7d26aaceb9" x="48.039375" y="250.121397" style="stroke: #000000; stroke-width: 0.5"/>
      </g>
     </g>
     <g id="line2d_88">
      <defs>
       <path id="ma11678b447" d="M 0 0 
L -1.5 0 
" style="stroke: #000000; stroke-width: 0.5"/>
      </defs>
      <g>
       <use xlink:href="#ma11678b447" x="382.839375" y="250.121397" style="stroke: #000000; stroke-width: 0.5"/>
      </g>
     </g>
    </g>
    <g id="ytick_10">
     <g id="line2d_89">
      <g>
       <use xlink:href="#m7d26aaceb9" x="48.039375" y="244.447676" style="stroke: #000000; stroke-width: 0.5"/>
      </g>
     </g>
     <g id="line2d_90">
      <g>
       <use xlink:href="#ma11678b447" x="382.839375" y="244.447676" style="stroke: #000000; stroke-width: 0.5"/>
      </g>
     </g>
    </g>
    <g id="ytick_11">
     <g id="line2d_91">
      <g>
       <use xlink:href="#m7d26aaceb9" x="48.039375" y="238.773956" style="stroke: #000000; stroke-width: 0.5"/>
      </g>
     </g>
     <g id="line2d_92">
      <g>
       <use xlink:href="#ma11678b447" x="382.839375" y="238.773956" style="stroke: #000000; stroke-width: 0.5"/>
      </g>
     </g>
    </g>
    <g id="ytick_12">
     <g id="line2d_93">
      <g>
       <use xlink:href="#m7d26aaceb9" x="48.039375" y="233.100236" style="stroke: #000000; stroke-width: 0.5"/>
      </g>
     </g>
     <g id="line2d_94">
      <g>
       <use xlink:href="#ma11678b447" x="382.839375" y="233.100236" style="stroke: #000000; stroke-width: 0.5"/>
      </g>
     </g>
    </g>
    <g id="ytick_13">
     <g id="line2d_95">
      <g>
       <use xlink:href="#m7d26aaceb9" x="48.039375" y="221.752795" style="stroke: #000000; stroke-width: 0.5"/>
      </g>
     </g>
     <g id="line2d_96">
      <g>
       <use xlink:href="#ma11678b447" x="382.839375" y="221.752795" style="stroke: #000000; stroke-width: 0.5"/>
      </g>
     </g>
    </g>
    <g id="ytick_14">
     <g id="line2d_97">
      <g>
       <use xlink:href="#m7d26aaceb9" x="48.039375" y="216.079075" style="stroke: #000000; stroke-width: 0.5"/>
      </g>
     </g>
     <g id="line2d_98">
      <g>
       <use xlink:href="#ma11678b447" x="382.839375" y="216.079075" style="stroke: #000000; stroke-width: 0.5"/>
      </g>
     </g>
    </g>
    <g id="ytick_15">
     <g id="line2d_99">
      <g>
       <use xlink:href="#m7d26aaceb9" x="48.039375" y="210.405354" style="stroke: #000000; stroke-width: 0.5"/>
      </g>
     </g>
     <g id="line2d_100">
      <g>
       <use xlink:href="#ma11678b447" x="382.839375" y="210.405354" style="stroke: #000000; stroke-width: 0.5"/>
      </g>
     </g>
    </g>
    <g id="ytick_16">
     <g id="line2d_101">
      <g>
       <use xlink:href="#m7d26aaceb9" x="48.039375" y="204.731634" style="stroke: #000000; stroke-width: 0.5"/>
      </g>
     </g>
     <g id="line2d_102">
      <g>
       <use xlink:href="#ma11678b447" x="382.839375" y="204.731634" style="stroke: #000000; stroke-width: 0.5"/>
      </g>
     </g>
    </g>
    <g id="ytick_17">
     <g id="line2d_103">
      <g>
       <use xlink:href="#m7d26aaceb9" x="48.039375" y="193.384193" style="stroke: #000000; stroke-width: 0.5"/>
      </g>
     </g>
     <g id="line2d_104">
      <g>
       <use xlink:href="#ma11678b447" x="382.839375" y="193.384193" style="stroke: #000000; stroke-width: 0.5"/>
      </g>
     </g>
    </g>
    <g id="ytick_18">
     <g id="line2d_105">
      <g>
       <use xlink:href="#m7d26aaceb9" x="48.039375" y="187.710473" style="stroke: #000000; stroke-width: 0.5"/>
      </g>
     </g>
     <g id="line2d_106">
      <g>
       <use xlink:href="#ma11678b447" x="382.839375" y="187.710473" style="stroke: #000000; stroke-width: 0.5"/>
      </g>
     </g>
    </g>
    <g id="ytick_19">
     <g id="line2d_107">
      <g>
       <use xlink:href="#m7d26aaceb9" x="48.039375" y="182.036753" style="stroke: #000000; stroke-width: 0.5"/>
      </g>
     </g>
     <g id="line2d_108">
      <g>
       <use xlink:href="#ma11678b447" x="382.839375" y="182.036753" style="stroke: #000000; stroke-width: 0.5"/>
      </g>
     </g>
    </g>
    <g id="ytick_20">
     <g id="line2d_109">
      <g>
       <use xlink:href="#m7d26aaceb9" x="48.039375" y="176.363032" style="stroke: #000000; stroke-width: 0.5"/>
      </g>
     </g>
     <g id="line2d_110">
      <g>
       <use xlink:href="#ma11678b447" x="382.839375" y="176.363032" style="stroke: #000000; stroke-width: 0.5"/>
      </g>
     </g>
    </g>
    <g id="ytick_21">
     <g id="line2d_111">
      <g>
       <use xlink:href="#m7d26aaceb9" x="48.039375" y="165.015592" style="stroke: #000000; stroke-width: 0.5"/>
      </g>
     </g>
     <g id="line2d_112">
      <g>
       <use xlink:href="#ma11678b447" x="382.839375" y="165.015592" style="stroke: #000000; stroke-width: 0.5"/>
      </g>
     </g>
    </g>
    <g id="ytick_22">
     <g id="line2d_113">
      <g>
       <use xlink:href="#m7d26aaceb9" x="48.039375" y="159.341872" style="stroke: #000000; stroke-width: 0.5"/>
      </g>
     </g>
     <g id="line2d_114">
      <g>
       <use xlink:href="#ma11678b447" x="382.839375" y="159.341872" style="stroke: #000000; stroke-width: 0.5"/>
      </g>
     </g>
    </g>
    <g id="ytick_23">
     <g id="line2d_115">
      <g>
       <use xlink:href="#m7d26aaceb9" x="48.039375" y="153.668151" style="stroke: #000000; stroke-width: 0.5"/>
      </g>
     </g>
     <g id="line2d_116">
      <g>
       <use xlink:href="#ma11678b447" x="382.839375" y="153.668151" style="stroke: #000000; stroke-width: 0.5"/>
      </g>
     </g>
    </g>
    <g id="ytick_24">
     <g id="line2d_117">
      <g>
       <use xlink:href="#m7d26aaceb9" x="48.039375" y="147.994431" style="stroke: #000000; stroke-width: 0.5"/>
      </g>
     </g>
     <g id="line2d_118">
      <g>
       <use xlink:href="#ma11678b447" x="382.839375" y="147.994431" style="stroke: #000000; stroke-width: 0.5"/>
      </g>
     </g>
    </g>
    <g id="ytick_25">
     <g id="line2d_119">
      <g>
       <use xlink:href="#m7d26aaceb9" x="48.039375" y="136.64699" style="stroke: #000000; stroke-width: 0.5"/>
      </g>
     </g>
     <g id="line2d_120">
      <g>
       <use xlink:href="#ma11678b447" x="382.839375" y="136.64699" style="stroke: #000000; stroke-width: 0.5"/>
      </g>
     </g>
    </g>
    <g id="ytick_26">
     <g id="line2d_121">
      <g>
       <use xlink:href="#m7d26aaceb9" x="48.039375" y="130.97327" style="stroke: #000000; stroke-width: 0.5"/>
      </g>
     </g>
     <g id="line2d_122">
      <g>
       <use xlink:href="#ma11678b447" x="382.839375" y="130.97327" style="stroke: #000000; stroke-width: 0.5"/>
      </g>
     </g>
    </g>
    <g id="ytick_27">
     <g id="line2d_123">
      <g>
       <use xlink:href="#m7d26aaceb9" x="48.039375" y="125.29955" style="stroke: #000000; stroke-width: 0.5"/>
      </g>
     </g>
     <g id="line2d_124">
      <g>
       <use xlink:href="#ma11678b447" x="382.839375" y="125.29955" style="stroke: #000000; stroke-width: 0.5"/>
      </g>
     </g>
    </g>
    <g id="ytick_28">
     <g id="line2d_125">
      <g>
       <use xlink:href="#m7d26aaceb9" x="48.039375" y="119.625829" style="stroke: #000000; stroke-width: 0.5"/>
      </g>
     </g>
     <g id="line2d_126">
      <g>
       <use xlink:href="#ma11678b447" x="382.839375" y="119.625829" style="stroke: #000000; stroke-width: 0.5"/>
      </g>
     </g>
    </g>
    <g id="ytick_29">
     <g id="line2d_127">
      <g>
       <use xlink:href="#m7d26aaceb9" x="48.039375" y="108.278389" style="stroke: #000000; stroke-width: 0.5"/>
      </g>
     </g>
     <g id="line2d_128">
      <g>
       <use xlink:href="#ma11678b447" x="382.839375" y="108.278389" style="stroke: #000000; stroke-width: 0.5"/>
      </g>
     </g>
    </g>
    <g id="ytick_30">
     <g id="line2d_129">
      <g>
       <use xlink:href="#m7d26aaceb9" x="48.039375" y="102.604668" style="stroke: #000000; stroke-width: 0.5"/>
      </g>
     </g>
     <g id="line2d_130">
      <g>
       <use xlink:href="#ma11678b447" x="382.839375" y="102.604668" style="stroke: #000000; stroke-width: 0.5"/>
      </g>
     </g>
    </g>
    <g id="ytick_31">
     <g id="line2d_131">
      <g>
       <use xlink:href="#m7d26aaceb9" x="48.039375" y="96.930948" style="stroke: #000000; stroke-width: 0.5"/>
      </g>
     </g>
     <g id="line2d_132">
      <g>
       <use xlink:href="#ma11678b447" x="382.839375" y="96.930948" style="stroke: #000000; stroke-width: 0.5"/>
      </g>
     </g>
    </g>
    <g id="ytick_32">
     <g id="line2d_133">
      <g>
       <use xlink:href="#m7d26aaceb9" x="48.039375" y="91.257228" style="stroke: #000000; stroke-width: 0.5"/>
      </g>
     </g>
     <g id="line2d_134">
      <g>
       <use xlink:href="#ma11678b447" x="382.839375" y="91.257228" style="stroke: #000000; stroke-width: 0.5"/>
      </g>
     </g>
    </g>
    <g id="ytick_33">
     <g id="line2d_135">
      <g>
       <use xlink:href="#m7d26aaceb9" x="48.039375" y="79.909787" style="stroke: #000000; stroke-width: 0.5"/>
      </g>
     </g>
     <g id="line2d_136">
      <g>
       <use xlink:href="#ma11678b447" x="382.839375" y="79.909787" style="stroke: #000000; stroke-width: 0.5"/>
      </g>
     </g>
    </g>
    <g id="ytick_34">
     <g id="line2d_137">
      <g>
       <use xlink:href="#m7d26aaceb9" x="48.039375" y="74.236067" style="stroke: #000000; stroke-width: 0.5"/>
      </g>
     </g>
     <g id="line2d_138">
      <g>
       <use xlink:href="#ma11678b447" x="382.839375" y="74.236067" style="stroke: #000000; stroke-width: 0.5"/>
      </g>
     </g>
    </g>
    <g id="ytick_35">
     <g id="line2d_139">
      <g>
       <use xlink:href="#m7d26aaceb9" x="48.039375" y="68.562347" style="stroke: #000000; stroke-width: 0.5"/>
      </g>
     </g>
     <g id="line2d_140">
      <g>
       <use xlink:href="#ma11678b447" x="382.839375" y="68.562347" style="stroke: #000000; stroke-width: 0.5"/>
      </g>
     </g>
    </g>
    <g id="ytick_36">
     <g id="line2d_141">
      <g>
       <use xlink:href="#m7d26aaceb9" x="48.039375" y="62.888626" style="stroke: #000000; stroke-width: 0.5"/>
      </g>
     </g>
     <g id="line2d_142">
      <g>
       <use xlink:href="#ma11678b447" x="382.839375" y="62.888626" style="stroke: #000000; stroke-width: 0.5"/>
      </g>
     </g>
    </g>
    <g id="ytick_37">
     <g id="line2d_143">
      <g>
       <use xlink:href="#m7d26aaceb9" x="48.039375" y="51.541186" style="stroke: #000000; stroke-width: 0.5"/>
      </g>
     </g>
     <g id="line2d_144">
      <g>
       <use xlink:href="#ma11678b447" x="382.839375" y="51.541186" style="stroke: #000000; stroke-width: 0.5"/>
      </g>
     </g>
    </g>
    <g id="ytick_38">
     <g id="line2d_145">
      <g>
       <use xlink:href="#m7d26aaceb9" x="48.039375" y="45.867465" style="stroke: #000000; stroke-width: 0.5"/>
      </g>
     </g>
     <g id="line2d_146">
      <g>
       <use xlink:href="#ma11678b447" x="382.839375" y="45.867465" style="stroke: #000000; stroke-width: 0.5"/>
      </g>
     </g>
    </g>
    <g id="ytick_39">
     <g id="line2d_147">
      <g>
       <use xlink:href="#m7d26aaceb9" x="48.039375" y="40.193745" style="stroke: #000000; stroke-width: 0.5"/>
      </g>
     </g>
     <g id="line2d_148">
      <g>
       <use xlink:href="#ma11678b447" x="382.839375" y="40.193745" style="stroke: #000000; stroke-width: 0.5"/>
      </g>
     </g>
    </g>
    <g id="ytick_40">
     <g id="line2d_149">
      <g>
       <use xlink:href="#m7d26aaceb9" x="48.039375" y="34.520025" style="stroke: #000000; stroke-width: 0.5"/>
      </g>
     </g>
     <g id="line2d_150">
      <g>
       <use xlink:href="#ma11678b447" x="382.839375" y="34.520025" style="stroke: #000000; stroke-width: 0.5"/>
      </g>
     </g>
    </g>
    <g id="ytick_41">
     <g id="line2d_151">
      <g>
       <use xlink:href="#m7d26aaceb9" x="48.039375" y="23.172584" style="stroke: #000000; stroke-width: 0.5"/>
      </g>
     </g>
     <g id="line2d_152">
      <g>
       <use xlink:href="#ma11678b447" x="382.839375" y="23.172584" style="stroke: #000000; stroke-width: 0.5"/>
      </g>
     </g>
    </g>
    <g id="ytick_42">
     <g id="line2d_153">
      <g>
       <use xlink:href="#m7d26aaceb9" x="48.039375" y="17.498864" style="stroke: #000000; stroke-width: 0.5"/>
      </g>
     </g>
     <g id="line2d_154">
      <g>
       <use xlink:href="#ma11678b447" x="382.839375" y="17.498864" style="stroke: #000000; stroke-width: 0.5"/>
      </g>
     </g>
    </g>
    <g id="ytick_43">
     <g id="line2d_155">
      <g>
       <use xlink:href="#m7d26aaceb9" x="48.039375" y="11.825143" style="stroke: #000000; stroke-width: 0.5"/>
      </g>
     </g>
     <g id="line2d_156">
      <g>
       <use xlink:href="#ma11678b447" x="382.839375" y="11.825143" style="stroke: #000000; stroke-width: 0.5"/>
      </g>
     </g>
    </g>
    <g id="ytick_44">
     <g id="line2d_157">
      <g>
       <use xlink:href="#m7d26aaceb9" x="48.039375" y="6.151423" style="stroke: #000000; stroke-width: 0.5"/>
      </g>
     </g>
     <g id="line2d_158">
      <g>
       <use xlink:href="#ma11678b447" x="382.839375" y="6.151423" style="stroke: #000000; stroke-width: 0.5"/>
      </g>
     </g>
    </g>
    <g id="text_16">
     <!-- Fitness -->
     <g transform="translate(12.718125 149.120625) rotate(-90) scale(0.12 -0.12)">
      <defs>
       <path id="DejaVuSans-46" d="M 628 4666 
L 3309 4666 
L 3309 4134 
L 1259 4134 
L 1259 2759 
L 3109 2759 
L 3109 2228 
L 1259 2228 
L 1259 0 
L 628 0 
L 628 4666 
z
" transform="scale(0.015625)"/>
      </defs>
      <use xlink:href="#DejaVuSans-46"/>
      <use xlink:href="#DejaVuSans-69" x="50.269531"/>
      <use xlink:href="#DejaVuSans-74" x="78.052734"/>
      <use xlink:href="#DejaVuSans-6e" x="117.261719"/>
      <use xlink:href="#DejaVuSans-65" x="180.640625"/>
      <use xlink:href="#DejaVuSans-73" x="242.164062"/>
      <use xlink:href="#DejaVuSans-73" x="294.263672"/>
     </g>
    </g>
   </g>
   <g id="line2d_159">
    <path d="M 63.257557 45.379971 
L 68.747081 45.380273 
L 69.357028 35.332745 
L 73.016711 35.332745 
L 73.626659 29.871887 
L 77.286342 29.871897 
L 77.896289 28.964805 
L 82.165919 28.964831 
L 82.775866 26.703961 
L 83.385813 25.633856 
L 85.825602 25.633847 
L 86.435549 25.411154 
L 87.045496 18.957043 
L 94.364862 18.957041 
L 95.584757 18.337211 
L 96.194704 18.337239 
L 96.804651 18.034284 
L 97.414598 18.023887 
L 99.24444 17.017281 
L 172.4381 16.90736 
L 179.757466 16.733943 
L 180.367413 16.558332 
L 181.587307 16.545392 
L 182.197254 16.408774 
L 185.24699 16.376173 
L 185.856937 16.239815 
L 186.466885 16.239813 
L 187.076832 15.572596 
L 196.835986 15.572588 
L 197.445934 15.3993 
L 212.694613 15.360059 
L 213.914507 15.270851 
L 220.623926 15.195923 
L 221.84382 15.115034 
L 273.689329 15.004194 
L 276.739065 14.978801 
L 367.621193 14.940032 
L 367.621193 14.940032 
" clip-path="url(#p11bd2c1301)" style="fill: none; stroke: #000000; stroke-linecap: square"/>
   </g>
   <g id="line2d_160">
    <path d="M 63.257557 30.874122 
L 367.621193 30.874122 
L 367.621193 30.874122 
" clip-path="url(#p11bd2c1301)" style="fill: none; stroke-dasharray: 3.7,1.6; stroke-dashoffset: 0; stroke: #000000"/>
   </g>
   <g id="patch_3">
    <path d="M 48.039375 253.08 
L 48.039375 3.6 
" style="fill: none; stroke: #000000; stroke-width: 0.5; stroke-linejoin: miter; stroke-linecap: square"/>
   </g>
   <g id="patch_4">
    <path d="M 382.839375 253.08 
L 382.839375 3.6 
" style="fill: none; stroke: #000000; stroke-width: 0.5; stroke-linejoin: miter; stroke-linecap: square"/>
   </g>
   <g id="patch_5">
    <path d="M 48.039375 253.08 
L 382.839375 253.08 
" style="fill: none; stroke: #000000; stroke-width: 0.5; stroke-linejoin: miter; stroke-linecap: square"/>
   </g>
   <g id="patch_6">
    <path d="M 48.039375 3.6 
L 382.839375 3.6 
" style="fill: none; stroke: #000000; stroke-width: 0.5; stroke-linejoin: miter; stroke-linecap: square"/>
   </g>
   <g id="legend_1">
    <g id="patch_7">
     <path d="M 253.92 247.08 
L 374.439375 247.08 
Q 376.839375 247.08 376.839375 244.68 
L 376.839375 193.03875 
Q 376.839375 190.63875 374.439375 190.63875 
L 253.92 190.63875 
Q 251.52 190.63875 251.52 193.03875 
L 251.52 244.68 
Q 251.52 247.08 253.92 247.08 
z
" style="fill: #ffffff; opacity: 0.8; stroke: #cccccc; stroke-linejoin: miter"/>
    </g>
    <g id="line2d_161">
     <path d="M 256.32 200.356875 
L 268.32 200.356875 
L 280.32 200.356875 
" style="fill: none; stroke: #000000; stroke-linecap: square"/>
    </g>
    <g id="text_17">
     <!-- Best fitness -->
     <g transform="translate(289.92 204.556875) scale(0.12 -0.12)">
      <defs>
       <path id="DejaVuSans-42" d="M 1259 2228 
L 1259 519 
L 2272 519 
Q 2781 519 3026 730 
Q 3272 941 3272 1375 
Q 3272 1813 3026 2020 
Q 2781 2228 2272 2228 
L 1259 2228 
z
M 1259 4147 
L 1259 2741 
L 2194 2741 
Q 2656 2741 2882 2914 
Q 3109 3088 3109 3444 
Q 3109 3797 2882 3972 
Q 2656 4147 2194 4147 
L 1259 4147 
z
M 628 4666 
L 2241 4666 
Q 2963 4666 3353 4366 
Q 3744 4066 3744 3513 
Q 3744 3084 3544 2831 
Q 3344 2578 2956 2516 
Q 3422 2416 3680 2098 
Q 3938 1781 3938 1306 
Q 3938 681 3513 340 
Q 3088 0 2303 0 
L 628 0 
L 628 4666 
z
" transform="scale(0.015625)"/>
       <path id="DejaVuSans-20" transform="scale(0.015625)"/>
       <path id="DejaVuSans-66" d="M 2375 4863 
L 2375 4384 
L 1825 4384 
Q 1516 4384 1395 4259 
Q 1275 4134 1275 3809 
L 1275 3500 
L 2222 3500 
L 2222 3053 
L 1275 3053 
L 1275 0 
L 697 0 
L 697 3053 
L 147 3053 
L 147 3500 
L 697 3500 
L 697 3744 
Q 697 4328 969 4595 
Q 1241 4863 1831 4863 
L 2375 4863 
z
" transform="scale(0.015625)"/>
      </defs>
      <use xlink:href="#DejaVuSans-42"/>
      <use xlink:href="#DejaVuSans-65" x="68.603516"/>
      <use xlink:href="#DejaVuSans-73" x="130.126953"/>
      <use xlink:href="#DejaVuSans-74" x="182.226562"/>
      <use xlink:href="#DejaVuSans-20" x="221.435547"/>
      <use xlink:href="#DejaVuSans-66" x="253.222656"/>
      <use xlink:href="#DejaVuSans-69" x="288.427734"/>
      <use xlink:href="#DejaVuSans-74" x="316.210938"/>
      <use xlink:href="#DejaVuSans-6e" x="355.419922"/>
      <use xlink:href="#DejaVuSans-65" x="418.798828"/>
      <use xlink:href="#DejaVuSans-73" x="480.322266"/>
      <use xlink:href="#DejaVuSans-73" x="532.421875"/>
     </g>
    </g>
    <g id="patch_8">
     <path d="M 256.32 222.170625 
L 280.32 222.170625 
L 280.32 213.770625 
L 256.32 213.770625 
z
" style="fill: #0000ff; fill-opacity: 0.2; stroke: #0000ff; stroke-opacity: 0.2; stroke-linejoin: miter"/>
    </g>
    <g id="text_18">
     <!-- Top 90% -->
     <g transform="translate(289.92 222.170625) scale(0.12 -0.12)">
      <defs>
       <path id="DejaVuSans-54" d="M -19 4666 
L 3928 4666 
L 3928 4134 
L 2272 4134 
L 2272 0 
L 1638 0 
L 1638 4134 
L -19 4134 
L -19 4666 
z
" transform="scale(0.015625)"/>
       <path id="DejaVuSans-70" d="M 1159 525 
L 1159 -1331 
L 581 -1331 
L 581 3500 
L 1159 3500 
L 1159 2969 
Q 1341 3281 1617 3432 
Q 1894 3584 2278 3584 
Q 2916 3584 3314 3078 
Q 3713 2572 3713 1747 
Q 3713 922 3314 415 
Q 2916 -91 2278 -91 
Q 1894 -91 1617 61 
Q 1341 213 1159 525 
z
M 3116 1747 
Q 3116 2381 2855 2742 
Q 2594 3103 2138 3103 
Q 1681 3103 1420 2742 
Q 1159 2381 1159 1747 
Q 1159 1113 1420 752 
Q 1681 391 2138 391 
Q 2594 391 2855 752 
Q 3116 1113 3116 1747 
z
" transform="scale(0.015625)"/>
       <path id="DejaVuSans-39" d="M 703 97 
L 703 672 
Q 941 559 1184 500 
Q 1428 441 1663 441 
Q 2288 441 2617 861 
Q 2947 1281 2994 2138 
Q 2813 1869 2534 1725 
Q 2256 1581 1919 1581 
Q 1219 1581 811 2004 
Q 403 2428 403 3163 
Q 403 3881 828 4315 
Q 1253 4750 1959 4750 
Q 2769 4750 3195 4129 
Q 3622 3509 3622 2328 
Q 3622 1225 3098 567 
Q 2575 -91 1691 -91 
Q 1453 -91 1209 -44 
Q 966 3 703 97 
z
M 1959 2075 
Q 2384 2075 2632 2365 
Q 2881 2656 2881 3163 
Q 2881 3666 2632 3958 
Q 2384 4250 1959 4250 
Q 1534 4250 1286 3958 
Q 1038 3666 1038 3163 
Q 1038 2656 1286 2365 
Q 1534 2075 1959 2075 
z
" transform="scale(0.015625)"/>
       <path id="DejaVuSans-25" d="M 4653 2053 
Q 4381 2053 4226 1822 
Q 4072 1591 4072 1178 
Q 4072 772 4226 539 
Q 4381 306 4653 306 
Q 4919 306 5073 539 
Q 5228 772 5228 1178 
Q 5228 1588 5073 1820 
Q 4919 2053 4653 2053 
z
M 4653 2450 
Q 5147 2450 5437 2106 
Q 5728 1763 5728 1178 
Q 5728 594 5436 251 
Q 5144 -91 4653 -91 
Q 4153 -91 3862 251 
Q 3572 594 3572 1178 
Q 3572 1766 3864 2108 
Q 4156 2450 4653 2450 
z
M 1428 4353 
Q 1159 4353 1004 4120 
Q 850 3888 850 3481 
Q 850 3069 1003 2837 
Q 1156 2606 1428 2606 
Q 1700 2606 1854 2837 
Q 2009 3069 2009 3481 
Q 2009 3884 1853 4118 
Q 1697 4353 1428 4353 
z
M 4250 4750 
L 4750 4750 
L 1831 -91 
L 1331 -91 
L 4250 4750 
z
M 1428 4750 
Q 1922 4750 2215 4408 
Q 2509 4066 2509 3481 
Q 2509 2891 2217 2550 
Q 1925 2209 1428 2209 
Q 931 2209 642 2551 
Q 353 2894 353 3481 
Q 353 4063 643 4406 
Q 934 4750 1428 4750 
z
" transform="scale(0.015625)"/>
      </defs>
      <use xlink:href="#DejaVuSans-54"/>
      <use xlink:href="#DejaVuSans-6f" x="44.083984"/>
      <use xlink:href="#DejaVuSans-70" x="105.265625"/>
      <use xlink:href="#DejaVuSans-20" x="168.742188"/>
      <use xlink:href="#DejaVuSans-39" x="200.529297"/>
      <use xlink:href="#DejaVuSans-30" x="264.152344"/>
      <use xlink:href="#DejaVuSans-25" x="327.775391"/>
     </g>
    </g>
    <g id="line2d_162">
     <path d="M 256.32 235.584375 
L 268.32 235.584375 
L 280.32 235.584375 
" style="fill: none; stroke-dasharray: 3.7,1.6; stroke-dashoffset: 0; stroke: #000000"/>
    </g>
    <g id="text_19">
     <!-- 180mm Quad -->
     <g transform="translate(289.92 239.784375) scale(0.12 -0.12)">
      <defs>
       <path id="DejaVuSans-38" d="M 2034 2216 
Q 1584 2216 1326 1975 
Q 1069 1734 1069 1313 
Q 1069 891 1326 650 
Q 1584 409 2034 409 
Q 2484 409 2743 651 
Q 3003 894 3003 1313 
Q 3003 1734 2745 1975 
Q 2488 2216 2034 2216 
z
M 1403 2484 
Q 997 2584 770 2862 
Q 544 3141 544 3541 
Q 544 4100 942 4425 
Q 1341 4750 2034 4750 
Q 2731 4750 3128 4425 
Q 3525 4100 3525 3541 
Q 3525 3141 3298 2862 
Q 3072 2584 2669 2484 
Q 3125 2378 3379 2068 
Q 3634 1759 3634 1313 
Q 3634 634 3220 271 
Q 2806 -91 2034 -91 
Q 1263 -91 848 271 
Q 434 634 434 1313 
Q 434 1759 690 2068 
Q 947 2378 1403 2484 
z
M 1172 3481 
Q 1172 3119 1398 2916 
Q 1625 2713 2034 2713 
Q 2441 2713 2670 2916 
Q 2900 3119 2900 3481 
Q 2900 3844 2670 4047 
Q 2441 4250 2034 4250 
Q 1625 4250 1398 4047 
Q 1172 3844 1172 3481 
z
" transform="scale(0.015625)"/>
       <path id="DejaVuSans-6d" d="M 3328 2828 
Q 3544 3216 3844 3400 
Q 4144 3584 4550 3584 
Q 5097 3584 5394 3201 
Q 5691 2819 5691 2113 
L 5691 0 
L 5113 0 
L 5113 2094 
Q 5113 2597 4934 2840 
Q 4756 3084 4391 3084 
Q 3944 3084 3684 2787 
Q 3425 2491 3425 1978 
L 3425 0 
L 2847 0 
L 2847 2094 
Q 2847 2600 2669 2842 
Q 2491 3084 2119 3084 
Q 1678 3084 1418 2786 
Q 1159 2488 1159 1978 
L 1159 0 
L 581 0 
L 581 3500 
L 1159 3500 
L 1159 2956 
Q 1356 3278 1631 3431 
Q 1906 3584 2284 3584 
Q 2666 3584 2933 3390 
Q 3200 3197 3328 2828 
z
" transform="scale(0.015625)"/>
       <path id="DejaVuSans-51" d="M 2522 4238 
Q 1834 4238 1429 3725 
Q 1025 3213 1025 2328 
Q 1025 1447 1429 934 
Q 1834 422 2522 422 
Q 3209 422 3611 934 
Q 4013 1447 4013 2328 
Q 4013 3213 3611 3725 
Q 3209 4238 2522 4238 
z
M 3406 84 
L 4238 -825 
L 3475 -825 
L 2784 -78 
Q 2681 -84 2626 -87 
Q 2572 -91 2522 -91 
Q 1538 -91 948 567 
Q 359 1225 359 2328 
Q 359 3434 948 4092 
Q 1538 4750 2522 4750 
Q 3503 4750 4090 4092 
Q 4678 3434 4678 2328 
Q 4678 1516 4351 937 
Q 4025 359 3406 84 
z
" transform="scale(0.015625)"/>
       <path id="DejaVuSans-75" d="M 544 1381 
L 544 3500 
L 1119 3500 
L 1119 1403 
Q 1119 906 1312 657 
Q 1506 409 1894 409 
Q 2359 409 2629 706 
Q 2900 1003 2900 1516 
L 2900 3500 
L 3475 3500 
L 3475 0 
L 2900 0 
L 2900 538 
Q 2691 219 2414 64 
Q 2138 -91 1772 -91 
Q 1169 -91 856 284 
Q 544 659 544 1381 
z
M 1991 3584 
L 1991 3584 
z
" transform="scale(0.015625)"/>
       <path id="DejaVuSans-64" d="M 2906 2969 
L 2906 4863 
L 3481 4863 
L 3481 0 
L 2906 0 
L 2906 525 
Q 2725 213 2448 61 
Q 2172 -91 1784 -91 
Q 1150 -91 751 415 
Q 353 922 353 1747 
Q 353 2572 751 3078 
Q 1150 3584 1784 3584 
Q 2172 3584 2448 3432 
Q 2725 3281 2906 2969 
z
M 947 1747 
Q 947 1113 1208 752 
Q 1469 391 1925 391 
Q 2381 391 2643 752 
Q 2906 1113 2906 1747 
Q 2906 2381 2643 2742 
Q 2381 3103 1925 3103 
Q 1469 3103 1208 2742 
Q 947 2381 947 1747 
z
" transform="scale(0.015625)"/>
      </defs>
      <use xlink:href="#DejaVuSans-31"/>
      <use xlink:href="#DejaVuSans-38" x="63.623047"/>
      <use xlink:href="#DejaVuSans-30" x="127.246094"/>
      <use xlink:href="#DejaVuSans-6d" x="190.869141"/>
      <use xlink:href="#DejaVuSans-6d" x="288.28125"/>
      <use xlink:href="#DejaVuSans-20" x="385.693359"/>
      <use xlink:href="#DejaVuSans-51" x="417.480469"/>
      <use xlink:href="#DejaVuSans-75" x="496.191406"/>
      <use xlink:href="#DejaVuSans-61" x="559.570312"/>
      <use xlink:href="#DejaVuSans-64" x="620.849609"/>
     </g>
    </g>
   </g>
  </g>
 </g>
 <defs>
  <clipPath id="p11bd2c1301">
   <rect x="48.039375" y="3.6" width="334.8" height="249.48"/>
  </clipPath>
 </defs>
</svg>
