<?xml version="1.0" encoding="utf-8" standalone="no"?>
<!DOCTYPE svg PUBLIC "-//W3C//DTD SVG 1.1//EN"
  "http://www.w3.org/Graphics/SVG/1.1/DTD/svg11.dtd">
<svg xmlns:xlink="http://www.w3.org/1999/xlink" width="188.936732pt" height="287.4075pt" viewBox="0 0 188.936732 287.4075" xmlns="http://www.w3.org/2000/svg" version="1.1">
 <metadata>
  <rdf:RDF xmlns:dc="http://purl.org/dc/elements/1.1/" xmlns:cc="http://creativecommons.org/ns#" xmlns:rdf="http://www.w3.org/1999/02/22-rdf-syntax-ns#">
   <cc:Work>
    <dc:type rdf:resource="http://purl.org/dc/dcmitype/StillImage"/>
    <dc:date>2024-06-05T09:28:28.774851</dc:date>
    <dc:format>image/svg+xml</dc:format>
    <dc:creator>
     <cc:Agent>
      <dc:title>Matplotlib v3.9.0, https://matplotlib.org/</dc:title>
     </cc:Agent>
    </dc:creator>
   </cc:Work>
  </rdf:RDF>
 </metadata>
 <defs>
  <style type="text/css">*{stroke-linejoin: round; stroke-linecap: butt}</style>
 </defs>
 <g id="figure_1">
  <g id="patch_1">
   <path d="M 0 287.4075 
L 188.936732 287.4075 
L 188.936732 0 
L 0 0 
z
" style="fill: #ffffff"/>
  </g>
  <g id="axes_1">
   <g id="patch_2">
    <path d="M 51.853125 253.08 
L 185.336732 253.08 
L 185.336732 3.6 
L 51.853125 3.6 
z
" style="fill: #ffffff"/>
   </g>
   <g id="PathCollection_1">
    <defs>
     <path id="m6a391f5b64" d="M 0 3 
C 0.795609 3 1.55874 2.683901 2.12132 2.12132 
C 2.683901 1.55874 3 0.795609 3 0 
C 3 -0.795609 2.683901 -1.55874 2.12132 -2.12132 
C 1.55874 -2.683901 0.795609 -3 0 -3 
C -0.795609 -3 -1.55874 -2.683901 -2.12132 -2.12132 
C -2.683901 -1.55874 -3 -0.795609 -3 0 
C -3 0.795609 -2.683901 1.55874 -2.12132 2.12132 
C -1.55874 2.683901 -0.795609 3 0 3 
z
" style="stroke: #000000"/>
    </defs>
    <g clip-path="url(#p24477d9951)">
     <use xlink:href="#m6a391f5b64" x="131.893026" y="193.167716" style="stroke: #000000"/>
    </g>
   </g>
   <g id="patch_3">
    <path d="M 179.269296 115.164952 
L 178.844158 117.030451 
L 178.499401 116.821057 
L 132.065404 193.272413 
L 131.720647 193.063018 
L 178.154644 116.611663 
L 177.809887 116.402269 
z
" clip-path="url(#p24477d9951)" style="fill: #008000; stroke-dasharray: 3.7,1.6; stroke-dashoffset: 0; stroke: #008000; stroke-linejoin: miter"/>
   </g>
   <g id="PathCollection_2">
    <g clip-path="url(#p24477d9951)">
     <use xlink:href="#m6a391f5b64" x="78.400983" y="85.184884" style="stroke: #000000"/>
    </g>
   </g>
   <g id="patch_4">
    <path d="M 61.456254 95.753369 
L 62.676193 94.279403 
L 62.889657 94.621655 
L 78.294251 85.013758 
L 78.507715 85.35601 
L 63.103121 94.963908 
L 63.316585 95.30616 
z
" clip-path="url(#p24477d9951)" style="fill: #008000; stroke-dasharray: 3.7,1.6; stroke-dashoffset: 0; stroke: #008000; stroke-linejoin: miter"/>
   </g>
   <g id="PathCollection_3">
    <g clip-path="url(#p24477d9951)">
     <use xlink:href="#m6a391f5b64" x="88.706087" y="221.291152" style="stroke: #000000"/>
    </g>
   </g>
   <g id="patch_5">
    <path d="M 80.746697 206.961498 
L 82.15701 208.254496 
L 81.804389 208.450359 
L 88.882398 221.19322 
L 88.529777 221.389083 
L 81.451769 208.646222 
L 81.099148 208.842084 
z
" clip-path="url(#p24477d9951)" style="fill: #008000; stroke-dasharray: 3.7,1.6; stroke-dashoffset: 0; stroke: #008000; stroke-linejoin: miter"/>
   </g>
   <g id="PathCollection_4">
    <g clip-path="url(#p24477d9951)">
     <use xlink:href="#m6a391f5b64" x="78.847086" y="35.430949" style="stroke: #000000"/>
    </g>
   </g>
   <g id="patch_6">
    <path d="M 176.340558 31.475498 
L 174.551435 32.153631 
L 174.535083 31.750598 
L 78.855262 35.632466 
L 78.83891 35.229432 
L 174.518731 31.347564 
L 174.50238 30.944531 
z
" clip-path="url(#p24477d9951)" style="fill: #008000; stroke-dasharray: 3.7,1.6; stroke-dashoffset: 0; stroke: #008000; stroke-linejoin: miter"/>
   </g>
   <g id="PathCollection_5">
    <defs>
     <path id="m4fdcc232d3" d="M -7.071068 7.071068 
L 7.071068 -7.071068 
M -7.071068 -7.071068 
L 7.071068 7.071068 
" style="stroke: #ff0000"/>
    </defs>
    <g clip-path="url(#p24477d9951)">
     <use xlink:href="#m4fdcc232d3" x="94.539098" y="133.978713" style="fill: #ff0000; stroke: #ff0000"/>
    </g>
   </g>
   <g id="matplotlib.axis_1">
    <g id="xtick_1">
     <g id="line2d_1">
      <path d="M 94.410493 253.08 
L 94.410493 3.6 
" clip-path="url(#p24477d9951)" style="fill: none; stroke: #b0b0b0; stroke-width: 0.5; stroke-linecap: square"/>
     </g>
     <g id="line2d_2">
      <defs>
       <path id="m784d1a8995" d="M 0 0 
L 0 -3 
" style="stroke: #000000; stroke-width: 0.5"/>
      </defs>
      <g>
       <use xlink:href="#m784d1a8995" x="94.410493" y="253.08" style="stroke: #000000; stroke-width: 0.5"/>
      </g>
     </g>
     <g id="line2d_3">
      <defs>
       <path id="m240b9d5b43" d="M 0 0 
L 0 3 
" style="stroke: #000000; stroke-width: 0.5"/>
      </defs>
      <g>
       <use xlink:href="#m240b9d5b43" x="94.410493" y="3.6" style="stroke: #000000; stroke-width: 0.5"/>
      </g>
     </g>
     <g id="text_1">
      <!-- 0.0 -->
      <g transform="translate(84.868618 265.698125) scale(0.12 -0.12)">
       <defs>
        <path id="DejaVuSans-30" d="M 2034 4250 
Q 1547 4250 1301 3770 
Q 1056 3291 1056 2328 
Q 1056 1369 1301 889 
Q 1547 409 2034 409 
Q 2525 409 2770 889 
Q 3016 1369 3016 2328 
Q 3016 3291 2770 3770 
Q 2525 4250 2034 4250 
z
M 2034 4750 
Q 2819 4750 3233 4129 
Q 3647 3509 3647 2328 
Q 3647 1150 3233 529 
Q 2819 -91 2034 -91 
Q 1250 -91 836 529 
Q 422 1150 422 2328 
Q 422 3509 836 4129 
Q 1250 4750 2034 4750 
z
" transform="scale(0.015625)"/>
        <path id="DejaVuSans-2e" d="M 684 794 
L 1344 794 
L 1344 0 
L 684 0 
L 684 794 
z
" transform="scale(0.015625)"/>
       </defs>
       <use xlink:href="#DejaVuSans-30"/>
       <use xlink:href="#DejaVuSans-2e" x="63.623047"/>
       <use xlink:href="#DejaVuSans-30" x="95.410156"/>
      </g>
     </g>
    </g>
    <g id="xtick_2">
     <g id="line2d_4">
      <path d="M 175.083521 253.08 
L 175.083521 3.6 
" clip-path="url(#p24477d9951)" style="fill: none; stroke: #b0b0b0; stroke-width: 0.5; stroke-linecap: square"/>
     </g>
     <g id="line2d_5">
      <g>
       <use xlink:href="#m784d1a8995" x="175.083521" y="253.08" style="stroke: #000000; stroke-width: 0.5"/>
      </g>
     </g>
     <g id="line2d_6">
      <g>
       <use xlink:href="#m240b9d5b43" x="175.083521" y="3.6" style="stroke: #000000; stroke-width: 0.5"/>
      </g>
     </g>
     <g id="text_2">
      <!-- 0.2 -->
      <g transform="translate(165.541646 265.698125) scale(0.12 -0.12)">
       <defs>
        <path id="DejaVuSans-32" d="M 1228 531 
L 3431 531 
L 3431 0 
L 469 0 
L 469 531 
Q 828 903 1448 1529 
Q 2069 2156 2228 2338 
Q 2531 2678 2651 2914 
Q 2772 3150 2772 3378 
Q 2772 3750 2511 3984 
Q 2250 4219 1831 4219 
Q 1534 4219 1204 4116 
Q 875 4013 500 3803 
L 500 4441 
Q 881 4594 1212 4672 
Q 1544 4750 1819 4750 
Q 2544 4750 2975 4387 
Q 3406 4025 3406 3419 
Q 3406 3131 3298 2873 
Q 3191 2616 2906 2266 
Q 2828 2175 2409 1742 
Q 1991 1309 1228 531 
z
" transform="scale(0.015625)"/>
       </defs>
       <use xlink:href="#DejaVuSans-30"/>
       <use xlink:href="#DejaVuSans-2e" x="63.623047"/>
       <use xlink:href="#DejaVuSans-32" x="95.410156"/>
      </g>
     </g>
    </g>
    <g id="xtick_3">
     <g id="line2d_7">
      <defs>
       <path id="m1c14ac9127" d="M 0 0 
L 0 -1.5 
" style="stroke: #000000; stroke-width: 0.5"/>
      </defs>
      <g>
       <use xlink:href="#m1c14ac9127" x="54.073979" y="253.08" style="stroke: #000000; stroke-width: 0.5"/>
      </g>
     </g>
     <g id="line2d_8">
      <defs>
       <path id="m75a90b161f" d="M 0 0 
L 0 1.5 
" style="stroke: #000000; stroke-width: 0.5"/>
      </defs>
      <g>
       <use xlink:href="#m75a90b161f" x="54.073979" y="3.6" style="stroke: #000000; stroke-width: 0.5"/>
      </g>
     </g>
    </g>
    <g id="xtick_4">
     <g id="line2d_9">
      <g>
       <use xlink:href="#m1c14ac9127" x="74.242236" y="253.08" style="stroke: #000000; stroke-width: 0.5"/>
      </g>
     </g>
     <g id="line2d_10">
      <g>
       <use xlink:href="#m75a90b161f" x="74.242236" y="3.6" style="stroke: #000000; stroke-width: 0.5"/>
      </g>
     </g>
    </g>
    <g id="xtick_5">
     <g id="line2d_11">
      <g>
       <use xlink:href="#m1c14ac9127" x="114.57875" y="253.08" style="stroke: #000000; stroke-width: 0.5"/>
      </g>
     </g>
     <g id="line2d_12">
      <g>
       <use xlink:href="#m75a90b161f" x="114.57875" y="3.6" style="stroke: #000000; stroke-width: 0.5"/>
      </g>
     </g>
    </g>
    <g id="xtick_6">
     <g id="line2d_13">
      <g>
       <use xlink:href="#m1c14ac9127" x="134.747007" y="253.08" style="stroke: #000000; stroke-width: 0.5"/>
      </g>
     </g>
     <g id="line2d_14">
      <g>
       <use xlink:href="#m75a90b161f" x="134.747007" y="3.6" style="stroke: #000000; stroke-width: 0.5"/>
      </g>
     </g>
    </g>
    <g id="xtick_7">
     <g id="line2d_15">
      <g>
       <use xlink:href="#m1c14ac9127" x="154.915264" y="253.08" style="stroke: #000000; stroke-width: 0.5"/>
      </g>
     </g>
     <g id="line2d_16">
      <g>
       <use xlink:href="#m75a90b161f" x="154.915264" y="3.6" style="stroke: #000000; stroke-width: 0.5"/>
      </g>
     </g>
    </g>
    <g id="text_3">
     <!-- y -->
     <g transform="translate(115.043679 281.311875) scale(0.12 -0.12)">
      <defs>
       <path id="DejaVuSans-79" d="M 2059 -325 
Q 1816 -950 1584 -1140 
Q 1353 -1331 966 -1331 
L 506 -1331 
L 506 -850 
L 844 -850 
Q 1081 -850 1212 -737 
Q 1344 -625 1503 -206 
L 1606 56 
L 191 3500 
L 800 3500 
L 1894 763 
L 2988 3500 
L 3597 3500 
L 2059 -325 
z
" transform="scale(0.015625)"/>
      </defs>
      <use xlink:href="#DejaVuSans-79"/>
     </g>
    </g>
   </g>
   <g id="matplotlib.axis_2">
    <g id="ytick_1">
     <g id="line2d_17">
      <path d="M 51.853125 214.340242 
L 185.336732 214.340242 
" clip-path="url(#p24477d9951)" style="fill: none; stroke: #b0b0b0; stroke-width: 0.5; stroke-linecap: square"/>
     </g>
     <g id="line2d_18">
      <defs>
       <path id="m4b6d419df2" d="M 0 0 
L 3 0 
" style="stroke: #000000; stroke-width: 0.5"/>
      </defs>
      <g>
       <use xlink:href="#m4b6d419df2" x="51.853125" y="214.340242" style="stroke: #000000; stroke-width: 0.5"/>
      </g>
     </g>
     <g id="line2d_19">
      <defs>
       <path id="mb8a64be059" d="M 0 0 
L -3 0 
" style="stroke: #000000; stroke-width: 0.5"/>
      </defs>
      <g>
       <use xlink:href="#mb8a64be059" x="185.336732" y="214.340242" style="stroke: #000000; stroke-width: 0.5"/>
      </g>
     </g>
     <g id="text_4">
      <!-- −0.2 -->
      <g transform="translate(19.21375 218.899305) scale(0.12 -0.12)">
       <defs>
        <path id="DejaVuSans-2212" d="M 678 2272 
L 4684 2272 
L 4684 1741 
L 678 1741 
L 678 2272 
z
" transform="scale(0.015625)"/>
       </defs>
       <use xlink:href="#DejaVuSans-2212"/>
       <use xlink:href="#DejaVuSans-30" x="83.789062"/>
       <use xlink:href="#DejaVuSans-2e" x="147.412109"/>
       <use xlink:href="#DejaVuSans-32" x="179.199219"/>
      </g>
     </g>
    </g>
    <g id="ytick_2">
     <g id="line2d_20">
      <path d="M 51.853125 174.003728 
L 185.336732 174.003728 
" clip-path="url(#p24477d9951)" style="fill: none; stroke: #b0b0b0; stroke-width: 0.5; stroke-linecap: square"/>
     </g>
     <g id="line2d_21">
      <g>
       <use xlink:href="#m4b6d419df2" x="51.853125" y="174.003728" style="stroke: #000000; stroke-width: 0.5"/>
      </g>
     </g>
     <g id="line2d_22">
      <g>
       <use xlink:href="#mb8a64be059" x="185.336732" y="174.003728" style="stroke: #000000; stroke-width: 0.5"/>
      </g>
     </g>
     <g id="text_5">
      <!-- −0.1 -->
      <g transform="translate(19.21375 178.562791) scale(0.12 -0.12)">
       <defs>
        <path id="DejaVuSans-31" d="M 794 531 
L 1825 531 
L 1825 4091 
L 703 3866 
L 703 4441 
L 1819 4666 
L 2450 4666 
L 2450 531 
L 3481 531 
L 3481 0 
L 794 0 
L 794 531 
z
" transform="scale(0.015625)"/>
       </defs>
       <use xlink:href="#DejaVuSans-2212"/>
       <use xlink:href="#DejaVuSans-30" x="83.789062"/>
       <use xlink:href="#DejaVuSans-2e" x="147.412109"/>
       <use xlink:href="#DejaVuSans-31" x="179.199219"/>
      </g>
     </g>
    </g>
    <g id="ytick_3">
     <g id="line2d_23">
      <path d="M 51.853125 133.667214 
L 185.336732 133.667214 
" clip-path="url(#p24477d9951)" style="fill: none; stroke: #b0b0b0; stroke-width: 0.5; stroke-linecap: square"/>
     </g>
     <g id="line2d_24">
      <g>
       <use xlink:href="#m4b6d419df2" x="51.853125" y="133.667214" style="stroke: #000000; stroke-width: 0.5"/>
      </g>
     </g>
     <g id="line2d_25">
      <g>
       <use xlink:href="#mb8a64be059" x="185.336732" y="133.667214" style="stroke: #000000; stroke-width: 0.5"/>
      </g>
     </g>
     <g id="text_6">
      <!-- 0.0 -->
      <g transform="translate(29.269375 138.226277) scale(0.12 -0.12)">
       <use xlink:href="#DejaVuSans-30"/>
       <use xlink:href="#DejaVuSans-2e" x="63.623047"/>
       <use xlink:href="#DejaVuSans-30" x="95.410156"/>
      </g>
     </g>
    </g>
    <g id="ytick_4">
     <g id="line2d_26">
      <path d="M 51.853125 93.3307 
L 185.336732 93.3307 
" clip-path="url(#p24477d9951)" style="fill: none; stroke: #b0b0b0; stroke-width: 0.5; stroke-linecap: square"/>
     </g>
     <g id="line2d_27">
      <g>
       <use xlink:href="#m4b6d419df2" x="51.853125" y="93.3307" style="stroke: #000000; stroke-width: 0.5"/>
      </g>
     </g>
     <g id="line2d_28">
      <g>
       <use xlink:href="#mb8a64be059" x="185.336732" y="93.3307" style="stroke: #000000; stroke-width: 0.5"/>
      </g>
     </g>
     <g id="text_7">
      <!-- 0.1 -->
      <g transform="translate(29.269375 97.889763) scale(0.12 -0.12)">
       <use xlink:href="#DejaVuSans-30"/>
       <use xlink:href="#DejaVuSans-2e" x="63.623047"/>
       <use xlink:href="#DejaVuSans-31" x="95.410156"/>
      </g>
     </g>
    </g>
    <g id="ytick_5">
     <g id="line2d_29">
      <path d="M 51.853125 52.994186 
L 185.336732 52.994186 
" clip-path="url(#p24477d9951)" style="fill: none; stroke: #b0b0b0; stroke-width: 0.5; stroke-linecap: square"/>
     </g>
     <g id="line2d_30">
      <g>
       <use xlink:href="#m4b6d419df2" x="51.853125" y="52.994186" style="stroke: #000000; stroke-width: 0.5"/>
      </g>
     </g>
     <g id="line2d_31">
      <g>
       <use xlink:href="#mb8a64be059" x="185.336732" y="52.994186" style="stroke: #000000; stroke-width: 0.5"/>
      </g>
     </g>
     <g id="text_8">
      <!-- 0.2 -->
      <g transform="translate(29.269375 57.553248) scale(0.12 -0.12)">
       <use xlink:href="#DejaVuSans-30"/>
       <use xlink:href="#DejaVuSans-2e" x="63.623047"/>
       <use xlink:href="#DejaVuSans-32" x="95.410156"/>
      </g>
     </g>
    </g>
    <g id="ytick_6">
     <g id="line2d_32">
      <path d="M 51.853125 12.657672 
L 185.336732 12.657672 
" clip-path="url(#p24477d9951)" style="fill: none; stroke: #b0b0b0; stroke-width: 0.5; stroke-linecap: square"/>
     </g>
     <g id="line2d_33">
      <g>
       <use xlink:href="#m4b6d419df2" x="51.853125" y="12.657672" style="stroke: #000000; stroke-width: 0.5"/>
      </g>
     </g>
     <g id="line2d_34">
      <g>
       <use xlink:href="#mb8a64be059" x="185.336732" y="12.657672" style="stroke: #000000; stroke-width: 0.5"/>
      </g>
     </g>
     <g id="text_9">
      <!-- 0.3 -->
      <g transform="translate(29.269375 17.216734) scale(0.12 -0.12)">
       <defs>
        <path id="DejaVuSans-33" d="M 2597 2516 
Q 3050 2419 3304 2112 
Q 3559 1806 3559 1356 
Q 3559 666 3084 287 
Q 2609 -91 1734 -91 
Q 1441 -91 1130 -33 
Q 819 25 488 141 
L 488 750 
Q 750 597 1062 519 
Q 1375 441 1716 441 
Q 2309 441 2620 675 
Q 2931 909 2931 1356 
Q 2931 1769 2642 2001 
Q 2353 2234 1838 2234 
L 1294 2234 
L 1294 2753 
L 1863 2753 
Q 2328 2753 2575 2939 
Q 2822 3125 2822 3475 
Q 2822 3834 2567 4026 
Q 2313 4219 1838 4219 
Q 1578 4219 1281 4162 
Q 984 4106 628 3988 
L 628 4550 
Q 988 4650 1302 4700 
Q 1616 4750 1894 4750 
Q 2613 4750 3031 4423 
Q 3450 4097 3450 3541 
Q 3450 3153 3228 2886 
Q 3006 2619 2597 2516 
z
" transform="scale(0.015625)"/>
       </defs>
       <use xlink:href="#DejaVuSans-30"/>
       <use xlink:href="#DejaVuSans-2e" x="63.623047"/>
       <use xlink:href="#DejaVuSans-33" x="95.410156"/>
      </g>
     </g>
    </g>
    <g id="ytick_7">
     <g id="line2d_35">
      <defs>
       <path id="m3c3cef6f55" d="M 0 0 
L 1.5 0 
" style="stroke: #000000; stroke-width: 0.5"/>
      </defs>
      <g>
       <use xlink:href="#m3c3cef6f55" x="51.853125" y="246.609454" style="stroke: #000000; stroke-width: 0.5"/>
      </g>
     </g>
     <g id="line2d_36">
      <defs>
       <path id="ma703686b2a" d="M 0 0 
L -1.5 0 
" style="stroke: #000000; stroke-width: 0.5"/>
      </defs>
      <g>
       <use xlink:href="#ma703686b2a" x="185.336732" y="246.609454" style="stroke: #000000; stroke-width: 0.5"/>
      </g>
     </g>
    </g>
    <g id="ytick_8">
     <g id="line2d_37">
      <g>
       <use xlink:href="#m3c3cef6f55" x="51.853125" y="238.542151" style="stroke: #000000; stroke-width: 0.5"/>
      </g>
     </g>
     <g id="line2d_38">
      <g>
       <use xlink:href="#ma703686b2a" x="185.336732" y="238.542151" style="stroke: #000000; stroke-width: 0.5"/>
      </g>
     </g>
    </g>
    <g id="ytick_9">
     <g id="line2d_39">
      <g>
       <use xlink:href="#m3c3cef6f55" x="51.853125" y="230.474848" style="stroke: #000000; stroke-width: 0.5"/>
      </g>
     </g>
     <g id="line2d_40">
      <g>
       <use xlink:href="#ma703686b2a" x="185.336732" y="230.474848" style="stroke: #000000; stroke-width: 0.5"/>
      </g>
     </g>
    </g>
    <g id="ytick_10">
     <g id="line2d_41">
      <g>
       <use xlink:href="#m3c3cef6f55" x="51.853125" y="222.407545" style="stroke: #000000; stroke-width: 0.5"/>
      </g>
     </g>
     <g id="line2d_42">
      <g>
       <use xlink:href="#ma703686b2a" x="185.336732" y="222.407545" style="stroke: #000000; stroke-width: 0.5"/>
      </g>
     </g>
    </g>
    <g id="ytick_11">
     <g id="line2d_43">
      <g>
       <use xlink:href="#m3c3cef6f55" x="51.853125" y="206.27294" style="stroke: #000000; stroke-width: 0.5"/>
      </g>
     </g>
     <g id="line2d_44">
      <g>
       <use xlink:href="#ma703686b2a" x="185.336732" y="206.27294" style="stroke: #000000; stroke-width: 0.5"/>
      </g>
     </g>
    </g>
    <g id="ytick_12">
     <g id="line2d_45">
      <g>
       <use xlink:href="#m3c3cef6f55" x="51.853125" y="198.205637" style="stroke: #000000; stroke-width: 0.5"/>
      </g>
     </g>
     <g id="line2d_46">
      <g>
       <use xlink:href="#ma703686b2a" x="185.336732" y="198.205637" style="stroke: #000000; stroke-width: 0.5"/>
      </g>
     </g>
    </g>
    <g id="ytick_13">
     <g id="line2d_47">
      <g>
       <use xlink:href="#m3c3cef6f55" x="51.853125" y="190.138334" style="stroke: #000000; stroke-width: 0.5"/>
      </g>
     </g>
     <g id="line2d_48">
      <g>
       <use xlink:href="#ma703686b2a" x="185.336732" y="190.138334" style="stroke: #000000; stroke-width: 0.5"/>
      </g>
     </g>
    </g>
    <g id="ytick_14">
     <g id="line2d_49">
      <g>
       <use xlink:href="#m3c3cef6f55" x="51.853125" y="182.071031" style="stroke: #000000; stroke-width: 0.5"/>
      </g>
     </g>
     <g id="line2d_50">
      <g>
       <use xlink:href="#ma703686b2a" x="185.336732" y="182.071031" style="stroke: #000000; stroke-width: 0.5"/>
      </g>
     </g>
    </g>
    <g id="ytick_15">
     <g id="line2d_51">
      <g>
       <use xlink:href="#m3c3cef6f55" x="51.853125" y="165.936426" style="stroke: #000000; stroke-width: 0.5"/>
      </g>
     </g>
     <g id="line2d_52">
      <g>
       <use xlink:href="#ma703686b2a" x="185.336732" y="165.936426" style="stroke: #000000; stroke-width: 0.5"/>
      </g>
     </g>
    </g>
    <g id="ytick_16">
     <g id="line2d_53">
      <g>
       <use xlink:href="#m3c3cef6f55" x="51.853125" y="157.869123" style="stroke: #000000; stroke-width: 0.5"/>
      </g>
     </g>
     <g id="line2d_54">
      <g>
       <use xlink:href="#ma703686b2a" x="185.336732" y="157.869123" style="stroke: #000000; stroke-width: 0.5"/>
      </g>
     </g>
    </g>
    <g id="ytick_17">
     <g id="line2d_55">
      <g>
       <use xlink:href="#m3c3cef6f55" x="51.853125" y="149.80182" style="stroke: #000000; stroke-width: 0.5"/>
      </g>
     </g>
     <g id="line2d_56">
      <g>
       <use xlink:href="#ma703686b2a" x="185.336732" y="149.80182" style="stroke: #000000; stroke-width: 0.5"/>
      </g>
     </g>
    </g>
    <g id="ytick_18">
     <g id="line2d_57">
      <g>
       <use xlink:href="#m3c3cef6f55" x="51.853125" y="141.734517" style="stroke: #000000; stroke-width: 0.5"/>
      </g>
     </g>
     <g id="line2d_58">
      <g>
       <use xlink:href="#ma703686b2a" x="185.336732" y="141.734517" style="stroke: #000000; stroke-width: 0.5"/>
      </g>
     </g>
    </g>
    <g id="ytick_19">
     <g id="line2d_59">
      <g>
       <use xlink:href="#m3c3cef6f55" x="51.853125" y="125.599911" style="stroke: #000000; stroke-width: 0.5"/>
      </g>
     </g>
     <g id="line2d_60">
      <g>
       <use xlink:href="#ma703686b2a" x="185.336732" y="125.599911" style="stroke: #000000; stroke-width: 0.5"/>
      </g>
     </g>
    </g>
    <g id="ytick_20">
     <g id="line2d_61">
      <g>
       <use xlink:href="#m3c3cef6f55" x="51.853125" y="117.532609" style="stroke: #000000; stroke-width: 0.5"/>
      </g>
     </g>
     <g id="line2d_62">
      <g>
       <use xlink:href="#ma703686b2a" x="185.336732" y="117.532609" style="stroke: #000000; stroke-width: 0.5"/>
      </g>
     </g>
    </g>
    <g id="ytick_21">
     <g id="line2d_63">
      <g>
       <use xlink:href="#m3c3cef6f55" x="51.853125" y="109.465306" style="stroke: #000000; stroke-width: 0.5"/>
      </g>
     </g>
     <g id="line2d_64">
      <g>
       <use xlink:href="#ma703686b2a" x="185.336732" y="109.465306" style="stroke: #000000; stroke-width: 0.5"/>
      </g>
     </g>
    </g>
    <g id="ytick_22">
     <g id="line2d_65">
      <g>
       <use xlink:href="#m3c3cef6f55" x="51.853125" y="101.398003" style="stroke: #000000; stroke-width: 0.5"/>
      </g>
     </g>
     <g id="line2d_66">
      <g>
       <use xlink:href="#ma703686b2a" x="185.336732" y="101.398003" style="stroke: #000000; stroke-width: 0.5"/>
      </g>
     </g>
    </g>
    <g id="ytick_23">
     <g id="line2d_67">
      <g>
       <use xlink:href="#m3c3cef6f55" x="51.853125" y="85.263397" style="stroke: #000000; stroke-width: 0.5"/>
      </g>
     </g>
     <g id="line2d_68">
      <g>
       <use xlink:href="#ma703686b2a" x="185.336732" y="85.263397" style="stroke: #000000; stroke-width: 0.5"/>
      </g>
     </g>
    </g>
    <g id="ytick_24">
     <g id="line2d_69">
      <g>
       <use xlink:href="#m3c3cef6f55" x="51.853125" y="77.196094" style="stroke: #000000; stroke-width: 0.5"/>
      </g>
     </g>
     <g id="line2d_70">
      <g>
       <use xlink:href="#ma703686b2a" x="185.336732" y="77.196094" style="stroke: #000000; stroke-width: 0.5"/>
      </g>
     </g>
    </g>
    <g id="ytick_25">
     <g id="line2d_71">
      <g>
       <use xlink:href="#m3c3cef6f55" x="51.853125" y="69.128792" style="stroke: #000000; stroke-width: 0.5"/>
      </g>
     </g>
     <g id="line2d_72">
      <g>
       <use xlink:href="#ma703686b2a" x="185.336732" y="69.128792" style="stroke: #000000; stroke-width: 0.5"/>
      </g>
     </g>
    </g>
    <g id="ytick_26">
     <g id="line2d_73">
      <g>
       <use xlink:href="#m3c3cef6f55" x="51.853125" y="61.061489" style="stroke: #000000; stroke-width: 0.5"/>
      </g>
     </g>
     <g id="line2d_74">
      <g>
       <use xlink:href="#ma703686b2a" x="185.336732" y="61.061489" style="stroke: #000000; stroke-width: 0.5"/>
      </g>
     </g>
    </g>
    <g id="ytick_27">
     <g id="line2d_75">
      <g>
       <use xlink:href="#m3c3cef6f55" x="51.853125" y="44.926883" style="stroke: #000000; stroke-width: 0.5"/>
      </g>
     </g>
     <g id="line2d_76">
      <g>
       <use xlink:href="#ma703686b2a" x="185.336732" y="44.926883" style="stroke: #000000; stroke-width: 0.5"/>
      </g>
     </g>
    </g>
    <g id="ytick_28">
     <g id="line2d_77">
      <g>
       <use xlink:href="#m3c3cef6f55" x="51.853125" y="36.85958" style="stroke: #000000; stroke-width: 0.5"/>
      </g>
     </g>
     <g id="line2d_78">
      <g>
       <use xlink:href="#ma703686b2a" x="185.336732" y="36.85958" style="stroke: #000000; stroke-width: 0.5"/>
      </g>
     </g>
    </g>
    <g id="ytick_29">
     <g id="line2d_79">
      <g>
       <use xlink:href="#m3c3cef6f55" x="51.853125" y="28.792277" style="stroke: #000000; stroke-width: 0.5"/>
      </g>
     </g>
     <g id="line2d_80">
      <g>
       <use xlink:href="#ma703686b2a" x="185.336732" y="28.792277" style="stroke: #000000; stroke-width: 0.5"/>
      </g>
     </g>
    </g>
    <g id="ytick_30">
     <g id="line2d_81">
      <g>
       <use xlink:href="#m3c3cef6f55" x="51.853125" y="20.724975" style="stroke: #000000; stroke-width: 0.5"/>
      </g>
     </g>
     <g id="line2d_82">
      <g>
       <use xlink:href="#ma703686b2a" x="185.336732" y="20.724975" style="stroke: #000000; stroke-width: 0.5"/>
      </g>
     </g>
    </g>
    <g id="ytick_31">
     <g id="line2d_83">
      <g>
       <use xlink:href="#m3c3cef6f55" x="51.853125" y="4.590369" style="stroke: #000000; stroke-width: 0.5"/>
      </g>
     </g>
     <g id="line2d_84">
      <g>
       <use xlink:href="#ma703686b2a" x="185.336732" y="4.590369" style="stroke: #000000; stroke-width: 0.5"/>
      </g>
     </g>
    </g>
    <g id="text_10">
     <!-- x -->
     <g transform="translate(12.718125 131.89125) rotate(-90) scale(0.12 -0.12)">
      <defs>
       <path id="DejaVuSans-78" d="M 3513 3500 
L 2247 1797 
L 3578 0 
L 2900 0 
L 1881 1375 
L 863 0 
L 184 0 
L 1544 1831 
L 300 3500 
L 978 3500 
L 1906 2253 
L 2834 3500 
L 3513 3500 
z
" transform="scale(0.015625)"/>
      </defs>
      <use xlink:href="#DejaVuSans-78"/>
     </g>
    </g>
   </g>
   <g id="line2d_85">
    <path d="M 94.410493 133.667214 
L 131.893026 193.167716 
" clip-path="url(#p24477d9951)" style="fill: none; stroke: #000000; stroke-linecap: square"/>
   </g>
   <g id="line2d_86">
    <path d="M 131.893026 172.676766 
L 134.51335 172.844997 
L 137.090649 173.346926 
L 139.582603 174.174311 
L 141.948294 175.313568 
L 144.148878 176.74599 
L 146.148221 178.448055 
L 147.913495 180.391818 
L 149.415712 182.54536 
L 150.630208 184.873321 
L 151.53704 187.337475 
L 152.121317 189.897362 
L 152.373447 192.510948 
L 152.289288 195.135318 
L 151.870224 197.727381 
L 151.123134 200.244573 
L 150.060287 202.645564 
L 148.699134 204.890929 
L 147.062024 206.943799 
L 145.175841 208.770466 
L 143.071554 210.340936 
L 140.783715 211.629423 
L 138.349892 212.614769 
L 135.810047 213.280794 
L 133.205885 213.616564 
L 130.580166 213.616564 
L 127.976004 213.280794 
L 125.436159 212.614769 
L 123.002336 211.629423 
L 120.714498 210.340936 
L 118.61021 208.770466 
L 116.724027 206.943799 
L 115.086918 204.890929 
L 113.725764 202.645564 
L 112.662917 200.244573 
L 111.915827 197.727381 
L 111.496763 195.135318 
L 111.412604 192.510948 
L 111.664734 189.897362 
L 112.249011 187.337475 
L 113.155843 184.873321 
L 114.370339 182.54536 
L 115.872556 180.391818 
L 117.63783 178.448055 
L 119.637173 176.74599 
L 121.837757 175.313568 
L 124.203448 174.174311 
L 126.695402 173.346926 
L 129.272701 172.844997 
L 131.893026 172.676766 
" clip-path="url(#p24477d9951)" style="fill: none; stroke: #0000ff; stroke-linecap: square"/>
   </g>
   <g id="line2d_87">
    <path d="M 94.410493 133.667214 
L 78.400983 85.184884 
" clip-path="url(#p24477d9951)" style="fill: none; stroke: #000000; stroke-linecap: square"/>
   </g>
   <g id="line2d_88">
    <path d="M 78.400983 64.693934 
L 81.021307 64.862165 
L 83.598606 65.364094 
L 86.09056 66.19148 
L 88.456251 67.330736 
L 90.656835 68.763158 
L 92.656179 70.465224 
L 94.421452 72.408986 
L 95.92367 74.562528 
L 97.138166 76.890489 
L 98.044997 79.354643 
L 98.629275 81.91453 
L 98.881404 84.528116 
L 98.797246 87.152487 
L 98.378181 89.744549 
L 97.631092 92.261741 
L 96.568244 94.662732 
L 95.207091 96.908097 
L 93.569982 98.960967 
L 91.683798 100.787634 
L 89.579511 102.358104 
L 87.291673 103.646591 
L 84.857849 104.631937 
L 82.318005 105.297962 
L 79.713843 105.633732 
L 77.088123 105.633732 
L 74.483961 105.297962 
L 71.944116 104.631937 
L 69.510293 103.646591 
L 67.222455 102.358104 
L 65.118168 100.787634 
L 63.231984 98.960967 
L 61.594875 96.908097 
L 60.233722 94.662732 
L 59.170874 92.261741 
L 58.423785 89.744549 
L 58.00472 87.152487 
L 57.920562 84.528116 
L 58.172691 81.91453 
L 58.756969 79.354643 
L 59.6638 76.890489 
L 60.878296 74.562528 
L 62.380514 72.408986 
L 64.145787 70.465224 
L 66.14513 68.763158 
L 68.345715 67.330736 
L 70.711406 66.19148 
L 73.20336 65.364094 
L 75.780659 64.862165 
L 78.400983 64.693934 
" clip-path="url(#p24477d9951)" style="fill: none; stroke: #ff0000; stroke-linecap: square"/>
   </g>
   <g id="line2d_89">
    <path d="M 94.410493 133.667214 
L 88.706087 221.291152 
" clip-path="url(#p24477d9951)" style="fill: none; stroke: #000000; stroke-linecap: square"/>
   </g>
   <g id="line2d_90">
    <path d="M 88.706087 200.800202 
L 91.326412 200.968433 
L 93.90371 201.470362 
L 96.395664 202.297748 
L 98.761356 203.437004 
L 100.96194 204.869426 
L 102.961283 206.571492 
L 104.726556 208.515254 
L 106.228774 210.668796 
L 107.44327 212.996757 
L 108.350102 215.460911 
L 108.934379 218.020798 
L 109.186509 220.634384 
L 109.10235 223.258755 
L 108.683286 225.850817 
L 107.936196 228.368009 
L 106.873349 230.769 
L 105.512195 233.014365 
L 103.875086 235.067235 
L 101.988902 236.893902 
L 99.884615 238.464372 
L 97.596777 239.752859 
L 95.162954 240.738205 
L 92.623109 241.40423 
L 90.018947 241.74 
L 87.393228 241.74 
L 84.789066 241.40423 
L 82.249221 240.738205 
L 79.815398 239.752859 
L 77.527559 238.464372 
L 75.423272 236.893902 
L 73.537088 235.067235 
L 71.899979 233.014365 
L 70.538826 230.769 
L 69.475979 228.368009 
L 68.728889 225.850817 
L 68.309824 223.258755 
L 68.225666 220.634384 
L 68.477796 218.020798 
L 69.062073 215.460911 
L 69.968905 212.996757 
L 71.1834 210.668796 
L 72.685618 208.515254 
L 74.450891 206.571492 
L 76.450235 204.869426 
L 78.650819 203.437004 
L 81.01651 202.297748 
L 83.508464 201.470362 
L 86.085763 200.968433 
L 88.706087 200.800202 
" clip-path="url(#p24477d9951)" style="fill: none; stroke: #ff0000; stroke-linecap: square"/>
   </g>
   <g id="line2d_91">
    <path d="M 94.410493 133.667214 
L 78.847086 35.430949 
" clip-path="url(#p24477d9951)" style="fill: none; stroke: #000000; stroke-linecap: square"/>
   </g>
   <g id="line2d_92">
    <path d="M 78.847086 14.94 
L 81.467411 15.10823 
L 84.044709 15.610159 
L 86.536663 16.437545 
L 88.902355 17.576802 
L 91.102939 19.009223 
L 93.102282 20.711289 
L 94.867555 22.655051 
L 96.369773 24.808593 
L 97.584269 27.136554 
L 98.4911 29.600709 
L 99.075378 32.160596 
L 99.327507 34.774182 
L 99.243349 37.398552 
L 98.824284 39.990614 
L 98.077195 42.507807 
L 97.014347 44.908798 
L 95.653194 47.154163 
L 94.016085 49.207033 
L 92.129901 51.0337 
L 90.025614 52.60417 
L 87.737776 53.892656 
L 85.303953 54.878002 
L 82.764108 55.544028 
L 80.159946 55.879798 
L 77.534227 55.879798 
L 74.930064 55.544028 
L 72.39022 54.878002 
L 69.956396 53.892656 
L 67.668558 52.60417 
L 65.564271 51.0337 
L 63.678087 49.207033 
L 62.040978 47.154163 
L 60.679825 44.908798 
L 59.616977 42.507807 
L 58.869888 39.990614 
L 58.450823 37.398552 
L 58.366665 34.774182 
L 58.618794 32.160596 
L 59.203072 29.600709 
L 60.109904 27.136554 
L 61.324399 24.808593 
L 62.826617 22.655051 
L 64.59189 20.711289 
L 66.591234 19.009223 
L 68.791818 17.576802 
L 71.157509 16.437545 
L 73.649463 15.610159 
L 76.226762 15.10823 
L 78.847086 14.94 
" clip-path="url(#p24477d9951)" style="fill: none; stroke: #ff0000; stroke-linecap: square"/>
   </g>
   <g id="patch_7">
    <path d="M 51.853125 253.08 
L 51.853125 3.6 
" style="fill: none; stroke: #000000; stroke-width: 0.5; stroke-linejoin: miter; stroke-linecap: square"/>
   </g>
   <g id="patch_8">
    <path d="M 185.336732 253.08 
L 185.336732 3.6 
" style="fill: none; stroke: #000000; stroke-width: 0.5; stroke-linejoin: miter; stroke-linecap: square"/>
   </g>
   <g id="patch_9">
    <path d="M 51.853125 253.08 
L 185.336732 253.08 
" style="fill: none; stroke: #000000; stroke-width: 0.5; stroke-linejoin: miter; stroke-linecap: square"/>
   </g>
   <g id="patch_10">
    <path d="M 51.853125 3.6 
L 185.336732 3.6 
" style="fill: none; stroke: #000000; stroke-width: 0.5; stroke-linejoin: miter; stroke-linecap: square"/>
   </g>
   <g id="text_11">
    <!-- 0 -->
    <g transform="translate(131.893026 193.167716) scale(0.12 -0.12)">
     <use xlink:href="#DejaVuSans-30"/>
    </g>
   </g>
   <g id="text_12">
    <!-- 1 -->
    <g transform="translate(78.400983 85.184884) scale(0.12 -0.12)">
     <use xlink:href="#DejaVuSans-31"/>
    </g>
   </g>
   <g id="text_13">
    <!-- 2 -->
    <g transform="translate(88.706087 221.291152) scale(0.12 -0.12)">
     <use xlink:href="#DejaVuSans-32"/>
    </g>
   </g>
   <g id="text_14">
    <!-- 3 -->
    <g transform="translate(78.847086 35.430949) scale(0.12 -0.12)">
     <use xlink:href="#DejaVuSans-33"/>
    </g>
   </g>
   <g id="text_15">
    <!-- C.G. -->
    <g transform="translate(94.539098 133.978713) scale(0.12 -0.12)">
     <defs>
      <path id="DejaVuSans-43" d="M 4122 4306 
L 4122 3641 
Q 3803 3938 3442 4084 
Q 3081 4231 2675 4231 
Q 1875 4231 1450 3742 
Q 1025 3253 1025 2328 
Q 1025 1406 1450 917 
Q 1875 428 2675 428 
Q 3081 428 3442 575 
Q 3803 722 4122 1019 
L 4122 359 
Q 3791 134 3420 21 
Q 3050 -91 2638 -91 
Q 1578 -91 968 557 
Q 359 1206 359 2328 
Q 359 3453 968 4101 
Q 1578 4750 2638 4750 
Q 3056 4750 3426 4639 
Q 3797 4528 4122 4306 
z
" transform="scale(0.015625)"/>
      <path id="DejaVuSans-47" d="M 3809 666 
L 3809 1919 
L 2778 1919 
L 2778 2438 
L 4434 2438 
L 4434 434 
Q 4069 175 3628 42 
Q 3188 -91 2688 -91 
Q 1594 -91 976 548 
Q 359 1188 359 2328 
Q 359 3472 976 4111 
Q 1594 4750 2688 4750 
Q 3144 4750 3555 4637 
Q 3966 4525 4313 4306 
L 4313 3634 
Q 3963 3931 3569 4081 
Q 3175 4231 2741 4231 
Q 1884 4231 1454 3753 
Q 1025 3275 1025 2328 
Q 1025 1384 1454 906 
Q 1884 428 2741 428 
Q 3075 428 3337 486 
Q 3600 544 3809 666 
z
" transform="scale(0.015625)"/>
     </defs>
     <use xlink:href="#DejaVuSans-43"/>
     <use xlink:href="#DejaVuSans-2e" x="69.824219"/>
     <use xlink:href="#DejaVuSans-47" x="101.611328"/>
     <use xlink:href="#DejaVuSans-2e" x="179.101562"/>
    </g>
   </g>
   <g id="legend_1">
    <g id="patch_11">
     <path d="M 72.292741 156.560625 
L 164.897116 156.560625 
Q 167.297116 156.560625 167.297116 154.160625 
L 167.297116 102.519375 
Q 167.297116 100.119375 164.897116 100.119375 
L 72.292741 100.119375 
Q 69.892741 100.119375 69.892741 102.519375 
L 69.892741 154.160625 
Q 69.892741 156.560625 72.292741 156.560625 
z
" style="fill: #ffffff; opacity: 0.8; stroke: #cccccc; stroke-linejoin: miter"/>
    </g>
    <g id="line2d_93">
     <path d="M 74.692741 109.8375 
L 86.692741 109.8375 
L 98.692741 109.8375 
" style="fill: none; stroke: #ff0000; stroke-linecap: square"/>
    </g>
    <g id="text_16">
     <!-- CCW -->
     <g transform="translate(108.292741 114.0375) scale(0.12 -0.12)">
      <defs>
       <path id="DejaVuSans-57" d="M 213 4666 
L 850 4666 
L 1831 722 
L 2809 4666 
L 3519 4666 
L 4500 722 
L 5478 4666 
L 6119 4666 
L 4947 0 
L 4153 0 
L 3169 4050 
L 2175 0 
L 1381 0 
L 213 4666 
z
" transform="scale(0.015625)"/>
      </defs>
      <use xlink:href="#DejaVuSans-43"/>
      <use xlink:href="#DejaVuSans-43" x="69.824219"/>
      <use xlink:href="#DejaVuSans-57" x="139.648438"/>
     </g>
    </g>
    <g id="line2d_94">
     <path d="M 74.692741 127.45125 
L 86.692741 127.45125 
L 98.692741 127.45125 
" style="fill: none; stroke: #0000ff; stroke-linecap: square"/>
    </g>
    <g id="text_17">
     <!-- CW -->
     <g transform="translate(108.292741 131.65125) scale(0.12 -0.12)">
      <use xlink:href="#DejaVuSans-43"/>
      <use xlink:href="#DejaVuSans-57" x="69.824219"/>
     </g>
    </g>
    <g id="line2d_95">
     <path d="M 74.692741 145.065 
L 86.692741 145.065 
L 98.692741 145.065 
" style="fill: none; stroke-dasharray: 3.7,1.6; stroke-dashoffset: 0; stroke: #008000"/>
    </g>
    <g id="text_18">
     <!-- Direction -->
     <g transform="translate(108.292741 149.265) scale(0.12 -0.12)">
      <defs>
       <path id="DejaVuSans-44" d="M 1259 4147 
L 1259 519 
L 2022 519 
Q 2988 519 3436 956 
Q 3884 1394 3884 2338 
Q 3884 3275 3436 3711 
Q 2988 4147 2022 4147 
L 1259 4147 
z
M 628 4666 
L 1925 4666 
Q 3281 4666 3915 4102 
Q 4550 3538 4550 2338 
Q 4550 1131 3912 565 
Q 3275 0 1925 0 
L 628 0 
L 628 4666 
z
" transform="scale(0.015625)"/>
       <path id="DejaVuSans-69" d="M 603 3500 
L 1178 3500 
L 1178 0 
L 603 0 
L 603 3500 
z
M 603 4863 
L 1178 4863 
L 1178 4134 
L 603 4134 
L 603 4863 
z
" transform="scale(0.015625)"/>
       <path id="DejaVuSans-72" d="M 2631 2963 
Q 2534 3019 2420 3045 
Q 2306 3072 2169 3072 
Q 1681 3072 1420 2755 
Q 1159 2438 1159 1844 
L 1159 0 
L 581 0 
L 581 3500 
L 1159 3500 
L 1159 2956 
Q 1341 3275 1631 3429 
Q 1922 3584 2338 3584 
Q 2397 3584 2469 3576 
Q 2541 3569 2628 3553 
L 2631 2963 
z
" transform="scale(0.015625)"/>
       <path id="DejaVuSans-65" d="M 3597 1894 
L 3597 1613 
L 953 1613 
Q 991 1019 1311 708 
Q 1631 397 2203 397 
Q 2534 397 2845 478 
Q 3156 559 3463 722 
L 3463 178 
Q 3153 47 2828 -22 
Q 2503 -91 2169 -91 
Q 1331 -91 842 396 
Q 353 884 353 1716 
Q 353 2575 817 3079 
Q 1281 3584 2069 3584 
Q 2775 3584 3186 3129 
Q 3597 2675 3597 1894 
z
M 3022 2063 
Q 3016 2534 2758 2815 
Q 2500 3097 2075 3097 
Q 1594 3097 1305 2825 
Q 1016 2553 972 2059 
L 3022 2063 
z
" transform="scale(0.015625)"/>
       <path id="DejaVuSans-63" d="M 3122 3366 
L 3122 2828 
Q 2878 2963 2633 3030 
Q 2388 3097 2138 3097 
Q 1578 3097 1268 2742 
Q 959 2388 959 1747 
Q 959 1106 1268 751 
Q 1578 397 2138 397 
Q 2388 397 2633 464 
Q 2878 531 3122 666 
L 3122 134 
Q 2881 22 2623 -34 
Q 2366 -91 2075 -91 
Q 1284 -91 818 406 
Q 353 903 353 1747 
Q 353 2603 823 3093 
Q 1294 3584 2113 3584 
Q 2378 3584 2631 3529 
Q 2884 3475 3122 3366 
z
" transform="scale(0.015625)"/>
       <path id="DejaVuSans-74" d="M 1172 4494 
L 1172 3500 
L 2356 3500 
L 2356 3053 
L 1172 3053 
L 1172 1153 
Q 1172 725 1289 603 
Q 1406 481 1766 481 
L 2356 481 
L 2356 0 
L 1766 0 
Q 1100 0 847 248 
Q 594 497 594 1153 
L 594 3053 
L 172 3053 
L 172 3500 
L 594 3500 
L 594 4494 
L 1172 4494 
z
" transform="scale(0.015625)"/>
       <path id="DejaVuSans-6f" d="M 1959 3097 
Q 1497 3097 1228 2736 
Q 959 2375 959 1747 
Q 959 1119 1226 758 
Q 1494 397 1959 397 
Q 2419 397 2687 759 
Q 2956 1122 2956 1747 
Q 2956 2369 2687 2733 
Q 2419 3097 1959 3097 
z
M 1959 3584 
Q 2709 3584 3137 3096 
Q 3566 2609 3566 1747 
Q 3566 888 3137 398 
Q 2709 -91 1959 -91 
Q 1206 -91 779 398 
Q 353 888 353 1747 
Q 353 2609 779 3096 
Q 1206 3584 1959 3584 
z
" transform="scale(0.015625)"/>
       <path id="DejaVuSans-6e" d="M 3513 2113 
L 3513 0 
L 2938 0 
L 2938 2094 
Q 2938 2591 2744 2837 
Q 2550 3084 2163 3084 
Q 1697 3084 1428 2787 
Q 1159 2491 1159 1978 
L 1159 0 
L 581 0 
L 581 3500 
L 1159 3500 
L 1159 2956 
Q 1366 3272 1645 3428 
Q 1925 3584 2291 3584 
Q 2894 3584 3203 3211 
Q 3513 2838 3513 2113 
z
" transform="scale(0.015625)"/>
      </defs>
      <use xlink:href="#DejaVuSans-44"/>
      <use xlink:href="#DejaVuSans-69" x="77.001953"/>
      <use xlink:href="#DejaVuSans-72" x="104.785156"/>
      <use xlink:href="#DejaVuSans-65" x="143.648438"/>
      <use xlink:href="#DejaVuSans-63" x="205.171875"/>
      <use xlink:href="#DejaVuSans-74" x="260.152344"/>
      <use xlink:href="#DejaVuSans-69" x="299.361328"/>
      <use xlink:href="#DejaVuSans-6f" x="327.144531"/>
      <use xlink:href="#DejaVuSans-6e" x="388.326172"/>
     </g>
    </g>
   </g>
  </g>
 </g>
 <defs>
  <clipPath id="p24477d9951">
   <rect x="51.853125" y="3.6" width="133.483607" height="249.48"/>
  </clipPath>
 </defs>
</svg>
