<?xml version="1.0" encoding="utf-8" standalone="no"?>
<!DOCTYPE svg PUBLIC "-//W3C//DTD SVG 1.1//EN"
  "http://www.w3.org/Graphics/SVG/1.1/DTD/svg11.dtd">
<svg xmlns:xlink="http://www.w3.org/1999/xlink" width="394.074375pt" height="287.4075pt" viewBox="0 0 394.074375 287.4075" xmlns="http://www.w3.org/2000/svg" version="1.1">
 <metadata>
  <rdf:RDF xmlns:dc="http://purl.org/dc/elements/1.1/" xmlns:cc="http://creativecommons.org/ns#" xmlns:rdf="http://www.w3.org/1999/02/22-rdf-syntax-ns#">
   <cc:Work>
    <dc:type rdf:resource="http://purl.org/dc/dcmitype/StillImage"/>
    <dc:date>2024-06-05T09:16:57.146565</dc:date>
    <dc:format>image/svg+xml</dc:format>
    <dc:creator>
     <cc:Agent>
      <dc:title>Matplotlib v3.9.0, https://matplotlib.org/</dc:title>
     </cc:Agent>
    </dc:creator>
   </cc:Work>
  </rdf:RDF>
 </metadata>
 <defs>
  <style type="text/css">*{stroke-linejoin: round; stroke-linecap: butt}</style>
 </defs>
 <g id="figure_1">
  <g id="patch_1">
   <path d="M 0 287.4075 
L 394.074375 287.4075 
L 394.074375 0 
L 0 0 
z
" style="fill: #ffffff"/>
  </g>
  <g id="axes_1">
   <g id="patch_2">
    <path d="M 55.674375 253.08 
L 390.474375 253.08 
L 390.474375 3.6 
L 55.674375 3.6 
z
" style="fill: #ffffff"/>
   </g>
   <g id="PolyCollection_1">
    <defs>
     <path id="md347a30ab2" d="M 70.892557 -270.555762 
L 70.892557 -256.193614 
L 71.502504 -254.495861 
L 72.112451 -255.874321 
L 72.722398 -257.329025 
L 73.332345 -258.611621 
L 73.942293 -258.928516 
L 74.55224 -257.554372 
L 75.162187 -258.902725 
L 75.772134 -258.321938 
L 76.382081 -258.742261 
L 76.992028 -259.158836 
L 77.601976 -259.787322 
L 78.211923 -258.479025 
L 78.82187 -259.046453 
L 79.431817 -260.16007 
L 80.041764 -258.21497 
L 80.651711 -259.953344 
L 81.261659 -260.101648 
L 81.871606 -260.727314 
L 82.481553 -261.687947 
L 83.0915 -261.705892 
L 83.701447 -261.718024 
L 84.311394 -261.385889 
L 84.921342 -262.416597 
L 85.531289 -262.717978 
L 86.141236 -262.808463 
L 86.751183 -262.996639 
L 87.36113 -262.841752 
L 87.971077 -262.841752 
L 88.581025 -262.598456 
L 89.190972 -262.769281 
L 89.800919 -262.93072 
L 90.410866 -262.911334 
L 91.020813 -262.65256 
L 91.63076 -262.618644 
L 92.240708 -262.737828 
L 92.850655 -262.7188 
L 93.460602 -263.281468 
L 94.070549 -265.703103 
L 94.680496 -263.363946 
L 95.290444 -263.617425 
L 95.900391 -270.125649 
L 96.510338 -270.125649 
L 97.120285 -270.737568 
L 97.730232 -270.962837 
L 98.340179 -270.96838 
L 98.950127 -270.927924 
L 99.560074 -270.985411 
L 100.170021 -270.919677 
L 100.779968 -270.619587 
L 101.389915 -270.467699 
L 101.999862 -270.506755 
L 102.60981 -267.223618 
L 103.219757 -266.451385 
L 103.829704 -266.926202 
L 104.439651 -267.858737 
L 105.049598 -268.951895 
L 105.659545 -267.60139 
L 106.269493 -267.581305 
L 106.87944 -269.065003 
L 107.489387 -270.854549 
L 108.099334 -270.693048 
L 108.709281 -270.693047 
L 109.319228 -270.785908 
L 109.929176 -270.921766 
L 110.539123 -270.777157 
L 111.14907 -270.6852 
L 111.759017 -270.738134 
L 112.368964 -270.833923 
L 112.978911 -270.78119 
L 113.588859 -270.850617 
L 114.198806 -270.73517 
L 114.808753 -270.827048 
L 115.4187 -270.588231 
L 116.028647 -270.776838 
L 116.638594 -270.747705 
L 117.248542 -270.958139 
L 117.858489 -270.904708 
L 118.468436 -270.904708 
L 119.078383 -271.092998 
L 119.68833 -271.241275 
L 120.298277 -271.293946 
L 120.908225 -271.420392 
L 121.518172 -271.363768 
L 122.128119 -271.34414 
L 122.738066 -271.343957 
L 123.348013 -271.299454 
L 123.95796 -271.005581 
L 124.567908 -271.254525 
L 125.177855 -271.416585 
L 125.787802 -271.417833 
L 126.397749 -271.130401 
L 127.007696 -271.370521 
L 127.617643 -271.300071 
L 128.227591 -270.573535 
L 128.837538 -271.126167 
L 129.447485 -271.121883 
L 130.057432 -271.167764 
L 130.667379 -270.903213 
L 131.277326 -271.3301 
L 131.887274 -271.332929 
L 132.497221 -271.239093 
L 133.107168 -271.209966 
L 133.717115 -271.127116 
L 134.327062 -270.978184 
L 134.937009 -271.02808 
L 135.546957 -271.127116 
L 136.156904 -271.047743 
L 136.766851 -270.97224 
L 137.376798 -271.241267 
L 137.986745 -271.309352 
L 138.596692 -271.041396 
L 139.20664 -267.728982 
L 139.816587 -270.514922 
L 140.426534 -270.969505 
L 141.036481 -271.136214 
L 141.646428 -271.405697 
L 142.256375 -271.263621 
L 142.866323 -271.175543 
L 143.47627 -271.202246 
L 144.086217 -271.308416 
L 144.696164 -271.451807 
L 145.306111 -271.545305 
L 145.916058 -271.397923 
L 146.526006 -271.462221 
L 147.135953 -271.352375 
L 147.7459 -271.420476 
L 148.355847 -271.159998 
L 148.965794 -271.159998 
L 149.575741 -271.173141 
L 150.185689 -271.358246 
L 150.795636 -271.089505 
L 151.405583 -271.058712 
L 152.01553 -271.126512 
L 152.625477 -270.79108 
L 153.235424 -270.822964 
L 153.845372 -270.78348 
L 154.455319 -270.783477 
L 155.065266 -271.194059 
L 155.675213 -268.409262 
L 156.28516 -270.560962 
L 156.895107 -270.813733 
L 157.505055 -270.802374 
L 158.115002 -270.001459 
L 158.724949 -270.371086 
L 159.334896 -270.548635 
L 159.944843 -268.316079 
L 160.55479 -270.511203 
L 161.164738 -270.306356 
L 161.774685 -268.322897 
L 162.384632 -271.011863 
L 162.994579 -271.088962 
L 163.604526 -268.316116 
L 164.214473 -268.317517 
L 164.824421 -271.102621 
L 165.434368 -270.305133 
L 166.044315 -271.048768 
L 166.654262 -270.895534 
L 167.264209 -271.09419 
L 167.874156 -271.160652 
L 168.484104 -271.16536 
L 169.094051 -271.123532 
L 169.703998 -270.969869 
L 170.313945 -271.113014 
L 170.923892 -270.95715 
L 171.533839 -270.949169 
L 172.143787 -270.967593 
L 172.753734 -270.773179 
L 173.363681 -270.618441 
L 173.973628 -271.303415 
L 174.583575 -270.904721 
L 175.193522 -271.171388 
L 175.80347 -271.123051 
L 176.413417 -271.273155 
L 177.023364 -271.288522 
L 177.633311 -271.347998 
L 178.243258 -271.26554 
L 178.853205 -271.299314 
L 179.463153 -271.337555 
L 180.0731 -271.37085 
L 180.683047 -271.452526 
L 181.292994 -271.315602 
L 181.902941 -271.465131 
L 182.512888 -271.46295 
L 183.122836 -271.387047 
L 183.732783 -271.308807 
L 184.34273 -271.222126 
L 184.952677 -271.122031 
L 185.562624 -271.190154 
L 186.172571 -271.153236 
L 186.782519 -271.153233 
L 187.392466 -271.230932 
L 188.002413 -271.257702 
L 188.61236 -271.122466 
L 189.222307 -271.122466 
L 189.832254 -271.122467 
L 190.442202 -271.040562 
L 191.052149 -271.06231 
L 191.662096 -271.164064 
L 192.272043 -271.069219 
L 192.88199 -271.117628 
L 193.491937 -270.8797 
L 194.101885 -271.575728 
L 194.711832 -271.667203 
L 195.321779 -271.599727 
L 195.931726 -271.571474 
L 196.541673 -271.564268 
L 197.15162 -271.34956 
L 197.761568 -271.136069 
L 198.371515 -271.305748 
L 198.981462 -271.238844 
L 199.591409 -271.34956 
L 200.201356 -271.198365 
L 200.811303 -271.320107 
L 201.421251 -271.29938 
L 202.031198 -271.25361 
L 202.641145 -271.425735 
L 203.251092 -271.46808 
L 203.861039 -271.467746 
L 204.470986 -271.425735 
L 205.080934 -271.460511 
L 205.690881 -271.602803 
L 206.300828 -271.602803 
L 206.910775 -271.543083 
L 207.520722 -271.351383 
L 208.130669 -271.554238 
L 208.740617 -271.645127 
L 209.350564 -271.276347 
L 209.960511 -271.195947 
L 210.570458 -271.18126 
L 211.180405 -271.299454 
L 211.790352 -271.288681 
L 212.4003 -271.350783 
L 213.010247 -271.520348 
L 213.620194 -271.489112 
L 214.230141 -271.455195 
L 214.840088 -271.297237 
L 215.450035 -271.302006 
L 216.059983 -271.299242 
L 216.66993 -271.458339 
L 217.279877 -271.278122 
L 217.889824 -271.2766 
L 218.499771 -271.302282 
L 219.109718 -271.375577 
L 219.719666 -271.302281 
L 220.329613 -271.302282 
L 220.93956 -271.30228 
L 221.549507 -271.289844 
L 222.159454 -271.323458 
L 222.769401 -271.02729 
L 223.379349 -271.317818 
L 223.989296 -271.525677 
L 224.599243 -271.336742 
L 225.20919 -271.386956 
L 225.819137 -271.47618 
L 226.429084 -271.288979 
L 227.039032 -271.431063 
L 227.648979 -271.582268 
L 228.258926 -271.448865 
L 228.868873 -271.478331 
L 229.47882 -271.227359 
L 230.088767 -271.09451 
L 230.698715 -271.316722 
L 231.308662 -271.304582 
L 231.918609 -271.318942 
L 232.528556 -271.331447 
L 233.138503 -271.27812 
L 233.74845 -271.264557 
L 234.358398 -271.188608 
L 234.968345 -271.209175 
L 235.578292 -271.262348 
L 236.188239 -271.44508 
L 236.798186 -271.350752 
L 237.408133 -271.44508 
L 238.018081 -271.358024 
L 238.628028 -271.44508 
L 239.237975 -271.502382 
L 239.847922 -271.626472 
L 240.457869 -271.917214 
L 241.067816 -271.917214 
L 241.677764 -271.794684 
L 242.287711 -271.687716 
L 242.897658 -271.694607 
L 243.507605 -271.617397 
L 244.117552 -271.626971 
L 244.727499 -271.543798 
L 245.337447 -271.455791 
L 245.947394 -271.455793 
L 246.557341 -271.501673 
L 247.167288 -271.450785 
L 247.777235 -271.572356 
L 248.387182 -271.575506 
L 248.99713 -271.522058 
L 249.607077 -271.522055 
L 250.217024 -271.703982 
L 250.826971 -271.860991 
L 251.436918 -271.921165 
L 252.046865 -271.993054 
L 252.656813 -271.943101 
L 253.26676 -271.848248 
L 253.876707 -271.848248 
L 254.486654 -271.795583 
L 255.096601 -271.878078 
L 255.706548 -271.736632 
L 256.316496 -271.659419 
L 256.926443 -271.597053 
L 257.53639 -271.367803 
L 258.146337 -271.482255 
L 258.756284 -271.347938 
L 259.366231 -271.315529 
L 259.976179 -271.302937 
L 260.586126 -271.343533 
L 261.196073 -271.211787 
L 261.80602 -271.352764 
L 262.415967 -271.634049 
L 263.025914 -271.462169 
L 263.635862 -271.442166 
L 264.245809 -271.349628 
L 264.855756 -271.391571 
L 265.465703 -271.322165 
L 266.07565 -271.308233 
L 266.685597 -271.287 
L 267.295545 -271.347887 
L 267.905492 -271.410756 
L 268.515439 -271.354257 
L 269.125386 -271.415961 
L 269.735333 -271.410407 
L 270.34528 -271.331733 
L 270.955228 -271.273376 
L 271.565175 -271.366209 
L 272.175122 -271.449374 
L 272.785069 -271.432105 
L 273.395016 -271.432105 
L 274.004963 -271.431391 
L 274.614911 -271.446886 
L 275.224858 -271.494609 
L 275.834805 -271.45366 
L 276.444752 -271.562472 
L 277.054699 -271.438074 
L 277.664646 -271.324567 
L 278.274594 -271.373559 
L 278.884541 -271.373559 
L 279.494488 -271.395228 
L 280.104435 -271.35847 
L 280.714382 -271.356547 
L 281.324329 -271.427898 
L 281.934277 -271.421705 
L 282.544224 -271.441323 
L 283.154171 -271.323271 
L 283.764118 -271.408266 
L 284.374065 -271.440955 
L 284.984012 -271.446918 
L 285.59396 -271.52944 
L 286.203907 -271.655796 
L 286.813854 -271.523281 
L 287.423801 -271.593942 
L 288.033748 -271.687883 
L 288.643695 -271.806921 
L 289.253643 -271.815469 
L 289.86359 -271.553681 
L 290.473537 -271.550448 
L 291.083484 -271.81547 
L 291.693431 -271.757901 
L 292.303378 -271.533619 
L 292.913326 -271.434637 
L 293.523273 -271.434634 
L 294.13322 -271.473991 
L 294.743167 -271.368632 
L 295.353114 -271.386557 
L 295.963061 -271.40845 
L 296.573009 -271.193554 
L 297.182956 -270.988145 
L 297.792903 -271.368632 
L 298.40285 -271.452786 
L 299.012797 -271.440614 
L 299.622744 -271.580621 
L 300.232692 -271.562932 
L 300.842639 -271.550811 
L 301.452586 -271.237373 
L 302.062533 -271.312157 
L 302.67248 -271.184884 
L 303.282427 -271.456367 
L 303.892375 -271.389874 
L 304.502322 -271.171116 
L 305.112269 -271.415735 
L 305.722216 -271.34643 
L 306.332163 -271.268082 
L 306.94211 -271.253565 
L 307.552058 -271.220071 
L 308.162005 -271.231964 
L 308.771952 -271.222392 
L 309.381899 -271.106877 
L 309.991846 -271.328069 
L 310.601793 -271.278719 
L 311.211741 -271.283017 
L 311.821688 -271.296339 
L 312.431635 -271.283024 
L 313.041582 -271.154458 
L 313.651529 -271.375933 
L 314.261476 -271.505255 
L 314.871424 -271.329837 
L 315.481371 -271.375932 
L 316.091318 -271.433988 
L 316.701265 -271.369521 
L 317.311212 -271.399216 
L 317.921159 -271.31076 
L 318.531107 -271.413354 
L 319.141054 -271.474059 
L 319.751001 -271.458503 
L 320.360948 -271.530373 
L 320.970895 -271.43767 
L 321.580842 -271.188568 
L 322.19079 -271.413354 
L 322.800737 -271.413354 
L 323.410684 -271.413354 
L 324.020631 -271.401204 
L 324.630578 -271.345157 
L 325.240525 -271.361226 
L 325.850473 -271.241068 
L 326.46042 -271.190388 
L 327.070367 -271.313953 
L 327.680314 -271.413354 
L 328.290261 -271.374885 
L 328.900208 -271.258102 
L 329.510156 -271.257036 
L 330.120103 -271.24209 
L 330.73005 -271.2581 
L 331.339997 -271.450368 
L 331.949944 -271.31685 
L 332.559891 -271.359924 
L 333.169839 -271.406725 
L 333.779786 -271.359924 
L 334.389733 -271.217908 
L 334.99968 -271.179188 
L 335.609627 -271.359924 
L 336.219574 -271.354919 
L 336.829522 -271.385486 
L 337.439469 -271.320366 
L 338.049416 -271.397615 
L 338.659363 -271.512192 
L 339.26931 -271.525799 
L 339.879257 -271.358201 
L 340.489205 -271.358203 
L 341.099152 -271.377906 
L 341.709099 -271.531707 
L 342.319046 -271.56003 
L 342.928993 -271.548737 
L 343.53894 -271.523401 
L 344.148888 -271.560752 
L 344.758835 -271.552205 
L 345.368782 -271.475658 
L 345.978729 -271.46043 
L 346.588676 -271.475656 
L 347.198623 -271.558912 
L 347.808571 -271.598183 
L 348.418518 -271.50371 
L 349.028465 -271.309635 
L 349.638412 -271.30673 
L 350.248359 -271.325258 
L 350.858306 -271.32053 
L 351.468254 -271.278869 
L 352.078201 -271.324541 
L 352.688148 -271.395404 
L 353.298095 -271.339912 
L 353.908042 -271.393784 
L 354.51799 -271.451029 
L 355.127937 -271.400586 
L 355.737884 -271.485118 
L 356.347831 -271.394465 
L 356.957778 -271.239732 
L 357.567725 -271.239732 
L 358.177673 -271.340048 
L 358.78762 -271.415957 
L 359.397567 -271.360662 
L 360.007514 -271.44587 
L 360.617461 -271.516949 
L 361.227408 -271.44345 
L 361.837356 -271.366585 
L 362.447303 -271.365875 
L 363.05725 -271.49948 
L 363.667197 -271.400851 
L 364.277144 -271.338122 
L 364.887091 -271.233399 
L 365.497039 -271.233401 
L 366.106986 -271.3366 
L 366.716933 -271.079832 
L 367.32688 -271.331707 
L 367.936827 -271.344938 
L 368.546774 -271.344938 
L 369.156722 -271.344938 
L 369.766669 -271.321409 
L 370.376616 -271.348393 
L 370.986563 -271.344937 
L 371.59651 -271.344937 
L 372.206457 -271.391271 
L 372.816405 -271.39127 
L 373.426352 -271.39127 
L 374.036299 -271.358803 
L 374.646246 -271.436361 
L 375.256193 -271.480532 
L 375.256193 -272.467497 
L 375.256193 -272.467497 
L 374.646246 -272.467498 
L 374.036299 -272.467498 
L 373.426352 -272.467499 
L 372.816405 -272.467498 
L 372.206457 -272.467498 
L 371.59651 -272.467498 
L 370.986563 -272.467497 
L 370.376616 -272.467499 
L 369.766669 -272.467498 
L 369.156722 -272.467498 
L 368.546774 -272.467497 
L 367.936827 -272.467498 
L 367.32688 -272.467497 
L 366.716933 -272.467497 
L 366.106986 -272.467497 
L 365.497039 -272.467497 
L 364.887091 -272.467497 
L 364.277144 -272.467498 
L 363.667197 -272.467497 
L 363.05725 -272.467498 
L 362.447303 -272.467497 
L 361.837356 -272.467498 
L 361.227408 -272.467498 
L 360.617461 -272.467498 
L 360.007514 -272.467499 
L 359.397567 -272.467498 
L 358.78762 -272.467498 
L 358.177673 -272.467497 
L 357.567725 -272.467498 
L 356.957778 -272.467497 
L 356.347831 -272.467498 
L 355.737884 -272.467497 
L 355.127937 -272.467499 
L 354.51799 -272.467497 
L 353.908042 -272.467499 
L 353.298095 -272.467499 
L 352.688148 -272.467499 
L 352.078201 -272.467497 
L 351.468254 -272.467497 
L 350.858306 -272.467498 
L 350.248359 -272.467498 
L 349.638412 -272.4675 
L 349.028465 -272.467497 
L 348.418518 -272.467498 
L 347.808571 -272.467498 
L 347.198623 -272.467498 
L 346.588676 -272.467498 
L 345.978729 -272.467497 
L 345.368782 -272.467497 
L 344.758835 -272.467497 
L 344.148888 -272.467499 
L 343.53894 -272.467498 
L 342.928993 -272.467498 
L 342.319046 -272.467497 
L 341.709099 -272.467498 
L 341.099152 -272.467499 
L 340.489205 -272.467497 
L 339.879257 -272.467498 
L 339.26931 -272.467498 
L 338.659363 -272.467497 
L 338.049416 -272.467498 
L 337.439469 -272.467498 
L 336.829522 -272.467497 
L 336.219574 -272.467497 
L 335.609627 -272.467497 
L 334.99968 -272.467498 
L 334.389733 -272.467498 
L 333.779786 -272.467498 
L 333.169839 -272.467499 
L 332.559891 -272.467498 
L 331.949944 -272.467498 
L 331.339997 -272.467498 
L 330.73005 -272.467498 
L 330.120103 -272.467499 
L 329.510156 -272.467497 
L 328.900208 -272.467497 
L 328.290261 -272.467497 
L 327.680314 -272.467497 
L 327.070367 -272.467498 
L 326.46042 -272.467497 
L 325.850473 -272.467497 
L 325.240525 -272.467497 
L 324.630578 -272.467496 
L 324.020631 -272.467496 
L 323.410684 -272.467497 
L 322.800737 -272.467497 
L 322.19079 -272.467496 
L 321.580842 -272.467495 
L 320.970895 -272.467494 
L 320.360948 -272.467495 
L 319.751001 -272.467495 
L 319.141054 -272.467491 
L 318.531107 -272.46744 
L 317.921159 -272.46744 
L 317.311212 -272.467442 
L 316.701265 -272.467441 
L 316.091318 -272.46744 
L 315.481371 -272.467441 
L 314.871424 -272.467441 
L 314.261476 -272.467441 
L 313.651529 -272.467442 
L 313.041582 -272.467441 
L 312.431635 -272.46744 
L 311.821688 -272.46744 
L 311.211741 -272.467441 
L 310.601793 -272.467441 
L 309.991846 -272.467441 
L 309.381899 -272.467441 
L 308.771952 -272.467441 
L 308.162005 -272.467442 
L 307.552058 -272.467441 
L 306.94211 -272.467442 
L 306.332163 -272.46744 
L 305.722216 -272.46744 
L 305.112269 -272.46744 
L 304.502322 -272.46744 
L 303.892375 -272.46744 
L 303.282427 -272.46744 
L 302.67248 -272.467441 
L 302.062533 -272.467441 
L 301.452586 -272.467441 
L 300.842639 -272.467441 
L 300.232692 -272.467441 
L 299.622744 -272.46744 
L 299.012797 -272.467442 
L 298.40285 -272.46744 
L 297.792903 -272.467441 
L 297.182956 -272.467441 
L 296.573009 -272.46744 
L 295.963061 -272.467441 
L 295.353114 -272.467441 
L 294.743167 -272.46744 
L 294.13322 -272.467441 
L 293.523273 -272.46744 
L 292.913326 -272.467441 
L 292.303378 -272.467441 
L 291.693431 -272.467441 
L 291.083484 -272.46744 
L 290.473537 -272.467441 
L 289.86359 -272.46744 
L 289.253643 -272.46744 
L 288.643695 -272.467441 
L 288.033748 -272.467441 
L 287.423801 -272.46744 
L 286.813854 -272.46744 
L 286.203907 -272.467441 
L 285.59396 -272.467442 
L 284.984012 -272.467441 
L 284.374065 -272.467445 
L 283.764118 -272.46744 
L 283.154171 -272.46744 
L 282.544224 -272.467441 
L 281.934277 -272.467441 
L 281.324329 -272.46744 
L 280.714382 -272.46744 
L 280.104435 -272.46744 
L 279.494488 -272.467442 
L 278.884541 -272.467441 
L 278.274594 -272.467441 
L 277.664646 -272.46744 
L 277.054699 -272.467441 
L 276.444752 -272.46744 
L 275.834805 -272.46744 
L 275.224858 -272.46744 
L 274.614911 -272.467439 
L 274.004963 -272.467438 
L 273.395016 -272.467438 
L 272.785069 -272.467438 
L 272.175122 -272.467437 
L 271.565175 -272.467436 
L 270.955228 -272.465694 
L 270.34528 -272.465694 
L 269.735333 -272.465694 
L 269.125386 -272.465691 
L 268.515439 -272.465693 
L 267.905492 -272.465058 
L 267.295545 -272.465058 
L 266.685597 -272.465058 
L 266.07565 -272.465058 
L 265.465703 -272.465058 
L 264.855756 -272.465057 
L 264.245809 -272.465057 
L 263.635862 -272.458703 
L 263.025914 -272.458702 
L 262.415967 -272.458702 
L 261.80602 -272.458702 
L 261.196073 -272.458703 
L 260.586126 -272.458702 
L 259.976179 -272.458702 
L 259.366231 -272.458702 
L 258.756284 -272.458702 
L 258.146337 -272.458702 
L 257.53639 -272.458702 
L 256.926443 -272.458702 
L 256.316496 -272.458702 
L 255.706548 -272.458703 
L 255.096601 -272.458702 
L 254.486654 -272.458702 
L 253.876707 -272.458702 
L 253.26676 -272.458702 
L 252.656813 -272.458702 
L 252.046865 -272.458702 
L 251.436918 -272.458702 
L 250.826971 -272.458701 
L 250.217024 -272.4587 
L 249.607077 -272.458702 
L 248.99713 -272.458699 
L 248.387182 -272.458702 
L 247.777235 -272.4587 
L 247.167288 -272.451972 
L 246.557341 -272.45197 
L 245.947394 -272.451973 
L 245.337447 -272.443725 
L 244.727499 -272.443725 
L 244.117552 -272.443725 
L 243.507605 -272.443725 
L 242.897658 -272.443725 
L 242.287711 -272.443725 
L 241.677764 -272.443725 
L 241.067816 -272.443725 
L 240.457869 -272.443725 
L 239.847922 -272.443725 
L 239.237975 -272.443725 
L 238.628028 -272.443725 
L 238.018081 -272.443725 
L 237.408133 -272.443725 
L 236.798186 -272.443725 
L 236.188239 -272.443725 
L 235.578292 -272.443726 
L 234.968345 -272.443725 
L 234.358398 -272.443725 
L 233.74845 -272.443725 
L 233.138503 -272.443725 
L 232.528556 -272.443726 
L 231.918609 -272.443725 
L 231.308662 -272.443725 
L 230.698715 -272.443725 
L 230.088767 -272.443725 
L 229.47882 -272.443725 
L 228.868873 -272.443725 
L 228.258926 -272.443725 
L 227.648979 -272.443725 
L 227.039032 -272.443725 
L 226.429084 -272.443725 
L 225.819137 -272.443725 
L 225.20919 -272.443725 
L 224.599243 -272.443725 
L 223.989296 -272.443725 
L 223.379349 -272.443725 
L 222.769401 -272.443725 
L 222.159454 -272.443725 
L 221.549507 -272.443725 
L 220.93956 -272.4426 
L 220.329613 -272.4426 
L 219.719666 -272.4426 
L 219.109718 -272.4426 
L 218.499771 -272.4426 
L 217.889824 -272.4426 
L 217.279877 -272.4426 
L 216.66993 -272.4426 
L 216.059983 -272.4426 
L 215.450035 -272.4426 
L 214.840088 -272.4426 
L 214.230141 -272.4426 
L 213.620194 -272.4426 
L 213.010247 -272.4426 
L 212.4003 -272.4426 
L 211.790352 -272.4426 
L 211.180405 -272.4426 
L 210.570458 -272.4426 
L 209.960511 -272.4426 
L 209.350564 -272.4426 
L 208.740617 -272.4426 
L 208.130669 -272.4426 
L 207.520722 -272.4426 
L 206.910775 -272.4426 
L 206.300828 -272.4426 
L 205.690881 -272.4426 
L 205.080934 -272.4426 
L 204.470986 -272.4426 
L 203.861039 -272.4426 
L 203.251092 -272.4426 
L 202.641145 -272.441153 
L 202.031198 -272.441153 
L 201.421251 -272.441153 
L 200.811303 -272.441153 
L 200.201356 -272.441153 
L 199.591409 -272.441153 
L 198.981462 -272.441153 
L 198.371515 -272.441153 
L 197.761568 -272.441153 
L 197.15162 -272.441153 
L 196.541673 -272.441153 
L 195.931726 -272.441153 
L 195.321779 -272.441153 
L 194.711832 -272.441153 
L 194.101885 -272.441153 
L 193.491937 -272.441153 
L 192.88199 -272.441153 
L 192.272043 -272.441153 
L 191.662096 -272.441153 
L 191.052149 -272.441153 
L 190.442202 -272.441153 
L 189.832254 -272.441153 
L 189.222307 -272.441153 
L 188.61236 -272.441153 
L 188.002413 -272.441153 
L 187.392466 -272.441153 
L 186.782519 -272.441153 
L 186.172571 -272.441153 
L 185.562624 -272.441153 
L 184.952677 -272.441153 
L 184.34273 -272.437614 
L 183.732783 -272.437614 
L 183.122836 -272.437614 
L 182.512888 -272.437614 
L 181.902941 -272.437614 
L 181.292994 -272.437614 
L 180.683047 -272.437614 
L 180.0731 -272.437614 
L 179.463153 -272.437614 
L 178.853205 -272.437614 
L 178.243258 -272.437614 
L 177.633311 -272.437614 
L 177.023364 -272.437614 
L 176.413417 -272.437614 
L 175.80347 -272.437614 
L 175.193522 -272.437614 
L 174.583575 -272.426314 
L 173.973628 -272.426315 
L 173.363681 -272.426315 
L 172.753734 -272.426311 
L 172.143787 -272.425875 
L 171.533839 -272.425876 
L 170.923892 -272.425876 
L 170.313945 -272.425876 
L 169.703998 -272.425876 
L 169.094051 -272.405962 
L 168.484104 -272.405961 
L 167.874156 -272.40596 
L 167.264209 -272.402832 
L 166.654262 -272.402832 
L 166.044315 -272.40283 
L 165.434368 -272.402828 
L 164.824421 -272.40283 
L 164.214473 -272.39933 
L 163.604526 -272.39933 
L 162.994579 -272.39933 
L 162.384632 -272.391951 
L 161.774685 -272.391951 
L 161.164738 -272.391951 
L 160.55479 -272.391951 
L 159.944843 -272.391951 
L 159.334896 -272.391951 
L 158.724949 -272.391951 
L 158.115002 -272.391951 
L 157.505055 -272.391951 
L 156.895107 -272.391951 
L 156.28516 -272.391951 
L 155.675213 -272.391951 
L 155.065266 -272.391951 
L 154.455319 -272.391951 
L 153.845372 -272.391951 
L 153.235424 -272.391951 
L 152.625477 -272.391951 
L 152.01553 -272.391951 
L 151.405583 -272.391951 
L 150.795636 -272.391951 
L 150.185689 -272.391951 
L 149.575741 -272.39195 
L 148.965794 -272.391951 
L 148.355847 -272.37254 
L 147.7459 -272.37254 
L 147.135953 -272.361506 
L 146.526006 -272.361506 
L 145.916058 -272.361506 
L 145.306111 -272.361506 
L 144.696164 -272.303815 
L 144.086217 -272.303813 
L 143.47627 -272.303813 
L 142.866323 -272.296707 
L 142.256375 -272.296705 
L 141.646428 -272.296707 
L 141.036481 -272.296706 
L 140.426534 -272.296707 
L 139.816587 -272.281142 
L 139.20664 -272.28114 
L 138.596692 -272.281142 
L 137.986745 -272.270132 
L 137.376798 -272.261813 
L 136.766851 -272.259103 
L 136.156904 -272.259103 
L 135.546957 -272.259103 
L 134.937009 -272.259103 
L 134.327062 -272.256318 
L 133.717115 -272.256319 
L 133.107168 -272.256319 
L 132.497221 -272.256319 
L 131.887274 -272.246134 
L 131.277326 -272.246134 
L 130.667379 -272.246134 
L 130.057432 -272.246134 
L 129.447485 -272.241783 
L 128.837538 -272.241783 
L 128.227591 -272.241783 
L 127.617643 -272.241783 
L 127.007696 -272.229389 
L 126.397749 -272.229389 
L 125.787802 -272.229389 
L 125.177855 -272.229389 
L 124.567908 -272.223103 
L 123.95796 -272.199064 
L 123.348013 -272.199063 
L 122.738066 -272.199064 
L 122.128119 -272.199063 
L 121.518172 -272.181735 
L 120.908225 -272.181735 
L 120.298277 -272.181735 
L 119.68833 -272.181735 
L 119.078383 -272.181735 
L 118.468436 -272.181735 
L 117.858489 -272.181735 
L 117.248542 -272.12487 
L 116.638594 -272.12487 
L 116.028647 -272.12487 
L 115.4187 -272.12487 
L 114.808753 -272.12487 
L 114.198806 -272.12487 
L 113.588859 -272.12487 
L 112.978911 -272.117395 
L 112.368964 -272.117394 
L 111.759017 -272.117395 
L 111.14907 -272.117395 
L 110.539123 -272.117395 
L 109.929176 -272.117394 
L 109.319228 -272.117394 
L 108.709281 -272.117394 
L 108.099334 -272.093286 
L 107.489387 -272.065482 
L 106.87944 -272.065482 
L 106.269493 -272.065482 
L 105.659545 -272.065481 
L 105.049598 -272.065482 
L 104.439651 -272.065482 
L 103.829704 -272.065481 
L 103.219757 -272.065482 
L 102.60981 -272.065482 
L 101.999862 -272.065482 
L 101.389915 -272.065481 
L 100.779968 -271.962117 
L 100.170021 -271.962096 
L 99.560074 -271.962118 
L 98.950127 -271.962117 
L 98.340179 -271.962056 
L 97.730232 -271.962129 
L 97.120285 -271.962111 
L 96.510338 -271.962108 
L 95.900391 -271.962121 
L 95.290444 -271.962068 
L 94.680496 -271.962084 
L 94.070549 -271.962057 
L 93.460602 -271.962096 
L 92.850655 -271.819193 
L 92.240708 -271.819193 
L 91.63076 -271.819193 
L 91.020813 -271.819193 
L 90.410866 -271.819193 
L 89.800919 -271.819193 
L 89.190972 -271.819193 
L 88.581025 -271.556284 
L 87.971077 -271.556283 
L 87.36113 -271.556282 
L 86.751183 -271.249642 
L 86.141236 -271.24964 
L 85.531289 -271.249611 
L 84.921342 -271.249607 
L 84.311394 -271.24963 
L 83.701447 -271.249609 
L 83.0915 -271.249603 
L 82.481553 -271.249623 
L 81.871606 -271.249592 
L 81.261659 -270.706209 
L 80.651711 -270.706207 
L 80.041764 -270.706203 
L 79.431817 -270.706204 
L 78.82187 -270.706204 
L 78.211923 -270.624209 
L 77.601976 -270.624208 
L 76.992028 -270.624211 
L 76.382081 -270.624207 
L 75.772134 -270.624214 
L 75.162187 -270.624208 
L 74.55224 -270.624195 
L 73.942293 -270.555765 
L 73.332345 -270.555766 
L 72.722398 -270.555764 
L 72.112451 -270.555765 
L 71.502504 -270.555766 
L 70.892557 -270.555762 
z
" style="stroke: #0000ff; stroke-opacity: 0.2"/>
    </defs>
    <g clip-path="url(#p726c2a5c26)">
     <use xlink:href="#md347a30ab2" x="0" y="287.4075" style="fill: #0000ff; fill-opacity: 0.2; stroke: #0000ff; stroke-opacity: 0.2"/>
    </g>
   </g>
   <g id="matplotlib.axis_1">
    <g id="xtick_1">
     <g id="line2d_1">
      <path d="M 70.892557 253.08 
L 70.892557 3.6 
" clip-path="url(#p726c2a5c26)" style="fill: none; stroke: #b0b0b0; stroke-width: 0.5; stroke-linecap: square"/>
     </g>
     <g id="line2d_2">
      <defs>
       <path id="md9c584d953" d="M 0 0 
L 0 -3 
" style="stroke: #000000; stroke-width: 0.5"/>
      </defs>
      <g>
       <use xlink:href="#md9c584d953" x="70.892557" y="253.08" style="stroke: #000000; stroke-width: 0.5"/>
      </g>
     </g>
     <g id="line2d_3">
      <defs>
       <path id="md17bdfefb7" d="M 0 0 
L 0 3 
" style="stroke: #000000; stroke-width: 0.5"/>
      </defs>
      <g>
       <use xlink:href="#md17bdfefb7" x="70.892557" y="3.6" style="stroke: #000000; stroke-width: 0.5"/>
      </g>
     </g>
     <g id="text_1">
      <!-- 0 -->
      <g transform="translate(67.075057 265.698125) scale(0.12 -0.12)">
       <defs>
        <path id="DejaVuSans-30" d="M 2034 4250 
Q 1547 4250 1301 3770 
Q 1056 3291 1056 2328 
Q 1056 1369 1301 889 
Q 1547 409 2034 409 
Q 2525 409 2770 889 
Q 3016 1369 3016 2328 
Q 3016 3291 2770 3770 
Q 2525 4250 2034 4250 
z
M 2034 4750 
Q 2819 4750 3233 4129 
Q 3647 3509 3647 2328 
Q 3647 1150 3233 529 
Q 2819 -91 2034 -91 
Q 1250 -91 836 529 
Q 422 1150 422 2328 
Q 422 3509 836 4129 
Q 1250 4750 2034 4750 
z
" transform="scale(0.015625)"/>
       </defs>
       <use xlink:href="#DejaVuSans-30"/>
      </g>
     </g>
    </g>
    <g id="xtick_2">
     <g id="line2d_4">
      <path d="M 131.887274 253.08 
L 131.887274 3.6 
" clip-path="url(#p726c2a5c26)" style="fill: none; stroke: #b0b0b0; stroke-width: 0.5; stroke-linecap: square"/>
     </g>
     <g id="line2d_5">
      <g>
       <use xlink:href="#md9c584d953" x="131.887274" y="253.08" style="stroke: #000000; stroke-width: 0.5"/>
      </g>
     </g>
     <g id="line2d_6">
      <g>
       <use xlink:href="#md17bdfefb7" x="131.887274" y="3.6" style="stroke: #000000; stroke-width: 0.5"/>
      </g>
     </g>
     <g id="text_2">
      <!-- 100 -->
      <g transform="translate(120.434774 265.698125) scale(0.12 -0.12)">
       <defs>
        <path id="DejaVuSans-31" d="M 794 531 
L 1825 531 
L 1825 4091 
L 703 3866 
L 703 4441 
L 1819 4666 
L 2450 4666 
L 2450 531 
L 3481 531 
L 3481 0 
L 794 0 
L 794 531 
z
" transform="scale(0.015625)"/>
       </defs>
       <use xlink:href="#DejaVuSans-31"/>
       <use xlink:href="#DejaVuSans-30" x="63.623047"/>
       <use xlink:href="#DejaVuSans-30" x="127.246094"/>
      </g>
     </g>
    </g>
    <g id="xtick_3">
     <g id="line2d_7">
      <path d="M 192.88199 253.08 
L 192.88199 3.6 
" clip-path="url(#p726c2a5c26)" style="fill: none; stroke: #b0b0b0; stroke-width: 0.5; stroke-linecap: square"/>
     </g>
     <g id="line2d_8">
      <g>
       <use xlink:href="#md9c584d953" x="192.88199" y="253.08" style="stroke: #000000; stroke-width: 0.5"/>
      </g>
     </g>
     <g id="line2d_9">
      <g>
       <use xlink:href="#md17bdfefb7" x="192.88199" y="3.6" style="stroke: #000000; stroke-width: 0.5"/>
      </g>
     </g>
     <g id="text_3">
      <!-- 200 -->
      <g transform="translate(181.42949 265.698125) scale(0.12 -0.12)">
       <defs>
        <path id="DejaVuSans-32" d="M 1228 531 
L 3431 531 
L 3431 0 
L 469 0 
L 469 531 
Q 828 903 1448 1529 
Q 2069 2156 2228 2338 
Q 2531 2678 2651 2914 
Q 2772 3150 2772 3378 
Q 2772 3750 2511 3984 
Q 2250 4219 1831 4219 
Q 1534 4219 1204 4116 
Q 875 4013 500 3803 
L 500 4441 
Q 881 4594 1212 4672 
Q 1544 4750 1819 4750 
Q 2544 4750 2975 4387 
Q 3406 4025 3406 3419 
Q 3406 3131 3298 2873 
Q 3191 2616 2906 2266 
Q 2828 2175 2409 1742 
Q 1991 1309 1228 531 
z
" transform="scale(0.015625)"/>
       </defs>
       <use xlink:href="#DejaVuSans-32"/>
       <use xlink:href="#DejaVuSans-30" x="63.623047"/>
       <use xlink:href="#DejaVuSans-30" x="127.246094"/>
      </g>
     </g>
    </g>
    <g id="xtick_4">
     <g id="line2d_10">
      <path d="M 253.876707 253.08 
L 253.876707 3.6 
" clip-path="url(#p726c2a5c26)" style="fill: none; stroke: #b0b0b0; stroke-width: 0.5; stroke-linecap: square"/>
     </g>
     <g id="line2d_11">
      <g>
       <use xlink:href="#md9c584d953" x="253.876707" y="253.08" style="stroke: #000000; stroke-width: 0.5"/>
      </g>
     </g>
     <g id="line2d_12">
      <g>
       <use xlink:href="#md17bdfefb7" x="253.876707" y="3.6" style="stroke: #000000; stroke-width: 0.5"/>
      </g>
     </g>
     <g id="text_4">
      <!-- 300 -->
      <g transform="translate(242.424207 265.698125) scale(0.12 -0.12)">
       <defs>
        <path id="DejaVuSans-33" d="M 2597 2516 
Q 3050 2419 3304 2112 
Q 3559 1806 3559 1356 
Q 3559 666 3084 287 
Q 2609 -91 1734 -91 
Q 1441 -91 1130 -33 
Q 819 25 488 141 
L 488 750 
Q 750 597 1062 519 
Q 1375 441 1716 441 
Q 2309 441 2620 675 
Q 2931 909 2931 1356 
Q 2931 1769 2642 2001 
Q 2353 2234 1838 2234 
L 1294 2234 
L 1294 2753 
L 1863 2753 
Q 2328 2753 2575 2939 
Q 2822 3125 2822 3475 
Q 2822 3834 2567 4026 
Q 2313 4219 1838 4219 
Q 1578 4219 1281 4162 
Q 984 4106 628 3988 
L 628 4550 
Q 988 4650 1302 4700 
Q 1616 4750 1894 4750 
Q 2613 4750 3031 4423 
Q 3450 4097 3450 3541 
Q 3450 3153 3228 2886 
Q 3006 2619 2597 2516 
z
" transform="scale(0.015625)"/>
       </defs>
       <use xlink:href="#DejaVuSans-33"/>
       <use xlink:href="#DejaVuSans-30" x="63.623047"/>
       <use xlink:href="#DejaVuSans-30" x="127.246094"/>
      </g>
     </g>
    </g>
    <g id="xtick_5">
     <g id="line2d_13">
      <path d="M 314.871424 253.08 
L 314.871424 3.6 
" clip-path="url(#p726c2a5c26)" style="fill: none; stroke: #b0b0b0; stroke-width: 0.5; stroke-linecap: square"/>
     </g>
     <g id="line2d_14">
      <g>
       <use xlink:href="#md9c584d953" x="314.871424" y="253.08" style="stroke: #000000; stroke-width: 0.5"/>
      </g>
     </g>
     <g id="line2d_15">
      <g>
       <use xlink:href="#md17bdfefb7" x="314.871424" y="3.6" style="stroke: #000000; stroke-width: 0.5"/>
      </g>
     </g>
     <g id="text_5">
      <!-- 400 -->
      <g transform="translate(303.418924 265.698125) scale(0.12 -0.12)">
       <defs>
        <path id="DejaVuSans-34" d="M 2419 4116 
L 825 1625 
L 2419 1625 
L 2419 4116 
z
M 2253 4666 
L 3047 4666 
L 3047 1625 
L 3713 1625 
L 3713 1100 
L 3047 1100 
L 3047 0 
L 2419 0 
L 2419 1100 
L 313 1100 
L 313 1709 
L 2253 4666 
z
" transform="scale(0.015625)"/>
       </defs>
       <use xlink:href="#DejaVuSans-34"/>
       <use xlink:href="#DejaVuSans-30" x="63.623047"/>
       <use xlink:href="#DejaVuSans-30" x="127.246094"/>
      </g>
     </g>
    </g>
    <g id="xtick_6">
     <g id="line2d_16">
      <path d="M 375.86614 253.08 
L 375.86614 3.6 
" clip-path="url(#p726c2a5c26)" style="fill: none; stroke: #b0b0b0; stroke-width: 0.5; stroke-linecap: square"/>
     </g>
     <g id="line2d_17">
      <g>
       <use xlink:href="#md9c584d953" x="375.86614" y="253.08" style="stroke: #000000; stroke-width: 0.5"/>
      </g>
     </g>
     <g id="line2d_18">
      <g>
       <use xlink:href="#md17bdfefb7" x="375.86614" y="3.6" style="stroke: #000000; stroke-width: 0.5"/>
      </g>
     </g>
     <g id="text_6">
      <!-- 500 -->
      <g transform="translate(364.41364 265.698125) scale(0.12 -0.12)">
       <defs>
        <path id="DejaVuSans-35" d="M 691 4666 
L 3169 4666 
L 3169 4134 
L 1269 4134 
L 1269 2991 
Q 1406 3038 1543 3061 
Q 1681 3084 1819 3084 
Q 2600 3084 3056 2656 
Q 3513 2228 3513 1497 
Q 3513 744 3044 326 
Q 2575 -91 1722 -91 
Q 1428 -91 1123 -41 
Q 819 9 494 109 
L 494 744 
Q 775 591 1075 516 
Q 1375 441 1709 441 
Q 2250 441 2565 725 
Q 2881 1009 2881 1497 
Q 2881 1984 2565 2268 
Q 2250 2553 1709 2553 
Q 1456 2553 1204 2497 
Q 953 2441 691 2322 
L 691 4666 
z
" transform="scale(0.015625)"/>
       </defs>
       <use xlink:href="#DejaVuSans-35"/>
       <use xlink:href="#DejaVuSans-30" x="63.623047"/>
       <use xlink:href="#DejaVuSans-30" x="127.246094"/>
      </g>
     </g>
    </g>
    <g id="xtick_7">
     <g id="line2d_19">
      <defs>
       <path id="m4122c03e49" d="M 0 0 
L 0 -1.5 
" style="stroke: #000000; stroke-width: 0.5"/>
      </defs>
      <g>
       <use xlink:href="#m4122c03e49" x="58.693613" y="253.08" style="stroke: #000000; stroke-width: 0.5"/>
      </g>
     </g>
     <g id="line2d_20">
      <defs>
       <path id="m3649c48894" d="M 0 0 
L 0 1.5 
" style="stroke: #000000; stroke-width: 0.5"/>
      </defs>
      <g>
       <use xlink:href="#m3649c48894" x="58.693613" y="3.6" style="stroke: #000000; stroke-width: 0.5"/>
      </g>
     </g>
    </g>
    <g id="xtick_8">
     <g id="line2d_21">
      <g>
       <use xlink:href="#m4122c03e49" x="83.0915" y="253.08" style="stroke: #000000; stroke-width: 0.5"/>
      </g>
     </g>
     <g id="line2d_22">
      <g>
       <use xlink:href="#m3649c48894" x="83.0915" y="3.6" style="stroke: #000000; stroke-width: 0.5"/>
      </g>
     </g>
    </g>
    <g id="xtick_9">
     <g id="line2d_23">
      <g>
       <use xlink:href="#m4122c03e49" x="95.290444" y="253.08" style="stroke: #000000; stroke-width: 0.5"/>
      </g>
     </g>
     <g id="line2d_24">
      <g>
       <use xlink:href="#m3649c48894" x="95.290444" y="3.6" style="stroke: #000000; stroke-width: 0.5"/>
      </g>
     </g>
    </g>
    <g id="xtick_10">
     <g id="line2d_25">
      <g>
       <use xlink:href="#m4122c03e49" x="107.489387" y="253.08" style="stroke: #000000; stroke-width: 0.5"/>
      </g>
     </g>
     <g id="line2d_26">
      <g>
       <use xlink:href="#m3649c48894" x="107.489387" y="3.6" style="stroke: #000000; stroke-width: 0.5"/>
      </g>
     </g>
    </g>
    <g id="xtick_11">
     <g id="line2d_27">
      <g>
       <use xlink:href="#m4122c03e49" x="119.68833" y="253.08" style="stroke: #000000; stroke-width: 0.5"/>
      </g>
     </g>
     <g id="line2d_28">
      <g>
       <use xlink:href="#m3649c48894" x="119.68833" y="3.6" style="stroke: #000000; stroke-width: 0.5"/>
      </g>
     </g>
    </g>
    <g id="xtick_12">
     <g id="line2d_29">
      <g>
       <use xlink:href="#m4122c03e49" x="144.086217" y="253.08" style="stroke: #000000; stroke-width: 0.5"/>
      </g>
     </g>
     <g id="line2d_30">
      <g>
       <use xlink:href="#m3649c48894" x="144.086217" y="3.6" style="stroke: #000000; stroke-width: 0.5"/>
      </g>
     </g>
    </g>
    <g id="xtick_13">
     <g id="line2d_31">
      <g>
       <use xlink:href="#m4122c03e49" x="156.28516" y="253.08" style="stroke: #000000; stroke-width: 0.5"/>
      </g>
     </g>
     <g id="line2d_32">
      <g>
       <use xlink:href="#m3649c48894" x="156.28516" y="3.6" style="stroke: #000000; stroke-width: 0.5"/>
      </g>
     </g>
    </g>
    <g id="xtick_14">
     <g id="line2d_33">
      <g>
       <use xlink:href="#m4122c03e49" x="168.484104" y="253.08" style="stroke: #000000; stroke-width: 0.5"/>
      </g>
     </g>
     <g id="line2d_34">
      <g>
       <use xlink:href="#m3649c48894" x="168.484104" y="3.6" style="stroke: #000000; stroke-width: 0.5"/>
      </g>
     </g>
    </g>
    <g id="xtick_15">
     <g id="line2d_35">
      <g>
       <use xlink:href="#m4122c03e49" x="180.683047" y="253.08" style="stroke: #000000; stroke-width: 0.5"/>
      </g>
     </g>
     <g id="line2d_36">
      <g>
       <use xlink:href="#m3649c48894" x="180.683047" y="3.6" style="stroke: #000000; stroke-width: 0.5"/>
      </g>
     </g>
    </g>
    <g id="xtick_16">
     <g id="line2d_37">
      <g>
       <use xlink:href="#m4122c03e49" x="205.080934" y="253.08" style="stroke: #000000; stroke-width: 0.5"/>
      </g>
     </g>
     <g id="line2d_38">
      <g>
       <use xlink:href="#m3649c48894" x="205.080934" y="3.6" style="stroke: #000000; stroke-width: 0.5"/>
      </g>
     </g>
    </g>
    <g id="xtick_17">
     <g id="line2d_39">
      <g>
       <use xlink:href="#m4122c03e49" x="217.279877" y="253.08" style="stroke: #000000; stroke-width: 0.5"/>
      </g>
     </g>
     <g id="line2d_40">
      <g>
       <use xlink:href="#m3649c48894" x="217.279877" y="3.6" style="stroke: #000000; stroke-width: 0.5"/>
      </g>
     </g>
    </g>
    <g id="xtick_18">
     <g id="line2d_41">
      <g>
       <use xlink:href="#m4122c03e49" x="229.47882" y="253.08" style="stroke: #000000; stroke-width: 0.5"/>
      </g>
     </g>
     <g id="line2d_42">
      <g>
       <use xlink:href="#m3649c48894" x="229.47882" y="3.6" style="stroke: #000000; stroke-width: 0.5"/>
      </g>
     </g>
    </g>
    <g id="xtick_19">
     <g id="line2d_43">
      <g>
       <use xlink:href="#m4122c03e49" x="241.677764" y="253.08" style="stroke: #000000; stroke-width: 0.5"/>
      </g>
     </g>
     <g id="line2d_44">
      <g>
       <use xlink:href="#m3649c48894" x="241.677764" y="3.6" style="stroke: #000000; stroke-width: 0.5"/>
      </g>
     </g>
    </g>
    <g id="xtick_20">
     <g id="line2d_45">
      <g>
       <use xlink:href="#m4122c03e49" x="266.07565" y="253.08" style="stroke: #000000; stroke-width: 0.5"/>
      </g>
     </g>
     <g id="line2d_46">
      <g>
       <use xlink:href="#m3649c48894" x="266.07565" y="3.6" style="stroke: #000000; stroke-width: 0.5"/>
      </g>
     </g>
    </g>
    <g id="xtick_21">
     <g id="line2d_47">
      <g>
       <use xlink:href="#m4122c03e49" x="278.274594" y="253.08" style="stroke: #000000; stroke-width: 0.5"/>
      </g>
     </g>
     <g id="line2d_48">
      <g>
       <use xlink:href="#m3649c48894" x="278.274594" y="3.6" style="stroke: #000000; stroke-width: 0.5"/>
      </g>
     </g>
    </g>
    <g id="xtick_22">
     <g id="line2d_49">
      <g>
       <use xlink:href="#m4122c03e49" x="290.473537" y="253.08" style="stroke: #000000; stroke-width: 0.5"/>
      </g>
     </g>
     <g id="line2d_50">
      <g>
       <use xlink:href="#m3649c48894" x="290.473537" y="3.6" style="stroke: #000000; stroke-width: 0.5"/>
      </g>
     </g>
    </g>
    <g id="xtick_23">
     <g id="line2d_51">
      <g>
       <use xlink:href="#m4122c03e49" x="302.67248" y="253.08" style="stroke: #000000; stroke-width: 0.5"/>
      </g>
     </g>
     <g id="line2d_52">
      <g>
       <use xlink:href="#m3649c48894" x="302.67248" y="3.6" style="stroke: #000000; stroke-width: 0.5"/>
      </g>
     </g>
    </g>
    <g id="xtick_24">
     <g id="line2d_53">
      <g>
       <use xlink:href="#m4122c03e49" x="327.070367" y="253.08" style="stroke: #000000; stroke-width: 0.5"/>
      </g>
     </g>
     <g id="line2d_54">
      <g>
       <use xlink:href="#m3649c48894" x="327.070367" y="3.6" style="stroke: #000000; stroke-width: 0.5"/>
      </g>
     </g>
    </g>
    <g id="xtick_25">
     <g id="line2d_55">
      <g>
       <use xlink:href="#m4122c03e49" x="339.26931" y="253.08" style="stroke: #000000; stroke-width: 0.5"/>
      </g>
     </g>
     <g id="line2d_56">
      <g>
       <use xlink:href="#m3649c48894" x="339.26931" y="3.6" style="stroke: #000000; stroke-width: 0.5"/>
      </g>
     </g>
    </g>
    <g id="xtick_26">
     <g id="line2d_57">
      <g>
       <use xlink:href="#m4122c03e49" x="351.468254" y="253.08" style="stroke: #000000; stroke-width: 0.5"/>
      </g>
     </g>
     <g id="line2d_58">
      <g>
       <use xlink:href="#m3649c48894" x="351.468254" y="3.6" style="stroke: #000000; stroke-width: 0.5"/>
      </g>
     </g>
    </g>
    <g id="xtick_27">
     <g id="line2d_59">
      <g>
       <use xlink:href="#m4122c03e49" x="363.667197" y="253.08" style="stroke: #000000; stroke-width: 0.5"/>
      </g>
     </g>
     <g id="line2d_60">
      <g>
       <use xlink:href="#m3649c48894" x="363.667197" y="3.6" style="stroke: #000000; stroke-width: 0.5"/>
      </g>
     </g>
    </g>
    <g id="xtick_28">
     <g id="line2d_61">
      <g>
       <use xlink:href="#m4122c03e49" x="388.065084" y="253.08" style="stroke: #000000; stroke-width: 0.5"/>
      </g>
     </g>
     <g id="line2d_62">
      <g>
       <use xlink:href="#m3649c48894" x="388.065084" y="3.6" style="stroke: #000000; stroke-width: 0.5"/>
      </g>
     </g>
    </g>
    <g id="text_7">
     <!-- Generations -->
     <g transform="translate(186.477188 281.311875) scale(0.12 -0.12)">
      <defs>
       <path id="DejaVuSans-47" d="M 3809 666 
L 3809 1919 
L 2778 1919 
L 2778 2438 
L 4434 2438 
L 4434 434 
Q 4069 175 3628 42 
Q 3188 -91 2688 -91 
Q 1594 -91 976 548 
Q 359 1188 359 2328 
Q 359 3472 976 4111 
Q 1594 4750 2688 4750 
Q 3144 4750 3555 4637 
Q 3966 4525 4313 4306 
L 4313 3634 
Q 3963 3931 3569 4081 
Q 3175 4231 2741 4231 
Q 1884 4231 1454 3753 
Q 1025 3275 1025 2328 
Q 1025 1384 1454 906 
Q 1884 428 2741 428 
Q 3075 428 3337 486 
Q 3600 544 3809 666 
z
" transform="scale(0.015625)"/>
       <path id="DejaVuSans-65" d="M 3597 1894 
L 3597 1613 
L 953 1613 
Q 991 1019 1311 708 
Q 1631 397 2203 397 
Q 2534 397 2845 478 
Q 3156 559 3463 722 
L 3463 178 
Q 3153 47 2828 -22 
Q 2503 -91 2169 -91 
Q 1331 -91 842 396 
Q 353 884 353 1716 
Q 353 2575 817 3079 
Q 1281 3584 2069 3584 
Q 2775 3584 3186 3129 
Q 3597 2675 3597 1894 
z
M 3022 2063 
Q 3016 2534 2758 2815 
Q 2500 3097 2075 3097 
Q 1594 3097 1305 2825 
Q 1016 2553 972 2059 
L 3022 2063 
z
" transform="scale(0.015625)"/>
       <path id="DejaVuSans-6e" d="M 3513 2113 
L 3513 0 
L 2938 0 
L 2938 2094 
Q 2938 2591 2744 2837 
Q 2550 3084 2163 3084 
Q 1697 3084 1428 2787 
Q 1159 2491 1159 1978 
L 1159 0 
L 581 0 
L 581 3500 
L 1159 3500 
L 1159 2956 
Q 1366 3272 1645 3428 
Q 1925 3584 2291 3584 
Q 2894 3584 3203 3211 
Q 3513 2838 3513 2113 
z
" transform="scale(0.015625)"/>
       <path id="DejaVuSans-72" d="M 2631 2963 
Q 2534 3019 2420 3045 
Q 2306 3072 2169 3072 
Q 1681 3072 1420 2755 
Q 1159 2438 1159 1844 
L 1159 0 
L 581 0 
L 581 3500 
L 1159 3500 
L 1159 2956 
Q 1341 3275 1631 3429 
Q 1922 3584 2338 3584 
Q 2397 3584 2469 3576 
Q 2541 3569 2628 3553 
L 2631 2963 
z
" transform="scale(0.015625)"/>
       <path id="DejaVuSans-61" d="M 2194 1759 
Q 1497 1759 1228 1600 
Q 959 1441 959 1056 
Q 959 750 1161 570 
Q 1363 391 1709 391 
Q 2188 391 2477 730 
Q 2766 1069 2766 1631 
L 2766 1759 
L 2194 1759 
z
M 3341 1997 
L 3341 0 
L 2766 0 
L 2766 531 
Q 2569 213 2275 61 
Q 1981 -91 1556 -91 
Q 1019 -91 701 211 
Q 384 513 384 1019 
Q 384 1609 779 1909 
Q 1175 2209 1959 2209 
L 2766 2209 
L 2766 2266 
Q 2766 2663 2505 2880 
Q 2244 3097 1772 3097 
Q 1472 3097 1187 3025 
Q 903 2953 641 2809 
L 641 3341 
Q 956 3463 1253 3523 
Q 1550 3584 1831 3584 
Q 2591 3584 2966 3190 
Q 3341 2797 3341 1997 
z
" transform="scale(0.015625)"/>
       <path id="DejaVuSans-74" d="M 1172 4494 
L 1172 3500 
L 2356 3500 
L 2356 3053 
L 1172 3053 
L 1172 1153 
Q 1172 725 1289 603 
Q 1406 481 1766 481 
L 2356 481 
L 2356 0 
L 1766 0 
Q 1100 0 847 248 
Q 594 497 594 1153 
L 594 3053 
L 172 3053 
L 172 3500 
L 594 3500 
L 594 4494 
L 1172 4494 
z
" transform="scale(0.015625)"/>
       <path id="DejaVuSans-69" d="M 603 3500 
L 1178 3500 
L 1178 0 
L 603 0 
L 603 3500 
z
M 603 4863 
L 1178 4863 
L 1178 4134 
L 603 4134 
L 603 4863 
z
" transform="scale(0.015625)"/>
       <path id="DejaVuSans-6f" d="M 1959 3097 
Q 1497 3097 1228 2736 
Q 959 2375 959 1747 
Q 959 1119 1226 758 
Q 1494 397 1959 397 
Q 2419 397 2687 759 
Q 2956 1122 2956 1747 
Q 2956 2369 2687 2733 
Q 2419 3097 1959 3097 
z
M 1959 3584 
Q 2709 3584 3137 3096 
Q 3566 2609 3566 1747 
Q 3566 888 3137 398 
Q 2709 -91 1959 -91 
Q 1206 -91 779 398 
Q 353 888 353 1747 
Q 353 2609 779 3096 
Q 1206 3584 1959 3584 
z
" transform="scale(0.015625)"/>
       <path id="DejaVuSans-73" d="M 2834 3397 
L 2834 2853 
Q 2591 2978 2328 3040 
Q 2066 3103 1784 3103 
Q 1356 3103 1142 2972 
Q 928 2841 928 2578 
Q 928 2378 1081 2264 
Q 1234 2150 1697 2047 
L 1894 2003 
Q 2506 1872 2764 1633 
Q 3022 1394 3022 966 
Q 3022 478 2636 193 
Q 2250 -91 1575 -91 
Q 1294 -91 989 -36 
Q 684 19 347 128 
L 347 722 
Q 666 556 975 473 
Q 1284 391 1588 391 
Q 1994 391 2212 530 
Q 2431 669 2431 922 
Q 2431 1156 2273 1281 
Q 2116 1406 1581 1522 
L 1381 1569 
Q 847 1681 609 1914 
Q 372 2147 372 2553 
Q 372 3047 722 3315 
Q 1072 3584 1716 3584 
Q 2034 3584 2315 3537 
Q 2597 3491 2834 3397 
z
" transform="scale(0.015625)"/>
      </defs>
      <use xlink:href="#DejaVuSans-47"/>
      <use xlink:href="#DejaVuSans-65" x="77.490234"/>
      <use xlink:href="#DejaVuSans-6e" x="139.013672"/>
      <use xlink:href="#DejaVuSans-65" x="202.392578"/>
      <use xlink:href="#DejaVuSans-72" x="263.916016"/>
      <use xlink:href="#DejaVuSans-61" x="305.029297"/>
      <use xlink:href="#DejaVuSans-74" x="366.308594"/>
      <use xlink:href="#DejaVuSans-69" x="405.517578"/>
      <use xlink:href="#DejaVuSans-6f" x="433.300781"/>
      <use xlink:href="#DejaVuSans-6e" x="494.482422"/>
      <use xlink:href="#DejaVuSans-73" x="557.861328"/>
     </g>
    </g>
   </g>
   <g id="matplotlib.axis_2">
    <g id="ytick_1">
     <g id="line2d_63">
      <path d="M 55.674375 223.941822 
L 390.474375 223.941822 
" clip-path="url(#p726c2a5c26)" style="fill: none; stroke: #b0b0b0; stroke-width: 0.5; stroke-linecap: square"/>
     </g>
     <g id="line2d_64">
      <defs>
       <path id="mdeb3b20bdc" d="M 0 0 
L 3 0 
" style="stroke: #000000; stroke-width: 0.5"/>
      </defs>
      <g>
       <use xlink:href="#mdeb3b20bdc" x="55.674375" y="223.941822" style="stroke: #000000; stroke-width: 0.5"/>
      </g>
     </g>
     <g id="line2d_65">
      <defs>
       <path id="me2411f42c9" d="M 0 0 
L -3 0 
" style="stroke: #000000; stroke-width: 0.5"/>
      </defs>
      <g>
       <use xlink:href="#me2411f42c9" x="390.474375" y="223.941822" style="stroke: #000000; stroke-width: 0.5"/>
      </g>
     </g>
     <g id="text_8">
      <!-- −800 -->
      <g transform="translate(19.21375 228.500885) scale(0.12 -0.12)">
       <defs>
        <path id="DejaVuSans-2212" d="M 678 2272 
L 4684 2272 
L 4684 1741 
L 678 1741 
L 678 2272 
z
" transform="scale(0.015625)"/>
        <path id="DejaVuSans-38" d="M 2034 2216 
Q 1584 2216 1326 1975 
Q 1069 1734 1069 1313 
Q 1069 891 1326 650 
Q 1584 409 2034 409 
Q 2484 409 2743 651 
Q 3003 894 3003 1313 
Q 3003 1734 2745 1975 
Q 2488 2216 2034 2216 
z
M 1403 2484 
Q 997 2584 770 2862 
Q 544 3141 544 3541 
Q 544 4100 942 4425 
Q 1341 4750 2034 4750 
Q 2731 4750 3128 4425 
Q 3525 4100 3525 3541 
Q 3525 3141 3298 2862 
Q 3072 2584 2669 2484 
Q 3125 2378 3379 2068 
Q 3634 1759 3634 1313 
Q 3634 634 3220 271 
Q 2806 -91 2034 -91 
Q 1263 -91 848 271 
Q 434 634 434 1313 
Q 434 1759 690 2068 
Q 947 2378 1403 2484 
z
M 1172 3481 
Q 1172 3119 1398 2916 
Q 1625 2713 2034 2713 
Q 2441 2713 2670 2916 
Q 2900 3119 2900 3481 
Q 2900 3844 2670 4047 
Q 2441 4250 2034 4250 
Q 1625 4250 1398 4047 
Q 1172 3844 1172 3481 
z
" transform="scale(0.015625)"/>
       </defs>
       <use xlink:href="#DejaVuSans-2212"/>
       <use xlink:href="#DejaVuSans-38" x="83.789062"/>
       <use xlink:href="#DejaVuSans-30" x="147.412109"/>
       <use xlink:href="#DejaVuSans-30" x="211.035156"/>
      </g>
     </g>
    </g>
    <g id="ytick_2">
     <g id="line2d_66">
      <path d="M 55.674375 173.149348 
L 390.474375 173.149348 
" clip-path="url(#p726c2a5c26)" style="fill: none; stroke: #b0b0b0; stroke-width: 0.5; stroke-linecap: square"/>
     </g>
     <g id="line2d_67">
      <g>
       <use xlink:href="#mdeb3b20bdc" x="55.674375" y="173.149348" style="stroke: #000000; stroke-width: 0.5"/>
      </g>
     </g>
     <g id="line2d_68">
      <g>
       <use xlink:href="#me2411f42c9" x="390.474375" y="173.149348" style="stroke: #000000; stroke-width: 0.5"/>
      </g>
     </g>
     <g id="text_9">
      <!-- −600 -->
      <g transform="translate(19.21375 177.708411) scale(0.12 -0.12)">
       <defs>
        <path id="DejaVuSans-36" d="M 2113 2584 
Q 1688 2584 1439 2293 
Q 1191 2003 1191 1497 
Q 1191 994 1439 701 
Q 1688 409 2113 409 
Q 2538 409 2786 701 
Q 3034 994 3034 1497 
Q 3034 2003 2786 2293 
Q 2538 2584 2113 2584 
z
M 3366 4563 
L 3366 3988 
Q 3128 4100 2886 4159 
Q 2644 4219 2406 4219 
Q 1781 4219 1451 3797 
Q 1122 3375 1075 2522 
Q 1259 2794 1537 2939 
Q 1816 3084 2150 3084 
Q 2853 3084 3261 2657 
Q 3669 2231 3669 1497 
Q 3669 778 3244 343 
Q 2819 -91 2113 -91 
Q 1303 -91 875 529 
Q 447 1150 447 2328 
Q 447 3434 972 4092 
Q 1497 4750 2381 4750 
Q 2619 4750 2861 4703 
Q 3103 4656 3366 4563 
z
" transform="scale(0.015625)"/>
       </defs>
       <use xlink:href="#DejaVuSans-2212"/>
       <use xlink:href="#DejaVuSans-36" x="83.789062"/>
       <use xlink:href="#DejaVuSans-30" x="147.412109"/>
       <use xlink:href="#DejaVuSans-30" x="211.035156"/>
      </g>
     </g>
    </g>
    <g id="ytick_3">
     <g id="line2d_69">
      <path d="M 55.674375 122.356875 
L 390.474375 122.356875 
" clip-path="url(#p726c2a5c26)" style="fill: none; stroke: #b0b0b0; stroke-width: 0.5; stroke-linecap: square"/>
     </g>
     <g id="line2d_70">
      <g>
       <use xlink:href="#mdeb3b20bdc" x="55.674375" y="122.356875" style="stroke: #000000; stroke-width: 0.5"/>
      </g>
     </g>
     <g id="line2d_71">
      <g>
       <use xlink:href="#me2411f42c9" x="390.474375" y="122.356875" style="stroke: #000000; stroke-width: 0.5"/>
      </g>
     </g>
     <g id="text_10">
      <!-- −400 -->
      <g transform="translate(19.21375 126.915937) scale(0.12 -0.12)">
       <use xlink:href="#DejaVuSans-2212"/>
       <use xlink:href="#DejaVuSans-34" x="83.789062"/>
       <use xlink:href="#DejaVuSans-30" x="147.412109"/>
       <use xlink:href="#DejaVuSans-30" x="211.035156"/>
      </g>
     </g>
    </g>
    <g id="ytick_4">
     <g id="line2d_72">
      <path d="M 55.674375 71.564401 
L 390.474375 71.564401 
" clip-path="url(#p726c2a5c26)" style="fill: none; stroke: #b0b0b0; stroke-width: 0.5; stroke-linecap: square"/>
     </g>
     <g id="line2d_73">
      <g>
       <use xlink:href="#mdeb3b20bdc" x="55.674375" y="71.564401" style="stroke: #000000; stroke-width: 0.5"/>
      </g>
     </g>
     <g id="line2d_74">
      <g>
       <use xlink:href="#me2411f42c9" x="390.474375" y="71.564401" style="stroke: #000000; stroke-width: 0.5"/>
      </g>
     </g>
     <g id="text_11">
      <!-- −200 -->
      <g transform="translate(19.21375 76.123463) scale(0.12 -0.12)">
       <use xlink:href="#DejaVuSans-2212"/>
       <use xlink:href="#DejaVuSans-32" x="83.789062"/>
       <use xlink:href="#DejaVuSans-30" x="147.412109"/>
       <use xlink:href="#DejaVuSans-30" x="211.035156"/>
      </g>
     </g>
    </g>
    <g id="ytick_5">
     <g id="line2d_75">
      <path d="M 55.674375 20.771927 
L 390.474375 20.771927 
" clip-path="url(#p726c2a5c26)" style="fill: none; stroke: #b0b0b0; stroke-width: 0.5; stroke-linecap: square"/>
     </g>
     <g id="line2d_76">
      <g>
       <use xlink:href="#mdeb3b20bdc" x="55.674375" y="20.771927" style="stroke: #000000; stroke-width: 0.5"/>
      </g>
     </g>
     <g id="line2d_77">
      <g>
       <use xlink:href="#me2411f42c9" x="390.474375" y="20.771927" style="stroke: #000000; stroke-width: 0.5"/>
      </g>
     </g>
     <g id="text_12">
      <!-- 0 -->
      <g transform="translate(44.539375 25.33099) scale(0.12 -0.12)">
       <use xlink:href="#DejaVuSans-30"/>
      </g>
     </g>
    </g>
    <g id="ytick_6">
     <g id="line2d_78">
      <defs>
       <path id="m1c2f934965" d="M 0 0 
L 1.5 0 
" style="stroke: #000000; stroke-width: 0.5"/>
      </defs>
      <g>
       <use xlink:href="#m1c2f934965" x="55.674375" y="249.338059" style="stroke: #000000; stroke-width: 0.5"/>
      </g>
     </g>
     <g id="line2d_79">
      <defs>
       <path id="mc247424a7e" d="M 0 0 
L -1.5 0 
" style="stroke: #000000; stroke-width: 0.5"/>
      </defs>
      <g>
       <use xlink:href="#mc247424a7e" x="390.474375" y="249.338059" style="stroke: #000000; stroke-width: 0.5"/>
      </g>
     </g>
    </g>
    <g id="ytick_7">
     <g id="line2d_80">
      <g>
       <use xlink:href="#m1c2f934965" x="55.674375" y="236.639941" style="stroke: #000000; stroke-width: 0.5"/>
      </g>
     </g>
     <g id="line2d_81">
      <g>
       <use xlink:href="#mc247424a7e" x="390.474375" y="236.639941" style="stroke: #000000; stroke-width: 0.5"/>
      </g>
     </g>
    </g>
    <g id="ytick_8">
     <g id="line2d_82">
      <g>
       <use xlink:href="#m1c2f934965" x="55.674375" y="211.243704" style="stroke: #000000; stroke-width: 0.5"/>
      </g>
     </g>
     <g id="line2d_83">
      <g>
       <use xlink:href="#mc247424a7e" x="390.474375" y="211.243704" style="stroke: #000000; stroke-width: 0.5"/>
      </g>
     </g>
    </g>
    <g id="ytick_9">
     <g id="line2d_84">
      <g>
       <use xlink:href="#m1c2f934965" x="55.674375" y="198.545585" style="stroke: #000000; stroke-width: 0.5"/>
      </g>
     </g>
     <g id="line2d_85">
      <g>
       <use xlink:href="#mc247424a7e" x="390.474375" y="198.545585" style="stroke: #000000; stroke-width: 0.5"/>
      </g>
     </g>
    </g>
    <g id="ytick_10">
     <g id="line2d_86">
      <g>
       <use xlink:href="#m1c2f934965" x="55.674375" y="185.847467" style="stroke: #000000; stroke-width: 0.5"/>
      </g>
     </g>
     <g id="line2d_87">
      <g>
       <use xlink:href="#mc247424a7e" x="390.474375" y="185.847467" style="stroke: #000000; stroke-width: 0.5"/>
      </g>
     </g>
    </g>
    <g id="ytick_11">
     <g id="line2d_88">
      <g>
       <use xlink:href="#m1c2f934965" x="55.674375" y="160.45123" style="stroke: #000000; stroke-width: 0.5"/>
      </g>
     </g>
     <g id="line2d_89">
      <g>
       <use xlink:href="#mc247424a7e" x="390.474375" y="160.45123" style="stroke: #000000; stroke-width: 0.5"/>
      </g>
     </g>
    </g>
    <g id="ytick_12">
     <g id="line2d_90">
      <g>
       <use xlink:href="#m1c2f934965" x="55.674375" y="147.753112" style="stroke: #000000; stroke-width: 0.5"/>
      </g>
     </g>
     <g id="line2d_91">
      <g>
       <use xlink:href="#mc247424a7e" x="390.474375" y="147.753112" style="stroke: #000000; stroke-width: 0.5"/>
      </g>
     </g>
    </g>
    <g id="ytick_13">
     <g id="line2d_92">
      <g>
       <use xlink:href="#m1c2f934965" x="55.674375" y="135.054993" style="stroke: #000000; stroke-width: 0.5"/>
      </g>
     </g>
     <g id="line2d_93">
      <g>
       <use xlink:href="#mc247424a7e" x="390.474375" y="135.054993" style="stroke: #000000; stroke-width: 0.5"/>
      </g>
     </g>
    </g>
    <g id="ytick_14">
     <g id="line2d_94">
      <g>
       <use xlink:href="#m1c2f934965" x="55.674375" y="109.658756" style="stroke: #000000; stroke-width: 0.5"/>
      </g>
     </g>
     <g id="line2d_95">
      <g>
       <use xlink:href="#mc247424a7e" x="390.474375" y="109.658756" style="stroke: #000000; stroke-width: 0.5"/>
      </g>
     </g>
    </g>
    <g id="ytick_15">
     <g id="line2d_96">
      <g>
       <use xlink:href="#m1c2f934965" x="55.674375" y="96.960638" style="stroke: #000000; stroke-width: 0.5"/>
      </g>
     </g>
     <g id="line2d_97">
      <g>
       <use xlink:href="#mc247424a7e" x="390.474375" y="96.960638" style="stroke: #000000; stroke-width: 0.5"/>
      </g>
     </g>
    </g>
    <g id="ytick_16">
     <g id="line2d_98">
      <g>
       <use xlink:href="#m1c2f934965" x="55.674375" y="84.262519" style="stroke: #000000; stroke-width: 0.5"/>
      </g>
     </g>
     <g id="line2d_99">
      <g>
       <use xlink:href="#mc247424a7e" x="390.474375" y="84.262519" style="stroke: #000000; stroke-width: 0.5"/>
      </g>
     </g>
    </g>
    <g id="ytick_17">
     <g id="line2d_100">
      <g>
       <use xlink:href="#m1c2f934965" x="55.674375" y="58.866283" style="stroke: #000000; stroke-width: 0.5"/>
      </g>
     </g>
     <g id="line2d_101">
      <g>
       <use xlink:href="#mc247424a7e" x="390.474375" y="58.866283" style="stroke: #000000; stroke-width: 0.5"/>
      </g>
     </g>
    </g>
    <g id="ytick_18">
     <g id="line2d_102">
      <g>
       <use xlink:href="#m1c2f934965" x="55.674375" y="46.168164" style="stroke: #000000; stroke-width: 0.5"/>
      </g>
     </g>
     <g id="line2d_103">
      <g>
       <use xlink:href="#mc247424a7e" x="390.474375" y="46.168164" style="stroke: #000000; stroke-width: 0.5"/>
      </g>
     </g>
    </g>
    <g id="ytick_19">
     <g id="line2d_104">
      <g>
       <use xlink:href="#m1c2f934965" x="55.674375" y="33.470046" style="stroke: #000000; stroke-width: 0.5"/>
      </g>
     </g>
     <g id="line2d_105">
      <g>
       <use xlink:href="#mc247424a7e" x="390.474375" y="33.470046" style="stroke: #000000; stroke-width: 0.5"/>
      </g>
     </g>
    </g>
    <g id="ytick_20">
     <g id="line2d_106">
      <g>
       <use xlink:href="#m1c2f934965" x="55.674375" y="8.073809" style="stroke: #000000; stroke-width: 0.5"/>
      </g>
     </g>
     <g id="line2d_107">
      <g>
       <use xlink:href="#mc247424a7e" x="390.474375" y="8.073809" style="stroke: #000000; stroke-width: 0.5"/>
      </g>
     </g>
    </g>
    <g id="text_13">
     <!-- Fitness -->
     <g transform="translate(12.718125 149.120625) rotate(-90) scale(0.12 -0.12)">
      <defs>
       <path id="DejaVuSans-46" d="M 628 4666 
L 3309 4666 
L 3309 4134 
L 1259 4134 
L 1259 2759 
L 3109 2759 
L 3109 2228 
L 1259 2228 
L 1259 0 
L 628 0 
L 628 4666 
z
" transform="scale(0.015625)"/>
      </defs>
      <use xlink:href="#DejaVuSans-46"/>
      <use xlink:href="#DejaVuSans-69" x="50.269531"/>
      <use xlink:href="#DejaVuSans-74" x="78.052734"/>
      <use xlink:href="#DejaVuSans-6e" x="117.261719"/>
      <use xlink:href="#DejaVuSans-65" x="180.640625"/>
      <use xlink:href="#DejaVuSans-73" x="242.164062"/>
      <use xlink:href="#DejaVuSans-73" x="294.263672"/>
     </g>
    </g>
   </g>
   <g id="line2d_108">
    <path d="M 70.892557 16.851738 
L 78.211923 16.783291 
L 79.431817 16.701296 
L 81.261659 16.701291 
L 81.871606 16.157908 
L 86.751183 16.157858 
L 87.36113 15.851218 
L 88.581025 15.851216 
L 89.190972 15.588307 
L 92.850655 15.588307 
L 93.460602 15.445404 
L 107.489387 15.342018 
L 110.539123 15.290105 
L 124.567908 15.184397 
L 142.256375 15.110795 
L 169.094051 15.001538 
L 172.753734 14.981189 
L 375.256193 14.940003 
L 375.256193 14.940003 
" clip-path="url(#p726c2a5c26)" style="fill: none; stroke: #000000; stroke-linecap: square"/>
   </g>
   <g id="line2d_109">
    <path d="M 70.892557 27.062605 
L 71.502504 27.181047 
L 72.112451 26.711606 
L 72.722398 26.564953 
L 73.332345 24.78277 
L 73.942293 24.373752 
L 74.55224 24.117098 
L 75.162187 27.940501 
L 75.772134 24.488871 
L 76.382081 28.055966 
L 76.992028 26.93558 
L 77.601976 24.196157 
L 78.211923 26.836455 
L 78.82187 61.852764 
L 79.431817 24.488748 
L 80.041764 25.207478 
L 80.651711 23.269049 
L 81.261659 23.582392 
L 81.871606 23.130954 
L 82.481553 22.173762 
L 83.0915 22.341293 
L 83.701447 24.650074 
L 84.311394 22.360134 
L 85.531289 21.165685 
L 86.141236 20.727185 
L 86.751183 20.633247 
L 87.36113 20.750191 
L 87.971077 21.078363 
L 88.581025 21.044813 
L 89.190972 20.728086 
L 89.800919 20.054087 
L 90.410866 20.521375 
L 91.020813 20.422523 
L 91.63076 20.619087 
L 92.240708 20.318854 
L 92.850655 19.847518 
L 93.460602 18.655543 
L 94.070549 17.800723 
L 94.680496 17.851229 
L 95.290444 17.357113 
L 95.900391 16.547346 
L 96.510338 16.600345 
L 98.340179 16.157162 
L 98.950127 16.253065 
L 99.560074 16.062162 
L 100.170021 16.161194 
L 100.779968 16.4948 
L 101.389915 16.438944 
L 102.60981 16.972141 
L 103.219757 17.100881 
L 103.829704 16.881658 
L 104.439651 16.781019 
L 106.269493 16.892787 
L 107.489387 16.201454 
L 108.099334 16.356373 
L 108.709281 16.176314 
L 110.539123 16.106053 
L 111.14907 16.267279 
L 112.368964 16.018945 
L 112.978911 16.119674 
L 113.588859 16.453286 
L 114.198806 16.364008 
L 114.808753 16.071163 
L 115.4187 16.346698 
L 116.028647 16.220324 
L 116.638594 16.232773 
L 117.248542 16.027783 
L 118.468436 16.021039 
L 119.078383 16.070784 
L 119.68833 15.732308 
L 120.298277 15.857562 
L 120.908225 15.745 
L 121.518172 15.837541 
L 122.128119 15.76258 
L 123.348013 15.767509 
L 123.95796 16.057799 
L 124.567908 15.835469 
L 125.177855 15.761201 
L 128.227591 16.005706 
L 128.837538 15.849049 
L 130.057432 15.847818 
L 130.667379 16.227644 
L 131.277326 15.719668 
L 131.887274 15.840145 
L 132.497221 241.74 
L 133.107168 16.072909 
L 133.717115 15.923507 
L 134.327062 16.190141 
L 134.937009 16.15603 
L 135.546957 15.861306 
L 136.156904 16.087019 
L 136.766851 16.062988 
L 137.376798 15.758838 
L 137.986745 15.633544 
L 138.596692 16.451696 
L 139.20664 16.302462 
L 139.816587 31.231569 
L 140.426534 15.962764 
L 142.256375 15.718167 
L 143.47627 15.858313 
L 144.696164 15.529605 
L 145.916058 15.656723 
L 146.526006 15.502178 
L 147.135953 15.562381 
L 147.7459 15.475098 
L 148.965794 15.918176 
L 149.575741 15.592128 
L 150.795636 15.660654 
L 151.405583 15.8782 
L 152.01553 15.694024 
L 152.625477 15.896996 
L 153.235424 15.804955 
L 154.455319 15.847734 
L 155.065266 15.726976 
L 155.675213 15.943026 
L 156.895107 15.813427 
L 157.505055 15.808755 
L 158.115002 16.03029 
L 159.334896 15.886086 
L 159.944843 16.119529 
L 160.55479 15.879857 
L 161.774685 16.051096 
L 162.384632 15.757175 
L 162.994579 15.771744 
L 163.604526 16.178762 
L 164.214473 16.059329 
L 164.824421 15.803338 
L 165.434368 16.036414 
L 166.044315 15.876593 
L 166.654262 15.971508 
L 167.874156 15.811315 
L 169.094051 15.736455 
L 169.703998 15.986627 
L 170.313945 15.688632 
L 170.923892 15.806763 
L 172.143787 15.644675 
L 172.753734 15.837825 
L 175.193522 15.618016 
L 175.80347 15.877605 
L 177.633311 15.476302 
L 178.243258 15.633242 
L 179.463153 15.624814 
L 180.683047 15.512117 
L 181.292994 15.64925 
L 181.902941 15.397839 
L 183.732783 15.520039 
L 184.34273 15.695974 
L 184.952677 15.753323 
L 186.172571 15.57766 
L 187.392466 15.653282 
L 188.002413 15.603724 
L 188.61236 15.689598 
L 189.832254 15.529116 
L 191.052149 15.531687 
L 191.662096 15.446756 
L 192.272043 15.656021 
L 192.88199 15.572659 
L 193.491937 15.657187 
L 194.101885 15.388816 
L 194.711832 15.313303 
L 195.321779 15.465165 
L 195.931726 15.325973 
L 196.541673 15.401285 
L 197.15162 15.611351 
L 197.761568 15.637277 
L 198.371515 15.499864 
L 198.981462 15.677791 
L 199.591409 15.556478 
L 200.201356 15.689059 
L 201.421251 15.50432 
L 202.031198 15.680128 
L 202.641145 15.471532 
L 203.251092 15.641144 
L 203.861039 15.445131 
L 205.080934 15.765108 
L 205.690881 15.511235 
L 206.910775 15.425658 
L 207.520722 15.628743 
L 208.740617 15.472855 
L 209.350564 15.67618 
L 210.570458 15.743761 
L 211.180405 15.501756 
L 211.790352 15.683813 
L 213.010247 15.407175 
L 214.230141 15.421389 
L 216.059983 15.584116 
L 216.66993 15.436438 
L 217.279877 15.568477 
L 217.889824 15.485183 
L 220.93956 15.697143 
L 222.159454 15.473401 
L 222.769401 15.868978 
L 223.379349 15.57128 
L 223.989296 15.446118 
L 225.20919 15.589952 
L 225.819137 15.48689 
L 226.429084 15.565109 
L 227.648979 15.421859 
L 230.088767 15.672429 
L 230.698715 15.455037 
L 233.138503 15.428154 
L 233.74845 15.509274 
L 234.358398 15.774465 
L 234.968345 15.601459 
L 235.578292 15.570505 
L 236.188239 15.354627 
L 236.798186 15.492664 
L 237.408133 15.476842 
L 238.018081 15.591108 
L 238.628028 15.333667 
L 241.677764 15.235924 
L 242.287711 15.452824 
L 242.897658 15.286461 
L 243.507605 15.518305 
L 244.117552 15.347554 
L 245.947394 15.371384 
L 246.557341 15.286197 
L 247.167288 15.401057 
L 248.387182 15.343398 
L 250.217024 15.45869 
L 250.826971 15.179393 
L 252.656813 15.31466 
L 253.876707 15.247728 
L 254.486654 15.213043 
L 255.706548 15.419214 
L 256.926443 15.349824 
L 258.146337 15.480051 
L 259.366231 15.680721 
L 259.976179 15.744452 
L 263.025914 15.422468 
L 264.245809 15.56221 
L 264.855756 15.410903 
L 265.465703 15.553754 
L 269.125386 15.369041 
L 269.735333 15.561383 
L 270.34528 15.561352 
L 270.955228 15.728377 
L 271.565175 15.461621 
L 272.175122 15.371757 
L 274.004963 15.494801 
L 274.614911 15.48432 
L 275.224858 15.30453 
L 275.834805 15.435158 
L 276.444752 15.318311 
L 277.664646 15.626535 
L 278.884541 15.609899 
L 280.104435 15.55712 
L 282.544224 15.540846 
L 283.764118 15.405824 
L 285.59396 15.25419 
L 286.203907 15.529798 
L 286.813854 15.622589 
L 288.033748 15.250006 
L 289.253643 15.280154 
L 289.86359 15.338522 
L 291.083484 15.139255 
L 292.303378 15.276635 
L 292.913326 15.430844 
L 294.13322 15.453908 
L 294.743167 15.491782 
L 295.963061 15.367239 
L 296.573009 15.672277 
L 297.182956 15.777947 
L 297.792903 15.412678 
L 299.012797 15.489397 
L 299.622744 15.28259 
L 300.842639 15.472179 
L 301.452586 15.679595 
L 302.67248 15.774729 
L 303.282427 15.436486 
L 303.892375 15.580363 
L 304.502322 15.589506 
L 305.112269 15.42657 
L 308.771952 15.628586 
L 310.601793 15.670026 
L 311.821688 15.50651 
L 313.041582 15.707294 
L 314.261476 15.354889 
L 314.871424 15.535334 
L 316.091318 15.343674 
L 316.701265 15.489918 
L 317.311212 15.439991 
L 317.921159 15.616125 
L 318.531107 15.621939 
L 319.141054 15.464426 
L 319.751001 15.533538 
L 320.360948 15.48214 
L 320.970895 15.567283 
L 321.580842 15.78568 
L 322.19079 15.537646 
L 322.800737 15.660805 
L 323.410684 15.522903 
L 326.46042 15.665525 
L 327.680314 15.437245 
L 328.900208 15.579547 
L 329.510156 15.495817 
L 330.120103 15.834199 
L 331.949944 15.457738 
L 333.169839 15.395396 
L 334.389733 15.717092 
L 334.99968 15.69166 
L 335.609627 15.481814 
L 336.829522 15.513584 
L 338.049416 15.682995 
L 339.26931 15.349507 
L 341.099152 15.483785 
L 342.319046 15.231342 
L 344.148888 15.33393 
L 345.368782 15.332731 
L 346.588676 15.415377 
L 347.198623 15.225869 
L 350.248359 15.613946 
L 350.858306 15.445186 
L 351.468254 15.713709 
L 352.078201 15.437446 
L 352.688148 15.315332 
L 353.298095 15.326101 
L 353.908042 15.457357 
L 355.127937 15.461557 
L 355.737884 15.426925 
L 356.347831 15.524854 
L 356.957778 15.742135 
L 358.78762 15.515126 
L 359.397567 15.621268 
L 360.007514 15.461209 
L 361.227408 15.508138 
L 361.837356 15.706097 
L 363.667197 15.502733 
L 365.497039 15.661254 
L 366.106986 15.556372 
L 366.716933 15.754797 
L 368.546774 15.477648 
L 369.156722 15.535839 
L 369.766669 15.709261 
L 370.376616 15.391348 
L 371.59651 15.664263 
L 373.426352 15.426456 
L 374.036299 15.475124 
L 375.256193 15.345754 
L 375.256193 15.345754 
" clip-path="url(#p726c2a5c26)" style="fill: none; stroke-dasharray: 3.7,1.6; stroke-dashoffset: 0; stroke: #000000"/>
   </g>
   <g id="patch_3">
    <path d="M 55.674375 253.08 
L 55.674375 3.6 
" style="fill: none; stroke: #000000; stroke-width: 0.5; stroke-linejoin: miter; stroke-linecap: square"/>
   </g>
   <g id="patch_4">
    <path d="M 390.474375 253.08 
L 390.474375 3.6 
" style="fill: none; stroke: #000000; stroke-width: 0.5; stroke-linejoin: miter; stroke-linecap: square"/>
   </g>
   <g id="patch_5">
    <path d="M 55.674375 253.08 
L 390.474375 253.08 
" style="fill: none; stroke: #000000; stroke-width: 0.5; stroke-linejoin: miter; stroke-linecap: square"/>
   </g>
   <g id="patch_6">
    <path d="M 55.674375 3.6 
L 390.474375 3.6 
" style="fill: none; stroke: #000000; stroke-width: 0.5; stroke-linejoin: miter; stroke-linecap: square"/>
   </g>
   <g id="legend_1">
    <g id="patch_7">
     <path d="M 264.268125 247.08 
L 382.074375 247.08 
Q 384.474375 247.08 384.474375 244.68 
L 384.474375 193.03875 
Q 384.474375 190.63875 382.074375 190.63875 
L 264.268125 190.63875 
Q 261.868125 190.63875 261.868125 193.03875 
L 261.868125 244.68 
Q 261.868125 247.08 264.268125 247.08 
z
" style="fill: #ffffff; opacity: 0.8; stroke: #cccccc; stroke-linejoin: miter"/>
    </g>
    <g id="line2d_110">
     <path d="M 266.668125 200.356875 
L 278.668125 200.356875 
L 290.668125 200.356875 
" style="fill: none; stroke: #000000; stroke-linecap: square"/>
    </g>
    <g id="text_14">
     <!-- Max fitness -->
     <g transform="translate(300.268125 204.556875) scale(0.12 -0.12)">
      <defs>
       <path id="DejaVuSans-4d" d="M 628 4666 
L 1569 4666 
L 2759 1491 
L 3956 4666 
L 4897 4666 
L 4897 0 
L 4281 0 
L 4281 4097 
L 3078 897 
L 2444 897 
L 1241 4097 
L 1241 0 
L 628 0 
L 628 4666 
z
" transform="scale(0.015625)"/>
       <path id="DejaVuSans-78" d="M 3513 3500 
L 2247 1797 
L 3578 0 
L 2900 0 
L 1881 1375 
L 863 0 
L 184 0 
L 1544 1831 
L 300 3500 
L 978 3500 
L 1906 2253 
L 2834 3500 
L 3513 3500 
z
" transform="scale(0.015625)"/>
       <path id="DejaVuSans-20" transform="scale(0.015625)"/>
       <path id="DejaVuSans-66" d="M 2375 4863 
L 2375 4384 
L 1825 4384 
Q 1516 4384 1395 4259 
Q 1275 4134 1275 3809 
L 1275 3500 
L 2222 3500 
L 2222 3053 
L 1275 3053 
L 1275 0 
L 697 0 
L 697 3053 
L 147 3053 
L 147 3500 
L 697 3500 
L 697 3744 
Q 697 4328 969 4595 
Q 1241 4863 1831 4863 
L 2375 4863 
z
" transform="scale(0.015625)"/>
      </defs>
      <use xlink:href="#DejaVuSans-4d"/>
      <use xlink:href="#DejaVuSans-61" x="86.279297"/>
      <use xlink:href="#DejaVuSans-78" x="147.558594"/>
      <use xlink:href="#DejaVuSans-20" x="206.738281"/>
      <use xlink:href="#DejaVuSans-66" x="238.525391"/>
      <use xlink:href="#DejaVuSans-69" x="273.730469"/>
      <use xlink:href="#DejaVuSans-74" x="301.513672"/>
      <use xlink:href="#DejaVuSans-6e" x="340.722656"/>
      <use xlink:href="#DejaVuSans-65" x="404.101562"/>
      <use xlink:href="#DejaVuSans-73" x="465.625"/>
      <use xlink:href="#DejaVuSans-73" x="517.724609"/>
     </g>
    </g>
    <g id="patch_8">
     <path d="M 266.668125 222.170625 
L 290.668125 222.170625 
L 290.668125 213.770625 
L 266.668125 213.770625 
z
" style="fill: #0000ff; fill-opacity: 0.2; stroke: #0000ff; stroke-opacity: 0.2; stroke-linejoin: miter"/>
    </g>
    <g id="text_15">
     <!-- Top 90% -->
     <g transform="translate(300.268125 222.170625) scale(0.12 -0.12)">
      <defs>
       <path id="DejaVuSans-54" d="M -19 4666 
L 3928 4666 
L 3928 4134 
L 2272 4134 
L 2272 0 
L 1638 0 
L 1638 4134 
L -19 4134 
L -19 4666 
z
" transform="scale(0.015625)"/>
       <path id="DejaVuSans-70" d="M 1159 525 
L 1159 -1331 
L 581 -1331 
L 581 3500 
L 1159 3500 
L 1159 2969 
Q 1341 3281 1617 3432 
Q 1894 3584 2278 3584 
Q 2916 3584 3314 3078 
Q 3713 2572 3713 1747 
Q 3713 922 3314 415 
Q 2916 -91 2278 -91 
Q 1894 -91 1617 61 
Q 1341 213 1159 525 
z
M 3116 1747 
Q 3116 2381 2855 2742 
Q 2594 3103 2138 3103 
Q 1681 3103 1420 2742 
Q 1159 2381 1159 1747 
Q 1159 1113 1420 752 
Q 1681 391 2138 391 
Q 2594 391 2855 752 
Q 3116 1113 3116 1747 
z
" transform="scale(0.015625)"/>
       <path id="DejaVuSans-39" d="M 703 97 
L 703 672 
Q 941 559 1184 500 
Q 1428 441 1663 441 
Q 2288 441 2617 861 
Q 2947 1281 2994 2138 
Q 2813 1869 2534 1725 
Q 2256 1581 1919 1581 
Q 1219 1581 811 2004 
Q 403 2428 403 3163 
Q 403 3881 828 4315 
Q 1253 4750 1959 4750 
Q 2769 4750 3195 4129 
Q 3622 3509 3622 2328 
Q 3622 1225 3098 567 
Q 2575 -91 1691 -91 
Q 1453 -91 1209 -44 
Q 966 3 703 97 
z
M 1959 2075 
Q 2384 2075 2632 2365 
Q 2881 2656 2881 3163 
Q 2881 3666 2632 3958 
Q 2384 4250 1959 4250 
Q 1534 4250 1286 3958 
Q 1038 3666 1038 3163 
Q 1038 2656 1286 2365 
Q 1534 2075 1959 2075 
z
" transform="scale(0.015625)"/>
       <path id="DejaVuSans-25" d="M 4653 2053 
Q 4381 2053 4226 1822 
Q 4072 1591 4072 1178 
Q 4072 772 4226 539 
Q 4381 306 4653 306 
Q 4919 306 5073 539 
Q 5228 772 5228 1178 
Q 5228 1588 5073 1820 
Q 4919 2053 4653 2053 
z
M 4653 2450 
Q 5147 2450 5437 2106 
Q 5728 1763 5728 1178 
Q 5728 594 5436 251 
Q 5144 -91 4653 -91 
Q 4153 -91 3862 251 
Q 3572 594 3572 1178 
Q 3572 1766 3864 2108 
Q 4156 2450 4653 2450 
z
M 1428 4353 
Q 1159 4353 1004 4120 
Q 850 3888 850 3481 
Q 850 3069 1003 2837 
Q 1156 2606 1428 2606 
Q 1700 2606 1854 2837 
Q 2009 3069 2009 3481 
Q 2009 3884 1853 4118 
Q 1697 4353 1428 4353 
z
M 4250 4750 
L 4750 4750 
L 1831 -91 
L 1331 -91 
L 4250 4750 
z
M 1428 4750 
Q 1922 4750 2215 4408 
Q 2509 4066 2509 3481 
Q 2509 2891 2217 2550 
Q 1925 2209 1428 2209 
Q 931 2209 642 2551 
Q 353 2894 353 3481 
Q 353 4063 643 4406 
Q 934 4750 1428 4750 
z
" transform="scale(0.015625)"/>
      </defs>
      <use xlink:href="#DejaVuSans-54"/>
      <use xlink:href="#DejaVuSans-6f" x="44.083984"/>
      <use xlink:href="#DejaVuSans-70" x="105.265625"/>
      <use xlink:href="#DejaVuSans-20" x="168.742188"/>
      <use xlink:href="#DejaVuSans-39" x="200.529297"/>
      <use xlink:href="#DejaVuSans-30" x="264.152344"/>
      <use xlink:href="#DejaVuSans-25" x="327.775391"/>
     </g>
    </g>
    <g id="line2d_111">
     <path d="M 266.668125 235.584375 
L 278.668125 235.584375 
L 290.668125 235.584375 
" style="fill: none; stroke-dasharray: 3.7,1.6; stroke-dashoffset: 0; stroke: #000000"/>
    </g>
    <g id="text_16">
     <!-- Fitness mean -->
     <g transform="translate(300.268125 239.784375) scale(0.12 -0.12)">
      <defs>
       <path id="DejaVuSans-6d" d="M 3328 2828 
Q 3544 3216 3844 3400 
Q 4144 3584 4550 3584 
Q 5097 3584 5394 3201 
Q 5691 2819 5691 2113 
L 5691 0 
L 5113 0 
L 5113 2094 
Q 5113 2597 4934 2840 
Q 4756 3084 4391 3084 
Q 3944 3084 3684 2787 
Q 3425 2491 3425 1978 
L 3425 0 
L 2847 0 
L 2847 2094 
Q 2847 2600 2669 2842 
Q 2491 3084 2119 3084 
Q 1678 3084 1418 2786 
Q 1159 2488 1159 1978 
L 1159 0 
L 581 0 
L 581 3500 
L 1159 3500 
L 1159 2956 
Q 1356 3278 1631 3431 
Q 1906 3584 2284 3584 
Q 2666 3584 2933 3390 
Q 3200 3197 3328 2828 
z
" transform="scale(0.015625)"/>
      </defs>
      <use xlink:href="#DejaVuSans-46"/>
      <use xlink:href="#DejaVuSans-69" x="50.269531"/>
      <use xlink:href="#DejaVuSans-74" x="78.052734"/>
      <use xlink:href="#DejaVuSans-6e" x="117.261719"/>
      <use xlink:href="#DejaVuSans-65" x="180.640625"/>
      <use xlink:href="#DejaVuSans-73" x="242.164062"/>
      <use xlink:href="#DejaVuSans-73" x="294.263672"/>
      <use xlink:href="#DejaVuSans-20" x="346.363281"/>
      <use xlink:href="#DejaVuSans-6d" x="378.150391"/>
      <use xlink:href="#DejaVuSans-65" x="475.5625"/>
      <use xlink:href="#DejaVuSans-61" x="537.085938"/>
      <use xlink:href="#DejaVuSans-6e" x="598.365234"/>
     </g>
    </g>
   </g>
  </g>
 </g>
 <defs>
  <clipPath id="p726c2a5c26">
   <rect x="55.674375" y="3.6" width="334.8" height="249.48"/>
  </clipPath>
 </defs>
</svg>
