<?xml version="1.0" encoding="utf-8" standalone="no"?>
<!DOCTYPE svg PUBLIC "-//W3C//DTD SVG 1.1//EN"
  "http://www.w3.org/Graphics/SVG/1.1/DTD/svg11.dtd">
<svg xmlns:xlink="http://www.w3.org/1999/xlink" width="386.439375pt" height="287.4075pt" viewBox="0 0 386.439375 287.4075" xmlns="http://www.w3.org/2000/svg" version="1.1">
 <metadata>
  <rdf:RDF xmlns:dc="http://purl.org/dc/elements/1.1/" xmlns:cc="http://creativecommons.org/ns#" xmlns:rdf="http://www.w3.org/1999/02/22-rdf-syntax-ns#">
   <cc:Work>
    <dc:type rdf:resource="http://purl.org/dc/dcmitype/StillImage"/>
    <dc:date>2024-06-25T10:21:23.275350</dc:date>
    <dc:format>image/svg+xml</dc:format>
    <dc:creator>
     <cc:Agent>
      <dc:title>Matplotlib v3.9.0, https://matplotlib.org/</dc:title>
     </cc:Agent>
    </dc:creator>
   </cc:Work>
  </rdf:RDF>
 </metadata>
 <defs>
  <style type="text/css">*{stroke-linejoin: round; stroke-linecap: butt}</style>
 </defs>
 <g id="figure_1">
  <g id="patch_1">
   <path d="M 0 287.4075 
L 386.439375 287.4075 
L 386.439375 0 
L 0 0 
z
" style="fill: #ffffff"/>
  </g>
  <g id="axes_1">
   <g id="patch_2">
    <path d="M 48.039375 253.08 
L 382.839375 253.08 
L 382.839375 3.6 
L 48.039375 3.6 
z
" style="fill: #ffffff"/>
   </g>
   <g id="PolyCollection_1">
    <defs>
     <path id="mc69be472c8" d="M 63.257557 -248.341594 
L 63.257557 -67.092943 
L 63.867504 -45.6675 
L 64.477451 -63.063501 
L 65.087398 -81.421705 
L 65.697345 -97.607914 
L 66.307293 -101.607086 
L 66.91724 -84.265556 
L 67.527187 -101.281608 
L 68.137134 -93.952152 
L 68.747081 -99.256577 
L 69.357028 -104.513703 
L 69.966976 -112.445123 
L 70.576923 -95.934565 
L 71.18687 -103.095438 
L 71.796817 -117.149163 
L 72.406764 -92.602224 
L 73.016711 -114.540299 
L 73.626659 -116.411886 
L 74.236606 -124.307716 
L 74.846553 -136.430789 
L 75.4565 -136.657254 
L 76.066447 -136.810364 
L 76.676394 -132.618859 
L 77.286342 -145.626269 
L 77.896289 -149.429666 
L 78.506236 -150.571571 
L 79.116183 -152.946334 
L 79.72613 -150.99168 
L 80.336077 -150.99168 
L 80.946025 -147.92131 
L 81.555972 -150.077101 
L 82.165919 -152.114444 
L 82.775866 -151.869791 
L 83.385813 -148.604091 
L 83.99576 -148.176079 
L 84.605708 -149.680165 
L 85.215655 -149.440041 
L 85.825602 -156.540844 
L 86.435549 -187.101591 
L 87.045496 -157.581699 
L 87.655444 -160.780585 
L 88.265391 -242.913616 
L 88.875338 -242.913618 
L 89.485285 -250.635954 
L 90.095232 -253.478823 
L 90.705179 -253.548782 
L 91.315127 -253.038228 
L 91.925074 -253.763712 
L 92.535021 -252.934157 
L 93.144968 -249.147052 
L 93.754915 -247.230243 
L 94.364862 -247.723131 
L 94.97481 -206.290321 
L 95.584757 -196.544828 
L 96.194704 -202.536963 
L 96.804651 -214.305447 
L 97.414598 -228.100968 
L 98.024545 -211.05776 
L 98.634493 -210.804283 
L 99.24444 -229.528382 
L 99.854387 -252.112242 
L 100.464334 -250.074119 
L 101.074281 -250.074109 
L 101.684228 -251.246 
L 102.294176 -252.960519 
L 102.904123 -251.135565 
L 103.51407 -249.975081 
L 104.124017 -250.643099 
L 104.733964 -251.851946 
L 105.343911 -251.186461 
L 105.953859 -252.062628 
L 106.563806 -250.605696 
L 107.173753 -251.765187 
L 107.7837 -248.751345 
L 108.393647 -251.131545 
L 109.003594 -250.763889 
L 109.613542 -253.419533 
L 110.223489 -252.745247 
L 110.833436 -252.745247 
L 111.443383 -255.121441 
L 112.05333 -256.992681 
L 112.663277 -257.657381 
L 113.273225 -259.253122 
L 113.883172 -258.538529 
L 114.493119 -258.290821 
L 115.103066 -258.288519 
L 115.713013 -257.726893 
L 116.32296 -254.018249 
L 116.932908 -257.1599 
L 117.542855 -259.205069 
L 118.152802 -259.220826 
L 118.762749 -255.593467 
L 119.372696 -258.623753 
L 119.982643 -257.734685 
L 120.592591 -248.565875 
L 121.202538 -255.540038 
L 121.812485 -255.485974 
L 122.422432 -256.064989 
L 123.032379 -252.726382 
L 123.642326 -258.113642 
L 124.252274 -258.149342 
L 124.862221 -256.965148 
L 125.472168 -256.59757 
L 126.082115 -255.552011 
L 126.692062 -253.672509 
L 127.302009 -254.302187 
L 127.911957 -255.552013 
L 128.521904 -254.550334 
L 129.131851 -253.597491 
L 129.741798 -256.992587 
L 130.351745 -257.8518 
L 130.961692 -254.470231 
L 131.57164 -212.667954 
L 132.181587 -247.826189 
L 132.791534 -253.562972 
L 133.401481 -255.666826 
L 134.011428 -259.067665 
L 134.621375 -257.274691 
L 135.231323 -256.163151 
L 135.84127 -256.500139 
L 136.451217 -257.839995 
L 137.061164 -259.649578 
L 137.671111 -260.829506 
L 138.281058 -258.969566 
L 138.891006 -259.781 
L 139.500953 -258.394757 
L 140.1109 -259.254175 
L 140.720847 -255.966978 
L 141.330794 -255.966982 
L 141.940741 -256.132844 
L 142.550689 -258.468842 
L 143.160636 -255.077365 
L 143.770583 -254.688764 
L 144.38053 -255.544385 
L 144.990477 -251.311274 
L 145.600424 -251.713651 
L 146.210372 -251.21536 
L 146.820319 -251.215329 
L 147.430266 -256.396818 
L 148.040213 -221.253004 
L 148.65016 -248.407215 
L 149.260107 -251.597155 
L 149.870055 -251.4538 
L 150.480002 -241.346351 
L 151.089949 -246.010998 
L 151.699896 -248.25164 
L 152.309843 -220.077048 
L 152.91979 -247.779255 
L 153.529738 -245.194117 
L 154.139685 -220.163091 
L 154.749632 -254.097529 
L 155.359579 -255.070513 
L 155.969526 -220.077521 
L 156.579473 -220.095201 
L 157.189421 -255.242881 
L 157.799368 -245.178676 
L 158.409315 -254.563262 
L 159.019262 -252.629476 
L 159.629209 -255.136482 
L 160.239156 -255.975235 
L 160.849104 -256.034645 
L 161.459051 -255.506773 
L 162.068998 -253.567568 
L 162.678945 -255.374045 
L 163.288892 -253.407062 
L 163.898839 -253.306342 
L 164.508787 -253.538844 
L 165.118734 -251.08536 
L 165.728681 -249.132589 
L 166.338628 -257.776877 
L 166.948575 -252.745411 
L 167.558522 -256.110714 
L 168.16847 -255.500704 
L 168.778417 -257.395001 
L 169.388364 -257.588936 
L 169.998311 -258.339508 
L 170.608258 -257.298901 
L 171.218205 -257.725124 
L 171.828153 -258.207722 
L 172.4381 -258.627909 
L 173.048047 -259.658642 
L 173.657994 -257.930685 
L 174.267941 -259.817724 
L 174.877888 -259.790199 
L 175.487836 -258.832308 
L 176.097783 -257.844922 
L 176.70773 -256.751028 
L 177.317677 -255.487832 
L 177.927624 -256.347544 
L 178.537571 -255.881638 
L 179.147519 -255.881608 
L 179.757466 -256.862152 
L 180.367413 -257.199989 
L 180.97736 -255.49333 
L 181.587307 -255.493331 
L 182.197254 -255.493333 
L 182.807202 -254.459709 
L 183.417149 -254.73417 
L 184.027096 -256.018285 
L 184.637043 -254.821351 
L 185.24699 -255.432274 
L 185.856937 -252.429645 
L 186.466885 -261.213447 
L 187.076832 -262.36785 
L 187.686779 -261.516306 
L 188.296726 -261.159759 
L 188.906673 -261.068823 
L 189.51662 -258.35923 
L 190.126568 -255.664996 
L 190.736515 -257.806324 
L 191.346462 -256.962003 
L 191.956409 -258.359221 
L 192.566356 -256.451169 
L 193.176303 -257.987537 
L 193.786251 -257.725955 
L 194.396198 -257.148345 
L 195.006145 -259.320549 
L 195.616092 -259.854941 
L 196.226039 -259.850719 
L 196.835986 -259.32055 
L 197.445934 -259.759413 
L 198.055881 -261.555124 
L 198.665828 -261.555123 
L 199.275775 -260.801464 
L 199.885722 -258.382236 
L 200.495669 -260.942237 
L 201.105617 -262.08925 
L 201.715564 -257.435292 
L 202.325511 -256.420652 
L 202.935458 -256.235302 
L 203.545405 -257.726891 
L 204.155352 -257.590942 
L 204.7653 -258.374659 
L 205.375247 -260.514551 
L 205.985194 -260.120351 
L 206.595141 -259.692333 
L 207.205088 -257.698922 
L 207.815035 -257.759101 
L 208.424983 -257.724218 
L 209.03493 -259.732003 
L 209.644877 -257.457685 
L 210.254824 -257.438477 
L 210.864771 -257.762587 
L 211.474718 -258.687559 
L 212.084666 -257.762574 
L 212.694613 -257.762578 
L 213.30456 -257.762557 
L 213.914507 -257.605624 
L 214.524454 -258.029818 
L 215.134401 -254.292216 
L 215.744349 -257.958641 
L 216.354296 -260.581804 
L 216.964243 -258.197463 
L 217.57419 -258.831161 
L 218.184137 -259.957154 
L 218.794084 -257.594704 
L 219.404032 -259.387782 
L 220.013979 -261.295971 
L 220.623926 -259.612441 
L 221.233873 -259.984296 
L 221.84382 -256.817068 
L 222.453767 -255.140526 
L 223.063715 -257.944809 
L 223.673662 -257.791613 
L 224.283609 -257.972829 
L 224.893556 -258.13064 
L 225.503503 -257.457661 
L 226.11345 -257.286498 
L 226.723398 -256.328034 
L 227.333345 -256.587588 
L 227.943292 -257.258619 
L 228.553239 -259.564684 
L 229.163186 -258.374267 
L 229.773133 -259.564684 
L 230.383081 -258.466035 
L 230.993028 -259.56468 
L 231.602975 -260.28782 
L 232.212922 -261.853824 
L 232.822869 -265.522955 
L 233.432816 -265.522955 
L 234.042764 -263.976641 
L 234.652711 -262.626715 
L 235.262658 -262.713686 
L 235.872605 -261.739303 
L 236.482552 -261.860116 
L 237.092499 -260.810482 
L 237.702447 -259.699851 
L 238.312394 -259.699873 
L 238.922341 -260.278874 
L 239.532288 -259.636673 
L 240.142235 -261.170892 
L 240.752182 -261.210641 
L 241.36213 -260.536138 
L 241.972077 -260.536099 
L 242.582024 -262.831993 
L 243.191971 -264.813429 
L 243.801918 -265.572817 
L 244.411865 -266.480048 
L 245.021813 -265.849642 
L 245.63176 -264.652606 
L 246.241707 -264.652606 
L 246.851654 -263.987991 
L 247.461601 -265.029065 
L 248.071548 -263.244035 
L 248.681496 -262.269612 
L 249.291443 -261.482563 
L 249.90139 -258.589448 
L 250.511337 -260.03382 
L 251.121284 -258.338756 
L 251.731231 -257.929754 
L 252.341179 -257.770852 
L 252.951126 -258.283165 
L 253.561073 -256.620548 
L 254.17102 -258.399664 
L 254.780967 -261.949442 
L 255.390914 -259.780343 
L 256.000862 -259.527906 
L 256.610809 -258.360084 
L 257.220756 -258.889397 
L 257.830703 -258.013505 
L 258.44065 -257.837684 
L 259.050597 -257.56973 
L 259.660545 -258.338116 
L 260.270492 -259.131509 
L 260.880439 -258.418498 
L 261.490386 -259.197201 
L 262.100333 -259.127104 
L 262.71028 -258.134255 
L 263.320228 -257.397787 
L 263.930175 -258.569336 
L 264.540122 -259.618872 
L 265.150069 -259.400939 
L 265.760016 -259.400938 
L 266.369963 -259.39192 
L 266.979911 -259.587472 
L 267.589858 -260.189723 
L 268.199805 -259.672963 
L 268.809752 -261.04615 
L 269.419699 -259.476264 
L 270.029646 -258.043815 
L 270.639594 -258.662088 
L 271.249541 -258.662089 
L 271.859488 -258.935551 
L 272.469435 -258.471671 
L 273.079382 -258.447402 
L 273.689329 -259.347839 
L 274.299277 -259.269693 
L 274.909224 -259.517267 
L 275.519171 -258.027468 
L 276.129118 -259.100093 
L 276.739065 -259.512626 
L 277.349012 -259.587879 
L 277.95896 -260.629288 
L 278.568907 -262.223895 
L 279.178854 -260.551565 
L 279.788801 -261.443304 
L 280.398748 -262.628829 
L 281.008695 -264.131066 
L 281.618643 -264.238947 
L 282.22859 -260.935215 
L 282.838537 -260.894415 
L 283.448484 -264.238953 
L 284.058431 -263.512448 
L 284.668378 -260.682029 
L 285.278326 -259.432892 
L 285.888273 -259.432849 
L 286.49822 -259.929538 
L 287.108167 -258.599916 
L 287.718114 -258.82613 
L 288.328061 -259.102407 
L 288.938009 -256.390454 
L 289.547956 -253.798215 
L 290.157903 -258.599919 
L 290.76785 -259.661924 
L 291.377797 -259.508316 
L 291.987744 -261.275188 
L 292.597692 -261.051952 
L 293.207639 -260.898988 
L 293.817586 -256.943444 
L 294.427533 -257.887205 
L 295.03748 -256.281029 
L 295.647427 -259.707122 
L 296.257375 -258.867985 
L 296.867322 -256.107285 
L 297.477269 -259.194352 
L 298.087216 -258.319725 
L 298.697163 -257.33098 
L 299.30711 -257.147782 
L 299.917058 -256.725095 
L 300.527005 -256.875176 
L 301.136952 -256.754376 
L 301.746899 -255.296601 
L 302.356846 -258.088016 
L 302.966793 -257.465217 
L 303.576741 -257.519459 
L 304.186688 -257.687579 
L 304.796635 -257.519547 
L 305.406582 -255.897064 
L 306.016529 -258.692048 
L 306.626476 -260.324085 
L 307.236424 -258.110329 
L 307.846371 -258.692044 
L 308.456318 -259.424704 
L 309.066265 -258.611128 
L 309.676212 -258.985878 
L 310.286159 -257.86957 
L 310.896107 -259.164303 
L 311.506054 -259.930389 
L 312.116001 -259.734076 
L 312.725948 -260.641072 
L 313.335895 -259.47117 
L 313.945842 -256.327531 
L 314.55579 -259.164303 
L 315.165737 -259.164303 
L 315.775684 -259.164304 
L 316.385631 -259.010973 
L 316.995578 -258.303658 
L 317.605525 -258.506453 
L 318.215473 -256.990064 
L 318.82542 -256.350491 
L 319.435367 -257.909866 
L 320.045314 -259.164303 
L 320.655261 -258.678824 
L 321.265208 -257.205032 
L 321.875156 -257.191588 
L 322.485103 -257.002965 
L 323.09505 -257.205012 
L 323.704997 -259.631418 
L 324.314944 -257.946436 
L 324.924891 -258.490025 
L 325.534839 -259.080638 
L 326.144786 -258.490024 
L 326.754733 -256.697794 
L 327.36468 -256.209155 
L 327.974627 -258.490024 
L 328.584574 -258.426853 
L 329.194522 -258.812611 
L 329.804469 -257.990798 
L 330.414416 -258.965673 
L 331.024363 -260.411628 
L 331.63431 -260.583338 
L 332.244257 -258.468274 
L 332.854205 -258.468303 
L 333.464152 -258.716947 
L 334.074099 -260.657906 
L 334.684046 -261.015333 
L 335.293993 -260.872819 
L 335.90394 -260.553086 
L 336.513888 -261.024448 
L 337.123835 -260.916586 
L 337.733782 -259.95057 
L 338.343729 -259.758395 
L 338.953676 -259.950548 
L 339.563623 -261.001223 
L 340.173571 -261.49682 
L 340.783518 -260.304584 
L 341.393465 -257.85538 
L 342.003412 -257.818722 
L 342.613359 -258.052539 
L 343.223306 -257.992867 
L 343.833254 -257.467117 
L 344.443201 -258.043495 
L 345.053148 -258.937775 
L 345.663095 -258.237472 
L 346.273042 -258.917323 
L 346.88299 -259.639754 
L 347.492937 -259.003169 
L 348.102884 -260.069959 
L 348.712831 -258.925928 
L 349.322778 -256.973204 
L 349.932725 -256.973207 
L 350.542673 -258.239187 
L 351.15262 -259.197144 
L 351.762567 -258.49933 
L 352.372514 -259.574643 
L 352.982461 -260.471651 
L 353.592408 -259.544105 
L 354.202356 -258.574082 
L 354.812303 -258.565126 
L 355.42225 -260.251196 
L 356.032197 -259.006509 
L 356.642144 -258.214878 
L 357.252091 -256.893294 
L 357.862039 -256.893317 
L 358.471986 -258.195668 
L 359.081933 -254.955289 
L 359.69188 -258.133926 
L 360.301827 -258.300897 
L 360.911774 -258.300892 
L 361.521722 -258.300894 
L 362.131669 -258.003964 
L 362.741616 -258.344505 
L 363.351563 -258.300882 
L 363.96151 -258.300885 
L 364.571457 -258.885609 
L 365.181405 -258.885605 
L 365.791352 -258.885601 
L 366.401299 -258.475878 
L 367.011246 -259.45464 
L 367.621193 -260.012083 
L 367.621193 -272.467467 
L 367.621193 -272.467467 
L 367.011246 -272.467472 
L 366.401299 -272.467475 
L 365.791352 -272.467484 
L 365.181405 -272.467475 
L 364.571457 -272.46748 
L 363.96151 -272.467471 
L 363.351563 -272.467467 
L 362.741616 -272.467482 
L 362.131669 -272.467474 
L 361.521722 -272.467475 
L 360.911774 -272.467463 
L 360.301827 -272.467475 
L 359.69188 -272.467465 
L 359.081933 -272.467465 
L 358.471986 -272.467465 
L 357.862039 -272.467462 
L 357.252091 -272.467467 
L 356.642144 -272.467469 
L 356.032197 -272.467466 
L 355.42225 -272.467475 
L 354.812303 -272.467464 
L 354.202356 -272.467472 
L 353.592408 -272.467473 
L 352.982461 -272.46747 
L 352.372514 -272.467482 
L 351.762567 -272.467479 
L 351.15262 -272.467474 
L 350.542673 -272.467466 
L 349.932725 -272.467469 
L 349.322778 -272.467466 
L 348.712831 -272.467471 
L 348.102884 -272.467468 
L 347.492937 -272.467484 
L 346.88299 -272.467467 
L 346.273042 -272.467483 
L 345.663095 -272.467488 
L 345.053148 -272.467481 
L 344.443201 -272.467468 
L 343.833254 -272.467467 
L 343.223306 -272.467473 
L 342.613359 -272.467479 
L 342.003412 -272.4675 
L 341.393465 -272.467467 
L 340.783518 -272.467472 
L 340.173571 -272.46747 
L 339.563623 -272.467477 
L 338.953676 -272.467474 
L 338.343729 -272.467468 
L 337.733782 -272.467463 
L 337.123835 -272.467466 
L 336.513888 -272.467485 
L 335.90394 -272.467471 
L 335.293993 -272.467472 
L 334.684046 -272.467467 
L 334.074099 -272.467475 
L 333.464152 -272.467484 
L 332.854205 -272.467465 
L 332.244257 -272.467469 
L 331.63431 -272.46747 
L 331.024363 -272.467466 
L 330.414416 -272.467473 
L 329.804469 -272.467469 
L 329.194522 -272.467468 
L 328.584574 -272.467466 
L 327.974627 -272.467465 
L 327.36468 -272.467469 
L 326.754733 -272.467475 
L 326.144786 -272.467472 
L 325.534839 -272.467482 
L 324.924891 -272.467469 
L 324.314944 -272.467473 
L 323.704997 -272.46747 
L 323.09505 -272.467474 
L 322.485103 -272.467482 
L 321.875156 -272.467465 
L 321.265208 -272.467461 
L 320.655261 -272.467466 
L 320.045314 -272.467465 
L 319.435367 -272.467474 
L 318.82542 -272.467463 
L 318.215473 -272.467466 
L 317.605525 -272.467466 
L 316.995578 -272.467451 
L 316.385631 -272.467444 
L 315.775684 -272.467464 
L 315.165737 -272.467457 
L 314.55579 -272.467453 
L 313.945842 -272.467442 
L 313.335895 -272.467421 
L 312.725948 -272.467442 
L 312.116001 -272.467442 
L 311.506054 -272.467386 
L 310.896107 -272.466745 
L 310.286159 -272.466747 
L 309.676212 -272.466764 
L 309.066265 -272.46675 
L 308.456318 -272.466747 
L 307.846371 -272.466758 
L 307.236424 -272.466758 
L 306.626476 -272.466756 
L 306.016529 -272.466764 
L 305.406582 -272.46676 
L 304.796635 -272.466747 
L 304.186688 -272.466747 
L 303.576741 -272.46675 
L 302.966793 -272.466754 
L 302.356846 -272.466756 
L 301.746899 -272.466756 
L 301.136952 -272.466756 
L 300.527005 -272.466763 
L 299.917058 -272.466751 
L 299.30711 -272.466762 
L 298.697163 -272.466744 
L 298.087216 -272.466748 
L 297.477269 -272.466744 
L 296.867322 -272.466746 
L 296.257375 -272.466748 
L 295.647427 -272.466747 
L 295.03748 -272.466752 
L 294.427533 -272.46676 
L 293.817586 -272.466755 
L 293.207639 -272.466749 
L 292.597692 -272.466755 
L 291.987744 -272.466748 
L 291.377797 -272.466765 
L 290.76785 -272.466744 
L 290.157903 -272.466752 
L 289.547956 -272.466759 
L 288.938009 -272.466747 
L 288.328061 -272.466753 
L 287.718114 -272.46676 
L 287.108167 -272.466748 
L 286.49822 -272.466759 
L 285.888273 -272.466745 
L 285.278326 -272.466751 
L 284.668378 -272.466752 
L 284.058431 -272.466753 
L 283.448484 -272.466748 
L 282.838537 -272.466752 
L 282.22859 -272.466747 
L 281.618643 -272.466746 
L 281.008695 -272.466756 
L 280.398748 -272.466752 
L 279.788801 -272.466747 
L 279.178854 -272.466747 
L 278.568907 -272.46675 
L 277.95896 -272.466763 
L 277.349012 -272.466755 
L 276.739065 -272.466804 
L 276.129118 -272.46674 
L 275.519171 -272.466746 
L 274.909224 -272.466756 
L 274.299277 -272.466759 
L 273.689329 -272.466749 
L 273.079382 -272.466749 
L 272.469435 -272.466748 
L 271.859488 -272.466765 
L 271.249541 -272.46675 
L 270.639594 -272.466754 
L 270.029646 -272.466743 
L 269.419699 -272.466751 
L 268.809752 -272.466745 
L 268.199805 -272.466749 
L 267.589858 -272.466748 
L 266.979911 -272.466726 
L 266.369963 -272.466717 
L 265.760016 -272.466723 
L 265.150069 -272.466719 
L 264.540122 -272.46671 
L 263.930175 -272.466693 
L 263.320228 -272.444708 
L 262.71028 -272.444709 
L 262.100333 -272.444703 
L 261.490386 -272.444673 
L 260.880439 -272.444693 
L 260.270492 -272.436678 
L 259.660545 -272.43668 
L 259.050597 -272.436678 
L 258.44065 -272.436677 
L 257.830703 -272.436678 
L 257.220756 -272.436674 
L 256.610809 -272.436675 
L 256.000862 -272.356477 
L 255.390914 -272.35647 
L 254.780967 -272.356474 
L 254.17102 -272.356477 
L 253.561073 -272.356477 
L 252.951126 -272.356475 
L 252.341179 -272.35647 
L 251.731231 -272.356474 
L 251.121284 -272.356476 
L 250.511337 -272.356474 
L 249.90139 -272.356471 
L 249.291443 -272.356476 
L 248.681496 -272.356475 
L 248.071548 -272.356477 
L 247.461601 -272.356474 
L 246.851654 -272.356473 
L 246.241707 -272.356475 
L 245.63176 -272.356472 
L 245.021813 -272.35647 
L 244.411865 -272.356474 
L 243.801918 -272.35647 
L 243.191971 -272.356462 
L 242.582024 -272.35645 
L 241.972077 -272.356468 
L 241.36213 -272.356428 
L 240.752182 -272.356471 
L 240.142235 -272.356447 
L 239.532288 -272.271534 
L 238.922341 -272.271511 
L 238.312394 -272.271551 
L 237.702447 -272.167468 
L 237.092499 -272.167468 
L 236.482552 -272.167468 
L 235.872605 -272.167468 
L 235.262658 -272.167468 
L 234.652711 -272.167468 
L 234.042764 -272.167468 
L 233.432816 -272.167468 
L 232.822869 -272.167468 
L 232.212922 -272.167468 
L 231.602975 -272.167468 
L 230.993028 -272.167468 
L 230.383081 -272.167468 
L 229.773133 -272.167468 
L 229.163186 -272.167468 
L 228.553239 -272.167468 
L 227.943292 -272.167469 
L 227.333345 -272.167468 
L 226.723398 -272.167468 
L 226.11345 -272.167468 
L 225.503503 -272.167468 
L 224.893556 -272.167472 
L 224.283609 -272.167468 
L 223.673662 -272.167469 
L 223.063715 -272.167468 
L 222.453767 -272.167468 
L 221.84382 -272.167468 
L 221.233873 -272.167468 
L 220.623926 -272.167468 
L 220.013979 -272.167468 
L 219.404032 -272.167468 
L 218.794084 -272.167468 
L 218.184137 -272.167468 
L 217.57419 -272.167468 
L 216.964243 -272.167468 
L 216.354296 -272.167468 
L 215.744349 -272.167467 
L 215.134401 -272.167468 
L 214.524454 -272.167468 
L 213.914507 -272.167467 
L 213.30456 -272.153263 
L 212.694613 -272.153263 
L 212.084666 -272.153263 
L 211.474718 -272.153263 
L 210.864771 -272.153263 
L 210.254824 -272.153264 
L 209.644877 -272.153263 
L 209.03493 -272.153263 
L 208.424983 -272.153263 
L 207.815035 -272.153263 
L 207.205088 -272.153263 
L 206.595141 -272.153264 
L 205.985194 -272.153263 
L 205.375247 -272.153263 
L 204.7653 -272.153263 
L 204.155352 -272.153263 
L 203.545405 -272.153263 
L 202.935458 -272.153263 
L 202.325511 -272.153263 
L 201.715564 -272.153263 
L 201.105617 -272.153263 
L 200.495669 -272.153263 
L 199.885722 -272.153263 
L 199.275775 -272.153263 
L 198.665828 -272.153263 
L 198.055881 -272.153262 
L 197.445934 -272.153263 
L 196.835986 -272.153263 
L 196.226039 -272.153263 
L 195.616092 -272.153261 
L 195.006145 -272.135008 
L 194.396198 -272.135008 
L 193.786251 -272.135008 
L 193.176303 -272.135008 
L 192.566356 -272.135008 
L 191.956409 -272.135009 
L 191.346462 -272.135008 
L 190.736515 -272.135008 
L 190.126568 -272.135008 
L 189.51662 -272.135008 
L 188.906673 -272.135008 
L 188.296726 -272.135008 
L 187.686779 -272.135009 
L 187.076832 -272.135008 
L 186.466885 -272.135008 
L 185.856937 -272.135008 
L 185.24699 -272.135008 
L 184.637043 -272.135008 
L 184.027096 -272.135008 
L 183.417149 -272.135008 
L 182.807202 -272.135008 
L 182.197254 -272.135008 
L 181.587307 -272.135008 
L 180.97736 -272.135008 
L 180.367413 -272.135008 
L 179.757466 -272.135008 
L 179.147519 -272.135008 
L 178.537571 -272.135008 
L 177.927624 -272.135007 
L 177.317677 -272.135007 
L 176.70773 -272.090342 
L 176.097783 -272.090342 
L 175.487836 -272.090343 
L 174.877888 -272.090343 
L 174.267941 -272.090342 
L 173.657994 -272.090342 
L 173.048047 -272.090343 
L 172.4381 -272.090342 
L 171.828153 -272.090343 
L 171.218205 -272.090343 
L 170.608258 -272.090342 
L 169.998311 -272.090342 
L 169.388364 -272.090343 
L 168.778417 -272.090342 
L 168.16847 -272.090341 
L 167.558522 -272.090341 
L 166.948575 -271.947737 
L 166.338628 -271.947749 
L 165.728681 -271.94775 
L 165.118734 -271.947704 
L 164.508787 -271.942201 
L 163.898839 -271.942205 
L 163.288892 -271.942215 
L 162.678945 -271.942211 
L 162.068998 -271.942212 
L 161.459051 -271.690894 
L 160.849104 -271.690885 
L 160.239156 -271.690875 
L 159.629209 -271.651392 
L 159.019262 -271.651396 
L 158.409315 -271.651367 
L 157.799368 -271.651351 
L 157.189421 -271.651372 
L 156.579473 -271.607208 
L 155.969526 -271.607206 
L 155.359579 -271.607205 
L 154.749632 -271.514075 
L 154.139685 -271.514075 
L 153.529738 -271.514075 
L 152.91979 -271.514075 
L 152.309843 -271.514075 
L 151.699896 -271.514075 
L 151.089949 -271.514075 
L 150.480002 -271.514075 
L 149.870055 -271.514075 
L 149.260107 -271.514075 
L 148.65016 -271.514075 
L 148.040213 -271.514075 
L 147.430266 -271.514074 
L 146.820319 -271.514075 
L 146.210372 -271.514075 
L 145.600424 -271.514075 
L 144.990477 -271.514075 
L 144.38053 -271.514074 
L 143.770583 -271.514074 
L 143.160636 -271.514074 
L 142.550689 -271.514074 
L 141.940741 -271.514074 
L 141.330794 -271.514074 
L 140.720847 -271.269118 
L 140.1109 -271.269119 
L 139.500953 -271.129869 
L 138.891006 -271.129869 
L 138.281058 -271.129869 
L 137.671111 -271.129869 
L 137.061164 -270.401811 
L 136.451217 -270.401784 
L 135.84127 -270.401792 
L 135.231323 -270.312109 
L 134.621375 -270.312089 
L 134.011428 -270.312112 
L 133.401481 -270.312104 
L 132.791534 -270.312111 
L 132.181587 -270.115681 
L 131.57164 -270.115658 
L 130.961692 -270.115682 
L 130.351745 -269.97674 
L 129.741798 -269.87175 
L 129.131851 -269.837554 
L 128.521904 -269.837552 
L 127.911957 -269.837555 
L 127.302009 -269.837556 
L 126.692062 -269.802412 
L 126.082115 -269.802415 
L 125.472168 -269.802416 
L 124.862221 -269.802418 
L 124.252274 -269.673883 
L 123.642326 -269.67389 
L 123.032379 -269.673886 
L 122.422432 -269.67389 
L 121.812485 -269.61898 
L 121.202538 -269.61898 
L 120.592591 -269.618977 
L 119.982643 -269.618979 
L 119.372696 -269.462565 
L 118.762749 -269.462563 
L 118.152802 -269.462561 
L 117.542855 -269.462565 
L 116.932908 -269.383237 
L 116.32296 -269.079866 
L 115.713013 -269.079861 
L 115.103066 -269.079866 
L 114.493119 -269.07986 
L 113.883172 -268.861183 
L 113.273225 -268.861183 
L 112.663277 -268.861183 
L 112.05333 -268.861183 
L 111.443383 -268.861182 
L 110.833436 -268.861181 
L 110.223489 -268.861181 
L 109.613542 -268.143551 
L 109.003594 -268.143546 
L 108.393647 -268.143545 
L 107.7837 -268.143547 
L 107.173753 -268.143547 
L 106.563806 -268.143543 
L 105.953859 -268.143544 
L 105.343911 -268.04921 
L 104.733964 -268.049208 
L 104.124017 -268.049211 
L 103.51407 -268.049211 
L 102.904123 -268.04921 
L 102.294176 -268.049206 
L 101.684228 -268.049209 
L 101.074281 -268.049202 
L 100.464334 -267.744962 
L 99.854387 -267.394075 
L 99.24444 -267.394077 
L 98.634493 -267.394078 
L 98.024545 -267.394073 
L 97.414598 -267.394076 
L 96.804651 -267.394078 
L 96.194704 -267.394067 
L 95.584757 -267.394073 
L 94.97481 -267.394077 
L 94.364862 -267.394073 
L 93.754915 -267.394066 
L 93.144968 -266.089631 
L 92.535021 -266.089364 
L 91.925074 -266.089638 
L 91.315127 -266.089631 
L 90.705179 -266.08886 
L 90.095232 -266.089777 
L 89.485285 -266.08955 
L 88.875338 -266.089506 
L 88.265391 -266.08967 
L 87.655444 -266.089009 
L 87.045496 -266.089214 
L 86.435549 -266.088863 
L 85.825602 -266.089366 
L 85.215655 -264.285946 
L 84.605708 -264.28594 
L 83.99576 -264.285943 
L 83.385813 -264.285946 
L 82.775866 -264.285942 
L 82.165919 -264.285944 
L 81.555972 -264.28594 
L 80.946025 -260.968053 
L 80.336077 -260.96805 
L 79.72613 -260.968039 
L 79.116183 -257.098267 
L 78.506236 -257.098249 
L 77.896289 -257.097886 
L 77.286342 -257.097827 
L 76.676394 -257.098126 
L 76.066447 -257.097862 
L 75.4565 -257.09778 
L 74.846553 -257.098039 
L 74.236606 -257.097648 
L 73.626659 -250.240213 
L 73.016711 -250.240183 
L 72.406764 -250.24013 
L 71.796817 -250.240146 
L 71.18687 -250.240154 
L 70.576923 -249.20538 
L 69.966976 -249.205368 
L 69.357028 -249.205401 
L 68.747081 -249.205355 
L 68.137134 -249.205448 
L 67.527187 -249.205363 
L 66.91724 -249.205208 
L 66.307293 -248.341629 
L 65.697345 -248.341633 
L 65.087398 -248.34161 
L 64.477451 -248.341624 
L 63.867504 -248.341637 
L 63.257557 -248.341594 
z
" style="stroke: #0000ff; stroke-opacity: 0.2"/>
    </defs>
    <g clip-path="url(#p43a06d84c0)">
     <use xlink:href="#mc69be472c8" x="0" y="287.4075" style="fill: #0000ff; fill-opacity: 0.2; stroke: #0000ff; stroke-opacity: 0.2"/>
    </g>
   </g>
   <g id="matplotlib.axis_1">
    <g id="xtick_1">
     <g id="line2d_1">
      <path d="M 63.257557 253.08 
L 63.257557 3.6 
" clip-path="url(#p43a06d84c0)" style="fill: none; stroke: #b0b0b0; stroke-width: 0.5; stroke-linecap: square"/>
     </g>
     <g id="line2d_2">
      <defs>
       <path id="mcce19f1659" d="M 0 0 
L 0 -3 
" style="stroke: #000000; stroke-width: 0.5"/>
      </defs>
      <g>
       <use xlink:href="#mcce19f1659" x="63.257557" y="253.08" style="stroke: #000000; stroke-width: 0.5"/>
      </g>
     </g>
     <g id="line2d_3">
      <defs>
       <path id="m433dbf85d9" d="M 0 0 
L 0 3 
" style="stroke: #000000; stroke-width: 0.5"/>
      </defs>
      <g>
       <use xlink:href="#m433dbf85d9" x="63.257557" y="3.6" style="stroke: #000000; stroke-width: 0.5"/>
      </g>
     </g>
     <g id="text_1">
      <!-- 0 -->
      <g transform="translate(59.440057 265.698125) scale(0.12 -0.12)">
       <defs>
        <path id="DejaVuSans-30" d="M 2034 4250 
Q 1547 4250 1301 3770 
Q 1056 3291 1056 2328 
Q 1056 1369 1301 889 
Q 1547 409 2034 409 
Q 2525 409 2770 889 
Q 3016 1369 3016 2328 
Q 3016 3291 2770 3770 
Q 2525 4250 2034 4250 
z
M 2034 4750 
Q 2819 4750 3233 4129 
Q 3647 3509 3647 2328 
Q 3647 1150 3233 529 
Q 2819 -91 2034 -91 
Q 1250 -91 836 529 
Q 422 1150 422 2328 
Q 422 3509 836 4129 
Q 1250 4750 2034 4750 
z
" transform="scale(0.015625)"/>
       </defs>
       <use xlink:href="#DejaVuSans-30"/>
      </g>
     </g>
    </g>
    <g id="xtick_2">
     <g id="line2d_4">
      <path d="M 124.252274 253.08 
L 124.252274 3.6 
" clip-path="url(#p43a06d84c0)" style="fill: none; stroke: #b0b0b0; stroke-width: 0.5; stroke-linecap: square"/>
     </g>
     <g id="line2d_5">
      <g>
       <use xlink:href="#mcce19f1659" x="124.252274" y="253.08" style="stroke: #000000; stroke-width: 0.5"/>
      </g>
     </g>
     <g id="line2d_6">
      <g>
       <use xlink:href="#m433dbf85d9" x="124.252274" y="3.6" style="stroke: #000000; stroke-width: 0.5"/>
      </g>
     </g>
     <g id="text_2">
      <!-- 100 -->
      <g transform="translate(112.799774 265.698125) scale(0.12 -0.12)">
       <defs>
        <path id="DejaVuSans-31" d="M 794 531 
L 1825 531 
L 1825 4091 
L 703 3866 
L 703 4441 
L 1819 4666 
L 2450 4666 
L 2450 531 
L 3481 531 
L 3481 0 
L 794 0 
L 794 531 
z
" transform="scale(0.015625)"/>
       </defs>
       <use xlink:href="#DejaVuSans-31"/>
       <use xlink:href="#DejaVuSans-30" x="63.623047"/>
       <use xlink:href="#DejaVuSans-30" x="127.246094"/>
      </g>
     </g>
    </g>
    <g id="xtick_3">
     <g id="line2d_7">
      <path d="M 185.24699 253.08 
L 185.24699 3.6 
" clip-path="url(#p43a06d84c0)" style="fill: none; stroke: #b0b0b0; stroke-width: 0.5; stroke-linecap: square"/>
     </g>
     <g id="line2d_8">
      <g>
       <use xlink:href="#mcce19f1659" x="185.24699" y="253.08" style="stroke: #000000; stroke-width: 0.5"/>
      </g>
     </g>
     <g id="line2d_9">
      <g>
       <use xlink:href="#m433dbf85d9" x="185.24699" y="3.6" style="stroke: #000000; stroke-width: 0.5"/>
      </g>
     </g>
     <g id="text_3">
      <!-- 200 -->
      <g transform="translate(173.79449 265.698125) scale(0.12 -0.12)">
       <defs>
        <path id="DejaVuSans-32" d="M 1228 531 
L 3431 531 
L 3431 0 
L 469 0 
L 469 531 
Q 828 903 1448 1529 
Q 2069 2156 2228 2338 
Q 2531 2678 2651 2914 
Q 2772 3150 2772 3378 
Q 2772 3750 2511 3984 
Q 2250 4219 1831 4219 
Q 1534 4219 1204 4116 
Q 875 4013 500 3803 
L 500 4441 
Q 881 4594 1212 4672 
Q 1544 4750 1819 4750 
Q 2544 4750 2975 4387 
Q 3406 4025 3406 3419 
Q 3406 3131 3298 2873 
Q 3191 2616 2906 2266 
Q 2828 2175 2409 1742 
Q 1991 1309 1228 531 
z
" transform="scale(0.015625)"/>
       </defs>
       <use xlink:href="#DejaVuSans-32"/>
       <use xlink:href="#DejaVuSans-30" x="63.623047"/>
       <use xlink:href="#DejaVuSans-30" x="127.246094"/>
      </g>
     </g>
    </g>
    <g id="xtick_4">
     <g id="line2d_10">
      <path d="M 246.241707 253.08 
L 246.241707 3.6 
" clip-path="url(#p43a06d84c0)" style="fill: none; stroke: #b0b0b0; stroke-width: 0.5; stroke-linecap: square"/>
     </g>
     <g id="line2d_11">
      <g>
       <use xlink:href="#mcce19f1659" x="246.241707" y="253.08" style="stroke: #000000; stroke-width: 0.5"/>
      </g>
     </g>
     <g id="line2d_12">
      <g>
       <use xlink:href="#m433dbf85d9" x="246.241707" y="3.6" style="stroke: #000000; stroke-width: 0.5"/>
      </g>
     </g>
     <g id="text_4">
      <!-- 300 -->
      <g transform="translate(234.789207 265.698125) scale(0.12 -0.12)">
       <defs>
        <path id="DejaVuSans-33" d="M 2597 2516 
Q 3050 2419 3304 2112 
Q 3559 1806 3559 1356 
Q 3559 666 3084 287 
Q 2609 -91 1734 -91 
Q 1441 -91 1130 -33 
Q 819 25 488 141 
L 488 750 
Q 750 597 1062 519 
Q 1375 441 1716 441 
Q 2309 441 2620 675 
Q 2931 909 2931 1356 
Q 2931 1769 2642 2001 
Q 2353 2234 1838 2234 
L 1294 2234 
L 1294 2753 
L 1863 2753 
Q 2328 2753 2575 2939 
Q 2822 3125 2822 3475 
Q 2822 3834 2567 4026 
Q 2313 4219 1838 4219 
Q 1578 4219 1281 4162 
Q 984 4106 628 3988 
L 628 4550 
Q 988 4650 1302 4700 
Q 1616 4750 1894 4750 
Q 2613 4750 3031 4423 
Q 3450 4097 3450 3541 
Q 3450 3153 3228 2886 
Q 3006 2619 2597 2516 
z
" transform="scale(0.015625)"/>
       </defs>
       <use xlink:href="#DejaVuSans-33"/>
       <use xlink:href="#DejaVuSans-30" x="63.623047"/>
       <use xlink:href="#DejaVuSans-30" x="127.246094"/>
      </g>
     </g>
    </g>
    <g id="xtick_5">
     <g id="line2d_13">
      <path d="M 307.236424 253.08 
L 307.236424 3.6 
" clip-path="url(#p43a06d84c0)" style="fill: none; stroke: #b0b0b0; stroke-width: 0.5; stroke-linecap: square"/>
     </g>
     <g id="line2d_14">
      <g>
       <use xlink:href="#mcce19f1659" x="307.236424" y="253.08" style="stroke: #000000; stroke-width: 0.5"/>
      </g>
     </g>
     <g id="line2d_15">
      <g>
       <use xlink:href="#m433dbf85d9" x="307.236424" y="3.6" style="stroke: #000000; stroke-width: 0.5"/>
      </g>
     </g>
     <g id="text_5">
      <!-- 400 -->
      <g transform="translate(295.783924 265.698125) scale(0.12 -0.12)">
       <defs>
        <path id="DejaVuSans-34" d="M 2419 4116 
L 825 1625 
L 2419 1625 
L 2419 4116 
z
M 2253 4666 
L 3047 4666 
L 3047 1625 
L 3713 1625 
L 3713 1100 
L 3047 1100 
L 3047 0 
L 2419 0 
L 2419 1100 
L 313 1100 
L 313 1709 
L 2253 4666 
z
" transform="scale(0.015625)"/>
       </defs>
       <use xlink:href="#DejaVuSans-34"/>
       <use xlink:href="#DejaVuSans-30" x="63.623047"/>
       <use xlink:href="#DejaVuSans-30" x="127.246094"/>
      </g>
     </g>
    </g>
    <g id="xtick_6">
     <g id="line2d_16">
      <path d="M 368.23114 253.08 
L 368.23114 3.6 
" clip-path="url(#p43a06d84c0)" style="fill: none; stroke: #b0b0b0; stroke-width: 0.5; stroke-linecap: square"/>
     </g>
     <g id="line2d_17">
      <g>
       <use xlink:href="#mcce19f1659" x="368.23114" y="253.08" style="stroke: #000000; stroke-width: 0.5"/>
      </g>
     </g>
     <g id="line2d_18">
      <g>
       <use xlink:href="#m433dbf85d9" x="368.23114" y="3.6" style="stroke: #000000; stroke-width: 0.5"/>
      </g>
     </g>
     <g id="text_6">
      <!-- 500 -->
      <g transform="translate(356.77864 265.698125) scale(0.12 -0.12)">
       <defs>
        <path id="DejaVuSans-35" d="M 691 4666 
L 3169 4666 
L 3169 4134 
L 1269 4134 
L 1269 2991 
Q 1406 3038 1543 3061 
Q 1681 3084 1819 3084 
Q 2600 3084 3056 2656 
Q 3513 2228 3513 1497 
Q 3513 744 3044 326 
Q 2575 -91 1722 -91 
Q 1428 -91 1123 -41 
Q 819 9 494 109 
L 494 744 
Q 775 591 1075 516 
Q 1375 441 1709 441 
Q 2250 441 2565 725 
Q 2881 1009 2881 1497 
Q 2881 1984 2565 2268 
Q 2250 2553 1709 2553 
Q 1456 2553 1204 2497 
Q 953 2441 691 2322 
L 691 4666 
z
" transform="scale(0.015625)"/>
       </defs>
       <use xlink:href="#DejaVuSans-35"/>
       <use xlink:href="#DejaVuSans-30" x="63.623047"/>
       <use xlink:href="#DejaVuSans-30" x="127.246094"/>
      </g>
     </g>
    </g>
    <g id="xtick_7">
     <g id="line2d_19">
      <defs>
       <path id="ma091b49b46" d="M 0 0 
L 0 -1.5 
" style="stroke: #000000; stroke-width: 0.5"/>
      </defs>
      <g>
       <use xlink:href="#ma091b49b46" x="51.058613" y="253.08" style="stroke: #000000; stroke-width: 0.5"/>
      </g>
     </g>
     <g id="line2d_20">
      <defs>
       <path id="mc6cc4cc353" d="M 0 0 
L 0 1.5 
" style="stroke: #000000; stroke-width: 0.5"/>
      </defs>
      <g>
       <use xlink:href="#mc6cc4cc353" x="51.058613" y="3.6" style="stroke: #000000; stroke-width: 0.5"/>
      </g>
     </g>
    </g>
    <g id="xtick_8">
     <g id="line2d_21">
      <g>
       <use xlink:href="#ma091b49b46" x="75.4565" y="253.08" style="stroke: #000000; stroke-width: 0.5"/>
      </g>
     </g>
     <g id="line2d_22">
      <g>
       <use xlink:href="#mc6cc4cc353" x="75.4565" y="3.6" style="stroke: #000000; stroke-width: 0.5"/>
      </g>
     </g>
    </g>
    <g id="xtick_9">
     <g id="line2d_23">
      <g>
       <use xlink:href="#ma091b49b46" x="87.655444" y="253.08" style="stroke: #000000; stroke-width: 0.5"/>
      </g>
     </g>
     <g id="line2d_24">
      <g>
       <use xlink:href="#mc6cc4cc353" x="87.655444" y="3.6" style="stroke: #000000; stroke-width: 0.5"/>
      </g>
     </g>
    </g>
    <g id="xtick_10">
     <g id="line2d_25">
      <g>
       <use xlink:href="#ma091b49b46" x="99.854387" y="253.08" style="stroke: #000000; stroke-width: 0.5"/>
      </g>
     </g>
     <g id="line2d_26">
      <g>
       <use xlink:href="#mc6cc4cc353" x="99.854387" y="3.6" style="stroke: #000000; stroke-width: 0.5"/>
      </g>
     </g>
    </g>
    <g id="xtick_11">
     <g id="line2d_27">
      <g>
       <use xlink:href="#ma091b49b46" x="112.05333" y="253.08" style="stroke: #000000; stroke-width: 0.5"/>
      </g>
     </g>
     <g id="line2d_28">
      <g>
       <use xlink:href="#mc6cc4cc353" x="112.05333" y="3.6" style="stroke: #000000; stroke-width: 0.5"/>
      </g>
     </g>
    </g>
    <g id="xtick_12">
     <g id="line2d_29">
      <g>
       <use xlink:href="#ma091b49b46" x="136.451217" y="253.08" style="stroke: #000000; stroke-width: 0.5"/>
      </g>
     </g>
     <g id="line2d_30">
      <g>
       <use xlink:href="#mc6cc4cc353" x="136.451217" y="3.6" style="stroke: #000000; stroke-width: 0.5"/>
      </g>
     </g>
    </g>
    <g id="xtick_13">
     <g id="line2d_31">
      <g>
       <use xlink:href="#ma091b49b46" x="148.65016" y="253.08" style="stroke: #000000; stroke-width: 0.5"/>
      </g>
     </g>
     <g id="line2d_32">
      <g>
       <use xlink:href="#mc6cc4cc353" x="148.65016" y="3.6" style="stroke: #000000; stroke-width: 0.5"/>
      </g>
     </g>
    </g>
    <g id="xtick_14">
     <g id="line2d_33">
      <g>
       <use xlink:href="#ma091b49b46" x="160.849104" y="253.08" style="stroke: #000000; stroke-width: 0.5"/>
      </g>
     </g>
     <g id="line2d_34">
      <g>
       <use xlink:href="#mc6cc4cc353" x="160.849104" y="3.6" style="stroke: #000000; stroke-width: 0.5"/>
      </g>
     </g>
    </g>
    <g id="xtick_15">
     <g id="line2d_35">
      <g>
       <use xlink:href="#ma091b49b46" x="173.048047" y="253.08" style="stroke: #000000; stroke-width: 0.5"/>
      </g>
     </g>
     <g id="line2d_36">
      <g>
       <use xlink:href="#mc6cc4cc353" x="173.048047" y="3.6" style="stroke: #000000; stroke-width: 0.5"/>
      </g>
     </g>
    </g>
    <g id="xtick_16">
     <g id="line2d_37">
      <g>
       <use xlink:href="#ma091b49b46" x="197.445934" y="253.08" style="stroke: #000000; stroke-width: 0.5"/>
      </g>
     </g>
     <g id="line2d_38">
      <g>
       <use xlink:href="#mc6cc4cc353" x="197.445934" y="3.6" style="stroke: #000000; stroke-width: 0.5"/>
      </g>
     </g>
    </g>
    <g id="xtick_17">
     <g id="line2d_39">
      <g>
       <use xlink:href="#ma091b49b46" x="209.644877" y="253.08" style="stroke: #000000; stroke-width: 0.5"/>
      </g>
     </g>
     <g id="line2d_40">
      <g>
       <use xlink:href="#mc6cc4cc353" x="209.644877" y="3.6" style="stroke: #000000; stroke-width: 0.5"/>
      </g>
     </g>
    </g>
    <g id="xtick_18">
     <g id="line2d_41">
      <g>
       <use xlink:href="#ma091b49b46" x="221.84382" y="253.08" style="stroke: #000000; stroke-width: 0.5"/>
      </g>
     </g>
     <g id="line2d_42">
      <g>
       <use xlink:href="#mc6cc4cc353" x="221.84382" y="3.6" style="stroke: #000000; stroke-width: 0.5"/>
      </g>
     </g>
    </g>
    <g id="xtick_19">
     <g id="line2d_43">
      <g>
       <use xlink:href="#ma091b49b46" x="234.042764" y="253.08" style="stroke: #000000; stroke-width: 0.5"/>
      </g>
     </g>
     <g id="line2d_44">
      <g>
       <use xlink:href="#mc6cc4cc353" x="234.042764" y="3.6" style="stroke: #000000; stroke-width: 0.5"/>
      </g>
     </g>
    </g>
    <g id="xtick_20">
     <g id="line2d_45">
      <g>
       <use xlink:href="#ma091b49b46" x="258.44065" y="253.08" style="stroke: #000000; stroke-width: 0.5"/>
      </g>
     </g>
     <g id="line2d_46">
      <g>
       <use xlink:href="#mc6cc4cc353" x="258.44065" y="3.6" style="stroke: #000000; stroke-width: 0.5"/>
      </g>
     </g>
    </g>
    <g id="xtick_21">
     <g id="line2d_47">
      <g>
       <use xlink:href="#ma091b49b46" x="270.639594" y="253.08" style="stroke: #000000; stroke-width: 0.5"/>
      </g>
     </g>
     <g id="line2d_48">
      <g>
       <use xlink:href="#mc6cc4cc353" x="270.639594" y="3.6" style="stroke: #000000; stroke-width: 0.5"/>
      </g>
     </g>
    </g>
    <g id="xtick_22">
     <g id="line2d_49">
      <g>
       <use xlink:href="#ma091b49b46" x="282.838537" y="253.08" style="stroke: #000000; stroke-width: 0.5"/>
      </g>
     </g>
     <g id="line2d_50">
      <g>
       <use xlink:href="#mc6cc4cc353" x="282.838537" y="3.6" style="stroke: #000000; stroke-width: 0.5"/>
      </g>
     </g>
    </g>
    <g id="xtick_23">
     <g id="line2d_51">
      <g>
       <use xlink:href="#ma091b49b46" x="295.03748" y="253.08" style="stroke: #000000; stroke-width: 0.5"/>
      </g>
     </g>
     <g id="line2d_52">
      <g>
       <use xlink:href="#mc6cc4cc353" x="295.03748" y="3.6" style="stroke: #000000; stroke-width: 0.5"/>
      </g>
     </g>
    </g>
    <g id="xtick_24">
     <g id="line2d_53">
      <g>
       <use xlink:href="#ma091b49b46" x="319.435367" y="253.08" style="stroke: #000000; stroke-width: 0.5"/>
      </g>
     </g>
     <g id="line2d_54">
      <g>
       <use xlink:href="#mc6cc4cc353" x="319.435367" y="3.6" style="stroke: #000000; stroke-width: 0.5"/>
      </g>
     </g>
    </g>
    <g id="xtick_25">
     <g id="line2d_55">
      <g>
       <use xlink:href="#ma091b49b46" x="331.63431" y="253.08" style="stroke: #000000; stroke-width: 0.5"/>
      </g>
     </g>
     <g id="line2d_56">
      <g>
       <use xlink:href="#mc6cc4cc353" x="331.63431" y="3.6" style="stroke: #000000; stroke-width: 0.5"/>
      </g>
     </g>
    </g>
    <g id="xtick_26">
     <g id="line2d_57">
      <g>
       <use xlink:href="#ma091b49b46" x="343.833254" y="253.08" style="stroke: #000000; stroke-width: 0.5"/>
      </g>
     </g>
     <g id="line2d_58">
      <g>
       <use xlink:href="#mc6cc4cc353" x="343.833254" y="3.6" style="stroke: #000000; stroke-width: 0.5"/>
      </g>
     </g>
    </g>
    <g id="xtick_27">
     <g id="line2d_59">
      <g>
       <use xlink:href="#ma091b49b46" x="356.032197" y="253.08" style="stroke: #000000; stroke-width: 0.5"/>
      </g>
     </g>
     <g id="line2d_60">
      <g>
       <use xlink:href="#mc6cc4cc353" x="356.032197" y="3.6" style="stroke: #000000; stroke-width: 0.5"/>
      </g>
     </g>
    </g>
    <g id="xtick_28">
     <g id="line2d_61">
      <g>
       <use xlink:href="#ma091b49b46" x="380.430084" y="253.08" style="stroke: #000000; stroke-width: 0.5"/>
      </g>
     </g>
     <g id="line2d_62">
      <g>
       <use xlink:href="#mc6cc4cc353" x="380.430084" y="3.6" style="stroke: #000000; stroke-width: 0.5"/>
      </g>
     </g>
    </g>
    <g id="text_7">
     <!-- Generations -->
     <g transform="translate(178.842188 281.311875) scale(0.12 -0.12)">
      <defs>
       <path id="DejaVuSans-47" d="M 3809 666 
L 3809 1919 
L 2778 1919 
L 2778 2438 
L 4434 2438 
L 4434 434 
Q 4069 175 3628 42 
Q 3188 -91 2688 -91 
Q 1594 -91 976 548 
Q 359 1188 359 2328 
Q 359 3472 976 4111 
Q 1594 4750 2688 4750 
Q 3144 4750 3555 4637 
Q 3966 4525 4313 4306 
L 4313 3634 
Q 3963 3931 3569 4081 
Q 3175 4231 2741 4231 
Q 1884 4231 1454 3753 
Q 1025 3275 1025 2328 
Q 1025 1384 1454 906 
Q 1884 428 2741 428 
Q 3075 428 3337 486 
Q 3600 544 3809 666 
z
" transform="scale(0.015625)"/>
       <path id="DejaVuSans-65" d="M 3597 1894 
L 3597 1613 
L 953 1613 
Q 991 1019 1311 708 
Q 1631 397 2203 397 
Q 2534 397 2845 478 
Q 3156 559 3463 722 
L 3463 178 
Q 3153 47 2828 -22 
Q 2503 -91 2169 -91 
Q 1331 -91 842 396 
Q 353 884 353 1716 
Q 353 2575 817 3079 
Q 1281 3584 2069 3584 
Q 2775 3584 3186 3129 
Q 3597 2675 3597 1894 
z
M 3022 2063 
Q 3016 2534 2758 2815 
Q 2500 3097 2075 3097 
Q 1594 3097 1305 2825 
Q 1016 2553 972 2059 
L 3022 2063 
z
" transform="scale(0.015625)"/>
       <path id="DejaVuSans-6e" d="M 3513 2113 
L 3513 0 
L 2938 0 
L 2938 2094 
Q 2938 2591 2744 2837 
Q 2550 3084 2163 3084 
Q 1697 3084 1428 2787 
Q 1159 2491 1159 1978 
L 1159 0 
L 581 0 
L 581 3500 
L 1159 3500 
L 1159 2956 
Q 1366 3272 1645 3428 
Q 1925 3584 2291 3584 
Q 2894 3584 3203 3211 
Q 3513 2838 3513 2113 
z
" transform="scale(0.015625)"/>
       <path id="DejaVuSans-72" d="M 2631 2963 
Q 2534 3019 2420 3045 
Q 2306 3072 2169 3072 
Q 1681 3072 1420 2755 
Q 1159 2438 1159 1844 
L 1159 0 
L 581 0 
L 581 3500 
L 1159 3500 
L 1159 2956 
Q 1341 3275 1631 3429 
Q 1922 3584 2338 3584 
Q 2397 3584 2469 3576 
Q 2541 3569 2628 3553 
L 2631 2963 
z
" transform="scale(0.015625)"/>
       <path id="DejaVuSans-61" d="M 2194 1759 
Q 1497 1759 1228 1600 
Q 959 1441 959 1056 
Q 959 750 1161 570 
Q 1363 391 1709 391 
Q 2188 391 2477 730 
Q 2766 1069 2766 1631 
L 2766 1759 
L 2194 1759 
z
M 3341 1997 
L 3341 0 
L 2766 0 
L 2766 531 
Q 2569 213 2275 61 
Q 1981 -91 1556 -91 
Q 1019 -91 701 211 
Q 384 513 384 1019 
Q 384 1609 779 1909 
Q 1175 2209 1959 2209 
L 2766 2209 
L 2766 2266 
Q 2766 2663 2505 2880 
Q 2244 3097 1772 3097 
Q 1472 3097 1187 3025 
Q 903 2953 641 2809 
L 641 3341 
Q 956 3463 1253 3523 
Q 1550 3584 1831 3584 
Q 2591 3584 2966 3190 
Q 3341 2797 3341 1997 
z
" transform="scale(0.015625)"/>
       <path id="DejaVuSans-74" d="M 1172 4494 
L 1172 3500 
L 2356 3500 
L 2356 3053 
L 1172 3053 
L 1172 1153 
Q 1172 725 1289 603 
Q 1406 481 1766 481 
L 2356 481 
L 2356 0 
L 1766 0 
Q 1100 0 847 248 
Q 594 497 594 1153 
L 594 3053 
L 172 3053 
L 172 3500 
L 594 3500 
L 594 4494 
L 1172 4494 
z
" transform="scale(0.015625)"/>
       <path id="DejaVuSans-69" d="M 603 3500 
L 1178 3500 
L 1178 0 
L 603 0 
L 603 3500 
z
M 603 4863 
L 1178 4863 
L 1178 4134 
L 603 4134 
L 603 4863 
z
" transform="scale(0.015625)"/>
       <path id="DejaVuSans-6f" d="M 1959 3097 
Q 1497 3097 1228 2736 
Q 959 2375 959 1747 
Q 959 1119 1226 758 
Q 1494 397 1959 397 
Q 2419 397 2687 759 
Q 2956 1122 2956 1747 
Q 2956 2369 2687 2733 
Q 2419 3097 1959 3097 
z
M 1959 3584 
Q 2709 3584 3137 3096 
Q 3566 2609 3566 1747 
Q 3566 888 3137 398 
Q 2709 -91 1959 -91 
Q 1206 -91 779 398 
Q 353 888 353 1747 
Q 353 2609 779 3096 
Q 1206 3584 1959 3584 
z
" transform="scale(0.015625)"/>
       <path id="DejaVuSans-73" d="M 2834 3397 
L 2834 2853 
Q 2591 2978 2328 3040 
Q 2066 3103 1784 3103 
Q 1356 3103 1142 2972 
Q 928 2841 928 2578 
Q 928 2378 1081 2264 
Q 1234 2150 1697 2047 
L 1894 2003 
Q 2506 1872 2764 1633 
Q 3022 1394 3022 966 
Q 3022 478 2636 193 
Q 2250 -91 1575 -91 
Q 1294 -91 989 -36 
Q 684 19 347 128 
L 347 722 
Q 666 556 975 473 
Q 1284 391 1588 391 
Q 1994 391 2212 530 
Q 2431 669 2431 922 
Q 2431 1156 2273 1281 
Q 2116 1406 1581 1522 
L 1381 1569 
Q 847 1681 609 1914 
Q 372 2147 372 2553 
Q 372 3047 722 3315 
Q 1072 3584 1716 3584 
Q 2034 3584 2315 3537 
Q 2597 3491 2834 3397 
z
" transform="scale(0.015625)"/>
      </defs>
      <use xlink:href="#DejaVuSans-47"/>
      <use xlink:href="#DejaVuSans-65" x="77.490234"/>
      <use xlink:href="#DejaVuSans-6e" x="139.013672"/>
      <use xlink:href="#DejaVuSans-65" x="202.392578"/>
      <use xlink:href="#DejaVuSans-72" x="263.916016"/>
      <use xlink:href="#DejaVuSans-61" x="305.029297"/>
      <use xlink:href="#DejaVuSans-74" x="366.308594"/>
      <use xlink:href="#DejaVuSans-69" x="405.517578"/>
      <use xlink:href="#DejaVuSans-6f" x="433.300781"/>
      <use xlink:href="#DejaVuSans-6e" x="494.482422"/>
      <use xlink:href="#DejaVuSans-73" x="557.861328"/>
     </g>
    </g>
   </g>
   <g id="matplotlib.axis_2">
    <g id="ytick_1">
     <g id="line2d_63">
      <path d="M 48.039375 248.787029 
L 382.839375 248.787029 
" clip-path="url(#p43a06d84c0)" style="fill: none; stroke: #b0b0b0; stroke-width: 0.5; stroke-linecap: square"/>
     </g>
     <g id="line2d_64">
      <defs>
       <path id="mea4e378589" d="M 0 0 
L 3 0 
" style="stroke: #000000; stroke-width: 0.5"/>
      </defs>
      <g>
       <use xlink:href="#mea4e378589" x="48.039375" y="248.787029" style="stroke: #000000; stroke-width: 0.5"/>
      </g>
     </g>
     <g id="line2d_65">
      <defs>
       <path id="m5369c864fa" d="M 0 0 
L -3 0 
" style="stroke: #000000; stroke-width: 0.5"/>
      </defs>
      <g>
       <use xlink:href="#m5369c864fa" x="382.839375" y="248.787029" style="stroke: #000000; stroke-width: 0.5"/>
      </g>
     </g>
     <g id="text_8">
      <!-- −50 -->
      <g transform="translate(19.21375 253.346092) scale(0.12 -0.12)">
       <defs>
        <path id="DejaVuSans-2212" d="M 678 2272 
L 4684 2272 
L 4684 1741 
L 678 1741 
L 678 2272 
z
" transform="scale(0.015625)"/>
       </defs>
       <use xlink:href="#DejaVuSans-2212"/>
       <use xlink:href="#DejaVuSans-35" x="83.789062"/>
       <use xlink:href="#DejaVuSans-30" x="147.412109"/>
      </g>
     </g>
    </g>
    <g id="ytick_2">
     <g id="line2d_66">
      <path d="M 48.039375 216.737273 
L 382.839375 216.737273 
" clip-path="url(#p43a06d84c0)" style="fill: none; stroke: #b0b0b0; stroke-width: 0.5; stroke-linecap: square"/>
     </g>
     <g id="line2d_67">
      <g>
       <use xlink:href="#mea4e378589" x="48.039375" y="216.737273" style="stroke: #000000; stroke-width: 0.5"/>
      </g>
     </g>
     <g id="line2d_68">
      <g>
       <use xlink:href="#m5369c864fa" x="382.839375" y="216.737273" style="stroke: #000000; stroke-width: 0.5"/>
      </g>
     </g>
     <g id="text_9">
      <!-- −40 -->
      <g transform="translate(19.21375 221.296335) scale(0.12 -0.12)">
       <use xlink:href="#DejaVuSans-2212"/>
       <use xlink:href="#DejaVuSans-34" x="83.789062"/>
       <use xlink:href="#DejaVuSans-30" x="147.412109"/>
      </g>
     </g>
    </g>
    <g id="ytick_3">
     <g id="line2d_69">
      <path d="M 48.039375 184.687516 
L 382.839375 184.687516 
" clip-path="url(#p43a06d84c0)" style="fill: none; stroke: #b0b0b0; stroke-width: 0.5; stroke-linecap: square"/>
     </g>
     <g id="line2d_70">
      <g>
       <use xlink:href="#mea4e378589" x="48.039375" y="184.687516" style="stroke: #000000; stroke-width: 0.5"/>
      </g>
     </g>
     <g id="line2d_71">
      <g>
       <use xlink:href="#m5369c864fa" x="382.839375" y="184.687516" style="stroke: #000000; stroke-width: 0.5"/>
      </g>
     </g>
     <g id="text_10">
      <!-- −30 -->
      <g transform="translate(19.21375 189.246578) scale(0.12 -0.12)">
       <use xlink:href="#DejaVuSans-2212"/>
       <use xlink:href="#DejaVuSans-33" x="83.789062"/>
       <use xlink:href="#DejaVuSans-30" x="147.412109"/>
      </g>
     </g>
    </g>
    <g id="ytick_4">
     <g id="line2d_72">
      <path d="M 48.039375 152.637759 
L 382.839375 152.637759 
" clip-path="url(#p43a06d84c0)" style="fill: none; stroke: #b0b0b0; stroke-width: 0.5; stroke-linecap: square"/>
     </g>
     <g id="line2d_73">
      <g>
       <use xlink:href="#mea4e378589" x="48.039375" y="152.637759" style="stroke: #000000; stroke-width: 0.5"/>
      </g>
     </g>
     <g id="line2d_74">
      <g>
       <use xlink:href="#m5369c864fa" x="382.839375" y="152.637759" style="stroke: #000000; stroke-width: 0.5"/>
      </g>
     </g>
     <g id="text_11">
      <!-- −20 -->
      <g transform="translate(19.21375 157.196822) scale(0.12 -0.12)">
       <use xlink:href="#DejaVuSans-2212"/>
       <use xlink:href="#DejaVuSans-32" x="83.789062"/>
       <use xlink:href="#DejaVuSans-30" x="147.412109"/>
      </g>
     </g>
    </g>
    <g id="ytick_5">
     <g id="line2d_75">
      <path d="M 48.039375 120.588003 
L 382.839375 120.588003 
" clip-path="url(#p43a06d84c0)" style="fill: none; stroke: #b0b0b0; stroke-width: 0.5; stroke-linecap: square"/>
     </g>
     <g id="line2d_76">
      <g>
       <use xlink:href="#mea4e378589" x="48.039375" y="120.588003" style="stroke: #000000; stroke-width: 0.5"/>
      </g>
     </g>
     <g id="line2d_77">
      <g>
       <use xlink:href="#m5369c864fa" x="382.839375" y="120.588003" style="stroke: #000000; stroke-width: 0.5"/>
      </g>
     </g>
     <g id="text_12">
      <!-- −10 -->
      <g transform="translate(19.21375 125.147065) scale(0.12 -0.12)">
       <use xlink:href="#DejaVuSans-2212"/>
       <use xlink:href="#DejaVuSans-31" x="83.789062"/>
       <use xlink:href="#DejaVuSans-30" x="147.412109"/>
      </g>
     </g>
    </g>
    <g id="ytick_6">
     <g id="line2d_78">
      <path d="M 48.039375 88.538246 
L 382.839375 88.538246 
" clip-path="url(#p43a06d84c0)" style="fill: none; stroke: #b0b0b0; stroke-width: 0.5; stroke-linecap: square"/>
     </g>
     <g id="line2d_79">
      <g>
       <use xlink:href="#mea4e378589" x="48.039375" y="88.538246" style="stroke: #000000; stroke-width: 0.5"/>
      </g>
     </g>
     <g id="line2d_80">
      <g>
       <use xlink:href="#m5369c864fa" x="382.839375" y="88.538246" style="stroke: #000000; stroke-width: 0.5"/>
      </g>
     </g>
     <g id="text_13">
      <!-- 0 -->
      <g transform="translate(36.904375 93.097309) scale(0.12 -0.12)">
       <use xlink:href="#DejaVuSans-30"/>
      </g>
     </g>
    </g>
    <g id="ytick_7">
     <g id="line2d_81">
      <path d="M 48.039375 56.488489 
L 382.839375 56.488489 
" clip-path="url(#p43a06d84c0)" style="fill: none; stroke: #b0b0b0; stroke-width: 0.5; stroke-linecap: square"/>
     </g>
     <g id="line2d_82">
      <g>
       <use xlink:href="#mea4e378589" x="48.039375" y="56.488489" style="stroke: #000000; stroke-width: 0.5"/>
      </g>
     </g>
     <g id="line2d_83">
      <g>
       <use xlink:href="#m5369c864fa" x="382.839375" y="56.488489" style="stroke: #000000; stroke-width: 0.5"/>
      </g>
     </g>
     <g id="text_14">
      <!-- 10 -->
      <g transform="translate(29.269375 61.047552) scale(0.12 -0.12)">
       <use xlink:href="#DejaVuSans-31"/>
       <use xlink:href="#DejaVuSans-30" x="63.623047"/>
      </g>
     </g>
    </g>
    <g id="ytick_8">
     <g id="line2d_84">
      <path d="M 48.039375 24.438733 
L 382.839375 24.438733 
" clip-path="url(#p43a06d84c0)" style="fill: none; stroke: #b0b0b0; stroke-width: 0.5; stroke-linecap: square"/>
     </g>
     <g id="line2d_85">
      <g>
       <use xlink:href="#mea4e378589" x="48.039375" y="24.438733" style="stroke: #000000; stroke-width: 0.5"/>
      </g>
     </g>
     <g id="line2d_86">
      <g>
       <use xlink:href="#m5369c864fa" x="382.839375" y="24.438733" style="stroke: #000000; stroke-width: 0.5"/>
      </g>
     </g>
     <g id="text_15">
      <!-- 20 -->
      <g transform="translate(29.269375 28.997795) scale(0.12 -0.12)">
       <use xlink:href="#DejaVuSans-32"/>
       <use xlink:href="#DejaVuSans-30" x="63.623047"/>
      </g>
     </g>
    </g>
    <g id="ytick_9">
     <g id="line2d_87">
      <defs>
       <path id="me1c4c9cb69" d="M 0 0 
L 1.5 0 
" style="stroke: #000000; stroke-width: 0.5"/>
      </defs>
      <g>
       <use xlink:href="#me1c4c9cb69" x="48.039375" y="242.377078" style="stroke: #000000; stroke-width: 0.5"/>
      </g>
     </g>
     <g id="line2d_88">
      <defs>
       <path id="m566bd7140e" d="M 0 0 
L -1.5 0 
" style="stroke: #000000; stroke-width: 0.5"/>
      </defs>
      <g>
       <use xlink:href="#m566bd7140e" x="382.839375" y="242.377078" style="stroke: #000000; stroke-width: 0.5"/>
      </g>
     </g>
    </g>
    <g id="ytick_10">
     <g id="line2d_89">
      <g>
       <use xlink:href="#me1c4c9cb69" x="48.039375" y="235.967127" style="stroke: #000000; stroke-width: 0.5"/>
      </g>
     </g>
     <g id="line2d_90">
      <g>
       <use xlink:href="#m566bd7140e" x="382.839375" y="235.967127" style="stroke: #000000; stroke-width: 0.5"/>
      </g>
     </g>
    </g>
    <g id="ytick_11">
     <g id="line2d_91">
      <g>
       <use xlink:href="#me1c4c9cb69" x="48.039375" y="229.557175" style="stroke: #000000; stroke-width: 0.5"/>
      </g>
     </g>
     <g id="line2d_92">
      <g>
       <use xlink:href="#m566bd7140e" x="382.839375" y="229.557175" style="stroke: #000000; stroke-width: 0.5"/>
      </g>
     </g>
    </g>
    <g id="ytick_12">
     <g id="line2d_93">
      <g>
       <use xlink:href="#me1c4c9cb69" x="48.039375" y="223.147224" style="stroke: #000000; stroke-width: 0.5"/>
      </g>
     </g>
     <g id="line2d_94">
      <g>
       <use xlink:href="#m566bd7140e" x="382.839375" y="223.147224" style="stroke: #000000; stroke-width: 0.5"/>
      </g>
     </g>
    </g>
    <g id="ytick_13">
     <g id="line2d_95">
      <g>
       <use xlink:href="#me1c4c9cb69" x="48.039375" y="210.327321" style="stroke: #000000; stroke-width: 0.5"/>
      </g>
     </g>
     <g id="line2d_96">
      <g>
       <use xlink:href="#m566bd7140e" x="382.839375" y="210.327321" style="stroke: #000000; stroke-width: 0.5"/>
      </g>
     </g>
    </g>
    <g id="ytick_14">
     <g id="line2d_97">
      <g>
       <use xlink:href="#me1c4c9cb69" x="48.039375" y="203.91737" style="stroke: #000000; stroke-width: 0.5"/>
      </g>
     </g>
     <g id="line2d_98">
      <g>
       <use xlink:href="#m566bd7140e" x="382.839375" y="203.91737" style="stroke: #000000; stroke-width: 0.5"/>
      </g>
     </g>
    </g>
    <g id="ytick_15">
     <g id="line2d_99">
      <g>
       <use xlink:href="#me1c4c9cb69" x="48.039375" y="197.507419" style="stroke: #000000; stroke-width: 0.5"/>
      </g>
     </g>
     <g id="line2d_100">
      <g>
       <use xlink:href="#m566bd7140e" x="382.839375" y="197.507419" style="stroke: #000000; stroke-width: 0.5"/>
      </g>
     </g>
    </g>
    <g id="ytick_16">
     <g id="line2d_101">
      <g>
       <use xlink:href="#me1c4c9cb69" x="48.039375" y="191.097467" style="stroke: #000000; stroke-width: 0.5"/>
      </g>
     </g>
     <g id="line2d_102">
      <g>
       <use xlink:href="#m566bd7140e" x="382.839375" y="191.097467" style="stroke: #000000; stroke-width: 0.5"/>
      </g>
     </g>
    </g>
    <g id="ytick_17">
     <g id="line2d_103">
      <g>
       <use xlink:href="#me1c4c9cb69" x="48.039375" y="178.277565" style="stroke: #000000; stroke-width: 0.5"/>
      </g>
     </g>
     <g id="line2d_104">
      <g>
       <use xlink:href="#m566bd7140e" x="382.839375" y="178.277565" style="stroke: #000000; stroke-width: 0.5"/>
      </g>
     </g>
    </g>
    <g id="ytick_18">
     <g id="line2d_105">
      <g>
       <use xlink:href="#me1c4c9cb69" x="48.039375" y="171.867613" style="stroke: #000000; stroke-width: 0.5"/>
      </g>
     </g>
     <g id="line2d_106">
      <g>
       <use xlink:href="#m566bd7140e" x="382.839375" y="171.867613" style="stroke: #000000; stroke-width: 0.5"/>
      </g>
     </g>
    </g>
    <g id="ytick_19">
     <g id="line2d_107">
      <g>
       <use xlink:href="#me1c4c9cb69" x="48.039375" y="165.457662" style="stroke: #000000; stroke-width: 0.5"/>
      </g>
     </g>
     <g id="line2d_108">
      <g>
       <use xlink:href="#m566bd7140e" x="382.839375" y="165.457662" style="stroke: #000000; stroke-width: 0.5"/>
      </g>
     </g>
    </g>
    <g id="ytick_20">
     <g id="line2d_109">
      <g>
       <use xlink:href="#me1c4c9cb69" x="48.039375" y="159.047711" style="stroke: #000000; stroke-width: 0.5"/>
      </g>
     </g>
     <g id="line2d_110">
      <g>
       <use xlink:href="#m566bd7140e" x="382.839375" y="159.047711" style="stroke: #000000; stroke-width: 0.5"/>
      </g>
     </g>
    </g>
    <g id="ytick_21">
     <g id="line2d_111">
      <g>
       <use xlink:href="#me1c4c9cb69" x="48.039375" y="146.227808" style="stroke: #000000; stroke-width: 0.5"/>
      </g>
     </g>
     <g id="line2d_112">
      <g>
       <use xlink:href="#m566bd7140e" x="382.839375" y="146.227808" style="stroke: #000000; stroke-width: 0.5"/>
      </g>
     </g>
    </g>
    <g id="ytick_22">
     <g id="line2d_113">
      <g>
       <use xlink:href="#me1c4c9cb69" x="48.039375" y="139.817857" style="stroke: #000000; stroke-width: 0.5"/>
      </g>
     </g>
     <g id="line2d_114">
      <g>
       <use xlink:href="#m566bd7140e" x="382.839375" y="139.817857" style="stroke: #000000; stroke-width: 0.5"/>
      </g>
     </g>
    </g>
    <g id="ytick_23">
     <g id="line2d_115">
      <g>
       <use xlink:href="#me1c4c9cb69" x="48.039375" y="133.407905" style="stroke: #000000; stroke-width: 0.5"/>
      </g>
     </g>
     <g id="line2d_116">
      <g>
       <use xlink:href="#m566bd7140e" x="382.839375" y="133.407905" style="stroke: #000000; stroke-width: 0.5"/>
      </g>
     </g>
    </g>
    <g id="ytick_24">
     <g id="line2d_117">
      <g>
       <use xlink:href="#me1c4c9cb69" x="48.039375" y="126.997954" style="stroke: #000000; stroke-width: 0.5"/>
      </g>
     </g>
     <g id="line2d_118">
      <g>
       <use xlink:href="#m566bd7140e" x="382.839375" y="126.997954" style="stroke: #000000; stroke-width: 0.5"/>
      </g>
     </g>
    </g>
    <g id="ytick_25">
     <g id="line2d_119">
      <g>
       <use xlink:href="#me1c4c9cb69" x="48.039375" y="114.178051" style="stroke: #000000; stroke-width: 0.5"/>
      </g>
     </g>
     <g id="line2d_120">
      <g>
       <use xlink:href="#m566bd7140e" x="382.839375" y="114.178051" style="stroke: #000000; stroke-width: 0.5"/>
      </g>
     </g>
    </g>
    <g id="ytick_26">
     <g id="line2d_121">
      <g>
       <use xlink:href="#me1c4c9cb69" x="48.039375" y="107.7681" style="stroke: #000000; stroke-width: 0.5"/>
      </g>
     </g>
     <g id="line2d_122">
      <g>
       <use xlink:href="#m566bd7140e" x="382.839375" y="107.7681" style="stroke: #000000; stroke-width: 0.5"/>
      </g>
     </g>
    </g>
    <g id="ytick_27">
     <g id="line2d_123">
      <g>
       <use xlink:href="#me1c4c9cb69" x="48.039375" y="101.358149" style="stroke: #000000; stroke-width: 0.5"/>
      </g>
     </g>
     <g id="line2d_124">
      <g>
       <use xlink:href="#m566bd7140e" x="382.839375" y="101.358149" style="stroke: #000000; stroke-width: 0.5"/>
      </g>
     </g>
    </g>
    <g id="ytick_28">
     <g id="line2d_125">
      <g>
       <use xlink:href="#me1c4c9cb69" x="48.039375" y="94.948197" style="stroke: #000000; stroke-width: 0.5"/>
      </g>
     </g>
     <g id="line2d_126">
      <g>
       <use xlink:href="#m566bd7140e" x="382.839375" y="94.948197" style="stroke: #000000; stroke-width: 0.5"/>
      </g>
     </g>
    </g>
    <g id="ytick_29">
     <g id="line2d_127">
      <g>
       <use xlink:href="#me1c4c9cb69" x="48.039375" y="82.128295" style="stroke: #000000; stroke-width: 0.5"/>
      </g>
     </g>
     <g id="line2d_128">
      <g>
       <use xlink:href="#m566bd7140e" x="382.839375" y="82.128295" style="stroke: #000000; stroke-width: 0.5"/>
      </g>
     </g>
    </g>
    <g id="ytick_30">
     <g id="line2d_129">
      <g>
       <use xlink:href="#me1c4c9cb69" x="48.039375" y="75.718343" style="stroke: #000000; stroke-width: 0.5"/>
      </g>
     </g>
     <g id="line2d_130">
      <g>
       <use xlink:href="#m566bd7140e" x="382.839375" y="75.718343" style="stroke: #000000; stroke-width: 0.5"/>
      </g>
     </g>
    </g>
    <g id="ytick_31">
     <g id="line2d_131">
      <g>
       <use xlink:href="#me1c4c9cb69" x="48.039375" y="69.308392" style="stroke: #000000; stroke-width: 0.5"/>
      </g>
     </g>
     <g id="line2d_132">
      <g>
       <use xlink:href="#m566bd7140e" x="382.839375" y="69.308392" style="stroke: #000000; stroke-width: 0.5"/>
      </g>
     </g>
    </g>
    <g id="ytick_32">
     <g id="line2d_133">
      <g>
       <use xlink:href="#me1c4c9cb69" x="48.039375" y="62.898441" style="stroke: #000000; stroke-width: 0.5"/>
      </g>
     </g>
     <g id="line2d_134">
      <g>
       <use xlink:href="#m566bd7140e" x="382.839375" y="62.898441" style="stroke: #000000; stroke-width: 0.5"/>
      </g>
     </g>
    </g>
    <g id="ytick_33">
     <g id="line2d_135">
      <g>
       <use xlink:href="#me1c4c9cb69" x="48.039375" y="50.078538" style="stroke: #000000; stroke-width: 0.5"/>
      </g>
     </g>
     <g id="line2d_136">
      <g>
       <use xlink:href="#m566bd7140e" x="382.839375" y="50.078538" style="stroke: #000000; stroke-width: 0.5"/>
      </g>
     </g>
    </g>
    <g id="ytick_34">
     <g id="line2d_137">
      <g>
       <use xlink:href="#me1c4c9cb69" x="48.039375" y="43.668587" style="stroke: #000000; stroke-width: 0.5"/>
      </g>
     </g>
     <g id="line2d_138">
      <g>
       <use xlink:href="#m566bd7140e" x="382.839375" y="43.668587" style="stroke: #000000; stroke-width: 0.5"/>
      </g>
     </g>
    </g>
    <g id="ytick_35">
     <g id="line2d_139">
      <g>
       <use xlink:href="#me1c4c9cb69" x="48.039375" y="37.258635" style="stroke: #000000; stroke-width: 0.5"/>
      </g>
     </g>
     <g id="line2d_140">
      <g>
       <use xlink:href="#m566bd7140e" x="382.839375" y="37.258635" style="stroke: #000000; stroke-width: 0.5"/>
      </g>
     </g>
    </g>
    <g id="ytick_36">
     <g id="line2d_141">
      <g>
       <use xlink:href="#me1c4c9cb69" x="48.039375" y="30.848684" style="stroke: #000000; stroke-width: 0.5"/>
      </g>
     </g>
     <g id="line2d_142">
      <g>
       <use xlink:href="#m566bd7140e" x="382.839375" y="30.848684" style="stroke: #000000; stroke-width: 0.5"/>
      </g>
     </g>
    </g>
    <g id="ytick_37">
     <g id="line2d_143">
      <g>
       <use xlink:href="#me1c4c9cb69" x="48.039375" y="18.028781" style="stroke: #000000; stroke-width: 0.5"/>
      </g>
     </g>
     <g id="line2d_144">
      <g>
       <use xlink:href="#m566bd7140e" x="382.839375" y="18.028781" style="stroke: #000000; stroke-width: 0.5"/>
      </g>
     </g>
    </g>
    <g id="ytick_38">
     <g id="line2d_145">
      <g>
       <use xlink:href="#me1c4c9cb69" x="48.039375" y="11.61883" style="stroke: #000000; stroke-width: 0.5"/>
      </g>
     </g>
     <g id="line2d_146">
      <g>
       <use xlink:href="#m566bd7140e" x="382.839375" y="11.61883" style="stroke: #000000; stroke-width: 0.5"/>
      </g>
     </g>
    </g>
    <g id="ytick_39">
     <g id="line2d_147">
      <g>
       <use xlink:href="#me1c4c9cb69" x="48.039375" y="5.208879" style="stroke: #000000; stroke-width: 0.5"/>
      </g>
     </g>
     <g id="line2d_148">
      <g>
       <use xlink:href="#m566bd7140e" x="382.839375" y="5.208879" style="stroke: #000000; stroke-width: 0.5"/>
      </g>
     </g>
    </g>
    <g id="text_16">
     <!-- Fitness -->
     <g transform="translate(12.718125 149.120625) rotate(-90) scale(0.12 -0.12)">
      <defs>
       <path id="DejaVuSans-46" d="M 628 4666 
L 3309 4666 
L 3309 4134 
L 1259 4134 
L 1259 2759 
L 3109 2759 
L 3109 2228 
L 1259 2228 
L 1259 0 
L 628 0 
L 628 4666 
z
" transform="scale(0.015625)"/>
      </defs>
      <use xlink:href="#DejaVuSans-46"/>
      <use xlink:href="#DejaVuSans-69" x="50.269531"/>
      <use xlink:href="#DejaVuSans-74" x="78.052734"/>
      <use xlink:href="#DejaVuSans-6e" x="117.261719"/>
      <use xlink:href="#DejaVuSans-65" x="180.640625"/>
      <use xlink:href="#DejaVuSans-73" x="242.164062"/>
      <use xlink:href="#DejaVuSans-73" x="294.263672"/>
     </g>
    </g>
   </g>
   <g id="line2d_149">
    <path d="M 63.257557 39.065906 
L 66.307293 39.065871 
L 66.91724 38.202292 
L 70.576923 38.20212 
L 71.18687 37.167346 
L 73.626659 37.167287 
L 74.236606 30.309852 
L 79.116183 30.309233 
L 79.72613 26.439461 
L 80.946025 26.439447 
L 81.555972 23.12156 
L 85.215655 23.121554 
L 85.825602 21.318134 
L 93.144968 21.317869 
L 93.754915 20.013434 
L 99.854387 20.013425 
L 101.074281 19.358298 
L 109.613542 19.263949 
L 110.223489 18.546319 
L 113.883172 18.546317 
L 114.493119 18.32764 
L 116.32296 18.327634 
L 116.932908 18.024263 
L 118.152802 17.944939 
L 119.372696 17.944935 
L 119.982643 17.788521 
L 124.252274 17.733617 
L 124.862221 17.605082 
L 129.741798 17.53575 
L 131.57164 17.291842 
L 132.181587 17.291819 
L 132.791534 17.095389 
L 137.061164 17.005689 
L 137.671111 16.277631 
L 139.500953 16.277631 
L 140.1109 16.138381 
L 140.720847 16.138382 
L 141.330794 15.893426 
L 156.579473 15.800292 
L 158.409315 15.756133 
L 161.459051 15.716606 
L 162.068998 15.465288 
L 166.948575 15.459763 
L 167.558522 15.317159 
L 237.702447 15.240032 
L 238.922341 15.135989 
L 256.000862 15.051023 
L 257.220756 14.970826 
L 367.621193 14.940033 
L 367.621193 14.940033 
" clip-path="url(#p43a06d84c0)" style="fill: none; stroke: #000000; stroke-linecap: square"/>
   </g>
   <g id="line2d_150">
    <path d="M 63.257557 26.733563 
L 367.621193 26.733563 
L 367.621193 26.733563 
" clip-path="url(#p43a06d84c0)" style="fill: none; stroke-dasharray: 3.7,1.6; stroke-dashoffset: 0; stroke: #000000"/>
   </g>
   <g id="patch_3">
    <path d="M 48.039375 253.08 
L 48.039375 3.6 
" style="fill: none; stroke: #000000; stroke-width: 0.5; stroke-linejoin: miter; stroke-linecap: square"/>
   </g>
   <g id="patch_4">
    <path d="M 382.839375 253.08 
L 382.839375 3.6 
" style="fill: none; stroke: #000000; stroke-width: 0.5; stroke-linejoin: miter; stroke-linecap: square"/>
   </g>
   <g id="patch_5">
    <path d="M 48.039375 253.08 
L 382.839375 253.08 
" style="fill: none; stroke: #000000; stroke-width: 0.5; stroke-linejoin: miter; stroke-linecap: square"/>
   </g>
   <g id="patch_6">
    <path d="M 48.039375 3.6 
L 382.839375 3.6 
" style="fill: none; stroke: #000000; stroke-width: 0.5; stroke-linejoin: miter; stroke-linecap: square"/>
   </g>
   <g id="legend_1">
    <g id="patch_7">
     <path d="M 253.92 247.08 
L 374.439375 247.08 
Q 376.839375 247.08 376.839375 244.68 
L 376.839375 193.03875 
Q 376.839375 190.63875 374.439375 190.63875 
L 253.92 190.63875 
Q 251.52 190.63875 251.52 193.03875 
L 251.52 244.68 
Q 251.52 247.08 253.92 247.08 
z
" style="fill: #ffffff; opacity: 0.8; stroke: #cccccc; stroke-linejoin: miter"/>
    </g>
    <g id="line2d_151">
     <path d="M 256.32 200.356875 
L 268.32 200.356875 
L 280.32 200.356875 
" style="fill: none; stroke: #000000; stroke-linecap: square"/>
    </g>
    <g id="text_17">
     <!-- Best fitness -->
     <g transform="translate(289.92 204.556875) scale(0.12 -0.12)">
      <defs>
       <path id="DejaVuSans-42" d="M 1259 2228 
L 1259 519 
L 2272 519 
Q 2781 519 3026 730 
Q 3272 941 3272 1375 
Q 3272 1813 3026 2020 
Q 2781 2228 2272 2228 
L 1259 2228 
z
M 1259 4147 
L 1259 2741 
L 2194 2741 
Q 2656 2741 2882 2914 
Q 3109 3088 3109 3444 
Q 3109 3797 2882 3972 
Q 2656 4147 2194 4147 
L 1259 4147 
z
M 628 4666 
L 2241 4666 
Q 2963 4666 3353 4366 
Q 3744 4066 3744 3513 
Q 3744 3084 3544 2831 
Q 3344 2578 2956 2516 
Q 3422 2416 3680 2098 
Q 3938 1781 3938 1306 
Q 3938 681 3513 340 
Q 3088 0 2303 0 
L 628 0 
L 628 4666 
z
" transform="scale(0.015625)"/>
       <path id="DejaVuSans-20" transform="scale(0.015625)"/>
       <path id="DejaVuSans-66" d="M 2375 4863 
L 2375 4384 
L 1825 4384 
Q 1516 4384 1395 4259 
Q 1275 4134 1275 3809 
L 1275 3500 
L 2222 3500 
L 2222 3053 
L 1275 3053 
L 1275 0 
L 697 0 
L 697 3053 
L 147 3053 
L 147 3500 
L 697 3500 
L 697 3744 
Q 697 4328 969 4595 
Q 1241 4863 1831 4863 
L 2375 4863 
z
" transform="scale(0.015625)"/>
      </defs>
      <use xlink:href="#DejaVuSans-42"/>
      <use xlink:href="#DejaVuSans-65" x="68.603516"/>
      <use xlink:href="#DejaVuSans-73" x="130.126953"/>
      <use xlink:href="#DejaVuSans-74" x="182.226562"/>
      <use xlink:href="#DejaVuSans-20" x="221.435547"/>
      <use xlink:href="#DejaVuSans-66" x="253.222656"/>
      <use xlink:href="#DejaVuSans-69" x="288.427734"/>
      <use xlink:href="#DejaVuSans-74" x="316.210938"/>
      <use xlink:href="#DejaVuSans-6e" x="355.419922"/>
      <use xlink:href="#DejaVuSans-65" x="418.798828"/>
      <use xlink:href="#DejaVuSans-73" x="480.322266"/>
      <use xlink:href="#DejaVuSans-73" x="532.421875"/>
     </g>
    </g>
    <g id="patch_8">
     <path d="M 256.32 222.170625 
L 280.32 222.170625 
L 280.32 213.770625 
L 256.32 213.770625 
z
" style="fill: #0000ff; fill-opacity: 0.2; stroke: #0000ff; stroke-opacity: 0.2; stroke-linejoin: miter"/>
    </g>
    <g id="text_18">
     <!-- Top 90% -->
     <g transform="translate(289.92 222.170625) scale(0.12 -0.12)">
      <defs>
       <path id="DejaVuSans-54" d="M -19 4666 
L 3928 4666 
L 3928 4134 
L 2272 4134 
L 2272 0 
L 1638 0 
L 1638 4134 
L -19 4134 
L -19 4666 
z
" transform="scale(0.015625)"/>
       <path id="DejaVuSans-70" d="M 1159 525 
L 1159 -1331 
L 581 -1331 
L 581 3500 
L 1159 3500 
L 1159 2969 
Q 1341 3281 1617 3432 
Q 1894 3584 2278 3584 
Q 2916 3584 3314 3078 
Q 3713 2572 3713 1747 
Q 3713 922 3314 415 
Q 2916 -91 2278 -91 
Q 1894 -91 1617 61 
Q 1341 213 1159 525 
z
M 3116 1747 
Q 3116 2381 2855 2742 
Q 2594 3103 2138 3103 
Q 1681 3103 1420 2742 
Q 1159 2381 1159 1747 
Q 1159 1113 1420 752 
Q 1681 391 2138 391 
Q 2594 391 2855 752 
Q 3116 1113 3116 1747 
z
" transform="scale(0.015625)"/>
       <path id="DejaVuSans-39" d="M 703 97 
L 703 672 
Q 941 559 1184 500 
Q 1428 441 1663 441 
Q 2288 441 2617 861 
Q 2947 1281 2994 2138 
Q 2813 1869 2534 1725 
Q 2256 1581 1919 1581 
Q 1219 1581 811 2004 
Q 403 2428 403 3163 
Q 403 3881 828 4315 
Q 1253 4750 1959 4750 
Q 2769 4750 3195 4129 
Q 3622 3509 3622 2328 
Q 3622 1225 3098 567 
Q 2575 -91 1691 -91 
Q 1453 -91 1209 -44 
Q 966 3 703 97 
z
M 1959 2075 
Q 2384 2075 2632 2365 
Q 2881 2656 2881 3163 
Q 2881 3666 2632 3958 
Q 2384 4250 1959 4250 
Q 1534 4250 1286 3958 
Q 1038 3666 1038 3163 
Q 1038 2656 1286 2365 
Q 1534 2075 1959 2075 
z
" transform="scale(0.015625)"/>
       <path id="DejaVuSans-25" d="M 4653 2053 
Q 4381 2053 4226 1822 
Q 4072 1591 4072 1178 
Q 4072 772 4226 539 
Q 4381 306 4653 306 
Q 4919 306 5073 539 
Q 5228 772 5228 1178 
Q 5228 1588 5073 1820 
Q 4919 2053 4653 2053 
z
M 4653 2450 
Q 5147 2450 5437 2106 
Q 5728 1763 5728 1178 
Q 5728 594 5436 251 
Q 5144 -91 4653 -91 
Q 4153 -91 3862 251 
Q 3572 594 3572 1178 
Q 3572 1766 3864 2108 
Q 4156 2450 4653 2450 
z
M 1428 4353 
Q 1159 4353 1004 4120 
Q 850 3888 850 3481 
Q 850 3069 1003 2837 
Q 1156 2606 1428 2606 
Q 1700 2606 1854 2837 
Q 2009 3069 2009 3481 
Q 2009 3884 1853 4118 
Q 1697 4353 1428 4353 
z
M 4250 4750 
L 4750 4750 
L 1831 -91 
L 1331 -91 
L 4250 4750 
z
M 1428 4750 
Q 1922 4750 2215 4408 
Q 2509 4066 2509 3481 
Q 2509 2891 2217 2550 
Q 1925 2209 1428 2209 
Q 931 2209 642 2551 
Q 353 2894 353 3481 
Q 353 4063 643 4406 
Q 934 4750 1428 4750 
z
" transform="scale(0.015625)"/>
      </defs>
      <use xlink:href="#DejaVuSans-54"/>
      <use xlink:href="#DejaVuSans-6f" x="44.083984"/>
      <use xlink:href="#DejaVuSans-70" x="105.265625"/>
      <use xlink:href="#DejaVuSans-20" x="168.742188"/>
      <use xlink:href="#DejaVuSans-39" x="200.529297"/>
      <use xlink:href="#DejaVuSans-30" x="264.152344"/>
      <use xlink:href="#DejaVuSans-25" x="327.775391"/>
     </g>
    </g>
    <g id="line2d_152">
     <path d="M 256.32 235.584375 
L 268.32 235.584375 
L 280.32 235.584375 
" style="fill: none; stroke-dasharray: 3.7,1.6; stroke-dashoffset: 0; stroke: #000000"/>
    </g>
    <g id="text_19">
     <!-- 180mm Quad -->
     <g transform="translate(289.92 239.784375) scale(0.12 -0.12)">
      <defs>
       <path id="DejaVuSans-38" d="M 2034 2216 
Q 1584 2216 1326 1975 
Q 1069 1734 1069 1313 
Q 1069 891 1326 650 
Q 1584 409 2034 409 
Q 2484 409 2743 651 
Q 3003 894 3003 1313 
Q 3003 1734 2745 1975 
Q 2488 2216 2034 2216 
z
M 1403 2484 
Q 997 2584 770 2862 
Q 544 3141 544 3541 
Q 544 4100 942 4425 
Q 1341 4750 2034 4750 
Q 2731 4750 3128 4425 
Q 3525 4100 3525 3541 
Q 3525 3141 3298 2862 
Q 3072 2584 2669 2484 
Q 3125 2378 3379 2068 
Q 3634 1759 3634 1313 
Q 3634 634 3220 271 
Q 2806 -91 2034 -91 
Q 1263 -91 848 271 
Q 434 634 434 1313 
Q 434 1759 690 2068 
Q 947 2378 1403 2484 
z
M 1172 3481 
Q 1172 3119 1398 2916 
Q 1625 2713 2034 2713 
Q 2441 2713 2670 2916 
Q 2900 3119 2900 3481 
Q 2900 3844 2670 4047 
Q 2441 4250 2034 4250 
Q 1625 4250 1398 4047 
Q 1172 3844 1172 3481 
z
" transform="scale(0.015625)"/>
       <path id="DejaVuSans-6d" d="M 3328 2828 
Q 3544 3216 3844 3400 
Q 4144 3584 4550 3584 
Q 5097 3584 5394 3201 
Q 5691 2819 5691 2113 
L 5691 0 
L 5113 0 
L 5113 2094 
Q 5113 2597 4934 2840 
Q 4756 3084 4391 3084 
Q 3944 3084 3684 2787 
Q 3425 2491 3425 1978 
L 3425 0 
L 2847 0 
L 2847 2094 
Q 2847 2600 2669 2842 
Q 2491 3084 2119 3084 
Q 1678 3084 1418 2786 
Q 1159 2488 1159 1978 
L 1159 0 
L 581 0 
L 581 3500 
L 1159 3500 
L 1159 2956 
Q 1356 3278 1631 3431 
Q 1906 3584 2284 3584 
Q 2666 3584 2933 3390 
Q 3200 3197 3328 2828 
z
" transform="scale(0.015625)"/>
       <path id="DejaVuSans-51" d="M 2522 4238 
Q 1834 4238 1429 3725 
Q 1025 3213 1025 2328 
Q 1025 1447 1429 934 
Q 1834 422 2522 422 
Q 3209 422 3611 934 
Q 4013 1447 4013 2328 
Q 4013 3213 3611 3725 
Q 3209 4238 2522 4238 
z
M 3406 84 
L 4238 -825 
L 3475 -825 
L 2784 -78 
Q 2681 -84 2626 -87 
Q 2572 -91 2522 -91 
Q 1538 -91 948 567 
Q 359 1225 359 2328 
Q 359 3434 948 4092 
Q 1538 4750 2522 4750 
Q 3503 4750 4090 4092 
Q 4678 3434 4678 2328 
Q 4678 1516 4351 937 
Q 4025 359 3406 84 
z
" transform="scale(0.015625)"/>
       <path id="DejaVuSans-75" d="M 544 1381 
L 544 3500 
L 1119 3500 
L 1119 1403 
Q 1119 906 1312 657 
Q 1506 409 1894 409 
Q 2359 409 2629 706 
Q 2900 1003 2900 1516 
L 2900 3500 
L 3475 3500 
L 3475 0 
L 2900 0 
L 2900 538 
Q 2691 219 2414 64 
Q 2138 -91 1772 -91 
Q 1169 -91 856 284 
Q 544 659 544 1381 
z
M 1991 3584 
L 1991 3584 
z
" transform="scale(0.015625)"/>
       <path id="DejaVuSans-64" d="M 2906 2969 
L 2906 4863 
L 3481 4863 
L 3481 0 
L 2906 0 
L 2906 525 
Q 2725 213 2448 61 
Q 2172 -91 1784 -91 
Q 1150 -91 751 415 
Q 353 922 353 1747 
Q 353 2572 751 3078 
Q 1150 3584 1784 3584 
Q 2172 3584 2448 3432 
Q 2725 3281 2906 2969 
z
M 947 1747 
Q 947 1113 1208 752 
Q 1469 391 1925 391 
Q 2381 391 2643 752 
Q 2906 1113 2906 1747 
Q 2906 2381 2643 2742 
Q 2381 3103 1925 3103 
Q 1469 3103 1208 2742 
Q 947 2381 947 1747 
z
" transform="scale(0.015625)"/>
      </defs>
      <use xlink:href="#DejaVuSans-31"/>
      <use xlink:href="#DejaVuSans-38" x="63.623047"/>
      <use xlink:href="#DejaVuSans-30" x="127.246094"/>
      <use xlink:href="#DejaVuSans-6d" x="190.869141"/>
      <use xlink:href="#DejaVuSans-6d" x="288.28125"/>
      <use xlink:href="#DejaVuSans-20" x="385.693359"/>
      <use xlink:href="#DejaVuSans-51" x="417.480469"/>
      <use xlink:href="#DejaVuSans-75" x="496.191406"/>
      <use xlink:href="#DejaVuSans-61" x="559.570312"/>
      <use xlink:href="#DejaVuSans-64" x="620.849609"/>
     </g>
    </g>
   </g>
  </g>
 </g>
 <defs>
  <clipPath id="p43a06d84c0">
   <rect x="48.039375" y="3.6" width="334.8" height="249.48"/>
  </clipPath>
 </defs>
</svg>
