<?xml version="1.0" encoding="utf-8" standalone="no"?>
<!DOCTYPE svg PUBLIC "-//W3C//DTD SVG 1.1//EN"
  "http://www.w3.org/Graphics/SVG/1.1/DTD/svg11.dtd">
<svg xmlns:xlink="http://www.w3.org/1999/xlink" width="386.439375pt" height="287.4075pt" viewBox="0 0 386.439375 287.4075" xmlns="http://www.w3.org/2000/svg" version="1.1">
 <metadata>
  <rdf:RDF xmlns:dc="http://purl.org/dc/elements/1.1/" xmlns:cc="http://creativecommons.org/ns#" xmlns:rdf="http://www.w3.org/1999/02/22-rdf-syntax-ns#">
   <cc:Work>
    <dc:type rdf:resource="http://purl.org/dc/dcmitype/StillImage"/>
    <dc:date>2024-06-25T10:20:53.679608</dc:date>
    <dc:format>image/svg+xml</dc:format>
    <dc:creator>
     <cc:Agent>
      <dc:title>Matplotlib v3.9.0, https://matplotlib.org/</dc:title>
     </cc:Agent>
    </dc:creator>
   </cc:Work>
  </rdf:RDF>
 </metadata>
 <defs>
  <style type="text/css">*{stroke-linejoin: round; stroke-linecap: butt}</style>
 </defs>
 <g id="figure_1">
  <g id="patch_1">
   <path d="M 0 287.4075 
L 386.439375 287.4075 
L 386.439375 0 
L 0 0 
z
" style="fill: #ffffff"/>
  </g>
  <g id="axes_1">
   <g id="patch_2">
    <path d="M 48.039375 253.08 
L 382.839375 253.08 
L 382.839375 3.6 
L 48.039375 3.6 
z
" style="fill: #ffffff"/>
   </g>
   <g id="PolyCollection_1">
    <defs>
     <path id="m91723bf005" d="M 63.257557 -243.886592 
L 63.257557 -81.641395 
L 63.867504 -45.6675 
L 64.477451 -59.039712 
L 65.087398 -54.875239 
L 65.697345 -77.210839 
L 66.307293 -84.757909 
L 66.91724 -101.062953 
L 67.527187 -86.285038 
L 68.137134 -72.836377 
L 68.747081 -117.441914 
L 69.357028 -115.905499 
L 69.966976 -142.865341 
L 70.576923 -128.509326 
L 71.18687 -124.113105 
L 71.796817 -137.063103 
L 72.406764 -105.387199 
L 73.016711 -117.793221 
L 73.626659 -110.530465 
L 74.236606 -140.37744 
L 74.846553 -145.634312 
L 75.4565 -148.121617 
L 76.066447 -146.843212 
L 76.676394 -137.300835 
L 77.286342 -144.928872 
L 77.896289 -138.405413 
L 78.506236 -151.269674 
L 79.116183 -148.987958 
L 79.72613 -152.628037 
L 80.336077 -152.628037 
L 80.946025 -150.324457 
L 81.555972 -150.221631 
L 82.165919 -157.686715 
L 82.775866 -162.52153 
L 83.385813 -165.207875 
L 83.99576 -167.436843 
L 84.605708 -169.478313 
L 85.215655 -163.111637 
L 85.825602 -165.671824 
L 86.435549 -165.995001 
L 87.045496 -168.073816 
L 87.655444 -173.180477 
L 88.265391 -173.038838 
L 88.875338 -172.952972 
L 89.485285 -175.317142 
L 90.095232 -175.317142 
L 90.705179 -175.317142 
L 91.315127 -177.988735 
L 91.925074 -202.638815 
L 92.535021 -214.12378 
L 93.144968 -233.383841 
L 93.754915 -251.978625 
L 94.364862 -256.344512 
L 94.97481 -256.568258 
L 95.584757 -257.787916 
L 96.194704 -258.308467 
L 96.804651 -260.385148 
L 97.414598 -260.445388 
L 98.024545 -263.105853 
L 98.634493 -261.942173 
L 99.24444 -260.613291 
L 99.854387 -261.016705 
L 100.464334 -261.662246 
L 101.074281 -262.127154 
L 101.684228 -262.885613 
L 102.294176 -262.991079 
L 102.904123 -262.783314 
L 103.51407 -264.239713 
L 104.124017 -262.783314 
L 104.733964 -262.447998 
L 105.343911 -263.727018 
L 105.953859 -262.895585 
L 106.563806 -261.4703 
L 107.173753 -261.085437 
L 107.7837 -260.990452 
L 108.393647 -261.558757 
L 109.003594 -264.879164 
L 109.613542 -264.41381 
L 110.223489 -263.546824 
L 110.833436 -261.964012 
L 111.443383 -262.715006 
L 112.05333 -262.150358 
L 112.663277 -260.587876 
L 113.273225 -261.369342 
L 113.883172 -261.972004 
L 114.493119 -262.894318 
L 115.103066 -261.120269 
L 115.713013 -261.455831 
L 116.32296 -261.996262 
L 116.932908 -261.455821 
L 117.542855 -262.530065 
L 118.152802 -263.024801 
L 118.762749 -263.02482 
L 119.372696 -262.719096 
L 119.982643 -263.276347 
L 120.592591 -262.110113 
L 121.202538 -262.25596 
L 121.812485 -262.630519 
L 122.422432 -263.193954 
L 123.032379 -261.78624 
L 123.642326 -260.701933 
L 124.252274 -260.924701 
L 124.862221 -260.542308 
L 125.472168 -257.795335 
L 126.082115 -259.464525 
L 126.692062 -258.749348 
L 127.302009 -261.371386 
L 127.911957 -262.349317 
L 128.521904 -264.037496 
L 129.131851 -263.636745 
L 129.741798 -264.415982 
L 130.351745 -264.647828 
L 130.961692 -264.704267 
L 131.57164 -264.540204 
L 132.181587 -264.319611 
L 132.791534 -264.395207 
L 133.401481 -264.454402 
L 134.011428 -266.054961 
L 134.621375 -266.158495 
L 135.231323 -266.84783 
L 135.84127 -266.640155 
L 136.451217 -266.847021 
L 137.061164 -266.947007 
L 137.671111 -266.126587 
L 138.281058 -268.122284 
L 138.891006 -267.320035 
L 139.500953 -267.492464 
L 140.1109 -267.792409 
L 140.720847 -267.848207 
L 141.330794 -266.973144 
L 141.940741 -264.491269 
L 142.550689 -265.568551 
L 143.160636 -265.56854 
L 143.770583 -265.899306 
L 144.38053 -265.176396 
L 144.990477 -265.579612 
L 145.600424 -265.899302 
L 146.210372 -266.014632 
L 146.820319 -266.383232 
L 147.430266 -267.737872 
L 148.040213 -264.758953 
L 148.65016 -264.096816 
L 149.260107 -264.697133 
L 149.870055 -265.832801 
L 150.480002 -264.990856 
L 151.089949 -264.389165 
L 151.699896 -264.647404 
L 152.309843 -265.629478 
L 152.91979 -266.46707 
L 153.529738 -267.384458 
L 154.139685 -267.787395 
L 154.749632 -268.093744 
L 155.359579 -267.696417 
L 155.969526 -266.927896 
L 156.579473 -268.04923 
L 157.189421 -268.158 
L 157.799368 -268.371135 
L 158.409315 -268.688831 
L 159.019262 -269.486585 
L 159.629209 -267.980011 
L 160.239156 -267.744094 
L 160.849104 -267.762085 
L 161.459051 -268.590055 
L 162.068998 -268.876056 
L 162.678945 -269.412878 
L 163.288892 -269.002196 
L 163.898839 -268.964248 
L 164.508787 -268.720561 
L 165.118734 -268.749652 
L 165.728681 -270.411526 
L 166.338628 -269.398391 
L 166.948575 -269.248407 
L 167.558522 -269.113592 
L 168.16847 -267.976357 
L 168.778417 -265.2073 
L 169.388364 -265.409197 
L 169.998311 -264.962501 
L 170.608258 -265.256846 
L 171.218205 -267.783397 
L 171.828153 -267.881498 
L 172.4381 -268.445014 
L 173.048047 -268.112536 
L 173.657994 -268.792429 
L 174.267941 -268.792412 
L 174.877888 -268.468548 
L 175.487836 -267.310774 
L 176.097783 -267.97748 
L 176.70773 -267.977465 
L 177.317677 -267.977472 
L 177.927624 -269.133945 
L 178.537571 -268.844287 
L 179.147519 -268.643527 
L 179.757466 -268.792407 
L 180.367413 -268.143275 
L 180.97736 -267.79356 
L 181.587307 -267.211644 
L 182.197254 -267.753956 
L 182.807202 -267.859995 
L 183.417149 -267.981124 
L 184.027096 -267.541098 
L 184.637043 -267.63705 
L 185.24699 -265.550383 
L 185.856937 -264.786006 
L 186.466885 -267.678768 
L 187.076832 -267.800861 
L 187.686779 -268.63799 
L 188.296726 -266.787579 
L 188.906673 -267.259816 
L 189.51662 -267.296034 
L 190.126568 -267.701616 
L 190.736515 -268.835102 
L 191.346462 -269.957062 
L 191.956409 -268.028245 
L 192.566356 -269.64948 
L 193.176303 -268.520674 
L 193.786251 -267.9616 
L 194.396198 -267.984186 
L 195.006145 -269.335275 
L 195.616092 -267.984174 
L 196.226039 -266.737678 
L 196.835986 -267.628615 
L 197.445934 -268.180293 
L 198.055881 -268.12164 
L 198.665828 -265.68681 
L 199.275775 -264.602721 
L 199.885722 -266.003836 
L 200.495669 -266.31534 
L 201.105617 -267.155831 
L 201.715564 -267.364755 
L 202.325511 -266.681485 
L 202.935458 -266.936774 
L 203.545405 -266.736349 
L 204.155352 -267.304101 
L 204.7653 -265.66026 
L 205.375247 -264.776553 
L 205.985194 -265.018272 
L 206.595141 -265.524296 
L 207.205088 -266.348918 
L 207.815035 -265.789251 
L 208.424983 -266.539072 
L 209.03493 -266.302019 
L 209.644877 -265.003757 
L 210.254824 -265.494172 
L 210.864771 -265.824262 
L 211.474718 -265.670766 
L 212.084666 -267.958855 
L 212.694613 -267.891899 
L 213.30456 -267.365294 
L 213.914507 -267.700313 
L 214.524454 -267.319369 
L 215.134401 -267.82426 
L 215.744349 -268.178581 
L 216.354296 -268.377041 
L 216.964243 -267.561945 
L 217.57419 -268.373457 
L 218.184137 -267.650774 
L 218.794084 -267.650799 
L 219.404032 -267.65077 
L 220.013979 -267.650795 
L 220.623926 -268.216081 
L 221.233873 -267.933787 
L 221.84382 -267.499217 
L 222.453767 -268.688858 
L 223.063715 -269.069478 
L 223.673662 -268.937461 
L 224.283609 -267.465815 
L 224.893556 -265.516314 
L 225.503503 -265.572627 
L 226.11345 -265.021639 
L 226.723398 -267.328092 
L 227.333345 -266.861211 
L 227.943292 -267.648753 
L 228.553239 -267.412192 
L 229.163186 -267.918907 
L 229.773133 -267.328092 
L 230.383081 -266.519314 
L 230.993028 -266.519889 
L 231.602975 -266.256077 
L 232.212922 -266.068065 
L 232.822869 -266.026409 
L 233.432816 -266.606004 
L 234.042764 -267.302647 
L 234.652711 -266.733302 
L 235.262658 -266.075582 
L 235.872605 -266.174433 
L 236.482552 -266.075592 
L 237.092499 -265.417565 
L 237.702447 -266.028158 
L 238.312394 -266.764379 
L 238.922341 -267.862196 
L 239.532288 -268.386856 
L 240.142235 -267.149205 
L 240.752182 -267.149204 
L 241.36213 -266.642412 
L 241.972077 -265.5831 
L 242.582024 -264.494276 
L 243.191971 -268.107523 
L 243.801918 -267.564681 
L 244.411865 -265.6954 
L 245.021813 -267.327127 
L 245.63176 -268.366761 
L 246.241707 -268.787583 
L 246.851654 -269.073317 
L 247.461601 -267.817824 
L 248.071548 -269.616609 
L 248.681496 -267.423978 
L 249.291443 -268.48455 
L 249.90139 -266.359388 
L 250.511337 -265.76426 
L 251.121284 -267.772438 
L 251.731231 -268.311528 
L 252.341179 -268.492837 
L 252.951126 -268.492828 
L 253.561073 -267.458679 
L 254.17102 -266.604474 
L 254.780967 -264.208166 
L 255.390914 -266.147657 
L 256.000862 -266.785366 
L 256.610809 -267.684419 
L 257.220756 -267.944044 
L 257.830703 -268.381806 
L 258.44065 -267.941734 
L 259.050597 -268.406803 
L 259.660545 -269.219195 
L 260.270492 -269.615568 
L 260.880439 -269.428335 
L 261.490386 -269.762194 
L 262.100333 -269.574286 
L 262.71028 -270.489108 
L 263.320228 -268.1078 
L 263.930175 -268.107808 
L 264.540122 -269.247583 
L 265.150069 -269.000287 
L 265.760016 -269.247597 
L 266.369963 -269.971356 
L 266.979911 -266.851726 
L 267.589858 -267.517641 
L 268.199805 -268.167369 
L 268.809752 -269.653248 
L 269.419699 -268.978424 
L 270.029646 -265.921995 
L 270.639594 -266.572174 
L 271.249541 -267.445883 
L 271.859488 -268.228468 
L 272.469435 -265.919443 
L 273.079382 -265.546492 
L 273.689329 -270.269587 
L 274.299277 -269.331732 
L 274.909224 -267.860361 
L 275.519171 -266.971442 
L 276.129118 -265.259718 
L 276.739065 -264.084683 
L 277.349012 -264.143553 
L 277.95896 -264.019352 
L 278.568907 -264.68937 
L 279.178854 -264.909627 
L 279.788801 -265.18974 
L 280.398748 -267.630578 
L 281.008695 -268.024224 
L 281.618643 -266.786634 
L 282.22859 -267.706869 
L 282.838537 -267.73098 
L 283.448484 -267.082103 
L 284.058431 -267.017137 
L 284.668378 -267.094683 
L 285.278326 -266.981045 
L 285.888273 -267.232546 
L 286.49822 -267.909549 
L 287.108167 -267.32096 
L 287.718114 -266.932863 
L 288.328061 -267.416863 
L 288.938009 -268.020712 
L 289.547956 -267.086123 
L 290.157903 -266.609985 
L 290.76785 -266.76142 
L 291.377797 -266.141907 
L 291.987744 -265.234134 
L 292.597692 -266.803181 
L 293.207639 -269.375761 
L 293.817586 -269.04535 
L 294.427533 -268.793322 
L 295.03748 -268.698515 
L 295.647427 -267.890025 
L 296.257375 -267.774954 
L 296.867322 -265.912115 
L 297.477269 -267.590782 
L 298.087216 -266.290895 
L 298.697163 -265.684707 
L 299.30711 -266.863778 
L 299.917058 -267.312985 
L 300.527005 -268.177521 
L 301.136952 -267.388827 
L 301.746899 -266.728594 
L 302.356846 -267.443094 
L 302.966793 -267.618221 
L 303.576741 -266.92798 
L 304.186688 -268.296416 
L 304.796635 -267.28314 
L 305.406582 -266.975539 
L 306.016529 -266.524525 
L 306.626476 -266.90671 
L 307.236424 -267.798625 
L 307.846371 -264.687099 
L 308.456318 -265.431694 
L 309.066265 -264.984672 
L 309.676212 -266.634589 
L 310.286159 -264.080068 
L 310.896107 -264.246888 
L 311.506054 -266.6346 
L 312.116001 -265.016073 
L 312.725948 -266.430183 
L 313.335895 -269.162144 
L 313.945842 -269.019713 
L 314.55579 -268.730256 
L 315.165737 -267.597437 
L 315.775684 -265.929409 
L 316.385631 -265.979806 
L 316.995578 -266.423923 
L 317.605525 -267.319859 
L 318.215473 -266.357415 
L 318.82542 -267.05131 
L 319.435367 -267.03752 
L 320.045314 -265.518249 
L 320.655261 -266.06936 
L 321.265208 -267.871619 
L 321.875156 -264.610941 
L 322.485103 -265.708387 
L 323.09505 -266.121591 
L 323.704997 -266.945045 
L 324.314944 -266.805694 
L 324.924891 -265.902696 
L 325.534839 -266.758566 
L 326.144786 -267.560289 
L 326.754733 -267.037878 
L 327.36468 -266.720903 
L 327.974627 -268.197205 
L 328.584574 -266.228998 
L 329.194522 -267.721964 
L 329.804469 -268.223688 
L 330.414416 -267.904627 
L 331.024363 -266.310736 
L 331.63431 -267.529312 
L 332.244257 -266.930526 
L 332.854205 -266.376261 
L 333.464152 -266.690181 
L 334.074099 -263.41337 
L 334.684046 -263.902342 
L 335.293993 -263.408648 
L 335.90394 -263.807258 
L 336.513888 -264.82416 
L 337.123835 -264.203927 
L 337.733782 -264.944995 
L 338.343729 -267.03868 
L 338.953676 -266.974613 
L 339.563623 -267.038678 
L 340.173571 -266.710794 
L 340.783518 -268.212725 
L 341.393465 -268.191531 
L 342.003412 -268.980723 
L 342.613359 -267.196468 
L 343.223306 -267.477616 
L 343.833254 -267.152168 
L 344.443201 -265.454524 
L 345.053148 -266.529911 
L 345.663095 -266.954898 
L 346.273042 -267.170103 
L 346.88299 -267.466141 
L 347.492937 -266.851597 
L 348.102884 -266.675601 
L 348.712831 -267.367805 
L 349.322778 -266.909693 
L 349.932725 -265.83749 
L 350.542673 -263.973615 
L 351.15262 -264.844353 
L 351.762567 -266.175823 
L 352.372514 -266.394607 
L 352.982461 -266.95617 
L 353.592408 -266.572806 
L 354.202356 -266.572822 
L 354.812303 -267.058869 
L 355.42225 -267.66827 
L 356.032197 -267.744804 
L 356.642144 -267.851977 
L 357.252091 -267.195164 
L 357.862039 -265.852008 
L 358.471986 -266.194468 
L 359.081933 -266.642876 
L 359.69188 -266.601449 
L 360.301827 -267.575209 
L 360.911774 -267.33526 
L 361.521722 -267.699235 
L 362.131669 -267.760262 
L 362.741616 -267.301767 
L 363.351563 -267.779116 
L 363.96151 -267.352604 
L 364.571457 -266.951044 
L 365.181405 -264.761593 
L 365.791352 -265.980587 
L 366.401299 -267.484003 
L 367.011246 -267.673376 
L 367.621193 -267.767762 
L 367.621193 -272.4675 
L 367.621193 -272.4675 
L 367.011246 -272.467489 
L 366.401299 -272.46749 
L 365.791352 -272.467467 
L 365.181405 -272.467491 
L 364.571457 -272.467466 
L 363.96151 -272.467484 
L 363.351563 -272.467461 
L 362.741616 -272.467458 
L 362.131669 -272.46745 
L 361.521722 -272.467482 
L 360.911774 -272.457345 
L 360.301827 -272.45733 
L 359.69188 -272.457344 
L 359.081933 -272.457334 
L 358.471986 -272.45734 
L 357.862039 -272.457347 
L 357.252091 -272.457339 
L 356.642144 -272.457342 
L 356.032197 -272.457343 
L 355.42225 -272.457344 
L 354.812303 -272.457334 
L 354.202356 -272.45734 
L 353.592408 -272.45733 
L 352.982461 -272.45734 
L 352.372514 -272.457345 
L 351.762567 -272.457341 
L 351.15262 -272.457339 
L 350.542673 -272.457321 
L 349.932725 -272.457342 
L 349.322778 -272.457342 
L 348.712831 -272.457341 
L 348.102884 -272.457338 
L 347.492937 -272.457333 
L 346.88299 -272.457342 
L 346.273042 -272.45733 
L 345.663095 -272.457333 
L 345.053148 -272.457312 
L 344.443201 -272.457301 
L 343.833254 -272.457307 
L 343.223306 -272.457339 
L 342.613359 -272.457307 
L 342.003412 -272.457289 
L 341.393465 -272.457298 
L 340.783518 -272.457317 
L 340.173571 -272.454922 
L 339.563623 -272.454907 
L 338.953676 -272.397471 
L 338.343729 -272.397486 
L 337.733782 -272.397489 
L 337.123835 -272.397487 
L 336.513888 -272.39748 
L 335.90394 -272.397494 
L 335.293993 -272.39747 
L 334.684046 -272.39746 
L 334.074099 -272.397499 
L 333.464152 -272.397465 
L 332.854205 -272.397456 
L 332.244257 -272.397472 
L 331.63431 -272.397468 
L 331.024363 -272.397457 
L 330.414416 -272.397462 
L 329.804469 -272.397493 
L 329.194522 -272.397442 
L 328.584574 -272.397472 
L 327.974627 -272.397444 
L 327.36468 -272.397453 
L 326.754733 -272.397471 
L 326.144786 -272.386982 
L 325.534839 -272.386984 
L 324.924891 -272.386983 
L 324.314944 -272.386981 
L 323.704997 -272.38698 
L 323.09505 -272.386978 
L 322.485103 -272.386982 
L 321.875156 -272.38698 
L 321.265208 -272.386977 
L 320.655261 -272.386977 
L 320.045314 -272.386982 
L 319.435367 -272.38698 
L 318.82542 -272.386982 
L 318.215473 -272.386977 
L 317.605525 -272.386977 
L 316.995578 -272.386976 
L 316.385631 -272.386979 
L 315.775684 -272.386981 
L 315.165737 -272.38697 
L 314.55579 -272.386976 
L 313.945842 -272.386969 
L 313.335895 -272.386962 
L 312.725948 -272.386954 
L 312.116001 -272.297472 
L 311.506054 -272.292145 
L 310.896107 -272.292143 
L 310.286159 -272.292142 
L 309.676212 -272.292144 
L 309.066265 -272.292143 
L 308.456318 -272.292143 
L 307.846371 -272.292146 
L 307.236424 -272.292137 
L 306.626476 -272.292143 
L 306.016529 -272.29215 
L 305.406582 -272.292138 
L 304.796635 -272.292136 
L 304.186688 -272.292132 
L 303.576741 -272.292132 
L 302.966793 -272.292118 
L 302.356846 -272.261817 
L 301.746899 -272.261808 
L 301.136952 -272.261809 
L 300.527005 -272.261802 
L 299.917058 -272.224494 
L 299.30711 -272.224493 
L 298.697163 -272.22448 
L 298.087216 -272.224481 
L 297.477269 -272.224489 
L 296.867322 -272.224485 
L 296.257375 -272.224485 
L 295.647427 -272.224477 
L 295.03748 -272.224478 
L 294.427533 -272.22448 
L 293.817586 -272.224475 
L 293.207639 -272.22448 
L 292.597692 -272.224442 
L 291.987744 -272.22447 
L 291.377797 -272.108227 
L 290.76785 -272.108225 
L 290.157903 -272.108234 
L 289.547956 -272.108231 
L 288.938009 -272.108214 
L 288.328061 -272.108214 
L 287.718114 -272.10822 
L 287.108167 -272.108221 
L 286.49822 -272.108226 
L 285.888273 -272.108223 
L 285.278326 -272.108224 
L 284.668378 -272.108218 
L 284.058431 -272.108224 
L 283.448484 -272.108219 
L 282.838537 -272.108231 
L 282.22859 -272.108226 
L 281.618643 -272.108222 
L 281.008695 -272.108219 
L 280.398748 -272.108218 
L 279.788801 -272.108227 
L 279.178854 -272.108227 
L 278.568907 -272.108229 
L 277.95896 -272.108223 
L 277.349012 -272.108218 
L 276.739065 -272.108224 
L 276.129118 -272.108224 
L 275.519171 -272.108224 
L 274.909224 -272.108225 
L 274.299277 -272.108232 
L 273.689329 -272.108231 
L 273.079382 -272.108216 
L 272.469435 -272.108223 
L 271.859488 -272.108228 
L 271.249541 -272.108227 
L 270.639594 -272.108228 
L 270.029646 -272.108214 
L 269.419699 -272.10822 
L 268.809752 -272.108226 
L 268.199805 -272.108224 
L 267.589858 -272.108221 
L 266.979911 -272.108232 
L 266.369963 -272.10822 
L 265.760016 -272.108218 
L 265.150069 -272.108219 
L 264.540122 -272.108235 
L 263.930175 -272.108235 
L 263.320228 -272.10823 
L 262.71028 -272.108222 
L 262.100333 -272.108222 
L 261.490386 -272.10823 
L 260.880439 -272.108221 
L 260.270492 -272.108218 
L 259.660545 -272.108223 
L 259.050597 -272.108212 
L 258.44065 -272.108214 
L 257.830703 -272.108224 
L 257.220756 -272.108224 
L 256.610809 -272.108214 
L 256.000862 -272.108224 
L 255.390914 -272.108191 
L 254.780967 -272.108201 
L 254.17102 -272.10819 
L 253.561073 -272.1082 
L 252.951126 -272.108175 
L 252.341179 -272.108183 
L 251.731231 -272.108187 
L 251.121284 -272.108176 
L 250.511337 -272.108207 
L 249.90139 -272.108158 
L 249.291443 -272.10818 
L 248.681496 -272.108191 
L 248.071548 -272.108222 
L 247.461601 -272.108166 
L 246.851654 -272.105091 
L 246.241707 -272.105081 
L 245.63176 -272.105081 
L 245.021813 -272.105086 
L 244.411865 -272.105084 
L 243.801918 -272.105078 
L 243.191971 -272.105074 
L 242.582024 -272.105069 
L 241.972077 -272.103951 
L 241.36213 -272.103963 
L 240.752182 -272.103952 
L 240.142235 -272.103964 
L 239.532288 -272.103948 
L 238.922341 -272.103949 
L 238.312394 -272.103056 
L 237.702447 -272.103063 
L 237.092499 -272.103049 
L 236.482552 -272.10305 
L 235.872605 -272.103046 
L 235.262658 -272.103051 
L 234.652711 -272.103065 
L 234.042764 -272.103054 
L 233.432816 -272.103059 
L 232.822869 -272.10306 
L 232.212922 -272.103064 
L 231.602975 -272.103062 
L 230.993028 -272.103063 
L 230.383081 -272.103049 
L 229.773133 -272.103065 
L 229.163186 -272.103047 
L 228.553239 -272.103048 
L 227.943292 -272.103058 
L 227.333345 -272.103055 
L 226.723398 -272.10305 
L 226.11345 -272.103059 
L 225.503503 -272.103036 
L 224.893556 -272.103062 
L 224.283609 -272.103062 
L 223.673662 -272.103023 
L 223.063715 -272.103064 
L 222.453767 -272.103043 
L 221.84382 -272.103047 
L 221.233873 -272.103033 
L 220.623926 -272.10304 
L 220.013979 -272.103041 
L 219.404032 -272.103009 
L 218.794084 -272.103017 
L 218.184137 -272.10302 
L 217.57419 -272.101577 
L 216.964243 -272.101575 
L 216.354296 -272.101572 
L 215.744349 -272.101579 
L 215.134401 -272.101579 
L 214.524454 -272.101556 
L 213.914507 -272.101581 
L 213.30456 -272.101577 
L 212.694613 -272.101575 
L 212.084666 -272.101581 
L 211.474718 -272.101566 
L 210.864771 -272.101571 
L 210.254824 -272.101569 
L 209.644877 -272.101573 
L 209.03493 -272.101572 
L 208.424983 -272.10158 
L 207.815035 -272.101572 
L 207.205088 -272.101568 
L 206.595141 -272.101567 
L 205.985194 -272.101573 
L 205.375247 -272.10157 
L 204.7653 -272.101579 
L 204.155352 -272.101576 
L 203.545405 -272.101587 
L 202.935458 -272.101584 
L 202.325511 -272.101559 
L 201.715564 -272.101576 
L 201.105617 -272.101587 
L 200.495669 -272.101568 
L 199.885722 -272.101569 
L 199.275775 -272.101568 
L 198.665828 -272.101569 
L 198.055881 -272.101577 
L 197.445934 -272.101571 
L 196.835986 -272.101578 
L 196.226039 -272.101574 
L 195.616092 -272.101571 
L 195.006145 -272.101564 
L 194.396198 -272.101559 
L 193.786251 -272.101565 
L 193.176303 -272.101572 
L 192.566356 -272.101572 
L 191.956409 -272.101576 
L 191.346462 -272.101576 
L 190.736515 -272.101571 
L 190.126568 -272.101573 
L 189.51662 -272.101577 
L 188.906673 -272.101563 
L 188.296726 -272.101578 
L 187.686779 -272.101541 
L 187.076832 -272.101563 
L 186.466885 -272.101573 
L 185.856937 -272.101524 
L 185.24699 -272.101523 
L 184.637043 -272.101521 
L 184.027096 -272.101536 
L 183.417149 -272.10153 
L 182.807202 -272.101517 
L 182.197254 -272.101534 
L 181.587307 -272.101536 
L 180.97736 -272.063596 
L 180.367413 -272.063597 
L 179.757466 -272.063602 
L 179.147519 -272.063596 
L 178.537571 -272.063597 
L 177.927624 -272.06361 
L 177.317677 -272.063594 
L 176.70773 -272.063595 
L 176.097783 -272.063599 
L 175.487836 -272.063603 
L 174.877888 -272.063598 
L 174.267941 -272.0636 
L 173.657994 -272.063598 
L 173.048047 -272.063603 
L 172.4381 -272.063595 
L 171.828153 -272.063591 
L 171.218205 -272.0636 
L 170.608258 -272.063595 
L 169.998311 -272.063593 
L 169.388364 -272.063592 
L 168.778417 -272.063594 
L 168.16847 -272.063589 
L 167.558522 -272.063595 
L 166.948575 -272.06359 
L 166.338628 -272.063591 
L 165.728681 -272.063579 
L 165.118734 -272.063591 
L 164.508787 -272.057276 
L 163.898839 -272.057269 
L 163.288892 -272.057271 
L 162.678945 -272.057258 
L 162.068998 -272.057271 
L 161.459051 -272.049592 
L 160.849104 -271.993133 
L 160.239156 -271.970711 
L 159.629209 -271.970711 
L 159.019262 -271.970724 
L 158.409315 -271.970714 
L 157.799368 -271.970715 
L 157.189421 -271.970714 
L 156.579473 -271.970717 
L 155.969526 -271.970715 
L 155.359579 -271.970712 
L 154.749632 -271.970708 
L 154.139685 -271.970711 
L 153.529738 -271.970699 
L 152.91979 -271.970694 
L 152.309843 -271.970694 
L 151.699896 -271.970695 
L 151.089949 -271.970698 
L 150.480002 -271.97068 
L 149.870055 -271.970698 
L 149.260107 -271.647207 
L 148.65016 -271.610706 
L 148.040213 -271.610717 
L 147.430266 -271.610709 
L 146.820319 -271.610705 
L 146.210372 -271.610702 
L 145.600424 -271.610704 
L 144.990477 -271.610707 
L 144.38053 -271.610701 
L 143.770583 -271.610707 
L 143.160636 -271.610704 
L 142.550689 -271.610702 
L 141.940741 -271.610702 
L 141.330794 -271.610707 
L 140.720847 -271.610703 
L 140.1109 -271.610706 
L 139.500953 -271.610699 
L 138.891006 -271.610707 
L 138.281058 -271.610712 
L 137.671111 -271.610694 
L 137.061164 -271.610707 
L 136.451217 -271.610698 
L 135.84127 -271.610699 
L 135.231323 -271.610695 
L 134.621375 -271.610692 
L 134.011428 -271.610701 
L 133.401481 -271.610674 
L 132.791534 -271.591117 
L 132.181587 -271.591117 
L 131.57164 -271.591091 
L 130.961692 -271.591116 
L 130.351745 -271.591107 
L 129.741798 -271.59109 
L 129.131851 -271.591078 
L 128.521904 -271.591092 
L 127.911957 -271.591089 
L 127.302009 -271.481272 
L 126.692062 -271.224814 
L 126.082115 -271.224808 
L 125.472168 -271.224819 
L 124.862221 -271.224817 
L 124.252274 -271.224811 
L 123.642326 -271.224816 
L 123.032379 -271.224816 
L 122.422432 -271.224815 
L 121.812485 -271.224802 
L 121.202538 -271.224812 
L 120.592591 -271.224814 
L 119.982643 -271.22481 
L 119.372696 -271.224802 
L 118.762749 -271.224803 
L 118.152802 -271.224811 
L 117.542855 -271.224795 
L 116.932908 -270.934955 
L 116.32296 -270.580281 
L 115.713013 -270.51367 
L 115.103066 -270.513678 
L 114.493119 -270.434526 
L 113.883172 -270.434513 
L 113.273225 -270.434511 
L 112.663277 -270.434491 
L 112.05333 -270.434489 
L 111.443383 -270.402548 
L 110.833436 -270.402553 
L 110.223489 -270.402542 
L 109.613542 -270.402555 
L 109.003594 -270.402536 
L 108.393647 -270.402541 
L 107.7837 -270.402547 
L 107.173753 -270.40253 
L 106.563806 -270.402544 
L 105.953859 -270.402532 
L 105.343911 -270.402544 
L 104.733964 -270.402535 
L 104.124017 -270.402524 
L 103.51407 -270.402529 
L 102.904123 -270.402548 
L 102.294176 -270.402545 
L 101.684228 -270.139331 
L 101.074281 -270.139309 
L 100.464334 -270.13931 
L 99.854387 -270.139327 
L 99.24444 -270.139274 
L 98.634493 -270.139265 
L 98.024545 -270.139237 
L 97.414598 -270.139299 
L 96.804651 -270.13926 
L 96.194704 -269.894771 
L 95.584757 -269.894757 
L 94.97481 -269.894757 
L 94.364862 -269.841308 
L 93.754915 -269.841247 
L 93.144968 -269.841313 
L 92.535021 -269.841266 
L 91.925074 -269.841246 
L 91.315127 -269.497509 
L 90.705179 -268.80674 
L 90.095232 -268.806741 
L 89.485285 -268.806688 
L 88.875338 -268.806733 
L 88.265391 -268.806685 
L 87.655444 -268.806666 
L 87.045496 -268.806666 
L 86.435549 -268.806635 
L 85.825602 -268.086151 
L 85.215655 -268.086144 
L 84.605708 -268.086157 
L 83.99576 -267.603348 
L 83.385813 -267.512307 
L 82.775866 -267.512294 
L 82.165919 -267.020011 
L 81.555972 -267.020056 
L 80.946025 -267.020041 
L 80.336077 -267.020028 
L 79.72613 -267.020003 
L 79.116183 -265.441804 
L 78.506236 -265.441818 
L 77.896289 -265.441784 
L 77.286342 -261.446894 
L 76.676394 -258.798491 
L 76.066447 -258.798401 
L 75.4565 -258.798485 
L 74.846553 -257.557463 
L 74.236606 -257.557455 
L 73.626659 -257.557458 
L 73.016711 -257.557455 
L 72.406764 -250.74537 
L 71.796817 -250.745349 
L 71.18687 -250.745372 
L 70.576923 -250.745241 
L 69.966976 -250.745472 
L 69.357028 -250.74533 
L 68.747081 -250.745344 
L 68.137134 -250.745287 
L 67.527187 -250.74525 
L 66.91724 -250.74535 
L 66.307293 -250.745369 
L 65.697345 -250.745266 
L 65.087398 -250.745248 
L 64.477451 -250.745417 
L 63.867504 -250.745391 
L 63.257557 -243.886592 
z
" style="stroke: #0000ff; stroke-opacity: 0.2"/>
    </defs>
    <g clip-path="url(#p93f5f2da6b)">
     <use xlink:href="#m91723bf005" x="0" y="287.4075" style="fill: #0000ff; fill-opacity: 0.2; stroke: #0000ff; stroke-opacity: 0.2"/>
    </g>
   </g>
   <g id="matplotlib.axis_1">
    <g id="xtick_1">
     <g id="line2d_1">
      <path d="M 63.257557 253.08 
L 63.257557 3.6 
" clip-path="url(#p93f5f2da6b)" style="fill: none; stroke: #b0b0b0; stroke-width: 0.5; stroke-linecap: square"/>
     </g>
     <g id="line2d_2">
      <defs>
       <path id="m1b9c3bf1c7" d="M 0 0 
L 0 -3 
" style="stroke: #000000; stroke-width: 0.5"/>
      </defs>
      <g>
       <use xlink:href="#m1b9c3bf1c7" x="63.257557" y="253.08" style="stroke: #000000; stroke-width: 0.5"/>
      </g>
     </g>
     <g id="line2d_3">
      <defs>
       <path id="m0c3c4bbd13" d="M 0 0 
L 0 3 
" style="stroke: #000000; stroke-width: 0.5"/>
      </defs>
      <g>
       <use xlink:href="#m0c3c4bbd13" x="63.257557" y="3.6" style="stroke: #000000; stroke-width: 0.5"/>
      </g>
     </g>
     <g id="text_1">
      <!-- 0 -->
      <g transform="translate(59.440057 265.698125) scale(0.12 -0.12)">
       <defs>
        <path id="DejaVuSans-30" d="M 2034 4250 
Q 1547 4250 1301 3770 
Q 1056 3291 1056 2328 
Q 1056 1369 1301 889 
Q 1547 409 2034 409 
Q 2525 409 2770 889 
Q 3016 1369 3016 2328 
Q 3016 3291 2770 3770 
Q 2525 4250 2034 4250 
z
M 2034 4750 
Q 2819 4750 3233 4129 
Q 3647 3509 3647 2328 
Q 3647 1150 3233 529 
Q 2819 -91 2034 -91 
Q 1250 -91 836 529 
Q 422 1150 422 2328 
Q 422 3509 836 4129 
Q 1250 4750 2034 4750 
z
" transform="scale(0.015625)"/>
       </defs>
       <use xlink:href="#DejaVuSans-30"/>
      </g>
     </g>
    </g>
    <g id="xtick_2">
     <g id="line2d_4">
      <path d="M 124.252274 253.08 
L 124.252274 3.6 
" clip-path="url(#p93f5f2da6b)" style="fill: none; stroke: #b0b0b0; stroke-width: 0.5; stroke-linecap: square"/>
     </g>
     <g id="line2d_5">
      <g>
       <use xlink:href="#m1b9c3bf1c7" x="124.252274" y="253.08" style="stroke: #000000; stroke-width: 0.5"/>
      </g>
     </g>
     <g id="line2d_6">
      <g>
       <use xlink:href="#m0c3c4bbd13" x="124.252274" y="3.6" style="stroke: #000000; stroke-width: 0.5"/>
      </g>
     </g>
     <g id="text_2">
      <!-- 100 -->
      <g transform="translate(112.799774 265.698125) scale(0.12 -0.12)">
       <defs>
        <path id="DejaVuSans-31" d="M 794 531 
L 1825 531 
L 1825 4091 
L 703 3866 
L 703 4441 
L 1819 4666 
L 2450 4666 
L 2450 531 
L 3481 531 
L 3481 0 
L 794 0 
L 794 531 
z
" transform="scale(0.015625)"/>
       </defs>
       <use xlink:href="#DejaVuSans-31"/>
       <use xlink:href="#DejaVuSans-30" x="63.623047"/>
       <use xlink:href="#DejaVuSans-30" x="127.246094"/>
      </g>
     </g>
    </g>
    <g id="xtick_3">
     <g id="line2d_7">
      <path d="M 185.24699 253.08 
L 185.24699 3.6 
" clip-path="url(#p93f5f2da6b)" style="fill: none; stroke: #b0b0b0; stroke-width: 0.5; stroke-linecap: square"/>
     </g>
     <g id="line2d_8">
      <g>
       <use xlink:href="#m1b9c3bf1c7" x="185.24699" y="253.08" style="stroke: #000000; stroke-width: 0.5"/>
      </g>
     </g>
     <g id="line2d_9">
      <g>
       <use xlink:href="#m0c3c4bbd13" x="185.24699" y="3.6" style="stroke: #000000; stroke-width: 0.5"/>
      </g>
     </g>
     <g id="text_3">
      <!-- 200 -->
      <g transform="translate(173.79449 265.698125) scale(0.12 -0.12)">
       <defs>
        <path id="DejaVuSans-32" d="M 1228 531 
L 3431 531 
L 3431 0 
L 469 0 
L 469 531 
Q 828 903 1448 1529 
Q 2069 2156 2228 2338 
Q 2531 2678 2651 2914 
Q 2772 3150 2772 3378 
Q 2772 3750 2511 3984 
Q 2250 4219 1831 4219 
Q 1534 4219 1204 4116 
Q 875 4013 500 3803 
L 500 4441 
Q 881 4594 1212 4672 
Q 1544 4750 1819 4750 
Q 2544 4750 2975 4387 
Q 3406 4025 3406 3419 
Q 3406 3131 3298 2873 
Q 3191 2616 2906 2266 
Q 2828 2175 2409 1742 
Q 1991 1309 1228 531 
z
" transform="scale(0.015625)"/>
       </defs>
       <use xlink:href="#DejaVuSans-32"/>
       <use xlink:href="#DejaVuSans-30" x="63.623047"/>
       <use xlink:href="#DejaVuSans-30" x="127.246094"/>
      </g>
     </g>
    </g>
    <g id="xtick_4">
     <g id="line2d_10">
      <path d="M 246.241707 253.08 
L 246.241707 3.6 
" clip-path="url(#p93f5f2da6b)" style="fill: none; stroke: #b0b0b0; stroke-width: 0.5; stroke-linecap: square"/>
     </g>
     <g id="line2d_11">
      <g>
       <use xlink:href="#m1b9c3bf1c7" x="246.241707" y="253.08" style="stroke: #000000; stroke-width: 0.5"/>
      </g>
     </g>
     <g id="line2d_12">
      <g>
       <use xlink:href="#m0c3c4bbd13" x="246.241707" y="3.6" style="stroke: #000000; stroke-width: 0.5"/>
      </g>
     </g>
     <g id="text_4">
      <!-- 300 -->
      <g transform="translate(234.789207 265.698125) scale(0.12 -0.12)">
       <defs>
        <path id="DejaVuSans-33" d="M 2597 2516 
Q 3050 2419 3304 2112 
Q 3559 1806 3559 1356 
Q 3559 666 3084 287 
Q 2609 -91 1734 -91 
Q 1441 -91 1130 -33 
Q 819 25 488 141 
L 488 750 
Q 750 597 1062 519 
Q 1375 441 1716 441 
Q 2309 441 2620 675 
Q 2931 909 2931 1356 
Q 2931 1769 2642 2001 
Q 2353 2234 1838 2234 
L 1294 2234 
L 1294 2753 
L 1863 2753 
Q 2328 2753 2575 2939 
Q 2822 3125 2822 3475 
Q 2822 3834 2567 4026 
Q 2313 4219 1838 4219 
Q 1578 4219 1281 4162 
Q 984 4106 628 3988 
L 628 4550 
Q 988 4650 1302 4700 
Q 1616 4750 1894 4750 
Q 2613 4750 3031 4423 
Q 3450 4097 3450 3541 
Q 3450 3153 3228 2886 
Q 3006 2619 2597 2516 
z
" transform="scale(0.015625)"/>
       </defs>
       <use xlink:href="#DejaVuSans-33"/>
       <use xlink:href="#DejaVuSans-30" x="63.623047"/>
       <use xlink:href="#DejaVuSans-30" x="127.246094"/>
      </g>
     </g>
    </g>
    <g id="xtick_5">
     <g id="line2d_13">
      <path d="M 307.236424 253.08 
L 307.236424 3.6 
" clip-path="url(#p93f5f2da6b)" style="fill: none; stroke: #b0b0b0; stroke-width: 0.5; stroke-linecap: square"/>
     </g>
     <g id="line2d_14">
      <g>
       <use xlink:href="#m1b9c3bf1c7" x="307.236424" y="253.08" style="stroke: #000000; stroke-width: 0.5"/>
      </g>
     </g>
     <g id="line2d_15">
      <g>
       <use xlink:href="#m0c3c4bbd13" x="307.236424" y="3.6" style="stroke: #000000; stroke-width: 0.5"/>
      </g>
     </g>
     <g id="text_5">
      <!-- 400 -->
      <g transform="translate(295.783924 265.698125) scale(0.12 -0.12)">
       <defs>
        <path id="DejaVuSans-34" d="M 2419 4116 
L 825 1625 
L 2419 1625 
L 2419 4116 
z
M 2253 4666 
L 3047 4666 
L 3047 1625 
L 3713 1625 
L 3713 1100 
L 3047 1100 
L 3047 0 
L 2419 0 
L 2419 1100 
L 313 1100 
L 313 1709 
L 2253 4666 
z
" transform="scale(0.015625)"/>
       </defs>
       <use xlink:href="#DejaVuSans-34"/>
       <use xlink:href="#DejaVuSans-30" x="63.623047"/>
       <use xlink:href="#DejaVuSans-30" x="127.246094"/>
      </g>
     </g>
    </g>
    <g id="xtick_6">
     <g id="line2d_16">
      <path d="M 368.23114 253.08 
L 368.23114 3.6 
" clip-path="url(#p93f5f2da6b)" style="fill: none; stroke: #b0b0b0; stroke-width: 0.5; stroke-linecap: square"/>
     </g>
     <g id="line2d_17">
      <g>
       <use xlink:href="#m1b9c3bf1c7" x="368.23114" y="253.08" style="stroke: #000000; stroke-width: 0.5"/>
      </g>
     </g>
     <g id="line2d_18">
      <g>
       <use xlink:href="#m0c3c4bbd13" x="368.23114" y="3.6" style="stroke: #000000; stroke-width: 0.5"/>
      </g>
     </g>
     <g id="text_6">
      <!-- 500 -->
      <g transform="translate(356.77864 265.698125) scale(0.12 -0.12)">
       <defs>
        <path id="DejaVuSans-35" d="M 691 4666 
L 3169 4666 
L 3169 4134 
L 1269 4134 
L 1269 2991 
Q 1406 3038 1543 3061 
Q 1681 3084 1819 3084 
Q 2600 3084 3056 2656 
Q 3513 2228 3513 1497 
Q 3513 744 3044 326 
Q 2575 -91 1722 -91 
Q 1428 -91 1123 -41 
Q 819 9 494 109 
L 494 744 
Q 775 591 1075 516 
Q 1375 441 1709 441 
Q 2250 441 2565 725 
Q 2881 1009 2881 1497 
Q 2881 1984 2565 2268 
Q 2250 2553 1709 2553 
Q 1456 2553 1204 2497 
Q 953 2441 691 2322 
L 691 4666 
z
" transform="scale(0.015625)"/>
       </defs>
       <use xlink:href="#DejaVuSans-35"/>
       <use xlink:href="#DejaVuSans-30" x="63.623047"/>
       <use xlink:href="#DejaVuSans-30" x="127.246094"/>
      </g>
     </g>
    </g>
    <g id="xtick_7">
     <g id="line2d_19">
      <defs>
       <path id="mea55d3aba8" d="M 0 0 
L 0 -1.5 
" style="stroke: #000000; stroke-width: 0.5"/>
      </defs>
      <g>
       <use xlink:href="#mea55d3aba8" x="51.058613" y="253.08" style="stroke: #000000; stroke-width: 0.5"/>
      </g>
     </g>
     <g id="line2d_20">
      <defs>
       <path id="md6636cd415" d="M 0 0 
L 0 1.5 
" style="stroke: #000000; stroke-width: 0.5"/>
      </defs>
      <g>
       <use xlink:href="#md6636cd415" x="51.058613" y="3.6" style="stroke: #000000; stroke-width: 0.5"/>
      </g>
     </g>
    </g>
    <g id="xtick_8">
     <g id="line2d_21">
      <g>
       <use xlink:href="#mea55d3aba8" x="75.4565" y="253.08" style="stroke: #000000; stroke-width: 0.5"/>
      </g>
     </g>
     <g id="line2d_22">
      <g>
       <use xlink:href="#md6636cd415" x="75.4565" y="3.6" style="stroke: #000000; stroke-width: 0.5"/>
      </g>
     </g>
    </g>
    <g id="xtick_9">
     <g id="line2d_23">
      <g>
       <use xlink:href="#mea55d3aba8" x="87.655444" y="253.08" style="stroke: #000000; stroke-width: 0.5"/>
      </g>
     </g>
     <g id="line2d_24">
      <g>
       <use xlink:href="#md6636cd415" x="87.655444" y="3.6" style="stroke: #000000; stroke-width: 0.5"/>
      </g>
     </g>
    </g>
    <g id="xtick_10">
     <g id="line2d_25">
      <g>
       <use xlink:href="#mea55d3aba8" x="99.854387" y="253.08" style="stroke: #000000; stroke-width: 0.5"/>
      </g>
     </g>
     <g id="line2d_26">
      <g>
       <use xlink:href="#md6636cd415" x="99.854387" y="3.6" style="stroke: #000000; stroke-width: 0.5"/>
      </g>
     </g>
    </g>
    <g id="xtick_11">
     <g id="line2d_27">
      <g>
       <use xlink:href="#mea55d3aba8" x="112.05333" y="253.08" style="stroke: #000000; stroke-width: 0.5"/>
      </g>
     </g>
     <g id="line2d_28">
      <g>
       <use xlink:href="#md6636cd415" x="112.05333" y="3.6" style="stroke: #000000; stroke-width: 0.5"/>
      </g>
     </g>
    </g>
    <g id="xtick_12">
     <g id="line2d_29">
      <g>
       <use xlink:href="#mea55d3aba8" x="136.451217" y="253.08" style="stroke: #000000; stroke-width: 0.5"/>
      </g>
     </g>
     <g id="line2d_30">
      <g>
       <use xlink:href="#md6636cd415" x="136.451217" y="3.6" style="stroke: #000000; stroke-width: 0.5"/>
      </g>
     </g>
    </g>
    <g id="xtick_13">
     <g id="line2d_31">
      <g>
       <use xlink:href="#mea55d3aba8" x="148.65016" y="253.08" style="stroke: #000000; stroke-width: 0.5"/>
      </g>
     </g>
     <g id="line2d_32">
      <g>
       <use xlink:href="#md6636cd415" x="148.65016" y="3.6" style="stroke: #000000; stroke-width: 0.5"/>
      </g>
     </g>
    </g>
    <g id="xtick_14">
     <g id="line2d_33">
      <g>
       <use xlink:href="#mea55d3aba8" x="160.849104" y="253.08" style="stroke: #000000; stroke-width: 0.5"/>
      </g>
     </g>
     <g id="line2d_34">
      <g>
       <use xlink:href="#md6636cd415" x="160.849104" y="3.6" style="stroke: #000000; stroke-width: 0.5"/>
      </g>
     </g>
    </g>
    <g id="xtick_15">
     <g id="line2d_35">
      <g>
       <use xlink:href="#mea55d3aba8" x="173.048047" y="253.08" style="stroke: #000000; stroke-width: 0.5"/>
      </g>
     </g>
     <g id="line2d_36">
      <g>
       <use xlink:href="#md6636cd415" x="173.048047" y="3.6" style="stroke: #000000; stroke-width: 0.5"/>
      </g>
     </g>
    </g>
    <g id="xtick_16">
     <g id="line2d_37">
      <g>
       <use xlink:href="#mea55d3aba8" x="197.445934" y="253.08" style="stroke: #000000; stroke-width: 0.5"/>
      </g>
     </g>
     <g id="line2d_38">
      <g>
       <use xlink:href="#md6636cd415" x="197.445934" y="3.6" style="stroke: #000000; stroke-width: 0.5"/>
      </g>
     </g>
    </g>
    <g id="xtick_17">
     <g id="line2d_39">
      <g>
       <use xlink:href="#mea55d3aba8" x="209.644877" y="253.08" style="stroke: #000000; stroke-width: 0.5"/>
      </g>
     </g>
     <g id="line2d_40">
      <g>
       <use xlink:href="#md6636cd415" x="209.644877" y="3.6" style="stroke: #000000; stroke-width: 0.5"/>
      </g>
     </g>
    </g>
    <g id="xtick_18">
     <g id="line2d_41">
      <g>
       <use xlink:href="#mea55d3aba8" x="221.84382" y="253.08" style="stroke: #000000; stroke-width: 0.5"/>
      </g>
     </g>
     <g id="line2d_42">
      <g>
       <use xlink:href="#md6636cd415" x="221.84382" y="3.6" style="stroke: #000000; stroke-width: 0.5"/>
      </g>
     </g>
    </g>
    <g id="xtick_19">
     <g id="line2d_43">
      <g>
       <use xlink:href="#mea55d3aba8" x="234.042764" y="253.08" style="stroke: #000000; stroke-width: 0.5"/>
      </g>
     </g>
     <g id="line2d_44">
      <g>
       <use xlink:href="#md6636cd415" x="234.042764" y="3.6" style="stroke: #000000; stroke-width: 0.5"/>
      </g>
     </g>
    </g>
    <g id="xtick_20">
     <g id="line2d_45">
      <g>
       <use xlink:href="#mea55d3aba8" x="258.44065" y="253.08" style="stroke: #000000; stroke-width: 0.5"/>
      </g>
     </g>
     <g id="line2d_46">
      <g>
       <use xlink:href="#md6636cd415" x="258.44065" y="3.6" style="stroke: #000000; stroke-width: 0.5"/>
      </g>
     </g>
    </g>
    <g id="xtick_21">
     <g id="line2d_47">
      <g>
       <use xlink:href="#mea55d3aba8" x="270.639594" y="253.08" style="stroke: #000000; stroke-width: 0.5"/>
      </g>
     </g>
     <g id="line2d_48">
      <g>
       <use xlink:href="#md6636cd415" x="270.639594" y="3.6" style="stroke: #000000; stroke-width: 0.5"/>
      </g>
     </g>
    </g>
    <g id="xtick_22">
     <g id="line2d_49">
      <g>
       <use xlink:href="#mea55d3aba8" x="282.838537" y="253.08" style="stroke: #000000; stroke-width: 0.5"/>
      </g>
     </g>
     <g id="line2d_50">
      <g>
       <use xlink:href="#md6636cd415" x="282.838537" y="3.6" style="stroke: #000000; stroke-width: 0.5"/>
      </g>
     </g>
    </g>
    <g id="xtick_23">
     <g id="line2d_51">
      <g>
       <use xlink:href="#mea55d3aba8" x="295.03748" y="253.08" style="stroke: #000000; stroke-width: 0.5"/>
      </g>
     </g>
     <g id="line2d_52">
      <g>
       <use xlink:href="#md6636cd415" x="295.03748" y="3.6" style="stroke: #000000; stroke-width: 0.5"/>
      </g>
     </g>
    </g>
    <g id="xtick_24">
     <g id="line2d_53">
      <g>
       <use xlink:href="#mea55d3aba8" x="319.435367" y="253.08" style="stroke: #000000; stroke-width: 0.5"/>
      </g>
     </g>
     <g id="line2d_54">
      <g>
       <use xlink:href="#md6636cd415" x="319.435367" y="3.6" style="stroke: #000000; stroke-width: 0.5"/>
      </g>
     </g>
    </g>
    <g id="xtick_25">
     <g id="line2d_55">
      <g>
       <use xlink:href="#mea55d3aba8" x="331.63431" y="253.08" style="stroke: #000000; stroke-width: 0.5"/>
      </g>
     </g>
     <g id="line2d_56">
      <g>
       <use xlink:href="#md6636cd415" x="331.63431" y="3.6" style="stroke: #000000; stroke-width: 0.5"/>
      </g>
     </g>
    </g>
    <g id="xtick_26">
     <g id="line2d_57">
      <g>
       <use xlink:href="#mea55d3aba8" x="343.833254" y="253.08" style="stroke: #000000; stroke-width: 0.5"/>
      </g>
     </g>
     <g id="line2d_58">
      <g>
       <use xlink:href="#md6636cd415" x="343.833254" y="3.6" style="stroke: #000000; stroke-width: 0.5"/>
      </g>
     </g>
    </g>
    <g id="xtick_27">
     <g id="line2d_59">
      <g>
       <use xlink:href="#mea55d3aba8" x="356.032197" y="253.08" style="stroke: #000000; stroke-width: 0.5"/>
      </g>
     </g>
     <g id="line2d_60">
      <g>
       <use xlink:href="#md6636cd415" x="356.032197" y="3.6" style="stroke: #000000; stroke-width: 0.5"/>
      </g>
     </g>
    </g>
    <g id="xtick_28">
     <g id="line2d_61">
      <g>
       <use xlink:href="#mea55d3aba8" x="380.430084" y="253.08" style="stroke: #000000; stroke-width: 0.5"/>
      </g>
     </g>
     <g id="line2d_62">
      <g>
       <use xlink:href="#md6636cd415" x="380.430084" y="3.6" style="stroke: #000000; stroke-width: 0.5"/>
      </g>
     </g>
    </g>
    <g id="text_7">
     <!-- Generations -->
     <g transform="translate(178.842188 281.311875) scale(0.12 -0.12)">
      <defs>
       <path id="DejaVuSans-47" d="M 3809 666 
L 3809 1919 
L 2778 1919 
L 2778 2438 
L 4434 2438 
L 4434 434 
Q 4069 175 3628 42 
Q 3188 -91 2688 -91 
Q 1594 -91 976 548 
Q 359 1188 359 2328 
Q 359 3472 976 4111 
Q 1594 4750 2688 4750 
Q 3144 4750 3555 4637 
Q 3966 4525 4313 4306 
L 4313 3634 
Q 3963 3931 3569 4081 
Q 3175 4231 2741 4231 
Q 1884 4231 1454 3753 
Q 1025 3275 1025 2328 
Q 1025 1384 1454 906 
Q 1884 428 2741 428 
Q 3075 428 3337 486 
Q 3600 544 3809 666 
z
" transform="scale(0.015625)"/>
       <path id="DejaVuSans-65" d="M 3597 1894 
L 3597 1613 
L 953 1613 
Q 991 1019 1311 708 
Q 1631 397 2203 397 
Q 2534 397 2845 478 
Q 3156 559 3463 722 
L 3463 178 
Q 3153 47 2828 -22 
Q 2503 -91 2169 -91 
Q 1331 -91 842 396 
Q 353 884 353 1716 
Q 353 2575 817 3079 
Q 1281 3584 2069 3584 
Q 2775 3584 3186 3129 
Q 3597 2675 3597 1894 
z
M 3022 2063 
Q 3016 2534 2758 2815 
Q 2500 3097 2075 3097 
Q 1594 3097 1305 2825 
Q 1016 2553 972 2059 
L 3022 2063 
z
" transform="scale(0.015625)"/>
       <path id="DejaVuSans-6e" d="M 3513 2113 
L 3513 0 
L 2938 0 
L 2938 2094 
Q 2938 2591 2744 2837 
Q 2550 3084 2163 3084 
Q 1697 3084 1428 2787 
Q 1159 2491 1159 1978 
L 1159 0 
L 581 0 
L 581 3500 
L 1159 3500 
L 1159 2956 
Q 1366 3272 1645 3428 
Q 1925 3584 2291 3584 
Q 2894 3584 3203 3211 
Q 3513 2838 3513 2113 
z
" transform="scale(0.015625)"/>
       <path id="DejaVuSans-72" d="M 2631 2963 
Q 2534 3019 2420 3045 
Q 2306 3072 2169 3072 
Q 1681 3072 1420 2755 
Q 1159 2438 1159 1844 
L 1159 0 
L 581 0 
L 581 3500 
L 1159 3500 
L 1159 2956 
Q 1341 3275 1631 3429 
Q 1922 3584 2338 3584 
Q 2397 3584 2469 3576 
Q 2541 3569 2628 3553 
L 2631 2963 
z
" transform="scale(0.015625)"/>
       <path id="DejaVuSans-61" d="M 2194 1759 
Q 1497 1759 1228 1600 
Q 959 1441 959 1056 
Q 959 750 1161 570 
Q 1363 391 1709 391 
Q 2188 391 2477 730 
Q 2766 1069 2766 1631 
L 2766 1759 
L 2194 1759 
z
M 3341 1997 
L 3341 0 
L 2766 0 
L 2766 531 
Q 2569 213 2275 61 
Q 1981 -91 1556 -91 
Q 1019 -91 701 211 
Q 384 513 384 1019 
Q 384 1609 779 1909 
Q 1175 2209 1959 2209 
L 2766 2209 
L 2766 2266 
Q 2766 2663 2505 2880 
Q 2244 3097 1772 3097 
Q 1472 3097 1187 3025 
Q 903 2953 641 2809 
L 641 3341 
Q 956 3463 1253 3523 
Q 1550 3584 1831 3584 
Q 2591 3584 2966 3190 
Q 3341 2797 3341 1997 
z
" transform="scale(0.015625)"/>
       <path id="DejaVuSans-74" d="M 1172 4494 
L 1172 3500 
L 2356 3500 
L 2356 3053 
L 1172 3053 
L 1172 1153 
Q 1172 725 1289 603 
Q 1406 481 1766 481 
L 2356 481 
L 2356 0 
L 1766 0 
Q 1100 0 847 248 
Q 594 497 594 1153 
L 594 3053 
L 172 3053 
L 172 3500 
L 594 3500 
L 594 4494 
L 1172 4494 
z
" transform="scale(0.015625)"/>
       <path id="DejaVuSans-69" d="M 603 3500 
L 1178 3500 
L 1178 0 
L 603 0 
L 603 3500 
z
M 603 4863 
L 1178 4863 
L 1178 4134 
L 603 4134 
L 603 4863 
z
" transform="scale(0.015625)"/>
       <path id="DejaVuSans-6f" d="M 1959 3097 
Q 1497 3097 1228 2736 
Q 959 2375 959 1747 
Q 959 1119 1226 758 
Q 1494 397 1959 397 
Q 2419 397 2687 759 
Q 2956 1122 2956 1747 
Q 2956 2369 2687 2733 
Q 2419 3097 1959 3097 
z
M 1959 3584 
Q 2709 3584 3137 3096 
Q 3566 2609 3566 1747 
Q 3566 888 3137 398 
Q 2709 -91 1959 -91 
Q 1206 -91 779 398 
Q 353 888 353 1747 
Q 353 2609 779 3096 
Q 1206 3584 1959 3584 
z
" transform="scale(0.015625)"/>
       <path id="DejaVuSans-73" d="M 2834 3397 
L 2834 2853 
Q 2591 2978 2328 3040 
Q 2066 3103 1784 3103 
Q 1356 3103 1142 2972 
Q 928 2841 928 2578 
Q 928 2378 1081 2264 
Q 1234 2150 1697 2047 
L 1894 2003 
Q 2506 1872 2764 1633 
Q 3022 1394 3022 966 
Q 3022 478 2636 193 
Q 2250 -91 1575 -91 
Q 1294 -91 989 -36 
Q 684 19 347 128 
L 347 722 
Q 666 556 975 473 
Q 1284 391 1588 391 
Q 1994 391 2212 530 
Q 2431 669 2431 922 
Q 2431 1156 2273 1281 
Q 2116 1406 1581 1522 
L 1381 1569 
Q 847 1681 609 1914 
Q 372 2147 372 2553 
Q 372 3047 722 3315 
Q 1072 3584 1716 3584 
Q 2034 3584 2315 3537 
Q 2597 3491 2834 3397 
z
" transform="scale(0.015625)"/>
      </defs>
      <use xlink:href="#DejaVuSans-47"/>
      <use xlink:href="#DejaVuSans-65" x="77.490234"/>
      <use xlink:href="#DejaVuSans-6e" x="139.013672"/>
      <use xlink:href="#DejaVuSans-65" x="202.392578"/>
      <use xlink:href="#DejaVuSans-72" x="263.916016"/>
      <use xlink:href="#DejaVuSans-61" x="305.029297"/>
      <use xlink:href="#DejaVuSans-74" x="366.308594"/>
      <use xlink:href="#DejaVuSans-69" x="405.517578"/>
      <use xlink:href="#DejaVuSans-6f" x="433.300781"/>
      <use xlink:href="#DejaVuSans-6e" x="494.482422"/>
      <use xlink:href="#DejaVuSans-73" x="557.861328"/>
     </g>
    </g>
   </g>
   <g id="matplotlib.axis_2">
    <g id="ytick_1">
     <g id="line2d_63">
      <path d="M 48.039375 242.67244 
L 382.839375 242.67244 
" clip-path="url(#p93f5f2da6b)" style="fill: none; stroke: #b0b0b0; stroke-width: 0.5; stroke-linecap: square"/>
     </g>
     <g id="line2d_64">
      <defs>
       <path id="mdbe15ca7fc" d="M 0 0 
L 3 0 
" style="stroke: #000000; stroke-width: 0.5"/>
      </defs>
      <g>
       <use xlink:href="#mdbe15ca7fc" x="48.039375" y="242.67244" style="stroke: #000000; stroke-width: 0.5"/>
      </g>
     </g>
     <g id="line2d_65">
      <defs>
       <path id="m47a30b72fc" d="M 0 0 
L -3 0 
" style="stroke: #000000; stroke-width: 0.5"/>
      </defs>
      <g>
       <use xlink:href="#m47a30b72fc" x="382.839375" y="242.67244" style="stroke: #000000; stroke-width: 0.5"/>
      </g>
     </g>
     <g id="text_8">
      <!-- −60 -->
      <g transform="translate(19.21375 247.231502) scale(0.12 -0.12)">
       <defs>
        <path id="DejaVuSans-2212" d="M 678 2272 
L 4684 2272 
L 4684 1741 
L 678 1741 
L 678 2272 
z
" transform="scale(0.015625)"/>
        <path id="DejaVuSans-36" d="M 2113 2584 
Q 1688 2584 1439 2293 
Q 1191 2003 1191 1497 
Q 1191 994 1439 701 
Q 1688 409 2113 409 
Q 2538 409 2786 701 
Q 3034 994 3034 1497 
Q 3034 2003 2786 2293 
Q 2538 2584 2113 2584 
z
M 3366 4563 
L 3366 3988 
Q 3128 4100 2886 4159 
Q 2644 4219 2406 4219 
Q 1781 4219 1451 3797 
Q 1122 3375 1075 2522 
Q 1259 2794 1537 2939 
Q 1816 3084 2150 3084 
Q 2853 3084 3261 2657 
Q 3669 2231 3669 1497 
Q 3669 778 3244 343 
Q 2819 -91 2113 -91 
Q 1303 -91 875 529 
Q 447 1150 447 2328 
Q 447 3434 972 4092 
Q 1497 4750 2381 4750 
Q 2619 4750 2861 4703 
Q 3103 4656 3366 4563 
z
" transform="scale(0.015625)"/>
       </defs>
       <use xlink:href="#DejaVuSans-2212"/>
       <use xlink:href="#DejaVuSans-36" x="83.789062"/>
       <use xlink:href="#DejaVuSans-30" x="147.412109"/>
      </g>
     </g>
    </g>
    <g id="ytick_2">
     <g id="line2d_66">
      <path d="M 48.039375 188.879612 
L 382.839375 188.879612 
" clip-path="url(#p93f5f2da6b)" style="fill: none; stroke: #b0b0b0; stroke-width: 0.5; stroke-linecap: square"/>
     </g>
     <g id="line2d_67">
      <g>
       <use xlink:href="#mdbe15ca7fc" x="48.039375" y="188.879612" style="stroke: #000000; stroke-width: 0.5"/>
      </g>
     </g>
     <g id="line2d_68">
      <g>
       <use xlink:href="#m47a30b72fc" x="382.839375" y="188.879612" style="stroke: #000000; stroke-width: 0.5"/>
      </g>
     </g>
     <g id="text_9">
      <!-- −40 -->
      <g transform="translate(19.21375 193.438675) scale(0.12 -0.12)">
       <use xlink:href="#DejaVuSans-2212"/>
       <use xlink:href="#DejaVuSans-34" x="83.789062"/>
       <use xlink:href="#DejaVuSans-30" x="147.412109"/>
      </g>
     </g>
    </g>
    <g id="ytick_3">
     <g id="line2d_69">
      <path d="M 48.039375 135.086785 
L 382.839375 135.086785 
" clip-path="url(#p93f5f2da6b)" style="fill: none; stroke: #b0b0b0; stroke-width: 0.5; stroke-linecap: square"/>
     </g>
     <g id="line2d_70">
      <g>
       <use xlink:href="#mdbe15ca7fc" x="48.039375" y="135.086785" style="stroke: #000000; stroke-width: 0.5"/>
      </g>
     </g>
     <g id="line2d_71">
      <g>
       <use xlink:href="#m47a30b72fc" x="382.839375" y="135.086785" style="stroke: #000000; stroke-width: 0.5"/>
      </g>
     </g>
     <g id="text_10">
      <!-- −20 -->
      <g transform="translate(19.21375 139.645847) scale(0.12 -0.12)">
       <use xlink:href="#DejaVuSans-2212"/>
       <use xlink:href="#DejaVuSans-32" x="83.789062"/>
       <use xlink:href="#DejaVuSans-30" x="147.412109"/>
      </g>
     </g>
    </g>
    <g id="ytick_4">
     <g id="line2d_72">
      <path d="M 48.039375 81.293957 
L 382.839375 81.293957 
" clip-path="url(#p93f5f2da6b)" style="fill: none; stroke: #b0b0b0; stroke-width: 0.5; stroke-linecap: square"/>
     </g>
     <g id="line2d_73">
      <g>
       <use xlink:href="#mdbe15ca7fc" x="48.039375" y="81.293957" style="stroke: #000000; stroke-width: 0.5"/>
      </g>
     </g>
     <g id="line2d_74">
      <g>
       <use xlink:href="#m47a30b72fc" x="382.839375" y="81.293957" style="stroke: #000000; stroke-width: 0.5"/>
      </g>
     </g>
     <g id="text_11">
      <!-- 0 -->
      <g transform="translate(36.904375 85.85302) scale(0.12 -0.12)">
       <use xlink:href="#DejaVuSans-30"/>
      </g>
     </g>
    </g>
    <g id="ytick_5">
     <g id="line2d_75">
      <path d="M 48.039375 27.50113 
L 382.839375 27.50113 
" clip-path="url(#p93f5f2da6b)" style="fill: none; stroke: #b0b0b0; stroke-width: 0.5; stroke-linecap: square"/>
     </g>
     <g id="line2d_76">
      <g>
       <use xlink:href="#mdbe15ca7fc" x="48.039375" y="27.50113" style="stroke: #000000; stroke-width: 0.5"/>
      </g>
     </g>
     <g id="line2d_77">
      <g>
       <use xlink:href="#m47a30b72fc" x="382.839375" y="27.50113" style="stroke: #000000; stroke-width: 0.5"/>
      </g>
     </g>
     <g id="text_12">
      <!-- 20 -->
      <g transform="translate(29.269375 32.060192) scale(0.12 -0.12)">
       <use xlink:href="#DejaVuSans-32"/>
       <use xlink:href="#DejaVuSans-30" x="63.623047"/>
      </g>
     </g>
    </g>
    <g id="ytick_6">
     <g id="line2d_78">
      <defs>
       <path id="m752b2db308" d="M 0 0 
L 1.5 0 
" style="stroke: #000000; stroke-width: 0.5"/>
      </defs>
      <g>
       <use xlink:href="#m752b2db308" x="48.039375" y="229.224233" style="stroke: #000000; stroke-width: 0.5"/>
      </g>
     </g>
     <g id="line2d_79">
      <defs>
       <path id="me155877f17" d="M 0 0 
L -1.5 0 
" style="stroke: #000000; stroke-width: 0.5"/>
      </defs>
      <g>
       <use xlink:href="#me155877f17" x="382.839375" y="229.224233" style="stroke: #000000; stroke-width: 0.5"/>
      </g>
     </g>
    </g>
    <g id="ytick_7">
     <g id="line2d_80">
      <g>
       <use xlink:href="#m752b2db308" x="48.039375" y="215.776026" style="stroke: #000000; stroke-width: 0.5"/>
      </g>
     </g>
     <g id="line2d_81">
      <g>
       <use xlink:href="#me155877f17" x="382.839375" y="215.776026" style="stroke: #000000; stroke-width: 0.5"/>
      </g>
     </g>
    </g>
    <g id="ytick_8">
     <g id="line2d_82">
      <g>
       <use xlink:href="#m752b2db308" x="48.039375" y="202.327819" style="stroke: #000000; stroke-width: 0.5"/>
      </g>
     </g>
     <g id="line2d_83">
      <g>
       <use xlink:href="#me155877f17" x="382.839375" y="202.327819" style="stroke: #000000; stroke-width: 0.5"/>
      </g>
     </g>
    </g>
    <g id="ytick_9">
     <g id="line2d_84">
      <g>
       <use xlink:href="#m752b2db308" x="48.039375" y="175.431406" style="stroke: #000000; stroke-width: 0.5"/>
      </g>
     </g>
     <g id="line2d_85">
      <g>
       <use xlink:href="#me155877f17" x="382.839375" y="175.431406" style="stroke: #000000; stroke-width: 0.5"/>
      </g>
     </g>
    </g>
    <g id="ytick_10">
     <g id="line2d_86">
      <g>
       <use xlink:href="#m752b2db308" x="48.039375" y="161.983199" style="stroke: #000000; stroke-width: 0.5"/>
      </g>
     </g>
     <g id="line2d_87">
      <g>
       <use xlink:href="#me155877f17" x="382.839375" y="161.983199" style="stroke: #000000; stroke-width: 0.5"/>
      </g>
     </g>
    </g>
    <g id="ytick_11">
     <g id="line2d_88">
      <g>
       <use xlink:href="#m752b2db308" x="48.039375" y="148.534992" style="stroke: #000000; stroke-width: 0.5"/>
      </g>
     </g>
     <g id="line2d_89">
      <g>
       <use xlink:href="#me155877f17" x="382.839375" y="148.534992" style="stroke: #000000; stroke-width: 0.5"/>
      </g>
     </g>
    </g>
    <g id="ytick_12">
     <g id="line2d_90">
      <g>
       <use xlink:href="#m752b2db308" x="48.039375" y="121.638578" style="stroke: #000000; stroke-width: 0.5"/>
      </g>
     </g>
     <g id="line2d_91">
      <g>
       <use xlink:href="#me155877f17" x="382.839375" y="121.638578" style="stroke: #000000; stroke-width: 0.5"/>
      </g>
     </g>
    </g>
    <g id="ytick_13">
     <g id="line2d_92">
      <g>
       <use xlink:href="#m752b2db308" x="48.039375" y="108.190371" style="stroke: #000000; stroke-width: 0.5"/>
      </g>
     </g>
     <g id="line2d_93">
      <g>
       <use xlink:href="#me155877f17" x="382.839375" y="108.190371" style="stroke: #000000; stroke-width: 0.5"/>
      </g>
     </g>
    </g>
    <g id="ytick_14">
     <g id="line2d_94">
      <g>
       <use xlink:href="#m752b2db308" x="48.039375" y="94.742164" style="stroke: #000000; stroke-width: 0.5"/>
      </g>
     </g>
     <g id="line2d_95">
      <g>
       <use xlink:href="#me155877f17" x="382.839375" y="94.742164" style="stroke: #000000; stroke-width: 0.5"/>
      </g>
     </g>
    </g>
    <g id="ytick_15">
     <g id="line2d_96">
      <g>
       <use xlink:href="#m752b2db308" x="48.039375" y="67.845751" style="stroke: #000000; stroke-width: 0.5"/>
      </g>
     </g>
     <g id="line2d_97">
      <g>
       <use xlink:href="#me155877f17" x="382.839375" y="67.845751" style="stroke: #000000; stroke-width: 0.5"/>
      </g>
     </g>
    </g>
    <g id="ytick_16">
     <g id="line2d_98">
      <g>
       <use xlink:href="#m752b2db308" x="48.039375" y="54.397544" style="stroke: #000000; stroke-width: 0.5"/>
      </g>
     </g>
     <g id="line2d_99">
      <g>
       <use xlink:href="#me155877f17" x="382.839375" y="54.397544" style="stroke: #000000; stroke-width: 0.5"/>
      </g>
     </g>
    </g>
    <g id="ytick_17">
     <g id="line2d_100">
      <g>
       <use xlink:href="#m752b2db308" x="48.039375" y="40.949337" style="stroke: #000000; stroke-width: 0.5"/>
      </g>
     </g>
     <g id="line2d_101">
      <g>
       <use xlink:href="#me155877f17" x="382.839375" y="40.949337" style="stroke: #000000; stroke-width: 0.5"/>
      </g>
     </g>
    </g>
    <g id="ytick_18">
     <g id="line2d_102">
      <g>
       <use xlink:href="#m752b2db308" x="48.039375" y="14.052923" style="stroke: #000000; stroke-width: 0.5"/>
      </g>
     </g>
     <g id="line2d_103">
      <g>
       <use xlink:href="#me155877f17" x="382.839375" y="14.052923" style="stroke: #000000; stroke-width: 0.5"/>
      </g>
     </g>
    </g>
    <g id="text_13">
     <!-- Fitness -->
     <g transform="translate(12.718125 149.120625) rotate(-90) scale(0.12 -0.12)">
      <defs>
       <path id="DejaVuSans-46" d="M 628 4666 
L 3309 4666 
L 3309 4134 
L 1259 4134 
L 1259 2759 
L 3109 2759 
L 3109 2228 
L 1259 2228 
L 1259 0 
L 628 0 
L 628 4666 
z
" transform="scale(0.015625)"/>
      </defs>
      <use xlink:href="#DejaVuSans-46"/>
      <use xlink:href="#DejaVuSans-69" x="50.269531"/>
      <use xlink:href="#DejaVuSans-74" x="78.052734"/>
      <use xlink:href="#DejaVuSans-6e" x="117.261719"/>
      <use xlink:href="#DejaVuSans-65" x="180.640625"/>
      <use xlink:href="#DejaVuSans-73" x="242.164062"/>
      <use xlink:href="#DejaVuSans-73" x="294.263672"/>
     </g>
    </g>
   </g>
   <g id="line2d_104">
    <path d="M 63.257557 43.520908 
L 63.867504 36.662109 
L 72.406764 36.66213 
L 73.016711 29.850045 
L 74.846553 29.850037 
L 75.4565 28.609015 
L 76.676394 28.609009 
L 77.286342 25.960606 
L 77.896289 21.965716 
L 79.116183 21.965696 
L 79.72613 20.387497 
L 82.165919 20.387489 
L 82.775866 19.895206 
L 83.99576 19.804152 
L 84.605708 19.321343 
L 85.825602 19.321349 
L 86.435549 18.600865 
L 90.705179 18.60076 
L 91.315127 17.909991 
L 91.925074 17.566254 
L 96.194704 17.512729 
L 96.804651 17.26824 
L 101.684228 17.268169 
L 102.294176 17.004955 
L 115.713013 16.89383 
L 116.32296 16.827219 
L 117.542855 16.182705 
L 126.692062 16.182686 
L 127.302009 15.926228 
L 128.521904 15.816408 
L 149.260107 15.760293 
L 149.870055 15.436802 
L 180.97736 15.343904 
L 182.807202 15.305983 
L 291.377797 15.299273 
L 291.987744 15.18303 
L 312.116001 15.110028 
L 313.335895 15.020538 
L 367.621193 14.94 
L 367.621193 14.94 
" clip-path="url(#p93f5f2da6b)" style="fill: none; stroke: #000000; stroke-linecap: square"/>
   </g>
   <g id="line2d_105">
    <path d="M 63.257557 29.428469 
L 367.621193 29.428469 
L 367.621193 29.428469 
" clip-path="url(#p93f5f2da6b)" style="fill: none; stroke-dasharray: 3.7,1.6; stroke-dashoffset: 0; stroke: #000000"/>
   </g>
   <g id="patch_3">
    <path d="M 48.039375 253.08 
L 48.039375 3.6 
" style="fill: none; stroke: #000000; stroke-width: 0.5; stroke-linejoin: miter; stroke-linecap: square"/>
   </g>
   <g id="patch_4">
    <path d="M 382.839375 253.08 
L 382.839375 3.6 
" style="fill: none; stroke: #000000; stroke-width: 0.5; stroke-linejoin: miter; stroke-linecap: square"/>
   </g>
   <g id="patch_5">
    <path d="M 48.039375 253.08 
L 382.839375 253.08 
" style="fill: none; stroke: #000000; stroke-width: 0.5; stroke-linejoin: miter; stroke-linecap: square"/>
   </g>
   <g id="patch_6">
    <path d="M 48.039375 3.6 
L 382.839375 3.6 
" style="fill: none; stroke: #000000; stroke-width: 0.5; stroke-linejoin: miter; stroke-linecap: square"/>
   </g>
   <g id="legend_1">
    <g id="patch_7">
     <path d="M 253.92 247.08 
L 374.439375 247.08 
Q 376.839375 247.08 376.839375 244.68 
L 376.839375 193.03875 
Q 376.839375 190.63875 374.439375 190.63875 
L 253.92 190.63875 
Q 251.52 190.63875 251.52 193.03875 
L 251.52 244.68 
Q 251.52 247.08 253.92 247.08 
z
" style="fill: #ffffff; opacity: 0.8; stroke: #cccccc; stroke-linejoin: miter"/>
    </g>
    <g id="line2d_106">
     <path d="M 256.32 200.356875 
L 268.32 200.356875 
L 280.32 200.356875 
" style="fill: none; stroke: #000000; stroke-linecap: square"/>
    </g>
    <g id="text_14">
     <!-- Best fitness -->
     <g transform="translate(289.92 204.556875) scale(0.12 -0.12)">
      <defs>
       <path id="DejaVuSans-42" d="M 1259 2228 
L 1259 519 
L 2272 519 
Q 2781 519 3026 730 
Q 3272 941 3272 1375 
Q 3272 1813 3026 2020 
Q 2781 2228 2272 2228 
L 1259 2228 
z
M 1259 4147 
L 1259 2741 
L 2194 2741 
Q 2656 2741 2882 2914 
Q 3109 3088 3109 3444 
Q 3109 3797 2882 3972 
Q 2656 4147 2194 4147 
L 1259 4147 
z
M 628 4666 
L 2241 4666 
Q 2963 4666 3353 4366 
Q 3744 4066 3744 3513 
Q 3744 3084 3544 2831 
Q 3344 2578 2956 2516 
Q 3422 2416 3680 2098 
Q 3938 1781 3938 1306 
Q 3938 681 3513 340 
Q 3088 0 2303 0 
L 628 0 
L 628 4666 
z
" transform="scale(0.015625)"/>
       <path id="DejaVuSans-20" transform="scale(0.015625)"/>
       <path id="DejaVuSans-66" d="M 2375 4863 
L 2375 4384 
L 1825 4384 
Q 1516 4384 1395 4259 
Q 1275 4134 1275 3809 
L 1275 3500 
L 2222 3500 
L 2222 3053 
L 1275 3053 
L 1275 0 
L 697 0 
L 697 3053 
L 147 3053 
L 147 3500 
L 697 3500 
L 697 3744 
Q 697 4328 969 4595 
Q 1241 4863 1831 4863 
L 2375 4863 
z
" transform="scale(0.015625)"/>
      </defs>
      <use xlink:href="#DejaVuSans-42"/>
      <use xlink:href="#DejaVuSans-65" x="68.603516"/>
      <use xlink:href="#DejaVuSans-73" x="130.126953"/>
      <use xlink:href="#DejaVuSans-74" x="182.226562"/>
      <use xlink:href="#DejaVuSans-20" x="221.435547"/>
      <use xlink:href="#DejaVuSans-66" x="253.222656"/>
      <use xlink:href="#DejaVuSans-69" x="288.427734"/>
      <use xlink:href="#DejaVuSans-74" x="316.210938"/>
      <use xlink:href="#DejaVuSans-6e" x="355.419922"/>
      <use xlink:href="#DejaVuSans-65" x="418.798828"/>
      <use xlink:href="#DejaVuSans-73" x="480.322266"/>
      <use xlink:href="#DejaVuSans-73" x="532.421875"/>
     </g>
    </g>
    <g id="patch_8">
     <path d="M 256.32 222.170625 
L 280.32 222.170625 
L 280.32 213.770625 
L 256.32 213.770625 
z
" style="fill: #0000ff; fill-opacity: 0.2; stroke: #0000ff; stroke-opacity: 0.2; stroke-linejoin: miter"/>
    </g>
    <g id="text_15">
     <!-- Top 90% -->
     <g transform="translate(289.92 222.170625) scale(0.12 -0.12)">
      <defs>
       <path id="DejaVuSans-54" d="M -19 4666 
L 3928 4666 
L 3928 4134 
L 2272 4134 
L 2272 0 
L 1638 0 
L 1638 4134 
L -19 4134 
L -19 4666 
z
" transform="scale(0.015625)"/>
       <path id="DejaVuSans-70" d="M 1159 525 
L 1159 -1331 
L 581 -1331 
L 581 3500 
L 1159 3500 
L 1159 2969 
Q 1341 3281 1617 3432 
Q 1894 3584 2278 3584 
Q 2916 3584 3314 3078 
Q 3713 2572 3713 1747 
Q 3713 922 3314 415 
Q 2916 -91 2278 -91 
Q 1894 -91 1617 61 
Q 1341 213 1159 525 
z
M 3116 1747 
Q 3116 2381 2855 2742 
Q 2594 3103 2138 3103 
Q 1681 3103 1420 2742 
Q 1159 2381 1159 1747 
Q 1159 1113 1420 752 
Q 1681 391 2138 391 
Q 2594 391 2855 752 
Q 3116 1113 3116 1747 
z
" transform="scale(0.015625)"/>
       <path id="DejaVuSans-39" d="M 703 97 
L 703 672 
Q 941 559 1184 500 
Q 1428 441 1663 441 
Q 2288 441 2617 861 
Q 2947 1281 2994 2138 
Q 2813 1869 2534 1725 
Q 2256 1581 1919 1581 
Q 1219 1581 811 2004 
Q 403 2428 403 3163 
Q 403 3881 828 4315 
Q 1253 4750 1959 4750 
Q 2769 4750 3195 4129 
Q 3622 3509 3622 2328 
Q 3622 1225 3098 567 
Q 2575 -91 1691 -91 
Q 1453 -91 1209 -44 
Q 966 3 703 97 
z
M 1959 2075 
Q 2384 2075 2632 2365 
Q 2881 2656 2881 3163 
Q 2881 3666 2632 3958 
Q 2384 4250 1959 4250 
Q 1534 4250 1286 3958 
Q 1038 3666 1038 3163 
Q 1038 2656 1286 2365 
Q 1534 2075 1959 2075 
z
" transform="scale(0.015625)"/>
       <path id="DejaVuSans-25" d="M 4653 2053 
Q 4381 2053 4226 1822 
Q 4072 1591 4072 1178 
Q 4072 772 4226 539 
Q 4381 306 4653 306 
Q 4919 306 5073 539 
Q 5228 772 5228 1178 
Q 5228 1588 5073 1820 
Q 4919 2053 4653 2053 
z
M 4653 2450 
Q 5147 2450 5437 2106 
Q 5728 1763 5728 1178 
Q 5728 594 5436 251 
Q 5144 -91 4653 -91 
Q 4153 -91 3862 251 
Q 3572 594 3572 1178 
Q 3572 1766 3864 2108 
Q 4156 2450 4653 2450 
z
M 1428 4353 
Q 1159 4353 1004 4120 
Q 850 3888 850 3481 
Q 850 3069 1003 2837 
Q 1156 2606 1428 2606 
Q 1700 2606 1854 2837 
Q 2009 3069 2009 3481 
Q 2009 3884 1853 4118 
Q 1697 4353 1428 4353 
z
M 4250 4750 
L 4750 4750 
L 1831 -91 
L 1331 -91 
L 4250 4750 
z
M 1428 4750 
Q 1922 4750 2215 4408 
Q 2509 4066 2509 3481 
Q 2509 2891 2217 2550 
Q 1925 2209 1428 2209 
Q 931 2209 642 2551 
Q 353 2894 353 3481 
Q 353 4063 643 4406 
Q 934 4750 1428 4750 
z
" transform="scale(0.015625)"/>
      </defs>
      <use xlink:href="#DejaVuSans-54"/>
      <use xlink:href="#DejaVuSans-6f" x="44.083984"/>
      <use xlink:href="#DejaVuSans-70" x="105.265625"/>
      <use xlink:href="#DejaVuSans-20" x="168.742188"/>
      <use xlink:href="#DejaVuSans-39" x="200.529297"/>
      <use xlink:href="#DejaVuSans-30" x="264.152344"/>
      <use xlink:href="#DejaVuSans-25" x="327.775391"/>
     </g>
    </g>
    <g id="line2d_107">
     <path d="M 256.32 235.584375 
L 268.32 235.584375 
L 280.32 235.584375 
" style="fill: none; stroke-dasharray: 3.7,1.6; stroke-dashoffset: 0; stroke: #000000"/>
    </g>
    <g id="text_16">
     <!-- 180mm Quad -->
     <g transform="translate(289.92 239.784375) scale(0.12 -0.12)">
      <defs>
       <path id="DejaVuSans-38" d="M 2034 2216 
Q 1584 2216 1326 1975 
Q 1069 1734 1069 1313 
Q 1069 891 1326 650 
Q 1584 409 2034 409 
Q 2484 409 2743 651 
Q 3003 894 3003 1313 
Q 3003 1734 2745 1975 
Q 2488 2216 2034 2216 
z
M 1403 2484 
Q 997 2584 770 2862 
Q 544 3141 544 3541 
Q 544 4100 942 4425 
Q 1341 4750 2034 4750 
Q 2731 4750 3128 4425 
Q 3525 4100 3525 3541 
Q 3525 3141 3298 2862 
Q 3072 2584 2669 2484 
Q 3125 2378 3379 2068 
Q 3634 1759 3634 1313 
Q 3634 634 3220 271 
Q 2806 -91 2034 -91 
Q 1263 -91 848 271 
Q 434 634 434 1313 
Q 434 1759 690 2068 
Q 947 2378 1403 2484 
z
M 1172 3481 
Q 1172 3119 1398 2916 
Q 1625 2713 2034 2713 
Q 2441 2713 2670 2916 
Q 2900 3119 2900 3481 
Q 2900 3844 2670 4047 
Q 2441 4250 2034 4250 
Q 1625 4250 1398 4047 
Q 1172 3844 1172 3481 
z
" transform="scale(0.015625)"/>
       <path id="DejaVuSans-6d" d="M 3328 2828 
Q 3544 3216 3844 3400 
Q 4144 3584 4550 3584 
Q 5097 3584 5394 3201 
Q 5691 2819 5691 2113 
L 5691 0 
L 5113 0 
L 5113 2094 
Q 5113 2597 4934 2840 
Q 4756 3084 4391 3084 
Q 3944 3084 3684 2787 
Q 3425 2491 3425 1978 
L 3425 0 
L 2847 0 
L 2847 2094 
Q 2847 2600 2669 2842 
Q 2491 3084 2119 3084 
Q 1678 3084 1418 2786 
Q 1159 2488 1159 1978 
L 1159 0 
L 581 0 
L 581 3500 
L 1159 3500 
L 1159 2956 
Q 1356 3278 1631 3431 
Q 1906 3584 2284 3584 
Q 2666 3584 2933 3390 
Q 3200 3197 3328 2828 
z
" transform="scale(0.015625)"/>
       <path id="DejaVuSans-51" d="M 2522 4238 
Q 1834 4238 1429 3725 
Q 1025 3213 1025 2328 
Q 1025 1447 1429 934 
Q 1834 422 2522 422 
Q 3209 422 3611 934 
Q 4013 1447 4013 2328 
Q 4013 3213 3611 3725 
Q 3209 4238 2522 4238 
z
M 3406 84 
L 4238 -825 
L 3475 -825 
L 2784 -78 
Q 2681 -84 2626 -87 
Q 2572 -91 2522 -91 
Q 1538 -91 948 567 
Q 359 1225 359 2328 
Q 359 3434 948 4092 
Q 1538 4750 2522 4750 
Q 3503 4750 4090 4092 
Q 4678 3434 4678 2328 
Q 4678 1516 4351 937 
Q 4025 359 3406 84 
z
" transform="scale(0.015625)"/>
       <path id="DejaVuSans-75" d="M 544 1381 
L 544 3500 
L 1119 3500 
L 1119 1403 
Q 1119 906 1312 657 
Q 1506 409 1894 409 
Q 2359 409 2629 706 
Q 2900 1003 2900 1516 
L 2900 3500 
L 3475 3500 
L 3475 0 
L 2900 0 
L 2900 538 
Q 2691 219 2414 64 
Q 2138 -91 1772 -91 
Q 1169 -91 856 284 
Q 544 659 544 1381 
z
M 1991 3584 
L 1991 3584 
z
" transform="scale(0.015625)"/>
       <path id="DejaVuSans-64" d="M 2906 2969 
L 2906 4863 
L 3481 4863 
L 3481 0 
L 2906 0 
L 2906 525 
Q 2725 213 2448 61 
Q 2172 -91 1784 -91 
Q 1150 -91 751 415 
Q 353 922 353 1747 
Q 353 2572 751 3078 
Q 1150 3584 1784 3584 
Q 2172 3584 2448 3432 
Q 2725 3281 2906 2969 
z
M 947 1747 
Q 947 1113 1208 752 
Q 1469 391 1925 391 
Q 2381 391 2643 752 
Q 2906 1113 2906 1747 
Q 2906 2381 2643 2742 
Q 2381 3103 1925 3103 
Q 1469 3103 1208 2742 
Q 947 2381 947 1747 
z
" transform="scale(0.015625)"/>
      </defs>
      <use xlink:href="#DejaVuSans-31"/>
      <use xlink:href="#DejaVuSans-38" x="63.623047"/>
      <use xlink:href="#DejaVuSans-30" x="127.246094"/>
      <use xlink:href="#DejaVuSans-6d" x="190.869141"/>
      <use xlink:href="#DejaVuSans-6d" x="288.28125"/>
      <use xlink:href="#DejaVuSans-20" x="385.693359"/>
      <use xlink:href="#DejaVuSans-51" x="417.480469"/>
      <use xlink:href="#DejaVuSans-75" x="496.191406"/>
      <use xlink:href="#DejaVuSans-61" x="559.570312"/>
      <use xlink:href="#DejaVuSans-64" x="620.849609"/>
     </g>
    </g>
   </g>
  </g>
 </g>
 <defs>
  <clipPath id="p93f5f2da6b">
   <rect x="48.039375" y="3.6" width="334.8" height="249.48"/>
  </clipPath>
 </defs>
</svg>
