<?xml version="1.0" encoding="utf-8" standalone="no"?>
<!DOCTYPE svg PUBLIC "-//W3C//DTD SVG 1.1//EN"
  "http://www.w3.org/Graphics/SVG/1.1/DTD/svg11.dtd">
<svg xmlns:xlink="http://www.w3.org/1999/xlink" width="394.074375pt" height="287.4075pt" viewBox="0 0 394.074375 287.4075" xmlns="http://www.w3.org/2000/svg" version="1.1">
 <metadata>
  <rdf:RDF xmlns:dc="http://purl.org/dc/elements/1.1/" xmlns:cc="http://creativecommons.org/ns#" xmlns:rdf="http://www.w3.org/1999/02/22-rdf-syntax-ns#">
   <cc:Work>
    <dc:type rdf:resource="http://purl.org/dc/dcmitype/StillImage"/>
    <dc:date>2024-06-05T09:16:45.964729</dc:date>
    <dc:format>image/svg+xml</dc:format>
    <dc:creator>
     <cc:Agent>
      <dc:title>Matplotlib v3.9.0, https://matplotlib.org/</dc:title>
     </cc:Agent>
    </dc:creator>
   </cc:Work>
  </rdf:RDF>
 </metadata>
 <defs>
  <style type="text/css">*{stroke-linejoin: round; stroke-linecap: butt}</style>
 </defs>
 <g id="figure_1">
  <g id="patch_1">
   <path d="M 0 287.4075 
L 394.074375 287.4075 
L 394.074375 0 
L 0 0 
z
" style="fill: #ffffff"/>
  </g>
  <g id="axes_1">
   <g id="patch_2">
    <path d="M 55.674375 253.08 
L 390.474375 253.08 
L 390.474375 3.6 
L 55.674375 3.6 
z
" style="fill: #ffffff"/>
   </g>
   <g id="PolyCollection_1">
    <defs>
     <path id="md28baf405f" d="M 70.892557 -257.408777 
L 70.892557 -171.924945 
L 71.502504 -152.971001 
L 72.112451 -160.016559 
L 72.722398 -157.822379 
L 73.332345 -169.590571 
L 73.942293 -173.566976 
L 74.55224 -182.157785 
L 75.162187 -174.37159 
L 75.772134 -167.285753 
L 76.382081 -190.787541 
L 76.992028 -189.978033 
L 77.601976 -204.182649 
L 78.211923 -196.618745 
L 78.82187 -194.302461 
L 79.431817 -201.125563 
L 80.041764 -184.436146 
L 80.651711 -190.972637 
L 81.261659 -187.146033 
L 81.871606 -202.871822 
L 82.481553 -205.641566 
L 83.0915 -206.952078 
L 83.701447 -206.278512 
L 84.311394 -201.250819 
L 84.921342 -205.269883 
L 85.531289 -201.8328 
L 86.141236 -208.610728 
L 86.751183 -207.408536 
L 87.36113 -209.326423 
L 87.971077 -209.326423 
L 88.581025 -208.112712 
L 89.190972 -208.058535 
L 89.800919 -211.991742 
L 90.410866 -214.539112 
L 91.020813 -215.954494 
L 91.63076 -217.128894 
L 92.240708 -218.204505 
L 92.850655 -214.850027 
L 93.460602 -216.19894 
L 94.070549 -216.369216 
L 94.680496 -217.464503 
L 95.290444 -220.155103 
L 95.900391 -220.080476 
L 96.510338 -220.035235 
L 97.120285 -221.28087 
L 97.730232 -221.28087 
L 98.340179 -221.28087 
L 98.950127 -222.68848 
L 99.560074 -235.676127 
L 100.170021 -241.727331 
L 100.779968 -251.875082 
L 101.389915 -261.672311 
L 101.999862 -263.972612 
L 102.60981 -264.090499 
L 103.219757 -264.733113 
L 103.829704 -265.007382 
L 104.439651 -266.101544 
L 105.049598 -266.133284 
L 105.659545 -267.535031 
L 106.269493 -266.92191 
L 106.87944 -266.221749 
L 107.489387 -266.4343 
L 108.099334 -266.774423 
L 108.709281 -267.019373 
L 109.319228 -267.418991 
L 109.929176 -267.474558 
L 110.539123 -267.365091 
L 111.14907 -268.13244 
L 111.759017 -267.365091 
L 112.368964 -267.18842 
L 112.978911 -267.862311 
L 113.588859 -267.424244 
L 114.198806 -266.673289 
L 114.808753 -266.470513 
L 115.4187 -266.420467 
L 116.028647 -266.719896 
L 116.638594 -268.469354 
L 117.248542 -268.224168 
L 117.858489 -267.76737 
L 118.468436 -266.933417 
L 119.078383 -267.329101 
L 119.68833 -267.031599 
L 120.298277 -266.208358 
L 120.908225 -266.620097 
L 121.518172 -266.937628 
L 122.128119 -267.423577 
L 122.738066 -266.488865 
L 123.348013 -266.665666 
L 123.95796 -266.950409 
L 124.567908 -266.665661 
L 125.177855 -267.231659 
L 125.787802 -267.492326 
L 126.397749 -267.492336 
L 127.007696 -267.331256 
L 127.617643 -267.624861 
L 128.227591 -267.010395 
L 128.837538 -267.087239 
L 129.447485 -267.284586 
L 130.057432 -267.58145 
L 130.667379 -266.839752 
L 131.277326 -266.268452 
L 131.887274 -266.385824 
L 132.497221 -266.184349 
L 133.107168 -264.737022 
L 133.717115 -265.616486 
L 134.327062 -265.239673 
L 134.937009 -266.621174 
L 135.546957 -267.136426 
L 136.156904 -268.025895 
L 136.766851 -267.814747 
L 137.376798 -268.225312 
L 137.986745 -268.347467 
L 138.596692 -268.377204 
L 139.20664 -268.290762 
L 139.816587 -268.174536 
L 140.426534 -268.214366 
L 141.036481 -268.245555 
L 141.646428 -269.088858 
L 142.256375 -269.143408 
L 142.866323 -269.506605 
L 143.47627 -269.397186 
L 144.086217 -269.506179 
L 144.696164 -269.55886 
L 145.306111 -269.126597 
L 145.916058 -270.178091 
L 146.526006 -269.755401 
L 147.135953 -269.84625 
L 147.7459 -270.004286 
L 148.355847 -270.033684 
L 148.965794 -269.572631 
L 149.575741 -268.264979 
L 150.185689 -268.832578 
L 150.795636 -268.832573 
L 151.405583 -269.006847 
L 152.01553 -268.625959 
L 152.625477 -268.838406 
L 153.235424 -269.006845 
L 153.845372 -269.06761 
L 154.455319 -269.261818 
L 155.065266 -269.975551 
L 155.675213 -268.406017 
L 156.28516 -268.05715 
L 156.895107 -268.373445 
L 157.505055 -268.971807 
L 158.115002 -268.528202 
L 158.724949 -268.211183 
L 159.334896 -268.347244 
L 159.944843 -268.864679 
L 160.55479 -269.30599 
L 161.164738 -269.789344 
L 161.774685 -270.001644 
L 162.384632 -270.163053 
L 162.994579 -269.953709 
L 163.604526 -269.548791 
L 164.214473 -270.1396 
L 164.824421 -270.196908 
L 165.434368 -270.309205 
L 166.044315 -270.476593 
L 166.654262 -270.896914 
L 167.264209 -270.10313 
L 167.874156 -269.97883 
L 168.484104 -269.988308 
L 169.094051 -270.42455 
L 169.703998 -270.575238 
L 170.313945 -270.858079 
L 170.923892 -270.641699 
L 171.533839 -270.621705 
L 172.143787 -270.493311 
L 172.753734 -270.508639 
L 173.363681 -271.384247 
L 173.973628 -270.850446 
L 174.583575 -270.771422 
L 175.193522 -270.700391 
L 175.80347 -270.101204 
L 176.413417 -268.642242 
L 177.023364 -268.748618 
L 177.633311 -268.513262 
L 178.243258 -268.668347 
L 178.853205 -269.999538 
L 179.463153 -270.051225 
L 180.0731 -270.34813 
L 180.683047 -270.172955 
L 181.292994 -270.531177 
L 181.902941 -270.531168 
L 182.512888 -270.36053 
L 183.122836 -269.750522 
L 183.732783 -270.101796 
L 184.34273 -270.101788 
L 184.952677 -270.101792 
L 185.562624 -270.711115 
L 186.172571 -270.5585 
L 186.782519 -270.452723 
L 187.392466 -270.531165 
L 188.002413 -270.18915 
L 188.61236 -270.004892 
L 189.222307 -269.698292 
L 189.832254 -269.984026 
L 190.442202 -270.039895 
L 191.052149 -270.103716 
L 191.662096 -269.871875 
L 192.272043 -269.92243 
L 192.88199 -268.823006 
L 193.491937 -268.420271 
L 194.101885 -269.944411 
L 194.711832 -270.008739 
L 195.321779 -270.449806 
L 195.931726 -269.47486 
L 196.541673 -269.723673 
L 197.15162 -269.742755 
L 197.761568 -269.956449 
L 198.371515 -270.55366 
L 198.981462 -271.144799 
L 199.591409 -270.128543 
L 200.201356 -270.98274 
L 200.811303 -270.387995 
L 201.421251 -270.093429 
L 202.031198 -270.105329 
L 202.641145 -270.817192 
L 203.251092 -270.105323 
L 203.861039 -269.448568 
L 204.470986 -269.917986 
L 205.080934 -270.208654 
L 205.690881 -270.177751 
L 206.300828 -268.894887 
L 206.910775 -268.323701 
L 207.520722 -269.061921 
L 208.130669 -269.226047 
L 208.740617 -269.668885 
L 209.350564 -269.778963 
L 209.960511 -269.418962 
L 210.570458 -269.553468 
L 211.180405 -269.447868 
L 211.790352 -269.747006 
L 212.4003 -268.880898 
L 213.010247 -268.41529 
L 213.620194 -268.542647 
L 214.230141 -268.809261 
L 214.840088 -269.243738 
L 215.450035 -268.948861 
L 216.059983 -269.343927 
L 216.66993 -269.219028 
L 217.279877 -268.534999 
L 217.889824 -268.793389 
L 218.499771 -268.967308 
L 219.109718 -268.886433 
L 219.719666 -270.091983 
L 220.329613 -270.056705 
L 220.93956 -269.779247 
L 221.549507 -269.955762 
L 222.159454 -269.75505 
L 222.769401 -270.021067 
L 223.379349 -270.207752 
L 223.989296 -270.312317 
L 224.599243 -269.882859 
L 225.20919 -270.310429 
L 225.819137 -269.929661 
L 226.429084 -269.929674 
L 227.039032 -269.929659 
L 227.648979 -269.929672 
L 228.258926 -270.22751 
L 228.868873 -270.078775 
L 229.47882 -269.849809 
L 230.088767 -270.476607 
L 230.698715 -270.677149 
L 231.308662 -270.607591 
L 231.918609 -269.83221 
L 232.528556 -268.805056 
L 233.138503 -268.834726 
L 233.74845 -268.544421 
L 234.358398 -269.759646 
L 234.968345 -269.513655 
L 235.578292 -269.928596 
L 236.188239 -269.803957 
L 236.798186 -270.070935 
L 237.408133 -269.759646 
L 238.018081 -269.333517 
L 238.628028 -269.33382 
L 239.237975 -269.194822 
L 239.847922 -269.095763 
L 240.457869 -269.073815 
L 241.067816 -269.379192 
L 241.677764 -269.74624 
L 242.287711 -269.446263 
L 242.897658 -269.099723 
L 243.507605 -269.151806 
L 244.117552 -269.099728 
L 244.727499 -268.753027 
L 245.337447 -269.074736 
L 245.947394 -269.462637 
L 246.557341 -270.041055 
L 247.167288 -270.317488 
L 247.777235 -269.665394 
L 248.387182 -269.665394 
L 248.99713 -269.398375 
L 249.607077 -268.840244 
L 250.217024 -268.266564 
L 250.826971 -270.170313 
L 251.436918 -269.8843 
L 252.046865 -268.899413 
L 252.656813 -269.759138 
L 253.26676 -270.3069 
L 253.876707 -270.528624 
L 254.486654 -270.679171 
L 255.096601 -270.017676 
L 255.706548 -270.965421 
L 256.316496 -269.810167 
L 256.926443 -270.368961 
L 257.53639 -269.249255 
L 258.146337 -268.935693 
L 258.756284 -269.993763 
L 259.366231 -270.277799 
L 259.976179 -270.373327 
L 260.586126 -270.373323 
L 261.196073 -269.82845 
L 261.80602 -269.378386 
L 262.415967 -268.115818 
L 263.025914 -269.137698 
L 263.635862 -269.473694 
L 264.245809 -269.947388 
L 264.855756 -270.084179 
L 265.465703 -270.314828 
L 266.07565 -270.082962 
L 266.685597 -270.327998 
L 267.295545 -270.756031 
L 267.905492 -270.964873 
L 268.515439 -270.866223 
L 269.125386 -271.042127 
L 269.735333 -270.943122 
L 270.34528 -271.425124 
L 270.955228 -270.170459 
L 271.565175 -270.170464 
L 272.175122 -270.770988 
L 272.785069 -270.640693 
L 273.395016 -270.770996 
L 274.004963 -271.152331 
L 274.614911 -269.508658 
L 275.224858 -269.859516 
L 275.834805 -270.201845 
L 276.444752 -270.984725 
L 277.054699 -270.629174 
L 277.664646 -269.018801 
L 278.274594 -269.361368 
L 278.884541 -269.821708 
L 279.494488 -270.234036 
L 280.104435 -269.017456 
L 280.714382 -268.820956 
L 281.324329 -271.309462 
L 281.934277 -270.815325 
L 282.544224 -270.040088 
L 283.154171 -269.571734 
L 283.764118 -268.66986 
L 284.374065 -268.050757 
L 284.984012 -268.081775 
L 285.59396 -268.016336 
L 286.203907 -268.369355 
L 286.813854 -268.485404 
L 287.423801 -268.63299 
L 288.033748 -269.91902 
L 288.643695 -270.126425 
L 289.253643 -269.474362 
L 289.86359 -269.959216 
L 290.473537 -269.97192 
L 291.083484 -269.630039 
L 291.693431 -269.59581 
L 292.303378 -269.636667 
L 292.913326 -269.576794 
L 293.523273 -269.709305 
L 294.13322 -270.066004 
L 294.743167 -269.755889 
L 295.353114 -269.551408 
L 295.963061 -269.806418 
L 296.573009 -270.124574 
L 297.182956 -269.632157 
L 297.792903 -269.381289 
L 298.40285 -269.461078 
L 299.012797 -269.134668 
L 299.622744 -268.65638 
L 300.232692 -269.483081 
L 300.842639 -270.838523 
L 301.452586 -270.664436 
L 302.062533 -270.531647 
L 302.67248 -270.481695 
L 303.282427 -270.055717 
L 303.892375 -269.995089 
L 304.502322 -269.013595 
L 305.112269 -269.898052 
L 305.722216 -269.213167 
L 306.332163 -268.893779 
L 306.94211 -269.515008 
L 307.552058 -269.751687 
L 308.162005 -270.207194 
L 308.771952 -269.791646 
L 309.381899 -269.443782 
L 309.991846 -269.820238 
L 310.601793 -269.912509 
L 311.211741 -269.548835 
L 311.821688 -270.269837 
L 312.431635 -269.735962 
L 313.041582 -269.573893 
L 313.651529 -269.336262 
L 314.261476 -269.537628 
L 314.871424 -270.007561 
L 315.481371 -268.368159 
L 316.091318 -268.760471 
L 316.701265 -268.524944 
L 317.311212 -269.394253 
L 317.921159 -268.048326 
L 318.531107 -268.13622 
L 319.141054 -269.394259 
L 319.751001 -268.541488 
L 320.360948 -269.286555 
L 320.970895 -270.725972 
L 321.580842 -270.650928 
L 322.19079 -270.498419 
L 322.800737 -269.901559 
L 323.410684 -269.022707 
L 324.020631 -269.04926 
L 324.630578 -269.283257 
L 325.240525 -269.755308 
L 325.850473 -269.248215 
L 326.46042 -269.613815 
L 327.070367 -269.60655 
L 327.680314 -268.806075 
L 328.290261 -269.096445 
L 328.900208 -270.04602 
L 329.510156 -268.328032 
L 330.120103 -268.906255 
L 330.73005 -269.123964 
L 331.339997 -269.557826 
L 331.949944 -269.484405 
L 332.559891 -269.008633 
L 333.169839 -269.459574 
L 333.779786 -269.881986 
L 334.389733 -269.606738 
L 334.99968 -269.43973 
L 335.609627 -270.217565 
L 336.219574 -269.180555 
L 336.829522 -269.967169 
L 337.439469 -270.231518 
L 338.049416 -270.063411 
L 338.659363 -269.223621 
L 339.26931 -269.865665 
L 339.879257 -269.550176 
L 340.489205 -269.258145 
L 341.099152 -269.423543 
L 341.709099 -267.697055 
L 342.319046 -267.954685 
L 342.928993 -267.694567 
L 343.53894 -267.904587 
L 344.148888 -268.440373 
L 344.758835 -268.113584 
L 345.368782 -268.504039 
L 345.978729 -269.607161 
L 346.588676 -269.573405 
L 347.198623 -269.60716 
L 347.808571 -269.434404 
L 348.418518 -270.225742 
L 349.028465 -270.214575 
L 349.638412 -270.630385 
L 350.248359 -269.690296 
L 350.858306 -269.838428 
L 351.468254 -269.666955 
L 352.078201 -268.772499 
L 352.688148 -269.3391 
L 353.298095 -269.563017 
L 353.908042 -269.676405 
L 354.51799 -269.832381 
L 355.127937 -269.50859 
L 355.737884 -269.415861 
L 356.347831 -269.78057 
L 356.957778 -269.5392 
L 357.567725 -268.974277 
L 358.177673 -267.992238 
L 358.78762 -268.451013 
L 359.397567 -269.152538 
L 360.007514 -269.267811 
L 360.617461 -269.563688 
L 361.227408 -269.3617 
L 361.837356 -269.361709 
L 362.447303 -269.617798 
L 363.05725 -269.938879 
L 363.667197 -269.979204 
L 364.277144 -270.035671 
L 364.887091 -269.689609 
L 365.497039 -268.981926 
L 366.106986 -269.162362 
L 366.716933 -269.398619 
L 367.32688 -269.376792 
L 367.936827 -269.889847 
L 368.546774 -269.763423 
L 369.156722 -269.955194 
L 369.766669 -269.987348 
L 370.376616 -269.745776 
L 370.986563 -269.997282 
L 371.59651 -269.772561 
L 372.206457 -269.560987 
L 372.816405 -268.407408 
L 373.426352 -269.049672 
L 374.036299 -269.841793 
L 374.646246 -269.941569 
L 375.256193 -269.991299 
L 375.256193 -272.4675 
L 375.256193 -272.4675 
L 374.646246 -272.467494 
L 374.036299 -272.467495 
L 373.426352 -272.467483 
L 372.816405 -272.467495 
L 372.206457 -272.467482 
L 371.59651 -272.467492 
L 370.986563 -272.46748 
L 370.376616 -272.467478 
L 369.766669 -272.467474 
L 369.156722 -272.467491 
L 368.546774 -272.462149 
L 367.936827 -272.462142 
L 367.32688 -272.462149 
L 366.716933 -272.462144 
L 366.106986 -272.462147 
L 365.497039 -272.46215 
L 364.887091 -272.462146 
L 364.277144 -272.462148 
L 363.667197 -272.462149 
L 363.05725 -272.462149 
L 362.447303 -272.462144 
L 361.837356 -272.462147 
L 361.227408 -272.462142 
L 360.617461 -272.462147 
L 360.007514 -272.46215 
L 359.397567 -272.462147 
L 358.78762 -272.462146 
L 358.177673 -272.462137 
L 357.567725 -272.462148 
L 356.957778 -272.462148 
L 356.347831 -272.462148 
L 355.737884 -272.462146 
L 355.127937 -272.462143 
L 354.51799 -272.462148 
L 353.908042 -272.462142 
L 353.298095 -272.462143 
L 352.688148 -272.462132 
L 352.078201 -272.462127 
L 351.468254 -272.46213 
L 350.858306 -272.462146 
L 350.248359 -272.46213 
L 349.638412 -272.46212 
L 349.028465 -272.462125 
L 348.418518 -272.462135 
L 347.808571 -272.460873 
L 347.198623 -272.460865 
L 346.588676 -272.430603 
L 345.978729 -272.430611 
L 345.368782 -272.430613 
L 344.758835 -272.430612 
L 344.148888 -272.430608 
L 343.53894 -272.430615 
L 342.928993 -272.430603 
L 342.319046 -272.430597 
L 341.709099 -272.430618 
L 341.099152 -272.4306 
L 340.489205 -272.430595 
L 339.879257 -272.430604 
L 339.26931 -272.430602 
L 338.659363 -272.430596 
L 338.049416 -272.430598 
L 337.439469 -272.430615 
L 336.829522 -272.430588 
L 336.219574 -272.430603 
L 335.609627 -272.430589 
L 334.99968 -272.430594 
L 334.389733 -272.430603 
L 333.779786 -272.425076 
L 333.169839 -272.425078 
L 332.559891 -272.425077 
L 331.949944 -272.425076 
L 331.339997 -272.425075 
L 330.73005 -272.425074 
L 330.120103 -272.425077 
L 329.510156 -272.425076 
L 328.900208 -272.425074 
L 328.290261 -272.425074 
L 327.680314 -272.425077 
L 327.070367 -272.425076 
L 326.46042 -272.425076 
L 325.850473 -272.425074 
L 325.240525 -272.425074 
L 324.630578 -272.425074 
L 324.020631 -272.425075 
L 323.410684 -272.425076 
L 322.800737 -272.425071 
L 322.19079 -272.425073 
L 321.580842 -272.42507 
L 320.970895 -272.425066 
L 320.360948 -272.425062 
L 319.751001 -272.377915 
L 319.141054 -272.375109 
L 318.531107 -272.375108 
L 317.921159 -272.375107 
L 317.311212 -272.375108 
L 316.701265 -272.375108 
L 316.091318 -272.375108 
L 315.481371 -272.37511 
L 314.871424 -272.375104 
L 314.261476 -272.375108 
L 313.651529 -272.375111 
L 313.041582 -272.375105 
L 312.431635 -272.375104 
L 311.821688 -272.375102 
L 311.211741 -272.375102 
L 310.601793 -272.375094 
L 309.991846 -272.35913 
L 309.381899 -272.359125 
L 308.771952 -272.359126 
L 308.162005 -272.359122 
L 307.552058 -272.339465 
L 306.94211 -272.339464 
L 306.332163 -272.339458 
L 305.722216 -272.339458 
L 305.112269 -272.339462 
L 304.502322 -272.33946 
L 303.892375 -272.33946 
L 303.282427 -272.339456 
L 302.67248 -272.339456 
L 302.062533 -272.339458 
L 301.452586 -272.339455 
L 300.842639 -272.339457 
L 300.232692 -272.339437 
L 299.622744 -272.339452 
L 299.012797 -272.278206 
L 298.40285 -272.278205 
L 297.792903 -272.27821 
L 297.182956 -272.278208 
L 296.573009 -272.278199 
L 295.963061 -272.278199 
L 295.353114 -272.278202 
L 294.743167 -272.278203 
L 294.13322 -272.278205 
L 293.523273 -272.278204 
L 292.913326 -272.278204 
L 292.303378 -272.278201 
L 291.693431 -272.278204 
L 291.083484 -272.278202 
L 290.473537 -272.278208 
L 289.86359 -272.278205 
L 289.253643 -272.278203 
L 288.643695 -272.278202 
L 288.033748 -272.278202 
L 287.423801 -272.278206 
L 286.813854 -272.278206 
L 286.203907 -272.278207 
L 285.59396 -272.278204 
L 284.984012 -272.278202 
L 284.374065 -272.278204 
L 283.764118 -272.278205 
L 283.154171 -272.278204 
L 282.544224 -272.278205 
L 281.934277 -272.278209 
L 281.324329 -272.278208 
L 280.714382 -272.2782 
L 280.104435 -272.278204 
L 279.494488 -272.278207 
L 278.884541 -272.278206 
L 278.274594 -272.278207 
L 277.664646 -272.278199 
L 277.054699 -272.278202 
L 276.444752 -272.278206 
L 275.834805 -272.278204 
L 275.224858 -272.278203 
L 274.614911 -272.278209 
L 274.004963 -272.278202 
L 273.395016 -272.278201 
L 272.785069 -272.278202 
L 272.175122 -272.27821 
L 271.565175 -272.27821 
L 270.955228 -272.278208 
L 270.34528 -272.278204 
L 269.735333 -272.278203 
L 269.125386 -272.278208 
L 268.515439 -272.278203 
L 267.905492 -272.278201 
L 267.295545 -272.278204 
L 266.685597 -272.278198 
L 266.07565 -272.278199 
L 265.465703 -272.278204 
L 264.855756 -272.278204 
L 264.245809 -272.278199 
L 263.635862 -272.278205 
L 263.025914 -272.278187 
L 262.415967 -272.278192 
L 261.80602 -272.278186 
L 261.196073 -272.278192 
L 260.586126 -272.278179 
L 259.976179 -272.278183 
L 259.366231 -272.278185 
L 258.756284 -272.278179 
L 258.146337 -272.278195 
L 257.53639 -272.278169 
L 256.926443 -272.278182 
L 256.316496 -272.278187 
L 255.706548 -272.278203 
L 255.096601 -272.278174 
L 254.486654 -272.276554 
L 253.876707 -272.276548 
L 253.26676 -272.276549 
L 252.656813 -272.276551 
L 252.046865 -272.27655 
L 251.436918 -272.276547 
L 250.826971 -272.276545 
L 250.217024 -272.276542 
L 249.607077 -272.275953 
L 248.99713 -272.27596 
L 248.387182 -272.275953 
L 247.777235 -272.27596 
L 247.167288 -272.275952 
L 246.557341 -272.275952 
L 245.947394 -272.275482 
L 245.337447 -272.275485 
L 244.727499 -272.275478 
L 244.117552 -272.275478 
L 243.507605 -272.275477 
L 242.897658 -272.275479 
L 242.287711 -272.275486 
L 241.677764 -272.27548 
L 241.067816 -272.275483 
L 240.457869 -272.275484 
L 239.847922 -272.275486 
L 239.237975 -272.275485 
L 238.628028 -272.275485 
L 238.018081 -272.275478 
L 237.408133 -272.275487 
L 236.798186 -272.275477 
L 236.188239 -272.275477 
L 235.578292 -272.275483 
L 234.968345 -272.275481 
L 234.358398 -272.275478 
L 233.74845 -272.275483 
L 233.138503 -272.275471 
L 232.528556 -272.275485 
L 231.918609 -272.275485 
L 231.308662 -272.275464 
L 230.698715 -272.275486 
L 230.088767 -272.275475 
L 229.47882 -272.275477 
L 228.868873 -272.275469 
L 228.258926 -272.275473 
L 227.648979 -272.275474 
L 227.039032 -272.275457 
L 226.429084 -272.275461 
L 225.819137 -272.275462 
L 225.20919 -272.274703 
L 224.599243 -272.274701 
L 223.989296 -272.2747 
L 223.379349 -272.274703 
L 222.769401 -272.274704 
L 222.159454 -272.274691 
L 221.549507 -272.274704 
L 220.93956 -272.274702 
L 220.329613 -272.274701 
L 219.719666 -272.274704 
L 219.109718 -272.274697 
L 218.499771 -272.274699 
L 217.889824 -272.274698 
L 217.279877 -272.2747 
L 216.66993 -272.2747 
L 216.059983 -272.274704 
L 215.450035 -272.274699 
L 214.840088 -272.274697 
L 214.230141 -272.274697 
L 213.620194 -272.2747 
L 213.010247 -272.274699 
L 212.4003 -272.274704 
L 211.790352 -272.274702 
L 211.180405 -272.274707 
L 210.570458 -272.274706 
L 209.960511 -272.274693 
L 209.350564 -272.274702 
L 208.740617 -272.274707 
L 208.130669 -272.274698 
L 207.520722 -272.274698 
L 206.910775 -272.274697 
L 206.300828 -272.274698 
L 205.690881 -272.274702 
L 205.080934 -272.274699 
L 204.470986 -272.274703 
L 203.861039 -272.274701 
L 203.251092 -272.274699 
L 202.641145 -272.274695 
L 202.031198 -272.274693 
L 201.421251 -272.274696 
L 200.811303 -272.2747 
L 200.201356 -272.274699 
L 199.591409 -272.274702 
L 198.981462 -272.274702 
L 198.371515 -272.274699 
L 197.761568 -272.2747 
L 197.15162 -272.274702 
L 196.541673 -272.274695 
L 195.931726 -272.274703 
L 195.321779 -272.274684 
L 194.711832 -272.274695 
L 194.101885 -272.2747 
L 193.491937 -272.274674 
L 192.88199 -272.274674 
L 192.272043 -272.274673 
L 191.662096 -272.274681 
L 191.052149 -272.274678 
L 190.442202 -272.27467 
L 189.832254 -272.27468 
L 189.222307 -272.274681 
L 188.61236 -272.254691 
L 188.002413 -272.254691 
L 187.392466 -272.254694 
L 186.782519 -272.254691 
L 186.172571 -272.254691 
L 185.562624 -272.254698 
L 184.952677 -272.25469 
L 184.34273 -272.25469 
L 183.732783 -272.254693 
L 183.122836 -272.254695 
L 182.512888 -272.254692 
L 181.902941 -272.254693 
L 181.292994 -272.254692 
L 180.683047 -272.254695 
L 180.0731 -272.25469 
L 179.463153 -272.254688 
L 178.853205 -272.254693 
L 178.243258 -272.254691 
L 177.633311 -272.254689 
L 177.023364 -272.254689 
L 176.413417 -272.25469 
L 175.80347 -272.254687 
L 175.193522 -272.25469 
L 174.583575 -272.254688 
L 173.973628 -272.254688 
L 173.363681 -272.254682 
L 172.753734 -272.254688 
L 172.143787 -272.251361 
L 171.533839 -272.251358 
L 170.923892 -272.251358 
L 170.313945 -272.251351 
L 169.703998 -272.251358 
L 169.094051 -272.247313 
L 168.484104 -272.217565 
L 167.874156 -272.205751 
L 167.264209 -272.205752 
L 166.654262 -272.205758 
L 166.044315 -272.205753 
L 165.434368 -272.205753 
L 164.824421 -272.205753 
L 164.214473 -272.205755 
L 163.604526 -272.205754 
L 162.994579 -272.205752 
L 162.384632 -272.20575 
L 161.774685 -272.205752 
L 161.164738 -272.205745 
L 160.55479 -272.205742 
L 159.944843 -272.205743 
L 159.334896 -272.205743 
L 158.724949 -272.205745 
L 158.115002 -272.205735 
L 157.505055 -272.205744 
L 156.895107 -272.035304 
L 156.28516 -272.016072 
L 155.675213 -272.016078 
L 155.065266 -272.016074 
L 154.455319 -272.016071 
L 153.845372 -272.01607 
L 153.235424 -272.016071 
L 152.625477 -272.016072 
L 152.01553 -272.016069 
L 151.405583 -272.016072 
L 150.795636 -272.016071 
L 150.185689 -272.01607 
L 149.575741 -272.01607 
L 148.965794 -272.016073 
L 148.355847 -272.016071 
L 147.7459 -272.016072 
L 147.135953 -272.016068 
L 146.526006 -272.016072 
L 145.916058 -272.016075 
L 145.306111 -272.016066 
L 144.696164 -272.016072 
L 144.086217 -272.016068 
L 143.47627 -272.016068 
L 142.866323 -272.016066 
L 142.256375 -272.016065 
L 141.646428 -272.016069 
L 141.036481 -272.016055 
L 140.426534 -272.005751 
L 139.816587 -272.005751 
L 139.20664 -272.005737 
L 138.596692 -272.00575 
L 137.986745 -272.005746 
L 137.376798 -272.005737 
L 136.766851 -272.00573 
L 136.156904 -272.005738 
L 135.546957 -272.005736 
L 134.937009 -271.947875 
L 134.327062 -271.812753 
L 133.717115 -271.81275 
L 133.107168 -271.812755 
L 132.497221 -271.812754 
L 131.887274 -271.812752 
L 131.277326 -271.812754 
L 130.667379 -271.812754 
L 130.057432 -271.812753 
L 129.447485 -271.812747 
L 128.837538 -271.812752 
L 128.227591 -271.812753 
L 127.617643 -271.812751 
L 127.007696 -271.812747 
L 126.397749 -271.812747 
L 125.787802 -271.812751 
L 125.177855 -271.812743 
L 124.567908 -271.660032 
L 123.95796 -271.473161 
L 123.348013 -271.438065 
L 122.738066 -271.438069 
L 122.128119 -271.396365 
L 121.518172 -271.396359 
L 120.908225 -271.396358 
L 120.298277 -271.396347 
L 119.68833 -271.396346 
L 119.078383 -271.379517 
L 118.468436 -271.37952 
L 117.858489 -271.379514 
L 117.248542 -271.379521 
L 116.638594 -271.37951 
L 116.028647 -271.379513 
L 115.4187 -271.379517 
L 114.808753 -271.379508 
L 114.198806 -271.379515 
L 113.588859 -271.379509 
L 112.978911 -271.379515 
L 112.368964 -271.37951 
L 111.759017 -271.379504 
L 111.14907 -271.379507 
L 110.539123 -271.379517 
L 109.929176 -271.379516 
L 109.319228 -271.240833 
L 108.709281 -271.240822 
L 108.099334 -271.240822 
L 107.489387 -271.240831 
L 106.87944 -271.240803 
L 106.269493 -271.240798 
L 105.659545 -271.240783 
L 105.049598 -271.240816 
L 104.439651 -271.240796 
L 103.829704 -271.111979 
L 103.219757 -271.111972 
L 102.60981 -271.111972 
L 101.999862 -271.083811 
L 101.389915 -271.083779 
L 100.779968 -271.083813 
L 100.170021 -271.083789 
L 99.560074 -271.083778 
L 98.950127 -270.902669 
L 98.340179 -270.538717 
L 97.730232 -270.538717 
L 97.120285 -270.538689 
L 96.510338 -270.538713 
L 95.900391 -270.538688 
L 95.290444 -270.538678 
L 94.680496 -270.538678 
L 94.070549 -270.538662 
L 93.460602 -270.159052 
L 92.850655 -270.159049 
L 92.240708 -270.159056 
L 91.63076 -269.904673 
L 91.020813 -269.856706 
L 90.410866 -269.856699 
L 89.800919 -269.597324 
L 89.190972 -269.597348 
L 88.581025 -269.59734 
L 87.971077 -269.597333 
L 87.36113 -269.59732 
L 86.751183 -268.765798 
L 86.141236 -268.765805 
L 85.531289 -268.765787 
L 84.921342 -266.660958 
L 84.311394 -265.265565 
L 83.701447 -265.265518 
L 83.0915 -265.265563 
L 82.481553 -264.611692 
L 81.871606 -264.611688 
L 81.261659 -264.611689 
L 80.651711 -264.611688 
L 80.041764 -261.022533 
L 79.431817 -261.022522 
L 78.82187 -261.022534 
L 78.211923 -261.022465 
L 77.601976 -261.022587 
L 76.992028 -261.022512 
L 76.382081 -261.022519 
L 75.772134 -261.022489 
L 75.162187 -261.02247 
L 74.55224 -261.022522 
L 73.942293 -261.022532 
L 73.332345 -261.022478 
L 72.722398 -261.022469 
L 72.112451 -261.022558 
L 71.502504 -261.022544 
L 70.892557 -257.408777 
z
" style="stroke: #0000ff; stroke-opacity: 0.2"/>
    </defs>
    <g clip-path="url(#p734ee86fb3)">
     <use xlink:href="#md28baf405f" x="0" y="287.4075" style="fill: #0000ff; fill-opacity: 0.2; stroke: #0000ff; stroke-opacity: 0.2"/>
    </g>
   </g>
   <g id="matplotlib.axis_1">
    <g id="xtick_1">
     <g id="line2d_1">
      <path d="M 70.892557 253.08 
L 70.892557 3.6 
" clip-path="url(#p734ee86fb3)" style="fill: none; stroke: #b0b0b0; stroke-width: 0.5; stroke-linecap: square"/>
     </g>
     <g id="line2d_2">
      <defs>
       <path id="me5619f674d" d="M 0 0 
L 0 -3 
" style="stroke: #000000; stroke-width: 0.5"/>
      </defs>
      <g>
       <use xlink:href="#me5619f674d" x="70.892557" y="253.08" style="stroke: #000000; stroke-width: 0.5"/>
      </g>
     </g>
     <g id="line2d_3">
      <defs>
       <path id="m0a83171752" d="M 0 0 
L 0 3 
" style="stroke: #000000; stroke-width: 0.5"/>
      </defs>
      <g>
       <use xlink:href="#m0a83171752" x="70.892557" y="3.6" style="stroke: #000000; stroke-width: 0.5"/>
      </g>
     </g>
     <g id="text_1">
      <!-- 0 -->
      <g transform="translate(67.075057 265.698125) scale(0.12 -0.12)">
       <defs>
        <path id="DejaVuSans-30" d="M 2034 4250 
Q 1547 4250 1301 3770 
Q 1056 3291 1056 2328 
Q 1056 1369 1301 889 
Q 1547 409 2034 409 
Q 2525 409 2770 889 
Q 3016 1369 3016 2328 
Q 3016 3291 2770 3770 
Q 2525 4250 2034 4250 
z
M 2034 4750 
Q 2819 4750 3233 4129 
Q 3647 3509 3647 2328 
Q 3647 1150 3233 529 
Q 2819 -91 2034 -91 
Q 1250 -91 836 529 
Q 422 1150 422 2328 
Q 422 3509 836 4129 
Q 1250 4750 2034 4750 
z
" transform="scale(0.015625)"/>
       </defs>
       <use xlink:href="#DejaVuSans-30"/>
      </g>
     </g>
    </g>
    <g id="xtick_2">
     <g id="line2d_4">
      <path d="M 131.887274 253.08 
L 131.887274 3.6 
" clip-path="url(#p734ee86fb3)" style="fill: none; stroke: #b0b0b0; stroke-width: 0.5; stroke-linecap: square"/>
     </g>
     <g id="line2d_5">
      <g>
       <use xlink:href="#me5619f674d" x="131.887274" y="253.08" style="stroke: #000000; stroke-width: 0.5"/>
      </g>
     </g>
     <g id="line2d_6">
      <g>
       <use xlink:href="#m0a83171752" x="131.887274" y="3.6" style="stroke: #000000; stroke-width: 0.5"/>
      </g>
     </g>
     <g id="text_2">
      <!-- 100 -->
      <g transform="translate(120.434774 265.698125) scale(0.12 -0.12)">
       <defs>
        <path id="DejaVuSans-31" d="M 794 531 
L 1825 531 
L 1825 4091 
L 703 3866 
L 703 4441 
L 1819 4666 
L 2450 4666 
L 2450 531 
L 3481 531 
L 3481 0 
L 794 0 
L 794 531 
z
" transform="scale(0.015625)"/>
       </defs>
       <use xlink:href="#DejaVuSans-31"/>
       <use xlink:href="#DejaVuSans-30" x="63.623047"/>
       <use xlink:href="#DejaVuSans-30" x="127.246094"/>
      </g>
     </g>
    </g>
    <g id="xtick_3">
     <g id="line2d_7">
      <path d="M 192.88199 253.08 
L 192.88199 3.6 
" clip-path="url(#p734ee86fb3)" style="fill: none; stroke: #b0b0b0; stroke-width: 0.5; stroke-linecap: square"/>
     </g>
     <g id="line2d_8">
      <g>
       <use xlink:href="#me5619f674d" x="192.88199" y="253.08" style="stroke: #000000; stroke-width: 0.5"/>
      </g>
     </g>
     <g id="line2d_9">
      <g>
       <use xlink:href="#m0a83171752" x="192.88199" y="3.6" style="stroke: #000000; stroke-width: 0.5"/>
      </g>
     </g>
     <g id="text_3">
      <!-- 200 -->
      <g transform="translate(181.42949 265.698125) scale(0.12 -0.12)">
       <defs>
        <path id="DejaVuSans-32" d="M 1228 531 
L 3431 531 
L 3431 0 
L 469 0 
L 469 531 
Q 828 903 1448 1529 
Q 2069 2156 2228 2338 
Q 2531 2678 2651 2914 
Q 2772 3150 2772 3378 
Q 2772 3750 2511 3984 
Q 2250 4219 1831 4219 
Q 1534 4219 1204 4116 
Q 875 4013 500 3803 
L 500 4441 
Q 881 4594 1212 4672 
Q 1544 4750 1819 4750 
Q 2544 4750 2975 4387 
Q 3406 4025 3406 3419 
Q 3406 3131 3298 2873 
Q 3191 2616 2906 2266 
Q 2828 2175 2409 1742 
Q 1991 1309 1228 531 
z
" transform="scale(0.015625)"/>
       </defs>
       <use xlink:href="#DejaVuSans-32"/>
       <use xlink:href="#DejaVuSans-30" x="63.623047"/>
       <use xlink:href="#DejaVuSans-30" x="127.246094"/>
      </g>
     </g>
    </g>
    <g id="xtick_4">
     <g id="line2d_10">
      <path d="M 253.876707 253.08 
L 253.876707 3.6 
" clip-path="url(#p734ee86fb3)" style="fill: none; stroke: #b0b0b0; stroke-width: 0.5; stroke-linecap: square"/>
     </g>
     <g id="line2d_11">
      <g>
       <use xlink:href="#me5619f674d" x="253.876707" y="253.08" style="stroke: #000000; stroke-width: 0.5"/>
      </g>
     </g>
     <g id="line2d_12">
      <g>
       <use xlink:href="#m0a83171752" x="253.876707" y="3.6" style="stroke: #000000; stroke-width: 0.5"/>
      </g>
     </g>
     <g id="text_4">
      <!-- 300 -->
      <g transform="translate(242.424207 265.698125) scale(0.12 -0.12)">
       <defs>
        <path id="DejaVuSans-33" d="M 2597 2516 
Q 3050 2419 3304 2112 
Q 3559 1806 3559 1356 
Q 3559 666 3084 287 
Q 2609 -91 1734 -91 
Q 1441 -91 1130 -33 
Q 819 25 488 141 
L 488 750 
Q 750 597 1062 519 
Q 1375 441 1716 441 
Q 2309 441 2620 675 
Q 2931 909 2931 1356 
Q 2931 1769 2642 2001 
Q 2353 2234 1838 2234 
L 1294 2234 
L 1294 2753 
L 1863 2753 
Q 2328 2753 2575 2939 
Q 2822 3125 2822 3475 
Q 2822 3834 2567 4026 
Q 2313 4219 1838 4219 
Q 1578 4219 1281 4162 
Q 984 4106 628 3988 
L 628 4550 
Q 988 4650 1302 4700 
Q 1616 4750 1894 4750 
Q 2613 4750 3031 4423 
Q 3450 4097 3450 3541 
Q 3450 3153 3228 2886 
Q 3006 2619 2597 2516 
z
" transform="scale(0.015625)"/>
       </defs>
       <use xlink:href="#DejaVuSans-33"/>
       <use xlink:href="#DejaVuSans-30" x="63.623047"/>
       <use xlink:href="#DejaVuSans-30" x="127.246094"/>
      </g>
     </g>
    </g>
    <g id="xtick_5">
     <g id="line2d_13">
      <path d="M 314.871424 253.08 
L 314.871424 3.6 
" clip-path="url(#p734ee86fb3)" style="fill: none; stroke: #b0b0b0; stroke-width: 0.5; stroke-linecap: square"/>
     </g>
     <g id="line2d_14">
      <g>
       <use xlink:href="#me5619f674d" x="314.871424" y="253.08" style="stroke: #000000; stroke-width: 0.5"/>
      </g>
     </g>
     <g id="line2d_15">
      <g>
       <use xlink:href="#m0a83171752" x="314.871424" y="3.6" style="stroke: #000000; stroke-width: 0.5"/>
      </g>
     </g>
     <g id="text_5">
      <!-- 400 -->
      <g transform="translate(303.418924 265.698125) scale(0.12 -0.12)">
       <defs>
        <path id="DejaVuSans-34" d="M 2419 4116 
L 825 1625 
L 2419 1625 
L 2419 4116 
z
M 2253 4666 
L 3047 4666 
L 3047 1625 
L 3713 1625 
L 3713 1100 
L 3047 1100 
L 3047 0 
L 2419 0 
L 2419 1100 
L 313 1100 
L 313 1709 
L 2253 4666 
z
" transform="scale(0.015625)"/>
       </defs>
       <use xlink:href="#DejaVuSans-34"/>
       <use xlink:href="#DejaVuSans-30" x="63.623047"/>
       <use xlink:href="#DejaVuSans-30" x="127.246094"/>
      </g>
     </g>
    </g>
    <g id="xtick_6">
     <g id="line2d_16">
      <path d="M 375.86614 253.08 
L 375.86614 3.6 
" clip-path="url(#p734ee86fb3)" style="fill: none; stroke: #b0b0b0; stroke-width: 0.5; stroke-linecap: square"/>
     </g>
     <g id="line2d_17">
      <g>
       <use xlink:href="#me5619f674d" x="375.86614" y="253.08" style="stroke: #000000; stroke-width: 0.5"/>
      </g>
     </g>
     <g id="line2d_18">
      <g>
       <use xlink:href="#m0a83171752" x="375.86614" y="3.6" style="stroke: #000000; stroke-width: 0.5"/>
      </g>
     </g>
     <g id="text_6">
      <!-- 500 -->
      <g transform="translate(364.41364 265.698125) scale(0.12 -0.12)">
       <defs>
        <path id="DejaVuSans-35" d="M 691 4666 
L 3169 4666 
L 3169 4134 
L 1269 4134 
L 1269 2991 
Q 1406 3038 1543 3061 
Q 1681 3084 1819 3084 
Q 2600 3084 3056 2656 
Q 3513 2228 3513 1497 
Q 3513 744 3044 326 
Q 2575 -91 1722 -91 
Q 1428 -91 1123 -41 
Q 819 9 494 109 
L 494 744 
Q 775 591 1075 516 
Q 1375 441 1709 441 
Q 2250 441 2565 725 
Q 2881 1009 2881 1497 
Q 2881 1984 2565 2268 
Q 2250 2553 1709 2553 
Q 1456 2553 1204 2497 
Q 953 2441 691 2322 
L 691 4666 
z
" transform="scale(0.015625)"/>
       </defs>
       <use xlink:href="#DejaVuSans-35"/>
       <use xlink:href="#DejaVuSans-30" x="63.623047"/>
       <use xlink:href="#DejaVuSans-30" x="127.246094"/>
      </g>
     </g>
    </g>
    <g id="xtick_7">
     <g id="line2d_19">
      <defs>
       <path id="mb0866be68f" d="M 0 0 
L 0 -1.5 
" style="stroke: #000000; stroke-width: 0.5"/>
      </defs>
      <g>
       <use xlink:href="#mb0866be68f" x="58.693613" y="253.08" style="stroke: #000000; stroke-width: 0.5"/>
      </g>
     </g>
     <g id="line2d_20">
      <defs>
       <path id="m17d628b72a" d="M 0 0 
L 0 1.5 
" style="stroke: #000000; stroke-width: 0.5"/>
      </defs>
      <g>
       <use xlink:href="#m17d628b72a" x="58.693613" y="3.6" style="stroke: #000000; stroke-width: 0.5"/>
      </g>
     </g>
    </g>
    <g id="xtick_8">
     <g id="line2d_21">
      <g>
       <use xlink:href="#mb0866be68f" x="83.0915" y="253.08" style="stroke: #000000; stroke-width: 0.5"/>
      </g>
     </g>
     <g id="line2d_22">
      <g>
       <use xlink:href="#m17d628b72a" x="83.0915" y="3.6" style="stroke: #000000; stroke-width: 0.5"/>
      </g>
     </g>
    </g>
    <g id="xtick_9">
     <g id="line2d_23">
      <g>
       <use xlink:href="#mb0866be68f" x="95.290444" y="253.08" style="stroke: #000000; stroke-width: 0.5"/>
      </g>
     </g>
     <g id="line2d_24">
      <g>
       <use xlink:href="#m17d628b72a" x="95.290444" y="3.6" style="stroke: #000000; stroke-width: 0.5"/>
      </g>
     </g>
    </g>
    <g id="xtick_10">
     <g id="line2d_25">
      <g>
       <use xlink:href="#mb0866be68f" x="107.489387" y="253.08" style="stroke: #000000; stroke-width: 0.5"/>
      </g>
     </g>
     <g id="line2d_26">
      <g>
       <use xlink:href="#m17d628b72a" x="107.489387" y="3.6" style="stroke: #000000; stroke-width: 0.5"/>
      </g>
     </g>
    </g>
    <g id="xtick_11">
     <g id="line2d_27">
      <g>
       <use xlink:href="#mb0866be68f" x="119.68833" y="253.08" style="stroke: #000000; stroke-width: 0.5"/>
      </g>
     </g>
     <g id="line2d_28">
      <g>
       <use xlink:href="#m17d628b72a" x="119.68833" y="3.6" style="stroke: #000000; stroke-width: 0.5"/>
      </g>
     </g>
    </g>
    <g id="xtick_12">
     <g id="line2d_29">
      <g>
       <use xlink:href="#mb0866be68f" x="144.086217" y="253.08" style="stroke: #000000; stroke-width: 0.5"/>
      </g>
     </g>
     <g id="line2d_30">
      <g>
       <use xlink:href="#m17d628b72a" x="144.086217" y="3.6" style="stroke: #000000; stroke-width: 0.5"/>
      </g>
     </g>
    </g>
    <g id="xtick_13">
     <g id="line2d_31">
      <g>
       <use xlink:href="#mb0866be68f" x="156.28516" y="253.08" style="stroke: #000000; stroke-width: 0.5"/>
      </g>
     </g>
     <g id="line2d_32">
      <g>
       <use xlink:href="#m17d628b72a" x="156.28516" y="3.6" style="stroke: #000000; stroke-width: 0.5"/>
      </g>
     </g>
    </g>
    <g id="xtick_14">
     <g id="line2d_33">
      <g>
       <use xlink:href="#mb0866be68f" x="168.484104" y="253.08" style="stroke: #000000; stroke-width: 0.5"/>
      </g>
     </g>
     <g id="line2d_34">
      <g>
       <use xlink:href="#m17d628b72a" x="168.484104" y="3.6" style="stroke: #000000; stroke-width: 0.5"/>
      </g>
     </g>
    </g>
    <g id="xtick_15">
     <g id="line2d_35">
      <g>
       <use xlink:href="#mb0866be68f" x="180.683047" y="253.08" style="stroke: #000000; stroke-width: 0.5"/>
      </g>
     </g>
     <g id="line2d_36">
      <g>
       <use xlink:href="#m17d628b72a" x="180.683047" y="3.6" style="stroke: #000000; stroke-width: 0.5"/>
      </g>
     </g>
    </g>
    <g id="xtick_16">
     <g id="line2d_37">
      <g>
       <use xlink:href="#mb0866be68f" x="205.080934" y="253.08" style="stroke: #000000; stroke-width: 0.5"/>
      </g>
     </g>
     <g id="line2d_38">
      <g>
       <use xlink:href="#m17d628b72a" x="205.080934" y="3.6" style="stroke: #000000; stroke-width: 0.5"/>
      </g>
     </g>
    </g>
    <g id="xtick_17">
     <g id="line2d_39">
      <g>
       <use xlink:href="#mb0866be68f" x="217.279877" y="253.08" style="stroke: #000000; stroke-width: 0.5"/>
      </g>
     </g>
     <g id="line2d_40">
      <g>
       <use xlink:href="#m17d628b72a" x="217.279877" y="3.6" style="stroke: #000000; stroke-width: 0.5"/>
      </g>
     </g>
    </g>
    <g id="xtick_18">
     <g id="line2d_41">
      <g>
       <use xlink:href="#mb0866be68f" x="229.47882" y="253.08" style="stroke: #000000; stroke-width: 0.5"/>
      </g>
     </g>
     <g id="line2d_42">
      <g>
       <use xlink:href="#m17d628b72a" x="229.47882" y="3.6" style="stroke: #000000; stroke-width: 0.5"/>
      </g>
     </g>
    </g>
    <g id="xtick_19">
     <g id="line2d_43">
      <g>
       <use xlink:href="#mb0866be68f" x="241.677764" y="253.08" style="stroke: #000000; stroke-width: 0.5"/>
      </g>
     </g>
     <g id="line2d_44">
      <g>
       <use xlink:href="#m17d628b72a" x="241.677764" y="3.6" style="stroke: #000000; stroke-width: 0.5"/>
      </g>
     </g>
    </g>
    <g id="xtick_20">
     <g id="line2d_45">
      <g>
       <use xlink:href="#mb0866be68f" x="266.07565" y="253.08" style="stroke: #000000; stroke-width: 0.5"/>
      </g>
     </g>
     <g id="line2d_46">
      <g>
       <use xlink:href="#m17d628b72a" x="266.07565" y="3.6" style="stroke: #000000; stroke-width: 0.5"/>
      </g>
     </g>
    </g>
    <g id="xtick_21">
     <g id="line2d_47">
      <g>
       <use xlink:href="#mb0866be68f" x="278.274594" y="253.08" style="stroke: #000000; stroke-width: 0.5"/>
      </g>
     </g>
     <g id="line2d_48">
      <g>
       <use xlink:href="#m17d628b72a" x="278.274594" y="3.6" style="stroke: #000000; stroke-width: 0.5"/>
      </g>
     </g>
    </g>
    <g id="xtick_22">
     <g id="line2d_49">
      <g>
       <use xlink:href="#mb0866be68f" x="290.473537" y="253.08" style="stroke: #000000; stroke-width: 0.5"/>
      </g>
     </g>
     <g id="line2d_50">
      <g>
       <use xlink:href="#m17d628b72a" x="290.473537" y="3.6" style="stroke: #000000; stroke-width: 0.5"/>
      </g>
     </g>
    </g>
    <g id="xtick_23">
     <g id="line2d_51">
      <g>
       <use xlink:href="#mb0866be68f" x="302.67248" y="253.08" style="stroke: #000000; stroke-width: 0.5"/>
      </g>
     </g>
     <g id="line2d_52">
      <g>
       <use xlink:href="#m17d628b72a" x="302.67248" y="3.6" style="stroke: #000000; stroke-width: 0.5"/>
      </g>
     </g>
    </g>
    <g id="xtick_24">
     <g id="line2d_53">
      <g>
       <use xlink:href="#mb0866be68f" x="327.070367" y="253.08" style="stroke: #000000; stroke-width: 0.5"/>
      </g>
     </g>
     <g id="line2d_54">
      <g>
       <use xlink:href="#m17d628b72a" x="327.070367" y="3.6" style="stroke: #000000; stroke-width: 0.5"/>
      </g>
     </g>
    </g>
    <g id="xtick_25">
     <g id="line2d_55">
      <g>
       <use xlink:href="#mb0866be68f" x="339.26931" y="253.08" style="stroke: #000000; stroke-width: 0.5"/>
      </g>
     </g>
     <g id="line2d_56">
      <g>
       <use xlink:href="#m17d628b72a" x="339.26931" y="3.6" style="stroke: #000000; stroke-width: 0.5"/>
      </g>
     </g>
    </g>
    <g id="xtick_26">
     <g id="line2d_57">
      <g>
       <use xlink:href="#mb0866be68f" x="351.468254" y="253.08" style="stroke: #000000; stroke-width: 0.5"/>
      </g>
     </g>
     <g id="line2d_58">
      <g>
       <use xlink:href="#m17d628b72a" x="351.468254" y="3.6" style="stroke: #000000; stroke-width: 0.5"/>
      </g>
     </g>
    </g>
    <g id="xtick_27">
     <g id="line2d_59">
      <g>
       <use xlink:href="#mb0866be68f" x="363.667197" y="253.08" style="stroke: #000000; stroke-width: 0.5"/>
      </g>
     </g>
     <g id="line2d_60">
      <g>
       <use xlink:href="#m17d628b72a" x="363.667197" y="3.6" style="stroke: #000000; stroke-width: 0.5"/>
      </g>
     </g>
    </g>
    <g id="xtick_28">
     <g id="line2d_61">
      <g>
       <use xlink:href="#mb0866be68f" x="388.065084" y="253.08" style="stroke: #000000; stroke-width: 0.5"/>
      </g>
     </g>
     <g id="line2d_62">
      <g>
       <use xlink:href="#m17d628b72a" x="388.065084" y="3.6" style="stroke: #000000; stroke-width: 0.5"/>
      </g>
     </g>
    </g>
    <g id="text_7">
     <!-- Generations -->
     <g transform="translate(186.477188 281.311875) scale(0.12 -0.12)">
      <defs>
       <path id="DejaVuSans-47" d="M 3809 666 
L 3809 1919 
L 2778 1919 
L 2778 2438 
L 4434 2438 
L 4434 434 
Q 4069 175 3628 42 
Q 3188 -91 2688 -91 
Q 1594 -91 976 548 
Q 359 1188 359 2328 
Q 359 3472 976 4111 
Q 1594 4750 2688 4750 
Q 3144 4750 3555 4637 
Q 3966 4525 4313 4306 
L 4313 3634 
Q 3963 3931 3569 4081 
Q 3175 4231 2741 4231 
Q 1884 4231 1454 3753 
Q 1025 3275 1025 2328 
Q 1025 1384 1454 906 
Q 1884 428 2741 428 
Q 3075 428 3337 486 
Q 3600 544 3809 666 
z
" transform="scale(0.015625)"/>
       <path id="DejaVuSans-65" d="M 3597 1894 
L 3597 1613 
L 953 1613 
Q 991 1019 1311 708 
Q 1631 397 2203 397 
Q 2534 397 2845 478 
Q 3156 559 3463 722 
L 3463 178 
Q 3153 47 2828 -22 
Q 2503 -91 2169 -91 
Q 1331 -91 842 396 
Q 353 884 353 1716 
Q 353 2575 817 3079 
Q 1281 3584 2069 3584 
Q 2775 3584 3186 3129 
Q 3597 2675 3597 1894 
z
M 3022 2063 
Q 3016 2534 2758 2815 
Q 2500 3097 2075 3097 
Q 1594 3097 1305 2825 
Q 1016 2553 972 2059 
L 3022 2063 
z
" transform="scale(0.015625)"/>
       <path id="DejaVuSans-6e" d="M 3513 2113 
L 3513 0 
L 2938 0 
L 2938 2094 
Q 2938 2591 2744 2837 
Q 2550 3084 2163 3084 
Q 1697 3084 1428 2787 
Q 1159 2491 1159 1978 
L 1159 0 
L 581 0 
L 581 3500 
L 1159 3500 
L 1159 2956 
Q 1366 3272 1645 3428 
Q 1925 3584 2291 3584 
Q 2894 3584 3203 3211 
Q 3513 2838 3513 2113 
z
" transform="scale(0.015625)"/>
       <path id="DejaVuSans-72" d="M 2631 2963 
Q 2534 3019 2420 3045 
Q 2306 3072 2169 3072 
Q 1681 3072 1420 2755 
Q 1159 2438 1159 1844 
L 1159 0 
L 581 0 
L 581 3500 
L 1159 3500 
L 1159 2956 
Q 1341 3275 1631 3429 
Q 1922 3584 2338 3584 
Q 2397 3584 2469 3576 
Q 2541 3569 2628 3553 
L 2631 2963 
z
" transform="scale(0.015625)"/>
       <path id="DejaVuSans-61" d="M 2194 1759 
Q 1497 1759 1228 1600 
Q 959 1441 959 1056 
Q 959 750 1161 570 
Q 1363 391 1709 391 
Q 2188 391 2477 730 
Q 2766 1069 2766 1631 
L 2766 1759 
L 2194 1759 
z
M 3341 1997 
L 3341 0 
L 2766 0 
L 2766 531 
Q 2569 213 2275 61 
Q 1981 -91 1556 -91 
Q 1019 -91 701 211 
Q 384 513 384 1019 
Q 384 1609 779 1909 
Q 1175 2209 1959 2209 
L 2766 2209 
L 2766 2266 
Q 2766 2663 2505 2880 
Q 2244 3097 1772 3097 
Q 1472 3097 1187 3025 
Q 903 2953 641 2809 
L 641 3341 
Q 956 3463 1253 3523 
Q 1550 3584 1831 3584 
Q 2591 3584 2966 3190 
Q 3341 2797 3341 1997 
z
" transform="scale(0.015625)"/>
       <path id="DejaVuSans-74" d="M 1172 4494 
L 1172 3500 
L 2356 3500 
L 2356 3053 
L 1172 3053 
L 1172 1153 
Q 1172 725 1289 603 
Q 1406 481 1766 481 
L 2356 481 
L 2356 0 
L 1766 0 
Q 1100 0 847 248 
Q 594 497 594 1153 
L 594 3053 
L 172 3053 
L 172 3500 
L 594 3500 
L 594 4494 
L 1172 4494 
z
" transform="scale(0.015625)"/>
       <path id="DejaVuSans-69" d="M 603 3500 
L 1178 3500 
L 1178 0 
L 603 0 
L 603 3500 
z
M 603 4863 
L 1178 4863 
L 1178 4134 
L 603 4134 
L 603 4863 
z
" transform="scale(0.015625)"/>
       <path id="DejaVuSans-6f" d="M 1959 3097 
Q 1497 3097 1228 2736 
Q 959 2375 959 1747 
Q 959 1119 1226 758 
Q 1494 397 1959 397 
Q 2419 397 2687 759 
Q 2956 1122 2956 1747 
Q 2956 2369 2687 2733 
Q 2419 3097 1959 3097 
z
M 1959 3584 
Q 2709 3584 3137 3096 
Q 3566 2609 3566 1747 
Q 3566 888 3137 398 
Q 2709 -91 1959 -91 
Q 1206 -91 779 398 
Q 353 888 353 1747 
Q 353 2609 779 3096 
Q 1206 3584 1959 3584 
z
" transform="scale(0.015625)"/>
       <path id="DejaVuSans-73" d="M 2834 3397 
L 2834 2853 
Q 2591 2978 2328 3040 
Q 2066 3103 1784 3103 
Q 1356 3103 1142 2972 
Q 928 2841 928 2578 
Q 928 2378 1081 2264 
Q 1234 2150 1697 2047 
L 1894 2003 
Q 2506 1872 2764 1633 
Q 3022 1394 3022 966 
Q 3022 478 2636 193 
Q 2250 -91 1575 -91 
Q 1294 -91 989 -36 
Q 684 19 347 128 
L 347 722 
Q 666 556 975 473 
Q 1284 391 1588 391 
Q 1994 391 2212 530 
Q 2431 669 2431 922 
Q 2431 1156 2273 1281 
Q 2116 1406 1581 1522 
L 1381 1569 
Q 847 1681 609 1914 
Q 372 2147 372 2553 
Q 372 3047 722 3315 
Q 1072 3584 1716 3584 
Q 2034 3584 2315 3537 
Q 2597 3491 2834 3397 
z
" transform="scale(0.015625)"/>
      </defs>
      <use xlink:href="#DejaVuSans-47"/>
      <use xlink:href="#DejaVuSans-65" x="77.490234"/>
      <use xlink:href="#DejaVuSans-6e" x="139.013672"/>
      <use xlink:href="#DejaVuSans-65" x="202.392578"/>
      <use xlink:href="#DejaVuSans-72" x="263.916016"/>
      <use xlink:href="#DejaVuSans-61" x="305.029297"/>
      <use xlink:href="#DejaVuSans-74" x="366.308594"/>
      <use xlink:href="#DejaVuSans-69" x="405.517578"/>
      <use xlink:href="#DejaVuSans-6f" x="433.300781"/>
      <use xlink:href="#DejaVuSans-6e" x="494.482422"/>
      <use xlink:href="#DejaVuSans-73" x="557.861328"/>
     </g>
    </g>
   </g>
   <g id="matplotlib.axis_2">
    <g id="ytick_1">
     <g id="line2d_63">
      <path d="M 55.674375 248.297352 
L 390.474375 248.297352 
" clip-path="url(#p734ee86fb3)" style="fill: none; stroke: #b0b0b0; stroke-width: 0.5; stroke-linecap: square"/>
     </g>
     <g id="line2d_64">
      <defs>
       <path id="meadc3ac3b5" d="M 0 0 
L 3 0 
" style="stroke: #000000; stroke-width: 0.5"/>
      </defs>
      <g>
       <use xlink:href="#meadc3ac3b5" x="55.674375" y="248.297352" style="stroke: #000000; stroke-width: 0.5"/>
      </g>
     </g>
     <g id="line2d_65">
      <defs>
       <path id="m4906226baa" d="M 0 0 
L -3 0 
" style="stroke: #000000; stroke-width: 0.5"/>
      </defs>
      <g>
       <use xlink:href="#m4906226baa" x="390.474375" y="248.297352" style="stroke: #000000; stroke-width: 0.5"/>
      </g>
     </g>
     <g id="text_8">
      <!-- −140 -->
      <g transform="translate(19.21375 252.856414) scale(0.12 -0.12)">
       <defs>
        <path id="DejaVuSans-2212" d="M 678 2272 
L 4684 2272 
L 4684 1741 
L 678 1741 
L 678 2272 
z
" transform="scale(0.015625)"/>
       </defs>
       <use xlink:href="#DejaVuSans-2212"/>
       <use xlink:href="#DejaVuSans-31" x="83.789062"/>
       <use xlink:href="#DejaVuSans-34" x="147.412109"/>
       <use xlink:href="#DejaVuSans-30" x="211.035156"/>
      </g>
     </g>
    </g>
    <g id="ytick_2">
     <g id="line2d_66">
      <path d="M 55.674375 219.95496 
L 390.474375 219.95496 
" clip-path="url(#p734ee86fb3)" style="fill: none; stroke: #b0b0b0; stroke-width: 0.5; stroke-linecap: square"/>
     </g>
     <g id="line2d_67">
      <g>
       <use xlink:href="#meadc3ac3b5" x="55.674375" y="219.95496" style="stroke: #000000; stroke-width: 0.5"/>
      </g>
     </g>
     <g id="line2d_68">
      <g>
       <use xlink:href="#m4906226baa" x="390.474375" y="219.95496" style="stroke: #000000; stroke-width: 0.5"/>
      </g>
     </g>
     <g id="text_9">
      <!-- −120 -->
      <g transform="translate(19.21375 224.514022) scale(0.12 -0.12)">
       <use xlink:href="#DejaVuSans-2212"/>
       <use xlink:href="#DejaVuSans-31" x="83.789062"/>
       <use xlink:href="#DejaVuSans-32" x="147.412109"/>
       <use xlink:href="#DejaVuSans-30" x="211.035156"/>
      </g>
     </g>
    </g>
    <g id="ytick_3">
     <g id="line2d_69">
      <path d="M 55.674375 191.612568 
L 390.474375 191.612568 
" clip-path="url(#p734ee86fb3)" style="fill: none; stroke: #b0b0b0; stroke-width: 0.5; stroke-linecap: square"/>
     </g>
     <g id="line2d_70">
      <g>
       <use xlink:href="#meadc3ac3b5" x="55.674375" y="191.612568" style="stroke: #000000; stroke-width: 0.5"/>
      </g>
     </g>
     <g id="line2d_71">
      <g>
       <use xlink:href="#m4906226baa" x="390.474375" y="191.612568" style="stroke: #000000; stroke-width: 0.5"/>
      </g>
     </g>
     <g id="text_10">
      <!-- −100 -->
      <g transform="translate(19.21375 196.17163) scale(0.12 -0.12)">
       <use xlink:href="#DejaVuSans-2212"/>
       <use xlink:href="#DejaVuSans-31" x="83.789062"/>
       <use xlink:href="#DejaVuSans-30" x="147.412109"/>
       <use xlink:href="#DejaVuSans-30" x="211.035156"/>
      </g>
     </g>
    </g>
    <g id="ytick_4">
     <g id="line2d_72">
      <path d="M 55.674375 163.270175 
L 390.474375 163.270175 
" clip-path="url(#p734ee86fb3)" style="fill: none; stroke: #b0b0b0; stroke-width: 0.5; stroke-linecap: square"/>
     </g>
     <g id="line2d_73">
      <g>
       <use xlink:href="#meadc3ac3b5" x="55.674375" y="163.270175" style="stroke: #000000; stroke-width: 0.5"/>
      </g>
     </g>
     <g id="line2d_74">
      <g>
       <use xlink:href="#m4906226baa" x="390.474375" y="163.270175" style="stroke: #000000; stroke-width: 0.5"/>
      </g>
     </g>
     <g id="text_11">
      <!-- −80 -->
      <g transform="translate(26.84875 167.829238) scale(0.12 -0.12)">
       <defs>
        <path id="DejaVuSans-38" d="M 2034 2216 
Q 1584 2216 1326 1975 
Q 1069 1734 1069 1313 
Q 1069 891 1326 650 
Q 1584 409 2034 409 
Q 2484 409 2743 651 
Q 3003 894 3003 1313 
Q 3003 1734 2745 1975 
Q 2488 2216 2034 2216 
z
M 1403 2484 
Q 997 2584 770 2862 
Q 544 3141 544 3541 
Q 544 4100 942 4425 
Q 1341 4750 2034 4750 
Q 2731 4750 3128 4425 
Q 3525 4100 3525 3541 
Q 3525 3141 3298 2862 
Q 3072 2584 2669 2484 
Q 3125 2378 3379 2068 
Q 3634 1759 3634 1313 
Q 3634 634 3220 271 
Q 2806 -91 2034 -91 
Q 1263 -91 848 271 
Q 434 634 434 1313 
Q 434 1759 690 2068 
Q 947 2378 1403 2484 
z
M 1172 3481 
Q 1172 3119 1398 2916 
Q 1625 2713 2034 2713 
Q 2441 2713 2670 2916 
Q 2900 3119 2900 3481 
Q 2900 3844 2670 4047 
Q 2441 4250 2034 4250 
Q 1625 4250 1398 4047 
Q 1172 3844 1172 3481 
z
" transform="scale(0.015625)"/>
       </defs>
       <use xlink:href="#DejaVuSans-2212"/>
       <use xlink:href="#DejaVuSans-38" x="83.789062"/>
       <use xlink:href="#DejaVuSans-30" x="147.412109"/>
      </g>
     </g>
    </g>
    <g id="ytick_5">
     <g id="line2d_75">
      <path d="M 55.674375 134.927783 
L 390.474375 134.927783 
" clip-path="url(#p734ee86fb3)" style="fill: none; stroke: #b0b0b0; stroke-width: 0.5; stroke-linecap: square"/>
     </g>
     <g id="line2d_76">
      <g>
       <use xlink:href="#meadc3ac3b5" x="55.674375" y="134.927783" style="stroke: #000000; stroke-width: 0.5"/>
      </g>
     </g>
     <g id="line2d_77">
      <g>
       <use xlink:href="#m4906226baa" x="390.474375" y="134.927783" style="stroke: #000000; stroke-width: 0.5"/>
      </g>
     </g>
     <g id="text_12">
      <!-- −60 -->
      <g transform="translate(26.84875 139.486846) scale(0.12 -0.12)">
       <defs>
        <path id="DejaVuSans-36" d="M 2113 2584 
Q 1688 2584 1439 2293 
Q 1191 2003 1191 1497 
Q 1191 994 1439 701 
Q 1688 409 2113 409 
Q 2538 409 2786 701 
Q 3034 994 3034 1497 
Q 3034 2003 2786 2293 
Q 2538 2584 2113 2584 
z
M 3366 4563 
L 3366 3988 
Q 3128 4100 2886 4159 
Q 2644 4219 2406 4219 
Q 1781 4219 1451 3797 
Q 1122 3375 1075 2522 
Q 1259 2794 1537 2939 
Q 1816 3084 2150 3084 
Q 2853 3084 3261 2657 
Q 3669 2231 3669 1497 
Q 3669 778 3244 343 
Q 2819 -91 2113 -91 
Q 1303 -91 875 529 
Q 447 1150 447 2328 
Q 447 3434 972 4092 
Q 1497 4750 2381 4750 
Q 2619 4750 2861 4703 
Q 3103 4656 3366 4563 
z
" transform="scale(0.015625)"/>
       </defs>
       <use xlink:href="#DejaVuSans-2212"/>
       <use xlink:href="#DejaVuSans-36" x="83.789062"/>
       <use xlink:href="#DejaVuSans-30" x="147.412109"/>
      </g>
     </g>
    </g>
    <g id="ytick_6">
     <g id="line2d_78">
      <path d="M 55.674375 106.585391 
L 390.474375 106.585391 
" clip-path="url(#p734ee86fb3)" style="fill: none; stroke: #b0b0b0; stroke-width: 0.5; stroke-linecap: square"/>
     </g>
     <g id="line2d_79">
      <g>
       <use xlink:href="#meadc3ac3b5" x="55.674375" y="106.585391" style="stroke: #000000; stroke-width: 0.5"/>
      </g>
     </g>
     <g id="line2d_80">
      <g>
       <use xlink:href="#m4906226baa" x="390.474375" y="106.585391" style="stroke: #000000; stroke-width: 0.5"/>
      </g>
     </g>
     <g id="text_13">
      <!-- −40 -->
      <g transform="translate(26.84875 111.144454) scale(0.12 -0.12)">
       <use xlink:href="#DejaVuSans-2212"/>
       <use xlink:href="#DejaVuSans-34" x="83.789062"/>
       <use xlink:href="#DejaVuSans-30" x="147.412109"/>
      </g>
     </g>
    </g>
    <g id="ytick_7">
     <g id="line2d_81">
      <path d="M 55.674375 78.242999 
L 390.474375 78.242999 
" clip-path="url(#p734ee86fb3)" style="fill: none; stroke: #b0b0b0; stroke-width: 0.5; stroke-linecap: square"/>
     </g>
     <g id="line2d_82">
      <g>
       <use xlink:href="#meadc3ac3b5" x="55.674375" y="78.242999" style="stroke: #000000; stroke-width: 0.5"/>
      </g>
     </g>
     <g id="line2d_83">
      <g>
       <use xlink:href="#m4906226baa" x="390.474375" y="78.242999" style="stroke: #000000; stroke-width: 0.5"/>
      </g>
     </g>
     <g id="text_14">
      <!-- −20 -->
      <g transform="translate(26.84875 82.802061) scale(0.12 -0.12)">
       <use xlink:href="#DejaVuSans-2212"/>
       <use xlink:href="#DejaVuSans-32" x="83.789062"/>
       <use xlink:href="#DejaVuSans-30" x="147.412109"/>
      </g>
     </g>
    </g>
    <g id="ytick_8">
     <g id="line2d_84">
      <path d="M 55.674375 49.900607 
L 390.474375 49.900607 
" clip-path="url(#p734ee86fb3)" style="fill: none; stroke: #b0b0b0; stroke-width: 0.5; stroke-linecap: square"/>
     </g>
     <g id="line2d_85">
      <g>
       <use xlink:href="#meadc3ac3b5" x="55.674375" y="49.900607" style="stroke: #000000; stroke-width: 0.5"/>
      </g>
     </g>
     <g id="line2d_86">
      <g>
       <use xlink:href="#m4906226baa" x="390.474375" y="49.900607" style="stroke: #000000; stroke-width: 0.5"/>
      </g>
     </g>
     <g id="text_15">
      <!-- 0 -->
      <g transform="translate(44.539375 54.459669) scale(0.12 -0.12)">
       <use xlink:href="#DejaVuSans-30"/>
      </g>
     </g>
    </g>
    <g id="ytick_9">
     <g id="line2d_87">
      <path d="M 55.674375 21.558215 
L 390.474375 21.558215 
" clip-path="url(#p734ee86fb3)" style="fill: none; stroke: #b0b0b0; stroke-width: 0.5; stroke-linecap: square"/>
     </g>
     <g id="line2d_88">
      <g>
       <use xlink:href="#meadc3ac3b5" x="55.674375" y="21.558215" style="stroke: #000000; stroke-width: 0.5"/>
      </g>
     </g>
     <g id="line2d_89">
      <g>
       <use xlink:href="#m4906226baa" x="390.474375" y="21.558215" style="stroke: #000000; stroke-width: 0.5"/>
      </g>
     </g>
     <g id="text_16">
      <!-- 20 -->
      <g transform="translate(36.904375 26.117277) scale(0.12 -0.12)">
       <use xlink:href="#DejaVuSans-32"/>
       <use xlink:href="#DejaVuSans-30" x="63.623047"/>
      </g>
     </g>
    </g>
    <g id="ytick_10">
     <g id="line2d_90">
      <defs>
       <path id="m8d44a922b2" d="M 0 0 
L 1.5 0 
" style="stroke: #000000; stroke-width: 0.5"/>
      </defs>
      <g>
       <use xlink:href="#m8d44a922b2" x="55.674375" y="241.211754" style="stroke: #000000; stroke-width: 0.5"/>
      </g>
     </g>
     <g id="line2d_91">
      <defs>
       <path id="m01d2d55758" d="M 0 0 
L -1.5 0 
" style="stroke: #000000; stroke-width: 0.5"/>
      </defs>
      <g>
       <use xlink:href="#m01d2d55758" x="390.474375" y="241.211754" style="stroke: #000000; stroke-width: 0.5"/>
      </g>
     </g>
    </g>
    <g id="ytick_11">
     <g id="line2d_92">
      <g>
       <use xlink:href="#m8d44a922b2" x="55.674375" y="234.126156" style="stroke: #000000; stroke-width: 0.5"/>
      </g>
     </g>
     <g id="line2d_93">
      <g>
       <use xlink:href="#m01d2d55758" x="390.474375" y="234.126156" style="stroke: #000000; stroke-width: 0.5"/>
      </g>
     </g>
    </g>
    <g id="ytick_12">
     <g id="line2d_94">
      <g>
       <use xlink:href="#m8d44a922b2" x="55.674375" y="227.040558" style="stroke: #000000; stroke-width: 0.5"/>
      </g>
     </g>
     <g id="line2d_95">
      <g>
       <use xlink:href="#m01d2d55758" x="390.474375" y="227.040558" style="stroke: #000000; stroke-width: 0.5"/>
      </g>
     </g>
    </g>
    <g id="ytick_13">
     <g id="line2d_96">
      <g>
       <use xlink:href="#m8d44a922b2" x="55.674375" y="212.869362" style="stroke: #000000; stroke-width: 0.5"/>
      </g>
     </g>
     <g id="line2d_97">
      <g>
       <use xlink:href="#m01d2d55758" x="390.474375" y="212.869362" style="stroke: #000000; stroke-width: 0.5"/>
      </g>
     </g>
    </g>
    <g id="ytick_14">
     <g id="line2d_98">
      <g>
       <use xlink:href="#m8d44a922b2" x="55.674375" y="205.783764" style="stroke: #000000; stroke-width: 0.5"/>
      </g>
     </g>
     <g id="line2d_99">
      <g>
       <use xlink:href="#m01d2d55758" x="390.474375" y="205.783764" style="stroke: #000000; stroke-width: 0.5"/>
      </g>
     </g>
    </g>
    <g id="ytick_15">
     <g id="line2d_100">
      <g>
       <use xlink:href="#m8d44a922b2" x="55.674375" y="198.698166" style="stroke: #000000; stroke-width: 0.5"/>
      </g>
     </g>
     <g id="line2d_101">
      <g>
       <use xlink:href="#m01d2d55758" x="390.474375" y="198.698166" style="stroke: #000000; stroke-width: 0.5"/>
      </g>
     </g>
    </g>
    <g id="ytick_16">
     <g id="line2d_102">
      <g>
       <use xlink:href="#m8d44a922b2" x="55.674375" y="184.52697" style="stroke: #000000; stroke-width: 0.5"/>
      </g>
     </g>
     <g id="line2d_103">
      <g>
       <use xlink:href="#m01d2d55758" x="390.474375" y="184.52697" style="stroke: #000000; stroke-width: 0.5"/>
      </g>
     </g>
    </g>
    <g id="ytick_17">
     <g id="line2d_104">
      <g>
       <use xlink:href="#m8d44a922b2" x="55.674375" y="177.441372" style="stroke: #000000; stroke-width: 0.5"/>
      </g>
     </g>
     <g id="line2d_105">
      <g>
       <use xlink:href="#m01d2d55758" x="390.474375" y="177.441372" style="stroke: #000000; stroke-width: 0.5"/>
      </g>
     </g>
    </g>
    <g id="ytick_18">
     <g id="line2d_106">
      <g>
       <use xlink:href="#m8d44a922b2" x="55.674375" y="170.355773" style="stroke: #000000; stroke-width: 0.5"/>
      </g>
     </g>
     <g id="line2d_107">
      <g>
       <use xlink:href="#m01d2d55758" x="390.474375" y="170.355773" style="stroke: #000000; stroke-width: 0.5"/>
      </g>
     </g>
    </g>
    <g id="ytick_19">
     <g id="line2d_108">
      <g>
       <use xlink:href="#m8d44a922b2" x="55.674375" y="156.184577" style="stroke: #000000; stroke-width: 0.5"/>
      </g>
     </g>
     <g id="line2d_109">
      <g>
       <use xlink:href="#m01d2d55758" x="390.474375" y="156.184577" style="stroke: #000000; stroke-width: 0.5"/>
      </g>
     </g>
    </g>
    <g id="ytick_20">
     <g id="line2d_110">
      <g>
       <use xlink:href="#m8d44a922b2" x="55.674375" y="149.098979" style="stroke: #000000; stroke-width: 0.5"/>
      </g>
     </g>
     <g id="line2d_111">
      <g>
       <use xlink:href="#m01d2d55758" x="390.474375" y="149.098979" style="stroke: #000000; stroke-width: 0.5"/>
      </g>
     </g>
    </g>
    <g id="ytick_21">
     <g id="line2d_112">
      <g>
       <use xlink:href="#m8d44a922b2" x="55.674375" y="142.013381" style="stroke: #000000; stroke-width: 0.5"/>
      </g>
     </g>
     <g id="line2d_113">
      <g>
       <use xlink:href="#m01d2d55758" x="390.474375" y="142.013381" style="stroke: #000000; stroke-width: 0.5"/>
      </g>
     </g>
    </g>
    <g id="ytick_22">
     <g id="line2d_114">
      <g>
       <use xlink:href="#m8d44a922b2" x="55.674375" y="127.842185" style="stroke: #000000; stroke-width: 0.5"/>
      </g>
     </g>
     <g id="line2d_115">
      <g>
       <use xlink:href="#m01d2d55758" x="390.474375" y="127.842185" style="stroke: #000000; stroke-width: 0.5"/>
      </g>
     </g>
    </g>
    <g id="ytick_23">
     <g id="line2d_116">
      <g>
       <use xlink:href="#m8d44a922b2" x="55.674375" y="120.756587" style="stroke: #000000; stroke-width: 0.5"/>
      </g>
     </g>
     <g id="line2d_117">
      <g>
       <use xlink:href="#m01d2d55758" x="390.474375" y="120.756587" style="stroke: #000000; stroke-width: 0.5"/>
      </g>
     </g>
    </g>
    <g id="ytick_24">
     <g id="line2d_118">
      <g>
       <use xlink:href="#m8d44a922b2" x="55.674375" y="113.670989" style="stroke: #000000; stroke-width: 0.5"/>
      </g>
     </g>
     <g id="line2d_119">
      <g>
       <use xlink:href="#m01d2d55758" x="390.474375" y="113.670989" style="stroke: #000000; stroke-width: 0.5"/>
      </g>
     </g>
    </g>
    <g id="ytick_25">
     <g id="line2d_120">
      <g>
       <use xlink:href="#m8d44a922b2" x="55.674375" y="99.499793" style="stroke: #000000; stroke-width: 0.5"/>
      </g>
     </g>
     <g id="line2d_121">
      <g>
       <use xlink:href="#m01d2d55758" x="390.474375" y="99.499793" style="stroke: #000000; stroke-width: 0.5"/>
      </g>
     </g>
    </g>
    <g id="ytick_26">
     <g id="line2d_122">
      <g>
       <use xlink:href="#m8d44a922b2" x="55.674375" y="92.414195" style="stroke: #000000; stroke-width: 0.5"/>
      </g>
     </g>
     <g id="line2d_123">
      <g>
       <use xlink:href="#m01d2d55758" x="390.474375" y="92.414195" style="stroke: #000000; stroke-width: 0.5"/>
      </g>
     </g>
    </g>
    <g id="ytick_27">
     <g id="line2d_124">
      <g>
       <use xlink:href="#m8d44a922b2" x="55.674375" y="85.328597" style="stroke: #000000; stroke-width: 0.5"/>
      </g>
     </g>
     <g id="line2d_125">
      <g>
       <use xlink:href="#m01d2d55758" x="390.474375" y="85.328597" style="stroke: #000000; stroke-width: 0.5"/>
      </g>
     </g>
    </g>
    <g id="ytick_28">
     <g id="line2d_126">
      <g>
       <use xlink:href="#m8d44a922b2" x="55.674375" y="71.157401" style="stroke: #000000; stroke-width: 0.5"/>
      </g>
     </g>
     <g id="line2d_127">
      <g>
       <use xlink:href="#m01d2d55758" x="390.474375" y="71.157401" style="stroke: #000000; stroke-width: 0.5"/>
      </g>
     </g>
    </g>
    <g id="ytick_29">
     <g id="line2d_128">
      <g>
       <use xlink:href="#m8d44a922b2" x="55.674375" y="64.071803" style="stroke: #000000; stroke-width: 0.5"/>
      </g>
     </g>
     <g id="line2d_129">
      <g>
       <use xlink:href="#m01d2d55758" x="390.474375" y="64.071803" style="stroke: #000000; stroke-width: 0.5"/>
      </g>
     </g>
    </g>
    <g id="ytick_30">
     <g id="line2d_130">
      <g>
       <use xlink:href="#m8d44a922b2" x="55.674375" y="56.986205" style="stroke: #000000; stroke-width: 0.5"/>
      </g>
     </g>
     <g id="line2d_131">
      <g>
       <use xlink:href="#m01d2d55758" x="390.474375" y="56.986205" style="stroke: #000000; stroke-width: 0.5"/>
      </g>
     </g>
    </g>
    <g id="ytick_31">
     <g id="line2d_132">
      <g>
       <use xlink:href="#m8d44a922b2" x="55.674375" y="42.815009" style="stroke: #000000; stroke-width: 0.5"/>
      </g>
     </g>
     <g id="line2d_133">
      <g>
       <use xlink:href="#m01d2d55758" x="390.474375" y="42.815009" style="stroke: #000000; stroke-width: 0.5"/>
      </g>
     </g>
    </g>
    <g id="ytick_32">
     <g id="line2d_134">
      <g>
       <use xlink:href="#m8d44a922b2" x="55.674375" y="35.729411" style="stroke: #000000; stroke-width: 0.5"/>
      </g>
     </g>
     <g id="line2d_135">
      <g>
       <use xlink:href="#m01d2d55758" x="390.474375" y="35.729411" style="stroke: #000000; stroke-width: 0.5"/>
      </g>
     </g>
    </g>
    <g id="ytick_33">
     <g id="line2d_136">
      <g>
       <use xlink:href="#m8d44a922b2" x="55.674375" y="28.643813" style="stroke: #000000; stroke-width: 0.5"/>
      </g>
     </g>
     <g id="line2d_137">
      <g>
       <use xlink:href="#m01d2d55758" x="390.474375" y="28.643813" style="stroke: #000000; stroke-width: 0.5"/>
      </g>
     </g>
    </g>
    <g id="ytick_34">
     <g id="line2d_138">
      <g>
       <use xlink:href="#m8d44a922b2" x="55.674375" y="14.472616" style="stroke: #000000; stroke-width: 0.5"/>
      </g>
     </g>
     <g id="line2d_139">
      <g>
       <use xlink:href="#m01d2d55758" x="390.474375" y="14.472616" style="stroke: #000000; stroke-width: 0.5"/>
      </g>
     </g>
    </g>
    <g id="ytick_35">
     <g id="line2d_140">
      <g>
       <use xlink:href="#m8d44a922b2" x="55.674375" y="7.387018" style="stroke: #000000; stroke-width: 0.5"/>
      </g>
     </g>
     <g id="line2d_141">
      <g>
       <use xlink:href="#m01d2d55758" x="390.474375" y="7.387018" style="stroke: #000000; stroke-width: 0.5"/>
      </g>
     </g>
    </g>
    <g id="text_17">
     <!-- Fitness -->
     <g transform="translate(12.718125 149.120625) rotate(-90) scale(0.12 -0.12)">
      <defs>
       <path id="DejaVuSans-46" d="M 628 4666 
L 3309 4666 
L 3309 4134 
L 1259 4134 
L 1259 2759 
L 3109 2759 
L 3109 2228 
L 1259 2228 
L 1259 0 
L 628 0 
L 628 4666 
z
" transform="scale(0.015625)"/>
      </defs>
      <use xlink:href="#DejaVuSans-46"/>
      <use xlink:href="#DejaVuSans-69" x="50.269531"/>
      <use xlink:href="#DejaVuSans-74" x="78.052734"/>
      <use xlink:href="#DejaVuSans-6e" x="117.261719"/>
      <use xlink:href="#DejaVuSans-65" x="180.640625"/>
      <use xlink:href="#DejaVuSans-73" x="242.164062"/>
      <use xlink:href="#DejaVuSans-73" x="294.263672"/>
     </g>
    </g>
   </g>
   <g id="line2d_142">
    <path d="M 70.892557 29.998723 
L 71.502504 26.384956 
L 80.041764 26.384967 
L 80.651711 22.795812 
L 82.481553 22.795808 
L 83.0915 22.141937 
L 84.311394 22.141935 
L 84.921342 20.746542 
L 85.531289 18.641713 
L 86.751183 18.641702 
L 87.36113 17.81018 
L 89.800919 17.810176 
L 90.410866 17.550801 
L 91.63076 17.502827 
L 92.240708 17.248444 
L 93.460602 17.248448 
L 94.070549 16.868838 
L 98.340179 16.868783 
L 98.950127 16.504831 
L 99.560074 16.323722 
L 103.829704 16.295521 
L 104.439651 16.166704 
L 109.319228 16.166667 
L 109.929176 16.027984 
L 123.95796 15.934339 
L 125.177855 15.594757 
L 134.327062 15.594747 
L 135.546957 15.401764 
L 156.895107 15.372196 
L 157.505055 15.201756 
L 299.012797 15.129294 
L 300.232692 15.068063 
L 346.588676 14.976897 
L 349.028465 14.945375 
L 375.256193 14.94 
L 375.256193 14.94 
" clip-path="url(#p734ee86fb3)" style="fill: none; stroke: #000000; stroke-linecap: square"/>
   </g>
   <g id="line2d_143">
    <path d="M 70.892557 105.400462 
L 71.502504 122.738156 
L 72.112451 112.650342 
L 72.722398 81.331126 
L 73.332345 89.289479 
L 73.942293 95.545445 
L 74.55224 95.796306 
L 75.162187 241.74 
L 75.772134 93.156164 
L 76.382081 106.533841 
L 76.992028 80.110533 
L 77.601976 65.895371 
L 78.211923 88.229919 
L 78.82187 77.94907 
L 79.431817 77.632829 
L 80.041764 77.640051 
L 80.651711 75.020502 
L 81.261659 66.256166 
L 81.871606 76.352616 
L 82.481553 64.284771 
L 83.0915 67.928826 
L 83.701447 63.373861 
L 84.311394 64.251458 
L 84.921342 63.402587 
L 85.531289 63.794305 
L 86.141236 63.423288 
L 86.751183 68.039389 
L 87.36113 74.361297 
L 87.971077 87.795525 
L 88.581025 62.983764 
L 89.190972 59.172918 
L 89.800919 61.715126 
L 90.410866 52.55694 
L 91.020813 47.261348 
L 91.63076 49.930216 
L 92.240708 48.466388 
L 92.850655 120.536803 
L 93.460602 45.547754 
L 94.070549 45.295143 
L 94.680496 40.996014 
L 95.290444 48.621516 
L 95.900391 48.380265 
L 96.510338 36.992461 
L 97.120285 52.273361 
L 97.730232 37.965132 
L 99.560074 29.180586 
L 100.170021 25.107969 
L 100.779968 23.468922 
L 101.389915 21.347023 
L 101.999862 20.403596 
L 102.60981 19.855324 
L 103.219757 19.459424 
L 103.829704 19.327531 
L 104.439651 18.653014 
L 105.049598 18.298735 
L 105.659545 18.284011 
L 106.269493 18.656186 
L 106.87944 18.885689 
L 108.709281 17.953831 
L 109.319228 18.116044 
L 109.929176 17.698635 
L 110.539123 17.607041 
L 111.14907 17.360379 
L 111.759017 17.610304 
L 112.368964 17.599872 
L 112.978911 17.970096 
L 113.588859 17.749956 
L 114.808753 18.127891 
L 116.028647 17.832005 
L 116.638594 17.427086 
L 117.248542 17.358562 
L 117.858489 17.778897 
L 118.468436 18.024245 
L 119.078383 17.819891 
L 120.298277 18.317012 
L 120.908225 18.435867 
L 121.518172 19.057223 
L 122.128119 18.262758 
L 122.738066 18.770548 
L 123.348013 18.989174 
L 123.95796 17.965239 
L 126.397749 17.561396 
L 127.007696 17.986969 
L 127.617643 17.700558 
L 128.227591 17.882665 
L 128.837538 17.670428 
L 129.447485 17.879187 
L 130.667379 17.903613 
L 131.277326 18.30262 
L 132.497221 18.103461 
L 133.107168 18.997622 
L 133.717115 18.252222 
L 134.327062 18.333802 
L 134.937009 17.551966 
L 135.546957 17.244176 
L 136.156904 17.406829 
L 136.766851 17.400138 
L 137.376798 17.61948 
L 137.986745 17.029285 
L 138.596692 17.015504 
L 139.20664 17.514572 
L 139.816587 17.037581 
L 140.426534 16.909066 
L 141.036481 17.013169 
L 141.646428 16.545347 
L 142.256375 16.363479 
L 144.086217 16.531846 
L 144.696164 16.277665 
L 145.306111 16.29517 
L 145.916058 16.124519 
L 146.526006 16.193757 
L 147.135953 16.043228 
L 147.7459 16.288649 
L 148.355847 16.190742 
L 149.575741 16.540354 
L 150.185689 16.319103 
L 150.795636 16.31187 
L 152.01553 16.604377 
L 153.235424 16.546972 
L 154.455319 16.196912 
L 155.065266 16.197808 
L 155.675213 16.638743 
L 156.28516 16.606421 
L 156.895107 16.348198 
L 158.115002 16.559823 
L 158.724949 16.720775 
L 159.334896 16.644363 
L 159.944843 16.409106 
L 161.164738 16.143199 
L 162.384632 16.285873 
L 163.604526 16.240793 
L 164.214473 16.036968 
L 164.824421 15.988802 
L 165.434368 16.49423 
L 166.044315 16.01606 
L 167.264209 15.971802 
L 167.874156 16.481292 
L 168.484104 15.920159 
L 169.094051 15.746861 
L 169.703998 15.708666 
L 170.313945 15.868627 
L 170.923892 15.715802 
L 171.533839 15.931487 
L 173.363681 15.544202 
L 173.973628 15.756076 
L 174.583575 15.721885 
L 175.193522 16.168269 
L 175.80347 16.244619 
L 176.413417 16.842569 
L 177.023364 16.222535 
L 178.243258 16.096717 
L 180.683047 16.05295 
L 181.292994 15.779391 
L 181.902941 15.773043 
L 182.512888 15.994982 
L 184.34273 15.995323 
L 184.952677 15.938014 
L 185.562624 15.692884 
L 186.172571 15.831677 
L 187.392466 15.7512 
L 188.61236 16.114349 
L 189.222307 15.916134 
L 191.052149 15.816413 
L 192.272043 16.072886 
L 192.88199 16.367089 
L 193.491937 16.322313 
L 194.101885 15.928709 
L 194.711832 15.910082 
L 195.321779 16.252211 
L 195.931726 15.985218 
L 196.541673 16.122121 
L 197.761568 15.897386 
L 198.371515 15.584023 
L 198.981462 15.846707 
L 199.591409 15.725718 
L 200.201356 15.847037 
L 200.811303 15.814029 
L 201.421251 15.904284 
L 202.031198 15.830603 
L 202.641145 15.965247 
L 205.080934 16.035342 
L 206.300828 16.476329 
L 206.910775 17.134512 
L 207.520722 16.449465 
L 208.130669 16.375695 
L 208.740617 16.044123 
L 209.350564 16.524136 
L 209.960511 16.259011 
L 210.570458 16.277597 
L 211.180405 16.095141 
L 211.790352 16.075108 
L 213.010247 16.694286 
L 214.230141 16.378509 
L 214.840088 16.652303 
L 215.450035 16.280843 
L 216.059983 16.125861 
L 216.66993 16.203891 
L 217.279877 16.41128 
L 217.889824 16.394745 
L 218.499771 16.588772 
L 219.719666 15.961111 
L 222.769401 16.052945 
L 223.379349 15.900579 
L 224.599243 16.038012 
L 225.20919 16.098271 
L 225.819137 15.997459 
L 226.429084 16.181785 
L 227.039032 15.894447 
L 227.648979 16.039688 
L 228.868873 15.859887 
L 229.47882 15.892425 
L 230.088767 15.733735 
L 230.698715 15.695 
L 231.918609 15.967633 
L 232.528556 16.34635 
L 233.138503 16.376229 
L 233.74845 16.210664 
L 234.358398 15.859825 
L 234.968345 16.032216 
L 235.578292 15.743527 
L 236.188239 15.675503 
L 236.798186 15.764932 
L 237.408133 16.142056 
L 238.628028 15.998475 
L 239.237975 16.310743 
L 240.457869 16.232564 
L 242.287711 15.996031 
L 243.507605 16.174905 
L 244.117552 16.164342 
L 244.727499 16.337324 
L 245.337447 16.091561 
L 245.947394 15.966571 
L 246.557341 15.981587 
L 247.167288 15.7424 
L 247.777235 16.007462 
L 248.99713 16.342406 
L 250.826971 15.97124 
L 252.046865 16.039421 
L 253.876707 15.75857 
L 255.706548 15.616452 
L 256.316496 15.785424 
L 256.926443 15.742735 
L 257.53639 16.171927 
L 258.146337 16.095845 
L 258.756284 15.805272 
L 259.366231 15.738652 
L 260.586126 15.958334 
L 262.415967 16.471611 
L 263.025914 16.086575 
L 267.295545 15.663042 
L 267.905492 15.515222 
L 268.515439 15.78904 
L 269.125386 15.600711 
L 269.735333 15.55588 
L 270.34528 15.793858 
L 270.955228 15.673943 
L 272.175122 15.726696 
L 272.785069 15.580295 
L 273.395016 15.580822 
L 274.004963 15.983408 
L 274.614911 16.000658 
L 275.834805 15.723762 
L 276.444752 15.53558 
L 277.054699 15.788388 
L 277.664646 16.199585 
L 278.274594 15.944913 
L 278.884541 16.055368 
L 279.494488 15.943422 
L 280.714382 15.893062 
L 281.324329 15.579273 
L 281.934277 15.836797 
L 282.544224 15.750426 
L 283.154171 16.503114 
L 283.764118 16.263765 
L 284.374065 16.676203 
L 284.984012 16.378317 
L 285.59396 16.301764 
L 286.203907 16.54778 
L 287.423801 16.322243 
L 288.033748 15.856239 
L 288.643695 15.913493 
L 289.253643 16.13064 
L 289.86359 15.962525 
L 291.083484 16.02814 
L 294.743167 15.71997 
L 295.353114 16.055587 
L 295.963061 15.794752 
L 296.573009 15.916182 
L 297.792903 15.919091 
L 298.40285 16.102737 
L 299.012797 16.16156 
L 300.232692 15.913939 
L 300.842639 15.656169 
L 301.452586 15.884134 
L 302.062533 15.645675 
L 302.67248 15.976527 
L 303.282427 15.864606 
L 303.892375 16.237422 
L 305.112269 16.006829 
L 305.722216 16.276753 
L 306.332163 16.234618 
L 307.552058 15.913488 
L 308.162005 15.895813 
L 308.771952 16.102548 
L 309.381899 16.963143 
L 309.991846 16.012706 
L 310.601793 16.27321 
L 311.211741 16.101599 
L 311.821688 15.807024 
L 313.041582 16.064677 
L 314.871424 15.933854 
L 315.481371 16.319554 
L 316.091318 16.154995 
L 316.701265 16.167157 
L 317.311212 16.545968 
L 317.921159 16.689973 
L 318.531107 16.333047 
L 319.141054 16.28321 
L 320.360948 16.003306 
L 320.970895 15.565936 
L 321.580842 15.602546 
L 322.19079 16.069158 
L 322.800737 15.919425 
L 323.410684 16.143469 
L 324.020631 16.147106 
L 324.630578 15.951457 
L 327.680314 16.184148 
L 328.290261 16.110708 
L 330.73005 16.280888 
L 331.949944 16.169641 
L 332.559891 16.151595 
L 333.779786 15.774465 
L 334.389733 15.944732 
L 334.99968 15.914422 
L 335.609627 15.729338 
L 336.219574 15.987292 
L 337.439469 15.737473 
L 338.659363 15.919124 
L 339.26931 16.431718 
L 341.099152 16.219517 
L 341.709099 16.292126 
L 342.319046 16.499312 
L 342.928993 16.559826 
L 343.53894 16.479852 
L 344.148888 16.273737 
L 344.758835 16.36681 
L 345.368782 16.161381 
L 346.588676 16.432812 
L 347.198623 16.141907 
L 347.808571 16.050029 
L 348.418518 15.752866 
L 349.638412 15.666705 
L 350.858306 15.979937 
L 352.078201 16.252546 
L 352.688148 16.097994 
L 353.298095 16.247358 
L 353.908042 16.013697 
L 354.51799 16.142788 
L 355.127937 16.958839 
L 355.737884 16.681451 
L 356.347831 16.131201 
L 356.957778 16.378365 
L 357.567725 16.287287 
L 358.177673 16.662869 
L 358.78762 16.881544 
L 359.397567 16.556255 
L 360.617461 16.419713 
L 361.227408 16.191901 
L 361.837356 16.095473 
L 362.447303 16.31105 
L 363.05725 15.89752 
L 363.667197 15.817628 
L 364.277144 16.024828 
L 364.887091 16.082528 
L 365.497039 16.453828 
L 366.106986 16.58408 
L 367.32688 16.01774 
L 367.936827 15.886192 
L 368.546774 16.267483 
L 369.156722 15.885388 
L 369.766669 15.974027 
L 370.986563 15.837983 
L 371.59651 16.305578 
L 372.206457 16.379651 
L 372.816405 16.304462 
L 373.426352 16.417939 
L 374.036299 15.959549 
L 374.646246 16.105867 
L 375.256193 16.122689 
L 375.256193 16.122689 
" clip-path="url(#p734ee86fb3)" style="fill: none; stroke-dasharray: 3.7,1.6; stroke-dashoffset: 0; stroke: #000000"/>
   </g>
   <g id="patch_3">
    <path d="M 55.674375 253.08 
L 55.674375 3.6 
" style="fill: none; stroke: #000000; stroke-width: 0.5; stroke-linejoin: miter; stroke-linecap: square"/>
   </g>
   <g id="patch_4">
    <path d="M 390.474375 253.08 
L 390.474375 3.6 
" style="fill: none; stroke: #000000; stroke-width: 0.5; stroke-linejoin: miter; stroke-linecap: square"/>
   </g>
   <g id="patch_5">
    <path d="M 55.674375 253.08 
L 390.474375 253.08 
" style="fill: none; stroke: #000000; stroke-width: 0.5; stroke-linejoin: miter; stroke-linecap: square"/>
   </g>
   <g id="patch_6">
    <path d="M 55.674375 3.6 
L 390.474375 3.6 
" style="fill: none; stroke: #000000; stroke-width: 0.5; stroke-linejoin: miter; stroke-linecap: square"/>
   </g>
   <g id="legend_1">
    <g id="patch_7">
     <path d="M 264.268125 247.08 
L 382.074375 247.08 
Q 384.474375 247.08 384.474375 244.68 
L 384.474375 193.03875 
Q 384.474375 190.63875 382.074375 190.63875 
L 264.268125 190.63875 
Q 261.868125 190.63875 261.868125 193.03875 
L 261.868125 244.68 
Q 261.868125 247.08 264.268125 247.08 
z
" style="fill: #ffffff; opacity: 0.8; stroke: #cccccc; stroke-linejoin: miter"/>
    </g>
    <g id="line2d_144">
     <path d="M 266.668125 200.356875 
L 278.668125 200.356875 
L 290.668125 200.356875 
" style="fill: none; stroke: #000000; stroke-linecap: square"/>
    </g>
    <g id="text_18">
     <!-- Max fitness -->
     <g transform="translate(300.268125 204.556875) scale(0.12 -0.12)">
      <defs>
       <path id="DejaVuSans-4d" d="M 628 4666 
L 1569 4666 
L 2759 1491 
L 3956 4666 
L 4897 4666 
L 4897 0 
L 4281 0 
L 4281 4097 
L 3078 897 
L 2444 897 
L 1241 4097 
L 1241 0 
L 628 0 
L 628 4666 
z
" transform="scale(0.015625)"/>
       <path id="DejaVuSans-78" d="M 3513 3500 
L 2247 1797 
L 3578 0 
L 2900 0 
L 1881 1375 
L 863 0 
L 184 0 
L 1544 1831 
L 300 3500 
L 978 3500 
L 1906 2253 
L 2834 3500 
L 3513 3500 
z
" transform="scale(0.015625)"/>
       <path id="DejaVuSans-20" transform="scale(0.015625)"/>
       <path id="DejaVuSans-66" d="M 2375 4863 
L 2375 4384 
L 1825 4384 
Q 1516 4384 1395 4259 
Q 1275 4134 1275 3809 
L 1275 3500 
L 2222 3500 
L 2222 3053 
L 1275 3053 
L 1275 0 
L 697 0 
L 697 3053 
L 147 3053 
L 147 3500 
L 697 3500 
L 697 3744 
Q 697 4328 969 4595 
Q 1241 4863 1831 4863 
L 2375 4863 
z
" transform="scale(0.015625)"/>
      </defs>
      <use xlink:href="#DejaVuSans-4d"/>
      <use xlink:href="#DejaVuSans-61" x="86.279297"/>
      <use xlink:href="#DejaVuSans-78" x="147.558594"/>
      <use xlink:href="#DejaVuSans-20" x="206.738281"/>
      <use xlink:href="#DejaVuSans-66" x="238.525391"/>
      <use xlink:href="#DejaVuSans-69" x="273.730469"/>
      <use xlink:href="#DejaVuSans-74" x="301.513672"/>
      <use xlink:href="#DejaVuSans-6e" x="340.722656"/>
      <use xlink:href="#DejaVuSans-65" x="404.101562"/>
      <use xlink:href="#DejaVuSans-73" x="465.625"/>
      <use xlink:href="#DejaVuSans-73" x="517.724609"/>
     </g>
    </g>
    <g id="patch_8">
     <path d="M 266.668125 222.170625 
L 290.668125 222.170625 
L 290.668125 213.770625 
L 266.668125 213.770625 
z
" style="fill: #0000ff; fill-opacity: 0.2; stroke: #0000ff; stroke-opacity: 0.2; stroke-linejoin: miter"/>
    </g>
    <g id="text_19">
     <!-- Top 90% -->
     <g transform="translate(300.268125 222.170625) scale(0.12 -0.12)">
      <defs>
       <path id="DejaVuSans-54" d="M -19 4666 
L 3928 4666 
L 3928 4134 
L 2272 4134 
L 2272 0 
L 1638 0 
L 1638 4134 
L -19 4134 
L -19 4666 
z
" transform="scale(0.015625)"/>
       <path id="DejaVuSans-70" d="M 1159 525 
L 1159 -1331 
L 581 -1331 
L 581 3500 
L 1159 3500 
L 1159 2969 
Q 1341 3281 1617 3432 
Q 1894 3584 2278 3584 
Q 2916 3584 3314 3078 
Q 3713 2572 3713 1747 
Q 3713 922 3314 415 
Q 2916 -91 2278 -91 
Q 1894 -91 1617 61 
Q 1341 213 1159 525 
z
M 3116 1747 
Q 3116 2381 2855 2742 
Q 2594 3103 2138 3103 
Q 1681 3103 1420 2742 
Q 1159 2381 1159 1747 
Q 1159 1113 1420 752 
Q 1681 391 2138 391 
Q 2594 391 2855 752 
Q 3116 1113 3116 1747 
z
" transform="scale(0.015625)"/>
       <path id="DejaVuSans-39" d="M 703 97 
L 703 672 
Q 941 559 1184 500 
Q 1428 441 1663 441 
Q 2288 441 2617 861 
Q 2947 1281 2994 2138 
Q 2813 1869 2534 1725 
Q 2256 1581 1919 1581 
Q 1219 1581 811 2004 
Q 403 2428 403 3163 
Q 403 3881 828 4315 
Q 1253 4750 1959 4750 
Q 2769 4750 3195 4129 
Q 3622 3509 3622 2328 
Q 3622 1225 3098 567 
Q 2575 -91 1691 -91 
Q 1453 -91 1209 -44 
Q 966 3 703 97 
z
M 1959 2075 
Q 2384 2075 2632 2365 
Q 2881 2656 2881 3163 
Q 2881 3666 2632 3958 
Q 2384 4250 1959 4250 
Q 1534 4250 1286 3958 
Q 1038 3666 1038 3163 
Q 1038 2656 1286 2365 
Q 1534 2075 1959 2075 
z
" transform="scale(0.015625)"/>
       <path id="DejaVuSans-25" d="M 4653 2053 
Q 4381 2053 4226 1822 
Q 4072 1591 4072 1178 
Q 4072 772 4226 539 
Q 4381 306 4653 306 
Q 4919 306 5073 539 
Q 5228 772 5228 1178 
Q 5228 1588 5073 1820 
Q 4919 2053 4653 2053 
z
M 4653 2450 
Q 5147 2450 5437 2106 
Q 5728 1763 5728 1178 
Q 5728 594 5436 251 
Q 5144 -91 4653 -91 
Q 4153 -91 3862 251 
Q 3572 594 3572 1178 
Q 3572 1766 3864 2108 
Q 4156 2450 4653 2450 
z
M 1428 4353 
Q 1159 4353 1004 4120 
Q 850 3888 850 3481 
Q 850 3069 1003 2837 
Q 1156 2606 1428 2606 
Q 1700 2606 1854 2837 
Q 2009 3069 2009 3481 
Q 2009 3884 1853 4118 
Q 1697 4353 1428 4353 
z
M 4250 4750 
L 4750 4750 
L 1831 -91 
L 1331 -91 
L 4250 4750 
z
M 1428 4750 
Q 1922 4750 2215 4408 
Q 2509 4066 2509 3481 
Q 2509 2891 2217 2550 
Q 1925 2209 1428 2209 
Q 931 2209 642 2551 
Q 353 2894 353 3481 
Q 353 4063 643 4406 
Q 934 4750 1428 4750 
z
" transform="scale(0.015625)"/>
      </defs>
      <use xlink:href="#DejaVuSans-54"/>
      <use xlink:href="#DejaVuSans-6f" x="44.083984"/>
      <use xlink:href="#DejaVuSans-70" x="105.265625"/>
      <use xlink:href="#DejaVuSans-20" x="168.742188"/>
      <use xlink:href="#DejaVuSans-39" x="200.529297"/>
      <use xlink:href="#DejaVuSans-30" x="264.152344"/>
      <use xlink:href="#DejaVuSans-25" x="327.775391"/>
     </g>
    </g>
    <g id="line2d_145">
     <path d="M 266.668125 235.584375 
L 278.668125 235.584375 
L 290.668125 235.584375 
" style="fill: none; stroke-dasharray: 3.7,1.6; stroke-dashoffset: 0; stroke: #000000"/>
    </g>
    <g id="text_20">
     <!-- Fitness mean -->
     <g transform="translate(300.268125 239.784375) scale(0.12 -0.12)">
      <defs>
       <path id="DejaVuSans-6d" d="M 3328 2828 
Q 3544 3216 3844 3400 
Q 4144 3584 4550 3584 
Q 5097 3584 5394 3201 
Q 5691 2819 5691 2113 
L 5691 0 
L 5113 0 
L 5113 2094 
Q 5113 2597 4934 2840 
Q 4756 3084 4391 3084 
Q 3944 3084 3684 2787 
Q 3425 2491 3425 1978 
L 3425 0 
L 2847 0 
L 2847 2094 
Q 2847 2600 2669 2842 
Q 2491 3084 2119 3084 
Q 1678 3084 1418 2786 
Q 1159 2488 1159 1978 
L 1159 0 
L 581 0 
L 581 3500 
L 1159 3500 
L 1159 2956 
Q 1356 3278 1631 3431 
Q 1906 3584 2284 3584 
Q 2666 3584 2933 3390 
Q 3200 3197 3328 2828 
z
" transform="scale(0.015625)"/>
      </defs>
      <use xlink:href="#DejaVuSans-46"/>
      <use xlink:href="#DejaVuSans-69" x="50.269531"/>
      <use xlink:href="#DejaVuSans-74" x="78.052734"/>
      <use xlink:href="#DejaVuSans-6e" x="117.261719"/>
      <use xlink:href="#DejaVuSans-65" x="180.640625"/>
      <use xlink:href="#DejaVuSans-73" x="242.164062"/>
      <use xlink:href="#DejaVuSans-73" x="294.263672"/>
      <use xlink:href="#DejaVuSans-20" x="346.363281"/>
      <use xlink:href="#DejaVuSans-6d" x="378.150391"/>
      <use xlink:href="#DejaVuSans-65" x="475.5625"/>
      <use xlink:href="#DejaVuSans-61" x="537.085938"/>
      <use xlink:href="#DejaVuSans-6e" x="598.365234"/>
     </g>
    </g>
   </g>
  </g>
 </g>
 <defs>
  <clipPath id="p734ee86fb3">
   <rect x="55.674375" y="3.6" width="334.8" height="249.48"/>
  </clipPath>
 </defs>
</svg>
