<?xml version="1.0" encoding="utf-8" standalone="no"?>
<!DOCTYPE svg PUBLIC "-//W3C//DTD SVG 1.1//EN"
  "http://www.w3.org/Graphics/SVG/1.1/DTD/svg11.dtd">
<svg xmlns:xlink="http://www.w3.org/1999/xlink" width="386.439375pt" height="287.4075pt" viewBox="0 0 386.439375 287.4075" xmlns="http://www.w3.org/2000/svg" version="1.1">
 <metadata>
  <rdf:RDF xmlns:dc="http://purl.org/dc/elements/1.1/" xmlns:cc="http://creativecommons.org/ns#" xmlns:rdf="http://www.w3.org/1999/02/22-rdf-syntax-ns#">
   <cc:Work>
    <dc:type rdf:resource="http://purl.org/dc/dcmitype/StillImage"/>
    <dc:date>2024-06-04T12:14:44.250436</dc:date>
    <dc:format>image/svg+xml</dc:format>
    <dc:creator>
     <cc:Agent>
      <dc:title>Matplotlib v3.9.0, https://matplotlib.org/</dc:title>
     </cc:Agent>
    </dc:creator>
   </cc:Work>
  </rdf:RDF>
 </metadata>
 <defs>
  <style type="text/css">*{stroke-linejoin: round; stroke-linecap: butt}</style>
 </defs>
 <g id="figure_1">
  <g id="patch_1">
   <path d="M 0 287.4075 
L 386.439375 287.4075 
L 386.439375 0 
L 0 0 
z
" style="fill: #ffffff"/>
  </g>
  <g id="axes_1">
   <g id="patch_2">
    <path d="M 48.039375 253.08 
L 382.839375 253.08 
L 382.839375 3.6 
L 48.039375 3.6 
z
" style="fill: #ffffff"/>
   </g>
   <g id="PolyCollection_1">
    <defs>
     <path id="me406829a45" d="M 63.257557 -252.623664 
L 63.257557 -46.011222 
L 63.867504 -45.6675 
L 64.477451 -47.27997 
L 65.087398 -45.836224 
L 65.697345 -48.017485 
L 66.307293 -47.701115 
L 66.91724 -48.807366 
L 67.527187 -83.919345 
L 68.137134 -47.538056 
L 68.747081 -48.023943 
L 69.357028 -47.196596 
L 69.966976 -48.216357 
L 70.576923 -102.813641 
L 71.18687 -47.277597 
L 71.796817 -126.048654 
L 72.406764 -109.531205 
L 73.016711 -89.420623 
L 73.626659 -142.429716 
L 74.236606 -149.341428 
L 74.846553 -134.680486 
L 75.4565 -151.910413 
L 76.066447 -151.009925 
L 76.676394 -157.603056 
L 77.286342 -160.938605 
L 77.896289 -159.720014 
L 78.506236 -159.714525 
L 79.116183 -149.659463 
L 79.72613 -156.885243 
L 80.336077 -160.368959 
L 80.946025 -161.123514 
L 81.555972 -155.061049 
L 82.165919 -155.117341 
L 82.775866 -146.556593 
L 83.385813 -144.798034 
L 83.99576 -167.160024 
L 84.605708 -160.916763 
L 85.215655 -158.765222 
L 85.825602 -161.127559 
L 86.435549 -159.404545 
L 87.045496 -161.124663 
L 87.655444 -163.479035 
L 88.265391 -155.568898 
L 88.875338 -156.361168 
L 89.485285 -160.656968 
L 90.095232 -59.215529 
L 90.705179 -47.494671 
L 91.315127 -98.095589 
L 91.925074 -155.39717 
L 92.535021 -144.12087 
L 93.144968 -158.876547 
L 93.754915 -152.129266 
L 94.364862 -152.128279 
L 94.97481 -144.891841 
L 95.584757 -163.449161 
L 96.194704 -169.123778 
L 96.804651 -169.109799 
L 97.414598 -147.047698 
L 98.024545 -171.205668 
L 98.634493 -176.671491 
L 99.24444 -169.322228 
L 99.854387 -177.719109 
L 100.464334 -192.020239 
L 101.074281 -193.540656 
L 101.684228 -194.52004 
L 102.294176 -197.664806 
L 102.904123 -218.445547 
L 103.51407 -218.448545 
L 104.124017 -237.752408 
L 104.733964 -242.054349 
L 105.343911 -199.333408 
L 105.953859 -206.34675 
L 106.563806 -206.21938 
L 107.173753 -194.3421 
L 107.7837 -199.021402 
L 108.393647 -196.493843 
L 109.003594 -196.659396 
L 109.613542 -230.202896 
L 110.223489 -196.066592 
L 110.833436 -189.090994 
L 111.443383 -188.443804 
L 112.05333 -196.770565 
L 112.663277 -195.563851 
L 113.273225 -253.780134 
L 113.883172 -247.998509 
L 114.493119 -235.366963 
L 115.103066 -257.979781 
L 115.713013 -238.001429 
L 116.32296 -214.243127 
L 116.932908 -230.983427 
L 117.542855 -230.982492 
L 118.152802 -198.188749 
L 118.762749 -203.481535 
L 119.372696 -195.89449 
L 119.982643 -197.728032 
L 120.592591 -199.327228 
L 121.202538 -227.747717 
L 121.812485 -239.334797 
L 122.422432 -198.319004 
L 123.032379 -225.346244 
L 123.642326 -224.290366 
L 124.252274 -218.130435 
L 124.862221 -248.333923 
L 125.472168 -237.178774 
L 126.082115 -240.296261 
L 126.692062 -261.560246 
L 127.302009 -260.193247 
L 127.911957 -250.835234 
L 128.521904 -199.400456 
L 129.131851 -248.207309 
L 129.741798 -198.601421 
L 130.351745 -199.686659 
L 130.961692 -256.138152 
L 131.57164 -199.680233 
L 132.181587 -197.966742 
L 132.791534 -199.222362 
L 133.401481 -197.973382 
L 134.011428 -211.622041 
L 134.621375 -199.638581 
L 135.231323 -196.175369 
L 135.84127 -198.045793 
L 136.451217 -198.278148 
L 137.061164 -195.127177 
L 137.671111 -194.154818 
L 138.281058 -195.484896 
L 138.891006 -193.53122 
L 139.500953 -188.289783 
L 140.1109 -194.289909 
L 140.720847 -196.34351 
L 141.330794 -196.852031 
L 141.940741 -197.81569 
L 142.550689 -186.317496 
L 143.160636 -179.312939 
L 143.770583 -192.697695 
L 144.38053 -183.742773 
L 144.990477 -187.766799 
L 145.600424 -215.757798 
L 146.210372 -260.620755 
L 146.820319 -258.961692 
L 147.430266 -258.95941 
L 148.040213 -258.168213 
L 148.65016 -198.404234 
L 149.260107 -179.851531 
L 149.870055 -197.23965 
L 150.480002 -197.597031 
L 151.089949 -175.93223 
L 151.699896 -198.128923 
L 152.309843 -199.648176 
L 152.91979 -197.837239 
L 153.529738 -199.279612 
L 154.139685 -263.408252 
L 154.749632 -251.846598 
L 155.359579 -200.801786 
L 155.969526 -223.72993 
L 156.579473 -200.248949 
L 157.189421 -199.905992 
L 157.799368 -197.846016 
L 158.409315 -201.227343 
L 159.019262 -199.561025 
L 159.629209 -242.121647 
L 160.239156 -266.126902 
L 160.849104 -262.563084 
L 161.459051 -262.647934 
L 162.068998 -262.780097 
L 162.678945 -262.722389 
L 163.288892 -265.480042 
L 163.898839 -264.71854 
L 164.508787 -262.880445 
L 165.118734 -199.955179 
L 165.728681 -264.005811 
L 166.338628 -264.005382 
L 166.948575 -266.575177 
L 167.558522 -266.860478 
L 168.16847 -259.579942 
L 168.778417 -257.704439 
L 169.388364 -194.452773 
L 169.998311 -195.245039 
L 170.608258 -202.193311 
L 171.218205 -232.053091 
L 171.828153 -268.79742 
L 172.4381 -269.570778 
L 173.048047 -269.743851 
L 173.657994 -269.581732 
L 174.267941 -244.32338 
L 174.877888 -268.161239 
L 175.487836 -268.157515 
L 176.097783 -268.084834 
L 176.70773 -243.076392 
L 177.317677 -219.074824 
L 177.927624 -235.537614 
L 178.537571 -230.187234 
L 179.147519 -249.321721 
L 179.757466 -264.507998 
L 180.367413 -271.126273 
L 180.97736 -271.185827 
L 181.587307 -258.406068 
L 182.197254 -262.440852 
L 182.807202 -263.996347 
L 183.417149 -269.831371 
L 184.027096 -269.807927 
L 184.637043 -269.195352 
L 185.24699 -269.534377 
L 185.856937 -269.728447 
L 186.466885 -268.403707 
L 187.076832 -244.449304 
L 187.686779 -195.594988 
L 188.296726 -190.040085 
L 188.906673 -196.448956 
L 189.51662 -181.368799 
L 190.126568 -184.957322 
L 190.736515 -184.422621 
L 191.346462 -174.505316 
L 191.956409 -189.801233 
L 192.566356 -202.802374 
L 193.176303 -201.35209 
L 193.786251 -264.240506 
L 194.396198 -211.434314 
L 195.006145 -197.731656 
L 195.616092 -253.122023 
L 196.226039 -267.365946 
L 196.835986 -267.466369 
L 197.445934 -261.652108 
L 198.055881 -266.064112 
L 198.665828 -227.097393 
L 199.275775 -267.611204 
L 199.885722 -267.609704 
L 200.495669 -267.039859 
L 201.105617 -239.641156 
L 201.715564 -202.441689 
L 202.325511 -238.607208 
L 202.935458 -240.391193 
L 203.545405 -244.305376 
L 204.155352 -244.307609 
L 204.7653 -220.589936 
L 205.375247 -195.184087 
L 205.985194 -196.927227 
L 206.595141 -244.306349 
L 207.205088 -242.407116 
L 207.815035 -242.109527 
L 208.424983 -196.519071 
L 209.03493 -201.95576 
L 209.644877 -263.080114 
L 210.254824 -262.038929 
L 210.864771 -254.193962 
L 211.474718 -201.779891 
L 212.084666 -201.785507 
L 212.694613 -202.622186 
L 213.30456 -201.763509 
L 213.914507 -198.189995 
L 214.524454 -195.4801 
L 215.134401 -231.902014 
L 215.744349 -265.567503 
L 216.354296 -265.860987 
L 216.964243 -265.864739 
L 217.57419 -266.103973 
L 218.184137 -265.472591 
L 218.794084 -267.216919 
L 219.404032 -266.123661 
L 220.013979 -266.106976 
L 220.623926 -266.106192 
L 221.233873 -266.103489 
L 221.84382 -264.294439 
L 222.453767 -225.495665 
L 223.063715 -258.531548 
L 223.673662 -230.902021 
L 224.283609 -200.797701 
L 224.893556 -257.387608 
L 225.503503 -202.317653 
L 226.11345 -265.82423 
L 226.723398 -266.594663 
L 227.333345 -262.519272 
L 227.943292 -251.681218 
L 228.553239 -264.098717 
L 229.163186 -266.677972 
L 229.773133 -265.567095 
L 230.383081 -196.570636 
L 230.993028 -191.768829 
L 231.602975 -200.430281 
L 232.212922 -202.591323 
L 232.822869 -202.744797 
L 233.432816 -258.070466 
L 234.042764 -262.003615 
L 234.652711 -266.159537 
L 235.262658 -262.092835 
L 235.872605 -238.897898 
L 236.482552 -195.812611 
L 237.092499 -188.903063 
L 237.702447 -191.902932 
L 238.312394 -266.678945 
L 238.922341 -266.275136 
L 239.532288 -250.528276 
L 240.142235 -267.223785 
L 240.752182 -267.441684 
L 241.36213 -267.442534 
L 241.972077 -267.422298 
L 242.582024 -262.469664 
L 243.191971 -217.397752 
L 243.801918 -229.239617 
L 244.411865 -235.103226 
L 245.021813 -234.888138 
L 245.63176 -197.98543 
L 246.241707 -190.444268 
L 246.851654 -193.79555 
L 247.461601 -205.699114 
L 248.071548 -245.820562 
L 248.681496 -266.410774 
L 249.291443 -263.831313 
L 249.90139 -238.150303 
L 250.511337 -222.271891 
L 251.121284 -213.867528 
L 251.731231 -216.685389 
L 252.341179 -261.702603 
L 252.951126 -224.510886 
L 253.561073 -197.27101 
L 254.17102 -186.551728 
L 254.780967 -196.054732 
L 255.390914 -184.798992 
L 256.000862 -192.155501 
L 256.610809 -188.28758 
L 257.220756 -195.233612 
L 257.830703 -197.045539 
L 258.44065 -202.535327 
L 259.050597 -202.534022 
L 259.660545 -225.655341 
L 260.270492 -237.035965 
L 260.880439 -267.559678 
L 261.490386 -252.55788 
L 262.100333 -268.76313 
L 262.71028 -220.598309 
L 263.320228 -268.761307 
L 263.930175 -227.094536 
L 264.540122 -269.543364 
L 265.150069 -269.547779 
L 265.760016 -269.540528 
L 266.369963 -267.443751 
L 266.979911 -271.114865 
L 267.589858 -271.145345 
L 268.199805 -271.003633 
L 268.809752 -269.556436 
L 269.419699 -269.050941 
L 270.029646 -269.546527 
L 270.639594 -269.582639 
L 271.249541 -269.5841 
L 271.859488 -269.581703 
L 272.469435 -256.984594 
L 273.079382 -270.025399 
L 273.689329 -269.579198 
L 274.299277 -267.759373 
L 274.909224 -262.209953 
L 275.519171 -229.614777 
L 276.129118 -202.206095 
L 276.739065 -194.796332 
L 277.349012 -197.493511 
L 277.95896 -222.753883 
L 278.568907 -261.915762 
L 279.178854 -244.191634 
L 279.788801 -262.287572 
L 280.398748 -239.163272 
L 281.008695 -260.804917 
L 281.618643 -201.122986 
L 282.22859 -264.612577 
L 282.838537 -222.768067 
L 283.448484 -209.022939 
L 284.058431 -252.145409 
L 284.668378 -239.976362 
L 285.278326 -205.325169 
L 285.888273 -202.916365 
L 286.49822 -194.193838 
L 287.108167 -184.985362 
L 287.718114 -186.104574 
L 288.328061 -198.485667 
L 288.938009 -197.435286 
L 289.547956 -202.558823 
L 290.157903 -201.521252 
L 290.76785 -202.904205 
L 291.377797 -202.908446 
L 291.987744 -202.868797 
L 292.597692 -202.819062 
L 293.207639 -199.819471 
L 293.817586 -194.716536 
L 294.427533 -201.512854 
L 295.03748 -214.289512 
L 295.647427 -202.025407 
L 296.257375 -184.282822 
L 296.867322 -201.848321 
L 297.477269 -203.231812 
L 298.087216 -201.778529 
L 298.697163 -202.92441 
L 299.30711 -203.397899 
L 299.917058 -223.758621 
L 300.527005 -202.992251 
L 301.136952 -202.912436 
L 301.746899 -238.141682 
L 302.356846 -245.471104 
L 302.966793 -247.007316 
L 303.576741 -237.412101 
L 304.186688 -197.272055 
L 304.796635 -192.702681 
L 305.406582 -201.743117 
L 306.016529 -203.048192 
L 306.626476 -263.768814 
L 307.236424 -246.797332 
L 307.846371 -264.716784 
L 308.456318 -240.510778 
L 309.066265 -267.233896 
L 309.676212 -268.564987 
L 310.286159 -267.67792 
L 310.896107 -267.679767 
L 311.506054 -268.989004 
L 312.116001 -268.990401 
L 312.725948 -266.264142 
L 313.335895 -216.285922 
L 313.945842 -201.433528 
L 314.55579 -200.746477 
L 315.165737 -213.448326 
L 315.775684 -227.700522 
L 316.385631 -201.451053 
L 316.995578 -262.205969 
L 317.605525 -261.502638 
L 318.215473 -259.309094 
L 318.82542 -247.310929 
L 319.435367 -247.309536 
L 320.045314 -202.467691 
L 320.655261 -248.402002 
L 321.265208 -212.468076 
L 321.875156 -249.981269 
L 322.485103 -202.554926 
L 323.09505 -193.917245 
L 323.704997 -254.232266 
L 324.314944 -257.211426 
L 324.924891 -252.70513 
L 325.534839 -201.489534 
L 326.144786 -201.524627 
L 326.754733 -201.51089 
L 327.36468 -255.310785 
L 327.974627 -259.467669 
L 328.584574 -260.458326 
L 329.194522 -260.455241 
L 329.804469 -218.169759 
L 330.414416 -266.219362 
L 331.024363 -243.640388 
L 331.63431 -216.881797 
L 332.244257 -266.236468 
L 332.854205 -266.63797 
L 333.464152 -266.410012 
L 334.074099 -266.31825 
L 334.684046 -266.305036 
L 335.293993 -222.018864 
L 335.90394 -201.060448 
L 336.513888 -183.391616 
L 337.123835 -171.693395 
L 337.733782 -176.371996 
L 338.343729 -179.71734 
L 338.953676 -193.879124 
L 339.563623 -187.522248 
L 340.173571 -195.458679 
L 340.783518 -221.745752 
L 341.393465 -241.19493 
L 342.003412 -230.042484 
L 342.613359 -265.280789 
L 343.223306 -268.496331 
L 343.833254 -266.399737 
L 344.443201 -266.398349 
L 345.053148 -265.28316 
L 345.663095 -266.367456 
L 346.273042 -260.103996 
L 346.88299 -259.664479 
L 347.492937 -264.207009 
L 348.102884 -263.167794 
L 348.712831 -268.493059 
L 349.322778 -268.49893 
L 349.932725 -268.968452 
L 350.542673 -269.290259 
L 351.15262 -269.459984 
L 351.762567 -269.882869 
L 352.372514 -268.970882 
L 352.982461 -265.791482 
L 353.592408 -237.833751 
L 354.202356 -263.759595 
L 354.812303 -265.789011 
L 355.42225 -266.606726 
L 356.032197 -269.09216 
L 356.642144 -269.10022 
L 357.252091 -268.532531 
L 357.862039 -256.698848 
L 358.471986 -227.528713 
L 359.081933 -225.843708 
L 359.69188 -202.70307 
L 360.301827 -236.596094 
L 360.911774 -202.675459 
L 361.521722 -218.74658 
L 362.131669 -202.747726 
L 362.741616 -191.460888 
L 363.351563 -189.760283 
L 363.96151 -202.366116 
L 364.571457 -261.108735 
L 365.181405 -267.646768 
L 365.791352 -267.640834 
L 366.401299 -269.892955 
L 367.011246 -268.268598 
L 367.621193 -268.859468 
L 367.621193 -272.349535 
L 367.621193 -272.349535 
L 367.011246 -272.352589 
L 366.401299 -272.350041 
L 365.791352 -272.351492 
L 365.181405 -272.358856 
L 364.571457 -272.353734 
L 363.96151 -272.375682 
L 363.351563 -272.350821 
L 362.741616 -272.349848 
L 362.131669 -272.357828 
L 361.521722 -272.354067 
L 360.911774 -272.356694 
L 360.301827 -272.350473 
L 359.69188 -272.370105 
L 359.081933 -272.355013 
L 358.471986 -272.350611 
L 357.862039 -272.356461 
L 357.252091 -272.350946 
L 356.642144 -272.384572 
L 356.032197 -272.354179 
L 355.42225 -272.351204 
L 354.812303 -272.353165 
L 354.202356 -272.350231 
L 353.592408 -272.351043 
L 352.982461 -272.359411 
L 352.372514 -272.361418 
L 351.762567 -272.370806 
L 351.15262 -272.352174 
L 350.542673 -272.352969 
L 349.932725 -272.357849 
L 349.322778 -272.350169 
L 348.712831 -272.373778 
L 348.102884 -272.355888 
L 347.492937 -272.348754 
L 346.88299 -272.4675 
L 346.273042 -272.380631 
L 345.663095 -272.353028 
L 345.053148 -272.348948 
L 344.443201 -272.349071 
L 343.833254 -272.347802 
L 343.223306 -272.350149 
L 342.613359 -272.38916 
L 342.003412 -272.348999 
L 341.393465 -272.34896 
L 340.783518 -272.349146 
L 340.173571 -272.348535 
L 339.563623 -272.349924 
L 338.953676 -272.35169 
L 338.343729 -272.348022 
L 337.733782 -272.351259 
L 337.123835 -272.347863 
L 336.513888 -272.349073 
L 335.90394 -272.348397 
L 335.293993 -272.343589 
L 334.684046 -272.346416 
L 334.074099 -272.285209 
L 333.464152 -272.285935 
L 332.854205 -272.288326 
L 332.244257 -272.287745 
L 331.63431 -272.398157 
L 331.024363 -272.297674 
L 330.414416 -272.285231 
L 329.804469 -272.281432 
L 329.194522 -272.288918 
L 328.584574 -272.294741 
L 327.974627 -272.282543 
L 327.36468 -272.281541 
L 326.754733 -272.303891 
L 326.144786 -272.295489 
L 325.534839 -272.280265 
L 324.924891 -272.286198 
L 324.314944 -272.284001 
L 323.704997 -272.280496 
L 323.09505 -272.283913 
L 322.485103 -272.284382 
L 321.875156 -272.282205 
L 321.265208 -272.280383 
L 320.655261 -272.281454 
L 320.045314 -272.278644 
L 319.435367 -272.280291 
L 318.82542 -272.357493 
L 318.215473 -272.285643 
L 317.605525 -272.278479 
L 316.995578 -272.314116 
L 316.385631 -272.284737 
L 315.775684 -272.279575 
L 315.165737 -272.289188 
L 314.55579 -272.278034 
L 313.945842 -272.286335 
L 313.335895 -272.316048 
L 312.725948 -272.380894 
L 312.116001 -272.301113 
L 311.506054 -272.278131 
L 310.896107 -272.28181 
L 310.286159 -272.321058 
L 309.676212 -272.284431 
L 309.066265 -272.288165 
L 308.456318 -272.279361 
L 307.846371 -272.27953 
L 307.236424 -272.277361 
L 306.626476 -272.280084 
L 306.016529 -272.280183 
L 305.406582 -272.281767 
L 304.796635 -272.277407 
L 304.186688 -272.276059 
L 303.576741 -272.333492 
L 302.966793 -272.282605 
L 302.356846 -272.283331 
L 301.746899 -272.314621 
L 301.136952 -272.300779 
L 300.527005 -272.278232 
L 299.917058 -272.284248 
L 299.30711 -272.277368 
L 298.697163 -272.27839 
L 298.087216 -272.276688 
L 297.477269 -272.276335 
L 296.867322 -272.281351 
L 296.257375 -272.27819 
L 295.647427 -272.2766 
L 295.03748 -272.277524 
L 294.427533 -272.297223 
L 293.817586 -272.276145 
L 293.207639 -272.289037 
L 292.597692 -272.273394 
L 291.987744 -272.2713 
L 291.377797 -272.288651 
L 290.76785 -272.271364 
L 290.157903 -272.26691 
L 289.547956 -272.272272 
L 288.938009 -272.267933 
L 288.328061 -272.270617 
L 287.718114 -272.304447 
L 287.108167 -272.268291 
L 286.49822 -272.302342 
L 285.888273 -272.267452 
L 285.278326 -272.266922 
L 284.668378 -272.265886 
L 284.058431 -272.266335 
L 283.448484 -272.26635 
L 282.838537 -272.263416 
L 282.22859 -272.26569 
L 281.618643 -272.266549 
L 281.008695 -272.266527 
L 280.398748 -272.26514 
L 279.788801 -272.264485 
L 279.178854 -272.266676 
L 278.568907 -272.087262 
L 277.95896 -272.084305 
L 277.349012 -272.085674 
L 276.739065 -272.08509 
L 276.129118 -272.084893 
L 275.519171 -272.085216 
L 274.909224 -272.08423 
L 274.299277 -271.72447 
L 273.689329 -271.723625 
L 273.079382 -271.723158 
L 272.469435 -271.645602 
L 271.859488 -271.651837 
L 271.249541 -271.645842 
L 270.639594 -271.649409 
L 270.029646 -271.646729 
L 269.419699 -271.649203 
L 268.809752 -271.649099 
L 268.199805 -271.651587 
L 267.589858 -271.647466 
L 266.979911 -271.648243 
L 266.369963 -271.645406 
L 265.760016 -271.649483 
L 265.150069 -271.648679 
L 264.540122 -271.649109 
L 263.930175 -271.649829 
L 263.320228 -271.646037 
L 262.71028 -271.648619 
L 262.100333 -271.651834 
L 261.490386 -271.648192 
L 260.880439 -271.647122 
L 260.270492 -271.645669 
L 259.660545 -271.649932 
L 259.050597 -271.646181 
L 258.44065 -271.648616 
L 257.830703 -271.655872 
L 257.220756 -271.648499 
L 256.610809 -271.646768 
L 256.000862 -271.645729 
L 255.390914 -271.648549 
L 254.780967 -271.646367 
L 254.17102 -271.645207 
L 253.561073 -271.648168 
L 252.951126 -271.645263 
L 252.341179 -271.646714 
L 251.731231 -271.643723 
L 251.121284 -271.645884 
L 250.511337 -271.646506 
L 249.90139 -271.64585 
L 249.291443 -271.645487 
L 248.681496 -271.648049 
L 248.071548 -271.644484 
L 247.461601 -271.644496 
L 246.851654 -271.643103 
L 246.241707 -271.643662 
L 245.63176 -271.59106 
L 245.021813 -271.589578 
L 244.411865 -271.58903 
L 243.801918 -271.605784 
L 243.191971 -271.594763 
L 242.582024 -271.600506 
L 241.972077 -271.593934 
L 241.36213 -271.590887 
L 240.752182 -271.589031 
L 240.142235 -271.592745 
L 239.532288 -271.600223 
L 238.922341 -271.59157 
L 238.312394 -271.57851 
L 237.702447 -271.577378 
L 237.092499 -271.577631 
L 236.482552 -271.57719 
L 235.872605 -271.579271 
L 235.262658 -271.579598 
L 234.652711 -271.579329 
L 234.042764 -271.574851 
L 233.432816 -271.575803 
L 232.822869 -271.609106 
L 232.212922 -271.575723 
L 231.602975 -271.582243 
L 230.993028 -271.577001 
L 230.383081 -271.576668 
L 229.773133 -271.575767 
L 229.163186 -271.590817 
L 228.553239 -271.578201 
L 227.943292 -271.576245 
L 227.333345 -271.577547 
L 226.723398 -271.576735 
L 226.11345 -271.580835 
L 225.503503 -271.576507 
L 224.893556 -271.593011 
L 224.283609 -271.578248 
L 223.673662 -271.579123 
L 223.063715 -271.577383 
L 222.453767 -271.580361 
L 221.84382 -271.576676 
L 221.233873 -271.581663 
L 220.623926 -271.577216 
L 220.013979 -271.590648 
L 219.404032 -271.577431 
L 218.794084 -271.583353 
L 218.184137 -271.579217 
L 217.57419 -271.576209 
L 216.964243 -271.581081 
L 216.354296 -271.578049 
L 215.744349 -271.578057 
L 215.134401 -271.582261 
L 214.524454 -271.578144 
L 213.914507 -271.57511 
L 213.30456 -271.577326 
L 212.694613 -271.584195 
L 212.084666 -271.575604 
L 211.474718 -271.576409 
L 210.864771 -271.578709 
L 210.254824 -271.577854 
L 209.644877 -271.575362 
L 209.03493 -271.58067 
L 208.424983 -271.575039 
L 207.815035 -271.580479 
L 207.205088 -271.579232 
L 206.595141 -271.593854 
L 205.985194 -271.576362 
L 205.375247 -271.577714 
L 204.7653 -271.576402 
L 204.155352 -271.578264 
L 203.545405 -271.58037 
L 202.935458 -271.581835 
L 202.325511 -271.57883 
L 201.715564 -271.576372 
L 201.105617 -271.577299 
L 200.495669 -271.579062 
L 199.885722 -271.63616 
L 199.275775 -271.582371 
L 198.665828 -271.582351 
L 198.055881 -271.575696 
L 197.445934 -271.581417 
L 196.835986 -271.577026 
L 196.226039 -271.577224 
L 195.616092 -271.578455 
L 195.006145 -271.577741 
L 194.396198 -271.576854 
L 193.786251 -271.583438 
L 193.176303 -271.579873 
L 192.566356 -271.576597 
L 191.956409 -271.575183 
L 191.346462 -271.574602 
L 190.736515 -271.577593 
L 190.126568 -271.576051 
L 189.51662 -271.579398 
L 188.906673 -271.578054 
L 188.296726 -271.576493 
L 187.686779 -271.574598 
L 187.076832 -271.577379 
L 186.466885 -271.577233 
L 185.856937 -271.575967 
L 185.24699 -271.578888 
L 184.637043 -271.5789 
L 184.027096 -271.580913 
L 183.417149 -271.574794 
L 182.807202 -271.577773 
L 182.197254 -271.577515 
L 181.587307 -271.578582 
L 180.97736 -271.588555 
L 180.367413 -271.577104 
L 179.757466 -271.576655 
L 179.147519 -271.578242 
L 178.537571 -271.575482 
L 177.927624 -271.582048 
L 177.317677 -271.583557 
L 176.70773 -271.577153 
L 176.097783 -271.578729 
L 175.487836 -271.575255 
L 174.877888 -271.576497 
L 174.267941 -271.575897 
L 173.657994 -271.573952 
L 173.048047 -271.574046 
L 172.4381 -271.574321 
L 171.828153 -271.572384 
L 171.218205 -271.573539 
L 170.608258 -271.571906 
L 169.998311 -271.452614 
L 169.388364 -271.451764 
L 168.778417 -271.280494 
L 168.16847 -271.280947 
L 167.558522 -271.275126 
L 166.948575 -271.251637 
L 166.338628 -271.250677 
L 165.728681 -271.252735 
L 165.118734 -271.251111 
L 164.508787 -271.253598 
L 163.898839 -271.252686 
L 163.288892 -271.2513 
L 162.678945 -271.250659 
L 162.068998 -271.249246 
L 161.459051 -271.250058 
L 160.849104 -271.25226 
L 160.239156 -271.250189 
L 159.629209 -271.248904 
L 159.019262 -271.247311 
L 158.409315 -271.249484 
L 157.799368 -271.251387 
L 157.189421 -271.248417 
L 156.579473 -271.250097 
L 155.969526 -271.249717 
L 155.359579 -271.044154 
L 154.749632 -270.720649 
L 154.139685 -270.722258 
L 153.529738 -270.722162 
L 152.91979 -270.721019 
L 152.309843 -270.721253 
L 151.699896 -270.655134 
L 151.089949 -270.656935 
L 150.480002 -270.65577 
L 149.870055 -270.561992 
L 149.260107 -270.542198 
L 148.65016 -270.53603 
L 148.040213 -270.537507 
L 147.430266 -270.536036 
L 146.820319 -270.534808 
L 146.210372 -270.53539 
L 145.600424 -270.53467 
L 144.990477 -270.534326 
L 144.38053 -270.533434 
L 143.770583 -270.534087 
L 143.160636 -270.531734 
L 142.550689 -270.454223 
L 141.940741 -270.097992 
L 141.330794 -270.098659 
L 140.720847 -270.098511 
L 140.1109 -270.097271 
L 139.500953 -270.097325 
L 138.891006 -270.096903 
L 138.281058 -269.534857 
L 137.671111 -269.534945 
L 137.061164 -269.537035 
L 136.451217 -269.535113 
L 135.84127 -269.533838 
L 135.231323 -269.533411 
L 134.621375 -269.532416 
L 134.011428 -269.531847 
L 133.401481 -269.533799 
L 132.791534 -269.531749 
L 132.181587 -269.53454 
L 131.57164 -269.531018 
L 130.961692 -269.531864 
L 130.351745 -269.095093 
L 129.741798 -269.095768 
L 129.131851 -269.095806 
L 128.521904 -269.105635 
L 127.911957 -269.0916 
L 127.302009 -269.095742 
L 126.692062 -269.095633 
L 126.082115 -269.095772 
L 125.472168 -269.093737 
L 124.862221 -268.917647 
L 124.252274 -268.918037 
L 123.642326 -268.918137 
L 123.032379 -268.879853 
L 122.422432 -268.935647 
L 121.812485 -268.877968 
L 121.202538 -268.875008 
L 120.592591 -268.87779 
L 119.982643 -268.879432 
L 119.372696 -268.906028 
L 118.762749 -268.847115 
L 118.152802 -268.883787 
L 117.542855 -268.6939 
L 116.932908 -268.693585 
L 116.32296 -268.535624 
L 115.713013 -268.336817 
L 115.103066 -268.337509 
L 114.493119 -267.84966 
L 113.883172 -267.849513 
L 113.273225 -267.849505 
L 112.663277 -267.849635 
L 112.05333 -267.848042 
L 111.443383 -267.849119 
L 110.833436 -267.849449 
L 110.223489 -267.849019 
L 109.613542 -267.84994 
L 109.003594 -267.84879 
L 108.393647 -267.847767 
L 107.7837 -267.848271 
L 107.173753 -267.849139 
L 106.563806 -267.850153 
L 105.953859 -267.847476 
L 105.343911 -267.848795 
L 104.733964 -267.825404 
L 104.124017 -267.826289 
L 103.51407 -267.825423 
L 102.904123 -267.826041 
L 102.294176 -267.82632 
L 101.684228 -267.826158 
L 101.074281 -267.824888 
L 100.464334 -267.825386 
L 99.854387 -267.825323 
L 99.24444 -267.82578 
L 98.634493 -267.824673 
L 98.024545 -267.825674 
L 97.414598 -267.825412 
L 96.804651 -267.825335 
L 96.194704 -267.825785 
L 95.584757 -267.824955 
L 94.97481 -267.822813 
L 94.364862 -267.822806 
L 93.754915 -267.822017 
L 93.144968 -267.823128 
L 92.535021 -267.82333 
L 91.925074 -267.197586 
L 91.315127 -267.19826 
L 90.705179 -267.198606 
L 90.095232 -267.194133 
L 89.485285 -267.198211 
L 88.875338 -267.198177 
L 88.265391 -267.197629 
L 87.655444 -267.19731 
L 87.045496 -266.277941 
L 86.435549 -266.280057 
L 85.825602 -266.278494 
L 85.215655 -266.279255 
L 84.605708 -266.277544 
L 83.99576 -264.926975 
L 83.385813 -264.412871 
L 82.775866 -264.415344 
L 82.165919 -264.136408 
L 81.555972 -264.130778 
L 80.946025 -264.132668 
L 80.336077 -264.132538 
L 79.72613 -264.135597 
L 79.116183 -264.132039 
L 78.506236 -264.132224 
L 77.896289 -264.130111 
L 77.286342 -264.132169 
L 76.676394 -264.130661 
L 76.066447 -264.12781 
L 75.4565 -264.135792 
L 74.846553 -264.132621 
L 74.236606 -264.132501 
L 73.626659 -264.131759 
L 73.016711 -264.130733 
L 72.406764 -264.128635 
L 71.796817 -264.135027 
L 71.18687 -258.568229 
L 70.576923 -258.566547 
L 69.966976 -252.801063 
L 69.357028 -252.799637 
L 68.747081 -252.798976 
L 68.137134 -252.798731 
L 67.527187 -252.624325 
L 66.91724 -252.623088 
L 66.307293 -252.621959 
L 65.697345 -252.621255 
L 65.087398 -252.624627 
L 64.477451 -252.625384 
L 63.867504 -252.624051 
L 63.257557 -252.623664 
z
" style="stroke: #0000ff; stroke-opacity: 0.2"/>
    </defs>
    <g clip-path="url(#p8c8277a6f1)">
     <use xlink:href="#me406829a45" x="0" y="287.4075" style="fill: #0000ff; fill-opacity: 0.2; stroke: #0000ff; stroke-opacity: 0.2"/>
    </g>
   </g>
   <g id="matplotlib.axis_1">
    <g id="xtick_1">
     <g id="line2d_1">
      <path d="M 63.257557 253.08 
L 63.257557 3.6 
" clip-path="url(#p8c8277a6f1)" style="fill: none; stroke: #b0b0b0; stroke-width: 0.5; stroke-linecap: square"/>
     </g>
     <g id="line2d_2">
      <defs>
       <path id="ma4765ffe5c" d="M 0 0 
L 0 -3 
" style="stroke: #000000; stroke-width: 0.5"/>
      </defs>
      <g>
       <use xlink:href="#ma4765ffe5c" x="63.257557" y="253.08" style="stroke: #000000; stroke-width: 0.5"/>
      </g>
     </g>
     <g id="line2d_3">
      <defs>
       <path id="md07a2c5b6f" d="M 0 0 
L 0 3 
" style="stroke: #000000; stroke-width: 0.5"/>
      </defs>
      <g>
       <use xlink:href="#md07a2c5b6f" x="63.257557" y="3.6" style="stroke: #000000; stroke-width: 0.5"/>
      </g>
     </g>
     <g id="text_1">
      <!-- 0 -->
      <g transform="translate(59.440057 265.698125) scale(0.12 -0.12)">
       <defs>
        <path id="DejaVuSans-30" d="M 2034 4250 
Q 1547 4250 1301 3770 
Q 1056 3291 1056 2328 
Q 1056 1369 1301 889 
Q 1547 409 2034 409 
Q 2525 409 2770 889 
Q 3016 1369 3016 2328 
Q 3016 3291 2770 3770 
Q 2525 4250 2034 4250 
z
M 2034 4750 
Q 2819 4750 3233 4129 
Q 3647 3509 3647 2328 
Q 3647 1150 3233 529 
Q 2819 -91 2034 -91 
Q 1250 -91 836 529 
Q 422 1150 422 2328 
Q 422 3509 836 4129 
Q 1250 4750 2034 4750 
z
" transform="scale(0.015625)"/>
       </defs>
       <use xlink:href="#DejaVuSans-30"/>
      </g>
     </g>
    </g>
    <g id="xtick_2">
     <g id="line2d_4">
      <path d="M 124.252274 253.08 
L 124.252274 3.6 
" clip-path="url(#p8c8277a6f1)" style="fill: none; stroke: #b0b0b0; stroke-width: 0.5; stroke-linecap: square"/>
     </g>
     <g id="line2d_5">
      <g>
       <use xlink:href="#ma4765ffe5c" x="124.252274" y="253.08" style="stroke: #000000; stroke-width: 0.5"/>
      </g>
     </g>
     <g id="line2d_6">
      <g>
       <use xlink:href="#md07a2c5b6f" x="124.252274" y="3.6" style="stroke: #000000; stroke-width: 0.5"/>
      </g>
     </g>
     <g id="text_2">
      <!-- 100 -->
      <g transform="translate(112.799774 265.698125) scale(0.12 -0.12)">
       <defs>
        <path id="DejaVuSans-31" d="M 794 531 
L 1825 531 
L 1825 4091 
L 703 3866 
L 703 4441 
L 1819 4666 
L 2450 4666 
L 2450 531 
L 3481 531 
L 3481 0 
L 794 0 
L 794 531 
z
" transform="scale(0.015625)"/>
       </defs>
       <use xlink:href="#DejaVuSans-31"/>
       <use xlink:href="#DejaVuSans-30" x="63.623047"/>
       <use xlink:href="#DejaVuSans-30" x="127.246094"/>
      </g>
     </g>
    </g>
    <g id="xtick_3">
     <g id="line2d_7">
      <path d="M 185.24699 253.08 
L 185.24699 3.6 
" clip-path="url(#p8c8277a6f1)" style="fill: none; stroke: #b0b0b0; stroke-width: 0.5; stroke-linecap: square"/>
     </g>
     <g id="line2d_8">
      <g>
       <use xlink:href="#ma4765ffe5c" x="185.24699" y="253.08" style="stroke: #000000; stroke-width: 0.5"/>
      </g>
     </g>
     <g id="line2d_9">
      <g>
       <use xlink:href="#md07a2c5b6f" x="185.24699" y="3.6" style="stroke: #000000; stroke-width: 0.5"/>
      </g>
     </g>
     <g id="text_3">
      <!-- 200 -->
      <g transform="translate(173.79449 265.698125) scale(0.12 -0.12)">
       <defs>
        <path id="DejaVuSans-32" d="M 1228 531 
L 3431 531 
L 3431 0 
L 469 0 
L 469 531 
Q 828 903 1448 1529 
Q 2069 2156 2228 2338 
Q 2531 2678 2651 2914 
Q 2772 3150 2772 3378 
Q 2772 3750 2511 3984 
Q 2250 4219 1831 4219 
Q 1534 4219 1204 4116 
Q 875 4013 500 3803 
L 500 4441 
Q 881 4594 1212 4672 
Q 1544 4750 1819 4750 
Q 2544 4750 2975 4387 
Q 3406 4025 3406 3419 
Q 3406 3131 3298 2873 
Q 3191 2616 2906 2266 
Q 2828 2175 2409 1742 
Q 1991 1309 1228 531 
z
" transform="scale(0.015625)"/>
       </defs>
       <use xlink:href="#DejaVuSans-32"/>
       <use xlink:href="#DejaVuSans-30" x="63.623047"/>
       <use xlink:href="#DejaVuSans-30" x="127.246094"/>
      </g>
     </g>
    </g>
    <g id="xtick_4">
     <g id="line2d_10">
      <path d="M 246.241707 253.08 
L 246.241707 3.6 
" clip-path="url(#p8c8277a6f1)" style="fill: none; stroke: #b0b0b0; stroke-width: 0.5; stroke-linecap: square"/>
     </g>
     <g id="line2d_11">
      <g>
       <use xlink:href="#ma4765ffe5c" x="246.241707" y="253.08" style="stroke: #000000; stroke-width: 0.5"/>
      </g>
     </g>
     <g id="line2d_12">
      <g>
       <use xlink:href="#md07a2c5b6f" x="246.241707" y="3.6" style="stroke: #000000; stroke-width: 0.5"/>
      </g>
     </g>
     <g id="text_4">
      <!-- 300 -->
      <g transform="translate(234.789207 265.698125) scale(0.12 -0.12)">
       <defs>
        <path id="DejaVuSans-33" d="M 2597 2516 
Q 3050 2419 3304 2112 
Q 3559 1806 3559 1356 
Q 3559 666 3084 287 
Q 2609 -91 1734 -91 
Q 1441 -91 1130 -33 
Q 819 25 488 141 
L 488 750 
Q 750 597 1062 519 
Q 1375 441 1716 441 
Q 2309 441 2620 675 
Q 2931 909 2931 1356 
Q 2931 1769 2642 2001 
Q 2353 2234 1838 2234 
L 1294 2234 
L 1294 2753 
L 1863 2753 
Q 2328 2753 2575 2939 
Q 2822 3125 2822 3475 
Q 2822 3834 2567 4026 
Q 2313 4219 1838 4219 
Q 1578 4219 1281 4162 
Q 984 4106 628 3988 
L 628 4550 
Q 988 4650 1302 4700 
Q 1616 4750 1894 4750 
Q 2613 4750 3031 4423 
Q 3450 4097 3450 3541 
Q 3450 3153 3228 2886 
Q 3006 2619 2597 2516 
z
" transform="scale(0.015625)"/>
       </defs>
       <use xlink:href="#DejaVuSans-33"/>
       <use xlink:href="#DejaVuSans-30" x="63.623047"/>
       <use xlink:href="#DejaVuSans-30" x="127.246094"/>
      </g>
     </g>
    </g>
    <g id="xtick_5">
     <g id="line2d_13">
      <path d="M 307.236424 253.08 
L 307.236424 3.6 
" clip-path="url(#p8c8277a6f1)" style="fill: none; stroke: #b0b0b0; stroke-width: 0.5; stroke-linecap: square"/>
     </g>
     <g id="line2d_14">
      <g>
       <use xlink:href="#ma4765ffe5c" x="307.236424" y="253.08" style="stroke: #000000; stroke-width: 0.5"/>
      </g>
     </g>
     <g id="line2d_15">
      <g>
       <use xlink:href="#md07a2c5b6f" x="307.236424" y="3.6" style="stroke: #000000; stroke-width: 0.5"/>
      </g>
     </g>
     <g id="text_5">
      <!-- 400 -->
      <g transform="translate(295.783924 265.698125) scale(0.12 -0.12)">
       <defs>
        <path id="DejaVuSans-34" d="M 2419 4116 
L 825 1625 
L 2419 1625 
L 2419 4116 
z
M 2253 4666 
L 3047 4666 
L 3047 1625 
L 3713 1625 
L 3713 1100 
L 3047 1100 
L 3047 0 
L 2419 0 
L 2419 1100 
L 313 1100 
L 313 1709 
L 2253 4666 
z
" transform="scale(0.015625)"/>
       </defs>
       <use xlink:href="#DejaVuSans-34"/>
       <use xlink:href="#DejaVuSans-30" x="63.623047"/>
       <use xlink:href="#DejaVuSans-30" x="127.246094"/>
      </g>
     </g>
    </g>
    <g id="xtick_6">
     <g id="line2d_16">
      <path d="M 368.23114 253.08 
L 368.23114 3.6 
" clip-path="url(#p8c8277a6f1)" style="fill: none; stroke: #b0b0b0; stroke-width: 0.5; stroke-linecap: square"/>
     </g>
     <g id="line2d_17">
      <g>
       <use xlink:href="#ma4765ffe5c" x="368.23114" y="253.08" style="stroke: #000000; stroke-width: 0.5"/>
      </g>
     </g>
     <g id="line2d_18">
      <g>
       <use xlink:href="#md07a2c5b6f" x="368.23114" y="3.6" style="stroke: #000000; stroke-width: 0.5"/>
      </g>
     </g>
     <g id="text_6">
      <!-- 500 -->
      <g transform="translate(356.77864 265.698125) scale(0.12 -0.12)">
       <defs>
        <path id="DejaVuSans-35" d="M 691 4666 
L 3169 4666 
L 3169 4134 
L 1269 4134 
L 1269 2991 
Q 1406 3038 1543 3061 
Q 1681 3084 1819 3084 
Q 2600 3084 3056 2656 
Q 3513 2228 3513 1497 
Q 3513 744 3044 326 
Q 2575 -91 1722 -91 
Q 1428 -91 1123 -41 
Q 819 9 494 109 
L 494 744 
Q 775 591 1075 516 
Q 1375 441 1709 441 
Q 2250 441 2565 725 
Q 2881 1009 2881 1497 
Q 2881 1984 2565 2268 
Q 2250 2553 1709 2553 
Q 1456 2553 1204 2497 
Q 953 2441 691 2322 
L 691 4666 
z
" transform="scale(0.015625)"/>
       </defs>
       <use xlink:href="#DejaVuSans-35"/>
       <use xlink:href="#DejaVuSans-30" x="63.623047"/>
       <use xlink:href="#DejaVuSans-30" x="127.246094"/>
      </g>
     </g>
    </g>
    <g id="xtick_7">
     <g id="line2d_19">
      <defs>
       <path id="m2d52378960" d="M 0 0 
L 0 -1.5 
" style="stroke: #000000; stroke-width: 0.5"/>
      </defs>
      <g>
       <use xlink:href="#m2d52378960" x="51.058613" y="253.08" style="stroke: #000000; stroke-width: 0.5"/>
      </g>
     </g>
     <g id="line2d_20">
      <defs>
       <path id="m04ef847a60" d="M 0 0 
L 0 1.5 
" style="stroke: #000000; stroke-width: 0.5"/>
      </defs>
      <g>
       <use xlink:href="#m04ef847a60" x="51.058613" y="3.6" style="stroke: #000000; stroke-width: 0.5"/>
      </g>
     </g>
    </g>
    <g id="xtick_8">
     <g id="line2d_21">
      <g>
       <use xlink:href="#m2d52378960" x="75.4565" y="253.08" style="stroke: #000000; stroke-width: 0.5"/>
      </g>
     </g>
     <g id="line2d_22">
      <g>
       <use xlink:href="#m04ef847a60" x="75.4565" y="3.6" style="stroke: #000000; stroke-width: 0.5"/>
      </g>
     </g>
    </g>
    <g id="xtick_9">
     <g id="line2d_23">
      <g>
       <use xlink:href="#m2d52378960" x="87.655444" y="253.08" style="stroke: #000000; stroke-width: 0.5"/>
      </g>
     </g>
     <g id="line2d_24">
      <g>
       <use xlink:href="#m04ef847a60" x="87.655444" y="3.6" style="stroke: #000000; stroke-width: 0.5"/>
      </g>
     </g>
    </g>
    <g id="xtick_10">
     <g id="line2d_25">
      <g>
       <use xlink:href="#m2d52378960" x="99.854387" y="253.08" style="stroke: #000000; stroke-width: 0.5"/>
      </g>
     </g>
     <g id="line2d_26">
      <g>
       <use xlink:href="#m04ef847a60" x="99.854387" y="3.6" style="stroke: #000000; stroke-width: 0.5"/>
      </g>
     </g>
    </g>
    <g id="xtick_11">
     <g id="line2d_27">
      <g>
       <use xlink:href="#m2d52378960" x="112.05333" y="253.08" style="stroke: #000000; stroke-width: 0.5"/>
      </g>
     </g>
     <g id="line2d_28">
      <g>
       <use xlink:href="#m04ef847a60" x="112.05333" y="3.6" style="stroke: #000000; stroke-width: 0.5"/>
      </g>
     </g>
    </g>
    <g id="xtick_12">
     <g id="line2d_29">
      <g>
       <use xlink:href="#m2d52378960" x="136.451217" y="253.08" style="stroke: #000000; stroke-width: 0.5"/>
      </g>
     </g>
     <g id="line2d_30">
      <g>
       <use xlink:href="#m04ef847a60" x="136.451217" y="3.6" style="stroke: #000000; stroke-width: 0.5"/>
      </g>
     </g>
    </g>
    <g id="xtick_13">
     <g id="line2d_31">
      <g>
       <use xlink:href="#m2d52378960" x="148.65016" y="253.08" style="stroke: #000000; stroke-width: 0.5"/>
      </g>
     </g>
     <g id="line2d_32">
      <g>
       <use xlink:href="#m04ef847a60" x="148.65016" y="3.6" style="stroke: #000000; stroke-width: 0.5"/>
      </g>
     </g>
    </g>
    <g id="xtick_14">
     <g id="line2d_33">
      <g>
       <use xlink:href="#m2d52378960" x="160.849104" y="253.08" style="stroke: #000000; stroke-width: 0.5"/>
      </g>
     </g>
     <g id="line2d_34">
      <g>
       <use xlink:href="#m04ef847a60" x="160.849104" y="3.6" style="stroke: #000000; stroke-width: 0.5"/>
      </g>
     </g>
    </g>
    <g id="xtick_15">
     <g id="line2d_35">
      <g>
       <use xlink:href="#m2d52378960" x="173.048047" y="253.08" style="stroke: #000000; stroke-width: 0.5"/>
      </g>
     </g>
     <g id="line2d_36">
      <g>
       <use xlink:href="#m04ef847a60" x="173.048047" y="3.6" style="stroke: #000000; stroke-width: 0.5"/>
      </g>
     </g>
    </g>
    <g id="xtick_16">
     <g id="line2d_37">
      <g>
       <use xlink:href="#m2d52378960" x="197.445934" y="253.08" style="stroke: #000000; stroke-width: 0.5"/>
      </g>
     </g>
     <g id="line2d_38">
      <g>
       <use xlink:href="#m04ef847a60" x="197.445934" y="3.6" style="stroke: #000000; stroke-width: 0.5"/>
      </g>
     </g>
    </g>
    <g id="xtick_17">
     <g id="line2d_39">
      <g>
       <use xlink:href="#m2d52378960" x="209.644877" y="253.08" style="stroke: #000000; stroke-width: 0.5"/>
      </g>
     </g>
     <g id="line2d_40">
      <g>
       <use xlink:href="#m04ef847a60" x="209.644877" y="3.6" style="stroke: #000000; stroke-width: 0.5"/>
      </g>
     </g>
    </g>
    <g id="xtick_18">
     <g id="line2d_41">
      <g>
       <use xlink:href="#m2d52378960" x="221.84382" y="253.08" style="stroke: #000000; stroke-width: 0.5"/>
      </g>
     </g>
     <g id="line2d_42">
      <g>
       <use xlink:href="#m04ef847a60" x="221.84382" y="3.6" style="stroke: #000000; stroke-width: 0.5"/>
      </g>
     </g>
    </g>
    <g id="xtick_19">
     <g id="line2d_43">
      <g>
       <use xlink:href="#m2d52378960" x="234.042764" y="253.08" style="stroke: #000000; stroke-width: 0.5"/>
      </g>
     </g>
     <g id="line2d_44">
      <g>
       <use xlink:href="#m04ef847a60" x="234.042764" y="3.6" style="stroke: #000000; stroke-width: 0.5"/>
      </g>
     </g>
    </g>
    <g id="xtick_20">
     <g id="line2d_45">
      <g>
       <use xlink:href="#m2d52378960" x="258.44065" y="253.08" style="stroke: #000000; stroke-width: 0.5"/>
      </g>
     </g>
     <g id="line2d_46">
      <g>
       <use xlink:href="#m04ef847a60" x="258.44065" y="3.6" style="stroke: #000000; stroke-width: 0.5"/>
      </g>
     </g>
    </g>
    <g id="xtick_21">
     <g id="line2d_47">
      <g>
       <use xlink:href="#m2d52378960" x="270.639594" y="253.08" style="stroke: #000000; stroke-width: 0.5"/>
      </g>
     </g>
     <g id="line2d_48">
      <g>
       <use xlink:href="#m04ef847a60" x="270.639594" y="3.6" style="stroke: #000000; stroke-width: 0.5"/>
      </g>
     </g>
    </g>
    <g id="xtick_22">
     <g id="line2d_49">
      <g>
       <use xlink:href="#m2d52378960" x="282.838537" y="253.08" style="stroke: #000000; stroke-width: 0.5"/>
      </g>
     </g>
     <g id="line2d_50">
      <g>
       <use xlink:href="#m04ef847a60" x="282.838537" y="3.6" style="stroke: #000000; stroke-width: 0.5"/>
      </g>
     </g>
    </g>
    <g id="xtick_23">
     <g id="line2d_51">
      <g>
       <use xlink:href="#m2d52378960" x="295.03748" y="253.08" style="stroke: #000000; stroke-width: 0.5"/>
      </g>
     </g>
     <g id="line2d_52">
      <g>
       <use xlink:href="#m04ef847a60" x="295.03748" y="3.6" style="stroke: #000000; stroke-width: 0.5"/>
      </g>
     </g>
    </g>
    <g id="xtick_24">
     <g id="line2d_53">
      <g>
       <use xlink:href="#m2d52378960" x="319.435367" y="253.08" style="stroke: #000000; stroke-width: 0.5"/>
      </g>
     </g>
     <g id="line2d_54">
      <g>
       <use xlink:href="#m04ef847a60" x="319.435367" y="3.6" style="stroke: #000000; stroke-width: 0.5"/>
      </g>
     </g>
    </g>
    <g id="xtick_25">
     <g id="line2d_55">
      <g>
       <use xlink:href="#m2d52378960" x="331.63431" y="253.08" style="stroke: #000000; stroke-width: 0.5"/>
      </g>
     </g>
     <g id="line2d_56">
      <g>
       <use xlink:href="#m04ef847a60" x="331.63431" y="3.6" style="stroke: #000000; stroke-width: 0.5"/>
      </g>
     </g>
    </g>
    <g id="xtick_26">
     <g id="line2d_57">
      <g>
       <use xlink:href="#m2d52378960" x="343.833254" y="253.08" style="stroke: #000000; stroke-width: 0.5"/>
      </g>
     </g>
     <g id="line2d_58">
      <g>
       <use xlink:href="#m04ef847a60" x="343.833254" y="3.6" style="stroke: #000000; stroke-width: 0.5"/>
      </g>
     </g>
    </g>
    <g id="xtick_27">
     <g id="line2d_59">
      <g>
       <use xlink:href="#m2d52378960" x="356.032197" y="253.08" style="stroke: #000000; stroke-width: 0.5"/>
      </g>
     </g>
     <g id="line2d_60">
      <g>
       <use xlink:href="#m04ef847a60" x="356.032197" y="3.6" style="stroke: #000000; stroke-width: 0.5"/>
      </g>
     </g>
    </g>
    <g id="xtick_28">
     <g id="line2d_61">
      <g>
       <use xlink:href="#m2d52378960" x="380.430084" y="253.08" style="stroke: #000000; stroke-width: 0.5"/>
      </g>
     </g>
     <g id="line2d_62">
      <g>
       <use xlink:href="#m04ef847a60" x="380.430084" y="3.6" style="stroke: #000000; stroke-width: 0.5"/>
      </g>
     </g>
    </g>
    <g id="text_7">
     <!-- Generations -->
     <g transform="translate(178.842188 281.311875) scale(0.12 -0.12)">
      <defs>
       <path id="DejaVuSans-47" d="M 3809 666 
L 3809 1919 
L 2778 1919 
L 2778 2438 
L 4434 2438 
L 4434 434 
Q 4069 175 3628 42 
Q 3188 -91 2688 -91 
Q 1594 -91 976 548 
Q 359 1188 359 2328 
Q 359 3472 976 4111 
Q 1594 4750 2688 4750 
Q 3144 4750 3555 4637 
Q 3966 4525 4313 4306 
L 4313 3634 
Q 3963 3931 3569 4081 
Q 3175 4231 2741 4231 
Q 1884 4231 1454 3753 
Q 1025 3275 1025 2328 
Q 1025 1384 1454 906 
Q 1884 428 2741 428 
Q 3075 428 3337 486 
Q 3600 544 3809 666 
z
" transform="scale(0.015625)"/>
       <path id="DejaVuSans-65" d="M 3597 1894 
L 3597 1613 
L 953 1613 
Q 991 1019 1311 708 
Q 1631 397 2203 397 
Q 2534 397 2845 478 
Q 3156 559 3463 722 
L 3463 178 
Q 3153 47 2828 -22 
Q 2503 -91 2169 -91 
Q 1331 -91 842 396 
Q 353 884 353 1716 
Q 353 2575 817 3079 
Q 1281 3584 2069 3584 
Q 2775 3584 3186 3129 
Q 3597 2675 3597 1894 
z
M 3022 2063 
Q 3016 2534 2758 2815 
Q 2500 3097 2075 3097 
Q 1594 3097 1305 2825 
Q 1016 2553 972 2059 
L 3022 2063 
z
" transform="scale(0.015625)"/>
       <path id="DejaVuSans-6e" d="M 3513 2113 
L 3513 0 
L 2938 0 
L 2938 2094 
Q 2938 2591 2744 2837 
Q 2550 3084 2163 3084 
Q 1697 3084 1428 2787 
Q 1159 2491 1159 1978 
L 1159 0 
L 581 0 
L 581 3500 
L 1159 3500 
L 1159 2956 
Q 1366 3272 1645 3428 
Q 1925 3584 2291 3584 
Q 2894 3584 3203 3211 
Q 3513 2838 3513 2113 
z
" transform="scale(0.015625)"/>
       <path id="DejaVuSans-72" d="M 2631 2963 
Q 2534 3019 2420 3045 
Q 2306 3072 2169 3072 
Q 1681 3072 1420 2755 
Q 1159 2438 1159 1844 
L 1159 0 
L 581 0 
L 581 3500 
L 1159 3500 
L 1159 2956 
Q 1341 3275 1631 3429 
Q 1922 3584 2338 3584 
Q 2397 3584 2469 3576 
Q 2541 3569 2628 3553 
L 2631 2963 
z
" transform="scale(0.015625)"/>
       <path id="DejaVuSans-61" d="M 2194 1759 
Q 1497 1759 1228 1600 
Q 959 1441 959 1056 
Q 959 750 1161 570 
Q 1363 391 1709 391 
Q 2188 391 2477 730 
Q 2766 1069 2766 1631 
L 2766 1759 
L 2194 1759 
z
M 3341 1997 
L 3341 0 
L 2766 0 
L 2766 531 
Q 2569 213 2275 61 
Q 1981 -91 1556 -91 
Q 1019 -91 701 211 
Q 384 513 384 1019 
Q 384 1609 779 1909 
Q 1175 2209 1959 2209 
L 2766 2209 
L 2766 2266 
Q 2766 2663 2505 2880 
Q 2244 3097 1772 3097 
Q 1472 3097 1187 3025 
Q 903 2953 641 2809 
L 641 3341 
Q 956 3463 1253 3523 
Q 1550 3584 1831 3584 
Q 2591 3584 2966 3190 
Q 3341 2797 3341 1997 
z
" transform="scale(0.015625)"/>
       <path id="DejaVuSans-74" d="M 1172 4494 
L 1172 3500 
L 2356 3500 
L 2356 3053 
L 1172 3053 
L 1172 1153 
Q 1172 725 1289 603 
Q 1406 481 1766 481 
L 2356 481 
L 2356 0 
L 1766 0 
Q 1100 0 847 248 
Q 594 497 594 1153 
L 594 3053 
L 172 3053 
L 172 3500 
L 594 3500 
L 594 4494 
L 1172 4494 
z
" transform="scale(0.015625)"/>
       <path id="DejaVuSans-69" d="M 603 3500 
L 1178 3500 
L 1178 0 
L 603 0 
L 603 3500 
z
M 603 4863 
L 1178 4863 
L 1178 4134 
L 603 4134 
L 603 4863 
z
" transform="scale(0.015625)"/>
       <path id="DejaVuSans-6f" d="M 1959 3097 
Q 1497 3097 1228 2736 
Q 959 2375 959 1747 
Q 959 1119 1226 758 
Q 1494 397 1959 397 
Q 2419 397 2687 759 
Q 2956 1122 2956 1747 
Q 2956 2369 2687 2733 
Q 2419 3097 1959 3097 
z
M 1959 3584 
Q 2709 3584 3137 3096 
Q 3566 2609 3566 1747 
Q 3566 888 3137 398 
Q 2709 -91 1959 -91 
Q 1206 -91 779 398 
Q 353 888 353 1747 
Q 353 2609 779 3096 
Q 1206 3584 1959 3584 
z
" transform="scale(0.015625)"/>
       <path id="DejaVuSans-73" d="M 2834 3397 
L 2834 2853 
Q 2591 2978 2328 3040 
Q 2066 3103 1784 3103 
Q 1356 3103 1142 2972 
Q 928 2841 928 2578 
Q 928 2378 1081 2264 
Q 1234 2150 1697 2047 
L 1894 2003 
Q 2506 1872 2764 1633 
Q 3022 1394 3022 966 
Q 3022 478 2636 193 
Q 2250 -91 1575 -91 
Q 1294 -91 989 -36 
Q 684 19 347 128 
L 347 722 
Q 666 556 975 473 
Q 1284 391 1588 391 
Q 1994 391 2212 530 
Q 2431 669 2431 922 
Q 2431 1156 2273 1281 
Q 2116 1406 1581 1522 
L 1381 1569 
Q 847 1681 609 1914 
Q 372 2147 372 2553 
Q 372 3047 722 3315 
Q 1072 3584 1716 3584 
Q 2034 3584 2315 3537 
Q 2597 3491 2834 3397 
z
" transform="scale(0.015625)"/>
      </defs>
      <use xlink:href="#DejaVuSans-47"/>
      <use xlink:href="#DejaVuSans-65" x="77.490234"/>
      <use xlink:href="#DejaVuSans-6e" x="139.013672"/>
      <use xlink:href="#DejaVuSans-65" x="202.392578"/>
      <use xlink:href="#DejaVuSans-72" x="263.916016"/>
      <use xlink:href="#DejaVuSans-61" x="305.029297"/>
      <use xlink:href="#DejaVuSans-74" x="366.308594"/>
      <use xlink:href="#DejaVuSans-69" x="405.517578"/>
      <use xlink:href="#DejaVuSans-6f" x="433.300781"/>
      <use xlink:href="#DejaVuSans-6e" x="494.482422"/>
      <use xlink:href="#DejaVuSans-73" x="557.861328"/>
     </g>
    </g>
   </g>
   <g id="matplotlib.axis_2">
    <g id="ytick_1">
     <g id="line2d_63">
      <path d="M 48.039375 243.766622 
L 382.839375 243.766622 
" clip-path="url(#p8c8277a6f1)" style="fill: none; stroke: #b0b0b0; stroke-width: 0.5; stroke-linecap: square"/>
     </g>
     <g id="line2d_64">
      <defs>
       <path id="md4860c745d" d="M 0 0 
L 3 0 
" style="stroke: #000000; stroke-width: 0.5"/>
      </defs>
      <g>
       <use xlink:href="#md4860c745d" x="48.039375" y="243.766622" style="stroke: #000000; stroke-width: 0.5"/>
      </g>
     </g>
     <g id="line2d_65">
      <defs>
       <path id="m94b03a95a9" d="M 0 0 
L -3 0 
" style="stroke: #000000; stroke-width: 0.5"/>
      </defs>
      <g>
       <use xlink:href="#m94b03a95a9" x="382.839375" y="243.766622" style="stroke: #000000; stroke-width: 0.5"/>
      </g>
     </g>
     <g id="text_8">
      <!-- −10 -->
      <g transform="translate(19.21375 248.325685) scale(0.12 -0.12)">
       <defs>
        <path id="DejaVuSans-2212" d="M 678 2272 
L 4684 2272 
L 4684 1741 
L 678 1741 
L 678 2272 
z
" transform="scale(0.015625)"/>
       </defs>
       <use xlink:href="#DejaVuSans-2212"/>
       <use xlink:href="#DejaVuSans-31" x="83.789062"/>
       <use xlink:href="#DejaVuSans-30" x="147.412109"/>
      </g>
     </g>
    </g>
    <g id="ytick_2">
     <g id="line2d_66">
      <path d="M 48.039375 209.364166 
L 382.839375 209.364166 
" clip-path="url(#p8c8277a6f1)" style="fill: none; stroke: #b0b0b0; stroke-width: 0.5; stroke-linecap: square"/>
     </g>
     <g id="line2d_67">
      <g>
       <use xlink:href="#md4860c745d" x="48.039375" y="209.364166" style="stroke: #000000; stroke-width: 0.5"/>
      </g>
     </g>
     <g id="line2d_68">
      <g>
       <use xlink:href="#m94b03a95a9" x="382.839375" y="209.364166" style="stroke: #000000; stroke-width: 0.5"/>
      </g>
     </g>
     <g id="text_9">
      <!-- −5 -->
      <g transform="translate(26.84875 213.923228) scale(0.12 -0.12)">
       <use xlink:href="#DejaVuSans-2212"/>
       <use xlink:href="#DejaVuSans-35" x="83.789062"/>
      </g>
     </g>
    </g>
    <g id="ytick_3">
     <g id="line2d_69">
      <path d="M 48.039375 174.961709 
L 382.839375 174.961709 
" clip-path="url(#p8c8277a6f1)" style="fill: none; stroke: #b0b0b0; stroke-width: 0.5; stroke-linecap: square"/>
     </g>
     <g id="line2d_70">
      <g>
       <use xlink:href="#md4860c745d" x="48.039375" y="174.961709" style="stroke: #000000; stroke-width: 0.5"/>
      </g>
     </g>
     <g id="line2d_71">
      <g>
       <use xlink:href="#m94b03a95a9" x="382.839375" y="174.961709" style="stroke: #000000; stroke-width: 0.5"/>
      </g>
     </g>
     <g id="text_10">
      <!-- 0 -->
      <g transform="translate(36.904375 179.520772) scale(0.12 -0.12)">
       <use xlink:href="#DejaVuSans-30"/>
      </g>
     </g>
    </g>
    <g id="ytick_4">
     <g id="line2d_72">
      <path d="M 48.039375 140.559253 
L 382.839375 140.559253 
" clip-path="url(#p8c8277a6f1)" style="fill: none; stroke: #b0b0b0; stroke-width: 0.5; stroke-linecap: square"/>
     </g>
     <g id="line2d_73">
      <g>
       <use xlink:href="#md4860c745d" x="48.039375" y="140.559253" style="stroke: #000000; stroke-width: 0.5"/>
      </g>
     </g>
     <g id="line2d_74">
      <g>
       <use xlink:href="#m94b03a95a9" x="382.839375" y="140.559253" style="stroke: #000000; stroke-width: 0.5"/>
      </g>
     </g>
     <g id="text_11">
      <!-- 5 -->
      <g transform="translate(36.904375 145.118315) scale(0.12 -0.12)">
       <use xlink:href="#DejaVuSans-35"/>
      </g>
     </g>
    </g>
    <g id="ytick_5">
     <g id="line2d_75">
      <path d="M 48.039375 106.156796 
L 382.839375 106.156796 
" clip-path="url(#p8c8277a6f1)" style="fill: none; stroke: #b0b0b0; stroke-width: 0.5; stroke-linecap: square"/>
     </g>
     <g id="line2d_76">
      <g>
       <use xlink:href="#md4860c745d" x="48.039375" y="106.156796" style="stroke: #000000; stroke-width: 0.5"/>
      </g>
     </g>
     <g id="line2d_77">
      <g>
       <use xlink:href="#m94b03a95a9" x="382.839375" y="106.156796" style="stroke: #000000; stroke-width: 0.5"/>
      </g>
     </g>
     <g id="text_12">
      <!-- 10 -->
      <g transform="translate(29.269375 110.715859) scale(0.12 -0.12)">
       <use xlink:href="#DejaVuSans-31"/>
       <use xlink:href="#DejaVuSans-30" x="63.623047"/>
      </g>
     </g>
    </g>
    <g id="ytick_6">
     <g id="line2d_78">
      <path d="M 48.039375 71.75434 
L 382.839375 71.75434 
" clip-path="url(#p8c8277a6f1)" style="fill: none; stroke: #b0b0b0; stroke-width: 0.5; stroke-linecap: square"/>
     </g>
     <g id="line2d_79">
      <g>
       <use xlink:href="#md4860c745d" x="48.039375" y="71.75434" style="stroke: #000000; stroke-width: 0.5"/>
      </g>
     </g>
     <g id="line2d_80">
      <g>
       <use xlink:href="#m94b03a95a9" x="382.839375" y="71.75434" style="stroke: #000000; stroke-width: 0.5"/>
      </g>
     </g>
     <g id="text_13">
      <!-- 15 -->
      <g transform="translate(29.269375 76.313402) scale(0.12 -0.12)">
       <use xlink:href="#DejaVuSans-31"/>
       <use xlink:href="#DejaVuSans-35" x="63.623047"/>
      </g>
     </g>
    </g>
    <g id="ytick_7">
     <g id="line2d_81">
      <path d="M 48.039375 37.351883 
L 382.839375 37.351883 
" clip-path="url(#p8c8277a6f1)" style="fill: none; stroke: #b0b0b0; stroke-width: 0.5; stroke-linecap: square"/>
     </g>
     <g id="line2d_82">
      <g>
       <use xlink:href="#md4860c745d" x="48.039375" y="37.351883" style="stroke: #000000; stroke-width: 0.5"/>
      </g>
     </g>
     <g id="line2d_83">
      <g>
       <use xlink:href="#m94b03a95a9" x="382.839375" y="37.351883" style="stroke: #000000; stroke-width: 0.5"/>
      </g>
     </g>
     <g id="text_14">
      <!-- 20 -->
      <g transform="translate(29.269375 41.910946) scale(0.12 -0.12)">
       <use xlink:href="#DejaVuSans-32"/>
       <use xlink:href="#DejaVuSans-30" x="63.623047"/>
      </g>
     </g>
    </g>
    <g id="ytick_8">
     <g id="line2d_84">
      <defs>
       <path id="m0aa2bef3b2" d="M 0 0 
L 1.5 0 
" style="stroke: #000000; stroke-width: 0.5"/>
      </defs>
      <g>
       <use xlink:href="#m0aa2bef3b2" x="48.039375" y="250.647113" style="stroke: #000000; stroke-width: 0.5"/>
      </g>
     </g>
     <g id="line2d_85">
      <defs>
       <path id="m88acdefae6" d="M 0 0 
L -1.5 0 
" style="stroke: #000000; stroke-width: 0.5"/>
      </defs>
      <g>
       <use xlink:href="#m88acdefae6" x="382.839375" y="250.647113" style="stroke: #000000; stroke-width: 0.5"/>
      </g>
     </g>
    </g>
    <g id="ytick_9">
     <g id="line2d_86">
      <g>
       <use xlink:href="#m0aa2bef3b2" x="48.039375" y="236.886131" style="stroke: #000000; stroke-width: 0.5"/>
      </g>
     </g>
     <g id="line2d_87">
      <g>
       <use xlink:href="#m88acdefae6" x="382.839375" y="236.886131" style="stroke: #000000; stroke-width: 0.5"/>
      </g>
     </g>
    </g>
    <g id="ytick_10">
     <g id="line2d_88">
      <g>
       <use xlink:href="#m0aa2bef3b2" x="48.039375" y="230.005639" style="stroke: #000000; stroke-width: 0.5"/>
      </g>
     </g>
     <g id="line2d_89">
      <g>
       <use xlink:href="#m88acdefae6" x="382.839375" y="230.005639" style="stroke: #000000; stroke-width: 0.5"/>
      </g>
     </g>
    </g>
    <g id="ytick_11">
     <g id="line2d_90">
      <g>
       <use xlink:href="#m0aa2bef3b2" x="48.039375" y="223.125148" style="stroke: #000000; stroke-width: 0.5"/>
      </g>
     </g>
     <g id="line2d_91">
      <g>
       <use xlink:href="#m88acdefae6" x="382.839375" y="223.125148" style="stroke: #000000; stroke-width: 0.5"/>
      </g>
     </g>
    </g>
    <g id="ytick_12">
     <g id="line2d_92">
      <g>
       <use xlink:href="#m0aa2bef3b2" x="48.039375" y="216.244657" style="stroke: #000000; stroke-width: 0.5"/>
      </g>
     </g>
     <g id="line2d_93">
      <g>
       <use xlink:href="#m88acdefae6" x="382.839375" y="216.244657" style="stroke: #000000; stroke-width: 0.5"/>
      </g>
     </g>
    </g>
    <g id="ytick_13">
     <g id="line2d_94">
      <g>
       <use xlink:href="#m0aa2bef3b2" x="48.039375" y="202.483674" style="stroke: #000000; stroke-width: 0.5"/>
      </g>
     </g>
     <g id="line2d_95">
      <g>
       <use xlink:href="#m88acdefae6" x="382.839375" y="202.483674" style="stroke: #000000; stroke-width: 0.5"/>
      </g>
     </g>
    </g>
    <g id="ytick_14">
     <g id="line2d_96">
      <g>
       <use xlink:href="#m0aa2bef3b2" x="48.039375" y="195.603183" style="stroke: #000000; stroke-width: 0.5"/>
      </g>
     </g>
     <g id="line2d_97">
      <g>
       <use xlink:href="#m88acdefae6" x="382.839375" y="195.603183" style="stroke: #000000; stroke-width: 0.5"/>
      </g>
     </g>
    </g>
    <g id="ytick_15">
     <g id="line2d_98">
      <g>
       <use xlink:href="#m0aa2bef3b2" x="48.039375" y="188.722692" style="stroke: #000000; stroke-width: 0.5"/>
      </g>
     </g>
     <g id="line2d_99">
      <g>
       <use xlink:href="#m88acdefae6" x="382.839375" y="188.722692" style="stroke: #000000; stroke-width: 0.5"/>
      </g>
     </g>
    </g>
    <g id="ytick_16">
     <g id="line2d_100">
      <g>
       <use xlink:href="#m0aa2bef3b2" x="48.039375" y="181.8422" style="stroke: #000000; stroke-width: 0.5"/>
      </g>
     </g>
     <g id="line2d_101">
      <g>
       <use xlink:href="#m88acdefae6" x="382.839375" y="181.8422" style="stroke: #000000; stroke-width: 0.5"/>
      </g>
     </g>
    </g>
    <g id="ytick_17">
     <g id="line2d_102">
      <g>
       <use xlink:href="#m0aa2bef3b2" x="48.039375" y="168.081218" style="stroke: #000000; stroke-width: 0.5"/>
      </g>
     </g>
     <g id="line2d_103">
      <g>
       <use xlink:href="#m88acdefae6" x="382.839375" y="168.081218" style="stroke: #000000; stroke-width: 0.5"/>
      </g>
     </g>
    </g>
    <g id="ytick_18">
     <g id="line2d_104">
      <g>
       <use xlink:href="#m0aa2bef3b2" x="48.039375" y="161.200726" style="stroke: #000000; stroke-width: 0.5"/>
      </g>
     </g>
     <g id="line2d_105">
      <g>
       <use xlink:href="#m88acdefae6" x="382.839375" y="161.200726" style="stroke: #000000; stroke-width: 0.5"/>
      </g>
     </g>
    </g>
    <g id="ytick_19">
     <g id="line2d_106">
      <g>
       <use xlink:href="#m0aa2bef3b2" x="48.039375" y="154.320235" style="stroke: #000000; stroke-width: 0.5"/>
      </g>
     </g>
     <g id="line2d_107">
      <g>
       <use xlink:href="#m88acdefae6" x="382.839375" y="154.320235" style="stroke: #000000; stroke-width: 0.5"/>
      </g>
     </g>
    </g>
    <g id="ytick_20">
     <g id="line2d_108">
      <g>
       <use xlink:href="#m0aa2bef3b2" x="48.039375" y="147.439744" style="stroke: #000000; stroke-width: 0.5"/>
      </g>
     </g>
     <g id="line2d_109">
      <g>
       <use xlink:href="#m88acdefae6" x="382.839375" y="147.439744" style="stroke: #000000; stroke-width: 0.5"/>
      </g>
     </g>
    </g>
    <g id="ytick_21">
     <g id="line2d_110">
      <g>
       <use xlink:href="#m0aa2bef3b2" x="48.039375" y="133.678761" style="stroke: #000000; stroke-width: 0.5"/>
      </g>
     </g>
     <g id="line2d_111">
      <g>
       <use xlink:href="#m88acdefae6" x="382.839375" y="133.678761" style="stroke: #000000; stroke-width: 0.5"/>
      </g>
     </g>
    </g>
    <g id="ytick_22">
     <g id="line2d_112">
      <g>
       <use xlink:href="#m0aa2bef3b2" x="48.039375" y="126.79827" style="stroke: #000000; stroke-width: 0.5"/>
      </g>
     </g>
     <g id="line2d_113">
      <g>
       <use xlink:href="#m88acdefae6" x="382.839375" y="126.79827" style="stroke: #000000; stroke-width: 0.5"/>
      </g>
     </g>
    </g>
    <g id="ytick_23">
     <g id="line2d_114">
      <g>
       <use xlink:href="#m0aa2bef3b2" x="48.039375" y="119.917779" style="stroke: #000000; stroke-width: 0.5"/>
      </g>
     </g>
     <g id="line2d_115">
      <g>
       <use xlink:href="#m88acdefae6" x="382.839375" y="119.917779" style="stroke: #000000; stroke-width: 0.5"/>
      </g>
     </g>
    </g>
    <g id="ytick_24">
     <g id="line2d_116">
      <g>
       <use xlink:href="#m0aa2bef3b2" x="48.039375" y="113.037287" style="stroke: #000000; stroke-width: 0.5"/>
      </g>
     </g>
     <g id="line2d_117">
      <g>
       <use xlink:href="#m88acdefae6" x="382.839375" y="113.037287" style="stroke: #000000; stroke-width: 0.5"/>
      </g>
     </g>
    </g>
    <g id="ytick_25">
     <g id="line2d_118">
      <g>
       <use xlink:href="#m0aa2bef3b2" x="48.039375" y="99.276305" style="stroke: #000000; stroke-width: 0.5"/>
      </g>
     </g>
     <g id="line2d_119">
      <g>
       <use xlink:href="#m88acdefae6" x="382.839375" y="99.276305" style="stroke: #000000; stroke-width: 0.5"/>
      </g>
     </g>
    </g>
    <g id="ytick_26">
     <g id="line2d_120">
      <g>
       <use xlink:href="#m0aa2bef3b2" x="48.039375" y="92.395813" style="stroke: #000000; stroke-width: 0.5"/>
      </g>
     </g>
     <g id="line2d_121">
      <g>
       <use xlink:href="#m88acdefae6" x="382.839375" y="92.395813" style="stroke: #000000; stroke-width: 0.5"/>
      </g>
     </g>
    </g>
    <g id="ytick_27">
     <g id="line2d_122">
      <g>
       <use xlink:href="#m0aa2bef3b2" x="48.039375" y="85.515322" style="stroke: #000000; stroke-width: 0.5"/>
      </g>
     </g>
     <g id="line2d_123">
      <g>
       <use xlink:href="#m88acdefae6" x="382.839375" y="85.515322" style="stroke: #000000; stroke-width: 0.5"/>
      </g>
     </g>
    </g>
    <g id="ytick_28">
     <g id="line2d_124">
      <g>
       <use xlink:href="#m0aa2bef3b2" x="48.039375" y="78.634831" style="stroke: #000000; stroke-width: 0.5"/>
      </g>
     </g>
     <g id="line2d_125">
      <g>
       <use xlink:href="#m88acdefae6" x="382.839375" y="78.634831" style="stroke: #000000; stroke-width: 0.5"/>
      </g>
     </g>
    </g>
    <g id="ytick_29">
     <g id="line2d_126">
      <g>
       <use xlink:href="#m0aa2bef3b2" x="48.039375" y="64.873848" style="stroke: #000000; stroke-width: 0.5"/>
      </g>
     </g>
     <g id="line2d_127">
      <g>
       <use xlink:href="#m88acdefae6" x="382.839375" y="64.873848" style="stroke: #000000; stroke-width: 0.5"/>
      </g>
     </g>
    </g>
    <g id="ytick_30">
     <g id="line2d_128">
      <g>
       <use xlink:href="#m0aa2bef3b2" x="48.039375" y="57.993357" style="stroke: #000000; stroke-width: 0.5"/>
      </g>
     </g>
     <g id="line2d_129">
      <g>
       <use xlink:href="#m88acdefae6" x="382.839375" y="57.993357" style="stroke: #000000; stroke-width: 0.5"/>
      </g>
     </g>
    </g>
    <g id="ytick_31">
     <g id="line2d_130">
      <g>
       <use xlink:href="#m0aa2bef3b2" x="48.039375" y="51.112866" style="stroke: #000000; stroke-width: 0.5"/>
      </g>
     </g>
     <g id="line2d_131">
      <g>
       <use xlink:href="#m88acdefae6" x="382.839375" y="51.112866" style="stroke: #000000; stroke-width: 0.5"/>
      </g>
     </g>
    </g>
    <g id="ytick_32">
     <g id="line2d_132">
      <g>
       <use xlink:href="#m0aa2bef3b2" x="48.039375" y="44.232374" style="stroke: #000000; stroke-width: 0.5"/>
      </g>
     </g>
     <g id="line2d_133">
      <g>
       <use xlink:href="#m88acdefae6" x="382.839375" y="44.232374" style="stroke: #000000; stroke-width: 0.5"/>
      </g>
     </g>
    </g>
    <g id="ytick_33">
     <g id="line2d_134">
      <g>
       <use xlink:href="#m0aa2bef3b2" x="48.039375" y="30.471392" style="stroke: #000000; stroke-width: 0.5"/>
      </g>
     </g>
     <g id="line2d_135">
      <g>
       <use xlink:href="#m88acdefae6" x="382.839375" y="30.471392" style="stroke: #000000; stroke-width: 0.5"/>
      </g>
     </g>
    </g>
    <g id="ytick_34">
     <g id="line2d_136">
      <g>
       <use xlink:href="#m0aa2bef3b2" x="48.039375" y="23.5909" style="stroke: #000000; stroke-width: 0.5"/>
      </g>
     </g>
     <g id="line2d_137">
      <g>
       <use xlink:href="#m88acdefae6" x="382.839375" y="23.5909" style="stroke: #000000; stroke-width: 0.5"/>
      </g>
     </g>
    </g>
    <g id="ytick_35">
     <g id="line2d_138">
      <g>
       <use xlink:href="#m0aa2bef3b2" x="48.039375" y="16.710409" style="stroke: #000000; stroke-width: 0.5"/>
      </g>
     </g>
     <g id="line2d_139">
      <g>
       <use xlink:href="#m88acdefae6" x="382.839375" y="16.710409" style="stroke: #000000; stroke-width: 0.5"/>
      </g>
     </g>
    </g>
    <g id="ytick_36">
     <g id="line2d_140">
      <g>
       <use xlink:href="#m0aa2bef3b2" x="48.039375" y="9.829918" style="stroke: #000000; stroke-width: 0.5"/>
      </g>
     </g>
     <g id="line2d_141">
      <g>
       <use xlink:href="#m88acdefae6" x="382.839375" y="9.829918" style="stroke: #000000; stroke-width: 0.5"/>
      </g>
     </g>
    </g>
    <g id="text_15">
     <!-- Fitness -->
     <g transform="translate(12.718125 149.120625) rotate(-90) scale(0.12 -0.12)">
      <defs>
       <path id="DejaVuSans-46" d="M 628 4666 
L 3309 4666 
L 3309 4134 
L 1259 4134 
L 1259 2759 
L 3109 2759 
L 3109 2228 
L 1259 2228 
L 1259 0 
L 628 0 
L 628 4666 
z
" transform="scale(0.015625)"/>
      </defs>
      <use xlink:href="#DejaVuSans-46"/>
      <use xlink:href="#DejaVuSans-69" x="50.269531"/>
      <use xlink:href="#DejaVuSans-74" x="78.052734"/>
      <use xlink:href="#DejaVuSans-6e" x="117.261719"/>
      <use xlink:href="#DejaVuSans-65" x="180.640625"/>
      <use xlink:href="#DejaVuSans-73" x="242.164062"/>
      <use xlink:href="#DejaVuSans-73" x="294.263672"/>
     </g>
    </g>
   </g>
   <g id="line2d_142">
    <path d="M 63.257557 34.783836 
L 67.527187 34.783175 
L 68.137134 34.608769 
L 69.966976 34.606437 
L 70.576923 28.840953 
L 71.18687 28.839271 
L 71.796817 23.272473 
L 82.165919 23.271092 
L 82.775866 22.992156 
L 83.385813 22.994629 
L 83.99576 22.480525 
L 84.605708 21.129956 
L 87.045496 21.129559 
L 87.655444 20.21019 
L 91.925074 20.209914 
L 92.535021 19.58417 
L 114.493119 19.55784 
L 115.103066 19.069991 
L 115.713013 19.070683 
L 116.932908 18.713915 
L 117.542855 18.7136 
L 118.152802 18.523713 
L 119.982643 18.528068 
L 124.862221 18.489853 
L 125.472168 18.313763 
L 130.351745 18.312407 
L 130.961692 17.875636 
L 138.281058 17.872643 
L 138.891006 17.310597 
L 141.940741 17.309508 
L 142.550689 16.953277 
L 143.770583 16.873413 
L 149.870055 16.845508 
L 151.089949 16.750565 
L 154.749632 16.686851 
L 155.969526 16.157783 
L 168.778417 16.127006 
L 169.388364 15.955736 
L 169.998311 15.954886 
L 170.608258 15.835594 
L 213.30456 15.830174 
L 238.922341 15.81593 
L 250.511337 15.760994 
L 274.299277 15.68303 
L 274.909224 15.32327 
L 278.568907 15.320238 
L 279.178854 15.140824 
L 300.527005 15.129268 
L 303.576741 15.074008 
L 304.796635 15.130093 
L 320.655261 15.126046 
L 331.024363 15.109826 
L 331.63431 15.009343 
L 332.854205 15.119174 
L 342.003412 15.058501 
L 343.223306 15.057351 
L 346.273042 15.026869 
L 346.88299 14.94 
L 347.492937 15.058746 
L 356.642144 15.022928 
L 359.081933 15.052487 
L 363.96151 15.031818 
L 367.621193 15.057965 
L 367.621193 15.057965 
" clip-path="url(#p8c8277a6f1)" style="fill: none; stroke: #000000; stroke-linecap: square"/>
   </g>
   <g id="line2d_143">
    <path d="M 63.257557 184.398706 
L 63.867504 168.706285 
L 64.477451 160.072077 
L 65.087398 171.218667 
L 65.697345 149.870724 
L 67.527187 127.269486 
L 68.137134 134.880426 
L 68.747081 137.59473 
L 69.357028 124.607137 
L 69.966976 121.528858 
L 70.576923 115.596699 
L 71.18687 114.298581 
L 72.406764 105.445824 
L 73.016711 107.371102 
L 73.626659 99.08235 
L 74.236606 94.349631 
L 74.846553 99.72554 
L 75.4565 86.519009 
L 76.066447 85.563824 
L 76.676394 80.993336 
L 77.286342 72.903331 
L 77.896289 78.649548 
L 78.506236 81.582241 
L 79.116183 81.642208 
L 79.72613 80.608836 
L 80.336077 79.024917 
L 80.946025 81.148399 
L 81.555972 82.225796 
L 82.165919 79.736662 
L 82.775866 91.025089 
L 83.385813 88.256886 
L 83.99576 77.187092 
L 84.605708 82.006021 
L 85.215655 82.673018 
L 85.825602 77.896184 
L 86.435549 75.796095 
L 87.045496 78.05269 
L 87.655444 73.438356 
L 88.265391 83.362922 
L 89.485285 83.163405 
L 90.095232 98.61349 
L 90.705179 93.62153 
L 91.315127 93.925403 
L 91.925074 87.929636 
L 92.535021 88.453696 
L 93.144968 84.571604 
L 93.754915 88.261638 
L 94.364862 84.046625 
L 94.97481 90.481175 
L 95.584757 78.914 
L 96.194704 74.309502 
L 96.804651 71.43224 
L 97.414598 78.676945 
L 98.024545 63.532833 
L 98.634493 56.270571 
L 99.854387 56.339415 
L 100.464334 46.915149 
L 101.074281 39.540702 
L 101.684228 40.724433 
L 102.294176 39.122316 
L 102.904123 38.768203 
L 103.51407 35.417243 
L 104.124017 33.903085 
L 104.733964 33.318124 
L 105.343911 37.119053 
L 105.953859 36.873839 
L 106.563806 35.550921 
L 107.173753 39.080957 
L 107.7837 35.822646 
L 108.393647 39.689525 
L 109.003594 37.523755 
L 109.613542 34.295747 
L 110.833436 43.618949 
L 111.443383 39.455663 
L 112.05333 38.756347 
L 112.663277 35.734675 
L 113.273225 26.724282 
L 113.883172 28.251149 
L 114.493119 32.933196 
L 115.103066 26.871221 
L 115.713013 30.710441 
L 116.32296 32.016976 
L 116.932908 34.406459 
L 117.542855 35.236702 
L 118.152802 36.789587 
L 118.762749 35.259913 
L 119.372696 38.867893 
L 119.982643 36.346855 
L 120.592591 34.526076 
L 121.202538 30.509482 
L 121.812485 29.89599 
L 122.422432 33.834084 
L 123.032379 32.093814 
L 123.642326 32.030497 
L 124.252274 30.85944 
L 124.862221 27.791952 
L 125.472168 30.975033 
L 126.082115 28.852168 
L 126.692062 25.108487 
L 127.302009 24.866018 
L 127.911957 30.035534 
L 128.521904 30.878907 
L 129.131851 29.691342 
L 129.741798 31.019834 
L 130.351745 30.640684 
L 130.961692 27.102662 
L 131.57164 33.423344 
L 132.181587 34.102481 
L 132.791534 33.860601 
L 133.401481 32.089584 
L 134.011428 31.202764 
L 134.621375 32.154712 
L 135.231323 39.807304 
L 135.84127 36.370247 
L 136.451217 35.780009 
L 137.061164 37.982678 
L 137.671111 35.582663 
L 138.281058 37.662068 
L 138.891006 42.006944 
L 139.500953 41.942035 
L 140.1109 39.31838 
L 140.720847 38.399575 
L 141.330794 37.034335 
L 141.940741 39.187963 
L 142.550689 49.971129 
L 143.160636 51.788234 
L 143.770583 37.199755 
L 144.38053 42.700766 
L 146.210372 24.609836 
L 146.820319 25.668942 
L 147.430266 27.894964 
L 148.040213 28.208726 
L 148.65016 32.647391 
L 149.260107 42.024058 
L 149.870055 36.039014 
L 150.480002 35.032742 
L 151.089949 46.626386 
L 151.699896 35.544768 
L 152.309843 36.829361 
L 152.91979 37.145484 
L 154.139685 23.843531 
L 154.749632 28.461931 
L 155.359579 31.987676 
L 155.969526 32.186185 
L 156.579473 38.150661 
L 157.189421 33.154803 
L 157.799368 33.869966 
L 158.409315 30.966204 
L 159.019262 29.584966 
L 159.629209 25.944429 
L 160.239156 23.154325 
L 160.849104 25.417445 
L 161.459051 26.529608 
L 162.068998 23.9161 
L 162.678945 25.026407 
L 163.288892 19.462442 
L 163.898839 22.301124 
L 165.118734 29.21297 
L 166.338628 25.280312 
L 166.948575 22.922293 
L 167.558522 22.534435 
L 168.16847 26.16267 
L 168.778417 28.672814 
L 169.388364 32.282113 
L 169.998311 32.404466 
L 170.608258 30.668602 
L 171.218205 26.36877 
L 171.828153 20.51079 
L 172.4381 17.962989 
L 173.048047 16.639322 
L 173.657994 20.780921 
L 174.267941 25.938107 
L 174.877888 23.768794 
L 175.487836 23.34617 
L 176.097783 22.361639 
L 176.70773 26.272916 
L 177.317677 28.177109 
L 177.927624 28.674146 
L 178.537571 28.025039 
L 179.147519 26.429683 
L 180.367413 17.737966 
L 180.97736 18.217731 
L 181.587307 22.792895 
L 182.197254 21.539214 
L 182.807202 22.276475 
L 183.417149 21.109947 
L 184.027096 21.873618 
L 184.637043 26.257028 
L 185.856937 18.272628 
L 186.466885 21.520838 
L 187.076832 25.698874 
L 187.686779 33.023044 
L 188.296726 36.219001 
L 188.906673 35.641067 
L 189.51662 48.369652 
L 190.736515 43.285591 
L 191.346462 43.565455 
L 191.956409 36.492622 
L 192.566356 30.878588 
L 193.786251 28.594501 
L 194.396198 29.43073 
L 195.006145 32.170071 
L 195.616092 24.602323 
L 196.226039 21.103373 
L 196.835986 24.962594 
L 197.445934 26.172343 
L 198.055881 24.328962 
L 198.665828 24.609556 
L 199.275775 20.406064 
L 199.885722 19.875411 
L 200.495669 22.995535 
L 201.105617 28.136959 
L 201.715564 28.416656 
L 202.325511 28.393317 
L 202.935458 26.176189 
L 203.545405 25.44517 
L 204.155352 24.986365 
L 204.7653 30.706737 
L 205.375247 32.082328 
L 205.985194 32.255269 
L 206.595141 24.832453 
L 207.815035 27.490633 
L 208.424983 33.864764 
L 209.03493 32.268658 
L 209.644877 22.094756 
L 210.254824 26.538249 
L 210.864771 26.361249 
L 211.474718 30.148301 
L 212.084666 29.577402 
L 212.694613 28.468731 
L 213.30456 31.015133 
L 213.914507 32.582856 
L 214.524454 31.420676 
L 215.744349 22.158935 
L 216.354296 19.607535 
L 216.964243 18.878038 
L 217.57419 20.260195 
L 218.184137 23.657867 
L 218.794084 18.111503 
L 219.404032 18.739183 
L 220.013979 20.201998 
L 220.623926 20.647029 
L 221.233873 23.378252 
L 221.84382 24.467414 
L 222.453767 28.156895 
L 223.063715 26.575085 
L 223.673662 27.567397 
L 224.283609 26.659282 
L 224.893556 23.867985 
L 225.503503 27.665685 
L 226.11345 24.410349 
L 226.723398 24.108195 
L 227.333345 25.321773 
L 227.943292 27.962865 
L 228.553239 25.98921 
L 229.163186 21.284767 
L 229.773133 22.53202 
L 230.383081 31.545705 
L 230.993028 35.620311 
L 231.602975 29.358285 
L 232.212922 27.378045 
L 232.822869 26.522501 
L 233.432816 24.894414 
L 234.042764 21.73727 
L 234.652711 19.353743 
L 235.872605 28.373828 
L 236.482552 31.410645 
L 237.092499 32.430744 
L 237.702447 29.905784 
L 238.312394 22.50097 
L 238.922341 25.202914 
L 239.532288 24.754003 
L 240.752182 20.062793 
L 241.36213 21.785279 
L 241.972077 21.254356 
L 242.582024 24.040251 
L 243.191971 30.543045 
L 243.801918 27.369048 
L 244.411865 30.574694 
L 245.021813 29.948248 
L 245.63176 30.532424 
L 246.241707 32.840068 
L 246.851654 32.169719 
L 247.461601 27.049171 
L 248.071548 26.108417 
L 248.681496 22.630861 
L 249.291443 24.613665 
L 249.90139 28.421096 
L 250.511337 30.2483 
L 251.121284 29.66878 
L 252.341179 24.493927 
L 252.951126 29.018368 
L 253.561073 32.640647 
L 254.17102 34.16685 
L 254.780967 31.454125 
L 255.390914 43.051635 
L 256.000862 32.960385 
L 256.610809 34.269977 
L 257.220756 32.040151 
L 257.830703 31.536585 
L 258.44065 32.232925 
L 259.050597 34.753193 
L 259.660545 27.749892 
L 260.270492 24.064219 
L 260.880439 25.084101 
L 261.490386 26.660251 
L 262.100333 22.28711 
L 262.71028 26.688165 
L 263.320228 22.368686 
L 263.930175 27.730974 
L 264.540122 23.677206 
L 265.760016 22.276948 
L 266.369963 22.76641 
L 266.979911 17.716921 
L 267.589858 19.094991 
L 268.199805 18.88557 
L 269.419699 21.803365 
L 270.029646 21.961509 
L 270.639594 20.058858 
L 271.249541 17.361445 
L 272.469435 24.841622 
L 273.079382 19.727619 
L 273.689329 19.121349 
L 274.299277 19.734946 
L 275.519171 30.880401 
L 276.129118 33.21552 
L 276.739065 36.482874 
L 277.349012 33.617559 
L 277.95896 28.44344 
L 279.178854 23.141018 
L 280.398748 26.113393 
L 281.008695 25.342444 
L 281.618643 26.263093 
L 282.22859 23.348564 
L 282.838537 29.281128 
L 283.448484 28.341412 
L 284.058431 24.182018 
L 284.668378 23.970764 
L 285.278326 29.229168 
L 285.888273 31.78067 
L 286.49822 42.712357 
L 287.108167 47.22925 
L 287.718114 50.043042 
L 288.328061 44.601513 
L 288.938009 37.461038 
L 289.547956 36.823023 
L 290.157903 34.664784 
L 290.76785 30.400953 
L 291.377797 27.525296 
L 291.987744 30.10435 
L 292.597692 30.96002 
L 293.817586 42.844853 
L 294.427533 35.942837 
L 295.03748 26.535131 
L 296.257375 42.862489 
L 296.867322 40.649886 
L 297.477269 31.132121 
L 298.087216 33.022574 
L 298.697163 31.187463 
L 299.30711 30.830152 
L 299.917058 27.377029 
L 300.527005 33.395697 
L 301.746899 27.688472 
L 302.356846 23.295102 
L 302.966793 26.510142 
L 303.576741 27.854885 
L 304.186688 36.931397 
L 304.796635 33.745249 
L 305.406582 29.810594 
L 306.016529 28.177677 
L 306.626476 22.852835 
L 307.236424 25.471865 
L 307.846371 25.763942 
L 308.456318 23.648866 
L 309.066265 20.731508 
L 309.676212 21.95572 
L 310.286159 26.417556 
L 310.896107 22.022275 
L 311.506054 19.685564 
L 312.116001 19.425768 
L 312.725948 23.287763 
L 313.335895 25.356839 
L 313.945842 30.00878 
L 314.55579 30.640567 
L 315.165737 29.115898 
L 315.775684 29.126577 
L 316.385631 30.702636 
L 316.995578 23.831805 
L 317.605525 23.896181 
L 318.215473 24.700203 
L 318.82542 25.225353 
L 319.435367 25.955846 
L 320.045314 28.053742 
L 320.655261 23.438833 
L 321.265208 26.392486 
L 321.875156 25.122895 
L 322.485103 30.017103 
L 323.09505 31.03913 
L 323.704997 23.893867 
L 324.314944 22.334082 
L 324.924891 24.083112 
L 325.534839 29.592703 
L 326.144786 29.574085 
L 326.754733 29.95868 
L 327.36468 26.59402 
L 327.974627 25.43156 
L 328.584574 24.547915 
L 329.194522 26.287375 
L 329.804469 26.657399 
L 330.414416 22.915272 
L 331.024363 24.45747 
L 331.63431 32.410764 
L 332.244257 21.354097 
L 332.854205 21.257632 
L 333.464152 22.803613 
L 334.074099 23.957846 
L 334.684046 23.785846 
L 335.90394 31.500887 
L 336.513888 43.806548 
L 337.123835 46.670015 
L 337.733782 47.398468 
L 338.343729 50.586692 
L 338.953676 38.90033 
L 339.563623 41.892151 
L 340.173571 39.0311 
L 340.783518 28.12078 
L 341.393465 24.40297 
L 342.003412 26.695198 
L 342.613359 22.79312 
L 343.223306 17.561304 
L 343.833254 19.735485 
L 344.443201 19.366949 
L 345.053148 21.023697 
L 345.663095 23.127026 
L 346.273042 27.647597 
L 346.88299 26.17991 
L 347.492937 26.063523 
L 348.102884 27.22639 
L 348.712831 21.557077 
L 349.322778 19.611529 
L 349.932725 20.463576 
L 350.542673 20.697029 
L 351.15262 19.201046 
L 351.762567 17.12836 
L 352.372514 20.511367 
L 352.982461 25.354071 
L 353.592408 23.938356 
L 354.202356 24.015888 
L 354.812303 21.463285 
L 355.42225 23.798928 
L 356.032197 19.219424 
L 356.642144 19.316896 
L 357.252091 24.577856 
L 357.862039 26.763754 
L 358.471986 26.840919 
L 359.081933 25.142319 
L 359.69188 29.583115 
L 360.301827 25.037261 
L 360.911774 29.324452 
L 361.521722 26.727674 
L 362.741616 36.843088 
L 363.351563 33.742002 
L 364.571457 23.155976 
L 365.181405 18.738273 
L 365.791352 18.112014 
L 366.401299 16.238288 
L 367.011246 19.780789 
L 367.621193 24.354515 
L 367.621193 24.354515 
" clip-path="url(#p8c8277a6f1)" style="fill: none; stroke-dasharray: 3.7,1.6; stroke-dashoffset: 0; stroke: #000000"/>
   </g>
   <g id="patch_3">
    <path d="M 48.039375 253.08 
L 48.039375 3.6 
" style="fill: none; stroke: #000000; stroke-width: 0.5; stroke-linejoin: miter; stroke-linecap: square"/>
   </g>
   <g id="patch_4">
    <path d="M 382.839375 253.08 
L 382.839375 3.6 
" style="fill: none; stroke: #000000; stroke-width: 0.5; stroke-linejoin: miter; stroke-linecap: square"/>
   </g>
   <g id="patch_5">
    <path d="M 48.039375 253.08 
L 382.839375 253.08 
" style="fill: none; stroke: #000000; stroke-width: 0.5; stroke-linejoin: miter; stroke-linecap: square"/>
   </g>
   <g id="patch_6">
    <path d="M 48.039375 3.6 
L 382.839375 3.6 
" style="fill: none; stroke: #000000; stroke-width: 0.5; stroke-linejoin: miter; stroke-linecap: square"/>
   </g>
   <g id="legend_1">
    <g id="patch_7">
     <path d="M 256.633125 247.08 
L 374.439375 247.08 
Q 376.839375 247.08 376.839375 244.68 
L 376.839375 193.03875 
Q 376.839375 190.63875 374.439375 190.63875 
L 256.633125 190.63875 
Q 254.233125 190.63875 254.233125 193.03875 
L 254.233125 244.68 
Q 254.233125 247.08 256.633125 247.08 
z
" style="fill: #ffffff; opacity: 0.8; stroke: #cccccc; stroke-linejoin: miter"/>
    </g>
    <g id="line2d_144">
     <path d="M 259.033125 200.356875 
L 271.033125 200.356875 
L 283.033125 200.356875 
" style="fill: none; stroke: #000000; stroke-linecap: square"/>
    </g>
    <g id="text_16">
     <!-- Max fitness -->
     <g transform="translate(292.633125 204.556875) scale(0.12 -0.12)">
      <defs>
       <path id="DejaVuSans-4d" d="M 628 4666 
L 1569 4666 
L 2759 1491 
L 3956 4666 
L 4897 4666 
L 4897 0 
L 4281 0 
L 4281 4097 
L 3078 897 
L 2444 897 
L 1241 4097 
L 1241 0 
L 628 0 
L 628 4666 
z
" transform="scale(0.015625)"/>
       <path id="DejaVuSans-78" d="M 3513 3500 
L 2247 1797 
L 3578 0 
L 2900 0 
L 1881 1375 
L 863 0 
L 184 0 
L 1544 1831 
L 300 3500 
L 978 3500 
L 1906 2253 
L 2834 3500 
L 3513 3500 
z
" transform="scale(0.015625)"/>
       <path id="DejaVuSans-20" transform="scale(0.015625)"/>
       <path id="DejaVuSans-66" d="M 2375 4863 
L 2375 4384 
L 1825 4384 
Q 1516 4384 1395 4259 
Q 1275 4134 1275 3809 
L 1275 3500 
L 2222 3500 
L 2222 3053 
L 1275 3053 
L 1275 0 
L 697 0 
L 697 3053 
L 147 3053 
L 147 3500 
L 697 3500 
L 697 3744 
Q 697 4328 969 4595 
Q 1241 4863 1831 4863 
L 2375 4863 
z
" transform="scale(0.015625)"/>
      </defs>
      <use xlink:href="#DejaVuSans-4d"/>
      <use xlink:href="#DejaVuSans-61" x="86.279297"/>
      <use xlink:href="#DejaVuSans-78" x="147.558594"/>
      <use xlink:href="#DejaVuSans-20" x="206.738281"/>
      <use xlink:href="#DejaVuSans-66" x="238.525391"/>
      <use xlink:href="#DejaVuSans-69" x="273.730469"/>
      <use xlink:href="#DejaVuSans-74" x="301.513672"/>
      <use xlink:href="#DejaVuSans-6e" x="340.722656"/>
      <use xlink:href="#DejaVuSans-65" x="404.101562"/>
      <use xlink:href="#DejaVuSans-73" x="465.625"/>
      <use xlink:href="#DejaVuSans-73" x="517.724609"/>
     </g>
    </g>
    <g id="patch_8">
     <path d="M 259.033125 222.170625 
L 283.033125 222.170625 
L 283.033125 213.770625 
L 259.033125 213.770625 
z
" style="fill: #0000ff; fill-opacity: 0.2; stroke: #0000ff; stroke-opacity: 0.2; stroke-linejoin: miter"/>
    </g>
    <g id="text_17">
     <!-- Top 90% -->
     <g transform="translate(292.633125 222.170625) scale(0.12 -0.12)">
      <defs>
       <path id="DejaVuSans-54" d="M -19 4666 
L 3928 4666 
L 3928 4134 
L 2272 4134 
L 2272 0 
L 1638 0 
L 1638 4134 
L -19 4134 
L -19 4666 
z
" transform="scale(0.015625)"/>
       <path id="DejaVuSans-70" d="M 1159 525 
L 1159 -1331 
L 581 -1331 
L 581 3500 
L 1159 3500 
L 1159 2969 
Q 1341 3281 1617 3432 
Q 1894 3584 2278 3584 
Q 2916 3584 3314 3078 
Q 3713 2572 3713 1747 
Q 3713 922 3314 415 
Q 2916 -91 2278 -91 
Q 1894 -91 1617 61 
Q 1341 213 1159 525 
z
M 3116 1747 
Q 3116 2381 2855 2742 
Q 2594 3103 2138 3103 
Q 1681 3103 1420 2742 
Q 1159 2381 1159 1747 
Q 1159 1113 1420 752 
Q 1681 391 2138 391 
Q 2594 391 2855 752 
Q 3116 1113 3116 1747 
z
" transform="scale(0.015625)"/>
       <path id="DejaVuSans-39" d="M 703 97 
L 703 672 
Q 941 559 1184 500 
Q 1428 441 1663 441 
Q 2288 441 2617 861 
Q 2947 1281 2994 2138 
Q 2813 1869 2534 1725 
Q 2256 1581 1919 1581 
Q 1219 1581 811 2004 
Q 403 2428 403 3163 
Q 403 3881 828 4315 
Q 1253 4750 1959 4750 
Q 2769 4750 3195 4129 
Q 3622 3509 3622 2328 
Q 3622 1225 3098 567 
Q 2575 -91 1691 -91 
Q 1453 -91 1209 -44 
Q 966 3 703 97 
z
M 1959 2075 
Q 2384 2075 2632 2365 
Q 2881 2656 2881 3163 
Q 2881 3666 2632 3958 
Q 2384 4250 1959 4250 
Q 1534 4250 1286 3958 
Q 1038 3666 1038 3163 
Q 1038 2656 1286 2365 
Q 1534 2075 1959 2075 
z
" transform="scale(0.015625)"/>
       <path id="DejaVuSans-25" d="M 4653 2053 
Q 4381 2053 4226 1822 
Q 4072 1591 4072 1178 
Q 4072 772 4226 539 
Q 4381 306 4653 306 
Q 4919 306 5073 539 
Q 5228 772 5228 1178 
Q 5228 1588 5073 1820 
Q 4919 2053 4653 2053 
z
M 4653 2450 
Q 5147 2450 5437 2106 
Q 5728 1763 5728 1178 
Q 5728 594 5436 251 
Q 5144 -91 4653 -91 
Q 4153 -91 3862 251 
Q 3572 594 3572 1178 
Q 3572 1766 3864 2108 
Q 4156 2450 4653 2450 
z
M 1428 4353 
Q 1159 4353 1004 4120 
Q 850 3888 850 3481 
Q 850 3069 1003 2837 
Q 1156 2606 1428 2606 
Q 1700 2606 1854 2837 
Q 2009 3069 2009 3481 
Q 2009 3884 1853 4118 
Q 1697 4353 1428 4353 
z
M 4250 4750 
L 4750 4750 
L 1831 -91 
L 1331 -91 
L 4250 4750 
z
M 1428 4750 
Q 1922 4750 2215 4408 
Q 2509 4066 2509 3481 
Q 2509 2891 2217 2550 
Q 1925 2209 1428 2209 
Q 931 2209 642 2551 
Q 353 2894 353 3481 
Q 353 4063 643 4406 
Q 934 4750 1428 4750 
z
" transform="scale(0.015625)"/>
      </defs>
      <use xlink:href="#DejaVuSans-54"/>
      <use xlink:href="#DejaVuSans-6f" x="44.083984"/>
      <use xlink:href="#DejaVuSans-70" x="105.265625"/>
      <use xlink:href="#DejaVuSans-20" x="168.742188"/>
      <use xlink:href="#DejaVuSans-39" x="200.529297"/>
      <use xlink:href="#DejaVuSans-30" x="264.152344"/>
      <use xlink:href="#DejaVuSans-25" x="327.775391"/>
     </g>
    </g>
    <g id="line2d_145">
     <path d="M 259.033125 235.584375 
L 271.033125 235.584375 
L 283.033125 235.584375 
" style="fill: none; stroke-dasharray: 3.7,1.6; stroke-dashoffset: 0; stroke: #000000"/>
    </g>
    <g id="text_18">
     <!-- Fitness mean -->
     <g transform="translate(292.633125 239.784375) scale(0.12 -0.12)">
      <defs>
       <path id="DejaVuSans-6d" d="M 3328 2828 
Q 3544 3216 3844 3400 
Q 4144 3584 4550 3584 
Q 5097 3584 5394 3201 
Q 5691 2819 5691 2113 
L 5691 0 
L 5113 0 
L 5113 2094 
Q 5113 2597 4934 2840 
Q 4756 3084 4391 3084 
Q 3944 3084 3684 2787 
Q 3425 2491 3425 1978 
L 3425 0 
L 2847 0 
L 2847 2094 
Q 2847 2600 2669 2842 
Q 2491 3084 2119 3084 
Q 1678 3084 1418 2786 
Q 1159 2488 1159 1978 
L 1159 0 
L 581 0 
L 581 3500 
L 1159 3500 
L 1159 2956 
Q 1356 3278 1631 3431 
Q 1906 3584 2284 3584 
Q 2666 3584 2933 3390 
Q 3200 3197 3328 2828 
z
" transform="scale(0.015625)"/>
      </defs>
      <use xlink:href="#DejaVuSans-46"/>
      <use xlink:href="#DejaVuSans-69" x="50.269531"/>
      <use xlink:href="#DejaVuSans-74" x="78.052734"/>
      <use xlink:href="#DejaVuSans-6e" x="117.261719"/>
      <use xlink:href="#DejaVuSans-65" x="180.640625"/>
      <use xlink:href="#DejaVuSans-73" x="242.164062"/>
      <use xlink:href="#DejaVuSans-73" x="294.263672"/>
      <use xlink:href="#DejaVuSans-20" x="346.363281"/>
      <use xlink:href="#DejaVuSans-6d" x="378.150391"/>
      <use xlink:href="#DejaVuSans-65" x="475.5625"/>
      <use xlink:href="#DejaVuSans-61" x="537.085938"/>
      <use xlink:href="#DejaVuSans-6e" x="598.365234"/>
     </g>
    </g>
   </g>
  </g>
 </g>
 <defs>
  <clipPath id="p8c8277a6f1">
   <rect x="48.039375" y="3.6" width="334.8" height="249.48"/>
  </clipPath>
 </defs>
</svg>
