<?xml version="1.0" encoding="utf-8" standalone="no"?>
<!DOCTYPE svg PUBLIC "-//W3C//DTD SVG 1.1//EN"
  "http://www.w3.org/Graphics/SVG/1.1/DTD/svg11.dtd">
<svg xmlns:xlink="http://www.w3.org/1999/xlink" width="390.253125pt" height="275.161961pt" viewBox="0 0 390.253125 275.161961" xmlns="http://www.w3.org/2000/svg" version="1.1">
 <metadata>
  <rdf:RDF xmlns:dc="http://purl.org/dc/elements/1.1/" xmlns:cc="http://creativecommons.org/ns#" xmlns:rdf="http://www.w3.org/1999/02/22-rdf-syntax-ns#">
   <cc:Work>
    <dc:type rdf:resource="http://purl.org/dc/dcmitype/StillImage"/>
    <dc:date>2024-06-05T09:26:42.399015</dc:date>
    <dc:format>image/svg+xml</dc:format>
    <dc:creator>
     <cc:Agent>
      <dc:title>Matplotlib v3.9.0, https://matplotlib.org/</dc:title>
     </cc:Agent>
    </dc:creator>
   </cc:Work>
  </rdf:RDF>
 </metadata>
 <defs>
  <style type="text/css">*{stroke-linejoin: round; stroke-linecap: butt}</style>
 </defs>
 <g id="figure_1">
  <g id="patch_1">
   <path d="M 0 275.161961 
L 390.253125 275.161961 
L 390.253125 0 
L 0 0 
z
" style="fill: #ffffff"/>
  </g>
  <g id="axes_1">
   <g id="patch_2">
    <path d="M 51.853125 240.834461 
L 386.653125 240.834461 
L 386.653125 3.6 
L 51.853125 3.6 
z
" style="fill: #ffffff"/>
   </g>
   <g id="PathCollection_1">
    <defs>
     <path id="m1cc737755a" d="M 0 3 
C 0.795609 3 1.55874 2.683901 2.12132 2.12132 
C 2.683901 1.55874 3 0.795609 3 0 
C 3 -0.795609 2.683901 -1.55874 2.12132 -2.12132 
C 1.55874 -2.683901 0.795609 -3 0 -3 
C -0.795609 -3 -1.55874 -2.683901 -2.12132 -2.12132 
C -2.683901 -1.55874 -3 -0.795609 -3 0 
C -3 0.795609 -2.683901 1.55874 -2.12132 2.12132 
C -1.55874 2.683901 -0.795609 3 0 3 
z
" style="stroke: #000000"/>
    </defs>
    <g clip-path="url(#p3f38b6ab43)">
     <use xlink:href="#m1cc737755a" x="169.551923" y="117.891997" style="stroke: #000000"/>
    </g>
   </g>
   <g id="patch_3">
    <path d="M 166.896687 107.126752 
L 167.794381 108.547294 
L 167.450427 108.63213 
L 169.7239 117.849579 
L 169.379946 117.934415 
L 167.106472 108.716966 
L 166.762517 108.801802 
z
" clip-path="url(#p3f38b6ab43)" style="fill: #008000; stroke-dasharray: 3.7,1.6; stroke-dashoffset: 0; stroke: #008000; stroke-linejoin: miter"/>
   </g>
   <g id="PathCollection_2">
    <g clip-path="url(#p3f38b6ab43)">
     <use xlink:href="#m1cc737755a" x="240.339901" y="151.467106" style="stroke: #000000"/>
    </g>
   </g>
   <g id="patch_4">
    <path d="M 185.778284 85.575787 
L 187.204313 86.464739 
L 186.931454 86.690682 
L 240.476331 151.354135 
L 240.203471 151.580077 
L 186.658595 86.916624 
L 186.385736 87.142566 
z
" clip-path="url(#p3f38b6ab43)" style="fill: #008000; stroke-dasharray: 3.7,1.6; stroke-dashoffset: 0; stroke: #008000; stroke-linejoin: miter"/>
   </g>
   <g id="PathCollection_3">
    <g clip-path="url(#p3f38b6ab43)">
     <use xlink:href="#m1cc737755a" x="120.106098" y="106.464241" style="stroke: #000000"/>
    </g>
   </g>
   <g id="patch_5">
    <path d="M 74.991267 137.057398 
L 76.01245 135.722864 
L 76.211278 136.01607 
L 120.006684 106.317639 
L 120.205512 106.610844 
L 76.410105 136.309275 
L 76.608933 136.602481 
z
" clip-path="url(#p3f38b6ab43)" style="fill: #008000; stroke-dasharray: 3.7,1.6; stroke-dashoffset: 0; stroke: #008000; stroke-linejoin: miter"/>
   </g>
   <g id="PathCollection_4">
    <g clip-path="url(#p3f38b6ab43)">
     <use xlink:href="#m1cc737755a" x="246.498414" y="58.377912" style="stroke: #000000"/>
    </g>
   </g>
   <g id="patch_6">
    <path d="M 290.092557 14.383385 
L 289.347931 15.889813 
L 289.096287 15.640459 
L 246.624236 58.502588 
L 246.372592 58.253235 
L 288.844643 15.391105 
L 288.592999 15.141752 
z
" clip-path="url(#p3f38b6ab43)" style="fill: #008000; stroke-dasharray: 3.7,1.6; stroke-dashoffset: 0; stroke: #008000; stroke-linejoin: miter"/>
   </g>
   <g id="PathCollection_5">
    <g clip-path="url(#p3f38b6ab43)">
     <use xlink:href="#m1cc737755a" x="85.058599" y="69.30779" style="stroke: #000000"/>
    </g>
   </g>
   <g id="patch_7">
    <path d="M 90.766969 99.043601 
L 89.944558 97.578189 
L 90.292468 97.511401 
L 84.884644 69.341184 
L 85.232554 69.274396 
L 90.640378 97.444613 
L 90.988287 97.377824 
z
" clip-path="url(#p3f38b6ab43)" style="fill: #008000; stroke-dasharray: 3.7,1.6; stroke-dashoffset: 0; stroke: #008000; stroke-linejoin: miter"/>
   </g>
   <g id="PathCollection_6">
    <g clip-path="url(#p3f38b6ab43)">
     <use xlink:href="#m1cc737755a" x="242.998554" y="194.463314" style="stroke: #000000"/>
    </g>
   </g>
   <g id="patch_8">
    <path d="M 189.999028 230.051077 
L 191.026293 228.721219 
L 191.22378 229.015329 
L 242.899811 194.316259 
L 243.097298 194.610369 
L 191.421267 229.30944 
L 191.618754 229.60355 
z
" clip-path="url(#p3f38b6ab43)" style="fill: #008000; stroke-dasharray: 3.7,1.6; stroke-dashoffset: 0; stroke: #008000; stroke-linejoin: miter"/>
   </g>
   <g id="PathCollection_7">
    <g clip-path="url(#p3f38b6ab43)">
     <use xlink:href="#m1cc737755a" x="353.447651" y="128.883203" style="stroke: #000000"/>
    </g>
   </g>
   <g id="patch_9">
    <path d="M 337.467834 143.303634 
L 338.295347 141.841096 
L 338.532687 142.104102 
L 353.328981 128.7517 
L 353.566321 129.014706 
L 338.770027 142.367107 
L 339.007367 142.630112 
z
" clip-path="url(#p3f38b6ab43)" style="fill: #008000; stroke-dasharray: 3.7,1.6; stroke-dashoffset: 0; stroke: #008000; stroke-linejoin: miter"/>
   </g>
   <g id="PathCollection_8">
    <defs>
     <path id="m18fc04bb1c" d="M -7.071068 7.071068 
L 7.071068 -7.071068 
M -7.071068 -7.071068 
L 7.071068 7.071068 
" style="stroke: #ff0000"/>
    </defs>
    <g clip-path="url(#p3f38b6ab43)">
     <use xlink:href="#m18fc04bb1c" x="208.647147" y="117.150547" style="fill: #ff0000; stroke: #ff0000"/>
    </g>
   </g>
   <g id="matplotlib.axis_1">
    <g id="xtick_1">
     <g id="line2d_1">
      <path d="M 68.173318 240.834461 
L 68.173318 3.6 
" clip-path="url(#p3f38b6ab43)" style="fill: none; stroke: #b0b0b0; stroke-width: 0.5; stroke-linecap: square"/>
     </g>
     <g id="line2d_2">
      <defs>
       <path id="mbda95eae30" d="M 0 0 
L 0 -3 
" style="stroke: #000000; stroke-width: 0.5"/>
      </defs>
      <g>
       <use xlink:href="#mbda95eae30" x="68.173318" y="240.834461" style="stroke: #000000; stroke-width: 0.5"/>
      </g>
     </g>
     <g id="line2d_3">
      <defs>
       <path id="md5f3ee4689" d="M 0 0 
L 0 3 
" style="stroke: #000000; stroke-width: 0.5"/>
      </defs>
      <g>
       <use xlink:href="#md5f3ee4689" x="68.173318" y="3.6" style="stroke: #000000; stroke-width: 0.5"/>
      </g>
     </g>
     <g id="text_1">
      <!-- −0.4 -->
      <g transform="translate(53.603631 253.452586) scale(0.12 -0.12)">
       <defs>
        <path id="DejaVuSans-2212" d="M 678 2272 
L 4684 2272 
L 4684 1741 
L 678 1741 
L 678 2272 
z
" transform="scale(0.015625)"/>
        <path id="DejaVuSans-30" d="M 2034 4250 
Q 1547 4250 1301 3770 
Q 1056 3291 1056 2328 
Q 1056 1369 1301 889 
Q 1547 409 2034 409 
Q 2525 409 2770 889 
Q 3016 1369 3016 2328 
Q 3016 3291 2770 3770 
Q 2525 4250 2034 4250 
z
M 2034 4750 
Q 2819 4750 3233 4129 
Q 3647 3509 3647 2328 
Q 3647 1150 3233 529 
Q 2819 -91 2034 -91 
Q 1250 -91 836 529 
Q 422 1150 422 2328 
Q 422 3509 836 4129 
Q 1250 4750 2034 4750 
z
" transform="scale(0.015625)"/>
        <path id="DejaVuSans-2e" d="M 684 794 
L 1344 794 
L 1344 0 
L 684 0 
L 684 794 
z
" transform="scale(0.015625)"/>
        <path id="DejaVuSans-34" d="M 2419 4116 
L 825 1625 
L 2419 1625 
L 2419 4116 
z
M 2253 4666 
L 3047 4666 
L 3047 1625 
L 3713 1625 
L 3713 1100 
L 3047 1100 
L 3047 0 
L 2419 0 
L 2419 1100 
L 313 1100 
L 313 1709 
L 2253 4666 
z
" transform="scale(0.015625)"/>
       </defs>
       <use xlink:href="#DejaVuSans-2212"/>
       <use xlink:href="#DejaVuSans-30" x="83.789062"/>
       <use xlink:href="#DejaVuSans-2e" x="147.412109"/>
       <use xlink:href="#DejaVuSans-34" x="179.199219"/>
      </g>
     </g>
    </g>
    <g id="xtick_2">
     <g id="line2d_4">
      <path d="M 139.025831 240.834461 
L 139.025831 3.6 
" clip-path="url(#p3f38b6ab43)" style="fill: none; stroke: #b0b0b0; stroke-width: 0.5; stroke-linecap: square"/>
     </g>
     <g id="line2d_5">
      <g>
       <use xlink:href="#mbda95eae30" x="139.025831" y="240.834461" style="stroke: #000000; stroke-width: 0.5"/>
      </g>
     </g>
     <g id="line2d_6">
      <g>
       <use xlink:href="#md5f3ee4689" x="139.025831" y="3.6" style="stroke: #000000; stroke-width: 0.5"/>
      </g>
     </g>
     <g id="text_2">
      <!-- −0.2 -->
      <g transform="translate(124.456144 253.452586) scale(0.12 -0.12)">
       <defs>
        <path id="DejaVuSans-32" d="M 1228 531 
L 3431 531 
L 3431 0 
L 469 0 
L 469 531 
Q 828 903 1448 1529 
Q 2069 2156 2228 2338 
Q 2531 2678 2651 2914 
Q 2772 3150 2772 3378 
Q 2772 3750 2511 3984 
Q 2250 4219 1831 4219 
Q 1534 4219 1204 4116 
Q 875 4013 500 3803 
L 500 4441 
Q 881 4594 1212 4672 
Q 1544 4750 1819 4750 
Q 2544 4750 2975 4387 
Q 3406 4025 3406 3419 
Q 3406 3131 3298 2873 
Q 3191 2616 2906 2266 
Q 2828 2175 2409 1742 
Q 1991 1309 1228 531 
z
" transform="scale(0.015625)"/>
       </defs>
       <use xlink:href="#DejaVuSans-2212"/>
       <use xlink:href="#DejaVuSans-30" x="83.789062"/>
       <use xlink:href="#DejaVuSans-2e" x="147.412109"/>
       <use xlink:href="#DejaVuSans-32" x="179.199219"/>
      </g>
     </g>
    </g>
    <g id="xtick_3">
     <g id="line2d_7">
      <path d="M 209.878344 240.834461 
L 209.878344 3.6 
" clip-path="url(#p3f38b6ab43)" style="fill: none; stroke: #b0b0b0; stroke-width: 0.5; stroke-linecap: square"/>
     </g>
     <g id="line2d_8">
      <g>
       <use xlink:href="#mbda95eae30" x="209.878344" y="240.834461" style="stroke: #000000; stroke-width: 0.5"/>
      </g>
     </g>
     <g id="line2d_9">
      <g>
       <use xlink:href="#md5f3ee4689" x="209.878344" y="3.6" style="stroke: #000000; stroke-width: 0.5"/>
      </g>
     </g>
     <g id="text_3">
      <!-- 0.0 -->
      <g transform="translate(200.336469 253.452586) scale(0.12 -0.12)">
       <use xlink:href="#DejaVuSans-30"/>
       <use xlink:href="#DejaVuSans-2e" x="63.623047"/>
       <use xlink:href="#DejaVuSans-30" x="95.410156"/>
      </g>
     </g>
    </g>
    <g id="xtick_4">
     <g id="line2d_10">
      <path d="M 280.730857 240.834461 
L 280.730857 3.6 
" clip-path="url(#p3f38b6ab43)" style="fill: none; stroke: #b0b0b0; stroke-width: 0.5; stroke-linecap: square"/>
     </g>
     <g id="line2d_11">
      <g>
       <use xlink:href="#mbda95eae30" x="280.730857" y="240.834461" style="stroke: #000000; stroke-width: 0.5"/>
      </g>
     </g>
     <g id="line2d_12">
      <g>
       <use xlink:href="#md5f3ee4689" x="280.730857" y="3.6" style="stroke: #000000; stroke-width: 0.5"/>
      </g>
     </g>
     <g id="text_4">
      <!-- 0.2 -->
      <g transform="translate(271.188982 253.452586) scale(0.12 -0.12)">
       <use xlink:href="#DejaVuSans-30"/>
       <use xlink:href="#DejaVuSans-2e" x="63.623047"/>
       <use xlink:href="#DejaVuSans-32" x="95.410156"/>
      </g>
     </g>
    </g>
    <g id="xtick_5">
     <g id="line2d_13">
      <path d="M 351.58337 240.834461 
L 351.58337 3.6 
" clip-path="url(#p3f38b6ab43)" style="fill: none; stroke: #b0b0b0; stroke-width: 0.5; stroke-linecap: square"/>
     </g>
     <g id="line2d_14">
      <g>
       <use xlink:href="#mbda95eae30" x="351.58337" y="240.834461" style="stroke: #000000; stroke-width: 0.5"/>
      </g>
     </g>
     <g id="line2d_15">
      <g>
       <use xlink:href="#md5f3ee4689" x="351.58337" y="3.6" style="stroke: #000000; stroke-width: 0.5"/>
      </g>
     </g>
     <g id="text_5">
      <!-- 0.4 -->
      <g transform="translate(342.041495 253.452586) scale(0.12 -0.12)">
       <use xlink:href="#DejaVuSans-30"/>
       <use xlink:href="#DejaVuSans-2e" x="63.623047"/>
       <use xlink:href="#DejaVuSans-34" x="95.410156"/>
      </g>
     </g>
    </g>
    <g id="xtick_6">
     <g id="line2d_16">
      <defs>
       <path id="md741374959" d="M 0 0 
L 0 -1.5 
" style="stroke: #000000; stroke-width: 0.5"/>
      </defs>
      <g>
       <use xlink:href="#md741374959" x="85.886447" y="240.834461" style="stroke: #000000; stroke-width: 0.5"/>
      </g>
     </g>
     <g id="line2d_17">
      <defs>
       <path id="m666ac13af1" d="M 0 0 
L 0 1.5 
" style="stroke: #000000; stroke-width: 0.5"/>
      </defs>
      <g>
       <use xlink:href="#m666ac13af1" x="85.886447" y="3.6" style="stroke: #000000; stroke-width: 0.5"/>
      </g>
     </g>
    </g>
    <g id="xtick_7">
     <g id="line2d_18">
      <g>
       <use xlink:href="#md741374959" x="103.599575" y="240.834461" style="stroke: #000000; stroke-width: 0.5"/>
      </g>
     </g>
     <g id="line2d_19">
      <g>
       <use xlink:href="#m666ac13af1" x="103.599575" y="3.6" style="stroke: #000000; stroke-width: 0.5"/>
      </g>
     </g>
    </g>
    <g id="xtick_8">
     <g id="line2d_20">
      <g>
       <use xlink:href="#md741374959" x="121.312703" y="240.834461" style="stroke: #000000; stroke-width: 0.5"/>
      </g>
     </g>
     <g id="line2d_21">
      <g>
       <use xlink:href="#m666ac13af1" x="121.312703" y="3.6" style="stroke: #000000; stroke-width: 0.5"/>
      </g>
     </g>
    </g>
    <g id="xtick_9">
     <g id="line2d_22">
      <g>
       <use xlink:href="#md741374959" x="156.73896" y="240.834461" style="stroke: #000000; stroke-width: 0.5"/>
      </g>
     </g>
     <g id="line2d_23">
      <g>
       <use xlink:href="#m666ac13af1" x="156.73896" y="3.6" style="stroke: #000000; stroke-width: 0.5"/>
      </g>
     </g>
    </g>
    <g id="xtick_10">
     <g id="line2d_24">
      <g>
       <use xlink:href="#md741374959" x="174.452088" y="240.834461" style="stroke: #000000; stroke-width: 0.5"/>
      </g>
     </g>
     <g id="line2d_25">
      <g>
       <use xlink:href="#m666ac13af1" x="174.452088" y="3.6" style="stroke: #000000; stroke-width: 0.5"/>
      </g>
     </g>
    </g>
    <g id="xtick_11">
     <g id="line2d_26">
      <g>
       <use xlink:href="#md741374959" x="192.165216" y="240.834461" style="stroke: #000000; stroke-width: 0.5"/>
      </g>
     </g>
     <g id="line2d_27">
      <g>
       <use xlink:href="#m666ac13af1" x="192.165216" y="3.6" style="stroke: #000000; stroke-width: 0.5"/>
      </g>
     </g>
    </g>
    <g id="xtick_12">
     <g id="line2d_28">
      <g>
       <use xlink:href="#md741374959" x="227.591473" y="240.834461" style="stroke: #000000; stroke-width: 0.5"/>
      </g>
     </g>
     <g id="line2d_29">
      <g>
       <use xlink:href="#m666ac13af1" x="227.591473" y="3.6" style="stroke: #000000; stroke-width: 0.5"/>
      </g>
     </g>
    </g>
    <g id="xtick_13">
     <g id="line2d_30">
      <g>
       <use xlink:href="#md741374959" x="245.304601" y="240.834461" style="stroke: #000000; stroke-width: 0.5"/>
      </g>
     </g>
     <g id="line2d_31">
      <g>
       <use xlink:href="#m666ac13af1" x="245.304601" y="3.6" style="stroke: #000000; stroke-width: 0.5"/>
      </g>
     </g>
    </g>
    <g id="xtick_14">
     <g id="line2d_32">
      <g>
       <use xlink:href="#md741374959" x="263.017729" y="240.834461" style="stroke: #000000; stroke-width: 0.5"/>
      </g>
     </g>
     <g id="line2d_33">
      <g>
       <use xlink:href="#m666ac13af1" x="263.017729" y="3.6" style="stroke: #000000; stroke-width: 0.5"/>
      </g>
     </g>
    </g>
    <g id="xtick_15">
     <g id="line2d_34">
      <g>
       <use xlink:href="#md741374959" x="298.443986" y="240.834461" style="stroke: #000000; stroke-width: 0.5"/>
      </g>
     </g>
     <g id="line2d_35">
      <g>
       <use xlink:href="#m666ac13af1" x="298.443986" y="3.6" style="stroke: #000000; stroke-width: 0.5"/>
      </g>
     </g>
    </g>
    <g id="xtick_16">
     <g id="line2d_36">
      <g>
       <use xlink:href="#md741374959" x="316.157114" y="240.834461" style="stroke: #000000; stroke-width: 0.5"/>
      </g>
     </g>
     <g id="line2d_37">
      <g>
       <use xlink:href="#m666ac13af1" x="316.157114" y="3.6" style="stroke: #000000; stroke-width: 0.5"/>
      </g>
     </g>
    </g>
    <g id="xtick_17">
     <g id="line2d_38">
      <g>
       <use xlink:href="#md741374959" x="333.870242" y="240.834461" style="stroke: #000000; stroke-width: 0.5"/>
      </g>
     </g>
     <g id="line2d_39">
      <g>
       <use xlink:href="#m666ac13af1" x="333.870242" y="3.6" style="stroke: #000000; stroke-width: 0.5"/>
      </g>
     </g>
    </g>
    <g id="xtick_18">
     <g id="line2d_40">
      <g>
       <use xlink:href="#md741374959" x="369.296499" y="240.834461" style="stroke: #000000; stroke-width: 0.5"/>
      </g>
     </g>
     <g id="line2d_41">
      <g>
       <use xlink:href="#m666ac13af1" x="369.296499" y="3.6" style="stroke: #000000; stroke-width: 0.5"/>
      </g>
     </g>
    </g>
    <g id="text_6">
     <!-- y -->
     <g transform="translate(215.701875 269.066336) scale(0.12 -0.12)">
      <defs>
       <path id="DejaVuSans-79" d="M 2059 -325 
Q 1816 -950 1584 -1140 
Q 1353 -1331 966 -1331 
L 506 -1331 
L 506 -850 
L 844 -850 
Q 1081 -850 1212 -737 
Q 1344 -625 1503 -206 
L 1606 56 
L 191 3500 
L 800 3500 
L 1894 763 
L 2988 3500 
L 3597 3500 
L 2059 -325 
z
" transform="scale(0.015625)"/>
      </defs>
      <use xlink:href="#DejaVuSans-79"/>
     </g>
    </g>
   </g>
   <g id="matplotlib.axis_2">
    <g id="ytick_1">
     <g id="line2d_42">
      <path d="M 51.853125 223.2698 
L 386.653125 223.2698 
" clip-path="url(#p3f38b6ab43)" style="fill: none; stroke: #b0b0b0; stroke-width: 0.5; stroke-linecap: square"/>
     </g>
     <g id="line2d_43">
      <defs>
       <path id="m26339b2b67" d="M 0 0 
L 3 0 
" style="stroke: #000000; stroke-width: 0.5"/>
      </defs>
      <g>
       <use xlink:href="#m26339b2b67" x="51.853125" y="223.2698" style="stroke: #000000; stroke-width: 0.5"/>
      </g>
     </g>
     <g id="line2d_44">
      <defs>
       <path id="mb3cf4c0d5e" d="M 0 0 
L -3 0 
" style="stroke: #000000; stroke-width: 0.5"/>
      </defs>
      <g>
       <use xlink:href="#mb3cf4c0d5e" x="386.653125" y="223.2698" style="stroke: #000000; stroke-width: 0.5"/>
      </g>
     </g>
     <g id="text_7">
      <!-- −0.3 -->
      <g transform="translate(19.21375 227.828863) scale(0.12 -0.12)">
       <defs>
        <path id="DejaVuSans-33" d="M 2597 2516 
Q 3050 2419 3304 2112 
Q 3559 1806 3559 1356 
Q 3559 666 3084 287 
Q 2609 -91 1734 -91 
Q 1441 -91 1130 -33 
Q 819 25 488 141 
L 488 750 
Q 750 597 1062 519 
Q 1375 441 1716 441 
Q 2309 441 2620 675 
Q 2931 909 2931 1356 
Q 2931 1769 2642 2001 
Q 2353 2234 1838 2234 
L 1294 2234 
L 1294 2753 
L 1863 2753 
Q 2328 2753 2575 2939 
Q 2822 3125 2822 3475 
Q 2822 3834 2567 4026 
Q 2313 4219 1838 4219 
Q 1578 4219 1281 4162 
Q 984 4106 628 3988 
L 628 4550 
Q 988 4650 1302 4700 
Q 1616 4750 1894 4750 
Q 2613 4750 3031 4423 
Q 3450 4097 3450 3541 
Q 3450 3153 3228 2886 
Q 3006 2619 2597 2516 
z
" transform="scale(0.015625)"/>
       </defs>
       <use xlink:href="#DejaVuSans-2212"/>
       <use xlink:href="#DejaVuSans-30" x="83.789062"/>
       <use xlink:href="#DejaVuSans-2e" x="147.412109"/>
       <use xlink:href="#DejaVuSans-33" x="179.199219"/>
      </g>
     </g>
    </g>
    <g id="ytick_2">
     <g id="line2d_45">
      <path d="M 51.853125 187.843544 
L 386.653125 187.843544 
" clip-path="url(#p3f38b6ab43)" style="fill: none; stroke: #b0b0b0; stroke-width: 0.5; stroke-linecap: square"/>
     </g>
     <g id="line2d_46">
      <g>
       <use xlink:href="#m26339b2b67" x="51.853125" y="187.843544" style="stroke: #000000; stroke-width: 0.5"/>
      </g>
     </g>
     <g id="line2d_47">
      <g>
       <use xlink:href="#mb3cf4c0d5e" x="386.653125" y="187.843544" style="stroke: #000000; stroke-width: 0.5"/>
      </g>
     </g>
     <g id="text_8">
      <!-- −0.2 -->
      <g transform="translate(19.21375 192.402606) scale(0.12 -0.12)">
       <use xlink:href="#DejaVuSans-2212"/>
       <use xlink:href="#DejaVuSans-30" x="83.789062"/>
       <use xlink:href="#DejaVuSans-2e" x="147.412109"/>
       <use xlink:href="#DejaVuSans-32" x="179.199219"/>
      </g>
     </g>
    </g>
    <g id="ytick_3">
     <g id="line2d_48">
      <path d="M 51.853125 152.417287 
L 386.653125 152.417287 
" clip-path="url(#p3f38b6ab43)" style="fill: none; stroke: #b0b0b0; stroke-width: 0.5; stroke-linecap: square"/>
     </g>
     <g id="line2d_49">
      <g>
       <use xlink:href="#m26339b2b67" x="51.853125" y="152.417287" style="stroke: #000000; stroke-width: 0.5"/>
      </g>
     </g>
     <g id="line2d_50">
      <g>
       <use xlink:href="#mb3cf4c0d5e" x="386.653125" y="152.417287" style="stroke: #000000; stroke-width: 0.5"/>
      </g>
     </g>
     <g id="text_9">
      <!-- −0.1 -->
      <g transform="translate(19.21375 156.97635) scale(0.12 -0.12)">
       <defs>
        <path id="DejaVuSans-31" d="M 794 531 
L 1825 531 
L 1825 4091 
L 703 3866 
L 703 4441 
L 1819 4666 
L 2450 4666 
L 2450 531 
L 3481 531 
L 3481 0 
L 794 0 
L 794 531 
z
" transform="scale(0.015625)"/>
       </defs>
       <use xlink:href="#DejaVuSans-2212"/>
       <use xlink:href="#DejaVuSans-30" x="83.789062"/>
       <use xlink:href="#DejaVuSans-2e" x="147.412109"/>
       <use xlink:href="#DejaVuSans-31" x="179.199219"/>
      </g>
     </g>
    </g>
    <g id="ytick_4">
     <g id="line2d_51">
      <path d="M 51.853125 116.991031 
L 386.653125 116.991031 
" clip-path="url(#p3f38b6ab43)" style="fill: none; stroke: #b0b0b0; stroke-width: 0.5; stroke-linecap: square"/>
     </g>
     <g id="line2d_52">
      <g>
       <use xlink:href="#m26339b2b67" x="51.853125" y="116.991031" style="stroke: #000000; stroke-width: 0.5"/>
      </g>
     </g>
     <g id="line2d_53">
      <g>
       <use xlink:href="#mb3cf4c0d5e" x="386.653125" y="116.991031" style="stroke: #000000; stroke-width: 0.5"/>
      </g>
     </g>
     <g id="text_10">
      <!-- 0.0 -->
      <g transform="translate(29.269375 121.550093) scale(0.12 -0.12)">
       <use xlink:href="#DejaVuSans-30"/>
       <use xlink:href="#DejaVuSans-2e" x="63.623047"/>
       <use xlink:href="#DejaVuSans-30" x="95.410156"/>
      </g>
     </g>
    </g>
    <g id="ytick_5">
     <g id="line2d_54">
      <path d="M 51.853125 81.564774 
L 386.653125 81.564774 
" clip-path="url(#p3f38b6ab43)" style="fill: none; stroke: #b0b0b0; stroke-width: 0.5; stroke-linecap: square"/>
     </g>
     <g id="line2d_55">
      <g>
       <use xlink:href="#m26339b2b67" x="51.853125" y="81.564774" style="stroke: #000000; stroke-width: 0.5"/>
      </g>
     </g>
     <g id="line2d_56">
      <g>
       <use xlink:href="#mb3cf4c0d5e" x="386.653125" y="81.564774" style="stroke: #000000; stroke-width: 0.5"/>
      </g>
     </g>
     <g id="text_11">
      <!-- 0.1 -->
      <g transform="translate(29.269375 86.123837) scale(0.12 -0.12)">
       <use xlink:href="#DejaVuSans-30"/>
       <use xlink:href="#DejaVuSans-2e" x="63.623047"/>
       <use xlink:href="#DejaVuSans-31" x="95.410156"/>
      </g>
     </g>
    </g>
    <g id="ytick_6">
     <g id="line2d_57">
      <path d="M 51.853125 46.138518 
L 386.653125 46.138518 
" clip-path="url(#p3f38b6ab43)" style="fill: none; stroke: #b0b0b0; stroke-width: 0.5; stroke-linecap: square"/>
     </g>
     <g id="line2d_58">
      <g>
       <use xlink:href="#m26339b2b67" x="51.853125" y="46.138518" style="stroke: #000000; stroke-width: 0.5"/>
      </g>
     </g>
     <g id="line2d_59">
      <g>
       <use xlink:href="#mb3cf4c0d5e" x="386.653125" y="46.138518" style="stroke: #000000; stroke-width: 0.5"/>
      </g>
     </g>
     <g id="text_12">
      <!-- 0.2 -->
      <g transform="translate(29.269375 50.69758) scale(0.12 -0.12)">
       <use xlink:href="#DejaVuSans-30"/>
       <use xlink:href="#DejaVuSans-2e" x="63.623047"/>
       <use xlink:href="#DejaVuSans-32" x="95.410156"/>
      </g>
     </g>
    </g>
    <g id="ytick_7">
     <g id="line2d_60">
      <path d="M 51.853125 10.712261 
L 386.653125 10.712261 
" clip-path="url(#p3f38b6ab43)" style="fill: none; stroke: #b0b0b0; stroke-width: 0.5; stroke-linecap: square"/>
     </g>
     <g id="line2d_61">
      <g>
       <use xlink:href="#m26339b2b67" x="51.853125" y="10.712261" style="stroke: #000000; stroke-width: 0.5"/>
      </g>
     </g>
     <g id="line2d_62">
      <g>
       <use xlink:href="#mb3cf4c0d5e" x="386.653125" y="10.712261" style="stroke: #000000; stroke-width: 0.5"/>
      </g>
     </g>
     <g id="text_13">
      <!-- 0.3 -->
      <g transform="translate(29.269375 15.271324) scale(0.12 -0.12)">
       <use xlink:href="#DejaVuSans-30"/>
       <use xlink:href="#DejaVuSans-2e" x="63.623047"/>
       <use xlink:href="#DejaVuSans-33" x="95.410156"/>
      </g>
     </g>
    </g>
    <g id="ytick_8">
     <g id="line2d_63">
      <defs>
       <path id="mecad7df268" d="M 0 0 
L 1.5 0 
" style="stroke: #000000; stroke-width: 0.5"/>
      </defs>
      <g>
       <use xlink:href="#mecad7df268" x="51.853125" y="237.440303" style="stroke: #000000; stroke-width: 0.5"/>
      </g>
     </g>
     <g id="line2d_64">
      <defs>
       <path id="m050f574b6f" d="M 0 0 
L -1.5 0 
" style="stroke: #000000; stroke-width: 0.5"/>
      </defs>
      <g>
       <use xlink:href="#m050f574b6f" x="386.653125" y="237.440303" style="stroke: #000000; stroke-width: 0.5"/>
      </g>
     </g>
    </g>
    <g id="ytick_9">
     <g id="line2d_65">
      <g>
       <use xlink:href="#mecad7df268" x="51.853125" y="230.355051" style="stroke: #000000; stroke-width: 0.5"/>
      </g>
     </g>
     <g id="line2d_66">
      <g>
       <use xlink:href="#m050f574b6f" x="386.653125" y="230.355051" style="stroke: #000000; stroke-width: 0.5"/>
      </g>
     </g>
    </g>
    <g id="ytick_10">
     <g id="line2d_67">
      <g>
       <use xlink:href="#mecad7df268" x="51.853125" y="216.184549" style="stroke: #000000; stroke-width: 0.5"/>
      </g>
     </g>
     <g id="line2d_68">
      <g>
       <use xlink:href="#m050f574b6f" x="386.653125" y="216.184549" style="stroke: #000000; stroke-width: 0.5"/>
      </g>
     </g>
    </g>
    <g id="ytick_11">
     <g id="line2d_69">
      <g>
       <use xlink:href="#mecad7df268" x="51.853125" y="209.099298" style="stroke: #000000; stroke-width: 0.5"/>
      </g>
     </g>
     <g id="line2d_70">
      <g>
       <use xlink:href="#m050f574b6f" x="386.653125" y="209.099298" style="stroke: #000000; stroke-width: 0.5"/>
      </g>
     </g>
    </g>
    <g id="ytick_12">
     <g id="line2d_71">
      <g>
       <use xlink:href="#mecad7df268" x="51.853125" y="202.014046" style="stroke: #000000; stroke-width: 0.5"/>
      </g>
     </g>
     <g id="line2d_72">
      <g>
       <use xlink:href="#m050f574b6f" x="386.653125" y="202.014046" style="stroke: #000000; stroke-width: 0.5"/>
      </g>
     </g>
    </g>
    <g id="ytick_13">
     <g id="line2d_73">
      <g>
       <use xlink:href="#mecad7df268" x="51.853125" y="194.928795" style="stroke: #000000; stroke-width: 0.5"/>
      </g>
     </g>
     <g id="line2d_74">
      <g>
       <use xlink:href="#m050f574b6f" x="386.653125" y="194.928795" style="stroke: #000000; stroke-width: 0.5"/>
      </g>
     </g>
    </g>
    <g id="ytick_14">
     <g id="line2d_75">
      <g>
       <use xlink:href="#mecad7df268" x="51.853125" y="180.758292" style="stroke: #000000; stroke-width: 0.5"/>
      </g>
     </g>
     <g id="line2d_76">
      <g>
       <use xlink:href="#m050f574b6f" x="386.653125" y="180.758292" style="stroke: #000000; stroke-width: 0.5"/>
      </g>
     </g>
    </g>
    <g id="ytick_15">
     <g id="line2d_77">
      <g>
       <use xlink:href="#mecad7df268" x="51.853125" y="173.673041" style="stroke: #000000; stroke-width: 0.5"/>
      </g>
     </g>
     <g id="line2d_78">
      <g>
       <use xlink:href="#m050f574b6f" x="386.653125" y="173.673041" style="stroke: #000000; stroke-width: 0.5"/>
      </g>
     </g>
    </g>
    <g id="ytick_16">
     <g id="line2d_79">
      <g>
       <use xlink:href="#mecad7df268" x="51.853125" y="166.58779" style="stroke: #000000; stroke-width: 0.5"/>
      </g>
     </g>
     <g id="line2d_80">
      <g>
       <use xlink:href="#m050f574b6f" x="386.653125" y="166.58779" style="stroke: #000000; stroke-width: 0.5"/>
      </g>
     </g>
    </g>
    <g id="ytick_17">
     <g id="line2d_81">
      <g>
       <use xlink:href="#mecad7df268" x="51.853125" y="159.502538" style="stroke: #000000; stroke-width: 0.5"/>
      </g>
     </g>
     <g id="line2d_82">
      <g>
       <use xlink:href="#m050f574b6f" x="386.653125" y="159.502538" style="stroke: #000000; stroke-width: 0.5"/>
      </g>
     </g>
    </g>
    <g id="ytick_18">
     <g id="line2d_83">
      <g>
       <use xlink:href="#mecad7df268" x="51.853125" y="145.332036" style="stroke: #000000; stroke-width: 0.5"/>
      </g>
     </g>
     <g id="line2d_84">
      <g>
       <use xlink:href="#m050f574b6f" x="386.653125" y="145.332036" style="stroke: #000000; stroke-width: 0.5"/>
      </g>
     </g>
    </g>
    <g id="ytick_19">
     <g id="line2d_85">
      <g>
       <use xlink:href="#mecad7df268" x="51.853125" y="138.246784" style="stroke: #000000; stroke-width: 0.5"/>
      </g>
     </g>
     <g id="line2d_86">
      <g>
       <use xlink:href="#m050f574b6f" x="386.653125" y="138.246784" style="stroke: #000000; stroke-width: 0.5"/>
      </g>
     </g>
    </g>
    <g id="ytick_20">
     <g id="line2d_87">
      <g>
       <use xlink:href="#mecad7df268" x="51.853125" y="131.161533" style="stroke: #000000; stroke-width: 0.5"/>
      </g>
     </g>
     <g id="line2d_88">
      <g>
       <use xlink:href="#m050f574b6f" x="386.653125" y="131.161533" style="stroke: #000000; stroke-width: 0.5"/>
      </g>
     </g>
    </g>
    <g id="ytick_21">
     <g id="line2d_89">
      <g>
       <use xlink:href="#mecad7df268" x="51.853125" y="124.076282" style="stroke: #000000; stroke-width: 0.5"/>
      </g>
     </g>
     <g id="line2d_90">
      <g>
       <use xlink:href="#m050f574b6f" x="386.653125" y="124.076282" style="stroke: #000000; stroke-width: 0.5"/>
      </g>
     </g>
    </g>
    <g id="ytick_22">
     <g id="line2d_91">
      <g>
       <use xlink:href="#mecad7df268" x="51.853125" y="109.905779" style="stroke: #000000; stroke-width: 0.5"/>
      </g>
     </g>
     <g id="line2d_92">
      <g>
       <use xlink:href="#m050f574b6f" x="386.653125" y="109.905779" style="stroke: #000000; stroke-width: 0.5"/>
      </g>
     </g>
    </g>
    <g id="ytick_23">
     <g id="line2d_93">
      <g>
       <use xlink:href="#mecad7df268" x="51.853125" y="102.820528" style="stroke: #000000; stroke-width: 0.5"/>
      </g>
     </g>
     <g id="line2d_94">
      <g>
       <use xlink:href="#m050f574b6f" x="386.653125" y="102.820528" style="stroke: #000000; stroke-width: 0.5"/>
      </g>
     </g>
    </g>
    <g id="ytick_24">
     <g id="line2d_95">
      <g>
       <use xlink:href="#mecad7df268" x="51.853125" y="95.735277" style="stroke: #000000; stroke-width: 0.5"/>
      </g>
     </g>
     <g id="line2d_96">
      <g>
       <use xlink:href="#m050f574b6f" x="386.653125" y="95.735277" style="stroke: #000000; stroke-width: 0.5"/>
      </g>
     </g>
    </g>
    <g id="ytick_25">
     <g id="line2d_97">
      <g>
       <use xlink:href="#mecad7df268" x="51.853125" y="88.650025" style="stroke: #000000; stroke-width: 0.5"/>
      </g>
     </g>
     <g id="line2d_98">
      <g>
       <use xlink:href="#m050f574b6f" x="386.653125" y="88.650025" style="stroke: #000000; stroke-width: 0.5"/>
      </g>
     </g>
    </g>
    <g id="ytick_26">
     <g id="line2d_99">
      <g>
       <use xlink:href="#mecad7df268" x="51.853125" y="74.479523" style="stroke: #000000; stroke-width: 0.5"/>
      </g>
     </g>
     <g id="line2d_100">
      <g>
       <use xlink:href="#m050f574b6f" x="386.653125" y="74.479523" style="stroke: #000000; stroke-width: 0.5"/>
      </g>
     </g>
    </g>
    <g id="ytick_27">
     <g id="line2d_101">
      <g>
       <use xlink:href="#mecad7df268" x="51.853125" y="67.394271" style="stroke: #000000; stroke-width: 0.5"/>
      </g>
     </g>
     <g id="line2d_102">
      <g>
       <use xlink:href="#m050f574b6f" x="386.653125" y="67.394271" style="stroke: #000000; stroke-width: 0.5"/>
      </g>
     </g>
    </g>
    <g id="ytick_28">
     <g id="line2d_103">
      <g>
       <use xlink:href="#mecad7df268" x="51.853125" y="60.30902" style="stroke: #000000; stroke-width: 0.5"/>
      </g>
     </g>
     <g id="line2d_104">
      <g>
       <use xlink:href="#m050f574b6f" x="386.653125" y="60.30902" style="stroke: #000000; stroke-width: 0.5"/>
      </g>
     </g>
    </g>
    <g id="ytick_29">
     <g id="line2d_105">
      <g>
       <use xlink:href="#mecad7df268" x="51.853125" y="53.223769" style="stroke: #000000; stroke-width: 0.5"/>
      </g>
     </g>
     <g id="line2d_106">
      <g>
       <use xlink:href="#m050f574b6f" x="386.653125" y="53.223769" style="stroke: #000000; stroke-width: 0.5"/>
      </g>
     </g>
    </g>
    <g id="ytick_30">
     <g id="line2d_107">
      <g>
       <use xlink:href="#mecad7df268" x="51.853125" y="39.053266" style="stroke: #000000; stroke-width: 0.5"/>
      </g>
     </g>
     <g id="line2d_108">
      <g>
       <use xlink:href="#m050f574b6f" x="386.653125" y="39.053266" style="stroke: #000000; stroke-width: 0.5"/>
      </g>
     </g>
    </g>
    <g id="ytick_31">
     <g id="line2d_109">
      <g>
       <use xlink:href="#mecad7df268" x="51.853125" y="31.968015" style="stroke: #000000; stroke-width: 0.5"/>
      </g>
     </g>
     <g id="line2d_110">
      <g>
       <use xlink:href="#m050f574b6f" x="386.653125" y="31.968015" style="stroke: #000000; stroke-width: 0.5"/>
      </g>
     </g>
    </g>
    <g id="ytick_32">
     <g id="line2d_111">
      <g>
       <use xlink:href="#mecad7df268" x="51.853125" y="24.882764" style="stroke: #000000; stroke-width: 0.5"/>
      </g>
     </g>
     <g id="line2d_112">
      <g>
       <use xlink:href="#m050f574b6f" x="386.653125" y="24.882764" style="stroke: #000000; stroke-width: 0.5"/>
      </g>
     </g>
    </g>
    <g id="ytick_33">
     <g id="line2d_113">
      <g>
       <use xlink:href="#mecad7df268" x="51.853125" y="17.797512" style="stroke: #000000; stroke-width: 0.5"/>
      </g>
     </g>
     <g id="line2d_114">
      <g>
       <use xlink:href="#m050f574b6f" x="386.653125" y="17.797512" style="stroke: #000000; stroke-width: 0.5"/>
      </g>
     </g>
    </g>
    <g id="ytick_34">
     <g id="line2d_115">
      <g>
       <use xlink:href="#mecad7df268" x="51.853125" y="3.62701" style="stroke: #000000; stroke-width: 0.5"/>
      </g>
     </g>
     <g id="line2d_116">
      <g>
       <use xlink:href="#m050f574b6f" x="386.653125" y="3.62701" style="stroke: #000000; stroke-width: 0.5"/>
      </g>
     </g>
    </g>
    <g id="text_14">
     <!-- x -->
     <g transform="translate(12.718125 125.768481) rotate(-90) scale(0.12 -0.12)">
      <defs>
       <path id="DejaVuSans-78" d="M 3513 3500 
L 2247 1797 
L 3578 0 
L 2900 0 
L 1881 1375 
L 863 0 
L 184 0 
L 1544 1831 
L 300 3500 
L 978 3500 
L 1906 2253 
L 2834 3500 
L 3513 3500 
z
" transform="scale(0.015625)"/>
      </defs>
      <use xlink:href="#DejaVuSans-78"/>
     </g>
    </g>
   </g>
   <g id="line2d_117">
    <path d="M 209.878344 116.991031 
L 169.551923 117.891997 
" clip-path="url(#p3f38b6ab43)" style="fill: none; stroke: #000000; stroke-linecap: square"/>
   </g>
   <g id="line2d_118">
    <path d="M 169.551923 99.895459 
L 171.853269 100.04321 
L 174.116828 100.484038 
L 176.30543 101.210704 
L 178.38314 102.211277 
L 180.315842 103.469326 
L 182.071801 104.964196 
L 183.622183 106.671339 
L 184.941533 108.562725 
L 186.008185 110.607298 
L 186.804626 112.771486 
L 187.317778 115.019752 
L 187.539215 117.31518 
L 187.465302 119.620079 
L 187.097251 121.896604 
L 186.441106 124.107373 
L 185.507642 126.216085 
L 184.312185 128.188117 
L 182.874364 129.991086 
L 181.21779 131.595389 
L 179.369663 132.974682 
L 177.360328 134.106318 
L 175.22278 134.971715 
L 172.992117 135.556664 
L 170.704965 135.85156 
L 168.398881 135.85156 
L 166.11173 135.556664 
L 163.881066 134.971715 
L 161.743518 134.106318 
L 159.734183 132.974682 
L 157.886056 131.595389 
L 156.229482 129.991086 
L 154.791662 128.188117 
L 153.596205 126.216085 
L 152.66274 124.107373 
L 152.006596 121.896604 
L 151.638545 119.620079 
L 151.564631 117.31518 
L 151.786068 115.019752 
L 152.29922 112.771486 
L 153.095661 110.607298 
L 154.162314 108.562725 
L 155.481663 106.671339 
L 157.032045 104.964196 
L 158.788004 103.469326 
L 160.720706 102.211277 
L 162.798416 101.210704 
L 164.987019 100.484038 
L 167.250577 100.04321 
L 169.551923 99.895459 
" clip-path="url(#p3f38b6ab43)" style="fill: none; stroke: #0000ff; stroke-linecap: square"/>
   </g>
   <g id="line2d_119">
    <path d="M 209.878344 116.991031 
L 240.339901 151.467106 
" clip-path="url(#p3f38b6ab43)" style="fill: none; stroke: #000000; stroke-linecap: square"/>
   </g>
   <g id="line2d_120">
    <path d="M 240.339901 133.470568 
L 242.641247 133.618319 
L 244.904805 134.059147 
L 247.093408 134.785813 
L 249.171118 135.786385 
L 251.10382 137.044435 
L 252.859779 138.539304 
L 254.410161 140.246448 
L 255.72951 142.137834 
L 256.796163 144.182407 
L 257.592604 146.346594 
L 258.105756 148.59486 
L 258.327193 150.890288 
L 258.253279 153.195188 
L 257.885229 155.471712 
L 257.229084 157.682481 
L 256.295619 159.791194 
L 255.100162 161.763225 
L 253.662342 163.566195 
L 252.005768 165.170497 
L 250.157641 166.549791 
L 248.148306 167.681427 
L 246.010758 168.546824 
L 243.780095 169.131773 
L 241.492943 169.426668 
L 239.186859 169.426668 
L 236.899707 169.131773 
L 234.669044 168.546824 
L 232.531496 167.681427 
L 230.522161 166.549791 
L 228.674034 165.170497 
L 227.01746 163.566195 
L 225.57964 161.763225 
L 224.384183 159.791194 
L 223.450718 157.682481 
L 222.794573 155.471712 
L 222.426523 153.195188 
L 222.352609 150.890288 
L 222.574046 148.59486 
L 223.087198 146.346594 
L 223.883639 144.182407 
L 224.950291 142.137834 
L 226.269641 140.246448 
L 227.820023 138.539304 
L 229.575982 137.044435 
L 231.508684 135.786385 
L 233.586394 134.785813 
L 235.774997 134.059147 
L 238.038555 133.618319 
L 240.339901 133.470568 
" clip-path="url(#p3f38b6ab43)" style="fill: none; stroke: #ff0000; stroke-linecap: square"/>
   </g>
   <g id="line2d_121">
    <path d="M 209.878344 116.991031 
L 120.106098 106.464241 
" clip-path="url(#p3f38b6ab43)" style="fill: none; stroke: #000000; stroke-linecap: square"/>
   </g>
   <g id="line2d_122">
    <path d="M 120.106098 88.467703 
L 122.407444 88.615454 
L 124.671003 89.056282 
L 126.859605 89.782948 
L 128.937315 90.783521 
L 130.870017 92.04157 
L 132.625976 93.53644 
L 134.176358 95.243583 
L 135.495708 97.13497 
L 136.56236 99.179542 
L 137.358801 101.34373 
L 137.871953 103.591996 
L 138.09339 105.887424 
L 138.019477 108.192323 
L 137.651426 110.468848 
L 136.995281 112.679617 
L 136.061817 114.788329 
L 134.86636 116.760361 
L 133.42854 118.56333 
L 131.771965 120.167633 
L 129.923838 121.546926 
L 127.914504 122.678562 
L 125.776955 123.543959 
L 123.546292 124.128908 
L 121.25914 124.423804 
L 118.953056 124.423804 
L 116.665905 124.128908 
L 114.435241 123.543959 
L 112.297693 122.678562 
L 110.288358 121.546926 
L 108.440231 120.167633 
L 106.783657 118.56333 
L 105.345837 116.760361 
L 104.15038 114.788329 
L 103.216915 112.679617 
L 102.560771 110.468848 
L 102.19272 108.192323 
L 102.118806 105.887424 
L 102.340243 103.591996 
L 102.853395 101.34373 
L 103.649836 99.179542 
L 104.716489 97.13497 
L 106.035838 95.243583 
L 107.586221 93.53644 
L 109.342179 92.04157 
L 111.274881 90.783521 
L 113.352591 89.782948 
L 115.541194 89.056282 
L 117.804752 88.615454 
L 120.106098 88.467703 
" clip-path="url(#p3f38b6ab43)" style="fill: none; stroke: #ff0000; stroke-linecap: square"/>
   </g>
   <g id="line2d_123">
    <path d="M 209.878344 116.991031 
L 246.498414 58.377912 
" clip-path="url(#p3f38b6ab43)" style="fill: none; stroke: #000000; stroke-linecap: square"/>
   </g>
   <g id="line2d_124">
    <path d="M 246.498414 40.381373 
L 248.799761 40.529125 
L 251.063319 40.969952 
L 253.251921 41.696619 
L 255.329632 42.697191 
L 257.262333 43.955241 
L 259.018292 45.45011 
L 260.568675 47.157253 
L 261.888024 49.04864 
L 262.954676 51.093213 
L 263.751117 53.2574 
L 264.264269 55.505666 
L 264.485706 57.801094 
L 264.411793 60.105994 
L 264.043742 62.382518 
L 263.387597 64.593287 
L 262.454133 66.702 
L 261.258676 68.674031 
L 259.820856 70.477 
L 258.164282 72.081303 
L 256.316154 73.460596 
L 254.30682 74.592232 
L 252.169271 75.45763 
L 249.938608 76.042579 
L 247.651457 76.337474 
L 245.345372 76.337474 
L 243.058221 76.042579 
L 240.827557 75.45763 
L 238.690009 74.592232 
L 236.680675 73.460596 
L 234.832547 72.081303 
L 233.175973 70.477 
L 231.738153 68.674031 
L 230.542696 66.702 
L 229.609231 64.593287 
L 228.953087 62.382518 
L 228.585036 60.105994 
L 228.511122 57.801094 
L 228.73256 55.505666 
L 229.245712 53.2574 
L 230.042153 51.093213 
L 231.108805 49.04864 
L 232.428154 47.157253 
L 233.978537 45.45011 
L 235.734495 43.955241 
L 237.667197 42.697191 
L 239.744907 41.696619 
L 241.93351 40.969952 
L 244.197068 40.529125 
L 246.498414 40.381373 
" clip-path="url(#p3f38b6ab43)" style="fill: none; stroke: #0000ff; stroke-linecap: square"/>
   </g>
   <g id="line2d_125">
    <path d="M 209.878344 116.991031 
L 85.058599 69.30779 
" clip-path="url(#p3f38b6ab43)" style="fill: none; stroke: #000000; stroke-linecap: square"/>
   </g>
   <g id="line2d_126">
    <path d="M 85.058599 51.311252 
L 87.359945 51.459003 
L 89.623503 51.899831 
L 91.812106 52.626497 
L 93.889816 53.62707 
L 95.822518 54.885119 
L 97.578476 56.379989 
L 99.128859 58.087132 
L 100.448208 59.978519 
L 101.514861 62.023091 
L 102.311302 64.187279 
L 102.824454 66.435545 
L 103.045891 68.730973 
L 102.971977 71.035872 
L 102.603926 73.312397 
L 101.947782 75.523166 
L 101.014317 77.631878 
L 99.81886 79.60391 
L 98.38104 81.406879 
L 96.724466 83.011182 
L 94.876339 84.390475 
L 92.867004 85.522111 
L 90.729456 86.387508 
L 88.498792 86.972457 
L 86.211641 87.267353 
L 83.905557 87.267353 
L 81.618405 86.972457 
L 79.387742 86.387508 
L 77.250193 85.522111 
L 75.240859 84.390475 
L 73.392732 83.011182 
L 71.736157 81.406879 
L 70.298337 79.60391 
L 69.10288 77.631878 
L 68.169416 75.523166 
L 67.513271 73.312397 
L 67.14522 71.035872 
L 67.071307 68.730973 
L 67.292744 66.435545 
L 67.805896 64.187279 
L 68.602337 62.023091 
L 69.668989 59.978519 
L 70.988339 58.087132 
L 72.538721 56.379989 
L 74.29468 54.885119 
L 76.227382 53.62707 
L 78.305092 52.626497 
L 80.493694 51.899831 
L 82.757253 51.459003 
L 85.058599 51.311252 
" clip-path="url(#p3f38b6ab43)" style="fill: none; stroke: #ff0000; stroke-linecap: square"/>
   </g>
   <g id="line2d_127">
    <path d="M 209.878344 116.991031 
L 242.998554 194.463314 
" clip-path="url(#p3f38b6ab43)" style="fill: none; stroke: #000000; stroke-linecap: square"/>
   </g>
   <g id="line2d_128">
    <path d="M 242.998554 176.466776 
L 245.2999 176.614527 
L 247.563459 177.055355 
L 249.752061 177.782021 
L 251.829771 178.782593 
L 253.762473 180.040643 
L 255.518432 181.535512 
L 257.068814 183.242656 
L 258.388164 185.134042 
L 259.454816 187.178615 
L 260.251257 189.342802 
L 260.764409 191.591068 
L 260.985846 193.886496 
L 260.911932 196.191396 
L 260.543882 198.46792 
L 259.887737 200.678689 
L 258.954272 202.787402 
L 257.758815 204.759433 
L 256.320995 206.562403 
L 254.664421 208.166705 
L 252.816294 209.545999 
L 250.806959 210.677635 
L 248.669411 211.543032 
L 246.438748 212.127981 
L 244.151596 212.422876 
L 241.845512 212.422876 
L 239.558361 212.127981 
L 237.327697 211.543032 
L 235.190149 210.677635 
L 233.180814 209.545999 
L 231.332687 208.166705 
L 229.676113 206.562403 
L 228.238293 204.759433 
L 227.042836 202.787402 
L 226.109371 200.678689 
L 225.453227 198.46792 
L 225.085176 196.191396 
L 225.011262 193.886496 
L 225.232699 191.591068 
L 225.745851 189.342802 
L 226.542292 187.178615 
L 227.608945 185.134042 
L 228.928294 183.242656 
L 230.478676 181.535512 
L 232.234635 180.040643 
L 234.167337 178.782593 
L 236.245047 177.782021 
L 238.43365 177.055355 
L 240.697208 176.614527 
L 242.998554 176.466776 
" clip-path="url(#p3f38b6ab43)" style="fill: none; stroke: #0000ff; stroke-linecap: square"/>
   </g>
   <g id="line2d_129">
    <path d="M 209.878344 116.991031 
L 353.447651 128.883203 
" clip-path="url(#p3f38b6ab43)" style="fill: none; stroke: #000000; stroke-linecap: square"/>
   </g>
   <g id="line2d_130">
    <path d="M 353.447651 110.886665 
L 355.748997 111.034416 
L 358.012556 111.475244 
L 360.201158 112.20191 
L 362.278868 113.202483 
L 364.21157 114.460532 
L 365.967529 115.955401 
L 367.517911 117.662545 
L 368.837261 119.553931 
L 369.903913 121.598504 
L 370.700354 123.762691 
L 371.213506 126.010957 
L 371.434943 128.306386 
L 371.36103 130.611285 
L 370.992979 132.88781 
L 370.336834 135.098578 
L 369.40337 137.207291 
L 368.207913 139.179322 
L 366.770093 140.982292 
L 365.113518 142.586594 
L 363.265391 143.965888 
L 361.256057 145.097524 
L 359.118508 145.962921 
L 356.887845 146.54787 
L 354.600693 146.842766 
L 352.294609 146.842766 
L 350.007458 146.54787 
L 347.776794 145.962921 
L 345.639246 145.097524 
L 343.629911 143.965888 
L 341.781784 142.586594 
L 340.12521 140.982292 
L 338.68739 139.179322 
L 337.491933 137.207291 
L 336.558468 135.098578 
L 335.902324 132.88781 
L 335.534273 130.611285 
L 335.460359 128.306386 
L 335.681796 126.010957 
L 336.194948 123.762691 
L 336.991389 121.598504 
L 338.058042 119.553931 
L 339.377391 117.662545 
L 340.927774 115.955401 
L 342.683732 114.460532 
L 344.616434 113.202483 
L 346.694144 112.20191 
L 348.882747 111.475244 
L 351.146305 111.034416 
L 353.447651 110.886665 
" clip-path="url(#p3f38b6ab43)" style="fill: none; stroke: #ff0000; stroke-linecap: square"/>
   </g>
   <g id="patch_10">
    <path d="M 51.853125 240.834461 
L 51.853125 3.6 
" style="fill: none; stroke: #000000; stroke-width: 0.5; stroke-linejoin: miter; stroke-linecap: square"/>
   </g>
   <g id="patch_11">
    <path d="M 386.653125 240.834461 
L 386.653125 3.6 
" style="fill: none; stroke: #000000; stroke-width: 0.5; stroke-linejoin: miter; stroke-linecap: square"/>
   </g>
   <g id="patch_12">
    <path d="M 51.853125 240.834461 
L 386.653125 240.834461 
" style="fill: none; stroke: #000000; stroke-width: 0.5; stroke-linejoin: miter; stroke-linecap: square"/>
   </g>
   <g id="patch_13">
    <path d="M 51.853125 3.6 
L 386.653125 3.6 
" style="fill: none; stroke: #000000; stroke-width: 0.5; stroke-linejoin: miter; stroke-linecap: square"/>
   </g>
   <g id="text_15">
    <!-- 0 -->
    <g transform="translate(169.551923 117.891997) scale(0.12 -0.12)">
     <use xlink:href="#DejaVuSans-30"/>
    </g>
   </g>
   <g id="text_16">
    <!-- 1 -->
    <g transform="translate(240.339901 151.467106) scale(0.12 -0.12)">
     <use xlink:href="#DejaVuSans-31"/>
    </g>
   </g>
   <g id="text_17">
    <!-- 2 -->
    <g transform="translate(120.106098 106.464241) scale(0.12 -0.12)">
     <use xlink:href="#DejaVuSans-32"/>
    </g>
   </g>
   <g id="text_18">
    <!-- 3 -->
    <g transform="translate(246.498414 58.377912) scale(0.12 -0.12)">
     <use xlink:href="#DejaVuSans-33"/>
    </g>
   </g>
   <g id="text_19">
    <!-- 4 -->
    <g transform="translate(85.058599 69.30779) scale(0.12 -0.12)">
     <use xlink:href="#DejaVuSans-34"/>
    </g>
   </g>
   <g id="text_20">
    <!-- 5 -->
    <g transform="translate(242.998554 194.463314) scale(0.12 -0.12)">
     <defs>
      <path id="DejaVuSans-35" d="M 691 4666 
L 3169 4666 
L 3169 4134 
L 1269 4134 
L 1269 2991 
Q 1406 3038 1543 3061 
Q 1681 3084 1819 3084 
Q 2600 3084 3056 2656 
Q 3513 2228 3513 1497 
Q 3513 744 3044 326 
Q 2575 -91 1722 -91 
Q 1428 -91 1123 -41 
Q 819 9 494 109 
L 494 744 
Q 775 591 1075 516 
Q 1375 441 1709 441 
Q 2250 441 2565 725 
Q 2881 1009 2881 1497 
Q 2881 1984 2565 2268 
Q 2250 2553 1709 2553 
Q 1456 2553 1204 2497 
Q 953 2441 691 2322 
L 691 4666 
z
" transform="scale(0.015625)"/>
     </defs>
     <use xlink:href="#DejaVuSans-35"/>
    </g>
   </g>
   <g id="text_21">
    <!-- 6 -->
    <g transform="translate(353.447651 128.883203) scale(0.12 -0.12)">
     <defs>
      <path id="DejaVuSans-36" d="M 2113 2584 
Q 1688 2584 1439 2293 
Q 1191 2003 1191 1497 
Q 1191 994 1439 701 
Q 1688 409 2113 409 
Q 2538 409 2786 701 
Q 3034 994 3034 1497 
Q 3034 2003 2786 2293 
Q 2538 2584 2113 2584 
z
M 3366 4563 
L 3366 3988 
Q 3128 4100 2886 4159 
Q 2644 4219 2406 4219 
Q 1781 4219 1451 3797 
Q 1122 3375 1075 2522 
Q 1259 2794 1537 2939 
Q 1816 3084 2150 3084 
Q 2853 3084 3261 2657 
Q 3669 2231 3669 1497 
Q 3669 778 3244 343 
Q 2819 -91 2113 -91 
Q 1303 -91 875 529 
Q 447 1150 447 2328 
Q 447 3434 972 4092 
Q 1497 4750 2381 4750 
Q 2619 4750 2861 4703 
Q 3103 4656 3366 4563 
z
" transform="scale(0.015625)"/>
     </defs>
     <use xlink:href="#DejaVuSans-36"/>
    </g>
   </g>
   <g id="text_22">
    <!-- C.G. -->
    <g transform="translate(208.647147 117.150547) scale(0.12 -0.12)">
     <defs>
      <path id="DejaVuSans-43" d="M 4122 4306 
L 4122 3641 
Q 3803 3938 3442 4084 
Q 3081 4231 2675 4231 
Q 1875 4231 1450 3742 
Q 1025 3253 1025 2328 
Q 1025 1406 1450 917 
Q 1875 428 2675 428 
Q 3081 428 3442 575 
Q 3803 722 4122 1019 
L 4122 359 
Q 3791 134 3420 21 
Q 3050 -91 2638 -91 
Q 1578 -91 968 557 
Q 359 1206 359 2328 
Q 359 3453 968 4101 
Q 1578 4750 2638 4750 
Q 3056 4750 3426 4639 
Q 3797 4528 4122 4306 
z
" transform="scale(0.015625)"/>
      <path id="DejaVuSans-47" d="M 3809 666 
L 3809 1919 
L 2778 1919 
L 2778 2438 
L 4434 2438 
L 4434 434 
Q 4069 175 3628 42 
Q 3188 -91 2688 -91 
Q 1594 -91 976 548 
Q 359 1188 359 2328 
Q 359 3472 976 4111 
Q 1594 4750 2688 4750 
Q 3144 4750 3555 4637 
Q 3966 4525 4313 4306 
L 4313 3634 
Q 3963 3931 3569 4081 
Q 3175 4231 2741 4231 
Q 1884 4231 1454 3753 
Q 1025 3275 1025 2328 
Q 1025 1384 1454 906 
Q 1884 428 2741 428 
Q 3075 428 3337 486 
Q 3600 544 3809 666 
z
" transform="scale(0.015625)"/>
     </defs>
     <use xlink:href="#DejaVuSans-43"/>
     <use xlink:href="#DejaVuSans-2e" x="69.824219"/>
     <use xlink:href="#DejaVuSans-47" x="101.611328"/>
     <use xlink:href="#DejaVuSans-2e" x="179.101562"/>
    </g>
   </g>
   <g id="legend_1">
    <g id="patch_14">
     <path d="M 60.253125 234.834461 
L 152.8575 234.834461 
Q 155.2575 234.834461 155.2575 232.434461 
L 155.2575 180.793211 
Q 155.2575 178.393211 152.8575 178.393211 
L 60.253125 178.393211 
Q 57.853125 178.393211 57.853125 180.793211 
L 57.853125 232.434461 
Q 57.853125 234.834461 60.253125 234.834461 
z
" style="fill: #ffffff; opacity: 0.8; stroke: #cccccc; stroke-linejoin: miter"/>
    </g>
    <g id="line2d_131">
     <path d="M 62.653125 188.111336 
L 74.653125 188.111336 
L 86.653125 188.111336 
" style="fill: none; stroke: #ff0000; stroke-linecap: square"/>
    </g>
    <g id="text_23">
     <!-- CCW -->
     <g transform="translate(96.253125 192.311336) scale(0.12 -0.12)">
      <defs>
       <path id="DejaVuSans-57" d="M 213 4666 
L 850 4666 
L 1831 722 
L 2809 4666 
L 3519 4666 
L 4500 722 
L 5478 4666 
L 6119 4666 
L 4947 0 
L 4153 0 
L 3169 4050 
L 2175 0 
L 1381 0 
L 213 4666 
z
" transform="scale(0.015625)"/>
      </defs>
      <use xlink:href="#DejaVuSans-43"/>
      <use xlink:href="#DejaVuSans-43" x="69.824219"/>
      <use xlink:href="#DejaVuSans-57" x="139.648438"/>
     </g>
    </g>
    <g id="line2d_132">
     <path d="M 62.653125 205.725086 
L 74.653125 205.725086 
L 86.653125 205.725086 
" style="fill: none; stroke: #0000ff; stroke-linecap: square"/>
    </g>
    <g id="text_24">
     <!-- CW -->
     <g transform="translate(96.253125 209.925086) scale(0.12 -0.12)">
      <use xlink:href="#DejaVuSans-43"/>
      <use xlink:href="#DejaVuSans-57" x="69.824219"/>
     </g>
    </g>
    <g id="line2d_133">
     <path d="M 62.653125 223.338836 
L 74.653125 223.338836 
L 86.653125 223.338836 
" style="fill: none; stroke-dasharray: 3.7,1.6; stroke-dashoffset: 0; stroke: #008000"/>
    </g>
    <g id="text_25">
     <!-- Direction -->
     <g transform="translate(96.253125 227.538836) scale(0.12 -0.12)">
      <defs>
       <path id="DejaVuSans-44" d="M 1259 4147 
L 1259 519 
L 2022 519 
Q 2988 519 3436 956 
Q 3884 1394 3884 2338 
Q 3884 3275 3436 3711 
Q 2988 4147 2022 4147 
L 1259 4147 
z
M 628 4666 
L 1925 4666 
Q 3281 4666 3915 4102 
Q 4550 3538 4550 2338 
Q 4550 1131 3912 565 
Q 3275 0 1925 0 
L 628 0 
L 628 4666 
z
" transform="scale(0.015625)"/>
       <path id="DejaVuSans-69" d="M 603 3500 
L 1178 3500 
L 1178 0 
L 603 0 
L 603 3500 
z
M 603 4863 
L 1178 4863 
L 1178 4134 
L 603 4134 
L 603 4863 
z
" transform="scale(0.015625)"/>
       <path id="DejaVuSans-72" d="M 2631 2963 
Q 2534 3019 2420 3045 
Q 2306 3072 2169 3072 
Q 1681 3072 1420 2755 
Q 1159 2438 1159 1844 
L 1159 0 
L 581 0 
L 581 3500 
L 1159 3500 
L 1159 2956 
Q 1341 3275 1631 3429 
Q 1922 3584 2338 3584 
Q 2397 3584 2469 3576 
Q 2541 3569 2628 3553 
L 2631 2963 
z
" transform="scale(0.015625)"/>
       <path id="DejaVuSans-65" d="M 3597 1894 
L 3597 1613 
L 953 1613 
Q 991 1019 1311 708 
Q 1631 397 2203 397 
Q 2534 397 2845 478 
Q 3156 559 3463 722 
L 3463 178 
Q 3153 47 2828 -22 
Q 2503 -91 2169 -91 
Q 1331 -91 842 396 
Q 353 884 353 1716 
Q 353 2575 817 3079 
Q 1281 3584 2069 3584 
Q 2775 3584 3186 3129 
Q 3597 2675 3597 1894 
z
M 3022 2063 
Q 3016 2534 2758 2815 
Q 2500 3097 2075 3097 
Q 1594 3097 1305 2825 
Q 1016 2553 972 2059 
L 3022 2063 
z
" transform="scale(0.015625)"/>
       <path id="DejaVuSans-63" d="M 3122 3366 
L 3122 2828 
Q 2878 2963 2633 3030 
Q 2388 3097 2138 3097 
Q 1578 3097 1268 2742 
Q 959 2388 959 1747 
Q 959 1106 1268 751 
Q 1578 397 2138 397 
Q 2388 397 2633 464 
Q 2878 531 3122 666 
L 3122 134 
Q 2881 22 2623 -34 
Q 2366 -91 2075 -91 
Q 1284 -91 818 406 
Q 353 903 353 1747 
Q 353 2603 823 3093 
Q 1294 3584 2113 3584 
Q 2378 3584 2631 3529 
Q 2884 3475 3122 3366 
z
" transform="scale(0.015625)"/>
       <path id="DejaVuSans-74" d="M 1172 4494 
L 1172 3500 
L 2356 3500 
L 2356 3053 
L 1172 3053 
L 1172 1153 
Q 1172 725 1289 603 
Q 1406 481 1766 481 
L 2356 481 
L 2356 0 
L 1766 0 
Q 1100 0 847 248 
Q 594 497 594 1153 
L 594 3053 
L 172 3053 
L 172 3500 
L 594 3500 
L 594 4494 
L 1172 4494 
z
" transform="scale(0.015625)"/>
       <path id="DejaVuSans-6f" d="M 1959 3097 
Q 1497 3097 1228 2736 
Q 959 2375 959 1747 
Q 959 1119 1226 758 
Q 1494 397 1959 397 
Q 2419 397 2687 759 
Q 2956 1122 2956 1747 
Q 2956 2369 2687 2733 
Q 2419 3097 1959 3097 
z
M 1959 3584 
Q 2709 3584 3137 3096 
Q 3566 2609 3566 1747 
Q 3566 888 3137 398 
Q 2709 -91 1959 -91 
Q 1206 -91 779 398 
Q 353 888 353 1747 
Q 353 2609 779 3096 
Q 1206 3584 1959 3584 
z
" transform="scale(0.015625)"/>
       <path id="DejaVuSans-6e" d="M 3513 2113 
L 3513 0 
L 2938 0 
L 2938 2094 
Q 2938 2591 2744 2837 
Q 2550 3084 2163 3084 
Q 1697 3084 1428 2787 
Q 1159 2491 1159 1978 
L 1159 0 
L 581 0 
L 581 3500 
L 1159 3500 
L 1159 2956 
Q 1366 3272 1645 3428 
Q 1925 3584 2291 3584 
Q 2894 3584 3203 3211 
Q 3513 2838 3513 2113 
z
" transform="scale(0.015625)"/>
      </defs>
      <use xlink:href="#DejaVuSans-44"/>
      <use xlink:href="#DejaVuSans-69" x="77.001953"/>
      <use xlink:href="#DejaVuSans-72" x="104.785156"/>
      <use xlink:href="#DejaVuSans-65" x="143.648438"/>
      <use xlink:href="#DejaVuSans-63" x="205.171875"/>
      <use xlink:href="#DejaVuSans-74" x="260.152344"/>
      <use xlink:href="#DejaVuSans-69" x="299.361328"/>
      <use xlink:href="#DejaVuSans-6f" x="327.144531"/>
      <use xlink:href="#DejaVuSans-6e" x="388.326172"/>
     </g>
    </g>
   </g>
  </g>
 </g>
 <defs>
  <clipPath id="p3f38b6ab43">
   <rect x="51.853125" y="3.6" width="334.8" height="237.234461"/>
  </clipPath>
 </defs>
</svg>
