<?xml version="1.0" encoding="utf-8" standalone="no"?>
<!DOCTYPE svg PUBLIC "-//W3C//DTD SVG 1.1//EN"
  "http://www.w3.org/Graphics/SVG/1.1/DTD/svg11.dtd">
<svg xmlns:xlink="http://www.w3.org/1999/xlink" width="386.439375pt" height="291.47084pt" viewBox="0 0 386.439375 291.47084" xmlns="http://www.w3.org/2000/svg" version="1.1">
 <metadata>
  <rdf:RDF xmlns:dc="http://purl.org/dc/elements/1.1/" xmlns:cc="http://creativecommons.org/ns#" xmlns:rdf="http://www.w3.org/1999/02/22-rdf-syntax-ns#">
   <cc:Work>
    <dc:type rdf:resource="http://purl.org/dc/dcmitype/StillImage"/>
    <dc:date>2024-06-04T12:14:00.873221</dc:date>
    <dc:format>image/svg+xml</dc:format>
    <dc:creator>
     <cc:Agent>
      <dc:title>Matplotlib v3.9.0, https://matplotlib.org/</dc:title>
     </cc:Agent>
    </dc:creator>
   </cc:Work>
  </rdf:RDF>
 </metadata>
 <defs>
  <style type="text/css">*{stroke-linejoin: round; stroke-linecap: butt}</style>
 </defs>
 <g id="figure_1">
  <g id="patch_1">
   <path d="M 0 291.47084 
L 386.439375 291.47084 
L 386.439375 0 
L 0 0 
z
" style="fill: #ffffff"/>
  </g>
  <g id="axes_1">
   <g id="patch_2">
    <path d="M 48.039375 257.14334 
L 382.839375 257.14334 
L 382.839375 7.66334 
L 48.039375 7.66334 
z
" style="fill: #ffffff"/>
   </g>
   <g id="PolyCollection_1">
    <defs>
     <path id="medbb046e1d" d="M 63.257557 -214.740218 
L 63.257557 -45.6675 
L 63.867504 -46.580446 
L 64.477451 -46.065153 
L 65.087398 -47.253599 
L 65.697345 -47.051302 
L 66.307293 -47.528429 
L 66.91724 -46.400514 
L 67.527187 -46.47742 
L 68.137134 -46.979597 
L 68.747081 -46.537383 
L 69.357028 -49.281797 
L 69.966976 -82.598652 
L 70.576923 -47.011828 
L 71.18687 -46.104733 
L 71.796817 -126.621731 
L 72.406764 -108.942125 
L 73.016711 -47.777543 
L 73.626659 -162.154442 
L 74.236606 -151.417847 
L 74.846553 -164.980222 
L 75.4565 -152.822937 
L 76.066447 -142.523223 
L 76.676394 -152.85727 
L 77.286342 -152.490893 
L 77.896289 -167.297 
L 78.506236 -160.052798 
L 79.116183 -48.221842 
L 79.72613 -157.873917 
L 80.336077 -164.983644 
L 80.946025 -173.770806 
L 81.555972 -177.193682 
L 82.165919 -178.460034 
L 82.775866 -178.420488 
L 83.385813 -180.002558 
L 83.99576 -180.186785 
L 84.605708 -181.679949 
L 85.215655 -176.096665 
L 85.825602 -190.15339 
L 86.435549 -179.465397 
L 87.045496 -184.800768 
L 87.655444 -181.962093 
L 88.265391 -180.850138 
L 88.875338 -172.596641 
L 89.485285 -181.222133 
L 90.095232 -181.118312 
L 90.705179 -181.710784 
L 91.315127 -185.867251 
L 91.925074 -189.768253 
L 92.535021 -185.420016 
L 93.144968 -189.791385 
L 93.754915 -189.221953 
L 94.364862 -189.369015 
L 94.97481 -175.14609 
L 95.584757 -183.22744 
L 96.194704 -169.007747 
L 96.804651 -183.006441 
L 97.414598 -184.384387 
L 98.024545 -171.056936 
L 98.634493 -195.231721 
L 99.24444 -195.328371 
L 99.854387 -250.877861 
L 100.464334 -195.926601 
L 101.074281 -197.913099 
L 101.684228 -191.725262 
L 102.294176 -190.505138 
L 102.904123 -248.715277 
L 103.51407 -251.452532 
L 104.124017 -258.163853 
L 104.733964 -248.245597 
L 105.343911 -195.952109 
L 105.953859 -194.068633 
L 106.563806 -194.323021 
L 107.173753 -195.913082 
L 107.7837 -194.234239 
L 108.393647 -195.50847 
L 109.003594 -198.647965 
L 109.613542 -197.776867 
L 110.223489 -199.685332 
L 110.833436 -199.517983 
L 111.443383 -250.425067 
L 112.05333 -199.420846 
L 112.663277 -187.95026 
L 113.273225 -186.576391 
L 113.883172 -183.280905 
L 114.493119 -182.493814 
L 115.103066 -186.525235 
L 115.713013 -191.077356 
L 116.32296 -194.231352 
L 116.932908 -199.610438 
L 117.542855 -198.839827 
L 118.152802 -191.234501 
L 118.762749 -198.469593 
L 119.372696 -264.762057 
L 119.982643 -199.79978 
L 120.592591 -192.724681 
L 121.202538 -189.208548 
L 121.812485 -196.173585 
L 122.422432 -265.608177 
L 123.032379 -265.12521 
L 123.642326 -266.397491 
L 124.252274 -198.441386 
L 124.862221 -181.340227 
L 125.472168 -199.334048 
L 126.082115 -188.739528 
L 126.692062 -195.413883 
L 127.302009 -196.100417 
L 127.911957 -196.090498 
L 128.521904 -200.923164 
L 129.131851 -268.452923 
L 129.741798 -268.453913 
L 130.351745 -268.451437 
L 130.961692 -268.241128 
L 131.57164 -268.241033 
L 132.181587 -267.114653 
L 132.791534 -184.830321 
L 133.401481 -245.34462 
L 134.011428 -202.314712 
L 134.621375 -202.31482 
L 135.231323 -259.389585 
L 135.84127 -267.376866 
L 136.451217 -261.109723 
L 137.061164 -261.292158 
L 137.671111 -192.797284 
L 138.281058 -202.068042 
L 138.891006 -197.353624 
L 139.500953 -202.34247 
L 140.1109 -199.564119 
L 140.720847 -192.463633 
L 141.330794 -268.242281 
L 141.940741 -192.919393 
L 142.550689 -202.02053 
L 143.160636 -264.386844 
L 143.770583 -252.352587 
L 144.38053 -190.972473 
L 144.990477 -186.422454 
L 145.600424 -193.478952 
L 146.210372 -190.26044 
L 146.820319 -202.314013 
L 147.430266 -266.783086 
L 148.040213 -262.964319 
L 148.65016 -194.939507 
L 149.260107 -194.940088 
L 149.870055 -262.286809 
L 150.480002 -262.958169 
L 151.089949 -262.959753 
L 151.699896 -263.075178 
L 152.309843 -263.07506 
L 152.91979 -262.963607 
L 153.529738 -193.308573 
L 154.139685 -194.519066 
L 154.749632 -185.950546 
L 155.359579 -186.879177 
L 155.969526 -193.118069 
L 156.579473 -190.629793 
L 157.189421 -193.195346 
L 157.799368 -191.687939 
L 158.409315 -186.295636 
L 159.019262 -191.268533 
L 159.629209 -198.692602 
L 160.239156 -189.472443 
L 160.849104 -196.799935 
L 161.459051 -198.820751 
L 162.068998 -198.822772 
L 162.678945 -266.15382 
L 163.288892 -196.316544 
L 163.898839 -200.40529 
L 164.508787 -265.964636 
L 165.118734 -260.825173 
L 165.728681 -202.310696 
L 166.338628 -189.539865 
L 166.948575 -182.911311 
L 167.558522 -202.210738 
L 168.16847 -202.217491 
L 168.778417 -200.769192 
L 169.388364 -197.330403 
L 169.998311 -192.368331 
L 170.608258 -190.607374 
L 171.218205 -192.628216 
L 171.828153 -196.142302 
L 172.4381 -201.390013 
L 173.048047 -186.005597 
L 173.657994 -219.340782 
L 174.267941 -200.483502 
L 174.877888 -192.923489 
L 175.487836 -265.223386 
L 176.097783 -266.143734 
L 176.70773 -266.17609 
L 177.317677 -263.628145 
L 177.927624 -197.052579 
L 178.537571 -261.288818 
L 179.147519 -200.083153 
L 179.757466 -199.305796 
L 180.367413 -198.973959 
L 180.97736 -190.325193 
L 181.587307 -199.312025 
L 182.197254 -262.098835 
L 182.807202 -262.102551 
L 183.417149 -192.556818 
L 184.027096 -188.627347 
L 184.637043 -192.043421 
L 185.24699 -185.885683 
L 185.856937 -181.694462 
L 186.466885 -245.640056 
L 187.076832 -191.246796 
L 187.686779 -201.028776 
L 188.296726 -262.98561 
L 188.906673 -260.723951 
L 189.51662 -266.171961 
L 190.126568 -197.724966 
L 190.736515 -260.701207 
L 191.346462 -194.313297 
L 191.956409 -195.460866 
L 192.566356 -202.374174 
L 193.176303 -193.838763 
L 193.786251 -195.793867 
L 194.396198 -192.459159 
L 195.006145 -195.44542 
L 195.616092 -199.52716 
L 196.226039 -189.100514 
L 196.835986 -189.055363 
L 197.445934 -191.658986 
L 198.055881 -179.063623 
L 198.665828 -200.056416 
L 199.275775 -198.212491 
L 199.885722 -195.439653 
L 200.495669 -177.14456 
L 201.105617 -195.867375 
L 201.715564 -195.682717 
L 202.325511 -195.736767 
L 202.935458 -168.072009 
L 203.545405 -181.699439 
L 204.155352 -172.20768 
L 204.7653 -181.177152 
L 205.375247 -192.369581 
L 205.985194 -190.620691 
L 206.595141 -194.293026 
L 207.205088 -269.247061 
L 207.815035 -269.603723 
L 208.424983 -268.059242 
L 209.03493 -199.689988 
L 209.644877 -267.198578 
L 210.254824 -268.449729 
L 210.864771 -269.602018 
L 211.474718 -202.635402 
L 212.084666 -180.700038 
L 212.694613 -198.442077 
L 213.30456 -184.707316 
L 213.914507 -192.986468 
L 214.524454 -198.830765 
L 215.134401 -193.630869 
L 215.744349 -193.608828 
L 216.354296 -201.503974 
L 216.964243 -201.445571 
L 217.57419 -251.058018 
L 218.184137 -201.527187 
L 218.794084 -186.411769 
L 219.404032 -188.700899 
L 220.013979 -190.508253 
L 220.623926 -195.997417 
L 221.233873 -263.329157 
L 221.84382 -257.773555 
L 222.453767 -257.505371 
L 223.063715 -199.112337 
L 223.673662 -258.073021 
L 224.283609 -258.097306 
L 224.893556 -257.384874 
L 225.503503 -257.765905 
L 226.11345 -189.504449 
L 226.723398 -202.490433 
L 227.333345 -268.829569 
L 227.943292 -268.619263 
L 228.553239 -268.841078 
L 229.163186 -268.829858 
L 229.773133 -189.912769 
L 230.383081 -268.615547 
L 230.993028 -198.864619 
L 231.602975 -268.614717 
L 232.212922 -268.321227 
L 232.822869 -201.694636 
L 233.432816 -200.752981 
L 234.042764 -191.097358 
L 234.652711 -268.827496 
L 235.262658 -201.585033 
L 235.872605 -194.985121 
L 236.482552 -192.056511 
L 237.092499 -268.148216 
L 237.702447 -268.201987 
L 238.312394 -196.080982 
L 238.922341 -190.879953 
L 239.532288 -191.844199 
L 240.142235 -190.263175 
L 240.752182 -196.985362 
L 241.36213 -186.125328 
L 241.972077 -200.232658 
L 242.582024 -202.250806 
L 243.191971 -195.503654 
L 243.801918 -202.273194 
L 244.411865 -196.003956 
L 245.021813 -186.894244 
L 245.63176 -202.328601 
L 246.241707 -196.30217 
L 246.851654 -268.841498 
L 247.461601 -269.240409 
L 248.071548 -269.288045 
L 248.681496 -269.28945 
L 249.291443 -269.362415 
L 249.90139 -269.362874 
L 250.511337 -269.352228 
L 251.121284 -269.288254 
L 251.731231 -268.795963 
L 252.341179 -200.112346 
L 252.951126 -189.858086 
L 253.561073 -198.47647 
L 254.17102 -198.434685 
L 254.780967 -198.369334 
L 255.390914 -189.042297 
L 256.000862 -187.313418 
L 256.610809 -176.357287 
L 257.220756 -181.187812 
L 257.830703 -175.780208 
L 258.44065 -193.044313 
L 259.050597 -193.511772 
L 259.660545 -194.59031 
L 260.270492 -201.767364 
L 260.880439 -201.716262 
L 261.490386 -201.858629 
L 262.100333 -202.204628 
L 262.71028 -257.567596 
L 263.320228 -258.043997 
L 263.930175 -197.851488 
L 264.540122 -268.891296 
L 265.150069 -195.539864 
L 265.760016 -190.634249 
L 266.369963 -196.531585 
L 266.979911 -201.926235 
L 267.589858 -199.467856 
L 268.199805 -180.083112 
L 268.809752 -173.819523 
L 269.419699 -181.756152 
L 270.029646 -199.354845 
L 270.639594 -196.810072 
L 271.249541 -196.629583 
L 271.859488 -200.445253 
L 272.469435 -197.534181 
L 273.079382 -189.831342 
L 273.689329 -202.235284 
L 274.299277 -244.618069 
L 274.909224 -244.617776 
L 275.519171 -196.276134 
L 276.129118 -191.108306 
L 276.739065 -195.333496 
L 277.349012 -189.496648 
L 277.95896 -195.726348 
L 278.568907 -195.740282 
L 279.178854 -202.332508 
L 279.788801 -199.386644 
L 280.398748 -192.90689 
L 281.008695 -193.107254 
L 281.618643 -184.033557 
L 282.22859 -188.643284 
L 282.838537 -179.931798 
L 283.448484 -199.852909 
L 284.058431 -197.464937 
L 284.668378 -180.771903 
L 285.278326 -180.562408 
L 285.888273 -188.629062 
L 286.49822 -194.003815 
L 287.108167 -196.983336 
L 287.718114 -187.964269 
L 288.328061 -182.140966 
L 288.938009 -188.438566 
L 289.547956 -192.071076 
L 290.157903 -193.479571 
L 290.76785 -195.774816 
L 291.377797 -202.025287 
L 291.987744 -188.665129 
L 292.597692 -270.216362 
L 293.207639 -271.292471 
L 293.817586 -201.103468 
L 294.427533 -200.027843 
L 295.03748 -202.035181 
L 295.647427 -201.138195 
L 296.257375 -271.007403 
L 296.867322 -271.057714 
L 297.477269 -270.763467 
L 298.087216 -271.009894 
L 298.697163 -197.606823 
L 299.30711 -192.836881 
L 299.917058 -191.088155 
L 300.527005 -172.964659 
L 301.136952 -187.168798 
L 301.746899 -182.066389 
L 302.356846 -166.846631 
L 302.966793 -176.926899 
L 303.576741 -182.115032 
L 304.186688 -193.472107 
L 304.796635 -189.700308 
L 305.406582 -192.674197 
L 306.016529 -203.429839 
L 306.626476 -203.431745 
L 307.236424 -195.222946 
L 307.846371 -255.187066 
L 308.456318 -261.850589 
L 309.066265 -261.950352 
L 309.676212 -260.875617 
L 310.286159 -203.138614 
L 310.896107 -194.044416 
L 311.506054 -263.014587 
L 312.116001 -263.014276 
L 312.725948 -263.0144 
L 313.335895 -202.474598 
L 313.945842 -199.202594 
L 314.55579 -179.274419 
L 315.165737 -196.747026 
L 315.775684 -196.761887 
L 316.385631 -197.137514 
L 316.995578 -270.655115 
L 317.605525 -269.161257 
L 318.215473 -181.451894 
L 318.82542 -184.121887 
L 319.435367 -197.104051 
L 320.045314 -197.510033 
L 320.655261 -267.971064 
L 321.265208 -198.523688 
L 321.875156 -265.755738 
L 322.485103 -268.535748 
L 323.09505 -188.404088 
L 323.704997 -192.04232 
L 324.314944 -267.961211 
L 324.924891 -202.591048 
L 325.534839 -202.599324 
L 326.144786 -202.859579 
L 326.754733 -182.014269 
L 327.36468 -198.429997 
L 327.974627 -189.910711 
L 328.584574 -177.91509 
L 329.194522 -193.933679 
L 329.804469 -201.362209 
L 330.414416 -252.694209 
L 331.024363 -257.054408 
L 331.63431 -203.056102 
L 332.244257 -257.020569 
L 332.854205 -258.903231 
L 333.464152 -269.797993 
L 334.074099 -267.790332 
L 334.684046 -258.90691 
L 335.293993 -263.97781 
L 335.90394 -267.887936 
L 336.513888 -268.541426 
L 337.123835 -269.78726 
L 337.733782 -270.231942 
L 338.343729 -198.885809 
L 338.953676 -188.693979 
L 339.563623 -182.179504 
L 340.173571 -188.410443 
L 340.783518 -189.743666 
L 341.393465 -183.442541 
L 342.003412 -197.531747 
L 342.613359 -175.308027 
L 343.223306 -166.783608 
L 343.833254 -197.822817 
L 344.443201 -203.667803 
L 345.053148 -198.916526 
L 345.663095 -196.081589 
L 346.273042 -195.14952 
L 346.88299 -196.413685 
L 347.492937 -188.282025 
L 348.102884 -248.7572 
L 348.712831 -196.41993 
L 349.322778 -203.412659 
L 349.932725 -198.950364 
L 350.542673 -169.077801 
L 351.15262 -171.747932 
L 351.762567 -171.800359 
L 352.372514 -166.636266 
L 352.982461 -166.942084 
L 353.592408 -183.314596 
L 354.202356 -195.841801 
L 354.812303 -197.793948 
L 355.42225 -270.03818 
L 356.032197 -266.114236 
L 356.642144 -190.476137 
L 357.252091 -191.193635 
L 357.862039 -181.090223 
L 358.471986 -198.498686 
L 359.081933 -187.821936 
L 359.69188 -183.200258 
L 360.301827 -201.550366 
L 360.911774 -271.581408 
L 361.521722 -203.724439 
L 362.131669 -270.322299 
L 362.741616 -186.689913 
L 363.351563 -197.077829 
L 363.96151 -175.548978 
L 364.571457 -193.593681 
L 365.181405 -192.78134 
L 365.791352 -191.121956 
L 366.401299 -185.103256 
L 367.011246 -194.906343 
L 367.621193 -195.871117 
L 367.621193 -272.412193 
L 367.621193 -272.412193 
L 367.011246 -272.464522 
L 366.401299 -272.434731 
L 365.791352 -272.44444 
L 365.181405 -272.427894 
L 364.571457 -272.449058 
L 363.96151 -272.437199 
L 363.351563 -272.416603 
L 362.741616 -272.436139 
L 362.131669 -272.434492 
L 361.521722 -272.415746 
L 360.911774 -272.459585 
L 360.301827 -272.42735 
L 359.69188 -272.426808 
L 359.081933 -272.454992 
L 358.471986 -272.440317 
L 357.862039 -272.424063 
L 357.252091 -272.419209 
L 356.642144 -272.436636 
L 356.032197 -272.427293 
L 355.42225 -272.423939 
L 354.812303 -272.416855 
L 354.202356 -272.411631 
L 353.592408 -272.439356 
L 352.982461 -272.41596 
L 352.372514 -272.424043 
L 351.762567 -272.446722 
L 351.15262 -272.429764 
L 350.542673 -272.420418 
L 349.932725 -272.416913 
L 349.322778 -272.428864 
L 348.712831 -272.454932 
L 348.102884 -272.428129 
L 347.492937 -272.411869 
L 346.88299 -272.431028 
L 346.273042 -272.412696 
L 345.663095 -272.415289 
L 345.053148 -272.429199 
L 344.443201 -272.413286 
L 343.833254 -272.412438 
L 343.223306 -272.411624 
L 342.613359 -272.419739 
L 342.003412 -272.412948 
L 341.393465 -272.424166 
L 340.783518 -272.411062 
L 340.173571 -272.4191 
L 339.563623 -272.428009 
L 338.953676 -272.4675 
L 338.343729 -272.410736 
L 337.733782 -272.410006 
L 337.123835 -272.403025 
L 336.513888 -272.37244 
L 335.90394 -272.372504 
L 335.293993 -272.379865 
L 334.684046 -272.374951 
L 334.074099 -272.377179 
L 333.464152 -272.37177 
L 332.854205 -272.372616 
L 332.244257 -272.371465 
L 331.63431 -272.369843 
L 331.024363 -272.370683 
L 330.414416 -272.370672 
L 329.804469 -272.363327 
L 329.194522 -272.353277 
L 328.584574 -272.355844 
L 327.974627 -272.354727 
L 327.36468 -272.360669 
L 326.754733 -272.383203 
L 326.144786 -272.3666 
L 325.534839 -272.359256 
L 324.924891 -272.416917 
L 324.314944 -272.355355 
L 323.704997 -272.36376 
L 323.09505 -272.353077 
L 322.485103 -272.359178 
L 321.875156 -272.359586 
L 321.265208 -272.352281 
L 320.655261 -272.36305 
L 320.045314 -272.353606 
L 319.435367 -272.400004 
L 318.82542 -272.351117 
L 318.215473 -272.359814 
L 317.605525 -272.360829 
L 316.995578 -272.36077 
L 316.385631 -272.354057 
L 315.775684 -272.353858 
L 315.165737 -272.352505 
L 314.55579 -272.357321 
L 313.945842 -272.35378 
L 313.335895 -272.351654 
L 312.725948 -272.352366 
L 312.116001 -272.352901 
L 311.506054 -272.353132 
L 310.896107 -272.352192 
L 310.286159 -272.35173 
L 309.676212 -272.35082 
L 309.066265 -272.354257 
L 308.456318 -272.353122 
L 307.846371 -272.350746 
L 307.236424 -272.353796 
L 306.626476 -272.346311 
L 306.016529 -271.741416 
L 305.406582 -271.797569 
L 304.796635 -271.739061 
L 304.186688 -271.721326 
L 303.576741 -271.726191 
L 302.966793 -271.745814 
L 302.356846 -271.718245 
L 301.746899 -271.717043 
L 301.136952 -271.71907 
L 300.527005 -271.719058 
L 299.917058 -271.766044 
L 299.30711 -271.719135 
L 298.697163 -271.719283 
L 298.087216 -271.728068 
L 297.477269 -271.719236 
L 296.867322 -271.747914 
L 296.257375 -271.719082 
L 295.647427 -271.832217 
L 295.03748 -271.743557 
L 294.427533 -271.729022 
L 293.817586 -271.723158 
L 293.207639 -271.717407 
L 292.597692 -271.864975 
L 291.987744 -271.718126 
L 291.377797 -271.721852 
L 290.76785 -271.745354 
L 290.157903 -271.753302 
L 289.547956 -271.790629 
L 288.938009 -271.755636 
L 288.328061 -271.764243 
L 287.718114 -271.795441 
L 287.108167 -271.71249 
L 286.49822 -271.715522 
L 285.888273 -271.762822 
L 285.278326 -271.715516 
L 284.668378 -271.727404 
L 284.058431 -271.710774 
L 283.448484 -271.707013 
L 282.838537 -271.786715 
L 282.22859 -271.687742 
L 281.618643 -271.742787 
L 281.008695 -271.729564 
L 280.398748 -271.78215 
L 279.788801 -271.771263 
L 279.178854 -271.665106 
L 278.568907 -271.702454 
L 277.95896 -271.74157 
L 277.349012 -271.760041 
L 276.739065 -271.699743 
L 276.129118 -271.717628 
L 275.519171 -271.671061 
L 274.909224 -271.777943 
L 274.299277 -271.734749 
L 273.689329 -271.680583 
L 273.079382 -271.748475 
L 272.469435 -271.665446 
L 271.859488 -271.665697 
L 271.249541 -271.670051 
L 270.639594 -271.73617 
L 270.029646 -271.725092 
L 269.419699 -271.698763 
L 268.809752 -271.681139 
L 268.199805 -271.675825 
L 267.589858 -271.814268 
L 266.979911 -271.676141 
L 266.369963 -271.669451 
L 265.760016 -271.684236 
L 265.150069 -271.743893 
L 264.540122 -271.760508 
L 263.930175 -271.789729 
L 263.320228 -271.73588 
L 262.71028 -271.764468 
L 262.100333 -271.679555 
L 261.490386 -271.672473 
L 260.880439 -271.735522 
L 260.270492 -271.738257 
L 259.660545 -271.717048 
L 259.050597 -271.730877 
L 258.44065 -271.698317 
L 257.830703 -271.744774 
L 257.220756 -271.753742 
L 256.610809 -271.710953 
L 256.000862 -271.694942 
L 255.390914 -271.759552 
L 254.780967 -271.72429 
L 254.17102 -271.681726 
L 253.561073 -271.753894 
L 252.951126 -271.711372 
L 252.341179 -271.718268 
L 251.731231 -271.7402 
L 251.121284 -271.699529 
L 250.511337 -271.753844 
L 249.90139 -271.671949 
L 249.291443 -271.678495 
L 248.681496 -271.690619 
L 248.071548 -271.666384 
L 247.461601 -271.728046 
L 246.851654 -271.754163 
L 246.241707 -271.846963 
L 245.63176 -271.71956 
L 245.021813 -271.681157 
L 244.411865 -271.690317 
L 243.801918 -271.720593 
L 243.191971 -271.682109 
L 242.582024 -271.664585 
L 241.972077 -271.686404 
L 241.36213 -271.659605 
L 240.752182 -271.70362 
L 240.142235 -271.665947 
L 239.532288 -271.657493 
L 238.922341 -271.669793 
L 238.312394 -271.660955 
L 237.702447 -271.668104 
L 237.092499 -271.66486 
L 236.482552 -271.656508 
L 235.872605 -271.656928 
L 235.262658 -271.661806 
L 234.652711 -271.65377 
L 234.042764 -271.649347 
L 233.432816 -271.673194 
L 232.822869 -271.368759 
L 232.212922 -271.369205 
L 231.602975 -271.369392 
L 230.993028 -271.368903 
L 230.383081 -271.370142 
L 229.773133 -271.367403 
L 229.163186 -271.370175 
L 228.553239 -271.369024 
L 227.943292 -271.369163 
L 227.333345 -271.369827 
L 226.723398 -271.368358 
L 226.11345 -271.369371 
L 225.503503 -271.368724 
L 224.893556 -271.369522 
L 224.283609 -271.371284 
L 223.673662 -271.368538 
L 223.063715 -271.369807 
L 222.453767 -271.368405 
L 221.84382 -271.369277 
L 221.233873 -271.367115 
L 220.623926 -271.364859 
L 220.013979 -271.369289 
L 219.404032 -271.296684 
L 218.794084 -271.302238 
L 218.184137 -271.296459 
L 217.57419 -271.299002 
L 216.964243 -271.249324 
L 216.354296 -271.251398 
L 215.744349 -271.247981 
L 215.134401 -271.252137 
L 214.524454 -271.252363 
L 213.914507 -271.249758 
L 213.30456 -271.248832 
L 212.694613 -271.248183 
L 212.084666 -271.248977 
L 211.474718 -271.25115 
L 210.864771 -271.247695 
L 210.254824 -271.183595 
L 209.644877 -271.205661 
L 209.03493 -271.19764 
L 208.424983 -271.212355 
L 207.815035 -271.193425 
L 207.205088 -271.182071 
L 206.595141 -271.184107 
L 205.985194 -271.197258 
L 205.375247 -271.181896 
L 204.7653 -271.188159 
L 204.155352 -271.182101 
L 203.545405 -271.187647 
L 202.935458 -271.180829 
L 202.325511 -271.183037 
L 201.715564 -271.179337 
L 201.105617 -271.178304 
L 200.495669 -271.179437 
L 199.885722 -271.178888 
L 199.275775 -271.177731 
L 198.665828 -271.177783 
L 198.055881 -271.131268 
L 197.445934 -271.135979 
L 196.835986 -271.125535 
L 196.226039 -271.169522 
L 195.616092 -271.125482 
L 195.006145 -271.121703 
L 194.396198 -271.125967 
L 193.786251 -271.15556 
L 193.176303 -271.122221 
L 192.566356 -271.128209 
L 191.956409 -271.127715 
L 191.346462 -271.130386 
L 190.736515 -271.175262 
L 190.126568 -271.12619 
L 189.51662 -271.134085 
L 188.906673 -271.125231 
L 188.296726 -271.154676 
L 187.686779 -271.134902 
L 187.076832 -271.11933 
L 186.466885 -271.124863 
L 185.856937 -271.139888 
L 185.24699 -271.13338 
L 184.637043 -271.123948 
L 184.027096 -271.119951 
L 183.417149 -271.126019 
L 182.807202 -271.178649 
L 182.197254 -271.131724 
L 181.587307 -271.121767 
L 180.97736 -271.12348 
L 180.367413 -271.132618 
L 179.757466 -271.120281 
L 179.147519 -271.130722 
L 178.537571 -271.11967 
L 177.927624 -271.124725 
L 177.317677 -271.158193 
L 176.70773 -271.152122 
L 176.097783 -271.123681 
L 175.487836 -271.124802 
L 174.877888 -271.139118 
L 174.267941 -271.136854 
L 173.657994 -271.121423 
L 173.048047 -271.12157 
L 172.4381 -271.119824 
L 171.828153 -271.140057 
L 171.218205 -271.118692 
L 170.608258 -271.124173 
L 169.998311 -271.12941 
L 169.388364 -271.122636 
L 168.778417 -271.123231 
L 168.16847 -271.140951 
L 167.558522 -271.121557 
L 166.948575 -271.129779 
L 166.338628 -271.12872 
L 165.728681 -271.127267 
L 165.118734 -271.121389 
L 164.508787 -271.123004 
L 163.898839 -271.120885 
L 163.288892 -271.126581 
L 162.678945 -271.117518 
L 162.068998 -271.117223 
L 161.459051 -271.116658 
L 160.849104 -271.117315 
L 160.239156 -271.116296 
L 159.629209 -271.116841 
L 159.019262 -271.0619 
L 158.409315 -271.0338 
L 157.799368 -271.049107 
L 157.189421 -271.068238 
L 156.579473 -271.05391 
L 155.969526 -271.038648 
L 155.359579 -271.031541 
L 154.749632 -271.037905 
L 154.139685 -271.050738 
L 153.529738 -271.035504 
L 152.91979 -271.037481 
L 152.309843 -271.041466 
L 151.699896 -271.067489 
L 151.089949 -271.047074 
L 150.480002 -271.077499 
L 149.870055 -271.037819 
L 149.260107 -271.032133 
L 148.65016 -271.034407 
L 148.040213 -271.031663 
L 147.430266 -271.042146 
L 146.820319 -271.031398 
L 146.210372 -271.034258 
L 145.600424 -271.034984 
L 144.990477 -271.03767 
L 144.38053 -271.057111 
L 143.770583 -271.031279 
L 143.160636 -271.032031 
L 142.550689 -271.033473 
L 141.940741 -271.030545 
L 141.330794 -271.052133 
L 140.720847 -271.033009 
L 140.1109 -271.038216 
L 139.500953 -271.03226 
L 138.891006 -271.035612 
L 138.281058 -271.030195 
L 137.671111 -271.031357 
L 137.061164 -271.030642 
L 136.451217 -271.031456 
L 135.84127 -271.030031 
L 135.231323 -271.030234 
L 134.621375 -271.029426 
L 134.011428 -271.029165 
L 133.401481 -271.031268 
L 132.791534 -271.031507 
L 132.181587 -271.029292 
L 131.57164 -271.030657 
L 130.961692 -271.013932 
L 130.351745 -271.029097 
L 129.741798 -271.007342 
L 129.131851 -271.008093 
L 128.521904 -271.009223 
L 127.911957 -271.008376 
L 127.302009 -271.009873 
L 126.692062 -271.007776 
L 126.082115 -271.007479 
L 125.472168 -271.010788 
L 124.862221 -271.009388 
L 124.252274 -271.00975 
L 123.642326 -271.008998 
L 123.032379 -271.007324 
L 122.422432 -271.008995 
L 121.812485 -271.007724 
L 121.202538 -271.007487 
L 120.592591 -271.007085 
L 119.982643 -271.004045 
L 119.372696 -270.683957 
L 118.762749 -270.684747 
L 118.152802 -270.683455 
L 117.542855 -270.688697 
L 116.932908 -270.683173 
L 116.32296 -270.665432 
L 115.713013 -270.467426 
L 115.103066 -270.467285 
L 114.493119 -270.465092 
L 113.883172 -270.465308 
L 113.273225 -270.466544 
L 112.663277 -270.466604 
L 112.05333 -270.363938 
L 111.443383 -270.361967 
L 110.833436 -270.362353 
L 110.223489 -269.879951 
L 109.613542 -269.725559 
L 109.003594 -269.724479 
L 108.393647 -269.723835 
L 107.7837 -269.724033 
L 107.173753 -269.724679 
L 106.563806 -269.287136 
L 105.953859 -269.277719 
L 105.343911 -269.27597 
L 104.733964 -269.282587 
L 104.124017 -269.275498 
L 103.51407 -269.277836 
L 102.904123 -269.276766 
L 102.294176 -268.786975 
L 101.684228 -268.785749 
L 101.074281 -268.784142 
L 100.464334 -268.78653 
L 99.854387 -268.78737 
L 99.24444 -268.470753 
L 98.634493 -268.465487 
L 98.024545 -268.465953 
L 97.414598 -268.465588 
L 96.804651 -268.032493 
L 96.194704 -267.978553 
L 95.584757 -267.97959 
L 94.97481 -267.98071 
L 94.364862 -267.976492 
L 93.754915 -267.979449 
L 93.144968 -267.97783 
L 92.535021 -267.40424 
L 91.925074 -267.249134 
L 91.315127 -267.24593 
L 90.705179 -267.246865 
L 90.095232 -267.248283 
L 89.485285 -267.249064 
L 88.875338 -266.427321 
L 88.265391 -266.425545 
L 87.655444 -266.425396 
L 87.045496 -266.426775 
L 86.435549 -265.334756 
L 85.825602 -265.297723 
L 85.215655 -265.297089 
L 84.605708 -264.672627 
L 83.99576 -264.672059 
L 83.385813 -264.673971 
L 82.775866 -264.669202 
L 82.165919 -264.301884 
L 81.555972 -264.298191 
L 80.946025 -264.300583 
L 80.336077 -264.298072 
L 79.72613 -264.297059 
L 79.116183 -264.297165 
L 78.506236 -264.298818 
L 77.896289 -264.297566 
L 77.286342 -264.294646 
L 76.676394 -264.296168 
L 76.066447 -264.296753 
L 75.4565 -264.294213 
L 74.846553 -264.293443 
L 74.236606 -264.294815 
L 73.626659 -264.295766 
L 73.016711 -262.224274 
L 72.406764 -254.10268 
L 71.796817 -254.100808 
L 71.18687 -253.542463 
L 70.576923 -253.542072 
L 69.966976 -253.54193 
L 69.357028 -249.833238 
L 68.747081 -249.832829 
L 68.137134 -249.83244 
L 67.527187 -249.832476 
L 66.91724 -249.832731 
L 66.307293 -249.832031 
L 65.697345 -249.832804 
L 65.087398 -249.831184 
L 64.477451 -228.388393 
L 63.867504 -227.31836 
L 63.257557 -214.740218 
z
" style="stroke: #0000ff; stroke-opacity: 0.2"/>
    </defs>
    <g clip-path="url(#p10061a9b5c)">
     <use xlink:href="#medbb046e1d" x="0" y="291.47084" style="fill: #0000ff; fill-opacity: 0.2; stroke: #0000ff; stroke-opacity: 0.2"/>
    </g>
   </g>
   <g id="matplotlib.axis_1">
    <g id="xtick_1">
     <g id="line2d_1">
      <path d="M 63.257557 257.14334 
L 63.257557 7.66334 
" clip-path="url(#p10061a9b5c)" style="fill: none; stroke: #b0b0b0; stroke-width: 0.5; stroke-linecap: square"/>
     </g>
     <g id="line2d_2">
      <defs>
       <path id="m0391facaf2" d="M 0 0 
L 0 -3 
" style="stroke: #000000; stroke-width: 0.5"/>
      </defs>
      <g>
       <use xlink:href="#m0391facaf2" x="63.257557" y="257.14334" style="stroke: #000000; stroke-width: 0.5"/>
      </g>
     </g>
     <g id="line2d_3">
      <defs>
       <path id="mf3cf23d588" d="M 0 0 
L 0 3 
" style="stroke: #000000; stroke-width: 0.5"/>
      </defs>
      <g>
       <use xlink:href="#mf3cf23d588" x="63.257557" y="7.66334" style="stroke: #000000; stroke-width: 0.5"/>
      </g>
     </g>
     <g id="text_1">
      <!-- 0 -->
      <g transform="translate(59.440057 269.761465) scale(0.12 -0.12)">
       <defs>
        <path id="DejaVuSans-30" d="M 2034 4250 
Q 1547 4250 1301 3770 
Q 1056 3291 1056 2328 
Q 1056 1369 1301 889 
Q 1547 409 2034 409 
Q 2525 409 2770 889 
Q 3016 1369 3016 2328 
Q 3016 3291 2770 3770 
Q 2525 4250 2034 4250 
z
M 2034 4750 
Q 2819 4750 3233 4129 
Q 3647 3509 3647 2328 
Q 3647 1150 3233 529 
Q 2819 -91 2034 -91 
Q 1250 -91 836 529 
Q 422 1150 422 2328 
Q 422 3509 836 4129 
Q 1250 4750 2034 4750 
z
" transform="scale(0.015625)"/>
       </defs>
       <use xlink:href="#DejaVuSans-30"/>
      </g>
     </g>
    </g>
    <g id="xtick_2">
     <g id="line2d_4">
      <path d="M 124.252274 257.14334 
L 124.252274 7.66334 
" clip-path="url(#p10061a9b5c)" style="fill: none; stroke: #b0b0b0; stroke-width: 0.5; stroke-linecap: square"/>
     </g>
     <g id="line2d_5">
      <g>
       <use xlink:href="#m0391facaf2" x="124.252274" y="257.14334" style="stroke: #000000; stroke-width: 0.5"/>
      </g>
     </g>
     <g id="line2d_6">
      <g>
       <use xlink:href="#mf3cf23d588" x="124.252274" y="7.66334" style="stroke: #000000; stroke-width: 0.5"/>
      </g>
     </g>
     <g id="text_2">
      <!-- 100 -->
      <g transform="translate(112.799774 269.761465) scale(0.12 -0.12)">
       <defs>
        <path id="DejaVuSans-31" d="M 794 531 
L 1825 531 
L 1825 4091 
L 703 3866 
L 703 4441 
L 1819 4666 
L 2450 4666 
L 2450 531 
L 3481 531 
L 3481 0 
L 794 0 
L 794 531 
z
" transform="scale(0.015625)"/>
       </defs>
       <use xlink:href="#DejaVuSans-31"/>
       <use xlink:href="#DejaVuSans-30" x="63.623047"/>
       <use xlink:href="#DejaVuSans-30" x="127.246094"/>
      </g>
     </g>
    </g>
    <g id="xtick_3">
     <g id="line2d_7">
      <path d="M 185.24699 257.14334 
L 185.24699 7.66334 
" clip-path="url(#p10061a9b5c)" style="fill: none; stroke: #b0b0b0; stroke-width: 0.5; stroke-linecap: square"/>
     </g>
     <g id="line2d_8">
      <g>
       <use xlink:href="#m0391facaf2" x="185.24699" y="257.14334" style="stroke: #000000; stroke-width: 0.5"/>
      </g>
     </g>
     <g id="line2d_9">
      <g>
       <use xlink:href="#mf3cf23d588" x="185.24699" y="7.66334" style="stroke: #000000; stroke-width: 0.5"/>
      </g>
     </g>
     <g id="text_3">
      <!-- 200 -->
      <g transform="translate(173.79449 269.761465) scale(0.12 -0.12)">
       <defs>
        <path id="DejaVuSans-32" d="M 1228 531 
L 3431 531 
L 3431 0 
L 469 0 
L 469 531 
Q 828 903 1448 1529 
Q 2069 2156 2228 2338 
Q 2531 2678 2651 2914 
Q 2772 3150 2772 3378 
Q 2772 3750 2511 3984 
Q 2250 4219 1831 4219 
Q 1534 4219 1204 4116 
Q 875 4013 500 3803 
L 500 4441 
Q 881 4594 1212 4672 
Q 1544 4750 1819 4750 
Q 2544 4750 2975 4387 
Q 3406 4025 3406 3419 
Q 3406 3131 3298 2873 
Q 3191 2616 2906 2266 
Q 2828 2175 2409 1742 
Q 1991 1309 1228 531 
z
" transform="scale(0.015625)"/>
       </defs>
       <use xlink:href="#DejaVuSans-32"/>
       <use xlink:href="#DejaVuSans-30" x="63.623047"/>
       <use xlink:href="#DejaVuSans-30" x="127.246094"/>
      </g>
     </g>
    </g>
    <g id="xtick_4">
     <g id="line2d_10">
      <path d="M 246.241707 257.14334 
L 246.241707 7.66334 
" clip-path="url(#p10061a9b5c)" style="fill: none; stroke: #b0b0b0; stroke-width: 0.5; stroke-linecap: square"/>
     </g>
     <g id="line2d_11">
      <g>
       <use xlink:href="#m0391facaf2" x="246.241707" y="257.14334" style="stroke: #000000; stroke-width: 0.5"/>
      </g>
     </g>
     <g id="line2d_12">
      <g>
       <use xlink:href="#mf3cf23d588" x="246.241707" y="7.66334" style="stroke: #000000; stroke-width: 0.5"/>
      </g>
     </g>
     <g id="text_4">
      <!-- 300 -->
      <g transform="translate(234.789207 269.761465) scale(0.12 -0.12)">
       <defs>
        <path id="DejaVuSans-33" d="M 2597 2516 
Q 3050 2419 3304 2112 
Q 3559 1806 3559 1356 
Q 3559 666 3084 287 
Q 2609 -91 1734 -91 
Q 1441 -91 1130 -33 
Q 819 25 488 141 
L 488 750 
Q 750 597 1062 519 
Q 1375 441 1716 441 
Q 2309 441 2620 675 
Q 2931 909 2931 1356 
Q 2931 1769 2642 2001 
Q 2353 2234 1838 2234 
L 1294 2234 
L 1294 2753 
L 1863 2753 
Q 2328 2753 2575 2939 
Q 2822 3125 2822 3475 
Q 2822 3834 2567 4026 
Q 2313 4219 1838 4219 
Q 1578 4219 1281 4162 
Q 984 4106 628 3988 
L 628 4550 
Q 988 4650 1302 4700 
Q 1616 4750 1894 4750 
Q 2613 4750 3031 4423 
Q 3450 4097 3450 3541 
Q 3450 3153 3228 2886 
Q 3006 2619 2597 2516 
z
" transform="scale(0.015625)"/>
       </defs>
       <use xlink:href="#DejaVuSans-33"/>
       <use xlink:href="#DejaVuSans-30" x="63.623047"/>
       <use xlink:href="#DejaVuSans-30" x="127.246094"/>
      </g>
     </g>
    </g>
    <g id="xtick_5">
     <g id="line2d_13">
      <path d="M 307.236424 257.14334 
L 307.236424 7.66334 
" clip-path="url(#p10061a9b5c)" style="fill: none; stroke: #b0b0b0; stroke-width: 0.5; stroke-linecap: square"/>
     </g>
     <g id="line2d_14">
      <g>
       <use xlink:href="#m0391facaf2" x="307.236424" y="257.14334" style="stroke: #000000; stroke-width: 0.5"/>
      </g>
     </g>
     <g id="line2d_15">
      <g>
       <use xlink:href="#mf3cf23d588" x="307.236424" y="7.66334" style="stroke: #000000; stroke-width: 0.5"/>
      </g>
     </g>
     <g id="text_5">
      <!-- 400 -->
      <g transform="translate(295.783924 269.761465) scale(0.12 -0.12)">
       <defs>
        <path id="DejaVuSans-34" d="M 2419 4116 
L 825 1625 
L 2419 1625 
L 2419 4116 
z
M 2253 4666 
L 3047 4666 
L 3047 1625 
L 3713 1625 
L 3713 1100 
L 3047 1100 
L 3047 0 
L 2419 0 
L 2419 1100 
L 313 1100 
L 313 1709 
L 2253 4666 
z
" transform="scale(0.015625)"/>
       </defs>
       <use xlink:href="#DejaVuSans-34"/>
       <use xlink:href="#DejaVuSans-30" x="63.623047"/>
       <use xlink:href="#DejaVuSans-30" x="127.246094"/>
      </g>
     </g>
    </g>
    <g id="xtick_6">
     <g id="line2d_16">
      <path d="M 368.23114 257.14334 
L 368.23114 7.66334 
" clip-path="url(#p10061a9b5c)" style="fill: none; stroke: #b0b0b0; stroke-width: 0.5; stroke-linecap: square"/>
     </g>
     <g id="line2d_17">
      <g>
       <use xlink:href="#m0391facaf2" x="368.23114" y="257.14334" style="stroke: #000000; stroke-width: 0.5"/>
      </g>
     </g>
     <g id="line2d_18">
      <g>
       <use xlink:href="#mf3cf23d588" x="368.23114" y="7.66334" style="stroke: #000000; stroke-width: 0.5"/>
      </g>
     </g>
     <g id="text_6">
      <!-- 500 -->
      <g transform="translate(356.77864 269.761465) scale(0.12 -0.12)">
       <defs>
        <path id="DejaVuSans-35" d="M 691 4666 
L 3169 4666 
L 3169 4134 
L 1269 4134 
L 1269 2991 
Q 1406 3038 1543 3061 
Q 1681 3084 1819 3084 
Q 2600 3084 3056 2656 
Q 3513 2228 3513 1497 
Q 3513 744 3044 326 
Q 2575 -91 1722 -91 
Q 1428 -91 1123 -41 
Q 819 9 494 109 
L 494 744 
Q 775 591 1075 516 
Q 1375 441 1709 441 
Q 2250 441 2565 725 
Q 2881 1009 2881 1497 
Q 2881 1984 2565 2268 
Q 2250 2553 1709 2553 
Q 1456 2553 1204 2497 
Q 953 2441 691 2322 
L 691 4666 
z
" transform="scale(0.015625)"/>
       </defs>
       <use xlink:href="#DejaVuSans-35"/>
       <use xlink:href="#DejaVuSans-30" x="63.623047"/>
       <use xlink:href="#DejaVuSans-30" x="127.246094"/>
      </g>
     </g>
    </g>
    <g id="xtick_7">
     <g id="line2d_19">
      <defs>
       <path id="maea6ae39e8" d="M 0 0 
L 0 -1.5 
" style="stroke: #000000; stroke-width: 0.5"/>
      </defs>
      <g>
       <use xlink:href="#maea6ae39e8" x="51.058613" y="257.14334" style="stroke: #000000; stroke-width: 0.5"/>
      </g>
     </g>
     <g id="line2d_20">
      <defs>
       <path id="mc92ac9fc08" d="M 0 0 
L 0 1.5 
" style="stroke: #000000; stroke-width: 0.5"/>
      </defs>
      <g>
       <use xlink:href="#mc92ac9fc08" x="51.058613" y="7.66334" style="stroke: #000000; stroke-width: 0.5"/>
      </g>
     </g>
    </g>
    <g id="xtick_8">
     <g id="line2d_21">
      <g>
       <use xlink:href="#maea6ae39e8" x="75.4565" y="257.14334" style="stroke: #000000; stroke-width: 0.5"/>
      </g>
     </g>
     <g id="line2d_22">
      <g>
       <use xlink:href="#mc92ac9fc08" x="75.4565" y="7.66334" style="stroke: #000000; stroke-width: 0.5"/>
      </g>
     </g>
    </g>
    <g id="xtick_9">
     <g id="line2d_23">
      <g>
       <use xlink:href="#maea6ae39e8" x="87.655444" y="257.14334" style="stroke: #000000; stroke-width: 0.5"/>
      </g>
     </g>
     <g id="line2d_24">
      <g>
       <use xlink:href="#mc92ac9fc08" x="87.655444" y="7.66334" style="stroke: #000000; stroke-width: 0.5"/>
      </g>
     </g>
    </g>
    <g id="xtick_10">
     <g id="line2d_25">
      <g>
       <use xlink:href="#maea6ae39e8" x="99.854387" y="257.14334" style="stroke: #000000; stroke-width: 0.5"/>
      </g>
     </g>
     <g id="line2d_26">
      <g>
       <use xlink:href="#mc92ac9fc08" x="99.854387" y="7.66334" style="stroke: #000000; stroke-width: 0.5"/>
      </g>
     </g>
    </g>
    <g id="xtick_11">
     <g id="line2d_27">
      <g>
       <use xlink:href="#maea6ae39e8" x="112.05333" y="257.14334" style="stroke: #000000; stroke-width: 0.5"/>
      </g>
     </g>
     <g id="line2d_28">
      <g>
       <use xlink:href="#mc92ac9fc08" x="112.05333" y="7.66334" style="stroke: #000000; stroke-width: 0.5"/>
      </g>
     </g>
    </g>
    <g id="xtick_12">
     <g id="line2d_29">
      <g>
       <use xlink:href="#maea6ae39e8" x="136.451217" y="257.14334" style="stroke: #000000; stroke-width: 0.5"/>
      </g>
     </g>
     <g id="line2d_30">
      <g>
       <use xlink:href="#mc92ac9fc08" x="136.451217" y="7.66334" style="stroke: #000000; stroke-width: 0.5"/>
      </g>
     </g>
    </g>
    <g id="xtick_13">
     <g id="line2d_31">
      <g>
       <use xlink:href="#maea6ae39e8" x="148.65016" y="257.14334" style="stroke: #000000; stroke-width: 0.5"/>
      </g>
     </g>
     <g id="line2d_32">
      <g>
       <use xlink:href="#mc92ac9fc08" x="148.65016" y="7.66334" style="stroke: #000000; stroke-width: 0.5"/>
      </g>
     </g>
    </g>
    <g id="xtick_14">
     <g id="line2d_33">
      <g>
       <use xlink:href="#maea6ae39e8" x="160.849104" y="257.14334" style="stroke: #000000; stroke-width: 0.5"/>
      </g>
     </g>
     <g id="line2d_34">
      <g>
       <use xlink:href="#mc92ac9fc08" x="160.849104" y="7.66334" style="stroke: #000000; stroke-width: 0.5"/>
      </g>
     </g>
    </g>
    <g id="xtick_15">
     <g id="line2d_35">
      <g>
       <use xlink:href="#maea6ae39e8" x="173.048047" y="257.14334" style="stroke: #000000; stroke-width: 0.5"/>
      </g>
     </g>
     <g id="line2d_36">
      <g>
       <use xlink:href="#mc92ac9fc08" x="173.048047" y="7.66334" style="stroke: #000000; stroke-width: 0.5"/>
      </g>
     </g>
    </g>
    <g id="xtick_16">
     <g id="line2d_37">
      <g>
       <use xlink:href="#maea6ae39e8" x="197.445934" y="257.14334" style="stroke: #000000; stroke-width: 0.5"/>
      </g>
     </g>
     <g id="line2d_38">
      <g>
       <use xlink:href="#mc92ac9fc08" x="197.445934" y="7.66334" style="stroke: #000000; stroke-width: 0.5"/>
      </g>
     </g>
    </g>
    <g id="xtick_17">
     <g id="line2d_39">
      <g>
       <use xlink:href="#maea6ae39e8" x="209.644877" y="257.14334" style="stroke: #000000; stroke-width: 0.5"/>
      </g>
     </g>
     <g id="line2d_40">
      <g>
       <use xlink:href="#mc92ac9fc08" x="209.644877" y="7.66334" style="stroke: #000000; stroke-width: 0.5"/>
      </g>
     </g>
    </g>
    <g id="xtick_18">
     <g id="line2d_41">
      <g>
       <use xlink:href="#maea6ae39e8" x="221.84382" y="257.14334" style="stroke: #000000; stroke-width: 0.5"/>
      </g>
     </g>
     <g id="line2d_42">
      <g>
       <use xlink:href="#mc92ac9fc08" x="221.84382" y="7.66334" style="stroke: #000000; stroke-width: 0.5"/>
      </g>
     </g>
    </g>
    <g id="xtick_19">
     <g id="line2d_43">
      <g>
       <use xlink:href="#maea6ae39e8" x="234.042764" y="257.14334" style="stroke: #000000; stroke-width: 0.5"/>
      </g>
     </g>
     <g id="line2d_44">
      <g>
       <use xlink:href="#mc92ac9fc08" x="234.042764" y="7.66334" style="stroke: #000000; stroke-width: 0.5"/>
      </g>
     </g>
    </g>
    <g id="xtick_20">
     <g id="line2d_45">
      <g>
       <use xlink:href="#maea6ae39e8" x="258.44065" y="257.14334" style="stroke: #000000; stroke-width: 0.5"/>
      </g>
     </g>
     <g id="line2d_46">
      <g>
       <use xlink:href="#mc92ac9fc08" x="258.44065" y="7.66334" style="stroke: #000000; stroke-width: 0.5"/>
      </g>
     </g>
    </g>
    <g id="xtick_21">
     <g id="line2d_47">
      <g>
       <use xlink:href="#maea6ae39e8" x="270.639594" y="257.14334" style="stroke: #000000; stroke-width: 0.5"/>
      </g>
     </g>
     <g id="line2d_48">
      <g>
       <use xlink:href="#mc92ac9fc08" x="270.639594" y="7.66334" style="stroke: #000000; stroke-width: 0.5"/>
      </g>
     </g>
    </g>
    <g id="xtick_22">
     <g id="line2d_49">
      <g>
       <use xlink:href="#maea6ae39e8" x="282.838537" y="257.14334" style="stroke: #000000; stroke-width: 0.5"/>
      </g>
     </g>
     <g id="line2d_50">
      <g>
       <use xlink:href="#mc92ac9fc08" x="282.838537" y="7.66334" style="stroke: #000000; stroke-width: 0.5"/>
      </g>
     </g>
    </g>
    <g id="xtick_23">
     <g id="line2d_51">
      <g>
       <use xlink:href="#maea6ae39e8" x="295.03748" y="257.14334" style="stroke: #000000; stroke-width: 0.5"/>
      </g>
     </g>
     <g id="line2d_52">
      <g>
       <use xlink:href="#mc92ac9fc08" x="295.03748" y="7.66334" style="stroke: #000000; stroke-width: 0.5"/>
      </g>
     </g>
    </g>
    <g id="xtick_24">
     <g id="line2d_53">
      <g>
       <use xlink:href="#maea6ae39e8" x="319.435367" y="257.14334" style="stroke: #000000; stroke-width: 0.5"/>
      </g>
     </g>
     <g id="line2d_54">
      <g>
       <use xlink:href="#mc92ac9fc08" x="319.435367" y="7.66334" style="stroke: #000000; stroke-width: 0.5"/>
      </g>
     </g>
    </g>
    <g id="xtick_25">
     <g id="line2d_55">
      <g>
       <use xlink:href="#maea6ae39e8" x="331.63431" y="257.14334" style="stroke: #000000; stroke-width: 0.5"/>
      </g>
     </g>
     <g id="line2d_56">
      <g>
       <use xlink:href="#mc92ac9fc08" x="331.63431" y="7.66334" style="stroke: #000000; stroke-width: 0.5"/>
      </g>
     </g>
    </g>
    <g id="xtick_26">
     <g id="line2d_57">
      <g>
       <use xlink:href="#maea6ae39e8" x="343.833254" y="257.14334" style="stroke: #000000; stroke-width: 0.5"/>
      </g>
     </g>
     <g id="line2d_58">
      <g>
       <use xlink:href="#mc92ac9fc08" x="343.833254" y="7.66334" style="stroke: #000000; stroke-width: 0.5"/>
      </g>
     </g>
    </g>
    <g id="xtick_27">
     <g id="line2d_59">
      <g>
       <use xlink:href="#maea6ae39e8" x="356.032197" y="257.14334" style="stroke: #000000; stroke-width: 0.5"/>
      </g>
     </g>
     <g id="line2d_60">
      <g>
       <use xlink:href="#mc92ac9fc08" x="356.032197" y="7.66334" style="stroke: #000000; stroke-width: 0.5"/>
      </g>
     </g>
    </g>
    <g id="xtick_28">
     <g id="line2d_61">
      <g>
       <use xlink:href="#maea6ae39e8" x="380.430084" y="257.14334" style="stroke: #000000; stroke-width: 0.5"/>
      </g>
     </g>
     <g id="line2d_62">
      <g>
       <use xlink:href="#mc92ac9fc08" x="380.430084" y="7.66334" style="stroke: #000000; stroke-width: 0.5"/>
      </g>
     </g>
    </g>
    <g id="text_7">
     <!-- Generations -->
     <g transform="translate(178.842188 285.375215) scale(0.12 -0.12)">
      <defs>
       <path id="DejaVuSans-47" d="M 3809 666 
L 3809 1919 
L 2778 1919 
L 2778 2438 
L 4434 2438 
L 4434 434 
Q 4069 175 3628 42 
Q 3188 -91 2688 -91 
Q 1594 -91 976 548 
Q 359 1188 359 2328 
Q 359 3472 976 4111 
Q 1594 4750 2688 4750 
Q 3144 4750 3555 4637 
Q 3966 4525 4313 4306 
L 4313 3634 
Q 3963 3931 3569 4081 
Q 3175 4231 2741 4231 
Q 1884 4231 1454 3753 
Q 1025 3275 1025 2328 
Q 1025 1384 1454 906 
Q 1884 428 2741 428 
Q 3075 428 3337 486 
Q 3600 544 3809 666 
z
" transform="scale(0.015625)"/>
       <path id="DejaVuSans-65" d="M 3597 1894 
L 3597 1613 
L 953 1613 
Q 991 1019 1311 708 
Q 1631 397 2203 397 
Q 2534 397 2845 478 
Q 3156 559 3463 722 
L 3463 178 
Q 3153 47 2828 -22 
Q 2503 -91 2169 -91 
Q 1331 -91 842 396 
Q 353 884 353 1716 
Q 353 2575 817 3079 
Q 1281 3584 2069 3584 
Q 2775 3584 3186 3129 
Q 3597 2675 3597 1894 
z
M 3022 2063 
Q 3016 2534 2758 2815 
Q 2500 3097 2075 3097 
Q 1594 3097 1305 2825 
Q 1016 2553 972 2059 
L 3022 2063 
z
" transform="scale(0.015625)"/>
       <path id="DejaVuSans-6e" d="M 3513 2113 
L 3513 0 
L 2938 0 
L 2938 2094 
Q 2938 2591 2744 2837 
Q 2550 3084 2163 3084 
Q 1697 3084 1428 2787 
Q 1159 2491 1159 1978 
L 1159 0 
L 581 0 
L 581 3500 
L 1159 3500 
L 1159 2956 
Q 1366 3272 1645 3428 
Q 1925 3584 2291 3584 
Q 2894 3584 3203 3211 
Q 3513 2838 3513 2113 
z
" transform="scale(0.015625)"/>
       <path id="DejaVuSans-72" d="M 2631 2963 
Q 2534 3019 2420 3045 
Q 2306 3072 2169 3072 
Q 1681 3072 1420 2755 
Q 1159 2438 1159 1844 
L 1159 0 
L 581 0 
L 581 3500 
L 1159 3500 
L 1159 2956 
Q 1341 3275 1631 3429 
Q 1922 3584 2338 3584 
Q 2397 3584 2469 3576 
Q 2541 3569 2628 3553 
L 2631 2963 
z
" transform="scale(0.015625)"/>
       <path id="DejaVuSans-61" d="M 2194 1759 
Q 1497 1759 1228 1600 
Q 959 1441 959 1056 
Q 959 750 1161 570 
Q 1363 391 1709 391 
Q 2188 391 2477 730 
Q 2766 1069 2766 1631 
L 2766 1759 
L 2194 1759 
z
M 3341 1997 
L 3341 0 
L 2766 0 
L 2766 531 
Q 2569 213 2275 61 
Q 1981 -91 1556 -91 
Q 1019 -91 701 211 
Q 384 513 384 1019 
Q 384 1609 779 1909 
Q 1175 2209 1959 2209 
L 2766 2209 
L 2766 2266 
Q 2766 2663 2505 2880 
Q 2244 3097 1772 3097 
Q 1472 3097 1187 3025 
Q 903 2953 641 2809 
L 641 3341 
Q 956 3463 1253 3523 
Q 1550 3584 1831 3584 
Q 2591 3584 2966 3190 
Q 3341 2797 3341 1997 
z
" transform="scale(0.015625)"/>
       <path id="DejaVuSans-74" d="M 1172 4494 
L 1172 3500 
L 2356 3500 
L 2356 3053 
L 1172 3053 
L 1172 1153 
Q 1172 725 1289 603 
Q 1406 481 1766 481 
L 2356 481 
L 2356 0 
L 1766 0 
Q 1100 0 847 248 
Q 594 497 594 1153 
L 594 3053 
L 172 3053 
L 172 3500 
L 594 3500 
L 594 4494 
L 1172 4494 
z
" transform="scale(0.015625)"/>
       <path id="DejaVuSans-69" d="M 603 3500 
L 1178 3500 
L 1178 0 
L 603 0 
L 603 3500 
z
M 603 4863 
L 1178 4863 
L 1178 4134 
L 603 4134 
L 603 4863 
z
" transform="scale(0.015625)"/>
       <path id="DejaVuSans-6f" d="M 1959 3097 
Q 1497 3097 1228 2736 
Q 959 2375 959 1747 
Q 959 1119 1226 758 
Q 1494 397 1959 397 
Q 2419 397 2687 759 
Q 2956 1122 2956 1747 
Q 2956 2369 2687 2733 
Q 2419 3097 1959 3097 
z
M 1959 3584 
Q 2709 3584 3137 3096 
Q 3566 2609 3566 1747 
Q 3566 888 3137 398 
Q 2709 -91 1959 -91 
Q 1206 -91 779 398 
Q 353 888 353 1747 
Q 353 2609 779 3096 
Q 1206 3584 1959 3584 
z
" transform="scale(0.015625)"/>
       <path id="DejaVuSans-73" d="M 2834 3397 
L 2834 2853 
Q 2591 2978 2328 3040 
Q 2066 3103 1784 3103 
Q 1356 3103 1142 2972 
Q 928 2841 928 2578 
Q 928 2378 1081 2264 
Q 1234 2150 1697 2047 
L 1894 2003 
Q 2506 1872 2764 1633 
Q 3022 1394 3022 966 
Q 3022 478 2636 193 
Q 2250 -91 1575 -91 
Q 1294 -91 989 -36 
Q 684 19 347 128 
L 347 722 
Q 666 556 975 473 
Q 1284 391 1588 391 
Q 1994 391 2212 530 
Q 2431 669 2431 922 
Q 2431 1156 2273 1281 
Q 2116 1406 1581 1522 
L 1381 1569 
Q 847 1681 609 1914 
Q 372 2147 372 2553 
Q 372 3047 722 3315 
Q 1072 3584 1716 3584 
Q 2034 3584 2315 3537 
Q 2597 3491 2834 3397 
z
" transform="scale(0.015625)"/>
      </defs>
      <use xlink:href="#DejaVuSans-47"/>
      <use xlink:href="#DejaVuSans-65" x="77.490234"/>
      <use xlink:href="#DejaVuSans-6e" x="139.013672"/>
      <use xlink:href="#DejaVuSans-65" x="202.392578"/>
      <use xlink:href="#DejaVuSans-72" x="263.916016"/>
      <use xlink:href="#DejaVuSans-61" x="305.029297"/>
      <use xlink:href="#DejaVuSans-74" x="366.308594"/>
      <use xlink:href="#DejaVuSans-69" x="405.517578"/>
      <use xlink:href="#DejaVuSans-6f" x="433.300781"/>
      <use xlink:href="#DejaVuSans-6e" x="494.482422"/>
      <use xlink:href="#DejaVuSans-73" x="557.861328"/>
     </g>
    </g>
   </g>
   <g id="matplotlib.axis_2">
    <g id="ytick_1">
     <g id="line2d_63">
      <path d="M 48.039375 248.361168 
L 382.839375 248.361168 
" clip-path="url(#p10061a9b5c)" style="fill: none; stroke: #b0b0b0; stroke-width: 0.5; stroke-linecap: square"/>
     </g>
     <g id="line2d_64">
      <defs>
       <path id="m5e5ca22157" d="M 0 0 
L 3 0 
" style="stroke: #000000; stroke-width: 0.5"/>
      </defs>
      <g>
       <use xlink:href="#m5e5ca22157" x="48.039375" y="248.361168" style="stroke: #000000; stroke-width: 0.5"/>
      </g>
     </g>
     <g id="line2d_65">
      <defs>
       <path id="m154b6d7e28" d="M 0 0 
L -3 0 
" style="stroke: #000000; stroke-width: 0.5"/>
      </defs>
      <g>
       <use xlink:href="#m154b6d7e28" x="382.839375" y="248.361168" style="stroke: #000000; stroke-width: 0.5"/>
      </g>
     </g>
     <g id="text_8">
      <!-- −10 -->
      <g transform="translate(19.21375 252.92023) scale(0.12 -0.12)">
       <defs>
        <path id="DejaVuSans-2212" d="M 678 2272 
L 4684 2272 
L 4684 1741 
L 678 1741 
L 678 2272 
z
" transform="scale(0.015625)"/>
       </defs>
       <use xlink:href="#DejaVuSans-2212"/>
       <use xlink:href="#DejaVuSans-31" x="83.789062"/>
       <use xlink:href="#DejaVuSans-30" x="147.412109"/>
      </g>
     </g>
    </g>
    <g id="ytick_2">
     <g id="line2d_66">
      <path d="M 48.039375 214.046581 
L 382.839375 214.046581 
" clip-path="url(#p10061a9b5c)" style="fill: none; stroke: #b0b0b0; stroke-width: 0.5; stroke-linecap: square"/>
     </g>
     <g id="line2d_67">
      <g>
       <use xlink:href="#m5e5ca22157" x="48.039375" y="214.046581" style="stroke: #000000; stroke-width: 0.5"/>
      </g>
     </g>
     <g id="line2d_68">
      <g>
       <use xlink:href="#m154b6d7e28" x="382.839375" y="214.046581" style="stroke: #000000; stroke-width: 0.5"/>
      </g>
     </g>
     <g id="text_9">
      <!-- −5 -->
      <g transform="translate(26.84875 218.605644) scale(0.12 -0.12)">
       <use xlink:href="#DejaVuSans-2212"/>
       <use xlink:href="#DejaVuSans-35" x="83.789062"/>
      </g>
     </g>
    </g>
    <g id="ytick_3">
     <g id="line2d_69">
      <path d="M 48.039375 179.731995 
L 382.839375 179.731995 
" clip-path="url(#p10061a9b5c)" style="fill: none; stroke: #b0b0b0; stroke-width: 0.5; stroke-linecap: square"/>
     </g>
     <g id="line2d_70">
      <g>
       <use xlink:href="#m5e5ca22157" x="48.039375" y="179.731995" style="stroke: #000000; stroke-width: 0.5"/>
      </g>
     </g>
     <g id="line2d_71">
      <g>
       <use xlink:href="#m154b6d7e28" x="382.839375" y="179.731995" style="stroke: #000000; stroke-width: 0.5"/>
      </g>
     </g>
     <g id="text_10">
      <!-- 0 -->
      <g transform="translate(36.904375 184.291057) scale(0.12 -0.12)">
       <use xlink:href="#DejaVuSans-30"/>
      </g>
     </g>
    </g>
    <g id="ytick_4">
     <g id="line2d_72">
      <path d="M 48.039375 145.417408 
L 382.839375 145.417408 
" clip-path="url(#p10061a9b5c)" style="fill: none; stroke: #b0b0b0; stroke-width: 0.5; stroke-linecap: square"/>
     </g>
     <g id="line2d_73">
      <g>
       <use xlink:href="#m5e5ca22157" x="48.039375" y="145.417408" style="stroke: #000000; stroke-width: 0.5"/>
      </g>
     </g>
     <g id="line2d_74">
      <g>
       <use xlink:href="#m154b6d7e28" x="382.839375" y="145.417408" style="stroke: #000000; stroke-width: 0.5"/>
      </g>
     </g>
     <g id="text_11">
      <!-- 5 -->
      <g transform="translate(36.904375 149.976471) scale(0.12 -0.12)">
       <use xlink:href="#DejaVuSans-35"/>
      </g>
     </g>
    </g>
    <g id="ytick_5">
     <g id="line2d_75">
      <path d="M 48.039375 111.102822 
L 382.839375 111.102822 
" clip-path="url(#p10061a9b5c)" style="fill: none; stroke: #b0b0b0; stroke-width: 0.5; stroke-linecap: square"/>
     </g>
     <g id="line2d_76">
      <g>
       <use xlink:href="#m5e5ca22157" x="48.039375" y="111.102822" style="stroke: #000000; stroke-width: 0.5"/>
      </g>
     </g>
     <g id="line2d_77">
      <g>
       <use xlink:href="#m154b6d7e28" x="382.839375" y="111.102822" style="stroke: #000000; stroke-width: 0.5"/>
      </g>
     </g>
     <g id="text_12">
      <!-- 10 -->
      <g transform="translate(29.269375 115.661884) scale(0.12 -0.12)">
       <use xlink:href="#DejaVuSans-31"/>
       <use xlink:href="#DejaVuSans-30" x="63.623047"/>
      </g>
     </g>
    </g>
    <g id="ytick_6">
     <g id="line2d_78">
      <path d="M 48.039375 76.788235 
L 382.839375 76.788235 
" clip-path="url(#p10061a9b5c)" style="fill: none; stroke: #b0b0b0; stroke-width: 0.5; stroke-linecap: square"/>
     </g>
     <g id="line2d_79">
      <g>
       <use xlink:href="#m5e5ca22157" x="48.039375" y="76.788235" style="stroke: #000000; stroke-width: 0.5"/>
      </g>
     </g>
     <g id="line2d_80">
      <g>
       <use xlink:href="#m154b6d7e28" x="382.839375" y="76.788235" style="stroke: #000000; stroke-width: 0.5"/>
      </g>
     </g>
     <g id="text_13">
      <!-- 15 -->
      <g transform="translate(29.269375 81.347298) scale(0.12 -0.12)">
       <use xlink:href="#DejaVuSans-31"/>
       <use xlink:href="#DejaVuSans-35" x="63.623047"/>
      </g>
     </g>
    </g>
    <g id="ytick_7">
     <g id="line2d_81">
      <path d="M 48.039375 42.473649 
L 382.839375 42.473649 
" clip-path="url(#p10061a9b5c)" style="fill: none; stroke: #b0b0b0; stroke-width: 0.5; stroke-linecap: square"/>
     </g>
     <g id="line2d_82">
      <g>
       <use xlink:href="#m5e5ca22157" x="48.039375" y="42.473649" style="stroke: #000000; stroke-width: 0.5"/>
      </g>
     </g>
     <g id="line2d_83">
      <g>
       <use xlink:href="#m154b6d7e28" x="382.839375" y="42.473649" style="stroke: #000000; stroke-width: 0.5"/>
      </g>
     </g>
     <g id="text_14">
      <!-- 20 -->
      <g transform="translate(29.269375 47.032711) scale(0.12 -0.12)">
       <use xlink:href="#DejaVuSans-32"/>
       <use xlink:href="#DejaVuSans-30" x="63.623047"/>
      </g>
     </g>
    </g>
    <g id="ytick_8">
     <g id="line2d_84">
      <path d="M 48.039375 8.159062 
L 382.839375 8.159062 
" clip-path="url(#p10061a9b5c)" style="fill: none; stroke: #b0b0b0; stroke-width: 0.5; stroke-linecap: square"/>
     </g>
     <g id="line2d_85">
      <g>
       <use xlink:href="#m5e5ca22157" x="48.039375" y="8.159062" style="stroke: #000000; stroke-width: 0.5"/>
      </g>
     </g>
     <g id="line2d_86">
      <g>
       <use xlink:href="#m154b6d7e28" x="382.839375" y="8.159062" style="stroke: #000000; stroke-width: 0.5"/>
      </g>
     </g>
     <g id="text_15">
      <!-- 25 -->
      <g transform="translate(29.269375 12.718125) scale(0.12 -0.12)">
       <use xlink:href="#DejaVuSans-32"/>
       <use xlink:href="#DejaVuSans-35" x="63.623047"/>
      </g>
     </g>
    </g>
    <g id="ytick_9">
     <g id="line2d_87">
      <defs>
       <path id="m4399e6ee9c" d="M 0 0 
L 1.5 0 
" style="stroke: #000000; stroke-width: 0.5"/>
      </defs>
      <g>
       <use xlink:href="#m4399e6ee9c" x="48.039375" y="255.224085" style="stroke: #000000; stroke-width: 0.5"/>
      </g>
     </g>
     <g id="line2d_88">
      <defs>
       <path id="mf5394fe811" d="M 0 0 
L -1.5 0 
" style="stroke: #000000; stroke-width: 0.5"/>
      </defs>
      <g>
       <use xlink:href="#mf5394fe811" x="382.839375" y="255.224085" style="stroke: #000000; stroke-width: 0.5"/>
      </g>
     </g>
    </g>
    <g id="ytick_10">
     <g id="line2d_89">
      <g>
       <use xlink:href="#m4399e6ee9c" x="48.039375" y="241.498251" style="stroke: #000000; stroke-width: 0.5"/>
      </g>
     </g>
     <g id="line2d_90">
      <g>
       <use xlink:href="#mf5394fe811" x="382.839375" y="241.498251" style="stroke: #000000; stroke-width: 0.5"/>
      </g>
     </g>
    </g>
    <g id="ytick_11">
     <g id="line2d_91">
      <g>
       <use xlink:href="#m4399e6ee9c" x="48.039375" y="234.635333" style="stroke: #000000; stroke-width: 0.5"/>
      </g>
     </g>
     <g id="line2d_92">
      <g>
       <use xlink:href="#mf5394fe811" x="382.839375" y="234.635333" style="stroke: #000000; stroke-width: 0.5"/>
      </g>
     </g>
    </g>
    <g id="ytick_12">
     <g id="line2d_93">
      <g>
       <use xlink:href="#m4399e6ee9c" x="48.039375" y="227.772416" style="stroke: #000000; stroke-width: 0.5"/>
      </g>
     </g>
     <g id="line2d_94">
      <g>
       <use xlink:href="#mf5394fe811" x="382.839375" y="227.772416" style="stroke: #000000; stroke-width: 0.5"/>
      </g>
     </g>
    </g>
    <g id="ytick_13">
     <g id="line2d_95">
      <g>
       <use xlink:href="#m4399e6ee9c" x="48.039375" y="220.909499" style="stroke: #000000; stroke-width: 0.5"/>
      </g>
     </g>
     <g id="line2d_96">
      <g>
       <use xlink:href="#mf5394fe811" x="382.839375" y="220.909499" style="stroke: #000000; stroke-width: 0.5"/>
      </g>
     </g>
    </g>
    <g id="ytick_14">
     <g id="line2d_97">
      <g>
       <use xlink:href="#m4399e6ee9c" x="48.039375" y="207.183664" style="stroke: #000000; stroke-width: 0.5"/>
      </g>
     </g>
     <g id="line2d_98">
      <g>
       <use xlink:href="#mf5394fe811" x="382.839375" y="207.183664" style="stroke: #000000; stroke-width: 0.5"/>
      </g>
     </g>
    </g>
    <g id="ytick_15">
     <g id="line2d_99">
      <g>
       <use xlink:href="#m4399e6ee9c" x="48.039375" y="200.320747" style="stroke: #000000; stroke-width: 0.5"/>
      </g>
     </g>
     <g id="line2d_100">
      <g>
       <use xlink:href="#mf5394fe811" x="382.839375" y="200.320747" style="stroke: #000000; stroke-width: 0.5"/>
      </g>
     </g>
    </g>
    <g id="ytick_16">
     <g id="line2d_101">
      <g>
       <use xlink:href="#m4399e6ee9c" x="48.039375" y="193.457829" style="stroke: #000000; stroke-width: 0.5"/>
      </g>
     </g>
     <g id="line2d_102">
      <g>
       <use xlink:href="#mf5394fe811" x="382.839375" y="193.457829" style="stroke: #000000; stroke-width: 0.5"/>
      </g>
     </g>
    </g>
    <g id="ytick_17">
     <g id="line2d_103">
      <g>
       <use xlink:href="#m4399e6ee9c" x="48.039375" y="186.594912" style="stroke: #000000; stroke-width: 0.5"/>
      </g>
     </g>
     <g id="line2d_104">
      <g>
       <use xlink:href="#mf5394fe811" x="382.839375" y="186.594912" style="stroke: #000000; stroke-width: 0.5"/>
      </g>
     </g>
    </g>
    <g id="ytick_18">
     <g id="line2d_105">
      <g>
       <use xlink:href="#m4399e6ee9c" x="48.039375" y="172.869078" style="stroke: #000000; stroke-width: 0.5"/>
      </g>
     </g>
     <g id="line2d_106">
      <g>
       <use xlink:href="#mf5394fe811" x="382.839375" y="172.869078" style="stroke: #000000; stroke-width: 0.5"/>
      </g>
     </g>
    </g>
    <g id="ytick_19">
     <g id="line2d_107">
      <g>
       <use xlink:href="#m4399e6ee9c" x="48.039375" y="166.00616" style="stroke: #000000; stroke-width: 0.5"/>
      </g>
     </g>
     <g id="line2d_108">
      <g>
       <use xlink:href="#mf5394fe811" x="382.839375" y="166.00616" style="stroke: #000000; stroke-width: 0.5"/>
      </g>
     </g>
    </g>
    <g id="ytick_20">
     <g id="line2d_109">
      <g>
       <use xlink:href="#m4399e6ee9c" x="48.039375" y="159.143243" style="stroke: #000000; stroke-width: 0.5"/>
      </g>
     </g>
     <g id="line2d_110">
      <g>
       <use xlink:href="#mf5394fe811" x="382.839375" y="159.143243" style="stroke: #000000; stroke-width: 0.5"/>
      </g>
     </g>
    </g>
    <g id="ytick_21">
     <g id="line2d_111">
      <g>
       <use xlink:href="#m4399e6ee9c" x="48.039375" y="152.280326" style="stroke: #000000; stroke-width: 0.5"/>
      </g>
     </g>
     <g id="line2d_112">
      <g>
       <use xlink:href="#mf5394fe811" x="382.839375" y="152.280326" style="stroke: #000000; stroke-width: 0.5"/>
      </g>
     </g>
    </g>
    <g id="ytick_22">
     <g id="line2d_113">
      <g>
       <use xlink:href="#m4399e6ee9c" x="48.039375" y="138.554491" style="stroke: #000000; stroke-width: 0.5"/>
      </g>
     </g>
     <g id="line2d_114">
      <g>
       <use xlink:href="#mf5394fe811" x="382.839375" y="138.554491" style="stroke: #000000; stroke-width: 0.5"/>
      </g>
     </g>
    </g>
    <g id="ytick_23">
     <g id="line2d_115">
      <g>
       <use xlink:href="#m4399e6ee9c" x="48.039375" y="131.691574" style="stroke: #000000; stroke-width: 0.5"/>
      </g>
     </g>
     <g id="line2d_116">
      <g>
       <use xlink:href="#mf5394fe811" x="382.839375" y="131.691574" style="stroke: #000000; stroke-width: 0.5"/>
      </g>
     </g>
    </g>
    <g id="ytick_24">
     <g id="line2d_117">
      <g>
       <use xlink:href="#m4399e6ee9c" x="48.039375" y="124.828657" style="stroke: #000000; stroke-width: 0.5"/>
      </g>
     </g>
     <g id="line2d_118">
      <g>
       <use xlink:href="#mf5394fe811" x="382.839375" y="124.828657" style="stroke: #000000; stroke-width: 0.5"/>
      </g>
     </g>
    </g>
    <g id="ytick_25">
     <g id="line2d_119">
      <g>
       <use xlink:href="#m4399e6ee9c" x="48.039375" y="117.965739" style="stroke: #000000; stroke-width: 0.5"/>
      </g>
     </g>
     <g id="line2d_120">
      <g>
       <use xlink:href="#mf5394fe811" x="382.839375" y="117.965739" style="stroke: #000000; stroke-width: 0.5"/>
      </g>
     </g>
    </g>
    <g id="ytick_26">
     <g id="line2d_121">
      <g>
       <use xlink:href="#m4399e6ee9c" x="48.039375" y="104.239905" style="stroke: #000000; stroke-width: 0.5"/>
      </g>
     </g>
     <g id="line2d_122">
      <g>
       <use xlink:href="#mf5394fe811" x="382.839375" y="104.239905" style="stroke: #000000; stroke-width: 0.5"/>
      </g>
     </g>
    </g>
    <g id="ytick_27">
     <g id="line2d_123">
      <g>
       <use xlink:href="#m4399e6ee9c" x="48.039375" y="97.376987" style="stroke: #000000; stroke-width: 0.5"/>
      </g>
     </g>
     <g id="line2d_124">
      <g>
       <use xlink:href="#mf5394fe811" x="382.839375" y="97.376987" style="stroke: #000000; stroke-width: 0.5"/>
      </g>
     </g>
    </g>
    <g id="ytick_28">
     <g id="line2d_125">
      <g>
       <use xlink:href="#m4399e6ee9c" x="48.039375" y="90.51407" style="stroke: #000000; stroke-width: 0.5"/>
      </g>
     </g>
     <g id="line2d_126">
      <g>
       <use xlink:href="#mf5394fe811" x="382.839375" y="90.51407" style="stroke: #000000; stroke-width: 0.5"/>
      </g>
     </g>
    </g>
    <g id="ytick_29">
     <g id="line2d_127">
      <g>
       <use xlink:href="#m4399e6ee9c" x="48.039375" y="83.651153" style="stroke: #000000; stroke-width: 0.5"/>
      </g>
     </g>
     <g id="line2d_128">
      <g>
       <use xlink:href="#mf5394fe811" x="382.839375" y="83.651153" style="stroke: #000000; stroke-width: 0.5"/>
      </g>
     </g>
    </g>
    <g id="ytick_30">
     <g id="line2d_129">
      <g>
       <use xlink:href="#m4399e6ee9c" x="48.039375" y="69.925318" style="stroke: #000000; stroke-width: 0.5"/>
      </g>
     </g>
     <g id="line2d_130">
      <g>
       <use xlink:href="#mf5394fe811" x="382.839375" y="69.925318" style="stroke: #000000; stroke-width: 0.5"/>
      </g>
     </g>
    </g>
    <g id="ytick_31">
     <g id="line2d_131">
      <g>
       <use xlink:href="#m4399e6ee9c" x="48.039375" y="63.062401" style="stroke: #000000; stroke-width: 0.5"/>
      </g>
     </g>
     <g id="line2d_132">
      <g>
       <use xlink:href="#mf5394fe811" x="382.839375" y="63.062401" style="stroke: #000000; stroke-width: 0.5"/>
      </g>
     </g>
    </g>
    <g id="ytick_32">
     <g id="line2d_133">
      <g>
       <use xlink:href="#m4399e6ee9c" x="48.039375" y="56.199484" style="stroke: #000000; stroke-width: 0.5"/>
      </g>
     </g>
     <g id="line2d_134">
      <g>
       <use xlink:href="#mf5394fe811" x="382.839375" y="56.199484" style="stroke: #000000; stroke-width: 0.5"/>
      </g>
     </g>
    </g>
    <g id="ytick_33">
     <g id="line2d_135">
      <g>
       <use xlink:href="#m4399e6ee9c" x="48.039375" y="49.336566" style="stroke: #000000; stroke-width: 0.5"/>
      </g>
     </g>
     <g id="line2d_136">
      <g>
       <use xlink:href="#mf5394fe811" x="382.839375" y="49.336566" style="stroke: #000000; stroke-width: 0.5"/>
      </g>
     </g>
    </g>
    <g id="ytick_34">
     <g id="line2d_137">
      <g>
       <use xlink:href="#m4399e6ee9c" x="48.039375" y="35.610732" style="stroke: #000000; stroke-width: 0.5"/>
      </g>
     </g>
     <g id="line2d_138">
      <g>
       <use xlink:href="#mf5394fe811" x="382.839375" y="35.610732" style="stroke: #000000; stroke-width: 0.5"/>
      </g>
     </g>
    </g>
    <g id="ytick_35">
     <g id="line2d_139">
      <g>
       <use xlink:href="#m4399e6ee9c" x="48.039375" y="28.747814" style="stroke: #000000; stroke-width: 0.5"/>
      </g>
     </g>
     <g id="line2d_140">
      <g>
       <use xlink:href="#mf5394fe811" x="382.839375" y="28.747814" style="stroke: #000000; stroke-width: 0.5"/>
      </g>
     </g>
    </g>
    <g id="ytick_36">
     <g id="line2d_141">
      <g>
       <use xlink:href="#m4399e6ee9c" x="48.039375" y="21.884897" style="stroke: #000000; stroke-width: 0.5"/>
      </g>
     </g>
     <g id="line2d_142">
      <g>
       <use xlink:href="#mf5394fe811" x="382.839375" y="21.884897" style="stroke: #000000; stroke-width: 0.5"/>
      </g>
     </g>
    </g>
    <g id="ytick_37">
     <g id="line2d_143">
      <g>
       <use xlink:href="#m4399e6ee9c" x="48.039375" y="15.02198" style="stroke: #000000; stroke-width: 0.5"/>
      </g>
     </g>
     <g id="line2d_144">
      <g>
       <use xlink:href="#mf5394fe811" x="382.839375" y="15.02198" style="stroke: #000000; stroke-width: 0.5"/>
      </g>
     </g>
    </g>
    <g id="text_16">
     <!-- Fitness -->
     <g transform="translate(12.718125 153.183965) rotate(-90) scale(0.12 -0.12)">
      <defs>
       <path id="DejaVuSans-46" d="M 628 4666 
L 3309 4666 
L 3309 4134 
L 1259 4134 
L 1259 2759 
L 3109 2759 
L 3109 2228 
L 1259 2228 
L 1259 0 
L 628 0 
L 628 4666 
z
" transform="scale(0.015625)"/>
      </defs>
      <use xlink:href="#DejaVuSans-46"/>
      <use xlink:href="#DejaVuSans-69" x="50.269531"/>
      <use xlink:href="#DejaVuSans-74" x="78.052734"/>
      <use xlink:href="#DejaVuSans-6e" x="117.261719"/>
      <use xlink:href="#DejaVuSans-65" x="180.640625"/>
      <use xlink:href="#DejaVuSans-73" x="242.164062"/>
      <use xlink:href="#DejaVuSans-73" x="294.263672"/>
     </g>
    </g>
   </g>
   <g id="line2d_145">
    <path d="M 63.257557 76.730622 
L 63.867504 64.15248 
L 64.477451 63.082447 
L 65.087398 41.639656 
L 69.357028 41.637602 
L 69.966976 37.92891 
L 71.18687 37.928376 
L 71.796817 37.370032 
L 72.406764 37.368159 
L 73.016711 29.246566 
L 73.626659 27.175074 
L 82.165919 27.168956 
L 82.775866 26.801638 
L 84.605708 26.798213 
L 85.215655 26.17375 
L 86.435549 26.136083 
L 87.045496 25.044065 
L 88.875338 25.043519 
L 89.485285 24.221776 
L 91.925074 24.221706 
L 92.535021 24.0666 
L 93.144968 23.493009 
L 96.804651 23.438346 
L 97.414598 23.005251 
L 99.24444 23.000087 
L 99.854387 22.68347 
L 102.294176 22.683865 
L 102.904123 22.194073 
L 106.563806 22.183704 
L 107.173753 21.746161 
L 109.613542 21.745281 
L 110.223489 21.590889 
L 110.833436 21.108487 
L 115.713013 21.003414 
L 116.32296 20.805408 
L 119.372696 20.786883 
L 119.982643 20.466795 
L 147.430266 20.428694 
L 153.529738 20.435336 
L 157.799368 20.421733 
L 159.019262 20.40894 
L 160.849104 20.353525 
L 202.935458 20.290011 
L 229.163186 20.100665 
L 232.822869 20.102081 
L 233.432816 19.797646 
L 236.482552 19.814332 
L 247.461601 19.742794 
L 248.681496 19.780221 
L 252.951126 19.759468 
L 253.561073 19.716946 
L 254.17102 19.789114 
L 255.390914 19.711288 
L 256.610809 19.759887 
L 257.830703 19.726066 
L 259.050597 19.739963 
L 262.100333 19.791285 
L 262.71028 19.706372 
L 266.369963 19.801389 
L 266.979911 19.794699 
L 267.589858 19.656572 
L 268.199805 19.795015 
L 285.888273 19.708018 
L 287.108167 19.75835 
L 287.718114 19.675398 
L 290.76785 19.725486 
L 291.987744 19.752714 
L 292.597692 19.605865 
L 293.207639 19.753432 
L 306.016529 19.729424 
L 306.626476 19.124529 
L 315.775684 19.116982 
L 367.621193 19.058647 
L 367.621193 19.058647 
" clip-path="url(#p10061a9b5c)" style="fill: none; stroke: #000000; stroke-linecap: square"/>
   </g>
   <g id="line2d_146">
    <path d="M 63.257557 180.160084 
L 63.867504 160.921347 
L 64.477451 157.554093 
L 65.087398 152.757783 
L 65.697345 143.360336 
L 66.91724 149.006686 
L 67.527187 153.680664 
L 68.747081 139.387292 
L 69.357028 123.110052 
L 69.966976 124.655055 
L 70.576923 126.634422 
L 71.18687 127.248273 
L 71.796817 112.032922 
L 72.406764 112.432225 
L 73.016711 108.41246 
L 73.626659 84.209431 
L 74.236606 94.289669 
L 74.846553 87.814629 
L 75.4565 87.030371 
L 76.066447 94.062842 
L 76.676394 90.217176 
L 77.286342 101.833608 
L 77.896289 86.280215 
L 78.506236 85.570327 
L 79.116183 95.205704 
L 79.72613 78.705336 
L 80.336077 76.536187 
L 80.946025 73.912666 
L 81.555972 67.201719 
L 82.165919 64.235764 
L 82.775866 66.147073 
L 83.385813 58.876259 
L 83.99576 60.245832 
L 84.605708 54.127544 
L 85.215655 52.112142 
L 85.825602 43.348 
L 86.435549 52.733694 
L 87.045496 48.275345 
L 87.655444 48.431092 
L 88.265391 51.799309 
L 88.875338 60.137678 
L 89.485285 50.701705 
L 90.095232 46.337644 
L 90.705179 47.941303 
L 91.315127 56.344023 
L 91.925074 44.374704 
L 92.535021 57.29473 
L 93.144968 45.100381 
L 93.754915 47.798545 
L 94.364862 44.158269 
L 94.97481 58.038734 
L 95.584757 49.860045 
L 96.194704 58.875381 
L 96.804651 56.692293 
L 97.414598 53.959217 
L 98.024545 54.858896 
L 98.634493 43.450617 
L 99.24444 38.213166 
L 99.854387 37.611567 
L 100.464334 39.332076 
L 101.074281 39.337758 
L 101.684228 43.348008 
L 102.294176 41.384886 
L 102.904123 32.980447 
L 103.51407 30.001593 
L 104.124017 31.149391 
L 104.733964 34.811294 
L 105.343911 41.655411 
L 105.953859 47.080524 
L 106.563806 40.912048 
L 107.173753 40.027718 
L 107.7837 43.071599 
L 108.393647 40.927676 
L 109.003594 34.71868 
L 109.613542 37.592765 
L 110.223489 33.93436 
L 110.833436 36.794787 
L 111.443383 32.500835 
L 112.05333 35.597354 
L 112.663277 45.251047 
L 113.273225 45.239295 
L 113.883172 41.5537 
L 114.493119 48.209162 
L 115.103066 47.546669 
L 115.713013 44.291148 
L 116.32296 43.933782 
L 116.932908 34.986043 
L 117.542855 38.324315 
L 118.152802 44.163916 
L 118.762749 35.183438 
L 119.372696 34.558005 
L 119.982643 33.24251 
L 120.592591 36.610262 
L 121.202538 42.112336 
L 121.812485 34.35348 
L 122.422432 31.191461 
L 123.032379 32.663073 
L 123.642326 29.287182 
L 124.252274 35.397898 
L 124.862221 38.610874 
L 125.472168 33.779991 
L 126.082115 40.341111 
L 126.692062 37.866174 
L 127.302009 38.045829 
L 127.911957 34.408933 
L 128.521904 34.464206 
L 129.131851 25.793955 
L 129.741798 22.462509 
L 130.351745 26.748486 
L 130.961692 28.684979 
L 131.57164 27.978277 
L 132.181587 32.080558 
L 132.791534 35.383104 
L 134.011428 33.089253 
L 134.621375 33.115052 
L 135.231323 29.437195 
L 135.84127 27.615288 
L 136.451217 31.516265 
L 137.061164 30.311886 
L 137.671111 35.479918 
L 138.281058 37.632176 
L 138.891006 36.72989 
L 139.500953 34.557784 
L 140.1109 37.901476 
L 140.720847 43.787344 
L 141.330794 30.621165 
L 141.940741 34.26416 
L 142.550689 29.815338 
L 143.160636 32.23193 
L 143.770583 30.53475 
L 144.38053 40.594932 
L 144.990477 46.457181 
L 145.600424 38.49235 
L 146.210372 39.172096 
L 146.820319 37.876961 
L 147.430266 28.934617 
L 148.040213 31.662441 
L 148.65016 39.822609 
L 149.870055 31.870737 
L 150.480002 34.639609 
L 151.089949 30.40426 
L 151.699896 31.276517 
L 152.309843 27.374882 
L 152.91979 27.436779 
L 153.529738 37.836843 
L 154.139685 32.95102 
L 154.749632 43.17666 
L 155.359579 47.437368 
L 155.969526 37.185521 
L 156.579473 40.980651 
L 157.189421 43.793251 
L 157.799368 50.825545 
L 158.409315 49.797092 
L 159.019262 38.759165 
L 159.629209 35.616335 
L 160.239156 41.548311 
L 160.849104 34.395668 
L 161.459051 35.189432 
L 162.068998 35.74857 
L 162.678945 31.476555 
L 163.288892 34.385822 
L 164.508787 30.23345 
L 165.118734 31.440246 
L 165.728681 35.418782 
L 166.338628 38.019295 
L 166.948575 43.627235 
L 167.558522 32.924119 
L 168.16847 35.436039 
L 168.778417 36.516006 
L 169.998311 42.362206 
L 170.608258 37.081254 
L 171.218205 39.821658 
L 171.828153 41.321943 
L 172.4381 34.589396 
L 173.048047 42.490956 
L 173.657994 33.447555 
L 174.267941 34.024347 
L 174.877888 32.67853 
L 175.487836 29.470064 
L 176.097783 23.709072 
L 176.70773 27.169107 
L 177.317677 29.81014 
L 177.927624 35.949898 
L 178.537571 34.460938 
L 179.147519 32.455012 
L 179.757466 32.894988 
L 180.367413 36.364131 
L 180.97736 42.083333 
L 181.587307 39.961991 
L 182.197254 28.50478 
L 182.807202 32.446318 
L 183.417149 37.293085 
L 184.027096 43.335584 
L 184.637043 37.608333 
L 185.24699 40.288622 
L 185.856937 41.385469 
L 186.466885 33.607585 
L 187.076832 38.625758 
L 187.686779 31.052744 
L 188.296726 26.598956 
L 188.906673 29.607639 
L 189.51662 28.953936 
L 190.126568 37.064647 
L 190.736515 30.039142 
L 191.346462 35.642943 
L 191.956409 35.776942 
L 192.566356 33.21013 
L 193.176303 34.30907 
L 193.786251 33.10472 
L 194.396198 38.929901 
L 195.006145 37.478883 
L 195.616092 33.125358 
L 196.226039 41.66752 
L 197.445934 45.999038 
L 198.055881 47.8302 
L 198.665828 37.003164 
L 199.275775 39.99407 
L 199.885722 41.031895 
L 200.495669 43.514951 
L 201.105617 36.762314 
L 201.715564 36.084246 
L 202.325511 35.227097 
L 202.935458 46.400561 
L 203.545405 43.137255 
L 204.155352 48.26949 
L 204.7653 47.469547 
L 205.985194 38.626053 
L 206.595141 31.865407 
L 207.815035 26.629916 
L 208.424983 29.921269 
L 209.03493 33.824686 
L 209.644877 28.520864 
L 210.254824 34.311492 
L 210.864771 23.623648 
L 211.474718 32.508403 
L 212.084666 38.597413 
L 212.694613 35.607457 
L 213.30456 45.327031 
L 213.914507 38.58828 
L 214.524454 33.141634 
L 215.134401 35.45566 
L 215.744349 40.160218 
L 216.354296 36.02316 
L 216.964243 33.571163 
L 217.57419 29.452768 
L 218.184137 34.655249 
L 218.794084 42.640559 
L 219.404032 41.152105 
L 220.013979 40.113218 
L 220.623926 36.709331 
L 221.233873 29.617454 
L 221.84382 28.554503 
L 222.453767 30.57882 
L 223.063715 38.799687 
L 223.673662 32.194413 
L 224.283609 31.935897 
L 224.893556 30.896626 
L 225.503503 31.305068 
L 226.11345 35.660748 
L 226.723398 34.172317 
L 227.333345 26.950213 
L 227.943292 32.412715 
L 228.553239 25.27597 
L 229.163186 27.074024 
L 229.773133 35.555734 
L 230.383081 29.052779 
L 230.993028 34.930736 
L 231.602975 31.088752 
L 232.822869 32.480766 
L 233.432816 37.940849 
L 234.042764 35.60557 
L 234.652711 26.479921 
L 235.262658 34.909834 
L 235.872605 35.109042 
L 236.482552 41.338043 
L 237.092499 30.016915 
L 237.702447 27.86813 
L 238.312394 36.21178 
L 238.922341 40.818849 
L 239.532288 40.916495 
L 240.142235 44.266231 
L 240.752182 40.375578 
L 241.36213 41.364965 
L 241.972077 36.58212 
L 242.582024 36.545344 
L 243.191971 35.001082 
L 243.801918 32.354339 
L 245.021813 39.037355 
L 245.63176 32.498505 
L 246.241707 37.38078 
L 246.851654 27.522311 
L 247.461601 29.119003 
L 248.071548 35.093662 
L 248.681496 24.918008 
L 249.291443 25.088142 
L 249.90139 22.734622 
L 250.511337 23.607461 
L 251.121284 32.653036 
L 251.731231 31.572033 
L 252.341179 32.752945 
L 252.951126 37.400087 
L 253.561073 31.872313 
L 254.17102 32.75856 
L 254.780967 38.685944 
L 255.390914 41.886273 
L 256.000862 43.088864 
L 256.610809 49.396326 
L 257.220756 50.853439 
L 257.830703 57.606765 
L 258.44065 46.65366 
L 259.050597 41.393024 
L 259.660545 40.167907 
L 260.880439 33.682958 
L 262.100333 31.351088 
L 262.71028 31.119807 
L 263.320228 27.674055 
L 263.930175 33.899322 
L 264.540122 29.646272 
L 265.150069 37.566375 
L 265.760016 38.667312 
L 266.369963 33.983038 
L 266.979911 31.454163 
L 267.589858 35.293616 
L 268.199805 45.847457 
L 268.809752 51.899671 
L 269.419699 50.339397 
L 270.029646 41.46621 
L 270.639594 36.393623 
L 271.249541 36.400143 
L 271.859488 35.566299 
L 272.469435 35.686313 
L 273.079382 40.604818 
L 273.689329 34.818259 
L 274.909224 29.509522 
L 275.519171 34.465873 
L 276.129118 33.450189 
L 276.739065 38.51043 
L 277.349012 47.027764 
L 279.178854 34.819018 
L 279.788801 39.089465 
L 280.398748 34.497341 
L 281.008695 34.348357 
L 281.618643 46.310929 
L 282.22859 43.368966 
L 282.838537 48.350495 
L 283.448484 33.303969 
L 284.058431 34.952337 
L 284.668378 37.133758 
L 285.278326 46.550854 
L 285.888273 46.089484 
L 287.108167 36.770801 
L 287.718114 36.005337 
L 288.328061 49.235344 
L 288.938009 38.83209 
L 289.547956 43.876969 
L 290.157903 40.037248 
L 290.76785 39.572858 
L 291.987744 35.969617 
L 292.597692 26.148735 
L 293.207639 28.002856 
L 293.817586 32.013461 
L 294.427533 35.175826 
L 295.03748 32.58665 
L 295.647427 33.340299 
L 296.257375 27.500866 
L 296.867322 31.263168 
L 298.087216 30.51485 
L 298.697163 32.928753 
L 299.30711 39.316823 
L 299.917058 44.227305 
L 300.527005 54.637674 
L 301.136952 51.208504 
L 301.746899 60.779309 
L 302.356846 58.006588 
L 302.966793 60.622633 
L 303.576741 49.571891 
L 304.186688 42.792359 
L 304.796635 41.882593 
L 305.406582 34.110382 
L 306.016529 33.428648 
L 306.626476 32.495935 
L 307.236424 38.020881 
L 307.846371 28.294522 
L 308.456318 27.177996 
L 309.066265 33.661055 
L 309.676212 28.143287 
L 310.286159 32.046745 
L 310.896107 37.138232 
L 311.506054 26.551487 
L 312.116001 29.162127 
L 312.725948 30.738639 
L 313.335895 33.088387 
L 313.945842 37.935641 
L 314.55579 44.964658 
L 315.165737 36.572624 
L 315.775684 37.669742 
L 316.385631 36.562974 
L 316.995578 26.272917 
L 317.605525 28.364011 
L 318.215473 37.660507 
L 318.82542 34.053265 
L 319.435367 36.335033 
L 320.045314 35.499273 
L 320.655261 30.922065 
L 321.265208 32.777878 
L 321.875156 31.982602 
L 322.485103 27.982634 
L 323.09505 35.220991 
L 323.704997 35.157524 
L 324.314944 28.904855 
L 324.924891 32.693464 
L 325.534839 34.886734 
L 326.144786 32.992031 
L 326.754733 47.772353 
L 327.36468 42.742243 
L 327.974627 44.727619 
L 328.584574 50.658177 
L 329.194522 43.077966 
L 329.804469 33.435842 
L 330.414416 31.410219 
L 331.024363 30.237851 
L 331.63431 35.910875 
L 332.244257 28.452436 
L 332.854205 23.728808 
L 333.464152 24.046203 
L 334.074099 25.713402 
L 334.684046 26.640651 
L 335.293993 27.971331 
L 335.90394 26.470306 
L 336.513888 29.74904 
L 337.123835 28.797591 
L 337.733782 24.887296 
L 338.343729 34.989291 
L 338.953676 41.161293 
L 339.563623 43.746854 
L 340.173571 42.820147 
L 340.783518 42.551451 
L 341.393465 45.710003 
L 342.003412 36.083609 
L 342.613359 48.992037 
L 343.223306 55.153687 
L 344.443201 29.758967 
L 345.053148 33.305959 
L 345.663095 35.099306 
L 346.273042 37.583193 
L 346.88299 38.997806 
L 347.492937 38.371396 
L 348.102884 31.118259 
L 348.712831 36.487109 
L 349.322778 34.399139 
L 349.932725 33.418815 
L 350.542673 45.965003 
L 351.15262 47.815931 
L 351.762567 51.374429 
L 352.372514 68.278028 
L 353.592408 44.563654 
L 354.202356 34.130784 
L 354.812303 35.098713 
L 355.42225 26.653825 
L 356.032197 28.152044 
L 356.642144 33.50035 
L 357.252091 41.388919 
L 357.862039 42.052981 
L 358.471986 33.233289 
L 359.081933 38.876137 
L 359.69188 45.631223 
L 360.911774 26.64259 
L 361.521722 33.45389 
L 362.131669 29.420717 
L 362.741616 39.581425 
L 363.351563 35.822895 
L 363.96151 42.764749 
L 364.571457 38.232378 
L 365.181405 40.880122 
L 366.401299 44.228841 
L 367.621193 36.299393 
L 367.621193 36.299393 
" clip-path="url(#p10061a9b5c)" style="fill: none; stroke-dasharray: 3.7,1.6; stroke-dashoffset: 0; stroke: #000000"/>
   </g>
   <g id="patch_3">
    <path d="M 48.039375 257.14334 
L 48.039375 7.66334 
" style="fill: none; stroke: #000000; stroke-width: 0.5; stroke-linejoin: miter; stroke-linecap: square"/>
   </g>
   <g id="patch_4">
    <path d="M 382.839375 257.14334 
L 382.839375 7.66334 
" style="fill: none; stroke: #000000; stroke-width: 0.5; stroke-linejoin: miter; stroke-linecap: square"/>
   </g>
   <g id="patch_5">
    <path d="M 48.039375 257.14334 
L 382.839375 257.14334 
" style="fill: none; stroke: #000000; stroke-width: 0.5; stroke-linejoin: miter; stroke-linecap: square"/>
   </g>
   <g id="patch_6">
    <path d="M 48.039375 7.66334 
L 382.839375 7.66334 
" style="fill: none; stroke: #000000; stroke-width: 0.5; stroke-linejoin: miter; stroke-linecap: square"/>
   </g>
   <g id="legend_1">
    <g id="patch_7">
     <path d="M 256.633125 251.14334 
L 374.439375 251.14334 
Q 376.839375 251.14334 376.839375 248.74334 
L 376.839375 197.10209 
Q 376.839375 194.70209 374.439375 194.70209 
L 256.633125 194.70209 
Q 254.233125 194.70209 254.233125 197.10209 
L 254.233125 248.74334 
Q 254.233125 251.14334 256.633125 251.14334 
z
" style="fill: #ffffff; opacity: 0.8; stroke: #cccccc; stroke-linejoin: miter"/>
    </g>
    <g id="line2d_147">
     <path d="M 259.033125 204.420215 
L 271.033125 204.420215 
L 283.033125 204.420215 
" style="fill: none; stroke: #000000; stroke-linecap: square"/>
    </g>
    <g id="text_17">
     <!-- Max fitness -->
     <g transform="translate(292.633125 208.620215) scale(0.12 -0.12)">
      <defs>
       <path id="DejaVuSans-4d" d="M 628 4666 
L 1569 4666 
L 2759 1491 
L 3956 4666 
L 4897 4666 
L 4897 0 
L 4281 0 
L 4281 4097 
L 3078 897 
L 2444 897 
L 1241 4097 
L 1241 0 
L 628 0 
L 628 4666 
z
" transform="scale(0.015625)"/>
       <path id="DejaVuSans-78" d="M 3513 3500 
L 2247 1797 
L 3578 0 
L 2900 0 
L 1881 1375 
L 863 0 
L 184 0 
L 1544 1831 
L 300 3500 
L 978 3500 
L 1906 2253 
L 2834 3500 
L 3513 3500 
z
" transform="scale(0.015625)"/>
       <path id="DejaVuSans-20" transform="scale(0.015625)"/>
       <path id="DejaVuSans-66" d="M 2375 4863 
L 2375 4384 
L 1825 4384 
Q 1516 4384 1395 4259 
Q 1275 4134 1275 3809 
L 1275 3500 
L 2222 3500 
L 2222 3053 
L 1275 3053 
L 1275 0 
L 697 0 
L 697 3053 
L 147 3053 
L 147 3500 
L 697 3500 
L 697 3744 
Q 697 4328 969 4595 
Q 1241 4863 1831 4863 
L 2375 4863 
z
" transform="scale(0.015625)"/>
      </defs>
      <use xlink:href="#DejaVuSans-4d"/>
      <use xlink:href="#DejaVuSans-61" x="86.279297"/>
      <use xlink:href="#DejaVuSans-78" x="147.558594"/>
      <use xlink:href="#DejaVuSans-20" x="206.738281"/>
      <use xlink:href="#DejaVuSans-66" x="238.525391"/>
      <use xlink:href="#DejaVuSans-69" x="273.730469"/>
      <use xlink:href="#DejaVuSans-74" x="301.513672"/>
      <use xlink:href="#DejaVuSans-6e" x="340.722656"/>
      <use xlink:href="#DejaVuSans-65" x="404.101562"/>
      <use xlink:href="#DejaVuSans-73" x="465.625"/>
      <use xlink:href="#DejaVuSans-73" x="517.724609"/>
     </g>
    </g>
    <g id="patch_8">
     <path d="M 259.033125 226.233965 
L 283.033125 226.233965 
L 283.033125 217.833965 
L 259.033125 217.833965 
z
" style="fill: #0000ff; fill-opacity: 0.2; stroke: #0000ff; stroke-opacity: 0.2; stroke-linejoin: miter"/>
    </g>
    <g id="text_18">
     <!-- Top 90% -->
     <g transform="translate(292.633125 226.233965) scale(0.12 -0.12)">
      <defs>
       <path id="DejaVuSans-54" d="M -19 4666 
L 3928 4666 
L 3928 4134 
L 2272 4134 
L 2272 0 
L 1638 0 
L 1638 4134 
L -19 4134 
L -19 4666 
z
" transform="scale(0.015625)"/>
       <path id="DejaVuSans-70" d="M 1159 525 
L 1159 -1331 
L 581 -1331 
L 581 3500 
L 1159 3500 
L 1159 2969 
Q 1341 3281 1617 3432 
Q 1894 3584 2278 3584 
Q 2916 3584 3314 3078 
Q 3713 2572 3713 1747 
Q 3713 922 3314 415 
Q 2916 -91 2278 -91 
Q 1894 -91 1617 61 
Q 1341 213 1159 525 
z
M 3116 1747 
Q 3116 2381 2855 2742 
Q 2594 3103 2138 3103 
Q 1681 3103 1420 2742 
Q 1159 2381 1159 1747 
Q 1159 1113 1420 752 
Q 1681 391 2138 391 
Q 2594 391 2855 752 
Q 3116 1113 3116 1747 
z
" transform="scale(0.015625)"/>
       <path id="DejaVuSans-39" d="M 703 97 
L 703 672 
Q 941 559 1184 500 
Q 1428 441 1663 441 
Q 2288 441 2617 861 
Q 2947 1281 2994 2138 
Q 2813 1869 2534 1725 
Q 2256 1581 1919 1581 
Q 1219 1581 811 2004 
Q 403 2428 403 3163 
Q 403 3881 828 4315 
Q 1253 4750 1959 4750 
Q 2769 4750 3195 4129 
Q 3622 3509 3622 2328 
Q 3622 1225 3098 567 
Q 2575 -91 1691 -91 
Q 1453 -91 1209 -44 
Q 966 3 703 97 
z
M 1959 2075 
Q 2384 2075 2632 2365 
Q 2881 2656 2881 3163 
Q 2881 3666 2632 3958 
Q 2384 4250 1959 4250 
Q 1534 4250 1286 3958 
Q 1038 3666 1038 3163 
Q 1038 2656 1286 2365 
Q 1534 2075 1959 2075 
z
" transform="scale(0.015625)"/>
       <path id="DejaVuSans-25" d="M 4653 2053 
Q 4381 2053 4226 1822 
Q 4072 1591 4072 1178 
Q 4072 772 4226 539 
Q 4381 306 4653 306 
Q 4919 306 5073 539 
Q 5228 772 5228 1178 
Q 5228 1588 5073 1820 
Q 4919 2053 4653 2053 
z
M 4653 2450 
Q 5147 2450 5437 2106 
Q 5728 1763 5728 1178 
Q 5728 594 5436 251 
Q 5144 -91 4653 -91 
Q 4153 -91 3862 251 
Q 3572 594 3572 1178 
Q 3572 1766 3864 2108 
Q 4156 2450 4653 2450 
z
M 1428 4353 
Q 1159 4353 1004 4120 
Q 850 3888 850 3481 
Q 850 3069 1003 2837 
Q 1156 2606 1428 2606 
Q 1700 2606 1854 2837 
Q 2009 3069 2009 3481 
Q 2009 3884 1853 4118 
Q 1697 4353 1428 4353 
z
M 4250 4750 
L 4750 4750 
L 1831 -91 
L 1331 -91 
L 4250 4750 
z
M 1428 4750 
Q 1922 4750 2215 4408 
Q 2509 4066 2509 3481 
Q 2509 2891 2217 2550 
Q 1925 2209 1428 2209 
Q 931 2209 642 2551 
Q 353 2894 353 3481 
Q 353 4063 643 4406 
Q 934 4750 1428 4750 
z
" transform="scale(0.015625)"/>
      </defs>
      <use xlink:href="#DejaVuSans-54"/>
      <use xlink:href="#DejaVuSans-6f" x="44.083984"/>
      <use xlink:href="#DejaVuSans-70" x="105.265625"/>
      <use xlink:href="#DejaVuSans-20" x="168.742188"/>
      <use xlink:href="#DejaVuSans-39" x="200.529297"/>
      <use xlink:href="#DejaVuSans-30" x="264.152344"/>
      <use xlink:href="#DejaVuSans-25" x="327.775391"/>
     </g>
    </g>
    <g id="line2d_148">
     <path d="M 259.033125 239.647715 
L 271.033125 239.647715 
L 283.033125 239.647715 
" style="fill: none; stroke-dasharray: 3.7,1.6; stroke-dashoffset: 0; stroke: #000000"/>
    </g>
    <g id="text_19">
     <!-- Fitness mean -->
     <g transform="translate(292.633125 243.847715) scale(0.12 -0.12)">
      <defs>
       <path id="DejaVuSans-6d" d="M 3328 2828 
Q 3544 3216 3844 3400 
Q 4144 3584 4550 3584 
Q 5097 3584 5394 3201 
Q 5691 2819 5691 2113 
L 5691 0 
L 5113 0 
L 5113 2094 
Q 5113 2597 4934 2840 
Q 4756 3084 4391 3084 
Q 3944 3084 3684 2787 
Q 3425 2491 3425 1978 
L 3425 0 
L 2847 0 
L 2847 2094 
Q 2847 2600 2669 2842 
Q 2491 3084 2119 3084 
Q 1678 3084 1418 2786 
Q 1159 2488 1159 1978 
L 1159 0 
L 581 0 
L 581 3500 
L 1159 3500 
L 1159 2956 
Q 1356 3278 1631 3431 
Q 1906 3584 2284 3584 
Q 2666 3584 2933 3390 
Q 3200 3197 3328 2828 
z
" transform="scale(0.015625)"/>
      </defs>
      <use xlink:href="#DejaVuSans-46"/>
      <use xlink:href="#DejaVuSans-69" x="50.269531"/>
      <use xlink:href="#DejaVuSans-74" x="78.052734"/>
      <use xlink:href="#DejaVuSans-6e" x="117.261719"/>
      <use xlink:href="#DejaVuSans-65" x="180.640625"/>
      <use xlink:href="#DejaVuSans-73" x="242.164062"/>
      <use xlink:href="#DejaVuSans-73" x="294.263672"/>
      <use xlink:href="#DejaVuSans-20" x="346.363281"/>
      <use xlink:href="#DejaVuSans-6d" x="378.150391"/>
      <use xlink:href="#DejaVuSans-65" x="475.5625"/>
      <use xlink:href="#DejaVuSans-61" x="537.085938"/>
      <use xlink:href="#DejaVuSans-6e" x="598.365234"/>
     </g>
    </g>
   </g>
  </g>
 </g>
 <defs>
  <clipPath id="p10061a9b5c">
   <rect x="48.039375" y="7.66334" width="334.8" height="249.48"/>
  </clipPath>
 </defs>
</svg>
